<svg width="1440" height="462" viewBox="0 0 1440 462" fill="none" xmlns="http://www.w3.org/2000/svg">
<g opacity="0.3" clip-path="url(#clip0_302_24807)">
<path fill-rule="evenodd" clip-rule="evenodd" d="M0 58.7206H48V0H47V57.4972H0V58.7206Z" fill="#262626"/>
<path fill-rule="evenodd" clip-rule="evenodd" d="M48 58.7206H96V0H95V57.4972H48V58.7206Z" fill="#262626"/>
<path fill-rule="evenodd" clip-rule="evenodd" d="M96 58.7206H144V0H143V57.4972H96V58.7206Z" fill="#262626"/>
<path fill-rule="evenodd" clip-rule="evenodd" d="M144 58.7206H192V0H191V57.4972H144V58.7206Z" fill="#262626"/>
<path fill-rule="evenodd" clip-rule="evenodd" d="M192 58.7206H240V0H239V57.4972H192V58.7206Z" fill="#262626"/>
<path fill-rule="evenodd" clip-rule="evenodd" d="M240 58.7206H288V0H287V57.4972H240V58.7206Z" fill="#262626"/>
<path d="M288 0H336V58.7206H288V0Z" fill="#262626"/>
<path fill-rule="evenodd" clip-rule="evenodd" d="M288 58.7206H336V0H335V57.4972H288V58.7206Z" fill="#262626"/>
<path fill-rule="evenodd" clip-rule="evenodd" d="M336 58.7206H384V0H383V57.4972H336V58.7206Z" fill="#262626"/>
<path fill-rule="evenodd" clip-rule="evenodd" d="M384 58.7206H432V0H431V57.4972H384V58.7206Z" fill="#262626"/>
<path fill-rule="evenodd" clip-rule="evenodd" d="M432 58.7206H480V0H479V57.4972H432V58.7206Z" fill="#262626"/>
<path fill-rule="evenodd" clip-rule="evenodd" d="M480 58.7206H528V0H527V57.4972H480V58.7206Z" fill="#262626"/>
<path fill-rule="evenodd" clip-rule="evenodd" d="M528 58.7206H576V0H575V57.4972H528V58.7206Z" fill="#262626"/>
<path d="M576 0H624V58.7206H576V0Z" fill="#262626"/>
<path fill-rule="evenodd" clip-rule="evenodd" d="M576 58.7206H624V0H623V57.4972H576V58.7206Z" fill="#262626"/>
<path fill-rule="evenodd" clip-rule="evenodd" d="M624 58.7206H672V0H671V57.4972H624V58.7206Z" fill="#262626"/>
<path fill-rule="evenodd" clip-rule="evenodd" d="M672 58.7206H720V0H719V57.4972H672V58.7206Z" fill="#262626"/>
<path fill-rule="evenodd" clip-rule="evenodd" d="M720 58.7206H768V0H767V57.4972H720V58.7206Z" fill="#262626"/>
<path fill-rule="evenodd" clip-rule="evenodd" d="M768 58.7206H816V0H815V57.4972H768V58.7206Z" fill="#262626"/>
<path fill-rule="evenodd" clip-rule="evenodd" d="M816 58.7206H864V0H863V57.4972H816V58.7206Z" fill="#262626"/>
<path fill-rule="evenodd" clip-rule="evenodd" d="M864 58.7206H912V0H911V57.4972H864V58.7206Z" fill="#262626"/>
<path fill-rule="evenodd" clip-rule="evenodd" d="M912 58.7206H960V0H959V57.4972H912V58.7206Z" fill="#262626"/>
<path fill-rule="evenodd" clip-rule="evenodd" d="M960 58.7206H1008V0H1007V57.4972H960V58.7206Z" fill="#262626"/>
<path fill-rule="evenodd" clip-rule="evenodd" d="M1008 58.7206H1056V0H1055V57.4972H1008V58.7206Z" fill="#262626"/>
<path d="M1056 0H1104V58.7206H1056V0Z" fill="#262626"/>
<path fill-rule="evenodd" clip-rule="evenodd" d="M1056 58.7206H1104V0H1103V57.4972H1056V58.7206Z" fill="#262626"/>
<path fill-rule="evenodd" clip-rule="evenodd" d="M1104 58.7206H1152V0H1151V57.4972H1104V58.7206Z" fill="#262626"/>
<path fill-rule="evenodd" clip-rule="evenodd" d="M1152 58.7206H1200V0H1199V57.4972H1152V58.7206Z" fill="#262626"/>
<path fill-rule="evenodd" clip-rule="evenodd" d="M1200 58.7206H1248V0H1247V57.4972H1200V58.7206Z" fill="#262626"/>
<path fill-rule="evenodd" clip-rule="evenodd" d="M1248 58.7206H1296V0H1295V57.4972H1248V58.7206Z" fill="#262626"/>
<path fill-rule="evenodd" clip-rule="evenodd" d="M1296 58.7206H1344V0H1343V57.4972H1296V58.7206Z" fill="#262626"/>
<path fill-rule="evenodd" clip-rule="evenodd" d="M1344 58.7206H1392V0H1391V57.4972H1344V58.7206Z" fill="#262626"/>
<path fill-rule="evenodd" clip-rule="evenodd" d="M1392 58.7206H1440V0H1439V57.4972H1392V58.7206Z" fill="#262626"/>
<path fill-rule="evenodd" clip-rule="evenodd" d="M0 117.441H48V58.7206L47 58.7206V116.218H0V117.441Z" fill="#262626"/>
<path fill-rule="evenodd" clip-rule="evenodd" d="M48 117.441H96V58.7206L95 58.7206V116.218H48V117.441Z" fill="#262626"/>
<path fill-rule="evenodd" clip-rule="evenodd" d="M96 117.441H144V58.7206L143 58.7206V116.218H96V117.441Z" fill="#262626"/>
<path fill-rule="evenodd" clip-rule="evenodd" d="M144 117.441H192V58.7206L191 58.7206V116.218H144V117.441Z" fill="#262626"/>
<path d="M192 58.7206H240V117.441H192V58.7206Z" fill="#262626"/>
<path fill-rule="evenodd" clip-rule="evenodd" d="M192 117.441H240V58.7206L239 58.7206V116.218H192V117.441Z" fill="#262626"/>
<path fill-rule="evenodd" clip-rule="evenodd" d="M240 117.441H288V58.7206L287 58.7206V116.218H240V117.441Z" fill="#262626"/>
<path fill-rule="evenodd" clip-rule="evenodd" d="M288 117.441H336V58.7206L335 58.7206V116.218H288V117.441Z" fill="#262626"/>
<path fill-rule="evenodd" clip-rule="evenodd" d="M336 117.441H384V58.7206L383 58.7206V116.218H336V117.441Z" fill="#262626"/>
<path d="M384 58.7206H432V117.441H384V58.7206Z" fill="#262626"/>
<path fill-rule="evenodd" clip-rule="evenodd" d="M384 117.441H432V58.7206L431 58.7206V116.218H384V117.441Z" fill="#262626"/>
<path fill-rule="evenodd" clip-rule="evenodd" d="M432 117.441H480V58.7206L479 58.7206V116.218H432V117.441Z" fill="#262626"/>
<path fill-rule="evenodd" clip-rule="evenodd" d="M480 117.441H528V58.7206L527 58.7206V116.218H480V117.441Z" fill="#262626"/>
<path fill-rule="evenodd" clip-rule="evenodd" d="M528 117.441H576V58.7206L575 58.7206V116.218H528V117.441Z" fill="#262626"/>
<path fill-rule="evenodd" clip-rule="evenodd" d="M576 117.441H624V58.7206L623 58.7206V116.218H576V117.441Z" fill="#262626"/>
<path fill-rule="evenodd" clip-rule="evenodd" d="M624 117.441H672V58.7206L671 58.7206V116.218H624V117.441Z" fill="#262626"/>
<path fill-rule="evenodd" clip-rule="evenodd" d="M672 117.441H720V58.7206L719 58.7206V116.218H672V117.441Z" fill="#262626"/>
<path fill-rule="evenodd" clip-rule="evenodd" d="M720 117.441H768V58.7206L767 58.7206V116.218H720V117.441Z" fill="#262626"/>
<path fill-rule="evenodd" clip-rule="evenodd" d="M768 117.441H816V58.7206L815 58.7206V116.218H768V117.441Z" fill="#262626"/>
<path d="M816 58.7206H864V117.441H816V58.7206Z" fill="#262626"/>
<path fill-rule="evenodd" clip-rule="evenodd" d="M816 117.441H864V58.7206L863 58.7206V116.218H816V117.441Z" fill="#262626"/>
<path fill-rule="evenodd" clip-rule="evenodd" d="M864 117.441H912V58.7206L911 58.7206V116.218H864V117.441Z" fill="#262626"/>
<path fill-rule="evenodd" clip-rule="evenodd" d="M912 117.441H960V58.7206L959 58.7206V116.218H912V117.441Z" fill="#262626"/>
<path fill-rule="evenodd" clip-rule="evenodd" d="M960 117.441H1008V58.7206L1007 58.7206V116.218H960V117.441Z" fill="#262626"/>
<path fill-rule="evenodd" clip-rule="evenodd" d="M1008 117.441H1056V58.7206L1055 58.7206V116.218H1008V117.441Z" fill="#262626"/>
<path fill-rule="evenodd" clip-rule="evenodd" d="M1056 117.441H1104V58.7206L1103 58.7206V116.218H1056V117.441Z" fill="#262626"/>
<path fill-rule="evenodd" clip-rule="evenodd" d="M1104 117.441H1152V58.7206L1151 58.7206V116.218H1104V117.441Z" fill="#262626"/>
<path fill-rule="evenodd" clip-rule="evenodd" d="M1152 117.441H1200V58.7206L1199 58.7206V116.218H1152V117.441Z" fill="#262626"/>
<path fill-rule="evenodd" clip-rule="evenodd" d="M1200 117.441H1248V58.7206L1247 58.7206V116.218H1200V117.441Z" fill="#262626"/>
<path fill-rule="evenodd" clip-rule="evenodd" d="M1248 117.441H1296V58.7206L1295 58.7206V116.218H1248V117.441Z" fill="#262626"/>
<path fill-rule="evenodd" clip-rule="evenodd" d="M1296 117.441H1344V58.7206L1343 58.7206V116.218H1296V117.441Z" fill="#262626"/>
<path d="M1344 58.7206H1392V117.441H1344V58.7206Z" fill="#262626"/>
<path fill-rule="evenodd" clip-rule="evenodd" d="M1344 117.441H1392V58.7206L1391 58.7206V116.218H1344V117.441Z" fill="#262626"/>
<path fill-rule="evenodd" clip-rule="evenodd" d="M1392 117.441H1440V58.7206L1439 58.7206V116.218H1392V117.441Z" fill="#262626"/>
<path fill-rule="evenodd" clip-rule="evenodd" d="M0 168.397H48V117.441H47V167.335H0V168.397Z" fill="#262626"/>
<path d="M48 117.441H96V168.397H48V117.441Z" fill="#262626"/>
<path fill-rule="evenodd" clip-rule="evenodd" d="M48 168.397H96V117.441H95V167.335H48V168.397Z" fill="#262626"/>
<path fill-rule="evenodd" clip-rule="evenodd" d="M96 168.397H144V117.441H143V167.335H96V168.397Z" fill="#262626"/>
<path fill-rule="evenodd" clip-rule="evenodd" d="M144 168.397H192V117.441H191V167.335H144V168.397Z" fill="#262626"/>
<path fill-rule="evenodd" clip-rule="evenodd" d="M192 168.397H240V117.441H239V167.335H192V168.397Z" fill="#262626"/>
<path fill-rule="evenodd" clip-rule="evenodd" d="M240 168.397H288V117.441H287V167.335H240V168.397Z" fill="#262626"/>
<path fill-rule="evenodd" clip-rule="evenodd" d="M288 168.397H336V117.441H335V167.335H288V168.397Z" fill="#262626"/>
<path fill-rule="evenodd" clip-rule="evenodd" d="M336 168.397H384V117.441H383V167.335H336V168.397Z" fill="#262626"/>
<path fill-rule="evenodd" clip-rule="evenodd" d="M384 168.397H432V117.441H431V167.335H384V168.397Z" fill="#262626"/>
<path fill-rule="evenodd" clip-rule="evenodd" d="M432 168.397H480V117.441H479V167.335H432V168.397Z" fill="#262626"/>
<path fill-rule="evenodd" clip-rule="evenodd" d="M480 168.397H528V117.441H527V167.335H480V168.397Z" fill="#262626"/>
<path fill-rule="evenodd" clip-rule="evenodd" d="M528 168.397H576V117.441H575V167.335H528V168.397Z" fill="#262626"/>
<path fill-rule="evenodd" clip-rule="evenodd" d="M576 168.397H624V117.441H623V167.335H576V168.397Z" fill="#262626"/>
<path d="M624 117.441H672V168.397H624V117.441Z" fill="#262626"/>
<path fill-rule="evenodd" clip-rule="evenodd" d="M624 168.397H672V117.441H671V167.335H624V168.397Z" fill="#262626"/>
<path fill-rule="evenodd" clip-rule="evenodd" d="M672 168.397H720V117.441H719V167.335H672V168.397Z" fill="#262626"/>
<path fill-rule="evenodd" clip-rule="evenodd" d="M720 168.397H768V117.441H767V167.335H720V168.397Z" fill="#262626"/>
<path fill-rule="evenodd" clip-rule="evenodd" d="M768 168.397H816V117.441H815V167.335H768V168.397Z" fill="#262626"/>
<path fill-rule="evenodd" clip-rule="evenodd" d="M816 168.397H864V117.441H863V167.335H816V168.397Z" fill="#262626"/>
<path fill-rule="evenodd" clip-rule="evenodd" d="M864 168.397H912V117.441H911V167.335H864V168.397Z" fill="#262626"/>
<path fill-rule="evenodd" clip-rule="evenodd" d="M912 168.397H960V117.441H959V167.335H912V168.397Z" fill="#262626"/>
<path fill-rule="evenodd" clip-rule="evenodd" d="M960 168.397H1008V117.441H1007V167.335H960V168.397Z" fill="#262626"/>
<path fill-rule="evenodd" clip-rule="evenodd" d="M1008 168.397H1056V117.441H1055V167.335H1008V168.397Z" fill="#262626"/>
<path d="M1056 117.441H1104V168.397H1056V117.441Z" fill="#262626"/>
<path fill-rule="evenodd" clip-rule="evenodd" d="M1056 168.397H1104V117.441H1103V167.335H1056V168.397Z" fill="#262626"/>
<path fill-rule="evenodd" clip-rule="evenodd" d="M1104 168.397H1152V117.441H1151V167.335H1104V168.397Z" fill="#262626"/>
<path fill-rule="evenodd" clip-rule="evenodd" d="M1152 168.397H1200V117.441H1199V167.335H1152V168.397Z" fill="#262626"/>
<path fill-rule="evenodd" clip-rule="evenodd" d="M1200 168.397H1248V117.441H1247V167.335H1200V168.397Z" fill="#262626"/>
<path fill-rule="evenodd" clip-rule="evenodd" d="M1248 168.397H1296V117.441H1295V167.335H1248V168.397Z" fill="#262626"/>
<path fill-rule="evenodd" clip-rule="evenodd" d="M1296 168.397H1344V117.441H1343V167.335H1296V168.397Z" fill="#262626"/>
<path fill-rule="evenodd" clip-rule="evenodd" d="M1344 168.397H1392V117.441H1391V167.335H1344V168.397Z" fill="#262626"/>
<path fill-rule="evenodd" clip-rule="evenodd" d="M1392 168.397H1440V117.441H1439V167.335H1392V168.397Z" fill="#262626"/>
<path fill-rule="evenodd" clip-rule="evenodd" d="M0 227.118H48V168.397H47V225.894H0V227.118Z" fill="#262626"/>
<path fill-rule="evenodd" clip-rule="evenodd" d="M48 227.118H96V168.397H95V225.894H48V227.118Z" fill="#262626"/>
<path fill-rule="evenodd" clip-rule="evenodd" d="M96 227.118H144V168.397H143V225.894H96V227.118Z" fill="#262626"/>
<path d="M144 168.397H192V227.118H144V168.397Z" fill="#262626"/>
<path fill-rule="evenodd" clip-rule="evenodd" d="M144 227.118H192V168.397H191V225.894H144V227.118Z" fill="#262626"/>
<path fill-rule="evenodd" clip-rule="evenodd" d="M192 227.118H240V168.397H239V225.894H192V227.118Z" fill="#262626"/>
<path fill-rule="evenodd" clip-rule="evenodd" d="M240 227.118H288V168.397H287V225.894H240V227.118Z" fill="#262626"/>
<path fill-rule="evenodd" clip-rule="evenodd" d="M288 227.118H336V168.397H335V225.894H288V227.118Z" fill="#262626"/>
<path fill-rule="evenodd" clip-rule="evenodd" d="M336 227.118H384V168.397H383V225.894H336V227.118Z" fill="#262626"/>
<path fill-rule="evenodd" clip-rule="evenodd" d="M384 227.118H432V168.397H431V225.894H384V227.118Z" fill="#262626"/>
<path fill-rule="evenodd" clip-rule="evenodd" d="M432 227.118H480V168.397H479V225.894H432V227.118Z" fill="#262626"/>
<path fill-rule="evenodd" clip-rule="evenodd" d="M480 227.118H528V168.397H527V225.894H480V227.118Z" fill="#262626"/>
<path d="M528 168.397H576V227.118H528V168.397Z" fill="#262626"/>
<path fill-rule="evenodd" clip-rule="evenodd" d="M528 227.118H576V168.397H575V225.894H528V227.118Z" fill="#262626"/>
<path fill-rule="evenodd" clip-rule="evenodd" d="M576 227.118H624V168.397H623V225.894H576V227.118Z" fill="#262626"/>
<path fill-rule="evenodd" clip-rule="evenodd" d="M624 227.118H672V168.397H671V225.894H624V227.118Z" fill="#262626"/>
<path fill-rule="evenodd" clip-rule="evenodd" d="M672 227.118H720V168.397H719V225.894H672V227.118Z" fill="#262626"/>
<path fill-rule="evenodd" clip-rule="evenodd" d="M720 227.118H768V168.397H767V225.894H720V227.118Z" fill="#262626"/>
<path fill-rule="evenodd" clip-rule="evenodd" d="M768 227.118H816V168.397H815V225.894H768V227.118Z" fill="#262626"/>
<path fill-rule="evenodd" clip-rule="evenodd" d="M816 227.118H864V168.397H863V225.894H816V227.118Z" fill="#262626"/>
<path fill-rule="evenodd" clip-rule="evenodd" d="M864 227.118H912V168.397H911V225.894H864V227.118Z" fill="#262626"/>
<path fill-rule="evenodd" clip-rule="evenodd" d="M912 227.118H960V168.397H959V225.894H912V227.118Z" fill="#262626"/>
<path fill-rule="evenodd" clip-rule="evenodd" d="M960 227.118H1008V168.397H1007V225.894H960V227.118Z" fill="#262626"/>
<path d="M1008 168.397H1056V227.118H1008V168.397Z" fill="#262626"/>
<path fill-rule="evenodd" clip-rule="evenodd" d="M1008 227.118H1056V168.397H1055V225.894H1008V227.118Z" fill="#262626"/>
<path fill-rule="evenodd" clip-rule="evenodd" d="M1056 227.118H1104V168.397H1103V225.894H1056V227.118Z" fill="#262626"/>
<path fill-rule="evenodd" clip-rule="evenodd" d="M1104 227.118H1152V168.397H1151V225.894H1104V227.118Z" fill="#262626"/>
<path fill-rule="evenodd" clip-rule="evenodd" d="M1152 227.118H1200V168.397H1199V225.894H1152V227.118Z" fill="#262626"/>
<path fill-rule="evenodd" clip-rule="evenodd" d="M1200 227.118H1248V168.397H1247V225.894H1200V227.118Z" fill="#262626"/>
<path fill-rule="evenodd" clip-rule="evenodd" d="M1248 227.118H1296V168.397H1295V225.894H1248V227.118Z" fill="#262626"/>
<path fill-rule="evenodd" clip-rule="evenodd" d="M1296 227.118H1344V168.397H1343V225.894H1296V227.118Z" fill="#262626"/>
<path fill-rule="evenodd" clip-rule="evenodd" d="M1344 227.118H1392V168.397H1391V225.894H1344V227.118Z" fill="#262626"/>
<path fill-rule="evenodd" clip-rule="evenodd" d="M1392 227.118H1440V168.397H1439V225.894H1392V227.118Z" fill="#262626"/>
<path fill-rule="evenodd" clip-rule="evenodd" d="M0 285.838H48V227.118H47V284.615H0V285.838Z" fill="#262626"/>
<path fill-rule="evenodd" clip-rule="evenodd" d="M48 285.838H96V227.118H95V284.615H48V285.838Z" fill="#262626"/>
<path fill-rule="evenodd" clip-rule="evenodd" d="M96 285.838H144V227.118H143V284.615H96V285.838Z" fill="#262626"/>
<path fill-rule="evenodd" clip-rule="evenodd" d="M144 285.838H192V227.118H191V284.615H144V285.838Z" fill="#262626"/>
<path fill-rule="evenodd" clip-rule="evenodd" d="M192 285.838H240V227.118H239V284.615H192V285.838Z" fill="#262626"/>
<path fill-rule="evenodd" clip-rule="evenodd" d="M240 285.838H288V227.118H287V284.615H240V285.838Z" fill="#262626"/>
<path fill-rule="evenodd" clip-rule="evenodd" d="M288 285.838H336V227.118H335V284.615H288V285.838Z" fill="#262626"/>
<path fill-rule="evenodd" clip-rule="evenodd" d="M336 285.838H384V227.118H383V284.615H336V285.838Z" fill="#262626"/>
<path fill-rule="evenodd" clip-rule="evenodd" d="M384 285.838H432V227.118H431V284.615H384V285.838Z" fill="#262626"/>
<path d="M432 227.118H480V285.838H432V227.118Z" fill="#262626"/>
<path fill-rule="evenodd" clip-rule="evenodd" d="M432 285.838H480V227.118H479V284.615H432V285.838Z" fill="#262626"/>
<path fill-rule="evenodd" clip-rule="evenodd" d="M480 285.838H528V227.118H527V284.615H480V285.838Z" fill="#262626"/>
<path fill-rule="evenodd" clip-rule="evenodd" d="M528 285.838H576V227.118H575V284.615H528V285.838Z" fill="#262626"/>
<path fill-rule="evenodd" clip-rule="evenodd" d="M576 285.838H624V227.118H623V284.615H576V285.838Z" fill="#262626"/>
<path fill-rule="evenodd" clip-rule="evenodd" d="M624 285.838H672V227.118H671V284.615H624V285.838Z" fill="#262626"/>
<path fill-rule="evenodd" clip-rule="evenodd" d="M672 285.838H720V227.118H719V284.615H672V285.838Z" fill="#262626"/>
<path fill-rule="evenodd" clip-rule="evenodd" d="M720 285.838H768V227.118H767V284.615H720V285.838Z" fill="#262626"/>
<path fill-rule="evenodd" clip-rule="evenodd" d="M768 285.838H816V227.118H815V284.615H768V285.838Z" fill="#262626"/>
<path fill-rule="evenodd" clip-rule="evenodd" d="M816 285.838H864V227.118H863V284.615H816V285.838Z" fill="#262626"/>
<path fill-rule="evenodd" clip-rule="evenodd" d="M864 285.838H912V227.118H911V284.615H864V285.838Z" fill="#262626"/>
<path fill-rule="evenodd" clip-rule="evenodd" d="M912 285.838H960V227.118H959V284.615H912V285.838Z" fill="#262626"/>
<path fill-rule="evenodd" clip-rule="evenodd" d="M960 285.838H1008V227.118H1007V284.615H960V285.838Z" fill="#262626"/>
<path fill-rule="evenodd" clip-rule="evenodd" d="M1008 285.838H1056V227.118H1055V284.615H1008V285.838Z" fill="#262626"/>
<path fill-rule="evenodd" clip-rule="evenodd" d="M1056 285.838H1104V227.118H1103V284.615H1056V285.838Z" fill="#262626"/>
<path d="M1104 227.118H1152V285.838H1104V227.118Z" fill="#262626"/>
<path fill-rule="evenodd" clip-rule="evenodd" d="M1104 285.838H1152V227.118H1151V284.615H1104V285.838Z" fill="#262626"/>
<path fill-rule="evenodd" clip-rule="evenodd" d="M1152 285.838H1200V227.118H1199V284.615H1152V285.838Z" fill="#262626"/>
<path fill-rule="evenodd" clip-rule="evenodd" d="M1200 285.838H1248V227.118H1247V284.615H1200V285.838Z" fill="#262626"/>
<path fill-rule="evenodd" clip-rule="evenodd" d="M1248 285.838H1296V227.118H1295V284.615H1248V285.838Z" fill="#262626"/>
<path fill-rule="evenodd" clip-rule="evenodd" d="M1296 285.838H1344V227.118H1343V284.615H1296V285.838Z" fill="#262626"/>
<path fill-rule="evenodd" clip-rule="evenodd" d="M1344 285.838H1392V227.118H1391V284.615H1344V285.838Z" fill="#262626"/>
<path fill-rule="evenodd" clip-rule="evenodd" d="M1392 285.838H1440V227.118H1439V284.615H1392V285.838Z" fill="#262626"/>
<path fill-rule="evenodd" clip-rule="evenodd" d="M0 344.559H48V285.838H47V343.335H0V344.559Z" fill="#262626"/>
<path fill-rule="evenodd" clip-rule="evenodd" d="M48 344.559H96V285.838H95V343.335H48V344.559Z" fill="#262626"/>
<path fill-rule="evenodd" clip-rule="evenodd" d="M96 344.559H144V285.838H143V343.335H96V344.559Z" fill="#262626"/>
<path fill-rule="evenodd" clip-rule="evenodd" d="M144 344.559H192V285.838H191V343.335H144V344.559Z" fill="#262626"/>
<path d="M192 285.838H240V344.559H192V285.838Z" fill="#262626"/>
<path fill-rule="evenodd" clip-rule="evenodd" d="M192 344.559H240V285.838H239V343.335H192V344.559Z" fill="#262626"/>
<path fill-rule="evenodd" clip-rule="evenodd" d="M240 344.559H288V285.838H287V343.335H240V344.559Z" fill="#262626"/>
<path fill-rule="evenodd" clip-rule="evenodd" d="M288 344.559H336V285.838H335V343.335H288V344.559Z" fill="#262626"/>
<path fill-rule="evenodd" clip-rule="evenodd" d="M336 344.559H384V285.838H383V343.335H336V344.559Z" fill="#262626"/>
<path fill-rule="evenodd" clip-rule="evenodd" d="M384 344.559H432V285.838H431V343.335H384V344.559Z" fill="#262626"/>
<path fill-rule="evenodd" clip-rule="evenodd" d="M432 344.559H480V285.838H479V343.335H432V344.559Z" fill="#262626"/>
<path fill-rule="evenodd" clip-rule="evenodd" d="M480 344.559H528V285.838H527V343.335H480V344.559Z" fill="#262626"/>
<path fill-rule="evenodd" clip-rule="evenodd" d="M528 344.559H576V285.838H575V343.335H528V344.559Z" fill="#262626"/>
<path fill-rule="evenodd" clip-rule="evenodd" d="M576 344.559H624V285.838H623V343.335H576V344.559Z" fill="#262626"/>
<path d="M624 285.838H672V344.559H624V285.838Z" fill="#262626"/>
<path fill-rule="evenodd" clip-rule="evenodd" d="M624 344.559H672V285.838H671V343.335H624V344.559Z" fill="#262626"/>
<path fill-rule="evenodd" clip-rule="evenodd" d="M672 344.559H720V285.838H719V343.335H672V344.559Z" fill="#262626"/>
<path fill-rule="evenodd" clip-rule="evenodd" d="M720 344.559H768V285.838H767V343.335H720V344.559Z" fill="#262626"/>
<path fill-rule="evenodd" clip-rule="evenodd" d="M768 344.559H816V285.838H815V343.335H768V344.559Z" fill="#262626"/>
<path fill-rule="evenodd" clip-rule="evenodd" d="M816 344.559H864V285.838H863V343.335H816V344.559Z" fill="#262626"/>
<path fill-rule="evenodd" clip-rule="evenodd" d="M864 344.559H912V285.838H911V343.335H864V344.559Z" fill="#262626"/>
<path fill-rule="evenodd" clip-rule="evenodd" d="M912 344.559H960V285.838H959V343.335H912V344.559Z" fill="#262626"/>
<path d="M960 285.838H1008V344.559H960V285.838Z" fill="#262626"/>
<path fill-rule="evenodd" clip-rule="evenodd" d="M960 344.559H1008V285.838H1007V343.335H960V344.559Z" fill="#262626"/>
<path fill-rule="evenodd" clip-rule="evenodd" d="M1008 344.559H1056V285.838H1055V343.335H1008V344.559Z" fill="#262626"/>
<path fill-rule="evenodd" clip-rule="evenodd" d="M1056 344.559H1104V285.838H1103V343.335H1056V344.559Z" fill="#262626"/>
<path fill-rule="evenodd" clip-rule="evenodd" d="M1104 344.559H1152V285.838H1151V343.335H1104V344.559Z" fill="#262626"/>
<path fill-rule="evenodd" clip-rule="evenodd" d="M1152 344.559H1200V285.838H1199V343.335H1152V344.559Z" fill="#262626"/>
<path fill-rule="evenodd" clip-rule="evenodd" d="M1200 344.559H1248V285.838H1247V343.335H1200V344.559Z" fill="#262626"/>
<path fill-rule="evenodd" clip-rule="evenodd" d="M1248 344.559H1296V285.838H1295V343.335H1248V344.559Z" fill="#262626"/>
<path fill-rule="evenodd" clip-rule="evenodd" d="M1296 344.559H1344V285.838H1343V343.335H1296V344.559Z" fill="#262626"/>
<path fill-rule="evenodd" clip-rule="evenodd" d="M1344 344.559H1392V285.838H1391V343.335H1344V344.559Z" fill="#262626"/>
<path fill-rule="evenodd" clip-rule="evenodd" d="M1392 344.559H1440V285.838H1439V343.335H1392V344.559Z" fill="#262626"/>
<path fill-rule="evenodd" clip-rule="evenodd" d="M0 403.279H48V344.559H47V402.056H0V403.279Z" fill="#262626"/>
<path d="M48 344.559H96V403.279H48V344.559Z" fill="#262626"/>
<path fill-rule="evenodd" clip-rule="evenodd" d="M48 403.279H96V344.559H95V402.056H48V403.279Z" fill="#262626"/>
<path fill-rule="evenodd" clip-rule="evenodd" d="M96 403.279H144V344.559H143V402.056H96V403.279Z" fill="#262626"/>
<path fill-rule="evenodd" clip-rule="evenodd" d="M144 403.279H192V344.559H191V402.056H144V403.279Z" fill="#262626"/>
<path fill-rule="evenodd" clip-rule="evenodd" d="M192 403.279H240V344.559H239V402.056H192V403.279Z" fill="#262626"/>
<path fill-rule="evenodd" clip-rule="evenodd" d="M240 403.279H288V344.559H287V402.056H240V403.279Z" fill="#262626"/>
<path fill-rule="evenodd" clip-rule="evenodd" d="M288 403.279H336V344.559H335V402.056H288V403.279Z" fill="#262626"/>
<path d="M336 344.559H384V403.279H336V344.559Z" fill="#262626"/>
<path fill-rule="evenodd" clip-rule="evenodd" d="M336 403.279H384V344.559H383V402.056H336V403.279Z" fill="#262626"/>
<path fill-rule="evenodd" clip-rule="evenodd" d="M384 403.279H432V344.559H431V402.056H384V403.279Z" fill="#262626"/>
<path fill-rule="evenodd" clip-rule="evenodd" d="M432 403.279H480V344.559H479V402.056H432V403.279Z" fill="#262626"/>
<path fill-rule="evenodd" clip-rule="evenodd" d="M480 403.279H528V344.559H527V402.056H480V403.279Z" fill="#262626"/>
<path fill-rule="evenodd" clip-rule="evenodd" d="M528 403.279H576V344.559H575V402.056H528V403.279Z" fill="#262626"/>
<path fill-rule="evenodd" clip-rule="evenodd" d="M576 403.279H624V344.559H623V402.056H576V403.279Z" fill="#262626"/>
<path fill-rule="evenodd" clip-rule="evenodd" d="M624 403.279H672V344.559H671V402.056H624V403.279Z" fill="#262626"/>
<path fill-rule="evenodd" clip-rule="evenodd" d="M672 403.279H720V344.559H719V402.056H672V403.279Z" fill="#262626"/>
<path d="M720 344.559H768V403.279H720V344.559Z" fill="#262626"/>
<path fill-rule="evenodd" clip-rule="evenodd" d="M720 403.279H768V344.559H767V402.056H720V403.279Z" fill="#262626"/>
<path fill-rule="evenodd" clip-rule="evenodd" d="M768 403.279H816V344.559H815V402.056H768V403.279Z" fill="#262626"/>
<path fill-rule="evenodd" clip-rule="evenodd" d="M816 403.279H864V344.559H863V402.056H816V403.279Z" fill="#262626"/>
<path fill-rule="evenodd" clip-rule="evenodd" d="M864 403.279H912V344.559H911V402.056H864V403.279Z" fill="#262626"/>
<path fill-rule="evenodd" clip-rule="evenodd" d="M912 403.279H960V344.559H959V402.056H912V403.279Z" fill="#262626"/>
<path fill-rule="evenodd" clip-rule="evenodd" d="M960 403.279H1008V344.559H1007V402.056H960V403.279Z" fill="#262626"/>
<path fill-rule="evenodd" clip-rule="evenodd" d="M1008 403.279H1056V344.559H1055V402.056H1008V403.279Z" fill="#262626"/>
<path fill-rule="evenodd" clip-rule="evenodd" d="M1056 403.279H1104V344.559H1103V402.056H1056V403.279Z" fill="#262626"/>
<path fill-rule="evenodd" clip-rule="evenodd" d="M1104 403.279H1152V344.559H1151V402.056H1104V403.279Z" fill="#262626"/>
<path d="M1152 344.559H1200V403.279H1152V344.559Z" fill="#262626"/>
<path fill-rule="evenodd" clip-rule="evenodd" d="M1152 403.279H1200V344.559H1199V402.056H1152V403.279Z" fill="#262626"/>
<path fill-rule="evenodd" clip-rule="evenodd" d="M1200 403.279H1248V344.559H1247V402.056H1200V403.279Z" fill="#262626"/>
<path fill-rule="evenodd" clip-rule="evenodd" d="M1248 403.279H1296V344.559H1295V402.056H1248V403.279Z" fill="#262626"/>
<path fill-rule="evenodd" clip-rule="evenodd" d="M1296 403.279H1344V344.559H1343V402.056H1296V403.279Z" fill="#262626"/>
<path fill-rule="evenodd" clip-rule="evenodd" d="M1344 403.279H1392V344.559H1391V402.056H1344V403.279Z" fill="#262626"/>
<path fill-rule="evenodd" clip-rule="evenodd" d="M1392 403.279H1440V344.559H1439V402.056H1392V403.279Z" fill="#262626"/>
<path fill-rule="evenodd" clip-rule="evenodd" d="M0 462H48V403.279H47V460.777H0V462Z" fill="#262626"/>
<path fill-rule="evenodd" clip-rule="evenodd" d="M48 462H96V403.279H95V460.777H48V462Z" fill="#262626"/>
<path fill-rule="evenodd" clip-rule="evenodd" d="M96 462H144V403.279H143V460.777H96V462Z" fill="#262626"/>
<path fill-rule="evenodd" clip-rule="evenodd" d="M144 462H192V403.279H191V460.777H144V462Z" fill="#262626"/>
<path fill-rule="evenodd" clip-rule="evenodd" d="M192 462H240V403.279H239V460.777H192V462Z" fill="#262626"/>
<path fill-rule="evenodd" clip-rule="evenodd" d="M240 462H288V403.279H287V460.777H240V462Z" fill="#262626"/>
<path fill-rule="evenodd" clip-rule="evenodd" d="M288 462H336V403.279H335V460.777H288V462Z" fill="#262626"/>
<path fill-rule="evenodd" clip-rule="evenodd" d="M336 462H384V403.279H383V460.777H336V462Z" fill="#262626"/>
<path fill-rule="evenodd" clip-rule="evenodd" d="M384 462H432V403.279H431V460.777H384V462Z" fill="#262626"/>
<path fill-rule="evenodd" clip-rule="evenodd" d="M432 462H480V403.279H479V460.777H432V462Z" fill="#262626"/>
<path fill-rule="evenodd" clip-rule="evenodd" d="M480 462H528V403.279H527V460.777H480V462Z" fill="#262626"/>
<path fill-rule="evenodd" clip-rule="evenodd" d="M528 462H576V403.279H575V460.777H528V462Z" fill="#262626"/>
<path fill-rule="evenodd" clip-rule="evenodd" d="M576 462H624V403.279H623V460.777H576V462Z" fill="#262626"/>
<path fill-rule="evenodd" clip-rule="evenodd" d="M624 462H672V403.279H671V460.777H624V462Z" fill="#262626"/>
<path fill-rule="evenodd" clip-rule="evenodd" d="M672 462H720V403.279H719V460.777H672V462Z" fill="#262626"/>
<path fill-rule="evenodd" clip-rule="evenodd" d="M720 462H768V403.279H767V460.777H720V462Z" fill="#262626"/>
<path fill-rule="evenodd" clip-rule="evenodd" d="M768 462H816V403.279H815V460.777H768V462Z" fill="#262626"/>
<path fill-rule="evenodd" clip-rule="evenodd" d="M816 462H864V403.279H863V460.777H816V462Z" fill="#262626"/>
<path fill-rule="evenodd" clip-rule="evenodd" d="M864 462H912V403.279H911V460.777H864V462Z" fill="#262626"/>
<path fill-rule="evenodd" clip-rule="evenodd" d="M912 462H960V403.279H959V460.777H912V462Z" fill="#262626"/>
<path fill-rule="evenodd" clip-rule="evenodd" d="M960 462H1008V403.279H1007V460.777H960V462Z" fill="#262626"/>
<path fill-rule="evenodd" clip-rule="evenodd" d="M1008 462H1056V403.279H1055V460.777H1008V462Z" fill="#262626"/>
<path fill-rule="evenodd" clip-rule="evenodd" d="M1056 462H1104V403.279H1103V460.777H1056V462Z" fill="#262626"/>
<path fill-rule="evenodd" clip-rule="evenodd" d="M1104 462H1152V403.279H1151V460.777H1104V462Z" fill="#262626"/>
<path fill-rule="evenodd" clip-rule="evenodd" d="M1152 462H1200V403.279H1199V460.777H1152V462Z" fill="#262626"/>
<path fill-rule="evenodd" clip-rule="evenodd" d="M1200 462H1248V403.279H1247V460.777H1200V462Z" fill="#262626"/>
<path fill-rule="evenodd" clip-rule="evenodd" d="M1248 462H1296V403.279H1295V460.777H1248V462Z" fill="#262626"/>
<path fill-rule="evenodd" clip-rule="evenodd" d="M1296 462H1344V403.279H1343V460.777H1296V462Z" fill="#262626"/>
<path fill-rule="evenodd" clip-rule="evenodd" d="M1344 462H1392V403.279H1391V460.777H1344V462Z" fill="#262626"/>
<path fill-rule="evenodd" clip-rule="evenodd" d="M1392 462H1440V403.279H1439V460.777H1392V462Z" fill="#262626"/>
</g>
<defs>
<clipPath id="clip0_302_24807">
<rect width="1440" height="462" fill="white"/>
</clipPath>
</defs>
</svg>
