<svg fill="none" height="462" viewBox="0 0 1440 462" width="1440" xmlns="http://www.w3.org/2000/svg" xmlns:xlink="http://www.w3.org/1999/xlink"><clipPath id="a"><path d="m0 0h1440v462h-1440z"/></clipPath><g clip-path="url(#a)" opacity=".3"><path clip-rule="evenodd" d="m0 58.7206h48v-58.7206h-1v57.4972h-47z" fill="#1a56db" fill-opacity=".1" fill-rule="evenodd"/><path clip-rule="evenodd" d="m48 58.7206h48v-58.7206h-1v57.4972h-47z" fill="#1a56db" fill-opacity=".1" fill-rule="evenodd"/><path clip-rule="evenodd" d="m96 58.7206h48v-58.7206h-1v57.4972h-47z" fill="#1a56db" fill-opacity=".1" fill-rule="evenodd"/><path clip-rule="evenodd" d="m144 58.7206h48v-58.7206h-1v57.4972h-47z" fill="#1a56db" fill-opacity=".1" fill-rule="evenodd"/><path clip-rule="evenodd" d="m192 58.7206h48v-58.7206h-1v57.4972h-47z" fill="#1a56db" fill-opacity=".1" fill-rule="evenodd"/><path clip-rule="evenodd" d="m240 58.7206h48v-58.7206h-1v57.4972h-47z" fill="#1a56db" fill-opacity=".1" fill-rule="evenodd"/><path d="m288 0h48v58.7206h-48z" fill="#e1effe"/><path clip-rule="evenodd" d="m288 58.7206h48v-58.7206h-1v57.4972h-47z" fill="#e1effe" fill-rule="evenodd"/><path clip-rule="evenodd" d="m336 58.7206h48v-58.7206h-1v57.4972h-47z" fill="#1a56db" fill-opacity=".1" fill-rule="evenodd"/><path clip-rule="evenodd" d="m384 58.7206h48v-58.7206h-1v57.4972h-47z" fill="#1a56db" fill-opacity=".1" fill-rule="evenodd"/><path clip-rule="evenodd" d="m432 58.7206h48v-58.7206h-1v57.4972h-47z" fill="#1a56db" fill-opacity=".1" fill-rule="evenodd"/><path clip-rule="evenodd" d="m480 58.7206h48v-58.7206h-1v57.4972h-47z" fill="#1a56db" fill-opacity=".1" fill-rule="evenodd"/><path clip-rule="evenodd" d="m528 58.7206h48v-58.7206h-1v57.4972h-47z" fill="#1a56db" fill-opacity=".1" fill-rule="evenodd"/><path d="m576 0h48v58.7206h-48z" fill="#e1effe"/><path clip-rule="evenodd" d="m576 58.7206h48v-58.7206h-1v57.4972h-47z" fill="#e1effe" fill-rule="evenodd"/><path clip-rule="evenodd" d="m624 58.7206h48v-58.7206h-1v57.4972h-47z" fill="#1a56db" fill-opacity=".1" fill-rule="evenodd"/><path clip-rule="evenodd" d="m672 58.7206h48v-58.7206h-1v57.4972h-47z" fill="#1a56db" fill-opacity=".1" fill-rule="evenodd"/><path clip-rule="evenodd" d="m720 58.7206h48v-58.7206h-1v57.4972h-47z" fill="#1a56db" fill-opacity=".1" fill-rule="evenodd"/><path clip-rule="evenodd" d="m768 58.7206h48v-58.7206h-1v57.4972h-47z" fill="#1a56db" fill-opacity=".1" fill-rule="evenodd"/><path clip-rule="evenodd" d="m816 58.7206h48v-58.7206h-1v57.4972h-47z" fill="#1a56db" fill-opacity=".1" fill-rule="evenodd"/><path clip-rule="evenodd" d="m864 58.7206h48v-58.7206h-1v57.4972h-47z" fill="#1a56db" fill-opacity=".1" fill-rule="evenodd"/><path clip-rule="evenodd" d="m912 58.7206h48v-58.7206h-1v57.4972h-47z" fill="#1a56db" fill-opacity=".1" fill-rule="evenodd"/><path clip-rule="evenodd" d="m960 58.7206h48v-58.7206h-1v57.4972h-47z" fill="#1a56db" fill-opacity=".1" fill-rule="evenodd"/><path clip-rule="evenodd" d="m1008 58.7206h48v-58.7206h-1v57.4972h-47z" fill="#1a56db" fill-opacity=".1" fill-rule="evenodd"/><path d="m1056 0h48v58.7206h-48z" fill="#e1effe"/><path clip-rule="evenodd" d="m1056 58.7206h48v-58.7206h-1v57.4972h-47z" fill="#e1effe" fill-rule="evenodd"/><path clip-rule="evenodd" d="m1104 58.7206h48v-58.7206h-1v57.4972h-47z" fill="#1a56db" fill-opacity=".1" fill-rule="evenodd"/><path clip-rule="evenodd" d="m1152 58.7206h48v-58.7206h-1v57.4972h-47z" fill="#1a56db" fill-opacity=".1" fill-rule="evenodd"/><path clip-rule="evenodd" d="m1200 58.7206h48v-58.7206h-1v57.4972h-47z" fill="#1a56db" fill-opacity=".1" fill-rule="evenodd"/><path clip-rule="evenodd" d="m1248 58.7206h48v-58.7206h-1v57.4972h-47z" fill="#1a56db" fill-opacity=".1" fill-rule="evenodd"/><path clip-rule="evenodd" d="m1296 58.7206h48v-58.7206h-1v57.4972h-47z" fill="#1a56db" fill-opacity=".1" fill-rule="evenodd"/><path clip-rule="evenodd" d="m1344 58.7206h48v-58.7206h-1v57.4972h-47z" fill="#1a56db" fill-opacity=".1" fill-rule="evenodd"/><path clip-rule="evenodd" d="m1392 58.7206h48v-58.7206h-1v57.4972h-47z" fill="#1a56db" fill-opacity=".1" fill-rule="evenodd"/><path clip-rule="evenodd" d="m0 117.441h48v-58.7204h-1v57.4974h-47z" fill="#1a56db" fill-opacity=".1" fill-rule="evenodd"/><path clip-rule="evenodd" d="m48 117.441h48v-58.7204h-1v57.4974h-47z" fill="#1a56db" fill-opacity=".1" fill-rule="evenodd"/><path clip-rule="evenodd" d="m96 117.441h48v-58.7204h-1v57.4974h-47z" fill="#1a56db" fill-opacity=".1" fill-rule="evenodd"/><path clip-rule="evenodd" d="m144 117.441h48v-58.7204h-1v57.4974h-47z" fill="#1a56db" fill-opacity=".1" fill-rule="evenodd"/><path d="m192 58.7206h48v58.7204h-48z" fill="#e1effe"/><path clip-rule="evenodd" d="m192 117.441h48v-58.7204h-1v57.4974h-47z" fill="#e1effe" fill-rule="evenodd"/><path clip-rule="evenodd" d="m240 117.441h48v-58.7204h-1v57.4974h-47z" fill="#1a56db" fill-opacity=".1" fill-rule="evenodd"/><path clip-rule="evenodd" d="m288 117.441h48v-58.7204h-1v57.4974h-47z" fill="#1a56db" fill-opacity=".1" fill-rule="evenodd"/><path clip-rule="evenodd" d="m336 117.441h48v-58.7204h-1v57.4974h-47z" fill="#1a56db" fill-opacity=".1" fill-rule="evenodd"/><path d="m384 58.7206h48v58.7204h-48z" fill="#e1effe"/><path clip-rule="evenodd" d="m384 117.441h48v-58.7204h-1v57.4974h-47z" fill="#e1effe" fill-rule="evenodd"/><path clip-rule="evenodd" d="m432 117.441h48v-58.7204h-1v57.4974h-47z" fill="#1a56db" fill-opacity=".1" fill-rule="evenodd"/><path clip-rule="evenodd" d="m480 117.441h48v-58.7204h-1v57.4974h-47z" fill="#1a56db" fill-opacity=".1" fill-rule="evenodd"/><path clip-rule="evenodd" d="m528 117.441h48v-58.7204h-1v57.4974h-47z" fill="#1a56db" fill-opacity=".1" fill-rule="evenodd"/><path clip-rule="evenodd" d="m576 117.441h48v-58.7204h-1v57.4974h-47z" fill="#1a56db" fill-opacity=".1" fill-rule="evenodd"/><path clip-rule="evenodd" d="m624 117.441h48v-58.7204h-1v57.4974h-47z" fill="#1a56db" fill-opacity=".1" fill-rule="evenodd"/><path clip-rule="evenodd" d="m672 117.441h48v-58.7204h-1v57.4974h-47z" fill="#1a56db" fill-opacity=".1" fill-rule="evenodd"/><path clip-rule="evenodd" d="m720 117.441h48v-58.7204h-1v57.4974h-47z" fill="#1a56db" fill-opacity=".1" fill-rule="evenodd"/><path clip-rule="evenodd" d="m768 117.441h48v-58.7204h-1v57.4974h-47z" fill="#1a56db" fill-opacity=".1" fill-rule="evenodd"/><path d="m816 58.7206h48v58.7204h-48z" fill="#e1effe"/><path clip-rule="evenodd" d="m816 117.441h48v-58.7204h-1v57.4974h-47z" fill="#e1effe" fill-rule="evenodd"/><path clip-rule="evenodd" d="m864 117.441h48v-58.7204h-1v57.4974h-47z" fill="#1a56db" fill-opacity=".1" fill-rule="evenodd"/><path clip-rule="evenodd" d="m912 117.441h48v-58.7204h-1v57.4974h-47z" fill="#1a56db" fill-opacity=".1" fill-rule="evenodd"/><path clip-rule="evenodd" d="m960 117.441h48v-58.7204h-1v57.4974h-47z" fill="#1a56db" fill-opacity=".1" fill-rule="evenodd"/><path clip-rule="evenodd" d="m1008 117.441h48v-58.7204h-1v57.4974h-47z" fill="#1a56db" fill-opacity=".1" fill-rule="evenodd"/><path clip-rule="evenodd" d="m1056 117.441h48v-58.7204h-1v57.4974h-47z" fill="#1a56db" fill-opacity=".1" fill-rule="evenodd"/><path clip-rule="evenodd" d="m1104 117.441h48v-58.7204h-1v57.4974h-47z" fill="#1a56db" fill-opacity=".1" fill-rule="evenodd"/><path clip-rule="evenodd" d="m1152 117.441h48v-58.7204h-1v57.4974h-47z" fill="#1a56db" fill-opacity=".1" fill-rule="evenodd"/><path clip-rule="evenodd" d="m1200 117.441h48v-58.7204h-1v57.4974h-47z" fill="#1a56db" fill-opacity=".1" fill-rule="evenodd"/><path clip-rule="evenodd" d="m1248 117.441h48v-58.7204h-1v57.4974h-47z" fill="#1a56db" fill-opacity=".1" fill-rule="evenodd"/><path clip-rule="evenodd" d="m1296 117.441h48v-58.7204h-1v57.4974h-47z" fill="#1a56db" fill-opacity=".1" fill-rule="evenodd"/><path d="m1344 58.7206h48v58.7204h-48z" fill="#e1effe"/><path clip-rule="evenodd" d="m1344 117.441h48v-58.7204h-1v57.4974h-47z" fill="#e1effe" fill-rule="evenodd"/><path clip-rule="evenodd" d="m1392 117.441h48v-58.7204h-1v57.4974h-47z" fill="#1a56db" fill-opacity=".1" fill-rule="evenodd"/><path clip-rule="evenodd" d="m0 168.397h48v-50.956h-1v49.894h-47z" fill="#1a56db" fill-opacity=".1" fill-rule="evenodd"/><path d="m48 117.441h48v50.956h-48z" fill="#e1effe"/><path clip-rule="evenodd" d="m48 168.397h48v-50.956h-1v49.894h-47z" fill="#e1effe" fill-rule="evenodd"/><path clip-rule="evenodd" d="m96 168.397h48v-50.956h-1v49.894h-47z" fill="#1a56db" fill-opacity=".1" fill-rule="evenodd"/><path clip-rule="evenodd" d="m144 168.397h48v-50.956h-1v49.894h-47z" fill="#1a56db" fill-opacity=".1" fill-rule="evenodd"/><path clip-rule="evenodd" d="m192 168.397h48v-50.956h-1v49.894h-47z" fill="#1a56db" fill-opacity=".1" fill-rule="evenodd"/><path clip-rule="evenodd" d="m240 168.397h48v-50.956h-1v49.894h-47z" fill="#1a56db" fill-opacity=".1" fill-rule="evenodd"/><path clip-rule="evenodd" d="m288 168.397h48v-50.956h-1v49.894h-47z" fill="#1a56db" fill-opacity=".1" fill-rule="evenodd"/><path clip-rule="evenodd" d="m336 168.397h48v-50.956h-1v49.894h-47z" fill="#1a56db" fill-opacity=".1" fill-rule="evenodd"/><path clip-rule="evenodd" d="m384 168.397h48v-50.956h-1v49.894h-47z" fill="#1a56db" fill-opacity=".1" fill-rule="evenodd"/><path clip-rule="evenodd" d="m432 168.397h48v-50.956h-1v49.894h-47z" fill="#1a56db" fill-opacity=".1" fill-rule="evenodd"/><path clip-rule="evenodd" d="m480 168.397h48v-50.956h-1v49.894h-47z" fill="#1a56db" fill-opacity=".1" fill-rule="evenodd"/><path clip-rule="evenodd" d="m528 168.397h48v-50.956h-1v49.894h-47z" fill="#1a56db" fill-opacity=".1" fill-rule="evenodd"/><path clip-rule="evenodd" d="m576 168.397h48v-50.956h-1v49.894h-47z" fill="#1a56db" fill-opacity=".1" fill-rule="evenodd"/><path d="m624 117.441h48v50.956h-48z" fill="#e1effe"/><path clip-rule="evenodd" d="m624 168.397h48v-50.956h-1v49.894h-47z" fill="#e1effe" fill-rule="evenodd"/><path clip-rule="evenodd" d="m672 168.397h48v-50.956h-1v49.894h-47z" fill="#1a56db" fill-opacity=".1" fill-rule="evenodd"/><path clip-rule="evenodd" d="m720 168.397h48v-50.956h-1v49.894h-47z" fill="#1a56db" fill-opacity=".1" fill-rule="evenodd"/><path clip-rule="evenodd" d="m768 168.397h48v-50.956h-1v49.894h-47z" fill="#1a56db" fill-opacity=".1" fill-rule="evenodd"/><path clip-rule="evenodd" d="m816 168.397h48v-50.956h-1v49.894h-47z" fill="#1a56db" fill-opacity=".1" fill-rule="evenodd"/><path clip-rule="evenodd" d="m864 168.397h48v-50.956h-1v49.894h-47z" fill="#1a56db" fill-opacity=".1" fill-rule="evenodd"/><path clip-rule="evenodd" d="m912 168.397h48v-50.956h-1v49.894h-47z" fill="#1a56db" fill-opacity=".1" fill-rule="evenodd"/><path clip-rule="evenodd" d="m960 168.397h48v-50.956h-1v49.894h-47z" fill="#1a56db" fill-opacity=".1" fill-rule="evenodd"/><path clip-rule="evenodd" d="m1008 168.397h48v-50.956h-1v49.894h-47z" fill="#1a56db" fill-opacity=".1" fill-rule="evenodd"/><path d="m1056 117.441h48v50.956h-48z" fill="#e1effe"/><path clip-rule="evenodd" d="m1056 168.397h48v-50.956h-1v49.894h-47z" fill="#e1effe" fill-rule="evenodd"/><path clip-rule="evenodd" d="m1104 168.397h48v-50.956h-1v49.894h-47z" fill="#1a56db" fill-opacity=".1" fill-rule="evenodd"/><path clip-rule="evenodd" d="m1152 168.397h48v-50.956h-1v49.894h-47z" fill="#1a56db" fill-opacity=".1" fill-rule="evenodd"/><path clip-rule="evenodd" d="m1200 168.397h48v-50.956h-1v49.894h-47z" fill="#1a56db" fill-opacity=".1" fill-rule="evenodd"/><path clip-rule="evenodd" d="m1248 168.397h48v-50.956h-1v49.894h-47z" fill="#1a56db" fill-opacity=".1" fill-rule="evenodd"/><path clip-rule="evenodd" d="m1296 168.397h48v-50.956h-1v49.894h-47z" fill="#1a56db" fill-opacity=".1" fill-rule="evenodd"/><path clip-rule="evenodd" d="m1344 168.397h48v-50.956h-1v49.894h-47z" fill="#1a56db" fill-opacity=".1" fill-rule="evenodd"/><path clip-rule="evenodd" d="m1392 168.397h48v-50.956h-1v49.894h-47z" fill="#1a56db" fill-opacity=".1" fill-rule="evenodd"/><path clip-rule="evenodd" d="m0 227.118h48v-58.721h-1v57.497h-47z" fill="#1a56db" fill-opacity=".1" fill-rule="evenodd"/><path clip-rule="evenodd" d="m48 227.118h48v-58.721h-1v57.497h-47z" fill="#1a56db" fill-opacity=".1" fill-rule="evenodd"/><path clip-rule="evenodd" d="m96 227.118h48v-58.721h-1v57.497h-47z" fill="#1a56db" fill-opacity=".1" fill-rule="evenodd"/><path d="m144 168.397h48v58.721h-48z" fill="#e1effe"/><path clip-rule="evenodd" d="m144 227.118h48v-58.721h-1v57.497h-47z" fill="#e1effe" fill-rule="evenodd"/><path clip-rule="evenodd" d="m192 227.118h48v-58.721h-1v57.497h-47z" fill="#1a56db" fill-opacity=".1" fill-rule="evenodd"/><path clip-rule="evenodd" d="m240 227.118h48v-58.721h-1v57.497h-47z" fill="#1a56db" fill-opacity=".1" fill-rule="evenodd"/><path clip-rule="evenodd" d="m288 227.118h48v-58.721h-1v57.497h-47z" fill="#1a56db" fill-opacity=".1" fill-rule="evenodd"/><path clip-rule="evenodd" d="m336 227.118h48v-58.721h-1v57.497h-47z" fill="#1a56db" fill-opacity=".1" fill-rule="evenodd"/><path clip-rule="evenodd" d="m384 227.118h48v-58.721h-1v57.497h-47z" fill="#1a56db" fill-opacity=".1" fill-rule="evenodd"/><path clip-rule="evenodd" d="m432 227.118h48v-58.721h-1v57.497h-47z" fill="#1a56db" fill-opacity=".1" fill-rule="evenodd"/><path clip-rule="evenodd" d="m480 227.118h48v-58.721h-1v57.497h-47z" fill="#1a56db" fill-opacity=".1" fill-rule="evenodd"/><path d="m528 168.397h48v58.721h-48z" fill="#e1effe"/><path clip-rule="evenodd" d="m528 227.118h48v-58.721h-1v57.497h-47z" fill="#e1effe" fill-rule="evenodd"/><path clip-rule="evenodd" d="m576 227.118h48v-58.721h-1v57.497h-47z" fill="#1a56db" fill-opacity=".1" fill-rule="evenodd"/><path clip-rule="evenodd" d="m624 227.118h48v-58.721h-1v57.497h-47z" fill="#1a56db" fill-opacity=".1" fill-rule="evenodd"/><path clip-rule="evenodd" d="m672 227.118h48v-58.721h-1v57.497h-47z" fill="#1a56db" fill-opacity=".1" fill-rule="evenodd"/><path clip-rule="evenodd" d="m720 227.118h48v-58.721h-1v57.497h-47z" fill="#1a56db" fill-opacity=".1" fill-rule="evenodd"/><path clip-rule="evenodd" d="m768 227.118h48v-58.721h-1v57.497h-47z" fill="#1a56db" fill-opacity=".1" fill-rule="evenodd"/><path clip-rule="evenodd" d="m816 227.118h48v-58.721h-1v57.497h-47z" fill="#1a56db" fill-opacity=".1" fill-rule="evenodd"/><path clip-rule="evenodd" d="m864 227.118h48v-58.721h-1v57.497h-47z" fill="#1a56db" fill-opacity=".1" fill-rule="evenodd"/><path clip-rule="evenodd" d="m912 227.118h48v-58.721h-1v57.497h-47z" fill="#1a56db" fill-opacity=".1" fill-rule="evenodd"/><path clip-rule="evenodd" d="m960 227.118h48v-58.721h-1v57.497h-47z" fill="#1a56db" fill-opacity=".1" fill-rule="evenodd"/><path d="m1008 168.397h48v58.721h-48z" fill="#e1effe"/><path clip-rule="evenodd" d="m1008 227.118h48v-58.721h-1v57.497h-47z" fill="#e1effe" fill-rule="evenodd"/><path clip-rule="evenodd" d="m1056 227.118h48v-58.721h-1v57.497h-47z" fill="#1a56db" fill-opacity=".1" fill-rule="evenodd"/><path clip-rule="evenodd" d="m1104 227.118h48v-58.721h-1v57.497h-47z" fill="#1a56db" fill-opacity=".1" fill-rule="evenodd"/><path clip-rule="evenodd" d="m1152 227.118h48v-58.721h-1v57.497h-47z" fill="#1a56db" fill-opacity=".1" fill-rule="evenodd"/><path clip-rule="evenodd" d="m1200 227.118h48v-58.721h-1v57.497h-47z" fill="#1a56db" fill-opacity=".1" fill-rule="evenodd"/><path clip-rule="evenodd" d="m1248 227.118h48v-58.721h-1v57.497h-47z" fill="#1a56db" fill-opacity=".1" fill-rule="evenodd"/><path clip-rule="evenodd" d="m1296 227.118h48v-58.721h-1v57.497h-47z" fill="#1a56db" fill-opacity=".1" fill-rule="evenodd"/><path clip-rule="evenodd" d="m1344 227.118h48v-58.721h-1v57.497h-47z" fill="#1a56db" fill-opacity=".1" fill-rule="evenodd"/><path clip-rule="evenodd" d="m1392 227.118h48v-58.721h-1v57.497h-47z" fill="#1a56db" fill-opacity=".1" fill-rule="evenodd"/><path clip-rule="evenodd" d="m0 285.838h48v-58.72h-1v57.497h-47z" fill="#1a56db" fill-opacity=".1" fill-rule="evenodd"/><path clip-rule="evenodd" d="m48 285.838h48v-58.72h-1v57.497h-47z" fill="#1a56db" fill-opacity=".1" fill-rule="evenodd"/><path clip-rule="evenodd" d="m96 285.838h48v-58.72h-1v57.497h-47z" fill="#1a56db" fill-opacity=".1" fill-rule="evenodd"/><path clip-rule="evenodd" d="m144 285.838h48v-58.72h-1v57.497h-47z" fill="#1a56db" fill-opacity=".1" fill-rule="evenodd"/><path clip-rule="evenodd" d="m192 285.838h48v-58.72h-1v57.497h-47z" fill="#1a56db" fill-opacity=".1" fill-rule="evenodd"/><path clip-rule="evenodd" d="m240 285.838h48v-58.72h-1v57.497h-47z" fill="#1a56db" fill-opacity=".1" fill-rule="evenodd"/><path clip-rule="evenodd" d="m288 285.838h48v-58.72h-1v57.497h-47z" fill="#1a56db" fill-opacity=".1" fill-rule="evenodd"/><path clip-rule="evenodd" d="m336 285.838h48v-58.72h-1v57.497h-47z" fill="#1a56db" fill-opacity=".1" fill-rule="evenodd"/><path clip-rule="evenodd" d="m384 285.838h48v-58.72h-1v57.497h-47z" fill="#1a56db" fill-opacity=".1" fill-rule="evenodd"/><path d="m432 227.118h48v58.72h-48z" fill="#e1effe"/><path clip-rule="evenodd" d="m432 285.838h48v-58.72h-1v57.497h-47z" fill="#e1effe" fill-rule="evenodd"/><path clip-rule="evenodd" d="m480 285.838h48v-58.72h-1v57.497h-47z" fill="#1a56db" fill-opacity=".1" fill-rule="evenodd"/><path clip-rule="evenodd" d="m528 285.838h48v-58.72h-1v57.497h-47z" fill="#1a56db" fill-opacity=".1" fill-rule="evenodd"/><path clip-rule="evenodd" d="m576 285.838h48v-58.72h-1v57.497h-47z" fill="#1a56db" fill-opacity=".1" fill-rule="evenodd"/><path clip-rule="evenodd" d="m624 285.838h48v-58.72h-1v57.497h-47z" fill="#1a56db" fill-opacity=".1" fill-rule="evenodd"/><path clip-rule="evenodd" d="m672 285.838h48v-58.72h-1v57.497h-47z" fill="#1a56db" fill-opacity=".1" fill-rule="evenodd"/><path clip-rule="evenodd" d="m720 285.838h48v-58.72h-1v57.497h-47z" fill="#1a56db" fill-opacity=".1" fill-rule="evenodd"/><path clip-rule="evenodd" d="m768 285.838h48v-58.72h-1v57.497h-47z" fill="#1a56db" fill-opacity=".1" fill-rule="evenodd"/><path clip-rule="evenodd" d="m816 285.838h48v-58.72h-1v57.497h-47z" fill="#1a56db" fill-opacity=".1" fill-rule="evenodd"/><path clip-rule="evenodd" d="m864 285.838h48v-58.72h-1v57.497h-47z" fill="#1a56db" fill-opacity=".1" fill-rule="evenodd"/><path clip-rule="evenodd" d="m912 285.838h48v-58.72h-1v57.497h-47z" fill="#1a56db" fill-opacity=".1" fill-rule="evenodd"/><path clip-rule="evenodd" d="m960 285.838h48v-58.72h-1v57.497h-47z" fill="#1a56db" fill-opacity=".1" fill-rule="evenodd"/><path clip-rule="evenodd" d="m1008 285.838h48v-58.72h-1v57.497h-47z" fill="#1a56db" fill-opacity=".1" fill-rule="evenodd"/><path clip-rule="evenodd" d="m1056 285.838h48v-58.72h-1v57.497h-47z" fill="#1a56db" fill-opacity=".1" fill-rule="evenodd"/><path d="m1104 227.118h48v58.72h-48z" fill="#e1effe"/><path clip-rule="evenodd" d="m1104 285.838h48v-58.72h-1v57.497h-47z" fill="#e1effe" fill-rule="evenodd"/><path clip-rule="evenodd" d="m1152 285.838h48v-58.72h-1v57.497h-47z" fill="#1a56db" fill-opacity=".1" fill-rule="evenodd"/><path clip-rule="evenodd" d="m1200 285.838h48v-58.72h-1v57.497h-47z" fill="#1a56db" fill-opacity=".1" fill-rule="evenodd"/><path clip-rule="evenodd" d="m1248 285.838h48v-58.72h-1v57.497h-47z" fill="#1a56db" fill-opacity=".1" fill-rule="evenodd"/><path clip-rule="evenodd" d="m1296 285.838h48v-58.72h-1v57.497h-47z" fill="#1a56db" fill-opacity=".1" fill-rule="evenodd"/><path clip-rule="evenodd" d="m1344 285.838h48v-58.72h-1v57.497h-47z" fill="#1a56db" fill-opacity=".1" fill-rule="evenodd"/><path clip-rule="evenodd" d="m1392 285.838h48v-58.72h-1v57.497h-47z" fill="#1a56db" fill-opacity=".1" fill-rule="evenodd"/><path clip-rule="evenodd" d="m0 344.559h48v-58.721h-1v57.497h-47z" fill="#1a56db" fill-opacity=".1" fill-rule="evenodd"/><path clip-rule="evenodd" d="m48 344.559h48v-58.721h-1v57.497h-47z" fill="#1a56db" fill-opacity=".1" fill-rule="evenodd"/><path clip-rule="evenodd" d="m96 344.559h48v-58.721h-1v57.497h-47z" fill="#1a56db" fill-opacity=".1" fill-rule="evenodd"/><path clip-rule="evenodd" d="m144 344.559h48v-58.721h-1v57.497h-47z" fill="#1a56db" fill-opacity=".1" fill-rule="evenodd"/><path d="m192 285.838h48v58.721h-48z" fill="#e1effe"/><path clip-rule="evenodd" d="m192 344.559h48v-58.721h-1v57.497h-47z" fill="#e1effe" fill-rule="evenodd"/><path clip-rule="evenodd" d="m240 344.559h48v-58.721h-1v57.497h-47z" fill="#1a56db" fill-opacity=".1" fill-rule="evenodd"/><path clip-rule="evenodd" d="m288 344.559h48v-58.721h-1v57.497h-47z" fill="#1a56db" fill-opacity=".1" fill-rule="evenodd"/><path clip-rule="evenodd" d="m336 344.559h48v-58.721h-1v57.497h-47z" fill="#1a56db" fill-opacity=".1" fill-rule="evenodd"/><path clip-rule="evenodd" d="m384 344.559h48v-58.721h-1v57.497h-47z" fill="#1a56db" fill-opacity=".1" fill-rule="evenodd"/><path clip-rule="evenodd" d="m432 344.559h48v-58.721h-1v57.497h-47z" fill="#1a56db" fill-opacity=".1" fill-rule="evenodd"/><path clip-rule="evenodd" d="m480 344.559h48v-58.721h-1v57.497h-47z" fill="#1a56db" fill-opacity=".1" fill-rule="evenodd"/><path clip-rule="evenodd" d="m528 344.559h48v-58.721h-1v57.497h-47z" fill="#1a56db" fill-opacity=".1" fill-rule="evenodd"/><path clip-rule="evenodd" d="m576 344.559h48v-58.721h-1v57.497h-47z" fill="#1a56db" fill-opacity=".1" fill-rule="evenodd"/><path d="m624 285.838h48v58.721h-48z" fill="#e1effe"/><path clip-rule="evenodd" d="m624 344.559h48v-58.721h-1v57.497h-47z" fill="#e1effe" fill-rule="evenodd"/><path clip-rule="evenodd" d="m672 344.559h48v-58.721h-1v57.497h-47z" fill="#1a56db" fill-opacity=".1" fill-rule="evenodd"/><path clip-rule="evenodd" d="m720 344.559h48v-58.721h-1v57.497h-47z" fill="#1a56db" fill-opacity=".1" fill-rule="evenodd"/><path clip-rule="evenodd" d="m768 344.559h48v-58.721h-1v57.497h-47z" fill="#1a56db" fill-opacity=".1" fill-rule="evenodd"/><path clip-rule="evenodd" d="m816 344.559h48v-58.721h-1v57.497h-47z" fill="#1a56db" fill-opacity=".1" fill-rule="evenodd"/><path clip-rule="evenodd" d="m864 344.559h48v-58.721h-1v57.497h-47z" fill="#1a56db" fill-opacity=".1" fill-rule="evenodd"/><path clip-rule="evenodd" d="m912 344.559h48v-58.721h-1v57.497h-47z" fill="#1a56db" fill-opacity=".1" fill-rule="evenodd"/><path d="m960 285.838h48v58.721h-48z" fill="#e1effe"/><path clip-rule="evenodd" d="m960 344.559h48v-58.721h-1v57.497h-47z" fill="#e1effe" fill-rule="evenodd"/><path clip-rule="evenodd" d="m1008 344.559h48v-58.721h-1v57.497h-47z" fill="#1a56db" fill-opacity=".1" fill-rule="evenodd"/><path clip-rule="evenodd" d="m1056 344.559h48v-58.721h-1v57.497h-47z" fill="#1a56db" fill-opacity=".1" fill-rule="evenodd"/><path clip-rule="evenodd" d="m1104 344.559h48v-58.721h-1v57.497h-47z" fill="#1a56db" fill-opacity=".1" fill-rule="evenodd"/><path clip-rule="evenodd" d="m1152 344.559h48v-58.721h-1v57.497h-47z" fill="#1a56db" fill-opacity=".1" fill-rule="evenodd"/><path clip-rule="evenodd" d="m1200 344.559h48v-58.721h-1v57.497h-47z" fill="#1a56db" fill-opacity=".1" fill-rule="evenodd"/><path clip-rule="evenodd" d="m1248 344.559h48v-58.721h-1v57.497h-47z" fill="#1a56db" fill-opacity=".1" fill-rule="evenodd"/><path clip-rule="evenodd" d="m1296 344.559h48v-58.721h-1v57.497h-47z" fill="#1a56db" fill-opacity=".1" fill-rule="evenodd"/><path clip-rule="evenodd" d="m1344 344.559h48v-58.721h-1v57.497h-47z" fill="#1a56db" fill-opacity=".1" fill-rule="evenodd"/><path clip-rule="evenodd" d="m1392 344.559h48v-58.721h-1v57.497h-47z" fill="#1a56db" fill-opacity=".1" fill-rule="evenodd"/><path clip-rule="evenodd" d="m0 403.279h48v-58.72h-1v57.497h-47z" fill="#1a56db" fill-opacity=".1" fill-rule="evenodd"/><path d="m48 344.559h48v58.72h-48z" fill="#e1effe"/><path clip-rule="evenodd" d="m48 403.279h48v-58.72h-1v57.497h-47z" fill="#e1effe" fill-rule="evenodd"/><path clip-rule="evenodd" d="m96 403.279h48v-58.72h-1v57.497h-47z" fill="#1a56db" fill-opacity=".1" fill-rule="evenodd"/><path clip-rule="evenodd" d="m144 403.279h48v-58.72h-1v57.497h-47z" fill="#e1effe" fill-rule="evenodd"/><path clip-rule="evenodd" d="m192 403.279h48v-58.72h-1v57.497h-47z" fill="#1a56db" fill-opacity=".1" fill-rule="evenodd"/><path clip-rule="evenodd" d="m240 403.279h48v-58.72h-1v57.497h-47z" fill="#1a56db" fill-opacity=".1" fill-rule="evenodd"/><path clip-rule="evenodd" d="m288 403.279h48v-58.72h-1v57.497h-47z" fill="#1a56db" fill-opacity=".1" fill-rule="evenodd"/><path d="m336 344.559h48v58.72h-48z" fill="#e1effe"/><path clip-rule="evenodd" d="m336 403.279h48v-58.72h-1v57.497h-47z" fill="#e1effe" fill-rule="evenodd"/><path clip-rule="evenodd" d="m384 403.279h48v-58.72h-1v57.497h-47z" fill="#1a56db" fill-opacity=".1" fill-rule="evenodd"/><path clip-rule="evenodd" d="m432 403.279h48v-58.72h-1v57.497h-47z" fill="#1a56db" fill-opacity=".1" fill-rule="evenodd"/><path clip-rule="evenodd" d="m480 403.279h48v-58.72h-1v57.497h-47z" fill="#1a56db" fill-opacity=".1" fill-rule="evenodd"/><path clip-rule="evenodd" d="m528 403.279h48v-58.72h-1v57.497h-47z" fill="#1a56db" fill-opacity=".1" fill-rule="evenodd"/><path clip-rule="evenodd" d="m576 403.279h48v-58.72h-1v57.497h-47z" fill="#1a56db" fill-opacity=".1" fill-rule="evenodd"/><path clip-rule="evenodd" d="m624 403.279h48v-58.72h-1v57.497h-47z" fill="#1a56db" fill-opacity=".1" fill-rule="evenodd"/><path clip-rule="evenodd" d="m672 403.279h48v-58.72h-1v57.497h-47z" fill="#e1effe" fill-rule="evenodd"/><path d="m720 344.559h48v58.72h-48z" fill="#e1effe"/><path clip-rule="evenodd" d="m720 403.279h48v-58.72h-1v57.497h-47z" fill="#e1effe" fill-rule="evenodd"/><path clip-rule="evenodd" d="m768 403.279h48v-58.72h-1v57.497h-47z" fill="#1a56db" fill-opacity=".1" fill-rule="evenodd"/><path clip-rule="evenodd" d="m816 403.279h48v-58.72h-1v57.497h-47z" fill="#1a56db" fill-opacity=".1" fill-rule="evenodd"/><path clip-rule="evenodd" d="m864 403.279h48v-58.72h-1v57.497h-47z" fill="#1a56db" fill-opacity=".1" fill-rule="evenodd"/><path clip-rule="evenodd" d="m912 403.279h48v-58.72h-1v57.497h-47z" fill="#1a56db" fill-opacity=".1" fill-rule="evenodd"/><path clip-rule="evenodd" d="m960 403.279h48v-58.72h-1v57.497h-47z" fill="#1a56db" fill-opacity=".1" fill-rule="evenodd"/><path clip-rule="evenodd" d="m1008 403.279h48v-58.72h-1v57.497h-47z" fill="#1a56db" fill-opacity=".1" fill-rule="evenodd"/><path clip-rule="evenodd" d="m1056 403.279h48v-58.72h-1v57.497h-47z" fill="#1a56db" fill-opacity=".1" fill-rule="evenodd"/><path clip-rule="evenodd" d="m1104 403.279h48v-58.72h-1v57.497h-47z" fill="#1a56db" fill-opacity=".1" fill-rule="evenodd"/><path d="m1152 344.559h48v58.72h-48z" fill="#e1effe"/><g clip-rule="evenodd" fill-rule="evenodd"><path d="m1152 403.279h48v-58.72h-1v57.497h-47z" fill="#e1effe"/><path d="m1200 403.279h48v-58.72h-1v57.497h-47z" fill="#1a56db" fill-opacity=".1"/><path d="m1248 403.279h48v-58.72h-1v57.497h-47z" fill="#1a56db" fill-opacity=".1"/><path d="m1296 403.279h48v-58.72h-1v57.497h-47z" fill="#1a56db" fill-opacity=".1"/><path d="m1344 403.279h48v-58.72h-1v57.497h-47z" fill="#1a56db" fill-opacity=".1"/><path d="m1392 403.279h48v-58.72h-1v57.497h-47z" fill="#1a56db" fill-opacity=".1"/><path d="m0 462h48v-58.721h-1v57.498h-47z" fill="#1a56db" fill-opacity=".1"/><path d="m48 462h48v-58.721h-1v57.498h-47z" fill="#1a56db" fill-opacity=".1"/><path d="m96 462h48v-58.721h-1v57.498h-47z" fill="#1a56db" fill-opacity=".1"/><path d="m144 462h48v-58.721h-1v57.498h-47z" fill="#1a56db" fill-opacity=".1"/><path d="m192 462h48v-58.721h-1v57.498h-47z" fill="#1a56db" fill-opacity=".1"/><path d="m240 462h48v-58.721h-1v57.498h-47z" fill="#1a56db" fill-opacity=".1"/><path d="m288 462h48v-58.721h-1v57.498h-47z" fill="#1a56db" fill-opacity=".1"/><path d="m336 462h48v-58.721h-1v57.498h-47z" fill="#1a56db" fill-opacity=".1"/><path d="m384 462h48v-58.721h-1v57.498h-47z" fill="#1a56db" fill-opacity=".1"/><path d="m432 462h48v-58.721h-1v57.498h-47z" fill="#1a56db" fill-opacity=".1"/><path d="m480 462h48v-58.721h-1v57.498h-47z" fill="#1a56db" fill-opacity=".1"/><path d="m528 462h48v-58.721h-1v57.498h-47z" fill="#1a56db" fill-opacity=".1"/><path d="m576 462h48v-58.721h-1v57.498h-47z" fill="#1a56db" fill-opacity=".1"/><path d="m624 462h48v-58.721h-1v57.498h-47z" fill="#1a56db" fill-opacity=".1"/><path d="m672 462h48v-58.721h-1v57.498h-47z" fill="#1a56db" fill-opacity=".1"/><path d="m720 462h48v-58.721h-1v57.498h-47z" fill="#1a56db" fill-opacity=".1"/><path d="m768 462h48v-58.721h-1v57.498h-47z" fill="#1a56db" fill-opacity=".1"/><path d="m816 462h48v-58.721h-1v57.498h-47z" fill="#1a56db" fill-opacity=".1"/><path d="m864 462h48v-58.721h-1v57.498h-47z" fill="#1a56db" fill-opacity=".1"/><path d="m912 462h48v-58.721h-1v57.498h-47z" fill="#1a56db" fill-opacity=".1"/><path d="m960 462h48v-58.721h-1v57.498h-47z" fill="#1a56db" fill-opacity=".1"/><path d="m1008 462h48v-58.721h-1v57.498h-47z" fill="#1a56db" fill-opacity=".1"/><path d="m1056 462h48v-58.721h-1v57.498h-47z" fill="#1a56db" fill-opacity=".1"/><path d="m1104 462h48v-58.721h-1v57.498h-47z" fill="#1a56db" fill-opacity=".1"/><path d="m1152 462h48v-58.721h-1v57.498h-47z" fill="#1a56db" fill-opacity=".1"/><path d="m1200 462h48v-58.721h-1v57.498h-47z" fill="#1a56db" fill-opacity=".1"/><path d="m1248 462h48v-58.721h-1v57.498h-47z" fill="#1a56db" fill-opacity=".1"/><path d="m1296 462h48v-58.721h-1v57.498h-47z" fill="#1a56db" fill-opacity=".1"/><path d="m1344 462h48v-58.721h-1v57.498h-47z" fill="#1a56db" fill-opacity=".1"/><path d="m1392 462h48v-58.721h-1v57.498h-47z" fill="#1a56db" fill-opacity=".1"/></g></g></svg>