<svg viewBox="0 0 32 32" xmlns="http://www.w3.org/2000/svg" xmlns:xlink="http://www.w3.org/1999/xlink" width="32" height="32" fill="none"><g clip-path="url(#a)"><path fill="white" fill-rule="evenodd" clip-rule="evenodd" d="M32 16c0-8.836-7.164-16-16-16S0 7.164 0 16c0 8.837 7.164 16 16 16s16-7.163 16-16ZM13.063 6.989c-.101.199-.101.459-.101.98v4.107c0 .13 0 .195.017.256a.464.464 0 0 0 .07.148c.036.05.087.092.188.174l1.079.876c.121.099.182.148.204.208.02.052.02.11 0 .162-.022.059-.083.108-.204.207l-1.08.877c-.1.082-.15.123-.187.173a.463.463 0 0 0-.07.149c-.017.06-.017.125-.017.255v8.47c0 .521 0 .782.101.98a.93.93 0 0 0 .407.407c.198.101.459.101.98.101h3.1c.521 0 .781 0 .98-.101a.93.93 0 0 0 .407-.407c.101-.198.101-.459.101-.98v-4.107c0-.13 0-.195-.016-.255a.465.465 0 0 0-.071-.149 1.019 1.019 0 0 0-.188-.174l-1.079-.876c-.121-.099-.182-.148-.204-.208a.232.232 0 0 1 0-.161c.022-.06.083-.11.204-.208l1.08-.877c.1-.081.15-.122.187-.173a.466.466 0 0 0 .07-.149c.017-.06.017-.125.017-.255V7.97c0-.521 0-.781-.101-.98a.93.93 0 0 0-.407-.407c-.199-.101-.459-.101-.98-.101h-3.1c-.521 0-.781 0-.98.101a.93.93 0 0 0-.407.407Z"/></g><defs><clipPath id="a"><path fill="#fff" d="M0 0h32v32H0z"/></clipPath></defs></svg>