<svg class="w-[76px] h-[28px]" viewBox="0 0 116 48" fill="none" xmlns="http://www.w3.org/2000/svg"><path d="M31.3804 26.6559C31.5538 24.6901 31.0227 22.7866 32.475 21.3928L33.3745 20.5296C34.6028 19.3479 35.2925 17.7469 35.2925 16.0778C35.2925 14.4086 34.6028 12.8077 33.3745 11.626L31.3586 9.69141L29.9064 11.0852C28.2916 11.1268 26.6877 11.7405 25.4523 12.9262L25.2246 13.1342C23.775 14.5256 21.8594 15.3803 19.8168 15.5473C17.1073 15.7657 14.5714 16.8994 12.6423 18.751C11.1142 20.2152 10.0551 22.069 9.59029 24.0931C9.12551 26.117 9.27451 28.2264 10.0197 30.1715L9.28271 30.8788L12.0463 33.5312C13.097 34.5404 14.3447 35.341 15.718 35.8872C17.0912 36.4334 18.5632 36.7146 20.0498 36.7146C21.5363 36.7146 23.0083 36.4334 24.3815 35.8872C25.7548 35.341 27.0025 34.5404 28.0533 33.5312C29.9714 31.6901 31.1527 29.2562 31.3804 26.6559Z" fill="#244C4E"></path><path d="M26.7195 9.24801C27.8784 9.24887 29.011 9.59338 29.9743 10.238C30.9376 10.8827 31.6885 11.7986 32.132 12.87C32.5755 13.9414 32.6918 15.1204 32.4662 16.2579C32.2405 17.3955 31.6831 18.4406 30.8643 19.2612L30.6593 19.4664C29.3625 20.763 28.5671 22.4776 28.4142 24.3056C28.2079 26.7289 27.1529 29.0014 25.4351 30.7218C24.4966 31.6644 23.3813 32.412 22.1532 32.9217C20.9251 33.4314 19.6085 33.6934 18.279 33.6923C15.6885 33.6923 13.098 32.6986 11.1227 30.7218C10.1834 29.7822 9.43827 28.6667 8.92988 27.4388C8.42149 26.2109 8.15983 24.8948 8.15983 23.5657C8.15983 22.2366 8.42149 20.9206 8.92988 19.6927C9.43827 18.4648 10.1834 17.3491 11.1227 16.4095C12.8408 14.689 15.1122 13.6328 17.5341 13.4283C19.3583 13.2771 21.0744 12.4777 22.3697 11.1815L22.5748 10.9763C23.1164 10.4273 23.7618 9.99175 24.4735 9.69503C25.1851 9.3983 25.9487 9.24634 26.7195 9.24801ZM26.7195 7.66016C24.7335 7.66016 22.8555 8.43789 21.4522 9.84211L21.258 10.0473C20.2326 11.0735 18.8617 11.7108 17.4046 11.8404C14.6091 12.0781 11.9862 13.2987 10.011 15.2754C8.921 16.3615 8.05653 17.6526 7.46744 19.0745C6.87835 20.4965 6.57628 22.0211 6.57863 23.5603C6.57863 26.6928 7.7983 29.6309 10.011 31.8452C12.2237 34.0597 15.1596 35.2802 18.2897 35.2802C21.4198 35.2802 24.3558 34.0597 26.5685 31.8452C28.5437 29.8685 29.7741 27.233 30.0116 24.446C30.1323 22.9884 30.7674 21.6214 31.8034 20.5898L32.0085 20.3846C32.7014 19.6934 33.2508 18.8718 33.6249 17.967C33.9992 17.0623 34.1908 16.0925 34.1888 15.1133C34.1888 13.1258 33.4116 11.2463 32.0085 9.84211C30.604 8.44222 28.7017 7.65743 26.7195 7.66016Z" fill="#337D63"></path><path d="M30.666 19.4693L30.8709 19.2641C31.4154 18.7195 31.8472 18.0727 32.1418 17.3611C32.4364 16.6494 32.588 15.8865 32.588 15.1162C32.588 14.3459 32.4364 13.5831 32.1418 12.8714C31.8472 12.1597 31.4154 11.513 30.8709 10.9684C30.3268 10.4236 29.6805 9.99143 28.9694 9.6966C28.2582 9.40175 27.4961 9.25 26.7262 9.25C25.9564 9.25 25.1942 9.40175 24.483 9.6966C23.7719 9.99143 23.1257 10.4236 22.5814 10.9684L22.3765 11.1736C21.0807 12.4712 19.3675 13.2673 17.5409 13.4204C15.1189 13.6249 12.8475 14.681 11.1294 16.4017C10.1901 17.3413 9.44495 18.4569 8.93656 19.6847C8.42817 20.9126 8.1665 22.2287 8.1665 23.5578C8.1665 24.8869 8.42817 26.203 8.93656 27.4308C9.44495 28.6587 10.1901 29.7744 11.1294 30.714C12.0683 31.654 13.1831 32.3997 14.4101 32.9084C15.637 33.4172 16.9521 33.6791 18.2802 33.6791C19.6083 33.6791 20.9234 33.4172 22.1504 32.9084C23.3773 32.3997 24.4921 31.654 25.431 30.714C27.1503 28.9946 28.2057 26.7215 28.4101 24.2978C28.5719 22.4831 29.3707 20.7655 30.666 19.4693Z" fill="#89BA4F"></path><path d="M30.666 19.4693L30.8709 19.2641C31.4154 18.7195 31.8472 18.0727 32.1418 17.3611C32.4364 16.6494 32.588 15.8865 32.588 15.1162C32.588 14.3459 32.4364 13.5831 32.1418 12.8714C31.8472 12.1597 31.4154 11.513 30.8709 10.9684C30.3268 10.4236 29.6805 9.99143 28.9694 9.6966C28.2582 9.40175 27.4961 9.25 26.7262 9.25C25.9564 9.25 25.1942 9.40175 24.483 9.6966C23.7719 9.99143 23.1257 10.4236 22.5814 10.9684L22.3765 11.1736C21.0807 12.4712 19.3675 13.2673 17.5409 13.4204C15.1189 13.6249 12.8475 14.681 11.1294 16.4017C10.1901 17.3413 9.44495 18.4569 8.93656 19.6847C8.42817 20.9126 8.1665 22.2287 8.1665 23.5578C8.1665 24.8869 8.42817 26.203 8.93656 27.4308C9.44495 28.6587 10.1901 29.7744 11.1294 30.714C12.0683 31.654 13.1831 32.3997 14.4101 32.9084C15.637 33.4172 16.9521 33.6791 18.2802 33.6791C19.6083 33.6791 20.9234 33.4172 22.1504 32.9084C23.3773 32.3997 24.4921 31.654 25.431 30.714C27.1503 28.9946 28.2057 26.7215 28.4101 24.2978C28.5719 22.4831 29.3707 20.7655 30.666 19.4693Z" fill="#9EEA6C"></path><path d="M18.7631 27.8527C20.0113 27.8527 21.2083 27.3565 22.0908 26.4733C22.9734 25.5901 23.4692 24.3922 23.4692 23.1432C23.4692 21.8941 22.9734 20.6962 22.0908 19.813C21.2083 18.9298 20.0113 18.4336 18.7631 18.4336C17.5151 18.4336 16.318 18.9298 15.4355 19.813C14.5529 20.6962 14.0571 21.8941 14.0571 23.1432C14.0571 24.3922 14.5529 25.5901 15.4355 26.4733C16.318 27.3565 17.5151 27.8527 18.7631 27.8527Z" fill="#804B35"></path><path d="M51.4453 7.41797H61.6576C66.5963 7.41797 70.5724 11.4359 70.5724 16.3328C70.5724 21.2715 66.5963 25.2895 61.6576 25.2895H55.1284V35.8784H51.4453V7.41797ZM55.1284 21.6063H61.6157C64.5455 21.6063 66.8893 19.2625 66.8893 16.3746C66.8893 13.4449 64.5455 11.1011 61.6157 11.1011H55.1284V21.6063Z" fill="#244C4E"></path><path d="M79.3989 16.4583C84.9236 16.4583 89.402 20.9367 89.4438 26.5032V35.9203H85.7607V34.2461C83.8354 35.7947 81.6172 36.5062 79.4827 36.5062C74.2928 36.5062 69.3541 32.4464 69.3541 26.5032C69.3541 20.9367 73.8324 16.4583 79.3989 16.4583ZM85.7607 26.5451C85.7607 23.2805 83.2495 20.1415 79.3989 20.1415C75.8832 20.1415 73.0372 22.9875 73.0372 26.5032C73.0372 30.3119 76.1762 32.8231 79.4408 32.8231C82.8728 32.8231 85.7607 29.9771 85.7607 26.5451Z" fill="#244C4E"></path><path d="M101.588 38.09C96.0214 38.09 91.543 33.6116 91.543 28.087V18.6699H95.2261V28.087C95.268 31.5608 98.114 34.365 101.588 34.365C105.062 34.365 107.908 31.5608 107.95 28.087V18.6699H111.633V28.087C111.591 33.6116 107.113 38.09 101.588 38.09ZM111.633 37.4622C111.633 41.4383 108.201 46.67 101.588 46.67H98.6581V42.9869H101.588C106.82 42.9869 107.95 38.5504 107.95 37.4622H111.633Z" fill="#244C4E"></path></svg>