<svg width="29" height="30" viewBox="0 0 29 30" fill="none" xmlns="http://www.w3.org/2000/svg">
<path d="M24.8018 18.9957C24.9752 17.0299 24.4441 15.1264 25.8964 13.7326L26.7959 12.8694C28.0242 11.6877 28.7139 10.0867 28.7139 8.41765C28.7139 6.74845 28.0242 5.14755 26.7959 3.96585L24.78 2.03126L23.3278 3.42505C21.713 3.46665 20.1091 4.08035 18.8737 5.26605L18.646 5.47405C17.1964 6.86545 15.2808 7.72015 13.2382 7.88715C10.5287 8.10555 7.99279 9.23925 6.06369 11.0908C4.53559 12.555 3.47649 14.4088 3.01168 16.4329C2.5469 18.4568 2.6959 20.5662 3.44109 22.5113L2.7041 23.2186L5.46769 25.871C6.51839 26.8802 7.76609 27.6808 9.13939 28.227C10.5126 28.7732 11.9846 29.0544 13.4712 29.0544C14.9577 29.0544 16.4297 28.7732 17.8029 28.227C19.1762 27.6808 20.4239 26.8802 21.4747 25.871C23.3928 24.0299 24.5741 21.596 24.8018 18.9957Z" fill="#244C4E"/>
<path d="M20.1409 1.58786C21.2998 1.58872 22.4324 1.93323 23.3957 2.57785C24.359 3.22255 25.1099 4.13845 25.5534 5.20985C25.9969 6.28125 26.1132 7.46025 25.8876 8.59775C25.6619 9.73535 25.1045 10.7804 24.2857 11.601L24.0807 11.8062C22.7839 13.1028 21.9885 14.8174 21.8356 16.6454C21.6293 19.0687 20.5743 21.3412 18.8565 23.0616C17.918 24.0042 16.8027 24.7518 15.5746 25.2615C14.3465 25.7712 13.0299 26.0332 11.7004 26.0321C9.10988 26.0321 6.51938 25.0384 4.54408 23.0616C3.60478 22.122 2.85965 21.0065 2.35126 19.7786C1.84287 18.5507 1.58121 17.2346 1.58121 15.9055C1.58121 14.5764 1.84287 13.2604 2.35126 12.0325C2.85965 10.8046 3.60478 9.68895 4.54408 8.74935C6.26218 7.02885 8.53358 5.97265 10.9555 5.76815C12.7797 5.61695 14.4958 4.81755 15.7911 3.52135L15.9962 3.31615C16.5378 2.76715 17.1832 2.3316 17.8949 2.03488C18.6065 1.73815 19.3701 1.58619 20.1409 1.58786ZM20.1409 7.09872e-06C18.1549 7.09872e-06 16.2769 0.777737 14.8736 2.18196L14.6794 2.38715C13.654 3.41335 12.2831 4.05065 10.826 4.18025C8.03048 4.41795 5.40758 5.63855 3.43238 7.61525C2.34238 8.70135 1.47791 9.99245 0.888824 11.4143C0.299734 12.8363 -0.00233639 14.3609 1.36068e-05 15.9001C1.36068e-05 19.0326 1.21968 21.9707 3.43238 24.185C5.64508 26.3995 8.58098 27.62 11.7111 27.62C14.8412 27.62 17.7772 26.3995 19.9899 24.185C21.9651 22.2083 23.1955 19.5728 23.433 16.7858C23.5537 15.3282 24.1888 13.9612 25.2248 12.9296L25.4299 12.7244C26.1228 12.0332 26.6722 11.2116 27.0463 10.3068C27.4206 9.40215 27.6122 8.43235 27.6102 7.45315C27.6102 5.46565 26.833 3.58615 25.4299 2.18196C24.0254 0.782067 22.1231 -0.0027229 20.1409 7.09872e-06Z" fill="#337D63"/>
<path d="M24.0874 11.8091L24.2923 11.6039C24.8368 11.0593 25.2686 10.4125 25.5632 9.70095C25.8578 8.98925 26.0094 8.22635 26.0094 7.45605C26.0094 6.68575 25.8578 5.92295 25.5632 5.21125C25.2686 4.49955 24.8368 3.85285 24.2923 3.30825C23.7482 2.76345 23.1019 2.33128 22.3908 2.03645C21.6796 1.7416 20.9175 1.58985 20.1476 1.58985C19.3778 1.58985 18.6156 1.7416 17.9044 2.03645C17.1933 2.33128 16.5471 2.76345 16.0028 3.30825L15.7979 3.51345C14.5021 4.81105 12.7889 5.60715 10.9623 5.76025C8.54029 5.96475 6.26889 7.02085 4.55079 8.74155C3.61149 9.68115 2.86634 10.7967 2.35795 12.0245C1.84956 13.2524 1.58789 14.5685 1.58789 15.8976C1.58789 17.2267 1.84956 18.5428 2.35795 19.7706C2.86634 20.9985 3.61149 22.1142 4.55079 23.0538C5.48969 23.9938 6.60449 24.7395 7.83149 25.2482C9.05839 25.757 10.3735 26.0189 11.7016 26.0189C13.0297 26.0189 14.3448 25.757 15.5718 25.2482C16.7987 24.7395 17.9135 23.9938 18.8524 23.0538C20.5717 21.3344 21.6271 19.0613 21.8315 16.6376C21.9933 14.8229 22.7921 13.1053 24.0874 11.8091Z" fill="#89BA4F"/>
<path d="M24.0874 11.8091L24.2923 11.6039C24.8368 11.0593 25.2686 10.4125 25.5632 9.70095C25.8578 8.98925 26.0094 8.22635 26.0094 7.45605C26.0094 6.68575 25.8578 5.92295 25.5632 5.21125C25.2686 4.49955 24.8368 3.85285 24.2923 3.30825C23.7482 2.76345 23.1019 2.33128 22.3908 2.03645C21.6796 1.7416 20.9175 1.58985 20.1476 1.58985C19.3778 1.58985 18.6156 1.7416 17.9044 2.03645C17.1933 2.33128 16.5471 2.76345 16.0028 3.30825L15.7979 3.51345C14.5021 4.81105 12.7889 5.60715 10.9623 5.76025C8.54029 5.96475 6.26889 7.02085 4.55079 8.74155C3.61149 9.68115 2.86634 10.7967 2.35795 12.0245C1.84956 13.2524 1.58789 14.5685 1.58789 15.8976C1.58789 17.2267 1.84956 18.5428 2.35795 19.7706C2.86634 20.9985 3.61149 22.1142 4.55079 23.0538C5.48969 23.9938 6.60449 24.7395 7.83149 25.2482C9.05839 25.757 10.3735 26.0189 11.7016 26.0189C13.0297 26.0189 14.3448 25.757 15.5718 25.2482C16.7987 24.7395 17.9135 23.9938 18.8524 23.0538C20.5717 21.3344 21.6271 19.0613 21.8315 16.6376C21.9933 14.8229 22.7921 13.1053 24.0874 11.8091Z" fill="#9EEA6C"/>
<path d="M12.1845 20.1925C13.4327 20.1925 14.6297 19.6963 15.5122 18.8131C16.3948 17.9299 16.8906 16.732 16.8906 15.483C16.8906 14.2339 16.3948 13.036 15.5122 12.1528C14.6297 11.2696 13.4327 10.7734 12.1845 10.7734C10.9365 10.7734 9.73938 11.2696 8.85688 12.1528C7.97428 13.036 7.47849 14.2339 7.47849 15.483C7.47849 16.732 7.97428 17.9299 8.85688 18.8131C9.73938 19.6963 10.9365 20.1925 12.1845 20.1925Z" fill="#804B35"/>
</svg>
