<svg xmlns="http://www.w3.org/2000/svg" viewBox="0 0 1084 1074" fill="#FFFFFF" style="color:#FFFFFF" role="img" aria-labelledby="title desc">
  <title id="title">AccountantOS</title>
  <desc id="desc">Interlocking chevron wreath icon for AccountantOS.</desc>
  <path fill="currentColor" d="M87,453 L73,462 L48,483 L23,508 L5,530 L1,554 L0,576 L3,584 L17,605 L26,615 L30,617 L35,617 L38,614 L58,582 L73,563 L95,541 L120,520 L97,474 L91,458Z M117,433 L114,436 L116,447 L140,499 L158,528 L177,552 L206,580 L239,603 L248,604 L269,590 L275,581 L279,558 L234,514 L208,482 L191,452 L176,412 L170,411 L160,414Z M162,308 L146,310 L95,326 L66,338 L41,353 L22,394 L22,407 L35,440 L41,446 L45,446 L79,420 L109,402 L142,388 L164,382 L169,379 L164,333 L164,311Z M195,301 L192,305 L192,342 L195,369 L203,405 L218,446 L231,473 L244,485 L276,480 L291,461 L293,453 L276,414 L264,379 L256,336 L255,303 L252,300 L231,299Z M270,198 L265,195 L244,194 L157,195 L137,197 L107,225 L96,241 L95,279 L97,290 L99,292 L106,292 L143,280 L182,271 L208,269 L256,269 L261,235Z M308,200 L301,203 L297,210 L286,264 L283,297 L285,352 L288,371 L297,384 L329,390 L351,375 L349,342 L350,294 L354,271 L367,224 L328,203Z M204,141 L205,162 L209,165 L296,165 L350,181 L381,196 L415,129 L415,126 L389,115 L339,98 L280,88 L260,87 L247,92 L222,108Z M454,140 L448,140 L442,143 L428,168 L396,235 L377,294 L376,306 L382,324 L411,338 L419,338 L436,332 L466,251 L484,221 L507,190 L502,181 L480,157Z M358,64 L358,72 L371,80 L383,81 L404,87 L457,107 L492,131 L527,164 L584,110 L583,106 L572,95 L520,56 L470,29 L438,14 L419,15 L386,26Z M606,129 L603,129 L530,206 L509,231 L496,251 L493,260 L498,276 L517,293 L526,296 L542,296 L546,294 L581,251 L610,222 L644,192 L643,185 L638,175Z M546,27 L542,36 L544,40 L589,67 L628,106 L644,130 L668,174 L675,175 L737,138 L735,130 L728,117 L695,65 L665,31 L635,3 L625,0 L589,0 L566,11Z M749,169 L725,178 L661,216 L626,243 L611,257 L610,260 L618,287 L635,307 L641,309 L658,305 L710,263 L742,249 L762,247 L765,245 L763,213Z M727,57 L727,68 L751,98 L773,138 L787,189 L794,241 L799,242 L867,233 L866,205 L853,158 L852,136 L827,72 L812,57 L775,43 L753,44Z M870,266 L866,263 L854,263 L810,267 L769,275 L724,287 L703,301 L704,318 L710,342 L716,346 L729,350 L796,335 L829,336 L847,342 L852,342 L856,334 L866,301Z M895,155 L886,160 L886,180 L898,221 L900,256 L896,287 L881,349 L943,369 L948,369 L967,295 L972,211 L963,184 L941,163 L926,155Z M760,393 L760,408 L769,422 L825,429 L857,441 L890,457 L900,457 L906,453 L934,404 L933,399 L892,383 L850,371 L791,361 L777,363 L769,367Z M1006,301 L994,301 L992,304 L987,343 L971,392 L955,424 L925,468 L922,475 L927,482 L973,520 L982,510 L1025,444 L1053,378 L1053,362 L1047,332 L1035,316Z M792,488 L792,494 L809,515 L838,530 L863,549 L883,568 L897,588 L903,588 L953,544 L929,520 L899,494 L828,453 L815,454 L810,459Z M1051,468 L1044,470 L1034,480 L1013,518 L996,544 L915,613 L948,670 L951,672 L957,670 L973,659 L1035,611 L1050,595 L1078,558 L1082,532 L1083,509 L1072,489Z M802,564 L791,576 L785,593 L832,660 L844,685 L851,708 L858,708 L888,701 L918,691 L921,688 L921,684 L908,656 L854,576 L829,555Z M1039,651 L1032,646 L1029,647 L977,693 L963,703 L945,712 L916,722 L857,736 L867,807 L870,809 L878,808 L972,779 L1000,765 L1031,746 L1044,732 L1054,706 L1054,689Z M768,656 L746,671 L746,699 L760,725 L770,753 L772,775 L770,811 L778,814 L796,815 L836,814 L837,788 L834,769 L812,675 L788,651Z M963,815 L960,812 L951,813 L938,817 L905,833 L864,842 L813,844 L767,841 L764,847 L750,914 L778,917 L843,917 L898,911 L925,906 L939,896 L951,884 L962,865 L964,850Z M697,734 L692,739 L692,771 L685,809 L672,844 L657,874 L687,895 L706,904 L720,907 L729,877 L741,820 L745,754 L741,748 L726,734Z M588,959 L593,965 L602,971 L631,986 L706,1013 L738,1022 L748,1023 L778,1019 L798,1004 L816,986 L822,975 L825,964 L825,948 L819,945 L752,947 L722,942 L686,927 L658,913 L637,900Z M645,763 L624,760 L616,761 L607,765 L569,828 L555,845 L515,882 L515,886 L535,914 L560,941 L564,940 L576,928 L615,879 L638,842 L655,810 L663,792 L662,779Z M428,932 L434,946 L453,976 L493,1024 L522,1051 L556,1072 L575,1073 L605,1068 L625,1051 L640,1035 L640,1024 L588,1003 L568,990 L555,979 L524,946 L489,901 L480,904 L458,917 L431,929Z M358,952 L370,978 L398,1024 L419,1050 L444,1063 L472,1060 L478,1058 L482,1054 L481,1048 L451,1017 L426,985 L401,942 L396,941 L363,949Z M530,788 L512,773 L501,769 L465,794 L413,822 L370,836 L332,840 L330,844 L332,877 L337,901 L343,918 L356,919 L371,916 L410,904 L454,884 L484,866 L510,846 L535,822 L537,813Z M221,834 L221,863 L228,908 L243,960 L255,986 L276,1013 L287,1022 L319,1034 L332,1034 L351,1031 L361,1023 L361,1016 L334,974 L314,930 L301,877 L298,841Z M421,756 L411,740 L401,731 L327,741 L284,741 L239,733 L233,746 L225,772 L221,800 L227,803 L243,806 L286,810 L332,809 L379,802 L406,794 L416,788 L420,772Z M149,690 L145,695 L137,715 L122,768 L114,817 L113,850 L124,879 L133,894 L171,917 L192,917 L198,914 L198,907 L189,857 L189,810 L196,768 L210,722 L180,708Z M163,658 L163,662 L166,665 L208,689 L246,703 L292,713 L305,714 L314,711 L327,684 L327,677 L322,659 L318,654 L283,646 L248,635 L216,620 L201,610 L197,610 L188,620Z M138,548 L130,552 L113,567 L95,586 L77,609 L56,643 L40,677 L32,699 L33,715 L40,746 L56,763 L77,777 L89,777 L102,723 L117,683 L142,636 L174,592 L174,588Z"/>
</svg>
