<svg width="32" height="32" viewBox="0 0 32 32" fill="none" xmlns="http://www.w3.org/2000/svg">
<g clip-path="url(#clip0_2_448)">
<path d="M5.6875 0.399963H26.325C29.4125 0.399963 32.0125 2.88746 32.0125 6.08746V25.925C32.0125 29.0125 29.525 31.6125 26.325 31.6125H5.6875C2.5875 31.6 0 29.1125 0 25.925V6.07496C0 2.88746 2.4875 0.399963 5.6875 0.399963Z" fill="#B30B00"/>
<path d="M25.525 18.4375C24.025 16.8375 19.9375 17.5375 18.95 17.6375C17.55 16.2375 16.5625 14.65 16.1625 14.05C16.6625 12.55 17.0625 10.8625 17.0625 9.26246C17.0625 7.76246 16.4625 6.27496 14.875 6.27496C14.275 6.27496 13.775 6.57496 13.475 7.07496C12.775 8.27496 13.075 10.6625 14.175 13.15C13.575 14.95 12.575 17.6375 11.3875 19.725C9.7875 20.325 6.3 21.9125 6 23.7125C5.9 24.2125 6.1 24.8125 6.5 25.1125C6.9 25.5125 7.4 25.6125 7.9 25.6125C9.9875 25.6125 12.0875 22.725 13.5875 20.125C14.7875 19.725 16.675 19.125 18.575 18.825C20.7625 20.825 22.7625 21.1125 23.7625 21.1125C25.1625 21.1125 25.6625 20.5125 25.85 20.0125C26.1125 19.5375 25.925 18.8375 25.525 18.4375ZM24.125 19.4375C24.025 19.8375 23.525 20.2375 22.625 20.0375C21.525 19.7375 20.5375 19.2375 19.7375 18.5375C20.4375 18.4375 22.125 18.2375 23.325 18.4375C23.725 18.5375 24.225 18.8375 24.125 19.4375ZM14.45 7.47496C14.55 7.27496 14.75 7.17496 14.95 7.17496C15.45 7.17496 15.55 7.77496 15.55 8.27496C15.45 9.47496 15.25 10.7625 14.85 11.8625C14.05 9.67496 14.15 8.07496 14.45 7.47496ZM14.35 18.7375C14.85 17.8375 15.45 16.15 15.65 15.55C16.15 16.45 17.05 17.45 17.45 17.9375C17.55 17.85 15.75 18.2375 14.35 18.7375ZM10.9625 21.0375C9.575 23.225 8.275 24.625 7.475 24.625C7.375 24.625 7.175 24.625 7.075 24.525C6.975 24.325 6.875 24.125 6.975 23.925C7.075 23.125 8.675 22.025 10.9625 21.0375Z" fill="white"/>
</g>
<defs>
<clipPath id="clip0_2_448">
<rect width="32" height="32" fill="white"/>
</clipPath>
</defs>
</svg>
