<svg width="32" height="32" viewBox="0 0 32 32" fill="none" xmlns="http://www.w3.org/2000/svg">
<g clip-path="url(#clip0_2_208)">
<path d="M26.3333 0H5.66667C2.53705 0 0 2.53705 0 5.66667V25.5333C0 28.6629 2.53705 31.2 5.66667 31.2H26.3333C29.4629 31.2 32 28.6629 32 25.5333V5.66667C32 2.53705 29.4629 0 26.3333 0Z" fill="#008CAD"/>
<path d="M25.7303 18.0632C25.0947 17.3807 23.8786 17.0342 22.1162 17.0342C21.1381 17.0437 20.1623 17.1284 19.1972 17.2875C18.5791 16.6849 18.0163 16.0282 17.5155 15.3251C17.1354 14.7996 16.7841 14.2539 16.4632 13.6903C17.084 11.7366 17.3986 10.1506 17.3986 8.97483C17.3986 7.53136 16.8267 5.98816 15.2216 5.98816C14.9489 5.99607 14.6827 6.07294 14.4477 6.2116C14.2127 6.35026 14.0168 6.54619 13.878 6.78109C13.1934 7.95683 13.4676 10.3762 14.5604 12.838C14.1799 13.9691 13.7654 15.0703 13.2572 16.2906C12.8225 17.3366 12.3307 18.3579 11.7839 19.3499C10.1467 20.0084 6.66668 21.6072 6.33508 23.3734C6.28523 23.6291 6.30293 23.8934 6.38643 24.1403C6.46993 24.3871 6.61634 24.6079 6.81122 24.7808C7.20386 25.1211 7.70988 25.3016 8.22922 25.2867C10.3255 25.2867 12.4159 22.3847 13.8227 19.8867C14.6227 19.6144 15.4384 19.3679 16.2506 19.1534C17.1414 18.9175 18.0024 18.724 18.8146 18.58C21.034 20.5168 23.007 20.8103 23.9955 20.8103C25.354 20.8103 25.8622 20.2212 26.0471 19.726C26.1482 19.4459 26.1721 19.1438 26.1164 18.8512C26.0606 18.5587 25.9273 18.2865 25.7303 18.0632ZM24.2847 19.0815C24.2103 19.4663 23.8127 19.7151 23.2684 19.7151C23.1136 19.7145 22.9594 19.6952 22.8092 19.6576C21.81 19.4195 20.8534 18.937 19.8988 18.1843C20.6116 18.0754 21.3314 18.0201 22.0524 18.0186C22.5332 18.0107 23.0136 18.0477 23.4875 18.1291C23.919 18.2183 24.4059 18.4564 24.2847 19.0815ZM14.739 7.28243C14.7831 7.1962 14.8492 7.12311 14.9306 7.07048C15.0119 7.01785 15.1057 6.98753 15.2024 6.98256C15.7106 6.98256 15.8211 7.59483 15.8211 8.10723C15.8254 8.92363 15.5788 10.2247 15.1558 11.664C14.3032 9.40616 14.4223 7.82443 14.739 7.28243ZM17.7175 17.5615C17.1414 17.6827 16.546 17.823 15.9423 17.9824C15.5087 18.0972 15.0686 18.2224 14.6284 18.3566C14.8623 17.8783 15.0771 17.4042 15.2642 16.9535C15.5108 16.358 15.7424 15.7628 15.9551 15.1802C16.1418 15.4735 16.3345 15.7577 16.5334 16.0328C16.9143 16.5618 17.3255 17.0685 17.7647 17.5503L17.7175 17.5615ZM11.2694 20.6506C9.92788 22.8106 8.60775 24.1754 7.83602 24.1754C7.7095 24.1809 7.58585 24.1366 7.49162 24.052C7.41973 23.9939 7.36524 23.9172 7.3341 23.8301C7.30296 23.7431 7.29638 23.6492 7.31508 23.5587C7.46175 22.785 8.99042 21.6688 11.2694 20.6506Z" fill="white"/>
</g>
<defs>
<clipPath id="clip0_2_208">
<rect width="32" height="31.2" fill="white"/>
</clipPath>
</defs>
</svg>
