<svg width="32" height="32" viewBox="0 0 32 32" fill="none" xmlns="http://www.w3.org/2000/svg">
<g clip-path="url(#clip0_2_211)">
<path d="M26.3333 0H5.66667C2.53705 0 0 2.53705 0 5.66667V25.5333C0 28.6629 2.53705 31.2 5.66667 31.2H26.3333C29.4629 31.2 32 28.6629 32 25.5333V5.66667C32 2.53705 29.4629 0 26.3333 0Z" fill="#584CCC"/>
<path d="M25.7303 18.0632C25.0947 17.3807 23.8785 17.0341 22.1161 17.0341C21.1381 17.0436 20.1622 17.1283 19.1972 17.2875C18.5791 16.6849 18.0163 16.0281 17.5155 15.3251C17.1353 14.7996 16.7841 14.2539 16.4632 13.6903C17.084 11.7365 17.3985 10.1505 17.3985 8.97479C17.3985 7.53133 16.8267 5.98813 15.2216 5.98813C14.9489 5.99604 14.6826 6.07291 14.4477 6.21157C14.2127 6.35023 14.0167 6.54615 13.878 6.78106C13.1933 7.9568 13.4676 10.3761 14.5604 12.838C14.1799 13.9691 13.7653 15.0703 13.2572 16.2905C12.8225 17.3365 12.3307 18.3579 11.7839 19.3499C10.1467 20.0084 6.66667 21.6072 6.33507 23.3733C6.28522 23.6291 6.30291 23.8934 6.38641 24.1402C6.46991 24.387 6.61632 24.6078 6.8112 24.7808C7.20385 25.121 7.70986 25.3015 8.2292 25.2867C10.3255 25.2867 12.4159 22.3847 13.8227 19.8867C14.6227 19.6144 15.4384 19.3679 16.2505 19.1533C17.1413 18.9175 18.0024 18.724 18.8145 18.58C21.034 20.5168 23.0069 20.8103 23.9955 20.8103C25.354 20.8103 25.8621 20.2212 26.0471 19.726C26.1481 19.4459 26.1721 19.1437 26.1163 18.8512C26.0606 18.5587 25.9273 18.2865 25.7303 18.0632ZM24.2847 19.0815C24.2103 19.4663 23.8127 19.7151 23.2684 19.7151C23.1136 19.7144 22.9594 19.6951 22.8092 19.6576C21.81 19.4195 20.8533 18.9369 19.8988 18.1843C20.6115 18.0754 21.3314 18.02 22.0524 18.0185C22.5332 18.0107 23.0136 18.0477 23.4875 18.1291C23.9189 18.2183 24.4059 18.4564 24.2847 19.0815ZM14.7389 7.2824C14.7831 7.19617 14.8492 7.12308 14.9305 7.07045C15.0119 7.01782 15.1056 6.9875 15.2024 6.98253C15.7105 6.98253 15.8211 7.5948 15.8211 8.1072C15.8253 8.9236 15.5788 10.2247 15.1557 11.664C14.3032 9.40613 14.4223 7.8244 14.7389 7.2824ZM17.7175 17.5615C17.1413 17.6827 16.546 17.8229 15.9423 17.9824C15.5087 18.0972 15.0685 18.2224 14.6284 18.3565C14.8623 17.8783 15.0771 17.4041 15.2641 16.9535C15.5108 16.358 15.7424 15.7628 15.9551 15.1801C16.1417 15.4735 16.3345 15.7577 16.5333 16.0328C16.9143 16.5618 17.3255 17.0685 17.7647 17.5503L17.7175 17.5615ZM11.2693 20.6505C9.92787 22.8105 8.60773 24.1753 7.836 24.1753C7.70948 24.1809 7.58583 24.1366 7.4916 24.052C7.41972 23.9939 7.36522 23.9171 7.33408 23.8301C7.30294 23.7431 7.29636 23.6492 7.31507 23.5587C7.46173 22.7849 8.9904 21.6688 11.2693 20.6505Z" fill="white"/>
</g>
<defs>
<clipPath id="clip0_2_211">
<rect width="32" height="31.2" fill="white"/>
</clipPath>
</defs>
</svg>
