<svg width="32" height="32" viewBox="0 0 32 32" fill="none" xmlns="http://www.w3.org/2000/svg">
<g clip-path="url(#clip0_2_276)">
<path d="M26.3333 0H5.66667C2.53705 0 0 2.53705 0 5.66667V25.5333C0 28.6629 2.53705 31.2 5.66667 31.2H26.3333C29.4629 31.2 32 28.6629 32 25.5333V5.66667C32 2.53705 29.4629 0 26.3333 0Z" fill="#1E3101"/>
<path d="M14.401 18.6667H9.44224L8.43332 21.8068C8.41957 21.864 8.38632 21.9145 8.3393 21.9498C8.29227 21.9851 8.23442 22.0028 8.17571 22H5.66412C5.52089 22 5.4708 21.9213 5.51386 21.7639L9.80715 9.45018C9.85012 9.3214 9.89302 9.1955 9.93599 9.03079C9.99215 8.74438 10.0209 8.45328 10.0219 8.16142C10.0189 8.14101 10.0208 8.12019 10.0273 8.10063C10.0339 8.08107 10.0449 8.0633 10.0594 8.04872C10.074 8.03414 10.0918 8.02315 10.1113 8.01662C10.1309 8.0101 10.1517 8.00822 10.1721 8.01112H13.5853C13.6853 8.01112 13.7425 8.04691 13.757 8.11848L18.63 21.7853C18.6729 21.9286 18.63 22.0001 18.5012 22H15.7105C15.6625 22.0053 15.6143 21.993 15.5748 21.9653C15.5353 21.9377 15.5072 21.8966 15.4958 21.8498L14.401 18.6667ZM10.215 16.019H13.6068C13.5209 15.7329 13.4207 15.4109 13.3062 15.053C13.1915 14.6954 13.0699 14.3126 12.9413 13.9045C12.8125 13.4967 12.6837 13.0888 12.5549 12.6809C12.4261 12.2731 12.308 11.8795 12.2007 11.5002C12.0934 11.1212 11.9968 10.7742 11.9109 10.4591H11.8894C11.7686 11.0389 11.6181 11.6121 11.4387 12.1764C11.2381 12.8205 11.0341 13.4788 10.8268 14.1514C10.6192 14.8242 10.4153 15.4468 10.215 16.019H10.215Z" fill="#99E83F"/>
<path d="M20.0467 11.3334H22.3866C22.4502 11.3339 22.5118 11.3552 22.5621 11.3939C22.6125 11.4327 22.6488 11.4868 22.6657 11.5481C22.7159 11.6596 22.752 11.7769 22.773 11.8974C22.803 12.0355 22.8245 12.1753 22.8374 12.316C22.8515 12.4663 22.8586 12.6273 22.8589 12.799C23.2602 12.3318 23.7441 11.9425 24.2864 11.6506C24.868 11.3214 25.5275 11.1546 26.1957 11.1676C26.2219 11.1638 26.2487 11.1662 26.2739 11.1746C26.299 11.183 26.3219 11.1971 26.3406 11.2158C26.3594 11.2346 26.3735 11.2574 26.3819 11.2826C26.3903 11.3077 26.3927 11.3345 26.3889 11.3608V13.9582C26.3889 14.0585 26.3171 14.1085 26.1743 14.1085C25.7287 14.0777 25.281 14.1103 24.8445 14.2051C24.4605 14.2814 24.0861 14.4002 23.7283 14.5593C23.4203 14.7025 23.0939 14.8672 22.9223 15.053V21.8068C22.9223 21.9356 22.865 22 22.7505 22H20.2399C20.2108 22.0042 20.181 22.0016 20.1531 21.9923C20.1251 21.9829 20.0997 21.9672 20.0789 21.9464C20.058 21.9256 20.0423 21.9002 20.033 21.8722C20.0237 21.8443 20.0211 21.8145 20.0252 21.7854V14.452C20.0252 14.1373 20.0217 13.8046 20.0146 13.4538C20.0071 13.1032 19.9964 12.7562 19.9823 12.4126C19.9726 12.1015 19.9439 11.7913 19.8965 11.4837C19.8911 11.4629 19.8912 11.4411 19.8969 11.4204C19.9025 11.3997 19.9135 11.3808 19.9287 11.3656C19.9438 11.3504 19.9627 11.3395 19.9834 11.3338C20.0041 11.3282 20.0259 11.328 20.0467 11.3334Z" fill="#99E83F"/>
</g>
<defs>
<clipPath id="clip0_2_276">
<rect width="32" height="31.2" fill="white"/>
</clipPath>
</defs>
</svg>
