<svg xmlns="http://www.w3.org/2000/svg" width="44" height="44" viewBox="0 0 44 44">
  <g fill="none" fill-rule="nonzero">
    <rect width="44.005" height="44.005" fill="#4569D4" rx="22.003" />
    <path fill="#FFF"
          d="M22.967 20.242c2.227-.12 4.104 1.11 5.63 3.69-.233 3.16-.586 5.326-1.06 6.5l.35 1.23c.12.706.474 1.353 1.06 1.94.82 1.053 1.23 1.99 1.23 2.81l-2.99.7c-1.173-.7-1.993-1.754-2.46-3.16-1.993 2.226-3.926 3.28-5.8 3.16-3.046-.354-4.746-2.17-5.1-5.45.354-6.094 2.347-9.844 5.98-11.25 1.287-.354 2.34-.41 3.16-.17Zm-5.45 9.31.18 2.11c.234.82.467 1.23.7 1.23h1.23c1.64 0 3.164-1.757 4.57-5.27l.53-2.81c-.353-.82-1.056-1.23-2.11-1.23h-.18c-2.573 0-4.213 1.99-4.92 5.97Z" />
  </g>
</svg>