<svg xmlns="http://www.w3.org/2000/svg" width="139" height="44" viewBox="0 0 139 44">
  <g fill="none" fill-rule="nonzero">
    <rect width="44.005" height="44.005" fill="#4569D4" rx="22.003" />
    <path fill="#FFF"
          d="M22.967 20.242c2.227-.12 4.104 1.11 5.63 3.69-.233 3.16-.586 5.326-1.06 6.5l.35 1.23c.12.706.474 1.353 1.06 1.94.82 1.053 1.23 1.99 1.23 2.81l-2.99.7c-1.173-.7-1.993-1.754-2.46-3.16-1.993 2.226-3.926 3.28-5.8 3.16-3.046-.354-4.746-2.17-5.1-5.45.354-6.094 2.347-9.844 5.98-11.25 1.287-.354 2.34-.41 3.16-.17Zm-5.45 9.31.18 2.11c.234.82.467 1.23.7 1.23h1.23c1.64 0 3.164-1.757 4.57-5.27l.53-2.81c-.353-.82-1.056-1.23-2.11-1.23h-.18c-2.573 0-4.213 1.99-4.92 5.97ZM52.227 6.002l.88 1.23v2.99c0 3.633-.177 7.85-.53 12.65v-1.75c.586-.827 2.403-1.18 5.45-1.06 2.813-.234 3.983 2.17 3.51 7.21-.58 3.633.416 5.86 2.99 6.68v2.46l-1.76.53c-3.98.113-5.737-3.99-5.27-12.31l-.35-.17c-3.514 0-5.27 4.216-5.27 12.65h-1.76c-1.407-.467-2.11-1.697-2.11-3.69.586 0 1.346-8.264 2.28-24.79.353-1.754 1-2.63 1.94-2.63ZM75.207 19.882h1.06c4.567.24 7.027 3.17 7.38 8.79-.233 4.926-2.87 7.8-7.91 8.62-4.686 0-7.09-2.814-7.21-8.44.94-5.627 3.167-8.617 6.68-8.97Zm-2.64 7.56-.17 2.46c.114 2.113 1.227 3.403 3.34 3.87 2.814-.82 4.22-2.46 4.22-4.92.467-3.167-.883-4.984-4.05-5.45-2.106.466-3.22 1.813-3.34 4.04ZM94.325 19.882h1.06c4.566.24 7.026 3.17 7.38 8.79-.234 4.926-2.87 7.8-7.91 8.62-4.687 0-7.09-2.814-7.21-8.44.94-5.627 3.166-8.617 6.68-8.97Zm-2.64 7.56-.17 2.46c.113 2.113 1.226 3.403 3.34 3.87 2.813-.82 4.22-2.46 4.22-4.92.466-3.167-.884-4.984-4.05-5.45-2.107.466-3.22 1.813-3.34 4.04ZM110.279 10.742l.88-.87c.82-.12 1.64.113 2.46.7-.587 5.626-.937 8.906-1.05 9.84.82-.587 1.756-.88 2.81-.88 3.513.586 4.86 2.11 4.04 4.57-.114 2.933-1.754 4.693-4.92 5.28l.35.52c1.873 2.7 3.28 4.05 4.22 4.05h1.93c.94.586 1.41 1.173 1.41 1.76v.35c-.82 1.286-1.934 1.93-3.34 1.93-1.64.233-4.57-2.637-8.79-8.61v1.23c.466-.354.406 2.106-.18 7.38h-1.75c-.94 0-1.41-.527-1.41-1.58l-.18-1.06c.94-4.687 2.113-12.89 3.52-24.61Zm1.58 14.07-.35 2.11h1.76c1.64-.707 2.52-1.704 2.64-2.99v-1.23c0 .113-.294.23-.88.35-1.174 0-2.23.586-3.17 1.76ZM133.438 19.712c2.226 0 3.693.88 4.4 2.64v1.23c-.82 0-2.054-.237-3.7-.71h-.17c-1.287.233-2.167.763-2.64 1.59l.53.87c4.1 2.466 6.15 4.226 6.15 5.28.353.586.53 1.173.53 1.76-.82 3.866-2.93 5.506-6.33 4.92-3.634 0-5.567-2.054-5.8-6.16l1.93-.52c1.06 2.34 2.466 3.276 4.22 2.81 1.293.12 1.996-.407 2.11-1.58a9.93 9.93 0 0 0-3.95-3.17c-1.587-.7-2.437-1.987-2.55-3.86 0-2.814 1.756-4.514 5.27-5.1Z" />
  </g>
</svg>