<svg height="632.73" viewBox="0 0 663.6 632.73" width="663.6" xmlns="http://www.w3.org/2000/svg"><path d="m384.46 0h-331.79v138.86h331.8v75.98l-132.98 13.1c-190.92 18.34-251.49 64.19-251.49 204.36v36.68c0 107.42 77.68 163.75 173.8 163.75 43.45 0 90.85-10.48 138.25-35.37l72.42-36.68v64.19h139.57v-486.01zm0 424.44-89.53 45.85c-34.23 19.65-69.78 30.13-97.43 30.13-34.23 0-57.93-11.79-57.93-55.02v-28.82c2.63-45.85 32.92-57.64 135.62-68.12l109.28-11.79v87.77z" fill="#fff"/><g fill="#f80"><path d="m524.03 0h-139.57v138.86h139.57z"/><path d="m663.6 138.85h-139.57v486.02h139.57z"/></g></svg>