<svg height="247.2" viewBox="0 0 967.2 247.2" width="967.2" xmlns="http://www.w3.org/2000/svg" xmlns:xlink="http://www.w3.org/1999/xlink"><clipPath id="a"><path d="m0 0h967.2v247.2h-967.2z"/></clipPath><g clip-path="url(#a)"><path d="m16.52 97.24h95.18v26.57l-35.79 2.73c-57.8 4.29-75.91 19.51-75.91 62.09v8.6c0 31.23 22.03 49.97 55.86 49.97 26.74 0 42-6.26 60.97-25.48h3.06v20.32h38.15v-186.28h-141.52v41.47zm95.18 89.82c-11.67 11.72-29.49 19.53-44.05 19.53-15.73 0-22.4-5.86-22.03-18.74.4-17.98 7-22.26 37.33-25l28.7-2.73z" fill="#f80"/><g fill="#054ada"><path d="m910.57 130.83-28.33-2.78c-15.73-1.55-19.67-5.47-19.67-17.95 0-14.06 5.51-17.58 27.53-17.58 19.67 0 25.18 3.13 28 16.4h44.06c-1.19-44.53-14.96-55.83-69.63-55.83-59.78 0-74.67 11.31-74.67 57.02 0 41.7 11.01 53.1 55.47 57.39l23.21 2.32c20.84 1.97 25.95 5.86 25.95 18.37 0 15.22-6.3 19.14-31.85 19.14-22.42 0-28.33-3.52-29.49-17.98h-44.59c1.17 46.08 15.33 57.8 71.98 57.8 63 0 78.66-12.49 78.66-63.27 0-37.81-11.41-48.74-56.63-53.03z"/><path d="m674.57 134.35c0-60.24-20.86-81.23-80.64-81.23s-82.21 27.32-82.21 95.27c0 74.14 20.46 98.81 86.55 98.81 47.58 0 67.67-14.43 74.32-55.07h-45.22c-5.11 12.51-10.62 15.25-29.89 15.25-29.1 0-36.59-8.2-38.15-42.95h112c1.94-9.92 3.01-19.97 3.24-30.07zm-114.85-6.65c.4-26.16 11.01-35.93 36.17-35.93s33.83 9.78 34.63 35.93z"/><path d="m313.1 55.86h-73.55v-55.86h-46.81v242.13h46.81v-144.5h66.85v144.5h46.81v-148.39h-40.11z"/><path d="m700.91 64.04v178.09h46.81v-146.52h56.23v-39.76h-56.23v-5.1c.4-10.94 3.15-14.04 12.2-14.04h51.12v-36.71h-55.07c-37.36 0-55.07 11.33-55.07 64.04z"/><path d="m387.81 242.13h46.81v-142.56h69.63v-43.72h-116.44v186.27z"/></g></g></svg>