<svg width="32" height="31" viewBox="0 0 32 31" fill="none" xmlns="http://www.w3.org/2000/svg">
<g clip-path="url(#clip0_2_233)">
<path d="M5.65714 0H26.3429C29.4857 0 32 2.51429 32 5.65714V25.2C32 28.3429 29.4857 30.8571 26.3429 30.8571H5.65714C2.51429 30.8571 0 28.3429 0 25.2V5.65714C0 2.51429 2.51429 0 5.65714 0Z" fill="#808080"/>
<path d="M15.4858 18.2857H10.6286L9.65719 21.5428C9.65719 21.6571 9.54291 21.7143 9.42862 21.7143H6.97148C6.85719 21.7143 6.80005 21.6571 6.80005 21.4857L11.0286 9.31427C11.0858 9.19998 11.0858 9.02856 11.1429 8.85713C11.2 8.62856 11.2572 8.39998 11.2 8.11427C11.2 8.05713 11.2572 7.99998 11.3143 7.94284C11.3143 7.94284 11.3143 7.94284 11.3715 7.94284H14.7429C14.8572 7.94284 14.9143 7.99998 14.9143 8.05713L19.7143 21.4286C19.7715 21.5428 19.7143 21.6571 19.6 21.6571H16.8572C16.7429 21.6571 16.6858 21.6 16.6286 21.4857L15.4858 18.2857ZM11.3715 16H14.9715C14.9143 15.7143 14.5715 15.0857 14.4572 14.7428C14.3429 14.4 14.1715 14.1143 14.0572 13.7143C13.9429 13.3143 13.8286 12.9143 13.6572 12.5143C13.5429 12.1143 13.4286 11.7143 13.3143 11.3714C13.2 10.9714 13.0858 10.6286 13.0286 10.3428C12.9143 10.9143 12.7429 11.4857 12.5715 12.0571C12.4 12.6857 12.1715 13.3143 11.9429 14C11.7715 14.5714 11.5429 15.4286 11.3715 16Z" fill="white"/>
<path d="M22.5143 10.1143C22.0572 10.1143 21.6572 9.94285 21.3715 9.65713C21.0858 9.31427 20.9143 8.91427 20.9143 8.45713C20.9143 7.99999 21.0858 7.59999 21.3715 7.25713C21.7143 6.97142 22.1143 6.79999 22.5715 6.79999C23.0286 6.79999 23.4286 6.91427 23.7715 7.25713C24.0572 7.59999 24.2286 7.99999 24.2286 8.45713C24.2286 8.91427 24.0572 9.31427 23.7715 9.65713C23.4286 9.94285 22.9715 10.1143 22.5143 10.1143ZM21.1429 21.4286V11.7143C21.1429 11.6 21.2001 11.5428 21.3143 11.5428H23.7143C23.8286 11.5428 23.8858 11.6 23.8858 11.7143V21.3714C23.8858 21.4857 23.8286 21.6 23.7143 21.6H21.3143C21.2001 21.6 21.1429 21.5428 21.1429 21.4286Z" fill="white"/>
</g>
<defs>
<clipPath id="clip0_2_233">
<rect width="32" height="30.8571" fill="white"/>
</clipPath>
</defs>
</svg>
