<svg xmlns="http://www.w3.org/2000/svg" xml:space="preserve" viewBox="0 0 156.5 162.8"><linearGradient id="a" x1="21.514" x2="156.304" y1="32.366" y2="104.668" gradientTransform="matrix(1 0 0 -1 0 163.951)" gradientUnits="userSpaceOnUse"><stop offset=".043" stop-color="#5c257e"/><stop offset=".969" stop-color="#8c509a"/></linearGradient><path fill="url(#a)" d="M123.7 159c.6 2 1.1 3.3 1.3 3.8.1 0-.1 0 0 0-3-42.5 21.7-59.3 30.4-87.2.1-.4.2-.9.3-1.4.2-.6.3-1.3.4-1.9 1.4-7.8-1.5-16.9-7.2-26.5 0-.1-.1-.1-.1-.2l-1.5-2.4c-.9-1.5-2-3-3-4.5-.1-.1-.2-.3-.3-.5l-.9-1.2c-.3-.4-.6-.8-.9-1.3-.3-.4-.6-.8-1-1.2-.3-.4-.7-.8-1-1.3-.2-.3-.5-.6-.7-.9-9.2-11.2-21.2-22.4-33.8-32.3 0 0-.1-.1 0 0 1.2 15.9.9 32-1.1 44.7-2.3 15.3-8.5 33-16.7 48.9-17.9-2.1-36-6.8-50.1-13.4C26.1 74.8 12.7 66.3 0 56.4c.1 1.3.2 2.7.3 4 0 .4.1.8.1 1.2.1 1 .2 1.9.3 2.8 0 .4.1.9.1 1.3.1 1 .2 1.9.3 2.8 0 .4.1.8.1 1.2.2 1.2.3 2.4.5 3.6v.4c.2 1.4.4 2.8.6 4.1 0 .1 0 .2.1.3.2 1.2.4 2.4.6 3.7 0 .3.1.5.1.7l.6 3.3c.1.2.1.4.1.6.3 1.3.5 2.5.8 3.8.9 4 2 7.9 3.1 11.6v.1c1.9 6.2 4.2 12 6.7 17 .4.7.8 1.5 1.1 2.2v.1c.3.6.7 1.3 1.1 1.9v.1c.4.7.8 1.3 1.2 1.9.1.1.1.2.2.2.5.8 1.1 1.6 1.6 2.3.1.1.2.2.3.4l.1.1c.6.8 1.3 1.6 1.9 2.4.5.5.9 1 1.4 1.5l.6.6.9.9c.2.2.4.4.7.6.3.3.6.5.9.7.2.2.5.4.7.5.3.2.6.5.9.7.2.2.5.3.7.5.3.2.6.4 1 .6.2.1.5.3.7.4.4.2.7.4 1.1.5l.6.3c.6.3 1.2.5 1.7.7.4.1.7.3 1 .4 28.1 8.4 56.1-2.5 89.9 23.3"/><g opacity=".8"><linearGradient id="b" x1="155.683" x2="86.792" y1="24.627" y2="153.769" gradientTransform="matrix(1 0 0 -1 0 163.951)" gradientUnits="userSpaceOnUse"><stop offset=".043" stop-color="#5c257e"/><stop offset="1" stop-color="#fff"/></linearGradient><path fill="url(#b)" d="M104.6 44.7c-2.3 15.3-8.5 33-16.7 48.9 31.7 3.7 62.5-1.1 67.8-19.5 5.8-20.1-20.4-51-50-74.1 1.1 16.2.8 31.9-1.1 44.7z" opacity=".51"/><linearGradient id="c" x1="88.176" x2="19.285" y1="-11.379" y2="117.764" gradientTransform="matrix(1 0 0 -1 0 163.951)" gradientUnits="userSpaceOnUse"><stop offset=".043" stop-color="#5c257e"/><stop offset="1" stop-color="#fff"/></linearGradient><path fill="url(#c)" d="M37.9 80.3C26.1 74.8 12.7 66.3 0 56.4c2.8 37.4 14.1 76.2 34.1 82.6 18.3 5.8 39.4-17 53.9-45.4-17.9-2-36-6.7-50.1-13.3z" opacity=".51"/></g><g opacity=".7"><linearGradient id="d" x1="31.756" x2="85.391" y1="94.568" y2="-5.974" gradientTransform="matrix(1 0 0 -1 0 163.951)" gradientUnits="userSpaceOnUse"><stop offset=".233" stop-color="#4f256f"/><stop offset=".841" stop-color="#5c257e"/></linearGradient><path fill="url(#d)" d="M63.1 115.7C16.4 98.4 0 56.4 0 56.4c1.7 22.9 6.6 46.3 14.8 62.6.4.7.7 1.4 1.1 2.1 0 .1.1.1.1.2.4.6.7 1.3 1.1 1.9 0 .1.1.2.2.2.4.6.7 1.2 1.1 1.8.1.1.1.2.2.2.4.6.7 1.1 1.1 1.7.3.4.5.7.7 1 .1.1.1.2.2.3.2.2.4.5.5.7.4.6.9 1.1 1.3 1.6 3.5 4.1 7.5 7.1 11.8 8.5.4.1.7.3 1 .4 28.1 8.4 56.1-2.5 89.9 23.3-2.7-3.6-26.7-34.1-62-47.2z" opacity=".7"/><linearGradient id="e" x1="99.246" x2="152.88" y1="130.564" y2="30.023" gradientTransform="matrix(1 0 0 -1 0 163.951)" gradientUnits="userSpaceOnUse"><stop offset=".233" stop-color="#4f256f"/><stop offset=".841" stop-color="#5c257e"/></linearGradient><path fill="url(#e)" d="M155.7 74.1c5.8-20.1-20.4-51-50-74.1 0 0 25.8 37 14.3 85.3-8.9 37.3 4 74.6 5 77.4.1 0-.1 0 0 0-3-42.5 21.7-59.3 30.4-87.2 0-.4.1-.9.3-1.4z" opacity=".7"/></g></svg>