<?xml version="1.0" encoding="UTF-8" standalone="no"?>
<!-- Created with Inkscape (http://www.inkscape.org/) -->

<svg
   xmlns="http://www.w3.org/2000/svg"
   width="57.573334mm"
   height="13.387917mm"
   viewBox="0 0 57.573334 13.387917"
   version="1.1">
  <style
     type="text/css">
	.st0{fill:#E43225;}
	.st1{fill:#F7971D;}
</style>
  <g
     transform="translate(-76.290715,-142.89532)">
    <g
       transform="matrix(0.26458333,0,0,0.26458333,38.931549,83.337617)">
      <g>
        <path
           class="st0"
           d="m 195.5,262.8 v -33.5 h 19.8 v 4.2 h -15.7 v 10.3 h 14.1 v 4.2 h -14.1 v 10.5 h 16.8 v 4.2 h -20.9 z" />
        <path
           class="st0"
           d="m 237.2,262.8 -6.8,-8.9 -6.8,8.9 h -4.8 l 9.3,-11.9 -9.8,-12.3 h 5.4 l 6.7,9.2 6.8,-9.2 h 5.3 l -9.3,12.3 8.8,11.9 z" />
        <path
           class="st0"
           d="m 248.6,259.2 v 16.5 h -4.1 V 251 c 0,-6.3 4.8,-13 12.3,-13 7.6,0 13.3,4.8 13.3,12.7 0,7.7 -5.8,13 -12.4,13 -3.2,0 -7.5,-1.4 -9.1,-4.5 z m 17.2,-8.5 c 0,-5.4 -3.5,-8.6 -9.7,-8.3 -3,0.1 -7.6,2.3 -7.2,10 0.1,2.5 2.7,7.2 8.4,7.2 4.9,0 8.5,-2.8 8.5,-8.9 z" />
        <path
           class="st0"
           d="m 273.6,262.8 v -24.2 h 4.1 v 2.6 c 2,-2.3 5.1,-3.1 8.4,-3.1 v 4.4 c -0.5,-0.1 -5.4,-0.7 -8.4,5.7 v 14.7 h -4.1 z" />
        <path
           class="st0"
           d="m 287.2,250.7 c 0,-7 5,-12.7 11.9,-12.7 8.6,0 11.8,5.7 11.8,13 v 2 h -19.2 c 0.3,4.6 4.4,7 8.2,6.9 2.8,-0.1 4.7,-0.9 6.7,-2.9 l 2.7,2.8 c -2.5,2.4 -5.7,4 -9.6,4 -7.3,-0.1 -12.5,-5.5 -12.5,-13.1 z m 11.6,-8.6 c -3.9,0 -6.9,3.4 -7.1,7.1 h 14.9 c 0,-3.6 -2.6,-7.1 -7.8,-7.1 z" />
        <path
           class="st0"
           d="m 313,259.4 c 0,0 3,-2.7 3,-2.7 -0.1,0 1.5,1.6 1.7,1.7 0.7,0.6 1.4,1 2.3,1.2 2.6,0.7 7.3,0.5 7.7,-3.1 0.2,-2 -1.3,-3.1 -3,-3.8 -2.2,-0.8 -4.6,-1.1 -6.8,-2.1 -2.5,-1.1 -4.1,-3 -4.1,-5.8 0,-7.3 10.4,-8.5 15.1,-5.1 0.2,0.2 2.5,2.3 2.4,2.3 l -3,2.4 c -1.5,-1.8 -2.9,-2.7 -6.1,-2.7 -1.6,0 -3.8,0.7 -4.2,2.4 -0.6,2.4 2.1,3.3 3.9,3.8 2.4,0.6 5,1 7.1,2.3 2.9,1.8 3.6,5.7 2.5,8.7 -1.2,3.3 -4.8,4.6 -8,4.7 -3.8,0.2 -7.1,-1 -9.8,-3.7 -0.2,0 -0.7,-0.5 -0.7,-0.5 z" />
        <path
           class="st0"
           d="m 334.1,259.4 c 0,0 3,-2.7 3,-2.7 -0.1,0 1.5,1.6 1.7,1.7 0.7,0.6 1.4,1 2.3,1.2 2.6,0.7 7.3,0.5 7.7,-3.1 0.2,-2 -1.3,-3.1 -3,-3.8 -2.2,-0.8 -4.6,-1.1 -6.8,-2.1 -2.5,-1.1 -4.1,-3 -4.1,-5.8 0,-7.3 10.4,-8.5 15.1,-5.1 0.2,0.2 2.5,2.3 2.4,2.3 l -3,2.4 c -1.5,-1.8 -2.9,-2.7 -6.1,-2.7 -1.6,0 -3.8,0.7 -4.2,2.4 -0.6,2.4 2.1,3.3 3.9,3.8 2.4,0.6 5,1 7.1,2.3 2.9,1.8 3.6,5.7 2.5,8.7 -1.2,3.3 -4.8,4.6 -8,4.7 -3.8,0.2 -7.1,-1 -9.8,-3.7 -0.2,0 -0.7,-0.5 -0.7,-0.5 z" />
        <g>
          <path
             class="st0"
             d="M 353.6,238.6 V 236 h -0.9 v -0.5 h 2.4 v 0.5 h -0.9 v 2.6 z" />
          <path
             class="st0"
             d="m 358.1,238.6 v -2.4 l -0.9,2.4 H 357 l -0.9,-2.4 v 2.4 h -0.5 v -3.1 h 0.8 l 0.8,2.1 0.8,-2.1 h 0.8 v 3.1 z" />
        </g>
      </g>
      <g>
        <path
           class="st1"
           d="m 167.7,262.8 -3,-8 h -16.2 l -3,8 h -4.3 l 13,-33.5 h 4.7 l 12.9,33.5 z m -11.3,-28.7 -6.1,16.6 H 163 Z" />
        <path
           class="st1"
           d="m 174.5,262.8 v -33.5 h 4.2 v 33.5 z" />
        <path
           class="st1"
           d="m 185,262.8 v -23.7 h 4.2 v 23.7 z" />
        <path
           class="st1"
           d="m 193.2,231.4 c 0,-0.1 0,-0.1 0,-0.2 0,-0.1 0,-0.1 0,-0.2 -3.2,-0.1 -5.8,-2.7 -5.9,-5.9 -0.1,0 -0.2,0 -0.3,0 -0.1,0 -0.2,0 -0.3,0 -0.1,3.2 -2.7,5.8 -5.9,5.9 0,0.1 0,0.1 0,0.2 0,0.1 0,0.1 0,0.2 3.2,0.1 5.8,2.7 5.9,5.9 0.1,0 0.2,0 0.3,0 0.1,0 0.2,0 0.3,0 0.1,-3.2 2.7,-5.8 5.9,-5.9 z" />
      </g>
    </g>
  </g>
</svg>
