<svg width="128" height="128" viewBox="0 0 128 128" fill="none" xmlns="http://www.w3.org/2000/svg">
<g clip-path="url(#clip0_2924_31)">
<path fill-rule="evenodd" clip-rule="evenodd" d="M45.7097 59.3314C45.7097 58.2377 44.8229 57.3495 43.7279 57.3495H7.73453C6.63956 57.3495 5.75 58.2377 5.75 59.3314V68.5814C5.75 69.6751 6.63956 70.5633 7.73453 70.5633H43.7279C44.8229 70.5633 45.7097 69.6751 45.7097 68.5814V59.3314Z" fill="#0178E2"/>
<path fill-rule="evenodd" clip-rule="evenodd" d="M77.7764 82.0012C77.7764 80.9075 76.8895 80.0193 75.7946 80.0193H39.8012C38.7062 80.0193 37.8167 80.9075 37.8167 82.0012V91.2511C37.8167 92.3448 38.7062 93.2331 39.8012 93.2331H75.7946C76.8895 93.2331 77.7764 92.3448 77.7764 91.2511V82.0012Z" fill="#0FECC7"/>
<path fill-rule="evenodd" clip-rule="evenodd" d="M68.0558 36.6616C68.0558 35.5679 67.168 34.6797 66.0754 34.6797H26.1552C25.0625 34.6797 24.1718 35.5679 24.1718 36.6616V45.9116C24.1718 47.0053 25.0625 47.8935 26.1552 47.8935H66.0754C67.168 47.8935 68.0558 47.0053 68.0558 45.9116V36.6616Z" fill="#D2007D"/>
<path fill-rule="evenodd" clip-rule="evenodd" d="M119.43 66.1454C120.614 64.9621 120.62 63.0402 119.44 61.8606L80.9673 23.3874C79.7878 22.2078 77.8658 22.2141 76.6825 23.3974L38.2254 61.8546C37.0421 63.0379 37.0358 64.9599 38.2154 66.1394L76.6885 104.613C77.8681 105.792 79.79 105.786 80.9733 104.603L119.43 66.1454Z" fill="white"/>
</g>
<defs>
<clipPath id="clip0_2924_31">
<rect width="128" height="128" fill="white"/>
</clipPath>
</defs>
</svg>
