<svg xmlns="http://www.w3.org/2000/svg" xml:space="preserve" style="fill-rule:evenodd;clip-rule:evenodd;stroke-linejoin:round;stroke-miterlimit:2" viewBox="0 0 1146 1117"><path d="M0 0h1145.83v1116.67H0z" style="fill:none"/><path d="M48.642.184h177.4c26.896 0 48.642 21.747 48.642 48.643v170.532c0 26.895-21.746 48.641-48.642 48.641h-177.4C21.746 268 0 246.254 0 219.359V48.827C0 21.931 21.746.184 48.642.184Z" style="fill:#00005b;fill-rule:nonzero" transform="scale(4.167)"/><path d="M75.194 137.641h29.072c-.687-2.403-1.603-5.266-2.632-8.241a344.072 344.072 0 0 1-3.091-9.843c-1.145-3.548-2.175-6.981-3.32-10.529-1.144-3.548-2.174-6.867-3.09-10.186-.916-3.204-1.716-6.18-2.517-8.927h-.23c-1.03 4.921-2.289 9.843-3.891 14.763-1.717 5.494-3.433 11.217-5.265 16.94a224.505 224.505 0 0 1-5.036 16.023Zm35.825 22.775H68.556l-8.698 26.896c-.23 1.03-1.145 1.718-2.175 1.602H35.938c-1.26 0-1.603-.686-1.26-2.06L71.646 81.217c.344-1.145.687-2.061 1.145-3.548.458-2.403.686-4.922.686-7.44-.113-.572.344-1.144.916-1.258h29.758c.915 0 1.373.342 1.488.915l41.66 117.083c.344 1.259 0 1.831-1.144 1.831h-23.921c-.801.114-1.602-.458-1.831-1.259l-9.384-27.125ZM160.232 187.198v-67.985c0-2.059 0-4.463-.115-6.98-.114-2.633-.114-5.036-.228-7.325-.115-2.289-.229-4.464-.343-5.837-.115-.344-.115-.802.228-1.144.343-.23.687-.344 1.145-.344h18.427c.686 0 1.258.114 1.831.344.458.228.801.686.916 1.258.228.687.572 1.603.801 2.518a21.92 21.92 0 0 1 .686 3.777 38.007 38.007 0 0 1 12.133-7.096c4.463-1.488 9.155-2.289 13.848-2.289 3.663 0 7.325.573 10.758 1.717 8.126 2.632 14.535 8.927 17.397 16.938 1.831 4.693 2.517 10.873 2.517 18.313v54.135c0 1.144-.458 1.602-1.488 1.602l-21.516.23c-.916.113-1.716-.458-1.832-1.374v-51.732c-.114-3.433-.8-6.867-2.173-9.958-1.031-2.289-2.633-4.348-4.694-5.722-2.402-1.488-5.035-2.174-7.782-2.06-2.977 0-5.951.458-8.698 1.603-2.519 1.03-4.808 2.517-6.867 4.348v63.177c0 1.145-.458 1.602-1.489 1.602h-21.745c-.802.116-1.488-.457-1.602-1.258-.23-.229-.23-.344-.115-.458Z" style="fill:#99f;fill-rule:nonzero" transform="scale(4.167)"/></svg>