<svg width="162" height="21" viewBox="0 0 162 21" fill="none" xmlns="http://www.w3.org/2000/svg">
<g clip-path="url(#clip0_111_2)">
<mask id="mask0_111_2" style="mask-type:luminance" maskUnits="userSpaceOnUse" x="0" y="0" width="162" height="21">
<path d="M161.49 0H0V20.9993H161.49V0Z" fill="white"/>
</mask>
<g mask="url(#mask0_111_2)">
<path d="M156.07 20.2629C156.036 20.3419 155.997 20.4266 155.952 20.5167C155.907 20.6182 155.879 20.6803 155.867 20.703H154.378C154.446 20.5563 154.519 20.3926 154.598 20.2122C154.677 20.0431 154.773 19.8344 154.886 19.5863C154.954 19.4397 155.016 19.3042 155.072 19.1802C155.128 19.0561 155.191 18.915 155.258 18.7573C155.337 18.6106 155.427 18.4245 155.529 18.1989L156.307 16.507L152.737 8.41992H154.294L157.001 14.8321H157.035L159.64 8.41992H161.197L156.73 18.7234C156.685 18.8249 156.612 18.9829 156.51 19.1971C156.42 19.4227 156.33 19.637 156.24 19.8399C156.161 20.0544 156.104 20.1953 156.07 20.2629Z" fill="#202124"/>
<path d="M147.268 9.72242V8.41969H148.791V5.9834H150.229V8.41969H152.344V9.72242H150.229V14.4258C150.229 14.9108 150.325 15.2717 150.517 15.5086C150.72 15.7342 151.019 15.847 151.413 15.847C151.594 15.847 151.763 15.8244 151.921 15.7793C152.079 15.7229 152.231 15.6496 152.378 15.5593V16.9636C152.197 17.0313 152.011 17.082 151.819 17.1159C151.628 17.161 151.419 17.1835 151.194 17.1835C150.472 17.1835 149.891 16.9693 149.451 16.5406C149.011 16.1008 148.791 15.5142 148.791 14.7811V9.72242H147.268Z" fill="#202124"/>
<path d="M144.697 17.0486V8.42006H146.135V17.0486H144.697ZM145.408 6.82971C145.126 6.82971 144.883 6.7282 144.68 6.52518C144.477 6.32215 144.376 6.07964 144.376 5.79767C144.376 5.50441 144.477 5.26191 144.68 5.07017C144.883 4.86715 145.126 4.76562 145.408 4.76562C145.701 4.76562 145.943 4.86715 146.135 5.07017C146.338 5.26191 146.44 5.50441 146.44 5.79767C146.44 6.07964 146.338 6.32215 146.135 6.52518C145.943 6.7282 145.701 6.82971 145.408 6.82971Z" fill="#202124"/>
<path d="M138.948 17.0484L135.463 8.41992H137.002L139.675 15.3566H139.709L142.416 8.41992H143.922L140.403 17.0484H138.948Z" fill="#202124"/>
<path d="M130.833 17.3193C130.191 17.3193 129.627 17.1953 129.142 16.9471C128.657 16.699 128.273 16.3606 127.991 15.932C127.721 15.4921 127.585 14.9958 127.585 14.4432C127.585 13.8115 127.749 13.2814 128.076 12.8528C128.403 12.4129 128.843 12.0858 129.395 11.8715C129.948 11.6459 130.557 11.5331 131.223 11.5331C131.606 11.5331 131.961 11.567 132.289 11.6347C132.616 11.6911 132.898 11.7644 133.134 11.8546C133.383 11.9336 133.569 12.0125 133.693 12.0915V11.567C133.693 10.9128 133.462 10.394 132.999 10.0105C132.537 9.62698 131.973 9.43524 131.307 9.43524C130.833 9.43524 130.388 9.54239 129.971 9.7567C129.565 9.95972 129.243 10.2473 129.006 10.6195L127.923 9.80745C128.149 9.46906 128.431 9.17581 128.769 8.92767C129.108 8.67953 129.491 8.48778 129.92 8.35244C130.36 8.21709 130.822 8.14941 131.307 8.14941C132.48 8.14941 133.399 8.45959 134.065 9.07994C134.73 9.70029 135.063 10.535 135.063 11.5839V17.0486H133.693V15.8136H133.625C133.478 16.0617 133.27 16.3042 132.999 16.5411C132.728 16.7667 132.407 16.9528 132.035 17.0994C131.674 17.246 131.274 17.3193 130.833 17.3193ZM130.969 16.0504C131.465 16.0504 131.916 15.9264 132.322 15.6782C132.74 15.4301 133.072 15.0973 133.321 14.68C133.569 14.2627 133.693 13.8059 133.693 13.3096C133.433 13.1291 133.106 12.9825 132.712 12.8697C132.328 12.7569 131.905 12.7005 131.443 12.7005C130.619 12.7005 130.016 12.8697 129.632 13.2081C129.249 13.5465 129.057 13.9638 129.057 14.4601C129.057 14.9338 129.238 15.3173 129.598 15.6105C129.959 15.9038 130.416 16.0504 130.969 16.0504Z" fill="#202124"/>
<path d="M122.366 17.0483V8.41979H123.737V9.80712H123.804C123.917 9.48003 124.103 9.19805 124.363 8.96118C124.633 8.71304 124.938 8.52129 125.276 8.38595C125.626 8.23933 125.97 8.16602 126.308 8.16602C126.568 8.16602 126.771 8.18293 126.917 8.21677C127.064 8.23933 127.199 8.2788 127.323 8.3352V9.89171C127.143 9.80149 126.946 9.73381 126.731 9.68869C126.528 9.64357 126.319 9.62101 126.105 9.62101C125.688 9.62101 125.304 9.73944 124.955 9.9763C124.605 10.2132 124.323 10.529 124.109 10.9238C123.906 11.3185 123.804 11.7528 123.804 12.2265V17.0483H122.366Z" fill="#202124"/>
<path d="M116.432 20.9737C115.699 20.9737 115.068 20.8498 114.538 20.6015C114.019 20.3647 113.596 20.0601 113.269 19.6879C112.953 19.3157 112.727 18.9379 112.592 18.5544L113.912 17.9961C114.092 18.4698 114.397 18.8645 114.825 19.1804C115.265 19.5075 115.801 19.671 116.432 19.671C117.335 19.671 118.028 19.406 118.513 18.8758C118.998 18.357 119.241 17.6295 119.241 16.6933V15.729H119.173C118.903 16.1463 118.513 16.5016 118.006 16.7949C117.498 17.0768 116.906 17.2178 116.229 17.2178C115.485 17.2178 114.803 17.0261 114.182 16.6426C113.573 16.2591 113.088 15.729 112.727 15.0522C112.366 14.3642 112.186 13.5747 112.186 12.6836C112.186 11.7926 112.366 11.0087 112.727 10.3319C113.088 9.64389 113.573 9.10813 114.182 8.72465C114.803 8.34116 115.485 8.14941 116.229 8.14941C116.906 8.14941 117.498 8.29604 118.006 8.5893C118.513 8.87127 118.903 9.22657 119.173 9.65517H119.241V8.42012H120.611V16.7103C120.611 17.669 120.425 18.4642 120.053 19.0959C119.692 19.7275 119.196 20.1954 118.564 20.5C117.944 20.8159 117.233 20.9737 116.432 20.9737ZM116.432 15.9151C116.94 15.9151 117.408 15.791 117.837 15.5429C118.265 15.2834 118.604 14.9112 118.852 14.4262C119.111 13.9412 119.241 13.3604 119.241 12.6836C119.241 11.9843 119.111 11.3978 118.852 10.9241C118.604 10.4391 118.265 10.0725 117.837 9.82436C117.408 9.57621 116.94 9.45215 116.432 9.45215C115.925 9.45215 115.457 9.58186 115.028 9.84129C114.6 10.0894 114.256 10.456 113.996 10.941C113.737 11.4147 113.607 11.9956 113.607 12.6836C113.607 13.3716 113.737 13.9581 113.996 14.4432C114.256 14.9169 114.6 15.2834 115.028 15.5429C115.457 15.791 115.925 15.9151 116.432 15.9151Z" fill="#202124"/>
<path d="M109.445 17.0486V8.42006H110.883V17.0486H109.445ZM110.156 6.82971C109.874 6.82971 109.631 6.7282 109.428 6.52518C109.225 6.32215 109.124 6.07964 109.124 5.79767C109.124 5.50441 109.225 5.26191 109.428 5.07017C109.631 4.86715 109.874 4.76562 110.156 4.76562C110.449 4.76562 110.692 4.86715 110.883 5.07017C111.087 5.26191 111.188 5.50441 111.188 5.79767C111.188 6.07964 111.087 6.32215 110.883 6.52518C110.692 6.7282 110.449 6.82971 110.156 6.82971Z" fill="#202124"/>
<path d="M102.995 9.72242V8.41969H104.518V5.9834H105.956V8.41969H108.07V9.72242H105.956V14.4258C105.956 14.9108 106.051 15.2717 106.243 15.5086C106.446 15.7342 106.745 15.847 107.14 15.847C107.32 15.847 107.49 15.8244 107.647 15.7793C107.805 15.7229 107.958 15.6496 108.104 15.5593V16.9636C107.924 17.0313 107.738 17.082 107.546 17.1159C107.354 17.161 107.146 17.1835 106.92 17.1835C106.198 17.1835 105.617 16.9693 105.177 16.5406C104.737 16.1008 104.518 15.5142 104.518 14.7811V9.72242H102.995Z" fill="#202124"/>
<path d="M94.7565 17.0486V8.42012H96.1268V9.68901H96.1945C96.4201 9.27169 96.7867 8.91076 97.2942 8.60621C97.8131 8.30169 98.3771 8.14941 98.9861 8.14941C100.046 8.14941 100.842 8.45959 101.372 9.07994C101.913 9.68901 102.184 10.5011 102.184 11.5162V17.0486H100.746V11.7362C100.746 10.9015 100.543 10.315 100.137 9.97663C99.7418 9.62698 99.2286 9.45215 98.5969 9.45215C98.1232 9.45215 97.706 9.58749 97.345 9.8582C96.9841 10.1176 96.7022 10.456 96.499 10.8733C96.2961 11.2906 96.1945 11.7305 96.1945 12.193V17.0486H94.7565Z" fill="#202124"/>
<path d="M82.9655 17.0483L87.5673 4.93457H89.1915L93.7935 17.0483H92.22L90.9849 13.7154H85.774L84.5389 17.0483H82.9655ZM90.4943 12.3619L88.8871 7.99684L88.4132 6.6941H88.3455L87.8719 7.99684L86.2646 12.3619H90.4943Z" fill="#202124"/>
<path d="M31.5438 17.3208C27.7701 17.3208 24.5997 14.246 24.5997 10.4724C24.5997 6.6988 27.7701 3.62402 31.5438 3.62402C33.6309 3.62402 35.115 4.44236 36.2331 5.51082L34.9146 6.82937C34.1128 6.07722 33.0279 5.49244 31.5438 5.49244C28.7909 5.49244 26.6374 7.71392 26.6374 10.4706C26.6374 13.2272 28.7909 15.4469 31.5438 15.4469C33.3295 15.4469 34.3482 14.7296 34.9992 14.0768C35.5325 13.5417 35.8838 12.7748 36.0179 11.7211H31.4959V9.85083H37.8367C37.9029 10.1855 37.9361 10.5864 37.9361 11.0204C37.9361 12.4236 37.5516 14.1614 36.3177 15.3972C35.1168 16.6496 33.5813 17.3171 31.5438 17.3171V17.3208Z" fill="#202124"/>
<path d="M47.4327 12.9109C47.4327 15.4505 45.4484 17.3207 43.0154 17.3207C40.5825 17.3207 38.5981 15.4505 38.5981 12.9109C38.5981 10.3712 40.5825 8.50098 43.0154 8.50098C45.4484 8.50098 47.4327 10.3547 47.4327 12.9109ZM45.498 12.9109C45.498 11.3238 44.3469 10.2388 43.0136 10.2388C41.6804 10.2388 40.5291 11.3238 40.5291 12.9109C40.5291 14.4979 41.6804 15.5829 43.0136 15.5829C44.3469 15.5829 45.498 14.4813 45.498 12.9109Z" fill="#202124"/>
<path d="M57.0487 12.9109C57.0487 15.4505 55.0643 17.3207 52.6314 17.3207C50.1985 17.3207 48.2141 15.4505 48.2141 12.9109C48.2141 10.3712 50.1985 8.50098 52.6314 8.50098C55.0643 8.50098 57.0487 10.3547 57.0487 12.9109ZM55.114 12.9109C55.114 11.3238 53.9629 10.2388 52.6295 10.2388C51.2964 10.2388 50.1451 11.3238 50.1451 12.9109C50.1451 14.4979 51.2964 15.5829 52.6295 15.5829C53.9629 15.5829 55.114 14.4813 55.114 12.9109Z" fill="#202124"/>
<path d="M66.2473 8.76763V16.6844C66.2473 19.9413 64.3274 21.2782 62.058 21.2782C59.9211 21.2782 58.6357 19.8419 58.152 18.6725L59.8384 17.9717C60.1382 18.6909 60.8737 19.5422 62.058 19.5422C63.5109 19.5422 64.412 18.6411 64.412 16.9529V16.3185H64.3458C63.9117 16.8536 63.0768 17.3207 62.025 17.3207C59.8219 17.3207 57.8026 15.4008 57.8026 12.9274C57.8026 10.454 59.8219 8.50098 62.025 8.50098C63.0768 8.50098 63.9117 8.96807 64.3458 9.48666H64.412V8.76763H66.2473ZM64.5443 12.9274C64.5443 11.3735 63.509 10.2388 62.1905 10.2388C60.8719 10.2388 59.7373 11.3753 59.7373 12.9274C59.7373 14.4795 60.8553 15.5829 62.1905 15.5829C63.5256 15.5829 64.5443 14.463 64.5443 12.9274Z" fill="#202124"/>
<path d="M69.5758 4.09082V17.052H67.6394V4.09082H69.5758Z" fill="#202124"/>
<path d="M77.0806 14.3637L78.5831 15.3659C78.0996 16.0849 76.9299 17.3207 74.9107 17.3207C72.4078 17.3207 70.5376 15.3825 70.5376 12.9109C70.5376 10.2885 72.4244 8.50098 74.6938 8.50098C76.963 8.50098 78.0977 10.3216 78.4655 11.3073L78.666 11.8075L72.7737 14.246C73.2244 15.1305 73.925 15.5829 74.9107 15.5829C75.8963 15.5829 76.5806 15.0992 77.0806 14.3637ZM72.4575 12.7766L76.3966 11.1399C76.1795 10.5882 75.5285 10.2039 74.7618 10.2039C73.7778 10.2039 72.4078 11.0719 72.4593 12.7766H72.4575Z" fill="#202124"/>
<path d="M16.6691 17.4118C17.5364 18.0622 18.8372 17.6286 17.6448 16.4361C14.0675 12.9672 14.8263 3.42773 10.3818 3.42773C5.93722 3.42773 6.69604 12.9672 3.11873 16.4361C1.81789 17.737 3.22712 18.0622 4.09436 17.4118C7.45487 15.1353 7.23806 11.1244 10.3818 11.1244C13.5254 11.1244 13.3087 15.1353 16.6691 17.4118Z" fill="#3186FF"/>
<mask id="mask1_111_2" style="mask-type:alpha" maskUnits="userSpaceOnUse" x="2" y="3" width="17" height="15">
<path d="M16.6691 17.4118C17.5364 18.0622 18.8372 17.6286 17.6448 16.4361C14.0675 12.9672 14.8263 3.42773 10.3818 3.42773C5.93722 3.42773 6.69604 12.9672 3.11873 16.4361C1.81789 17.737 3.22712 18.0622 4.09436 17.4118C7.45487 15.1353 7.23806 11.1244 10.3818 11.1244C13.5254 11.1244 13.3087 15.1353 16.6691 17.4118Z" fill="black"/>
</mask>
<g mask="url(#mask1_111_2)">
<g filter="url(#filter0_f_111_2)">
<path d="M1.93252 0.197135C1.66875 2.52095 3.67129 4.65635 6.40532 4.96667C9.13934 5.277 11.5695 3.64474 11.8333 1.32093C12.0971 -1.00289 10.0945 -3.13829 7.36052 -3.44861C4.62649 -3.75894 2.1963 -2.12668 1.93252 0.197135Z" fill="#FFE432"/>
</g>
<g filter="url(#filter1_f_111_2)">
<path d="M12.4738 7.79416C13.1588 10.7434 16.1574 12.5668 19.1715 11.8667C22.1856 11.1666 24.0737 8.2083 23.3887 5.25904C22.7037 2.30979 19.705 0.48645 16.691 1.1865C13.6769 1.88656 11.7888 4.8449 12.4738 7.79416Z" fill="#FC413D"/>
</g>
<g filter="url(#filter2_f_111_2)">
<path d="M-5.46148 9.77285C-4.59593 12.8166 -0.697817 14.375 3.24521 13.2537C7.18823 12.1324 9.68301 8.75603 8.81746 5.71231C7.95191 2.66859 4.05379 1.11015 0.110772 2.23144C-3.83225 3.35273 -6.32703 6.72913 -5.46148 9.77285Z" fill="#00B95C"/>
</g>
<g filter="url(#filter3_f_111_2)">
<path d="M-5.46148 9.77285C-4.59593 12.8166 -0.697817 14.375 3.24521 13.2537C7.18823 12.1324 9.68301 8.75603 8.81746 5.71231C7.95191 2.66859 4.05379 1.11015 0.110772 2.23144C-3.83225 3.35273 -6.32703 6.72913 -5.46148 9.77285Z" fill="#00B95C"/>
</g>
<g filter="url(#filter4_f_111_2)">
<path d="M-2.33259 12.2952C-0.162775 14.5114 3.57412 14.3716 6.01401 11.9828C8.45389 9.59404 8.67282 5.86094 6.50301 3.6447C4.3332 1.42846 0.596302 1.56832 -1.84358 3.95708C-4.28346 6.34585 -4.5024 10.0789 -2.33259 12.2952Z" fill="#00B95C"/>
</g>
<g filter="url(#filter5_f_111_2)">
<path d="M9.01962 20.654C9.6934 23.555 12.5042 25.3807 15.2977 24.7319C18.0913 24.0831 19.8097 21.2054 19.1359 18.3044C18.4621 15.4035 15.6513 13.5777 12.8578 14.2266C10.0642 14.8754 8.34584 17.7531 9.01962 20.654Z" fill="#3186FF"/>
</g>
<g filter="url(#filter6_f_111_2)">
<path d="M4.25651 -2.51668C2.84564 0.626174 4.38923 4.38032 7.7042 5.86844C11.0192 7.35656 14.8502 6.01513 16.2611 2.87228C17.6719 -0.270573 16.1284 -4.02472 12.8134 -5.51284C9.49842 -7.00096 5.66737 -5.65953 4.25651 -2.51668Z" fill="#FBBC04"/>
</g>
<g filter="url(#filter7_f_111_2)">
<path d="M0.477149 27.8181C-2.93841 26.4773 2.8987 15.4455 4.35017 11.7481C5.80167 8.05078 9.74719 6.14046 13.1628 7.48131C16.5783 8.82216 20.6268 16.2074 19.1752 19.9047C17.7237 23.6021 3.89272 29.1589 0.477149 27.8181Z" fill="#3186FF"/>
</g>
<g filter="url(#filter8_f_111_2)">
<path d="M21.1728 14.0875C20.2583 15.1547 17.8721 14.6105 15.8429 12.8719C13.8137 11.1333 12.9099 8.8587 13.8243 7.79144C14.7388 6.72419 17.125 7.26843 19.1543 9.00702C21.1834 10.7456 22.0873 13.0202 21.1728 14.0875Z" fill="#749BFF"/>
</g>
<g filter="url(#filter9_f_111_2)">
<path d="M14.3467 8.65489C18.1076 11.199 22.4385 11.3661 24.02 9.02819C25.6015 6.69026 23.8347 2.73261 20.0737 0.188516C16.3128 -2.35558 11.9819 -2.52271 10.4004 -0.184782C8.8189 2.15314 10.5857 6.1108 14.3467 8.65489Z" fill="#FC413D"/>
</g>
<g filter="url(#filter10_f_111_2)">
<path d="M1.99928 4.51767C1.06753 6.76534 1.37184 9.0267 2.67898 9.56856C3.98611 10.1104 5.80109 8.72759 6.73284 6.47992C7.66459 4.23225 7.36028 1.97089 6.05314 1.42903C4.74601 0.887169 2.93103 2.27 1.99928 4.51767Z" fill="#FFEE48"/>
</g>
</g>
</g>
</g>
<defs>
<filter id="filter0_f_111_2" x="0.463263" y="-4.93225" width="12.8393" height="11.383" filterUnits="userSpaceOnUse" color-interpolation-filters="sRGB">
<feFlood flood-opacity="0" result="BackgroundImageFix"/>
<feBlend mode="normal" in="SourceGraphic" in2="BackgroundImageFix" result="shape"/>
<feGaussianBlur stdDeviation="0.722959" result="effect1_foregroundBlur_111_2"/>
</filter>
<filter id="filter1_f_111_2" x="5.34311" y="-5.95316" width="25.1763" height="24.96" filterUnits="userSpaceOnUse" color-interpolation-filters="sRGB">
<feFlood flood-opacity="0" result="BackgroundImageFix"/>
<feBlend mode="normal" in="SourceGraphic" in2="BackgroundImageFix" result="shape"/>
<feGaussianBlur stdDeviation="3.49513" result="effect1_foregroundBlur_111_2"/>
</filter>
<filter id="filter2_f_111_2" x="-11.5754" y="-4.07422" width="26.5068" height="23.6338" filterUnits="userSpaceOnUse" color-interpolation-filters="sRGB">
<feFlood flood-opacity="0" result="BackgroundImageFix"/>
<feBlend mode="normal" in="SourceGraphic" in2="BackgroundImageFix" result="shape"/>
<feGaussianBlur stdDeviation="2.97119" result="effect1_foregroundBlur_111_2"/>
</filter>
<filter id="filter3_f_111_2" x="-11.5754" y="-4.07422" width="26.5068" height="23.6338" filterUnits="userSpaceOnUse" color-interpolation-filters="sRGB">
<feFlood flood-opacity="0" result="BackgroundImageFix"/>
<feBlend mode="normal" in="SourceGraphic" in2="BackgroundImageFix" result="shape"/>
<feGaussianBlur stdDeviation="2.97119" result="effect1_foregroundBlur_111_2"/>
</filter>
<filter id="filter4_f_111_2" x="-9.76929" y="-3.87207" width="23.709" height="23.6846" filterUnits="userSpaceOnUse" color-interpolation-filters="sRGB">
<feFlood flood-opacity="0" result="BackgroundImageFix"/>
<feBlend mode="normal" in="SourceGraphic" in2="BackgroundImageFix" result="shape"/>
<feGaussianBlur stdDeviation="2.97119" result="effect1_foregroundBlur_111_2"/>
</filter>
<filter id="filter5_f_111_2" x="3.22639" y="8.44868" width="21.7027" height="22.0616" filterUnits="userSpaceOnUse" color-interpolation-filters="sRGB">
<feFlood flood-opacity="0" result="BackgroundImageFix"/>
<feBlend mode="normal" in="SourceGraphic" in2="BackgroundImageFix" result="shape"/>
<feGaussianBlur stdDeviation="2.82351" result="effect1_foregroundBlur_111_2"/>
</filter>
<filter id="filter6_f_111_2" x="-1.38404" y="-11.2379" width="23.2857" height="22.8313" filterUnits="userSpaceOnUse" color-interpolation-filters="sRGB">
<feFlood flood-opacity="0" result="BackgroundImageFix"/>
<feBlend mode="normal" in="SourceGraphic" in2="BackgroundImageFix" result="shape"/>
<feGaussianBlur stdDeviation="2.5589" result="effect1_foregroundBlur_111_2"/>
</filter>
<filter id="filter7_f_111_2" x="-5.14927" y="2.48233" width="29.1982" height="30.1105" filterUnits="userSpaceOnUse" color-interpolation-filters="sRGB">
<feFlood flood-opacity="0" result="BackgroundImageFix"/>
<feBlend mode="normal" in="SourceGraphic" in2="BackgroundImageFix" result="shape"/>
<feGaussianBlur stdDeviation="2.2852" result="effect1_foregroundBlur_111_2"/>
</filter>
<filter id="filter8_f_111_2" x="9.37784" y="3.15542" width="16.2415" height="15.5681" filterUnits="userSpaceOnUse" color-interpolation-filters="sRGB">
<feFlood flood-opacity="0" result="BackgroundImageFix"/>
<feBlend mode="normal" in="SourceGraphic" in2="BackgroundImageFix" result="shape"/>
<feGaussianBlur stdDeviation="2.04485" result="effect1_foregroundBlur_111_2"/>
</filter>
<filter id="filter9_f_111_2" x="6.36669" y="-5.28919" width="21.687" height="19.4212" filterUnits="userSpaceOnUse" color-interpolation-filters="sRGB">
<feFlood flood-opacity="0" result="BackgroundImageFix"/>
<feBlend mode="normal" in="SourceGraphic" in2="BackgroundImageFix" result="shape"/>
<feGaussianBlur stdDeviation="1.72712" result="effect1_foregroundBlur_111_2"/>
</filter>
<filter id="filter10_f_111_2" x="-2.81584" y="-2.96367" width="14.3639" height="16.9254" filterUnits="userSpaceOnUse" color-interpolation-filters="sRGB">
<feFlood flood-opacity="0" result="BackgroundImageFix"/>
<feBlend mode="normal" in="SourceGraphic" in2="BackgroundImageFix" result="shape"/>
<feGaussianBlur stdDeviation="2.1376" result="effect1_foregroundBlur_111_2"/>
</filter>
<clipPath id="clip0_111_2">
<rect width="161.49" height="21" fill="white"/>
</clipPath>
</defs>
</svg>
