<svg xmlns="http://www.w3.org/2000/svg" viewBox="0 0 103.381 48"><path fill="#231f20" d="M10.053 4.271A2.855 2.855 0 0 0 8 3.41a2.815 2.815 0 0 0-2.038.862h-.013a2.965 2.965 0 0 0-.843 2.083 2.935 2.935 0 0 0 .843 2.079l.013.015A2.825 2.825 0 0 0 8 9.3a2.866 2.866 0 0 0 2.052-.853l.006-.014a2.924 2.924 0 0 0 .841-2.079 2.954 2.954 0 0 0-.84-2.084zM8 44.59a2.892 2.892 0 0 0 2.052-.858l.006-.015a2.923 2.923 0 0 0 .841-2.073 2.96 2.96 0 0 0-.84-2.087h-.007A2.837 2.837 0 0 0 8 38.693a2.797 2.797 0 0 0-2.038.864h-.013a2.971 2.971 0 0 0-.843 2.088 2.935 2.935 0 0 0 .843 2.072l.013.015A2.851 2.851 0 0 0 8 44.59zm15.77-8.924a2.857 2.857 0 0 0 1.762-1.368l.054-.104a2.945 2.945 0 0 0 .228-2.133 2.903 2.903 0 0 0-1.35-1.792l-.04-.028a2.88 2.88 0 0 0-3.916 1.108 2.978 2.978 0 0 0 1.058 4.031h.004a2.867 2.867 0 0 0 2.2.286zM10.969 20.982a4.134 4.134 0 0 0-5.931 0 4.28 4.28 0 0 0-1.223 3.013 4.33 4.33 0 0 0 1.223 3.027 4.154 4.154 0 0 0 5.931 0 4.325 4.325 0 0 0 1.224-3.027 4.276 4.276 0 0 0-1.224-3.013zM9.3 15.962a7.91 7.91 0 0 1 4.353 2.289h.01c.183.186.362.391.528.597l2.89-1.701a6.402 6.402 0 0 1 2.815-7.468l.05-.032a6.114 6.114 0 0 1 4.686-.611 6.252 6.252 0 0 1 3.793 2.963v.005a6.438 6.438 0 0 1 .625 4.815 6.293 6.293 0 0 1-2.91 3.857l-.395.237h-.04a6.173 6.173 0 0 1-4.304.4 6.243 6.243 0 0 1-3.025-1.886l-2.886 1.696a8.212 8.212 0 0 1 .515 2.872 8.327 8.327 0 0 1-.515 2.886l2.885 1.691a6.143 6.143 0 0 1 3.026-1.887 6.071 6.071 0 0 1 4.739.638l.096.046v.004a6.332 6.332 0 0 1 2.813 3.812 6.432 6.432 0 0 1-.624 4.81l-.052.105-.006-.009a6.297 6.297 0 0 1-3.731 2.873 6.187 6.187 0 0 1-4.74-.635v-.012a6.4 6.4 0 0 1-2.815-7.464l-2.89-1.697a8.046 8.046 0 0 1-.53.588l-.008.01A7.862 7.862 0 0 1 9.3 32.027v3.398a6.172 6.172 0 0 1 3.117 1.723l.005.01a6.41 6.41 0 0 1 0 8.963l-.005.018a6.164 6.164 0 0 1-8.825 0h-.005v-.018a6.403 6.403 0 0 1 0-8.964v-.009h.004a6.177 6.177 0 0 1 3.114-1.723v-3.398a7.844 7.844 0 0 1-4.348-2.275l-.012-.01a8.215 8.215 0 0 1 0-11.492h.012a7.892 7.892 0 0 1 4.348-2.29v-3.383a6.285 6.285 0 0 1-3.114-1.727h-.004v-.01a6.414 6.414 0 0 1 0-8.973l.004-.004a6.155 6.155 0 0 1 8.826 0v.004h.004a6.421 6.421 0 0 1 0 8.974l-.004.009A6.28 6.28 0 0 1 9.3 12.578zm16.232-2.257-.024-.037a2.909 2.909 0 0 0-1.738-1.336 2.854 2.854 0 0 0-2.204.292h.004a2.913 2.913 0 0 0-1.353 1.792 2.996 2.996 0 0 0 .291 2.238l.013.019a2.856 2.856 0 0 0 1.748 1.345 2.792 2.792 0 0 0 2.196-.288l.037-.018a2.938 2.938 0 0 0 1.312-1.769 2.994 2.994 0 0 0-.282-2.238m12.823.994h3.224v10.016l4.65-5.234h3.867l-5.614 6.064 5.637 7.687h-3.692l-4.848-6.866v6.866h-3.224V14.699m15.487 11.717a4.096 4.096 0 0 0 4.11 4.185 3.82 3.82 0 0 0 3.593-2.202 4.804 4.804 0 0 0 .519-1.928 4.38 4.38 0 0 0-.372-1.934 3.962 3.962 0 0 0-3.764-2.425 4.105 4.105 0 0 0-4.086 4.281zm11.42 6.816h-3.226v-1.979a5.004 5.004 0 0 1-4.552 2.403c-4.332 0-6.867-3.433-6.867-7.313 0-4.332 3.077-7.286 6.867-7.286a5.023 5.023 0 0 1 4.552 2.43v-2.006h3.226v13.75m3.652-11.219h-1.671v-2.53h1.67v-.775c0-4.086 3.054-4.332 5.368-4.36v2.526c-.814 0-2.141 0-2.141 1.933v.675h2.141v2.53H72.14v11.22h-3.226v-11.22m7.56-7.312h3.224v10.016l4.65-5.234h3.867l-5.614 6.064 5.636 7.687h-3.692l-4.847-6.866v6.866h-3.224V14.699m15.487 11.717a4.096 4.096 0 0 0 4.11 4.185 3.822 3.822 0 0 0 3.592-2.202 4.77 4.77 0 0 0 .52-1.928 4.372 4.372 0 0 0-.373-1.934 3.96 3.96 0 0 0-3.763-2.425 4.105 4.105 0 0 0-4.086 4.281zm11.42 6.816h-3.225v-1.979a5.008 5.008 0 0 1-4.552 2.403c-4.333 0-6.865-3.433-6.865-7.313 0-4.332 3.075-7.286 6.865-7.286a5.025 5.025 0 0 1 4.552 2.43v-2.006h3.225v13.75"/></svg>