<svg viewBox="0 0 702 369" xmlns="http://www.w3.org/2000/svg" width="702" height="369"><path d="m111 49 3.063 1.688C122.644 57.444 127.758 65.293 130 76c1.05 10.31-1.057 20.506-7.25 28.938-4.882 5.697-10.78 10.211-17.75 13.062h-4l1 19 5.375 1.563c7.171 2.381 13.607 5.94 18.594 11.718 1.896 1.99 1.896 1.99 4.457 1.66 2.855-1.044 5.201-2.365 7.762-4.004C142.798 145 142.798 145 145 145l-.477-1.531c-2.24-10.565-1.05-21.16 4.477-30.469 6.175-8.552 13.807-14.135 24-17 11.754-1.359 22.018.192 31.813 7.188C212.51 109.618 217.994 118.951 219 129l.195 1.918c.512 9.369-2.44 19.118-8.507 26.309-8.596 9.033-16.751 13.273-29.387 13.867-8.786-.25-15.845-2.91-23.145-7.692L156 162l-1.86-1.426c-2.385-.889-2.385-.889-5.374.98a156.351 156.351 0 0 0-3.516 2.321l-1.824 1.184A337.971 337.971 0 0 0 139 168l.488 3.473c.539 4.333.703 8.6.7 12.964l.001 2.24c-.051 5.358-.686 10.158-2.189 15.323l2.5.688c3.68 1.38 6.418 3.18 9.57 5.484 1.916 1.078 1.916 1.078 3.887.152L156 207l2.191-1.402 2.371-1.536c9.743-5.868 19.35-7.276 30.375-4.937 9.896 2.689 17.158 8.538 23.063 16.875 5.059 9.825 6.431 19.996 3.754 30.742-3.438 10.297-9.897 17.538-19.094 22.996-8.785 4.167-19.194 4.754-28.64 2.575-10.708-3.985-18.95-11.515-23.895-21.75-3.155-8-3.706-18.271-1.125-26.563l-1.938-.688c-3.5-1.5-6.638-3.393-9.878-5.386-2.105-1.09-2.105-1.09-4.235-.774-2.35 1.023-3.743 2.306-5.574 4.098-6.392 5.797-13.128 8.394-21.375 10.75l-1 19 6 1c9.283 4.074 16.537 10.856 20.438 20.25 3.705 10.17 3.852 20.74-.438 30.75-4.837 9.303-12.338 16.83-22.332 20.316-11.345 2.907-21.907 1.84-32.215-3.718-8.957-5.834-13.872-13.438-17.058-23.512-1.964-10.383-.482-20.313 4.96-29.332C65.3 259.742 71.803 253.874 80 251h4l-1-19-5.438-1.625C71.618 228.398 66.977 225.75 62 222l-2.625-1.75C48.675 210.114 44.493 197.381 44 183c.304-12.72 5.94-25.247 15.156-34.063C66.396 142.952 73.886 139.28 83 137l1-19-6-1c-11.469-4.696-17.304-12.826-22-24-3.159-9.572-1.288-20.156 3-29 5.34-9.576 13.072-15.45 23.441-18.785C92.45 42.789 102.034 44.005 111 49ZM78 73c-2.697 4.494-2.655 8.893-2 14 2.459 4.918 5.699 8.53 10.781 10.793 4.778 1.564 8.434 1.2 13.102-.602 4.523-2.545 7.49-6.311 9.117-11.191.368-5.616.216-9.177-3-14-4.106-3.927-7.694-6.565-13.375-7.313C86.337 65.436 82.048 68.257 78 73Zm89.688 50.625c-3.32 4.672-3.286 8.754-2.688 14.375 1.315 3.989 3.539 6.593 6.688 9.375 4.813 2.361 9.266 3.538 14.527 1.96 5.288-2.422 8.173-5.571 11.097-10.585 1.35-5.397.491-10.113-1.937-15.063-3.5-3.96-6.64-6.262-11.84-7.07-7.157-.323-11.064 1.578-15.847 7.008ZM74.504 167.25c-4.724 5.497-6.878 12.115-6.785 19.277.777 6.831 4.448 12.75 9.281 17.473 6.104 3.801 11.767 5.583 19 5 8.56-2.284 14.003-6.504 18.875-13.813 2.407-6.818 2.918-13.206.266-20.019-3.823-7.266-9.499-12.052-17.141-14.918-9.026-1.128-16.779.766-23.496 7Zm93.058 58.313c-3.129 4.881-3.195 9.8-2.562 15.437 2.493 4.987 5.994 8.497 11 11 6.844.763 11.485.191 17-4 3.48-3.937 4.8-7.539 5.164-12.691-.375-5.28-2.89-9.067-6.601-12.684-8.704-5.52-16.876-4.553-24 2.938ZM83 273c-3.285 3.1-6.729 6.529-7.238 11.172-.169 5.856.203 9.262 4.238 13.828 3.946 4.13 7.08 5.874 12.695 6.195 5.51-.467 9.662-3.154 13.243-7.257 3.136-4.468 3.772-8.577 3.062-13.938-1.773-4.779-4.633-8.38-9-11-6.15-2.38-11.336-2.641-17 1ZM635 164l1 1 1-7h21v81h-21l-1-8-1.434 1.426c-7.938 7.474-14.843 9.044-25.615 8.926-10.9-.37-19.272-3.905-27.15-11.461-10.061-10.787-12.44-22.03-12.11-36.407.566-11.167 5.412-20.774 13.41-28.52 15.763-13.116 35.81-13.205 51.899-.964Zm-39 18-2.188 2.438c-4.085 5.776-4.483 11.69-3.812 18.562 1.464 6.853 5.208 12.065 10.71 16.324 5.985 3.598 12.514 3.491 19.29 2.676 6.755-1.784 10.995-6.482 15-12 3.277-5.81 3.6-12.682 2-19.063-2.17-6.254-5.606-10.951-11.363-14.32-10.81-4.808-21.708-3.868-29.637 5.383ZM405.605 160.824c1.897 1.655 3.682 3.333 5.395 5.176l1-8h20v81h-20l-1-8-2.813 2.75c-7.983 6.711-17.085 8.078-27.246 7.633-11.158-1.084-19.565-5.495-27.128-13.633-8.557-10.584-10.795-22.438-9.813-35.75 1.794-12.152 7.347-22.301 17-30 13.23-8.4 31.176-10.579 44.605-1.176Zm-37.16 22.98c-4.064 6.173-5.104 12.112-4.14 19.419 1.68 6.71 5.038 12.076 10.882 15.84 6.792 3.764 14.716 4.228 22.235 2.324 6.714-2.954 10.66-8.788 13.453-15.387 2.28-7.016 1.48-12.865-1.41-19.531-3.182-5.363-7.894-9.156-13.402-11.969-11.344-1.852-20.24.006-27.618 9.305ZM497 130h20l1 56c7.427-8.079 7.427-8.079 14.75-16.25l1.678-1.878c1.617-1.854 1.617-1.854 2.966-3.97 2.473-3.47 4.255-5.602 8.515-6.548 3.375-.14 6.656-.053 10.029.146l3.517.11A339.8 339.8 0 0 1 568 158c-7.382 8.69-15.01 17.113-23.14 25.11-3.109 3.16-5.988 6.516-8.86 9.89 2.988 5.573 6.494 10.38 10.438 15.313 5.086 6.451 10.053 12.972 14.875 19.625l1.687 2.311a292798606.314 292798606.314 0 0 1 2.915 4.044C567 236 567 236 568 239c-18.986 2.51-18.986 2.51-25.074-1.296-3.647-3.572-6.102-7.91-8.564-12.346-2.351-4.07-5.168-7.806-7.924-11.608-1.4-1.993-2.794-3.99-4.186-5.99-1.383-1.944-2.82-3.85-4.252-5.76l-1 37h-20V130ZM272 130h20l1 55c11.773-11.555 11.773-11.555 22.223-25.076C317 158 317 158 319.635 157.546l3.127.063 3.388.04 3.538.101 3.572.055c2.914.047 5.827.113 8.74.195-3.777 5.29-7.757 9.997-12.438 14.5-4.75 4.66-9.28 9.401-13.562 14.5a5007.402 5007.402 0 0 1-6 7l1.247 1.626c7.595 9.918 15.168 19.854 22.628 29.874l1.782 2.368c2.655 3.586 4.991 6.82 6.343 11.132-18.938 2.84-18.938 2.84-25.204-1.541-3.932-4.16-6.696-9.047-9.43-14.047-2.058-3.633-4.51-6.936-6.991-10.287-.786-1.1-1.57-2.202-2.352-3.305A400.362 400.362 0 0 0 293 203l-1 36h-20V130ZM485 128v16l-6.836 1.27c-2.522.605-2.522.605-4.164 3.73-.454 2.28-.454 2.28-.625 4.688L473 158h12v15h-12v66h-21v-66h-9v-15h9l.078-2.781c.4-8.673.947-15.244 7.235-21.531 8.555-5.372 15.875-5.806 25.687-5.688Z"/></svg>