<svg xmlns="http://www.w3.org/2000/svg" width="120" height="60" preserveAspectRatio="xMidYMid" viewBox="0 0 120 60"><path d="M20.689 11.348a2.7 2.7 0 0 0-1.94-.815c-.762 0-1.441.31-1.928.815h-.013a2.803 2.803 0 0 0-.796 1.97c0 .776.305 1.47.796 1.965l.013.014c.487.5 1.166.806 1.927.806a2.71 2.71 0 0 0 1.94-.806l.006-.014c.494-.495.795-1.189.795-1.965 0-.772-.3-1.47-.795-1.97h-.005zm-1.94 38.12c.762 0 1.447-.317 1.94-.811l.005-.015a2.764 2.764 0 0 0 .795-1.96c0-.775-.3-1.47-.795-1.973h-.005a2.683 2.683 0 0 0-1.94-.817c-.762 0-1.441.308-1.928.817h-.013a2.81 2.81 0 0 0-.796 1.974c0 .767.305 1.465.796 1.96l.013.014a2.695 2.695 0 0 0 1.927.81zm14.909-8.438a2.701 2.701 0 0 0 1.666-1.293l.05-.098a2.784 2.784 0 0 0 .216-2.017 2.744 2.744 0 0 0-1.276-1.695l-.038-.026a2.688 2.688 0 0 0-2.037-.25 2.683 2.683 0 0 0-1.665 1.298 2.819 2.819 0 0 0 1 3.81h.004a2.71 2.71 0 0 0 2.08.271zM21.555 27.147a3.932 3.932 0 0 0-2.807-1.186 3.919 3.919 0 0 0-2.8 1.186 4.047 4.047 0 0 0-1.156 2.849c0 1.116.44 2.125 1.155 2.862a3.929 3.929 0 0 0 5.608 0 4.089 4.089 0 0 0 1.157-2.862c0-1.117-.44-2.121-1.157-2.85zM19.977 22.4a7.48 7.48 0 0 1 4.115 2.164h.009c.174.176.343.37.5.564l2.732-1.608a6.011 6.011 0 0 1-.089-3.418 5.957 5.957 0 0 1 2.751-3.642l.046-.03a5.78 5.78 0 0 1 4.431-.579 5.91 5.91 0 0 1 3.586 2.802v.005a6.087 6.087 0 0 1 .591 4.552 5.95 5.95 0 0 1-2.75 3.647l-.374.224h-.038a5.836 5.836 0 0 1-4.07.379 5.902 5.902 0 0 1-2.86-1.784L25.83 27.28c.314.845.487 1.754.487 2.716 0 .956-.173 1.88-.487 2.728l2.728 1.6a5.808 5.808 0 0 1 2.86-1.785 5.74 5.74 0 0 1 4.481.604l.09.042v.005a5.987 5.987 0 0 1 2.661 3.603 6.081 6.081 0 0 1-.59 4.548l-.05.1-.005-.009a5.953 5.953 0 0 1-3.528 2.716 5.85 5.85 0 0 1-4.481-.6v-.012a5.97 5.97 0 0 1-2.75-3.644 5.994 5.994 0 0 1 .088-3.413l-2.732-1.604c-.157.194-.326.38-.5.556l-.009.009a7.434 7.434 0 0 1-4.115 2.15v3.213a5.836 5.836 0 0 1 2.947 1.63l.004.008a6.026 6.026 0 0 1 1.728 4.242c0 1.65-.661 3.147-1.728 4.233l-.004.017a5.858 5.858 0 0 1-4.176 1.758 5.852 5.852 0 0 1-4.168-1.758h-.005v-.017a6.023 6.023 0 0 1-1.73-4.233c0-1.656.662-3.161 1.73-4.242v-.009h.005a5.84 5.84 0 0 1 2.944-1.629v-3.212a7.417 7.417 0 0 1-4.112-2.151l-.01-.009a7.749 7.749 0 0 1-2.218-5.435c0-2.121.854-4.04 2.217-5.431h.011a7.462 7.462 0 0 1 4.112-2.164v-3.2a5.942 5.942 0 0 1-2.944-1.632h-.005v-.009a6.041 6.041 0 0 1-1.73-4.242c0-1.647.662-3.155 1.73-4.242l.005-.004a5.837 5.837 0 0 1 4.168-1.762c1.627 0 3.1.672 4.176 1.762v.004h.004a6.052 6.052 0 0 1 1.728 4.242c0 1.656-.661 3.151-1.728 4.242l-.004.009a5.937 5.937 0 0 1-2.947 1.633V22.4zm15.347-2.134-.023-.035a2.75 2.75 0 0 0-1.643-1.263 2.698 2.698 0 0 0-2.084.276h.004c-.657.38-1.096 1-1.28 1.694-.18.69-.102 1.453.276 2.117l.012.017a2.7 2.7 0 0 0 1.653 1.272 2.64 2.64 0 0 0 2.075-.272l.035-.017c.639-.388 1.064-1 1.241-1.673a2.832 2.832 0 0 0-.266-2.116M47.447 21.207h3.049v9.47l4.396-4.949h3.656l-5.308 5.733 5.33 7.268h-3.491l-4.583-6.492v6.492h-3.05V21.207M62.09 32.285c0 1.612 1.139 3.957 3.885 3.957 1.7 0 2.817-.901 3.397-2.082.304-.573.444-1.186.49-1.823a4.14 4.14 0 0 0-.35-1.829c-.535-1.228-1.721-2.293-3.56-2.293-2.465 0-3.863 2.035-3.863 4.048v.022zm10.797 6.444h-3.05v-1.87c-.812 1.512-2.511 2.27-4.304 2.27-4.096 0-6.492-3.245-6.492-6.913 0-4.096 2.908-6.889 6.492-6.889 2.327 0 3.746 1.255 4.304 2.298v-1.897h3.05v13M76.34 28.12h-1.58v-2.392h1.58v-.732c0-3.863 2.885-4.096 5.074-4.122v2.388c-.77 0-2.025 0-2.025 1.828v.638h2.025v2.392H79.39V38.73h-3.05V28.12M83.487 21.207h3.048v9.47l4.397-4.949h3.656l-5.308 5.733 5.329 7.268h-3.49l-4.584-6.492v6.492h-3.048V21.207M98.13 32.285c0 1.612 1.139 3.957 3.885 3.957 1.697 0 2.815-.901 3.396-2.082.305-.573.445-1.186.491-1.823a4.133 4.133 0 0 0-.351-1.829c-.534-1.228-1.72-2.293-3.558-2.293-2.466 0-3.864 2.035-3.864 4.048v.022zm10.796 6.444h-3.049v-1.87c-.814 1.512-2.512 2.27-4.304 2.27-4.096 0-6.49-3.245-6.49-6.913 0-4.096 2.908-6.889 6.49-6.889 2.326 0 3.746 1.255 4.304 2.298v-1.897h3.05v13" style="fill:#231f20;fill-opacity:1;fill-rule:nonzero;stroke:none" transform="matrix(1.14583 0 0 1.14583 -8.815 -4.376)"/></svg>