<svg xmlns="http://www.w3.org/2000/svg" xml:space="preserve" style="enable-background:new 0 0 84.3 20.7" viewBox="0 0 84.3 20.7"><path d="M35.4 20.1V6.6h-.1l-5.4 13.5h-2.1L22.4 6.6h-.1v13.5h-2.5V1.8H23l5.8 14.6h.1l5.8-14.6H38v18.3h-2.6zm16.7 0h-2.6v-2.3h-.1c-.7 1.6-2.1 2.5-4.1 2.5-2.9 0-4.6-1.9-4.6-5V6.7h2.7v8.1c0 2 1 3.1 2.8 3.1 2 0 3.1-1.4 3.1-3.5V6.7H52l.1 13.4zm7.4-13.6c3.1 0 5 1.7 5.1 4.2h-2.5c-.2-1.3-1.1-2.1-2.6-2.1s-2.5.7-2.5 1.8c0 .8.6 1.4 2 1.7l2.1.5c2.7.6 3.7 1.7 3.7 3.6 0 2.4-2.2 4.1-5.3 4.1-3.3 0-5.3-1.6-5.5-4.2h2.7c.2 1.4 1.2 2.1 2.8 2.1 1.6 0 2.6-.7 2.6-1.8 0-.9-.5-1.4-1.9-1.7l-2.1-.5c-2.5-.6-3.7-1.8-3.7-3.8 0-2.3 2-3.9 5.1-3.9zm7.3-3.3c0-.9.7-1.6 1.6-1.6.9 0 1.6.7 1.6 1.6 0 .9-.7 1.6-1.6 1.6-.9 0-1.6-.7-1.6-1.6zm.2 3.5h2.7v13.4H67V6.7zm14.1 4.6c-.3-1.4-1.3-2.6-3.1-2.6-2.1 0-3.5 1.8-3.5 4.6 0 2.9 1.4 4.6 3.5 4.6 1.7 0 2.7-.9 3.1-2.5h2.6c-.3 2.8-2.5 4.8-5.7 4.8-3.8 0-6.2-2.6-6.2-6.9 0-4.2 2.4-6.9 6.2-6.9 3.4 0 5.4 2.2 5.7 4.8l-2.6.1zM11.5 3.6c-.7.8-1.8 1.5-2.9 1.4-.2-1.2.4-2.4 1-3.1.7-.9 1.9-1.5 2.9-1.5.1 1.1-.3 2.3-1 3.2zm1 1.6c.6 0 2.4.2 3.6 2C16 7.3 14 8.5 14 11c0 3 2.6 4 2.6 4 0 .1-.4 1.4-1.3 2.8-.8 1.2-1.7 2.4-3 2.4s-1.7-.8-3.2-.8c-1.5 0-2 .8-3.2.8-1.3 0-2.3-1.3-3.1-2.5-1.7-2.5-3-7-1.2-10 .8-1.5 2.4-2.5 4-2.5 1.3 0 2.5.9 3.2.9.7 0 2.1-1 3.7-.9z"/></svg>