<svg version="1" xmlns="http://www.w3.org/2000/svg" width="682.667" height="682.667" viewBox="0 0 512 512"><path d="M236.5.6C233.8.8 225.4 1.9 218 3 147 13.5 83.2 54.1 42.8 114.5c-40.7 60.9-53 138.1-33.3 209.8C26.1 385.1 66 438.4 121 473.4c9.8 6.2 34.9 18.5 47.3 23 13.7 5.1 34.1 10.2 50.9 12.7 20.4 3.2 53.2 3.2 73.6 0 28.2-4.3 50.2-11.2 75.7-23.6 24.8-12.1 45.1-26.4 64.9-45.5 59.9-58.1 87.9-139.8 75.7-221.5C498.5 147 458 83.3 397.5 42.8c-29.9-20-66.2-34-103-39.8-12.7-2-45.9-3.4-58-2.4zM400.8 175c16.1 1.7 43.2 8.2 43.2 10.4 0 .9-12 38.8-12.4 39.3-.1.1-3.7-.9-7.9-2.2-20.3-6.2-46.9-7.7-67.5-3.6C293 231.3 245.1 283.7 238 348.1c-1.4 13-2.4 16.2-6.3 20.6-7.7 8.7-21.3 9.6-29.6 2-3.1-2.9-7.1-11.4-7.1-15.2 0-6.4-4.2-20.4-9-30-10.1-20.2-26.1-34.1-48-41.7-9-3-10.3-3.2-24-3.3-11.4 0-16.1.4-22 2-4.1 1.1-7.9 2-8.4 2s-3.7-8.8-7.2-19.5c-4.5-14-6-19.7-5.1-20.2 1.8-1.1 16-4.8 23-6 9.7-1.6 32-1.3 41.2.7 26.5 5.6 46.7 16.5 65.6 35.6l10.6 10.7 3.2-6.7c8.7-17.7 21.4-35.2 35.9-49.8 39.6-39.9 95.3-60.1 150-54.3z"/></svg>