<svg width="62" height="24" viewBox="0 0 62 24" fill="none" xmlns="http://www.w3.org/2000/svg"><path fill-rule="evenodd" clip-rule="evenodd" d="M0 12C0 5.37259 5.58071 0 12.4649 0C19.349 0 24.9297 5.37259 24.9297 12V20.5714V23.6571C24.9297 23.8466 24.7703 24 24.5736 24H18.1631C17.9663 24 17.8069 23.8466 17.8069 23.6571V20.5714V12C17.8069 9.15969 15.4153 6.85714 12.4649 6.85714C9.51451 6.85714 7.12278 9.15969 7.12278 12C7.12278 14.8404 9.51451 17.1429 12.4649 17.1429H16.5605C16.7572 17.1429 16.9166 17.2963 16.9166 17.4857V23.6571C16.9166 23.8466 16.7572 24 16.5605 24H12.4649C5.58071 24 0 18.6274 0 12ZM44.608 2.19125C44.795 2.03861 44.7804 1.7533 44.5688 1.63418C42.7238 0.595354 40.5765 0 38.2849 0C31.4008 0 25.8201 5.37259 25.8201 12V20.5714V23.6571C25.8201 23.8466 25.9794 24 26.1762 24H32.5867C32.7835 24 32.9428 23.8466 32.9428 23.6571V20.5714V12C32.9428 9.15969 35.3345 6.85714 38.2849 6.85714C39.0326 6.85714 39.7446 7.00505 40.3908 7.27214C40.5868 7.35317 40.819 7.26861 40.9008 7.0789C41.7202 5.17615 43.0007 3.50391 44.608 2.19125ZM53.2427 0C56.6033 0 59.6532 1.28028 61.895 3.36182C62.0356 3.49234 62.034 3.70793 61.896 3.84087L57.3659 8.20198C57.2246 8.3381 56.9952 8.33458 56.8478 8.20464C55.8976 7.36774 54.632 6.85714 53.2427 6.85714C50.2923 6.85714 47.9007 9.15969 47.9007 12C47.9007 14.8404 50.2923 17.1429 53.2427 17.1429C54.4627 17.1429 55.5872 16.7493 56.4865 16.0865C56.635 15.9771 56.8462 15.9833 56.9785 16.1107L61.526 20.4886C61.6681 20.6254 61.6649 20.8486 61.5148 20.977C59.314 22.8578 56.417 24 53.2427 24C46.3586 24 40.7779 18.6274 40.7779 12C40.7779 5.37259 46.3586 0 53.2427 0Z" fill="black"/></svg>