<svg viewBox="0 0 256 219" xmlns="http://www.w3.org/2000/svg" width="256" height="219" preserveAspectRatio="xMidYMid"><path fill="#FFF" d="M123.632.012c13.836.398 26.332 8.52 32.32 21.089l23.761 49.984.382-.966a58.846 58.846 0 0 0 2.315-7.64l.332-1.548c4.004-20.02 23.463-32.977 43.52-29.016a36.982 36.982 0 0 1 29.018 43.526c-5.337 26.652-19.095 51.387-38.829 70.983l-.625.607 8.33 17.514c9.668 20.33-.349 44.903-21.4 51.799l-.95.297-.725.219a36.691 36.691 0 0 1-9.897 1.373 37.012 37.012 0 0 1-33.42-21.102l-6.43-13.518-1.622.402c-8.692 2.054-17.508 3.192-26.328 3.367l-2.405.024c-8.488 0-17.116-.987-25.736-2.9l-1.7-.396-6.177 12.987a36.972 36.972 0 0 1-20.713 18.852l-1.1.382a36.963 36.963 0 0 1-28.96-2.484c-17.56-9.334-24.256-31.186-15.688-49.235l7.67-16.129-.67-.65C17.39 137.46 9.054 125.67 3.524 112.996l-.737-1.733-.106-.281C-4.93 92.058 4.21 70.517 23.122 62.86c14.834-6.005 31.278-1.693 41.39 9.578l.19.218 24.446-51.422A36.858 36.858 0 0 1 121.535.01L122.57 0l1.062.012Z"/><path fill="#1A007F" d="m87.118 170.045 21.896-46.068c-16.724-3.552-33.551-13.897-43.068-26.482L43.05 145.63c12.723 10.793 27.999 19.276 44.068 24.414"/><path fill="#4E000A" d="M178.495 96.115c-11 13.483-26.275 23.483-42.62 27.379l21.827 45.93c15.931-5.38 30.827-14.069 43.69-25.206l-22.897-48.103Z"/><path fill="#1A007F" d="M43.05 145.631 31.602 169.7c-5.828 12.241-1.449 27.31 10.551 33.689 12.724 6.758 28.379 1.483 34.517-11.38l10.448-21.964A130.635 130.635 0 0 1 43.05 145.63"/><path fill="#FF9396" d="M223.942 43.565a25.137 25.137 0 0 0-29.585 19.723c-2.414 12.07-8.069 23.31-15.862 32.862l22.862 48.137c21.103-18.31 36.688-43.24 42.275-71.137 2.724-13.655-6.104-26.896-19.69-29.585"/><path fill="#002DC8" d="M135.875 123.494c-4.896 1.172-9.896 1.793-14.896 1.793-3.896 0-7.93-.448-11.965-1.31-16.724-3.552-33.551-13.897-43.068-26.482-2.38-3.138-4.31-6.414-5.655-9.759-5.207-12.862-19.862-19.068-32.724-13.896C14.705 79.047 8.5 93.702 13.671 106.563c5.896 14.62 16.31 28.034 29.379 39.068a130.48 130.48 0 0 0 44.033 24.414c11.069 3.551 22.551 5.517 33.862 5.517 12.551 0 24.93-2.173 36.723-6.138l-21.793-45.93Z"/><path fill="#FF536A" d="m213.425 169.596-12.068-25.378-22.862-48.103-.034.035s0-.035.034-.035l-33.24-69.93a25.144 25.144 0 0 0-22.69-14.344c-9.69 0-18.517 5.586-22.689 14.345L65.98 97.495c9.517 12.585 26.344 22.93 43.068 26.482l10.965-23.034c1.035-2.173 4.138-2.173 5.173 0l10.724 22.551h.069-.07l21.828 45.93 10.724 22.551a25.103 25.103 0 0 0 22.723 14.345c2.242 0 4.483-.31 6.69-.931 15.138-4.173 22.31-21.586 15.551-35.793"/></svg>