<svg xmlns="http://www.w3.org/2000/svg" xmlns:xlink="http://www.w3.org/1999/xlink" viewBox="0 0 1467 1429"><defs><linearGradient id="d"><stop offset="0" style="stop-color:#061017;stop-opacity:1"/><stop offset="1" style="stop-color:#41213d;stop-opacity:1"/></linearGradient><linearGradient id="c"><stop offset="0" style="stop-color:#1f182e;stop-opacity:1"/><stop offset="1" style="stop-color:#301c36;stop-opacity:1"/></linearGradient><linearGradient id="b"><stop offset="0" style="stop-color:#061017;stop-opacity:1"/><stop offset="1" style="stop-color:#1f182e;stop-opacity:1"/></linearGradient><linearGradient id="a"><stop offset="0" style="stop-color:#a53a4d;stop-opacity:1"/><stop offset="1" style="stop-color:#df4247;stop-opacity:1"/></linearGradient><linearGradient xlink:href="#a" id="e" x1="743.21" x2="738.659" y1="279.75" y2="42.898" gradientUnits="userSpaceOnUse"/><linearGradient xlink:href="#b" id="h" x1="401.846" x2="404.29" y1="714.074" y2="382.56" gradientUnits="userSpaceOnUse"/><linearGradient xlink:href="#c" id="f" x1="748.815" x2="744.753" y1="529.573" y2="321.003" gradientUnits="userSpaceOnUse"/><linearGradient xlink:href="#d" id="g" x1="991.112" x2="988.111" y1="654.122" y2="386.088" gradientUnits="userSpaceOnUse"/></defs><path d="M765.194 42.586c-7.833-.008-16.678.096-26.535.312-.586.787-1.5 1.2-2.74 1.24-104.22 3.78-204.99 30.942-297.07 80.692-5.38 2.907-9.026 4.987-10.94 6.24-30.59 17.15-57.36 35.4-85.89 57.11-1.2.906-3.43 2.713-6.69 5.42-3.85 3.18-7.98 5.68-11.52 9.31-1.666 1.7-3.216 3.096-4.65 4.19-6.22 4.76-11.566 9.596-16.039 14.51a3.623 3.623 0 0 1 0 0 83.684 83.684 0 0 1-4.63 4.33 442.29 442.29 0 0 0-41.03 40.58c-2.673 3.02-6.268 6.862-10.781 11.529-6.56 6.77-12.43 14.14-18.59 21.26-2.45 2.83-4.62 6.42-7.2 9.5-4.77 5.72-8.31 11.691-12.98 17.261.92-.64 3.66-3.88 4.23-3.91.334-.02.563-.187.69-.5.34-.887.944-1.166 1.81-.84a.954.954 0 0 0 .94-.12l5.33-3.802c-.613.167-1.096.11-1.449-.17-.333-.26-.371-.558-.111-.898 2.12-2.793 4.798-4.888 8.03-6.281.34-.147.627-.364.86-.65a4.204 4.204 0 0 1 2.4-1.5c.3-.067.557-.216.77-.45 3.8-4.3 8.71-6.78 12.6-10.35 4.75-4.37 9.88-8.16 14.25-11.99 1.9-1.66 4.83-3.38 6.81-5.72.934-1.107 1.954-1.983 3.06-2.63a30.536 30.536 0 0 0 7.27-5.88c4.82-5.3 8.53-8.71 12.85-13.12.227-.233.5-.387.82-.46.354-.087.684-.269.99-.549 10.514-9.58 19.726-18.21 27.64-25.89 10.36-10.16 21.2-22.312 33.7-29.712 16.57-9.8 28.44-2.22 42.26 7 35.82 27.67 59.65 46.96 93.97 63.74 23.33 11.41 46.6 15.902 73.28 15.112 42.69-1.25 75.04-27.821 97.17-62.701 5.82-9.174 13.18-16.499 22.08-21.979 11.39-6.45 20.661-3.59 30.711 3.54.237-.414.309-.77.217-1.069-.092-.298-.348-.537-.768-.72.42.183.676.422.768.72.092.298.02.655-.217 1.068 16.98 14.007 31.302 25.444 42.969 34.31 32.26 24.5 77.27 44.38 118.81 42.17 12.43-.67 26.061-3.23 39.141-6.71 30.02-7.993 57.226-17.59 81.62-28.79a4558.515 4558.515 0 0 1 52.679-23.81c4.173-1.853 10.614-5.339 19.32-10.459 14.52-8.24 22.1.98 31.76 9.96 15.73 14.62 38.19 23.169 57.47 30.029 23.047 8.206 47.467 11.956 73.26 11.25 9.56-.26 16.748-.699 21.561-1.319-2.687-3.446-5.404-6.541-8.15-9.281a1216.141 1216.141 0 0 0-34.6-33.28c-8.43-7.79-17.67-15.109-26.58-22.439-32.92-27.09-69.18-50.952-106.47-71.592-41.44-22.2-82.2-40.01-126.95-53.75-.26-.08-.364-.252-.31-.52.026-.126.113-.228.26-.308a642.354 642.354 0 0 0-128.02-25.23c-16.56-1.547-27.554-2.427-32.98-2.64-5.81-.234-12.632-.356-20.466-.364zm305.754 82.219c.097-.027.212.009.342.105-.26-.193-.453-.14-.58.16.063-.15.142-.239.238-.265zm-133.142 7.773c-10.884.006-22.346.426-35.076.73 12.73-.304 24.192-.724 35.076-.73zm-110.444.225c.315.052.568.226.608.646-.04-.42-.293-.594-.608-.646zm-.982.086c-.293.08-.364.25-.211.51-.153-.26-.082-.43.21-.51zM645.82 134.32c-4.25.015-8.776.124-12.78.55 4.004-.426 8.53-.535 12.78-.55zm-43.431.51c-1.64.03-3.13.728-4.82.898 1.69-.17 3.18-.868 4.82-.898zm-10.243.451c.696.023 1.345.098 1.963.184-1.236-.171-2.596-.305-4.2-.045.802-.13 1.542-.161 2.237-.139zm408.846.719c1.014.187 1.876.654 2.71 1.139-.834-.485-1.696-.952-2.71-1.14zm-538.123 2.19c.32.073.345.2.078.38.267-.18.242-.307-.078-.38zm580.17.68c-1.975-.14-4.076.059-6.238.245 2.162-.186 4.263-.386 6.238-.246zm-377.66 53.97a31.304 31.304 0 0 0 0 0zm-54 1.49a639.637 639.637 0 0 0 0 0zm8.389.36zm16.68.08zm197.761.93c4.25.15 16.112.049 27.154.12-11.042-.071-22.904.03-27.154-.12zm95.27.07zm-377.073.05c-2.557.145-5.062.274-7.367.29 2.228-.015 4.9-.152 7.367-.29zM883.6 196.97zm-138.44.111zm-252.93.068c-4.513.14-9.316.066-14.167.006 4.796.06 9.704.132 14.168-.006zm245.473.545c-2.391.47-4.653 1.057-6.683 1.327 2.03-.27 4.292-.858 6.683-1.327zm-69.293.746c.014.2.11.257.29.17-.18.087-.276.03-.29-.17zm309.34.36zm-511.41.13c.053.167-.006.248-.18.24.174.008.233-.073.18-.24zm-12.72.626c-4.005.303-7.93.683-12.07.843 4.14-.16 8.065-.54 12.07-.843zm529.921.074zm-309.281.111zm-263.94.559zm1.04.021a16.534 16.534 0 0 1 0 0zm26.769.524c-1.319.24-2.643.492-4.1.535 1.467-.044 2.773-.294 4.1-.535zm563.951.535c1.5.507 3.19.727 5.07.66-1.88.067-3.57-.153-5.07-.66zM711.96 202zm-294.22.398c-.22.227-.173.319.14.272-.313.047-.36-.045-.14-.272zm620.868.131c-.2.18-.17.308.09.381-.26-.073-.29-.2-.09-.38zm10.25 2.791zM305.83 222.6c-.087.27-.084.448.01.535.09.086.269.08.535-.016-.266.097-.445.102-.535.016-.09-.087-.092-.265-.01-.535zm1.34 1.01c.107.206.273.283.5.23-.227.053-.393-.024-.5-.23zm2.42 1.42c.16.32.416.483.77.49-.354-.007-.61-.17-.77-.49zm3.943 1.827c.456.31.883.602 1.291.784.408.18.796.251 1.176.119-.38.132-.768.062-1.176-.12-.408-.18-.835-.473-1.29-.783z" style="fill-opacity:1;fill:url(#e)"/><path fill="#fff" d="M739.75 39.54q-.88 1.18-2.74 1.24c-104.22 3.78-204.99 30.94-297.07 80.69q-8.07 4.36-10.94 6.24c-30.59 17.15-57.36 35.4-85.89 57.11q-1.8 1.36-6.69 5.42c-3.85 3.18-7.98 5.68-11.52 9.31q-2.5 2.55-4.65 4.19-9.33 7.14-16.04 14.51-2.23 2.25-4.63 4.33-21.85 18.96-41.03 40.58-4.01 4.53-10.78 11.53c-6.56 6.77-12.43 14.14-18.59 21.26-2.45 2.83-4.62 6.42-7.2 9.5-4.77 5.72-8.31 11.69-12.98 17.26q-20.01 26.43-36.87 55.19a.57.57 0 0 0 .61.84c24.19-5.1 45.45-14.65 68.01-28.78q1.32 1.36 3.16 1.32.53-.02.9-.4l3.36-3.53q.34-.36.84-.38 3.54-.14 5.87-2.7.35-.39.86-.49 2.72-.53 4.47-2.6.37-.44.29-1l-.1-.75q-.07-.47.3-.77l2.94-2.43q.46-.38 1.05-.26 2.31.49 3.31 2.74c-26.77 22.38-56.37 38.29-89.75 45.33q-4.91-.44-9.75.42c-12.92 21.3-23.18 43.32-33.51 65.93q-.22.48-.72.33l-.73-.22q27.85-63.18 64.92-117.3C298.72 186.84 453.21 86.12 628.33 52.1c2.79-.54 9.87-1.65 14.74-2.7 4.6-1 9.3-1.31 13.95-2.27q3.86-.79 8.03-1.12c5.5-.43 10.95-1.83 16.17-2.16q3.9-.25 7.8-.55c2.74-.22 4.99-1.49 7.6-1.54 9.05-.18 16.22-.51 26.79-1.62q8.13-.85 16.34-.6ZM205.46 371.31c-5.85 1.75-12.25 5.25-18.15 5.99-2.74.35-4.58 1.87-7.15 2.81q-.81.29.02.51 1.91.49 3.25-.91.31-.33.76-.42c3.67-.78 19.97-4.62 21.6-7.58q.33-.6-.33-.4ZM947.75 67.46q2.54.62 8.91 2.65c111.96 35.8 213.45 98.43 293.25 184.36 155.18 167.1 215.23 399.61 159.38 620.86-66.65 264.03-288.4 459.89-556.73 499.24q-54.91 8.06-114.31 6.46-148.47-4.01-280.07-68.47c-156.88-76.85-280.52-213.54-338.38-378.65q-.04-.12-1.87-4.28c-1.96-4.41-2.6-9.52-4.64-13.91-.75-1.6-.67-3.32-1.29-4.82-1.87-4.57-2.89-9.82-4.34-14.39-2.05-6.46-3.45-12.97-5.51-19.37-1.1-3.43-1.37-7.24-2.55-10.88q-.65-2.02-1.09-5.14c-.4-2.85-1.71-5.11-1.96-7.9-.41-4.48-2.04-8.34-2.51-12.81-.39-3.68-1.76-7.05-2.13-10.54-.57-5.4-1.77-10.71-2.61-16.09q-3.52-22.58-5.29-45.37-.06-.82-.94-6.26c-.47-2.91-.18-6.18-.32-8.53-1.93-33.28-.56-65.08.26-97.75.1-4.26 1.57-8.47 1.7-13.38.04-1.62.86-3.26.63-5.37q-.8-7.18 1.87-14.11.16 6.04-1.24 11.87a.77.77 0 0 0 .93.93c16.33-4.02 29.53-6.85 47.56-14.06q1.26.55.54 1.89a1.54 1.52-81.1 0 1-1.09.8c-3.78.7-6.73 2.93-9.57 3.86q-3.73 1.22-7.59 1.94c-1.59.29-2.64 1.35-4.51 1.51q-2.69.22-5.25 1.06c-4.86 1.59-9.41 2.52-14.08 4.06-.85.28-.95.8-.29 1.39q.37.32.85.24c9.88-1.56 19.48-4.45 29.11-7.14q2.61-.72 5.7-2.24c8.38-4.12 17.54-6.34 25.35-11.03q.43-.25.93-.28 3.17-.16 4.64-2.99a.74.74 0 0 0-1.16-.88q-1.97 1.87-4.61 2.11-.45.04-.85.25l-4.23 2.19q-.48.25-.56-.29l-.33-2.2c23.95-11.25 46.38-24.26 74.77-38.84 12.25-6.29 22.44-13.43 32.56-21.61 39.91-32.27 72.37-72.08 97.55-116.71 9.53-16.89 18.35-34.3 28.81-50.62q5.53-8.64 14.59-14.44 1.56-1-.28-.81c-1.45.16-2.57.84-4.3.59-25.31-3.78-53 3.81-72.75 19.98q-6.12 5-13.73 14.47-9.61 11.95-22.01 28.91-20.6 28.18-51.46 60.79-30.62 32.35-67.38 57.27-9.18 6.22-17.02 10.5-25.47 13.89-53.91 20.69l.81-4.92 1.96-2.31q.33-.39.82-.51c38.71-9.59 72.07-32.28 101.74-58.18 32.69-28.54 60.77-62.96 85.57-98.01 1.28-1.81 3.59-4.54 4.87-7.11a.43.43 0 0 0-.68-.5c-11.06 10.45-26.72 18.56-40.14 25.6-16.77 8.81-32.11 21.83-47.45 33.14q-32.8 24.19-70.42 39.92-6.68 2.79-21.2 6.68l1.51-4.47q1.61-2.45 2.87-2.91c32.72-11.85 58.53-26.75 85.52-46.54a.56.56 0 0 0-.51-.99c-14.83 4.94-30.72 9.55-46.36 11.12q-12.55 1.26-25.2 1.38c-2.12.02-3.55.66-4.14 2.69q-2.31 7.95-3.9 12.46-.18.52-.72.53-.39.01-.81-.24l7.75-20.75q20.13-.55 29.15-2.06 39.56-6.62 74.16-26.84c28.34-16.56 56.44-32.92 81.84-53.91q5.14-4.25 11.93-7.73c4.74-2.44 8.97-5.64 13.7-8.13q10.95-5.77 22.14-11.08.66.78.51 1.64-.08.45.15.85.37.67 1.16.27 4.88-2.51 9.77-4.99.4-.21.52.23.44 1.62 1.68 2.96l-1.1.5q-.51.23.01.44 1.29.54 2.1.49 14.59-.95 28.74 2.36c1.72.4 4 .44 5.7-.1 5.67-1.81 12.8-4.42 18.7-3.59 17.45 2.45 30.87 20.14 42.75 32.19 4.12 4.18 12.34 7.92 16.66 9.45q44.88 15.99 62.18 20.58 22.35 5.93 44.52 12.5.48.15.92-.11 1.74-1.03 2.53-1.71c21.71-18.66 34.07-30.92 54.74-41.29q1.06-.54-.13-.47c-2.91.15-5.44.42-8.25.01q-34.66-4.99-63.58-24.72c-17.52-11.96-34.53-25.27-54.46-33.77q.64-2.49.25-5.09-.08-.56.48-.5.77.09 1.03-.63c20.66 7.49 33.79 18.26 56.19 33.75 24.4 16.88 57.12 28.74 87.05 23.23 24.47-4.51 49.42-6.51 74.03-11.43 22.23-4.43 44.76-8.21 66.55-14.5 8.03-2.33 14.5-5.09 21.43-8.88a.27.27 0 0 0-.22-.5c-3.17 1.09-4.49 2.28-8.07 2.54l-7.25-.25q-.42-.6-1.24-.47-.47.08-.43-.39l.23-3.04q.03-.38.4-.5l.79-.27 28.25-1.08c20.14-4.15 38.82-13.4 57.74-21.23q11.99-4.96 24.76-6.47c17.87-2.11 33.48 5.54 44.83 19.09q6.38 7.61 12.18 15.78.33.47.54-.06c6.89-17.53 11.3-31.46 24.16-43.05a.5.5 0 0 0-.4-.86l-5.31.72q-9.16-1.95-18.5-1.17l-7.25.25-1.8-.23q-.54-.07-.5-.61l.19-3.01q.04-.64.68-.65l19.18-.5c15.09.22 30.13-1.86 45.4-1.41 22.35.67 37.9 10.62 55.02 23.29 28.41 21.05 55.74 43.5 84.16 64.58q30.98 22.98 70.36 42.14c6.41 3.12 10.72 4.87 17.79 2.9q25.18-7.02 48.19-17.9c9.79-4.63 23.53-13.05 36.1-18.39q.49-.21.26-.69-4.08-8.5-9.14-16.39-2.62-4.09-7.39-5.13l-7.5-5.07q-.37-.25-.25-.68.42-1.41 1.75-2 3.5.57 5.83 2.24a.73.73 0 0 0 1.07-.93c-2.18-4.17-11.39-21.24-15.17-21.9q-27.99-4.87-58.23-13.66-.28-1.47 1.41-1.84.45-.1.88.05c2.72.95 8.39 1.78 10.25 3.65q.36.37.88.39c8.06.35 15.36 3.56 23.28 4.76 6.15.94 11.26 2.36 16.96 3.61q.11.02.19-.05l.32-.32q.24-.25-.09-.35c-1.18-.38-1.79-1.22-2.9-1.52-7.38-1.98-14.95-3.54-22.15-6.08q-3.08-1.09-6.32-1.6c-3.24-.51-5.36-2.34-8.72-2.54-4.63-.29-8.34-1.54-12.63-2.59q-.48-.11-.66-.58-.53-1.38.55-2.24 24.28 6.64 48.76 12.49 4.06.97 6.12 4.28.17.28.5.28.17 0 .33-.09.46-.25.16-.68c-3.31-4.9-15.94-26.77-20.87-27.53q-.94-3.95-3.05-7.4-17.49-22.45-35.99-44.06l-8.41-8.62q-4.03-5.17-8.15-9.28-16.97-16.98-34.6-33.28c-8.43-7.79-17.67-15.11-26.58-22.44-32.92-27.09-69.18-50.95-106.47-71.59-41.44-22.2-82.2-40.01-126.95-53.75q-.39-.12-.31-.52.04-.19.26-.31Zm167.96 330.58c42.49 40.02 90.75 75.21 151.28 77.19q19.07.62 43.49-.8c2.46-.15 5.28-1 8.02-1.13q5.5-.28 11-.68c5.66-.41 12.39-2.28 18.89-2.47a.38.38 0 0 0 .06-.75c-5.46-.98-11.33-.19-16.61-1.36-7.83-1.72-15.75-2.57-23.59-4.31q-49.06-10.86-93.23-34.79c-42.59-23.07-80.69-56.66-118.43-88.52-15.67-13.23-36.56-30.04-58.55-27.5q-.61.07-.18.51c7.8 7.93 14.88 15.44 22.27 24.61q25.73 31.89 55.58 60Zm-125.51-33.3c12.39-.16 20.66 10.33 26.93 19.65 19.44 28.86 38.66 56.28 59.72 82.02 6.21 7.6 15.72 13.18 24.33 17.68 17.91 9.37 36.22 17.81 56.45 22.04q5.19 1.08 18.22 3.28c13.23 2.23 22.76 2.52 34.36 2.76 12.74.26 25.92 1.55 38.98 1.84a.41.41 0 0 0 .29-.71q-.47-.42-1.64-.72-43.47-11.42-79.5-38.2-16.51-12.28-23.65-18.82c-35.98-33.01-65.2-70.8-95.96-110.28-9.12-11.71-28.16-35.1-42.92-13.97-3.5 5.01-17.9 27.67-16.41 32.84q.18.6.8.59Zm-121.16-16.27c5.64.24 12.02.09 17.92 1.57 27.35 6.88 51.68 21.88 76.4 36.08a.98.98 0 0 0 1.34-.37c4.56-8.26 8.26-14.24 16.6-19.07a.88.88 0 0 0 .31-1.22c-11.09-18.22-28.39-36.52-50.92-36.63-14.29-.06-32.4 7.12-45.91 13.4-5.19 2.41-10.48 3.99-15.8 5.86q-.96.34.06.38ZM590.75 449.46q-16.68 12.47-34.89 21.67a.79.79 0 0 0-.09 1.35c35.31 24.64 72.16 43.21 114.85 50.74 13.87 2.45 27.53 2.74 41.49 1.95q2.79-.16 6.24-.86c5.18-1.05 10.98-1.83 15.51-2.88 17.07-3.95 31.4-8.98 50.83-15.98 11.91-4.3 23.24-11.99 33.86-17.9 22.26-12.4 50.17-10.61 73.06-1.08a1.14 1.14 0 0 0 1.26-.26q10.42-10.78 19.92-22.71c18.89-23.58 31.05-42.96 48.42-71.37q.24-.39-.17-.61c-30.28-16.34-54.06-31.02-84.63-35.58-15.38-2.3-27.01-1.36-40.98 4.24q-22.07 8.86-48.94 14.01c-27.57 5.28-55.35 11.38-83.24 14.58-26.62 3.05-48.63 9.76-70.03 26.48q-21.48 16.77-42.47 34.21Zm-186.46-66.9c13.04 2.25 20.29 10.06 26.4 21.5 4.19 7.83 44.45 89.17 51.8 88.69q.5-.03.93.22 21.65 12.76 42.89 26.2c33.63 21.29 70.26 35.42 110.01 39.48 5.12.52 11.3.68 15.69-.35q16.85-3.95 33.93-6.69c16.2-2.61 27.77-5.29 41.38-10.79 20.6-8.32 40.78-16.99 58.5-31.83q.37-.31-.03-.04-8.03 5.51-21 10.04c-19.36 6.76-39.36 12.17-58.43 11.99-7.35-.08-15.83.44-21.94.07-62.57-3.81-121.12-40.34-166.64-78.85q-6.9-5.84-13.77-11.73c-21.77-18.64-40.5-40.47-62.53-58.9-7.82-6.54-17.88-8.79-27.61-5.44-2.38.82-9.35 2.79-10.28 5.19a.93.92 15.7 0 0 .7 1.24Zm413.46 165.23c-23.58 10.99-50.65 16.8-76.53 14.31-9.82-.95-17.9-1.42-24.04-2.26-16.73-2.27-31.48-2.54-47.96 1.38q-14.51 3.45-34.27 8.99c-13.07 3.66-24.81 4.48-38.2 3.75q.32-.2.43-.61.07-.23.07-.46v-.65q0-.65.64-.74c7.16-1.06 13.61.39 19.93-.12q1.34-.11 1.55-1.14.12-.56-.45-.49-1.18.13-1.46-.92-.08-.32-.42-.33h-.29q-.49-.01-.5-.5v-.46l9-1.08q3.37.82 5.71-1.07.39-.32.87-.49l5.65-2.09q.72-.26.38-.95c-.25-.49-16.38.86-17.86.93-46.55-6.72-87.3-30.12-126.06-57.73q-7.7-5.49-12.01-11.1-.37-.5-.16.08 1.75 4.7 5.41 9.78 19.19 26.63 33.29 44.46 7.6 9.61 16.66 17.92.38.34.88.4l34.74 4.44q4.27.32 7.35 1.69a1.02 1.01-35.6 0 1-.32 1.94q-6.59.6-12.58-1.65c-2.92-1.09-5.53-.64-8.54-1.09a.33.33 0 0 0-.3.54c1.35 1.61 5.51 1.85 7.62 2.45 5.7 1.63 12 2.07 17.89 1.25q3.77-.52 7.63-.46 11.22 2.14 34.07 4.91 10.23 1.24 38.68 6.1c17.89 3.06 44.15 6.36 66.75 8.82q4.31 1.26 8.75.5c10.11.36 24.4.35 33.18-5.36q22.94-14.93 43.27-33.24c1.6-1.43 3.82-2.79 5.55-4.4 13.54-11.56 26.56-20.14 44.5-9.83q6.1 3.62 9.44 6.1c23.17 17.19 46.21 34.01 71.58 47.88 3.19 1.75 7.71 3.2 11.33 3.47 43.42 3.16 84.4-4.89 120.83-29.17 8.04-5.37 18.42-13.81 25.03-19.53q8.98-7.78 19.81-9.77c18.48-3.38 31.99 21.39 42.9 32.38 4.75 4.78 8.73 9.88 13.37 14.64q41.11 42.16 95.75 63.96c10.45 4.17 15.37 6.49 27.58 4.66 20.28-3.05 35.15-5.13 50.67-8.59 7.08-1.58 19.16-3.4 28.31-6.83a.62.61 34.2 0 0-.23-1.19c-19.84.3-38.84-.5-58.6-3.48q-27.27-4.12-48.78-10.48-50.82-15.02-93.6-49.92-7.44-6.07-14.92-12.1c-6.99-5.63-19.62-16.37-29.88-24.03-2.99-2.24-5.57-5.22-8.55-7.71-11.7-11.43-24.07-22.97-34.91-34.52-27.12-28.92-53.76-64.81-75.05-91.3-5.59-6.96-17.71-20-26.82-21.41-9.27-1.44-16.92 5.07-21.99 12.31-20.7 29.48-40.96 60.13-65.23 86.47q-21.5 23.34-49.24 42.4c-11.36 7.82-24.64 14.03-37.3 20.34ZM168.5 641.04q-.29-.14-.42-.38-.17-.31.01-.62 5.35-9.06 14.52-14.08a2.16.96 78.9 0 0 .45-1.96c-.09-.77-1.53-.55-2.11-.2q-2.31 1.39-4.92 2.18-.48.14-.7.59l-1.98 4.04q-.18.38-.56.55-2.55 1.16-3.83-.66 13.26-12.08 27.26-23.28 8.66-6.93 28.35-27.36 1.64-1.7-.08-.07-2.41 2.3-4.85 4.39-2.68 2.31-5.7 4.08c-29.75 17.46-64.36 37.2-98.92 47.79q-5.74 1.76-28.63 6.39-.49.1-.55.6-2.62 23.39-3.09 46.96-.04 1.9.54 6l-.25 6.75.17 11.23q.81 3.37-.13 6.63c-.59 2.05.06 2.81 2.18 2.66q4.14-.28 18.24-.56 1.67-.04 5.25-1.42c37.96-1.44 75.13-7.15 111.48-19.34q35.55-11.91 66.42-26.71c8.4-4.03 16.91-7.23 26.1-10.39 27.63-9.5 54.18-21.23 78.85-36.97q22.62-14.44 43.85-30.84c3.41-2.64 6.21-6.05 9.1-9.26 6.34-7.07 14.94-15.42 23.61-17.98 11.78-3.47 22.66.8 30.74 9.56 10.66 11.54 20.33 21.62 32 34.6 28.67 31.85 63.71 56.72 102.13 75.91 85.84 42.87 186.79 49.91 278.02 19.78 24.42-8.06 43.65-16.73 64.91-26.09a.72.72 0 0 0-.46-1.36c-17.35 4.39-33.99 9.47-51.47 12.71-38.48 7.13-77.56 11.84-116.77 9.33Q675.87 695.83 574.31 614c-4.98-4.01-10.71-8.26-14.54-11.78q-30.24-27.85-55.52-60.26c-24.55-31.8-44.98-63.74-66.91-96.17-3.15-4.66-6.76-9.01-10.26-13.42-8.73-10.97-21.61-16.51-31.96-3.12q-5.65 7.31-8.85 13.54c-20.53 40.03-35.66 70.55-55.48 103.21-23.58 38.3-52.06 74.33-85.99 103.3q-33.17 28.31-74.99 48.4c-9.04 4.34-19.31 7.89-29.05 11.54q-19.37 7.27-45.82 10.08l-10.25-.8q-.57-.05-.5-.61l.26-2.19q.05-.42.38-.67 1.83-1.43 3.11-.09.4.41.96.3l4.12-.82q.49-.09.49-.6-.02-2.22 2.24-2.1 4.26.22 6.96-1.49c61.25-12.76 115.49-44.71 159.7-88.45 19.52-19.32 36.43-41.53 51.52-65.12 25.41-39.69 46.03-80.94 61.91-124.61q6.5-17.86 14.02-35.99a.49.49 0 0 0-.78-.55q-.8.74-1.68 2.1-13.33 20.62-25.66 41.87c-27.22 46.91-63.5 90.55-105.69 125.3q-22.49 18.51-40.41 34.7c-15.55 14.03-31.39 27.73-47.14 41.54Zm1207-167q-5.26-.21-10.25 1.42c-6 .38-12.3 1.88-17.71 2.47-6.55.72-12.83 1.83-19.54 2.35-7.4.57-14.87 1.78-22.25 1.99-13.92.41-29.23.97-42.02.13-50.82-3.32-89.82-25.72-128.58-57.58q-17.37-14.28-25.84-22.37-3.58-3.42-6.9-4.68-.79-.29-.26.35 29.38 35.99 62.18 62.56c40.22 32.57 88.14 50.29 139.92 55.33q17.77 1.74 38.17-.87c6.23-.8 12.94-1.09 19.35-2.02 11.48-1.65 22.96-1.48 34.5-2.98q.61-.08.41-.66l-11.56-33.35q-.19-.56-.69-.86-.91-.56-.98-1.56-.05-.58-.63-.52l-7.32.85Zm-3.5-11.08h6.75q.33.29.78.31.5.02.32-.45-8.4-21.57-18.4-42.45-2.84-5.92-6.83-12.05a1.92 1.92 0 0 0-2.55-.63c-25.93 14.6-54.19 30.72-84.91 36.41q-1.29.24 0 .47c4.31.79 8.02 1.79 12.34 3.27 26.57 9.16 53.11 13.8 81.19 16.23q.91.08 2.38.86.44.24.85-.04 3.59-2.39 8.08-1.93Zm-887.55-50.84c12.42 11.6 24.72 23.51 37.85 34.3 7.68 6.31 14.6 12.55 23.72 18.37 3.96 2.53 6.54 1.35 10.19-.87q19.74-12.01 29.94-19.27.62-.44-.13-.56-4.76-.76-6.01-1.11-35.32-9.99-70.24-21.3-12.83-4.16-25-10.02-1.68-.81-.32.46Zm229.02 140.52q5.58.43 11.03 1.13c18.41 2.36 40.79 3.53 58.92-.87 38.33-9.3 74.35-32.23 102.28-59.96q1.04-1.03 2.2-2.06.58-.51-.18-.61-1.59-.2-3.11.24-.51.15-1.03.02-15.41-3.89-26.08-4.74c-16.67-1.32-33.92 5.38-47.44 15.03-15.04 10.75-30.69 22.92-47.05 30.96q-24.18 11.88-49.59 20.46a.21.21 0 0 0 .05.4Zm490.04 6.89q-1.17 2.13-3.52 1.23-7.58-2.88-20.12-8.67-.48-.22-.78-.65-.47-.67-1.26-.7-.45-.02-.52.43-.22 1.52.74 2.06 8.01 4.47 22.27 10.32c1.96.81 4.14.41 4.8 3.29q.09.36-.28.42-.17.03-.34.03-19.09-7.4-37-17.33-4-4.13-9.25-6.42-6.91-4.77-13.95-9.33-2.87-1.86-4.74-2.65-1.25-.54-.27.41c1.56 1.52 3.77 2.4 5.2 3.71q5.49 5.04 11.27 9.76c4.3 3.51 8.46 7.71 12.89 11.36 9.8 8.09 19.79 18.36 31.3 23.9q2.04.98 3.76 2.68 4.05 3.98 9.59 6.83 18.6 9.57 37.31 18.94c3.79 1.9 8.19 3.69 12.09 5.04q35.89 12.43 71.05 16.55c6.31.74 12.36 1.72 17.71 2.03q26.87 1.56 36.04 1.72c11.36.2 20.59-1.04 30.99-1.75q1.79-.12 2.99-1.79.29-.4.18-.89-1.52-6.96-1.95-14.06c.03-4.85-1.68-9.13-1.62-13.83q.07-4.93-2.34-9.29-.24-.43-.26-.93l-.2-4.95q-5.67-30.65-13.81-60.74-.36-1.34-2.38-5.15-.23-.43-.71-.33c-5.26 1.17-11.65.37-17.15.81-7.87.61-18.73 3.45-25.22 6.2q-18.29 7.75-36.48 15.71-.51-2.2.27-4.23.17-.46.65-.53c3.41-.5 4.55-3.53 8.1-3.27q.55.04 1.02-.24 3.13-1.86 6.77-1.9.49 0 .91-.27c4.61-2.96 9.73-3.67 15.04-7.71l17.09-5.03a.3.3 0 0 0-.08-.58c-3.32-.08-6.47 1.28-9.44 1.47-7.57.51-15.7 2.1-22.52 2.42q-20.49.96-40.91-.82c-31.05-2.71-62.71-3.1-93.87-3.9-36.74-.93-72.09-9.33-103.2-29.37a.3.3 0 0 0-.43.38q2.16 4.29 5.37 7.76c11.85 12.8 25.21 24.75 40.08 34.02q27.86 17.35 59.12 27.83Zm-691.55-46.78c-1.28-.96-8.02-6.73-9.09-6.49a.79.79 0 0 0-.3 1.4q9.21 6.86 17.98 12.61c2.89 1.89 7.31 4.02 10.69 6.7q.4.32.9.3c2.12-.08 6.66 3.75 8.91 4.89a.99.99 0 0 0 1.44-.79q.02-.24.02-.46-.02-.48-.5-.56-2.98-.44-5.29-2.22c-2.28-1.75-4.09-2.38-6.46-3.46-1.92-.88-3.22-2.71-5.78-3.11q-.5-.08-.87-.41c-3.69-3.2-8.17-5.8-11.65-8.4Zm167.757 14.138a5.2.74-1.9 0 0-5.221-.568 5.2.74-1.9 0 0-5.173.912 5.2.74-1.9 0 0 5.221.568 5.2.74-1.9 0 0 5.173-.912ZM585.07 549.67c-1.62-1.13-3.51-.82-5.15-1.52q-5.8-2.46-12.24-3.79a.54.54 0 0 0-.3 1.04c13.55 5.18 26.57 10.33 40.86 13.13q.64.13 1.02.38.4.27.89.3c3.24.18 9.56 2.06 12.19.31q.6-.39-.12-.43c-5.74-.35-10.76-2.56-15.97-3.53q-6.97-1.29-13.66-3.61c-2.26-.78-5.06-.56-7.52-2.28Zm98.54 118.11q2.93 2.2 6.14 2.68c38.36 15.88 82.11 24.11 123.5 25.37q31.66.97 55.74-1.33 40.32-3.85 88.01-16.26 4.51-1.18 7.81-2.46.49-.19-.03-.27-11.19-1.64-28.7-5.87-9.8-2.37-45.79-9.62c-37.9-7.64-73.58-12.85-104.61-9.62q-15.02 1.56-38.18 7.14c-2.3-2.63 5.06-3.36 7-3.55q2.02-.2 4.85-1.17c4.45-1.53 8.83-1.67 14.3-3.05q2.47-.62 6.32-.8c4.33-.19 8.43-1.75 12.43-1.85q15.04-.38 30.1-.12c5.47.09 10.43 1.93 15.64 2.08 8.86.26 14.58 2.34 22.11 2.94 2.64.22 5.86 1.64 9.07 1.9 4.7.39 8.89 1.49 13.94 2.16 5.15.69 9.67 2.39 15.44 1.99q.3-.02.3-.33 0-.13.01-.27.02-.33-.32-.34c-2.97-.08-5.37-.28-8.36-1.32-3.82-1.32-7.5-1.42-11.37-2.63-3.4-1.08-6.89-.53-10.22-1.33-13.24-3.19-27.76-4.44-42.99-6.13q-.95-.11-.74-1 .11-.46.58-.47l4.66-.04c28.98 2.96 57.41 8.73 85.97 14.32 16.69 3.26 33.59 8.38 50.66 11.76 21.23 4.21 29.29-.57 46.02-13.13 7.05-5.29 15.68-11.46 22.27-17.92q.42-.41-.15-.55-16.13-3.86-37.31-10.19-40.21-12.04-74.52-33.99-24.06-15.39-46.93-32.5c-15.56-11.64-28.38-17.14-45.84-4.1q-11.25 8.41-26.91 20.83c-34.09 27.03-73.43 47.49-115.76 56.76q-18.31 4.02-42.44 5.86c-2.98.23-6.58 1.06-9.96 1.16-1.85.05-3.53-.98-5.33-1.01a.69.69 0 0 0-.34 1.3q20.27 10.83 40 20.26 7.94 3.8 13.93 4.71Zm280.32-60.44q37.02 15.77 76.34 24.24a3.11 3.11 0 0 0 2.75-.76c19.97-18.48 35.64-37.71 53.87-61.62q.22-.29-.13-.18c-4.87 1.64-10.16 6.93-14.69 9.8-23.67 15.01-49.99 25.21-78.06 27.75-16.36 1.48-24.43 2.27-37.89.12-.71-.11-1.67-.5-2.3.11a.33.33 0 0 0 .11.54Zm-421.68-34.35c21.24 22.77 47.16 44.02 72.93 59.33 4.12 2.45 6.93 3.64 11.98 3.34q30.45-1.75 60.18-8.29c18.39-4.04 37.67-11.08 54.25-18.5q6.22-2.78 14.43-8.33.52-.35-.08-.15c-9.28 3.06-20.82 2.1-31 1.17q-19.28-1.76-38.42-4.66c-43.74-6.64-87.58-12.78-131.04-21.01q-6.31-1.19-12.61-3.79a.56.55-10.2 0 0-.62.89Zm32.94 96.81c18.95 19.79 38.72 39.39 60.33 56.3q48.18 37.7 105.17 60.56 8.34 3.35 13.81 3.19 9.97-.31 41.32-3.51c44.16-4.52 93.34-17.6 134.93-32.85q59.9-21.98 119.81-43.92 12.74-4.66 39.82-13.12c1.95-.61 4.7-1.63 6.01-2.51q16.88-11.31 34.62-5.87 5.38 1.65 14.81 7.6c23.54 14.86 41.59 30.67 65.67 34.37q33.76 5.18 73.76 3.73c5.14-.18 10.08-1.18 15.29-1.34q11.71-.36 30.22-2.37 45.16-4.88 78.56-10.64c4.86-.84 9.86-1.21 14.83-1.76q.6-.06.6-.66v-27.74q0-.65-.65-.61c-59.54 3.43-116.87-7.65-170.64-33.02-26.06-12.29-50.4-28.65-73.88-46.97-12.4-9.67-22.63-18.42-34.46-25.5-10.34-6.2-23.09-6.67-32.87.79-15.1 11.5-29.95 26.79-48.6 44.69q-23.47 22.5-53.59 44.65c-47.34 34.81-105.49 56.85-164.2 64.62-11.4 1.51-24.35 2.21-36.56 3.04-6.07.41-13.24.56-18.23.2-13.66-.99-28.3-1.77-40.94-3.39q-91.7-11.81-167.55-65.14-4.22-2.96-8.1-6.33a.49.49 0 0 0-.81.45q.28 1.77 1.52 3.06Zm22.8-89.76.02-1a.17.17 0 0 0-.17-.17l-.73-.02a5.56.66 1.3 0 0-5.57.54v.02a5.56.66 1.3 0 0 5.54.78l.73.02a.17.17 0 0 0 .18-.17Zm77.82 11.34-.06-.94a.15.15 0 0 0-.16-.14l-.14.01a7.99.53-4 0 0-7.94 1.09l.02.18a7.99.53-4 0 0 8-.03l.14-.01a.15.15 0 0 0 .14-.16Zm22.92 4.77 12.35.63q.51.02.88.38c2.51 2.42 15.95 1.8 18.33 1.2q1.63-.4-.04-.52c-5.11-.37-11.58.47-16.3-1.28q-7.43-2.75-15.27-1.02a.31.31 0 0 0 .05.61ZM196.88 810.97c23.1 6.74 48.03 11.76 72.12 12.7q21.61.84 43.21 1.63 8.52.32 13.57.05c11.34-.6 21.88-4.14 31.16-7.93q36.82-15.01 70.21-38.09c12.35-8.54 25.58-19.04 38.27-28.68 7.31-5.55 17.18-11.08 26.62-11.91q18.18-1.59 35.47 6.02c35.22 15.52 66.69 38.85 96.98 62.03q5.15 3.94 10.76 7.29.45.26.98.25c35.1-1.2 62.84 2.22 98.63 8.57 36.32 6.44 72.63 11.37 109.47 6.29 9.92-1.37 22.16-4.12 33.21-6.17q.47-.08.78-.44.31-.35.75-.5 1.97-.68-.07-.33-.2.03-.32.19-.21.29-.58.28-6.52-.19-13.04-.33c-8.38-.18-16.71-1.58-25.87-2.56-81.1-8.66-156.3-41.98-219.36-93.49-22.32-18.23-39.87-35.58-65.09-60.18-16.7-16.29-32.41-33.78-48.98-49.41-5.34-5.04-13.11-10.95-18.56-13.93-16.6-9.07-30.65 3.32-40.67 15.72-25.6 31.71-51.86 68.71-80.85 100.4q-5.8 6.34-19.37 18.37c-40.34 35.77-87.6 55.14-139.96 63.44q-11.24 1.78-22.47 3.82a.61.61 0 0 0-.21 1.12q6.13 3.72 13.21 5.78Zm-65.44-31.16c16.91.8 32.38.64 49.06-1.25q61.51-6.96 120.93-28.91c11.8-4.36 24-8.65 32.93-16.57 26.07-23.12 48.46-48.62 67.93-77.18q12.84-18.85 25.65-37.42a.54.54 0 0 0-.74-.77c-29.18 18.56-58.61 35.32-90.97 47.74-12.06 4.62-25.02 9.08-35.97 14.45q-23.48 11.54-45.81 27.3c-41.42 29.24-89.26 59.73-140.34 70.33-8.73 1.82-18.34 3.01-27.18 3.27q-.77.02-.5.75l1 2.72q.22.6.85.5c2.25-.37 4.47-1.22 6.62-1.49 12.42-1.54 24.05-4.06 36.54-3.47Zm1172.8-116.88q17.55 7.04 35.98 10.01c28.72 4.63 52.4 4.75 83.83 3.86q.47-.02.49-.49.57-12.79-.76-21.57-1.32-8.83-1.61-13.41-.02-.45-.46-.33-33.96 9.38-68.52 16.24c-11.89 2.36-24.61 4.07-36.96 5.87-4.24.62-7.9.32-11.86-.62q-3.01-.71-.13.44Zm-388.2.04c3.36-1.05 15.19 3.3 18.82 4.68q.49.19 1 .11 2.93-.47 5.62.93.44.23.93.18l1.59-.16q.36-.03.47-.39c.38-1.25-3.86-1.83-4.96-2.42q-.44-.24-.93-.17c-6.29.85-12.49-4.53-19.03-3.93q-.56.06-.99-.3-2.11-1.75-3.09.85a.47.47 0 0 0 .57.62ZM146.25 702.5q0-.13.01-.27.03-.62-.55-.41-2.1.72-3.67 2.32-.39.39-.93.42-4.12.2-7.74 2.15-.42.23-.9.12-1.57-.37-2.5-.07c-5.41 1.73-11.92 2.24-16.69 5.12q-.48.29-.08.69l.27.27q.38.39.92.31c9.81-1.35 19.18-3.82 28.35-7.55 3.65-1.49 7.39-1.93 10.75-4.46q.89-.67-.22-.72l-2.88-.12q-.47-.02-.71.38-1 1.78-3.16 1.82-.27.01-.27 0Zm-33 27.79q-14.34-.43-28.65.42c-1.01.06-1.52.56-1.56 1.54-.24 12.55 1.45 25.49 2.14 38.06q.13 2.5.62 3.94.21.63.8.33 1.31-.64 1.99-.69c61.56-5 109.7-39.31 159.96-71.45q3.31-2.11-.49-1.15-4.98 1.26-11.63 4.38-9.57 4.5-30.16 9.91c-24.79 6.5-51.07 11.66-76.67 13.19-5.07.3-10.84 1.35-16.35 1.52Zm814.25 93.5q3.69.36 6.89 1 25.48 5.13 51.2 8.85c33.27 4.82 65.48.28 99.1-3.87 34.67-4.28 68.22-4.61 102.4-2.32q10.78.72 19.97 1.01c15.11.48 30.7 1.69 45.25 1.94 35.33.6 70.86-.26 106.13.99 21.31.75 35.25-.42 53.16-.11a1.06 1.05-87 0 0 1.06-.96c.65-7.25 2.38-14.16 3.2-21.34.19-1.69.76-3.14 1.35-4.77q.23-.65-.45-.76-6.96-1.16-22.75-2.74-8.96-.89-33.35-5.22-70.08-12.43-135-41.11c-23.99-10.6-46.62-23.11-71.97-37.56q-10.05-5.72-22.73-9.04c-11.98-3.13-22.44-1.41-32.77 4.91q-14.46 8.84-26 19.99-6.6 6.38-31.54 25.95c-33.94 26.63-70.7 48.46-111.24 63.45q-1.23.46-2.06 1.27a.26.26 0 0 0 .15.44Zm-155.6-25.85c10.19 2.32 20.93 5.16 30.28 7.03 34.71 6.94 68.68 9.75 103.66 5.64 20.85-2.45 39.88-8.49 58.92-17.89q44.74-22.09 82.19-52.53c8.01-6.52 16.09-14.59 24.03-22 1.89-1.76 4.68-3.19 6.57-5.17a.52.52 0 0 0-.52-.86q-15.45 4.32-28.75 9.05c-44.9 15.94-90.93 33.58-134.53 48.05-45.96 15.27-93.15 24.84-141.77 27.74a.48.48 0 0 0-.08.94Zm437.36-59.89c10.82 4.18 22.22 10.21 31.49 14.02q85.03 34.87 176.86 43.15.53.05.76-.44c1.38-2.89 1.33-8.36 1.57-11.09.64-7.17 1.84-14.21 2.29-21.39.71-11.54 2.17-22.46 2.45-33.77a.87.87 0 0 0-1-.88c-33.3 5.09-64.16 9.77-99.73 12.94-14.14 1.26-28.78 1.52-43.21 2.2-18.01.85-36.84-.37-53.68-2.11q-7.22-.75-16.9-3.34-.22-.06-.41.06-.23.15-.51.1-2.61-.47.02.55Zm-953.1 115.08c18.84 8.28 37.66 13.83 59.19 17.2 17.88 2.79 36.34 2.8 54.36 1.8q9.41-.53 19.86-2.2c29.48-4.74 56.74-12.94 84.91-19.9 11.53-2.85 21.71-7.77 33.91-6.86q13.43 1.01 25.38 6.52c27.22 12.58 55.88 31.61 78.43 44.85q40.89 24.02 85.61 39.61c8.39 2.93 17.41 4.77 26.2 6.73 21.36 4.77 42.35 13.12 60.49 17.66q29.23 7.31 62.11 7.19c5.2-.02 8.63-2.28 12.67-5.21 19.97-14.5 39-29.47 56.34-46.29q13.29-12.89 26.89-26.53a1.02.97 74.4 0 0 .27-.51q.4-1.93-1.09-.99c-28.62 17.96-59.6 26.52-93.34 27.26-6.94.15-14.24-.85-21.36-1.47-81.63-7.14-151.07-56.02-216.74-101.95q-18.06-12.63-46.83-29.2c-18.17-10.46-43.07-21.12-64.03-20.68-12.68.27-26.16 6.27-37.14 12.59q-19.82 11.4-39.62 22.84c-30.62 17.7-62.57 32.4-96.72 41.85-25.82 7.15-52.75 9.15-79.46 6.97q-5.9-.48-11.79-1.7a.39.38 62.8 0 0-.23.73q10.74 4.86 21.73 9.69Zm-90.87-63.47c1.74.99 3.42 1.92 5.5 2.07 24.08 1.67 47.37-1.5 70.75-9.15q25.85-8.46 49.49-19.19a.4.4 0 0 0-.3-.74q-55.04 18.95-111.98 24.52-6.46.64-12.93.77-1.55.04-.88 1.36a.84.79 89.2 0 0 .35.36Zm-76.75 5.35a1.27 1.27 0 0 0-1.14 1.56l.84 3.52a1.27 1.27 0 0 0 1.73.87l10.4-4.35a1.27 1.27 0 0 0-.58-2.44l-11.25.84Zm124.54 129.17c23.82-2.92 48.75-3.52 72.38.33 2.31.38 3.99.24 6.21-.03q62.52-7.73 120.02-32.81c18.6-8.11 36.54-18.14 53.81-28.78q1.07-.66-.15-.67-.25 0-1.06.21c-42.39 10.67-84.98 21.87-129.54 18.81q-46.7-3.22-88.85-23.37c-27.45-13.12-53.38-30.15-77.4-44.57-18.6-11.17-38.28-19.76-59.94-10.76q-4.97 2.07-17.7 8.52-.43.22-.43.7c.04 3.75 1.25 8.12 1.7 10.79 3.35 19.97 7.44 41.59 13.44 61.85.51 1.71.76 3.68 1.31 5.52q5.64 19.07 11.67 38.02.55 1.73 2.12 3.07.38.33.87.39c3.68.43 6.64.37 10.4 1.57q5.09 1.63 10.25.93c24.07-3.28 47.23-6.82 70.89-9.72Zm93.98-92.83c-15.79.05-31.97.52-47.67-1.29q-3.32-.39-8.84-.89-28.47-2.6-54.73-13.38a.25.25 0 0 0-.24.44q12.27 8.55 25.16 14.49c8.34 3.85 17.94 4.78 27 5.19q30.31 1.41 61.29-3.54a.41.4-41.5 0 0 .05-.79q-.84-.24-2.02-.23Zm340.76-7.88q43.11 33.32 92.64 56.04c29.13 13.37 62.63 23.42 94.79 24.94 14.68.69 32.47.43 47.32-2.82q29.91-6.56 56.03-23.01c15.82-9.95 32.86-24.08 52.48-21.71q9.93 1.19 12.76 2.2c7.66 2.74 17.29 8.32 25.82 13.48q17.25 10.44 34.61 20.69c4.48 2.65 9.31 5.17 13.54 6.92 19.43 8.05 33.62 13.71 47.19 16.57q63.78 13.47 128.49 21.3c5.4.65 9.87-.99 14.94-2.27 11.87-2.98 25.3-1.73 37.09 1.13q18.77 4.55 37.35 9.8c8.1 2.28 18.44 4.96 26.91 2.39 2.98-.9 5.17-.94 8.11-.86q.53.01.72-.49 19.68-52.21 31.27-106.81.11-.49-.39-.56-1.86-.24-3.74-.23c-40.29.22-80.92.84-121.18-.61-25.69-.93-48.04-.95-71.6-2.36-30.59-1.84-59.07-3.64-91.97-2.74-2.29.06-5.18.79-7.7.9q-8.57.4-28.05 2.37c-15.32 1.54-31.49 4.12-45.97 4.92q-24.09 1.33-48.2-.42c-15.96-1.16-32.24-5.05-47.98-7.95-25.51-4.7-51.18-4.44-76.71-.12q-18.72 3.16-37.59 5.16c-8.42.9-16.61 1.28-24.3.66-16.19-1.32-36.13-3.43-54.11-6.36-34.17-5.57-68.41-12.6-103.23-11.85a.4.4 0 0 0-.35.57q.28.57 1.01 1.13ZM303.61 931.44c.62 2.68 16.86 10.39 21.62 12.53 29.87 13.45 61.03 22.67 92.77 24.73 9.91.65 20.17 1.81 29.94 1.21 21.55-1.33 44.25-3.26 65.47-7.8q29.22-6.25 58.34-12.89c30.79-7.03 61.83-11.3 93.4-12.7 1.9-.08 4.88.65 7.42-.13q.88-.27.03-.63c-17.65-7.38-35-15.23-51.9-24.27q-18.06-9.66-36.14-19.28-27.76-14.77-54.17-22.66c-24.65-7.37-43.74-3.13-66.9 8.2q-17.92 8.77-36.1 17.01-59.12 26.82-123.44 36.19a.4.4 0 0 0-.34.49Zm-93.95 31.76c71.75 30.37 139.91 62.88 213.84 81.05q40.44 9.93 84.96 13.84c16.51 1.44 37.09 3.53 49.29 4.18q16.13.86 45.93.17c3.72-.08 6.95-.15 10.69-1.08q29.85-7.35 60.59-7.63c7.21-.07 14.68.92 22.05 1.66 20.85 2.1 44.38 6.95 57.8 8.79 18.03 2.47 39.34 3.6 59.09 1.83 8.98-.8 18.69-1.33 26.88-2.72q43.28-7.34 83.24-25.59c7.79-3.56 13.38-5.86 18.29-10.39 27.12-25.06 54.2-54.21 78.14-84.69 10.5-13.35 23.25-30.87 40.54-35.53a1.05 1.05 0 0 0 .18-1.96q-15.57-7.57-32.43-15.27c-19.85-9.06-39.08-13.16-58.84-1.31q-15.69 9.4-29.8 21.07-21.42 17.71-43.14 35.06-34.25 27.34-72.42 48.82-72.21 40.64-154.35 49.76c-26.29 2.93-53.56 2.82-79.96 1.55q-9.73-.47-19.91-1.75-78.63-9.83-153.99-34.57-35.09-11.52-66.19-31.43c-15.41-9.86-29.83-21.21-45.81-30.16-21.56-12.1-45.85-15.88-70.08-14.37-30.36 1.9-52.17 5.41-78.77 7.84a.52.52 0 0 0-.14 1q27.11 10.31 54.32 21.83Zm330.51 170.95c31.18 7.34 62.8 14.17 94.46 19.12q38.49 6.03 76.83 12.93 11.13 2 19.78 2.96 19.84 2.19 32.26 2.26 7.48.04 28.19-1.16 10.95-.64 19.9-1.97c55.49-8.24 109.02-26.97 157.3-55.6q40.63-24.1 77.09-54.23c29.33-24.23 51.67-44.83 81-72.47q6.37-6 13.69-10.84c13.23-8.75 27.22-18.49 41.82-23.64q2.53-.89-.07-1.57-35.89-9.3-69.65-20-18.72-5.93-34.51-7.24c-20.23-1.68-36.24 10.76-48.59 25.23-19.86 23.27-39.13 45.91-59.98 66.16-63.88 62.05-142.21 111-231.46 125.3-32.01 5.13-59.99 7.34-90.16 5.19q-34.86-2.48-69.4-7.69c-13.34-2.01-24.49-2.97-36.92-3.42q-1.16-.04-2.24.29-.35.11 0 .21.35.11.66.18Zm616.33-202.88c9.99 3.61 51.34 16.84 58.5 9.53q.55-.56-.23-.64-23.44-2.28-32.76-4.19-12.82-2.62-25.45-4.94a.13.12 59.6 0 0-.06.24Zm-899.31 133.29c24.23 2.85 55.67 5.04 86.47 8.96q28.94 3.67 57.92 7.07c4.49.52 9.81.61 14.7 1.16 12.37 1.41 24.81 1.88 37.24 2.6 26.47 1.53 53.11.64 79.29-3.75q23.53-3.95 47.26-9.77a.39.39 0 0 0 .01-.76q-.83-.22-2.08-.19-12.27.33-24.53-.16c-7.28-.29-15.68-1.42-23.56-2.02-14.5-1.09-28.15-2.37-42.07-4.11-57.31-7.16-109.67-22.65-163.92-43.99-44.23-17.4-87.74-36.39-131.36-55.24q-33.16-14.32-67.81-25.03-1.94-.6-1.18 1.28c.33.84.4 1.96.75 2.82 13.33 33.42 25.59 60.85 42.74 91.65.35.62 1.57 1.75 2.18 2.07q42.19 22.03 87.95 27.41Zm81.44-104.92q35.88 26.82 78.33 41.22c30.54 10.36 60.12 17.62 93.51 24.78 51.8 11.11 104.04 15.89 156.66 9.94q24.04-2.73 39.62-6.08 49.15-10.6 97.25-35.21c11.16-5.72 23.44-13.24 35.1-19.93a.49.49 0 0 0-.27-.92c-16.99.92-35.01-1.99-51.55-5.64-20.52-4.53-40.26-12.08-60.77-16.58q-33.56-7.38-65.07-6.28-35.31 1.22-65.44 7.05c-35.09 6.79-71.56 17.04-108.86 22.32-9.1 1.28-19.07 2.05-28.65 2.98-16.35 1.61-32.86-.25-49.17-1.6-24.14-2-49.24-8.7-71.65-18.46a.65.65 0 0 0-.86.83c.29.75 1.34 1.22 1.82 1.58Zm868.16-5.98c-32.45 6.96-52.15 25.67-71.65 51.08q-29.82 38.82-46.1 57.56c-32.48 37.37-66.94 70.75-107.22 99.06-8.33 5.86-20.07 12.92-29.94 19.66q-.84.58.12.23c46.83-17.13 80.99-29.47 115.21-52.54 58.17-39.21 105.73-92.2 145.63-150.42 7.68-11.21 15.52-21.23 27.04-28.36q.89-.56-.16-.66-1.42-.13-3.79.13-18.68 2.02-29.14 4.26Zm-638.06 259.5q9.41 3.04 18.96 5.62c24.99 6.73 49.74 14.42 74.55 21.77 59.07 17.5 120.05 26.6 181.63 25.6 8.54-.14 17.68-.98 26.46-1.65 103.53-7.92 204.29-55.91 285.34-119.36 18.61-14.57 37.5-28.69 56.38-42.88q59.58-44.76 129.37-72.13a.76.74 3 0 0 .39-.34q14.48-27.14 26.91-55.28.56-1.26-.75-1.68-20.46-6.54-40.58-12.17c-17.99-5.03-33.95-9.34-50.62-10.46-23.89-1.6-40.43 12.4-54.27 30.55-18.58 24.35-35.21 47.05-56.95 71.81q-9.76 11.12-32.87 33.23c-38.44 36.77-82.39 66.16-131.98 85.58-37.32 14.61-74.17 27.03-110.93 41.48-37.31 14.66-77.12 23.59-117.27 24.86-39.73 1.26-78.68-.7-114.99-7.99q-55.79-11.19-89.64-16.94-37.79-6.42-.12.21c.35.06.72.08.98.17Zm807.66-257.73-11.21-.36a.15.15 0 0 0-.15.15l-.01.04a5.23 2.19 1.8 0 0 5.16 2.35l1.06.04a5.23 2.19 1.8 0 0 5.3-2.03v-.04a.15.15 0 0 0-.15-.15ZM221.75 1116.54q1.38 3.5 4.46 5.71 14.43 19.21 31.27 36.29.34.34.83.39 9.4.8 23.76 2.46 64.68 7.49 125.58 17.66c31.06 5.18 61.92 11.62 93.04 16.43 47.27 7.3 91.87 12.8 141.53 23.44 15.99 3.42 35.65 7.11 48.03 8.07 14.16 1.11 28.77 2.73 42.5 3.07 17.51.42 35.88.98 53.32-.75 45.65-4.54 88.2-15.55 129.52-36.95q46.23-23.93 86.59-56.6c46.33-37.49 86.06-83.27 120.68-131.59 1.25-1.75 8-8.89 8-11.22q0-.88-.65-.28-4.12 3.82-10.29 11.25c-3.81 4.58-10.04 8.98-14.12 12.88-50.03 47.82-107.93 92.37-169.98 121.77q-59.41 28.14-126.41 37.65-9.83 1.39-19.9 1.84c-20.14.89-40.92 1.12-60.93-1.57-34.93-4.69-68.58-11.56-105.08-16.99q-23.08-3.44-72.63-13.59c-38.33-7.84-77.24-13.51-116.16-17.45-16.83-1.71-34.72-1.9-52.04-3.49-37.13-3.43-65.63-15.33-106.67-24.41q-30.55-6.75-60.82-14.66c-6.73-1.76-13.1-4.01-19.45-6.36a.55.55 0 0 0-.65.83q12.64 18.84 26.67 36.17Zm825.75 196.42q2.5.16 4-1.92l1.29-.79q1.98-.21 3.5-1.5l1.46-1.04q1.49-.11 2.5-1.17 59.78-31.72 108.41-70.64c53.22-42.58 97.42-90.5 136.74-146.24q10.89-15.43 22.71-35.57 1.53-2.61 6.14-8.62.51-.67-.31-.47-5.03 1.2-10.99 3.96c-20.64 9.53-39.81 19.34-58.44 31.05-41.28 25.96-79.19 56.23-117.73 85.97q-100.07 77.21-213.27 133.49c-44.31 22.02-91.37 43.56-138.51 60.27-23.57 8.36-48.53 13.18-75.25 18.33q-1.13.22.01.38 8.21 1.1 16.49 1.11c19 .01 38.31.44 57.16-.64q133.61-7.63 254.09-65.96Zm-791.06-224.65q31.53 6.5 78.82 19.87 27.15 7.69 61.3 10 13.47.91 21.96 1.38c25.28 1.38 50.5 4.29 75.78 5.22q27.07.99 54.15 1.91c25.07.85 50.18 5.18 75.1 8.1 10.08 1.19 20.96 1.4 31.51 2.04q8.48.51 15.4.38c34.05-.62 66.15-4.55 99.88-13.13 51.23-13.02 98.57-40.09 140.67-71.83a.56.56 0 0 0-.56-.96c-7.46 3.24-15.05 6.91-22.54 9.37-26.52 8.72-52.61 13.11-80.61 15.41-12.13.99-25.06.74-37.19-.27-32.34-2.71-61.18-9.4-92.31-11.23-9.86-.57-20.07.38-30.14.98-6.36.38-14.31 1.82-20.2 3.14-35.15 7.89-71.12 17.91-108.45 22.25-20.72 2.42-41.59 2.22-66.02 1.61q-9.79-.25-19.95-1.17-42.02-3.81-83.87-9.11c-24.93-3.15-50-5.46-74.98-8.18-33.96-3.7-69.22-9.99-98.47-26.86q-2-1.15-.9.88c3.34 6.19 10.67 21.21 17.42 23.42q29.21 9.58 64.2 16.78ZM346 1240.54c6.37 7.26 12.52 7.24 21.5 7.67q55.79 4.76 108.74 22.83 25.89 8.83 51.81 17.55c54.63 18.38 108.99 31.36 168.06 36.9 12.91 1.21 25.97 1.45 38.94 2.21 11.65.68 25.44-.5 34.58-.97q28.16-1.44 60.43-7.71c31.46-6.1 61.13-13.56 89.18-25 41.45-16.92 78.78-39.55 117.11-62.52a.48.48 0 0 0-.26-.89q-1.1.04-2.68.8-75.89 36.63-159.91 44.59-9.07.86-33.78 2.29c-17.84 1.03-36.66-1.11-54.54-2.18q-26.88-1.61-65.41-9.22c-13.47-2.66-27.03-5.12-40.19-8.69-53.75-14.59-106.45-32.64-160.85-44.84-76.32-17.11-153.79-32.17-231.44-41.72q-9.59-1.18-19.82-3.41a.88.87-15.7 0 0-.82 1.46q36.79 38.21 79.35 70.85Zm91 58.75 2.75 1.42q27.53 14.85 56.5 26.63.37.15.66.41.45.41 1.53.81 11.28 4.16 22.55 8.37 60.84 22.72 125 32.82 4.52.72 16.38.76c4.54.01 10.03 1.04 15.45.85 15.49-.55 31.51-.56 46.58-3.12q52.21-8.85 100.99-29.74 22.15-9.48 43.01-19.07a.59.59 0 0 0-.4-1.1c-25.64 6.96-50.31 11.05-76.57 14.32-10.96 1.37-22.69 1.81-34.09 2.7-11.21.88-22.34.58-33.9-.33-10.87-.85-22.53-1.28-32.56-2.33-66.42-6.89-129.29-23.08-192.04-45.96-27.99-10.21-54.94-18.64-86.17-24.31q-19.21-3.48-38.52-6.38c-2.98-.45-6.35-.14-8.79-2q-.2-.16-.33.07c-1.11 1.94 45.69 30.52 50.18 33.16q12.85 7.54 21.79 12.02Z"/><path fill="#f673a8" d="M394.75 204.29c35.82 27.67 59.65 46.96 93.97 63.74 23.33 11.41 46.6 15.9 73.28 15.11 42.69-1.25 75.04-27.82 97.17-62.7q8.73-13.76 22.08-21.98c11.39-6.45 20.66-3.59 30.71 3.54q25.47 21.01 42.97 34.31c32.26 24.5 77.27 44.38 118.81 42.17 12.43-.67 26.06-3.23 39.14-6.71q45.03-11.99 81.62-28.79 26.26-12.07 52.68-23.81 6.26-2.78 19.32-10.46c14.52-8.24 22.1.98 31.76 9.96 15.73 14.62 38.19 23.17 57.47 30.03q34.57 12.31 73.26 11.25 14.34-.39 21.56-1.32l8.41 8.62c-2.28-.22-3.88-1.23-6.07-1.25-4.35-.05-8.61.41-12.76 1.73q-1.96.63-5.63.67-27.51.3-46.49-1.92-28.09-3.3-58.98-16.56-5.67-.76-13.84-4.36-1.68-.74-3.19 1.23c-11.67-11.54-25.44-28.55-44.1-21.69q-9.39 3.45-15.1 6.95c-27.35 16.74-54.84 34.51-84.89 46.09-44.63 17.2-93.17 27.47-141.66 22.85q-19.59-1.87-45.02-10.16-.7-.23-3.27-.77-.5-.11-.68.37-.25.67.47 1.03c-2.1-.7-4.4-1.33-6.35-2.36-8.67-4.58-17.11-7.48-24.16-11.07q-2.61-1.33-4.03 1.72c-16.15-13.45-29.6-29.05-43.65-44.56q-3.78-4.17-9.73-8.51c-8.55-6.24-16.14-3.18-23.03 3.38-9.39 8.94-17.36 20.23-27.04 29.71q-2.12 3.46-1.22 7.73-13.56 4.92-25.91 12.37c-.61.37-.16.74.2 1.15q-10.95 1.39-20.91 5.88c-4.01 1.81-6.97 5.61-11.41 6.21-4.27.57-8.22.13-12.56 1q-5.11 1.03-10.1.3-15.77-.98-31.23-3.29c-32-4.79-64.87-20.63-90.86-39.4-14.82-10.71-30.06-23.97-46.47-35.12-9.93-6.74-18.28-12.73-29.8-9.51-6 1.68-14.81 7.37-17.8 10.35-4.53 4.5-10.34 8.39-14.51 12.18-20.02 18.18-40.88 34.9-61.67 52.15-8.6 7.13-17.76 13.54-26.55 20.45q-4.11 3.22-16.96 11.32-.92.25-1.45-.17-.5-.39-.11-.9 3.18-4.19 8.03-6.28.51-.22.86-.65.93-1.16 2.4-1.5.45-.1.77-.45c3.8-4.3 8.71-6.78 12.6-10.35 4.75-4.37 9.88-8.16 14.25-11.99 1.9-1.66 4.83-3.38 6.81-5.72q1.4-1.66 3.06-2.63 4.1-2.39 7.27-5.88c4.82-5.3 8.53-8.71 12.85-13.12q.34-.35.82-.46.53-.13.99-.55 15.77-14.37 27.64-25.89c10.36-10.16 21.2-22.31 33.7-29.71 16.57-9.8 28.44-2.22 42.26 7Zm324.57 39.89c8.83 9.66 19.12 19.21 30.48 25.79 22.2 12.86 46.98 20.02 72.29 23.38 6.53.86 13.79.96 20.72 1.36 14.14.82 28.5-.02 41.68-1.97q39.77-5.9 78.45-21.24c21.43-8.5 42.32-20.17 61.86-32.37q.48-.29-.03-.07-3.88 1.66-7.7 3.12-4.74 1.79-8.09 3.27c-40.44 17.81-80.51 32.41-124.21 39.41-42.69 6.84-90.3-8.38-125.59-31.64-13.59-8.96-27.67-20.53-41.09-31.02-7.97-6.23-17.8-11.84-28.2-8.57a.61.6-35.5 0 0-.18 1.06c10.77 8.02 20.53 19.57 29.61 29.49Z"/><path fill="#582845" d="M557.85 294.41c-21.02 6.15-44.77 10.12-66.67 7.44q-33.3-4.08-63.25-17.54-19.97-8.97-28.5-12.24c-40.76-15.61-67.59 1.02-96.77 27.1-19.94 17.81-40 35.44-61.91 50.79-22.56 14.13-43.82 23.68-68.01 28.78a.57.57 0 0 1-.61-.84q16.86-28.76 36.87-55.19c.92-.64 3.66-3.88 4.23-3.91q.5-.03.69-.5.51-1.33 1.81-.84.5.19.94-.12l5.33-3.8q12.85-8.1 16.96-11.32c8.79-6.91 17.95-13.32 26.55-20.45 20.79-17.25 41.65-33.97 61.67-52.15 4.17-3.79 9.98-7.68 14.51-12.18 2.99-2.98 11.8-8.67 17.8-10.35 11.52-3.22 19.87 2.77 29.8 9.51 16.41 11.15 31.65 24.41 46.47 35.12 25.99 18.77 58.86 34.61 90.86 39.4q15.46 2.31 31.23 3.29ZM749.8 269.97c-11.36-6.58-21.65-16.13-30.48-25.79-9.08-9.92-18.84-21.47-29.61-29.49a.61.6-35.5 0 1 .18-1.06c10.4-3.27 20.23 2.34 28.2 8.57 13.42 10.49 27.5 22.06 41.09 31.02 35.29 23.26 82.9 38.48 125.59 31.64 43.7-7 83.77-21.6 124.21-39.41q3.35-1.48 8.09-3.27 3.82-1.46 7.7-3.12.51-.22.03.07c-19.54 12.2-40.43 23.87-61.86 32.37q-38.68 15.34-78.45 21.24c-13.18 1.95-27.54 2.79-41.68 1.97-6.93-.4-14.19-.5-20.72-1.36-25.31-3.36-50.09-10.52-72.29-23.38Z"/><path fill="#582845" d="M743.21 279.75q36.54 29.48 82.89 35.79c10.11 1.38 15.44 2.16 22.86 3.39a.68.67 47.6 0 1-.06 1.34c-25.78 1.87-56.07 3.55-79.86-5.03-25.88-9.34-50.05-26.35-74.18-41.55-17.6-11.09-33.52-18.59-55.1-13.92 9.68-9.48 17.65-20.77 27.04-29.71 6.89-6.56 14.48-9.62 23.03-3.38q5.95 4.34 9.73 8.51c14.05 15.51 27.5 31.11 43.65 44.56Z"/><path fill="#582845" d="M1112 246.79q17.81 18.03 29.43 28.27 23.96 21.1 53.73 37.09c20.63 11.09 43.99 19.07 66.59 25.06q30.24 8.79 58.23 13.66c3.78.66 12.99 17.73 15.17 21.9a.73.73 0 0 1-1.07.93q-2.33-1.67-5.83-2.24c-13.77-3.68-28.52-8.78-40.79-12.51-21.79-6.63-43.22-14.66-64.73-22.16-39.37-13.75-71.56-33.13-105.98-52.75-12.74-7.31-27.03-13.48-41.72-14.85-24.22-2.25-51.19 6.2-75.02 14.22q-41.9 14.08-74.01 22.58c-32.43 8.57-65.65 8.35-99.3 2.05q-25.12-4.7-48.95-16.58-.72-.36-.47-1.03.18-.48.68-.37 2.57.54 3.27.77 25.43 8.29 45.02 10.16c48.49 4.62 97.03-5.65 141.66-22.85 30.05-11.58 57.54-29.35 84.89-46.09q5.71-3.5 15.1-6.95c18.66-6.86 32.43 10.15 44.1 21.69Z"/><path fill="#f388bd" d="m1129.03 249.92 11.15 11.31q1.94 4.83 6.06 7.88c5.65 4.17 10.96 8.49 16.89 12.31 4.32 2.79 9.48 6.97 15.58 9.14q.45.16.57-.31l.22-.96q23.51 14.08 49.65 21.96c19.99 6.03 44.07 3.66 64.46.75q.47-.06.86-.35l.48-.34q2.11 3.45 3.05 7.4c-13.9 2.51-28 3.93-42.13 3.17q-6.64-.36-13.27-.63c-2.31-.1-4.57-1.02-7.02-1.25q-.5-.05-.05.18c9.48 4.88 18.06 6.83 27.47 9.78q-1.08.86-.55 2.24.18.47.66.58c4.29 1.05 8 2.3 12.63 2.59 3.36.2 5.48 2.03 8.72 2.54q3.24.51 6.32 1.6c7.2 2.54 14.77 4.1 22.15 6.08 1.11.3 1.72 1.14 2.9 1.52q.33.1.09.35l-.32.32q-.08.07-.19.05c-5.7-1.25-10.81-2.67-16.96-3.61-7.92-1.2-15.22-4.41-23.28-4.76q-.52-.02-.88-.39c-1.86-1.87-7.53-2.7-10.25-3.65q-.43-.15-.88-.05-1.69.37-1.41 1.84c-22.6-5.99-45.96-13.97-66.59-25.06q-29.77-15.99-53.73-37.09-11.62-10.24-29.43-28.27 1.51-1.97 3.19-1.23 8.17 3.6 13.84 4.36Z"/><path fill="#582845" d="M1258.96 267.25q18.5 21.61 35.99 44.06l-.48.34q-.39.29-.86.35c-20.39 2.91-44.47 5.28-64.46-.75q-26.14-7.88-49.65-21.96-21.14-11.9-39.32-28.06l-11.15-11.31q30.89 13.26 58.98 16.56 18.98 2.22 46.49 1.92 3.67-.04 5.63-.67c4.15-1.32 8.41-1.78 12.76-1.73 2.19.02 3.79 1.03 6.07 1.25Z"/><path fill="#f388bd" d="M743.21 279.75q1.42-3.05 4.03-1.72c7.05 3.59 15.49 6.49 24.16 11.07 1.95 1.03 4.25 1.66 6.35 2.36q23.83 11.88 48.95 16.58c33.65 6.3 66.87 6.52 99.3-2.05q32.11-8.5 74.01-22.58c23.83-8.02 50.8-16.47 75.02-14.22 14.69 1.37 28.98 7.54 41.72 14.85q-.67.24-1.07.78-.34.47.16.76l42.27 24.55q.37.22.4.65c.12 2.21-2.41 1.25-3.05 2.97-16.88-8.89-35.02-20.2-55.25-29.41-22.86-10.41-47.19-8.46-71.34-1.57q-48.51 13.82-96.94 27.88-14.74 4.28-33.7 6.96c-11.79 1.68-21.66 3.67-33.73 5.88-36.54 6.69-75.69 9.26-109.64-6.22-23.9-10.91-45-25.55-67.17-39.42-16.23-10.16-30.36-14.94-49.15-10.35q-.9-4.27 1.22-7.73c21.58-4.67 37.5 2.83 55.1 13.92 24.13 15.2 48.3 32.21 74.18 41.55 23.79 8.58 54.08 6.9 79.86 5.03a.68.67 47.6 0 0 .06-1.34c-7.42-1.23-12.75-2.01-22.86-3.39q-46.35-6.31-82.89-35.79Z"/><path fill="#f9cfe6" d="M1140.18 261.23q18.18 16.16 39.32 28.06l-.22.96q-.12.47-.57.31c-6.1-2.17-11.26-6.35-15.58-9.14-5.93-3.82-11.24-8.14-16.89-12.31q-4.12-3.05-6.06-7.88Z"/><path fill="#41213d" d="M1155.46 313.75q32.75 17.96 69.27 30.68c21.09 7.35 36.4 12.94 54.89 18.72 18.1 5.66 36.1 11.9 54.63 16.06q4.77 1.04 7.39 5.13 5.06 7.89 9.14 16.39.23.48-.26.69c-12.57 5.34-26.31 13.76-36.1 18.39q-23.01 10.88-48.19 17.9c-7.07 1.97-11.38.22-17.79-2.9q-39.38-19.16-70.36-42.14c-28.42-21.08-55.75-43.53-84.16-64.58-17.12-12.67-32.67-22.62-55.02-23.29-15.27-.45-30.31 1.63-45.4 1.41-20.36-1.82-41.21 3.97-59.55 8.83q-.95.26-.02.58c1.46.5 3.22-.15 4.32-.25 10.9-1.06 22.49-3.01 37.5-4.16l7.25-.25 18.5 1.17 5.31-.72a.5.5 0 0 1 .4.86c-12.86 11.59-17.27 25.52-24.16 43.05q-.21.53-.54.06-5.8-8.17-12.18-15.78c-11.35-13.55-26.96-21.2-44.83-19.09q-12.77 1.51-24.76 6.47c-18.92 7.83-37.6 17.08-57.74 21.23q-1.94-.67-4-.64-12.25.2-24.5.44-1.12.03-4 .7c-17.92.43-33.98-.88-53.05-2.94-26.69-2.88-50.72-12.32-72.78-27.18q-16.69-11.22-33.49-22.27-13.04-8.57-26.93-12.28l-11.42-3.02c-.36-.41-.81-.78-.2-1.15q12.35-7.45 25.91-12.37c18.79-4.59 32.92.19 49.15 10.35 22.17 13.87 43.27 28.51 67.17 39.42 33.95 15.48 73.1 12.91 109.64 6.22 12.07-2.21 21.94-4.2 33.73-5.88q18.96-2.68 33.7-6.96 48.43-14.06 96.94-27.88c24.15-6.89 48.48-8.84 71.34 1.57 20.23 9.21 38.37 20.52 55.25 29.41Z"/><path fill="#f388bd" d="M557.85 294.41q4.99.73 10.1-.3c4.34-.87 8.29-.43 12.56-1 4.44-.6 7.4-4.4 11.41-6.21q9.96-4.49 20.91-5.88l11.42 3.02-1.09.77q-.33.23-.49.6-.56 1.33.83 1.52 7.98 1.13 15.16 5.24a.7.7 0 0 1-.14 1.27c-2.49.77-19.36-8.06-19.77-1.73q-13.71-.68-25.24 2.3c-34.37 8.88-69.16 19.13-104.65 15.33q-33.16-3.54-63.59-17.45-12.31-5.63-24.76-10.89c-32.87-13.9-57.1-6.26-83.23 15.54-16.6 13.86-31.81 28.27-49.28 42.17q-1-2.25-3.31-2.74-.59-.12-1.05.26l-2.94 2.43q-.37.3-.3.77l.1.75q.08.56-.29 1-1.75 2.07-4.47 2.6-.51.1-.86.49-2.33 2.56-5.87 2.7-.5.02-.84.38l-3.36 3.53q-.37.38-.9.4-1.84.04-3.16-1.32c21.91-15.35 41.97-32.98 61.91-50.79 29.18-26.08 56.01-42.71 96.77-27.1q8.53 3.27 28.5 12.24 29.95 13.46 63.25 17.54c21.9 2.68 45.65-1.29 66.67-7.44Z"/><path fill="#41213d" d="M618.75 291.71c15.12 1.9 23.62 7.61 38.12 17.32q13.28 8.9 26.49 17.89c25.46 17.32 53.37 24.31 83.64 27.37 17.02 2.59 35.23 2.12 52.94.8q.48-.04.91-.24l1.4-.64c3.58-.26 4.9-1.45 8.07-2.54a.27.27 0 0 1 .22.5c-6.93 3.79-13.4 6.55-21.43 8.88-21.79 6.29-44.32 10.07-66.55 14.5-24.61 4.92-49.56 6.92-74.03 11.43-29.93 5.51-62.65-6.35-87.05-23.23-22.4-15.49-35.53-26.26-56.19-33.75q-13.64-6.01-28.54-7.04-11.56-.98-23 .75c-41.52 5.19-78.47 19.46-116.04 38.79q-11.19 5.31-22.14 11.08c-4.73 2.49-8.96 5.69-13.7 8.13q-6.79 3.48-11.93 7.73c-25.4 20.99-53.5 37.35-81.84 53.91q-34.6 20.22-74.16 26.84-9.02 1.51-29.15 2.06l8.75-21.75.73.22q.5.15.72-.33c10.33-22.61 20.59-44.63 33.51-65.93l.41.77q.22.42.7.44 4.49.19 8.64-1.63c33.38-7.04 62.98-22.95 89.75-45.33 17.47-13.9 32.68-28.31 49.28-42.17 26.13-21.8 50.36-29.44 83.23-15.54q12.45 5.26 24.76 10.89 30.43 13.91 63.59 17.45c35.49 3.8 70.28-6.45 104.65-15.33q11.53-2.98 25.24-2.3Z"/><path fill="#f9cfe6" d="M624.25 284.04q13.89 3.71 26.93 12.28 16.8 11.05 33.49 22.27c22.06 14.86 46.09 24.3 72.78 27.18 19.07 2.06 35.13 3.37 53.05 2.94l4.25.58-.79.27q-.37.12-.4.5l-.23 3.04q-.04.47.43.39.82-.13 1.24.47c-5.05.48-9.69-1.47-13.47-1.89-5.17-.58-10.1-.31-15.44-.64q-2.92-.18-5.5.46-7.51 1.86-13.59 2.4c-30.27-3.06-58.18-10.05-83.64-27.37q-13.21-8.99-26.49-17.89c-14.5-9.71-23-15.42-38.12-17.32.41-6.33 17.28 2.5 19.77 1.73a.7.7 0 0 0 .14-1.27q-7.18-4.11-15.16-5.24-1.39-.19-.83-1.52.16-.37.49-.6l1.09-.77Zm86.4 54.72q4.04.69 7.43 2.97.47.31 1.03.32 1.98.04 3.6 1.07c1.77 1.13 3.79.67 5.69 1.3q5.95 1.98 12.15 2.99.57.09.98.5l.72.71q.38.38.91.38h5.41q.83 0 .62-.8l-.25-.96q-.13-.51-.65-.5-3.6.03-6.84-1.43c-2.09-.94-3.08-.59-5.21-.67-2.92-.1-5.73-1.38-8.75-1.71-4.04-.45-6.14-1.74-9.54-3.37-2.25-1.08-5.02-.97-7.27-3.21q-.51-.51-.64.2l-.19 1.07a.98.98 0 0 0 .8 1.14ZM1116.75 284.04c34.42 19.62 66.61 39 105.98 52.75 21.51 7.5 42.94 15.53 64.73 22.16 12.27 3.73 27.02 8.83 40.79 12.51q-1.33.59-1.75 2-.12.43.25.68l7.5 5.07c-18.53-4.16-36.53-10.4-54.63-16.06-18.49-5.78-33.8-11.37-54.89-18.72q-36.52-12.72-69.27-30.68c.64-1.72 3.17-.76 3.05-2.97q-.03-.43-.4-.65l-42.27-24.55q-.5-.29-.16-.76.4-.54 1.07-.78Zm90.197 50.46a1.15.62 4.5 0 0-1.098-.708 1.15.62 4.5 0 0-1.196.528 1.15.62 4.5 0 0 1.098.708 1.15.62 4.5 0 0 1.196-.528Zm14.333 6.74c5.45 1.84 11.63 3.22 16.31 4.88q5.42 1.93 10.75 4.11c1.86.76 3.67.82 5.62 1.64 3.9 1.63 7.6 2.74 11.31 4.29 4.89 2.04 9.85 2.85 14.84 4.5 3.62 1.19 8.09 1.77 12 3.54.99.45 1.94.39 2.86-.02q.44-.19-.01-.35-15.02-5.19-23.45-7.36-1.87-.48-3.06-1.09c-5.47-2.77-11.87-4.49-17.85-5.8q-.99-.21-2.17-.92c-1.67-.98-4.41-1.58-5.59-2.07-1.53-.63-22.89-8.84-21.74-5.53a.31.31 0 0 0 .18.18Z"/><path fill="#f388bd" d="m993.5 306.21-19.18.5q-.64.01-.68.65l-.19 3.01q-.04.54.5.61l1.8.23c-15.01 1.15-26.6 3.1-37.5 4.16-1.1.1-2.86.75-4.32.25q-.93-.32.02-.58c18.34-4.86 39.19-10.65 59.55-8.83Z"/><path fill="#f673a8" d="m1001.5 312.13-18.5-1.17q9.34-.78 18.5 1.17Z"/><path fill="#301c36" d="M1115.71 398.04q-29.85-28.11-55.58-60c-7.39-9.17-14.47-16.68-22.27-24.61q-.43-.44.18-.51c21.99-2.54 42.88 14.27 58.55 27.5 37.74 31.86 75.84 65.45 118.43 88.52q44.17 23.93 93.23 34.79c7.84 1.74 15.76 2.59 23.59 4.31 5.28 1.17 11.15.38 16.61 1.36a.38.38 0 0 1-.06.75c-6.5.19-13.23 2.06-18.89 2.47q-5.5.4-11 .68c-2.74.13-5.56.98-8.02 1.13q-24.42 1.42-43.49.8c-60.53-1.98-108.79-37.17-151.28-77.19Z"/><path fill="#41213d" d="M1298 318.71c4.93.76 17.56 22.63 20.87 27.53q.3.43-.16.68-.16.09-.33.09-.33 0-.5-.28-2.06-3.31-6.12-4.28-24.48-5.85-48.76-12.49c-9.41-2.95-17.99-4.9-27.47-9.78q-.45-.23.05-.18c2.45.23 4.71 1.15 7.02 1.25q6.63.27 13.27.63c14.13.76 28.23-.66 42.13-3.17Z"/><path fill="#301c36" d="M989.4 364.15c-1.49-5.17 12.91-27.83 16.41-32.84 14.76-21.13 33.8 2.26 42.92 13.97 30.76 39.48 59.98 77.27 95.96 110.28q7.14 6.54 23.65 18.82 36.03 26.78 79.5 38.2 1.17.3 1.64.72a.41.41 0 0 1-.29.71c-13.06-.29-26.24-1.58-38.98-1.84-11.6-.24-21.13-.53-34.36-2.76q-13.03-2.2-18.22-3.28c-20.23-4.23-38.54-12.67-56.45-22.04-8.61-4.5-18.12-10.08-24.33-17.68-21.06-25.74-40.28-53.16-59.72-82.02-6.27-9.32-14.54-19.81-26.93-19.65q-.62.01-.8-.59Z"/><path fill="#f673a8" d="M496.75 322.96q-2.97-.15-11 .79-3.14.37-12-.04 11.44-1.73 23-.75Z"/><path fill="#f9cfe6" d="M496.75 322.96q14.9 1.03 28.54 7.04-.26.72-1.03.63-.56-.06-.48.5.39 2.6-.25 5.09-11.4-4.57-23.53-5.76-13.24-3.38-26.51.26c-8.72.27-15.9 2.29-23.47 4.06q-18.62 4.34-36.61 10.71c-13.52 4.79-27.95 12.06-41.91 17.97q-1.24-1.34-1.68-2.96-.12-.44-.52-.23-4.89 2.48-9.77 4.99-.79.4-1.16-.27-.23-.4-.15-.85.15-.86-.51-1.64c37.57-19.33 74.52-33.6 116.04-38.79q8.86.41 12 .04 8.03-.94 11-.79Z"/><path fill="#41213d" d="M886.96 350.04c-5.9-1.48-12.28-1.33-17.92-1.57q-1.02-.04-.06-.38c5.32-1.87 10.61-3.45 15.8-5.86 13.51-6.28 31.62-13.46 45.91-13.4 22.53.11 39.83 18.41 50.92 36.63a.88.88 0 0 1-.31 1.22c-8.34 4.83-12.04 10.81-16.6 19.07a.98.98 0 0 1-1.34.37c-24.72-14.2-49.05-29.2-76.4-36.08Z"/><path fill="#f673a8" d="m500 330.46-26.51.26q13.27-3.64 26.51-.26Z"/><path fill="#41213d" d="M500 330.46q12.13 1.19 23.53 5.76c19.93 8.5 36.94 21.81 54.46 33.77q28.92 19.73 63.58 24.72c2.81.41 5.34.14 8.25-.01q1.19-.07.13.47c-20.67 10.37-33.03 22.63-54.74 41.29q-.79.68-2.53 1.71-.44.26-.92.11-22.17-6.57-44.52-12.5-17.3-4.59-62.18-20.58c-4.32-1.53-12.54-5.27-16.66-9.45-11.88-12.05-25.3-29.74-42.75-32.19-5.9-.83-13.03 1.78-18.7 3.59-1.7.54-3.98.5-5.7.1q-14.15-3.31-28.74-2.36-.81.05-2.1-.49-.52-.21-.01-.44l1.1-.5c13.96-5.91 28.39-13.18 41.91-17.97q17.99-6.37 36.61-10.71c7.57-1.77 14.75-3.79 23.47-4.06l26.51-.26Z"/><ellipse fill="#f388bd" rx="1.15" ry=".62" transform="rotate(4.5 -3652.751 15512.035)"/><path fill="#f673a8" d="M1221.28 341.24a.31.31 0 0 1-.18-.18c-1.15-3.31 20.21 4.9 21.74 5.53 1.18.49 3.92 1.09 5.59 2.07q1.18.71 2.17.92c5.98 1.31 12.38 3.03 17.85 5.8q1.19.61 3.06 1.09 8.43 2.17 23.45 7.36.45.16.01.35c-.92.41-1.87.47-2.86.02-3.91-1.77-8.38-2.35-12-3.54-4.99-1.65-9.95-2.46-14.84-4.5-3.71-1.55-7.41-2.66-11.31-4.29-1.95-.82-3.76-.88-5.62-1.64q-5.33-2.18-10.75-4.11c-4.68-1.66-10.86-3.04-16.31-4.88Z"/><path d="M860.37 354.795c-8.39.206-16.21 1.885-24.94 5.385-14.714 5.906-31.026 10.576-48.94 14.01-27.57 5.28-55.35 11.38-83.24 14.58-26.62 3.05-48.63 9.76-70.03 26.48a1793.565 1793.565 0 0 0-42.47 34.21c-11.12 8.314-22.75 15.538-34.89 21.67a.79.79 0 0 0-.09 1.35c35.31 24.64 72.16 43.21 114.85 50.74 13.87 2.45 27.53 2.74 41.49 1.95 1.86-.107 3.94-.393 6.24-.86 5.18-1.05 10.98-1.83 15.51-2.88 17.07-3.95 31.4-8.98 50.83-15.98 11.91-4.3 23.24-11.99 33.86-17.9 22.26-12.4 50.17-10.61 73.06-1.08a1.14 1.14 0 0 0 1.26-.26 314.87 314.87 0 0 0 19.92-22.71c18.89-23.58 31.05-42.96 48.42-71.37.16-.26.102-.464-.17-.61-30.28-16.34-54.06-31.02-84.63-35.58-5.767-.863-11.007-1.269-16.04-1.145zm-78.634 102.348c-2.758.227-5.535.405-8.345.418 2.81-.013 5.587-.19 8.345-.418zm-95.345.408c.998.175 1.958.4 2.968.41-1.01-.01-1.97-.235-2.968-.41z" style="fill-opacity:1;fill:url(#f)"/><path fill="#f388bd" d="M187.31 377.3c5.9-.74 12.3-4.24 18.15-5.99q.66-.2.33.4c-1.63 2.96-17.93 6.8-21.6 7.58q-.45.09-.76.42-1.34 1.4-3.25.91-.83-.22-.02-.51c2.57-.94 4.41-2.46 7.15-2.81Z"/><path fill="#1f182e" d="m147.46 616-13 5.75c-18.03 7.21-31.23 10.04-47.56 14.06a.77.77 0 0 1-.93-.93q1.4-5.83 1.24-11.87-.39-2.15.08-4.26.15.03.3.02.3-.02.39-.31 1.62-4.76 1.31-9.72-.48-3.65.63-6.81 2.97-4.03 1.49-8.72-.4-4.41 1.49-7.04 28.44-6.8 53.91-20.69 7.84-4.28 17.02-10.5 36.76-24.92 67.38-57.27 30.86-32.61 51.46-60.79 12.4-16.96 22.01-28.91 7.61-9.47 13.73-14.47c19.75-16.17 47.44-23.76 72.75-19.98 1.73.25 2.85-.43 4.3-.59q1.84-.19.28.81-9.06 5.8-14.59 14.44c-10.46 16.32-19.28 33.73-28.81 50.62-25.18 44.63-57.64 84.44-97.55 116.71-10.12 8.18-20.31 15.32-32.56 21.61-28.39 14.58-50.82 27.59-74.77 38.84ZM404.29 382.56a.93.92 15.7 0 1-.7-1.24c.93-2.4 7.9-4.37 10.28-5.19 9.73-3.35 19.79-1.1 27.61 5.44 22.03 18.43 40.76 40.26 62.53 58.9q6.87 5.89 13.77 11.73c45.52 38.51 104.07 75.04 166.64 78.85 6.11.37 14.59-.15 21.94-.07 19.07.18 39.07-5.23 58.43-11.99q12.97-4.53 21-10.04.4-.27.03.04c-17.72 14.84-37.9 23.51-58.5 31.83-13.61 5.5-25.18 8.18-41.38 10.79q-17.08 2.74-33.93 6.69c-4.39 1.03-10.57.87-15.69.35-39.75-4.06-76.38-18.19-110.01-39.48q-21.24-13.44-42.89-26.2-.43-.25-.93-.22c-7.35.48-47.61-80.86-51.8-88.69-6.11-11.44-13.36-19.25-26.4-21.5Z"/><path fill="#f673a8" d="M178.25 384.04q-4.15 1.82-8.64 1.63-.48-.02-.7-.44l-.41-.77q4.84-.86 9.75-.42Z"/><path d="M988.111 386.088c-7.743.38-14.155 6.157-18.591 12.492-20.7 29.48-40.96 60.13-65.23 86.47-14.334 15.56-30.746 29.693-49.24 42.4-11.36 7.82-24.64 14.03-37.3 20.34.747 2.16 2.08 3.91 4 5.25 13.54-11.56 26.56-20.14 44.5-9.83 4.067 2.414 7.213 4.447 9.44 6.1 23.17 17.19 46.21 34.01 71.58 47.88 3.19 1.75 7.71 3.2 11.33 3.47 43.42 3.16 84.4-4.89 120.83-29.17 8.04-5.37 18.42-13.81 25.03-19.53 5.988-5.186 12.59-8.444 19.81-9.77 18.48-3.38 31.99 21.39 42.9 32.38 4.75 4.78 8.73 9.88 13.37 14.64 27.406 28.108 59.322 49.427 95.75 63.96 10.45 4.17 15.37 6.49 27.58 4.66 20.28-3.05 35.15-5.13 50.67-8.59 7.08-1.58 19.16-3.4 28.31-6.83a.62.61 34.2 0 0-.23-1.19c-19.84.3-38.84-.5-58.6-3.48-18.18-2.746-34.44-6.24-48.78-10.48-33.88-10.014-65.08-26.653-93.6-49.92a3277.91 3277.91 0 0 0-14.92-12.1c-6.99-5.63-19.62-16.37-29.88-24.03-2.99-2.24-5.57-5.22-8.55-7.71-11.7-11.43-24.07-22.97-34.91-34.52-27.12-28.92-53.76-64.81-75.05-91.3-5.59-6.96-17.71-20-26.82-21.41a16.739 16.739 0 0 0-3.399-.182zm97.631 130.621c1.328.172 2.697.575 3.95 1.062-1.253-.487-2.622-.89-3.95-1.062zm-3.701.324a4.296 4.296 0 0 1 0 0zm-192.57 1.576a.95.95 0 0 0-.75.5c-.51.925-.866 2.287-1.399 3.442.533-1.155.889-2.517 1.399-3.442a.95.95 0 0 1 .75-.5zm185.9.57c.151-.004.322.022.51.08-.377-.116-.68-.107-.908.03-.229.137-.383.401-.463.791.08-.39.234-.654.463-.79a.815.815 0 0 1 .398-.11zm-177.168.014zm204.576 3.987zm-193.789.66zm-27.7.435c-1.028.192-2.155.623-3.25 1.17 1.095-.547 2.222-.978 3.25-1.17zm155.33 5.534c-1.334.016-2.65.156-3.835.464 1.185-.308 2.501-.448 3.834-.464zm-166.753 2.81a5.597 5.597 0 0 0-1.025.186 5.595 5.595 0 0 1 0 0 5.326 5.326 0 0 1 1.025-.186zm245.344.318c.37.325.654.68.789 1.073-.135-.393-.419-.748-.79-1.072zm-131.129.178c1.063.051 2.1.183 3.088.446-.988-.263-2.025-.395-3.088-.446zm-9.723.365c-1.54-.025-3.022.295-4.566.413 1.544-.118 3.026-.438 4.566-.413z" style="fill-opacity:1;fill:url(#g)"/><path fill="#101526" d="M102.71 710.25q-9.97.28-19.5 3.73l-.17-11.23c1.93 1.63 2.59.21 4.13-.67 28.94-16.54 56.47-38.93 81.33-61.04 15.75-13.81 31.59-27.51 47.14-41.54q17.92-16.19 40.41-34.7c42.19-34.75 78.47-78.39 105.69-125.3q12.33-21.25 25.66-41.87.88-1.36 1.68-2.1a.49.49 0 0 1 .78.55q-7.52 18.13-14.02 35.99c-15.88 43.67-36.5 84.92-61.91 124.61-15.09 23.59-32 45.8-51.52 65.12-44.21 43.74-98.45 75.69-159.7 88.45Z"/><path fill="#1f182e" d="M1365.25 475.46q5.29.56 10.25-1.42l7.32-.85q.58-.06.63.52.07 1 .98 1.56.5.3.69.86l11.56 33.35q.2.58-.41.66c-11.54 1.5-23.02 1.33-34.5 2.98-6.41.93-13.12 1.22-19.35 2.02q-20.4 2.61-38.17.87c-51.78-5.04-99.7-22.76-139.92-55.33q-32.8-26.57-62.18-62.56-.53-.64.26-.35 3.32 1.26 6.9 4.68 8.47 8.09 25.84 22.37c38.76 31.86 77.76 54.26 128.58 57.58 12.79.84 28.1.28 42.02-.13 7.38-.21 14.85-1.42 22.25-1.99 6.71-.52 12.99-1.63 19.54-2.35 5.41-.59 11.71-2.09 17.71-2.47Z"/><path fill="#1f182e" d="M1378.75 462.96q-3.33-1.12-6.75 0-4.49-.46-8.08 1.93-.41.28-.85.04-1.47-.78-2.38-.86c-28.08-2.43-54.62-7.07-81.19-16.23-4.32-1.48-8.03-2.48-12.34-3.27q-1.29-.23 0-.47c30.72-5.69 58.98-21.81 84.91-36.41a1.92 1.92 0 0 1 2.55.63q3.99 6.13 6.83 12.05 10 20.88 18.4 42.45.18.47-.32.45-.45-.02-.78-.31Z"/><path fill="#301c36" d="M522.3 446.42c-13.13-10.79-25.43-22.7-37.85-34.3q-1.36-1.27.32-.46 12.17 5.86 25 10.02 34.92 11.31 70.24 21.3 1.25.35 6.01 1.11.75.12.13.56-10.2 7.26-29.94 19.27c-3.65 2.22-6.23 3.4-10.19.87-9.12-5.82-16.04-12.06-23.72-18.37Z"/><path fill="#1f182e" d="M93.71 581.25c.11-2.47.15-4.85.69-7.29q4.56-20.52 10.78-43.78 1.64-6.14 3.6-10.21 14.52-3.89 21.2-6.68 37.62-15.73 70.42-39.92c15.34-11.31 30.68-24.33 47.45-33.14 13.42-7.04 29.08-15.15 40.14-25.6a.43.43 0 0 1 .68.5c-1.28 2.57-3.59 5.3-4.87 7.11-24.8 35.05-52.88 69.47-85.57 98.01-29.67 25.9-63.03 48.59-101.74 58.18q-.49.12-.82.51l-1.96 2.31Z"/><path d="M409.598 421.416c-4.938-.258-9.95 1.976-14.479 7.834-3.767 4.873-6.716 9.386-8.85 13.54-20.53 40.03-35.66 70.55-55.48 103.21.437.343.683.706.734 1.086.052.38-.09.777-.423 1.193.333-.416.475-.813.423-1.193-.051-.38-.297-.743-.734-1.086-23.58 38.3-52.058 74.33-85.988 103.3-22.114 18.874-47.11 35.006-74.99 48.4-9.04 4.34-19.311 7.89-29.051 11.54-12.914 4.847-28.187 8.207-45.82 10.08 4.346 1.827 8.95 2.482 13.81 1.97 37.96-1.44 75.13-7.15 111.48-19.34 23.7-7.94 45.84-16.843 66.42-26.71 8.4-4.03 16.91-7.23 26.1-10.39 27.63-9.5 54.18-21.23 78.85-36.97a598.343 598.343 0 0 0 43.85-30.84c3.41-2.64 6.21-6.05 9.1-9.26 6.34-7.07 14.94-15.42 23.61-17.98 11.78-3.47 22.66.8 30.74 9.56 10.66 11.54 20.33 21.62 32 34.6 28.67 31.85 63.71 56.72 102.13 75.91 85.84 42.87 186.79 49.91 278.02 19.78 24.42-8.06 43.65-16.73 64.91-26.09a.72.72 0 0 0-.46-1.36c-17.35 4.39-33.99 9.47-51.47 12.71-38.48 7.13-77.56 11.84-116.77 9.33-87.594-5.606-165.243-35.687-232.95-90.24-4.98-4.01-10.71-8.26-14.54-11.78a499.066 499.066 0 0 1-55.52-60.26c-.19 1-.155 1.924.105 2.772.26.849.746 1.622 1.456 2.319-.71-.697-1.196-1.47-1.456-2.319-.26-.848-.295-1.771-.105-2.771-24.55-31.8-44.98-63.742-66.91-96.172-3.15-4.66-6.76-9.01-10.26-13.42-4.91-6.17-11.134-10.621-17.482-10.953zm11.511 120.215c-.7-.085-1.274.127-1.847.367.573-.24 1.147-.452 1.847-.367zm68.942.34a38.76 38.76 0 0 1 12.58 2.379 38.76 38.76 0 0 0-12.58-2.379zm0 0c-.895-.02-1.719.226-2.563.49.844-.264 1.668-.51 2.563-.49zm-47.381.154c1.06-.018 2.13.015 3.213.16-1.083-.145-2.153-.178-3.213-.16zm-79.84.625c1.013.015 1.969.231 2.893.502-.924-.27-1.88-.487-2.893-.502zm0 0a96.75 96.75 0 0 0-14.36.83 96.752 96.752 0 0 1 14.36-.83zm11.96.18zm110.01.12zm-22.73.425c.507.034 1.076.107 1.71.22 1.266.227 2.787.611 4.56 1.155-1.773-.544-3.294-.928-4.56-1.155-1.267-.226-2.28-.295-3.04-.205.38-.045.824-.05 1.33-.015zm19.96.252a1.172 1.172 0 0 0 0 0zm-141.278 2.923a.992.992 0 0 0 0 0z" style="fill-opacity:1;fill:url(#h)"/><path fill="#1f182e" d="M110.29 515.5c1.32-7.77 4.04-15.12 6.75-22.5q.42.25.81.24.54-.01.72-.53 1.59-4.51 3.9-12.46c.59-2.03 2.02-2.67 4.14-2.69q12.65-.12 25.2-1.38c15.64-1.57 31.53-6.18 46.36-11.12a.56.56 0 0 1 .51.99c-26.99 19.79-52.8 34.69-85.52 46.54q-1.26.46-2.87 2.91ZM713.47 552.64a.21.21 0 0 1-.05-.4q25.41-8.58 49.59-20.46c16.36-8.04 32.01-20.21 47.05-30.96 13.52-9.65 30.77-16.35 47.44-15.03q10.67.85 26.08 4.74.52.13 1.03-.02 1.52-.44 3.11-.24.76.1.18.61-1.16 1.03-2.2 2.06c-27.93 27.73-63.95 50.66-102.28 59.96-18.13 4.4-40.51 3.23-58.92.87q-5.45-.7-11.03-1.13Z"/><path fill="#101526" d="M1352.3 525.35c-11.43 1.54-23.54 7.03-32.25 10.94q-31.27 14.05-47.38 20.36c-9.68 3.79-27.81 11.62-37.97 10.25q-15.95-2.16-31.19-7.37-31.26-10.48-59.12-27.83c-14.87-9.27-28.23-21.22-40.08-34.02q-3.21-3.47-5.37-7.76a.3.3 0 0 1 .43-.38c31.11 20.04 66.46 28.44 103.2 29.37 31.16.8 62.82 1.19 93.87 3.9q20.42 1.78 40.91.82c6.82-.32 14.95-1.91 22.52-2.42 2.97-.19 6.12-1.55 9.44-1.47a.3.3 0 0 1 .08.58l-17.09 5.03ZM620 562.79l5.68 1.29q.46.1.77.46c1.02 1.19-.37 1.65-1.2 1.92l-9 1.08c-14.55.58-28.98 2.44-43.5 3.5l-34.74-4.44q-.5-.06-.88-.4-9.06-8.31-16.66-17.92-14.1-17.83-33.29-44.46-3.66-5.08-5.41-9.78-.21-.58.16-.08 4.31 5.61 12.01 11.1c38.76 27.61 79.51 51.01 126.06 57.73Z"/><path fill="#101526" d="m1415.29 587-.56.39q-.4.28-.88.14-22.84-6.63-40.1-9c-25.04-3.43-50.18 1.09-74.35 7.37q-21.68 5.64-43.69 9.88-11.51 2.22-23.15 1.32a.58.58 0 0 0-.37 1.06q5.96 3.95 12.66 4.88c7.76 1.08 19.29-2.06 27.85-3.78 13.34-2.66 26.76-6.5 40.11-9.71 21.34-5.14 44.11-7.13 65.7-3.33q11.44 2.02 31.24 6.03c2.54.52 5.75.42 6.27 3.73q1.06 6.8 1.92 13.57.43 3.37 1.77 6.45.43 7.1 1.95 14.06.11.49-.18.89-1.2 1.67-2.99 1.79c-10.4.71-19.63 1.95-30.99 1.75q-9.17-.16-36.04-1.72c-5.35-.31-11.4-1.29-17.71-2.03q-35.16-4.12-71.05-16.55c-3.9-1.35-8.3-3.14-12.09-5.04q-18.71-9.37-37.31-18.94-5.54-2.85-9.59-6.83-1.72-1.7-3.76-2.68c-11.51-5.54-21.5-15.81-31.3-23.9-4.43-3.65-8.59-7.85-12.89-11.36q-5.78-4.72-11.27-9.76c-1.43-1.31-3.64-2.19-5.2-3.71q-.98-.95.27-.41 1.87.79 4.74 2.65 7.04 4.56 13.95 9.33 3.68 4.57 9.25 6.42 17.91 9.93 37 17.33l21.96 7.62q.39.14.01.29-9.18 3.71-17.04 5.69-1.88.47-3.26 1.28-.44.26-.37.75.48 3.61 3.98 3.35c4.32-.33 10.49-2.96 15.38-4.82 31.77-12.05 62.59-23.07 94.38-37.95q18.19-7.96 36.48-15.71c6.49-2.75 17.35-5.59 25.22-6.2 5.5-.44 11.89.36 17.15-.81q.48-.1.71.33 2.02 3.81 2.38 5.15 8.14 30.09 13.81 60.74ZM817.75 547.79q1.12 3.24 4 5.25c-1.73 1.61-3.95 2.97-5.55 4.4q-20.33 18.31-43.27 33.24c-8.78 5.71-23.07 5.72-33.18 5.36l-8.75-.5c-22.6-2.46-48.86-5.76-66.75-8.82q-28.45-4.86-38.68-6.1-22.85-2.77-34.07-4.91-1.28-.26-2.22-1.03-.71-.59.21-.6l7.26-.12c13.39.73 25.13-.09 38.2-3.75q19.76-5.54 34.27-8.99c16.48-3.92 31.23-3.65 47.96-1.38 6.14.84 14.22 1.31 24.04 2.26 25.88 2.49 52.95-3.32 76.53-14.31Z"/><path fill="#101526" d="M830.25 644.21q-22.34-1.99-36.32-1.09c-37.06 2.36-74.03 14.11-110.32 24.66q-5.99-.91-13.93-4.71-19.73-9.43-40-20.26a.69.69 0 0 1 .34-1.3c1.8.03 3.48 1.06 5.33 1.01 3.38-.1 6.98-.93 9.96-1.16q24.13-1.84 42.44-5.86c42.33-9.27 81.67-29.73 115.76-56.76q15.66-12.42 26.91-20.83c17.46-13.04 30.28-7.54 45.84 4.1q22.87 17.11 46.93 32.5 34.31 21.95 74.52 33.99 21.18 6.33 37.31 10.19.57.14.15.55c-6.59 6.46-15.22 12.63-22.27 17.92-16.73 12.56-24.79 17.34-46.02 13.13-17.07-3.38-33.97-8.5-50.66-11.76-28.56-5.59-56.99-11.36-85.97-14.32Z"/><path fill="#101526" d="M963.93 607.34a.33.33 0 0 1-.11-.54c.63-.61 1.59-.22 2.3-.11 13.46 2.15 21.53 1.36 37.89-.12 28.07-2.54 54.39-12.74 78.06-27.75 4.53-2.87 9.82-8.16 14.69-9.8q.35-.11.13.18c-18.23 23.91-33.9 43.14-53.87 61.62a3.11 3.11 0 0 1-2.75.76q-39.32-8.47-76.34-24.24ZM615.18 632.32c-25.77-15.31-51.69-36.56-72.93-59.33a.56.55-10.2 0 1 .62-.89q6.3 2.6 12.61 3.79c43.46 8.23 87.3 14.37 131.04 21.01q19.14 2.9 38.42 4.66c10.18.93 21.72 1.89 31-1.17q.6-.2.08.15-8.21 5.55-14.43 8.33c-16.58 7.42-35.86 14.46-54.25 18.5q-29.73 6.54-60.18 8.29c-5.05.3-7.86-.89-11.98-3.34Z"/><path fill="#11141f" d="M635.52 726.1c-21.61-16.91-41.38-36.51-60.33-56.3q-1.24-1.29-1.52-3.06a.49.49 0 0 1 .81-.45q3.88 3.37 8.1 6.33 75.85 53.33 167.55 65.14c12.64 1.62 27.28 2.4 40.94 3.39 4.99.36 12.16.21 18.23-.2 12.21-.83 25.16-1.53 36.56-3.04 58.71-7.77 116.86-29.81 164.2-64.62q30.12-22.15 53.59-44.65c18.65-17.9 33.5-33.19 48.6-44.69 9.78-7.46 22.53-6.99 32.87-.79 11.83 7.08 22.06 15.83 34.46 25.5 23.48 18.32 47.82 34.68 73.88 46.97 53.77 25.37 111.1 36.45 170.64 33.02q.65-.04.65.61V717q0 .6-.6.66c-4.97.55-9.97.92-14.83 1.76q-33.4 5.76-78.56 10.64-18.51 2.01-30.22 2.37c-5.21.16-10.15 1.16-15.29 1.34q-40 1.45-73.76-3.73c-24.08-3.7-42.13-19.51-65.67-34.37q-9.43-5.95-14.81-7.6-17.74-5.44-34.62 5.87c-1.31.88-4.06 1.9-6.01 2.51q-27.08 8.46-39.82 13.12-59.91 21.94-119.81 43.92c-41.59 15.25-90.77 28.33-134.93 32.85q-31.35 3.2-41.32 3.51-5.47.16-13.81-3.19-56.99-22.86-105.17-60.56Z"/><path fill="#101526" d="M168.96 630.5q-4.07 3.34-18.56 15.64-29.17 24.75-62.68 46.37c-1.52.98-2.88 2.39-4.43 3.49q-.58-4.1-.54-6 .47-23.57 3.09-46.96.06-.5.55-.6 22.89-4.63 28.63-6.39c34.56-10.59 69.17-30.33 98.92-47.79q3.02-1.77 5.7-4.08 2.44-2.09 4.85-4.39 1.72-1.63.08.07-19.69 20.43-28.35 27.36-14 11.2-27.26 23.28Z"/><path fill="#11141f" d="M269 823.67c-24.09-.94-49.02-5.96-72.12-12.7q-7.08-2.06-13.21-5.78a.61.61 0 0 1 .21-1.12q11.23-2.04 22.47-3.82c52.36-8.3 99.62-27.67 139.96-63.44q13.57-12.03 19.37-18.37c28.99-31.69 55.25-68.69 80.85-100.4 10.02-12.4 24.07-24.79 40.67-15.72 5.45 2.98 13.22 8.89 18.56 13.93 16.57 15.63 32.28 33.12 48.98 49.41 25.22 24.6 42.77 41.95 65.09 60.18 63.06 51.51 138.26 84.83 219.36 93.49 9.16.98 17.49 2.38 25.87 2.56q6.52.14 13.04.33.37.01.58-.28.12-.16.32-.19 2.04-.35.07.33-.44.15-.75.5-.31.36-.78.44c-11.05 2.05-23.29 4.8-33.21 6.17-36.84 5.08-73.15.15-109.47-6.29-35.79-6.35-63.53-9.77-98.63-8.57q-.53.01-.98-.25-5.61-3.35-10.76-7.29c-30.29-23.18-61.76-46.51-96.98-62.03q-17.29-7.61-35.47-6.02c-9.44.83-19.31 6.36-26.62 11.91-12.69 9.64-25.92 20.14-38.27 28.68q-33.39 23.08-70.21 38.09c-9.28 3.79-19.82 7.33-31.16 7.93q-5.05.27-13.57-.05-21.6-.79-43.21-1.63Z"/><path fill="#061017" d="M131.44 779.81c-12.49-.59-24.12 1.93-36.54 3.47-2.15.27-4.37 1.12-6.62 1.49q-.63.1-.85-.5l-1-2.72q-.27-.73.5-.75c8.84-.26 18.45-1.45 27.18-3.27 51.08-10.6 98.92-41.09 140.34-70.33q22.33-15.76 45.81-27.3c10.95-5.37 23.91-9.83 35.97-14.45 32.36-12.42 61.79-29.18 90.97-47.74a.54.54 0 0 1 .74.77q-12.81 18.57-25.65 37.42c-19.47 28.56-41.86 54.06-67.93 77.18-8.93 7.92-21.13 12.21-32.93 16.57q-59.42 21.95-120.93 28.91c-16.68 1.89-32.15 2.05-49.06 1.25Z"/><path fill="#11141f" d="M1304.24 662.93q-2.88-1.15.13-.44c3.96.94 7.62 1.24 11.86.62 12.35-1.8 25.07-3.51 36.96-5.87q34.56-6.86 68.52-16.24.44-.12.46.33.29 4.58 1.61 13.41 1.33 8.78.76 21.57-.02.47-.49.49c-31.43.89-55.11.77-83.83-3.86q-18.43-2.97-35.98-10.01ZM689.75 670.46l.5-.75c5.43 1.69 11.02-.07 16.29-1.46l40.96-10.71q23.16-5.58 38.18-7.14c31.03-3.23 66.71 1.98 104.61 9.62q35.99 7.25 45.79 9.62 17.51 4.23 28.7 5.87.52.08.03.27-3.3 1.28-7.81 2.46-47.69 12.41-88.01 16.26-24.08 2.3-55.74 1.33c-41.39-1.26-85.14-9.49-123.5-25.37Z"/><path fill="#fff" d="M706.54 668.25c-5.27 1.39-10.86 3.15-16.29 1.46q-1.61-.28-2.27-1.6-.35-.7.43-.83c2.3-.4 5.18.65 7.43-.02 3.31-.99 6.58-1.4 10.01-1.68q.5-.05.78.37.74 1.09-.09 2.3Z"/><path fill="#11141f" d="M83.04 732.25c8.07-.31 16.13-.91 24.19-1.2q3.04-.11 6.02-.76c5.51-.17 11.28-1.22 16.35-1.52 25.6-1.53 51.88-6.69 76.67-13.19q20.59-5.41 30.16-9.91 6.65-3.12 11.63-4.38 3.8-.96.49 1.15c-50.26 32.14-98.4 66.45-159.96 71.45q-.68.05-1.99.69-.59.3-.8-.33-.49-1.44-.62-3.94c-.69-12.57-2.38-25.51-2.14-38.06Z"/><path fill="#061017" d="M927.5 823.79a.26.26 0 0 1-.15-.44q.83-.81 2.06-1.27c40.54-14.99 77.3-36.82 111.24-63.45q24.94-19.57 31.54-25.95 11.54-11.15 26-19.99c10.33-6.32 20.79-8.04 32.77-4.91q12.68 3.32 22.73 9.04c25.35 14.45 47.98 26.96 71.97 37.56q64.92 28.68 135 41.11 24.39 4.33 33.35 5.22 15.79 1.58 22.75 2.74.68.11.45.76c-.59 1.63-1.16 3.08-1.35 4.77-.82 7.18-2.55 14.09-3.2 21.34a1.06 1.05-87 0 1-1.06.96c-17.91-.31-31.85.86-53.16.11-35.27-1.25-70.8-.39-106.13-.99-14.55-.25-30.14-1.46-45.25-1.94q-9.19-.29-19.97-1.01c-34.18-2.29-67.73-1.96-102.4 2.32-33.62 4.15-65.83 8.69-99.1 3.87q-25.72-3.72-51.2-8.85-3.2-.64-6.89-1Z"/><path fill="#061017" d="M771.9 797.94a.48.48 0 0 1 .08-.94c48.62-2.9 95.81-12.47 141.77-27.74 43.6-14.47 89.63-32.11 134.53-48.05q13.3-4.73 28.75-9.05a.52.52 0 0 1 .52.86c-1.89 1.98-4.68 3.41-6.57 5.17-7.94 7.41-16.02 15.48-24.03 22q-37.45 30.44-82.19 52.53c-19.04 9.4-38.07 15.44-58.92 17.89-34.98 4.11-68.95 1.3-103.66-5.64-9.35-1.87-20.09-4.71-30.28-7.03ZM1209.26 738.05q-2.63-1.02-.02-.55.28.05.51-.1.19-.12.41-.06 9.68 2.59 16.9 3.34c16.84 1.74 35.67 2.96 53.68 2.11 14.43-.68 29.07-.94 43.21-2.2 35.57-3.17 66.43-7.85 99.73-12.94a.87.87 0 0 1 1 .88c-.28 11.31-1.74 22.23-2.45 33.77-.45 7.18-1.65 14.22-2.29 21.39-.24 2.73-.19 8.2-1.57 11.09q-.23.49-.76.44-91.83-8.28-176.86-43.15c-9.27-3.81-20.67-9.84-31.49-14.02ZM256.16 853.13q-10.99-4.83-21.73-9.69a.39.38 62.8 0 1 .23-.73q5.89 1.22 11.79 1.7c26.71 2.18 53.64.18 79.46-6.97 34.15-9.45 66.1-24.15 96.72-41.85q19.8-11.44 39.62-22.84c10.98-6.32 24.46-12.32 37.14-12.59 20.96-.44 45.86 10.22 64.03 20.68q28.77 16.57 46.83 29.2c65.67 45.93 135.11 94.81 216.74 101.95 7.12.62 14.42 1.62 21.36 1.47 33.74-.74 64.72-9.3 93.34-27.26q1.49-.94 1.09.99a1.02.97 74.4 0 1-.27.51q-13.6 13.64-26.89 26.53c-17.34 16.82-36.37 31.79-56.34 46.29-4.04 2.93-7.47 5.19-12.67 5.21q-32.88.12-62.11-7.19c-18.14-4.54-39.13-12.89-60.49-17.66-8.79-1.96-17.81-3.8-26.2-6.73q-44.72-15.59-85.61-39.61c-22.55-13.24-51.21-32.27-78.43-44.85q-11.95-5.51-25.38-6.52c-12.2-.91-22.38 4.01-33.91 6.86-28.17 6.96-55.43 15.16-84.91 19.9q-10.45 1.67-19.86 2.2c-18.02 1-36.48.99-54.36-1.8-21.53-3.37-40.35-8.92-59.19-17.2ZM165.29 789.66a.84.79 89.2 0 1-.35-.36q-.67-1.32.88-1.36 6.47-.13 12.93-.77 56.94-5.57 111.98-24.52a.4.4 0 0 1 .3.74q-23.64 10.73-49.49 19.19c-23.38 7.65-46.67 10.82-70.75 9.15-2.08-.15-3.76-1.08-5.5-2.07Z"/><path fill="#101526" d="m88.54 795.01 11.25-.84a1.27 1.27 0 0 1 .58 2.44l-10.4 4.35a1.27 1.27 0 0 1-1.73-.87l-.84-3.52a1.27 1.27 0 0 1 1.14-1.56Z"/><path fill="#061017" d="M285.46 924.51c-23.63-3.85-48.56-3.25-72.38-.33-23.66 2.9-46.82 6.44-70.89 9.72q-5.16.7-10.25-.93c-3.76-1.2-6.72-1.14-10.4-1.57q-.49-.06-.87-.39-1.57-1.34-2.12-3.07-6.03-18.95-11.67-38.02c-.55-1.84-.8-3.81-1.31-5.52-6-20.26-10.09-41.88-13.44-61.85-.45-2.67-1.66-7.04-1.7-10.79q0-.48.43-.7 12.73-6.45 17.7-8.52c21.66-9 41.34-.41 59.94 10.76 24.02 14.42 49.95 31.45 77.4 44.57q42.15 20.15 88.85 23.37c44.56 3.06 87.15-8.14 129.54-18.81q.81-.21 1.06-.21 1.22.01.15.67c-17.27 10.64-35.21 20.67-53.81 28.78q-57.5 25.08-120.02 32.81c-2.22.27-3.9.41-6.21.03Z"/><path fill="#061017" d="M307.06 831.35q1.18-.01 2.02.23a.41.4-41.5 0 1-.05.79q-30.98 4.95-61.29 3.54c-9.06-.41-18.66-1.34-27-5.19q-12.89-5.94-25.16-14.49a.25.25 0 0 1 .24-.44q26.26 10.78 54.73 13.38 5.52.5 8.84.89c15.7 1.81 31.88 1.34 47.67 1.29ZM647.82 823.47q-.73-.56-1.01-1.13a.4.4 0 0 1 .35-.57c34.82-.75 69.06 6.28 103.23 11.85 17.98 2.93 37.92 5.04 54.11 6.36 7.69.62 15.88.24 24.3-.66q18.87-2 37.59-5.16c25.53-4.32 51.2-4.58 76.71.12 15.74 2.9 32.02 6.79 47.98 7.95q24.11 1.75 48.2.42c14.48-.8 30.65-3.38 45.97-4.92q19.48-1.97 28.05-2.37c2.52-.11 5.41-.84 7.7-.9 32.9-.9 61.38.9 91.97 2.74 23.56 1.41 45.91 1.43 71.6 2.36 40.26 1.45 80.89.83 121.18.61q1.88-.01 3.74.23.5.07.39.56-11.59 54.6-31.27 106.81-.19.5-.72.49c-2.94-.08-5.13-.04-8.11.86-8.47 2.57-18.81-.11-26.91-2.39q-18.58-5.25-37.35-9.8c-11.79-2.86-25.22-4.11-37.09-1.13-5.07 1.28-9.54 2.92-14.94 2.27q-64.71-7.83-128.49-21.3c-13.57-2.86-27.76-8.52-47.19-16.57-4.23-1.75-9.06-4.27-13.54-6.92q-17.36-10.25-34.61-20.69c-8.53-5.16-18.16-10.74-25.82-13.48q-2.83-1.01-12.76-2.2c-19.62-2.37-36.66 11.76-52.48 21.71q-26.12 16.45-56.03 23.01c-14.85 3.25-32.64 3.51-47.32 2.82-32.16-1.52-65.66-11.57-94.79-24.94q-49.53-22.72-92.64-56.04ZM325.23 943.97c-4.76-2.14-21-9.85-21.62-12.53a.4.4 0 0 1 .34-.49q64.32-9.37 123.44-36.19 18.18-8.24 36.1-17.01c23.16-11.33 42.25-15.57 66.9-8.2q26.41 7.89 54.17 22.66 18.08 9.62 36.14 19.28c16.9 9.04 34.25 16.89 51.9 24.27q.85.36-.03.63c-2.54.78-5.52.05-7.42.13-31.57 1.4-62.61 5.67-93.4 12.7q-29.12 6.64-58.34 12.89c-21.22 4.54-43.92 6.47-65.47 7.8-9.77.6-20.03-.56-29.94-1.21-31.74-2.06-62.9-11.28-92.77-24.73Z"/><path fill="#061017" d="M423.5 1044.25c-73.93-18.17-142.09-50.68-213.84-81.05q-27.21-11.52-54.32-21.83a.52.52 0 0 1 .14-1c26.6-2.43 48.41-5.94 78.77-7.84 24.23-1.51 48.52 2.27 70.08 14.37 15.98 8.95 30.4 20.3 45.81 30.16q31.1 19.91 66.19 31.43 75.36 24.74 153.99 34.57 10.18 1.28 19.91 1.75c26.4 1.27 53.67 1.38 79.96-1.55q82.14-9.12 154.35-49.76 38.17-21.48 72.42-48.82 21.72-17.35 43.14-35.06 14.11-11.67 29.8-21.07c19.76-11.85 38.99-7.75 58.84 1.31q16.86 7.7 32.43 15.27a1.05 1.05 0 0 1-.18 1.96c-17.29 4.66-30.04 22.18-40.54 35.53-23.94 30.48-51.02 59.63-78.14 84.69-4.91 4.53-10.5 6.83-18.29 10.39q-39.96 18.25-83.24 25.59c-8.19 1.39-17.9 1.92-26.88 2.72-19.75 1.77-41.06.64-59.09-1.83-13.42-1.84-36.95-6.69-57.8-8.79-7.37-.74-14.84-1.73-22.05-1.66q-30.74.28-60.59 7.63c-3.74.93-6.97 1-10.69 1.08q-29.8.69-45.93-.17c-12.2-.65-32.78-2.74-49.29-4.18q-44.52-3.91-84.96-13.84Z"/><path fill="#061017" d="M540.17 1134.15q-.31-.07-.66-.18-.35-.1 0-.21 1.08-.33 2.24-.29c12.43.45 23.58 1.41 36.92 3.42q34.54 5.21 69.4 7.69c30.17 2.15 58.15-.06 90.16-5.19 89.25-14.3 167.58-63.25 231.46-125.3 20.85-20.25 40.12-42.89 59.98-66.16 12.35-14.47 28.36-26.91 48.59-25.23q15.79 1.31 34.51 7.24 33.76 10.7 69.65 20 2.6.68.07 1.57c-14.6 5.15-28.59 14.89-41.82 23.64q-7.32 4.84-13.69 10.84c-29.33 27.64-51.67 48.24-81 72.47q-36.46 30.13-77.09 54.23c-48.28 28.63-101.81 47.36-157.3 55.6q-8.95 1.33-19.9 1.97-20.71 1.2-28.19 1.16-12.42-.07-32.26-2.26-8.65-.96-19.78-2.96-38.34-6.9-76.83-12.93c-31.66-4.95-63.28-11.78-94.46-19.12ZM1156.5 931.27a.13.12 59.6 0 1 .06-.24q12.63 2.32 25.45 4.94 9.32 1.91 32.76 4.19.78.08.23.64c-7.16 7.31-48.51-5.92-58.5-9.53ZM257.19 1064.56q-45.76-5.38-87.95-27.41c-.61-.32-1.83-1.45-2.18-2.07-17.15-30.8-29.41-58.23-42.74-91.65-.35-.86-.42-1.98-.75-2.82q-.76-1.88 1.18-1.28 34.65 10.71 67.81 25.03c43.62 18.85 87.13 37.84 131.36 55.24 54.25 21.34 106.61 36.83 163.92 43.99 13.92 1.74 27.57 3.02 42.07 4.11 7.88.6 16.28 1.73 23.56 2.02q12.26.49 24.53.16 1.25-.03 2.08.19a.39.39 0 0 1-.01.76q-23.73 5.82-47.26 9.77c-26.18 4.39-52.82 5.28-79.29 3.75-12.43-.72-24.87-1.19-37.24-2.6-4.89-.55-10.21-.64-14.7-1.16q-28.98-3.4-57.92-7.07c-30.8-3.92-62.24-6.11-86.47-8.96ZM338.63 959.64c-.48-.36-1.53-.83-1.82-1.58a.65.65 0 0 1 .86-.83c22.41 9.76 47.51 16.46 71.65 18.46 16.31 1.35 32.82 3.21 49.17 1.6 9.58-.93 19.55-1.7 28.65-2.98 37.3-5.28 73.77-15.53 108.86-22.32q30.13-5.83 65.44-7.05 31.51-1.1 65.07 6.28c20.51 4.5 40.25 12.05 60.77 16.58 16.54 3.65 34.56 6.56 51.55 5.64a.49.49 0 0 1 .27.92c-11.66 6.69-23.94 14.21-35.1 19.93q-48.1 24.61-97.25 35.21-15.58 3.35-39.62 6.08c-52.62 5.95-104.86 1.17-156.66-9.94-33.39-7.16-62.97-14.42-93.51-24.78q-42.45-14.4-78.33-41.22ZM1135.14 1004.74c19.5-25.41 39.2-44.12 71.65-51.08q10.46-2.24 29.14-4.26 2.37-.26 3.79-.13 1.05.1.16.66c-11.52 7.13-19.36 17.15-27.04 28.36-39.9 58.22-87.46 111.21-145.63 150.42-34.22 23.07-68.38 35.41-115.21 52.54q-.96.35-.12-.23c9.87-6.74 21.61-13.8 29.94-19.66 40.28-28.31 74.74-61.69 107.22-99.06q16.28-18.74 46.1-57.56Z"/><path fill="#061017" d="M568.73 1213.16c-.26-.09-.63-.11-.98-.17q-37.67-6.63.12-.21 33.85 5.75 89.64 16.94c36.31 7.29 75.26 9.25 114.99 7.99 40.15-1.27 79.96-10.2 117.27-24.86 36.76-14.45 73.61-26.87 110.93-41.48 49.59-19.42 93.54-48.81 131.98-85.58q23.11-22.11 32.87-33.23c21.74-24.76 38.37-47.46 56.95-71.81 13.84-18.15 30.38-32.15 54.27-30.55 16.67 1.12 32.63 5.43 50.62 10.46q20.12 5.63 40.58 12.17 1.31.42.75 1.68-12.43 28.14-26.91 55.28a.76.74 3 0 1-.39.34q-69.79 27.37-129.37 72.13c-18.88 14.19-37.77 28.31-56.38 42.88-81.05 63.45-181.81 111.44-285.34 119.36-8.78.67-17.92 1.51-26.46 1.65-61.58 1-122.56-8.1-181.63-25.6-24.81-7.35-49.56-15.04-74.55-21.77q-9.55-2.58-18.96-5.62Z"/><path fill="#41213d" d="M1376.39 955.43a.15.15 0 0 1 .15.15v.04a5.23 2.19 1.8 0 1-5.3 2.03l-1.06-.04a5.23 2.19 1.8 0 1-5.16-2.35l.01-.04a.15.15 0 0 1 .15-.15l11.21.36Z"/><path fill="#061017" d="M226.21 1122.25q-1.24-3.63-4.46-5.71-14.03-17.33-26.67-36.17a.55.55 0 0 1 .65-.83c6.35 2.35 12.72 4.6 19.45 6.36q30.27 7.91 60.82 14.66c41.04 9.08 69.54 20.98 106.67 24.41 17.32 1.59 35.21 1.78 52.04 3.49 38.92 3.94 77.83 9.61 116.16 17.45q49.55 10.15 72.63 13.59c36.5 5.43 70.15 12.3 105.08 16.99 20.01 2.69 40.79 2.46 60.93 1.57q10.07-.45 19.9-1.84 67-9.51 126.41-37.65c62.05-29.4 119.95-73.95 169.98-121.77 4.08-3.9 10.31-8.3 14.12-12.88q6.17-7.43 10.29-11.25.65-.6.65.28c0 2.33-6.75 9.47-8 11.22-34.62 48.32-74.35 94.1-120.68 131.59q-40.36 32.67-86.59 56.6c-41.32 21.4-83.87 32.41-129.52 36.95-17.44 1.73-35.81 1.17-53.32.75-13.73-.34-28.34-1.96-42.5-3.07-12.38-.96-32.04-4.65-48.03-8.07-49.66-10.64-94.26-16.14-141.53-23.44-31.12-4.81-61.98-11.25-93.04-16.43q-60.9-10.17-125.58-17.66-14.36-1.66-23.76-2.46-.49-.05-.83-.39-16.84-17.08-31.27-36.29ZM1060.25 1306.54q-1.73-.28-2.5 1.17l-1.46 1.04q-2.18-.51-3.5 1.5l-1.29.79q-2.41.07-4 1.92-120.48 58.33-254.09 65.96c-18.85 1.08-38.16.65-57.16.64q-8.28-.01-16.49-1.11-1.14-.16-.01-.38c26.72-5.15 51.68-9.97 75.25-18.33 47.14-16.71 94.2-38.25 138.51-60.27q113.2-56.28 213.27-133.49c38.54-29.74 76.45-60.01 117.73-85.97 18.63-11.71 37.8-21.52 58.44-31.05q5.96-2.76 10.99-3.96.82-.2.31.47-4.61 6.01-6.14 8.62-11.82 20.14-22.71 35.57c-39.32 55.74-83.52 103.66-136.74 146.24q-48.63 38.92-108.41 70.64Z"/><path fill="#061017" d="M256.44 1088.31q-34.99-7.2-64.2-16.78c-6.75-2.21-14.08-17.23-17.42-23.42q-1.1-2.03.9-.88c29.25 16.87 64.51 23.16 98.47 26.86 24.98 2.72 50.05 5.03 74.98 8.18q41.85 5.3 83.87 9.11 10.16.92 19.95 1.17c24.43.61 45.3.81 66.02-1.61 37.33-4.34 73.3-14.36 108.45-22.25 5.89-1.32 13.84-2.76 20.2-3.14 10.07-.6 20.28-1.55 30.14-.98 31.13 1.83 59.97 8.52 92.31 11.23 12.13 1.01 25.06 1.26 37.19.27 28-2.3 54.09-6.69 80.61-15.41 7.49-2.46 15.08-6.13 22.54-9.37a.56.56 0 0 1 .56.96c-42.1 31.74-89.44 58.81-140.67 71.83-33.73 8.58-65.83 12.51-99.88 13.13q-6.92.13-15.4-.38c-10.55-.64-21.43-.85-31.51-2.04-24.92-2.92-50.03-7.25-75.1-8.1q-27.08-.92-54.15-1.91c-25.28-.93-50.5-3.84-75.78-5.22q-8.49-.47-21.96-1.38-34.15-2.31-61.3-10-47.29-13.37-78.82-19.87Z"/><path fill="#582845" d="M221.75 1116.54q3.22 2.08 4.46 5.71-3.08-2.21-4.46-5.71Z"/><path fill="#061017" d="M367.5 1248.21q-2.27-.16-4.3-1.34-.42-.25-.91-.23-7.56.32-13.04-4.55c-1.01-.9-2.05-1.07-3.25-1.55q-42.56-32.64-79.35-70.85a.88.87-15.7 0 1 .82-1.46q10.23 2.23 19.82 3.41c77.65 9.55 155.12 24.61 231.44 41.72 54.4 12.2 107.1 30.25 160.85 44.84 13.16 3.57 26.72 6.03 40.19 8.69q38.53 7.61 65.41 9.22c17.88 1.07 36.7 3.21 54.54 2.18q24.71-1.43 33.78-2.29 84.02-7.96 159.91-44.59 1.58-.76 2.68-.8a.48.48 0 0 1 .26.89c-38.33 22.97-75.66 45.6-117.11 62.52-28.05 11.44-57.72 18.9-89.18 25q-32.27 6.27-60.43 7.71c-9.14.47-22.93 1.65-34.58.97-12.97-.76-26.03-1-38.94-2.21-59.07-5.54-113.43-18.52-168.06-36.9q-25.92-8.72-51.81-17.55-52.95-18.07-108.74-22.83Z"/><path fill="#061017" d="M439.75 1300.71q-.99-1.48-2.75-1.42-8.94-4.48-21.79-12.02c-4.49-2.64-51.29-31.22-50.18-33.16q.13-.23.33-.07c2.44 1.86 5.81 1.55 8.79 2q19.31 2.9 38.52 6.38c31.23 5.67 58.18 14.1 86.17 24.31 62.75 22.88 125.62 39.07 192.04 45.96 10.03 1.05 21.69 1.48 32.56 2.33 11.56.91 22.69 1.21 33.9.33 11.4-.89 23.13-1.33 34.09-2.7 26.26-3.27 50.93-7.36 76.57-14.32a.59.59 0 0 1 .4 1.1q-20.86 9.59-43.01 19.07-48.78 20.89-100.99 29.74c-15.07 2.56-31.09 2.57-46.58 3.12-5.42.19-10.91-.84-15.45-.85q-11.86-.04-16.38-.76-64.16-10.1-125-32.82-11.27-4.21-22.55-8.37-1.08-.4-1.53-.81-.29-.26-.66-.41-28.97-11.78-56.5-26.63Z"/><text xml:space="preserve" x="1554.954" y="724.127" style="font-size:40px;line-height:1.25;font-family:Pacifico;-inkscape-font-specification:Pacifico;letter-spacing:-.13px;word-spacing:0"/></svg>