<svg xmlns="http://www.w3.org/2000/svg" fill="none" viewBox="0 0 1000 198">
  <path fill="#0D0E10" fill-rule="evenodd" d="M974.795 150.473c.605 6.894 6.119 15.668 15.672 15.668h5.59c2.166 0 3.943-1.776 3.943-3.944V39.2689h-.025c-.113-2.0709-1.824-3.7296-3.918-3.7296h-17.32c-2.094 0-3.805 1.6587-3.92 3.7296h-.022v9.9887c-10.611-13.0804-27.342-18.5096-44.119-18.5096-38.137 0-69.051 30.9384-69.051 69.1052 0 38.1688 30.914 69.1078 69.051 69.1078v.004c16.777 0 35.06-6.514 44.116-18.508l.003.016Zm-44.052-5.698c-24.254 0-43.918-20.11-43.918-44.9217 0-24.8073 19.664-44.9188 43.918-44.9188 24.253 0 43.914 20.1115 43.914 44.9188 0 24.8117-19.661 44.9217-43.914 44.9217Zm-91.014 9.926-.008-63.6101h.002c0-35.8566-22.604-60.046-58.648-60.046-17.206 0-31.311 9.9572-36.292 18.5106-1.077-6.6881-4.625-13.7182-15.628-13.7182h-5.608c-2.169 0-3.941 1.7772-3.941 3.9457v122.938h.022c.114 2.068 1.827 3.729 3.921 3.729h17.32c.265 0 .525-.032.776-.081.115-.022.222-.067.333-.099.129-.039.263-.07.385-.12.155-.064.294-.15.438-.23.07-.043.143-.073.211-.119.173-.111.332-.245.485-.382.025-.026.055-.042.08-.065.172-.167.329-.351.469-.542l.001-.003c.434-.596.697-1.313.74-2.088h.022V90.1048c0-19.2576 15.601-34.8705 34.846-34.8705 19.243 0 34.844 15.6129 34.844 34.8705l.016 60.6972.004-.021c0 .054.009.109.009.167v11.773h.023c.114 2.068 1.825 3.729 3.919 3.729h17.321c.266 0 .525-.032.776-.081.102-.019.197-.06.297-.088.142-.041.287-.077.424-.131.141-.059.27-.141.404-.216.082-.046.168-.08.247-.133.159-.104.306-.231.449-.357.037-.034.078-.059.113-.094.164-.158.31-.329.444-.508.009-.014.02-.025.03-.038.427-.591.688-1.303.733-2.072 0-.005.002-.011.002-.011h.023v-8.018l-.004-.002m-180.378-4.228c.606 6.894 6.12 15.668 15.672 15.668h5.59c2.167 0 3.94-1.776 3.94-3.944V39.2689h-.022c-.113-2.0709-1.826-3.7296-3.918-3.7296h-17.32c-2.094 0-3.805 1.6587-3.922 3.7296h-.02v9.9887C648.738 36.1772 632.008 30.748 615.23 30.748c-38.135 0-69.049 30.9384-69.049 69.1052 0 38.1688 30.914 69.1078 69.049 69.1078v.004c16.778 0 35.063-6.514 44.119-18.508l.002.016Zm-44.054-5.698c-24.252 0-43.915-20.11-43.915-44.9217 0-24.8073 19.663-44.9188 43.915-44.9188 24.255 0 43.914 20.1115 43.914 44.9188 0 24.8117-19.659 44.9217-43.914 44.9217Zm-171.541-11.908c11.562 8.016 24.183 11.909 36.311 11.909 11.554 0 23.499-5.994 23.499-16.428 0-13.93-26.028-16.097-42.382-21.66-16.356-5.562-30.443-17.0604-30.443-35.6811 0-28.4929 25.368-40.2608 49.045-40.2608 15.002 0 30.481 4.9508 40.516 12.0428 3.456 2.6207 1.351 5.6295 1.351 5.6295l-9.579 13.692c-1.077 1.5422-2.959 2.8746-5.662 1.2054-2.702-1.6681-12.181-8.3824-26.626-8.3824-14.446 0-23.148 6.6766-23.148 14.952 0 9.9235 11.31 13.0447 24.557 16.427 23.085 6.2275 48.268 13.7126 48.268 42.0356 0 25.105-23.464 40.619-49.396 40.619-19.652 0-36.383-5.607-50.416-15.912-2.923-2.928-.881-5.646-.881-5.646l9.532-13.623c1.939-2.547 4.385-1.659 5.454-.919m-66.583 17.606c.606 6.894 6.12 15.668 15.673 15.668h5.59c2.166 0 3.942-1.776 3.942-3.944V39.2689h-.024c-.113-2.0709-1.824-3.7296-3.918-3.7296h-17.32c-2.094 0-3.805 1.6587-3.922 3.7296h-.021v9.9887c-10.611-13.0804-27.342-18.5096-44.119-18.5096-38.135 0-69.05 30.9384-69.05 69.1052 0 38.1688 30.915 69.1078 69.05 69.1078v.004c16.777 0 35.061-6.514 44.117-18.508l.002.016Zm-44.051-5.698c-24.254 0-43.917-20.11-43.917-44.9217 0-24.8073 19.663-44.9188 43.917-44.9188 24.253 0 43.913 20.1115 43.913 44.9188 0 24.8117-19.66 44.9217-43.913 44.9217Z" clip-rule="evenodd"/>
  <path fill="#F06A6A" fill-rule="evenodd" d="M167.197 104.554c-25.664 0-46.468 20.805-46.468 46.47 0 25.664 20.804 46.469 46.468 46.469 25.664 0 46.468-20.805 46.468-46.469 0-25.665-20.804-46.47-46.468-46.47Zm-120.7287.004C20.8048 104.558 0 125.359 0 151.024c0 25.664 20.8048 46.469 46.4683 46.469 25.6646 0 46.4704-20.805 46.4704-46.469 0-25.665-20.8058-46.466-46.4704-46.466ZM153.3 46.4673c0 25.6656-20.804 46.4725-46.467 46.4725-25.6649 0-46.4687-20.8069-46.4687-46.4725C60.3643 20.8068 81.1681 0 106.833 0 132.496 0 153.3 20.8068 153.3 46.4673Z" clip-rule="evenodd"/>
</svg>
