<svg xmlns="http://www.w3.org/2000/svg" viewBox="0 0 400 88" fill="none"><defs><linearGradient id="g" x1="50%" x2="50%" y1="0%" y2="100%"><stop offset="0%" stop-color="#FAD460"/><stop offset="45%" stop-color="#E8A317"/><stop offset="100%" stop-color="#B8751A"/></linearGradient><linearGradient id="wg" x1="0%" x2="100%" y1="0%" y2="0%"><stop offset="0%" stop-color="#C4841D"/><stop offset="50%" stop-color="#E8A317"/><stop offset="100%" stop-color="#B8751A"/></linearGradient></defs><g transform="translate(0 22) scale(0.086)"><path d="M256 73 L96 170 L256 266 Z" fill="url(#g)" fill-opacity=".7"/><path d="M256 73 L416 170 L256 266 Z" fill="url(#g)"/><path d="M256 140 L309 191 L279 191 L256 165 L231 191 L201 191 Z" fill="#0a0800" fill-opacity=".52"/><path d="M96 296 L256 359 L416 296 L416 333 L256 396 L96 333 Z" fill="url(#g)" fill-opacity=".82"/><path d="M113 359 L256 417 L399 359 L399 392 L256 443 L113 392 Z" fill="url(#g)" fill-opacity=".62"/></g><text x="54" y="60" font-family="system-ui, sans-serif" font-weight="900" font-size="52" fill="#f0f0f0">Ask</text><text x="148" y="60" font-family="system-ui, sans-serif" font-weight="900" font-size="52" fill="url(#wg)">Verdict</text></svg>
