<svg xmlns="http://www.w3.org/2000/svg" version="1.0" viewBox="0 0 251 201">
  <path fill="#01bddf" d="M79.25 150.85c-6.5-1.7-10.8-5.3-13.95-11.85-2.05-4.2-2.05-4.25-2.2-11.15-.2-6.1-.1-7.3.9-10.4 3.2-9.85 10.2-15.2 20.75-15.8 14.2-.85 22.8 7.4 24 23 .55 7.3-1.95 15.4-6.25 20.05-1.2 1.25-2.35 2.3-2.6 2.3s-.9.45-1.5 1c-3.05 2.8-13.3 4.35-19.15 2.85z"/>
  <path fill="#2e2e5b" d="M79.5 199c-11.85-1.1-23.6-5.3-33.6-12.05-5.8-3.9-15.65-13.7-19.3-19.2-16.55-24.9-16.5-58 .15-83.55 1.85-2.8 5.05-6.6 8.7-10.25 11.3-11.3 23.9-17.75 39.7-20.25 7.6-1.2 20.25-.75 27.55 1 11 2.6 21.4 7.8 30.2 15.1l4.6 3.8-1.6 1.85c-.9 1-1.95 2.2-2.35 2.7-.45.45-.95.85-1.2.85s-1.7-1.1-3.2-2.5c-7.6-6.95-18.65-12.45-29.85-14.9-5.75-1.2-20.55-1.2-25.8.05-8.95 2.1-15.45 4.9-22.55 9.6-13.65 9.1-23 22.35-27 38.3-1.1 4.25-1.2 5.75-1.2 16.45 0 11.25.05 11.95 1.4 16.95 5 18.8 17 33.5 34.45 42.35 14.2 7.2 33.5 8.3 49.4 2.85 7.35-2.5 15.9-7.5 21.55-12.6l2.8-2.5 2.6 2.65 2.65 2.7-3.9 3.35C118.65 194.55 99 200.8 79.5 199zm121.1-36.8c-7.6-2-13.95-7.35-17.5-14.7-2.85-5.85-3.85-11-3.85-19.75.05-7.9.8-11.7 3.5-17.5 3.2-7 8.4-12.35 14.95-15.45 3.8-1.8 6.85-2.4 12.3-2.45 12.6-.05 21.3 6.5 24.95 18.9 1 3.5 2.05 11.25 2.05 15.5V129h-49.65l.35 3.5c1.05 10.7 5.15 17.65 12.45 21.25 8.8 4.35 20.45 2.85 30.2-3.8 1.15-.8 2.15-1.45 2.25-1.45.1 0 .05 1.85-.1 4.1l-.25 4.15-4.55 2.25c-2.65 1.35-6.25 2.65-8.5 3.15-4.9 1.05-14.8 1.1-18.6.05zm27.5-43.45c-.4-8.2-4.5-15.2-10.35-17.8-1.15-.5-3.65-1.15-5.6-1.5-5.85-.95-11.7.9-16.3 5.15-3.95 3.65-7.85 11.6-7.85 15.95V122l20.15-.1 20.1-.15-.15-3zm-90 9.15.15-34.15 3.9-.15 3.85-.2v7.7l.05 7.65 2.35-4.5c2.7-5.2 5.45-8.1 9.5-10.1 2.5-1.2 3.4-1.4 7.35-1.4 6.4 0 6.25-.1 6.25 4.95v4.2l-1.6-.8c-.9-.45-3.25-.9-5.2-1-2.8-.15-4.05 0-6.1.9-5.05 2.2-9.55 8.85-11.4 17-.7 3.1-.9 7.1-1.05 23.9l-.2 20.1H138l.1-34.1zM82 32.15c-3.6-.65-4.5-1.2-4.5-2.75 0-1.25.15-1.45.9-1.15 3 1.3 4.6 1.7 6.7 1.75 4.55 0 6.9-1.75 6.9-5.2 0-2.95-1.15-4.25-6.75-7.55-5.15-3.05-7.05-4.9-7.55-7.5C76.55 3.5 82.8-1 90.55.55c2.65.5 2.95.7 2.95 1.8s-.15 1.2-1.1.95c-6.85-2-11.9.1-11.9 4.95 0 2.65 1.25 4 6.35 6.8 6.1 3.35 8.15 5.7 8.15 9.3 0 2.3-1.85 5.35-3.9 6.5-1.85 1.05-6.75 1.75-9.1 1.3zm41.8-.3c-.55-.4-.85-1.15-.7-1.9.1-.95.45-1.2 1.6-1.2 2 0 2.8 1.35 1.6 2.7-1.1 1.25-1.3 1.25-2.5.4zm-77.55-.7c.2-.5 2.7-7.1 5.55-14.65C58.1 0 58.25-.3 60.15 1.15 60.9 1.7 72 30.1 72 31.45c0 .9-2.5.65-2.85-.3-.15-.5-.95-2.65-1.75-4.8l-1.5-3.9-6.8.15-6.85.15-1.7 4.65c-1.6 4.4-1.75 4.6-3.2 4.6-1.2 0-1.4-.15-1.1-.85zm18.6-11.5c-1.4-4.6-5.85-15.75-6-15.15-.15.4-1.45 4.05-3 8.1l-2.7 7.35 5.3.2c2.9.05 5.6.2 6 .25.4.05.55-.2.4-.75zm37.95 11.9c-.2-.25-.3-7.25-.25-15.5l.1-15.05h5.8c5.05 0 6.15.15 8.05 1.1 2.85 1.5 4 3.7 4 7.65 0 3.75-1.1 5.95-3.95 7.95-1.8 1.35-2.55 1.5-6.55 1.7-5.35.25-5.2 0-4.9 7.45.15 4.7.1 4.9-.95 5.05-.55.1-1.2-.05-1.35-.35zM114.9 16c1.9-1.15 3.1-3.65 3.1-6.35 0-4.4-3.55-6.85-9.5-6.55l-3.2.15.1 6.25c.05 3.45.1 6.55.1 6.9 0 .4 1.1.6 3.9.6 3 0 4.2-.25 5.5-1zm19.6.55V1h1.7c1.6 0 1.9.35 10.75 13.25 5 7.3 9.15 13.25 9.2 13.25.05 0 0-5.95-.1-13.25L155.9 1h3.1v31h-1.4c-1.3 0-2.25-1.1-10.15-12.55-4.8-6.95-8.9-13-9.15-13.5-.25-.55-.65-.95-.9-.95s-.4 5.8-.3 13.4l.15 13.35-1.35.15-1.4.15v-15.5zm33.5-.05V1h7.5c7.15 0 7.5.05 7.5 1s-.35 1-6.25 1h-6.25v12H182v1.25c0 1.25-.1 1.3-2.35 1-1.35-.15-3.9-.15-5.75.05l-3.4.35V29.5h6.45c5.95 0 6.45.05 6.7.95.15.55.1 1.1-.05 1.25-.15.15-3.7.3-7.95.3H168V16.5zm29 1V3h-4.5c-4.2 0-4.5-.05-4.5-1 0-1 .25-1 10.4-.9 8.8.15 10.35.25 10.35.9 0 .6-.9.8-4.6.9l-4.65.15V32H197V17.5z"/>
</svg>
