<?xml version="1.0" encoding="UTF-8"?>
<!DOCTYPE svg PUBLIC "-//W3C//DTD SVG 1.0//EN" "http://www.w3.org/TR/2001/REC-SVG-20010904/DTD/svg10.dtd">
<svg shape-rendering="geometricPrecision" text-rendering="geometricPrecision" image-rendering="optimizeQuality" fill-rule="evenodd" xml:space="preserve"
 xmlns="http://www.w3.org/2000/svg" xmlns:xlink="http://www.w3.org/1999/xlink"  viewBox="0 0 2800.498291015625 594.9182739257812" width="280.0498291015625mm" height="59.491827392578124mm" >
<g><path fill="#f0f0f0" d="M336.1787,111.80115 L335.49744,111.938644 334.9412,112.31364 334.5662,112.86989 334.4287,113.55115 334.4287,184.34767 334.5662,185.02893 334.9412,185.58517 335.49744,185.96017 336.1787,186.09767 408.14374,186.09767 408.61862,186.57254 408.61862,258.11932 408.7561,258.8006 409.1311,259.35684 409.68735,259.73184 410.36862,259.86932 480.95438,259.86932 481.63565,259.73184 482.1919,259.35684 482.5669,258.8006 482.70438,258.11932 482.70438,113.55115 482.5669,112.86989 482.1919,112.31364 481.63565,111.938644 480.95438,111.80115 Z M113.260994,111.81774 L112.579735,111.95524 112.02348,112.33023 111.64849,112.88648 111.510994,113.56774 111.510994,258.16403 111.64849,258.8453 112.02348,259.40155 112.579735,259.77655 113.260994,259.91403 184.41544,259.91403 185.0967,259.77655 185.65294,259.40155 186.02794,258.8453 186.16544,258.16403 186.16544,186.22069 186.64032,185.7458 257.89932,185.7458 258.5806,185.6083 259.13684,185.2333 259.51184,184.67706 259.64932,183.9958 259.64932,113.56774 259.51184,112.88648 259.13684,112.33023 258.5806,111.95524 257.89932,111.81774 Z M1701.6517,200.44777 L1718.5729,200.54982 1735.4716,201.05515 1741.5916,201.55121 1746.9829,202.45428 1751.7081,203.8307 1753.7836,204.7037 1755.678,205.71178 1757.3801,206.8574 1758.8881,208.1464 1760.2478,209.64975 1761.3146,211.17857 1762.2292,212.93498 1762.942,214.86183 1763.4498,216.96645 1763.7493,219.25623 1764.3345,230.82396 1764.2988,242.3564 1763.7792,253.90285 1762.9082,265.373 1762.3772,268.04492 1761.4343,270.28516 1760.02,272.39725 1758.2306,274.25076 1756.0789,275.8766 1753.6539,277.21887 1751.1757,278.23273 1748.4062,279.02673 1743.2662,280.13983 1738.0039,281.07007 1732.7155,281.71967 1727.4778,282.00873 1694.8267,282.21817 1662.1962,282.14655 1661.7122,281.685 1661.4886,277.08496 1661.4816,201.52994 1661.9274,201.03798 1667.9684,200.57863 1701.6517,200.44777 Z M889.6099,208.86043 L890.1392,209.21587 926.96234,318.55002 926.5881,319.07117 852.0424,319.07117 851.6685,318.55057 888.5482,209.26634 889.0297,208.89708 889.6099,208.86043 Z M224.81592,223.05824 L224.13466,223.19574 223.57841,223.57074 223.20341,224.12698 223.06592,224.80824 223.06592,369.60962 223.20341,370.2909 223.57841,370.84714 224.13466,371.22214 224.81592,371.35962 369.35516,371.35962 370.03644,371.22214 370.59268,370.84714 370.96768,370.2909 371.10516,369.60962 371.10516,224.80824 370.96768,224.12698 370.59268,223.57074 370.03644,223.19574 369.35516,223.05824 Z M2373.9875,195.1904 L2384.603,195.57695 2395.0752,196.65654 2405.4932,198.45091 2410.6682,199.62192 2419.605,202.14984 2422.9902,203.41743 2425.9456,204.75304 2428.681,206.24995 2431.1667,207.91585 2433.2737,209.6435 2435.2039,211.60658 2436.8352,213.67851 2438.1953,215.84827 2439.3706,218.24716 2440.3528,220.87808 2441.1099,223.59494 2441.716,226.65305 2442.1238,229.73067 2442.5227,236.78906 2442.8997,267.92224 2443.014,299.12717 2442.8892,330.32547 2442.548,361.5828 2442.1733,368.2757 2441.7317,371.45804 2441.1409,374.26138 2440.3306,376.9804 2439.2983,379.52032 2438.0254,381.88568 2436.4924,384.08008 2434.6787,386.10916 2432.564,387.9777 2430.127,389.68973 2427.3455,391.2493 2424.2002,392.65884 2420.576,393.9515 2416.6543,395.06042 2412.3047,396.03104 2401.5486,397.89926 2390.7744,399.22595 2379.9976,399.973 2369.2239,400.10367 2358.4592,399.58102 2347.7168,398.3682 2337.033,396.43604 2326.4314,393.75674 2320.8484,391.76788 2316.1885,389.34216 2314.1174,387.92575 2312.237,386.38113 2310.546,384.70685 2309.0413,382.90128 2307.6895,380.90805 2306.5808,378.8869 2305.621,376.67398 2304.8389,374.32034 2303.801,369.1842 2303.4521,363.36517 2303.4512,237.87822 2303.8184,230.05394 2304.2893,226.53072 2304.936,223.36444 2305.8098,220.32877 2306.9043,217.5183 2308.2273,214.92503 2309.7886,212.54129 2311.599,210.358 2313.7224,208.32355 2316.0073,206.5602 2318.6274,204.92995 2321.5393,203.46907 2324.853,202.13458 2328.3687,201.00249 2332.2053,200.01724 2342.647,197.91025 2353.1208,196.38467 2363.6128,195.46855 2373.9875,195.1904 Z M1312.6456,148.58658 L1311.9644,148.72408 1311.4081,149.09908 1311.0331,149.65532 1310.8956,150.33658 1310.8956,443.67114 1311.0331,444.35242 1311.4081,444.90866 1311.9644,445.28366 1312.6456,445.42114 1539.0896,445.42114 1539.7709,445.28366 1540.3271,444.90866 1540.7021,444.35242 1540.8396,443.67114 1540.8396,396.6061 1540.7021,395.92484 1540.3271,395.3686 1539.7709,394.9936 1539.0896,394.8561 1383.0823,394.8561 1382.6074,394.38126 1382.6074,319.76923 1383.0823,319.29437 1519.4321,319.29437 1520.1134,319.1569 1520.6697,318.7819 1521.0447,318.22565 1521.1821,317.54437 1521.1821,268.71225 1521.0447,268.03098 1520.6697,267.47473 1520.1134,267.09973 1519.4321,266.96225 1383.0259,266.96225 1382.551,266.4874 1382.551,200.76328 1383.0259,200.2884 1534.3541,200.2884 1535.0354,200.15091 1535.5917,199.77591 1535.9667,199.21967 1536.1041,198.5384 1536.1041,150.33658 1535.9667,149.65532 1535.5917,149.09908 1535.0354,148.72408 1534.3541,148.58658 Z M927.98444,148.25797 L890.85693,148.46768 853.7877,148.33963 851.26733,148.54889 850.1513,148.85216 848.8881,149.54897 847.5812,150.95053 846.2051,153.76825 760.85974,384.06335 739.2125,443.41458 739.1211,444.24182 739.4227,445.01752 740.0481,445.56668 740.85657,445.76425 808.00507,445.76425 809.02814,445.43427 809.66504,444.5683 820.8929,410.91708 832.93585,374.08688 833.83795,372.2346 834.8746,370.7454 836.0898,369.58624 837.4028,368.78625 839.2252,368.14792 841.2353,367.82257 843.7193,367.7463 864.9876,367.98434 933.8795,367.97806 937.40936,368.16516 940.1185,368.69092 942.06415,369.6657 943.50903,371.16727 944.88666,373.6441 946.23987,377.09882 969.04596,444.62985 969.68365,445.49182 970.7042,445.8207 1039.7717,445.8207 1040.5791,445.62405 1041.2041,445.07617 1041.5071,444.3023 1041.4176,443.4761 937.71783,155.19736 936.9568,153.33781 936.1413,151.85635 935.1939,150.6416 934.10565,149.7032 932.86383,149.02151 931.4529,148.56999 929.82574,148.3214 927.98444,148.25797 Z M1017.29407,148.98466 L1016.6128,149.12216 1016.0566,149.49716 1015.6816,150.0534 1015.54407,150.73466 1015.54407,199.16061 1015.6816,199.84187 1016.0566,200.39812 1016.6128,200.77312 1017.29407,200.91061 1106.6544,200.91061 1107.1293,201.38548 1107.1293,444.0948 1107.2667,444.77606 1107.6417,445.3323 1108.198,445.7073 1108.8793,445.8448 1176.9297,445.8448 1177.611,445.7073 1178.1672,445.3323 1178.5422,444.77606 1178.6797,444.0948 1178.6797,200.72163 1179.1545,200.24677 1266.8478,200.24677 1267.529,200.10927 1268.0853,199.73427 1268.4603,199.17802 1268.5978,198.49677 1268.5978,150.73466 1268.4603,150.0534 1268.0853,149.49716 1267.529,149.12216 1266.8478,148.98466 Z M1662.3727,148.19576 L1591.9048,148.4011 1591.2235,148.53859 1590.6672,148.91359 1590.2922,149.46983 1590.1548,150.1511 1590.1548,443.7255 1590.2922,444.40677 1590.6672,444.963 1591.2235,445.338 1591.9048,445.4755 1659.6559,445.4755 1660.3372,445.338 1660.8934,444.963 1661.2684,444.40677 1661.4059,443.7255 1661.4059,330.57642 1661.8783,330.09967 1674.9633,329.98077 1681.7894,330.03122 1688.4078,330.33255 1690.7313,330.81436 1693.1163,331.86658 1695.2426,333.33237 1696.8741,335.09094 1732.3577,387.63477 1767.379,440.34793 1769.6036,443.10898 1771.0068,444.26797 1772.2987,445.01334 1773.6792,445.54254 1775.2941,445.88007 1778.4276,446.09772 1850.7646,446.01736 1851.6726,445.7639 1852.3168,445.07568 1852.5109,444.152 1852.197,443.2619 1769.4727,325.6469 1769.6824,325.04025 1792.1627,318.10846 1799.636,315.29776 1803.9479,313.37436 1807.9979,311.29172 1811.7993,309.03723 1815.4489,306.52945 1818.7772,303.86307 1821.7926,301.04187 1824.5293,298.02744 1826.9791,294.81754 1829.1368,291.4055 1830.9297,287.93008 1832.4944,284.10907 1833.7843,279.9292 1834.7052,275.67224 1835.3009,271.1959 1835.5629,266.6164 1835.0969,248.77739 1835.0304,235.97882 1835.4039,210.42584 1835.316,205.32234 1834.8519,200.34572 1834.0781,195.924 1832.9526,191.63298 1831.4471,187.4576 1829.755,183.82819 1827.71,180.30132 1825.2914,176.89604 1822.7972,173.96982 1819.9579,171.15198 1816.7805,168.47865 1813.6353,166.21205 1810.1299,164.04013 1806.4333,162.07281 1802.5566,160.3013 1798.533,158.72484 1789.7572,155.8964 1780.8768,153.66571 1771.9242,151.96254 1762.9188,150.7101 1753.8705,149.82997 1744.8077,149.24495 1726.6545,148.64742 1694.5135,148.23924 1662.3727,148.19576 Z M1956.5881,148.12112 L1896.6523,148.39731 1895.9713,148.53584 1895.4156,148.9117 1895.0415,149.46852 1894.905,150.15 1894.905,443.87204 1895.0425,444.5533 1895.4175,445.10956 1895.9738,445.48456 1896.655,445.62204 1956.8011,445.62204 1957.4824,445.48456 1958.0387,445.10956 1958.4137,444.5533 1958.5511,443.87204 1958.5511,241.69986 1958.8491,241.60246 1966.7823,252.439 2097.6956,440.41934 2100.0376,443.18692 2102.2668,444.80704 2103.8782,445.50348 2105.4253,445.88876 2108.7617,446.147 2137.6936,445.96204 2171.9402,446.01706 2172.621,445.87894 2173.1763,445.50403 2173.5505,444.94812 2173.6875,444.26706 2173.6875,150.58365 2173.55,149.90239 2173.175,149.34615 2172.619,148.97115 2171.9375,148.83365 2112.3157,148.83365 2111.6343,148.97115 2111.0781,149.34615 2110.7031,149.90239 2110.5657,150.58365 2110.5657,349.17996 2110.14,349.36865 2107.4062,346.69864 2041.1964,253.24527 1975.2764,159.5841 1973.085,156.68794 1970.8325,154.22142 1968.469,152.18198 1965.6958,150.4307 1962.9231,149.25508 1960.1443,148.53525 1956.5881,148.12112 Z M2687.2234,144.78525 L2677.2305,144.97098 2667.2378,145.38391 2657.2593,146.05186 2647.3079,147.00252 2637.3906,148.26363 2627.5132,149.86328 2617.8289,151.83034 2608.2444,154.35307 2603.5183,155.88103 2598.8945,157.60504 2594.365,159.55319 2589.7957,161.8297 2583.8643,165.37486 2578.518,169.30974 2573.5112,173.84427 2569.0842,178.82741 2567.0938,181.50026 2565.2642,184.28683 2563.6045,187.18503 2562.122,190.19257 2560.8235,193.31027 2559.7183,196.53098 2558.8135,199.85548 2558.115,203.29318 2557.2097,209.73074 2556.6252,216.22594 2556.3167,222.76755 2556.2402,229.32542 2556.612,242.49353 2557.3953,255.57915 2557.759,259.44308 2558.327,263.20294 2559.0896,266.8263 2560.0415,270.31396 2561.176,273.67007 2562.488,276.89603 2563.9673,279.98587 2567.4106,285.78537 2569.469,288.62964 2573.6848,293.53412 2578.5269,298.09198 2583.9639,302.2635 2589.678,305.86218 2595.628,308.9567 2601.9604,311.67 2608.5938,313.97986 2615.4285,315.87994 2622.405,317.38153 2629.4756,318.4996 2636.5984,319.2478 2650.7168,319.93527 2679.009,320.00024 2693.1309,320.23785 2698.1343,320.50317 2702.997,321.0263 2707.8364,321.99356 2712.4854,323.5624 2715.3445,324.99588 2717.8835,326.72015 2720.164,328.78348 2722.0144,330.97375 2723.6067,333.46887 2724.8816,336.18604 2725.8381,339.10916 2726.481,342.2675 2727.1458,347.55875 2727.5955,352.88916 2727.9827,363.54797 2727.7234,369.7876 2727.336,372.61765 2726.7693,375.2633 2726.0195,377.72452 2725.081,380.01077 2723.9492,382.13092 2722.6194,384.09338 2721.0842,385.908 2719.3394,387.5833 2717.377,389.1283 2715.1917,390.55106 2712.6846,391.90552 2710.127,393.06168 2704.0938,395.17844 2698.882,396.57693 2693.738,397.68015 2688.5896,398.53043 2683.437,399.1486 2678.2837,399.5554 2673.1062,399.77222 2662.76,399.71768 2652.4465,399.15353 2642.1226,398.24747 2621.453,396.07486 2606.711,394.34424 2564.0667,388.0412 2563.1248,388.1428 2562.5842,388.48624 2562.203,389.00046 2562.0261,389.78983 2562.0261,441.13644 2562.143,441.7659 2562.466,442.29654 2562.9539,442.68143 2563.5645,442.8736 2590.3125,446.14273 2604.0786,447.6723 2617.8298,448.779 2634.6926,449.5998 2651.565,450.0971 2668.442,450.3243 2685.2922,450.33438 2692.534,450.17014 2699.7703,449.74188 2706.9758,449.04675 2714.145,448.08224 2721.2778,446.84476 2728.3665,445.33228 2735.4143,443.5403 2742.409,441.46762 2747.3235,439.80438 2752.0784,437.97812 2756.6685,435.9767 2761.082,433.78976 2765.3083,431.40677 2769.336,428.8171 2773.1536,426.0103 2776.8433,422.89108 2780.2444,419.5634 2783.359,416.0257 2786.2166,412.22812 2788.8047,408.16266 2791.1125,403.81815 2793.0793,399.31158 2794.842,394.25516 2796.207,389.17667 2797.8774,380.94305 2799.0964,372.68967 2799.8813,364.41855 2800.2483,356.12988 2800.2117,347.8342 2799.7866,339.53702 2798.9883,331.25104 2797.8357,323.00668 2796.7092,317.33725 2795.1304,311.72934 2793.148,306.45877 2790.7046,301.40704 2787.7805,296.6011 2784.3574,292.0669 2780.41,287.8207 2776.0452,283.987 2772.8235,281.57214 2769.5066,279.37558 2766.1216,277.3981 2762.6711,275.627 2759.1636,274.05145 2755.63,272.66754 2748.1943,270.33466 2740.9365,268.6681 2733.3608,267.43527 2725.6926,266.58493 2717.9934,266.01773 2704.815,265.5802 2678.3394,265.7472 2665.0981,265.65515 2659.8088,265.33353 2654.5496,264.67618 2649.3206,263.73706 2644.1284,262.5628 2641.567,261.8184 2638.9492,260.79523 2636.601,259.5883 2634.4717,258.13614 2632.5835,256.39896 2631.046,254.38403 2629.928,252.08015 2629.2732,249.37317 2628.1438,239.41888 2627.7644,233.95029 2627.6675,228.46266 2627.969,222.9698 2628.7922,217.72122 2629.4338,215.25226 2630.2512,212.90233 2631.2905,210.6427 2632.5066,208.61316 2634.9165,205.7255 2637.8672,203.30421 2641.1353,201.39963 2644.7344,199.90433 2648.555,198.77226 2652.603,197.92827 2660.5535,196.95677 2668.3147,196.42188 2676.0828,196.09578 2691.581,196.00084 2707.031,196.5303 2722.4575,197.54118 2737.8755,198.89223 2782.5125,203.40472 2783.3167,203.29759 2783.8625,202.96214 2784.2888,202.37419 2784.4392,201.66368 2784.4392,151.37206 2784.3345,150.77505 2783.5981,149.87617 2781.0864,149.27325 2773.0745,148.38829 2747.9443,146.74255 2707.247,144.98143 2687.2234,144.78525 Z M2392.4087,145.00615 L2378.0486,145.00894 2342.269,145.47327 2335.3726,145.96156 2328.5344,146.79576 2321.7551,147.93605 2315.0327,149.34256 2308.3696,150.97343 2295.1865,154.75485 2287.6863,157.32782 2280.5828,160.29723 2273.8638,163.68124 2267.6243,167.43172 2261.8386,171.56569 2256.4055,176.1851 2251.6704,180.9794 2247.314,186.25397 2243.4592,191.90427 2240.1174,197.93068 2237.2483,204.46965 2234.9893,211.23366 2233.2827,218.35732 2232.1404,225.8383 2231.574,233.67676 2231.5903,241.76994 2231.9167,256.31104 2231.5808,333.89035 2231.5938,350.96786 2231.8171,368.01205 2232.024,372.5192 2232.4546,376.9464 2233.1116,381.26895 2233.996,385.4804 2235.109,389.57257 2236.4546,393.55438 2238.032,397.41287 2239.844,401.14648 2241.8938,404.75415 2244.1814,408.23044 2246.7087,411.57147 2249.477,414.77356 2252.4897,417.83514 2255.7488,420.75253 2259.252,423.51868 2263.004,426.13306 2268.1008,429.28333 2273.2764,432.13318 2278.5403,434.70813 2283.8801,437.02045 2289.294,439.0878 2294.774,440.92557 2300.3142,442.5495 2305.8867,443.9708 2317.194,446.29044 2328.6802,448.01752 2340.2678,449.27206 2351.889,450.1813 2358.2434,450.4888 2364.608,450.58487 2377.392,450.29855 2402.9604,448.92828 2410.9,448.3331 2418.8027,447.3456 2426.6226,445.9898 2434.3674,444.28687 2442.0425,442.2585 2449.646,439.92877 2457.1934,437.3166 2464.665,434.4535 2470.1763,432.07495 2475.4167,429.4594 2480.3623,426.6115 2485.0068,423.52866 2489.3801,420.1756 2493.4846,416.52914 2497.1672,412.72034 2500.506,408.67963 2503.503,404.39255 2506.14,399.87326 2508.4146,395.1123 2510.2725,390.2452 2511.8396,384.87213 2512.9756,379.385 2513.7031,373.78723 2514.0479,367.83215 2514.4836,331.6335 2514.2947,295.46356 2513.6543,259.29498 2512.7383,223.17975 2512.4878,218.95657 2511.9663,214.8015 2511.1829,210.76561 2510.145,206.85107 2508.8604,203.0554 2507.3403,199.38538 2505.5881,195.82901 2503.6157,192.39545 2501.4297,189.0799 2499.041,185.8858 2496.4548,182.80942 2493.682,179.8521 2490.7302,177.01306 2487.6357,174.31319 2480.9236,169.22803 2476.6978,166.44382 2472.4219,163.89844 2468.067,161.55829 2463.6455,159.41866 2454.6294,155.70186 2445.3948,152.6655 2435.9377,150.22215 2426.3396,148.31168 2416.6333,146.8573 2406.8662,145.7843 2399.6907,145.26782 2392.4087,145.00615 Z M113.429245,334.52237 L112.747986,334.65985 112.191734,335.03485 111.81674,335.5911 111.679245,336.27237 111.679245,481.04803 111.81674,481.7293 112.191734,482.28555 112.747986,482.66055 113.429245,482.79803 257.9104,482.79803 258.59167,482.66055 259.14792,482.28555 259.52292,481.7293 259.6604,481.04803 259.6604,409.9074 259.52292,409.22614 259.14792,408.6699 258.59167,408.2949 257.9104,408.1574 186.12611,408.1574 185.65125,407.68256 185.65125,336.27237 185.51375,335.5911 185.13875,335.03485 184.5825,334.65985 183.90125,334.52237 Z M409.9643,334.54373 L409.28302,334.6812 408.72678,335.0562 408.35178,335.61246 408.2143,336.29373 408.2143,408.2501 407.73944,408.72495 336.16638,408.72495 335.4851,408.86243 334.92886,409.23743 334.55386,409.79367 334.41638,410.47495 334.41638,481.0694 334.55386,481.75067 334.92886,482.30692 335.4851,482.68192 336.16638,482.8194 480.75226,482.8194 481.43353,482.68192 481.98978,482.30692 482.36478,481.75067 482.50226,481.0694 482.50226,336.29373 482.36478,335.61246 481.98978,335.0562 481.43353,334.6812 480.75226,334.54373 Z M518.71704,74.905655 L519.1919,75.380516 519.1919,518.9065 518.71704,519.38135 75.196396,519.38135 74.721535,518.9065 74.721535,75.38052 75.1964,74.905655 Z M1.5,-0.25 L0.81874007,-0.11250331 0.26249117,0.26249117 -0.11250331,0.81874007 -0.25,1.5 -0.25,592.9183 -0.11250331,593.59955 0.26249117,594.15576 0.81874007,594.53076 1.5,594.6683 592.79443,594.6683 593.4757,594.53076 594.0319,594.15576 594.4069,593.59955 594.54443,592.9183 594.54443,1.5 594.4069,0.81874007 594.0319,0.26249117 593.4757,-0.11250331 592.79443,-0.25 Z " />
</g></svg>
