<svg xmlns="http://www.w3.org/2000/svg" aria-hidden="true" viewBox="0 0 162 28"><path fill="#3b82f6" d="M14.362 27.78q-2.934 0-5.4-.972t-4.284-2.754a12.25 12.25 0 0 1-2.808-4.158q-.99-2.394-.99-5.202 0-3.348 1.026-5.94 1.044-2.592 2.88-4.356a12.5 12.5 0 0 1 4.284-2.7Q11.518.78 14.308.78q3.42 0 5.994 1.062t4.284 2.88a11.7 11.7 0 0 1 2.538 4.158q.828 2.322.756 4.86-.09 3.492-1.458 5.364-1.368 1.854-4.248 1.854a5.84 5.84 0 0 1-2.826-.702 3.7 3.7 0 0 1-1.764-2.07l1.044.054q-.738 1.386-2.016 1.944a6.5 6.5 0 0 1-2.61.558q-1.818 0-3.204-.774a5.7 5.7 0 0 1-2.178-2.214q-.792-1.422-.792-3.294 0-1.926.828-3.33a5.77 5.77 0 0 1 2.232-2.196q1.404-.774 3.168-.774 1.17 0 2.43.486 1.278.486 1.98 1.368l-.738.936V8.664h2.412l-.054 6.462q0 1.386.54 2.088t1.602.702q.936 0 1.44-.522.522-.54.72-1.458a10.7 10.7 0 0 0 .252-2.106q.054-2.79-.828-4.698t-2.394-3.078a9.5 9.5 0 0 0-3.294-1.71q-1.8-.54-3.582-.54-2.52 0-4.482.81-1.962.792-3.312 2.25-1.332 1.44-2.016 3.42-.666 1.962-.63 4.32.072 2.34.846 4.212a9.3 9.3 0 0 0 2.16 3.204 9.4 9.4 0 0 0 3.276 2.034q1.89.702 4.14.702 1.26 0 2.502-.288 1.26-.27 2.304-.774l1.026 2.808q-1.386.648-2.916.954a14.7 14.7 0 0 1-3.078.324m-.144-10.098q1.278 0 2.142-.738t.864-2.502q0-1.602-.774-2.412-.756-.828-2.142-.828-1.638 0-2.448.864t-.81 2.376q0 1.548.828 2.394.846.846 2.34.846M51.799 7.813V5.545h13.509v2.268H59.86V23h-2.624V7.812h-5.438ZM39.392 23h-2.795l6.28-17.455h3.043L52.203 23h-2.796L44.472 8.716h-.137zm.469-6.835h9.068v2.216h-9.068z"/><path fill="#3f3f46" d="M161.144 5.545V23h-2.548V5.545zm-11.495 17.719q-1.84 0-3.213-.843-1.372-.844-2.131-2.361t-.758-3.546q0-2.037.758-3.562.759-1.525 2.131-2.37 1.372-.843 3.213-.843c1.841 0 2.298.28 3.213.843s1.625 1.353 2.131 2.37q.759 1.525.758 3.562 0 2.028-.758 3.546-.759 1.517-2.131 2.36-1.372.844-3.213.844m.009-2.139q1.192 0 1.977-.63.784-.63 1.159-1.68.384-1.048.384-2.31a6.6 6.6 0 0 0-.384-2.3q-.375-1.057-1.159-1.697-.784-.639-1.977-.639-1.202 0-1.995.64-.784.639-1.167 1.695a6.8 6.8 0 0 0-.375 2.302q0 1.26.375 2.31.383 1.047 1.167 1.678.793.63 1.995.631m-13.626 2.139q-1.9 0-3.273-.86-1.364-.87-2.096-2.395-.733-1.526-.733-3.495 0-1.995.75-3.52.75-1.533 2.113-2.395 1.363-.86 3.213-.86 1.492 0 2.659.554a4.76 4.76 0 0 1 1.884 1.534q.725.989.861 2.31h-2.48a2.97 2.97 0 0 0-.938-1.586q-.724-.665-1.943-.665-1.065 0-1.866.563-.794.555-1.236 1.585-.444 1.023-.443 2.42 0 1.432.434 2.472.435 1.04 1.227 1.61.802.572 1.884.572.724 0 1.313-.264.596-.273.997-.776.408-.503.571-1.21h2.48a4.8 4.8 0 0 1-.827 2.267 4.76 4.76 0 0 1-1.849 1.568q-1.15.57-2.702.571m-14.461 0q-1.84 0-3.213-.843-1.372-.845-2.131-2.361-.758-1.518-.758-3.546 0-2.037.758-3.562.759-1.525 2.131-2.37 1.373-.843 3.213-.843c1.84 0 2.298.28 3.213.843s1.625 1.353 2.131 2.37q.758 1.525.758 3.562 0 2.028-.758 3.546-.759 1.517-2.131 2.36-1.373.844-3.213.844m.009-2.139q1.192 0 1.977-.63.784-.63 1.159-1.68.384-1.048.383-2.31 0-1.252-.383-2.3-.375-1.057-1.159-1.697-.784-.639-1.977-.639-1.202 0-1.995.64-.784.639-1.167 1.695a6.8 6.8 0 0 0-.375 2.302q0 1.26.375 2.31.383 1.047 1.167 1.678.793.63 1.995.631M113.379 9.91v2.044h-7.151V9.91zm-5.233-3.137h2.548v12.383q0 .742.221 1.117.222.366.572.503.357.127.775.127.308 0 .537-.042l.358-.068.46 2.105a4 4 0 0 1-.63.17 5 5 0 0 1-1.023.102 4.5 4.5 0 0 1-1.875-.358 3.2 3.2 0 0 1-1.406-1.159q-.537-.784-.537-1.968zm-9.825 16.491q-1.84 0-3.213-.843-1.373-.845-2.13-2.361-.76-1.518-.76-3.546 0-2.037.76-3.562.758-1.525 2.13-2.37 1.373-.843 3.213-.843c1.84 0 2.298.28 3.213.843s1.625 1.353 2.131 2.37q.758 1.525.758 3.562 0 2.028-.758 3.546-.759 1.517-2.131 2.36-1.373.844-3.213.844m.008-2.139q1.194 0 1.978-.63t1.159-1.68q.383-1.048.383-2.31 0-1.252-.383-2.3-.375-1.057-1.159-1.697-.784-.639-1.978-.639-1.2 0-1.994.64-.784.639-1.167 1.695a6.8 6.8 0 0 0-.375 2.302q0 1.26.375 2.31.382 1.047 1.167 1.678.793.63 1.995.631ZM84.065 23V9.91h2.463v2.079h.136a3.16 3.16 0 0 1 1.261-1.662 3.6 3.6 0 0 1 2.063-.614 11 11 0 0 1 1.082.06v2.437a5 5 0 0 0-.545-.094 5 5 0 0 0-.784-.06q-.904 0-1.611.384a2.85 2.85 0 0 0-1.517 2.566V23zm-15.147 0V5.545h6.221q2.037 0 3.375.742 1.338.741 2.003 2.028.665 1.28.665 2.881 0 1.611-.674 2.898-.665 1.278-2.01 2.028-1.34.741-3.367.742h-4.279V14.63h4.04q1.287 0 2.088-.444.801-.45 1.176-1.227.375-.776.375-1.764 0-.989-.375-1.756t-1.184-1.201q-.801-.435-2.114-.435h-3.307V23z"/></svg>