
<svg viewBox="0 0 162 28" aria-hidden="true" xmlns="http://www.w3.org/2000/svg">
      <path
        fill="#3b82f6"
        d="M14.362 27.78c-1.956 0-3.756-.324-5.4-.972-1.644-.648-3.072-1.566-4.284-2.754a12.247 12.247 0 0 1-2.808-4.158c-.66-1.596-.99-3.33-.99-5.202 0-2.232.342-4.212 1.026-5.94.696-1.728 1.656-3.18 2.88-4.356a12.48 12.48 0 0 1 4.284-2.7c1.632-.612 3.378-.918 5.238-.918 2.28 0 4.278.354 5.994 1.062 1.716.708 3.144 1.668 4.284 2.88a11.706 11.706 0 0 1 2.538 4.158c.552 1.548.804 3.168.756 4.86-.06 2.328-.546 4.116-1.458 5.364-.912 1.236-2.328 1.854-4.248 1.854a5.839 5.839 0 0 1-2.826-.702 3.703 3.703 0 0 1-1.764-2.07l1.044.054c-.492.924-1.164 1.572-2.016 1.944a6.464 6.464 0 0 1-2.61.558c-1.212 0-2.28-.258-3.204-.774a5.682 5.682 0 0 1-2.178-2.214c-.528-.948-.792-2.046-.792-3.294 0-1.284.276-2.394.828-3.33a5.77 5.77 0 0 1 2.232-2.196c.936-.516 1.992-.774 3.168-.774.78 0 1.59.162 2.43.486.852.324 1.512.78 1.98 1.368l-.738.936V8.664h2.412l-.054 6.462c0 .924.18 1.62.54 2.088.36.468.894.702 1.602.702.624 0 1.104-.174 1.44-.522.348-.36.588-.846.72-1.458a10.66 10.66 0 0 0 .252-2.106c.036-1.86-.24-3.426-.828-4.698-.588-1.272-1.386-2.298-2.394-3.078a9.499 9.499 0 0 0-3.294-1.71c-1.2-.36-2.394-.54-3.582-.54-1.68 0-3.174.27-4.482.81-1.308.528-2.412 1.278-3.312 2.25-.888.96-1.56 2.1-2.016 3.42-.444 1.308-.654 2.748-.63 4.32.048 1.56.33 2.964.846 4.212a9.324 9.324 0 0 0 2.16 3.204 9.38 9.38 0 0 0 3.276 2.034c1.26.468 2.64.702 4.14.702.84 0 1.674-.096 2.502-.288.84-.18 1.608-.438 2.304-.774l1.026 2.808c-.924.432-1.896.75-2.916.954a14.649 14.649 0 0 1-3.078.324Zm-.144-10.098c.852 0 1.566-.246 2.142-.738.576-.492.864-1.326.864-2.502 0-1.068-.258-1.872-.774-2.412-.504-.552-1.218-.828-2.142-.828-1.092 0-1.908.288-2.448.864-.54.576-.81 1.368-.81 2.376 0 1.032.276 1.83.828 2.394.564.564 1.344.846 2.34.846Z"
      />
      <path
        fill="#3b82f6"
        d="M51.799 7.813V5.545h13.509v2.268H59.86V23h-2.624V7.812h-5.438ZM39.392 23h-2.795l6.28-17.455h3.043L52.203 23h-2.796L44.472 8.716h-.137L39.392 23Zm.469-6.835h9.068v2.216h-9.068v-2.216Z"
      />
      <path
        fill="#3f3f46"
        d="M161.144 5.545V23h-2.548V5.545h2.548ZM149.649 23.264c-1.227 0-2.298-.281-3.213-.843-.915-.563-1.625-1.35-2.131-2.361-.505-1.012-.758-2.194-.758-3.546 0-1.358.253-2.545.758-3.562.506-1.017 1.216-1.807 2.131-2.37.915-.562 1.986-.843 3.213-.843s2.298.28 3.213.843 1.625 1.353 2.131 2.37c.506 1.017.758 2.204.758 3.562 0 1.352-.252 2.534-.758 3.546-.506 1.011-1.216 1.798-2.131 2.36-.915.563-1.986.844-3.213.844Zm.009-2.139c.795 0 1.454-.21 1.977-.63.523-.421.909-.98 1.159-1.68.256-.699.384-1.468.384-2.31 0-.834-.128-1.602-.384-2.3-.25-.705-.636-1.27-1.159-1.697-.523-.426-1.182-.639-1.977-.639-.801 0-1.466.213-1.995.64-.522.426-.912.991-1.167 1.695a6.789 6.789 0 0 0-.375 2.302c0 .84.125 1.61.375 2.31.255.698.645 1.258 1.167 1.678.529.42 1.194.631 1.995.631ZM136.032 23.264c-1.267 0-2.358-.287-3.273-.86-.909-.58-1.608-1.378-2.096-2.395-.489-1.018-.733-2.182-.733-3.495 0-1.33.25-2.503.75-3.52.5-1.022 1.204-1.82 2.113-2.395.909-.573 1.98-.86 3.213-.86.995 0 1.881.184 2.659.554a4.764 4.764 0 0 1 1.884 1.534c.483.659.77 1.429.861 2.31h-2.48a2.974 2.974 0 0 0-.938-1.586c-.483-.443-1.13-.665-1.943-.665-.71 0-1.332.188-1.866.563-.529.37-.941.898-1.236 1.585-.296.682-.443 1.489-.443 2.42 0 .955.144 1.779.434 2.472.29.693.699 1.23 1.227 1.61.535.382 1.162.572 1.884.572.483 0 .92-.088 1.313-.264.397-.182.73-.44.997-.776.272-.335.463-.739.571-1.21h2.48a4.823 4.823 0 0 1-.827 2.267 4.76 4.76 0 0 1-1.849 1.568c-.767.38-1.668.571-2.702.571ZM121.571 23.264c-1.227 0-2.298-.281-3.213-.843-.915-.563-1.625-1.35-2.131-2.361-.505-1.012-.758-2.194-.758-3.546 0-1.358.253-2.545.758-3.562.506-1.017 1.216-1.807 2.131-2.37.915-.562 1.986-.843 3.213-.843s2.298.28 3.213.843 1.625 1.353 2.131 2.37c.505 1.017.758 2.204.758 3.562 0 1.352-.253 2.534-.758 3.546-.506 1.011-1.216 1.798-2.131 2.36-.915.563-1.986.844-3.213.844Zm.009-2.139c.795 0 1.454-.21 1.977-.63.523-.421.909-.98 1.159-1.68.256-.699.383-1.468.383-2.31 0-.834-.127-1.602-.383-2.3-.25-.705-.636-1.27-1.159-1.697-.523-.426-1.182-.639-1.977-.639-.802 0-1.466.213-1.995.64-.522.426-.912.991-1.167 1.695a6.789 6.789 0 0 0-.375 2.302c0 .84.125 1.61.375 2.31.255.698.645 1.258 1.167 1.678.529.42 1.193.631 1.995.631ZM113.379 9.91v2.044h-7.151V9.91h7.151Zm-5.233-3.137h2.548v12.383c0 .495.074.867.221 1.117.148.244.339.412.572.503.238.085.497.127.775.127.205 0 .384-.014.537-.042l.358-.068.46 2.105a4.307 4.307 0 0 1-.63.17 4.992 4.992 0 0 1-1.023.102 4.483 4.483 0 0 1-1.875-.358 3.208 3.208 0 0 1-1.406-1.159c-.358-.522-.537-1.179-.537-1.968V6.773ZM98.321 23.264c-1.227 0-2.298-.281-3.213-.843-.915-.563-1.625-1.35-2.13-2.361-.506-1.012-.76-2.194-.76-3.546 0-1.358.254-2.545.76-3.562.505-1.017 1.215-1.807 2.13-2.37.915-.562 1.986-.843 3.213-.843s2.298.28 3.213.843 1.625 1.353 2.131 2.37c.505 1.017.758 2.204.758 3.562 0 1.352-.253 2.534-.758 3.546-.506 1.011-1.216 1.798-2.131 2.36-.915.563-1.986.844-3.213.844Zm.008-2.139c.796 0 1.455-.21 1.978-.63.523-.421.909-.98 1.159-1.68.256-.699.383-1.468.383-2.31 0-.834-.127-1.602-.383-2.3-.25-.705-.636-1.27-1.159-1.697-.523-.426-1.182-.639-1.978-.639-.8 0-1.465.213-1.994.64-.522.426-.912.991-1.167 1.695a6.789 6.789 0 0 0-.375 2.302c0 .84.125 1.61.375 2.31.255.698.644 1.258 1.167 1.678.529.42 1.193.631 1.995.631ZM84.065 23V9.91h2.463v2.079h.136a3.164 3.164 0 0 1 1.261-1.662 3.61 3.61 0 0 1 2.063-.614 10.896 10.896 0 0 1 1.082.06v2.437a4.577 4.577 0 0 0-.545-.094 5.202 5.202 0 0 0-.784-.06c-.603 0-1.14.129-1.611.384a2.85 2.85 0 0 0-1.517 2.566V23h-2.548ZM68.918 23V5.545h6.221c1.358 0 2.483.248 3.375.742.892.494 1.56 1.17 2.003 2.028.443.853.665 1.813.665 2.881 0 1.074-.225 2.04-.674 2.898-.443.852-1.113 1.528-2.01 2.028-.893.494-2.015.742-3.367.742h-4.279V14.63h4.04c.858 0 1.554-.148 2.088-.444.534-.3.926-.71 1.176-1.227.25-.517.375-1.105.375-1.764 0-.66-.125-1.244-.375-1.756-.25-.511-.645-.912-1.184-1.201-.534-.29-1.239-.435-2.114-.435h-3.307V23h-2.633Z"
      />
    </svg>
