<svg width="32" height="32" viewBox="0 0 32 32" fill="none" xmlns="http://www.w3.org/2000/svg">
<g clip-path="url(#clip0_2_308)">
<path d="M26.3333 0H5.66667C2.53705 0 0 2.53705 0 5.66667V25.5333C0 28.6629 2.53705 31.2 5.66667 31.2H26.3333C29.4629 31.2 32 28.6629 32 25.5333V5.66667C32 2.53705 29.4629 0 26.3333 0Z" fill="#00005B"/>
<path d="M12.5764 18.6667H7.61758L6.60866 21.8068C6.59493 21.864 6.56168 21.9145 6.51465 21.9498C6.46762 21.9851 6.40976 22.0028 6.35104 22H3.83945C3.69622 22 3.64614 21.9213 3.68919 21.7639L7.98255 9.45016C8.02546 9.32138 8.06838 9.17469 8.11133 9.01009C8.17686 8.73121 8.21199 8.44606 8.21609 8.15961C8.21319 8.1392 8.21507 8.11839 8.22159 8.09884C8.22812 8.07928 8.2391 8.06151 8.25368 8.04693C8.26825 8.03235 8.28602 8.02136 8.30558 8.01483C8.32513 8.0083 8.34594 8.00642 8.36635 8.00932H11.7796C11.8795 8.00932 11.9368 8.0451 11.9513 8.11667L16.8053 21.7853C16.8482 21.9285 16.8053 22.0001 16.6766 22H13.8859C13.8379 22.0053 13.7897 21.993 13.7502 21.9653C13.7107 21.9377 13.6826 21.8966 13.6712 21.8497L12.5764 18.6667ZM8.39043 16.019H11.7822C11.6963 15.7329 11.5961 15.4109 11.4816 15.053C11.3669 14.6954 11.2452 14.3126 11.1167 13.9045C10.9879 13.4966 10.8591 13.0888 10.7303 12.6809C10.6015 12.273 10.4834 11.8795 10.376 11.5002C10.2688 11.1212 10.1722 10.7742 10.0863 10.4591H10.0648C9.944 11.0389 9.79354 11.6121 9.614 12.1764C9.41342 12.8204 9.20949 13.4788 9.00222 14.1514C8.7946 14.8242 8.59067 15.4468 8.39043 16.019H8.39043Z" fill="#9999FF"/>
<path d="M27.0449 11.4947V19.6683C27.0449 20.0262 27.0485 20.3446 27.0557 20.6236C27.0627 20.9026 27.077 21.1459 27.0986 21.3534C27.1201 21.5611 27.1378 21.6854 27.1523 21.8282C27.1663 21.943 27.1164 22 27.002 22H24.7051C24.6517 22.0056 24.598 21.9941 24.5517 21.9671C24.5053 21.94 24.4688 21.8989 24.4475 21.8497C24.4166 21.7402 24.3915 21.6291 24.3723 21.517C24.3522 21.4244 24.3414 21.3301 24.3401 21.2354C23.9081 21.6209 23.3943 21.9034 22.8374 22.0618C22.3546 22.1933 21.8567 22.2619 21.3563 22.2658C20.8641 22.2717 20.3744 22.1955 19.9073 22.0404C19.4746 21.8927 19.0842 21.6422 18.7695 21.3105C18.4279 20.9413 18.1715 20.5016 18.0182 20.0225C17.8256 19.4081 17.7349 18.7664 17.7499 18.1227V11.5162C17.7465 11.4928 17.7487 11.4691 17.7561 11.4467C17.7636 11.4243 17.7761 11.404 17.7928 11.3873C17.8095 11.3707 17.8298 11.3581 17.8521 11.3507C17.8745 11.3432 17.8983 11.3411 17.9216 11.3444H20.4727C20.496 11.3411 20.5198 11.3433 20.5422 11.3507C20.5645 11.3582 20.5848 11.3707 20.6015 11.3874C20.6181 11.4041 20.6307 11.4244 20.6382 11.4467C20.6456 11.4691 20.6478 11.4928 20.6445 11.5162V17.7792C20.6445 18.3662 20.7733 18.8277 21.0309 19.1638C21.2885 19.5002 21.8071 19.6683 22.4082 19.6683C22.7162 19.6721 23.0221 19.6175 23.3097 19.5073C23.6109 19.4011 23.8957 19.2529 24.1556 19.0672V11.4947C24.1556 11.3948 24.22 11.3444 24.3488 11.3444H26.8947C26.9151 11.3416 26.9359 11.3435 26.9554 11.35C26.975 11.3565 26.9927 11.3675 27.0073 11.3821C27.0219 11.3967 27.0328 11.4144 27.0394 11.434C27.0459 11.4535 27.0478 11.4743 27.0449 11.4947Z" fill="#9999FF"/>
</g>
<defs>
<clipPath id="clip0_2_308">
<rect width="32" height="31.2" fill="white"/>
</clipPath>
</defs>
</svg>
