<svg width="1821" height="309" viewBox="0 0 1821 309" fill="none" xmlns="http://www.w3.org/2000/svg">
<g clip-path="url(#clip0_575_4)">
<path d="M636.491 232.657H538.448L526.368 267.171C524.403 272.788 517.748 277.383 511.581 277.383H458.625C452.459 277.383 449.267 272.875 451.535 267.364L547.509 34.0849C549.774 28.5737 556.676 24.0648 562.845 24.0648H612.505C618.672 24.0648 625.568 28.5762 627.826 34.09L723.418 267.358C725.677 272.872 722.479 277.383 716.313 277.383H663.358C657.191 277.383 650.536 272.788 648.57 267.171L636.491 232.657ZM619.188 182.784L587.468 90.956L555.751 182.784H619.188ZM949.151 277.383C942.983 277.383 935.325 273.235 932.134 268.164L886.857 196.243L841.582 268.164C838.389 273.235 830.731 277.383 824.564 277.383H760.072C753.905 277.383 751.724 273.392 755.227 268.515L842.367 147.162L762.918 33.0208C759.491 28.0951 761.732 24.0648 767.899 24.0648H827.446C833.613 24.0648 841.316 28.1871 844.562 33.2258L886.857 98.874L928.774 33.2476C932 28.197 939.687 24.0648 945.854 24.0648H1005.81C1011.98 24.0648 1014.21 28.0849 1010.76 32.9984L930.934 146.765L1018.48 268.519C1021.99 273.394 1019.81 277.383 1013.64 277.383H949.151ZM1132.94 266.608C1132.94 272.535 1127.9 277.383 1121.73 277.383H1074.13C1067.96 277.383 1062.91 272.535 1062.91 266.608V34.8391C1062.91 28.9133 1067.96 24.0648 1074.13 24.0648H1121.73C1127.9 24.0648 1132.94 28.9133 1132.94 34.8391V266.608ZM1175.12 149.932C1175.12 76.312 1232.79 16.9412 1321.35 16.9412C1409.92 16.9412 1467.59 76.312 1467.59 149.932C1467.59 223.949 1409.92 283.321 1321.35 283.321C1232.79 283.321 1175.12 223.949 1175.12 149.932ZM1395.92 149.932C1395.92 111.54 1367.9 76.7066 1321.35 76.7066C1275.22 76.7066 1246.79 111.54 1246.79 149.932C1246.79 188.328 1275.22 223.949 1321.35 223.949C1367.49 223.949 1395.92 188.328 1395.92 149.932ZM1766.49 277.383C1760.33 277.383 1754.63 272.575 1753.83 266.698L1735.51 130.935L1682.58 267.288C1680.43 272.841 1673.62 277.383 1667.45 277.383H1644.15C1637.98 277.383 1631.18 272.836 1629.05 267.279L1576.09 129.746L1557.75 266.696C1556.96 272.575 1551.27 277.383 1545.1 277.383H1500.38C1494.22 277.383 1489.86 272.58 1490.7 266.709L1523.89 34.7389C1524.73 28.8682 1530.47 24.0648 1536.63 24.0648H1578.05C1584.22 24.0648 1591.06 28.5973 1593.25 34.1375L1655.59 191.889L1718.33 34.1297C1720.52 28.5938 1727.38 24.0648 1733.53 24.0648H1774.96C1781.13 24.0648 1786.87 28.8682 1787.71 34.7389L1820.9 266.709C1821.74 272.58 1817.38 277.383 1811.21 277.383H1766.49ZM354.75 215.609L278.412 87.8475C274.911 81.9755 266.285 77.1714 259.242 77.1714H211.583C200.506 77.1714 195.965 69.6237 201.49 60.3991L227.626 16.7722C229.7 13.3099 229.695 9.04737 227.615 5.5887C225.534 2.13003 221.691 0 217.533 0H151.048C144.004 0 135.36 4.79349 131.836 10.6524L2.6449 225.448C-0.880053 231.307 -0.881407 240.895 2.63949 246.755L35.8815 302.08C41.4207 311.297 50.5038 311.308 56.0661 302.103L82.0403 259.123C87.6039 249.918 96.6855 249.928 102.225 259.146L125.773 298.338C129.294 304.198 137.937 308.992 144.98 308.992H298.613C305.653 308.992 314.298 304.198 317.819 298.338L354.711 236.941C358.232 231.081 358.249 221.482 354.75 215.609ZM251.654 209.46C257.159 218.696 252.599 226.254 241.522 226.254H122.021C110.944 226.254 106.412 218.712 111.951 209.494L171.747 109.977C177.286 100.759 186.349 100.76 191.888 109.978L251.654 209.46Z" fill="black"/>
</g>
<defs>
<clipPath id="clip0_575_4">
<rect width="1821" height="309" fill="white"/>
</clipPath>
</defs>
</svg>
