<svg xmlns="http://www.w3.org/2000/svg" width="41.754" height="48.143" fill="#fff" fill-rule="evenodd" stroke="#000" stroke-linecap="round" stroke-linejoin="round" viewBox="0 0 41.754 48.143">
  <path stroke="none" d="M5.596 0C2.583 0 0 2.874 0 6.227v35.689c0 3.353 2.583 6.227 5.596 6.227h30.562c3.013 0 5.596-2.874 5.596-6.227V9.58L33.144 0h-4.95zm0 3.352h26.257v7.904h6.887v30.66a2.652 2.88 0 0 1-2.582 2.873H5.596c-1.506 0-2.582-1.196-2.582-2.873V6.226c0-1.675 1.076-2.874 2.582-2.874" style="fill:#181818;stroke:none;stroke-width:12.0899;stroke-linecap:square;paint-order:stroke fill markers;fill-opacity:1"/>
  <text xml:space="preserve" x="9.193" y="21.334" style="font-size:20.8586px;line-height:.9;text-align:start;letter-spacing:1.04px;writing-mode:lr-tb;direction:ltr;text-anchor:start;fill:#181818;stroke:none;stroke-width:21.9016;stroke-linecap:square;paint-order:stroke fill markers;fill-opacity:1"><tspan x="9.193" y="21.334" style="font-style:normal;font-variant:normal;font-weight:700;font-stretch:normal;line-height:.9;font-family:Calibri;-inkscape-font-specification:&quot;Calibri Bold&quot;;letter-spacing:1.04px;writing-mode:lr-tb;stroke-width:21.9016;fill:#181818;fill-opacity:1">10</tspan><tspan x="9.193" y="40.885" style="font-style:normal;font-variant:normal;font-weight:700;font-stretch:normal;line-height:.9;font-family:Calibri;-inkscape-font-specification:&quot;Calibri Bold&quot;;letter-spacing:1.04px;writing-mode:lr-tb;stroke-width:21.9016;fill:#181818;fill-opacity:1">01</tspan></text>
  <text xml:space="preserve" x="28.887" y=".565" style="font-style:normal;font-variant:normal;font-weight:700;font-stretch:normal;line-height:.9;font-family:Calibri;-inkscape-font-specification:&quot;Calibri Bold&quot;;text-align:start;writing-mode:lr-tb;direction:ltr;text-anchor:start;fill:#181818;stroke:none;stroke-width:12.6;stroke-linecap:square;paint-order:stroke fill markers;fill-opacity:1"/>
</svg>
