<svg xmlns="http://www.w3.org/2000/svg" viewBox="0 0 1349 519">
  <path fill="#F9DC3E" d="m955 115 1 1h3l1-5-1-2-4 6Zm-31-76v-3h-5v3h5Zm-92 172c0-3-8-14-25-32 0-4 5-9 17-15l33-29c8-10 12-25 14-47l-1-5c-1-14-12-26-32-35-12-9-34-13-65-14-26 2-59 12-101 28-11 8-24 16-39 24v3l4-2c2 0 3 1 3 2l3-1h1v1c0 1-9 9-27 21l1 3h-1l-3-1-4 2v1l3 3-4-1c-4 1-8 3-12 7l1-7c6-27 11-50 13-70v-1c-5-3-9-7-13-12v-6h-1a1864 1864 0 0 1-137 180c-4 2-5 4-4 6l-2-1c-5 8-12 14-22 16l-11 2-2 3 1 2 3-1 1 1-9 3-16 4h-8c-1 2 7 0 4 1l-11 2c-6 2-9 1-10-1h-1l-9 2c0-4-11-18-33-41 0-5 7-12 23-20l44-39c9-12 15-33 17-60v-7c-2-20-16-35-43-48-16-10-44-16-85-17-34 3-79 15-133 36-15 11-32 22-52 33l1 3 5-2c2 0 3 1 3 3l4-2h2v1c0 2-12 11-36 28l2 3h-2l-4-1c0 1-1 2-5 2v2l4 4-5-1c-8 1-15 7-23 17l2 3 11-9 1 5-5 2 4 6c8-8 16-16 26-22 5 1 7 3 7 5l4-1c26-19 51-33 76-41l1 3c-5 7-8 11-10 11 0 2 1 5 3 6C122 235 66 356 0 472l2 5c9-2 14-4 17-6h2v3h3l4-2c0 1 1 2 3 1v4c1 3-1 8-5 15-4 4-8 13-12 26v1h4c14-16 25-32 32-47 42-13 74-25 97-37 22-1 39-7 51-17l-1-2-8 3h-2v-2c16-2 28-6 34-11 32-25 56-42 72-52 34-25 55-49 65-72l6-2h8l1-2h9l12-3 2-1-1 1h5l1 3-57 91-13 16-6 21h1l6-3-2 8 1 3 1 2v3l2-1c4-3 6-6 5-9l8 1 1 1c-3 1-4 3-4 6v1h1c21-23 72-100 113-153-1-6 20-14 64-24h2c1 7-2 23-11 50-5 16-8 25-7 26-7 21-11 33-10 35l-16 51c-10 26-18 54-23 83h4l3-2 1 1-1-4h7c2 0 4-3 5-7 0-7 1-11 4-12l8-25c4-16 7-25 9-28 6-21 10-32 13-32v2l-4 11c-7 34-15 60-23 79l3 10 1-1c19-40 45-119 80-237 1-11 6-19 15-24l-2-2v-2c4 0 7-2 8-4l-10-4 17-75 7-5v4l-4 1 4 5 19-17c4 1 6 3 6 4h2c20-15 40-25 59-32v3l-7 8 1 5c-34 95-77 188-127 276l2 3c7-1 11-3 13-5h1v3h3l2-2 3 1v3c0 2-1 6-4 11-3 3-6 10-9 20v1h2c11-12 20-24 25-36 32-9 57-19 73-28 17-1 30-5 39-13v-1l-6 2h-2v-1c12-2 21-5 26-9 24-18 42-32 55-39 38-29 56-56 54-81Zm-6 1v10l-3 4-2-17 5 3ZM68 131h-1l-1-3 7-1v2l-5 2ZM35 468c-4-2-8-3-11-2v-5c-1-2 0-3 3-4 2 0 3 1 4 5l9-11 4 1c-1 10-4 15-9 16ZM395 91c-2 0-5-5-10-15l-1-4c4 0 7 5 10 16l1 3Zm-5-37-1 3-49-20c32 1 49 7 50 17ZM183 231l-7 1v-3l7-1v3Zm-5-106h1l1 4c-2 1-4 3-6 8l-1-4c3-4 5-6 5-8Zm-15 34 1 6h-2v-6h1Zm-7 12h3c0 5-2 8-5 8h-1l3-8Zm-6 17h2v1l-3 6h-3l-1-2c4 0 5-2 5-5Zm-6 15-1 9h-1l-1-8 3-1ZM88 363c-2 11-4 17-7 17v-2c-1-5 2-10 7-15Zm-10 22v2c0 2-1 3-3 3v-1c0-2 1-3 3-4Zm-3 46h5v2l-5 2h-3c0-2 1-3 3-4Zm148-45c-29 14-46 24-51 29-32 11-48 18-47 21-29 11-47 19-56 24l-9-2c-1-6 2-11 8-14 4-1 9 0 14 2 5-3 14-6 27-9l-1-3H98l30-14h5v1c-8 1-13 4-14 9 0 2 1 3 3 2l10-7c13-2 48-21 105-55l1 3c0 1-5 6-15 13Zm-88 29c8-1 15-4 21-10 3 0 4 0 4 3-4 0-12 3-23 10h-2v-3Zm142-110-44 35c-33 22-50 33-53 33-52 29-85 44-97 45h-2c1-6 25-54 70-143 19-2 51-11 93-28l10-1c22-1 38 3 49 13v6c-8 23-16 37-26 41v-1Zm-86-48 7-1v2l-7 1v-2Zm100-17h5c5 2 7 4 7 6v1c-4 1-9-2-12-7Zm14-80c-5 5-18 15-38 28-7 1-32 10-76 30l-7-2v-3c-1-6 2-14 8-24 4-18 7-28 11-30l37-82c-1-6 7-9 23-12l5-1 1 5 29-4c29-3 44 3 45 17h4l-1-8h4c8 4 13 10 13 17 1 4-2 10-7 17-2 0-3-2-4-5h-3l-1 10c-15 22-26 34-32 34-6 9-10 13-11 13Zm22 57c-3-2-5-3-7-2l-1-5 4-1 7 5c0 2-1 3-3 3Zm23 28 6 4h-2l-1 1-2 1-1-6Zm2 14v-2l4-1 1 2-5 1Zm11 11 14-3v1l-15 4 1-2Zm14 6-15 2v-1l13-4 6-1v2l-4 2Zm14-3c-2 0-3 0-4-2l4-1c2 0 3 0 4 2l-4 1Zm36-39v-2l7-1v2l-6 1h-1Zm40 239v-4h1c2 0 3 0 3 2l1 1-5 1Zm27-229-3-1-11 4-3 1c-1 0-2 0-3-2l18-4 6-3 2 2-6 3Zm14-5v-1l3-2 13-3 1 1-17 5Zm2-26-3 2h-6c0-2 9-6 29-10l3-1v2l-23 7Zm35-38c-1 16-7 25-17 27v-1l-9 4h-9l-1-3c0-1 12-19 38-53l3 1c1 4 0 13-5 25Zm62-53h-1v-2l5-1v2l-4 1Zm-25 256c-3-1-6-2-8-1l-1-4c0-2 1-2 3-3l3 4 7-9 2 1c-1 8-3 12-6 12ZM855 92c-1 0-4-4-8-12v-2c2 0 5 4 8 12v2Zm-4-28-1 2-37-15c25 1 38 5 38 13ZM694 199h-5v-2l5-1v3Zm-4-81 2-1v4c-2 0-3 2-5 6v-3l3-6Zm-11 26 1 4-2 1v-5h1Zm-6 9h3c0 4-1 6-3 6h-2c2-2 2-5 2-6Zm-4 13h1v1l-2 4h-2l-1-1c3 0 4-2 4-4Zm-4 11-1 7h-1l-1-6 3-1Zm-43 122c-2 8-3 12-5 13v-2c-1-4 1-8 5-11Zm-8 17v1c1 1 0 2-2 3v-2l2-3v1Zm-2 35 4-1v2l-4 1h-2c0-1 0-2 2-2Zm112-35c-22 11-35 18-39 22-24 9-36 14-36 16-21 8-35 14-41 18-2 0-4 0-7-2-1-4 1-7 5-10 4 0 8 0 11 2 4-2 11-5 21-7v-3l-8 1c1-1 8-5 23-11h4v1c-7 1-11 3-12 6 0 2 1 3 3 3l7-6c10-2 37-16 80-42l1 2c0 1-4 5-12 10Zm-67 22c7-1 12-3 17-7 2-1 3 0 3 2-3 0-9 2-18 7h-1l-1-2Zm109-83-34 27c-25 16-38 24-40 24-40 22-64 33-74 34h-1c1-4 18-40 53-108 15-1 38-8 71-21l8-1c16-1 28 2 36 10l1 5c-7 17-13 27-20 30Zm-66-37h5l1 1h-6v-1Zm76-13h4c4 2 6 3 6 5v1c-4 0-7-2-10-6Zm10-61c-3 4-13 12-28 22-5 0-24 8-58 22l-5-1v-2c-1-5 2-11 6-18 3-14 6-22 9-24l28-62c-1-4 5-7 17-9h4v3l23-3c22-2 33 3 34 13h3l-1-6h3c6 4 10 8 10 13 0 3-2 8-5 13-2 0-3-1-3-4h-3l-1 8c-11 17-19 26-24 26-4 6-7 9-9 9Zm12 42v-4h2l6 3c0 2-1 3-2 3l-6-2ZM333 429h-3l-2 2c0 2 1 2 3 2s2-1 2-3v-1Zm-10-20v1c2 0 2-1 2-3v-1c-2 0-3 1-2 3Zm71-133 1-1h-1l-1 1h1Zm-1-34 3-1v-3l-3 1v3Zm707 101-7-1-1 2v2l40-4v-2l-32 3Zm207-26v3l4 1v-3l-4-1Zm-6 1c-31 7-35 5-41 6v2h4l3-2c30-3 34-2 34-5v-1Zm-183-44-3-1-3 10v1c2 0 4-3 6-10Zm-37-20v-1h-1l-3 1 2 3c2 0 3-1 2-3Zm80 82v-2h-1v2h1Zm165-37h2l1-3-1-2c-7 0-10 1-15 4l-1-2-8 1c0-2-1-4-2-3h-4c-5 0-8 0-10 2l-1-1h-5l-3 2v-2l-2 2v-1l-7-1h-2l1 3 3 1 3-1 4 1 3-1v1c-16 4-16 3-27 5l-2-1c-2 0-2-1-2-2l5-1 4 1 7-3v-3c-16 3-9 1-29 3h-1v-2l25-4 1 1 3-1 2-1c9 0 12 1 29-3v1l3-2h2c0-2 4-3 5-3v-3c-30 7-38 5-46 7v-1c-8 2-9 1-11 1l-2 2-1-2h-1l-25 5-1-1c-14 2-10 3-28 5l-3 1-1-1-11 1-8 2-1-1-11 2c-2 0 1-1 0-1l-3 1h-12l-19 3-8-1c1 1 0 1-1 1-8-1-12-2-12-4 1-7 3-11 6-12h1l-1 3h1l4-4v-3h-3v-2l1-5 6-10v3h3l-1-3-1-2 5-3v-1h-4v-4l11-27 2 1c2 0 3-1 3-3h-3v-1l1-5c4-5 6-9 6-14l1 2c14-27 26-54 35-83 22-60 21-66 24-80h-3l-1 5-4-1v-1c0-5 2-11 6-18h2l2 8h2l2-10c0-2-1-2-3-3l-2 2V15h-1l-4-5-14 1-2-4c0-2 4-3 10-4l3 1 3-2c0 1 0 2 1 1l3-1 2 1h1V0h-16l-3 2V0l-114 10h-14l-3 1-3-1-10 3-11-1-6 2h16l-21 5-3-1-47 7-6-1-13 2-22 10 1 3 5-2 8 1-1 7c-7 3-12 8-13 14-11 5-16 9-16 11v1h1l3-1 4 4v6c1 1-18 41-56 117l-51 122c-11 3-17 8-19 14 0 2 4 3 10 4v2l-3 5 1 6c0 3 8 5 24 7l2-2-3 21h1c7-9 10-15 10-18l1-1c2 0 3 2 5 6-2 1-9 17-21 48l2 3 2-1c15-37 24-57 28-61l100-10 3-2 1 1h4l3-2c0 1 0 2 1 1l36-3c10 0 14-3 14-8 0-2 5-3 17-5l5 1c-1-1 5-2 17-3 0-6 2-9 5-9v-3l-11 3-14-2-5 2h-25l-3 2-2-1h-1l-3 2-8-3-4 2-6 1v-2c32-3 48-8 48-13 2 0 3 1 3 3l10-3-1-2-77 2-1 1h-10c-2 0-4 0-6 2l-3-2c-10 1-17 2-22 4h-22l-17 2-8-1c10-37 26-72 46-104l5 1 12-4 7 1c10-1 23-4 37-9l8 1 9-2 28-3c12-1 25-3 39-8v-3c-6 1-8 0-8-2-1-4-5-6-12-5v-3l8-2 20-2-1-3h-12v-3l7-1c3 0 3-1 3-3l-16-1c-38 5-76 6-114 4l-2-3c19-42 31-62 34-63l-3 8 1 1h3c7-19 14-28 19-28 23-2-3-4 46-12l5 2 80-13v-3l-18 2v-3l5-2v2l4-2c4-1 6 0 8 1l15-3 12-2 4-4-1-2h-10c0-2 1-3 3-4l21-2 10-2 2 1 4-2 1 1-4 11-3 1-1-6-2 1c-26 72-37 106-61 161-5 14-8 22-12 24 0 2 1 2 3 2 1 7-1 14-5 21-11 32-18 49-22 53l2 15c1 1 0 2-2 2l-3 1c0-5-1-7-4-6h-2c-3 5-6 11-7 18h2c4-2 5-5 5-8h5l3 1-3 9 1 2-3 8v1l10 3 8-3h33l10-4h24l4-1 2-1v1c11-1 12 0 20 1v1l-6 1 1 2c1 0 3 0 4-2 2 0 3 1 3 3l-8 2-3-1-6 1h-4l-1 1c0 1 1 2 3 2h4l22-2 8-2 1 1 4-1 8-1 18-3 1-1v1l25-5v1c5-1 2-1 4-2l1 1h3v-3h-9l-8 1-19 1v-1l10-2h4l2-2v2c15-2 20 2 86-12 4 0 4-3 6-10h-3c-6 2-9 1-19 2-1 0-2 0-2-2v-1h10c2 0 5 0 11-3l-1 1Zm-492 8h-5l7-21h3c1 2-1 10-5 21Zm5-23v-1c0-2 1-3 3-4v2c0 2-1 3-3 3Zm63 48v2h-8v-1l8-1Zm-10 0c0 1-2 3-7 5l-10-1h-3v-3l20-1Zm64-291h-5v-2l3-3h1l3 1c1 2 0 3-2 4Zm71-14h2v2l-5 1c0-2 1-3 3-3Zm-18 6-7-1v-1l18-4c0 2 1 2 3 2v3h-3l-5-1-6 2Zm9 26v-1l11-2v2l-11 1Zm12-10v-2h6v1l-6 1Zm2-20h-2l1-3 13-1v2l-12 2Zm6 28v-3l5-1c2 0 3 1 3 3l-8 1Zm34-46-7 2h-2l-13-1 22-1Zm-8 32v1l-10 1v-1l10-1Zm16 7c0-1-2-2-5-2l-10 3h-8l-3-3 9 1 20-3h10v2l-13 2Zm102-26h3c3-3 7-6 12-8-4 16-10 28-17 35l-6-3c5-12 8-20 8-24Zm-17 30 2-1c-2 4-4 6-5 6l-1-4 4-2v1Zm-11 26c3-11 5-17 8-18v1c-2 10-4 15-7 16l1 6c-3 3-4 6-4 8h-1l-1-9c2 0 3-1 4-4Zm-4 14-3 11h-2v-4l5-7Zm-81 235v-1l3-1v4c-2 0-3-1-3-2Zm115 3-1-2-7 1v-1h1l15-2v2l-8 2Zm-7-22-8 1v-1l8-1 6-2c0 1 1 2 2 1l11-2c1 0 2 1 2 3l-21 1Zm30-2-8-1v-1l8-1v1c-1 1 2 1 0 2Zm1-2v-1h4v1h-4Zm9 0v-1l3-2c2 0 3 1 4 3h-7Zm12-2v-1l5-1v2h-5Zm7 0c0-2 1-3 2-3l2 2 1-1 1 2-6-1v1Zm101-13c0-1 1-1-1-2-1 1 1 2-1 2v1l-2 2 4-1h1l-1-3v1Zm7 5h-1v3l6-1-5-2Z"/>
</svg>
