<svg xmlns="http://www.w3.org/2000/svg" width="988" height="149" fill="none" viewBox="0 0 988 149"><g fill="#000" clip-path="url(#a)"><path d="M285.794 73.751c12.207 7.033 18.311 17.648 18.311 31.845 0 11.81-4.18 21.496-12.539 29.059-8.359 7.563-18.643 11.345-30.85 11.345h-59.113V6.677h54.933c11.942 0 21.96 3.716 30.054 11.146 8.227 7.298 12.34 16.652 12.34 28.064 0 11.544-4.379 20.832-13.136 27.864Zm-29.258-41.399H229.07v30.651h27.466c4.246 0 7.762-1.459 10.549-4.378 2.919-2.92 4.379-6.568 4.379-10.947s-1.394-8.028-4.18-10.947c-2.786-2.919-6.369-4.379-10.748-4.379Zm4.18 87.973c4.644 0 8.492-1.526 11.544-4.578 3.052-3.184 4.578-7.165 4.578-11.942 0-4.644-1.526-8.492-4.578-11.544-3.052-3.184-6.9-4.777-11.544-4.777H229.07v32.841h31.646Zm137.388-73.841h25.675V146h-25.675v-11.743c-7.696 9.686-18.51 14.529-32.442 14.529-13.269 0-24.68-5.042-34.234-15.126-9.42-10.217-14.131-22.69-14.131-37.418 0-14.729 4.711-27.135 14.131-37.219 9.554-10.217 20.965-15.326 34.234-15.326 13.932 0 24.746 4.843 32.442 14.53V46.484Zm-47.369 70.059c5.174 5.175 11.742 7.762 19.704 7.762 7.961 0 14.529-2.587 19.704-7.762 5.307-5.307 7.961-12.074 7.961-20.301 0-8.227-2.654-14.928-7.961-20.102-5.175-5.308-11.743-7.962-19.704-7.962-7.962 0-14.53 2.654-19.704 7.962-5.175 5.174-7.763 11.875-7.763 20.102s2.588 14.994 7.763 20.301Zm119.234-41.797c0 2.654 1.725 4.843 5.175 6.568 3.582 1.593 7.895 3.052 12.937 4.379 5.042 1.194 10.084 2.787 15.126 4.777 5.043 1.858 9.289 5.042 12.738 9.554 3.583 4.511 5.374 10.15 5.374 16.917 0 10.217-3.848 18.112-11.544 23.685-7.563 5.44-17.05 8.16-28.461 8.16-20.434 0-34.366-7.894-41.797-23.684l22.292-12.539c2.919 8.624 9.421 12.937 19.505 12.937 9.155 0 13.733-2.853 13.733-8.559 0-2.654-1.791-4.777-5.374-6.369-3.45-1.725-7.696-3.251-12.738-4.578a134.096 134.096 0 0 1-15.126-4.975c-5.043-1.991-9.355-5.109-12.937-9.355-3.45-4.379-5.175-9.819-5.175-16.321 0-9.818 3.582-17.514 10.747-23.087 7.298-5.706 16.321-8.559 27.069-8.559 8.094 0 15.458 1.858 22.092 5.573 6.635 3.583 11.876 8.758 15.724 15.525l-21.894 11.942c-3.184-6.767-8.492-10.151-15.922-10.151-3.317 0-6.104.73-8.36 2.189-2.123 1.46-3.184 3.45-3.184 5.971Zm88.196 32.045c3.45 12.472 12.805 18.709 28.064 18.709 9.819 0 17.249-3.318 22.291-9.952l20.7 11.942c-9.819 14.198-24.282 21.296-43.389 21.296-16.454 0-29.656-4.975-39.608-14.927-9.951-9.952-14.927-22.491-14.927-37.617 0-14.994 4.909-27.467 14.728-37.418 9.819-10.084 22.425-15.127 37.816-15.127 14.596 0 26.604 5.042 36.025 15.127 9.554 10.084 14.331 22.557 14.331 37.418 0 3.317-.332 6.833-.996 10.549h-75.035Zm-.398-19.904h50.753c-1.459-6.767-4.511-11.809-9.155-15.126-4.511-3.317-9.686-4.976-15.525-4.976-6.899 0-12.605 1.791-17.116 5.374-4.512 3.45-7.497 8.359-8.957 14.728Zm202.52-40.403h27.268L755.909 146h-24.481l-18.311-60.307L694.806 146h-24.481l-31.646-99.516h27.267l16.918 61.103 18.112-61.103h24.282l18.112 61.302 16.917-61.302Zm58.914 60.307c3.45 12.472 12.804 18.709 28.064 18.709 9.818 0 17.249-3.318 22.291-9.952l20.7 11.942c-9.819 14.198-24.282 21.296-43.39 21.296-16.453 0-29.655-4.975-39.607-14.927-9.952-9.952-14.927-22.491-14.927-37.617 0-14.994 4.909-27.467 14.728-37.418 9.819-10.084 22.424-15.127 37.816-15.127 14.596 0 26.604 5.042 36.025 15.127 9.554 10.084 14.33 22.557 14.33 37.418 0 3.317-.331 6.833-.995 10.549h-75.035Zm-.398-19.904h50.753c-1.459-6.767-4.511-11.809-9.155-15.126-4.512-3.317-9.687-4.976-15.525-4.976-6.9 0-12.605 1.791-17.117 5.374-4.511 3.45-7.497 8.359-8.956 14.728ZM913.155 146V.706h25.675V146h-25.675Zm49.175 0V.706h25.675V146H962.33Z"/><path fill-rule="evenodd" d="M82.456 8C61.103 8 43.792 25.31 43.792 46.664v17.073h-5.128C17.31 63.737 0 81.048 0 102.401v44.136h74.591c22.865 0 41.4-18.535 41.4-41.4 0-5.04-.9-9.87-2.55-14.337h4.943c22.864 0 41.4-18.536 41.4-41.4 0-22.865-18.536-41.4-41.4-41.4H82.456Zm30.985 82.8c-5.832-15.798-21.025-27.063-38.85-27.063H43.792V90.8h69.649Z" clip-rule="evenodd"/></g><defs><clipPath id="a"><path fill="#fff" d="M0 0h988v149H0z"/></clipPath></defs></svg>