<svg xmlns="http://www.w3.org/2000/svg" data-name="Layer 1" viewBox="0 0 1280 1280">
  <path d="M0 101.12c0-34.64 0-51.95 6.53-65.28A63.976 63.976 0 0 1 35.85 6.52C49.17 0 66.48 0 101.12 0h1077.76c34.63 0 51.96 0 65.28 6.53a64.07 64.07 0 0 1 29.32 29.32c6.52 13.32 6.52 30.64 6.52 65.28v1077.76c0 34.63 0 51.96-6.52 65.28a64.163 64.163 0 0 1-29.32 29.32c-13.32 6.52-30.65 6.52-65.28 6.52H101.12c-34.64 0-51.95 0-65.28-6.52a64.07 64.07 0 0 1-29.32-29.32c-6.53-13.32-6.53-30.65-6.53-65.28V101.12Z" style="fill:#00f"/>
</svg>
