<svg xmlns="http://www.w3.org/2000/svg" id="Layer_1" data-name="Layer 1" viewBox="0 0 1280 323.84">
  <defs>
    <style>
      .cls-1{fill:#fff}
    </style>
  </defs>
  <path d="M447.23 323.58c-25.22 0-49.54-9.22-63.87-33.54h-8.32v26.62H317.7V0h57.34v115.2h8.32c14.72-25.22 42.24-34.94 67.07-34.94 61.95 0 103.81 49.54 103.81 119.3s-45.95 123.9-107.01 123.9v.13Zm-12.41-51.32c35.33 0 60.54-28.93 60.54-70.27s-25.73-70.27-60.54-70.27-59.65 27.52-59.65 70.27 25.22 70.27 59.65 70.27Zm225.4 51.32c-44.03 0-79.87-26.62-79.87-70.27s39.42-67.97 87.17-72.96l67.46-6.91v-12.8c0-19.71-16.13-33.54-44.54-33.54s-42.75 11.9-47.74 29.82h-55.04c5.5-43.65 41.73-76.67 102.78-76.67s97.79 28.42 97.79 83.97v112c0 14.21 1.41 33.92 2.3 39.42v.9h-55.04c-.51-7.81-.51-15.1-.51-22.91h-8.32c-14.21 22.91-39.04 29.82-66.56 29.82l.13.13Zm15.62-43.13c37.63 0 59.26-28.42 59.26-57.34v-11.52l-50.56 6.02c-31.23 3.71-46.34 12.8-46.34 33.02s15.62 29.82 37.63 29.82Zm250.24 43.13c-57.86 0-99.2-28.93-105.6-74.37h56.45c6.4 20.22 27.52 28.93 49.54 28.93s40.83-9.6 40.83-26.62-17.41-21.63-41.34-25.73l-24.32-4.1c-45.95-7.81-74.37-27.14-74.37-68.35s39.42-72.96 94.08-72.96 88.58 24.83 98.18 67.97h-55.04c-6.4-17.02-23.42-23.81-42.75-23.81s-38.53 10.11-38.53 24.32 11.9 19.33 36.74 23.42l24.32 4.1c44.54 7.3 78.46 25.73 78.46 70.27s-40.45 77.18-96.9 77.18l.26-.26Zm240.51 0c-70.66 0-117.5-48.26-117.5-122.11s49.54-121.22 118.02-121.22 112.9 53.25 112.9 123.52v10.11h-174.85c2.82 38.14 29.44 60.54 61.57 60.54s42.75-9.22 50.56-25.22h58.75c-11.9 43.14-54.66 74.37-109.31 74.37h-.13Zm57.35-147.71c-4.61-30.72-28.93-48.64-57.34-48.64s-55.04 17.41-60.54 48.64h118.02-.13ZM13.82 316.8C4.6 316.8 0 312.19 0 302.98V100.99c0-9.22 4.61-13.82 13.82-13.82H215.8c9.22 0 13.82 4.61 13.82 13.82v201.98c0 9.22-4.61 13.82-13.82 13.82H13.82Z" class="cls-1"/>
</svg>
