<svg width="32" height="32" viewBox="0 0 32 32" fill="none" xmlns="http://www.w3.org/2000/svg">
<g clip-path="url(#clip0_2_55)">
<path d="M26.3333 0H5.66667C2.53705 0 0 2.53705 0 5.66667V25.5333C0 28.6629 2.53705 31.2 5.66667 31.2H26.3333C29.4629 31.2 32 28.6629 32 25.5333V5.66667C32 2.53705 29.4629 0 26.3333 0Z" fill="#000B1D"/>
<path d="M5.65363 21.8579V8.22658C5.65363 8.0978 5.69655 8.02625 5.7824 8.01193C6.02557 7.99783 6.39766 7.9871 6.89868 7.97974C7.39946 7.97267 7.94327 7.96551 8.53012 7.95825C9.11678 7.95122 9.65345 7.94764 10.1401 7.94751C11.3135 7.94751 12.2472 8.07632 12.9415 8.33394C13.6355 8.59152 14.1686 8.91709 14.5408 9.31066C14.8846 9.65745 15.142 10.0803 15.2922 10.545C15.4134 10.9271 15.4785 11.3248 15.4853 11.7257C15.4929 12.154 15.4201 12.58 15.2707 12.9815C15.1478 13.3107 14.974 13.6186 14.7554 13.8938C14.5926 14.1029 14.3968 14.2841 14.1759 14.4305C14.4813 14.5923 14.766 14.7905 15.0238 15.0208C15.3577 15.3202 15.631 15.6809 15.8288 16.0834C16.0733 16.5991 16.1911 17.1659 16.1722 17.7363C16.1857 18.5527 15.9333 19.3514 15.4531 20.0118C14.9735 20.6702 14.2866 21.1818 13.3924 21.5467C12.4978 21.9116 11.428 22.0941 10.1831 22.0941H8.75551C8.30473 22.0941 7.88971 22.0905 7.51046 22.0833C7.1311 22.0759 6.80195 22.0688 6.52302 22.0619C6.24392 22.0545 6.00421 22.0509 5.80388 22.0511C5.70356 22.037 5.65347 21.9726 5.65363 21.8579ZM8.55161 10.5021V13.4859H10.0113C10.3978 13.4859 10.777 13.4931 11.1491 13.5074C11.416 13.5094 11.6821 13.5381 11.9433 13.5932C12.1329 13.4314 12.2895 13.2346 12.4049 13.0136C12.5349 12.7466 12.5976 12.4518 12.5873 12.155C12.6022 11.8178 12.504 11.4854 12.3082 11.2105C12.1002 10.9521 11.82 10.7615 11.5033 10.6631C11.069 10.5295 10.6158 10.4678 10.1616 10.4806H9.53904C9.35291 10.4806 9.18477 10.4842 9.03462 10.4913C8.88435 10.4987 8.72335 10.5023 8.55161 10.5021ZM8.55161 16.019V19.561C8.79477 19.5754 9.03807 19.5861 9.28149 19.5932C9.52465 19.6006 9.81803 19.6042 10.1616 19.6039C10.6868 19.6118 11.2106 19.5468 11.7179 19.4107C12.1104 19.3171 12.4656 19.1077 12.7376 18.8097C12.9707 18.5261 13.0927 18.1676 13.0811 17.8007C13.0893 17.4443 12.9923 17.0933 12.802 16.7918C12.6159 16.5057 12.2724 16.2982 11.7716 16.1693C11.577 16.1223 11.38 16.0864 11.1813 16.0619C10.9213 16.0312 10.6596 16.0169 10.3978 16.019L8.55161 16.019Z" fill="white"/>
<path d="M20.5742 17.5002C20.6262 17.9011 20.7654 18.2858 20.9821 18.6272C21.2222 18.9851 21.5617 19.2649 21.9589 19.4322C22.3952 19.6328 22.964 19.7329 23.6654 19.7327C24.1296 19.7347 24.593 19.6952 25.0501 19.6147C25.4816 19.5375 25.9029 19.4115 26.3059 19.239C26.3773 19.182 26.4131 19.2175 26.4131 19.3463V21.3857C26.4167 21.4412 26.4056 21.4967 26.381 21.5467C26.3564 21.5857 26.3234 21.6187 26.2844 21.6432C25.8399 21.8535 25.3713 22.0085 24.8891 22.1048C24.2664 22.2218 23.6335 22.2757 23 22.2658C21.9837 22.2658 21.1321 22.1084 20.4454 21.7935C19.7963 21.5075 19.2229 21.0738 18.771 20.527C18.349 20.0117 18.0351 19.4167 17.848 18.7775C17.6627 18.1465 17.5687 17.4923 17.5689 16.8347C17.5669 16.1167 17.6792 15.403 17.9016 14.7203C18.1158 14.0543 18.4545 13.4351 18.8998 12.8956C19.339 12.3624 19.8882 11.9304 20.5098 11.6291C21.2089 11.3066 21.9727 11.1487 22.7424 11.1675C23.4545 11.1495 24.1618 11.2888 24.8139 11.5754C25.365 11.825 25.8474 12.2043 26.22 12.6809C26.5717 13.1348 26.8405 13.6471 27.0142 14.1943C27.1833 14.7217 27.2702 15.272 27.2718 15.8258C27.2718 16.1407 27.2611 16.427 27.2396 16.6845C27.2182 16.942 27.1766 17.2097 27.1625 17.3241C27.1553 17.3707 27.1321 17.4134 27.0968 17.4448C27.0615 17.4761 27.0165 17.4942 26.9693 17.4958C26.8834 17.4958 20.5742 17.5002 20.5742 17.5002ZM20.5742 15.4179H23.3864C23.7298 15.4179 23.9838 15.4143 24.1484 15.4072C24.253 15.4072 24.3573 15.3964 24.4597 15.375V15.2462C24.4554 15.0783 24.4265 14.9119 24.3738 14.7525C24.258 14.3862 24.0251 14.0681 23.711 13.8471C23.3969 13.626 23.0189 13.5142 22.635 13.5289C22.2738 13.507 21.914 13.5908 21.5995 13.7699C21.285 13.9491 21.0295 14.2159 20.8641 14.5378C20.7176 14.8123 20.6196 15.1101 20.5742 15.4179Z" fill="white"/>
<path d="M19.2218 7.54453H25.6403C25.7404 7.54453 25.7908 7.60199 25.7908 7.71652V9.45798C25.7942 9.48135 25.792 9.50517 25.7846 9.52757C25.7771 9.54996 25.7645 9.57031 25.7478 9.587C25.7312 9.60369 25.7108 9.61627 25.6884 9.62372C25.666 9.63118 25.6422 9.63332 25.6188 9.62997H19.2003C19.0999 9.62997 19.0498 9.57288 19.0498 9.45798V7.69504C19.0498 7.59494 19.107 7.54453 19.2218 7.54453Z" fill="white"/>
</g>
<defs>
<clipPath id="clip0_2_55">
<rect width="32" height="31.2" fill="white"/>
</clipPath>
</defs>
</svg>
