<svg xmlns="http://www.w3.org/2000/svg" fill="none" viewBox="0 0 1024 256"><path fill="#000" d="M0 0h1024v256H0z"/><path fill="#fff" d="M96 79h34.699v97.59H96zM203.133 79H240v97.59h-36.867z"/><path fill="#fff" d="M238.916 79v31.446h-69.614V79zM240 145.145v31.446h-70.699v-31.446zM169.301 110.446v34.699h-38.602v-34.699zM281.832 162V93.84h23.424c8.064 0 14.112 1.472 18.144 4.416 4.032 2.944 6.048 7.584 6.048 13.92 0 3.84-1.088 7.072-3.264 9.696-2.112 2.56-5.056 4.192-8.832 4.896 4.672.64 8.32 2.464 10.944 5.472 2.688 2.944 4.032 6.624 4.032 11.04 0 6.208-2.016 10.88-6.048 14.016-4.032 3.136-9.76 4.704-17.184 4.704h-27.264Zm8.256-38.688h15.168c4.992 0 8.832-.928 11.52-2.784 2.688-1.92 4.032-4.576 4.032-7.968 0-7.104-5.184-10.656-15.552-10.656h-15.168v21.408Zm0 30.624h19.008c4.672 0 8.256-.96 10.752-2.88 2.56-1.92 3.84-4.672 3.84-8.256 0-3.584-1.28-6.368-3.84-8.352-2.496-2.048-6.08-3.072-10.752-3.072h-19.008v22.56ZM345.301 162V93.84h42.816v8.064h-34.56v21.984h33.408v7.872h-33.408v22.176h35.328V162h-43.584Zm71.38 0v-60.096h-21.216V93.84h50.688v8.064h-21.216V162h-8.256Zm53.906 0v-60.096h-21.216V93.84h50.688v8.064h-21.216V162h-8.256Zm36.526 0V93.84h42.816v8.064h-34.56v21.984h33.408v7.872h-33.408v22.176h35.328V162h-43.584Zm56.907 0V93.84h25.824c7.168 0 12.832 1.856 16.992 5.568 4.16 3.712 6.24 8.736 6.24 15.072 0 2.624-.544 5.024-1.632 7.2-1.088 2.112-2.496 3.904-4.224 5.376-1.728 1.472-3.616 2.496-5.664 3.072 3.008.512 5.376 1.728 7.104 3.648 1.792 1.92 2.848 4.64 3.168 8.16l1.92 20.064h-8.352l-1.729-19.2c-.255-2.816-1.279-4.896-3.071-6.24-1.728-1.344-4.576-2.016-8.544-2.016h-19.776V162h-8.256Zm8.256-35.52H590.9c4.16 0 7.456-1.056 9.888-3.168 2.432-2.112 3.648-5.12 3.648-9.024 0-3.968-1.248-7.008-3.744-9.12-2.496-2.176-6.112-3.264-10.848-3.264h-17.568v24.576Zm51.636 11.328v-7.584h31.776v7.584h-31.776ZM661.826 162l24.576-68.16h11.136L722.114 162h-9.024l-6.816-19.392h-28.608L670.85 162h-9.024Zm18.624-27.456h23.04l-11.52-33.504-11.52 33.504Zm75.201 28.992c-5.248 0-9.824-1.024-13.728-3.072-3.84-2.048-6.816-4.96-8.928-8.736-2.048-3.84-3.072-8.352-3.072-13.536V93.744h8.256v44.448c0 5.504 1.504 9.76 4.512 12.768 3.072 3.008 7.392 4.512 12.96 4.512 5.504 0 9.76-1.504 12.768-4.512 3.072-3.008 4.608-7.264 4.608-12.768V93.744h8.256v44.448c0 5.184-1.056 9.696-3.168 13.536-2.048 3.776-4.992 6.688-8.832 8.736-3.84 2.048-8.384 3.072-13.632 3.072ZM811.087 162v-60.096h-21.216V93.84h50.688v8.064h-21.216V162h-8.256Zm36.526 0V93.84h8.256v29.856h34.272V93.84h8.256V162h-8.256v-30.24h-34.272V162h-8.256Zm63.83 0v-10.848h10.848V162h-10.848Z"/></svg>