<svg xmlns="http://www.w3.org/2000/svg" xml:space="preserve" version="1.0" viewBox="0 0 1280 1024">
  <path fill="#f1f1f1" fill-rule="evenodd" d="M422 534.9c-4.1-5.6-11.1-10.3-19.6-10.3-15.7 0-27 12.1-27 28.5s11.3 28.5 27 28.5c7.3 0 14.2-3.2 17.8-6.3.2-.2.4-.5.4-.8v-8.9c0-.6-.4-1-1-1h-20.2c-.8 0-1.5-.7-1.5-1.5V550c0-.8.7-1.5 1.5-1.5h36.2v-19.6l-11.7 6.5c-.7.3-1.4.1-1.9-.5zm-170 9.3h21.6c6.2 0 10-3.5 10-9.1 0-5.3-3.9-9.1-10-9.1H252c-.7 0-1.3.6-1.3 1.4v15.5c0 .7.6 1.3 1.3 1.3zm87.7 51.1c0 .7-.5 1.2-1.2 1.2h-15.9c-.7 0-1.2-.5-1.2-1.2v-84.4c0-.7.5-1.2 1.2-1.2h15.9c.7 0 1.2.5 1.2 1.2v84.4zm-66.2-85.6h4.1c16.4 0 24.7 10.5 24.7 22.1 0 9-4.7 15.7-10.9 18.6-.7.3-.9 1.1-.6 1.8.1.3.4.5.7.6 7.3 3 12.5 10.9 12.5 20.1 0 13.1-8.5 23.6-25 23.6h-45.3c-.7 0-1.3-.6-1.3-1.4v-55l-116.8 86.4c-2.2 1.7-1.1 5.2 1.7 5.2h315.5c1.6 0 2.9-1.3 2.9-2.9v-43.7c-8.4 8-19.5 12.9-33.2 12.9-25.2 0-45.8-17.6-45.8-44.9 0-27.5 20.6-44.9 45.8-44.9 15.9 0 26.5 7.3 33.2 16.1V395.6c0-1.6-1.3-2.9-2.8-2.9-.6 0-1.2.2-1.7.6-.2 0-157.7 116.4-157.7 116.4zM252 580.3h22.3c6.8 0 10.9-3.6 10.9-9.9 0-5.5-3.9-9.9-10.9-9.9H252c-.7 0-1.3.6-1.3 1.4V579c0 .6.6 1.3 1.3 1.3zm275.1-2.7-9.8-5.2c-.6-.3-1.4-.1-1.8.5-4.2 6.6-11.8 11.5-20.2 11.5-16.4 0-28.6-13.3-28.6-31.4 0-18.3 12.2-31.4 28.6-31.4 8.3 0 16 4.8 20.2 11.5.4.6 1.2.9 1.8.5l9.8-5.4c.7-.4 1-1.3.6-2 0 0 0-.1-.1-.1-6.2-9.8-16.4-18.1-32.3-18.1-24.5 0-43.5 18.1-43.5 44.9 0 26.7 19 44.9 43.5 44.9 15.9 0 26-8.4 32.4-18.3.4-.7.3-1.6-.4-2-.1.2-.1.1-.2.1zm51.4 6.9c-16.8 0-27.5-13.5-27.5-31.4 0-18 10.7-31.4 27.5-31.4 16.7 0 27.5 13.4 27.5 31.4-.1 17.8-10.9 31.4-27.5 31.4zm-11.8-74.8c-18.5 5-30.6 21.8-30.6 43.4 0 25.9 17.5 44.9 42.4 44.9 21.2 0 37.1-13.9 41.3-34.2 6.8-32.9-21.9-62.5-53.1-54.1zm157.2 0h-18.8c-.8 0-1.6.5-1.9 1.3l-22.8 59.6-22.9-59.6c-.3-.8-1.1-1.3-1.9-1.3h-18.8c-.6 0-1 .5-1 1v84.8c0 .6.4 1 1 1h13c.6 0 1-.5 1-1v-66L677 596c.1.3.4.5.7.5h5.5c.3 0 .6-.2.7-.5l26.1-66.6v66c0 .6.4 1 1 1h13c.6 0 1-.5 1-1v-84.8c0-.5-.5-.9-1.1-.9.1 0 .1 0 0 0zm192.7 0h-55.7c-.9 0-1.6.7-1.6 1.6V595c0 .9.7 1.6 1.6 1.6h55.7c.9 0 1.5-.7 1.5-1.6v-10.3c0-.9-.7-1.6-1.5-1.6h-40.7c-.9 0-1.6-.7-1.6-1.6v-21.1c0-.9.7-1.6 1.6-1.6h39.8c.9 0 1.6-.7 1.6-1.6V547c0-.9-.7-1.6-1.6-1.6h-39.8c-.9 0-1.6-.7-1.6-1.6v-19.2c0-.9.7-1.6 1.6-1.6h40.7c.9 0 1.5-.7 1.5-1.6v-10.3c0-.7-.7-1.4-1.5-1.4zm58.7 40.9h-19.2c-.9 0-1.5-.7-1.5-1.6v-24.5c0-.9.7-1.6 1.5-1.6h19.2c8.5 0 14.7 5.3 14.7 13.7 0 8.6-6.2 14-14.7 14zm11.8 11.3c9.6-2.4 18.3-10.8 18.3-25.1 0-16.1-11.2-27.2-28.2-27.2H941c-.9 0-1.5.7-1.5 1.5v83.7c0 .9.7 1.6 1.5 1.6h12c.9 0 1.5-.7 1.5-1.6v-29.3c0-.9.7-1.6 1.5-1.6h12.6c.5 0 1 .3 1.3.8l18 30.9c.3.5.8.8 1.3.8h13.8c.9 0 1.5-.7 1.5-1.6 0-.3-.1-.6-.2-.8l-18.5-29.9c-.3-.8.3-1.9 1.3-2.2zm136.6-38.8h40.7c.8 0 1.5-.7 1.5-1.5v-10.3c0-.8-.7-1.5-1.5-1.5h-55.8c-.8 0-1.5.7-1.5 1.5V595c0 .9.7 1.5 1.5 1.5h55.8c.8 0 1.5-.7 1.5-1.5v-10.3c0-.8-.7-1.5-1.5-1.5h-40.7c-.8 0-1.5-.7-1.5-1.5v-21.1c0-.9.7-1.5 1.5-1.5h39.8c.8 0 1.5-.7 1.5-1.5V547c0-.8-.7-1.5-1.5-1.5h-39.8c-.8 0-1.5-.7-1.5-1.5v-19.3c0-1 .7-1.6 1.5-1.6zm-31.9 54.2-9.8-5.2c-.7-.3-1.4-.1-1.8.5-4.2 6.6-11.8 11.5-20.2 11.5-16.4 0-28.6-13.3-28.6-31.4 0-18.3 12.2-31.4 28.6-31.4 8.3 0 16 4.8 20.2 11.5.4.6 1.2.9 1.8.5l9.8-5.4c.7-.4 1-1.3.6-2 0 0 0-.1-.1-.1-6.2-9.8-16.4-18.1-32.3-18.1-24.5 0-43.5 18.1-43.5 44.9 0 26.7 19 44.9 43.5 44.9 15.9 0 26-8.4 32.4-18.3.4-.7.3-1.6-.4-2-.1.1-.2.1-.2.1zm-256.6-67.6h-18.9c-.8 0-1.6.5-1.9 1.3l-22.8 59.6-22.9-59.6c-.3-.8-1.1-1.3-1.9-1.3H748c-.6 0-1 .5-1 1v84.8c0 .6.5 1 1 1h13c.6 0 1-.5 1-1v-66l26.2 66.6c.1.3.4.5.7.5h5.4c.3 0 .6-.2.7-.5l26.1-66.6v66c0 .6.4 1 1 1h13c.6 0 1-.5 1-1v-84.8c.1-.6-.4-1-.9-1-.1 0-.1 0 0 0z" clip-rule="evenodd"/>
</svg>
