<svg viewBox="0 0 256 388" xmlns="http://www.w3.org/2000/svg" width="256" height="388" preserveAspectRatio="xMidYMid"><defs><radialGradient id="a" cx="93.717%" cy="77.818%" r="143.121%" fx="93.717%" fy="77.818%" gradientTransform="matrix(-.65486 -.5438 .75575 -.4712 .963 1.654)"><stop offset="0%" stop-color="#00CACC"/><stop offset="100%" stop-color="#048FCE"/></radialGradient><radialGradient id="b" cx="13.893%" cy="71.448%" r="150.086%" fx="13.893%" fy="71.448%" gradientTransform="matrix(.55155 -.39387 .23634 .91917 -.107 .112)"><stop offset="0%" stop-color="#00BBEC"/><stop offset="100%" stop-color="#2756A9"/></radialGradient><linearGradient id="c" x1="50%" x2="50%" y1="0%" y2="100%"><stop offset="0%" stop-color="#00BBEC"/><stop offset="100%" stop-color="#2756A9"/></linearGradient></defs><path fill="url(#a)" d="M129.424 122.047c-7.133.829-12.573 6.622-13.079 13.928-.218 3.147-.15 3.36 6.986 21.722 16.233 41.774 20.166 51.828 20.827 53.243 1.603 3.427 3.856 6.65 6.672 9.544 2.16 2.22 3.585 3.414 5.994 5.024 4.236 2.829 6.337 3.61 22.818 8.49 16.053 4.754 24.824 7.913 32.381 11.664 9.791 4.86 16.623 10.387 20.944 16.946 3.1 4.706 5.846 13.145 7.04 21.64.468 3.321.47 10.661.006 13.663-1.008 6.516-3.021 11.976-6.101 16.545-1.638 2.43-1.068 2.023 1.313-.939 6.74-8.379 13.605-22.7 17.108-35.687 4.24-15.718 4.817-32.596 1.66-48.57-6.147-31.108-25.786-57.955-53.444-73.06-1.738-.95-8.357-4.42-17.331-9.085-1.362-.708-3.219-1.678-4.127-2.154-.907-.477-2.764-1.447-4.126-2.154-1.362-.708-5.282-2.75-8.711-4.539l-8.528-4.446a6021.14 6021.14 0 0 1-8.344-4.357c-8.893-4.655-12.657-6.537-13.73-6.863-1.125-.343-3.984-.782-4.701-.723-.152.012-.838.088-1.527.168Z"/><path fill="url(#b)" d="M148.81 277.994c-.493.292-1.184.714-1.537.938-.354.225-1.137.712-1.743 1.083a8315.383 8315.383 0 0 0-13.204 8.137 2847.83 2847.83 0 0 0-8.07 4.997 388.04 388.04 0 0 1-3.576 2.198c-.454.271-2.393 1.465-4.31 2.654a2651.466 2651.466 0 0 1-7.427 4.586 3958.037 3958.037 0 0 0-8.62 5.316 3011.146 3011.146 0 0 1-7.518 4.637c-1.564.959-3.008 1.885-3.21 2.058-.3.257-14.205 8.87-21.182 13.121-5.3 3.228-11.43 5.387-17.705 6.235-2.921.395-8.45.396-11.363.003-7.9-1.067-15.176-4.013-21.409-8.666-2.444-1.826-7.047-6.425-8.806-8.8-4.147-5.598-6.829-11.602-8.218-18.396-.32-1.564-.622-2.884-.672-2.935-.13-.13.105 2.231.528 5.319.44 3.211 1.377 7.856 2.387 11.829 7.814 30.743 30.05 55.749 60.15 67.646 8.668 3.424 17.415 5.582 26.932 6.64 3.576.4 13.699.56 17.43.276 17.117-1.296 32.02-6.334 47.308-15.996 1.362-.86 3.92-2.474 5.685-3.585a877.227 877.227 0 0 0 4.952-3.14c.958-.615 2.114-1.341 2.567-1.614a91.312 91.312 0 0 0 2.018-1.268c.656-.424 3.461-2.2 6.235-3.944l11.092-7.006 3.809-2.406.137-.086.42-.265.199-.126 2.804-1.771 9.69-6.121c12.348-7.759 16.03-10.483 21.766-16.102 2.392-2.342 5.997-6.34 6.176-6.848.037-.104.678-1.092 1.424-2.197 3.036-4.492 5.06-9.995 6.064-16.484.465-3.002.462-10.342-.005-13.663-.903-6.42-2.955-13.702-5.167-18.339-3.627-7.603-11.353-14.512-22.453-20.076-3.065-1.537-6.23-2.943-6.583-2.924-.168.009-10.497 6.322-22.954 14.03-12.457 7.71-23.268 14.4-24.025 14.87-.756.47-2.056 1.263-2.888 1.764l-7.128 4.42Z"/><path fill="url(#c)" d="m.053 241.013.054 53.689.695 3.118c2.172 9.747 5.937 16.775 12.482 23.302 3.078 3.07 5.432 4.922 8.768 6.896 7.06 4.177 14.657 6.238 22.978 6.235 8.716-.005 16.256-2.179 24.025-6.928 1.311-.801 6.449-3.964 11.416-7.029l9.032-5.572v-127.4l-.002-58.273c-.002-37.177-.07-59.256-.188-60.988-.74-10.885-5.293-20.892-12.948-28.461-2.349-2.323-4.356-3.875-10.336-7.99-2.976-2.048-8.423-5.799-12.104-8.336A186532.885 186532.885 0 0 0 28.617 5.835C22.838 1.85 22.386 1.574 20.639.949 18.367.136 15.959-.163 13.67.084 6.998.804 1.657 5.622.269 12.171.053 13.191.013 26.751.01 100.35l-.003 86.975H0l.053 53.688Z"/></svg>