<?xml version="1.0" encoding="utf-8"?>
<!-- Generator: Adobe Illustrator 24.0.0, SVG Export Plug-In . SVG Version: 6.00 Build 0)  -->
<svg version="1.1" id="Layer_1" xmlns="http://www.w3.org/2000/svg" xmlns:xlink="http://www.w3.org/1999/xlink" x="0px" y="0px"
	 viewBox="0 0 788 788" style="enable-background:new 0 0 788 788;" xml:space="preserve">
<style type="text/css">
	.st0{fill:#0AC18E;}
	.st1{fill:#FFFFFF;}
</style>
<circle class="st0" cx="394" cy="394" r="394"/>
<path id="symbol_1_" class="st1" d="M516.9,261.7c-19.8-44.9-65.3-54.5-121-45.2L378,147.1L335.8,158l17.6,69.2
	c-11.1,2.8-22.5,5.2-33.8,8.4L302,166.8l-42.2,10.9l17.9,69.4c-9.1,2.6-85.2,22.1-85.2,22.1l11.6,45.2c0,0,31-8.7,30.7-8
	c17.2-4.5,25.3,4.1,29.1,12.2l49.2,190.2c0.6,5.5-0.4,14.9-12.2,18.1c0.7,0.4-30.7,7.9-30.7,7.9l4.6,52.7c0,0,75.4-19.3,85.3-21.8
	l18.1,70.2l42.2-10.9l-18.1-70.7c11.6-2.7,22.9-5.5,33.9-8.4l18,70.3l42.2-10.9l-18.1-70.1c65-15.8,110.9-56.8,101.5-119.5
	c-6-37.8-47.3-68.8-81.6-72.3C519.3,324.7,530,297.4,516.9,261.7L516.9,261.7z M496.6,427.2c8.4,62.1-77.9,69.7-106.4,77.2
	l-24.8-92.9C394,404,482.4,372.5,496.6,427.2z M444.6,300.7c8.9,55.2-64.9,61.6-88.7,67.7l-22.6-84.3
	C357.2,278.2,426.5,249.6,444.6,300.7z"/>
</svg>
