<svg xmlns="http://www.w3.org/2000/svg" width="2500" height="2002" viewBox="0.1 16.7 2472.8 1996.5"><path fill="#fff" d="M2007 1486a539 539 0 0 1-387 158c-150 0-288-57-387-157-48-49-84-105-106-166a429 429 0 0 1 29-358c29-52 69-100 118-140 96-78 218-120 346-120s250 41 346 119c49 40 89 87 117 140a437 437 0 0 1-77 524z"/><path fill="#005385" d="M1300 1143c5-81 45-153 105-204 59-50 139-81 226-81 86 0 166 31 225 81 60 51 100 123 105 204 4 84-29 162-88 220-61 58-146 95-242 95s-182-37-243-95c-59-58-92-136-88-220z"/><path fill="#ff7021" d="M775 1308c0 32 10 94 26 143 32 102 86 197 162 281 78 85 173 154 284 203a913 913 0 0 0 746-1 844 844 0 0 0 283-205 757 757 0 0 0 193-438 721 721 0 0 0-109-440 795 795 0 0 0-188-208L1408 57l-2-2c-50-38-135-38-190 0-55 39-62 104-12 145l318 259-971 1h-1c-81 0-158 53-173 119-16 68 39 124 122 125l492-1-878 674-3 3c-83 63-110 169-58 235 53 68 166 68 250 1l479-393s-7 53-7 85zm1232 178a539 539 0 0 1-387 158c-150 0-288-57-387-157-48-49-84-105-106-166a429 429 0 0 1 29-358c29-52 69-100 118-140 96-78 218-120 346-120s250 41 346 119c49 40 89 87 117 140a437 437 0 0 1-77 524z"/></svg>