<svg xmlns="http://www.w3.org/2000/svg" id="Layer_1" data-name="Layer 1" viewBox="0 0 612 352.23"><defs><style>.cls-1{fill:#d82328}</style></defs><path d="M341.57 134.65c-43.48 0-78.85 35.38-78.85 78.86s35.37 78.86 78.85 78.86c19.04 0 37.07-6.74 51.38-19.1l-16.19-19.93a53 53 0 0 1-35.2 13.36c-29.32 0-53.18-23.87-53.18-53.2s23.86-53.2 53.18-53.2c14.18 0 27.52 5.53 37.57 15.58l5.66 5.66-56.98 36.38 15.81 19.45L417 190.53c-3-9.79-7.95-19.05-14.48-27-15.08-18.36-37.29-28.89-60.95-28.89ZM451.01 280.83h.09v-67.68c0-29.4 23.91-53.32 53.31-53.32s53.31 23.92 53.31 53.32v67.68h.09v11.53h25.68v-79.21c0-43.61-35.47-79.08-79.08-79.08-6.45 0-12.89.79-19.16 2.36-25.06 6.26-45.52 24.45-54.75 48.64-3.43 9-5.17 18.44-5.17 28.08v79.21h25.68zM108.29 134.2H75.94v25.76h32.34c29.4 0 53.31 23.92 53.31 53.32s-23.91 53.32-53.31 53.32-53.31-23.92-53.31-53.32V100.5h-.21V76.56L28.99 87.37v75.81h.17l.04 5.93v44.17c0 43.61 35.47 79.08 79.08 79.08s79.08-35.48 79.08-79.08-35.47-79.08-79.08-79.08ZM227.65 216.78V69.53l-25.77 10.81v136.6c.05 23.12 10.23 45.01 27.92 60.06a79.5 79.5 0 0 0 27.93 15.35v-27.6c-18.29-8.89-30.08-27.67-30.08-47.98Z" class="cls-1"/></svg>