<svg xmlns="http://www.w3.org/2000/svg" version="1.1" xmlns:xlink="http://www.w3.org/1999/xlink" x="0" y="0" viewBox="0 0 176 176" style="enable-background:new 0 0 512 512" xml:space="preserve" class=""><g><g data-name="Layer 2"><rect width="176" height="176" fill="#f2780c" rx="24" opacity="1" data-original="#f2780c" class=""></rect><path fill="#ffffff" d="M121.61 75.78V60.5C121.61 44 104.5 33 93.5 33H65.69C46.44 33 33 46.75 33 66v44c0 18.95 13.44 33 33 33h44.31c19.25 0 32.69-14 32.69-33V99c0-16.5-4.89-23.22-21.39-23.22zM68.14 60.5h24.44a7.64 7.64 0 0 1 0 15.28H68.14a7.64 7.64 0 0 1 0-15.28zm39.72 55H68.14a7.64 7.64 0 0 1 0-15.28h39.72a7.64 7.64 0 0 1 0 15.28z" opacity="1" data-original="#ffffff"></path></g></g></svg>