<svg xmlns="http://www.w3.org/2000/svg" width="50" height="50" viewBox="0 0 50 50" fill="none"><rect width="50" height="50" rx="8" fill="#7C3AED"></rect><path d="M15.7756 12.65C17.0823 12.3467 18.2956 12.195 19.4156 12.195C20.5356 12.195 21.4806 12.23 22.2506 12.3V21.05C22.7406 20.7 23.3939 20.3967 24.2106 20.14C25.0273 19.86 25.8089 19.72 26.5556 19.72C29.0989 19.72 30.8839 20.3733 31.9106 21.68C32.9373 22.9867 33.4506 25.215 33.4506 28.365C33.4506 30.115 33.2056 31.6317 32.7156 32.915C32.2489 34.175 31.6073 35.1433 30.7906 35.82C29.2506 37.1267 27.4306 37.78 25.3306 37.78C23.7439 37.78 22.1806 37.3833 20.6406 36.59C20.1973 37.1967 19.6839 37.5 19.1006 37.5H17.3506V16.535C16.5339 16.255 15.8923 15.8583 15.4256 15.345L15.7756 12.65ZM25.0506 34.21C27.2906 34.21 28.4106 32.3317 28.4106 28.575C28.4106 26.5917 28.2123 25.25 27.8156 24.55C27.4423 23.8267 26.7773 23.465 25.8206 23.465C24.3739 23.465 23.1839 23.85 22.2506 24.62V33.615C23.2539 34.0117 24.1873 34.21 25.0506 34.21Z" fill="white"></path></svg>