<svg width="60" height="51" viewBox="0 0 60 51" fill="none" xmlns="http://www.w3.org/2000/svg">
<path d="M29.4449 0H19.4449V16.5L29.4449 6.5V0Z" fill="white"/>
<path d="M26.9449 22.7265C26.9449 22.5077 21.2201 27.0658 16.9449 28.5C13.7491 29.5721 12.3156 29.5038 8.94486 29.5C5.59532 29.4963 0 28.5 0 28.5C0 28.5 5.57953 28.5146 8.94486 27.5C12.5409 26.4158 14.8203 25.5843 17.9449 23.5C23.3445 19.898 29.4449 11.5 29.4449 11.5L29.9449 18C29.9449 18 33.5825 15.8308 36.4449 15C39.4452 14.1291 44.4449 14 44.4449 14C44.4449 14 36.9449 19 34.4449 21.5C31.5322 24.4126 29.8582 26.9017 29.4449 31C29.1217 34.2041 29.4771 36.4508 31.4449 39C33.5792 41.765 35.952 43.0183 39.4449 43C42.677 42.9831 45.3003 42.4182 47.4449 40C49.7406 37.4113 50.2495 34.4466 49.9449 31C49.6603 27.7804 48.4876 25.4953 45.9449 23.5C43.2931 21.4191 36.4449 24 36.4449 24L47.9449 15C47.9449 15 51.5761 16.771 53.4449 18.5C55.711 20.5967 56.7467 22.1546 57.9449 25C59.1784 27.9295 59.4832 29.8216 59.4449 33C59.4089 35.9867 59.179 37.78 57.9449 40.5C56.8475 42.9185 55.8511 44.6507 53.9449 46.5C51.9236 48.4609 50.5803 49.0076 47.9449 50C45.5414 50.9051 44.0131 51 41.4449 51C38.8766 51 37.3235 50.9685 34.9449 50C32.4851 48.9985 29.4449 46 29.4449 46V51H19.4449V37.9904L22.9449 31.4226L26.9449 22.7265Z" fill="white"/>
</svg>
