<svg width="60" height="52" viewBox="0 0 60 52" fill="none" xmlns="http://www.w3.org/2000/svg">
<path d="M29.4449 0H19.4449V16.5L29.4449 6.5V0Z" fill="black"/>
<path d="M26.9449 22.7265C26.9449 22.5077 21.2201 27.0658 16.9449 28.5C13.7491 29.5721 12.3156 29.5038 8.94486 29.5C5.59532 29.4963 0 28.5 0 28.5C0 28.5 5.57953 28.5146 8.94486 27.5C12.5409 26.4158 14.8203 25.5843 17.9449 23.5C23.3445 19.898 29.4449 11.5 29.4449 11.5L29.9449 18.5C29.9449 18.5 33.5124 15.5332 36.4449 15C41.9449 14 45.4449 15 45.4449 15C45.4449 15 36.9449 19 34.4449 21.5C31.5322 24.4126 29.8582 26.9017 29.4449 31C29.1217 34.2041 29.4771 36.4508 31.4449 39C33.5792 41.765 35.952 43.0183 39.4449 43C42.677 42.9831 45.3003 42.4182 47.4449 40C49.7406 37.4113 50.2495 34.4466 49.9449 31C49.6603 27.7804 48.4876 25.4953 45.9449 23.5C43.2931 21.4191 36.4449 24 36.4449 24L47.4449 15.5C47.4449 15.5 50.4449 16 53.4449 19C56.4449 22 57.4449 23.5 57.9449 24.5C58.4449 25.5 59.9449 28.5 59.9449 33.5C59.9449 36.4869 59.9449 37.5 57.9449 41.5C55.9449 45.5 52.9449 47.5 52.9449 47.5C52.9449 47.5 51.9449 48.5 49.9449 49.5C47.9449 50.5 45.9289 50.8863 44.9449 51.1121C43.2783 51.4944 42.7023 51.5 41.4449 51.5C40.6256 51.5 39.3731 51.3693 37.9449 51.0624C36.9972 50.8587 35.9722 50.5774 34.9449 50.2051C33.7409 49.7688 32.5339 49.2076 31.4449 48.5C30.6262 47.9681 29.4449 47 29.4449 47V51H19.4449V37.9904L22.9449 31.4226L26.9449 22.7265Z" fill="black"/>
</svg>
