<svg xmlns="http://www.w3.org/2000/svg" viewBox="0 45.65 160 68.7" fill="#0000000"><path d="M75.61 106.195c-14.747 0-21.962-8.468-21.962-19.136s10.04-24.157 24.782-24.157c14.746 0 21.96 8.47 21.96 19.137 0 10.668-10.038 24.156-24.78 24.156Zm.624-13.488c5.02 0 8.473-4.707 8.473-9.727 0-5.02-2.512-6.273-6.902-6.273-4.395 0-8.473 4.703-8.473 9.723 0 5.02 2.512 6.277 6.902 6.277Zm39.844 12.547h-15.371l12.547-57.098h15.375l-12.55 56.785Zm0 0"/><path fill-rule="evenodd" d="M30.117 106.195c-4.707 0-9.41-1.566-11.922-5.332l-.941 4.39L0 114.353l1.883-9.098L14.43 48.156h15.375L25.41 68.234c3.453-3.765 6.902-5.332 11.297-5.332 9.41 0 15.371 5.961 15.371 17.254 0 11.293-7.215 26.04-21.96 26.04Zm5.961-22.902c0 5.336-3.766 9.414-8.785 9.414-5.02 0-5.332-.941-6.902-2.824l2.511-10.352c1.883-1.883 3.766-2.824 6.274-2.824 3.765 0 6.902 2.824 6.902 6.902Zm0 0"/><path d="M144.629 106.195c-8.785 0-15.375-3.136-15.375-10.351 0-7.215 0-2.196.316-3.137l3.45-15.375h-6.903l3.137-13.176h6.902l2.512-11.293 17.254-7.215-1.883 7.215-2.508 11.293H160l-3.137 13.176h-8.472l-2.196 10.04v1.882c0 1.883 1.254 3.453 3.766 3.453 2.508 0 1.883 0 2.195-.316v12.238c-1.566 1.254-4.39 1.566-7.215 1.566Zm0 0"/></svg>