<svg viewBox="0 0 256 204" xmlns="http://www.w3.org/2000/svg" width="256" height="204" preserveAspectRatio="xMidYMid"><path fill="#7E13F8" d="M53.172 0C38.565 0 27.756 12.785 28.24 26.65c.465 13.32-.139 30.573-4.482 44.642C19.402 85.402 12.034 94.34 0 95.488v12.956c12.034 1.148 19.402 10.086 23.758 24.197 4.343 14.069 4.947 31.32 4.482 44.641-.484 13.863 10.325 26.65 24.934 26.65h149.673c14.608 0 25.414-12.785 24.93-26.65-.464-13.32.139-30.572 4.482-44.641 4.359-14.11 11.707-23.05 23.741-24.197V95.488c-12.034-1.148-19.382-10.086-23.74-24.196-4.344-14.067-4.947-31.321-4.483-44.642C228.261 12.787 217.455 0 202.847 0H53.17h.002ZM173.56 125.533c0 19.092-14.24 30.67-37.872 30.67h-40.23a4.339 4.339 0 0 1-4.338-4.339V52.068a4.339 4.339 0 0 1 4.339-4.34h39.999c19.705 0 32.637 10.675 32.637 27.063 0 11.503-8.7 21.801-19.783 23.604v.601c15.089 1.655 25.248 12.104 25.248 26.537Zm-42.26-64.05h-22.937v32.4h19.32c14.934 0 23.17-6.014 23.17-16.764 0-10.073-7.082-15.636-19.552-15.636Zm-22.937 45.256v35.705h23.782c15.548 0 23.786-6.239 23.786-17.965 0-11.728-8.467-17.742-24.786-17.742h-22.782v.002Z"/></svg>