<svg xmlns="http://www.w3.org/2000/svg" width="64" height="53" viewBox="0 0 64 53">
  <path fill="#BB62F4" fill-rule="nonzero" d="m27.776 44.333 4.444.012c2.916.007 5.276 1.866 5.27 4.153v.372c-.003 1.099-.562 2.151-1.555 2.926-.992.774-2.337 1.207-3.738 1.204l-4.444-.012a.396.396 0 0 1-.395-.395l.023-7.864c0-.219.177-.396.395-.396ZM54.73 0c.427 0 .737.19.93.57l8.132 15.844c.194.38.252.78.175 1.198l-6.41 34.806c-.062.342-.268.512-.617.512h-8.899c-.426 0-.6-.21-.523-.628 1.156-6.351-1.176-10.505-6.995-12.463l-.346-.112c-.384-.114-.445-.29-.184-.527l.08-.067c7.468-5.851 4.234-17.833-5.759-18.461l-.425-.023-.691-.025-.6-.016c-.635-.014-1.374-.023-2.218-.028l-1.82-.002c-2.843.006-6.559.053-11.149.14-.349.008-.523.186-.523.535v30.944a.727.727 0 0 1-.721.722l-8.935.023c-.45 0-.713-.221-.79-.663L.031 17.484a1.838 1.838 0 0 1 .174-1.186L8.396.558C8.59.186 8.896 0 9.315 0H54.73ZM30.487 28.5a4.227 4.227 0 0 1 2.915 1.14 3.828 3.828 0 0 1 1.215 2.77v.279c.006 2.165-1.833 3.925-4.107 3.932h-2.792a.349.349 0 0 1-.349-.338l-.023-7.422a.349.349 0 0 1 .349-.36h2.792Zm21.59-23.556H11.945a.396.396 0 0 0-.36.21l-3.34 6.479a.396.396 0 0 0 .35.582H55.44a.396.396 0 0 0 .349-.582l-3.35-6.48a.396.396 0 0 0-.361-.209Z"/>
</svg>
