<?xml version="1.0" encoding="UTF-8" standalone="no"?>
<svg
   xmlns:dc="http://purl.org/dc/elements/1.1/"
   xmlns:cc="http://creativecommons.org/ns#"
   xmlns:rdf="http://www.w3.org/1999/02/22-rdf-syntax-ns#"
   xmlns:svg="http://www.w3.org/2000/svg"
   xmlns="http://www.w3.org/2000/svg"
   xml:space="preserve"
   enable-background="new 0 0 447.8 231.633"
   viewBox="0 0 447.8 231.633"
   height="231.633px"
   width="447.8px"
   y="0px"
   x="0px"
   id="Layer_1"
   version="1.1"><metadata
     id="metadata24"><rdf:RDF><cc:Work
         rdf:about=""><dc:format>image/svg+xml</dc:format><dc:type
           rdf:resource="http://purl.org/dc/dcmitype/StillImage" /><dc:title></dc:title></cc:Work></rdf:RDF></metadata><defs
     id="defs22" /><g
     style="fill:#cc1e2c;fill-opacity:1"
     id="g4"><path
       style="fill:#cc1e2c;fill-opacity:1"
       id="path6"
       d="M3.9,5.16h88.194c15.418,0,27.6,3.145,36.433,9.429s13.359,15.516,13.359,27.6   c0,5.989-1.079,11.194-3.439,15.418c-2.256,4.224-5.009,7.762-8.252,10.508c-3.243,2.753-6.676,4.911-10.213,6.382   c-3.538,1.471-6.676,2.459-9.331,3.047v1.863c2.753,0.294,6.185,0.883,10.115,1.765c4.028,0.981,7.86,2.655,11.488,5.107   c3.636,2.459,6.774,5.793,9.331,10.115c2.557,4.322,3.832,10.017,3.832,16.987s-1.471,12.966-4.322,17.779   c-2.851,4.813-6.774,8.742-11.684,11.783c-4.911,3.047-10.606,5.205-16.987,6.48c-6.48,1.275-13.261,1.961-20.427,1.961H3.9   v-30.836h11.292V35.997H3.9V5.16z M77.951,66.833c3.636,0,6.382-0.981,8.154-2.851c1.765-1.863,2.753-4.911,2.753-9.233v-6.774   c0-4.224-0.883-7.369-2.753-9.233c-1.863-1.863-4.518-2.851-8.154-2.851H67.835v30.934H77.95L77.951,66.833L77.951,66.833z    M79.324,120.653c3.636,0,6.382-0.981,8.154-2.851c1.765-1.863,2.753-4.911,2.753-9.233v-8.245c0-4.224-0.883-7.369-2.753-9.233   c-1.765-1.863-4.518-2.851-8.154-2.851H67.835v32.314h11.488L79.324,120.653L79.324,120.653z"
       fill="#FFFFFF" /><path
       style="fill:#cc1e2c;fill-opacity:1"
       id="path8"
       d="M292.879,78.328c0,13.751-1.667,25.435-5.107,35.06s-8.154,17.387-14.339,23.376   c-6.185,5.989-13.751,10.41-22.689,13.163c-8.938,2.753-18.76,4.126-29.66,4.126s-20.819-1.373-29.66-4.126   c-8.84-2.753-16.497-7.166-22.689-13.163c-6.185-5.989-10.998-13.849-14.339-23.376c-3.341-9.625-5.107-21.309-5.107-35.06   c0-13.653,1.667-25.337,5.107-34.962s8.154-17.485,14.339-23.474s13.751-10.41,22.689-13.163c8.938-2.753,18.76-4.126,29.66-4.126   s20.819,1.373,29.66,4.126c8.938,2.753,16.497,7.166,22.689,13.163c6.192,5.996,10.998,13.849,14.339,23.474   C291.212,52.991,292.879,64.675,292.879,78.328z M221.091,120.653c4.224,0,7.467-1.079,9.625-3.341   c2.158-2.158,3.243-5.695,3.243-10.606V49.937c0-4.911-1.079-8.448-3.243-10.606c-2.158-2.158-5.303-3.341-9.625-3.341   s-7.467,1.079-9.625,3.341c-2.158,2.158-3.243,5.695-3.243,10.606v56.769c0,4.911,1.079,8.448,3.243,10.606   C213.623,119.476,216.769,120.653,221.091,120.653z"
       fill="#FFFFFF" /><path
       style="fill:#cc1e2c;fill-opacity:1"
       id="path10"
       d="M434.264,35.997l-20.133,40.658l21.996,43.999h7.566v30.836h-59.809l-15.81-47.733h-3.734l-15.81,47.733   h-52.251v-30.836h7.565l21.8-43.803l-20.14-40.854h-7.566V5.16h59.809l13.947,43.607h3.734L389.572,5.16h52.251v30.836   L434.264,35.997L434.264,35.997z"
       fill="#FFFFFF" /><path
       style="fill:#cc1e2c;fill-opacity:1"
       id="path12"
       d="M326.008,167.278c0.485,0,0.873-0.097,1.26-0.097c7.382,0,14.758,0,22.237,0c3.4,0,6.794,0.582,10,2.036   c6.406,2.916,9.903,7.964,10.679,14.952c0.291,2.625,0.097,5.243-0.485,7.77c-1.163,4.758-3.885,8.352-7.867,11.067   c-0.388,0.291-0.873,0.582-1.26,0.873c0,0-0.097,0.097-0.194,0.194c2.133,3.982,4.467,8.061,6.697,12.14   c2.23,3.982,4.467,7.964,6.697,12.036c-0.194,0.097-0.388,0.194-0.485,0.194c-4.855,0-9.709,0-14.467,0   c-0.582-0.388-0.679-0.97-0.97-1.454c-3.303-6.503-6.503-12.916-9.806-19.419c-0.291-0.582-0.582-1.066-0.873-1.648   c-2.036,0-3.982,0-5.921,0c-0.485,0-0.97,0-1.454,0c-0.485,0.582-0.291,1.163-0.291,1.648c0,5.339,0,10.582,0,15.921   c0,1.26,0,2.431,0,3.691c0,0.388-0.097,0.679-0.097,1.067c-0.291,0.097-0.485,0.097-0.679,0.097c-4.079,0-8.061,0-12.14,0   c-0.194,0-0.388-0.097-0.582-0.097c-0.194-1.454-0.388-53.014-0.097-60.195C325.911,167.86,326.008,167.569,326.008,167.278z    M339.505,194.661c0.485,0,0.97,0.097,1.357,0.097c2.327,0,4.661,0,7.085,0c0.582,0,1.163,0,1.648-0.097   c3.013-0.388,5.049-2.036,6.115-4.855c0.776-1.939,0.679-3.982,0.097-6.018c-0.776-2.528-2.431-4.079-4.952-4.758   c-0.873-0.194-1.745-0.388-2.528-0.388c-2.625-0.097-5.339,0-7.964,0c-0.291,0-0.582,0.097-0.873,0.194   C339.505,184.079,339.505,189.322,339.505,194.661z"
       fill="#FFFFFF" /><path
       style="fill:#cc1e2c;fill-opacity:1"
       d="M255.729,167.278c0.388-0.097,0.582-0.097,0.776-0.097c4.37,0,8.643,0,13.11,0   c0.097,0.388,0.194,0.582,0.194,0.873c0,0.485,0,0.873,0,1.357c0,11.261,0,22.431,0,33.692c0,1.939,0.097,3.788,0.582,5.63   c0.194,0.776,0.388,1.454,0.679,2.133c1.066,2.625,3.013,4.37,5.727,5.146c3.013,0.97,6.018,0.97,9.031,0.097   c3.206-0.873,5.243-2.916,6.406-6.115c0.485-1.454,0.776-2.916,0.873-4.467c0.097-1.163,0.097-2.23,0.097-3.4   c0-11.067,0-22.043,0-33.11c0-0.582,0-1.163,0-1.842c0.291-0.097,0.582-0.194,0.776-0.194c4.176,0,8.352,0,12.528,0   c0.194,0,0.388,0.097,0.582,0.097c0.291,0.582,0.194,1.163,0.194,1.648c0,4.661,0,9.322,0,13.885c0,6.891,0,13.885,0,20.776   c0,2.133,0,4.273-0.388,6.406c-1.648,9.612-7.085,15.824-16.309,18.74c-3.982,1.26-8.061,1.551-12.237,1.163   c-2.819-0.291-5.533-0.873-8.158-1.939c-7.673-3.206-12.14-9.031-13.788-17.092c-0.388-2.036-0.582-4.079-0.582-6.115   c0-12.036,0-24.08,0-36.116C255.729,168.345,255.729,167.86,255.729,167.278z"
       fill="#FFFFFF"
       id="XMLID_60_" /><path
       style="fill:#cc1e2c;fill-opacity:1"
       id="path15"
       d="M111.757,227.377c-0.485,0.097-0.776,0.097-1.067,0.097c-5.243,0.194-12.819,0.097-14.176-0.194   c-1.551-4.564-3.013-9.128-4.564-13.691c-0.388,0-0.679-0.097-0.97-0.097c-6.6,0-13.207,0-19.71,0c-0.291,0-0.485,0-0.776,0.097   c-0.097,0.291-0.291,0.679-0.388,0.97c-1.26,3.885-2.625,7.77-3.885,11.552c-0.097,0.388-0.291,0.873-0.485,1.26   c-1.163,0.194-12.819,0.291-14.273,0c-0.194-0.388,0-0.776,0.194-1.163c2.036-5.63,4.176-11.164,6.212-16.794   c5.243-13.982,10.388-27.868,15.631-41.85c0.194-0.485,0.388-0.97,0.582-1.357c1.26-0.194,13.11-0.291,15.243-0.097   c0.485,0.388,0.582,1.066,0.776,1.648c3.303,9.128,6.697,18.158,10,27.286c3.788,10.291,7.479,20.485,11.261,30.776   C111.363,226.31,111.46,226.795,111.757,227.377z M88.357,202.618c0-0.388,0-0.485-0.097-0.679   c-2.327-7.182-4.661-14.467-6.988-21.649l-0.097-0.097h-0.097c-0.582,1.066-7.182,21.067-7.382,22.334   c0.194,0,0.388,0.097,0.582,0.097C78.938,202.618,83.599,202.618,88.357,202.618z"
       fill="#FFFFFF" /><path
       style="fill:#cc1e2c;fill-opacity:1"
       id="path17"
       d="M423.99,213.692c-1.357-0.194-20.194-0.194-21.552,0c-1.551,4.564-3.013,9.128-4.564,13.691   c-0.291,0.097-0.582,0.194-0.873,0.194c-4.176,0-8.352,0-12.528,0c-0.291,0-0.582-0.097-0.776-0.097   c-0.097-0.097-0.097-0.194-0.194-0.194c0,0,0-0.097,0-0.194c7.479-20.097,14.952-40.195,22.528-60.292   c0.097-0.194,0.194-0.388,0.388-0.582c5.049,0,10.097,0,14.952,0c0.194,0.194,0.291,0.194,0.291,0.194l0.097,0.097   c7.286,19.807,14.564,39.613,21.753,59.42c0.097,0.291,0.194,0.679,0.388,0.97c0,0.097,0,0.194,0,0.388   c-0.194,0.097-0.388,0.194-0.679,0.194c-4.564,0-9.128,0-13.594,0c-0.194,0-0.388-0.097-0.679-0.097   c-0.873-2.23-1.551-4.564-2.327-6.891C425.541,218.256,424.862,215.922,423.99,213.692z M413.117,180   c-0.873,2.625-1.745,5.146-2.528,7.576c-0.873,2.528-1.648,5.049-2.528,7.576c-0.776,2.431-1.745,4.855-2.327,7.382   c1.551,0.194,13.401,0.194,14.661,0c0-0.097,0-0.291,0-0.388c-2.327-7.182-4.564-14.37-6.891-21.552   C413.408,180.388,413.311,180.291,413.117,180z"
       fill="#FFFFFF" /><path
       style="fill:#cc1e2c;fill-opacity:1"
       d="M177.943,176.794c-3.206,3.013-6.212,6.018-9.419,9.031   c-0.388-0.388-0.679-0.776-0.97-1.067c-1.454-1.745-3.013-3.303-4.952-4.564c-2.528-1.745-5.339-2.625-8.449-2.722   c-2.036-0.097-3.982,0-5.921,0.485c-4.564,1.163-7.964,3.788-10.291,7.867c-2.133,3.691-3.013,7.77-2.819,12.036   c0.097,3.013,0.776,6.018,2.133,8.643c3.109,5.921,8.061,9.031,14.758,9.322c2.431,0.097,4.758-0.194,7.085-0.873   c2.528-0.873,4.855-2.23,6.697-4.079c0.776-0.776,1.454-1.551,2.23-2.327c0.194-0.291,0.485-0.485,0.776-0.679   c0.97,0.679,8.158,7.085,9.419,8.546c-0.194,0.291-0.291,0.582-0.485,0.873c-1.745,2.133-3.691,4.079-5.921,5.727   c-4.467,3.303-9.515,5.339-15.049,6.018c-7.576,0.97-14.855-0.194-21.552-4.176c-6.891-4.176-11.261-10.291-13.401-18.061   c-1.163-4.467-1.454-8.934-0.97-13.498c0.679-5.727,2.528-11.067,5.921-15.728c4.855-6.6,11.261-10.679,19.322-12.14   c6.115-1.163,12.237-0.776,18.158,1.26c5.339,1.842,9.709,5.049,13.207,9.515C177.645,176.212,177.749,176.503,177.943,176.794z"
       fill="#FFFFFF"
       id="XMLID_68_" /><path
       style="fill:#cc1e2c;fill-opacity:1"
       d="M17.898,178.539c0,4.661,0,9.031,0,13.498c0.582,0.291,1.163,0.194,1.648,0.194   c4.952,0,9.903,0,14.855,0c0.97,0,1.939,0,2.916,0c0.388,0,0.679,0,1.163,0.097c0.097,0.291,0.194,0.485,0.194,0.776   c0,3.497,0,6.891,0,10.388c0,0.194-0.097,0.291-0.097,0.485c-0.485,0.291-1.067,0.194-1.648,0.194c-4.37,0-8.643,0-13.013,0   c-1.454,0-2.916,0-4.467,0c-0.485,0-0.873,0-1.357,0.097c-0.485,0.485-0.291,1.067-0.291,1.551c0,4.273,0,8.449,0,12.722   c0,2.431,0,4.855,0,7.382c0,0.485,0,0.97,0,1.551c-0.291,0.097-0.582,0.194-0.776,0.194c-4.176,0-8.255,0-12.431,0   c-0.194,0-0.291,0-0.485-0.097c-0.097-0.291-0.194-0.582-0.194-0.873c0-0.388,0-0.679,0-1.066c0-19.128,0-38.256,0-57.384   c0-0.582-0.097-1.26,0.194-1.842c0.194,0,0.291-0.097,0.485-0.097c13.304,0,26.607,0,40.001,0c0.097,0,0.291,0.097,0.388,0.097   c0.097,0.097,0.097,0.097,0.194,0.097c0,0,0,0.097,0,0.194c0,3.594,0,7.285,0.097,10.873c0,0.291,0,0.485-0.097,0.873   c-0.388,0.097-0.679,0.194-1.067,0.194c-2.036,0-4.079,0-6.115,0c-6.115,0-12.14,0-18.255,0   C19.061,178.442,18.577,178.442,17.898,178.539z"
       fill="#FFFFFF"
       id="XMLID_73_" /><path
       style="fill:#cc1e2c;fill-opacity:1"
       d="M240.535,179.418c-2.23,0.097-4.37,0-6.503,0c-2.133,0-4.273,0-6.406,0   c-2.133,0-4.273-0.097-6.503,0.097c-0.097,0.388-0.097,0.582-0.097,0.873c0,0.485,0,0.873,0,1.357c0,14.952,0,29.807,0,44.662   c0,0.582,0,1.163,0,1.842c-0.291,0.097-0.582,0.194-0.776,0.194c-2.431,0.194-11.939,0-13.013-0.194   c-0.291-0.485-0.194-0.97-0.194-1.454c0-4.176,0-8.352,0-12.528c0-10.97,0-21.947,0-32.916c0-0.582,0.097-1.26-0.097-1.842   c-0.582-0.291-1.163-0.194-1.648-0.194c-5.436,0-10.776,0-16.212,0c-0.582,0-1.066,0-1.745,0c-0.291-1.357-0.097-2.722-0.097-3.982   c0-1.357,0-2.625,0-3.982s0-2.625,0-3.982c0.388-0.097,0.679-0.194,0.97-0.194c0.388,0,0.679,0,1.066,0c16.503,0,33.11,0,49.613,0   c0.582,0,1.163-0.097,1.842,0.097c0.097,0.194,0.097,0.388,0.097,0.582C240.826,169.709,240.729,178.151,240.535,179.418z"
       fill="#FFFFFF"
       id="XMLID_74_" /></g></svg>