<?xml version="1.0" encoding="UTF-8"?><svg id="a" xmlns="http://www.w3.org/2000/svg" viewBox="0 0 190.67 176.28"><defs><style>.b{fill:#fff;}</style></defs><path class="b" d="M127,59.49c-8.56-9.42-21.24-14.92-34.92-13.84-10.88,.86-20.48,5.71-27.47,13.02-2.54,2.65-4.68,5.9-4.87,6.1h0c-.58,.85-.57,1.97,.29,2.82,.74,.74,2.03,.92,3.18-.1,28.5-25.22,47.35-.96,50.08,19.28,.91,6.77,6.49,11.9,13.3,11.36,12.36-.97,11.37-13.14,11.36-13.3-.77-9.81-4.8-18.58-10.95-25.34Z"/><path class="b" d="M62.33,115.12c8.07,9.85,20.45,16,34.16,15.63,10.91-.29,20.75-4.65,28.1-11.59,2.67-2.52,4.98-5.65,5.17-5.84h0c.58-.69,.67-1.93-.14-2.83-.7-.78-1.98-1.03-3.18-.07-29.76,23.71-47.34-1.49-49.02-21.84-.56-6.81-5.87-12.22-12.7-12.03-12.39,.33-12.04,12.54-12.03,12.7,.26,9.84,3.84,18.81,9.63,25.87Z"/></svg>