<?xml version="1.0" encoding="utf-8"?>
<!-- Generator: Adobe Illustrator 26.0.1, SVG Export Plug-In . SVG Version: 6.00 Build 0)  -->
<svg version="1.1" id="Layer_1" xmlns="http://www.w3.org/2000/svg" xmlns:xlink="http://www.w3.org/1999/xlink" x="0px" y="0px"
	 viewBox="0 0 841.9 176.3" style="enable-background:new 0 0 841.9 176.3;" xml:space="preserve">
<style type="text/css">
	.st0{fill:#00B451;}
	.st1{fill:#212721;}
	.st2{fill:#FFFFFF;}
	.st3{fill:#636569;}
	.st4{fill:#00CE7C;}
	.st5{fill:#1A3C34;}
</style>
<g>
	<path class="st0" d="M125.4,59.5c-8.6-9.4-21.2-14.9-34.9-13.8c-10.9,0.9-20.5,5.7-27.5,13c-2.5,2.7-4.7,5.9-4.9,6.1c0,0,0,0,0,0
		c-0.6,0.8-0.6,2,0.3,2.8c0.7,0.7,2,0.9,3.2-0.1c28.5-25.2,47.4-1,50.1,19.3c0.9,6.8,6.5,11.9,13.3,11.4c12.4-1,11.4-13.1,11.4-13.3
		C135.6,75,131.6,66.3,125.4,59.5z"/>
	<path class="st0" d="M60.8,115.1c8.1,9.8,20.4,16,34.2,15.6c10.9-0.3,20.7-4.6,28.1-11.6c2.7-2.5,5-5.7,5.2-5.8c0,0,0,0,0,0
		c0.6-0.7,0.7-1.9-0.1-2.8c-0.7-0.8-2-1-3.2-0.1c-29.8,23.7-47.3-1.5-49-21.8c-0.6-6.8-5.9-12.2-12.7-12c-12.4,0.3-12,12.5-12,12.7
		C51.4,99.1,55,108,60.8,115.1z"/>
	<path class="st1" d="M159.8,104.7h4V71.9h-4v-6.3H180c5,0,16.3,1.1,16.3,11.7c0,4.2-3.3,7.9-6.8,9.7v0.1c5.1,1.5,8.6,6,8.6,10.8
		c0,12.3-12.8,13.1-17.1,13.1h-21.2V104.7z M181,84.1c3.6,0,5.6-2.5,5.6-6c0-2.2-0.8-4.2-2.6-5.2c-1.1-0.5-2.3-0.7-3.9-0.7h-7v11.8
		H181z M181.4,104.3c1.1,0,2.3-0.1,3.3-0.5c2.3-1,3.6-3.5,3.6-6.4c0-3.9-2.4-6.6-6.6-6.6H173v13.5H181.4z"/>
	<path class="st1" d="M204.9,104.7h4.7V71.9h-5.3v-6.3h22.4c3.5,0,17.1,1,17.1,14.6c0,14-13.3,14.7-16.9,14.7h-8.1v9.9h5.5v6.3
		h-19.3V104.7z M225.8,88.2c1.9,0,3.3-0.3,4.6-0.9c2.4-1.2,3.7-3.8,3.7-7.1c0-3.1-1.2-5.6-3.3-6.8c-1.3-0.8-2.9-1.1-4.9-1.1h-7.1
		v15.9H225.8z"/>
	<path class="st1" d="M271.9,64.8c5.5,0,17.7,1.9,17.7,9.1V80H282v-3.5c0-3.4-6-4.5-9.7-4.5c-8.8,0-15.2,6.1-15.2,15.7
		c0,10.2,6.7,16.9,15.6,16.9c2.8,0,9.9-0.9,9.9-4.5v-3.5h7.6v6.2c0,6.8-11.7,9-18,9c-14.8,0-25-9.7-25-23.7
		C247.2,73.9,258,64.8,271.9,64.8z"/>
	<path class="st1" d="M316.8,107.2h5.9V69.3h-5.9v-3.7h16.4v3.7h-5.9v37.9h5.9v3.7h-16.4V107.2z"/>
	<path class="st1" d="M339.1,107.2h5.9V69.3h-5.9v-3.7h10.3l25.4,35.8c0.6,1,1.4,2.8,1.4,2.8h0.1c0,0-0.3-1.9-0.2-3.2V69.3h-6v-3.7
		h16.5v3.7h-5.9V111h-4.4l-25.4-35.8c-0.6-1-1.4-2.8-1.4-2.8h-0.1c0,0,0.3,1.9,0.2,3.1v31.8h6v3.7h-16.5V107.2z"/>
	<path class="st1" d="M395.4,98.3v3.3c0,3.8,4.7,6,9.9,6c5.9,0,10.1-2.9,10.1-8.2c0-5.9-5.5-8-11.4-10.2C398.2,87,392,84.6,392,76.6
		s6.4-11.8,13.8-11.8c6.5,0,13.1,2.5,13.1,7.1v4.8h-4.3v-3.4c0-2.9-4.7-4.5-8.8-4.5c-5.2,0-9.2,2.5-9.2,7.4c0,5.5,4.9,7.2,10.4,9.4
		c6.6,2.5,13.1,5,13.1,13.3c0,8-6.4,12.8-14.8,12.8c-6.5,0-14.3-2.9-14.3-9.1v-4.3H395.4z"/>
	<path class="st1" d="M436.7,107.2h5.9V69.5h-12.7v7.4h-4.1V65.6H464v11.2h-4.1v-7.4h-12.7v37.8h5.9v3.7h-16.4V107.2z"/>
	<path class="st1" d="M469.7,107.2h5.9V69.3h-5.9v-3.7h19.4c3.1,0,5.6,0.2,8.1,1c4.5,1.6,7.4,5.4,7.4,11.4c0,6.8-3.9,11.8-10.1,12.9
		V91c0,0,0.8,0.6,1.5,1.9l7.6,12.9c0.7,1.3,1.6,1.5,3.2,1.5h1.3v3.7h-2.5c-3.9,0-4.6-0.6-6.3-3.4l-7.6-13c-1.2-2.2-2.1-2.8-5.1-2.8
		h-6.5v15.5h5.9v3.7h-16.3V107.2z M490.8,87.9c5.5,0,9.2-3.7,9.2-9.6c0-4.1-1.8-6.8-5-8c-1.5-0.6-3.7-0.8-6-0.8h-8.8v18.4H490.8z"/>
	<path class="st1" d="M518.1,69.3h-5.9v-3.7h16.4v3.7h-5.9v24.9c0,3.3,0.6,6.2,2,8.3c2.1,3.3,6,5.1,10.9,5.1c4.8,0,8.9-1.9,10.9-5.3
		c1.3-2.2,2-5,2-8.3V69.3h-5.9v-3.7h16.4v3.7h-5.9v24.9c0,4.2-1,8-2.9,10.7c-3,4.4-8.3,6.8-14.5,6.8c-6.3,0-11.8-2.5-14.7-6.8
		c-1.9-2.8-2.8-6.4-2.8-10.7V69.3z"/>
	<path class="st1" d="M563.3,107.2h5.9l3-37.9h-6v-3.7h10.9l13.2,29.7c0.6,1.5,0.9,2.6,0.9,2.6h0.1c0,0,0.3-1.2,1-2.6l13.2-29.7
		h10.8v3.7h-5.9l3,37.9h5.9v3.7h-16.2v-3.7h5.8l-2.5-31.3c-0.1-1.2,0.1-3.2,0.1-3.2h-0.1c0,0-0.5,1.9-1,3l-12.1,26.6h-4.2
		l-12.1-26.6c-0.5-1.1-0.9-3-0.9-3H576c0,0,0.2,2.1,0.1,3.2l-2.5,31.3h5.8v3.7h-16.2V107.2z"/>
	<path class="st1" d="M627,107.2h5.9V69.3H627v-3.7h32.1V75h-4.1v-5.6h-17.5v16.7h17.2v3.9h-17.2v17h18.7v-5.9h4.1v9.7H627V107.2z"
		/>
	<path class="st1" d="M667.2,107.2h5.9V69.3h-5.9v-3.7h10.3l25.4,35.8c0.6,1,1.4,2.8,1.4,2.8h0.1c0,0-0.3-1.9-0.2-3.2V69.3h-6v-3.7
		h16.5v3.7h-5.9V111h-4.4l-25.4-35.8c-0.6-1-1.4-2.8-1.4-2.8h-0.1c0,0,0.3,1.9,0.2,3.1v31.8h6v3.7h-16.5V107.2z"/>
	<path class="st1" d="M730.8,106.2h5.9V68.5H724v7.4h-4.1V64.6H758v11.2h-4.1v-7.4h-12.7v37.8h5.9v3.7h-16.4V106.2z"/>
	<path class="st1" d="M767.2,97.3v3.3c0,3.8,4.7,6,9.9,6c5.9,0,8.9-2.9,8.9-8.2c0-5.9-4.3-8-10.2-10.2c-5.9-2.3-12.1-4.7-12.1-12.6
		s6.4-11.8,13.8-11.8c6.5,0,11.9,2.5,11.9,7.1v4.8h-4.3v-3.4c0-2.9-3.5-4.5-7.6-4.5c-5.2,0-9.2,2.5-9.2,7.4c0,5.5,4.9,7.2,10.4,9.4
		c6.6,2.5,11.9,5,11.9,13.3c0,8-5.2,12.8-13.6,12.8c-6.5,0-14.3-2.9-14.3-9.1v-4.3H767.2z"/>
</g>
</svg>
