<?xml version="1.0" encoding="utf-8"?>
<svg fill="#000000" width="800px" height="800px" viewBox="0 0 14 14" role="img" focusable="false" aria-hidden="true" xmlns="http://www.w3.org/2000/svg"><path d="m 7.024361,5.7378297 c -0.05062,0.01865 -0.09058,0.05009 -0.122023,0.09698 -0.05062,0.0746 -0.05062,0.07673 -0.05435,0.490223 l -0.0032,0.375127 0.501946,0 -0.0021,-0.386317 -0.0021,-0.385784 -0.02558,-0.05328 c -0.04316,-0.09059 -0.112964,-0.142271 -0.203549,-0.1476 -0.03357,-0.0021 -0.05915,0.0011 -0.08845,0.01066 z m -5.7254805,0.03037 c -0.1262856,0.02078 -0.2488413,0.10657 -0.2802795,0.195023 -0.014387,0.03996 -0.015453,0.0714 -0.017584,1.051848 -0.00213,1.160015 -0.00746,1.074227 0.064475,1.152023 0.027708,0.0309 0.055949,0.05169 0.088986,0.06661 0.043694,0.02025 0.055949,0.02238 0.1289498,0.02238 0.074599,0 0.084723,-0.0016 0.132147,-0.02451 0.064475,-0.03091 0.1065701,-0.073 0.1300156,-0.130016 l 0.01865,-0.04529 0.00373,-0.745991 0.00373,-0.745458 0.2152717,0.261097 c 0.1182929,0.144402 0.3879153,0.472638 0.599457,0.730005 0.407098,0.49715 0.5003468,0.599457 0.5770773,0.639954 0.086322,0.04636 0.142804,0.05968 0.2413814,0.05968 0.1374755,0 0.2221987,-0.03463 0.2749509,-0.114563 0.054351,-0.08206 0.051687,-0.0075 0.051687,-1.149359 l 0,-1.025737 -0.01865,-0.04529 c -0.024511,-0.06075 -0.076198,-0.111898 -0.1358769,-0.135344 -0.035168,-0.01385 -0.060745,-0.01758 -0.1182929,-0.01865 -0.084723,0 -0.11776,0.0085 -0.1769064,0.04316 -0.048489,0.02931 -0.086322,0.08472 -0.09911,0.146001 -0.00533,0.02451 -0.00853,0.286674 -0.00853,0.782225 0,0.410295 -0.00213,0.745458 -0.00533,0.744393 -0.00533,0 -1.0832854,-1.300689 -1.2426078,-1.498909 -0.077796,-0.09591 -0.139074,-0.153461 -0.1928919,-0.179038 -0.066073,-0.03091 -0.1705122,-0.04742 -0.2344543,-0.03677 z m 9.3957565,0.0053 c -0.0762,0.01972 -0.141206,0.07513 -0.176907,0.149731 -0.01226,0.02611 -0.01865,0.05382 -0.02078,0.104439 -0.0032,0.06021 -0.0011,0.0778 0.01599,0.125753 0.03783,0.107636 0.05062,0.123088 0.425748,0.500347 0.196089,0.196622 0.355944,0.361273 0.355944,0.365002 0,0.0037 -0.159855,0.168381 -0.355944,0.365003 -0.380988,0.382587 -0.395908,0.400171 -0.429477,0.509405 -0.02398,0.08046 -0.01759,0.16998 0.01705,0.234455 0.08899,0.166782 0.287206,0.191826 0.483828,0.06075 0.01918,-0.01226 0.192892,-0.180637 0.386317,-0.373529 l 0.351149,-0.350615 0.351681,0.350615 c 0.192892,0.192892 0.366601,0.361273 0.385784,0.373529 0.09165,0.06128 0.19076,0.09218 0.266425,0.08366 0.09858,-0.01172 0.173177,-0.06075 0.217403,-0.144402 0.03464,-0.06448 0.0405,-0.153461 0.01705,-0.234455 -0.03357,-0.109234 -0.04849,-0.126818 -0.429477,-0.509405 -0.196089,-0.196622 -0.355944,-0.361273 -0.355944,-0.365003 0,-0.0037 0.159855,-0.16838 0.355944,-0.365002 0.375127,-0.377259 0.387915,-0.392711 0.425748,-0.500347 0.01705,-0.04849 0.01918,-0.06607 0.01599,-0.125753 -0.0021,-0.05062 -0.0075,-0.07833 -0.02078,-0.105504 -0.05595,-0.116695 -0.179571,-0.177439 -0.311718,-0.152928 -0.02504,0.0048 -0.07886,0.02451 -0.119358,0.04369 l -0.073,0.03623 -0.726275,0.723079 -0.362872,-0.361806 -0.363404,-0.361273 -0.073,-0.03623 c -0.101242,-0.04902 -0.175841,-0.06128 -0.25417,-0.03996 z m -2.782547,0.01279 c -0.07513,0.01758 -0.136942,0.06661 -0.168913,0.136942 l -0.01705,0.03517 0,2.074387 0.02131,0.04636 c 0.01172,0.02504 0.03357,0.05915 0.04902,0.0746 0.06074,0.06234 0.187563,0.09272 0.318112,0.0762 0.122022,-0.01545 0.20568,-0.06128 0.306389,-0.166782 0.03144,-0.03357 0.32717,-0.385784 0.657005,-0.782225 l 0.599457,-0.720947 0.0037,0.74386 0.0037,0.744392 0.01865,0.03996 c 0.03304,0.0746 0.106038,0.125753 0.197688,0.140672 0.111366,0.01865 0.212074,-0.0085 0.276549,-0.073 0.07353,-0.073 0.06767,0.01225 0.07087,-1.071563 0.0021,-0.993234 0.0011,-1.058241 -0.03091,-1.130176 -0.03091,-0.073 -0.142804,-0.148133 -0.25044,-0.168914 -0.09591,-0.01865 -0.218468,0.0064 -0.298929,0.05968 -0.02931,0.01918 -0.09058,0.08632 -0.219534,0.240316 -0.483829,0.578676 -1.162681,1.382215 -1.166943,1.382215 -0.0032,0.0011 -0.0069,-0.335696 -0.0075,-0.747057 -0.0021,-0.67672 -0.0037,-0.749721 -0.01545,-0.779028 -0.0325,-0.07993 -0.08366,-0.127351 -0.166782,-0.151329 -0.04529,-0.01279 -0.132147,-0.01545 -0.179571,-0.0037 z m -3.5653036,0.03144 c -0.020781,0.03623 -0.6106469,1.124848 -0.6298295,1.16268 l -0.011723,0.02398 0.3436887,0.617573 0.3436887,0.61864 1.4381639,0.0037 0.35328,-0.650611 0.3532808,-0.651676 -0.273353,-0.0048 c -0.4907556,-0.0085 -1.2697833,-0.0075 -1.3198713,0.0016 -0.068205,0.01225 -0.1198914,0.0405 -0.1635852,0.08845 -0.1321469,0.144403 -0.043694,0.355944 0.1635852,0.39431 0.029307,0.0053 0.1838335,0.0085 0.424682,0.0085 l 0.3788568,0 -0.11776,0.193425 -0.11776,0.194491 -0.7923489,0.0037 -0.2168703,-0.391112 c -0.1182925,-0.215155 -0.2158042,-0.395791 -0.2158042,-0.40112 0,-0.0064 0.090585,-0.177439 0.2019504,-0.380988 l 0.2014176,-0.370864 0.870678,0 0.1289499,0.211009 0.1300155,0.210476 0.2872065,0.0011 0.286674,0 -0.01066,-0.01758 c -0.0064,-0.0091 -0.1300159,-0.215272 -0.2749513,-0.457186 l -0.263761,-0.439602 -1.4797264,0 -0.01865,0.0325 z m 2.5012006,1.671553 c 0.0032,0.545639 0.0032,0.552566 0.01972,0.601588 0.02451,0.07353 0.06447,0.12149 0.127351,0.153461 0.06554,0.03304 0.130549,0.03623 0.195024,0.0075 0.05169,-0.02238 0.109767,-0.08526 0.133745,-0.144403 l 0.01758,-0.04369 0.0021,-0.557895 0.0021,-0.557895 -0.07513,-0.0048 c -0.04156,-0.0032 -0.154527,-0.0053 -0.25044,-0.0053 l -0.175308,0 0.0021,0.550968 z"/></svg>