<svg width="32" height="32" viewBox="0 0 32 32" fill="none" xmlns="http://www.w3.org/2000/svg">
<g clip-path="url(#clip0_2_66)">
<path d="M26.3333 0H5.66667C2.53705 0 0 2.53705 0 5.66667V25.5333C0 28.6629 2.53705 31.2 5.66667 31.2H26.3333C29.4629 31.2 32 28.6629 32 25.5333V5.66667C32 2.53705 29.4629 0 26.3333 0Z" fill="#000B1D"/>
<path d="M7.34168 21.8889L7.33334 8.27074C7.33334 8.14196 7.37629 8.07041 7.46218 8.05609C7.70535 8.04199 8.07742 8.03126 8.5784 8.0239C9.07918 8.01683 9.5691 8.0098 10.1561 8.00241C10.7427 7.99538 11.2794 7.9918 11.766 7.99167C12.9393 7.99167 13.9 8.0763 14.5943 8.33392C15.2883 8.59151 15.8214 8.91708 16.1936 9.31065C16.5476 9.65619 16.8172 10.0785 16.9818 10.545C17.103 10.9271 17.1681 11.3248 17.175 11.7257C17.1711 12.1564 17.0857 12.5825 16.9234 12.9815C16.8006 13.3107 16.6268 13.6186 16.4083 13.8938C16.2454 14.1028 16.0496 14.2841 15.8287 14.4304C16.1341 14.5923 16.4188 14.7905 16.6766 15.0208C17.0105 15.3201 17.2838 15.6809 17.4816 16.0834C17.7357 16.5873 17.8627 17.1456 17.8515 17.7099C17.8557 18.5372 17.5944 19.344 17.1059 20.0118C16.6263 20.6702 15.9394 21.1818 15.0451 21.5466C14.023 21.9458 12.933 22.1422 11.8359 22.125H10.4083C9.95756 22.125 9.57754 22.1213 9.19858 22.1143C8.81922 22.1069 8.49005 22.0997 8.21108 22.0928C7.93204 22.0854 7.69233 22.0818 7.49194 22.0821C7.39168 22.068 7.34159 22.0036 7.34168 21.8889ZM10.2444 10.516L10.2583 13.4859H11.6641C12.0505 13.4859 12.4298 13.4931 12.8019 13.5074C13.0688 13.5093 13.3349 13.5381 13.5961 13.5932C13.7857 13.4314 13.9424 13.2346 14.0577 13.0136C14.2005 12.7629 14.2757 12.4793 14.2759 12.1908C14.2791 11.8387 14.1687 11.4949 13.9611 11.2104C13.7531 10.9521 13.4728 10.7615 13.1561 10.6631C12.7161 10.535 12.2584 10.4781 11.8004 10.4945H11.1779C10.9918 10.4945 10.8776 10.4983 10.7274 10.5053C10.5771 10.5127 10.4161 10.5163 10.2444 10.516ZM10.2583 15.9917V19.561C10.5016 19.5754 10.6908 19.5861 10.9343 19.5932C11.1774 19.6006 11.4708 19.6041 11.8144 19.6039C12.3396 19.6118 12.8634 19.5468 13.3707 19.4107C13.7632 19.3171 14.1184 19.1077 14.3904 18.8096C14.6457 18.5341 14.794 18.1762 14.8083 17.8007C14.7914 17.4371 14.6685 17.0864 14.4548 16.7918C14.2686 16.5057 13.9252 16.2707 13.4244 16.1419C13.2298 16.0949 13.0327 16.0591 12.8341 16.0346C12.574 16.0039 12.3124 15.9895 12.0505 15.9917L10.2583 15.9917Z" fill="white"/>
<path d="M19.7568 11.3353H22.0967C22.1602 11.3359 22.2218 11.3571 22.2722 11.3959C22.3225 11.4346 22.3589 11.4887 22.3757 11.55C22.4268 11.6441 22.463 11.7454 22.4831 11.8505C22.513 11.9886 22.5345 12.1284 22.5474 12.2692C22.5616 12.4194 22.5689 12.6273 22.5689 12.799C22.9681 12.317 23.4518 11.9119 23.9965 11.6037C24.5761 11.2817 25.1875 11.2083 25.9318 11.2083C25.9581 11.2046 25.9848 11.207 26.01 11.2154C26.0351 11.2238 26.058 11.2379 26.0767 11.2567C26.0954 11.2754 26.1096 11.2983 26.1179 11.3234C26.1263 11.3486 26.1287 11.3753 26.125 11.4015V13.9582C26.125 14.0585 26.0534 14.1086 25.9103 14.1085C25.4561 14.0778 24.9999 14.1103 24.5546 14.2051C24.1705 14.2814 23.7961 14.4002 23.4383 14.5593C23.1486 14.6764 22.8818 14.8435 22.65 15.053V21.8068C22.65 21.9356 22.5927 22 22.4782 22H19.95C19.9208 22.0042 19.8911 22.0015 19.8631 21.9922C19.8352 21.9829 19.8098 21.9672 19.7889 21.9464C19.7681 21.9255 19.7524 21.9001 19.7431 21.8722C19.7338 21.8442 19.7311 21.8145 19.7353 21.7853V14.4519C19.7353 14.1373 19.7318 13.8046 19.7246 13.4537C19.7172 13.1032 19.7065 12.7562 19.6924 12.4126C19.6826 12.1021 19.654 11.7926 19.6066 11.4856C19.6012 11.4648 19.6013 11.443 19.607 11.4223C19.6126 11.4016 19.6236 11.3827 19.6387 11.3675C19.6539 11.3524 19.6728 11.3414 19.6935 11.3358C19.7142 11.3301 19.736 11.33 19.7568 11.3353Z" fill="white"/>
</g>
<defs>
<clipPath id="clip0_2_66">
<rect width="32" height="31.2" fill="white"/>
</clipPath>
</defs>
</svg>
