<svg xmlns="http://www.w3.org/2000/svg" xml:space="preserve" style="enable-background:new 0 0 1920 1080" viewBox="0 0 1920 1080"><linearGradient id="a" x1="218.456" x2="389.885" y1="574.341" y2="574.341" gradientUnits="userSpaceOnUse"><stop offset="0" style="stop-color:#75ceff"/><stop offset="1" style="stop-color:#4baeff"/></linearGradient><path d="m218.6 516.7 57.5 57.6-57.6 57.7 28 28.1 57.7-57.7 57.6 57.5 28.1-28.1-143.2-143.2z" style="fill:url(#a)"/><linearGradient id="b" x1="275.028" x2="446.456" y1="517.769" y2="517.769" gradientUnits="userSpaceOnUse"><stop offset="0" style="stop-color:#75ceff"/><stop offset="1" style="stop-color:#4baeff"/></linearGradient><path d="m446.5 460.1-28.1-28-57.7 57.6-57.6-57.5-28.1 28.1 143.2 143.2 28.1-28.1-57.5-57.6z" style="fill:url(#b)"/><path d="M578.1 469.5c45.6 0 67.2 32.2 70 57.1h-40.9c-3.1-12.6-14.8-21.8-29.4-21.8-21.3 0-33.6 16.8-33.6 41.4 0 24.6 12.3 41.4 33.6 41.4 14.6 0 26.3-9.2 29.4-21.8h40.9c-2.8 24.9-24.4 57.1-70 57.1-42.6 0-73.6-33-73.6-76.7s31-76.7 73.6-76.7zM807.3 472.9v146.7h-36.7v-17.9c-9.2 13.4-25.8 21.3-46.5 21.3-42.6 0-67.5-34.2-67.5-76.7 0-42.6 24.9-76.7 67.5-76.7 20.7 0 37.2 7.8 46.5 21.3V473h36.7zm-74.8 31.7c-22.1 0-36.1 17.9-36.1 41.7 0 23.8 14 41.7 36.1 41.7s36.1-17.9 36.1-41.7c.1-23.8-13.9-41.7-36.1-41.7zM869.9 672h-39.8V473h36.7v17.9c9.2-13.4 25.8-21.3 46.5-21.3 42.6 0 67.5 34.2 67.5 76.7 0 42.6-24.9 76.7-67.5 76.7-20.7 0-35.8-9-43.4-19v68zm35-84c22.1 0 36.1-17.9 36.1-41.7 0-23.8-14-41.7-36.1-41.7s-36.1 17.9-36.1 41.7c-.1 23.8 13.9 41.7 36.1 41.7zM1143.7 472.9v146.7H1107v-17.9c-9.2 13.4-25.8 21.3-46.5 21.3-42.6 0-67.5-34.2-67.5-76.7 0-42.6 24.9-76.7 67.5-76.7 20.7 0 37.2 7.8 46.5 21.3V473h36.7zm-74.8 31.7c-22.1 0-36.1 17.9-36.1 41.7 0 23.8 14 41.7 36.1 41.7s36.1-17.9 36.1-41.7c.1-23.8-13.9-41.7-36.1-41.7zM1233.9 469.6c45.6 0 67.2 32.2 70 57.1H1263c-3.1-12.6-14.8-21.8-29.4-21.8-21.3 0-33.6 16.8-33.6 41.4 0 24.6 12.3 41.4 33.6 41.4 14.6 0 26.3-9.2 29.4-21.8h40.9c-2.8 24.9-24.4 57.1-70 57.1-42.6 0-73.6-33-73.6-76.7s31-76.7 73.6-76.7zM1317 437.1c0-14 10.1-24.1 24.1-24.1s24.1 10.1 24.1 24.1-10.1 23.8-24.1 23.8-24.1-9.8-24.1-23.8zm4.2 35.8h39.8v146.7h-39.8V472.9zM1382.8 472.9v-36.4h39.8v36.4h30.6v32.4h-30.6v114.4h-39.8V504.3M1449.2 546.3c0-41.7 30-76.7 77-76.7s77 35 77 76.7-30 76.7-77 76.7-77-35-77-76.7zm77 41.7c21 0 37.2-15.4 37.2-41.7s-16.2-41.7-37.2-41.7-37.2 15.4-37.2 41.7 16.2 41.7 37.2 41.7zM1701.6 509.1s-4.2-.8-7.8-.8c-23.2 0-35.3 11.5-35.3 38.4v73.1h-39.8V472.9h36.7v19c5.3-8.7 16.5-20.4 41.4-20.4 1.4 0 4.8.3 4.8.3v37.3z"/></svg>