<svg width="32" height="32" viewBox="0 0 32 32" fill="none" xmlns="http://www.w3.org/2000/svg">
<g clip-path="url(#clip0_2_70)">
<path d="M1.05184 0.941956H31.0842V30.2783H1.05184V0.941956Z" fill="#002616"/>
<path d="M1.47048 1.33442H30.5609V29.755H1.47048V1.33442ZM0 31.2255H32.0262V0H0V31.2255Z" fill="#CCFFEA"/>
<path d="M15.1967 21.5863V19.7861C15.1967 19.6239 15.1287 19.6239 15.0502 19.6814C14.4118 19.896 13.8204 19.964 12.9413 19.964C11.0051 19.964 8.64497 18.7343 8.64497 14.574C8.64497 11.2092 10.3666 9.25201 12.9413 9.25201C13.8623 9.25201 14.6473 9.41424 15.181 9.66542C15.2491 9.69159 15.3433 9.69159 15.3433 9.5032V7.60361C15.3433 7.47278 15.3171 7.40475 15.2072 7.36289C14.7938 7.16403 13.9931 7.05414 12.9256 7.05414C8.82813 7.05414 6.14881 10.0945 6.14881 14.6211C6.14881 19.9065 9.18921 22.1462 12.6221 22.1462C13.5693 22.1462 14.4903 22.052 15.0659 21.8113C15.1601 21.7904 15.1967 21.7223 15.1967 21.5863ZM19.4826 13.2082C19.8437 13.1035 20.1786 13.0355 20.6443 13.0355C22.3137 13.0355 23.287 14.2077 23.287 16.4003C23.287 19.0849 21.7276 20.1524 20.2309 20.1524C19.9902 20.1524 19.6971 20.1263 19.4983 20.0582L19.4826 13.2082ZM20.9112 10.9423C19.3518 10.9423 18.0173 11.408 17.133 11.6906C17.0911 11.7168 16.9446 11.8528 16.9446 11.879C16.9864 12.1877 17.0754 12.7058 17.0754 12.9465V25.3541C17.0754 25.4587 17.1696 25.4901 17.2899 25.4901L19.3832 25.2913C19.4878 25.2651 19.4774 25.1709 19.4774 25.0924V22.1724C19.6762 22.1985 19.9326 22.1724 20.1053 22.1724C22.9364 22.1724 25.7099 20.21 25.7099 16.2329C25.7256 13.2082 24.0353 10.9423 20.9112 10.9423Z" fill="#CCFFEA"/>
</g>
<defs>
<clipPath id="clip0_2_70">
<rect width="32" height="31.215" fill="white"/>
</clipPath>
</defs>
</svg>
