<svg width="32" height="32" viewBox="0 0 32 32" fill="none" xmlns="http://www.w3.org/2000/svg">
<g clip-path="url(#clip0_2_96)">
<path d="M1.05098 0.941162H31.0588V30.2536H1.05098V0.941162Z" fill="#002615"/>
<path d="M1.46928 1.33333H30.5359V29.7307H1.46928V1.33333ZM0 31.2H32V0H0V31.2Z" fill="#00F58A"/>
<path d="M15.1843 21.5686V19.7699C15.1843 19.6078 15.1163 19.6078 15.0379 19.6654C14.4 19.8797 13.8092 19.9477 12.9307 19.9477C10.9961 19.9477 8.63791 18.719 8.63791 14.5621C8.63791 11.2 10.3582 9.24445 12.9307 9.24445C13.851 9.24445 14.6353 9.40654 15.1686 9.65752C15.2366 9.68366 15.3307 9.68366 15.3307 9.49543V7.59739C15.3307 7.46667 15.3046 7.3987 15.1948 7.35687C14.7817 7.15817 13.9817 7.04837 12.915 7.04837C8.82091 7.04837 6.14379 10.0863 6.14379 14.6092C6.14379 19.8902 9.1817 22.1281 12.6118 22.1281C13.5582 22.1281 14.4784 22.034 15.0536 21.7935C15.1477 21.7726 15.1843 21.7046 15.1843 21.5686ZM19.4667 13.1974C19.8426 13.0813 20.234 13.0231 20.6275 13.0248C22.2954 13.0248 23.268 14.1961 23.268 16.3869C23.268 19.0693 21.7098 20.136 20.2144 20.136C19.9739 20.136 19.681 20.1098 19.4824 20.0418L19.4667 13.1974ZM20.8941 10.9333C19.3359 10.9333 18.0026 11.3987 17.119 11.681C17.0771 11.7072 16.9307 11.8431 16.9307 11.8693C16.9725 12.1778 17.0614 12.6954 17.0614 12.936V25.3333C17.0614 25.4379 17.1556 25.4693 17.2758 25.4693L19.3673 25.2706C19.4719 25.2444 19.4614 25.1503 19.4614 25.0719V22.1543C19.6601 22.1804 19.9163 22.1543 20.0889 22.1543C22.9176 22.1543 25.6889 20.1935 25.6889 16.2196C25.7046 13.1974 24.0157 10.9333 20.8941 10.9333Z" fill="#00F58A"/>
</g>
<defs>
<clipPath id="clip0_2_96">
<rect width="32" height="31.2" fill="white"/>
</clipPath>
</defs>
</svg>
