<svg width="32" height="32" viewBox="0 0 32 32" fill="none" xmlns="http://www.w3.org/2000/svg">
<g clip-path="url(#clip0_2_30)">
<path d="M26.3333 0H5.66667C2.53705 0 0 2.53705 0 5.66667V25.5333C0 28.6629 2.53705 31.2 5.66667 31.2H26.3333C29.4629 31.2 32 28.6629 32 25.5333V5.66667C32 2.53705 29.4629 0 26.3333 0Z" fill="#000B1D"/>
<path d="M15.7222 19.3678V21.5789C15.7309 21.6409 15.7187 21.704 15.6876 21.7584C15.6566 21.8128 15.6084 21.8553 15.5505 21.8794C15.1302 22.0257 14.6944 22.123 14.2518 22.1692C13.6995 22.2358 13.1435 22.268 12.5872 22.2658C11.7875 22.2695 10.9905 22.1722 10.2152 21.976C9.48923 21.7939 8.79712 21.4967 8.1651 21.0958C7.55591 20.7082 7.01848 20.218 6.57663 19.6469C6.11854 19.0471 5.76974 18.3713 5.54623 17.6505C5.29843 16.8084 5.18168 15.9332 5.20007 15.0556C5.20007 13.6103 5.4959 12.3589 6.12579 11.2641C6.75402 10.1708 7.6862 9.28332 8.80912 8.70958C9.96835 8.10148 11.3884 7.75807 12.9914 7.75807C13.5472 7.75261 14.1028 7.78129 14.6551 7.84395C15.0294 7.89069 15.3966 7.98348 15.7482 8.12021C15.7873 8.14976 15.8179 8.18919 15.8368 8.23445C15.8556 8.27972 15.8621 8.3292 15.8556 8.3778L15.8502 10.7597C15.8502 10.8885 15.7999 10.9314 15.6999 10.8885C15.2978 10.7035 14.8713 10.577 14.4334 10.5128C13.915 10.4318 13.391 10.3923 12.8663 10.3947C11.9074 10.3947 11.0845 10.5879 10.3977 10.9743C9.72643 11.345 9.17523 11.8999 8.80911 12.5736C8.42145 13.3183 8.2294 14.1493 8.25097 14.9886C8.23907 15.5864 8.32984 16.1818 8.51934 16.7488C8.68486 17.2266 8.93581 17.6703 9.25996 18.0583C9.55846 18.4173 9.92275 18.7161 10.3333 18.9385C10.7362 19.1632 11.1663 19.3352 11.6131 19.4501C12.0454 19.5552 12.4885 19.6093 12.9333 19.6111C13.4102 19.6139 13.887 19.5924 14.3617 19.5467C14.7678 19.4978 15.1667 19.4018 15.5505 19.2605C15.6075 19.2175 15.6504 19.2068 15.6793 19.2283C15.6963 19.2469 15.709 19.2691 15.7164 19.2932C15.7238 19.3173 15.7258 19.3428 15.7222 19.3678Z" fill="white"/>
<path d="M21.8176 11.2111C22.8765 11.2111 23.7316 11.4043 24.3829 11.7907C25.0339 12.1771 25.4745 12.6137 25.7894 13.2717C26.1115 13.9637 26.2729 14.7196 26.2617 15.4828V19.6259C26.2617 19.8979 26.2652 20.1555 26.2724 20.3987C26.2794 20.6422 26.2902 20.8926 26.3046 21.15C26.3046 21.2074 26.2902 21.2432 26.2617 21.2573C25.6177 21.5009 25.0876 21.7365 24.5868 21.8794C24.1089 22.0178 23.6208 22.1183 23.1271 22.1799C22.6284 22.2386 22.1266 22.2672 21.6244 22.2658C20.8802 22.2761 20.1408 22.145 19.4455 21.8794C18.8036 21.6421 18.2388 21.2338 17.8122 20.6987C17.4114 20.1694 17.211 19.4968 17.2111 18.6808C17.2111 17.908 17.4222 17.264 17.8444 16.7488C18.2663 16.2336 18.8981 15.8472 19.628 15.5897C20.4373 15.3195 21.2866 15.1888 22.1396 15.2033H22.9231C23.0844 15.1994 23.2458 15.2066 23.4061 15.2247V15.0959C23.3982 14.9679 23.3729 14.8415 23.331 14.7203C23.2739 14.5449 23.1743 14.3863 23.0412 14.2587C22.8709 14.0753 22.6619 13.9321 22.4294 13.8395C22.0852 13.7354 21.7262 13.6883 21.3668 13.7C20.8478 13.6963 20.3298 13.7466 19.8212 13.8503C19.349 13.9506 18.8715 14.2172 18.471 14.3889C18.4292 14.4033 18.3839 14.4033 18.3422 14.3889C18.3207 14.3812 18.3026 14.3663 18.2908 14.3467C18.2791 14.3272 18.2745 14.3041 18.2778 14.2816V12.0477C18.2742 11.9974 18.2869 11.9473 18.314 11.9048C18.341 11.8623 18.381 11.8296 18.4281 11.8115C18.9003 11.5969 19.474 11.4794 20.0681 11.3721C20.6453 11.2663 21.2308 11.2124 21.8176 11.2111ZM23.3556 19.6938V17.5414C23.1838 17.5129 23.0697 17.4915 22.9124 17.4771C22.7548 17.463 22.5616 17.4558 22.3328 17.4556C21.56 17.4556 21.0448 17.5703 20.7228 17.799C20.4008 18.0281 20.2398 18.2803 20.2398 18.6808C20.2376 18.8831 20.3016 19.0806 20.4222 19.243C20.5683 19.4711 20.777 19.6523 21.0233 19.7649C21.3024 19.8867 21.6244 19.887 22.0537 19.887C22.298 19.888 22.5421 19.8701 22.7836 19.8333C22.9777 19.8021 23.1689 19.7555 23.3556 19.6938V19.6938Z" fill="white"/>
</g>
<defs>
<clipPath id="clip0_2_30">
<rect width="32" height="31.2" fill="white"/>
</clipPath>
</defs>
</svg>
