<?xml version="1.0" encoding="utf-8"?>
<!-- Generator: Adobe Illustrator 24.0.0, SVG Export Plug-In . SVG Version: 6.00 Build 0)  -->
<svg version="1.1" id="Layer_1" xmlns="http://www.w3.org/2000/svg" xmlns:xlink="http://www.w3.org/1999/xlink" x="0px" y="0px"
	 viewBox="0 0 375 346.5" style="enable-background:new 0 0 375 346.5;" xml:space="preserve">
<style type="text/css">
	.st0{fill:#0033AD;}
</style>
<g id="Layer_2_1_">
	<g id="Layer_1-2">
		<path class="st0" d="M102.8,172c-0.8,13.9,9.9,25.8,23.8,26.6c0.5,0,1,0,1.5,0c14,0,25.3-11.3,25.2-25.3c0-14-11.3-25.3-25.3-25.2
			C114.6,148.1,103.5,158.6,102.8,172z"/>
		<path class="st0" d="M8.6,165.5c-4.5-0.3-8.4,3.2-8.6,7.7s3.2,8.4,7.7,8.6c4.5,0.3,8.3-3.2,8.6-7.7
			C16.6,169.6,13.1,165.8,8.6,165.5C8.6,165.5,8.6,165.5,8.6,165.5z"/>
		<path class="st0" d="M101.2,25.4c4-2,5.6-7,3.6-11c-2-4-7-5.6-11-3.6c-4,2-5.6,6.9-3.6,10.9C92.2,25.8,97.1,27.5,101.2,25.4
			C101.1,25.4,101.2,25.4,101.2,25.4z"/>
		<path class="st0" d="M126.8,70.1c6.2-3.1,8.7-10.7,5.6-16.9s-10.7-8.7-16.9-5.6c-6.2,3.1-8.7,10.7-5.6,16.9
			C113,70.7,120.6,73.2,126.8,70.1z"/>
		<path class="st0" d="M40.6,100.8c4.8,3.1,11.2,1.8,14.4-3c3.1-4.8,1.8-11.2-3-14.4c-4.8-3.1-11.2-1.8-14.4,3c0,0,0,0,0,0
			C34.4,91.2,35.8,97.7,40.6,100.8z"/>
		<path class="st0" d="M55.9,161c-7-0.4-12.9,4.9-13.3,11.9s4.9,12.9,11.9,13.3c7,0.4,12.9-4.9,13.3-11.9c0,0,0,0,0,0
			C68.2,167.4,62.9,161.4,55.9,161z"/>
		<path class="st0" d="M42,245.7c-5.1,2.6-7.2,8.8-4.6,14c2.6,5.1,8.8,7.2,14,4.6c5.1-2.6,7.2-8.8,4.6-14c0,0,0,0,0,0
			C53.4,245.2,47.1,243.1,42,245.7C42,245.7,42,245.7,42,245.7z"/>
		<path class="st0" d="M91,134.9c6.9,4.5,16.1,2.6,20.5-4.3c4.5-6.9,2.6-16.1-4.3-20.5c-6.9-4.5-16.1-2.6-20.5,4.3
			C82.2,121.2,84.1,130.4,91,134.9C91,134.9,91,134.9,91,134.9z"/>
		<path class="st0" d="M246.5,69.1c5.8,3.8,13.7,2.2,17.5-3.6s2.2-13.7-3.6-17.5c-5.8-3.8-13.7-2.2-17.5,3.6c0,0,0,0,0,0
			C239,57.5,240.6,65.3,246.5,69.1C246.5,69.1,246.5,69.1,246.5,69.1z"/>
		<path class="st0" d="M272.3,24.6c3.8,2.5,8.8,1.4,11.3-2.4s1.4-8.8-2.4-11.3c-3.8-2.5-8.8-1.4-11.3,2.3
			C267.5,17,268.6,22.1,272.3,24.6C272.3,24.6,272.3,24.6,272.3,24.6z"/>
		<path class="st0" d="M248.4,147.9c-13.9-0.8-25.9,9.9-26.6,23.8c-0.8,13.9,9.9,25.9,23.8,26.6c0.5,0,1,0,1.4,0
			c13.9,0,25.2-11.3,25.2-25.3C272.3,159.7,261.8,148.6,248.4,147.9L248.4,147.9z"/>
		<path class="st0" d="M135.1,133.1c4.3,8.5,13,13.9,22.6,13.9c13.9,0,25.2-11.3,25.2-25.3c0-3.9-0.9-7.8-2.7-11.4
			c-6.3-12.5-21.5-17.5-33.9-11.2C133.8,105.5,128.8,120.7,135.1,133.1L135.1,133.1z"/>
		<path class="st0" d="M333,100.8c5.1-2.6,7.1-8.9,4.5-14c-2.6-5.1-8.9-7.1-14-4.5c-5.1,2.6-7.1,8.8-4.6,13.9
			C321.6,101.3,327.8,103.4,333,100.8C333,100.8,333,100.8,333,100.8z"/>
		<path class="st0" d="M269,108.8c-7.3,3.7-10.3,12.6-6.6,19.9c3.7,7.3,12.6,10.3,19.9,6.6c7.3-3.7,10.3-12.6,6.6-19.9
			C285.2,108.1,276.3,105.2,269,108.8z"/>
		<path class="st0" d="M186.5,20.8c5.7,0.3,10.6-4.1,11-9.8s-4.1-10.6-9.8-11c-5.7-0.3-10.6,4-11,9.7
			C176.4,15.5,180.8,20.4,186.5,20.8C186.5,20.8,186.5,20.8,186.5,20.8z"/>
		<path class="st0" d="M186.4,86.1c8.2,0.5,15.2-5.8,15.6-14c0.5-8.2-5.8-15.2-14-15.6c-8.2-0.5-15.2,5.8-15.6,14
			C172,78.7,178.2,85.7,186.4,86.1C186.4,86.1,186.4,86.1,186.4,86.1z"/>
		<path class="st0" d="M106,237.7c7.3-3.7,10.3-12.6,6.6-19.9c-3.7-7.3-12.6-10.3-19.9-6.6c-7.3,3.7-10.3,12.6-6.6,19.9
			C89.8,238.4,98.7,241.4,106,237.7z"/>
		<path class="st0" d="M196,107.8c-7.6,11.7-4.4,27.3,7.3,34.9c11.7,7.6,27.3,4.4,34.9-7.3c7.6-11.7,4.4-27.3-7.3-34.9
			c-4.1-2.7-8.9-4.1-13.8-4.1C208.6,96.4,200.7,100.7,196,107.8z"/>
		<path class="st0" d="M239.9,213.4c-6.3-12.5-21.5-17.5-33.9-11.2c-12.5,6.3-17.5,21.5-11.2,33.9c6.3,12.5,21.5,17.5,33.9,11.2
			c0,0,0,0,0,0c12.4-6.2,17.5-21.2,11.3-33.7C240,213.5,240,213.5,239.9,213.4z"/>
		<path class="st0" d="M284,211.6c-6.9-4.5-16.1-2.6-20.5,4.3c-4.5,6.9-2.6,16.1,4.3,20.5c6.9,4.5,16.1,2.6,20.5-4.3
			C292.8,225.3,290.9,216.1,284,211.6C284,211.6,284,211.6,284,211.6z"/>
		<path class="st0" d="M332.4,173.7c0.4-7-4.9-12.9-11.9-13.3c-7-0.4-12.9,4.9-13.3,11.9c-0.4,7,4.9,12.9,11.9,13.3c0,0,0,0,0,0
			C326,186,332,180.6,332.4,173.7z"/>
		<path class="st0" d="M367.3,164.7c-4.5-0.3-8.4,3.2-8.6,7.7s3.2,8.4,7.7,8.6c4.5,0.3,8.3-3.2,8.6-7.7
			C375.2,168.8,371.8,165,367.3,164.7z"/>
		<path class="st0" d="M334.4,245.7c-4.8-3.1-11.2-1.8-14.4,3c-3.1,4.8-1.8,11.2,3,14.4c4.8,3.1,11.2,1.8,14.4-3
			C340.6,255.3,339.2,248.8,334.4,245.7C334.4,245.7,334.4,245.7,334.4,245.7z"/>
		<path class="st0" d="M102.6,321.9c-3.8-2.5-8.8-1.4-11.3,2.3c-2.5,3.8-1.4,8.8,2.3,11.3c3.8,2.5,8.8,1.4,11.3-2.3c0,0,0,0,0,0
			C107.5,329.5,106.4,324.4,102.6,321.9z"/>
		<path class="st0" d="M273.8,321.1c-4,2-5.6,7-3.6,11c2,4,7,5.6,11,3.6c4-2,5.6-6.9,3.6-10.9C282.8,320.7,277.9,319,273.8,321.1
			C273.9,321.1,273.8,321.1,273.8,321.1z"/>
		<path class="st0" d="M179,238.7c7.6-11.7,4.4-27.3-7.3-35c-11.7-7.6-27.3-4.4-35,7.3s-4.4,27.3,7.3,35c4.1,2.7,8.9,4.1,13.8,4.1
			C166.4,250.2,174.3,245.9,179,238.7z"/>
		<path class="st0" d="M128.5,277.4c-5.8-3.8-13.7-2.2-17.5,3.6c-3.8,5.8-2.2,13.7,3.6,17.5s13.7,2.2,17.5-3.6c0,0,0,0,0,0
			C136,289.1,134.4,281.2,128.5,277.4z"/>
		<path class="st0" d="M187.4,325.7c-5.7-0.3-10.6,4.1-11,9.8s4.1,10.6,9.8,11c5.7,0.3,10.6-4,11-9.7
			C197.5,331,193.1,326.1,187.4,325.7C187.4,325.7,187.4,325.7,187.4,325.7z"/>
		<path class="st0" d="M187.5,260.4c-8.2-0.5-15.2,5.8-15.6,14c-0.5,8.2,5.8,15.2,14,15.6c8.2,0.4,15.2-5.8,15.6-14
			C202,267.9,195.7,260.8,187.5,260.4C187.5,260.4,187.5,260.4,187.5,260.4z"/>
		<path class="st0" d="M248.2,276.4c-6.2,3.2-8.7,10.8-5.5,17c3.2,6.2,10.8,8.7,17,5.5c6.2-3.1,8.7-10.7,5.6-16.9
			C262.1,275.8,254.5,273.2,248.2,276.4C248.2,276.4,248.2,276.4,248.2,276.4z"/>
	</g>
</g>
</svg>
