<svg xmlns="http://www.w3.org/2000/svg" width="512" height="512" fill="none" viewBox="0 0 512 512"><path stroke="#000" stroke-linejoin="round" stroke-width="6" d="m321.459 142.653-.001 75.383 65.285-37.691-65.284-37.692ZM321.458 142.653l-65.284 37.692 65.284 37.692v-75.384ZM321.458 142.653l-65.284-37.692v75.384l65.284-37.692ZM190.89 142.653l65.284 37.692v-75.384l-65.284 37.692Z"/><path stroke="#000" stroke-linejoin="round" stroke-width="6" d="M190.89 142.653v75.383l65.284-37.691-65.284-37.692ZM190.89 142.653l-65.285 37.692 65.285 37.692v-75.384Z"/><path stroke="#000" stroke-linejoin="round" stroke-width="6" d="m125.605 255.728 65.285-37.692-65.285-37.691v75.383ZM125.605 255.728l65.285 37.692v-75.383l-65.285 37.691ZM125.605 255.728v75.384l65.285-37.692-65.285-37.692Z"/><path stroke="#000" stroke-linejoin="round" stroke-width="6" d="M190.89 368.804V293.42l-65.285 37.692 65.285 37.692ZM190.89 368.804l65.284-37.692-65.284-37.692v75.384Z"/><path stroke="#000" stroke-linejoin="round" stroke-width="6" d="m190.89 368.804 65.284 37.692v-75.384l-65.284 37.692Z"/><path stroke="#000" stroke-linejoin="round" stroke-width="6" d="m321.457 368.804-65.284-37.692v75.384l65.284-37.692ZM321.458 368.804V293.42l-65.284 37.692 65.284 37.692ZM321.458 368.804l65.284-37.692-65.284-37.692v75.384Z"/></svg>