<svg width="182" height="82" viewBox="0 0 182 82" fill="none" xmlns="http://www.w3.org/2000/svg">
<path fill-rule="evenodd" clip-rule="evenodd" d="M44.4165 9.22846C35.9897 9.22846 27.908 12.576 21.9494 18.5346C15.9907 24.4933 12.6432 32.575 12.6432 41.0018C12.6432 49.4286 15.9907 57.5102 21.9494 63.4689C27.908 69.4275 35.9897 72.775 44.4165 72.775V77.5584C24.224 77.5618 7.85474 61.1925 7.85474 41C7.85474 20.8075 24.224 4.43829 44.4165 4.43829V9.22846ZM60.6525 21.7915C55.5433 17.5534 48.9643 15.5097 42.353 16.1069C35.7417 16.7041 29.6355 19.8936 25.3684 24.9787C21.1013 30.0637 19.0202 36.6309 19.5798 43.2455C20.1393 49.8601 23.2941 55.9843 28.3547 60.2803L25.2763 63.9498C22.2168 61.441 19.6854 58.3501 17.8287 54.8562C15.9719 51.3623 14.8268 47.5348 14.4596 43.5952C14.0924 39.6557 14.5104 35.6825 15.6894 31.9056C16.8684 28.1287 18.7849 24.6233 21.3281 21.5922C23.8712 18.5612 26.9904 16.0648 30.5051 14.2476C34.0197 12.4304 37.8599 11.3286 41.8033 11.0058C45.7468 10.6831 49.7151 11.1458 53.4784 12.3674C57.2417 13.5889 60.7253 15.5449 63.7275 18.122L60.6491 21.7915H60.6525ZM52.9445 24.6752C48.6117 22.3876 43.5476 21.9149 38.8663 23.3611C34.185 24.8073 30.2699 28.0538 27.9823 32.3866C25.6947 36.7194 25.222 41.7835 26.6682 46.4648C28.1144 51.1461 31.3609 55.0612 35.6937 57.3488L33.4592 61.5855C28.1043 58.6491 24.1184 53.7251 22.3619 47.876C20.6053 42.0268 21.2189 35.7216 24.0702 30.3208C26.9214 24.9201 31.7818 20.8569 37.6024 19.0081C43.4231 17.1592 49.7372 17.673 55.1824 20.4385L52.9445 24.6752ZM44.4165 29.175C41.2803 29.175 38.2725 30.4208 36.0549 32.6384C33.8373 34.8561 32.5914 37.8638 32.5914 41C32.5914 44.1363 33.8373 47.144 36.0549 49.3616C38.2725 51.5793 41.2803 52.8251 44.4165 52.8251V57.6153C40.0098 57.6153 35.7837 55.8648 32.6677 52.7488C29.5518 49.6328 27.8012 45.4067 27.8012 41C27.8012 36.5934 29.5518 32.3673 32.6677 29.2513C35.7837 26.1353 40.0098 24.3848 44.4165 24.3848V29.175Z" fill="#F15A29"/>
<path d="M48.8104 37.023C48.3009 36.4745 47.7138 36.0037 47.0679 35.6256C46.504 35.2908 45.8615 35.1116 45.2058 35.1062C44.3379 35.1062 43.5589 35.2668 42.8722 35.5846C42.208 35.8835 41.6111 36.3137 41.1173 36.8491C40.6235 37.3846 40.2431 38.0144 39.9988 38.7006C39.4928 40.0933 39.4928 41.6196 39.9988 43.0124C40.2449 43.698 40.626 44.3273 41.1196 44.8631C41.6131 45.3989 42.2091 45.8303 42.8722 46.1318C43.5555 46.4496 44.3379 46.6101 45.2058 46.6101C45.9472 46.6101 46.6339 46.453 47.266 46.1489C47.9049 45.8414 48.4619 45.3801 48.8889 44.8096L52.0562 48.2467C51.5813 48.7251 51.0312 49.1385 50.4128 49.487C49.2628 50.1283 48.0112 50.5675 46.7125 50.7853C46.1317 50.8741 45.6294 50.922 45.2092 50.922C43.8306 50.9305 42.462 50.6874 41.1707 50.2045C39.9487 49.7532 38.8307 49.0594 37.8839 48.1647C36.9444 47.2662 36.197 46.1864 35.6869 44.9906C35.1312 43.6842 34.8542 42.2761 34.8738 40.8565C34.8738 39.3395 35.1471 37.9626 35.6869 36.7223C36.1994 35.5265 36.9443 34.4468 37.8839 33.5482C38.8303 32.6565 39.9475 31.9629 41.1707 31.5119C42.4609 31.0294 43.8283 30.7863 45.2058 30.7944C46.4187 30.7944 47.6419 31.0267 48.8684 31.4914C50.1053 31.9629 51.2123 32.7214 52.0972 33.7088L48.8104 37.023Z" fill="white"/>
<path d="M66.0714 38.9397C66.0441 37.5252 65.6068 36.4182 64.7628 35.605C63.9189 34.7953 62.747 34.3887 61.2437 34.3887C59.8155 34.3887 58.6846 34.7987 57.8578 35.6255C57.0241 36.4524 56.515 37.556 56.3305 38.9397H66.0714ZM56.3339 42.534C56.4877 43.969 57.0446 45.0897 57.9944 45.8892C58.9443 46.6887 60.0923 47.0885 61.4384 47.0885C62.6274 47.0885 63.6217 46.8425 64.428 46.347C65.235 45.8543 65.9515 45.2268 66.5463 44.4918L69.9528 47.0885C68.8423 48.4722 67.5987 49.4596 66.2286 50.0439C63.5659 51.1584 60.5784 51.2158 57.8748 50.2045C56.6526 49.7537 55.5345 49.0598 54.588 48.1647C53.6497 47.2652 52.9025 46.1856 52.3911 44.9906C51.8371 43.6837 51.5613 42.2758 51.5813 40.8565C51.5813 39.3395 51.8513 37.9625 52.3945 36.7223C52.907 35.5265 53.6518 34.4468 54.588 33.5482C55.5378 32.6565 56.6551 31.9629 57.8748 31.5119C59.1662 31.0293 60.5348 30.7861 61.9133 30.7944C63.2322 30.7944 64.4417 31.0233 65.535 31.4914C66.6283 31.956 67.5679 32.6291 68.3469 33.5072C69.1259 34.3887 69.7307 35.4718 70.168 36.7633C70.6053 38.0582 70.8172 39.5376 70.8172 41.2152V42.534H56.3305H56.3339ZM72.8808 31.2727H77.63V34.3067H77.7086C78.2382 33.1895 78.9898 32.325 79.967 31.71C81.2269 30.9352 82.7225 30.6371 84.1832 30.8695C84.4599 30.9242 84.7435 30.9925 85.0373 31.0745V35.7041C84.6508 35.6001 84.2598 35.5134 83.8654 35.4445C83.493 35.3761 83.1138 35.342 82.7379 35.342C81.6309 35.342 80.7392 35.547 80.0661 35.9638C79.5031 36.2847 79.0122 36.7182 78.6243 37.2373C78.2363 37.7564 77.9595 38.3499 77.8111 38.9807C77.7107 39.3722 77.65 39.7729 77.63 40.1765V50.4436H72.8808V31.2727ZM99.5206 38.9397C99.4933 37.5252 99.0593 36.4182 98.212 35.605C97.3715 34.7953 96.1962 34.3887 94.6928 34.3887C93.2681 34.3887 92.1372 34.7987 91.3103 35.6255C90.4733 36.4524 89.9676 37.556 89.7831 38.9397H99.5206ZM89.7831 42.534C89.9403 43.969 90.4938 45.0897 91.447 45.8892C92.3934 46.6887 93.5414 47.0885 94.8876 47.0885C96.0766 47.0885 97.0743 46.8425 97.8772 46.347C98.6835 45.855 99.401 45.2264 99.9955 44.4918L103.402 47.0885C102.292 48.4722 101.051 49.4596 99.6778 50.0439C97.0151 51.1587 94.0275 51.2161 91.324 50.2045C90.1031 49.7531 88.9862 49.0592 88.0406 48.1647C87.1023 47.2652 86.3551 46.1856 85.8437 44.9906C85.2877 43.6842 85.0107 42.2761 85.0305 40.8565C85.0305 39.3395 85.3038 37.9625 85.8437 36.7223C86.3835 35.4855 87.1181 34.4263 88.0406 33.5482C88.9885 32.6558 90.1063 31.9633 91.3274 31.5119C92.6177 31.0296 93.9851 30.7864 95.3625 30.7944C96.6848 30.7944 97.8908 31.0233 98.9842 31.4914C100.081 31.956 101.021 32.6291 101.796 33.5072C102.575 34.3887 103.183 35.4718 103.617 36.7633C104.055 38.0582 104.273 39.5376 104.273 41.2152V42.534H89.7831ZM121.302 40.8599C121.304 40.1236 121.177 39.3928 120.926 38.7005C120.679 38.0166 120.297 37.3888 119.804 36.8538C119.312 36.3188 118.717 35.8873 118.056 35.5845C117.321 35.2558 116.524 35.0925 115.719 35.1062C114.584 35.0849 113.471 35.4203 112.537 36.0652C111.603 36.71 110.894 37.6318 110.512 38.7005C110.261 39.3915 110.134 40.1213 110.136 40.8565C110.136 41.6013 110.259 42.3222 110.512 43.0158C110.893 44.0857 111.601 45.0087 112.535 45.6538C113.47 46.2989 114.584 46.6335 115.719 46.6101C116.853 46.6294 117.966 46.2932 118.899 45.6486C119.833 45.004 120.542 44.0834 120.926 43.0158C121.175 42.3222 121.302 41.6047 121.302 40.8599ZM105.541 20.2437H110.293V33.7054H110.413C110.683 33.3495 110.987 33.021 111.322 32.7248C112.238 31.9392 113.321 31.3725 114.489 31.0677C115.176 30.8832 115.968 30.791 116.867 30.791C118.116 30.7731 119.355 31.0241 120.498 31.527C121.642 32.0298 122.664 32.7728 123.495 33.7054C124.302 34.6074 124.93 35.6768 125.375 36.9C125.826 38.1231 126.051 39.442 126.051 40.853C126.051 42.2641 125.839 43.5864 125.416 44.8095C125.02 45.99 124.388 47.0771 123.557 48.0041C122.727 48.9164 121.715 49.6441 120.588 50.1395C119.426 50.6589 118.118 50.922 116.669 50.922C115.373 50.9303 114.09 50.6564 112.911 50.119C111.739 49.5817 110.768 48.687 110.136 47.5634H110.058V50.4368H105.541V20.2505V20.2437ZM128.104 31.2693H132.854V34.3033H132.932C133.462 33.186 134.217 32.3216 135.191 31.7066C136.451 30.9327 137.946 30.6346 139.407 30.8661C139.684 30.9208 139.967 30.9891 140.261 31.0711V35.7007C139.874 35.5966 139.483 35.5099 139.089 35.441C138.717 35.3727 138.337 35.3385 137.962 35.3385C136.851 35.3385 135.963 35.5435 135.29 35.9604C134.678 36.3157 134.151 36.7995 133.745 37.3783C133.41 37.8624 133.168 38.4046 133.031 38.9773C132.934 39.3692 132.875 39.7697 132.857 40.1731V50.4402H128.104V31.2693ZM152.728 41.8507H151.738C151.078 41.8507 150.34 41.878 149.52 41.9327C148.738 41.9793 147.963 42.1053 147.207 42.3085C146.479 42.5135 145.864 42.8074 145.362 43.19C145.116 43.379 144.919 43.6246 144.788 43.906C144.657 44.1873 144.596 44.4961 144.61 44.8061C144.61 45.2605 144.713 45.6398 144.908 45.9439C145.106 46.2514 145.365 46.511 145.68 46.7263C146.005 46.9432 146.368 47.0984 146.749 47.1841C147.149 47.2764 147.542 47.3208 147.938 47.3208C149.578 47.3208 150.781 46.9313 151.56 46.1455C152.339 45.3596 152.728 44.2868 152.728 42.9338V41.8507ZM153.009 47.806H152.886C152.202 48.8993 151.328 49.6885 150.275 50.1805C149.182 50.6794 147.993 50.9322 146.79 50.9185C145.926 50.9185 145.068 50.799 144.235 50.5632C143.437 50.3376 142.686 49.9708 142.017 49.4801C141.372 49.0017 140.839 48.3884 140.456 47.683C140.046 46.9092 139.841 46.0435 139.861 45.1683C139.861 44.1262 140.046 43.2447 140.418 42.5135C140.77 41.796 141.279 41.1708 141.901 40.672C142.551 40.1638 143.281 39.7667 144.06 39.4966C144.887 39.1994 145.741 38.9773 146.613 38.8372C147.494 38.6903 148.389 38.598 149.284 38.557C150.128 38.5195 150.976 38.499 151.82 38.4955H153.005V37.9796C153.005 36.7804 152.595 35.8818 151.775 35.2805C150.962 34.6825 149.916 34.3853 148.652 34.3853C146.768 34.3702 144.952 35.0867 143.585 36.384L141.091 33.8625C142.117 32.7906 143.386 31.9819 144.791 31.505C146.199 31.0267 147.679 30.7875 149.165 30.7875C150.511 30.7875 151.645 30.9447 152.571 31.2488C153.494 31.5563 154.259 31.9492 154.867 32.4275C155.472 32.9059 155.94 33.4594 156.271 34.0846C156.599 34.7099 156.839 35.342 156.989 35.9809C157.129 36.6198 157.214 37.2382 157.242 37.8395C157.269 38.4375 157.283 38.967 157.283 39.4146V50.4402H153.005L153.009 47.806ZM170.153 36.5788C169.231 35.2736 167.987 34.621 166.429 34.621C165.78 34.6258 165.142 34.7901 164.571 35.0994C164.283 35.2411 164.043 35.4645 163.882 35.7415C163.72 36.0186 163.643 36.3371 163.662 36.6574C163.662 37.245 163.911 37.6721 164.413 37.9386C164.916 38.2051 165.548 38.4306 166.313 38.6151C167.078 38.803 167.902 38.9944 168.787 39.196C169.672 39.3941 170.495 39.7016 171.26 40.1116C172.026 40.5285 172.661 41.0922 173.16 41.8131C173.662 42.5306 173.912 43.5146 173.912 44.7651C173.912 45.9131 173.669 46.88 173.181 47.6625C172.706 48.4346 172.053 49.0872 171.281 49.5621C170.469 50.0535 169.579 50.4036 168.65 50.5974C167.687 50.8092 166.703 50.9185 165.719 50.9185C164.243 50.9185 162.883 50.7067 161.639 50.2796C160.345 49.8157 159.198 49.0162 158.315 47.9631L161.485 44.9667C162.09 45.6603 162.743 46.224 163.443 46.6648C164.14 47.1055 164.994 47.3242 165.995 47.3242C166.34 47.3242 166.696 47.2832 167.065 47.2046C167.427 47.1284 167.774 46.9934 168.093 46.8049C168.398 46.6311 168.661 46.3933 168.865 46.1079C169.066 45.8209 169.17 45.4775 169.163 45.1273C169.163 44.4645 168.913 43.9656 168.411 43.6513C167.821 43.2946 167.181 43.0307 166.511 42.8689C165.691 42.657 164.868 42.4725 164.038 42.3085C163.177 42.1445 162.344 41.8628 161.56 41.4715C160.806 41.0947 160.154 40.5401 159.661 39.8554C159.162 39.1618 158.909 38.2051 158.909 36.982C158.909 35.916 159.128 34.99 159.562 34.2042C159.981 33.4363 160.57 32.7739 161.284 32.267C162.025 31.7476 162.859 31.3684 163.74 31.1497C165.91 30.5843 168.2 30.688 170.311 31.447C171.527 31.8672 172.579 32.6565 173.321 33.702L170.153 36.5788Z" fill="white"/>
</svg>
