<svg width="50" height="50" viewBox="0 0 50 50" fill="none" xmlns="http://www.w3.org/2000/svg">
<path fill-rule="evenodd" clip-rule="evenodd" d="M29.4186 5.62713C24.2806 5.62713 19.353 7.6682 15.7199 11.3013C12.0868 14.9345 10.0457 19.862 10.0457 25C10.0457 30.1381 12.0868 35.0656 15.7199 38.6988C19.353 42.3319 24.2806 44.373 29.4186 44.373V47.2917C17.1061 47.2917 7.12695 37.3105 7.12695 24.998C7.12695 12.6855 17.104 2.7063 29.4165 2.7063V5.62505L29.4186 5.62713ZM39.3186 13.2875C37.7794 11.9809 35.9971 10.9915 34.0741 10.3761C32.1512 9.76067 30.1256 9.53147 28.1137 9.70166C26.1019 9.87185 24.1435 10.4381 22.3513 11.3677C20.559 12.2974 18.9683 13.5722 17.6704 15.1189C16.3726 16.6655 15.3933 18.4534 14.7888 20.3798C14.1844 22.3062 13.9667 24.3332 14.1483 26.344C14.33 28.3548 14.9073 30.3099 15.8472 32.0968C16.787 33.8838 18.0709 35.4673 19.6249 36.7563L17.7478 38.9938C15.9126 37.4545 14.3987 35.5687 13.2924 33.4442C12.1862 31.3197 11.5092 28.9981 11.3003 26.6119C11.0914 24.2258 11.3545 21.8219 12.0747 19.5374C12.7949 17.253 13.9581 15.1328 15.4978 13.298C17.0373 11.4628 18.9233 9.94877 21.0479 8.84247C23.1726 7.73618 25.4944 7.05923 27.8807 6.8503C30.267 6.64136 32.6711 6.90453 34.9557 7.62477C37.2403 8.34501 39.3607 9.50822 41.1957 11.048L39.3186 13.2875ZM34.6207 15.0459C31.9818 13.6829 28.9113 13.4172 26.0776 14.3068C23.2438 15.1964 20.876 17.1691 19.4895 19.7958C18.1029 22.4224 17.8099 25.4903 18.6741 28.332C19.5384 31.1736 21.4899 33.5589 24.104 34.9688L22.7374 37.5521C19.4721 35.7617 17.0418 32.7592 15.9707 29.1927C14.8996 25.6261 15.2737 21.7815 17.0123 18.4883C18.7509 15.1952 21.7146 12.7176 25.2637 11.5903C28.8129 10.463 32.663 10.7763 35.9832 12.4625L34.6207 15.0459ZM29.4165 17.7896C27.5042 17.7896 25.6702 18.5493 24.318 19.9015C22.9658 21.2537 22.2061 23.0877 22.2061 25C22.2061 26.9124 22.9658 28.7464 24.318 30.0986C25.6702 31.4508 27.5042 32.2105 29.4165 32.2105V35.1313C26.7296 35.1313 24.1526 34.0639 22.2527 32.1639C20.3527 30.2639 19.2853 27.687 19.2853 25C19.2853 22.3131 20.3527 19.7362 22.2527 17.8362C24.1526 15.9362 26.7296 14.8688 29.4165 14.8688V17.7896Z" fill="#F15A29"/>
<path d="M32.0981 22.5749C31.7875 22.2404 31.4295 21.9534 31.0356 21.7228C30.6925 21.519 30.3014 21.4097 29.9023 21.4062C29.371 21.4062 28.896 21.5041 28.4773 21.6978C28.0725 21.8802 27.7089 22.1425 27.4081 22.469C27.1074 22.7955 26.8758 23.1795 26.7273 23.5978C26.5731 24.0207 26.4981 24.4645 26.4981 24.9124C26.4981 25.3666 26.5731 25.8082 26.7273 26.227C26.877 26.6449 27.1091 27.0286 27.4096 27.3553C27.7102 27.682 28.0733 27.9451 28.4773 28.1291C28.8939 28.3228 29.3731 28.4207 29.9023 28.4207C30.3523 28.4207 30.771 28.3249 31.1564 28.1395C31.5481 27.952 31.8856 27.6707 32.146 27.3228L34.0794 29.4187C33.7877 29.7103 33.4544 29.9624 33.0752 30.1749C32.374 30.566 31.6108 30.8338 30.8189 30.9666C30.4648 31.0207 30.1585 31.0499 29.9023 31.0499C29.0617 31.0552 28.2271 30.9069 27.4398 30.6124C26.6954 30.3371 26.0144 29.914 25.4377 29.3687C24.8643 28.8208 24.4078 28.1624 24.096 27.4332C23.7572 26.6366 23.5883 25.778 23.6002 24.9124C23.6002 23.9874 23.7669 23.1478 24.096 22.3916C24.4085 21.6624 24.8627 21.0041 25.4356 20.4562C26.0148 19.9124 26.696 19.4895 27.4398 19.2145C28.2271 18.92 29.0617 18.7717 29.9023 18.777C30.6419 18.777 31.3856 18.9187 32.1356 19.202C32.8877 19.4895 33.5627 19.952 34.1023 20.5541L32.0981 22.5749Z" fill="white"/>
</svg>
