<svg width="32" height="32" viewBox="0 0 32 32" fill="none" xmlns="http://www.w3.org/2000/svg">
<g clip-path="url(#clip0_2_16)">
<path d="M26.3333 0H5.66667C2.53705 0 0 2.53705 0 5.66667V25.5333C0 28.6629 2.53705 31.2 5.66667 31.2H26.3333C29.4629 31.2 32 28.6629 32 25.5333V5.66667C32 2.53705 29.4629 0 26.3333 0Z" fill="#00005B"/>
<path d="M15.3111 19.3678V21.5788C15.3197 21.6409 15.3076 21.704 15.2765 21.7584C15.2455 21.8128 15.1972 21.8553 15.1394 21.8794C14.7311 22.0261 14.3066 22.1234 13.8751 22.1692C13.3158 22.2357 12.7531 22.268 12.1899 22.2658C11.3902 22.2695 10.5932 22.1721 9.81784 21.976C9.0919 21.7939 8.39979 21.4967 7.76778 21.0958C7.15858 20.7082 6.62115 20.2179 6.1793 19.6468C5.72121 19.0471 5.37241 18.3713 5.1489 17.6505C4.89437 16.8159 4.77124 15.9469 4.78392 15.0745C4.78392 13.6291 5.09877 12.359 5.72846 11.2641C6.3567 10.1707 7.28887 9.28331 8.41179 8.70957C9.69329 8.05437 11.1158 7.723 12.5549 7.74445C13.1107 7.73898 13.6663 7.76766 14.2186 7.83032C14.6029 7.87215 14.9811 7.95861 15.3455 8.08794C15.3847 8.11748 15.4152 8.15691 15.4341 8.20218C15.453 8.24745 15.4594 8.29692 15.4529 8.34552V10.7596C15.4529 10.8884 15.4025 10.9314 15.3026 10.8884C14.896 10.6982 14.4645 10.5666 14.0209 10.4976C13.5025 10.4166 12.9785 10.3771 12.4538 10.3795C11.5981 10.3602 10.7522 10.5653 10.0003 10.9743C9.32911 11.345 8.77791 11.8999 8.41179 12.5736C8.02413 13.3183 7.83208 14.1493 7.85365 14.9886C7.84175 15.5864 7.93252 16.1818 8.12201 16.7488C8.28754 17.2266 8.53849 17.6703 8.86264 18.0583C9.16114 18.4173 9.52543 18.716 9.93594 18.9384C10.339 19.154 10.7684 19.3164 11.2132 19.4215C11.6441 19.539 12.087 19.6064 12.5333 19.6222C13.0171 19.625 13.5007 19.6035 13.9824 19.5578C14.3786 19.5053 14.767 19.4055 15.1394 19.2605C15.1964 19.2175 15.2393 19.2068 15.2682 19.2283C15.2852 19.2469 15.2979 19.2691 15.3053 19.2932C15.3127 19.3173 15.3147 19.3428 15.3111 19.3678Z" fill="#9999FF"/>
<path d="M20.24 14.3016V21.8282C20.24 21.943 20.1897 22 20.0897 22H17.4111C17.3849 22.0037 17.3581 22.0013 17.333 21.9929C17.3078 21.9846 17.285 21.9704 17.2662 21.9517C17.2475 21.9329 17.2333 21.9101 17.2249 21.8849C17.2166 21.8598 17.2141 21.833 17.2179 21.8068V6.9815C17.2179 6.88153 17.2749 6.83123 17.3896 6.83123H20.0897C20.1101 6.82835 20.1309 6.83025 20.1505 6.83679C20.17 6.84332 20.1878 6.85431 20.2023 6.86888C20.2169 6.88345 20.2279 6.90121 20.2344 6.92075C20.241 6.9403 20.2429 6.96109 20.24 6.9815L20.2556 12.0476C20.6436 11.7902 21.0597 11.5777 21.4958 11.4144C21.9466 11.25 22.4725 11.2111 23.0736 11.2111C23.4994 11.2128 23.9227 11.2779 24.3294 11.4043C24.762 11.5243 25.162 11.7405 25.4993 12.0369C25.8568 12.3589 26.1078 12.7956 26.3224 13.3464C26.5371 13.8974 26.6444 14.6094 26.6444 15.4823V21.8068C26.6444 21.9356 26.5872 22 26.4727 22H23.9591C23.9299 22.0042 23.9002 22.0015 23.8722 21.9922C23.8443 21.9829 23.8189 21.9672 23.7981 21.9464C23.7772 21.9255 23.7615 21.9001 23.7522 21.8722C23.7429 21.8442 23.7403 21.8145 23.7444 21.7853V15.7828C23.7581 15.3969 23.6885 15.0125 23.5405 14.6558C23.4212 14.3828 23.2278 14.1486 22.9823 13.9796C22.6836 13.8105 22.3432 13.7286 22.0002 13.7435C21.6801 13.7422 21.3617 13.7892 21.0557 13.883C20.7611 13.9732 20.485 14.1149 20.24 14.3016Z" fill="#9999FF"/>
</g>
<defs>
<clipPath id="clip0_2_16">
<rect width="32" height="31.2" fill="white"/>
</clipPath>
</defs>
</svg>
