<svg width="256" height="64" viewBox="0 0 256 64" fill="none" xmlns="http://www.w3.org/2000/svg">
<path fill-rule="evenodd" clip-rule="evenodd" d="M0.410969 50.172C-0.215081 49.4087 -0.0781301 48.2852 0.691665 47.6671L7.98396 41.8121C8.62005 41.3013 9.55003 41.4167 10.0687 42.0463C15.0218 48.0597 20.2779 50.8436 26.0956 50.8436C31.8731 50.8436 36.9858 48.0991 41.7221 42.1525C42.2304 41.5142 43.1581 41.3822 43.8033 41.8816L51.1953 47.6021C51.9758 48.2062 52.1331 49.3269 51.5202 50.1005C44.5173 58.9399 35.9433 63.5972 26.0956 63.5972C16.2765 63.5972 7.62597 58.969 0.410969 50.172Z" fill="url(#paint0_linear_8_543)"/>
<path fill-rule="evenodd" clip-rule="evenodd" d="M26.4486 17.1675C26.1737 16.9241 25.7605 16.924 25.4854 17.1672L9.62883 31.1882C9.02267 31.7242 8.09549 31.662 7.56638 31.0498L1.38183 23.8944C0.860091 23.2907 0.922501 22.3793 1.52165 21.8525L25.0071 1.19963C25.5561 0.716868 26.3782 0.716976 26.927 1.19988L50.4177 21.8683C51.0172 22.3958 51.0789 23.3081 50.5559 23.9115L44.3563 31.0634C43.8266 31.6745 42.9 31.7357 42.2945 31.1995L26.4486 17.1675Z" fill="url(#paint1_linear_8_543)"/>
<path d="M83.1537 52.7596C77.5336 52.7596 72.8501 50.9382 69.0512 47.2955C65.2524 43.6008 63.379 38.8652 63.379 33.0889C63.379 27.2606 65.3045 22.473 69.1033 18.7262C72.9542 14.9274 77.6376 13.054 83.2058 13.054C90.0749 13.054 96.1634 16.0202 99.7021 20.6517L93.5095 27.1565C90.5433 23.9821 87.3169 22.3689 83.8303 22.3689C80.864 22.3689 78.4182 23.3577 76.3887 25.3872C74.4112 27.4167 73.4225 29.9666 73.4225 33.0369C73.4225 36.0031 74.4112 38.5009 76.3887 40.5305C78.4182 42.5079 80.864 43.4967 83.7782 43.4967C87.577 43.4967 90.9075 41.8314 93.6656 38.553L100.118 44.7456C98.3491 47.0873 95.9553 49.0128 92.9891 50.5219C90.0229 52.031 86.7444 52.7596 83.1537 52.7596ZM111.036 12.4816V52.1871H101.878V12.4816H111.036ZM119.717 20.9119C116.647 20.9119 114.409 18.6742 114.409 15.6039C114.409 12.6377 116.751 10.4 119.717 10.4C122.683 10.4 124.973 12.6377 124.973 15.6039C124.973 18.6742 122.683 20.9119 119.717 20.9119ZM124.348 23.4618V52.1871H115.137V23.4618H124.348ZM141.979 52.8116C137.452 52.8116 133.809 51.4066 130.947 48.5965C128.137 45.7864 126.732 42.1957 126.732 37.7724C126.732 33.3491 128.137 29.7584 130.999 26.9483C133.861 24.1383 137.556 22.7332 142.135 22.7332C148.12 22.7332 153.376 25.6474 155.822 31.1114L148.484 34.9623C147.027 32.5165 144.998 31.2676 142.344 31.2676C140.418 31.2676 138.857 31.892 137.608 33.141C136.411 34.3899 135.787 35.9511 135.787 37.7724C135.787 41.5712 138.545 44.3813 142.24 44.3813C144.893 44.3813 147.339 42.9242 148.38 40.6866L155.718 45.0578C153.22 49.8454 148.068 52.8116 141.979 52.8116ZM187.659 52.1871H176.731L168.249 40.7907L166.896 42.0396V52.1871H157.737V12.4816H166.896V31.788L175.534 23.4618H186.723L174.389 35.0144L187.659 52.1871ZM188.274 37.252V13.7305H198.057V37.0959C198.057 41.4151 200.555 43.4967 204.145 43.4967C207.684 43.4967 210.182 41.311 210.182 37.0959V13.7305H220.017V37.252C220.017 48.5965 212.159 52.8637 204.145 52.8637C196.183 52.8637 188.274 48.5965 188.274 37.252ZM241.759 22.7332C245.87 22.7332 249.201 24.1903 251.855 27.1045C254.509 29.9666 255.81 33.5573 255.81 37.7724C255.81 41.9876 254.457 45.5782 251.803 48.5444C249.149 51.4586 245.818 52.9157 241.811 52.9157C238.637 52.9157 235.879 51.8749 233.641 49.7934V63.9999H224.43V23.4618H233.485V26.1157C235.723 23.8781 238.481 22.7332 241.759 22.7332ZM246.443 37.8765C246.443 34.1297 243.737 31.2676 239.99 31.2676C236.243 31.2676 233.485 34.1297 233.485 37.8765C233.485 39.6978 234.11 41.259 235.307 42.56C236.555 43.8609 238.117 44.4854 239.99 44.4854C241.863 44.4854 243.425 43.8609 244.621 42.56C245.818 41.259 246.443 39.6978 246.443 37.8765Z" fill="#202020"/>
<defs>
<linearGradient id="paint0_linear_8_543" x1="-0.692993" y1="32.1384" x2="52.5992" y2="32.1384" gradientUnits="userSpaceOnUse">
<stop offset="0.225962" stop-color="#6647F0"/>
<stop offset="0.793269" stop-color="#0091FF"/>
</linearGradient>
<linearGradient id="paint1_linear_8_543" x1="-0.692994" y1="31.621" x2="52.5992" y2="31.621" gradientUnits="userSpaceOnUse">
<stop stop-color="#FF02F0"/>
<stop offset="0.778846" stop-color="#F76808"/>
<stop offset="1" stop-color="#F76808"/>
</linearGradient>
</defs>
</svg>
