<svg width="256" height="64" viewBox="0 0 256 64" fill="none" xmlns="http://www.w3.org/2000/svg">
<path fill-rule="evenodd" clip-rule="evenodd" d="M0.411091 50.172C-0.214959 49.4087 -0.078008 48.2852 0.691787 47.6671L7.98408 41.8121C8.62017 41.3013 9.55015 41.4167 10.0688 42.0463C15.022 48.0597 20.278 50.8436 26.0957 50.8436C31.8732 50.8436 36.9859 48.0991 41.7222 42.1525C42.2305 41.5142 43.1582 41.3822 43.8035 41.8816L51.1954 47.6021C51.976 48.2062 52.1332 49.3269 51.5203 50.1005C44.5175 58.9399 35.9435 63.5972 26.0957 63.5972C16.2766 63.5972 7.62609 58.969 0.411091 50.172Z" fill="url(#paint0_linear_8_553)"/>
<path fill-rule="evenodd" clip-rule="evenodd" d="M26.4487 17.1675C26.1739 16.9241 25.7606 16.924 25.4855 17.1672L9.62895 31.1882C9.02279 31.7242 8.09562 31.662 7.56651 31.0498L1.38195 23.8944C0.860213 23.2907 0.922623 22.3793 1.52177 21.8525L25.0072 1.19963C25.5562 0.716868 26.3783 0.716976 26.9271 1.19988L50.4178 21.8683C51.0173 22.3958 51.079 23.3081 50.556 23.9115L44.3565 31.0634C43.8267 31.6745 42.9001 31.7357 42.2946 31.1995L26.4487 17.1675Z" fill="url(#paint1_linear_8_553)"/>
<path d="M83.1536 52.7596C77.5334 52.7596 72.85 50.9382 69.0511 47.2955C65.2523 43.6008 63.3789 38.8652 63.3789 33.0889C63.3789 27.2606 65.3043 22.473 69.1032 18.7262C72.954 14.9274 77.6375 13.054 83.2057 13.054C90.0748 13.054 96.1633 16.0202 99.702 20.6517L93.5093 27.1565C90.5431 23.9821 87.3167 22.3689 83.8301 22.3689C80.8639 22.3689 78.4181 23.3577 76.3886 25.3872C74.4111 27.4167 73.4224 29.9666 73.4224 33.0369C73.4224 36.0031 74.4111 38.5009 76.3886 40.5305C78.4181 42.5079 80.8639 43.4967 83.7781 43.4967C87.5769 43.4967 90.9074 41.8314 93.6655 38.553L100.118 44.7456C98.349 47.0873 95.9552 49.0128 92.989 50.5219C90.0228 52.031 86.7443 52.7596 83.1536 52.7596ZM111.036 12.4816V52.1871H101.877V12.4816H111.036ZM119.717 20.9119C116.646 20.9119 114.409 18.6742 114.409 15.6039C114.409 12.6377 116.75 10.4 119.717 10.4C122.683 10.4 124.973 12.6377 124.973 15.6039C124.973 18.6742 122.683 20.9119 119.717 20.9119ZM124.348 23.4618V52.1871H115.137V23.4618H124.348ZM141.979 52.8116C137.452 52.8116 133.809 51.4066 130.947 48.5965C128.137 45.7864 126.732 42.1957 126.732 37.7724C126.732 33.3491 128.137 29.7584 130.999 26.9483C133.861 24.1383 137.556 22.7332 142.135 22.7332C148.12 22.7332 153.376 25.6474 155.821 31.1114L148.484 34.9623C147.027 32.5165 144.997 31.2676 142.343 31.2676C140.418 31.2676 138.857 31.892 137.608 33.141C136.411 34.3899 135.787 35.9511 135.787 37.7724C135.787 41.5712 138.545 44.3813 142.239 44.3813C144.893 44.3813 147.339 42.9242 148.38 40.6866L155.717 45.0578C153.22 49.8454 148.068 52.8116 141.979 52.8116ZM187.659 52.1871H176.731L168.249 40.7907L166.896 42.0396V52.1871H157.737V12.4816H166.896V31.788L175.534 23.4618H186.722L174.389 35.0144L187.659 52.1871ZM188.273 37.252V13.7305H198.057V37.0959C198.057 41.4151 200.555 43.4967 204.145 43.4967C207.684 43.4967 210.182 41.311 210.182 37.0959V13.7305H220.017V37.252C220.017 48.5965 212.159 52.8637 204.145 52.8637C196.183 52.8637 188.273 48.5965 188.273 37.252ZM241.759 22.7332C245.87 22.7332 249.201 24.1903 251.855 27.1045C254.509 29.9666 255.81 33.5573 255.81 37.7724C255.81 41.9876 254.457 45.5782 251.803 48.5444C249.149 51.4586 245.818 52.9157 241.811 52.9157C238.637 52.9157 235.879 51.8749 233.641 49.7934V63.9999H224.43V23.4618H233.485V26.1157C235.723 23.8781 238.481 22.7332 241.759 22.7332ZM246.443 37.8765C246.443 34.1297 243.737 31.2676 239.99 31.2676C236.243 31.2676 233.485 34.1297 233.485 37.8765C233.485 39.6978 234.11 41.259 235.306 42.56C236.555 43.8609 238.117 44.4854 239.99 44.4854C241.863 44.4854 243.424 43.8609 244.621 42.56C245.818 41.259 246.443 39.6978 246.443 37.8765Z" fill="white"/>
<defs>
<linearGradient id="paint0_linear_8_553" x1="-0.692871" y1="32.1384" x2="52.5993" y2="32.1384" gradientUnits="userSpaceOnUse">
<stop offset="0.225962" stop-color="#6647F0"/>
<stop offset="0.793269" stop-color="#0091FF"/>
</linearGradient>
<linearGradient id="paint1_linear_8_553" x1="-0.692871" y1="31.621" x2="52.5993" y2="31.621" gradientUnits="userSpaceOnUse">
<stop stop-color="#FF02F0"/>
<stop offset="0.778846" stop-color="#F76808"/>
<stop offset="1" stop-color="#F76808"/>
</linearGradient>
</defs>
</svg>
