<svg xmlns="http://www.w3.org/2000/svg" width="161" height="34" fill="none" viewBox="0 0 161 34"><rect width="3.778" height="33.998" fill="#FFB200" rx=".919"/><rect width="3.778" height="33.998" x="7.556" fill="#FFB200" rx=".919"/><rect width="3.778" height="33.998" x="15.111" fill="#FFB200" rx=".919"/><rect width="3.778" height="33.998" x="22.665" fill="#FFB200" rx=".919"/><rect width="3.778" height="7.555" x="30.222" y="13.223" fill="#FFB200" rx=".919"/><path fill="#ffffff" d="M59.464 25.208c-.992.656-2.368.984-4.128.984-2.416 0-4.392-.752-5.928-2.256-1.536-1.504-2.304-3.52-2.304-6.048 0-2.448.768-4.44 2.304-5.976 1.552-1.536 3.512-2.304 5.88-2.304 1.728 0 3.112.296 4.152.888v2.424c-.704-.384-1.344-.648-1.92-.792-.56-.16-1.28-.24-2.16-.24-1.616 0-2.968.552-4.056 1.656-1.072 1.088-1.608 2.536-1.608 4.344 0 1.84.536 3.304 1.608 4.392 1.072 1.088 2.488 1.632 4.248 1.632 1.552 0 2.856-.4 3.912-1.2v2.496Zm5.195.792h-2.376V9.032h2.376V26Zm5.883 0h-2.376V13.832h2.376V26Zm.288-15.888c0 .4-.144.744-.432 1.032-.288.288-.64.432-1.056.432a1.48 1.48 0 0 1-1.056-.408 1.48 1.48 0 0 1-.408-1.056c0-.416.136-.768.408-1.056.288-.288.64-.432 1.056-.432.416 0 .768.144 1.056.432.288.288.432.64.432 1.056ZM82.545 25.52c-.784.48-1.784.72-3 .72-1.904 0-3.424-.6-4.56-1.8-1.136-1.2-1.704-2.696-1.704-4.488 0-1.744.568-3.232 1.704-4.464 1.152-1.248 2.704-1.872 4.656-1.872 1.056 0 2.024.224 2.904.672v2.16c-.784-.496-1.672-.744-2.664-.744-1.264 0-2.28.4-3.048 1.2-.752.8-1.128 1.824-1.128 3.072.032 1.232.408 2.248 1.128 3.048.72.784 1.728 1.176 3.024 1.176.96 0 1.856-.264 2.688-.792v2.112Zm5.057.48H85.25V9.2h2.352V26Zm2.808-6.36L95.186 26h-2.808l-4.68-6.36 4.584-5.808h2.76L90.41 19.64ZM109.562 26h-2.472v-7.08h-7.272V26h-2.472V9.824h2.472v6.96h7.272v-6.96h2.472V26Zm12.822-10.56c1.008 1.168 1.512 2.664 1.512 4.488 0 1.824-.52 3.328-1.56 4.512-1.024 1.184-2.44 1.776-4.248 1.776-1.792 0-3.2-.584-4.224-1.752-1.024-1.168-1.536-2.648-1.536-4.44 0-1.824.528-3.336 1.584-4.536 1.056-1.216 2.448-1.824 4.176-1.824 1.856 0 3.288.592 4.296 1.776Zm-7.608 4.512c0 1.2.296 2.216.888 3.048.592.816 1.4 1.224 2.424 1.224 1.088 0 1.912-.4 2.472-1.2.576-.8.864-1.816.864-3.048 0-1.264-.272-2.296-.816-3.096-.544-.816-1.392-1.224-2.544-1.224-1.04 0-1.848.416-2.424 1.248-.576.816-.864 1.832-.864 3.048ZM136.459 26h-2.352v-2.088c-.64 1.488-1.904 2.232-3.792 2.232-1.2 0-2.152-.352-2.856-1.056-.704-.72-1.056-1.704-1.056-2.952v-8.304h2.376v7.728c0 .832.2 1.472.6 1.92.416.432.984.648 1.704.648.912 0 1.64-.32 2.184-.96.56-.64.84-1.544.84-2.712v-6.624h2.352V26Zm10.914-3.36c0 1.088-.384 1.944-1.152 2.568-.768.608-1.808.912-3.12.912-1.44 0-2.64-.24-3.6-.72v-2.232c1.12.688 2.28 1.032 3.48 1.032.624 0 1.104-.128 1.44-.384.352-.256.528-.592.528-1.008 0-.352-.136-.664-.408-.936a2.662 2.662 0 0 0-.84-.624c-.272-.144-.744-.36-1.416-.648-1.904-.784-2.856-1.936-2.856-3.456 0-1.072.4-1.912 1.2-2.52.8-.608 1.8-.912 3-.912 1.312 0 2.336.176 3.072.528v2.136c-.784-.464-1.792-.696-3.024-.696-.56 0-1.008.128-1.344.384-.32.256-.48.592-.48 1.008 0 .112.008.224.024.336.032.096.08.2.144.312.064.096.12.184.168.264.064.064.16.136.288.216.128.08.224.152.288.216.08.048.2.112.36.192.176.08.304.144.384.192.08.032.216.096.408.192l.432.168c.944.416 1.68.888 2.208 1.416.544.512.816 1.2.816 2.064Zm11.519 2.712c-.896.512-2.08.768-3.552.768-1.888 0-3.392-.568-4.512-1.704-1.12-1.136-1.68-2.624-1.68-4.464 0-1.952.512-3.48 1.536-4.584 1.024-1.12 2.328-1.68 3.912-1.68 1.552 0 2.784.488 3.696 1.464.912.96 1.368 2.352 1.368 4.176 0 .496-.048 1.016-.144 1.56h-7.992c.16 1.056.608 1.864 1.344 2.424.736.56 1.664.84 2.784.84 1.296 0 2.376-.304 3.24-.912v2.112Zm-4.248-9.72c-.8 0-1.488.296-2.064.888-.576.576-.936 1.416-1.08 2.52h5.88v-.432c-.032-.912-.28-1.632-.744-2.16-.464-.544-1.128-.816-1.992-.816Z"/></svg>