<svg xmlns="http://www.w3.org/2000/svg" xml:space="preserve" style="enable-background:new 0 0 449.5 75" viewBox="0 0 449.5 75"><path d="M126.6 75c11.1 0 20.9-5.6 24.7-16.8.7-2.3-.3-3.7-2.5-3.7h-4.2c-1.9 0-3.2.9-4.1 2.7-3.3 6.5-7.9 8.9-13.7 8.9-10.3 0-16.6-7.2-16.6-19.2s6.5-19.2 16.4-19.2c6 0 10.9 2.6 14 8.7 1 1.8 2.1 2.7 4.1 2.7h4.2c2.1 0 3.2-1.4 2.5-3.4-4.5-12.2-14.6-16.9-24.9-16.9-15.5 0-27.1 11.5-27.1 28.2.1 16.5 11.2 28 27.2 28zM407 41.9c1.4-9.1 7.6-14.8 16.1-14.8 8.5 0 14.8 5.8 15.5 14.8H407zM423.5 75c9.9 0 19.7-4.6 24.5-15 1.2-2.5.1-4.2-2-4.2h-4c-1.9 0-3.1.9-4.1 2.6-3.2 5.7-8.8 8-14.5 8-9.7 0-16.1-6.6-16.8-17.5H446c2.1 0 3.5-1.2 3.5-3.4-.4-16.8-11.4-26.9-26.5-26.9-15 0-27 11-27 28.2 0 17.3 11.6 28.2 27.5 28.2zm-62.4-26.8h3.5c2.1 0 3.3-1.2 3.6-3.4 2-14.5 10.5-16.4 19.5-16 1.9.1 3.5-1.4 3.5-3.3v-3.3c0-2.1-1.1-3.4-3.2-3.5-8-.3-15.1 2.4-19.2 10.2-.2.4-.9.3-.9-.2l-.7-5.8c-.2-2.1-1.4-3.2-3.5-3.2h-16.2c-1.9 0-3.4 1.5-3.4 3.4v1.8c0 1.9 1.5 3.4 3.4 3.4h6.6c1.9 0 3.4 1.5 3.4 3.4v13.1c.2 1.9 1.8 3.4 3.6 3.4zm-14.4 25.7h33.5c2.1 0 3.4-1.3 3.4-3.4v-1.8c0-2.1-1.3-3.4-3.4-3.4h-8.6c-2.1 0-3.4-1.3-3.4-3.4V56c0-2.1-1.3-3.4-3.4-3.4h-3.6c-2.1 0-3.4 1.3-3.4 3.4v5.9c0 2.1-1.3 3.4-3.4 3.4h-7.6c-2.1 0-3.4 1.3-3.4 3.4v1.8c-.2 2.1 1.1 3.4 3.3 3.4zm-51.8-32c1.4-9.1 7.6-14.8 16.1-14.8 8.5 0 14.8 5.8 15.5 14.8h-31.6zM311.4 75c9.9 0 19.7-4.6 24.5-15 1.2-2.5.1-4.2-2-4.2h-4c-1.9 0-3.1.9-4.1 2.6-3.2 5.7-8.8 8-14.5 8-9.8 0-16.1-6.6-16.8-17.5h39.3c2.1 0 3.5-1.2 3.5-3.4-.3-16.8-11.2-26.9-26.3-26.9-15.1 0-27.1 10.9-27.1 28.2 0 17.3 11.7 28.2 27.5 28.2zm-123.9 0c16.1 0 27.5-11.9 27.5-28.2 0-16.3-11.5-28.2-27.5-28.2-16.1 0-27.5 12.1-27.5 28.2 0 3.7.6 7.9 2.6 12.5 1 2.3 2.8 2.6 4.7 1.2l3.1-2.3c1.6-1.2 2-2.6 1.5-4.6-.9-2.7-1.1-5-1.1-7.1 0-11.2 6.7-19 16.7-19s16.7 7.6 16.7 19.2-6.6 19.2-16.5 19.2c-3.4 0-6.6-.6-10.5-3.5-1.6-1.3-3.1-1.5-4.8-.2L170 64c-1.9 1.4-2.1 3.3-.3 4.8 5.6 4.5 12 6.2 17.8 6.2zm41.1-1.1h3.5c1.9 0 3.4-1.5 3.4-3.4V44.9c0-10.8 5.8-17.2 14.8-17.2 8.1 0 12.9 5.4 12.9 15.2v27.6c0 1.9 1.5 3.4 3.4 3.4h3.6c1.9 0 3.4-1.5 3.4-3.4V41.1c0-14.5-7.4-22.5-19.9-22.5-8.5 0-13.6 3.5-17.3 8.4-.3.4-.9.2-.9-.3V3.4c0-1.9-1.6-3.4-3.4-3.4h-3.5c-1.9 0-3.4 1.5-3.4 3.4v67.1c0 1.9 1.5 3.4 3.4 3.4z" style="fill:#39594d"/><path d="M24.3 44.7c2 0 6-.1 11.6-2.4 6.5-2.7 19.3-7.5 28.6-12.5 6.5-3.5 9.3-8.1 9.3-14.3C73.8 7 66.9 0 58.3 0h-36C10 0 0 10 0 22.3s9.4 22.4 24.3 22.4z" style="fill-rule:evenodd;clip-rule:evenodd;fill:#39594d"/><path d="M30.4 60c0-6 3.6-11.5 9.2-13.8l11.3-4.7C62.4 36.8 75 45.2 75 57.6 75 67.2 67.2 75 57.6 75H45.3c-8.2 0-14.9-6.7-14.9-15z" style="fill-rule:evenodd;clip-rule:evenodd;fill:#d18ee2"/><path d="M12.9 47.6C5.8 47.6 0 53.4 0 60.5v1.7C0 69.2 5.8 75 12.9 75c7.1 0 12.9-5.8 12.9-12.9v-1.7c-.1-7-5.8-12.8-12.9-12.8z" style="fill:#ff7759"/></svg>