<svg width="756" height="138" viewBox="0 0 756 138" fill="none" xmlns="http://www.w3.org/2000/svg">
<path fill-rule="evenodd" clip-rule="evenodd" d="M705.032 41.9943H725.17C729.7 41.9943 733.858 42.7261 737.644 44.1898C741.428 45.6536 744.686 47.6849 747.423 50.2821C750.157 52.8775 752.271 55.9299 753.761 59.4393C755.254 62.9469 756 66.7454 756 70.8331V70.9991C756 75.0868 755.254 78.8996 753.761 82.4358C752.271 85.9701 750.157 89.0368 747.423 91.634C744.686 94.2312 741.428 96.275 737.644 97.7673C733.858 99.2578 729.7 100.004 725.17 100.004H705.032V41.9943ZM725.17 93.9545C728.817 93.9545 732.131 93.3744 735.114 92.2141C738.099 91.0538 740.627 89.4509 742.697 87.407C744.77 85.365 746.373 82.9463 747.505 80.1563C748.636 77.3663 749.204 74.3692 749.204 71.1651V70.9991C749.204 67.795 748.636 64.7962 747.505 62.0079C746.373 59.218 744.77 56.7867 742.697 54.7143C740.627 52.6419 738.099 51.0122 735.114 49.8252C732.131 48.6381 728.817 48.0437 725.17 48.0437H711.578V93.9545H725.17ZM628.137 41.9943H653.082C656.674 41.9943 659.863 42.5048 662.654 43.5258C665.444 44.5486 667.75 45.9713 669.574 47.7956C671.01 49.2325 672.115 50.9176 672.889 52.849C673.662 54.784 674.05 56.9117 674.05 59.2322V59.3965C674.05 61.8277 673.662 63.9965 672.889 65.9029C672.115 67.8093 671.024 69.4658 669.615 70.8759C668.205 72.2843 666.534 73.4428 664.601 74.3567C662.668 75.2671 660.569 75.9151 658.303 76.3024L676.122 100.004H668.082L651.258 77.4627H651.092H634.683V100.004H628.137V41.9943ZM652.543 71.5792C654.712 71.5792 656.7 71.3026 658.525 70.7492C660.362 70.1976 661.936 69.4104 663.262 68.3894C664.601 67.3666 665.637 66.1242 666.384 64.6605C667.129 63.195 667.502 61.5242 667.502 59.6464V59.4804C667.502 55.8889 666.204 53.0846 663.593 51.0675C660.997 49.0522 657.336 48.0437 652.625 48.0437H634.683V71.5792H652.543ZM567.651 101C563.229 101 559.211 100.199 555.591 98.5956C551.974 96.9944 548.866 94.8238 546.267 92.0909C543.671 89.3563 541.669 86.1772 540.258 82.5589C538.852 78.9425 538.147 75.1421 538.147 71.1651V70.9991C538.147 67.0203 538.864 63.2093 540.301 59.5625C541.736 55.9157 543.754 52.7258 546.351 49.9912C548.946 47.2565 552.069 45.0734 555.715 43.4437C559.362 41.814 563.395 41 567.817 41C572.235 41 576.257 41.7997 579.873 43.4009C583.493 45.0038 586.601 47.1744 589.199 49.9091C591.794 52.6419 593.797 55.8193 595.207 59.4393C596.616 63.0575 597.319 66.8543 597.319 70.8331C597.374 70.8884 597.374 70.9438 597.319 70.9991C597.319 74.9779 596.601 78.7889 595.166 82.4358C593.729 86.0826 591.712 89.2724 589.115 92.007C586.517 94.7417 583.397 96.9248 579.75 98.5545C576.103 100.184 572.069 101 567.651 101ZM567.817 94.9506C571.132 94.9506 574.184 94.3276 576.972 93.0852C579.763 91.8428 582.153 90.1435 584.143 87.9872C586.132 85.8327 587.692 83.3193 588.825 80.4472C589.957 77.5733 590.523 74.4799 590.523 71.1651V70.9991C590.523 67.6825 589.957 64.5748 588.825 61.6759C587.692 58.7735 586.103 56.2477 584.059 54.0931C582.015 51.9386 579.598 50.225 576.806 48.9541C574.018 47.6849 570.966 47.0477 567.651 47.0477C564.334 47.0477 561.283 47.6706 558.493 48.913C555.703 50.1572 553.313 51.8547 551.324 54.011C549.334 56.1656 547.774 58.6789 546.64 61.551C545.508 64.4249 544.942 67.5183 544.942 70.8331V70.9991C544.942 74.3139 545.508 77.4216 546.64 80.3223C547.774 83.2229 549.362 85.7488 551.406 87.9051C553.45 90.0596 555.867 91.7714 558.657 93.0424C561.447 94.3151 564.5 94.9506 567.817 94.9506ZM489.097 101C484.899 101 481.03 100.225 477.494 98.6795C473.958 97.1319 470.893 95.0184 468.296 92.3391C465.7 89.6597 463.669 86.4967 462.205 82.8499C460.741 79.2031 460.007 75.3082 460.007 71.1651V70.9991C460.007 66.9114 460.741 63.0433 462.205 59.3965C463.669 55.7497 465.7 52.5598 468.296 49.8252C470.893 47.0905 473.986 44.936 477.578 43.3598C481.17 41.7872 485.092 41 489.345 41C491.998 41 494.388 41.2196 496.514 41.6622C498.642 42.1031 500.617 42.7261 502.441 43.5258C504.264 44.3273 505.949 45.2948 507.496 46.4265C509.042 47.56 510.535 48.8184 511.972 50.1982L507.496 55.0035C505.01 52.683 502.345 50.7784 499.497 49.2861C496.654 47.7956 493.241 47.0477 489.263 47.0477C486.059 47.0477 483.089 47.6564 480.354 48.872C477.619 50.0876 475.243 51.7726 473.228 53.9271C471.211 56.0835 469.634 58.6093 468.503 61.5099C467.371 64.4106 466.803 67.5183 466.803 70.8331V70.9991C466.803 74.3692 467.371 77.5055 468.503 80.4062C469.634 83.3068 471.211 85.8327 473.228 87.9872C475.243 90.1435 477.619 91.8428 480.354 93.0852C483.089 94.3276 486.059 94.9506 489.263 94.9506C493.241 94.9506 496.668 94.2169 499.538 92.7532C502.412 91.2895 505.231 89.2313 507.993 86.5788L512.304 90.8057C510.811 92.3533 509.249 93.7474 507.62 94.9898C505.992 96.234 504.237 97.2979 502.357 98.1814C500.479 99.065 498.462 99.7558 496.307 100.252C494.153 100.75 491.75 101 489.097 101ZM380.13 41.9943H386.261L422.811 88.4852V41.9943H429.193V100.004H423.972L386.509 52.4349V100.004H380.13V41.9943ZM319.643 101C315.223 101 311.203 100.199 307.585 98.5956C303.967 96.9944 300.859 94.8238 298.261 92.0909C295.664 89.3563 293.661 86.1772 292.253 82.5589C290.844 78.9425 290.139 75.1421 290.139 71.1651V70.9991C290.139 67.0203 290.859 63.2093 292.296 59.5625C293.731 55.9157 295.746 52.7258 298.345 49.9912C300.941 47.2565 304.063 45.0734 307.71 43.4437C311.355 41.814 315.389 41 319.809 41C324.229 41 328.249 41.7997 331.868 43.4009C335.486 45.0038 338.594 47.1744 341.191 49.9091C343.787 52.6419 345.79 55.8193 347.2 59.4393C348.608 63.0575 349.313 66.8543 349.313 70.8331C349.367 70.8884 349.367 70.9438 349.313 70.9991C349.313 74.9779 348.596 78.7889 347.159 82.4358C345.722 86.0826 343.705 89.2724 341.109 92.007C338.512 94.7417 335.39 96.9248 331.743 98.5545C328.097 100.184 324.063 101 319.643 101ZM319.809 94.9506C323.124 94.9506 326.177 94.3276 328.967 93.0852C331.757 91.8428 334.147 90.1435 336.136 87.9872C338.124 85.8327 339.686 83.3193 340.818 80.4472C341.952 77.5733 342.516 74.4799 342.516 71.1651V70.9991C342.516 67.6825 341.952 64.5748 340.818 61.6759C339.686 58.7735 338.098 56.2477 336.052 54.0931C334.008 51.9386 331.591 50.225 328.801 48.9541C326.011 47.6849 322.958 47.0477 319.643 47.0477C316.328 47.0477 313.276 47.6706 310.486 48.913C307.696 50.1572 305.305 51.8547 303.317 54.011C301.328 56.1656 299.766 58.6789 298.634 61.551C297.503 64.4249 296.935 67.5183 296.935 70.8331V70.9991C296.935 74.3139 297.503 77.4216 298.634 80.3223C299.766 83.2229 301.355 85.7488 303.399 87.9051C305.445 90.0596 307.86 91.7714 310.652 93.0424C313.44 94.3151 316.494 94.9506 319.809 94.9506ZM241.09 101C236.891 101 233.023 100.225 229.487 98.6795C225.951 97.1319 222.886 95.0184 220.288 92.3391C217.693 89.6597 215.661 86.4967 214.197 82.8499C212.734 79.2031 212 75.3082 212 71.1651V70.9991C212 66.9114 212.734 63.0433 214.197 59.3965C215.661 55.7497 217.693 52.5598 220.288 49.8252C222.886 47.0905 225.979 44.936 229.571 43.3598C233.162 41.7872 237.086 41 241.338 41C243.991 41 246.381 41.2196 248.507 41.6622C250.635 42.1031 252.611 42.7261 254.434 43.5258C256.256 44.3273 257.941 45.2948 259.489 46.4265C261.037 47.56 262.527 48.8184 263.964 50.1982L259.489 55.0035C257.002 52.683 254.337 50.7784 251.492 49.2861C248.646 47.7956 245.233 47.0477 241.256 47.0477C238.052 47.0477 235.081 47.6564 232.347 48.872C229.612 50.0876 227.236 51.7726 225.22 53.9271C223.203 56.0835 221.627 58.6093 220.495 61.5099C219.364 64.4106 218.798 67.5183 218.798 70.8331V70.9991C218.798 74.3692 219.364 77.5055 220.495 80.4062C221.627 83.3068 223.203 85.8327 225.22 87.9872C227.236 90.1435 229.612 91.8428 232.347 93.0852C235.081 94.3276 238.052 94.9506 241.256 94.9506C245.233 94.9506 248.661 94.2169 251.533 92.7532C254.405 91.2895 257.224 89.2313 259.985 86.5788L264.296 90.8057C262.804 92.3533 261.244 93.7474 259.612 94.9898C257.984 96.234 256.229 97.2979 254.351 98.1814C252.472 99.065 250.455 99.7558 248.302 100.252C246.147 100.75 243.743 101 241.09 101Z" fill="black"/>
<path fill-rule="evenodd" clip-rule="evenodd" d="M81.776 95.3524L59.256 108.355C58.637 108.712 57.874 108.712 57.255 108.355L22.905 88.5224C22.286 88.1654 21.905 87.5044 21.905 86.7904V47.1174C21.905 46.4054 22.284 45.7464 22.9 45.3884L77.091 13.9084C78.424 13.1344 78.417 11.2064 77.078 10.4424L59.246 0.263381C58.628 -0.0896185 57.87 -0.0876185 57.254 0.268381L1 32.7464C0.381 33.1044 0 33.7644 0 34.4784V99.4374C0 100.152 0.381 100.812 1 101.17L57.255 133.648C57.874 134.006 58.637 134.006 59.255 133.648L101.681 109.154C103.014 108.384 103.014 106.459 101.681 105.689L83.776 95.3524C83.157 94.9954 82.395 94.9954 81.776 95.3524Z" fill="#011932"/>
<path fill-rule="evenodd" clip-rule="evenodd" d="M106.428 4.26775L64.0005 28.7628C62.6665 29.5328 62.6665 31.4567 64.0005 32.2267L81.9055 42.5638C82.5245 42.9218 83.2865 42.9218 83.9055 42.5638L106.428 29.5618C107.047 29.2038 107.809 29.2038 108.428 29.5618L142.779 49.3947C143.396 49.7528 143.779 50.4128 143.779 51.1268V90.7998C143.779 91.5127 143.398 92.1707 142.783 92.5287L88.5915 124.009C87.2585 124.783 87.2665 126.711 88.6055 127.475L106.438 137.653C107.055 138.006 107.813 138.004 108.429 137.649L164.684 105.171C165.303 104.814 165.684 104.153 165.684 103.439V38.4798C165.684 37.7648 165.303 37.1047 164.684 36.7477L108.428 4.26775C107.809 3.91075 107.047 3.91075 106.428 4.26775Z" fill="#057BFA"/>
</svg>
