<svg width="165" height="138" viewBox="0 0 165 138" fill="none" xmlns="http://www.w3.org/2000/svg">
<path fill-rule="evenodd" clip-rule="evenodd" d="M81.776 95.3524L59.256 108.355C58.637 108.712 57.874 108.712 57.255 108.355L22.905 88.5224C22.286 88.1654 21.905 87.5044 21.905 86.7904V47.1174C21.905 46.4054 22.284 45.7464 22.9 45.3884L77.091 13.9084C78.424 13.1344 78.417 11.2064 77.078 10.4424L59.246 0.263381C58.628 -0.0896185 57.87 -0.0876185 57.254 0.268381L1 32.7464C0.381 33.1044 0 33.7644 0 34.4784V99.4374C0 100.152 0.381 100.812 1 101.17L57.255 133.648C57.874 134.006 58.637 134.006 59.255 133.648L101.681 109.154C103.014 108.384 103.014 106.459 101.681 105.689L83.776 95.3524C83.157 94.9954 82.395 94.9954 81.776 95.3524Z" fill="#057BFA"/>
<path fill-rule="evenodd" clip-rule="evenodd" d="M105.428 4.26775L63.0005 28.7628C61.6665 29.5328 61.6665 31.4567 63.0005 32.2267L80.9055 42.5638C81.5245 42.9218 82.2865 42.9218 82.9055 42.5638L105.428 29.5618C106.047 29.2038 106.809 29.2038 107.428 29.5618L141.779 49.3947C142.396 49.7528 142.779 50.4128 142.779 51.1268V90.7998C142.779 91.5127 142.398 92.1707 141.783 92.5287L87.5915 124.009C86.2585 124.783 86.2665 126.711 87.6055 127.475L105.438 137.653C106.055 138.006 106.813 138.004 107.429 137.649L163.684 105.171C164.303 104.814 164.684 104.153 164.684 103.439V38.4798C164.684 37.7648 164.303 37.1047 163.684 36.7477L107.428 4.26775C106.809 3.91075 106.047 3.91075 105.428 4.26775Z" fill="#057BFA"/>
</svg>
