<svg viewBox="0 0 1750 269" xmlns="http://www.w3.org/2000/svg"><g fill="#282423"><path d="M0 95.3C0 97.2 1.6 98.8 3.5 98.8H31.8V56.5H3.5C1.6 56.5 0 58 0 60V95.3Z"/><path d="M56.5 95.3C56.5 97.2 54.9 98.8 52.9 98.8H24.7V56.5H52.9C54.9 56.5 56.5 58 56.5 60V95.3Z"/><path d="M0 151.7C0 153.7 1.6 155.2 3.5 155.2H31.8V112.9H3.5C1.6 112.9 0 114.5 0 116.4V151.7Z"/><path d="M56.5 151.7C56.5 153.7 54.9 155.2 52.9 155.2H24.7V112.9H52.9C54.9 112.9 56.5 114.5 56.5 116.4V151.7Z"/><path d="M0 208.2C0 210.1 1.6 211.7 3.5 211.7H31.8V169.4H3.5C1.6 169.4 0 170.9 0 172.9V208.2Z"/><path d="M56.5 208.2C56.5 210.1 54.9 211.7 52.9 211.7H24.7V169.4H52.9C54.9 169.4 56.5 170.9 56.5 172.9V208.2Z"/><path d="M28.2 264.6C28.2 266.6 29.8 268.1 31.8 268.1H60V225.8H31.8C29.8 225.8 28.2 227.4 28.2 229.3V264.6Z"/><path d="M52.9 268.1V225.8H88.2V268.1H52.9Z"/><path d="M81.1 268.1V225.8H116.4V268.1H81.1Z"/><path d="M141.1 264.6C141.1 266.6 139.5 268.1 137.6 268.1H109.4V225.8H137.6C139.5 225.8 141.1 227.4 141.1 229.3V264.6Z"/><path d="M112.9 208.2C112.9 210.1 114.5 211.7 116.4 211.7H144.7V169.4H116.4C114.5 169.4 112.9 170.9 112.9 172.9V208.2Z"/><path d="M169.4 208.2C169.4 210.1 167.8 211.7 165.8 211.7H137.6V169.4H165.8C167.8 169.4 169.4 170.9 169.4 172.9V208.2Z"/><path d="M28.2 38.8C28.2 40.8 29.8 42.3 31.8 42.3H60V0H31.8C29.8 0 28.2 1.6 28.2 3.5V38.8Z"/><path d="M52.9 42.3V0H88.2V42.3H52.9Z"/><path d="M81.1 42.3V0H116.4V42.3H81.1Z"/><path d="M109.4 42.3V0H144.7V42.3H109.4Z"/><path d="M169.4 38.8C169.4 40.8 167.8 42.3 165.8 42.3H137.6V0H165.8C167.8 0 169.4 1.6 169.4 3.5V38.8Z"/><path d="M112.9 95.3C112.9 97.2 114.5 98.8 116.4 98.8H144.7V56.5H116.4C114.5 56.5 112.9 58 112.9 60V95.3Z"/><path d="M169.4 95.3C169.4 97.2 167.8 98.8 165.8 98.8H137.6V56.5H165.8C167.8 56.5 169.4 58 169.4 60V95.3Z"/><path d="M197.6 95.3C197.6 97.2 199.2 98.8 201.1 98.8H229.3V56.5H201.1C199.2 56.5 197.6 58 197.6 60V95.3Z"/><path d="M254 95.3C254 97.2 252.5 98.8 250.5 98.8H222.3V56.5H250.5C252.5 56.5 254 58 254 60V95.3Z"/><path d="M197.6 151.7C197.6 153.7 199.2 155.2 201.1 155.2H229.3V112.9H201.1C199.2 112.9 197.6 114.5 197.6 116.4V151.7Z"/><path d="M254 151.7C254 153.7 252.5 155.2 250.5 155.2H222.3V112.9H250.5C252.5 112.9 254 114.5 254 116.4V151.7Z"/><path d="M197.6 208.2C197.6 210.1 199.2 211.7 201.1 211.7H229.3V169.4H201.1C199.2 169.4 197.6 170.9 197.6 172.9V208.2Z"/><path d="M254 208.2C254 210.1 252.5 211.7 250.5 211.7H222.3V169.4H250.5C252.5 169.4 254 170.9 254 172.9V208.2Z"/><path d="M225.8 264.6C225.8 266.6 227.4 268.1 229.3 268.1H257.6V225.8H229.3C227.4 225.8 225.8 227.4 225.8 229.3V264.6Z"/><path d="M250.5 268.1V225.8H285.8V268.1H250.5Z"/><path d="M278.7 268.1V225.8H314V268.1H278.7Z"/><path d="M338.7 264.6C338.7 266.6 337.1 268.1 335.2 268.1H307V225.8H335.2C337.1 225.8 338.7 227.4 338.7 229.3V264.6Z"/><path d="M225.8 38.8C225.8 40.8 227.4 42.3 229.3 42.3H257.6V0H229.3C227.4 0 225.8 1.6 225.8 3.5V38.8Z"/><path d="M250.5 42.3V0H285.8V42.3H250.5Z"/><path d="M278.7 42.3V0H314V42.3H278.7Z"/><path d="M338.7 38.8C338.7 40.8 337.1 42.3 335.2 42.3H307V0H335.2C337.1 0 338.7 1.6 338.7 3.5V38.8Z"/><path d="M310.5 95.3C310.5 97.2 312.1 98.8 314 98.8H342.2V56.5H314C312.1 56.5 310.5 58 310.5 60V95.3Z"/><path d="M366.9 95.3C366.9 97.2 365.4 98.8 363.4 98.8H335.2V56.5H363.4C365.4 56.5 366.9 58 366.9 60V95.3Z"/><path d="M310.5 151.7C310.5 153.7 312.1 155.2 314 155.2H342.2V112.9H314C312.1 112.9 310.5 114.5 310.5 116.4V151.7Z"/><path d="M366.9 151.7C366.9 153.7 365.4 155.2 363.4 155.2H335.2V112.9H363.4C365.4 112.9 366.9 114.5 366.9 116.4V151.7Z"/><path d="M310.5 208.2C310.5 210.1 312.1 211.7 314 211.7H342.2V169.4H314C312.1 169.4 310.5 170.9 310.5 172.9V208.2Z"/><path d="M366.9 208.2C366.9 210.1 365.4 211.7 363.4 211.7H335.2V169.4H363.4C365.4 169.4 366.9 170.9 366.9 172.9V208.2Z"/><path d="M366.9 38.8C366.9 40.8 368.5 42.3 370.5 42.3H398.7V0H370.5C368.5 0 366.9 1.6 366.9 3.5V38.8Z"/><path d="M423.4 38.8C423.4 40.8 421.8 42.3 419.9 42.3H391.6V0H419.9C421.8 0 423.4 1.6 423.4 3.5V38.8Z"/><path d="M395.2 95.3C395.2 97.2 396.7 98.8 398.7 98.8H426.9V56.5H398.7C396.7 56.5 395.2 58 395.2 60V95.3Z"/><path d="M451.6 95.3C451.6 97.2 450 98.8 448.1 98.8H419.9V56.5H448.1C450 56.5 451.6 58 451.6 60V95.3Z"/><path d="M395.2 151.7C395.2 153.7 396.7 155.2 398.7 155.2H426.9V112.9H398.7C396.7 112.9 395.2 114.5 395.2 116.4V151.7Z"/><path d="M451.6 151.7C451.6 153.7 450 155.2 448.1 155.2H419.9V112.9H448.1C450 112.9 451.6 114.5 451.6 116.4V151.7Z"/><path d="M395.2 208.2C395.2 210.1 396.7 211.7 398.7 211.7H426.9V169.4H398.7C396.7 169.4 395.2 170.9 395.2 172.9V208.2Z"/><path d="M451.6 208.2C451.6 210.1 450 211.7 448.1 211.7H419.9V169.4H448.1C450 169.4 451.6 170.9 451.6 172.9V208.2Z"/><path d="M395.2 264.6C395.2 266.6 396.7 268.1 398.7 268.1H426.9V225.8H398.7C396.7 225.8 395.2 227.4 395.2 229.3V264.6Z"/><path d="M451.6 264.6C451.6 266.6 450 268.1 448.1 268.1H419.9V225.8H448.1C450 225.8 451.6 227.4 451.6 229.3V264.6Z"/><path d="M451.6 38.8C451.6 40.8 453.2 42.3 455.1 42.3H483.4V0H455.1C453.2 0 451.6 1.6 451.6 3.5V38.8Z"/><path d="M476.3 42.3V0H511.6V42.3H476.3Z"/><path d="M536.3 38.8C536.3 40.8 534.7 42.3 532.8 42.3H504.5V0H532.8C534.7 0 536.3 1.6 536.3 3.5V38.8Z"/><path d="M508.1 95.3C508.1 97.2 509.6 98.8 511.6 98.8H539.8V56.5H511.6C509.6 56.5 508.1 58 508.1 60V95.3Z"/><path d="M564.5 95.3C564.5 97.2 562.9 98.8 561 98.8H532.8V56.5H561C562.9 56.5 564.5 58 564.5 60V95.3Z"/><path d="M508.1 151.7C508.1 153.7 509.6 155.2 511.6 155.2H539.8V112.9H511.6C509.6 112.9 508.1 114.5 508.1 116.4V151.7Z"/><path d="M564.5 151.7C564.5 153.7 562.9 155.2 561 155.2H532.8V112.9H561C562.9 112.9 564.5 114.5 564.5 116.4V151.7Z"/><path d="M508.1 208.2C508.1 210.1 509.6 211.7 511.6 211.7H539.8V169.4H511.6C509.6 169.4 508.1 170.9 508.1 172.9V208.2Z"/><path d="M564.5 208.2C564.5 210.1 562.9 211.7 561 211.7H532.8V169.4H561C562.9 169.4 564.5 170.9 564.5 172.9V208.2Z"/><path d="M508.1 264.6C508.1 266.6 509.6 268.1 511.6 268.1H539.8V225.8H511.6C509.6 225.8 508.1 227.4 508.1 229.3V264.6Z"/><path d="M564.5 264.6C564.5 266.6 562.9 268.1 561 268.1H532.8V225.8H561C562.9 225.8 564.5 227.4 564.5 229.3V264.6Z"/><path d="M592.7 95.3C592.7 97.2 594.3 98.8 596.3 98.8H624.5V56.5H596.3C594.3 56.5 592.7 58 592.7 60V95.3Z"/><path d="M649.2 95.3C649.2 97.2 647.6 98.8 645.7 98.8H617.4V56.5H645.7C647.6 56.5 649.2 58 649.2 60V95.3Z"/><path d="M592.7 151.7C592.7 153.7 594.3 155.2 596.3 155.2H624.5V112.9H596.3C594.3 112.9 592.7 114.5 592.7 116.4V151.7Z"/><path d="M649.2 151.7C649.2 153.7 647.6 155.2 645.7 155.2H617.4V112.9H645.7C647.6 112.9 649.2 114.5 649.2 116.4V151.7Z"/><path d="M592.7 208.2C592.7 210.1 594.3 211.7 596.3 211.7H624.5V169.4H596.3C594.3 169.4 592.7 170.9 592.7 172.9V208.2Z"/><path d="M649.2 208.2C649.2 210.1 647.6 211.7 645.7 211.7H617.4V169.4H645.7C647.6 169.4 649.2 170.9 649.2 172.9V208.2Z"/><path d="M621 264.6C621 266.6 622.5 268.1 624.5 268.1H652.7V225.8H624.5C622.5 225.8 621 227.4 621 229.3V264.6Z"/><path d="M645.7 268.1V225.8H680.9V268.1H645.7Z"/><path d="M673.9 268.1V225.8H709.2V268.1H673.9Z"/><path d="M733.9 264.6C733.9 266.6 732.3 268.1 730.3 268.1H702.1V225.8H730.3C732.3 225.8 733.9 227.4 733.9 229.3V264.6Z"/><path d="M592.7 38.8C592.7 40.8 594.3 42.3 596.3 42.3H624.5V0H596.3C594.3 0 592.7 1.6 592.7 3.5V38.8Z"/><path d="M617.4 42.3V0H652.7V42.3H617.4Z"/><path d="M645.7 42.3V0H680.9V42.3H645.7Z"/><path d="M673.9 42.3V0H709.2V42.3H673.9Z"/><path d="M733.9 38.8C733.9 40.8 732.3 42.3 730.3 42.3H702.1V0H730.3C732.3 0 733.9 1.6 733.9 3.5V38.8Z"/><path d="M705.6 95.3C705.6 97.2 707.2 98.8 709.2 98.8H737.4V56.5H709.2C707.2 56.5 705.6 58 705.6 60V95.3Z"/><path d="M762.1 95.3C762.1 97.2 760.5 98.8 758.6 98.8H730.3V56.5H758.6C760.5 56.5 762.1 58 762.1 60V95.3Z"/><path d="M705.6 151.7C705.6 153.7 707.2 155.2 709.2 155.2H737.4V112.9H709.2C707.2 112.9 705.6 114.5 705.6 116.4V151.7Z"/><path d="M762.1 151.7C762.1 153.7 760.5 155.2 758.6 155.2H730.3V112.9H758.6C760.5 112.9 762.1 114.5 762.1 116.4V151.7Z"/><path d="M705.6 208.2C705.6 210.1 707.2 211.7 709.2 211.7H737.4V169.4H709.2C707.2 169.4 705.6 170.9 705.6 172.9V208.2Z"/><path d="M762.1 208.2C762.1 210.1 760.5 211.7 758.6 211.7H730.3V169.4H758.6C760.5 169.4 762.1 170.9 762.1 172.9V208.2Z"/><path d="M790.3 38.8C790.3 40.8 791.9 42.3 793.9 42.3H822.1V0H793.9C791.9 0 790.3 1.6 790.3 3.5V38.8Z"/><path d="M846.8 38.8C846.8 40.8 845.2 42.3 843.2 42.3H815V0H843.2C845.2 0 846.8 1.6 846.8 3.5V38.8Z"/><path d="M790.3 95.3C790.3 97.2 791.9 98.8 793.9 98.8H822.1V56.5H793.9C791.9 56.5 790.3 58 790.3 60V95.3Z"/><path d="M846.8 95.3C846.8 97.2 845.2 98.8 843.2 98.8H815V56.5H843.2C845.2 56.5 846.8 58 846.8 60V95.3Z"/><path d="M790.3 151.7C790.3 153.7 791.9 155.2 793.9 155.2H822.1V112.9H793.9C791.9 112.9 790.3 114.5 790.3 116.4V151.7Z"/><path d="M846.8 151.7C846.8 153.7 845.2 155.2 843.2 155.2H815V112.9H843.2C845.2 112.9 846.8 114.5 846.8 116.4V151.7Z"/><path d="M790.3 208.2C790.3 210.1 791.9 211.7 793.9 211.7H822.1V169.4H793.9C791.9 169.4 790.3 170.9 790.3 172.9V208.2Z"/><path d="M846.8 208.2C846.8 210.1 845.2 211.7 843.2 211.7H815V169.4H843.2C845.2 169.4 846.8 170.9 846.8 172.9V208.2Z"/><path d="M818.5 264.6C818.5 266.6 820.1 268.1 822.1 268.1H850.3V225.8H822.1C820.1 225.8 818.5 227.4 818.5 229.3V264.6Z"/><path d="M843.2 268.1V225.8H878.5V268.1H843.2Z"/><path d="M903.2 264.6C903.2 266.6 901.6 268.1 899.7 268.1H871.5V225.8H899.7C901.6 225.8 903.2 227.4 903.2 229.3V264.6Z"/><path d="M903.2 38.8C903.2 40.8 904.8 42.3 906.8 42.3H935V0H906.8C904.8 0 903.2 1.6 903.2 3.5V38.8Z"/><path d="M959.7 38.8C959.7 40.8 958.1 42.3 956.2 42.3H927.9V0H956.2C958.1 0 959.7 1.6 959.7 3.5V38.8Z"/><path d="M903.2 95.3C903.2 97.2 904.8 98.8 906.8 98.8H935V56.5H906.8C904.8 56.5 903.2 58 903.2 60V95.3Z"/><path d="M959.7 95.3C959.7 97.2 958.1 98.8 956.2 98.8H927.9V56.5H956.2C958.1 56.5 959.7 58 959.7 60V95.3Z"/><path d="M903.2 151.7C903.2 153.7 904.8 155.2 906.8 155.2H935V112.9H906.8C904.8 112.9 903.2 114.5 903.2 116.4V151.7Z"/><path d="M959.7 151.7C959.7 153.7 958.1 155.2 956.2 155.2H927.9V112.9H956.2C958.1 112.9 959.7 114.5 959.7 116.4V151.7Z"/><path d="M903.2 208.2C903.2 210.1 904.8 211.7 906.8 211.7H935V169.4H906.8C904.8 169.4 903.2 170.9 903.2 172.9V208.2Z"/><path d="M959.7 208.2C959.7 210.1 958.1 211.7 956.2 211.7H927.9V169.4H956.2C958.1 169.4 959.7 170.9 959.7 172.9V208.2Z"/><path d="M931.5 264.6C931.5 266.6 933 268.1 935 268.1H963.2V225.8H935C933 225.8 931.5 227.4 931.5 229.3V264.6Z"/><path d="M987.9 264.6C987.9 266.6 986.3 268.1 984.4 268.1H956.1V225.8H984.4C986.3 225.8 987.9 227.4 987.9 229.3V264.6Z"/><path d="M987.9 95.3C987.9 97.2 989.5 98.8 991.4 98.8H1019.7V56.5H991.4C989.5 56.5 987.9 58 987.9 60V95.3Z"/><path d="M1044.4 95.3C1044.4 97.2 1042.8 98.8 1040.8 98.8H1012.6V56.5H1040.8C1042.8 56.5 1044.4 58 1044.4 60V95.3Z"/><path d="M987.9 151.7C987.9 153.7 989.5 155.2 991.4 155.2H1019.7V112.9H991.4C989.5 112.9 987.9 114.5 987.9 116.4V151.7Z"/><path d="M1044.4 151.7C1044.4 153.7 1042.8 155.2 1040.8 155.2H1012.6V112.9H1040.8C1042.8 112.9 1044.4 114.5 1044.4 116.4V151.7Z"/><path d="M987.9 208.2C987.9 210.1 989.5 211.7 991.4 211.7H1019.7V169.4H991.4C989.5 169.4 987.9 170.9 987.9 172.9V208.2Z"/><path d="M1044.4 208.2C1044.4 210.1 1042.8 211.7 1040.8 211.7H1012.6V169.4H1040.8C1042.8 169.4 1044.4 170.9 1044.4 172.9V208.2Z"/><path d="M1016.1 264.6C1016.1 266.6 1017.7 268.1 1019.7 268.1H1047.9V225.8H1019.7C1017.7 225.8 1016.1 227.4 1016.1 229.3V264.6Z"/><path d="M1040.8 268.1V225.8H1076.1V268.1H1040.8Z"/><path d="M1069.1 268.1V225.8H1104.3V268.1H1069.1Z"/><path d="M1129 264.6C1129 266.6 1127.5 268.1 1125.5 268.1H1097.3V225.8H1125.5C1127.5 225.8 1129 227.4 1129 229.3V264.6Z"/><path d="M1100.8 208.2C1100.8 210.1 1102.4 211.7 1104.3 211.7H1132.6V169.4H1104.3C1102.4 169.4 1100.8 170.9 1100.8 172.9V208.2Z"/><path d="M1157.3 208.2C1157.3 210.1 1155.7 211.7 1153.7 211.7H1125.5V169.4H1153.7C1155.7 169.4 1157.3 170.9 1157.3 172.9V208.2Z"/><path d="M1016.1 38.8C1016.1 40.8 1017.7 42.3 1019.7 42.3H1047.9V0H1019.7C1017.7 0 1016.1 1.6 1016.1 3.5V38.8Z"/><path d="M1040.8 42.3V0H1076.1V42.3H1040.8Z"/><path d="M1069.1 42.3V0H1104.3V42.3H1069.1Z"/><path d="M1097.3 42.3V0H1132.6V42.3H1097.3Z"/><path d="M1157.3 38.8C1157.3 40.8 1155.7 42.3 1153.7 42.3H1125.5V0H1153.7C1155.7 0 1157.3 1.6 1157.3 3.5V38.8Z"/><path d="M1100.8 95.3C1100.8 97.2 1102.4 98.8 1104.3 98.8H1132.6V56.5H1104.3C1102.4 56.5 1100.8 58 1100.8 60V95.3Z"/><path d="M1157.3 95.3C1157.3 97.2 1155.7 98.8 1153.7 98.8H1125.5V56.5H1153.7C1155.7 56.5 1157.3 58 1157.3 60V95.3Z"/><path d="M1185.5 38.8C1185.5 40.8 1187.1 42.3 1189 42.3H1217.2V0H1189C1187.1 0 1185.5 1.6 1185.5 3.5V38.8Z"/><path d="M1210.2 42.3V0H1245.5V42.3H1210.2Z"/><path d="M1238.4 42.3V0H1273.7V42.3H1238.4Z"/><path d="M1266.6 42.3V0H1301.9V42.3H1266.6Z"/><path d="M1294.9 42.3V0H1330.1V42.3H1294.9Z"/><path d="M1354.8 38.8C1354.8 40.8 1353.3 42.3 1351.3 42.3H1323.1V0H1351.3C1353.3 0 1354.8 1.6 1354.8 3.5V38.8Z"/><path d="M1213.7 95.3C1213.7 97.2 1215.3 98.8 1217.2 98.8H1245.5V56.5H1217.2C1215.3 56.5 1213.7 58 1213.7 60V95.3Z"/><path d="M1270.2 95.3C1270.2 97.2 1268.6 98.8 1266.6 98.8H1238.4V56.5H1266.6C1268.6 56.5 1270.2 58 1270.2 60V95.3Z"/><path d="M1185.5 151.7C1185.5 153.7 1187.1 155.2 1189 155.2H1217.2V112.9H1189C1187.1 112.9 1185.5 114.5 1185.5 116.4V151.7Z"/><path d="M1241.9 151.7C1241.9 153.7 1240.4 155.2 1238.4 155.2H1210.2V112.9H1238.4C1240.4 112.9 1241.9 114.5 1241.9 116.4V151.7Z"/><path d="M1185.5 208.2C1185.5 210.1 1187.1 211.7 1189 211.7H1217.2V169.4H1189C1187.1 169.4 1185.5 170.9 1185.5 172.9V208.2Z"/><path d="M1241.9 208.2C1241.9 210.1 1240.4 211.7 1238.4 211.7H1210.2V169.4H1238.4C1240.4 169.4 1241.9 170.9 1241.9 172.9V208.2Z"/><path d="M1213.7 264.6C1213.7 266.6 1215.3 268.1 1217.2 268.1H1245.5V225.8H1217.2C1215.3 225.8 1213.7 227.4 1213.7 229.3V264.6Z"/><path d="M1238.4 268.1V225.8H1273.7V268.1H1238.4Z"/><path d="M1266.6 268.1V225.8H1301.9V268.1H1266.6Z"/><path d="M1326.6 264.6C1326.6 266.6 1325 268.1 1323.1 268.1H1294.9V225.8H1323.1C1325 225.8 1326.6 227.4 1326.6 229.3V264.6Z"/><path d="M1298.4 208.2C1298.4 210.1 1300 211.7 1301.9 211.7H1330.1V169.4H1301.9C1300 169.4 1298.4 170.9 1298.4 172.9V208.2Z"/><path d="M1354.8 208.2C1354.8 210.1 1353.3 211.7 1351.3 211.7H1323.1V169.4H1351.3C1353.3 169.4 1354.8 170.9 1354.8 172.9V208.2Z"/><path d="M1298.4 151.7C1298.4 153.7 1300 155.2 1301.9 155.2H1330.1V112.9H1301.9C1300 112.9 1298.4 114.5 1298.4 116.4V151.7Z"/><path d="M1354.8 151.7C1354.8 153.7 1353.3 155.2 1351.3 155.2H1323.1V112.9H1351.3C1353.3 112.9 1354.8 114.5 1354.8 116.4V151.7Z"/><path d="M1383.1 95.3C1383.1 97.2 1384.7 98.8 1386.6 98.8H1414.8V56.5H1386.6C1384.7 56.5 1383.1 58 1383.1 60V95.3Z"/><path d="M1439.5 95.3C1439.5 97.2 1437.9 98.8 1436 98.8H1407.8V56.5H1436C1437.9 56.5 1439.5 58 1439.5 60V95.3Z"/><path d="M1383.1 151.7C1383.1 153.7 1384.7 155.2 1386.6 155.2H1414.8V112.9H1386.6C1384.7 112.9 1383.1 114.5 1383.1 116.4V151.7Z"/><path d="M1439.5 151.7C1439.5 153.7 1437.9 155.2 1436 155.2H1407.8V112.9H1436C1437.9 112.9 1439.5 114.5 1439.5 116.4V151.7Z"/><path d="M1383.1 208.2C1383.1 210.1 1384.7 211.7 1386.6 211.7H1414.8V169.4H1386.6C1384.7 169.4 1383.1 170.9 1383.1 172.9V208.2Z"/><path d="M1439.5 208.2C1439.5 210.1 1437.9 211.7 1436 211.7H1407.8V169.4H1436C1437.9 169.4 1439.5 170.9 1439.5 172.9V208.2Z"/><path d="M1411.3 264.6C1411.3 266.6 1412.9 268.1 1414.8 268.1H1443.1V225.8H1414.8C1412.9 225.8 1411.3 227.4 1411.3 229.3V264.6Z"/><path d="M1436 268.1V225.8H1471.3V268.1H1436Z"/><path d="M1464.2 268.1V225.8H1499.5V268.1H1464.2Z"/><path d="M1524.2 264.6C1524.2 266.6 1522.6 268.1 1520.7 268.1H1492.4V225.8H1520.7C1522.6 225.8 1524.2 227.4 1524.2 229.3V264.6Z"/><path d="M1411.3 38.8C1411.3 40.8 1412.9 42.3 1414.8 42.3H1443.1V0H1414.8C1412.9 0 1411.3 1.6 1411.3 3.5V38.8Z"/><path d="M1436 42.3V0H1471.3V42.3H1436Z"/><path d="M1464.2 42.3V0H1499.5V42.3H1464.2Z"/><path d="M1524.2 38.8C1524.2 40.8 1522.6 42.3 1520.7 42.3H1492.4V0H1520.7C1522.6 0 1524.2 1.6 1524.2 3.5V38.8Z"/><path d="M1496 95.3C1496 97.2 1497.6 98.8 1499.5 98.8H1527.7V56.5H1499.5C1497.6 56.5 1496 58 1496 60V95.3Z"/><path d="M1552.4 95.3C1552.4 97.2 1550.8 98.8 1548.9 98.8H1520.7V56.5H1548.9C1550.8 56.5 1552.4 58 1552.4 60V95.3Z"/><path d="M1496 151.7C1496 153.7 1497.6 155.2 1499.5 155.2H1527.7V112.9H1499.5C1497.6 112.9 1496 114.5 1496 116.4V151.7Z"/><path d="M1552.4 151.7C1552.4 153.7 1550.8 155.2 1548.9 155.2H1520.7V112.9H1548.9C1550.8 112.9 1552.4 114.5 1552.4 116.4V151.7Z"/><path d="M1496 208.2C1496 210.1 1497.6 211.7 1499.5 211.7H1527.7V169.4H1499.5C1497.6 169.4 1496 170.9 1496 172.9V208.2Z"/><path d="M1552.4 208.2C1552.4 210.1 1550.8 211.7 1548.9 211.7H1520.7V169.4H1548.9C1550.8 169.4 1552.4 170.9 1552.4 172.9V208.2Z"/><path d="M1580.7 38.8C1580.7 40.8 1582.2 42.3 1584.2 42.3H1612.4V0H1584.2C1582.2 0 1580.7 1.6 1580.7 3.5V38.8Z"/><path d="M1605.3 42.3V0H1640.6V42.3H1605.3Z"/><path d="M1580.7 95.3C1580.7 97.2 1582.2 98.8 1584.2 98.8H1612.4V56.5H1584.2C1582.2 56.5 1580.7 58 1580.7 60V95.3Z"/><path d="M1637.1 95.3C1637.1 97.2 1635.5 98.8 1633.6 98.8H1605.4V56.5H1633.6C1635.5 56.5 1637.1 58 1637.1 60V95.3Z"/><path d="M1580.7 151.7C1580.7 153.7 1582.2 155.2 1584.2 155.2H1612.4V112.9H1584.2C1582.2 112.9 1580.7 114.5 1580.7 116.4V151.7Z"/><path d="M1637.1 151.7C1637.1 153.7 1635.5 155.2 1633.6 155.2H1605.4V112.9H1633.6C1635.5 112.9 1637.1 114.5 1637.1 116.4V151.7Z"/><path d="M1580.7 208.2C1580.7 210.1 1582.2 211.7 1584.2 211.7H1612.4V169.4H1584.2C1582.2 169.4 1580.7 170.9 1580.7 172.9V208.2Z"/><path d="M1605.3 211.7V169.4H1640.6V211.7H1605.3Z"/><path d="M1580.7 264.6C1580.7 266.6 1582.2 268.1 1584.2 268.1H1612.4V225.8H1584.2C1582.2 225.8 1580.7 227.4 1580.7 229.3V264.6Z"/><path d="M1637.1 264.6C1637.1 266.6 1635.5 268.1 1633.6 268.1H1605.4V225.8H1633.6C1635.5 225.8 1637.1 227.4 1637.1 229.3V264.6Z"/><path d="M1633.6 42.3V0H1668.9V42.3H1633.6Z"/><path d="M1661.8 42.3V0H1697.1V42.3H1661.8Z"/><path d="M1721.8 38.8C1721.8 40.8 1720.2 42.3 1718.3 42.3H1690V0H1718.3C1720.2 0 1721.8 1.6 1721.8 3.5V38.8Z"/><path d="M1693.6 95.3C1693.6 97.2 1695.1 98.8 1697.1 98.8H1725.3V56.5H1697.1C1695.1 56.5 1693.6 58 1693.6 60V95.3Z"/><path d="M1750 95.3C1750 97.2 1748.4 98.8 1746.5 98.8H1718.3V56.5H1746.5C1748.4 56.5 1750 58 1750 60V95.3Z"/><path d="M1665.3 151.7C1665.3 153.7 1666.9 155.2 1668.9 155.2H1697.1V112.9H1668.9C1666.9 112.9 1665.3 114.5 1665.3 116.4V151.7Z"/><path d="M1721.8 151.7C1721.8 153.7 1720.2 155.2 1718.3 155.2H1690V112.9H1718.3C1720.2 112.9 1721.8 114.5 1721.8 116.4V151.7Z"/><path d="M1633.6 211.7V169.4H1668.9V211.7H1633.6Z"/><path d="M1693.6 208.2C1693.6 210.1 1692 211.7 1690 211.7H1661.8V169.4H1690C1692 169.4 1693.6 170.9 1693.6 172.9V208.2Z"/><path d="M1665.3 264.6C1665.3 266.6 1666.9 268.1 1668.9 268.1H1697.1V225.8H1668.9C1666.9 225.8 1665.3 227.4 1665.3 229.3V264.6Z"/><path d="M1690 268.1V225.8H1725.3V268.1H1690Z"/><path d="M1750 264.6C1750 266.6 1748.4 268.1 1746.5 268.1H1718.3V225.8H1746.5C1748.4 225.8 1750 227.4 1750 229.3V264.6Z"/></g></svg>
