<svg xmlns="http://www.w3.org/2000/svg" xml:space="preserve" style="fill-rule:evenodd;clip-rule:evenodd;stroke-linejoin:round;stroke-miterlimit:2" viewBox="0 0 600 150"><path d="m512.51 75.13-22.19-29.38h25.72l45.39 59.77h-25.97l-10.09-13.37-10.09 13.37h-25.85l23.08-30.39ZM534.89 45.75h25.6l-19.65 26.17-13-16.77 7.05-9.4ZM159.9 98.9c-6.18-5.25-9.27-13.01-9.27-23.26 0-10.25 3.15-18.01 9.46-23.26 6.3-5.25 14.92-7.88 25.85-7.88 4.54 0 8.55.31 12.04.95 3.49.63 6.83 1.7 10.02 3.22V65.3c-4.96-2.35-10.59-3.53-16.89-3.53-5.55 0-9.65 1.05-12.29 3.15-2.65 2.1-3.97 5.67-3.97 10.72 0 4.88 1.3 8.41 3.91 10.59 2.6 2.19 6.72 3.28 12.36 3.28 5.97 0 11.64-1.39 17.02-4.16v17.4c-5.97 2.69-13.41 4.03-22.32 4.03-11.11 0-19.74-2.63-25.92-7.88ZM213.52 75.63c0-10.17 2.9-17.9 8.7-23.2 5.8-5.3 14.54-7.94 26.23-7.94 11.77 0 20.57 2.65 26.42 7.94 5.84 5.29 8.76 13.03 8.76 23.2 0 20.76-11.73 31.14-35.18 31.14-23.29.01-34.93-10.37-34.93-31.14Zm43.32 10.6c1.72-2.19 2.58-5.72 2.58-10.59 0-4.79-.86-8.3-2.58-10.53-1.72-2.23-4.52-3.34-8.39-3.34-3.78 0-6.52 1.12-8.2 3.34-1.68 2.23-2.52 5.74-2.52 10.53 0 4.88.84 8.41 2.52 10.59 1.68 2.19 4.41 3.28 8.2 3.28 3.87 0 6.66-1.1 8.39-3.28ZM289.15 45.75h22.19l.63 4.54c2.44-1.68 5.55-3.07 9.33-4.16 3.78-1.09 7.69-1.64 11.73-1.64 7.48 0 12.94 1.85 16.39 5.55 3.45 3.7 5.17 9.41 5.17 17.15v38.33h-23.7V69.58c0-2.69-.61-4.62-1.83-5.8-1.22-1.18-3.26-1.76-6.12-1.76-1.76 0-3.57.4-5.42 1.2-1.85.8-3.4 1.83-4.67 3.09v39.21h-23.7V45.75ZM354.66 45.75h24.71l11.35 35.05 11.35-35.05h24.71l-23.58 59.77h-24.97l-23.57-59.77Z" style="fill:#111;fill-rule:nonzero"/><path d="M434.24 100.38c-7.12-5.34-10.45-14.61-10.45-24.62 0-9.75 2.65-17.78 8.7-23.33 6.05-5.55 15.27-7.94 26.91-7.94 10.71 0 19.13 2.48 25.28 7.44 6.14 4.96 9.22 11.73 9.22 20.3V82.7h-45.07c1.12 3.11 2.54 5.36 6.03 6.75 3.49 1.39 8.36 2.08 14.59 2.08 3.72 0 7.52-.29 11.38-.88 1.36-.21 3.6-.54 4.78-.79v14.53c-5.89 1.6-13.74 2.4-22.59 2.4-11.91-.01-21.66-1.07-28.78-6.41ZM469 69.84c0-2.96-3.41-9.33-10.26-9.33-6.18 0-10.26 6.27-10.26 9.33H469Z" style="fill:#111;fill-rule:nonzero"/><path d="M100.22 100.4c13.1-1.43 25.45-8.29 32.25-19.74-3.22 28.32-34.73 46.22-60.45 35.23-2.37-1.01-4.41-2.69-5.81-4.85-5.78-8.92-7.68-20.27-4.95-30.57 7.8 13.23 23.66 21.34 38.96 19.93Z" style="fill:#f3b01c;fill-rule:nonzero"/><path d="M60.78 72.16c-5.31 12.06-5.54 26.18.97 37.8C38.84 93.02 39.09 56.77 61.47 40c2.07-1.55 4.53-2.47 7.11-2.61 10.61-.55 21.39 3.48 28.95 10.99-15.36.15-30.32 9.82-36.75 23.78Z" style="fill:#8d2676;fill-rule:nonzero"/><path d="M104.94 52.09c-7.75-10.62-19.88-17.85-33.17-18.07 25.69-11.46 57.29 7.12 60.73 34.59.32 2.55-.1 5.15-1.25 7.45-4.8 9.58-13.7 17.01-24.1 19.76 7.62-13.89 6.68-30.86-2.21-43.73Z" style="fill:#ee342f;fill-rule:nonzero"/></svg>