<svg xmlns="http://www.w3.org/2000/svg" viewBox="0 0 407.66 240"><defs><style>.cls-1{fill:#ff6c2c}</style></defs><g id="Layer_2" data-name="Layer 2"><g id="Layer_1-2" data-name="Layer 1"><path d="M89.69 59.1h67.8L147 99.3a25.38 25.38 0 0 1-9 13.5 24.32 24.32 0 0 1-15.3 5.1H91.19a30.53 30.53 0 0 0-19 6.3 33 33 0 0 0-11.55 17.1 31.91 31.91 0 0 0-.45 15.3A33.1 33.1 0 0 0 66 169.35a30.29 30.29 0 0 0 10.8 8.85 31.74 31.74 0 0 0 14.4 3.3h19.2a10.8 10.8 0 0 1 8.85 4.35 10.4 10.4 0 0 1 2 9.75l-12 44.4h-21a84.77 84.77 0 0 1-39.75-9.45 89.78 89.78 0 0 1-30.21-25.05A88.4 88.4 0 0 1 1.94 170 87.51 87.51 0 0 1 3 129l1.2-4.5a88.69 88.69 0 0 1 31.64-47.25 89.91 89.91 0 0 1 25-13.35 87 87 0 0 1 28.85-4.8ZM123.89 240 183 18.6a25.38 25.38 0 0 1 9-13.5A24.28 24.28 0 0 1 207.29 0H270a84.8 84.8 0 0 1 39.75 9.45 89.21 89.21 0 0 1 46.65 60.6 83.8 83.8 0 0 1-1.2 41l-1.2 4.5a89.88 89.88 0 0 1-12 26.55 87.65 87.65 0 0 1-73.2 39.15h-54.3l10.8-40.5a25.38 25.38 0 0 1 9-13.2 24.32 24.32 0 0 1 15.3-5.1H267a31.56 31.56 0 0 0 30.6-23.7A29.5 29.5 0 0 0 298 84a33.1 33.1 0 0 0-5.85-12.75 31.85 31.85 0 0 0-10.8-9A30.61 30.61 0 0 0 267 58.8h-33.6l-43.8 162.9a25.38 25.38 0 0 1-9 13.2 23.88 23.88 0 0 1-15 5.1ZM361.18 32.31h-3.71V3.71h-10.1V.42h23.91v3.29h-10.1ZM390.19 32.31 379.37 4h-.17q.3 3.36.3 8v20.31h-3.42V.42h5.58l10.1 26.3h.18L402.12.42h5.54v31.89H404V11.76c0-2.36.11-4.91.31-7.68h-.17l-10.96 28.23Z" class="cls-1"/></g></g></svg>