<svg xmlns="http://www.w3.org/2000/svg" viewBox="0 0 1136.12 240"><defs><style>.cls-1{fill:#ff6c2c}</style></defs><g id="Layer_2" data-name="Layer 2"><g id="Layer_1-2" data-name="Layer 1"><path d="M89.69 59.1h67.8L147 99.3a25.38 25.38 0 0 1-9 13.5 24.32 24.32 0 0 1-15.3 5.1H91.19a30.53 30.53 0 0 0-19 6.3 33 33 0 0 0-11.55 17.1 31.91 31.91 0 0 0-.45 15.3A33.1 33.1 0 0 0 66 169.35a30.29 30.29 0 0 0 10.8 8.85 31.74 31.74 0 0 0 14.4 3.3h19.2a10.8 10.8 0 0 1 8.85 4.35 10.4 10.4 0 0 1 2 9.75l-12 44.4h-21a84.77 84.77 0 0 1-39.75-9.45 89.78 89.78 0 0 1-30.21-25.05A88.4 88.4 0 0 1 1.94 170 87.51 87.51 0 0 1 3 129l1.2-4.5a88.69 88.69 0 0 1 31.64-47.25 89.91 89.91 0 0 1 25-13.35 87 87 0 0 1 28.85-4.8ZM123.89 240 183 18.6a25.38 25.38 0 0 1 9-13.5A24.32 24.32 0 0 1 207.29 0H270a84.77 84.77 0 0 1 39.75 9.45 89.21 89.21 0 0 1 46.65 60.6 83.8 83.8 0 0 1-1.2 41l-1.2 4.5a89.88 89.88 0 0 1-12 26.55 87.65 87.65 0 0 1-73.2 39.15h-54.3l10.8-40.5a25.38 25.38 0 0 1 9-13.2 24.32 24.32 0 0 1 15.3-5.1H267a31.56 31.56 0 0 0 30.6-23.7A29.39 29.39 0 0 0 298 84a33.1 33.1 0 0 0-5.85-12.75 31.76 31.76 0 0 0-10.8-9A30.61 30.61 0 0 0 267 58.8h-33.6l-43.8 162.9a25.38 25.38 0 0 1-9 13.2 23.88 23.88 0 0 1-15 5.1ZM498 121.8l.9-3.3a4.41 4.41 0 0 0-.75-4 4.58 4.58 0 0 0-3.75-1.65h-97.5a24 24 0 0 1-11.4-2.7 24.94 24.94 0 0 1-8.4-7 24.6 24.6 0 0 1-4.5-10 25.5 25.5 0 0 1 .3-11.7l6-22.8h132a47.39 47.39 0 0 1 22.5 5.4 51.93 51.93 0 0 1 17 14.1 50.34 50.34 0 0 1 9.3 20 49.79 49.79 0 0 1-.45 23.25l-23.7 88.2a40.62 40.62 0 0 1-39.6 30.3l-97.5-.3A51.59 51.59 0 0 1 357 219.15a54.4 54.4 0 0 1-9.6-21A49.48 49.48 0 0 1 348 174l1.2-4.5a47.58 47.58 0 0 1 7.05-15.6 54 54 0 0 1 11.55-12.3 52.06 52.06 0 0 1 14.7-7.95 51.14 51.14 0 0 1 17.1-2.85h81.9l-6 22.5a25.49 25.49 0 0 1-9 13.2 23.92 23.92 0 0 1-15 5.1h-36.6q-5.11 0-6.6 5.1a6.13 6.13 0 0 0 1.2 5.85 6.65 6.65 0 0 0 5.4 2.55H474a9.27 9.27 0 0 0 5.7-1.8 7.76 7.76 0 0 0 3-4.8l.6-2.4ZM672.59 59.1a85.39 85.39 0 0 1 40 9.45 89.82 89.82 0 0 1 30.16 25 88.39 88.39 0 0 1 16.34 35.7 85.78 85.78 0 0 1-1.34 41.1l-15 56.4a16.53 16.53 0 0 1-6.45 9.6 18.22 18.22 0 0 1-11 3.6H693a11 11 0 0 1-10.81-14.1l18-68.1a29.39 29.39 0 0 0 .45-14.7 33.23 33.23 0 0 0-5.84-12.75 32 32 0 0 0-10.8-9 30.67 30.67 0 0 0-14.4-3.45H636L606.88 226.8a16.4 16.4 0 0 1-6.45 9.6 18.65 18.65 0 0 1-11.25 3.6h-32.1a10.78 10.78 0 0 1-8.84-4.35 10.43 10.43 0 0 1-2-9.75l44.4-166.8ZM849.28 116.25a15.34 15.34 0 0 0-5.1 7.35l-13.5 51a9 9 0 0 0 8.7 11.4h124.2L954 221.7a25.38 25.38 0 0 1-9 13.2 23.88 23.88 0 0 1-15 5.1H816.88a48.43 48.43 0 0 1-22.5-5.25 49.48 49.48 0 0 1-17-14.1 51.48 51.48 0 0 1-9.3-20.1 46 46 0 0 1 .75-23l18.3-68.1a67.5 67.5 0 0 1 9.3-20.4 67.3 67.3 0 0 1 34-26.25 65.91 65.91 0 0 1 22.05-3.75h80.1a47.34 47.34 0 0 1 22.5 5.4 51.83 51.83 0 0 1 17 14.1 48.65 48.65 0 0 1 9.15 20.1 50.2 50.2 0 0 1-.6 23.1l-5.4 20.4a39.05 39.05 0 0 1-14.5 21.85 40.08 40.08 0 0 1-24.73 8.2h-90.6l6-22.2a23.78 23.78 0 0 1 8.7-13.2 24.32 24.32 0 0 1 15.3-5.1H912q5.1 0 6.6-5.1l1.2-4.5a6.92 6.92 0 0 0-6.6-8.7h-55.8a12.71 12.71 0 0 0-8.12 2.85ZM963.28 240l60.3-226.5a17.06 17.06 0 0 1 6.42-9.75A18.14 18.14 0 0 1 1041.28 0h32.1a11.11 11.11 0 0 1 9.15 4.35 10.43 10.43 0 0 1 2 9.75l-45 167.1a74.52 74.52 0 0 1-10.65 24 78.66 78.66 0 0 1-17.4 18.45 81.65 81.65 0 0 1-22.35 12 76.85 76.85 0 0 1-25.85 4.35ZM1094.83 21.06a20.4 20.4 0 0 1 2.75-10.29 20.6 20.6 0 0 1 17.9-10.35 20.39 20.39 0 0 1 10.29 2.74 20.13 20.13 0 0 1 7.58 7.55 20.73 20.73 0 0 1 .11 20.51 20.67 20.67 0 0 1-36 0 20.37 20.37 0 0 1-2.63-10.16Zm2.88 0a17.76 17.76 0 0 0 8.91 15.39 17.67 17.67 0 0 0 17.73 0 17.89 17.89 0 0 0 6.49-6.47 17.21 17.21 0 0 0 2.4-8.91 17.18 17.18 0 0 0-2.39-8.86 17.89 17.89 0 0 0-6.46-6.5 17.7 17.7 0 0 0-17.78 0 17.87 17.87 0 0 0-6.49 6.46 17.17 17.17 0 0 0-2.41 8.89Zm26.14-5a6.64 6.64 0 0 1-1.17 3.88 6.79 6.79 0 0 1-3.28 2.51l6.54 10.85h-4.61l-5.69-9.72h-3.7v9.72h-4.07V8.85h7.13c3 0 5.26.59 6.68 1.78a6.69 6.69 0 0 1 2.17 5.44Zm-11.91 4.14h3a5.24 5.24 0 0 0 3.53-1.14 3.63 3.63 0 0 0 1.33-2.89 3.44 3.44 0 0 0-1.18-2.95 6.19 6.19 0 0 0-3.73-.9h-2.91Z" class="cls-1"/></g></g></svg>