<svg xmlns="http://www.w3.org/2000/svg" width="54" height="55" fill="none" viewBox="0 0 54 55"><path fill="#E5422B" d="M47.812.6H5.626A5.602 5.602 0 0 0 0 6.225v42.188c0 3.125 2.5 5.625 5.625 5.625h42.188c3.062 0 5.624-2.5 5.624-5.625V6.224A5.6 5.6 0 0 0 47.812.6ZM26.625 33.163c1.75 0 3.625-.688 5.438-2.313l2.5 2.875c-2.626 2.125-5.626 3.313-8.626 3.313-5.937 0-9.687-3.938-8.812-9.5.875-5.563 5.938-9.5 11.875-9.5 2.875 0 5.563 1.125 7.438 3.187l-3.5 2.875c-1-1.313-2.688-2.188-4.563-2.188-3.563 0-6.313 2.313-6.875 5.626-.5 3.312 1.5 5.625 5.125 5.625Z"/></svg>