<svg xmlns="http://www.w3.org/2000/svg" width="1000" height="1000" aria-labelledby="css-logo-title css-logo-description" viewBox="0 0 1000 1000"><path fill="#639" d="M0 0h840a160 160 0 0 1 160 160v680a160 160 0 0 1-160 160H160A160 160 0 0 1 0 840V0Z"/><path fill="#fff" d="M817 920c-33 0-58-10-75-28-17-19-26-47-27-82h70c0 31 11 47 33 47 11 0 19-4 23-10 5-7 7-18 7-33 0-12-3-23-9-30a73 73 0 0 0-29-22l-26-12c-23-11-40-24-50-39s-15-37-15-64c0-30 9-55 26-74 18-19 43-28 74-28 30 0 54 9 70 28 17 18 26 45 27 80h-67c0-11-2-23-7-33-4-8-11-12-22-12-20 0-30 12-30 36 0 11 3 21 7 28a65 65 0 0 0 26 17l25 11c25 12 44 26 55 43 11 18 17 41 17 69 0 35-9 62-27 80-19 19-44 28-76 28Zm-226 0c-32 0-57-10-74-28-18-19-26-47-27-82h70c0 31 11 47 33 47 11 0 18-4 23-10 4-7 7-18 7-33 0-12-3-23-9-30a73 73 0 0 0-30-22l-25-12c-24-11-40-24-51-39-10-15-15-37-15-64 0-30 9-55 27-74s42-28 74-28c30 0 53 9 70 28 17 18 26 45 26 80h-67c1-11-2-23-7-33-3-8-11-12-22-12-19 0-29 12-29 36 0 11 2 21 7 28a65 65 0 0 0 25 17l25 11c26 12 44 26 55 43 12 18 18 41 18 69 0 35-10 62-28 80-18 19-43 28-76 28Zm-235 0c-31 0-56-9-75-26s-28-43-28-77V649c0-34 10-60 29-77 20-18 47-27 79-27 31 0 56 9 74 27 19 18 28 45 28 80v14h-74v-13c0-14-3-24-8-31a26 26 0 0 0-22-10c-12 0-21 4-25 12a79 79 0 0 0-7 37v146c0 31 11 46 32 47 10 0 18-4 23-11a52 52 0 0 0 7-30v-11h74v11c0 24-4 44-14 59a89 89 0 0 1-38 36 121 121 0 0 1-55 12Z"/></svg>