<svg width="119" height="34" viewBox="0 0 119 34" fill="none" xmlns="http://www.w3.org/2000/svg">
<g clip-path="url(#clip0_4109_36136)">
<path d="M47.3236 17.4533C47.3236 22.7507 50.9552 25.6946 54.4548 25.6946C56.9805 25.6946 59.5763 24.3114 61.0661 21.4707C61.1362 21.2973 61.3426 21.2271 61.4829 21.3304L64.6689 23.3742C64.772 23.4444 64.8422 23.6178 64.772 23.721C62.6632 28.0481 58.6477 30.0919 54.6323 30.0919C48.6442 30.0919 42.623 25.6244 42.623 17.4533C42.623 9.28218 48.6442 4.8147 54.6323 4.8147C58.6477 4.8147 62.6632 6.85851 64.772 11.1856C64.8422 11.2888 64.772 11.4622 64.6689 11.5324L61.4829 13.5763C61.3426 13.6795 61.1362 13.6093 61.0661 13.4359C59.5763 10.5952 56.9805 9.21199 54.4548 9.21199C50.9263 9.21199 47.3236 12.1889 47.3236 17.4533Z" fill="white"/>
<path d="M66.6003 24.2083C66.6003 29.5056 71.1688 31.4091 75.1141 28.8822L77.5366 27.3256C77.7801 27.1522 77.9864 27.2926 77.9864 27.532V29.2992C77.9864 29.4396 78.1267 29.5758 78.2629 29.5758H82.2082C82.3444 29.5758 82.4847 29.4355 82.4847 29.2992V12.5399C82.4847 12.3996 82.3444 12.2633 82.2082 12.2633H78.2629C78.1267 12.2633 77.9864 12.4037 77.9864 12.5399V21.8878C77.9864 24.8647 76.1169 26.2851 74.3176 26.2851C72.6586 26.2851 71.0986 25.418 71.0986 22.7879V12.5399C71.0986 12.3996 70.9625 12.2633 70.8221 12.2633H66.8768C66.7365 12.2633 66.6003 12.4037 66.6003 12.5399V24.2083Z" fill="white"/>
<path d="M85.8768 29.5758H89.8221C89.9625 29.5758 90.0986 29.4354 90.0986 29.2992V5.6116C90.0986 5.47122 89.9583 5.33496 89.8221 5.33496H85.8768C85.7365 5.33496 85.6003 5.47534 85.6003 5.6116V29.295C85.6003 29.4354 85.7407 29.5717 85.8768 29.5717" fill="white"/>
<path d="M105.744 14.7902V12.5399C105.744 12.3995 105.88 12.2633 106.02 12.2633H109.966C110.106 12.2633 110.242 12.4036 110.242 12.5399V36.2233C110.242 36.3637 110.102 36.5 109.966 36.5H106.02C105.88 36.5 105.744 36.3637 105.744 36.2233V27.6352C105.744 27.3586 105.43 27.2553 105.224 27.4618C103.804 29.1257 101.831 29.9557 100.135 29.9557C96.3304 29.9557 92.5212 26.9415 92.5212 20.9877C92.5212 15.7233 96.0497 11.8793 99.6855 11.8793C100.552 11.8793 101.658 12.1559 102.698 12.9858L105.294 14.9925C105.5 15.1329 105.744 15.0255 105.744 14.786M97.197 20.9505C97.197 23.6508 99.0995 25.868 101.592 25.868C103.598 25.868 105.744 23.721 105.744 20.7771C105.744 17.4863 103.495 15.7894 101.625 15.7894C99.409 15.7894 97.197 17.4533 97.197 20.9464" fill="white"/>
<path d="M115.293 10.0791C116.849 10.0791 118.063 8.90235 118.063 7.2384C118.063 5.57444 116.849 4.4679 115.293 4.4679C113.738 4.4679 112.421 5.64464 112.421 7.2384C112.421 8.83216 113.667 10.0791 115.293 10.0791ZM113.288 29.5717H117.233C117.373 29.5717 117.51 29.4313 117.51 29.2951V12.5399C117.51 12.3995 117.373 12.2633 117.233 12.2633H113.288C113.152 12.2633 113.011 12.4037 113.011 12.5399V29.2992C113.011 29.4396 113.152 29.5758 113.288 29.5758" fill="white"/>
<path d="M29.0333 26.0291L18.7945 15.7852L15.5879 18.7787L25.934 29.1299L32.4132 35.6164L35.5125 32.5156L29.0333 26.0291Z" fill="white"/>
<path d="M33.4325 13.0106C31.5135 5.64463 24.8527 0.5 17.2345 0.5C11.8613 0.5 6.78112 3.10947 3.64056 7.48199C1.58537 10.3392 0.5 13.7167 0.5 17.2427C0.5 21.4501 2.04758 25.4304 4.86624 28.5188C3.3393 26.7971 2.48916 24.65 2.48916 22.3254C2.48916 19.877 3.42183 17.6432 4.95291 15.9587C5.17163 13.824 5.93098 11.7967 7.1938 10.0378C9.51311 6.80898 13.2644 4.88491 17.2345 4.88491C22.8553 4.88491 27.7746 8.67938 29.1901 14.1172C29.4542 15.1329 29.5904 16.1857 29.5904 17.2427C29.5904 19.8811 28.7733 22.3956 27.2216 24.522L27.3454 24.3445L30.4777 27.4783C32.5783 24.6005 33.969 20.8184 33.969 17.2427C33.969 15.81 33.7874 14.3855 33.4284 13.0106" fill="white"/>
<path d="M5.31194 28.9936C5.15924 28.8409 5.0148 28.6798 4.87036 28.5229C5.01068 28.684 5.15924 28.8409 5.31194 28.9936Z" fill="white"/>
<path d="M27.3453 24.3445L27.2215 24.522C26.4539 25.5749 25.5253 26.4998 24.4689 27.2636C22.3559 28.7913 19.855 29.6006 17.2386 29.6006C13.904 29.6006 10.7759 28.2917 8.43592 25.9135C7.4661 24.9514 6.88009 23.6921 6.88009 22.3254C6.88009 19.5219 9.15813 17.2428 11.9603 17.2428C13.3717 17.2428 14.684 17.8084 15.6538 18.8324L18.8398 15.8183C17.0611 13.9355 14.552 12.8578 11.9644 12.8578C9.19527 12.8578 6.6985 14.0552 4.96521 15.9587C3.43414 17.6433 2.50146 19.877 2.50146 22.3254C2.50146 24.7739 3.3516 26.7971 4.87855 28.5188C5.02299 28.6757 5.16743 28.8367 5.32013 28.9895C8.48957 32.2142 12.7279 33.9855 17.2468 33.9855C20.7918 33.9855 24.18 32.8913 27.0482 30.8145C28.3688 29.8566 29.4995 28.7666 30.49 27.4742L27.3577 24.3404L27.3453 24.3445Z" fill="white"/>
<g opacity="0.75">
<mask id="mask0_4109_36136" style="mask-type:luminance" maskUnits="userSpaceOnUse" x="27" y="27" width="9" height="9">
<path d="M35.5125 27.4783H27.3701V35.6164H35.5125V27.4783Z" fill="white"/>
</mask>
<g mask="url(#mask0_4109_36136)">
<path d="M27.3701 30.5709L32.4132 35.6164L35.5125 32.5156C33.8328 30.8351 32.1573 29.1588 30.4777 27.4783C30.1021 27.9655 29.6523 28.4982 29.1158 29.0432C28.5091 29.6584 27.9107 30.1621 27.3701 30.5709Z" fill="#FF7800"/>
</g>
</g>
<g opacity="0.75">
<mask id="mask1_4109_36136" style="mask-type:luminance" maskUnits="userSpaceOnUse" x="15" y="15" width="13" height="13">
<path d="M27.3496 15.8224H15.6499V27.4329H27.3496V15.8224Z" fill="white"/>
</mask>
<g mask="url(#mask1_4109_36136)">
<path d="M27.3457 24.3445C24.5064 21.5038 21.6671 18.6631 18.8319 15.8224L15.646 18.8365C18.5059 21.702 21.37 24.5674 24.2299 27.4329C24.7128 27.0985 25.2616 26.6732 25.8188 26.1323C26.4667 25.5047 26.966 24.8812 27.3416 24.3445" fill="#FF7800"/>
</g>
</g>
<path d="M33.4325 13.0106C31.5135 5.64463 24.8527 0.5 17.2345 0.5C11.8613 0.5 6.78112 3.10947 3.64056 7.48199C1.58537 10.3392 0.5 13.7167 0.5 17.2427C0.5 21.4501 2.04758 25.4304 4.86624 28.5188C3.3393 26.7971 2.48916 24.65 2.48916 22.3254C2.48916 19.877 3.42183 17.6432 4.95291 15.9587C5.17163 13.824 5.93098 11.7967 7.1938 10.0378C9.51311 6.80898 13.2644 4.88491 17.2345 4.88491C22.8553 4.88491 27.7746 8.67938 29.1901 14.1172C29.4542 15.1329 29.5904 16.1857 29.5904 17.2427C29.5904 19.8811 28.7733 22.3956 27.2216 24.522L27.3454 24.3445L30.4777 27.4783C32.5783 24.6005 33.969 20.8184 33.969 17.2427C33.969 15.81 33.7874 14.3855 33.4284 13.0106" fill="#FF7800"/>
<path d="M5.31194 28.9936C5.15924 28.8409 5.0148 28.6798 4.87036 28.5229C5.01068 28.684 5.15924 28.8409 5.31194 28.9936Z" fill="#FF7800"/>
<g opacity="0.55">
<mask id="mask2_4109_36136" style="mask-type:luminance" maskUnits="userSpaceOnUse" x="2" y="12" width="29" height="22">
<path d="M30.4817 12.8578H2.49316V33.9896H30.4817V12.8578Z" fill="white"/>
</mask>
<g mask="url(#mask2_4109_36136)">
<path d="M27.3453 24.3445L27.2215 24.522C26.4539 25.5749 25.5253 26.4998 24.4689 27.2636C22.3559 28.7913 19.855 29.6006 17.2386 29.6006C13.904 29.6006 10.7759 28.2917 8.43592 25.9135C7.4661 24.9514 6.88009 23.6921 6.88009 22.3254C6.88009 19.5219 9.15813 17.2428 11.9603 17.2428C13.3717 17.2428 14.684 17.8084 15.6538 18.8324L18.8398 15.8183C17.0611 13.9355 14.552 12.8578 11.9644 12.8578C9.19527 12.8578 6.6985 14.0552 4.96521 15.9587C3.43414 17.6433 2.50146 19.877 2.50146 22.3254C2.50146 24.7739 3.3516 26.7971 4.87855 28.5188C5.02299 28.6757 5.16743 28.8367 5.32013 28.9895C8.48957 32.2142 12.7279 33.9855 17.2468 33.9855C20.7918 33.9855 24.18 32.8913 27.0482 30.8145C28.3688 29.8566 29.4995 28.7666 30.49 27.4742L27.3577 24.3404L27.3453 24.3445Z" fill="#FF7800"/>
</g>
</g>
</g>
<defs>
<clipPath id="clip0_4109_36136">
<rect width="117.562" height="36" fill="white" transform="translate(0.5 0.5)"/>
</clipPath>
</defs>
</svg>
