<svg width="41" height="42" viewBox="0 0 41 42" fill="none" xmlns="http://www.w3.org/2000/svg">
<path d="M33.3298 30.3086L21.4314 18.4103L17.7051 21.8872L29.7281 33.9103L37.2575 41.4445L40.8592 37.8428L33.3298 30.3086Z" fill="white"/>
<path d="M38.4423 15.1875C36.2123 6.63181 28.4719 0.65625 19.6188 0.65625C13.3747 0.65625 7.47107 3.68719 3.82147 8.76594C1.43317 12.0846 0.171875 16.0076 0.171875 20.1032C0.171875 24.9901 1.9703 29.6133 5.24583 33.2005C3.47138 31.2007 2.48345 28.7069 2.48345 26.0068C2.48345 23.1629 3.5673 20.5684 5.34654 18.6117C5.60071 16.1323 6.48314 13.7775 7.95065 11.7345C10.6459 7.98422 15.0053 5.74938 19.6188 5.74938C26.1507 5.74938 31.8673 10.1567 33.5122 16.4728C33.8192 17.6525 33.9774 18.8755 33.9774 20.1032C33.9774 23.1677 33.0279 26.0883 31.2246 28.5582L31.3685 28.352L35.0085 31.992C37.4496 28.6493 39.0658 24.2564 39.0658 20.1032C39.0658 18.4391 38.8548 16.7845 38.4375 15.1875" fill="white"/>
<path d="M5.76315 33.752C5.58571 33.5746 5.41785 33.3876 5.25 33.2053C5.41306 33.3924 5.58571 33.5746 5.76315 33.752Z" fill="white"/>
<path d="M31.3687 28.3519L31.2249 28.5581C30.3328 29.7811 29.2538 30.8553 28.0261 31.7425C25.5706 33.517 22.6644 34.457 19.6238 34.457C15.7488 34.457 12.1136 32.9367 9.3944 30.1743C8.26739 29.0569 7.58639 27.5942 7.58639 26.0068C7.58639 22.7504 10.2337 20.1031 13.49 20.1031C15.1302 20.1031 16.6552 20.7602 17.7822 21.9495L21.4846 18.4486C19.4176 16.2617 16.5018 15.01 13.4948 15.01C10.2768 15.01 7.37537 16.4008 5.36114 18.6117C3.5819 20.5683 2.49805 23.1629 2.49805 26.0068C2.49805 28.8507 3.48598 31.2006 5.26043 33.2005C5.42828 33.3827 5.59613 33.5697 5.77358 33.7472C9.45675 37.4927 14.382 39.5501 19.6334 39.5501C23.753 39.5501 27.6904 38.2792 31.0234 35.8669C32.5581 34.7543 33.8721 33.4882 35.0231 31.9871L31.3831 28.3471L31.3687 28.3519Z" fill="white"/>
<g opacity="0.75">
<mask id="mask0_4428_1715" style="mask-type:luminance" maskUnits="userSpaceOnUse" x="31" y="31" width="10" height="11">
<path d="M40.8586 31.9919H31.3965V41.4445H40.8586V31.9919Z" fill="white"/>
</mask>
<g mask="url(#mask0_4428_1715)">
<path d="M31.3965 35.584L37.2569 41.4445L40.8586 37.8428C38.9067 35.8909 36.9596 33.9438 35.0077 31.9919C34.5713 32.5578 34.0486 33.1765 33.4251 33.8096C32.7201 34.5241 32.0247 35.1092 31.3965 35.584Z" fill="#FF7800"/>
</g>
</g>
<g opacity="0.75">
<mask id="mask1_4428_1715" style="mask-type:luminance" maskUnits="userSpaceOnUse" x="17" y="18" width="15" height="14">
<path d="M31.3734 18.4535H17.7773V31.9393H31.3734V18.4535Z" fill="white"/>
</mask>
<g mask="url(#mask1_4428_1715)">
<path d="M31.3695 28.352C28.07 25.0525 24.7705 21.753 21.4758 18.4535L17.7734 21.9544C21.0969 25.2827 24.4252 28.611 27.7487 31.9393C28.3098 31.5508 28.9476 31.0568 29.5951 30.4286C30.348 29.6996 30.9283 28.9755 31.3647 28.352" fill="#FF7800"/>
</g>
</g>
<path d="M38.4423 15.1875C36.2123 6.63181 28.4719 0.65625 19.6188 0.65625C13.3747 0.65625 7.47107 3.68719 3.82147 8.76594C1.43317 12.0846 0.171875 16.0076 0.171875 20.1032C0.171875 24.9901 1.9703 29.6133 5.24583 33.2005C3.47138 31.2007 2.48345 28.7069 2.48345 26.0068C2.48345 23.1629 3.5673 20.5684 5.34654 18.6117C5.60071 16.1323 6.48314 13.7775 7.95065 11.7345C10.6459 7.98422 15.0053 5.74938 19.6188 5.74938C26.1507 5.74938 31.8673 10.1567 33.5122 16.4728C33.8192 17.6525 33.9774 18.8755 33.9774 20.1032C33.9774 23.1677 33.0279 26.0883 31.2246 28.5582L31.3685 28.352L35.0085 31.992C37.4496 28.6493 39.0658 24.2564 39.0658 20.1032C39.0658 18.4391 38.8548 16.7845 38.4375 15.1875" fill="#FF7800"/>
<path d="M5.76315 33.752C5.58571 33.5746 5.41785 33.3876 5.25 33.2053C5.41306 33.3924 5.58571 33.5746 5.76315 33.752Z" fill="#FF7800"/>
<g opacity="0.55">
<mask id="mask2_4428_1715" style="mask-type:luminance" maskUnits="userSpaceOnUse" x="2" y="15" width="34" height="25">
<path d="M35.0134 15.01H2.48828V39.5549H35.0134V15.01Z" fill="white"/>
</mask>
<g mask="url(#mask2_4428_1715)">
<path d="M31.3687 28.3519L31.2249 28.5581C30.3328 29.7811 29.2538 30.8553 28.0261 31.7425C25.5706 33.517 22.6644 34.457 19.6238 34.457C15.7488 34.457 12.1136 32.9367 9.3944 30.1743C8.26739 29.0569 7.58639 27.5942 7.58639 26.0068C7.58639 22.7504 10.2337 20.1031 13.49 20.1031C15.1302 20.1031 16.6552 20.7602 17.7822 21.9495L21.4846 18.4486C19.4176 16.2617 16.5018 15.01 13.4948 15.01C10.2768 15.01 7.37537 16.4008 5.36114 18.6117C3.5819 20.5683 2.49805 23.1629 2.49805 26.0068C2.49805 28.8507 3.48598 31.2006 5.26042 33.2005C5.42828 33.3827 5.59613 33.5697 5.77358 33.7472C9.45675 37.4927 14.382 39.5501 19.6334 39.5501C23.753 39.5501 27.6904 38.2792 31.0234 35.8669C32.5581 34.7543 33.8721 33.4882 35.0231 31.9871L31.3831 28.3471L31.3687 28.3519Z" fill="#FF7800"/>
</g>
</g>
</svg>
