<svg width="99" height="30" viewBox="0 0 99 30" fill="none" xmlns="http://www.w3.org/2000/svg">
<g clip-path="url(#clip0_3976_11161)">
<path d="M39.0196 14.1279C39.0196 18.5424 42.046 20.9956 44.9624 20.9956C47.0671 20.9956 49.2302 19.843 50.4717 17.4757C50.5302 17.3312 50.7022 17.2727 50.8191 17.3587L53.474 19.0619C53.56 19.1204 53.6185 19.2649 53.56 19.351C51.8027 22.9569 48.4564 24.66 45.1102 24.66C40.1201 24.66 35.1025 20.9371 35.1025 14.1279C35.1025 7.31861 40.1201 3.5957 45.1102 3.5957C48.4564 3.5957 51.8027 5.29888 53.56 8.9048C53.6185 8.99082 53.56 9.13533 53.474 9.19382L50.8191 10.897C50.7022 10.983 50.5302 10.9245 50.4717 10.78C49.2302 8.41277 47.0671 7.26011 44.9624 7.26011C42.0219 7.26011 39.0196 9.7409 39.0196 14.1279Z" fill="#121314"/>
<path d="M55.0835 19.7569C55.0835 24.1714 58.8905 25.7575 62.1783 23.6518L64.197 22.3546C64.3999 22.2101 64.5719 22.3271 64.5719 22.5267V23.9993C64.5719 24.1163 64.6888 24.2298 64.8023 24.2298H68.0901C68.2035 24.2298 68.3205 24.1129 68.3205 23.9993V10.0333C68.3205 9.91628 68.2035 9.80273 68.0901 9.80273H64.8023C64.6888 9.80273 64.5719 9.91972 64.5719 10.0333V17.8231C64.5719 20.3039 63.014 21.4876 61.5146 21.4876C60.132 21.4876 58.8321 20.765 58.8321 18.5732V10.0333C58.8321 9.91628 58.7186 9.80273 58.6017 9.80273H55.3139C55.197 9.80273 55.0835 9.91972 55.0835 10.0333V19.7569Z" fill="#121314"/>
<path d="M71.1474 24.2298H74.4352C74.5521 24.2298 74.6656 24.1128 74.6656 23.9992V4.25958C74.6656 4.1426 74.5487 4.02905 74.4352 4.02905H71.1474C71.0305 4.02905 70.917 4.14604 70.917 4.25958V23.9958C70.917 24.1128 71.0339 24.2263 71.1474 24.2263" fill="#121314"/>
<path d="M87.7033 11.9084V10.0332C87.7033 9.9162 87.8168 9.80266 87.9338 9.80266H91.2215C91.3384 9.80266 91.4519 9.91964 91.4519 10.0332V29.7694C91.4519 29.8864 91.335 29.9999 91.2215 29.9999H87.9338C87.8168 29.9999 87.7033 29.8864 87.7033 29.7694V22.6126C87.7033 22.3821 87.442 22.2961 87.27 22.4681C86.087 23.8547 84.4431 24.5463 83.0297 24.5463C79.8588 24.5463 76.6846 22.0346 76.6846 17.073C76.6846 12.686 79.625 9.48267 82.6548 9.48267C83.377 9.48267 84.2987 9.7132 85.1653 10.4048L87.3285 12.077C87.5004 12.194 87.7033 12.1045 87.7033 11.905M80.581 17.042C80.581 19.2923 82.1664 21.14 84.2436 21.14C85.915 21.14 87.7033 19.3508 87.7033 16.8975C87.7033 14.1552 85.8291 12.7411 84.2712 12.7411C82.4244 12.7411 80.581 14.1277 80.581 17.0386" fill="#121314"/>
<path d="M95.6612 7.98264C96.9577 7.98264 97.9688 7.00202 97.9688 5.61539C97.9688 4.22876 96.9577 3.30664 95.6612 3.30664C94.3646 3.30664 93.2676 4.28726 93.2676 5.61539C93.2676 6.94353 94.3062 7.98264 95.6612 7.98264ZM93.9898 24.2265H97.2775C97.3945 24.2265 97.5079 24.1095 97.5079 23.9959V10.0333C97.5079 9.91634 97.3945 9.8028 97.2775 9.8028H93.9898C93.8763 9.8028 93.7594 9.91978 93.7594 10.0333V23.9994C93.7594 24.1164 93.8763 24.2299 93.9898 24.2299" fill="#121314"/>
<path d="M23.7777 21.2743L15.2454 12.7378L12.5732 15.2323L21.195 23.8583L26.5943 29.2638L29.1771 26.6798L23.7777 21.2743Z" fill="white"/>
<path d="M27.4438 10.4255C25.8446 4.28719 20.2939 0 13.9454 0C9.46776 0 5.23426 2.17456 2.61713 5.81833C0.904475 8.19933 0 11.0139 0 13.9523C0 17.4584 1.28965 20.7753 3.63853 23.349C2.36608 21.9142 1.65763 20.125 1.65763 18.1879C1.65763 16.1475 2.43486 14.286 3.71076 12.8822C3.89303 11.1033 4.52581 9.41392 5.57817 7.94816C7.51093 5.25748 10.637 3.65409 13.9454 3.65409C18.6294 3.65409 22.7288 6.81615 23.9084 11.3476C24.1285 12.1941 24.242 13.0715 24.242 13.9523C24.242 16.1509 23.5611 18.2464 22.268 20.0183L22.3711 19.8704L24.9814 22.4819C26.7319 20.0837 27.8908 16.932 27.8908 13.9523C27.8908 12.7583 27.7395 11.5713 27.4403 10.4255" fill="white"/>
<path d="M4.01007 23.7448C3.88282 23.6175 3.76246 23.4833 3.64209 23.3525C3.75902 23.4867 3.88282 23.6175 4.01007 23.7448Z" fill="white"/>
<path d="M22.3712 19.8703L22.268 20.0182C21.6283 20.8956 20.8545 21.6664 19.9741 22.3029C18.2133 23.576 16.1293 24.2504 13.9489 24.2504C11.1701 24.2504 8.5633 23.1597 6.61335 21.1778C5.80517 20.3761 5.31682 19.3267 5.31682 18.1878C5.31682 15.8515 7.21519 13.9522 9.55031 13.9522C10.7265 13.9522 11.8201 14.4236 12.6283 15.2769L15.2832 12.7651C13.801 11.1961 11.7101 10.2981 9.55375 10.2981C7.24614 10.2981 5.1655 11.2959 3.72109 12.8821C2.4452 14.2859 1.66797 16.1474 1.66797 18.1878C1.66797 20.2281 2.37642 21.9141 3.64887 23.3489C3.76924 23.4797 3.88961 23.6138 4.01685 23.7412C6.65806 26.4284 10.19 27.9045 13.9558 27.9045C16.9099 27.9045 19.7334 26.9927 22.1236 25.262C23.2241 24.4637 24.1664 23.5554 24.9917 22.4784L22.3815 19.8669L22.3712 19.8703Z" fill="white"/>
<g opacity="0.75">
<mask id="mask0_3976_11161" style="mask-type:luminance" maskUnits="userSpaceOnUse" x="22" y="22" width="8" height="8">
<path d="M29.1769 22.4819H22.3916V29.2637H29.1769V22.4819Z" fill="white"/>
</mask>
<g mask="url(#mask0_3976_11161)">
<path d="M22.3916 25.0591L26.5941 29.2637L29.1769 26.6797C27.7772 25.2793 26.3809 23.8823 24.9812 22.4819C24.6683 22.8879 24.2934 23.3318 23.8463 23.786C23.3408 24.2987 22.8421 24.7184 22.3916 25.0591Z" fill="#FF7800"/>
</g>
</g>
<g opacity="0.75">
<mask id="mask1_3976_11161" style="mask-type:luminance" maskUnits="userSpaceOnUse" x="12" y="12" width="11" height="11">
<path d="M22.3748 12.7686H12.625V22.444H22.3748V12.7686Z" fill="white"/>
</mask>
<g mask="url(#mask1_3976_11161)">
<path d="M22.3713 19.8703C20.0053 17.503 17.6392 15.1358 15.2765 12.7686L12.6216 15.2803C15.0049 17.6682 17.3916 20.0561 19.7748 22.444C20.1772 22.1653 20.6346 21.8109 21.0989 21.3601C21.6388 20.8371 22.0549 20.3176 22.3679 19.8703" fill="#FF7800"/>
</g>
</g>
<path d="M27.4438 10.4255C25.8446 4.28719 20.2939 0 13.9454 0C9.46776 0 5.23426 2.17456 2.61713 5.81833C0.904475 8.19933 0 11.0139 0 13.9523C0 17.4584 1.28965 20.7753 3.63853 23.349C2.36608 21.9142 1.65763 20.125 1.65763 18.1879C1.65763 16.1475 2.43486 14.286 3.71076 12.8822C3.89303 11.1033 4.52581 9.41392 5.57817 7.94816C7.51093 5.25748 10.637 3.65409 13.9454 3.65409C18.6294 3.65409 22.7288 6.81615 23.9084 11.3476C24.1285 12.1941 24.242 13.0715 24.242 13.9523C24.242 16.1509 23.5611 18.2464 22.268 20.0183L22.3711 19.8704L24.9814 22.4819C26.7319 20.0837 27.8908 16.932 27.8908 13.9523C27.8908 12.7583 27.7395 11.5713 27.4403 10.4255" fill="#FF7800"/>
<path d="M4.01007 23.7448C3.88282 23.6175 3.76246 23.4833 3.64209 23.3525C3.75902 23.4867 3.88282 23.6175 4.01007 23.7448Z" fill="#FF7800"/>
<g opacity="0.55">
<mask id="mask2_3976_11161" style="mask-type:luminance" maskUnits="userSpaceOnUse" x="1" y="10" width="24" height="18">
<path d="M24.9849 10.2981H1.66113V27.9079H24.9849V10.2981Z" fill="white"/>
</mask>
<g mask="url(#mask2_3976_11161)">
<path d="M22.3712 19.8703L22.268 20.0182C21.6283 20.8956 20.8545 21.6664 19.9741 22.3029C18.2133 23.576 16.1293 24.2504 13.9489 24.2504C11.1701 24.2504 8.5633 23.1597 6.61335 21.1778C5.80517 20.3761 5.31682 19.3267 5.31682 18.1878C5.31682 15.8515 7.21519 13.9522 9.55031 13.9522C10.7265 13.9522 11.8201 14.4236 12.6283 15.2769L15.2832 12.7651C13.801 11.1961 11.7101 10.2981 9.55375 10.2981C7.24614 10.2981 5.1655 11.2959 3.72109 12.8821C2.4452 14.2859 1.66797 16.1474 1.66797 18.1878C1.66797 20.2281 2.37642 21.9141 3.64887 23.3489C3.76924 23.4797 3.88961 23.6138 4.01685 23.7412C6.65806 26.4284 10.19 27.9045 13.9558 27.9045C16.9099 27.9045 19.7334 26.9927 22.1236 25.262C23.2241 24.4637 24.1664 23.5554 24.9917 22.4784L22.3815 19.8669L22.3712 19.8703Z" fill="#FF7800"/>
</g>
</g>
</g>
<defs>
<clipPath id="clip0_3976_11161">
<rect width="97.9688" height="30" fill="white"/>
</clipPath>
</defs>
</svg>
