<svg xmlns="http://www.w3.org/2000/svg" fill="none" viewBox="0 0 503 76"><g fill="#FFF"><path d="M86.98 22.953s23.258-3.683 26.931-14.428H78.283V0H0l9.644 11.24v11.516s24.332-1.27 33.745 5.899c12.884 11.995-14.491 28.21-14.491 28.21l-4.694 15.603c7.34-7.02 21.33-16.103 46.98-15.665-9.76 3.099-19.575 7.939-27.217 15.665H95.82l-4.883-15.603s-37.581-22.26-3.957-33.91v-.002ZM158.32 50.14c-2.748 2.692-5.468 3.842-9.092 3.842-6.568 0-10.809-4.675-10.809-11.903 0-7.227 4.619-12.043 11.23-12.043 3.42 0 6.105 1.13 8.453 3.554l.288.295 4.5-6.07-.217-.21c-3.449-3.387-7.921-5.104-13.298-5.104-11.23 0-19.375 8.201-19.375 19.508 0 11.307 7.529 19.579 18.737 19.579 5.727 0 10.221-1.802 14.146-5.664l.224-.218-4.5-5.839-.28.274h-.007Zm37.103-7.233c0 6.981-3.288 10.991-9.008 10.991-5.285 0-7.963-3.225-7.963-9.582V23.188h-8.559v21.787c0 10.115 4.998 16.15 13.368 16.15 5.082 0 9.007-1.949 11.685-5.79l.238 4.886H203V23.188h-7.577v19.719Zm27.107-13.326-.183-6.4h-8.264v37.033h8.559V42.325c0-3.68 1.058-6.54 3.147-8.489 3.127-2.923 7.753-3.084 10.227-2.923l.372.028v-8.314h-.35c-6.113 0-10.648 2.342-13.508 6.954Zm35.021 8.783c-4.234-.946-7.894-1.76-7.894-4.738 0-2.559 2.468-4.087 6.597-4.087 3.743 0 6.883 1.283 9.582 3.911l.28.274 4.438-5.63-.232-.216c-3.715-3.569-8.524-5.377-14.279-5.377-8.678 0-14.741 4.746-14.741 11.545 0 8.335 7.136 9.835 12.87 11.048 4.395.925 8.187 1.724 8.187 5.082 0 3.736-4.136 4.297-6.596 4.297-4.269 0-7.634-1.465-10.914-4.76l-.267-.266-4.815 5.53.238.232c3.014 2.965 7.535 6.372 15.828 6.372 8.762 0 14.882-4.893 14.882-11.903 0-8.384-7.297-10.01-13.164-11.32v.006Zm37.25-15.828c-10.858 0-18.738 8.265-18.738 19.649 0 11.98 7.494 19.718 19.088 19.718 6.624 0 11.566-2.026 15.562-6.379l.203-.224-4.507-5.46-.273.266c-3.106 3.049-6.316 4.409-10.424 4.409-6.449 0-10.41-3.547-11.188-10.003h27.892v-.35c0-.344.014-.673.035-1.003.021-.343.035-.68.035-1.037 0-11.896-6.939-19.579-17.685-19.579v-.007Zm-10.108 15.38c1.079-5.405 4.984-8.875 10.038-8.875s8.474 3.232 9.218 8.875h-19.256Zm45.963-17.518c0-4.381 2.173-6.898 5.965-6.898 2.082 0 3.856.638 5.58 2.02l.316.252 3.743-6.457-.26-.182c-2.944-2.103-6.203-3.126-9.968-3.126-8.727 0-13.935 5.524-13.935 14.77v2.41h-5.944l-1.942 7.578h7.886V61.21h8.559V30.765h12.765v-7.577h-12.765v-2.79Zm33.661 1.893c-9.694 0-19.508 6.771-19.508 19.719 0 12.947 9.779 19.648 19.438 19.648 9.66 0 19.438-6.75 19.438-19.648s-9.743-19.719-19.368-19.719Zm-.07 31.972c-5.475 0-11.019-4.213-11.019-12.253s5.579-12.324 11.089-12.324c6.449 0 10.949 5.04 10.949 12.254 0 8.089-5.544 12.323-11.019 12.323Zm36.023-24.682-.182-6.4h-8.265v37.033h8.559V42.325c0-3.68 1.059-6.54 3.148-8.489 3.126-2.923 7.746-3.084 10.227-2.923l.372.028v-8.314h-.351c-6.112 0-10.648 2.342-13.501 6.954h-.007Zm46.721-1.416c-2.937-3.911-7.27-5.972-12.604-5.972-10.29 0-18.043 8.292-18.043 19.298 0 11.005 7.36 19.158 17.896 19.158 5.208 0 9.631-2.124 12.575-6.008v3.61c0 6.919-3.778 10.284-11.545 10.284-3.371 0-6.687-.75-9.835-2.222l-.343-.162-2.671 7.066.295.14c3.778 1.774 7.935 2.643 12.701 2.643 12.87 0 19.957-6.456 19.957-18.17V23.189h-8.25l-.126 4.984-.007-.007Zm-10.929 25.18c-5.909 0-10.038-4.865-10.038-11.833s4.36-11.692 10.599-11.692 10.108 4.591 10.108 11.692c0 7.1-4.29 11.832-10.669 11.832Zm45.992-30.809c-10.858 0-18.737 8.265-18.737 19.649 0 11.98 7.493 19.718 19.087 19.718 6.625 0 11.574-2.026 15.562-6.379l.203-.224-4.507-5.46-.273.266c-3.106 3.049-6.316 4.409-10.424 4.409-6.449 0-10.409-3.547-11.187-10.003h27.892v-.35c0-.344.014-.673.035-1.003.021-.343.035-.68.035-1.037 0-11.896-6.94-19.579-17.686-19.579v-.007Zm-10.108 15.38c1.079-5.405 4.977-8.875 10.038-8.875s8.475 3.232 9.218 8.875h-19.256Z"/></g></svg>