<svg xmlns="http://www.w3.org/2000/svg" fill="none" viewBox="0 0 119 48">
    <path fill="#69D3A7" d="M.854023 30.3588C.288116 28.2979 0 26.1573 0 24.0013 0 14.1592 6.18126 5.16 15.3824 1.61121l1.2064 3.12222C8.66867 7.78884 3.34915 15.5314 3.34915 24.0013c0 1.8579.24693 3.6978.7331 5.4709l-3.228227.8866Z"/>
    <path fill="url(#a)" d="M42.4508 14.4933C38.8702 7.61925 31.822 3.34836 24.0614 3.34836c-2.7498 0-5.4224.52936-7.9381 1.5701l-1.2836-3.09139C17.7644.616732 20.8666 0 24.0614 0c9.0159 0 17.201 4.95958 21.3604 12.9463l-2.971 1.547Z"/>
    <path fill="#1B1E2E" d="M16.877 19.0494c1.942 0 3.524 1.0356 4.3369 2.8421l.0643.1414 3.2616-1.1076-.0694-.167c-1.263-3.076-4.1723-4.9879-7.5934-4.9879-2.4052 0-4.3601.771-5.9755 2.3539-1.60516 1.5727-2.41798 3.5514-2.41798 5.8821 0 2.3102.81282 4.2786 2.41798 5.8513 1.6154 1.583 3.5703 2.3539 5.9755 2.3539 3.4211 0 6.3304-1.9119 7.5934-4.9853l.0694-.167-3.2668-1.1102-.0617.1465c-.728 1.7757-2.3485 2.837-4.3343 2.837-1.3531 0-2.4952-.4728-3.4007-1.4031-.9157-.9431-1.3787-2.1277-1.3787-3.5205 0-1.4031.4527-2.5646 1.3787-3.5514.9029-.9353 2.0476-1.4082 3.4007-1.4082Zm40.1922-.9225c-1.5048-1.5624-3.3826-2.3565-5.5845-2.3565-2.1865 0-3.9871.7787-5.3555 2.3128v-2.0095h-3.5241v21.8966h3.5241v-8.0715c1.3684 1.5342 3.1665 2.3128 5.3555 2.3128 2.2019 0 4.0822-.7941 5.587-2.359 1.4817-1.5727 2.2302-3.5386 2.2302-5.8462-.0025-2.3307-.7511-4.3068-2.2327-5.8795Zm-2.7627 9.3975c-.9029.9328-2.0475 1.4031-3.398 1.4031-1.371 0-2.4823-.46-3.4006-1.4031-.9157-.9431-1.3787-2.1277-1.3787-3.5205 0-1.4339.4501-2.5955 1.3787-3.5514.9158-.9457 2.027-1.4031 3.4006-1.4031 1.353 0 2.4951.4729 3.398 1.4031.908.9354 1.3479 2.0969 1.3479 3.5514 0 1.4339-.4424 2.5851-1.3479 3.5205Zm10.7316-9.5645v-1.8862H61.514v15.8321h3.5241v-8.9324c0-1.4313.5762-2.526 1.7131-3.2533 1.1293-.7221 2.4849-.8557 4.1441-.4034l.2134.0591v-3.3869l-.1311-.0309c-2.2277-.5319-4.463.2339-5.9395 2.0019Zm15.2126-2.1895c-2.3228 0-4.2932.7915-5.8571 2.3539-1.5846 1.583-2.3871 3.5617-2.3871 5.8821 0 2.3102.8128 4.2786 2.4179 5.8513 1.6155 1.583 3.5704 2.3539 5.9755 2.3539 3.2591 0 6.0604-1.6549 7.4957-4.4277l.0823-.1593-2.9813-1.3208-.072.1413c-.8643 1.6703-2.5234 2.6674-4.4321 2.6674-2.4797 0-4.3781-1.5136-4.8925-3.8752h12.7843l.0155-.1516c.2778-2.5543-.3807-4.7694-1.9524-6.5862-1.564-1.8117-3.6501-2.7291-6.1967-2.7291Zm-4.5453 6.6402c.6251-2.1611 2.3897-3.5436 4.5453-3.5436 2.2148 0 3.9794 1.3825 4.5504 3.5436h-9.0957Zm22.1092.0848c-1.9215-.3597-3.5806-.6732-3.5806-2.0095 0-1.0613 1.1292-1.8014 2.7446-1.8014 1.7826 0 2.7601.7658 2.989 2.341l.0258.1774 3.5236-.7375-.025-.1594c-.474-2.7984-2.969-4.5381-6.5108-4.5381-1.7775 0-3.2823.46-4.4707 1.3671-1.2141.902-1.8289 2.0789-1.8289 3.5025 0 2.0609 1.3067 3.6079 3.5009 4.1373.5685.1336 1.1704.2415 1.7518.3495 2.1838.3983 4.2467.776 4.2467 2.2459 0 1.1333-1.3169 1.9222-3.1998 1.9222-1.9164 0-2.9736-.7658-3.2334-2.3436l-.0283-.1748-3.5215.7376.0283.1618c.5119 2.8396 3.0353 4.5356 6.7523 4.5356 1.8881 0 3.5064-.4702 4.8024-1.3953 1.297-.9149 1.952-2.0944 1.952-3.5052 0-3.7004-3.279-4.3171-5.9184-4.8131Zm15.2664 0c-1.921-.3597-3.58-.6732-3.58-2.0095 0-1.0613 1.129-1.8014 2.744-1.8014 1.783 0 2.76.7658 2.989 2.341l.026.1774 3.524-.7375-.026-.1594c-.473-2.7984-2.968-4.5381-6.51-4.5381-1.778 0-3.283.46-4.471 1.3671-1.214.902-1.829 2.0789-1.829 3.5025 0 2.0609 1.307 3.6079 3.501 4.1373.569.1336 1.17.2415 1.752.3495 2.184.3983 4.247.776 4.247 2.2459 0 1.1333-1.317 1.9222-3.2 1.9222-1.917 0-2.974-.7658-3.234-2.3436l-.028-.1748-3.521.7376.028.1618c.512 2.8396 3.035 4.5356 6.752 4.5356 1.888 0 3.506-.4702 4.803-1.3953 1.296-.9149 1.952-2.0944 1.952-3.5052 0-3.7004-3.28-4.3171-5.919-4.8131Z"/>
    <path fill="#1B1E2E" d="M37.3061 16.0737 32.658 27.8353l-4.679-11.7616h-3.8276l6.5619 16.0531-4.6687 11.3222 3.3466.6656 11.5316-28.0409h-3.6167Z"/>
    <path fill="url(#b)" d="m26.6434 41.9894-.8154 1.9736c-.1621.3906-.5325.6552-.9492.6732-.2752.0103-.553.018-.8334.018C14.4481 44.6491 5.95693 37.883 3.85278 28.56l-3.266842.7375C1.76663 34.5269 4.72994 39.2732 8.93051 42.6653 13.18 46.0958 18.5329 47.9897 24.0094 48h.0488c.3216 0 .6405-.0077.9595-.0205 1.7183-.072 3.254-1.1487 3.9099-2.7445l1.0649-2.58-3.3491-.6656Z"/>
    <defs>
        <linearGradient id="a" x1="21.5577" x2="39.8226" y1="-1.54942" y2="17.9723" gradientUnits="userSpaceOnUse">
            <stop offset=".0939" stop-color="#58D09E"/>
            <stop offset=".9883" stop-color="#58D09E" stop-opacity="0"/>
        </linearGradient>
        <linearGradient id="b" x1="-.256416" x2="34.638" y1="34.9215" y2="44.2092" gradientUnits="userSpaceOnUse">
            <stop offset=".0774" stop-color="#58D09E"/>
            <stop offset=".7617" stop-color="#1B1E2E"/>
        </linearGradient>
    </defs>
</svg>