<svg xmlns="http://www.w3.org/2000/svg" fill="none" viewBox="100 100 600 600"><path fill="#5420DD" d="m337.145 540.64-.045-.023a153.742 153.742 0 0 1-90.64-130.536 10.52 10.52 0 0 0-10.505-9.993l-9.747-.104a45.505 45.505 0 0 1-31.664-13.314l-7.026-7.026a10.522 10.522 0 0 0-17.945 6.887v.019a235.887 235.887 0 0 0-.385 13.53c0 91.543 53.269 170.656 130.494 207.992a226.232 226.232 0 0 0 6.254 2.913l.718.323a10.529 10.529 0 0 0 11.558-2.494l22.516-22.52a8.129 8.129 0 0 0 2.379-5.742v-30.457a10.521 10.521 0 0 0-5.962-9.455ZM438.606 400.26a38.354 38.354 0 0 0-10.712-26.798l-1.154-1.153a.833.833 0 0 0-.084-.084l-29.142-29.142-54.426-54.426V247.32a47.568 47.568 0 0 0-13.933-33.636l-54.84-54.84a16.505 16.505 0 0 0-28.177 11.673v75.623h-75.619a16.501 16.501 0 0 0-16.266 19.316 16.508 16.508 0 0 0 4.208 8.461l55.248 55.248a47.568 47.568 0 0 0 33.635 13.933h41.346l54.414 54.41 29.096 29.096.054.058 1.306 1.307.058.053a38.34 38.34 0 0 0 26.659 10.574c21.021-.088 38.244-17.296 38.329-38.336Z"/><path fill="#5420DD" d="M629.635 374.407a229.47 229.47 0 0 0-15.578-61.405c-34.381-84.367-117.23-143.831-213.942-143.831-4.459 0-8.885.128-13.28.384h-.08a10.527 10.527 0 0 0-9.153 6.623 10.517 10.517 0 0 0 2.119 11.096l7.076 7.076a45.471 45.471 0 0 1 13.318 32.152v9.724a10.512 10.512 0 0 0 9.859 10.224c.05.004.1.004.15 0a153.464 153.464 0 0 1 35.211 6.431 154.354 154.354 0 0 1 97.854 90.228 149.303 149.303 0 0 1 4.143 11.769 151.678 151.678 0 0 1 4.716 20.121 154.767 154.767 0 0 1 2.037 25.103 154.283 154.283 0 0 1-3.904 34.592 153.211 153.211 0 0 1-17.423 43.629 154.73 154.73 0 0 1-54.422 54.44 153.292 153.292 0 0 1-43.629 17.42 154.433 154.433 0 0 1-24.599 3.586 10.528 10.528 0 0 0-9.959 10.508v35.68a9.605 9.605 0 0 1-2.809 6.784l-6.073 6.077a.61.61 0 0 0-.088.088l-.358.358a.914.914 0 0 0-.088.088l-.081.088-4.931 4.932-.085.081-.323.322-.08.085a7.168 7.168 0 0 0-1.326 7.539 7.172 7.172 0 0 0 6.234 4.441h.096a232.767 232.767 0 0 0 45.9-2.575 229.877 229.877 0 0 0 97.82-39.912 231.61 231.61 0 0 0 76.71-93.18 229.083 229.083 0 0 0 17.681-59.318 232.502 232.502 0 0 0 2.748-35.745 233.581 233.581 0 0 0-1.461-25.703Zm-45.689-31.294.031-.031v.031h-.031Z"/></svg>