<svg xmlns="http://www.w3.org/2000/svg" width="1081" height="350" fill="none" viewBox="0 0 1081 350"><path fill="#fff" d="m134.016 282.894-.034-.017a112.48 112.48 0 0 1-66.312-95.501 7.697 7.697 0 0 0-7.685-7.311l-7.131-.076a33.284 33.284 0 0 1-23.165-9.741l-5.14-5.14a7.702 7.702 0 0 0-8.2-1.74 7.7 7.7 0 0 0-4.93 6.779v.014a173.142 173.142 0 0 0-.281 9.898c0 66.973 38.971 124.852 95.469 152.168 1.513.733 3.038 1.443 4.576 2.131l.525.237a7.712 7.712 0 0 0 8.195-1.564c.09-.087.174-.171.261-.261l16.473-16.476a5.95 5.95 0 0 0 1.74-4.201v-22.282a7.707 7.707 0 0 0-1.186-4.086 7.706 7.706 0 0 0-3.175-2.831ZM208.244 180.191a28.06 28.06 0 0 0-7.837-19.605l-.844-.844a.595.595 0 0 0-.062-.061l-21.32-21.321-39.818-39.818V68.3c0-9.23-3.667-18.082-10.193-24.608L88.048 3.571a12.075 12.075 0 0 0-20.614 8.54v55.325H12.11A12.075 12.075 0 0 0 3.29 87.76l40.42 40.419a34.798 34.798 0 0 0 24.607 10.193h30.248l39.809 39.807 21.287 21.286.04.043.955.956.043.039a28.05 28.05 0 0 0 19.503 7.736c15.379-.065 27.98-12.654 28.042-28.047Z"/><path fill="#fff" d="M348.002 161.278a167.916 167.916 0 0 0-11.397-44.924C311.452 54.631 250.839 11.127 180.084 11.127c-3.262 0-6.5.093-9.715.28h-.059a7.697 7.697 0 0 0-7.103 9.13 7.706 7.706 0 0 0 1.957 3.834l5.177 5.177a33.263 33.263 0 0 1 9.743 23.522v7.114a7.691 7.691 0 0 0 7.213 7.48.721.721 0 0 0 .11 0 112.277 112.277 0 0 1 25.76 4.705 112.925 112.925 0 0 1 71.591 66.011 109.57 109.57 0 0 1 3.031 8.61 111.023 111.023 0 0 1 3.45 14.721 113.207 113.207 0 0 1 1.49 18.365 112.846 112.846 0 0 1-2.856 25.308 112.075 112.075 0 0 1-12.747 31.918 113.196 113.196 0 0 1-39.815 39.829 112.155 112.155 0 0 1-31.919 12.744 112.886 112.886 0 0 1-17.996 2.624 7.7 7.7 0 0 0-7.286 7.688v26.103a7.035 7.035 0 0 1-2.056 4.964l-4.443 4.445a.491.491 0 0 0-.064.065l-.262.262a.655.655 0 0 0-.065.064l-.059.065-3.607 3.608-.062.059-.237.236-.059.062a5.25 5.25 0 0 0 .841 7.799c.807.575 1.761.91 2.75.966h.071c2.405.103 4.822.154 7.252.154 8.815.003 17.618-.679 26.328-2.038a168.188 168.188 0 0 0 71.565-29.2 169.451 169.451 0 0 0 56.122-68.171 167.622 167.622 0 0 0 12.935-43.397 170.117 170.117 0 0 0 2.01-26.151 170.964 170.964 0 0 0-1.068-18.804Zm-33.426-22.895.022-.023v.023h-.022ZM512.561 310c-18.851 0-35.299-4.779-49.342-14.337-14.044-9.558-24.925-22.556-32.642-38.996C422.859 240.228 419 221.686 419 201.041c0-20.9 3.859-39.506 11.577-55.818 7.844-16.439 18.914-29.374 33.211-38.805 14.297-9.558 31.124-14.336 50.481-14.336 19.484 0 35.805 4.779 48.963 14.336 13.285 9.431 23.343 22.366 30.175 38.805 6.832 16.44 10.248 35.045 10.248 55.818 0 20.517-3.416 39.059-10.248 55.626-6.832 16.44-17.017 29.438-30.554 38.996C549.315 305.221 532.551 310 512.561 310Zm7.022-41.29c12.272 0 22.141-2.803 29.606-8.411 7.591-5.734 13.094-13.699 16.51-23.894 3.543-10.195 5.314-21.983 5.314-35.364 0-13.509-1.771-25.297-5.314-35.364-3.416-10.195-8.793-18.096-16.131-23.704-7.338-5.734-16.827-8.602-28.467-8.602-12.272 0-22.394 3.059-30.364 9.176-7.971 5.99-13.854 14.146-17.65 24.468-3.795 10.195-5.693 21.537-5.693 34.026 0 12.616 1.834 24.086 5.503 34.408 3.796 10.195 9.553 18.287 17.27 24.277 7.718 5.989 17.523 8.984 29.416 8.984Zm51.43 35.555V159.369h-5.693V29h46.116v275.265h-40.423ZM699.186 310c-14.803 0-27.329-2.804-37.577-8.411-10.248-5.735-18.029-13.317-23.343-22.747-5.187-9.431-7.781-19.817-7.781-31.159 0-9.94 1.645-18.861 4.935-26.762 3.289-8.028 8.35-14.91 15.182-20.645 6.832-5.862 15.688-10.641 26.569-14.337 8.224-2.676 17.839-5.097 28.847-7.263 11.133-2.167 23.153-4.142 36.058-5.926a6889.45 6889.45 0 0 0 40.802-6.117l-16.321 9.366c.127-14.273-3.036-24.786-9.489-31.54-6.452-6.755-17.333-10.132-32.642-10.132-9.236 0-18.155 2.167-26.759 6.5-8.603 4.332-14.613 11.788-18.029 22.365l-41.751-13.19c5.061-17.459 14.676-31.477 28.846-42.054 14.297-10.578 33.528-15.866 57.693-15.866 18.219 0 34.224 2.994 48.014 8.984 13.918 5.99 24.229 15.802 30.934 29.438 3.669 7.264 5.884 14.719 6.643 22.365.759 7.519 1.138 15.739 1.138 24.66v126.736h-40.043v-44.73l6.642 7.264c-9.236 14.91-20.053 25.869-32.452 32.879C733.029 306.559 717.657 310 699.186 310Zm9.109-36.702c10.375 0 19.231-1.848 26.569-5.544 7.338-3.695 13.158-8.219 17.46-13.572 4.428-5.352 7.401-10.386 8.919-15.101 2.404-5.862 3.733-12.553 3.986-20.071.379-7.647.569-13.827.569-18.543l14.044 4.206c-13.791 2.166-25.62 4.078-35.489 5.734-9.868 1.657-18.345 3.25-25.43 4.779-7.086 1.402-13.348 2.995-18.789 4.779-5.313 1.912-9.805 4.142-13.474 6.691-3.669 2.549-6.516 5.48-8.54 8.793-1.898 3.313-2.847 7.2-2.847 11.661 0 5.097 1.266 9.621 3.796 13.572 2.53 3.823 6.199 6.881 11.007 9.175 4.934 2.294 11.007 3.441 18.219 3.441ZM837.79 304.265V97.816h40.423v50.274l-4.935-6.499c2.531-6.881 5.884-13.126 10.059-18.733 4.301-5.735 9.425-10.45 15.372-14.146 5.061-3.441 10.628-6.117 16.7-8.028a74.621 74.621 0 0 1 18.978-3.632c6.453-.51 12.716-.255 18.789.764v43.011c-6.073-1.785-13.095-2.358-21.066-1.721-7.844.637-14.929 2.867-21.255 6.691-6.326 3.44-11.514 7.837-15.562 13.189-3.922 5.353-6.832 11.47-8.73 18.351-1.898 6.755-2.847 14.082-2.847 21.983v104.945H837.79ZM1081 305.377c-13.54 2.548-26.82 3.632-39.85 3.249-12.91-.255-24.49-2.612-34.73-7.073-10.251-4.587-18.032-11.788-23.346-21.6-4.681-8.921-7.149-18.033-7.402-27.336-.253-9.303-.379-19.816-.379-31.54V41.581h45.547V218.4c0 8.284.06 15.548.19 21.792.25 6.245 1.58 11.342 3.99 15.293 4.55 7.646 11.82 11.915 21.82 12.807 9.99.892 21.38.383 34.16-1.529v38.614ZM975.293 135.056V98.928H1081v36.128H975.293Z"/></svg>