<?xml version="1.0" encoding="UTF-8"?>
<svg id="AW" xmlns="http://www.w3.org/2000/svg" viewBox="0 0 4633.76 1091.09">
  <defs>
    <style>
      .cls-1 {
        fill: #fff;
      }
    </style>
  </defs>
  <g>
    <path class="cls-1" d="M1503.66,899.63c-2.75-27.56-4.69-68.41-4.69-104.87v-409.18c0-9.54-7.73-17.27-17.27-17.27h-81.49c-9.53,0-17.26,7.73-17.26,17.27v134.82c0,14.2-16.11,22.24-27.56,13.84-24.49-17.97-56.62-29.53-86.9-29.53-96.42,0-163.84,87.02-163.84,210.09s67.42,210.09,163.84,210.09c37.51,0,75.02-13.18,100.88-34.47,10.61-8.74,26.65-2.44,28.25,11.22.07.58.13,1.16.2,1.72,1.01,8.71,8.39,15.26,17.15,15.26h71.51c10.23,0,18.19-8.82,17.18-18.99ZM1382.95,725.78c0,68.98-30.58,109.75-76.83,109.75-51.74,0-85.45-45.47-85.45-120.73s33.71-118.37,85.45-118.37c47.04,0,76.83,39.2,76.83,105.83v23.52Z"/>
    <path class="cls-1" d="M1876.63,899.29c-3.2-25.55-4.2-52.51-4.2-104.53v-134.05c0-94.07-68.2-156-165.41-156-81.67,0-145.64,41.11-167.48,98.89-3.88,10.28,2.98,21.48,13.86,22.99l79.65,11.07c7.44,1.03,14.48-3.09,17.69-9.88,10.17-21.56,31.87-31.35,54.71-31.35,28.22,0,50.17,20.38,50.17,49.39v3.5c0,8.74-6.52,16.1-15.2,17.14l-49.86,6.01c-108.18,11.76-175.6,51.74-175.6,128.56,0,70.56,53.31,124.65,136.4,124.65,34.47,0,65.56-11.6,92.12-31.38,9.99-7.44,24.35-1.94,27.03,10.23.04.18.08.37.12.55,1.74,7.92,8.75,13.54,16.86,13.54h72.01c10.36,0,18.42-9.05,17.13-19.33ZM1755.62,751.65c0,53.31-30.57,83.88-76.04,83.88-30.57,0-48.6-18.82-48.6-43.9,0-29.79,25.87-48.6,65.85-53.31l39.47-4.74c10.28-1.23,19.32,6.79,19.32,17.15v.92Z"/>
    <path class="cls-1" d="M2118.01,834.1c-12.47,2.25-20.19,3-28.29,3-33.71,0-47.03-20.39-47.03-50.96v-170.09c0-9.54,7.73-17.27,17.26-17.27h46.22c9.53,0,17.26-7.73,17.26-17.26v-51.7c0-9.54-7.73-17.27-17.26-17.27h-46.22c-9.53,0-17.26-7.73-17.26-17.26v-72.87c0-9.54-7.73-17.27-17.27-17.27h-53.94c-7.54,0-14.21,4.9-16.47,12.1l-26.78,85.34c-1.92,6.13-7.09,10.68-13.41,11.82l-31.96,5.77c-8.22,1.48-14.2,8.64-14.2,16.99v41.22c0,9.53,7.73,17.26,17.26,17.26h21.92c9.53,0,17.26,7.73,17.26,17.26v174.8c0,75.26,49.39,138.75,148.16,138.75,15.3,0,34.57-1.76,50.53-4.3,8.38-1.34,14.54-8.57,14.54-17.06v-54.01c0-10.75-9.74-18.9-20.32-16.99Z"/>
    <path class="cls-1" d="M2504,899.29c-3.21-25.55-4.21-52.51-4.21-104.53v-134.05c0-94.07-68.2-156-165.41-156-81.67,0-145.64,41.11-167.48,98.89-3.88,10.28,2.99,21.48,13.87,22.99l79.64,11.07c7.45,1.03,14.48-3.09,17.69-9.88,10.17-21.56,31.87-31.35,54.71-31.35,28.23,0,50.18,20.38,50.18,49.39v3.5c0,8.74-6.53,16.1-15.2,17.14l-49.87,6.01c-108.18,11.76-175.6,51.74-175.6,128.56,0,70.56,53.31,124.65,136.4,124.65,34.47,0,65.56-11.6,92.12-31.38,9.99-7.44,24.35-1.94,27.03,10.23.04.18.08.37.12.55,1.74,7.92,8.76,13.54,16.86,13.54h72.01c10.36,0,18.43-9.05,17.14-19.33ZM2382.99,751.65c0,53.31-30.58,83.88-76.05,83.88-30.57,0-48.6-18.82-48.6-43.9,0-29.79,25.87-48.6,65.85-53.31l39.47-4.74c10.28-1.23,19.33,6.79,19.33,17.15v.92Z"/>
    <path class="cls-1" d="M2764.43,504.71c-30.72,0-62.56,11.5-86.85,29.38-11.45,8.43-27.6.42-27.6-13.81v-134.7c0-9.54-7.73-17.27-17.26-17.27h-81.5c-9.53,0-17.26,7.73-17.26,17.27v409.18c0,36.35-1.94,77.06-5.05,104.62-1.16,10.26,6.83,19.24,17.15,19.24h71.69c8.64,0,15.95-6.38,17.1-14.94.1-.73.2-1.46.3-2.21,1.79-13.51,17.71-19.57,28.24-10.91,25.78,21.21,63.62,34.33,101.04,34.33,95.64,0,164.63-87.01,164.63-210.09s-68.99-210.09-164.63-210.09ZM2728.37,835.53c-47.82,0-78.39-40.77-78.39-109.75v-23.52c0-66.63,30.57-105.83,78.39-105.83,50.17,0,83.1,46.25,83.1,118.37s-32.93,120.73-83.1,120.73Z"/>
    <path class="cls-1" d="M3316.01,899.06c-3.58-25.48-4.58-52.44-4.58-104.3v-264.94c0-9.54-7.73-17.27-17.26-17.27h-81.49c-9.54,0-17.27,7.73-17.27,17.27v210.85c0,61.15-28.22,93.29-69.77,93.29-38.41,0-60.36-27.44-60.36-79.18v-224.96c0-9.54-7.73-17.27-17.26-17.27h-83.06c-9.54,0-17.27,7.73-17.27,17.27v240.64c0,93.29,56.45,153.65,138.76,153.65,35.57,0,66.96-11.13,92.41-30.17,9.83-7.37,23.97-2.44,27.05,9.45.22.85.45,1.71.68,2.57,2.02,7.49,8.88,12.66,16.64,12.66h75.67c10.45,0,18.56-9.21,17.11-19.56Z"/>
    <path class="cls-1" d="M3731.31,899.63c-2.75-27.56-4.7-68.41-4.7-104.87v-409.18c0-9.54-7.73-17.27-17.26-17.27h-81.49c-9.54,0-17.27,7.73-17.27,17.27v134.82c0,14.2-16.11,22.24-27.55,13.84-24.49-17.97-56.63-29.53-86.9-29.53-96.42,0-163.84,87.02-163.84,210.09s67.42,210.09,163.84,210.09c37.51,0,75.01-13.18,100.87-34.47,10.62-8.74,26.66-2.44,28.26,11.22.07.58.13,1.16.2,1.72,1.01,8.71,8.38,15.26,17.14,15.26h71.52c10.22,0,18.19-8.82,17.18-18.99ZM3610.59,725.78c0,68.98-30.57,109.75-76.82,109.75-51.74,0-85.45-45.47-85.45-120.73s33.71-118.37,85.45-118.37c47.03,0,76.82,39.2,76.82,105.83v23.52Z"/>
    <path class="cls-1" d="M4140.01,899.63c-2.75-27.56-4.69-68.41-4.69-104.87v-409.18c0-9.54-7.73-17.27-17.27-17.27h-81.49c-9.53,0-17.26,7.73-17.26,17.27v134.82c0,14.2-16.11,22.24-27.56,13.84-24.49-17.97-56.62-29.53-86.9-29.53-96.42,0-163.84,87.02-163.84,210.09s67.42,210.09,163.84,210.09c37.51,0,75.02-13.18,100.88-34.47,10.61-8.74,26.65-2.44,28.25,11.22.07.58.13,1.16.2,1.72,1.01,8.71,8.39,15.26,17.15,15.26h71.51c10.23,0,18.19-8.82,17.18-18.99ZM4019.3,725.78c0,68.98-30.58,109.75-76.83,109.75-51.74,0-85.45-45.47-85.45-120.73s33.71-118.37,85.45-118.37c47.04,0,76.83,39.2,76.83,105.83v23.52Z"/>
    <path class="cls-1" d="M4545.39,512.55h-81.87c-7.25,0-13.73,4.53-16.21,11.34l-74.76,204.51c-5.5,15.03-26.72,15.14-32.37.17l-77.36-204.85c-2.54-6.72-8.97-11.17-16.15-11.17h-81.69c-12.22,0-20.57,12.36-16.02,23.7l153.54,382.37h.79l-4.53,13.6c-.12.34-.24.68-.38,1.02-14.06,35.09-30.55,68.48-68.78,68.48-12.83,0-25.65-1.58-54.8-9.88-11.03-3.14-22.03,5.12-22.03,16.6v56.8c0,7.74,5.14,14.53,12.59,16.63,21.28,5.99,47.4,9.21,68.16,9.21,104.26,0,137.97-66.63,163.84-131.69l164.13-423.33c4.39-11.32-3.96-23.51-16.1-23.51Z"/>
  </g>
  <path class="cls-1" d="M362.84,129.1c-2.1-3.17-5.65-5.09-9.44-5.36-15.67-1.04-31.2,12.12-40.27,23.74-9.16,11.74-16.5,25.66-23.64,38.71-7.77,14.21-14.73,28.91-20.04,44.23-17.09,49.23-18.74,108.42,8.53,154.6,1.86,3.14,6.68,1.73,6.55-1.92-.07-9.24-.1-18.5.54-27.72,1.54-23.19,4.29-46.58,8.87-69.37,1.88-9.32,4.27-18.55,7.12-27.62,7.25-23.09,17.46-45.15,29.52-66.1,6.05-10.52,12.56-20.76,19.42-30.77,3.43-5.02,7.05-9.9,10.54-14.88,3.62-5.16,6.63-11,2.3-17.54ZM362.84,129.1c-2.1-3.17-5.65-5.09-9.44-5.36-15.67-1.04-31.2,12.12-40.27,23.74-9.16,11.74-16.5,25.66-23.64,38.71-7.77,14.21-14.73,28.91-20.04,44.23-17.09,49.23-18.74,108.42,8.53,154.6,1.86,3.14,6.68,1.73,6.55-1.92-.07-9.24-.1-18.5.54-27.72,1.54-23.19,4.29-46.58,8.87-69.37,1.88-9.32,4.27-18.55,7.12-27.62,7.25-23.09,17.46-45.15,29.52-66.1,6.05-10.52,12.56-20.76,19.42-30.77,3.43-5.02,7.05-9.9,10.54-14.88,3.62-5.16,6.63-11,2.3-17.54ZM985.62,712.96c-12.3-19.06-31.57-41-72.69-41-6.45,0-13.22,1.45-19.4-1.12-6.25-2.6-8.14-8.41-8.46-14.57-.37-7.27-.1-14.66-.57-21.95-1.77-27.44-10.22-54.13-23.32-78.22-14.66-26.96-34.96-50.73-58.52-70.32-23.9-19.88-51.06-35.16-80.38-45.41-35.11-12.27-72.84-15.68-109.84-15.19-4.53.06-8-3.99-7.32-8.46.8-5.18,1.59-9.96,2.53-13.8,8.67-35.12,13.65-62.56,16.16-88.97,5.33-56.05-1.48-105.89-20.25-148.14-23-51.76-65.77-91.59-114.42-106.53-6.3-1.94-12.63-3.12-18.76-4.27-7.68-1.44-14.31-2.1-20.24-7.62-4.71-4.38-8.11-9.95-12.61-14.52-5.89-5.96-12.11-12.69-19.27-17.14C401.03,5.03,380.13,0,359.98,0c-25.74,0-52.1,8.03-76.25,23.22-25.31,15.92-47.98,39.28-69.32,71.43-48.82,73.55-69.68,160.6-62.19,259.17.41,5.38-2.41,10.49-7.25,12.87C35.85,420.43-24.14,549.33,9.2,667.54c24.08,85.38,89.58,140.95,167.25,177.15,10.05,4.69,21.59,7.54,31.19,12.7,3.68,1.98,7.1,5.13,8.54,9.14,1.52,4.24.5,8.89-.59,13.03-6.28,23.87-11.72,44.17.56,67.29,9.96,18.75,27.55,33.64,46.92,41.97,6.65,2.86,16.18,5.13,25.77,6.88,18.49,3.36,37.3,4.67,56.09,4.21,66.71-1.62,133.31-4.44,199.78-8.46,27.57-1.67,55-5.49,81.88-11.86,22.35-5.3,42.81-11.81,61.76-19.62,26.18-10.8,50.68-33.03,80.21-32.89,25.94.13,48.23,13.58,74.76,13.58,41.96,0,82.07-20.94,110.38-51.34,23.2-24.9,63.51-108,31.92-176.36ZM240.43,784.96c-24.61,1.16-49.53-2.92-72.24-12.56-61.88-26.27-104.73-90.39-109.09-157.47-4.36-67.08,28.25-134.58,81.2-176,12.58-9.84,26.22-18.3,40.61-25.23,10.18-4.9,27.25-7.71,33.36-18.27,6-10.37-.53-22.53-2.78-32.93-3.19-14.73-4.19-30.09-4.49-45.13-.54-26.87,2.38-53.8,8.54-79.95,12.3-52.29,37.6-101.67,74.15-141.17,15.55-16.81,34-32.44,56.37-37.32,20.49-4.48,39.92,2.47,53.66,17.75,10.74,11.94,15.48,29.12,32.73,33.17,9.61,2.25,19.64,1.72,29.44,2.87,41.58,4.9,74.46,40.27,88.96,79.55,11.51,31.17,16.18,64.41,15.77,98.07-.84,67.79-22.29,137.33-50.03,195.35-6.01,12.58-16.21,26.97-30.22,24.09-6.96-1.43-12.37-6.91-14.63-13.65-4.33-12.92.5-25.39,4.86-37.37,19.14-52.58,31.26-107.7,35.92-163.46,1.87-22.28,2.42-45.45-5.96-66.18-8.38-20.74-27.8-38.48-50.16-38.41-15.72.05-30.41,8.77-41.12,20.27-68.42,73.48-69.94,204.23-42.58,294.54,4.4,14.52,7.89,34.17-5.78,41.29-6.03,3.14-13.32,2.37-19.13-1.16-11.81-7.16-16.22-19.85-22.85-30.92-25.97-43.29-81.88-53.06-125.37-32.3-42.31,20.19-67.86,65.19-68.41,111.44-.94,78.43,66.26,137.43,142.72,134.06,11.78-.52,23.19-4.06,34.09-8.33,9.8-3.84,19.31-8.34,29.03-12.36,3.94-1.63,8-3.82,12.2-4.7,3.04-.64,6.37-.44,9.01,1.2,2.72,1.7,4.4,4.79,4.78,7.96.6,4.98-1.9,10.22-4.17,14.53-4.36,8.3-10.69,15.37-17.76,21.47-26.31,22.69-66.19,35.64-100.63,37.26ZM284.6,571.98l-.09.09c-5.24,4.91-12.28,6.04-18.89,10.01-7.89,4.11-14.93,14.74-23.62,15.82-8.93.85-15.02-8.97-16.91-16.76-6-25.13,15.35-63.48,44.49-52.81,9.59,3.59,16.68,12.33,19.04,22.3,1.79,7.6,1.65,15.87-4.02,21.35ZM751.83,845.77c-32.78,37-99.19,60.01-159.48,73.95-55.17,12.75-111.56,19.36-168.17,20.58-40.97.88-100.99,1.22-100.99,1.22,0,0-45.16.15-45.16-22.35s31.35-25.52,46.89-26.76,163.21-10.62,235.83-35.11c62.25-20.98,129.69-46.1,166.72-104.2,25.03-39.27,31.64-93.21,9.59-135.29-24.13-46.03-82.42-63.4-131.73-62.42-32.28.65-64.3,9.92-92.06,26.37-11.21,6.65-22.26,18.81-36.65,14.7-10.92-3.12-19.39-15.27-17.97-26.62,2.5-19.97,30.7-34.44,45.21-45.52,17.6-13.43,37.46-23.86,58.38-31.04,41.01-14.09,86.49-15.77,128.04-2.9,50.28,15.57,97.38,54.22,121.91,102.39,42.34,83.15-3,188.27-60.36,253ZM945.13,775.7c-4.3,41.42-31.13,86.59-69.66,100.68-30.87,11.28-63.19-14.91-58.28-47.4,8.34-55.09,74.33-123.75,113.51-90.6,10.77,9.1,15.88,23.29,14.43,37.32ZM284.53,383.1c-.07-9.24-.1-18.5.54-27.72,1.54-23.19,4.29-46.58,8.87-69.37,1.88-9.32,4.27-18.55,7.12-27.62,7.25-23.09,17.46-45.15,29.52-66.1,6.05-10.52,12.56-20.76,19.42-30.77,3.43-5.02,7.05-9.9,10.54-14.88,3.62-5.16,6.63-11,2.3-17.54-2.1-3.17-5.65-5.09-9.44-5.36-15.67-1.04-31.2,12.12-40.27,23.74-9.16,11.74-16.5,25.66-23.64,38.71-7.77,14.21-14.73,28.91-20.04,44.23-17.09,49.23-18.74,108.42,8.53,154.6,1.86,3.14,6.68,1.73,6.55-1.92Z"/>
  <path class="cls-1" d="M4611.76,752.35c-52.5-37.3-127.76,55.54-132.35,125.31-2.71,41.15,40.48,70.47,77.88,53.1,46.7-21.69,75.46-81.01,76.45-133.26.34-17.7-7.55-34.89-21.98-45.15Z"/>
</svg>