<?xml version="1.0" encoding="UTF-8"?>
<svg id="AW" xmlns="http://www.w3.org/2000/svg" viewBox="0 0 3529.1 722.77">
  <g>
    <path d="M295.56,0h81.49c9.53,0,17.26,7.73,17.26,17.26v409.19c0,36.46,1.95,77.3,4.69,104.87,1.01,10.17-6.95,18.99-17.18,18.99h-71.52c-8.76,0-16.14-6.56-17.15-15.26-.07-.57-.13-1.14-.2-1.72-1.6-13.66-17.64-19.96-28.25-11.22-25.86,21.29-63.37,34.47-100.87,34.47C67.42,556.58,0,469.57,0,346.49s67.42-210.09,163.84-210.09c30.27,0,62.41,11.56,86.9,29.53,11.44,8.4,27.55.35,27.55-13.84V17.26c0-9.53,7.73-17.26,17.26-17.26ZM278.29,333.95c0-66.63-29.79-105.83-76.82-105.83-51.74,0-85.45,46.25-85.45,118.37s33.71,120.72,85.45,120.72c46.25,0,76.82-40.76,76.82-109.75v-23.52Z"/>
    <path d="M665.98,536.77c-.04-.18-.08-.37-.12-.56-2.68-12.16-17.03-17.67-27.02-10.23-26.56,19.78-57.65,31.38-92.12,31.38-83.1,0-136.4-54.09-136.4-124.64,0-76.82,67.42-116.8,175.6-128.56l49.87-6.01c8.67-1.04,15.2-8.4,15.2-17.14v-3.5c0-29.01-21.95-49.39-50.17-49.39-22.85,0-44.54,9.79-54.71,31.35-3.21,6.79-10.24,10.91-17.69,9.88l-79.65-11.06c-10.88-1.51-17.74-12.72-13.86-22.99,21.84-57.79,85.8-98.89,167.48-98.89,97.21,0,165.41,61.93,165.41,156v134.05c0,52.01,1,78.98,4.21,104.52,1.29,10.28-6.77,19.34-17.13,19.34h-72.02c-8.1,0-15.11-5.63-16.86-13.54ZM650.97,383.34v-.92c0-10.35-9.04-18.37-19.32-17.14l-39.47,4.74c-39.98,4.7-65.85,23.52-65.85,53.31,0,25.09,18.03,43.9,48.6,43.9,45.47,0,76.04-30.57,76.04-83.88Z"/>
    <path d="M803.18,227.34h-21.91c-9.53,0-17.26-7.73-17.26-17.26v-41.22c0-8.35,5.98-15.51,14.2-16.99l31.97-5.77c6.32-1.14,11.48-5.69,13.4-11.82l26.79-85.34c2.26-7.2,8.93-12.09,16.47-12.09h53.94c9.53,0,17.26,7.73,17.26,17.26v72.87c0,9.53,7.73,17.26,17.26,17.26h46.22c9.53,0,17.26,7.73,17.26,17.26v51.7c0,9.53-7.73,17.26-17.26,17.26h-46.22c-9.53,0-17.26,7.73-17.26,17.26v170.09c0,30.57,13.33,50.95,47.03,50.95,8.1,0,15.82-.74,28.29-3,10.58-1.91,20.31,6.24,20.31,16.99v54.01c0,8.49-6.16,15.72-14.54,17.05-15.96,2.54-35.23,4.31-50.53,4.31-98.77,0-148.16-63.5-148.16-138.75v-174.8c0-9.53-7.73-17.26-17.26-17.26Z"/>
    <path d="M1293.34,536.77c-.04-.18-.08-.37-.12-.56-2.68-12.16-17.03-17.67-27.02-10.23-26.56,19.78-57.65,31.38-92.12,31.38-83.1,0-136.4-54.09-136.4-124.64,0-76.82,67.42-116.8,175.6-128.56l49.87-6.01c8.67-1.04,15.2-8.4,15.2-17.14v-3.5c0-29.01-21.95-49.39-50.17-49.39-22.85,0-44.54,9.79-54.71,31.35-3.21,6.79-10.24,10.91-17.69,9.88l-79.65-11.06c-10.88-1.51-17.74-12.72-13.86-22.99,21.84-57.79,85.8-98.89,167.48-98.89,97.21,0,165.41,61.93,165.41,156v134.05c0,52.01,1,78.98,4.21,104.52,1.29,10.28-6.77,19.34-17.13,19.34h-72.02c-8.1,0-15.11-5.63-16.86-13.54ZM1278.33,383.34v-.92c0-10.35-9.04-18.37-19.32-17.14l-39.47,4.74c-39.98,4.7-65.85,23.52-65.85,53.31,0,25.09,18.03,43.9,48.6,43.9,45.47,0,76.04-30.57,76.04-83.88Z"/>
    <path d="M1545.33,151.97c0,14.22,16.15,22.24,27.6,13.81,24.28-17.88,56.12-29.38,86.85-29.38,95.64,0,164.62,87.01,164.62,210.09s-68.99,210.09-164.62,210.09c-37.43,0-75.26-13.13-101.05-34.33-10.53-8.66-26.44-2.6-28.24,10.91-.1.75-.2,1.48-.29,2.2-1.15,8.56-8.47,14.95-17.11,14.95h-71.69c-10.32,0-18.31-8.98-17.15-19.24,3.11-27.56,5.05-68.27,5.05-104.62V17.26c0-9.53,7.73-17.26,17.26-17.26h81.49c9.53,0,17.26,7.73,17.26,17.26v134.71ZM1545.33,357.47c0,68.99,30.57,109.75,78.39,109.75,50.17,0,83.1-45.47,83.1-120.72s-32.92-118.37-83.1-118.37-78.39,39.2-78.39,105.83v23.52Z"/>
    <path d="M2101.93,537.65c-.23-.86-.46-1.71-.68-2.57-3.08-11.89-17.22-16.82-27.05-9.45-25.44,19.05-56.84,30.17-92.41,30.17-82.31,0-138.75-60.36-138.75-153.65v-240.65c0-9.53,7.73-17.26,17.26-17.26h83.06c9.53,0,17.26,7.73,17.26,17.26v224.97c0,51.74,21.95,79.17,60.36,79.17,41.55,0,69.77-32.14,69.77-93.29v-210.86c0-9.53,7.73-17.26,17.26-17.26h81.49c9.53,0,17.26,7.73,17.26,17.26v264.95c0,51.86,1,78.82,4.58,104.3,1.45,10.35-6.66,19.56-17.11,19.56h-75.67c-7.76,0-14.62-5.17-16.64-12.67Z"/>
    <path d="M2523.2,0h81.49c9.53,0,17.26,7.73,17.26,17.26v409.19c0,36.46,1.95,77.3,4.69,104.87,1.01,10.17-6.95,18.99-17.18,18.99h-71.52c-8.76,0-16.14-6.56-17.15-15.26-.07-.57-.13-1.14-.2-1.72-1.6-13.66-17.64-19.96-28.25-11.22-25.86,21.29-63.37,34.47-100.87,34.47-96.42,0-163.84-87.01-163.84-210.09s67.42-210.09,163.84-210.09c30.27,0,62.41,11.56,86.9,29.53,11.44,8.4,27.55.35,27.55-13.84V17.26c0-9.53,7.73-17.26,17.26-17.26ZM2505.94,333.95c0-66.63-29.79-105.83-76.82-105.83-51.74,0-85.45,46.25-85.45,118.37s33.71,120.72,85.45,120.72c46.25,0,76.82-40.76,76.82-109.75v-23.52Z"/>
    <path d="M2931.91,0h81.49c9.53,0,17.26,7.73,17.26,17.26v409.19c0,36.46,1.95,77.3,4.69,104.87,1.01,10.17-6.95,18.99-17.18,18.99h-71.52c-8.76,0-16.14-6.56-17.15-15.26-.07-.57-.13-1.14-.2-1.72-1.6-13.66-17.64-19.96-28.25-11.22-25.86,21.29-63.37,34.47-100.87,34.47-96.42,0-163.84-87.01-163.84-210.09s67.42-210.09,163.84-210.09c30.27,0,62.41,11.56,86.9,29.53,11.44,8.4,27.55.35,27.55-13.84V17.26c0-9.53,7.73-17.26,17.26-17.26ZM2914.64,333.95c0-66.63-29.79-105.83-76.82-105.83-51.74,0-85.45,46.25-85.45,118.37s33.71,120.72,85.45,120.72c46.25,0,76.82-40.76,76.82-109.75v-23.52Z"/>
    <path d="M3060.33,144.24h81.69c7.18,0,13.61,4.45,16.15,11.16l77.36,204.85c5.65,14.97,26.87,14.86,32.36-.17l74.76-204.51c2.49-6.81,8.97-11.34,16.21-11.34h81.87c12.14,0,20.48,12.19,16.1,23.5l-164.13,423.33c-25.87,65.06-59.58,131.7-163.84,131.7-20.76,0-46.88-3.22-68.16-9.22-7.45-2.1-12.59-8.89-12.59-16.63v-56.8c0-11.48,10.99-19.73,22.03-16.59,29.14,8.3,41.97,9.87,54.79,9.87,38.23,0,54.72-33.39,68.78-68.48.14-.34.26-.68.37-1.02l4.53-13.59h-.78l-153.54-382.37c-4.55-11.34,3.8-23.7,16.02-23.7Z"/>
  </g>
  <path d="M3507.1,384.04c-52.5-37.3-127.76,55.54-132.35,125.31-2.71,41.15,40.48,70.47,77.88,53.1,46.7-21.69,75.46-81.01,76.45-133.26.34-17.7-7.55-34.89-21.98-45.15Z"/>
</svg>