<?xml version="1.0" encoding="UTF-8"?>
<svg id="AW" xmlns="http://www.w3.org/2000/svg" viewBox="0 0 3529.1 2314.68">
  <defs>
    <style>
      .cls-1 {
        fill: #fff;
      }
    </style>
  </defs>
  <path class="cls-1" d="M1567.31,187.55c-3.05-4.6-8.21-7.4-13.72-7.78-22.77-1.52-45.33,17.6-58.5,34.48-13.31,17.06-23.97,37.27-34.34,56.23-11.29,20.64-21.4,42-29.12,64.25-24.82,71.52-27.21,157.5,12.41,224.58,2.69,4.57,9.69,2.52,9.51-2.78-.1-13.43-.14-26.87.78-40.28,2.24-33.68,6.23-67.66,12.89-100.76,2.73-13.55,6.2-26.95,10.34-40.13,10.53-33.53,25.36-65.59,42.88-96.02,8.79-15.28,18.25-30.16,28.21-44.7,4.99-7.29,10.24-14.38,15.32-21.61,5.26-7.49,9.62-15.99,3.34-25.48ZM1567.31,187.55c-3.05-4.6-8.21-7.4-13.72-7.78-22.77-1.52-45.33,17.6-58.5,34.48-13.31,17.06-23.97,37.27-34.34,56.23-11.29,20.64-21.4,42-29.12,64.25-24.82,71.52-27.21,157.5,12.41,224.58,2.69,4.57,9.69,2.52,9.51-2.78-.1-13.43-.14-26.87.78-40.28,2.24-33.68,6.23-67.66,12.89-100.76,2.73-13.55,6.2-26.95,10.34-40.13,10.53-33.53,25.36-65.59,42.88-96.02,8.79-15.28,18.25-30.16,28.21-44.7,4.99-7.29,10.24-14.38,15.32-21.61,5.26-7.49,9.62-15.99,3.34-25.48ZM2472.01,1035.71c-17.88-27.69-45.87-59.56-105.61-59.56-9.37,0-19.2,2.11-28.17-1.63-9.08-3.78-11.83-12.22-12.29-21.17-.54-10.56-.15-21.29-.84-31.89-2.57-39.85-14.83-78.62-33.87-113.62-21.3-39.16-50.79-73.7-85.01-102.16-34.71-28.87-74.17-51.07-116.77-65.96-50.99-17.82-105.81-22.78-159.56-22.07-6.58.09-11.62-5.79-10.62-12.29,1.15-7.52,2.29-14.47,3.67-20.04,12.58-51.02,19.82-90.88,23.47-129.24,7.74-81.43-2.15-153.83-29.41-215.2-33.41-75.2-95.55-133.05-166.22-154.76-9.15-2.81-18.35-4.53-27.25-6.2-11.15-2.09-20.79-3.06-29.41-11.07-6.84-6.36-11.77-14.45-18.32-21.09-8.55-8.66-17.58-18.44-27.99-24.9C1622.78,7.31,1592.43,0,1563.15,0c-37.38,0-75.69,11.67-110.77,33.74-36.76,23.12-69.7,57.06-100.69,103.76-70.92,106.84-101.23,233.3-90.34,376.5.59,7.81-3.51,15.23-10.54,18.69-158.51,78.06-245.66,265.31-197.23,437.04,34.98,124.03,130.13,204.75,242.97,257.34,14.6,6.81,31.36,10.95,45.3,18.45,5.34,2.87,10.31,7.45,12.4,13.28,2.21,6.15.73,12.9-.85,18.92-9.13,34.67-17.02,64.16.82,97.75,14.46,27.23,40.01,48.87,68.16,60.98,9.65,4.15,23.5,7.45,37.43,9.98,26.86,4.89,54.18,6.78,81.48,6.12,96.91-2.36,193.65-6.45,290.21-12.29,40.05-2.42,79.9-7.97,118.94-17.23,32.47-7.69,62.19-17.15,89.72-28.5,38.04-15.69,73.62-47.98,116.52-47.77,37.69.18,70.07,19.72,108.6,19.72,60.96,0,119.23-30.42,160.36-74.58,33.69-36.17,92.25-156.89,46.37-256.19ZM1389.48,1140.3c-35.75,1.69-71.95-4.24-104.94-18.25-89.88-38.15-152.14-131.31-158.47-228.76-6.33-97.44,41.04-195.49,117.95-255.66,18.28-14.29,38.1-26.59,59.01-36.65,14.78-7.12,39.58-11.2,48.45-26.54,8.72-15.07-.77-32.74-4.04-47.84-4.63-21.39-6.08-43.7-6.52-65.55-.78-39.03,3.46-78.16,12.4-116.15,17.87-75.96,54.63-147.7,107.72-205.07,22.59-24.41,49.39-47.13,81.89-54.22,29.77-6.5,57.99,3.6,77.95,25.79,15.6,17.34,22.48,42.3,47.55,48.18,13.96,3.28,28.52,2.5,42.76,4.18,60.41,7.12,108.16,58.49,129.23,115.55,16.72,45.29,23.51,93.57,22.91,142.47-1.21,98.47-32.37,199.49-72.67,283.78-8.74,18.27-23.56,39.18-43.9,34.99-10.12-2.08-17.98-10.04-21.26-19.83-6.29-18.77.72-36.87,7.06-54.29,27.81-76.37,45.41-156.45,52.19-237.44,2.71-32.38,3.51-66.03-8.66-96.15s-40.39-55.9-72.87-55.8c-22.84.08-44.17,12.74-59.73,29.46-99.4,106.74-101.61,296.68-61.86,427.86,6.39,21.1,11.47,49.64-8.39,59.98-8.77,4.57-19.35,3.45-27.8-1.68-17.15-10.4-23.55-28.84-33.19-44.91-37.73-62.89-118.95-77.09-182.13-46.93-61.45,29.33-98.57,94.7-99.38,161.88-1.35,113.95,96.27,199.65,207.34,194.75,17.11-.75,33.68-5.9,49.52-12.1,14.23-5.57,28.05-12.11,42.17-17.95,5.73-2.37,11.61-5.55,17.72-6.83,4.41-.92,9.26-.64,13.09,1.75,3.95,2.45,6.39,6.94,6.94,11.56.87,7.23-2.76,14.85-6.05,21.1-6.34,12.06-15.54,22.33-25.81,31.19-38.22,32.96-96.15,51.77-146.18,54.13ZM1453.65,830.9l-.13.14c-7.62,7.13-17.84,8.78-27.45,14.54-11.46,5.97-21.68,21.41-34.3,22.99-12.97,1.23-21.82-13.04-24.56-24.36-8.72-36.5,22.29-92.21,64.63-76.71,13.92,5.22,24.22,17.91,27.65,32.39,2.6,11.04,2.4,23.05-5.84,31.01ZM2132.39,1228.63c-47.63,53.75-144.1,87.18-231.68,107.43-80.14,18.52-162.06,28.13-244.29,29.89-59.53,1.28-146.71,1.77-146.71,1.77,0,0-65.61.22-65.61-32.46s45.55-37.08,68.12-38.87c22.57-1.8,237.09-15.43,342.59-51,90.42-30.49,188.39-66.98,242.18-151.37,36.36-57.05,45.97-135.4,13.94-196.53-35.05-66.87-119.73-92.11-191.37-90.68-46.88.94-93.41,14.4-133.72,38.31-16.3,9.66-32.35,27.33-53.25,21.35-15.86-4.54-28.17-22.19-26.11-38.67,3.64-29.02,44.6-50.04,65.68-66.13,25.57-19.51,54.42-34.65,84.81-45.09,59.57-20.47,125.65-22.91,186-4.22,73.04,22.62,141.46,78.77,177.1,148.75,61.51,120.79-4.37,273.49-87.68,367.52ZM2413.18,1126.84c-6.25,60.18-45.22,125.79-101.19,146.25-44.84,16.39-91.79-21.64-84.66-68.84,12.11-80.03,107.98-179.78,164.9-131.62,15.64,13.23,23.06,33.83,20.95,54.21ZM1453.55,556.53c-.1-13.43-.14-26.87.78-40.28,2.24-33.68,6.23-67.66,12.89-100.76,2.73-13.55,6.2-26.95,10.34-40.13,10.53-33.53,25.36-65.59,42.88-96.02,8.79-15.28,18.25-30.16,28.21-44.7,4.99-7.29,10.24-14.38,15.32-21.61,5.26-7.49,9.62-15.99,3.34-25.48-3.05-4.6-8.21-7.4-13.72-7.78-22.77-1.52-45.33,17.6-58.5,34.48-13.31,17.06-23.97,37.27-34.34,56.23-11.29,20.64-21.4,42-29.12,64.25-24.82,71.52-27.21,157.5,12.41,224.58,2.69,4.57,9.69,2.52,9.51-2.78Z"/>
  <g>
    <path class="cls-1" d="M399.01,2123.23c-2.75-27.56-4.7-68.41-4.7-104.86v-409.19c0-9.54-7.72-17.27-17.26-17.27h-81.49c-9.54,0-17.27,7.73-17.27,17.27v134.82c0,14.2-16.1,22.24-27.55,13.85-24.49-17.98-56.62-29.53-86.9-29.53C67.42,1728.32,0,1815.33,0,1938.41s67.42,210.09,163.84,210.09c37.51,0,75.02-13.19,100.87-34.48,10.62-8.74,26.66-2.44,28.26,11.22.07.58.13,1.16.2,1.72,1.01,8.71,8.38,15.26,17.15,15.26h71.51c10.22,0,18.19-8.82,17.18-18.99ZM278.29,1949.38c0,68.99-30.57,109.75-76.82,109.75-51.74,0-85.45-45.47-85.45-120.72s33.71-118.37,85.45-118.37c47.03,0,76.82,39.19,76.82,105.82v23.52Z"/>
    <path class="cls-1" d="M771.98,2122.89c-3.2-25.55-4.2-52.51-4.2-104.52v-134.05c0-94.08-68.2-156-165.41-156-81.67,0-145.64,41.1-167.48,98.89-3.88,10.27,2.98,21.48,13.86,22.99l79.65,11.06c7.44,1.03,14.48-3.09,17.69-9.88,10.17-21.55,31.87-31.34,54.71-31.34,28.22,0,50.17,20.38,50.17,49.38v3.51c0,8.73-6.52,16.09-15.2,17.14l-49.86,6c-108.18,11.76-175.6,51.74-175.6,128.57,0,70.55,53.3,124.64,136.4,124.64,34.47,0,65.56-11.6,92.12-31.38,9.99-7.44,24.35-1.93,27.03,10.23.04.19.08.37.12.55,1.74,7.92,8.75,13.54,16.86,13.54h72.01c10.36,0,18.42-9.05,17.13-19.33ZM650.97,1975.25c0,53.31-30.57,83.88-76.04,83.88-30.57,0-48.6-18.82-48.6-43.9,0-29.79,25.87-48.6,65.85-53.31l39.47-4.73c10.28-1.24,19.32,6.79,19.32,17.14v.92Z"/>
    <path class="cls-1" d="M1013.36,2057.7c-12.47,2.25-20.19,3-28.29,3-33.71,0-47.03-20.39-47.03-50.96v-170.09c0-9.54,7.73-17.26,17.26-17.26h46.22c9.53,0,17.26-7.73,17.26-17.27v-51.7c0-9.54-7.73-17.26-17.26-17.26h-46.22c-9.53,0-17.26-7.73-17.26-17.27v-72.87c0-9.53-7.73-17.26-17.27-17.26h-53.94c-7.54,0-14.21,4.89-16.47,12.09l-26.78,85.34c-1.93,6.13-7.09,10.68-13.41,11.82l-31.97,5.77c-8.21,1.49-14.19,8.64-14.19,16.99v41.22c0,9.53,7.73,17.26,17.26,17.26h21.92c9.53,0,17.26,7.73,17.26,17.26v174.8c0,75.26,49.39,138.75,148.16,138.75,15.3,0,34.57-1.76,50.53-4.3,8.38-1.33,14.54-8.57,14.54-17.05v-54.02c0-10.75-9.74-18.9-20.32-16.99Z"/>
    <path class="cls-1" d="M1399.35,2122.89c-3.21-25.55-4.21-52.51-4.21-104.52v-134.05c0-94.08-68.2-156-165.41-156-81.67,0-145.64,41.1-167.48,98.89-3.88,10.27,2.98,21.48,13.86,22.99l79.65,11.06c7.44,1.03,14.48-3.09,17.69-9.88,10.17-21.55,31.87-31.34,54.71-31.34,28.23,0,50.17,20.38,50.17,49.38v3.51c0,8.73-6.52,16.09-15.19,17.14l-49.87,6c-108.18,11.76-175.6,51.74-175.6,128.57,0,70.55,53.31,124.64,136.4,124.64,34.47,0,65.56-11.6,92.12-31.38,9.99-7.44,24.35-1.93,27.03,10.23.04.19.08.37.12.55,1.74,7.92,8.75,13.54,16.86,13.54h72.01c10.36,0,18.42-9.05,17.14-19.33ZM1278.33,1975.25c0,53.31-30.57,83.88-76.04,83.88-30.57,0-48.6-18.82-48.6-43.9,0-29.79,25.87-48.6,65.85-53.31l39.47-4.73c10.28-1.24,19.32,6.79,19.32,17.14v.92Z"/>
    <path class="cls-1" d="M1659.78,1728.32c-30.72,0-62.56,11.49-86.85,29.37-11.45,8.44-27.6.42-27.6-13.8v-134.71c0-9.54-7.73-17.27-17.26-17.27h-81.5c-9.53,0-17.26,7.73-17.26,17.27v409.19c0,36.35-1.94,77.06-5.05,104.62-1.16,10.25,6.83,19.23,17.15,19.23h71.69c8.64,0,15.95-6.38,17.1-14.94.1-.72.2-1.46.3-2.2,1.79-13.52,17.71-19.58,28.24-10.92,25.78,21.21,63.62,34.34,101.04,34.34,95.64,0,164.63-87.02,164.63-210.09s-68.99-210.09-164.63-210.09ZM1623.72,2059.13c-47.82,0-78.39-40.76-78.39-109.75v-23.52c0-66.63,30.57-105.82,78.39-105.82,50.17,0,83.1,46.25,83.1,118.37s-32.93,120.72-83.1,120.72Z"/>
    <path class="cls-1" d="M2211.36,2122.66c-3.58-25.47-4.58-52.43-4.58-104.29v-264.95c0-9.54-7.73-17.26-17.26-17.26h-81.5c-9.53,0-17.26,7.72-17.26,17.26v210.85c0,61.15-28.22,93.29-69.77,93.29-38.41,0-60.36-27.44-60.36-79.17v-224.97c0-9.54-7.73-17.26-17.26-17.26h-83.06c-9.54,0-17.27,7.72-17.27,17.26v240.64c0,93.29,56.44,153.65,138.76,153.65,35.57,0,66.96-11.13,92.4-30.17,9.84-7.36,23.98-2.44,27.06,9.45.22.86.45,1.71.68,2.57,2.02,7.49,8.88,12.66,16.64,12.66h75.67c10.45,0,18.56-9.21,17.11-19.56Z"/>
    <path class="cls-1" d="M2626.66,2123.23c-2.75-27.56-4.7-68.41-4.7-104.86v-409.19c0-9.54-7.73-17.27-17.26-17.27h-81.49c-9.54,0-17.27,7.73-17.27,17.27v134.82c0,14.2-16.11,22.24-27.55,13.85-24.49-17.98-56.63-29.53-86.9-29.53-96.42,0-163.84,87.01-163.84,210.09s67.42,210.09,163.84,210.09c37.51,0,75.01-13.19,100.87-34.48,10.62-8.74,26.66-2.44,28.26,11.22.06.58.13,1.16.2,1.72,1.01,8.71,8.38,15.26,17.14,15.26h71.52c10.22,0,18.19-8.82,17.18-18.99ZM2505.94,1949.38c0,68.99-30.57,109.75-76.82,109.75-51.74,0-85.45-45.47-85.45-120.72s33.71-118.37,85.45-118.37c47.03,0,76.82,39.19,76.82,105.82v23.52Z"/>
    <path class="cls-1" d="M3035.36,2123.23c-2.75-27.56-4.7-68.41-4.7-104.86v-409.19c0-9.54-7.72-17.27-17.26-17.27h-81.49c-9.54,0-17.26,7.73-17.26,17.27v134.82c0,14.2-16.11,22.24-27.56,13.85-24.49-17.98-56.62-29.53-86.9-29.53-96.42,0-163.84,87.01-163.84,210.09s67.42,210.09,163.84,210.09c37.51,0,75.02-13.19,100.88-34.48,10.61-8.74,26.65-2.44,28.25,11.22.07.58.13,1.16.2,1.72,1.01,8.71,8.38,15.26,17.15,15.26h71.51c10.22,0,18.19-8.82,17.18-18.99ZM2914.65,1949.38c0,68.99-30.58,109.75-76.83,109.75-51.74,0-85.45-45.47-85.45-120.72s33.71-118.37,85.45-118.37c47.03,0,76.83,39.19,76.83,105.82v23.52Z"/>
    <path class="cls-1" d="M3440.74,1736.16h-81.87c-7.25,0-13.73,4.52-16.22,11.33l-74.75,204.51c-5.5,15.03-26.72,15.14-32.37.17l-77.36-204.85c-2.54-6.72-8.97-11.16-16.15-11.16h-81.69c-12.22,0-20.57,12.35-16.02,23.69l153.54,382.37h.79l-4.53,13.6c-.12.34-.24.68-.38,1.02-14.06,35.09-30.55,68.48-68.78,68.48-12.83,0-25.66-1.57-54.8-9.87-11.03-3.15-22.03,5.11-22.03,16.59v56.8c0,7.74,5.14,14.53,12.59,16.63,21.28,6,47.4,9.22,68.16,9.22,104.26,0,137.97-66.64,163.84-131.7l164.13-423.33c4.39-11.31-3.96-23.5-16.1-23.5Z"/>
    <path class="cls-1" d="M3507.1,1975.95c-52.5-37.3-127.76,55.54-132.35,125.31-2.71,41.15,40.48,70.47,77.88,53.1,46.7-21.69,75.46-81.01,76.45-133.26.34-17.7-7.55-34.89-21.98-45.15Z"/>
  </g>
</svg>