<?xml version="1.0" encoding="UTF-8"?>
<svg id="AW" xmlns="http://www.w3.org/2000/svg" viewBox="0 0 4633.76 1091.09">
  <defs>
    <style>
      .cls-1 {
        fill: #fff;
      }
    </style>
  </defs>
  <g>
    <path d="M1400.21,368.32h81.49c9.53,0,17.26,7.73,17.26,17.26v409.19c0,36.46,1.95,77.3,4.69,104.87,1.01,10.17-6.95,18.99-17.18,18.99h-71.52c-8.76,0-16.14-6.56-17.15-15.26-.07-.57-.13-1.14-.2-1.72-1.6-13.66-17.64-19.96-28.25-11.22-25.86,21.29-63.37,34.47-100.87,34.47-96.42,0-163.84-87.01-163.84-210.09s67.42-210.09,163.84-210.09c30.27,0,62.41,11.56,86.9,29.53,11.44,8.4,27.55.35,27.55-13.84v-134.83c0-9.53,7.73-17.26,17.26-17.26ZM1382.95,702.27c0-66.63-29.79-105.83-76.82-105.83-51.74,0-85.45,46.25-85.45,118.37s33.71,120.72,85.45,120.72c46.25,0,76.82-40.76,76.82-109.75v-23.52Z"/>
    <path d="M1770.63,905.09c-.04-.18-.08-.37-.12-.56-2.68-12.16-17.03-17.67-27.02-10.23-26.56,19.78-57.65,31.38-92.12,31.38-83.1,0-136.4-54.09-136.4-124.64,0-76.82,67.42-116.8,175.6-128.56l49.87-6.01c8.67-1.04,15.2-8.4,15.2-17.14v-3.5c0-29.01-21.95-49.39-50.17-49.39-22.85,0-44.54,9.79-54.71,31.35-3.21,6.79-10.24,10.91-17.69,9.88l-79.65-11.06c-10.88-1.51-17.74-12.72-13.86-22.99,21.84-57.79,85.8-98.89,167.48-98.89,97.21,0,165.41,61.93,165.41,156v134.05c0,52.01,1,78.98,4.21,104.52,1.29,10.28-6.77,19.34-17.13,19.34h-72.02c-8.1,0-15.11-5.63-16.86-13.54ZM1755.63,751.65v-.92c0-10.35-9.04-18.37-19.32-17.14l-39.47,4.74c-39.98,4.7-65.85,23.52-65.85,53.31,0,25.09,18.03,43.9,48.6,43.9,45.47,0,76.04-30.57,76.04-83.88Z"/>
    <path d="M1907.84,595.65h-21.91c-9.53,0-17.26-7.73-17.26-17.26v-41.22c0-8.35,5.98-15.51,14.2-16.99l31.97-5.77c6.32-1.14,11.48-5.69,13.4-11.82l26.79-85.34c2.26-7.2,8.93-12.09,16.47-12.09h53.94c9.53,0,17.26,7.73,17.26,17.26v72.87c0,9.53,7.73,17.26,17.26,17.26h46.22c9.53,0,17.26,7.73,17.26,17.26v51.7c0,9.53-7.73,17.26-17.26,17.26h-46.22c-9.53,0-17.26,7.73-17.26,17.26v170.09c0,30.57,13.33,50.95,47.03,50.95,8.1,0,15.82-.74,28.29-3,10.58-1.91,20.31,6.24,20.31,16.99v54.01c0,8.49-6.16,15.72-14.54,17.05-15.96,2.54-35.23,4.31-50.53,4.31-98.77,0-148.16-63.5-148.16-138.75v-174.8c0-9.53-7.73-17.26-17.26-17.26Z"/>
    <path d="M2397.99,905.09c-.04-.18-.08-.37-.12-.56-2.68-12.16-17.03-17.67-27.02-10.23-26.56,19.78-57.65,31.38-92.12,31.38-83.1,0-136.4-54.09-136.4-124.64,0-76.82,67.42-116.8,175.6-128.56l49.87-6.01c8.67-1.04,15.2-8.4,15.2-17.14v-3.5c0-29.01-21.95-49.39-50.17-49.39-22.85,0-44.54,9.79-54.71,31.35-3.21,6.79-10.24,10.91-17.69,9.88l-79.65-11.06c-10.88-1.51-17.74-12.72-13.86-22.99,21.84-57.79,85.8-98.89,167.48-98.89,97.21,0,165.41,61.93,165.41,156v134.05c0,52.01,1,78.98,4.21,104.52,1.29,10.28-6.77,19.34-17.13,19.34h-72.02c-8.1,0-15.11-5.63-16.86-13.54ZM2382.99,751.65v-.92c0-10.35-9.04-18.37-19.32-17.14l-39.47,4.74c-39.98,4.7-65.85,23.52-65.85,53.31,0,25.09,18.03,43.9,48.6,43.9,45.47,0,76.04-30.57,76.04-83.88Z"/>
    <path d="M2649.98,520.29c0,14.22,16.15,22.24,27.6,13.81,24.28-17.88,56.12-29.38,86.85-29.38,95.64,0,164.62,87.01,164.62,210.09s-68.99,210.09-164.62,210.09c-37.43,0-75.26-13.13-101.05-34.33-10.53-8.66-26.44-2.6-28.24,10.91-.1.75-.2,1.48-.29,2.2-1.15,8.56-8.47,14.95-17.11,14.95h-71.69c-10.32,0-18.31-8.98-17.15-19.24,3.11-27.56,5.05-68.27,5.05-104.62v-409.19c0-9.53,7.73-17.26,17.26-17.26h81.49c9.53,0,17.26,7.73,17.26,17.26v134.71ZM2649.98,725.78c0,68.99,30.57,109.75,78.39,109.75,50.17,0,83.1-45.47,83.1-120.72s-32.92-118.37-83.1-118.37-78.39,39.2-78.39,105.83v23.52Z"/>
    <path d="M3206.59,905.96c-.23-.86-.46-1.71-.68-2.57-3.08-11.89-17.22-16.82-27.05-9.45-25.44,19.05-56.84,30.17-92.41,30.17-82.31,0-138.75-60.36-138.75-153.65v-240.65c0-9.53,7.73-17.26,17.26-17.26h83.06c9.53,0,17.26,7.73,17.26,17.26v224.97c0,51.74,21.95,79.17,60.36,79.17,41.55,0,69.77-32.14,69.77-93.29v-210.86c0-9.53,7.73-17.26,17.26-17.26h81.49c9.53,0,17.26,7.73,17.26,17.26v264.95c0,51.86,1,78.82,4.58,104.3,1.45,10.35-6.66,19.56-17.11,19.56h-75.67c-7.76,0-14.62-5.17-16.64-12.67Z"/>
    <path d="M3627.86,368.32h81.49c9.53,0,17.26,7.73,17.26,17.26v409.19c0,36.46,1.95,77.3,4.69,104.87,1.01,10.17-6.95,18.99-17.18,18.99h-71.52c-8.76,0-16.14-6.56-17.15-15.26-.07-.57-.13-1.14-.2-1.72-1.6-13.66-17.64-19.96-28.25-11.22-25.86,21.29-63.37,34.47-100.87,34.47-96.42,0-163.84-87.01-163.84-210.09s67.42-210.09,163.84-210.09c30.27,0,62.41,11.56,86.9,29.53,11.44,8.4,27.55.35,27.55-13.84v-134.83c0-9.53,7.73-17.26,17.26-17.26ZM3610.6,702.27c0-66.63-29.79-105.83-76.82-105.83-51.74,0-85.45,46.25-85.45,118.37s33.71,120.72,85.45,120.72c46.25,0,76.82-40.76,76.82-109.75v-23.52Z"/>
    <path d="M4036.56,368.32h81.49c9.53,0,17.26,7.73,17.26,17.26v409.19c0,36.46,1.95,77.3,4.69,104.87,1.01,10.17-6.95,18.99-17.18,18.99h-71.52c-8.76,0-16.14-6.56-17.15-15.26-.07-.57-.13-1.14-.2-1.72-1.6-13.66-17.64-19.96-28.25-11.22-25.86,21.29-63.37,34.47-100.87,34.47-96.42,0-163.84-87.01-163.84-210.09s67.42-210.09,163.84-210.09c30.27,0,62.41,11.56,86.9,29.53,11.44,8.4,27.55.35,27.55-13.84v-134.83c0-9.53,7.73-17.26,17.26-17.26ZM4019.3,702.27c0-66.63-29.79-105.83-76.82-105.83-51.74,0-85.45,46.25-85.45,118.37s33.71,120.72,85.45,120.72c46.25,0,76.82-40.76,76.82-109.75v-23.52Z"/>
    <path d="M4164.99,512.56h81.69c7.18,0,13.61,4.45,16.15,11.16l77.36,204.85c5.65,14.97,26.87,14.86,32.36-.17l74.76-204.51c2.49-6.81,8.97-11.34,16.21-11.34h81.87c12.14,0,20.48,12.19,16.1,23.5l-164.13,423.33c-25.87,65.06-59.58,131.7-163.84,131.7-20.76,0-46.88-3.22-68.16-9.22-7.45-2.1-12.59-8.89-12.59-16.63v-56.8c0-11.48,10.99-19.73,22.03-16.59,29.14,8.3,41.97,9.87,54.79,9.87,38.23,0,54.72-33.39,68.78-68.48.14-.34.26-.68.37-1.02l4.53-13.59h-.78l-153.54-382.37c-4.55-11.34,3.8-23.7,16.02-23.7Z"/>
  </g>
  <g>
    <path d="M344.93,999.91c-18.79.46-37.6-.85-56.09-4.21-9.59-1.74-19.12-4.02-25.77-6.87-19.38-8.33-36.97-23.23-46.92-41.97-12.28-23.12-6.85-43.42-.56-67.29,1.09-4.14,2.11-8.79.59-13.03-1.44-4.01-4.86-7.16-8.54-9.14-9.6-5.16-21.14-8.01-31.19-12.7-77.67-36.21-143.18-91.77-167.26-177.15-33.34-118.21,26.66-247.11,135.77-300.85,4.84-2.38,7.66-7.49,7.25-12.87-7.49-98.57,13.37-185.63,62.19-259.18,21.33-32.14,44.01-55.51,69.31-71.43C307.88,8.03,334.25,0,359.98,0c20.16,0,41.05,5.03,58.28,15.73,7.17,4.45,13.39,11.18,19.27,17.14,4.51,4.57,7.9,10.14,12.61,14.52,5.94,5.52,12.57,6.18,20.25,7.62,6.13,1.15,12.46,2.34,18.75,4.27,48.65,14.94,91.43,54.77,114.42,106.54,18.77,42.24,25.58,92.08,20.25,148.14-2.51,26.41-7.5,53.85-16.16,88.97-.95,3.83-1.73,8.62-2.53,13.79-.69,4.47,2.79,8.52,7.31,8.46,37-.49,74.74,2.93,109.84,15.19,29.32,10.25,56.49,25.53,80.39,45.4,23.55,19.59,43.86,43.37,58.52,70.32,13.1,24.09,21.55,50.78,23.32,78.22.47,7.29.2,14.68.58,21.95.32,6.15,2.21,11.97,8.46,14.57,6.18,2.57,12.94,1.13,19.39,1.13,41.13,0,60.39,21.94,72.7,41,31.59,68.36-8.72,151.46-31.92,176.36-28.31,30.4-68.42,51.34-110.39,51.34-26.52,0-48.81-13.45-74.76-13.58-29.53-.14-54.02,22.09-80.21,32.89-18.95,7.82-39.41,14.32-61.76,19.62-26.88,6.37-54.31,10.19-81.88,11.86-66.47,4.02-133.06,6.84-199.78,8.46Z"/>
    <g>
      <path class="cls-1" d="M930.71,738.38c-39.18-33.15-105.18,35.52-113.51,90.61-4.91,32.49,27.41,58.67,58.27,47.39,38.53-14.08,65.36-59.25,69.66-100.68,1.46-14.03-3.65-28.21-14.42-37.32Z"/>
      <path class="cls-1" d="M288.62,550.63c-2.36-9.97-9.45-18.7-19.03-22.29-29.14-10.67-50.49,27.68-44.49,52.8,1.89,7.79,7.98,17.62,16.91,16.77,8.69-1.09,15.73-11.71,23.62-15.82,6.61-3.97,13.65-5.1,18.89-10.01l.09-.09c5.67-5.48,5.81-13.74,4.02-21.35Z"/>
      <path class="cls-1" d="M424.18,940.3c56.61-1.21,113-7.83,168.17-20.58,60.29-13.94,126.7-36.95,159.48-73.95,57.36-64.73,102.7-169.85,60.36-253-24.53-48.17-71.64-86.82-121.91-102.39-41.54-12.87-87.03-11.19-128.04,2.9-20.92,7.19-40.78,17.61-58.38,31.04-14.51,11.08-42.71,25.55-45.21,45.52-1.42,11.35,7.05,23.5,17.97,26.62,14.39,4.11,25.44-8.05,36.65-14.7,27.75-16.46,59.78-25.72,92.05-26.37,49.31-.99,107.61,16.39,131.73,62.42,22.05,42.08,15.44,96.01-9.59,135.29-37.03,58.1-104.47,83.22-166.72,104.2-72.63,24.49-220.3,33.87-235.83,35.1-15.54,1.24-46.89,3.94-46.89,26.76s45.16,22.35,45.16,22.35c0,0,60.02-.34,100.99-1.22Z"/>
      <path class="cls-1" d="M566.62,290.34c.41-33.66-4.26-66.9-15.77-98.07-14.5-39.28-47.37-74.64-88.96-79.54-9.8-1.16-19.83-.62-29.44-2.88-17.25-4.05-21.99-21.23-32.73-33.17-13.74-15.28-33.17-22.23-53.66-17.76-22.37,4.88-40.82,20.52-56.37,37.33-36.54,39.49-61.85,88.88-74.15,141.16-6.15,26.16-9.08,53.09-8.54,79.96.3,15.04,1.3,30.4,4.49,45.12,2.25,10.4,8.78,22.56,2.78,32.93-6.11,10.56-23.18,13.37-33.35,18.27-14.39,6.93-28.04,15.4-40.62,25.24-52.95,41.42-85.56,108.91-81.2,175.99,4.36,67.08,47.21,131.21,109.09,157.47,22.71,9.64,47.63,13.72,72.24,12.56,34.44-1.62,74.32-14.58,100.63-37.26,7.07-6.1,13.4-13.17,17.77-21.47,2.26-4.31,4.76-9.55,4.16-14.53-.38-3.18-2.06-6.27-4.78-7.96-2.64-1.64-5.97-1.84-9.02-1.2-4.2.88-8.25,3.07-12.2,4.7-9.72,4.02-19.23,8.52-29.03,12.36-10.9,4.27-22.31,7.81-34.09,8.33-76.46,3.37-143.66-55.63-142.73-134.06.55-46.24,26.1-91.25,68.41-111.44,43.49-20.76,99.4-10.99,125.37,32.31,6.64,11.06,11.05,23.75,22.85,30.92,5.82,3.53,13.1,4.3,19.14,1.16,13.67-7.12,10.18-26.77,5.78-41.29-27.36-90.31-25.84-221.06,42.58-294.54,10.71-11.5,25.4-20.22,41.12-20.27,22.36-.07,41.78,17.67,50.16,38.41,8.38,20.73,7.83,43.9,5.96,66.19-4.66,55.75-16.78,110.88-35.92,163.45-4.37,11.99-9.19,24.45-4.86,37.37,2.26,6.74,7.67,12.22,14.63,13.65,14,2.88,24.21-11.51,30.22-24.09,27.74-58.02,49.19-127.56,50.02-195.35ZM277.99,385.02c-27.27-46.18-25.62-105.37-8.54-154.6,5.31-15.32,12.27-30.02,20.04-44.23,7.14-13.05,14.48-26.96,23.64-38.71,9.07-11.62,24.6-24.78,40.27-23.74,3.79.27,7.34,2.19,9.44,5.36,4.33,6.53,1.32,12.38-2.3,17.54-3.49,4.97-7.11,9.86-10.54,14.87-6.85,10.01-13.37,20.26-19.42,30.77-12.06,20.95-22.27,43.02-29.51,66.1-2.85,9.08-5.24,18.3-7.12,27.63-4.59,22.79-7.33,46.18-8.88,69.36-.63,9.23-.61,18.48-.54,27.73.13,3.65-4.69,5.06-6.54,1.91Z"/>
    </g>
  </g>
  <path d="M4611.76,752.35c-52.5-37.3-127.76,55.54-132.35,125.31-2.71,41.15,40.48,70.47,77.88,53.1,46.7-21.69,75.46-81.01,76.45-133.26.34-17.7-7.55-34.89-21.98-45.15Z"/>
</svg>