<?xml version="1.0" encoding="UTF-8"?>
<svg id="AW" xmlns="http://www.w3.org/2000/svg" viewBox="0 0 3529.1 2314.68">
  <defs>
    <style>
      .cls-1 {
        fill: #fff;
      }
    </style>
  </defs>
  <g>
    <path d="M1541.28,1452.54c-27.29.66-54.62-1.23-81.48-6.12-13.93-2.53-27.78-5.83-37.43-9.98-28.15-12.11-53.7-33.74-68.16-60.98-17.84-33.59-9.94-63.08-.82-97.75,1.58-6.01,3.07-12.77.85-18.92-2.09-5.82-7.06-10.4-12.4-13.28-13.94-7.5-30.71-11.64-45.3-18.44-112.84-52.59-207.99-133.32-242.97-257.34-48.43-171.72,38.72-358.98,197.23-437.04,7.03-3.46,11.13-10.88,10.54-18.7-10.89-143.19,19.42-269.66,90.34-376.5,30.99-46.69,63.93-80.64,100.69-103.76C1487.46,11.67,1525.76,0,1563.14,0c29.28,0,59.63,7.31,84.66,22.85,10.41,6.47,19.45,16.24,27.99,24.91,6.55,6.64,11.48,14.73,18.32,21.09,8.62,8.01,18.25,8.98,29.41,11.07,8.9,1.67,18.1,3.39,27.24,6.2,70.67,21.71,132.81,79.56,166.22,154.76,27.26,61.36,37.16,133.77,29.42,215.19-3.65,38.37-10.89,78.23-23.48,129.24-1.37,5.57-2.52,12.52-3.67,20.04-1,6.5,4.05,12.38,10.62,12.29,53.75-.71,108.57,4.25,159.56,22.07,42.6,14.89,82.06,37.08,116.77,65.96,34.22,28.46,63.71,63,85.01,102.16,19.03,35,31.3,73.77,33.87,113.62.68,10.6.3,21.33.84,31.89.46,8.94,3.21,17.38,12.29,21.16,8.97,3.74,18.8,1.63,28.17,1.63,59.74,0,87.73,31.87,105.61,59.55,45.89,99.3-12.67,220.02-46.37,256.2-41.13,44.16-99.4,74.58-160.36,74.58-38.53,0-70.91-19.54-108.6-19.72-42.9-.21-78.48,32.09-116.52,47.77-27.53,11.35-57.25,20.81-89.72,28.5-39.05,9.26-78.89,14.8-118.94,17.23-96.56,5.84-193.3,9.93-290.21,12.29Z"/>
    <path class="cls-1" d="M2392.22,1072.62c-56.92-48.15-152.79,51.59-164.89,131.62-7.14,47.2,39.82,85.23,84.65,68.85,55.98-20.46,94.95-86.07,101.19-146.25,2.11-20.38-5.31-40.98-20.95-54.22Z"/>
    <path class="cls-1" d="M1459.48,799.89c-3.43-14.48-13.72-27.17-27.65-32.38-42.33-15.51-73.34,40.21-64.63,76.71,2.75,11.32,11.59,25.59,24.56,24.36,12.62-1.58,22.85-17.02,34.31-22.98,9.6-5.76,19.83-7.41,27.44-14.55l.14-.14c8.23-7.96,8.44-19.97,5.83-31.01Z"/>
    <path class="cls-1" d="M1656.41,1365.95c82.23-1.76,164.16-11.37,244.3-29.9,87.58-20.25,184.05-53.68,231.67-107.43,83.32-94.03,149.19-246.73,87.69-367.52-35.64-69.98-104.06-126.13-177.1-148.75-60.35-18.69-126.43-16.25-186,4.21-30.39,10.44-59.24,25.58-84.8,45.09-21.09,16.09-62.04,37.11-65.68,66.13-2.07,16.48,10.25,34.13,26.11,38.67,20.9,5.98,36.95-11.69,53.25-21.35,40.32-23.9,86.84-37.37,133.72-38.3,71.63-1.43,156.32,23.81,191.36,90.68,32.04,61.13,22.43,139.48-13.93,196.53-53.79,84.4-151.76,120.89-242.18,151.37-105.5,35.57-320.02,49.2-342.59,50.99-22.57,1.8-68.12,5.72-68.12,38.87s65.61,32.47,65.61,32.47c0,0,87.18-.49,146.71-1.77Z"/>
    <path class="cls-1" d="M1863.32,421.78c.6-48.9-6.19-97.18-22.91-142.47-21.07-57.06-68.82-108.43-129.23-115.55-14.24-1.68-28.81-.9-42.77-4.18-25.06-5.88-31.95-30.84-47.54-48.18-19.96-22.19-48.18-32.29-77.95-25.79-32.5,7.09-59.3,29.81-81.89,54.22-53.09,57.37-89.84,129.11-107.71,205.07-8.94,38-13.19,77.12-12.4,116.15.44,21.85,1.89,44.16,6.52,65.55,3.27,15.1,12.76,32.77,4.04,47.84-8.87,15.34-33.67,19.42-48.45,26.54-20.9,10.06-40.73,22.36-59,36.66-76.92,60.17-124.29,158.21-117.95,255.66,6.33,97.45,68.59,190.6,158.47,228.76,32.99,14,69.19,19.93,104.93,18.25,50.03-2.36,107.97-21.17,146.18-54.13,10.27-8.86,19.47-19.13,25.81-31.19,3.29-6.26,6.92-13.88,6.05-21.1-.55-4.62-2.99-9.11-6.94-11.56-3.83-2.39-8.68-2.67-13.1-1.74-6.1,1.28-11.99,4.46-17.72,6.83-14.12,5.84-27.94,12.38-42.16,17.95-15.84,6.2-32.41,11.35-49.52,12.1-111.07,4.9-208.7-80.81-207.34-194.75.8-67.18,37.92-132.55,99.38-161.89,63.18-30.16,144.4-15.96,182.12,46.93,9.64,16.07,16.05,34.51,33.19,44.91,8.45,5.13,19.03,6.25,27.8,1.68,19.86-10.35,14.79-38.89,8.4-59.98-39.75-131.19-37.54-321.13,61.86-427.87,15.56-16.71,36.9-29.38,59.73-29.45,32.49-.1,60.7,25.67,72.87,55.79,12.17,30.12,11.37,63.78,8.66,96.15-6.78,80.99-24.38,161.07-52.18,237.44-6.34,17.42-13.35,35.52-7.06,54.29,3.28,9.8,11.14,17.75,21.26,19.83,20.34,4.19,35.16-16.72,43.9-35,40.3-84.29,71.46-185.3,72.67-283.78ZM1444.04,559.31c-39.62-67.09-37.22-153.06-12.4-224.59,7.72-22.25,17.82-43.6,29.12-64.25,10.37-18.96,21.03-39.17,34.34-56.23,13.17-16.88,35.73-36,58.5-34.48,5.51.39,10.66,3.18,13.71,7.78,6.28,9.49,1.92,17.99-3.34,25.48-5.07,7.23-10.33,14.32-15.32,21.6-9.96,14.54-19.42,29.42-28.21,44.7-17.51,30.43-32.35,62.49-42.87,96.02-4.14,13.19-7.61,26.58-10.34,40.13-6.66,33.1-10.65,67.08-12.9,100.76-.92,13.41-.88,26.85-.78,40.28.19,5.3-6.81,7.34-9.51,2.78Z"/>
  </g>
  <g>
    <path d="M295.56,1591.91h81.49c9.53,0,17.26,7.73,17.26,17.26v409.19c0,36.46,1.95,77.3,4.69,104.87,1.01,10.17-6.95,18.99-17.18,18.99h-71.52c-8.76,0-16.14-6.56-17.15-15.26-.07-.57-.13-1.14-.2-1.72-1.6-13.66-17.64-19.96-28.25-11.22-25.86,21.29-63.37,34.47-100.87,34.47-96.42,0-163.84-87.01-163.84-210.09s67.42-210.09,163.84-210.09c30.27,0,62.41,11.56,86.9,29.53,11.44,8.4,27.55.35,27.55-13.84v-134.83c0-9.53,7.73-17.26,17.26-17.26ZM278.29,1925.86c0-66.63-29.79-105.83-76.82-105.83-51.74,0-85.45,46.25-85.45,118.37s33.71,120.72,85.45,120.72c46.25,0,76.82-40.76,76.82-109.75v-23.52Z"/>
    <path d="M665.98,2128.68c-.04-.18-.08-.37-.12-.56-2.68-12.16-17.03-17.67-27.02-10.23-26.56,19.78-57.65,31.38-92.12,31.38-83.1,0-136.4-54.09-136.4-124.64,0-76.82,67.42-116.8,175.6-128.56l49.87-6.01c8.67-1.04,15.2-8.4,15.2-17.14v-3.5c0-29.01-21.95-49.39-50.17-49.39-22.85,0-44.54,9.79-54.71,31.35-3.21,6.79-10.24,10.91-17.69,9.88l-79.65-11.06c-10.88-1.51-17.74-12.72-13.86-22.99,21.84-57.79,85.8-98.89,167.48-98.89,97.21,0,165.41,61.93,165.41,156v134.05c0,52.01,1,78.98,4.21,104.52,1.29,10.28-6.77,19.34-17.13,19.34h-72.02c-8.1,0-15.11-5.63-16.86-13.54ZM650.97,1975.25v-.92c0-10.35-9.04-18.37-19.32-17.14l-39.47,4.74c-39.98,4.7-65.85,23.52-65.85,53.31,0,25.09,18.03,43.9,48.6,43.9,45.47,0,76.04-30.57,76.04-83.88Z"/>
    <path d="M803.18,1819.25h-21.91c-9.53,0-17.26-7.73-17.26-17.26v-41.22c0-8.35,5.98-15.51,14.2-16.99l31.97-5.77c6.32-1.14,11.48-5.69,13.4-11.82l26.79-85.34c2.26-7.2,8.93-12.09,16.47-12.09h53.94c9.53,0,17.26,7.73,17.26,17.26v72.87c0,9.53,7.73,17.26,17.26,17.26h46.22c9.53,0,17.26,7.73,17.26,17.26v51.7c0,9.53-7.73,17.26-17.26,17.26h-46.22c-9.53,0-17.26,7.73-17.26,17.26v170.09c0,30.57,13.33,50.95,47.03,50.95,8.1,0,15.82-.74,28.29-3,10.58-1.91,20.31,6.24,20.31,16.99v54.01c0,8.49-6.16,15.72-14.54,17.05-15.96,2.54-35.23,4.31-50.53,4.31-98.77,0-148.16-63.5-148.16-138.75v-174.8c0-9.53-7.73-17.26-17.26-17.26Z"/>
    <path d="M1293.34,2128.68c-.04-.18-.08-.37-.12-.56-2.68-12.16-17.03-17.67-27.02-10.23-26.56,19.78-57.65,31.38-92.12,31.38-83.1,0-136.4-54.09-136.4-124.64,0-76.82,67.42-116.8,175.6-128.56l49.87-6.01c8.67-1.04,15.2-8.4,15.2-17.14v-3.5c0-29.01-21.95-49.39-50.17-49.39-22.85,0-44.54,9.79-54.71,31.35-3.21,6.79-10.24,10.91-17.69,9.88l-79.65-11.06c-10.88-1.51-17.74-12.72-13.86-22.99,21.84-57.79,85.8-98.89,167.48-98.89,97.21,0,165.41,61.93,165.41,156v134.05c0,52.01,1,78.98,4.21,104.52,1.29,10.28-6.77,19.34-17.13,19.34h-72.02c-8.1,0-15.11-5.63-16.86-13.54ZM1278.33,1975.25v-.92c0-10.35-9.04-18.37-19.32-17.14l-39.47,4.74c-39.98,4.7-65.85,23.52-65.85,53.31,0,25.09,18.03,43.9,48.6,43.9,45.47,0,76.04-30.57,76.04-83.88Z"/>
    <path d="M1545.33,1743.88c0,14.22,16.15,22.24,27.6,13.81,24.28-17.88,56.12-29.38,86.85-29.38,95.64,0,164.62,87.01,164.62,210.09s-68.99,210.09-164.62,210.09c-37.43,0-75.26-13.13-101.05-34.33-10.53-8.66-26.44-2.6-28.24,10.91-.1.75-.2,1.48-.29,2.2-1.15,8.56-8.47,14.95-17.11,14.95h-71.69c-10.32,0-18.31-8.98-17.15-19.24,3.11-27.56,5.05-68.27,5.05-104.62v-409.19c0-9.53,7.73-17.26,17.26-17.26h81.49c9.53,0,17.26,7.73,17.26,17.26v134.71ZM1545.33,1949.38c0,68.99,30.57,109.75,78.39,109.75,50.17,0,83.1-45.47,83.1-120.72s-32.92-118.37-83.1-118.37-78.39,39.2-78.39,105.83v23.52Z"/>
    <path d="M2101.93,2129.56c-.23-.86-.46-1.71-.68-2.57-3.08-11.89-17.22-16.82-27.05-9.45-25.44,19.05-56.84,30.17-92.41,30.17-82.31,0-138.75-60.36-138.75-153.65v-240.65c0-9.53,7.73-17.26,17.26-17.26h83.06c9.53,0,17.26,7.73,17.26,17.26v224.97c0,51.74,21.95,79.17,60.36,79.17,41.55,0,69.77-32.14,69.77-93.29v-210.86c0-9.53,7.73-17.26,17.26-17.26h81.49c9.53,0,17.26,7.73,17.26,17.26v264.95c0,51.86,1,78.82,4.58,104.3,1.45,10.35-6.66,19.56-17.11,19.56h-75.67c-7.76,0-14.62-5.17-16.64-12.67Z"/>
    <path d="M2523.2,1591.91h81.49c9.53,0,17.26,7.73,17.26,17.26v409.19c0,36.46,1.95,77.3,4.69,104.87,1.01,10.17-6.95,18.99-17.18,18.99h-71.52c-8.76,0-16.14-6.56-17.15-15.26-.07-.57-.13-1.14-.2-1.72-1.6-13.66-17.64-19.96-28.25-11.22-25.86,21.29-63.37,34.47-100.87,34.47-96.42,0-163.84-87.01-163.84-210.09s67.42-210.09,163.84-210.09c30.27,0,62.41,11.56,86.9,29.53,11.44,8.4,27.55.35,27.55-13.84v-134.83c0-9.53,7.73-17.26,17.26-17.26ZM2505.94,1925.86c0-66.63-29.79-105.83-76.82-105.83-51.74,0-85.45,46.25-85.45,118.37s33.71,120.72,85.45,120.72c46.25,0,76.82-40.76,76.82-109.75v-23.52Z"/>
    <path d="M2931.91,1591.91h81.49c9.53,0,17.26,7.73,17.26,17.26v409.19c0,36.46,1.95,77.3,4.69,104.87,1.01,10.17-6.95,18.99-17.18,18.99h-71.52c-8.76,0-16.14-6.56-17.15-15.26-.07-.57-.13-1.14-.2-1.72-1.6-13.66-17.64-19.96-28.25-11.22-25.86,21.29-63.37,34.47-100.87,34.47-96.42,0-163.84-87.01-163.84-210.09s67.42-210.09,163.84-210.09c30.27,0,62.41,11.56,86.9,29.53,11.44,8.4,27.55.35,27.55-13.84v-134.83c0-9.53,7.73-17.26,17.26-17.26ZM2914.64,1925.86c0-66.63-29.79-105.83-76.82-105.83-51.74,0-85.45,46.25-85.45,118.37s33.71,120.72,85.45,120.72c46.25,0,76.82-40.76,76.82-109.75v-23.52Z"/>
    <path d="M3060.33,1736.15h81.69c7.18,0,13.61,4.45,16.15,11.16l77.36,204.85c5.65,14.97,26.87,14.86,32.36-.17l74.76-204.51c2.49-6.81,8.97-11.34,16.21-11.34h81.87c12.14,0,20.48,12.19,16.1,23.5l-164.13,423.33c-25.87,65.06-59.58,131.7-163.84,131.7-20.76,0-46.88-3.22-68.16-9.22-7.45-2.1-12.59-8.89-12.59-16.63v-56.8c0-11.48,10.99-19.73,22.03-16.59,29.14,8.3,41.97,9.87,54.79,9.87,38.23,0,54.72-33.39,68.78-68.48.14-.34.26-.68.37-1.02l4.53-13.59h-.78l-153.54-382.37c-4.55-11.34,3.8-23.7,16.02-23.7Z"/>
    <path d="M3507.1,1975.95c-52.5-37.3-127.76,55.54-132.35,125.31-2.71,41.15,40.48,70.47,77.88,53.1,46.7-21.69,75.46-81.01,76.45-133.26.34-17.7-7.55-34.89-21.98-45.15Z"/>
  </g>
</svg>