<svg xmlns="http://www.w3.org/2000/svg" width="157" height="65" viewBox="0 0 41.54 17.198"><g style="fill:none"><path fill="#fff" d="M12.151 4.205c-.494 1.875-1.005 3.48-2.247 3.48-.297 0-2.103 5.37-3.355 6.21-1.364.917-2.173-2.714-2.268-3.354-.16-1.05.39-2.856 1.868-6.613C6.562 2.051 7.678.31 9.81.176c1.34-.084 2.832 2.171 2.34 4.029Z"/><path fill="#897363" d="M6.099 13.896s-.442-1.273-.491-2.263c-.05-.99.213-1.586.213-1.586s.312.909 1.478 1.783c1.167.875 1.101.363 1.15.265.05-.1-.017-.677-.263-1.305s-.442-.973-.509-2.245c-.066-1.272.576-2.162.87-2.74.187-.365.062-.948-.056-1.326a2.906 2.916 0 0 1-.099-.284l-.036-.09s.005.008.017.02q-.027-.098-.05-.205c.34.346 1.522 1.21 2.36 1.127.839-.084.935-1.665.935-1.665.23.375.068 1.065.027 1.228.041-.032.103-.082.204-.154.427-.313.643-1.188.643-1.188-.051-.642-.226-1.04-.388-1.282-.133.386-.428.828-.634.887-.433.126-1.507-.56-1.33-.959.064-.143.251-.264.484-.355-.386.067-.658-.005-1.044.067-.2.051-.315.049-.669.237-.432.232-.491.345-.646.489-.541.506-1.173 1.25-1.335 1.544-.317.578-.63 1.217.62 1.403-.295.306-1.148-.099-1.148-.099S5.224 7.176 5.025 9.563c-.2 2.386.811 4.073 1.074 4.337z"/><path fill="#372823" d="M12.045 1.398c-.265-.099-.944-.032-1.42.156-.234.091-.421.212-.485.356-.174.395.897 1.084 1.33.958.206-.06.501-.501.634-.887.094-.274.106-.521-.059-.583m-2.433.218c-.122-.015-.376-.05-.457-.144a.73.73 0 0 0-.68-.215c-.224.05-.342.311-.19.635a.52.52 0 0 1-.02.455c.22-.205.426-.373.578-.455.3-.158.565-.242.77-.28z"/><path fill="#372823" d="M12.493 3.975c.044-.343.012-.6 0-.662v-.015s0 .02-.005.052l.005-.084s-.217.874-.644 1.188l-.204.153c.044-.163.204-.85-.027-1.227 0 0-.096 1.58-.934 1.665s-2.023-.778-2.36-1.127q.023.109.05.205a.265.266 0 0 0-.018-.02s.015.033.037.09q.046.154.098.283c.118.38.244.961.057 1.327-.295.578-.937 1.47-.87 2.74.066 1.272.263 1.618.508 2.245.246.628.312 1.205.263 1.305-.049.098.017.61-1.15-.265-1.168-.874-1.477-1.784-1.477-1.784s-.264.596-.214 1.586c.049.991.491 2.263.491 2.263s-1.529-1.242-1.61-3.73C4.413 7.873 5.748 5.23 5.962 4.82a.66.66 0 0 0 .442.373s-.595-.329-.157-1.603c.435-1.275 1.308-2.41 2.19-2.91.885-.502 1.63-.48 2.45-.126 0 0-1.073-1.013-2.497-.149-.818.497-1.364 1.05-1.738 1.616-.314.057-.698.005-.853.005-.196 0-.498.133-.36.617.132.475.503.954.474 1.22q-.053.285-.042.512c-.19.301-1.07 1.742-1.338 2.888 0 0 .504-5.06-1.04-5.926C1.944.475.7 1.169.284 2.307c-.887 2.436.428 6.24 2.284 9.311s3.616 3.627 4.862 3.68c2.087.092 1.478-.363 2.235-.412.754-.05.641.412 1.89.232.912-.133 1.067-.743.722-1.023-.344-.281-.23-.94.099-2.361.33-1.42-.143-3.92-.472-4.563-.33-.644-.295-.97.054-1.606.344-.622.46-1.017.533-1.588zm-.654.763s-.219.749-.371 1.09c-.135.301-.177.276-.275.311.037-.094.063-.215.11-.422.06-.25 0-.314 0-.314-.076.37-.194.637-.295.81-.13.044-.29.072-.405.025-.165-.067-.192-.843-.192-.887.715.05 1.096-.242 1.43-.618z"/></g><path d="M74.038 20.539h-1.985v6.932h1.985a1.13 1.13 0 0 0 1.137-1.138V21.65a1.13 1.13 0 0 0-1.137-1.138zm-.238 6.085h-.82V21.36h.82c.29 0 .423.212.423.53v4.18c0 .344-.132.529-.423.529z" class="st3" style="fill:#cf3d16;stroke-width:.264585" transform="matrix(1.16878 0 0 1.173 -68.033 -20.427)"/><path d="M78.536 23.582a1.03 1.03 0 0 0 .185-.609v-1.296c0-.609-.503-1.112-1.111-1.138h-1.773v6.932h2.01c.16 0 .345-.08.345-.08.423-.185.714-.582.714-1.058v-1.931c0-.291-.132-.582-.37-.794zm-.741-.847c0 .37-.132.529-.424.529h-.582v-1.905h.582c.265 0 .424.212.424.53v.82zm-1.032 1.35h.74c.265 0 .477.184.477.528v1.482c0 .318-.185.53-.423.53h-.794zm4.497-1.773h-1.03c-.45 0-.847.37-.847.846v3.466c0 .476.37.847.847.847h1.879s0-.82-.635-.82h-1.165v-1.323h1.8v-2.143a.836.836 0 0 0-.847-.847zm-.105.846v1.297h-.873v-1.297h.847zm3.281-.846H83.35c-.635 0-.635.82-.635.82h1.64v.82h-.952c-.45 0-.847.37-.847.847v1.799c0 .476.37.846.847.846h1.879v-4.286a.836.836 0 0 0-.847-.846zm-.106 2.487v1.825h-.847v-1.799h.847zm2.514.608-.582-3.095h-.9l.952 5.132h1.032l.953-5.132h-.873Zm6.456-3.095h-.794c-.477.052-.82.396-.82.846v4.286h.926v-4.021c0-.318 0-.318.238-.318h.397c.502 0 .502-.82.502-.82h-.45z" class="st1" style="fill:#382923;stroke-width:.264585" transform="matrix(1.16878 0 0 1.173 -68.033 -20.427)"/><path d="M83.483 26.36v.264h.265a.265.265 0 0 1-.265-.264m-3.175 0v.264h.265a.265.265 0 0 1-.265-.264m3.414-1.561h-.265v.264c0-.132.106-.264.265-.264m-3.176-1.667h-.264v.264c0-.132.106-.264.264-.264m.609.264v-.264h-.265c.133 0 .265.106.265.264m3.175 0v-.264h-.265c.133 0 .265.106.265.264m6.06-1.084h-1.033c-.45 0-.847.37-.847.846v3.466c0 .476.37.847.847.847h1.879s0-.82-.635-.82h-1.164v-1.323h1.799v-2.143a.836.836 0 0 0-.847-.847zm-.08.846v1.297h-.873v-1.297h.846z" class="st1" style="fill:#382923;stroke-width:.264585" transform="matrix(1.16878 0 0 1.173 -68.033 -20.427)"/><path d="M89.437 26.36v.264h.264a.265.265 0 0 1-.264-.264m.264-3.228h-.264v.264c0-.132.105-.264.264-.264m3.069 0h-.264v.264c0-.132.106-.264.264-.264m-2.46.264v-.264h-.265c.132 0 .265.106.265.264" class="st1" style="fill:#382923;stroke-width:.264585" transform="matrix(1.16878 0 0 1.173 -68.033 -20.427)"/></svg>
