<svg xmlns="http://www.w3.org/2000/svg" width="47" height="56" viewBox="0 0 47 56" fill="none"><path fill="#fff" d="M44.778 15.227c-1.82 6.884-3.705 12.78-8.28 12.78-1.095 0-7.753 19.719-12.363 22.803-5.028 3.365-8.008-9.969-8.361-12.318-.589-3.855 1.44-10.485 6.884-24.281C24.18 7.318 28.292.923 36.155.433 41.09.125 46.59 8.406 44.778 15.227"/><path fill="#897363" d="M22.475 50.809s-1.63-4.671-1.811-8.309.788-5.823.788-5.823 1.15 3.338 5.444 6.549c4.302 3.21 4.058 1.333 4.239.97.181-.362-.064-2.485-.97-4.789s-1.63-3.573-1.874-8.244c-.245-4.672 2.12-7.937 3.206-10.06.689-1.342.227-3.482-.208-4.87a11 11 0 0 1-.363-1.043c-.081-.209-.135-.327-.135-.327s.018.027.063.073c-.063-.245-.127-.49-.181-.753 1.25 1.27 5.607 4.444 8.696 4.136s3.442-6.113 3.442-6.113c.851 1.378.253 3.909.1 4.508.153-.118.38-.3.751-.563 1.576-1.152 2.373-4.363 2.373-4.363-.19-2.358-.833-3.818-1.43-4.707-.49 1.415-1.577 3.038-2.338 3.256-1.594.463-5.552-2.059-4.9-3.52.235-.525.924-.97 1.784-1.305-1.422.245-2.427-.018-3.85.245-.733.19-1.159.181-2.463.87-1.594.853-1.812 1.27-2.383 1.796-1.992 1.86-4.32 4.59-4.918 5.67-1.168 2.122-2.319 4.47 2.283 5.151-1.087 1.125-4.23-.363-4.23-.363s-4.34 7.257-5.073 16.019 2.99 14.956 3.958 15.927z"/><path fill="#372823" d="M44.387 4.922c-.978-.363-3.478-.118-5.236.571-.86.336-1.549.78-1.784 1.307-.643 1.45 3.306 3.981 4.9 3.519.761-.218 1.848-1.841 2.337-3.256.345-1.007.39-1.914-.217-2.141m-8.965.798c-.453-.055-1.386-.182-1.685-.527-.67-.752-1.74-.961-2.51-.789-.823.182-1.258 1.143-.697 2.331.254.536.19 1.18-.072 1.67.806-.753 1.567-1.37 2.129-1.67 1.105-.58 2.083-.888 2.835-1.025z"/><path fill="#372823" d="M46.036 14.383c.163-1.26.046-2.204 0-2.43v-.055s0 .072-.018.19l.018-.308s-.797 3.21-2.373 4.363c-.362.272-.598.444-.752.562.163-.598.752-3.12-.1-4.508 0 0-.352 5.805-3.441 6.114-3.09.308-7.455-2.857-8.696-4.136.054.263.118.517.181.752a1 1 0 0 0-.063-.072s.054.118.135.326c.11.381.236.726.363 1.043.435 1.397.897 3.529.208 4.871-1.087 2.123-3.45 5.397-3.206 10.06.244 4.67.969 5.94 1.875 8.244.905 2.304 1.15 4.426.969 4.79-.181.362.063 2.24-4.24-.971-4.302-3.211-5.443-6.55-5.443-6.55s-.97 2.187-.788 5.824c.18 3.637 1.811 8.308 1.811 8.308s-5.634-4.562-5.933-13.696c-.28-8.408 4.638-18.113 5.426-19.619.326.699.87 1.161 1.63 1.37 0 0-2.192-1.207-.58-5.887 1.604-4.68 4.82-8.843 8.072-10.685 3.26-1.84 6.005-1.76 9.03-.462 0 0-3.958-3.719-9.203-.544-3.016 1.823-5.027 3.854-6.404 5.932-1.159.208-2.572.018-3.143.018-.724 0-1.838.49-1.331 2.267.489 1.742 1.857 3.501 1.748 4.481-.127.698-.181 1.324-.154 1.878-.698 1.106-3.94 6.394-4.928 10.603 0 0 1.857-18.576-3.831-21.76-5.716-3.165-10.3-.617-11.83 3.565-3.27 8.943 1.576 22.911 8.415 34.186C16.299 53.72 22.784 55.762 27.377 55.96c7.69.336 5.444-1.333 8.234-1.514 2.78-.182 2.364 1.514 6.965.852 3.36-.49 3.931-2.73 2.663-3.755-1.268-1.034-.851-3.456.363-8.671s-.526-14.395-1.74-16.753c-1.213-2.367-1.087-3.565.2-5.896 1.268-2.285 1.694-3.736 1.965-5.832l.01-.009Zm-2.409 2.803s-.806 2.748-1.368 4c-.498 1.107-.652 1.016-1.014 1.143.136-.345.235-.79.407-1.551.218-.916 0-1.152 0-1.152-.28 1.36-.715 2.34-1.087 2.975-.48.163-1.069.263-1.494.09-.607-.244-.707-3.092-.707-3.256 2.636.182 4.04-.889 5.272-2.267z"/></svg>
