<svg xmlns="http://www.w3.org/2000/svg" fill="none" viewBox="0 0 241 44"><path fill="#4D6BFE" d="M57.25 3.64c-.61-.31-.88.27-1.24.57-.12.09-.22.22-.33.33-.89.98-1.94 1.62-3.31 1.54-1.99-.11-3.7.53-5.21 2.08-.32-1.92-1.39-3.06-3.01-3.8-.85-.38-1.7-.76-2.3-1.59-.41-.6-.53-1.26-.73-1.91-.14-.39-.27-.79-.71-.86-.48-.07-.67.34-.86.68-.75 1.41-1.05 2.96-1.02 4.52.07 3.53 1.53 6.34 4.43 8.34.33.22.42.45.31.79-.19.69-.43 1.35-.64 2.04-.13.44-.33.54-.79.35-1.59-.68-2.97-1.68-4.19-2.9-2.06-2.03-3.93-4.28-6.26-6.04-.54-.41-1.09-.79-1.66-1.15-2.37-2.35.32-4.28.94-4.51.65-.24.22-1.06-1.88-1.06-2.1.01-4.02.73-6.48 1.69-.35.14-.73.25-1.12.33-2.22-.43-4.53-.52-6.95-.25C9.7 3.35 6.07 5.54 3.4 9.27.19 13.76-.56 18.87.36 24.19c.97 5.61 3.78 10.25 8.1 13.88 4.48 3.77 9.64 5.61 15.52 5.26 3.58-.21 7.56-.7 12.04-4.57 1.14.57 2.32.8 4.29.98 1.52.14 2.98-.08 4.12-.32 1.77-.38 1.65-2.05 1-2.36-5.19-2.46-4.05-1.46-5.09-2.27 2.64-3.19 6.62-6.49 8.18-17.2.12-.85.02-1.39 0-2.08-.01-.42.08-.58.55-.63 1.31-.15 2.57-.51 3.73-1.16 3.36-1.88 4.72-4.95 5.04-8.64.05-.57-.01-1.15-.59-1.44ZM27.91 36.83c-5.03-4.03-7.47-5.36-8.48-5.3-.94.06-.78 1.15-.57 1.87.22.71.5 1.2.9 1.82.27.41.46 1.02-.28 1.48-1.62 1.02-4.44-.35-4.57-.41-3.28-1.97-6.02-4.57-7.96-8.13-1.86-3.42-2.95-7.09-3.13-11-.04-.95.23-1.28 1.15-1.46 1.22-.22 2.47-.27 3.69-.09 5.14.76 9.51 3.1 13.18 6.81 2.1 2.11 3.68 4.64 5.31 7.1 1.74 2.62 3.6 5.11 5.98 7.16.84.72 1.51 1.26 2.15 1.66-1.93.22-5.16.27-7.37-1.51Zm2.42-15.81c0-.42.33-.76.74-.76.1 0 .18.02.26.05.1.04.2.1.27.18.13.14.21.33.21.53 0 .42-.33.75-.75.75-.41 0-.73-.33-.73-.75Zm7.49 3.91c-.48.21-.96.38-1.42.4-.72.03-1.5-.26-1.92-.62-.66-.57-1.13-.88-1.33-1.87-.09-.42-.04-1.07.04-1.44.17-.8-.02-1.32-.58-1.79-.45-.38-1.03-.49-1.66-.49-.23 0-.45-.1-.61-.19-.27-.13-.48-.46-.28-.88.07-.13.39-.45.47-.51.85-.5 1.84-.34 2.76.04.85.35 1.49 1 2.41 1.92.95 1.11 1.12 1.41 1.65 2.24.43.65.81 1.32 1.08 2.09.16.47-.05.87-.61 1.1ZM143.32 34.23h-2.49v-3.86h2.49c1.54 0 3.1-.38 4.11-1.45 1.01-1.07 1.38-2.71 1.38-4.35 0-1.63-.37-3.27-1.38-4.34-1.01-1.07-2.57-1.45-4.11-1.45-1.55 0-3.1.38-4.11 1.45-1.02 1.07-1.38 2.71-1.38 4.34v15.87h-4.37V14.92h4.37v1.62h.8c.08-.09.17-.18.27-.27 1.09-1 2.76-1.35 4.42-1.35 2.57 0 5.16.64 6.85 2.42 1.68 1.78 2.29 4.52 2.29 7.24 0 2.71-.61 5.45-2.29 7.23-1.69 1.79-4.28 2.42-6.85 2.42ZM76.79 15.59h2.49v3.86h-2.49c-1.54 0-3.1.38-4.11 1.46-1.01 1.07-1.38 2.71-1.38 4.34s.37 3.27 1.38 4.34c1.01 1.07 2.57 1.46 4.11 1.46 1.55 0 3.1-.39 4.11-1.46 1.02-1.07 1.38-2.71 1.38-4.34V9.39h4.37v25.52h-4.37v-1.63h-.8c-.08.1-.17.19-.27.27-1.09 1-2.76 1.36-4.42 1.36-2.57 0-5.16-.64-6.85-2.43-1.68-1.78-2.29-4.51-2.29-7.23 0-2.72.61-5.45 2.29-7.24 1.69-1.78 4.28-2.42 6.85-2.42ZM108.59 24.91v1.55H96.95v-3.1h7.72c-.18-1.13-.59-2.18-1.31-2.94-1.06-1.11-2.67-1.51-4.28-1.51-1.6 0-3.22.4-4.27 1.51-1.05 1.1-1.43 2.8-1.43 4.49 0 1.69.38 3.39 1.43 4.5 1.05 1.11 2.67 1.5 4.27 1.5 1.61 0 3.22-.39 4.28-1.5.15-.16.28-.33.4-.51h4.32c-.37 1.34-.98 2.55-1.88 3.5-1.75 1.85-4.45 2.51-7.12 2.51s-5.36-.66-7.11-2.51c-1.76-1.85-2.39-4.68-2.39-7.49 0-2.81.63-5.64 2.39-7.49 1.75-1.84 4.44-2.5 7.11-2.5s5.37.66 7.12 2.5c1.76 1.85 2.39 4.68 2.39 7.49ZM130.52 24.91v1.55h-11.64v-3.1h7.73c-.18-1.13-.59-2.18-1.32-2.94-1.05-1.11-2.66-1.51-4.27-1.51-1.6 0-3.22.4-4.27 1.51-1.05 1.1-1.43 2.8-1.43 4.49 0 1.69.38 3.39 1.43 4.5 1.05 1.11 2.67 1.5 4.27 1.5 1.61 0 3.22-.39 4.27-1.5.15-.16.29-.33.41-.51h4.32c-.38 1.34-.98 2.55-1.88 3.5-1.76 1.85-4.45 2.51-7.12 2.51s-5.36-.66-7.12-2.51c-1.75-1.85-2.38-4.68-2.38-7.49 0-2.81.63-5.64 2.38-7.49 1.76-1.84 4.45-2.5 7.12-2.5s5.36.66 7.12 2.5c1.75 1.85 2.38 4.68 2.38 7.49ZM164.9 34.91c2.67 0 5.36-.39 7.11-1.48 1.76-1.09 2.39-2.76 2.39-4.42 0-1.66-.63-3.33-2.39-4.42-1.75-1.09-4.44-1.48-7.11-1.48h.09c-1.14 0-2.29-.15-3.03-.58-.75-.42-1.02-1.07-1.02-1.71 0-.65.27-1.29 1.02-1.72.74-.42 1.89-.57 3.03-.57s2.29.15 3.04.57c.75.43 1.01 1.07 1.01 1.72h4.45c0-1.66-.57-3.33-2.15-4.42-1.59-1.09-4.02-1.48-6.44-1.48-2.42 0-4.85.39-6.44 1.48-1.59 1.09-2.16 2.76-2.16 4.42 0 1.66.57 3.33 2.16 4.42 1.59 1.09 4.02 1.48 6.44 1.48 1.26 0 2.63.15 3.46.57.83.42 1.12 1.07 1.12 1.72 0 .64-.29 1.29-1.12 1.71-.83.42-2.1.58-3.36.58-1.26 0-2.53-.16-3.35-.58-.83-.42-1.13-1.07-1.13-1.71h-5.12c0 1.66.63 3.33 2.38 4.42 1.75 1.09 4.44 1.48 7.12 1.48ZM196.33 24.91v1.55h-11.64v-3.1h7.73c-.18-1.13-.59-2.18-1.32-2.94-1.05-1.11-2.66-1.51-4.27-1.51-1.6 0-3.22.4-4.27 1.51-1.05 1.1-1.43 2.8-1.43 4.49 0 1.69.38 3.39 1.43 4.5 1.05 1.11 2.67 1.5 4.27 1.5 1.61 0 3.22-.39 4.27-1.5.15-.16.29-.33.41-.51h4.32c-.38 1.34-.98 2.55-1.88 3.5-1.76 1.85-4.45 2.51-7.12 2.51s-5.36-.66-7.12-2.51c-1.75-1.85-2.38-4.68-2.38-7.49 0-2.81.63-5.64 2.38-7.49 1.76-1.84 4.45-2.5 7.12-2.5s5.36.66 7.12 2.5c1.75 1.85 2.38 4.68 2.38 7.49ZM218.27 24.91v1.55h-11.64v-3.1h7.73c-.19-1.13-.59-2.18-1.32-2.94-1.05-1.11-2.67-1.51-4.27-1.51-1.6 0-3.22.4-4.27 1.51-1.06 1.1-1.43 2.8-1.43 4.49 0 1.69.37 3.39 1.43 4.5 1.05 1.11 2.67 1.5 4.27 1.5 1.6 0 3.22-.39 4.27-1.5.15-.16.28-.33.41-.51h4.32c-.38 1.34-.98 2.55-1.89 3.5-1.75 1.85-4.44 2.51-7.11 2.51s-5.37-.66-7.12-2.51c-1.75-1.85-2.38-4.68-2.38-7.49 0-2.81.63-5.64 2.38-7.49 1.75-1.84 4.45-2.5 7.12-2.5s5.36.66 7.11 2.5c1.76 1.85 2.39 4.68 2.39 7.49ZM221.211 8.5h4.371v26.416h-4.371zM233.04 24.31l7.17 10.6h-5.42l-7.17-10.6 7.17-8.5h5.42l-7.17 8.5Z"/></svg>