<svg xmlns="http://www.w3.org/2000/svg" xml:space="preserve" fill-rule="evenodd" stroke-linejoin="round" stroke-miterlimit="2" clip-rule="evenodd" viewBox="0 0 1366 441"><path fill="#fff" d="M230.227.242c121.29 5.642 215.181 108.695 209.539 229.985-5.642 121.29-108.695 215.18-229.985 209.538C88.491 434.122-5.401 331.071.242 209.781 5.884 88.491 108.937-5.4 230.227.242Zm51.437 264.904c-13.886-.683-27.595-3.003-38.617-4.846-8.381-1.402-16.33-3.611-22.856-5.852a2.577 2.577 0 0 0-2.932.879c-.678.906-.776 2.221-.019 3.061 3.08 3.418 12.85 10.538 20.442 13.807-6.49 5.358-10.928 17.61-12.677 23.953-2.347 8.511-2.681 20.801-2.113 25.312 2.287 18.145 8.96 34.406 25.48 48.632 11.565 9.957 28.299 16.763 45.403 17.068 23.603.42 51.878-9.72 74.075-32.513 29.019-31.815 48.031-73.183 51.56-119.405 8.404-110.062-74.129-206.241-184.191-214.645-110.061-8.405-206.24 74.129-214.644 184.19-4.352 56.998 15.684 110.275 51.307 149.56a3.186 3.186 0 0 0 5.421-2.976c-26.418-103.478 30.89-215.167 94.856-250.516 23.748-13.124 46.878-18.113 67.66-9.709 31.818 12.865 50.009 34.196 89.388 52.138 39.38 17.94 43.639 47.85 32.662 78.088-10.977 30.239-46.345 45.437-80.205 43.774Zm-68.906-160.059c-12.906 1.01-21.38 16.984-22.489 27.26-1.115 10.275 3.985 27.234 20.801 26.903 19.693-.388 25.676-17.245 23.516-33.555-1.622-12.25-11.039-21.453-21.828-20.608Zm713.37 114.487c0 6.451 0 15.726-1.213 18.951H786.613c6.45 23.389 25 37.907 50.401 37.907 20.969.402 36.291-8.872 47.176-22.181l34.274 31.858c-16.934 21.371-45.561 37.096-85.078 37.096-57.658 0-101.206-40.322-101.206-102.016 0-59.676 41.53-101.211 97.578-101.211 57.658 0 96.37 41.938 96.37 99.596Zm-94.76-53.225c-21.366 0-38.305 11.695-44.353 34.275h86.694c-5.244-20.562-19.354-34.275-42.341-34.275Zm233.462-46.371c42.344 0 71.772 22.585 71.772 83.065V319.98h-52.821V216.349c0-37.5-13.301-49.19-37.903-49.19-26.603 0-44.752 18.544-44.752 53.628v99.193h-52.821V123.204h52.821v25.407h.803c16.127-18.95 38.716-28.633 62.901-28.633Zm195.968 203.227c-62.494 0-104.432-42.743-104.432-101.613s41.938-101.614 104.432-101.614c61.296 0 104.839 41.133 104.839 101.614s-43.543 101.613-104.839 101.613Zm0-47.18c28.626 0 51.215-22.58 51.215-54.433 0-32.256-21.776-54.433-51.215-54.433-30.647 0-51.205 23.385-51.205 54.433 0 30.645 21.371 54.433 51.205 54.433Zm-720.63 43.955V119.978h72.303c63.265 0 103.936 41.128 103.936 100.283 0 58.873-38.129 99.719-103.089 99.719h-73.15Zm51.968-47.607h17.511c30.503 0 50.555-23.38 50.555-52.112 0-29.86-20.334-52.676-46.601-52.676h-21.465v104.788Z"/></svg>