<svg xmlns="http://www.w3.org/2000/svg" xml:space="preserve" fill-rule="evenodd" stroke-linejoin="round" stroke-miterlimit="2" clip-rule="evenodd" viewBox="0 0 1326 401"><path d="M886.367 199.558c0 6.451 0 15.726-1.213 18.951H746.852c6.45 23.389 24.999 37.907 50.401 37.907 20.969.402 36.291-8.872 47.176-22.181l34.274 31.858c-16.934 21.371-45.561 37.096-85.078 37.096-57.659 0-101.207-40.322-101.207-102.016 0-59.676 41.531-101.211 97.579-101.211 57.658 0 96.37 41.938 96.37 99.596Zm-94.76-53.225c-21.366 0-38.305 11.695-44.353 34.275h86.693c-5.243-20.562-19.354-34.275-42.34-34.275Zm233.463-46.371c42.34 0 71.77 22.585 71.77 83.065v116.937h-52.82V196.333c0-37.5-13.3-49.19-37.9-49.19-26.606 0-44.755 18.544-44.755 53.628v99.193h-52.822V103.188h52.822v25.407h.803c16.126-18.95 38.712-28.633 62.902-28.633Zm195.97 203.227c-62.5 0-104.43-42.743-104.43-101.613s41.93-101.614 104.43-101.614c61.29 0 104.84 41.133 104.84 101.614s-43.55 101.613-104.84 101.613Zm0-47.18c28.62 0 51.21-22.58 51.21-54.433 0-32.256-21.77-54.433-51.21-54.433-30.65 0-51.21 23.385-51.21 54.433 0 30.645 21.37 54.433 51.21 54.433Zm-720.633 43.955V99.962h72.302c63.266 0 103.936 41.128 103.936 100.283 0 58.873-38.128 99.719-103.088 99.719h-73.15Zm51.968-47.607h17.511c30.503 0 50.555-23.38 50.555-52.112 0-29.86-20.335-52.676-46.602-52.676h-21.464v104.788Zm-290.691-7.208c33.861 1.662 69.225-13.535 80.203-43.776 10.978-30.241 6.721-60.148-32.661-78.086-39.381-17.944-57.569-39.272-89.385-52.14-20.787-8.408-43.915-3.418-67.664 9.707-63.963 35.351-121.274 147.038-94.858 250.518a3.185 3.185 0 0 1-1.544 3.615 3.189 3.189 0 0 1-3.877-.64C16.282 295.06-3.759 241.788.593 184.791 8.998 74.728 105.178-7.806 215.241.599 325.296 9.003 407.83 105.182 399.425 215.245c-3.529 46.221-22.535 87.584-51.559 119.399-22.195 22.8-50.473 32.935-74.07 32.516-17.107-.303-33.839-7.112-45.409-17.066-16.516-14.228-23.191-30.485-25.474-48.635-.572-4.507-.236-16.797 2.112-25.309 1.745-6.343 6.185-18.599 12.676-23.957-7.595-3.266-17.361-10.388-20.446-13.805-.753-.838-.652-2.156.026-3.057a2.56 2.56 0 0 1 2.925-.88c6.528 2.239 14.477 4.444 22.86 5.851 11.021 1.844 24.729 4.159 38.618 4.847ZM192.777 85.086c10.789-.846 20.202 8.363 21.825 20.609 2.164 16.314-3.822 33.166-23.511 33.554-16.819.335-21.915-16.625-20.8-26.9 1.107-10.275 9.577-26.25 22.486-27.263Z"/></svg>