<svg xmlns="http://www.w3.org/2000/svg" xml:space="preserve" fill-rule="evenodd" stroke-linejoin="round" stroke-miterlimit="2" clip-rule="evenodd" viewBox="0 0 441 441"><path fill="#fff" d="M229.858-2.62c121.29 5.675 215.154 108.755 209.479 230.045S330.582 442.578 209.292 436.903-5.863 328.149-.188 206.859 108.568-8.296 229.858-2.62Zm51.365 264.922c-13.886-.687-27.594-3.012-38.616-4.857-8.381-1.404-16.33-3.616-22.855-5.858a2.576 2.576 0 0 0-2.932.878c-.678.905-.777 2.22-.02 3.061 3.08 3.418 12.848 10.54 20.439 13.812-6.491 5.357-10.933 17.608-12.684 23.95-2.35 8.51-2.687 20.801-2.12 25.312 2.282 18.146 8.95 34.41 25.467 48.64 11.562 9.96 28.295 16.77 45.399 17.08 23.603.426 51.882-9.705 74.085-32.493 29.028-31.807 48.051-73.17 51.593-119.393 8.434-110.06-74.073-206.264-184.134-214.698C124.785 9.302 28.582 91.81 20.147 201.87c-4.368 56.998 15.655 110.28 51.267 149.576a3.185 3.185 0 0 0 5.422-2.974c-26.39-103.487 30.95-215.162 94.926-250.494 23.751-13.118 46.884-18.1 67.664-9.69 31.814 12.874 50 34.21 89.375 52.163 39.375 17.951 43.625 47.862 32.64 78.098-10.986 30.236-46.358 45.425-80.218 43.753Zm-68.863-160.08c-12.906 1.006-21.384 16.978-22.497 27.253-1.117 10.275 3.978 27.236 20.794 26.91 19.694-.383 25.681-17.238 23.525-33.55-1.618-12.25-11.033-21.456-21.822-20.613Z"/></svg>