<svg width="32" height="32" viewBox="0 0 32 32" fill="none" xmlns="http://www.w3.org/2000/svg">
<g clip-path="url(#clip0_2_85)">
<path d="M30.6667 1.33334H1.33334V29.8667H30.6667V1.33334Z" fill="#260C00"/>
<path fill-rule="evenodd" clip-rule="evenodd" d="M0 0V31.2H32V0H0ZM1.33333 1.33333H30.6667V29.8667H1.33333V1.33333Z" fill="#FF6000"/>
<path d="M24.3067 22.84H7.69334C6.70667 22.84 6.4 22.52 6.4 21.5333V9.48001C6.4 8.49334 6.72 8.17334 7.69334 8.17334H24.2933C25.28 8.17334 25.5867 8.49334 25.5867 9.48001V21.5467C25.6 22.52 25.28 22.84 24.3067 22.84ZM7.69334 8.70667C7.01333 8.70667 6.93333 8.78667 6.93333 9.48001V21.5467C6.93333 22.24 7.01333 22.32 7.69334 22.32H24.2933C24.9733 22.32 25.0533 22.24 25.0533 21.5467V9.48001C25.0533 8.78667 24.9733 8.70667 24.2933 8.70667H7.69334Z" fill="#FEDCCA"/>
<path d="M7.60001 21.64H15.7333V9.37335H7.60001V21.64ZM8.93334 12.4H14.8V12.6667H8.93334V12.4ZM8.93334 13.6134H14.8V13.88H8.93334V13.6134ZM8.93334 14.8H14.8V15.0667H8.93334V14.8ZM8.93334 16H14.8V16.2667H8.93334V16ZM8.93334 17.2134H14.8V17.48H8.93334V17.2134ZM8.93334 18.4H14.8V18.6667H8.93334V18.4Z" fill="#FF6000"/>
<path d="M21.16 9.37335H16.2667V21.64H24.4V12.56L21.16 9.37335ZM17.24 12.3334H20.5067V12.6H17.24V12.3334ZM17.24 13.5467L23.0533 13.5734V13.84L17.24 13.8134V13.5467ZM23.1067 18.6H17.2267V18.3334H23.1067V18.6ZM23.1067 17.4134H17.2267V17.1467H23.1067V17.4134ZM23.1067 16.2H17.2267V15.9334H23.1067V16.2ZM23.1067 15H17.2267V14.7334H23.1067V15ZM21.1067 12.6134V9.65335L24.1333 12.6134H21.1067Z" fill="#FF6000"/>
</g>
<defs>
<clipPath id="clip0_2_85">
<rect width="32" height="31.2" fill="white"/>
</clipPath>
</defs>
</svg>
