<svg xmlns="http://www.w3.org/2000/svg" xmlns:xlink="http://www.w3.org/1999/xlink" xml:space="preserve" id="Layer_1" x="0" y="0" style="enable-background:new 0 0 496 496" version="1.1" viewBox="0 0 496 496"><style>.st0{fill:#cb9e1e}.st1{fill:#ebc46a}.st2{fill:#9e7a2c}.st3{clip-path:url(#SVGID_2_)}.st4{fill:#604d25}.st5{fill:#f9df9d}.st7{fill:#dcd5b8}.st9{fill:#cda01f}.st10{fill:#fff}</style><circle cx="248" cy="248" r="248" class="st0"/><path d="M265 488.4c3-4.2 9-11.3 19-17.8 39-10 74.4-31.6 102.6-62.4 39.3-43 61-99.7 61-159.8 0-60-21.7-116.8-61-159.7a207 207 0 0 0-146-68.7h-.2A227.3 227.3 0 0 0 84.1 89.1a227 227 0 0 0-61.4 120.8c-6 16-13 30.2-17 34.8 1-62 25.3-120.6 68.6-165.1A240.9 240.9 0 0 1 240.5 6.3c59.3 2 114.7 27.9 156.2 73.1a249.1 249.1 0 0 1 64.5 169c0 63.5-22.9 123.5-64.5 169a220.3 220.3 0 0 1-131.7 71z" class="st1"/><path d="M496 248A248 248 0 0 0 240.5.1C366.2 4.1 467 113.5 467 248S366.2 492 240.5 495.9l7.5.1c137 0 248-111 248-248z" class="st2"/><defs><circle id="SVGID_1_" cx="248" cy="248" r="248"/></defs><clipPath id="SVGID_2_"><use xlink:href="#SVGID_1_" style="overflow:visible"/></clipPath><g class="st3"><path d="M325.5 431.1a86.4 86.4 0 0 1-53.3-.9c-5.5 18-9.8 38.3-17.4 55.5a26.5 26.5 0 0 1-6.7 10.3c-4.4 3.6-10.5 4-16.2 4.2-46 1-92.4-12.3-131-37.6a357.8 357.8 0 0 1-37-28.9c-11.2-9.6-22-19.6-30.7-31.5C16.5 379 9.6 350.5 3.1 322.8c-3.4-14.2-6.7-29.4-1.5-43 2.7-7 7.4-13 11-19.5 7-12.5 10.2-26.9 15.5-40.3 9.4-24 27.7-45.2 43.7-65.4 14.9-36.8 40.6-70.3 68-99 13-13.7 27.4-26.8 45.2-32.9 3.8-1.2 7.8-2.2 11.6-1.3 7 1.6 11.3 8.8 12.3 15.8s-.7 14-1.6 21c-2 15.3-.7 31 4.2 45.7.6 1.8 1.3 3.7 2.9 4.9 1.6 1.2 4 1.3 6 1.3 8.6 0 18-.4 26.6-.4a215.4 215.4 0 0 1 96-68.9c1.8-.6 3.8-1.2 5.6-.5 2.2.8 3.2 3.4 3.9 5.7 5.2 18.2 3.6 37.5 1.6 56.3a765 765 0 0 1-16.9 98.6c-1.3 5.6-4.3 11.3-4.4 17-.2 5 2.2 10.1 2.9 15.1 3.2 25-4.6 54.9-13.6 78.4 5.3 11.9 27.1 53.7 28 65.5 1.1 13.5 0 26.5-4.3 39.3-1.8 5-9.2 19-20.3 15z" class="st1"/></g><g class="st3"><path d="M276 147.4a273.7 273.7 0 0 1 63.5-92c.7-.7 1.6-1.4 2.5-1 .5.2.7.8.9 1.2 1 2.6 1.2 5.4 1.4 8.1 3 46.2-8.2 92-19.2 136.9-2.8-2-4.6-5-6.5-7.9a175.7 175.7 0 0 0-41.6-45" class="st2"/></g><g class="st3"><path d="M211.3 155.1c-9.9-28.1-17.4-58-14.4-87.7.8-8 2.3-16 1-23.8a6 6 0 0 0-1.1-2.9c-1.1-1.4-3.1-1.6-4.9-1.6-9.1.2-18 4-25.3 9.4s-13.3 12.5-19 19.7c-15.8 20.3-29.2 42.6-38.1 66.8S96 185 97.9 210.8c.2 4 1 8.5 4.1 11 4.6 3.5 11.2.8 16.1-2.3 18.5-12 33.4-29.6 53.5-38.7 7.5-3.3 15.6-5.4 23-9 7.3-3.6 13.9-9 16.7-16.7z" class="st2"/></g><g class="st3"><path d="M313.7 288.6c-2.7-5.5-6.2-11-8.8-16.5a5 5 0 0 1-.7-2.3c0-.6.3-1.3.6-1.9 3.6-7 11-11.9 19-12.4 1.3 11.6-3 23.8-10.1 33z" class="st4"/></g><g class="st3"><path d="M215.2 215.7a113 113 0 0 1 34.5 26.8c6.6 7.5 13.4 16.6 23.4 17.2 10.1.6 18.2-8 24.6-16l25.3-31-8.2 1.1-1.7-12.2c-3 1-5.9 2.5-8.3 4.6l-2.7-20.6-7.8 10a48 48 0 0 0-3.5-9.7l-5.2 5.8a83.7 83.7 0 0 1-18.6-32l-.6 13.5c-4.6-5.6-8.8-11.6-12.5-17.9l2.9 26.1-10.6-10.2 3.6 16.8c-7.7-6.5-15.1-13.3-22.1-20.4 3.3 9.5 7.1 18.9 11.5 28l-10.7-1c2.7 4 5.8 7.7 9.2 11.1a85 85 0 0 1-19.2 3.7l10.5 5.3c-4.8 0-9 1-13.8 1z" class="st5"/></g><g class="st3"><path d="M192.5 254.1c9-2.4 19-3.4 27.6.4 2.5 1 4.8 2.6 7 4.4 4.4 3.7 8 8.5 10.5 13.8 2.3 5 3.6 10.7 6.5 15.5-4.6.6-9-1.6-13.5-2.3-5.5-1-11.2.3-16.6-1.1a24.4 24.4 0 0 1-12-8.2c-5.5-6.4-8.9-14-9.5-22.5z" class="st4"/></g><path d="m322.1 311.4.8-2-1.6-3.1c-4.6-10-9.3-20.1-13.6-30.3-2.6-5.9-5-12-5.5-18.4-1-12.9 6-25.1 14.9-34.6l-6.2 2.2 3.5-11c-5.1 4.1-10 8.6-14.5 13.4-.7-3.5-.7-7.2 0-10.6-3.6 5-7.8 9.7-12.4 14l-.8-6.6a74.9 74.9 0 0 0-7 13.6l-17.4-14.8.9 8c-5-3.2-9.8-6.7-14.4-10.4l1.3 7.2c-4.8-3.7-10-7-15.5-9.5l6.1 13.7-8.1-1.8c9 9.9 17.7 20.2 23.7 32 6.1 11.9 9.4 25.5 7 38.7-.3 2-.8 4-2.1 5.4a9.3 9.3 0 0 1-4.2 2.4c-7 2.2-14.7.8-22-1-8.4-2.1-16.8-4.8-25-8-10.1-4-20.5-9-26.7-18l.7 5.6a75.1 75.1 0 0 0-19.6-15l2.3 10.4a116 116 0 0 0-13.7-15c-1 3-3 5.9-5.4 8-3-1.6-6-3-9-4.1.5 2.2 1.1 4.7.7 7a17 17 0 0 1-12-1.3l-.1 7c-8-1-16.4-.3-24.1 2.1l8.2 2.5A77.7 77.7 0 0 0 89.7 306l8-1.8c-4.9 6.2-9 13-12.4 20a17 17 0 0 1 5.6-1.8l-5.8 15c3.4-2 6.6-4.1 9.6-6.5a52 52 0 0 0-7.6 25c1.4-1.3 3.1-2.4 5-3L91 370l4.8-3.3a86.1 86.1 0 0 0 .8 32.6l3.8-6.2 11.9 26 3.5-3 6.8 14.3.8-.2c-.2-1.2.9-2.4 2-2.3 3.2 9 7 17.7 11.4 26l3.4-5.4c3 7.8 6.1 15.4 9.6 23l2.4-3.1c3 6.8 3.8 14.6 6.4 21.4 23.6 7.4 48.5 11 73.2 10.4 5.7-.1 11.8-.6 16.2-4.2 3.2-2.7 5-6.6 6.7-10.3 7.6-17.2 12-37.5 17.4-55.5a86.4 86.4 0 0 0 53.3 1c11.1 4 18.5-10 20.3-15A94.9 94.9 0 0 0 350 377c-.9-11.8-22.7-53.6-28-65.5z" class="st3" style="fill:#f8f7df"/><g class="st3"><path d="m299.6 370.6 1-6.8a395 395 0 0 0-3.3-.4c0-.9.7-1.6 1.1-2.4.6-1.2.4-2.7-.5-3.7-1-1-2.4-1.4-3.7-1 .7-3-1-6.2-2.6-9L281 329.6c2.6 13 5.3 26 5.7 39.1l3.7.2-.8 7.8h1.8c.2 2.5 1 5 2.1 7.3.4.8 1 1.7 2 1.6 1 0 1.5-1 1.9-1.8 1.4-3 2.6-6 3.8-9 .7-1.7 1.3-3.8.3-5.3" class="st7"/></g><g class="st3"><path d="M299 390.4c-2.9-4-4.6-8.9-3.2-13.5a16 16 0 0 1 9.6-10.2c3.5-1.3 7.4-1.3 11.2-1.2 9.8.1 19.8.4 29 4a13 13 0 0 1 6.1 4.4c3 4.5.6 10.6-2.2 15.3-3.5 5.8-7.5 11.4-11.8 16.7-2.4 2.8-5.1 5.7-8.7 6.5-4.3 1-8.6-1.2-12.1-3.8a93.5 93.5 0 0 1-18-18.2z" class="st4"/></g><g class="st3"><path d="M239.4 496.3z" style="fill:#916f5d"/><path d="M197.2 378.4c-2.4 3 .6 7.4 3.5 10 9.2 8.5 19 16.2 29.3 23.3a91 91 0 0 1-30.4-13c-8.9-6.7-15.4-17.6-13.7-28.5.2-1.7.6-3.6-.5-4.8-.6-.7-1.4-1-2.2-1.4-3.3-1.8-5-5.7-5.1-9.4-.2-3.8 1-7.5 2-11-3.8 0-7.8 1.2-11 3.5 1-4.1 2.5-8 4.8-11.5-5.8 1.9-11.2 4.6-16.2 8l2.8-9.3c-5 .5-10 2.4-14.2 5.4 1.6-4.9 4.3-9.4 7.7-13.2a56 56 0 0 0-17.7 10.5l-2.3-11-5.5 11c-2.5-1.3-5-2.4-7.6-3.6l3 8.3a96 96 0 0 0-14 11.9 23 23 0 0 1 9-2.7 50.6 50.6 0 0 0-6 19.1l5.5-8c1.4 5 3.4 10 5.8 14.6.5-2.7 1.5-5.2 3-7.5 10 14.1 27 21 43.2 27l71.8 27.2c2.2.8 4.5 1.7 5.8 3.5.8 1.1 1.3 2.4 1.6 3.8 1.2 4.1 2 8.4 2.3 12.7l3.9-3c-1 12-4.2 24-9.4 34.8l4.7-3.2c-2.4 7.8-5.8 15.1-10.1 22a6 6 0 0 1 1.3-1l.3 6a16 16 0 0 0 5.5-3c3.2-2.6 5-6.4 6.7-10.2 7.5-17.2 12-37.5 17.4-55.5a159.2 159.2 0 0 1-55.6-36.6c-5.8-6-11.6-12.3-19.4-15.2z" class="st7"/></g><g class="st3"><path d="M311 423.6A70.9 70.9 0 0 1 271 430l1 .6.1-.4a86.4 86.4 0 0 0 53.3 1l3 .6c.4-1.3.6-2.6.6-4 0-5.1-1.7-10.2-4.7-14.4a37 37 0 0 1-13.4 10.2z" class="st7"/></g><g class="st3"><path d="M274.5 107.7c-.1 0 0 .2 0 .2.2 0 .2-.2.2-.4l.1-4a112 112 0 0 1-11 6.5c.3-1.7.7-3.5 1.2-5.2-3.1.8-6.1 2-9 3.7a18 18 0 0 0 1-4c-2.4 1-5.7 1.8-7.7 3.3-2.3 1.6-1.2 2.8-.4 5.5a46 46 0 0 0 8.2 14c6.6 8 12.9 13.8 19 20.1.5.6 11.7-23 16-33.6-2.9.6-8.8 1.2-11.7 1.7 1.2-2.6 2-5.5 2.2-8.5-2.7-.5-5.5-.2-8 1" class="st9"/></g><g class="st3"><path d="M217 109.8c-1-.1-1.9-.5-2.6-1-1.6-1.2-2.3-3.1-3-5-1-3-1.7-6-2.4-9l-.1-.2c1.2 14.7 4.8 29.1 10.4 42.7 1.1 2.7 2.3 5.4 4.3 7.7-.4-3.7-1.1-7.2-1.8-10.8l-4.8-24.4z" class="st9"/></g><g class="st3"><path d="M63.6 177.7c-9.2 9.9-16 22-19.9 34.9l4-1.7a89.5 89.5 0 0 0-6.1 25.4c2-1 4-2.3 5.5-4a87.2 87.2 0 0 0-1 21.6c1.1-1.2 2.2-2.4 3.2-3.8-.3 8.5 1.5 17 5 24.8-.3-4.5-.7-9 0-13.5.4-3 1.4-6 2.4-8.9 2-5.8 4-11.6 6.2-17.4l-5.2 4c1-8.3 3.1-16.5 6.4-24.1l-8.6 5.1 10.4-23.5c-2.8.6-5.3 2.3-7.6 4l5.6-11.5c-1.7 0-3.4.7-4.7 1.8 2.7-4.6 4.6-9.7 5.6-15" class="st9"/></g><g class="st3"><path d="M32.5 369.8c-1.6-12-2-24-1-35.9l-5.8 6 1.1-30.5-3.5 3.3c.8-9.6 2.2-19 4.3-28.4-3 2.6-5.8 5.6-8.2 8.8a298 298 0 0 1 6-34.7c-2 5.8-4.4 11.5-7.4 16.8-1.7 3-3.6 6-5.4 8.8a26687.2 26687.2 0 0 1-8.3 26.8c0 9 2.1 18.1 4.2 26.9 5.2 22.1 10.7 44.7 21.1 64.7 4.4 6.2 9.3 12 15 17-4-19.3-6.1-39-6.4-58.7l-5.7 9z" class="st9"/></g><g class="st3"><path d="M171 199.2a314 314 0 0 0-27.5 20.4l-.6-3.7c-5.5 5-11 9.9-16.4 15 .5-1.6.5-3.3-.2-4.7a102.5 102.5 0 0 0-14.6 17.5l-1.5-4.4-8.3 12.2-.6-3.8a93.9 93.9 0 0 0-23 42.4c4.7-8.9 12.3-15.9 19.8-22.6l.4 6.6c3.2-4 6.6-7.7 10.4-11a11 11 0 0 1 1.5 3.5c5-6.4 9.7-13 14-20-.3 1.5 0 3 .5 4.5 5.8-5 10.7-11 14.2-17.8l.7 3.8 14.7-16.8 1.7 2.8c4.7-8.4 10-16.3 16.2-23.7" class="st9"/></g><g class="st3"><path d="M318.6 192.7c1.6 2.5 3.2 5 5.3 7a14 14 0 0 0 2.5-5.5c1.7-7 2.8-14 3.8-21.2.2-1-.3-2.5-1.2-2.1-1.3 1-2.7 1.9-4.2 2.5-.8.3-1.8.4-2.3-.2-.2-.4-.3-.8-.3-1.3v-8.1a10 10 0 0 1-5.5 1.7l-.1-10.1c-.5 1.4-2.5 1.7-3.8.8-1.2-.9-1.7-2.4-2-3.9-4.3-15.5-2.7-32.2 2-47.6s12.6-29.7 21-43.5l-.4.4-.5.2a273.7 273.7 0 0 0-56.8 85.6c13.5 15.7 31.4 28 42.5 45.3z" class="st4"/></g><g class="st3"><path d="m211.3 155.1-2.1-6.3c-.4.7-.6 1.4-.8 2.1a33.4 33.4 0 0 1-34.2 22.6c-4-.4-8.8-1.4-11.8 1.4l-4-8.4-5.5 5.1-1.3-7.2h-2.2l.3-13.2-7 7c.4-4.6.3-9-.3-13.6l-5 6.2c-5.4-36.6 6-75.4 30.5-103.2l-1.3.9a102.4 102.4 0 0 0-19 19.6 250.5 250.5 0 0 0-38.1 66.8c-9 24.2-13.5 50.1-11.7 75.8.3 4 1 8.5 4.2 11 4.6 3.6 11.2.9 16-2.3 18.6-12 33.5-29.6 53.6-38.6 7.5-3.4 15.5-5.4 23-9 7.3-3.6 13.9-9 16.7-16.7z" class="st4"/></g><g class="st3"><path d="M143.4 393.9c-.6 17.9 3 36 10.3 52.3l1.5-7.7 9 18.8c.2.6.6 1.2 1.2 1.1.4 0 .6-.4.8-.6l2-2.7c2.8 7.3 6.9 14 11.9 20.1l1.1-4c2.4 1.8 4.2 4.4 6.2 6.6 4 4.7 9 8.4 14.5 11.1 1.3.7 2.9 1.3 4.4 1a677.6 677.6 0 0 0-15.2-30.6l-3.4 5-11.5-21.8c-1 1.8-1.7 3.7-2.3 5.7-1.6-8.6-4.2-17.1-7.6-25.2a19.2 19.2 0 0 0-4.3 8.3l-7.3-22.4-2.4 5.2a305 305 0 0 1-7.7-20.5" class="st7"/></g><g class="st3"><path d="M232.7 260.4c-.5-1 .7-2.1 1.8-2.1 1.2 0 2.2.7 3.1 1.4 3.8 3 7.1 6.7 9.8 10.6-1-9.1-4.1-18.1-8.9-26.2a7.1 7.1 0 0 0-1.2 4 50.2 50.2 0 0 0-17-15.1l1.8 3.6c-6.8-3-14.3-4.8-21.9-4.9 3.4 3 7.2 5.6 11.2 7.7-3.6.3-7.2 1.5-10.1 3.5 12.2 2 25.1 8.5 31.4 17.5z" class="st5"/></g><g class="st3"><path d="M304.3 258.5c-.5-1.7 1.4-5.5 2.2-7 3.3-6.1 8.5-11.3 14.8-14.7-.6 2.3-1.5 4.6-2.9 6.7a35 35 0 0 1 10-5.4c.6-.3 1.6-.2 1.6.4l-.2.5-5.6 7.5c1 0 2 0 3.1.2.6 0 1.2.2 1.3.7l-.1.6c-1.3 2.4-4.7 2.8-7.5 3.5-4.8 1.3-12.2 5-16.8 7z" class="st5"/></g><g class="st3"><path d="M249.2 156.8c2.8 12.5 4.6 25 6.6 37.6a5 5 0 0 1-3-.6c1 3.6 2.2 7.2 3.4 10.9a48 48 0 0 0-10-1.6l4.5 6.2c-3.5-.5-7.1-.6-10.7-.1 1.7 1.1 3.3 2.4 4.8 3.8l-5.7 1.4 17.3 6-1-3.4c2.5 1 5 1.9 7.5 2.6-.4-1-.6-2-.4-3 5 2.7 9.8 6 14.1 9.7.8-4.4 1.2-9 1-13.4a37 37 0 0 1 6.6 5.8c1.6-2.6 3.4-5 5.5-7.2.4 1.7.6 3.4.6 5.1a105 105 0 0 0 8-11 10 10 0 0 1-3.5 1.5c-.7-2.1-1-4.3-1.2-6.5-2.1 1-4.2 2.2-6.2 3.6l-3-11a32.6 32.6 0 0 0-4.2 7.2l-7.3-13.8-3.4 9.9a399.8 399.8 0 0 1-20.3-39.7z" class="st9"/></g><g class="st3"><path d="M309 388.5c-1-1-4-2.8-5.3-3.5-.2 0-.4-.2-.7-.1-.3 0-.5.5-.6.9-.3 2 .7 4 2 5.8 2 3 4.8 5.6 8 7.5 2.6 1.4 5.6 2.5 8.4 1.7 2.1-.5 4-2 5.2-3.8s2.3-3.8 3.1-5.8c.7 1.7 1.4 3.5 2.6 5 1.2 1.4 3 2.5 4.8 2.4 1.4 0 2.6-.6 3.7-1.3 2.2-1.5 4-3.6 5.2-6-1.8.2-3.8.5-5.4-.4-1.6-.9-2.3-3.4-.9-4.5 2-1.5 5 1 7.1-.1 1.6-.8 1.7-3.2.6-4.6-1-1.4-2.8-2-4.5-2.5-1.5-.4-3.1-.7-4.7-.6-2.4 0-4.7.9-7 1.3-6.1 1.2-12.4-.2-18.6-.6-1.2 0-2.5 0-3.5.4s-2 1.7-1.8 2.8c.2 1 1 1.7 2 2 .8.4 1.8.4 2.8.5 3.2.2 6.5 1.2 8.3 3.8.4.6.7 1.2.7 1.9 0 1.2-1.2 2.1-2.3 2.5-3 1-8.2-1.7-9.2-4.7z" class="st2"/></g><g class="st3"><path d="M209.3 256.7c-1.6.1-3.1 1.5-3.4 3.1a3.8 3.8 0 0 0 4 4.3 4 4 0 0 0 4-5.3 4 4 0 0 0-4-2.7" class="st10"/></g><g class="st3"><path d="M217.4 260c-.3 1.2-.5 2.7.4 3.5.8.7 2.1.4 2.7-.4.6-.9.4-2.1-.2-3-.5-.4-1.3-.7-1.9-.3" class="st10"/></g><g class="st3"><path d="M202.8 255.7c-2 2.7-3 6-3 9.4.1 2.2.7 4.5 2.3 6 .5.5 1.4 1 2 .6.4-.3.6-.8.8-1.2.3-1.3.4-2.7 0-4-.1-1-.6-2.2-.8-3.3-.2-2.2.7-4.3.9-6.4 0-.7-.3-1.6-1-1.6" class="st2"/></g><g class="st3"><path d="M230.7 271c.2 2.9-.7 5.8-2.5 8-.6.9-1.3 1.6-1.8 2.5l-.2.5c0 .1 0 .3.2.4.5.5 1.2.6 1.9.5.6-.1 1.2-.5 1.8-.8 1.6-1 3.2-2 4-3.6 1-1.7 1-3.8.6-5.6-.2-.8-.4-1.7-1-2.2-.7-.5-1.7-.6-2.2 0" class="st2"/></g><g class="st3"><path d="M310.7 264.9c-1.4.4-2 2.4-1 3.6.9 1.1 2.8 1.2 3.9.2a3 3 0 0 0 .6-3.6c-.3-.6-1-1.1-1.6-1.3a2 2 0 0 0-2 .6" class="st10"/></g><g class="st3"><path d="M315.8 268.7c.6 3.6-1.5 7.2-1.3 11 0 .4.4 1 .8.8l.2-.2c3.5-3.2 4.9-8.7 3.1-13.2-.2-.6-.7-1.3-1.3-1.1a1 1 0 0 0-.5.4c-.5.6-.7 1.4-.5 2.1" class="st2"/></g><g class="st3"><path d="m139 63.3-11 13.6c-.4-2.7.4-5.7 2.2-7.8a152.5 152.5 0 0 0-57.6 107.6l4.8-3.9-1 19a25 25 0 0 0 4.2-7.6c-.8 8.9 0 18 2.2 26.5 2.2-19.1 6.2-38 12-56.4-2.3.5-4.4 1.8-6 3.6a286.5 286.5 0 0 1 39.7-65.8l-7.2 3.3c6.2-8.9 11.6-18.4 16-28.4" class="st5"/></g><g class="st3"><path d="M352.5 46c-.7-2.3-1.7-4.8-4-5.7-1.7-.7-3.7-.1-5.5.6-4.9 1.7-9.6 3.6-14.3 5.7-9.2 8.3-13.4 20.8-22 30.3l1 .6 8.1-5.3-1.4 5.1c6.3-7.2 13.3-17 21-22.9 3.2-2.5 7.9-5 11.2-2.5 1.7 1.4 2.3 3.6 2.8 5.8 4 19.8.3 43.4-3.5 63.3l-8.4 44c-1 4.6-1.8 9.3-1.8 14l3.8-8.7-1.6 19.8c-.1 2-.1 4.1.5 6a644 644 0 0 0 2.6-11.5v-.3c.9-3.7 1.6-7.5 2.4-11.2l.1-.6 2-11 .2-.8 1.9-10.9.1-1a789 789 0 0 0 1.7-10.8l.2-1 1.5-10.8.1-1 1.4-11 .1-.6c.5-3.8 1-7.5 1.3-11.3 1-9.2 2-19.4 2-29.5 0-9-1-18-3.5-26.8z" class="st5"/></g><g class="st3"><path d="M219.4 109.5c1 9.1 3.6 18.1 7.5 26.5-.1-4 .3-8 1-11.8l5 26 1.4-25.2c.2-3.4.7-7.2 3.5-9 1.5 0 2.3 1.7 2.8 3l4 11c.8-1.3 1.2-2.8 1.3-4.3 4 4.3 7.4 9.3 9.6 14.7-.7-10.3-3-20.6-6.8-30.3-.3-.8-.7-1.6-1.4-2.2-1.4-1-3.3-.2-5 .4a20.3 20.3 0 0 1-10.1.8c-3.7-.7-8-2.3-11 0" class="st5"/></g><g class="st3"><path d="M36 272.6c-2 11.7-2.6 23.7-1.8 35.5l4-4.2c0 8.8.7 17.6 2.2 26.3l2.2-3.8c.7 10.3 2.9 20.5 6.3 30.3a194 194 0 0 1 3.7-46.6l-4.7 6.6c-.5-8.6-.4-17.3.3-26l-5 5.2a144 144 0 0 1 .5-22.8l-4.5 10.6c1.4-9.5 1.9-19.2 1.3-28.9-1.9 4.1-3.3 8.4-4.3 12.8" class="st5"/></g><g class="st3"><path d="M167.7 39.7a64 64 0 0 1 16.3-9.3c1.8-.7 3.8-1.4 5.7-1.2 4.3.3 7.6 4.3 8.6 8.5 1 4.1.3 8.5-.2 12.8-1.3 10.7-1.1 21.5.4 32.1 1.3-2.1 2.1-4.5 2.6-7 .4 9.8 2.6 19.5 6.6 28.4.4-2.8.9-5.5 1.5-8.3-3-12.2-3.6-25-2-37.4 1-7 2.7-14.1 1.7-21.1-1-7-5.3-14.2-12.3-15.8-3.8-.9-7.8 0-11.5 1.3a85.8 85.8 0 0 0-25 14.1c-2 2.6-4 5.2-5.8 8 4.9-4 10.2-7.4 16-10.2-1 1.7-1.8 3.4-2.6 5z" class="st5"/></g><path d="M240.5.1h2.5-2.5zM243 496l-2.5-.1h2.5z" class="st0"/><defs><path id="SVGID_3_" d="M354.9 466.3C425.4 422.5 472 341.3 472 248c0-93.3-46.6-174.5-117.1-218.3a243.4 243.4 0 0 1 0 436.6z"/></defs><clipPath id="SVGID_4_"><use xlink:href="#SVGID_3_" style="overflow:visible"/></clipPath><g style="clip-path:url(#SVGID_4_)"><path d="M298 469h58v12h-58zM331 450h58v12h-58zM367 431h58v12h-58zM383 412h58v12h-58zM397 393h58v12h-58zM417 374h58v12h-58zM429 355h58v12h-58zM435 336h58v12h-58zM445 317h58v12h-58zM445 298h58v12h-58zM445 279h58v12h-58zM445 260h58v12h-58zM445 241h58v12h-58zM445 222h58v12h-58zM445 203h58v12h-58zM445 184h58v12h-58zM445 165h58v12h-58zM435 146h58v12h-58zM429 127h58v12h-58zM417 108h58v12h-58zM397 89h58v12h-58zM383 70h58v12h-58zM367 51h58v12h-58zM331 32h58v12h-58zM298 13h58v12h-58z" class="st0"/></g><path d="M392 321.3c-3.2-1.7-6.5-3-9.7-3.6a22.1 22.1 0 0 0-18.6 4.8 31.3 31.3 0 0 0-7.4 9.4l-8 15.2a2 2 0 0 0 .7 2.7l43.4 23.1c.3.2.6.3 1 .3l.5-.1a2 2 0 0 0 1.2-1l9-16.7c3.6-7 4.5-13.5 2.4-19.3-2-5.8-6.9-10.8-14.4-14.8zm-27.4 21.8 3-5.5c1-2 2.2-3.5 3.5-4.6 1.2-1 2.6-1.6 4-2a12 12 0 0 1 4.9.2 26.2 26.2 0 0 1 11.7 6.4 9.7 9.7 0 0 1 2.5 3.8c.4 1.3.5 2.6.1 4a21 21 0 0 1-2 5.2l-3 5.7-24.7-13.2zM419.5 305.7l-47.4-12.9a2 2 0 0 0-2.5 1.4l-2.4 9a2 2 0 0 0 1.4 2.4l47.4 12.9a2 2 0 0 0 1.5-.2 2 2 0 0 0 1-1.2l2.4-9a2 2 0 0 0-1.4-2.4zM428 247a2 2 0 0 0-1.3-.7l-49-4.7a2 2 0 0 0-2.2 1.8l-.7 8.4a2 2 0 0 0 1.8 2.2l27.7 2.6L374 271c-.6.3-1 1-1 1.6l-.9 8.5a2 2 0 0 0 1.8 2.1l49 4.7h.1a2 2 0 0 0 2-1.8l.8-8.4a2 2 0 0 0-1.8-2.2l-27.7-2.6 30.3-14.3c.7-.3 1.1-.9 1.2-1.6l.8-8.4c0-.6-.1-1-.5-1.5zM389 189.6a2 2 0 0 0-.3 1.5l4.9 20c.1.5.4 1 .9 1.2.4.3 1 .4 1.5.2l7.9-1.9a2 2 0 0 0 1.5-2.4l-2.4-9.6 2 .1a11 11 0 0 1 7.7 8c.4 2.1.5 4 0 5.5-.5 1.7-1.2 3.1-2.4 4.4a15 15 0 0 1-4.2 3.3 23.5 23.5 0 0 1-11.3 2.7c-1.9 0-3.6-.4-5.3-1-1.5-.6-2.9-1.5-4-2.7-1.2-1.3-2-2.9-2.5-5-.4-1.6-.5-3.1-.3-4.4a9.2 9.2 0 0 1 3.1-5.7c.9-.7 1.7-1.3 2.5-1.7a2 2 0 0 0 1-1.3 2 2 0 0 0-.4-1.6l-5.4-7.6a2 2 0 0 0-2.8-.5 25 25 0 0 0-9.3 11.4 24 24 0 0 0-.6 14.5 24 24 0 0 0 12.6 16.3 27.4 27.4 0 0 0 13.2 2.8 35.5 35.5 0 0 0 17-4.9 23.4 23.4 0 0 0 11.2-27.4 19.4 19.4 0 0 0-3.1-7c-.8-1-1.6-2-2.5-2.8a2 2 0 0 0 1.4-2.4l-1.9-7.8a2 2 0 0 0-2.4-1.5l-26 6.4c-.6 0-1 .4-1.3.9zM364.2 175.4c2.6 2.4 5.5 4.2 8.7 5.3 3.2 1 6.6 1.5 10.1 1.3h.8a32.2 32.2 0 0 0 25.2-15.7 24.1 24.1 0 0 0 .8-20.5 24.2 24.2 0 0 0-14.7-14.3c-3.2-1.2-6.6-1.6-10.1-1.5a32.3 32.3 0 0 0-19.6 7.8c-2.7 2.3-4.8 5-6.4 8a24.2 24.2 0 0 0-.8 20.5c1.4 3.7 3.5 6.8 6 9.1zm4.8-19a11 11 0 0 1 1.7-4.7c1-1.4 2.3-2.7 3.8-3.9a24 24 0 0 1 11.7-4.3c1.5-.1 3 0 4.4.3 1.7.4 3.1 1 4.5 2.1 1.2 1 2.3 2.6 3 4.5.8 2 1 3.7.9 5.4-.3 1.7-.8 3.2-1.8 4.6a15 15 0 0 1-3.7 3.8 23.4 23.4 0 0 1-10.8 4.3c-1.9.3-3.7.2-5.4-.2-1.6-.4-3-1-4.4-2.1-1.3-1-2.3-2.6-3.1-4.5-.8-2-1-3.8-.8-5.4z" class="st1"/><path d="m401.6 360-7.6 7.3-.7.4c-.4.1-.9 0-1.3-.2l-37.5-18c-.8-.4-1.6-.8-2.5-.8-1.2-.1-2.3.4-3.4.8l.4.3 43.4 23.1c.3.2.6.3 1 .3l.5-.1a2 2 0 0 0 1.2-1l6.5-12.2z" class="st4"/><path d="M396.5 339.5c-1-2.5-3-4.4-5.1-5.9-5.3-3.7-12.4-5.8-18.4-3.2-5 2.1-8.2 7-9.8 12.3l1.5.1 2.8-5.2c1-2 2.3-3.5 3.6-4.6 1.2-1 2.6-1.6 4-2a12 12 0 0 1 4.9.2 26.2 26.2 0 0 1 11.7 6.4 9.7 9.7 0 0 1 2.5 3.8c.4 1.3.5 2.6.1 4a21 21 0 0 1-2 5.2l-2.5 4.7c.5 1 .6 2 1.5 2.7 1.9-3.1 3.5-6.4 4.6-9.9 1-2.8 1.5-5.8.6-8.6zM418.5 317.1l2.4-8.9c-1.7 2-3.1 4.3-4.2 6.7-.2.4-.5.9-.9 1-.4.3-1 .2-1.5 0-13.5-3.6-27-7.4-40.6-11.2-1.2-.4-2.5-.7-3.8-.7-.9 0-1.7.3-2.4.8.2.4.6.7 1.1.8l47.4 13a2 2 0 0 0 1.5-.3 2 2 0 0 0 1-1.2zM421 285.1c-.4.3-1 .2-1.4.2-14.2-1-28.5-2.8-42.6-5-.4-.2-.9-.2-1.3-.1-.5.1-.8.5-1.1.8l-1.7 1.8c.2.2.6.3 1 .3l48.8 4.7h.2a2 2 0 0 0 2-1.8l.8-8.4v-.2l-4 6.9-.7.8zM424.8 256.8c-.3.4-.9.5-1.3.7-11 3.6-21.5 8.6-31.2 14.8l4.2.3 30-14c.7-.4 1.1-1 1.2-1.7l.8-8.4c0-.5-.1-1-.4-1.4-1.2 2.4-2.1 5-2.5 7.6-.1.8-.2 1.6-.8 2zM375.6 253.7c.3.1.6.3 1 .3l27.7 2.7-.7.3c2.8-.7 5.5-1.7 8-3-11.4 0-22.8-.9-34-2.7l-2 2.3zM425.3 215.2v-.2c-2 3.6-4.5 6.9-7.4 9.7-4 4-9.2 7-14.7 8.3-5.7 1.2-11.8.5-17.3-1.6a42 42 0 0 1-12.6-8 24 24 0 0 0 10.1 9.8 27.4 27.4 0 0 0 13.2 3 35.5 35.5 0 0 0 17-4.9c3-1.9 5.6-4.1 7.6-6.8s3.4-5.8 4-9.3zM382.7 209.5a9.2 9.2 0 0 1 3.1-5.7l2.5-1.8c.4-.2.6-.5.8-.9a71.6 71.6 0 0 1-2.6 0c-.3.1-.5.4-.7.6a13.7 13.7 0 0 0-3.8 5.9c-.4 1.6-.2 3.5.7 5a10 10 0 0 1 0-3.1zM401.6 208.7c-1.5.5-3.1.7-4.7.8-.5 0-1 0-1.3.3-.3.2-.4.5-.5.7l-.6 1.8c.4.3 1 .3 1.5.2l7.9-1.9c.5-.1 1-.4 1.2-.9s.4-1 .3-1.5l-2.3-9.3-2-2.1a100.6 100.6 0 0 1 1.3 11.4c-.1.3-.5.4-.8.5zM420.6 191.6l-1.9-7.8a2 2 0 0 0-1.3-1.4l-.4 5.4c0 .5-.1 1-.4 1.3-.3.2-3.9 2.2-5.4 2.6 1 .7 4.9 1.7 8 2.3 1.2-.4 1.5-2 1.4-2.4zM411.7 156.6c.1-1.7 0-3.5-.3-5.2a38.9 38.9 0 0 1-12.6 21.2 29.5 29.5 0 0 1-16 5.4c-7.1.4-14.4-1.3-20.7-4.8l2.1 2.2c2.6 2.4 5.5 4.2 8.7 5.2 3.2 1.1 6.6 1.6 10.1 1.4h.8a32.2 32.2 0 0 0 25.2-15.7c1.5-3 2.5-6.3 2.7-9.7zM391.6 142.4c-4.2-2-9.3-1.6-13.5.2-3.6 1.5-6.7 4-8.5 7.5-1.5 3.1-1.7 7-.3 10.1a9.6 9.6 0 0 1-.3-3.9 11 11 0 0 1 1.7-4.6c1-1.4 2.3-2.7 3.8-3.9a24 24 0 0 1 11.7-4.3c1.5-.1 3 0 4.4.3 1.7.4 3.1 1 4.5 2.1 1.2 1 2.3 2.6 3 4.5.4 1 .7 1.8.8 2.7l.3.1c0-4.6-3.3-9-7.6-10.8z" class="st4"/><path d="M404.2 331.7a32.6 32.6 0 0 0-12.1-10.4c-3.3-1.7-6.6-3-9.8-3.6a22.1 22.1 0 0 0-18.6 4.8 31.3 31.3 0 0 0-7.4 9.4l-5.7 10.7 3.8-5.9c1-1.6 2-3.3 3.3-4.8a29.1 29.1 0 0 1 40.5-5c2.1 1.5 4.1 3 6 4.8zM370.5 350l19 10.4c.6.3 1.3.7 2 .3.8-.5.4-1.9 0-2.8a27 27 0 0 0-1.8-2.4l-.4.8-24.7-13.2c-1.3.3-2.5.9-3.6 1.7l9.5 5.2zM418.2 307.8a56 56 0 0 0 2.5-1.2 2 2 0 0 0-1.2-.9L372 292.8a2 2 0 0 0-2.5 1.4l-1.7 6.5c1.2-1.5 2-3.3 3.8-4 1.2-.4 2.7 0 4 .3 7.3 2 14.6 4.1 21.8 6.4 5.4 1.7 10.9 3.4 16.5 4.7.8.1 1.6.3 2.4.2.6 0 1.2-.3 1.8-.5zM395.8 271.8h-1c-2.6.2-5.1 1.1-7.3 2.5.2.6 1 .7 1.5.7 9.7.5 19.4 1.3 29.1 2.3 1.5.2 3 .3 4.5 0 1 0 2-.5 2.7-1a2 2 0 0 0-1.4-.9l-27.8-2.6 1.5-.7-1.8-.3zM413.5 253.5a116 116 0 0 1-11.1 4L374 271c-.7.3-1.1 1-1.2 1.6l-.4 4.8c.6-1.6 1.6-3 3-4.2 2-1.8 4.7-2.6 7.2-3.6l4.8-2.1 26.4-12.2 1-.7c.2-.3.2-.8 0-1-.4-.3-1-.2-1.3 0zM426.7 246.3l-49-4.7a2 2 0 0 0-2.2 1.8l-.5 5.9a40 40 0 0 1 2.3-5c7 .1 14.1 1 21.2 1.7l5.8.7a1375.3 1375.3 0 0 0 21 2.3 347.9 347.9 0 0 1 2.1-2.6l-.7-.1zM412.7 212.2c-.5 1.7-1.2 3.1-2.4 4.4a15 15 0 0 1-4.2 3.2 23.5 23.5 0 0 1-11.3 2.8c-1.9 0-3.7-.4-5.3-1-1.4-.5-2.6-1.4-3.7-2.4 1.5 2.8 4.4 4.9 7.5 5.7 4.2 1 8.7 0 12.4-2.2a16 16 0 0 0 6.6-6.9 11 11 0 0 0 .5-8c.3 1.7.3 3.1-.1 4.4zM380.7 191.1a25 25 0 0 0-9.3 11.4c-.6 1.5-1 3-1.2 4.8a25.6 25.6 0 0 1 10-13.3c.2-.2.5-.4.9-.3.2 0 .3.3.5.5 1.6 1.8 3.4 3.5 5.3 5 .4.3.9.6 1.4.6.3 0 .6-.1.8-.4a2 2 0 0 0-.2-.3l-5.5-7.5a2 2 0 0 0-2.7-.5zM415.4 184.3l1.3-2h-.4l-26 6.4a2 2 0 0 0-1.5 2.4l4.4 18.6c.2-6-.3-12-1.2-17.8l21.5-6.3 1.1-.5.8-.8z" class="st5"/><path d="M423.6 200.3a23.6 23.6 0 0 0-4.4-6.3c.2 0-3.7-2-5.9-2.5-2.8-.6-5.7-.8-8.5 0 1.3 1 3 1.3 4.5 1.8 5.3 1.4 10 4.5 14.6 7.7l-.3-.7zM399 155.8c-.2 1.7-.8 3.2-1.8 4.6a15 15 0 0 1-3.7 3.8 23.4 23.4 0 0 1-10.8 4.3c-1.8.3-3.6.2-5.3-.2-1.7-.4-3.1-1-4.5-2.2a9.1 9.1 0 0 1-1.8-2c1 2.4 2.8 4.4 5.1 5.4a19.6 19.6 0 0 0 16.4-2c3.7-2.4 6.4-6.5 6.8-10.8a7 7 0 0 0-.5-3.5c.2.9.2 1.7 0 2.6zM408.5 142.9a23.6 23.6 0 0 0-13.4-11.5c-3.2-1-6.6-1.5-10.1-1.4a32.3 32.3 0 0 0-19.6 7.8c-2.7 2.3-4.8 5-6.4 8a24.2 24.2 0 0 0-2.2 16.1 21.7 21.7 0 0 1 1.7-10.6c4.2-9.8 13.9-17 24.5-18.1a31 31 0 0 1 25.5 9.7z" class="st5"/></svg>