<?xml version="1.0" standalone="no"?>
<!DOCTYPE svg PUBLIC "-//W3C//DTD SVG 20010904//EN"
 "http://www.w3.org/TR/2001/REC-SVG-20010904/DTD/svg10.dtd">
<svg version="1.0" xmlns="http://www.w3.org/2000/svg"
 width="329.000000pt" height="328.000000pt" viewBox="0 0 329.000000 328.000000"
 preserveAspectRatio="xMidYMid meet">

<g transform="translate(0.000000,328.000000) scale(0.100000,-0.100000)"
fill="#9633F0" stroke="none">
<path d="M1445 3243 c-709 -89 -1276 -631 -1396 -1334 -18 -107 -21 -150 -16
-314 4 -139 11 -215 26 -283 143 -645 629 -1124 1274 -1254 161 -33 463 -32
617 1 483 103 890 405 1110 822 376 716 176 1590 -475 2065 -279 204 -600 306
-953 303 -87 -1 -170 -4 -187 -6z m435 -259 c415 -71 796 -360 985 -749 50
-102 87 -210 112 -328 25 -116 25 -418 0 -535 -40 -180 -118 -361 -220 -511
-67 -97 -240 -271 -337 -337 -147 -101 -336 -182 -510 -220 -119 -26 -420 -27
-537 -1 -261 56 -484 173 -671 351 -216 207 -357 468 -407 756 -22 122 -22
345 -1 463 97 540 508 975 1037 1096 180 42 361 47 549 15z"/>
<path d="M1197 2386 c-21 -8 -47 -22 -59 -33 -49 -44 -48 -29 -48 -715 0 -624
1 -644 20 -676 11 -18 34 -41 52 -52 32 -20 46 -21 343 -18 310 3 310 3 390
31 186 66 319 176 394 328 65 133 84 218 84 389 1 118 -3 162 -21 234 -33 132
-91 236 -181 326 -114 112 -235 168 -411 190 -127 15 -516 12 -563 -4z m608
-251 c92 -24 157 -60 212 -118 92 -97 123 -188 123 -363 0 -187 -29 -281 -116
-375 -55 -58 -106 -91 -189 -119 -51 -18 -84 -20 -282 -20 l-223 0 0 498 c0
274 3 502 7 505 3 4 97 7 208 7 148 0 217 -4 260 -15z"/>
</g>
</svg>
