<svg width="402" height="402" viewBox="0 0 402 402" fill="none" xmlns="http://www.w3.org/2000/svg">
<rect width="402" height="402" fill="#0B0C18"/>
<path d="M98.9999 242.171C88.5361 242.171 78.5723 242.171 68.3395 242.171C68.3395 201.837 68.3395 161.801 68.3395 121.164C71.5236 121.164 74.6344 121.131 77.7442 121.17C93.8814 121.373 110.087 120.732 126.141 121.999C154.87 124.268 173.835 144.232 175.877 173.013C176.67 184.196 176.143 195.28 171.947 205.913C170.888 208.598 169.526 209.91 166.262 210.154C154.418 211.039 144.904 220.64 144.005 232.531C143.768 235.66 142.344 236.831 139.866 237.84C130.091 241.821 119.856 242.399 109.489 242.182C106.161 242.113 102.83 242.171 98.9999 242.171ZM142.801 198.055C145.741 189.704 146.31 181.112 144.901 172.45C143.303 162.623 139.049 154.301 129.489 150.007C119.072 145.33 108.05 147.498 97.4169 147.095C97.4169 170.599 97.4169 193.347 97.4169 216.174C103.753 216.174 109.747 216.263 115.737 216.156C128.247 215.932 137.305 210.307 142.801 198.055Z" fill="#FDFDFD"/>
<path d="M346.965 253.019C341.795 268.613 330.172 277.671 315.168 281.858C286.07 289.979 260.058 283.318 237.52 263.191C237.17 262.879 236.944 262.428 236.418 261.711C237.684 260.243 238.953 258.77 240.951 257.177C277.036 262.541 312.278 265.02 346.965 253.019Z" fill="#B55BFD"/>
<path d="M214.823 259.127C207.734 273.737 195.895 281.961 180.062 284.384C160.602 287.361 143.678 282.589 130.926 266.809C128.287 263.544 126.533 259.564 124.422 255.999C132.548 253.639 139.855 251.517 147.685 249.243C152.335 255.42 158.797 259.698 168.03 260.618C173.226 261.272 177.716 262.174 182.138 261.913C193.05 261.269 203.93 260.091 214.823 259.127Z" fill="#B55BFD"/>
<path d="M264.466 201.962C251.188 194.457 244.267 182.984 243.698 167.453C253.432 167.693 262.655 168.346 271.878 168.999C275.345 177.264 282.813 180.603 290.291 183.892C302.702 189.352 315.136 194.759 327.361 200.56C313.838 204.539 300.408 207.084 286.507 205.067C279.164 204.002 271.813 202.995 264.466 201.962Z" fill="#FCDA5C"/>
<path d="M253.543 138.79C263.591 127.062 276.945 122.214 291.785 121.349C312.164 120.16 329.789 126.968 344.851 141.115C343.772 142.55 342.9 143.708 341.234 144.986C327.871 144.709 315.267 144.761 302.741 143.804C286.31 142.549 269.939 140.498 253.543 138.79Z" fill="#FC5B5B"/>
<path d="M264.686 202.263C271.813 202.995 279.164 204.002 286.507 205.067C300.408 207.084 313.838 204.539 327.546 200.839C338.775 206.459 345.748 215.205 348.259 227.568C338.644 229.705 329.391 231.436 320.138 233.167C317.253 227.557 312.395 224.238 306.836 221.754C294.305 216.157 281.76 210.591 269.239 204.972C267.737 204.298 266.348 203.373 264.686 202.263Z" fill="#5CFC9C"/>
<path d="M253.28 138.98C269.939 140.498 286.31 142.549 302.741 143.804C315.267 144.761 327.871 144.709 340.934 145.163C337.882 149.795 334.337 154.369 330.594 159.199C322.922 152.96 314.902 147.709 305.281 146.647C298.792 145.931 291.926 145.914 285.58 147.25C275.057 149.466 270.766 156.844 271.892 168.546C262.655 168.346 253.432 167.693 243.762 167.048C242.766 156.444 246.247 147.235 253.28 138.98Z" fill="#F39153"/>
<path d="M320.172 233.566C329.391 231.436 338.644 229.705 348.277 227.928C350.653 236.181 350.185 244.356 347.195 252.718C312.278 265.02 277.036 262.541 241.247 257.013C244.548 252.345 248.28 247.722 252.169 242.903C261.246 250.659 270.844 256.652 282.242 259.327C290.143 261.181 297.992 261.364 305.852 259.131C318.176 255.628 323.473 246.37 320.172 233.566Z" fill="#5C6BFB"/>
<path d="M215.047 258.83C203.93 260.091 193.05 261.269 182.138 261.913C177.716 262.174 173.226 261.272 168.438 260.745C185.199 258.374 193.57 249.81 194.494 233.604C203.697 231.363 212.432 229.592 221.167 227.822C221.984 238.592 220.11 248.847 215.047 258.83Z" fill="#5C6BFB"/>
<path d="M194.15 157.062C194.15 145.274 194.15 133.486 194.15 121.417C203.196 121.417 211.963 121.417 221.504 121.417C221.504 129.621 221.504 137.867 221.035 146.582C211.762 150.388 202.956 153.725 194.15 157.062Z" fill="#F35B59"/>
<path d="M221.273 227.377C212.432 229.592 203.697 231.363 194.56 233.189C194.113 222.492 194.068 211.739 194.524 200.507C203.738 199.215 212.451 198.402 221.164 197.59C221.235 207.371 221.307 217.152 221.273 227.377Z" fill="#5DFE9D"/>
<path d="M165.776 219.606C176.453 218.44 184.486 225.019 184.837 234.783C185.153 243.565 177.77 251.054 168.843 251.007C159.732 250.959 152.456 243.206 153.022 234.149C153.463 227.102 157.808 222.031 165.776 219.606Z" fill="#FBFBFB"/>
<path d="M221.286 197.171C212.451 198.402 203.738 199.215 194.594 200.047C194.12 191.719 194.078 183.372 194.543 174.55C197.808 173.753 200.582 173.533 203.319 173.09C209.288 172.124 215.239 171.046 221.197 170.014C221.267 178.926 221.338 187.839 221.286 197.171Z" fill="#FCDA5C"/>
<path d="M221.346 169.637C215.239 171.046 209.288 172.124 203.319 173.09C200.582 173.533 197.808 173.753 194.616 174.093C194.128 168.733 194.073 163.355 194.085 157.52C202.956 153.725 211.762 150.388 220.891 147.027C221.308 154.423 221.402 161.842 221.346 169.637Z" fill="#F39153"/>
</svg>
