<svg xmlns="http://www.w3.org/2000/svg" fill="none" viewBox="0 0 256 256"><path fill="#fff" fill-rule="evenodd" d="M128.1 46.8c-8.23 0-15.1 5.65-26.57 16.94-16.1.13-24.95.99-30.77 6.81-5.82 5.83-6.69 14.68-6.81 30.77C52.65 112.8 47 119.67 47 127.9c0 8.24 5.65 15.1 16.95 26.58.12 16.1.99 24.95 6.8 30.77 5.83 5.82 14.68 6.68 30.78 6.81C113 203.36 119.87 209 128.1 209c8.24 0 15.1-5.65 26.58-16.94 16.1-.13 24.95-.99 30.77-6.81 5.83-5.83 6.69-14.67 6.82-30.77 11.3-11.48 16.94-18.34 16.94-26.58 0-8.23-5.65-15.1-16.94-26.57-.13-16.1-1-24.95-6.82-30.78-5.82-5.82-14.67-6.68-30.77-6.81-11.47-11.3-18.34-16.94-26.58-16.94zm6.13 145.28h.12l-.26.2c-3.88 2.96-5.35 3.03-5.99 3.03-.63 0-2.1-.07-5.98-3.03l-.17-.13h-.03l-.07-.07h-.06l-11.89-11.11a9.78 9.78 0 00-5.68-2.59l-2.66-.01-14.42-.67-.32-.04c-4.84-.65-5.93-1.65-6.38-2.1-.45-.44-1.44-1.53-2.1-6.37l-.02-.22-.62-15.84a9.78 9.78 0 00-.27-1.9 9.78 9.78 0 00-2.4-4.91l-11.1-12.2v.04l-.03-.03v-.01l-.04-.06-.13-.17c-2.96-3.88-3.03-5.35-3.03-5.99 0-.64.07-2.1 3.03-5.99l.2-.25v.02l10.67-11.6a9.78 9.78 0 002.56-6l.6-9.11c.08-2.89.23-5.33.48-7.45l.04-.65.04-.04.01-.09.02-.13c.65-4.84 1.64-5.92 2.1-6.37.44-.45 1.53-1.45 6.37-2.1l.11-.01.08-.01.13-.02-.1.1 15.46-.72a9.78 9.78 0 004.89-1.58 9.78 9.78 0 003.42-2.03l11.08-10.15h-.03l.06-.06h.01l.19-.14c3.88-2.96 5.35-3.03 5.98-3.03.64 0 2.11.07 6 3.03l.1.08.06.05.09.07h-.13l11.4 10.39c.91.82 1.96 1.46 3.09 1.9a9.78 9.78 0 004.74 1.46l15.67.68-.08-.08h.1l.04.04.22.03c4.83.65 5.92 1.65 6.37 2.1.45.45 1.44 1.53 2.1 6.37 0 .1.02.21.04.32l.67 16.74a9.8 9.8 0 001.48 4.8l.28.27.96.97.36.42 10.63 11.59v-.13l.03.03v.08l.1.12.07.1c2.96 3.87 3.02 5.34 3.02 5.98 0 .64-.06 2.1-3.02 5.99l-.17.21v.1l-.03.04v-.16l-11.38 12.34a9.78 9.78 0 00-2.32 4.34c0 1.16 0 2.26-.02 3.32l-.71 14.84.05-.05-.03.16-.02.16c-.65 4.84-1.64 5.93-2.09 6.38-.45.44-1.54 1.44-6.37 2.09l-.33.04-.03.03-.38.02c-2.44.3-5.29.45-8.76.54l-7.8.47a9.78 9.78 0 00-5.98 2.52l-11.9 10.8z" clip-rule="evenodd"/><path fill="#fff" fill-rule="evenodd" d="M169.58 27.6C151.63 9.95 140.88 1.11 128 1.11c-12.89 0-23.63 8.84-41.58 26.51-25.2.2-39.04 1.55-48.15 10.66S27.81 61.23 27.61 86.41C9.94 104.37 1.11 115.11 1.11 128c0 12.89 8.83 23.63 26.5 41.59.2 25.18 1.55 39.03 10.66 48.14s22.96 10.46 48.15 10.66c17.95 17.67 28.7 26.5 41.58 26.5 12.89 0 23.63-8.83 41.58-26.5 25.2-.2 39.04-1.55 48.15-10.66s10.46-22.96 10.66-48.15c17.67-17.95 26.5-28.7 26.5-41.58 0-12.89-8.83-23.63-26.5-41.58-.2-25.2-1.55-39.04-10.66-48.15s-22.96-10.46-48.15-10.66zM94.01 39a15.3 15.3 0 01-7.89 2.37l-13.88.27c-3.7.18-6.95.45-9.87.84-8.43 1.14-12.03 3.1-14.41 5.47-2.38 2.38-4.34 5.99-5.47 14.42-.4 2.87-.65 6.06-.83 9.66l-.02.02-.26 13.6a15.3 15.3 0 01-4.07 10.1l-7.33 7.94-2.1 2.26v.01l-.4.43a117.3 117.3 0 00-6.36 7.55c-5.16 6.76-6.32 10.7-6.32 14.06 0 3.37 1.16 7.3 6.32 14.06 1.8 2.37 3.95 4.88 6.46 7.65l.06.07 9.68 10.46a15.3 15.3 0 014.06 10.1l.26 13.42c.19 3.7.45 6.95.85 9.88 1.13 8.42 3.09 12.03 5.47 14.4 2.38 2.39 5.98 4.34 14.4 5.48 2.93.39 6.19.66 9.88.84h.1l13.35.26a16.17 16.17 0 012.08.18 15.3 15.3 0 017.98 3.85l10.64 9.78h43.32l.18-.17 10.36-9.58a15.3 15.3 0 0110.1-4.06l13.6-.26.01-.01c3.61-.18 6.8-.45 9.68-.83 8.42-1.14 12.03-3.1 14.4-5.47 2.39-2.38 4.34-5.99 5.48-14.42.4-2.92.66-6.18.84-9.87v-.14l.26-13.28a15.29 15.29 0 014.06-10.1l9.84-10.63a117.6 117.6 0 006.36-7.55c5.16-6.76 6.32-10.7 6.32-14.06 0-3.36-1.16-7.3-6.32-14.06a117.6 117.6 0 00-6.36-7.55l-.1-.1-9.73-10.53a15.26 15.26 0 01-4.07-10.1l-.26-13.28v-.14c-.18-3.7-.45-6.95-.84-9.87-1.14-8.43-3.1-12.04-5.47-14.42-2.38-2.38-5.99-4.33-14.41-5.47-2.82-.38-5.95-.64-9.47-.82l-.03-.02-13.8-.26c-.42 0-.84-.03-1.26-.08h-.04l-.1-.01a15.3 15.3 0 01-8.7-3.98l-7.98-7.38-2.65-2.45a120.52 120.52 0 00-7.55-6.36c-6.76-5.16-10.7-6.32-14.06-6.32-3.36 0-7.3 1.16-14.06 6.32-2.37 1.8-4.88 3.94-7.65 6.45l-.05.05-9.78 9.45A15.3 15.3 0 0194.01 39zm19.93 195.88a118.1 118.1 0 01-7.65-6.45h43.42a117.82 117.82 0 01-7.65 6.45c-6.76 5.16-10.7 6.32-14.06 6.32-3.36 0-7.3-1.16-14.06-6.32z" clip-rule="evenodd"/></svg>