<svg width="139" height="32" viewBox="0 0 139 32" fill="none" xmlns="http://www.w3.org/2000/svg">
<g clip-path="url(#clip0_210_97)">
<path fill-rule="evenodd" clip-rule="evenodd" d="M16.0752 0C7.21095 0 0 7.18587 0 16.0501V30.3853C0 31.2771 0.722918 32 1.61468 32H16.1002C24.9367 32 32.1002 24.8366 32.1002 16C32.1002 7.16344 24.9117 0 16.0752 0ZM24.802 19.402C26.697 19.402 28.2332 17.8658 28.2332 15.9708C28.2332 14.0758 26.697 12.5396 24.802 12.5396C22.907 12.5396 21.3708 14.0758 21.3708 15.9708C21.3708 17.8658 22.907 19.402 24.802 19.402ZM14.6182 19.4022C16.5133 19.4022 18.0494 17.866 18.0494 15.971C18.0494 14.076 16.5133 12.5398 14.6182 12.5398C12.7233 12.5398 11.1871 14.076 11.1871 15.971C11.1871 17.866 12.7233 19.4022 14.6182 19.4022Z" fill="white"/>
<path fill-rule="evenodd" clip-rule="evenodd" d="M66.9253 19.7234C66.9253 21.3158 67.3046 22.7335 68.0588 23.9829C68.8343 25.2344 69.9 26.2127 71.2613 26.9191C72.6223 27.6254 74.1521 27.9807 75.8558 27.9807C77.5799 27.9807 79.1196 27.6252 80.4802 26.9191C81.8414 26.2128 82.8967 25.2348 83.652 23.9841C84.4067 22.7344 84.7863 21.3164 84.7863 19.7234C84.7863 18.1305 84.4067 16.7232 83.6529 15.4944L83.652 15.493C82.8971 14.2429 81.8426 13.2756 80.4827 12.5894L80.4802 12.5882C79.1196 11.8822 77.5799 11.5266 75.8558 11.5266C74.1317 11.5266 72.592 11.8822 71.2314 12.5882L71.2302 12.5888C69.8901 13.2747 68.8345 14.2425 68.0588 15.4942C67.3043 16.7441 66.9253 18.1518 66.9253 19.7234ZM78.4869 22.7883L78.4892 22.7857C79.1786 22.0249 79.5097 20.9943 79.5097 19.7234C79.5097 18.4719 79.1781 17.4601 78.4869 16.7191C77.7994 15.982 76.9157 15.6154 75.8558 15.6154C74.7959 15.6154 73.9121 15.982 73.2247 16.7191C72.5335 17.4601 72.2019 18.4719 72.2019 19.7234C72.2019 20.9943 72.5329 22.0249 73.2223 22.7857L73.2247 22.7883C73.9121 23.5253 74.7959 23.8919 75.8558 23.8919C76.9157 23.8919 77.7994 23.5253 78.4869 22.7883Z" fill="white"/>
<path d="M102.777 23.9715C102.226 25.1679 101.362 26.1217 100.178 26.8351C98.8824 27.5956 97.338 27.9807 95.5353 27.9807C93.7704 27.9807 92.2004 27.6248 90.8198 26.9185C89.4386 26.2118 88.3635 25.2335 87.5886 23.9829C86.8343 22.7335 86.4551 21.3158 86.4551 19.7234C86.4551 18.1306 86.8345 16.7235 87.5882 15.4949C88.3628 14.2445 89.4372 13.2766 90.8174 12.5901L90.8198 12.5888C92.2004 11.8825 93.7704 11.5266 95.5353 11.5266C97.3375 11.5266 98.8814 11.9216 100.177 12.7018L100.179 12.7031C101.362 13.398 102.226 14.3414 102.777 15.5359C102.812 15.6126 102.782 15.7128 102.692 15.7591L99.0171 17.6508C98.927 17.6972 98.8016 17.6655 98.7379 17.5589C97.9719 16.2773 96.8893 15.6154 95.5054 15.6154C94.4271 15.6154 93.5159 15.9807 92.7894 16.7139L92.7869 16.7164C92.0743 17.4572 91.7316 18.47 91.7316 19.7234C91.7316 20.9961 92.0737 22.0277 92.7845 22.7884L92.7869 22.791L92.7894 22.7934C93.516 23.5266 94.4271 23.8919 95.5054 23.8919C96.8893 23.8919 97.9719 23.23 98.7379 21.9484C98.8016 21.8419 98.927 21.8101 99.0171 21.8565L102.692 23.7482C102.782 23.7946 102.812 23.8947 102.777 23.9715Z" fill="white"/>
<path d="M116.533 27.5185V25.5732L116.118 26.034C115.543 26.6721 114.853 27.1553 114.047 27.4846C113.238 27.8151 112.38 27.9808 111.471 27.9808C109.424 27.9808 107.811 27.3731 106.605 26.1761C105.427 24.9869 104.817 23.1837 104.817 20.7212V11.989C104.817 11.884 104.903 11.7988 105.008 11.7988H109.844C109.949 11.7988 110.034 11.884 110.034 11.989V19.784C110.034 21.0337 110.266 21.9976 110.777 22.6251C111.291 23.2566 112.035 23.5594 112.969 23.5594C113.93 23.5594 114.725 23.2222 115.333 22.5432C115.968 21.8368 116.263 20.7912 116.263 19.4514V11.989C116.263 11.884 116.348 11.7988 116.453 11.7988H121.29C121.395 11.7988 121.48 11.884 121.48 11.989V27.5185C121.48 27.6236 121.395 27.7087 121.29 27.7087H116.723C116.618 27.7087 116.533 27.6236 116.533 27.5185Z" fill="white"/>
<path d="M133.19 22.3634C133.033 22.1979 132.813 22.0835 132.552 22.006C132.068 21.8372 131.311 21.6842 130.294 21.5433L130.291 21.5429C129.001 21.3827 127.905 21.1731 127.001 20.9155C126.145 20.6658 125.403 20.2056 124.772 19.5306C124.166 18.8817 123.848 17.9593 123.848 16.7304C123.848 15.733 124.141 14.8572 124.727 14.094L124.729 14.0917C125.316 13.308 126.176 12.6867 127.322 12.2357L127.324 12.2349C128.488 11.7653 129.884 11.5266 131.52 11.5266C132.682 11.5266 133.834 11.6458 134.977 11.8844C135.957 12.0891 136.792 12.3656 137.485 12.711C137.561 12.7485 137.599 12.8447 137.559 12.937L136.195 16.0507C136.152 16.1509 136.024 16.2006 135.913 16.1449C134.558 15.4692 133.102 15.1317 131.55 15.1317C130.644 15.1317 129.937 15.2415 129.465 15.4898C129 15.7144 128.705 16.0529 128.705 16.5187C128.705 16.7619 128.779 16.9813 128.933 17.1637C129.084 17.342 129.298 17.47 129.553 17.5598L129.558 17.5613L129.562 17.5627C130.04 17.7093 130.814 17.8626 131.874 18.024C133.206 18.2246 134.303 18.4544 135.167 18.7121C136.003 18.9612 136.725 19.4205 137.336 20.095L137.338 20.0976L137.341 20.1002C137.945 20.7285 138.263 21.6294 138.263 22.8374C138.263 23.8132 137.97 24.69 137.382 25.4751C136.797 26.2371 135.919 26.8489 134.731 27.3009L134.73 27.3014C133.566 27.7516 132.149 27.9807 130.471 27.9807C129.131 27.9807 127.811 27.8317 126.511 27.5336C125.374 27.2554 124.443 26.9113 123.712 26.5049C123.641 26.4656 123.606 26.3728 123.645 26.2837L125.008 23.1474C125.053 23.0441 125.188 22.9928 125.304 23.0559C125.966 23.415 126.719 23.7104 127.561 23.9438L127.565 23.9448C128.602 24.2116 129.631 24.3454 130.651 24.3454C131.573 24.3454 132.269 24.2563 132.701 24.0501L132.706 24.0478C133.163 23.8171 133.436 23.464 133.436 22.9886C133.436 22.749 133.354 22.5357 133.19 22.3634Z" fill="white"/>
<path fill-rule="evenodd" clip-rule="evenodd" d="M44.6797 7.02197H53.7406C56.0074 7.02197 58.0082 7.44945 59.7486 8.29791C61.4882 9.14597 62.8313 10.3455 63.785 11.897C64.7375 13.4466 65.2179 15.2665 65.2179 17.3654C65.2179 19.4642 64.7375 21.2841 63.785 22.8337C62.8313 24.3852 61.4882 25.5847 59.7486 26.4328C58.0082 27.2813 56.0074 27.7087 53.7406 27.7087H44.6797C44.338 27.7087 44.061 27.4318 44.061 27.0901V7.64061C44.061 7.29895 44.338 7.02197 44.6797 7.02197ZM53.5009 23.4083C55.346 23.4083 56.8473 22.8794 57.979 21.8014C59.135 20.7194 59.7016 19.2302 59.7016 17.3654C59.7016 15.5005 59.135 14.0113 57.979 12.9293C56.8473 11.8513 55.346 11.3224 53.5009 11.3224H50.1839C49.8158 11.3224 49.5173 11.6209 49.5173 11.989V22.7417C49.5173 23.1098 49.8158 23.4083 50.1839 23.4083H53.5009Z" fill="white"/>
</g>
<defs>
<clipPath id="clip0_210_97">
<rect width="139" height="32" fill="white"/>
</clipPath>
</defs>
</svg>
