<svg xmlns="http://www.w3.org/2000/svg" width="392" height="64" fill="none">
    <path fill="#caf840" d="M32 0C14.328 0 0 14.328 0 32s14.328 32 32 32 32-14.328 32-32S49.672 0 32 0" />
    <mask id="a" width="45" height="38" x="11" y="14" maskUnits="userSpaceOnUse" style="mask-type:luminance">
        <path fill="#fff" d="M55.315 14.86H11.422v36.566h43.892z" />
    </mask>
    <g fill="#121212" mask="url(#a)">
        <path
            d="M28.413 23.296h-.02c-1.209-.347-2.489.347-2.899 1.494-.452 1.233.266 2.645 1.534 3.035 3.106.882 4.44-3.57 1.385-4.529" />
        <path
            d="M54.882 29.587c-4-8.756-16.758-5.133-17.936-7.426-3.453-5.418-9.898-8.46-16.866-6.892-1.073-.429-4.768-.546-7.156.956l1.44.636c.109.046.078.035.238.093.651.246.538.176.07.433-1.073.628-2.411 1.357-3.246 2.453.035.051 1.837.484 1.837.484.032.008.367.043.293.191-5.895 9.306 4.046 23.352 8.872 30.91H36.4c-2.158-3.861-4.624-9.13-3.78-12.707.151-.647.346-1.47 1.142-1.58 1.924-.308 4.499-.28 6.332-.487h.028c.39-.02 9.941-1.233 12.227 4.72.195.545.644.19.824-.169 1.705-3.389 2.805-8.724 1.716-11.61zm-15.42-2.874c-.67 1.197-1.127 2.753-1.244 4.11-.063.863.027 1.713.113 2.575.047.476.05 1.076-.332 1.388-.331.281-.881.309-1.435.348-2.72-.012-9.352 0-11.908-1.74l-.016-.012c-3.718-2.266-5.708-7.383-3.5-11.357.715-1.35 2.03-2.227 3.528-2.559 1.927-.44 4.05-.113 5.77.788.702.355 1.541.823 2.181 1.361 1.268 1.108 2.353 2.258 4.015 2.613.764.219 1.56.188 2.325.343 1.432.344 1.073 1.159.5 2.134z" />
    </g>
    <path fill="#121212"
        d="M79.266 49V15.024h9.896q8.481 0 13.112 4.484 4.632 4.485 4.631 12.772 0 8.092-4.582 12.43Q97.741 49 89.113 49zm6.288-5.8h2.925q3.851 0 6.532-.976 2.682-.975 4.095-3.412 1.462-2.437 1.462-6.776 0-4.193-1.413-6.63-1.365-2.486-3.949-3.51-2.535-1.071-6.142-1.072h-3.51zm34.846 6.287q-3.51 0-6.24-1.608t-4.338-4.436q-1.56-2.876-1.56-6.483 0-3.657 1.56-6.435 1.56-2.827 4.29-4.436 2.778-1.609 6.288-1.609 3.46 0 6.191 1.61 2.73 1.608 4.289 4.435 1.56 2.778 1.56 6.435 0 3.607-1.56 6.434a11.85 11.85 0 0 1-4.289 4.485q-2.73 1.608-6.191 1.608m0-5.313q1.852 0 3.168-.877 1.365-.878 2.048-2.486.73-1.609.731-3.851 0-2.292-.731-3.851-.683-1.609-2.048-2.438-1.315-.877-3.168-.877-1.901 0-3.266.877-1.365.829-2.096 2.438-.732 1.56-.731 3.85 0 2.243.731 3.852.73 1.607 2.096 2.486 1.365.877 3.266.877m23.557 5.313q-3.168 0-5.459-1.608-2.292-1.657-3.559-4.485-1.218-2.876-1.218-6.434 0-3.95 1.365-6.727 1.413-2.78 3.753-4.241a9.25 9.25 0 0 1 5.118-1.512q1.95 0 3.608.83 1.706.78 2.924 2.388 1.22 1.608 1.609 4.094l-1.219-.34V15.023h5.996V49h-5.996v-6.435l1.414-.682q-.585 2.828-1.901 4.533-1.267 1.658-2.974 2.389a9 9 0 0 1-3.461.682m1.658-5.557q1.803 0 3.071-.877 1.316-.877 1.998-2.437.732-1.56.732-3.656t-.732-3.656q-.683-1.56-1.998-2.389-1.268-.877-3.071-.877-1.755 0-3.071.877-1.316.828-2.048 2.389-.682 1.51-.682 3.656t.682 3.704q.731 1.56 2.048 2.438 1.316.828 3.071.828m25.797 5.557q-3.509 0-6.239-1.608t-4.339-4.436q-1.559-2.876-1.559-6.483 0-3.657 1.559-6.435 1.56-2.827 4.29-4.436 2.78-1.609 6.288-1.609 3.462 0 6.191 1.61 2.73 1.608 4.29 4.435 1.56 2.778 1.56 6.435 0 3.607-1.56 6.434a11.85 11.85 0 0 1-4.29 4.485q-2.73 1.608-6.191 1.608m0-5.313q1.853 0 3.169-.877 1.365-.878 2.047-2.486.732-1.609.732-3.851 0-2.292-.732-3.851-.682-1.609-2.047-2.438-1.316-.877-3.169-.877-1.9 0-3.266.877-1.364.829-2.096 2.438-.73 1.56-.731 3.85 0 2.243.731 3.852.732 1.607 2.096 2.486 1.365.877 3.266.877M196.372 49V15.024h11.212q5.752 0 8.677 2.486 2.925 2.436 2.925 7.36t-2.974 7.507-8.628 2.584h-4.972V49zm6.24-19.645h4.338q2.828 0 4.388-.975 1.559-1.023 1.559-3.46 0-2.34-1.511-3.267-1.462-.975-4.436-.975h-4.338zM236.133 49l-.487-3.607V33.84q0-2.145-1.365-3.169-1.317-1.072-3.607-1.072-1.902 0-3.9.78a10.7 10.7 0 0 0-3.461 2.096l-3.071-4.144q2.535-2.047 5.167-2.924 2.681-.927 5.752-.927 4.972.001 7.751 2.486 2.778 2.487 2.778 6.874V49zm-7.263.487q-2.632 0-4.728-.974-2.048-.975-3.267-2.779-1.169-1.803-1.169-4.144 0-2.095.828-3.558.878-1.51 2.291-2.291a8.4 8.4 0 0 1 2.681-1.024 17 17 0 0 1 3.218-.292h7.458v4.484h-6.581q-.78 0-1.56.147-.731.097-1.267.536-.488.341-.731.877a2.5 2.5 0 0 0-.244 1.121q0 1.365 1.072 2.194 1.073.83 2.876.829 1.61 0 2.925-.683 1.365-.73 2.145-1.95.828-1.266.829-2.876l1.608 3.218q-.633 2.534-1.95 4.143-1.266 1.56-2.924 2.291a8.6 8.6 0 0 1-3.51.731m17.316 9.457 4.875-11.796-9.067-22.18h6.629l5.655 16.135 5.752-16.135h6.532l-13.795 33.976zm21.7-9.944V24.968h6.093v6.24l-1.316 1.023q.342-2.291 1.17-3.802.828-1.51 1.95-2.34 1.17-.877 2.388-1.219a8.4 8.4 0 0 1 2.487-.39q1.9 0 3.607.732 1.706.682 2.973 2.388 1.268 1.706 1.755 4.68l-3.607 1.316q.73-3.412 2.096-5.41 1.414-2 3.217-2.828a9 9 0 0 1 3.9-.878q3.071 0 4.972 1.365a7.95 7.95 0 0 1 2.779 3.51 11 11 0 0 1 .926 4.485V49h-6.045V35.302q0-1.803-.487-3.022-.439-1.268-1.316-1.901-.878-.634-2.291-.634-1.463 0-2.486.78-1.025.78-1.56 2.34-.488 1.56-.488 3.997V49h-6.044V35.205q0-2.73-1.024-4.095-.975-1.365-2.876-1.365-1.512 0-2.584.78-1.023.78-1.56 2.34-.536 1.56-.536 3.997V49zm49.369.487q-3.12 0-5.362-1.023-2.243-1.025-3.705-2.73a11.9 11.9 0 0 1-2.096-3.949 16 16 0 0 1-.682-4.68q0-2.34.682-4.581a12.8 12.8 0 0 1 2.048-4.046q1.365-1.804 3.509-2.876 2.194-1.122 5.216-1.122 2.827 0 4.924.975 2.096.927 3.461 2.633 1.365 1.657 2.047 3.9.731 2.242.731 4.777 0 .34-.048.974 0 .585-.098 1.268h-16.428q.245 2.583 1.902 3.9 1.706 1.316 4.24 1.316 1.853 0 3.608-.634a10.2 10.2 0 0 0 3.12-1.901l3.022 4.095q-1.707 1.316-3.217 2.145a11.3 11.3 0 0 1-3.169 1.17q-1.608.39-3.705.39Zm4.777-13.502q.098-.39.147-.78a3 3 0 0 0 .097-.731 4.6 4.6 0 0 0-.39-1.902 5 5 0 0 0-1.072-1.608 4.3 4.3 0 0 0-1.658-1.024q-.926-.39-2.144-.39-1.804 0-3.023.731-1.219.732-1.852 1.901a6.8 6.8 0 0 0-.731 2.34h12.674zM330.466 49V24.968h6.094v5.46l-.975.097q.634-2.193 1.852-3.51a7.15 7.15 0 0 1 2.827-1.9 9 9 0 0 1 3.315-.635q4.095 0 6.386 2.34 2.34 2.292 2.34 6.484V49h-6.093V35.546q0-3.022-1.073-4.387-1.072-1.414-3.363-1.414-1.755 0-2.925.829-1.121.78-1.706 2.486t-.585 4.436V49zm34.243.487q-1.95 0-3.608-.73-1.657-.731-2.681-2.39-.975-1.656-.975-4.435v-22.57l6.142-3.266v24.178q0 2.097.537 3.169.585 1.072 2.242 1.072.487 0 1.072-.097a13 13 0 0 0 1.365-.293v4.631a9.5 9.5 0 0 1-2.047.536q-1.024.195-2.047.195m-11.651-19.79v-4.73h15.745v4.73zm26.284 19.79q-2.682 0-4.68-.78-1.999-.78-3.412-1.95-1.365-1.17-2.194-2.242l4.144-3.607q.828 1.365 2.339 2.535 1.56 1.12 3.851 1.121 1.804 0 2.779-.682 1.024-.733 1.024-1.804 0-.877-.634-1.414-.633-.584-1.706-.926a26 26 0 0 0-2.389-.731q-1.365-.39-2.827-.877a12 12 0 0 1-2.681-1.268 6.8 6.8 0 0 1-1.999-2.096q-.73-1.267-.731-3.169 0-3.168 2.486-5.118 2.487-1.998 6.581-1.999 2.876 0 5.216 1.17 2.34 1.122 3.705 3.266l-3.754 2.974a5.4 5.4 0 0 0-2.34-2.096 6.5 6.5 0 0 0-3.022-.731q-1.413 0-2.34.536-.877.536-.877 1.462 0 .634.39 1.073.438.438 1.365.78.974.292 2.534.682a43 43 0 0 1 3.023.829q1.56.487 2.925 1.316a6.44 6.44 0 0 1 2.193 2.194q.83 1.365.829 3.46 0 2.39-1.219 4.241-1.219 1.804-3.412 2.828-2.194 1.023-5.167 1.023" />
</svg>