<svg xmlns="http://www.w3.org/2000/svg" width="190" height="190" fill="none" viewBox="0 0 190 190"><g filter="url(#filter0_d_511_171)"><circle cx="95" cy="95" r="75" fill="#fff" fill-opacity=".18" shape-rendering="crispEdges"/></g><g clip-path="url(#clip0_511_171)"><path fill="#000" fill-opacity=".24" d="M95 165C133.66 165 165 133.66 165 95C165 56.3401 133.66 25 95 25C56.3401 25 25 56.3401 25 95C25 133.66 56.3401 165 95 165Z"/><path fill="#fff" fill-opacity=".3" d="M153.503 83.6581C153.503 100.319 146.557 115.357 135.403 126.035C131.708 129.574 127.55 132.631 123.03 135.111C114.667 139.703 105.059 142.315 94.8455 142.315C84.6318 142.315 75.0289 139.706 66.6659 135.114C65.3178 134.376 64.0037 133.586 62.7251 132.746C59.7085 130.771 56.8855 128.52 54.2904 126.035C43.1357 115.359 36.1877 100.319 36.1877 83.6578C36.1877 51.262 62.4497 25 94.8455 25C127.241 25 153.503 51.2623 153.503 83.6581Z"/><path fill="#0E0D11" d="M143.397 145.571C138.988 149.794 134.026 153.443 128.631 156.403C118.652 161.883 107.186 165 94.9973 165C82.8088 165 71.3487 161.886 61.3688 156.406C55.9745 153.448 51.0116 149.797 46.6002 145.571C51.0775 134.205 61.966 126.068 74.8116 125.611C75.1886 125.594 75.5714 125.585 75.9545 125.585H114.043C114.426 125.585 114.809 125.594 115.186 125.611C128.032 126.068 138.92 134.206 143.397 145.571Z"/><path fill="#F87359" d="M94.9973 147.674C94.9973 147.674 143.476 112.481 141.733 109.313C139.131 104.579 135.267 101.349 131.45 99.1579C125.043 95.4813 118.76 94.7354 118.76 94.7354L80.1704 127.487L94.9973 147.674Z"/><path fill="#0E0D11" d="M94.9973 147.674C94.9973 147.674 143.476 112.481 141.733 109.313C139.131 104.579 135.267 101.349 131.45 99.1578C135.353 103.476 139.1 110.045 133.335 115.807C132.404 116.739 131.379 117.37 130.287 117.749C126.476 119.074 122.93 121.065 120.008 123.848L94.9973 147.674Z"/><path fill="#F87359" d="M94.9973 147.674C94.9973 147.674 46.519 112.481 48.2611 109.313C50.8634 104.579 54.7276 101.349 58.5442 99.1579C64.9514 95.4813 71.2347 94.7354 71.2347 94.7354L94.9973 147.674Z"/><path fill="#CCC" d="M135.102 65.9344L121.749 73.8097V89.8293C121.749 93.5166 124.738 96.5059 128.426 96.5059C132.113 96.5059 135.102 93.5166 135.102 89.8293V65.9344Z"/><path fill="#CCC" d="M54.8916 65.9344L68.2447 73.8097V89.8293C68.2447 93.5166 65.2555 96.5059 61.5682 96.5059C57.8809 96.5059 54.8916 93.5166 54.8916 89.8293V65.9344Z"/><path fill="#CCC" d="M109.826 109.273V125.202C109.826 133.391 103.188 140.029 94.9984 140.029C86.8092 140.029 80.1707 133.391 80.1707 125.202V109.273H109.826Z"/><path fill="#EDEDED" d="M128.012 64.663V92.6572C128.012 101.774 124.317 110.029 118.346 116C112.366 121.98 104.114 125.672 94.9973 125.672C76.7631 125.672 61.983 110.891 61.983 92.6572V64.663C61.983 63.1571 62.0831 61.6715 62.2802 60.2201C62.8859 55.703 64.4086 51.4773 66.6544 47.7317C72.4173 38.0974 117.58 38.0974 123.34 47.7317C125.586 51.4775 127.109 55.7032 127.714 60.2201C127.911 61.6715 128.012 63.1571 128.012 64.663Z"/><path fill="#CCC" d="M71.5475 92.6575V64.6635C71.5475 48.0552 83.8139 34.3155 99.7802 31.9979C98.2184 31.7709 96.6223 31.6487 94.997 31.6487C76.7639 31.6487 61.9821 46.4304 61.9821 64.6635V92.6575C61.9821 110.891 76.7639 125.672 94.997 125.672C96.622 125.672 98.2181 125.55 99.7805 125.323C83.8139 123.006 71.5475 109.266 71.5475 92.6575Z"/><path fill="#0E0D11" d="M111.432 86.1581V79.8308C111.432 78.1806 110.094 76.8427 108.444 76.8427C106.794 76.8427 105.456 78.1803 105.456 79.8308V86.1581C105.456 87.8083 106.793 89.1462 108.444 89.1462C110.094 89.146 111.432 87.8083 111.432 86.1581Z"/><path fill="#0E0D11" d="M78.5642 79.8305V86.1579C78.5642 87.8081 79.9019 89.146 81.5523 89.146C83.2025 89.146 84.5405 87.8083 84.5405 86.1579V79.8305C84.5405 78.1803 83.2028 76.8424 81.5523 76.8424C79.9019 76.8427 78.5642 78.1803 78.5642 79.8305Z"/><path fill="#7F7D89" d="M109.48 82.8925C110.558 82.8925 111.432 82.0184 111.432 80.9401C111.432 79.8619 110.558 78.9878 109.48 78.9878C108.402 78.9878 107.528 79.8619 107.528 80.9401C107.528 82.0184 108.402 82.8925 109.48 82.8925Z"/><path fill="#7F7D89" d="M82.5887 82.8925C83.6669 82.8925 84.541 82.0184 84.541 80.9401C84.541 79.8619 83.6669 78.9878 82.5887 78.9878C81.5104 78.9878 80.6363 79.8619 80.6363 80.9401C80.6363 82.0184 81.5104 82.8925 82.5887 82.8925Z"/><path fill="#7F7D89" d="M107.297 86.6995C107.917 86.6995 108.419 86.197 108.419 85.577C108.419 84.9571 107.917 84.4546 107.297 84.4546C106.677 84.4546 106.175 84.9571 106.175 85.577C106.175 86.197 106.677 86.6995 107.297 86.6995Z"/><path fill="#7F7D89" d="M80.4086 86.6995C81.0285 86.6995 81.531 86.197 81.531 85.577C81.531 84.9571 81.0285 84.4546 80.4086 84.4546C79.7886 84.4546 79.2861 84.9571 79.2861 85.577C79.2861 86.197 79.7886 86.6995 80.4086 86.6995Z"/><path fill="#0E0D11" d="M69.2829 60.2204C69.2829 60.5652 69.2963 60.907 69.3231 61.2452C69.6409 65.2842 68.1812 69.2835 65.1182 71.9355C64.1609 72.7646 63.1095 73.4884 61.9827 74.0891V64.6635C61.9827 58.472 63.6857 52.6833 66.6541 47.7319C68.4484 49.7291 69.774 52.1548 70.4625 54.8378C69.7057 56.4746 69.2829 58.3003 69.2829 60.2204Z"/><path fill="#0E0D11" d="M128.012 64.6629V74.0885C126.885 73.4878 125.834 72.764 124.876 71.9349C121.814 69.2829 120.353 65.2836 120.671 61.2446C120.698 60.9064 120.711 60.5646 120.711 60.2198C120.711 58.2997 120.289 56.474 119.531 54.8369C120.22 52.1539 121.546 49.7283 123.34 47.7311C126.309 52.6828 128.012 58.4714 128.012 64.6629Z"/><path fill="#EDEDED" d="M73.9132 78.0136L85.9927 82.6837L88.6714 75.7552L76.5919 71.085L73.9132 78.0136Z"/><path fill="#EDEDED" d="M113.406 71.0863L101.326 75.7565L104.005 82.685L116.085 78.0148L113.406 71.0863Z"/><path fill="#0E0D11" d="M110.617 95.4572C110.617 100.789 107.946 105.497 103.866 108.314C101.346 110.057 98.2914 111.077 94.997 111.077C91.7026 111.077 88.6483 110.057 86.1283 108.314C82.0484 105.497 79.3769 100.788 79.3769 95.4572C80.8225 96.1801 82.3084 96.7973 83.8197 97.3086C85.4026 97.8429 87.014 98.2629 88.6396 98.5629C90.7396 98.9514 92.868 99.1458 94.9967 99.1458C97.1252 99.1458 99.2539 98.9514 101.354 98.5629C102.979 98.2629 104.591 97.8429 106.174 97.3086C107.686 96.797 109.171 96.1798 110.617 95.4572Z"/><path fill="#F87359" d="M103.866 108.314C101.346 110.057 98.2914 111.077 94.997 111.077C91.7026 111.077 88.6483 110.057 86.1283 108.314C88.6483 106.571 91.7026 105.551 94.997 105.551C98.2914 105.551 101.346 106.571 103.866 108.314Z"/><path fill="#CCC" d="M113.404 71.4581H76.5903L86.9166 79.2019H88.0555C90.0456 79.2019 91.6589 80.8149 91.6589 82.8052V88.3929C91.6589 90.2318 93.0974 91.809 94.9357 91.8426C96.8085 91.8768 98.3379 90.3688 98.3379 88.5037V82.8052C98.3379 80.8152 99.9511 79.2019 101.941 79.2019H103.078L113.404 71.4581Z"/><path fill="#F0F0F0" d="M106.174 97.3086C106.003 98.623 105.706 99.8658 105.38 100.954C104.649 103.4 103.76 105.077 103.76 105.077L102.226 100.923L101.354 98.5629C102.98 98.2629 104.591 97.8429 106.174 97.3086Z"/><path fill="#F0F0F0" d="M88.6401 98.5629L87.7687 100.923L86.2344 105.077C86.2344 105.077 85.3457 103.4 84.6143 100.954C84.2886 99.8658 83.9914 98.623 83.82 97.3086C85.4029 97.8429 87.0143 98.2629 88.6401 98.5629Z"/><path fill="#0E0D11" d="M71.3799 73.6013L74.2056 69.2049C74.7098 68.4205 75.7549 68.193 76.5397 68.6972L88.1006 76.1281C89.6786 77.1423 88.6743 79.5887 86.8387 79.2015L72.4521 76.1669C71.2952 75.923 70.7406 74.5963 71.3799 73.6013Z"/><path fill="#0E0D11" d="M118.614 73.6013L115.789 69.2049C115.284 68.4205 114.239 68.193 113.455 68.6972L101.894 76.1281C100.316 77.1423 101.32 79.5887 103.155 79.2015L117.542 76.1669C118.699 75.923 119.254 74.5963 118.614 73.6013Z"/><path fill="#CCC" d="M98.6162 116.791H91.3783C90.642 116.791 90.0448 116.194 90.0448 115.458C90.0448 114.721 90.6417 114.124 91.3783 114.124H98.6162C99.3526 114.124 99.9498 114.721 99.9498 115.458C99.9495 116.195 99.3526 116.791 98.6162 116.791Z"/><path fill="#0E0D11" d="M123.34 47.7315C117.58 38.0972 107.043 31.6487 94.997 31.6487C82.9543 31.6487 72.4171 38.0972 66.6541 47.7315C64.4084 51.4773 62.8856 55.703 62.2799 60.2199H69.2827C69.2827 53.1198 75.0399 47.3629 82.1397 47.3629C82.3122 47.3629 82.4842 47.3664 82.6551 47.3733C88.6833 47.6111 93.3791 52.7179 93.3791 58.751V60.5075C93.3791 61.4009 94.1034 62.1252 94.9967 62.1252C95.89 62.1252 96.6144 61.4009 96.6144 60.5075V58.751C96.6144 52.7179 101.31 47.6111 107.338 47.3733C107.509 47.3664 107.681 47.3629 107.854 47.3629C114.954 47.3629 120.711 53.1201 120.711 60.2199H127.714C127.109 55.703 125.586 51.4773 123.34 47.7315Z"/><path fill="#0E0D11" d="M94.9973 147.674C94.9973 147.674 46.519 112.481 48.2611 109.313C50.8634 104.579 54.7276 101.349 58.5442 99.158C54.642 103.476 50.8943 110.045 56.6597 115.808C57.591 116.739 58.6159 117.37 59.7074 117.749C63.5189 119.075 67.0645 121.065 69.9862 123.848L94.9973 147.674Z"/><path fill="#F87359" d="M106.604 145.612L95.788 149.62C95.2786 149.809 94.7184 149.809 94.2089 149.62L83.3934 145.612C81.9095 145.062 80.3317 146.16 80.3317 147.743V154.412C80.3317 155.994 81.9095 157.092 83.3934 156.542L94.2089 152.534C94.7184 152.345 95.2786 152.345 95.788 152.534L106.604 156.542C108.088 157.092 109.665 155.994 109.665 154.412V147.743C109.665 146.16 108.088 145.062 106.604 145.612Z"/><path fill="#F87359" d="M105.38 100.954C104.649 103.4 103.76 105.077 103.76 105.077L102.226 100.923C102.703 100.746 103.22 100.649 103.76 100.649C104.331 100.649 104.877 100.757 105.38 100.954Z"/><path fill="#F87359" d="M87.7687 100.923L86.2344 105.077C86.2344 105.077 85.3457 103.4 84.6143 100.954C85.1172 100.757 85.6629 100.649 86.2344 100.649C86.7742 100.649 87.2915 100.746 87.7687 100.923Z"/></g><defs><filter id="filter0_d_511_171" width="190" height="190" x="0" y="0" color-interpolation-filters="sRGB" filterUnits="userSpaceOnUse"><feFlood flood-opacity="0" result="BackgroundImageFix"/><feColorMatrix in="SourceAlpha" result="hardAlpha" type="matrix" values="0 0 0 0 0 0 0 0 0 0 0 0 0 0 0 0 0 0 127 0"/><feOffset/><feGaussianBlur stdDeviation="10"/><feComposite in2="hardAlpha" operator="out"/><feColorMatrix type="matrix" values="0 0 0 0 1 0 0 0 0 1 0 0 0 0 1 0 0 0 0.06 0"/><feBlend in2="BackgroundImageFix" mode="normal" result="effect1_dropShadow_511_171"/><feBlend in="SourceGraphic" in2="effect1_dropShadow_511_171" mode="normal" result="shape"/></filter><clipPath id="clip0_511_171"><rect width="140" height="140" fill="#fff" transform="translate(25 25)"/></clipPath></defs></svg>