<svg xmlns="http://www.w3.org/2000/svg" width="190" height="190" fill="none" viewBox="0 0 190 190"><g filter="url(#filter0_d_2811_104)"><circle cx="95" cy="95" r="75" fill="#000" fill-opacity=".18" shape-rendering="crispEdges"/></g><mask id="mask0_2811_104" width="140" height="140" x="25" y="25" maskUnits="userSpaceOnUse" style="mask-type:alpha"><path fill="#D9D9D9" d="M95 165C133.66 165 165 133.66 165 95C165 56.3401 133.66 25 95 25C56.3401 25 25 56.3401 25 95C25 133.66 56.3401 165 95 165Z"/></mask><g mask="url(#mask0_2811_104)"><path fill="#fff" fill-opacity=".12" d="M95 165C133.66 165 165 133.66 165 95C165 56.3401 133.66 25 95 25C56.3401 25 25 56.3401 25 95C25 133.66 56.3401 165 95 165Z"/><path fill="#000" fill-opacity=".18" d="M153.503 83.6581C153.503 100.319 146.557 115.357 135.403 126.035C131.708 129.574 127.55 132.631 123.03 135.111C114.667 139.703 105.059 142.315 94.8455 142.315C84.6318 142.315 75.0289 139.706 66.6659 135.114C65.3178 134.376 64.0037 133.586 62.7251 132.746C59.7085 130.771 56.8856 128.52 54.2904 126.035C43.1357 115.359 36.1877 100.319 36.1877 83.6578C36.1877 51.262 62.4497 25 94.8455 25C127.241 25 153.503 51.2623 153.503 83.6581Z"/><path fill="#AB852B" d="M47.17 112C48.826 127.105 61.67 159.5 61.67 159.5C61.67 159.5 64.8221 188.084 99.17 186C129.705 184.147 132.17 159.5 132.17 159.5C132.17 159.5 140.928 127.133 141.67 113.5C142.745 93.7605 127.17 65 127.17 65L61.67 67C61.67 67 45.1579 93.6466 47.17 112Z"/><path fill="#EFEBDC" d="M151 152.325C145.853 157.254 140.06 161.512 133.763 164.966C122.112 171.362 108.727 175 94.4984 175C80.2697 175 66.8913 171.366 55.2408 164.97C48.9434 161.518 43.1498 157.257 38 152.325C43.2267 139.06 55.938 129.564 70.9338 129.03C71.3739 129.01 71.8208 129 72.268 129H116.732C117.179 129 117.626 129.01 118.067 129.03C133.062 129.564 145.774 139.061 151 152.325Z"/><path fill="#565143" d="M95.0433 150.674C95.0433 150.674 143.522 115.481 141.779 112.313C139.177 107.579 135.313 104.349 131.496 102.158C125.089 98.4813 118.806 97.7354 118.806 97.7354L80.2164 130.487L95.0433 150.674Z"/><path fill="#565043" d="M95.046 151C95.046 151 46.2958 112.53 48.046 109C50.6604 103.724 54.5887 99.3711 58.4232 96.9289C64.8602 92.8313 126.546 101 126.546 101L95.046 151Z"/><path fill="#EFEBDC" d="M95.0433 150.674C95.0433 150.674 143.522 115.481 141.78 112.313C139.177 107.579 135.313 104.349 131.496 102.158C135.399 106.476 139.146 113.045 133.381 118.807C132.45 119.739 131.425 120.37 130.333 120.749C126.522 122.074 122.976 124.065 120.054 126.848L95.0433 150.674Z"/><path fill="#EFEBDC" d="M101.046 156C101.046 156 46.565 115.481 48.3071 112.313C50.9094 107.579 54.7736 104.349 58.5902 102.158C54.688 106.476 50.9403 113.045 56.7057 118.808C57.637 119.739 58.6619 120.37 59.7534 120.749C63.5649 122.075 67.1106 124.065 70.0322 126.848L101.046 156Z"/><path fill="#565143" d="M106.272 148.612L95.4563 152.62C94.9469 152.809 94.3866 152.809 93.8772 152.62L83.0617 148.612C81.5777 148.062 80 149.16 80 150.743V157.412C80 158.994 81.5777 160.092 83.0617 159.542L93.8772 155.534C94.3866 155.345 94.9469 155.345 95.4563 155.534L106.272 159.542C107.756 160.092 109.334 158.994 109.334 157.412V150.743C109.334 149.16 107.756 148.062 106.272 148.612Z"/><path fill="#DFC3B0" d="M109.655 112.273V128.202C109.655 136.391 103.017 143.029 94.8277 143.029C86.6385 143.029 80 136.391 80 128.202V112.273H109.655Z"/><path fill="#DFC3B0" d="M141.841 68.691L125.707 70.5381L118.881 85.8686C117.31 89.3973 118.897 93.5315 122.426 95.1026C125.954 96.6737 130.089 95.0867 131.66 91.558L141.841 68.691Z"/><path fill="#DFC3B0" d="M46 65.5481L62.1341 67.3952L68.9597 82.7257C70.5307 86.2543 68.9437 90.3886 65.415 91.9597C61.8864 93.5308 57.7521 91.9438 56.181 88.4151L46 65.5481Z"/><mask id="mask1_2811_104" width="64" height="88" x="62" y="41" maskUnits="userSpaceOnUse" style="mask-type:alpha"><path fill="#F4E4DB" d="M65.8875 99.7731C62.342 91.4201 62 77.1716 62 77.1716L68.8031 42.8908C68.8031 42.8908 83.9872 41.5176 93.7072 41.485C103.049 41.4537 117.397 42.8908 117.397 42.8908L125.9 77.1716C125.9 77.1716 125.483 91.4289 121.891 99.7731C115.913 113.663 110.416 128.526 93.7072 128.43C77.0915 128.335 71.7604 113.609 65.8875 99.7731Z"/></mask><g mask="url(#mask1_2811_104)"><path fill="#F4E4DB" d="M65.8875 99.7731C62.342 91.4201 62 77.1716 62 77.1716L68.8031 42.8908C68.8031 42.8908 83.9872 41.5176 93.7072 41.485C103.049 41.4537 117.397 42.8908 117.397 42.8908L125.9 77.1716C125.9 77.1716 125.483 91.4289 121.891 99.7731C115.913 113.663 110.416 128.526 93.7072 128.43C77.0915 128.335 71.7604 113.609 65.8875 99.7731Z"/><path fill="#DDC2B2" d="M72.6986 99.7647L69.3382 70.6329C67.3445 53.3495 78.4602 37.5789 94.7973 33.2504C93.1447 33.2017 91.4691 33.2661 89.7777 33.4612C70.8035 35.6499 57.1953 52.8069 59.384 71.7811L62.7444 100.913C64.933 119.887 82.09 133.495 101.064 131.307C102.755 131.112 104.402 130.793 106 130.369C89.1065 129.874 74.6922 117.048 72.6986 99.7647Z"/><path fill="#DDC2B2" d="M66.9546 95.0687L75.8813 67.1354C81.1774 50.5631 97.7986 40.7647 114.469 43.5434C112.983 42.8189 111.43 42.1879 109.808 41.6697C91.6142 35.8555 72.1509 45.8916 66.3367 64.0852L57.4099 92.0185C51.5958 110.212 61.6319 129.675 79.8255 135.49C81.447 136.008 83.0786 136.394 84.71 136.667C69.517 129.262 61.6585 111.641 66.9546 95.0687Z"/></g><path fill="#DDC2B2" d="M98.8569 112.971H90.7438C90.7438 112.971 92.8371 116.149 94.8609 116.12C96.8474 116.091 98.8569 112.971 98.8569 112.971Z"/><path fill="#DDC2B2" d="M85.9776 106.432C88.2422 106.432 103.365 106.432 103.365 106.432C104.745 106.554 106.001 108.854 106.001 108.854H83.2362C83.2362 108.854 83.713 106.432 85.9776 106.432Z"/><path fill="#0E0D11" d="M110.925 85.6471V79.0189C110.925 77.2902 109.524 75.8887 107.795 75.8887C106.066 75.8887 104.665 77.2899 104.665 79.0189V85.6471C104.665 87.3757 106.066 88.7773 107.795 88.7773C109.524 88.777 110.925 87.3757 110.925 85.6471Z"/><path fill="#0E0D11" d="M76.4944 79.0186V85.6468C76.4944 87.3755 77.8957 88.777 79.6246 88.777C81.3533 88.777 82.7548 87.3758 82.7548 85.6468V79.0186C82.7548 77.29 81.3536 75.8884 79.6246 75.8884C77.8957 75.8887 76.4944 77.29 76.4944 79.0186Z"/><path fill="#F4E4DB" d="M71.6223 76.0677L84.2762 80.96L86.2935 75.7422L73.6396 70.85L71.6223 76.0677Z"/><path fill="#F4E4DB" d="M112.993 68.8111L100.339 73.7034L103.145 80.9613L115.799 76.0691L112.993 68.8111Z"/><path fill="#DFC3B0" d="M119.377 69.2445L93.7117 76.0536L68.5706 69.2445L72.7608 76.0536C72.7608 76.0536 91.0928 80.2539 91.0928 82.3389V98.0521C91.0928 98.0521 92.6102 99.0996 93.7117 99.0996C94.8132 99.0996 96.3306 98.0521 96.3306 98.0521V82.3389C96.3306 80.2541 114.352 75.6753 114.352 75.6753L119.377 69.2445Z"/><path fill="#0E0D11" d="M56.4764 72.1372L61.4728 67.4525C62.3643 66.6165 64.2122 66.3741 65.5999 66.9114L86.0418 74.8297C88.832 75.9104 87.0562 78.5174 83.8105 78.1048L58.3722 74.8711C56.3265 74.6112 55.346 73.1975 56.4764 72.1372Z"/><path fill="#0E0D11" d="M130.947 72.1372L125.951 67.4525C125.059 66.6165 123.211 66.3741 121.824 66.9114L101.382 74.8298C98.5914 75.9104 100.367 78.5174 103.612 78.1048L129.051 74.8711C131.097 74.6112 132.077 73.1975 130.947 72.1372Z"/><path fill="#E9BA49" d="M123.963 48.441C117.929 38.3486 106.891 31.5935 94.2727 31.5935C81.6573 31.5935 70.6191 38.3486 64.5822 48.441C62.2296 52.3649 60.6345 56.7915 60 61.5232H67.3357C67.3357 54.0855 73.3667 48.0549 80.804 48.0549C80.9848 48.0549 81.165 48.0586 81.344 48.0657C87.6588 48.3149 92.5778 53.6645 92.5778 59.9845V61.8245C92.5778 62.7603 93.3366 63.5191 94.2724 63.5191C95.2082 63.5191 95.967 62.7603 95.967 61.8245V59.9845C95.967 53.6645 100.886 48.3149 107.201 48.0657C107.38 48.0586 107.56 48.0549 107.741 48.0549C115.178 48.0549 121.209 54.0858 121.209 61.5232H128.545C127.911 56.7915 126.316 52.3649 123.963 48.441Z"/></g><mask id="mask2_2811_104" width="112" height="125" x="38" y="38" maskUnits="userSpaceOnUse" style="mask-type:alpha"><path fill="#F6CD62" d="M113.656 61.1536C110.891 55.7386 94.0872 64.7251 94.0872 64.7251L94.0706 42.259C94.0706 42.259 96.1234 41.024 97.527 40.4156C102.314 38.3403 105.607 37.9754 110.776 38.6874C114.596 39.2136 116.818 39.9029 120.108 41.9133C123.016 43.6901 124.338 45.205 126.56 47.7891C128.911 50.5237 130.013 52.2845 131.629 55.5082C133.99 60.2156 133.928 63.4005 135.547 68.4118C137.449 74.3017 138.399 77.6558 140.731 83.3892C142.9 88.7219 145.195 91.2714 146.952 96.7537C148.108 100.36 149.03 102.416 149.141 106.201C149.233 109.286 148.957 111.069 148.104 114.035C146.893 118.253 144.511 119.901 142.805 123.943C141.438 127.181 140.22 128.967 139.925 132.469C139.712 134.99 140.034 136.435 140.501 138.921C141.119 142.221 142.531 143.801 143.15 147.101C143.568 149.323 144.043 150.623 143.726 152.861C143.321 155.731 142.481 157.428 140.501 159.544C138.734 161.431 134.855 163 134.855 163C134.855 163 136.759 159.995 137.159 157.815C137.617 155.328 137.268 153.799 136.583 151.364C135.424 147.243 132.228 146.168 130.477 142.262C129.505 140.094 128.875 138.851 128.519 136.501C128.215 134.5 128.342 133.334 128.519 131.317C128.961 126.285 132.213 124.036 132.436 118.989C132.598 115.309 132.081 113.195 131.053 109.657C129.785 105.29 127.811 103.338 125.984 99.1731C123.605 93.7476 122.509 90.6 120.569 85.0022C117.394 75.8399 116.422 66.5685 113.656 61.1536Z"/><path fill="#F6CD62" d="M74.5014 61.1409C77.2664 55.726 94.0872 64.7251 94.0872 64.7251V42.2463C94.0872 42.2463 92.0344 41.0114 90.6309 40.403C85.8434 38.3277 82.5508 37.9628 77.3817 38.6748C73.5617 39.201 71.34 39.8903 68.0496 41.9007C65.1415 43.6775 63.8196 45.1924 61.5978 47.7765C59.2465 50.5111 58.1453 52.2719 56.5285 55.4956C54.1676 60.203 54.2301 63.3879 52.6113 68.3992C50.7088 74.2891 49.759 77.6432 47.4269 83.3766C45.2577 88.7093 42.9625 91.2588 41.2055 96.7411C40.0496 100.348 39.1283 102.403 39.0165 106.188C38.9253 109.273 39.2013 111.056 40.0534 114.023C41.2649 118.24 43.647 119.888 45.3531 123.931C46.7194 127.169 47.9381 128.955 48.2333 132.456C48.4458 134.977 48.1234 136.422 47.6573 138.908C47.0385 142.209 45.6269 143.788 45.0074 147.088C44.5903 149.31 44.1153 150.61 44.4314 152.849C44.8365 155.718 45.6771 157.415 47.6573 159.531C49.4238 161.418 53.3026 162.987 53.3026 162.987C53.3026 162.987 51.3988 159.982 50.9984 157.803C50.5412 155.315 50.8895 153.786 51.5744 151.351C52.7334 147.231 55.9295 146.155 57.6806 142.249C58.6527 140.081 59.2826 138.838 59.6392 136.489C59.9431 134.487 59.8163 133.321 59.6392 131.304C59.1972 126.272 55.9447 124.023 55.722 118.977C55.5596 115.296 56.0769 113.183 57.1046 109.645C58.3731 105.277 60.3473 103.325 62.1738 99.1605C64.5532 93.735 65.649 90.5874 67.5887 84.9896C70.7637 75.8272 71.7363 66.5558 74.5014 61.1409Z"/></mask><g mask="url(#mask2_2811_104)"><path fill="#F6C85A" d="M113.656 61.1536C110.891 55.7386 94.0872 64.7251 94.0872 64.7251L94.0706 42.259C94.0706 42.259 96.1234 41.024 97.527 40.4156C102.314 38.3403 105.607 37.9754 110.776 38.6874C114.596 39.2136 116.818 39.9029 120.108 41.9133C123.016 43.6901 124.338 45.205 126.56 47.7891C128.911 50.5237 130.013 52.2845 131.629 55.5082C133.99 60.2156 133.928 63.4005 135.547 68.4118C137.449 74.3017 138.399 77.6558 140.731 83.3892C142.9 88.7219 145.195 91.2714 146.952 96.7537C148.108 100.36 149.03 102.416 149.141 106.201C149.233 109.286 148.957 111.069 148.104 114.035C146.893 118.253 144.511 119.901 142.805 123.943C141.438 127.181 140.22 128.967 139.925 132.469C139.712 134.99 140.034 136.435 140.501 138.921C141.119 142.221 142.531 143.801 143.15 147.101C143.568 149.323 144.043 150.623 143.726 152.861C143.321 155.731 142.481 157.428 140.501 159.544C138.734 161.431 134.855 163 134.855 163C134.855 163 136.759 159.995 137.159 157.815C137.617 155.328 137.268 153.799 136.583 151.364C135.424 147.243 132.228 146.168 130.477 142.262C129.505 140.094 128.875 138.851 128.519 136.501C128.215 134.5 128.342 133.334 128.519 131.317C128.961 126.285 132.213 124.036 132.436 118.989C132.598 115.309 132.081 113.195 131.053 109.657C129.785 105.29 127.811 103.338 125.984 99.1731C123.605 93.7476 122.509 90.6 120.569 85.0022C117.394 75.8399 116.422 66.5685 113.656 61.1536Z"/><path fill="#F6C85A" d="M74.5014 61.1409C77.2664 55.726 94.0872 64.7251 94.0872 64.7251V42.2463C94.0872 42.2463 92.0344 41.0114 90.6309 40.403C85.8434 38.3277 82.5508 37.9628 77.3817 38.6748C73.5617 39.201 71.34 39.8903 68.0496 41.9007C65.1415 43.6775 63.8196 45.1924 61.5978 47.7765C59.2465 50.5111 58.1453 52.2719 56.5285 55.4956C54.1676 60.203 54.2301 63.3879 52.6113 68.3992C50.7088 74.2891 49.759 77.6432 47.4269 83.3766C45.2577 88.7093 42.9625 91.2588 41.2055 96.7411C40.0496 100.348 39.1283 102.403 39.0165 106.188C38.9253 109.273 39.2013 111.056 40.0534 114.023C41.2649 118.24 43.647 119.888 45.3531 123.931C46.7194 127.169 47.9381 128.955 48.2333 132.456C48.4458 134.977 48.1234 136.422 47.6573 138.908C47.0385 142.209 45.6269 143.788 45.0074 147.088C44.5903 149.31 44.1153 150.61 44.4314 152.849C44.8365 155.718 45.6771 157.415 47.6573 159.531C49.4238 161.418 53.3026 162.987 53.3026 162.987C53.3026 162.987 51.3988 159.982 50.9984 157.803C50.5412 155.315 50.8895 153.786 51.5744 151.351C52.7334 147.231 55.9295 146.155 57.6806 142.249C58.6527 140.081 59.2826 138.838 59.6392 136.489C59.9431 134.487 59.8163 133.321 59.6392 131.304C59.1972 126.272 55.9447 124.023 55.722 118.977C55.5596 115.296 56.0769 113.183 57.1046 109.645C58.3731 105.277 60.3473 103.325 62.1738 99.1605C64.5532 93.735 65.649 90.5874 67.5887 84.9896C70.7637 75.8272 71.7363 66.5558 74.5014 61.1409Z"/><path fill="#AB852B" d="M103.288 52.3975C96.108 51.5997 94.0707 64.725 94.0707 64.725L115.5 67.1445C115.5 67.1445 112.62 53.4344 103.288 52.3975Z"/><path fill="#AB852B" d="M84.8539 52.3975C92.0335 51.5997 94.0707 64.725 94.0707 64.725L72.6415 67.1445C72.6415 67.1445 75.5218 53.4344 84.8539 52.3975Z"/></g><defs><filter id="filter0_d_2811_104" width="190" height="190" x="0" y="0" color-interpolation-filters="sRGB" filterUnits="userSpaceOnUse"><feFlood flood-opacity="0" result="BackgroundImageFix"/><feColorMatrix in="SourceAlpha" result="hardAlpha" type="matrix" values="0 0 0 0 0 0 0 0 0 0 0 0 0 0 0 0 0 0 127 0"/><feOffset/><feGaussianBlur stdDeviation="10"/><feComposite in2="hardAlpha" operator="out"/><feColorMatrix type="matrix" values="0 0 0 0 1 0 0 0 0 1 0 0 0 0 1 0 0 0 0.06 0"/><feBlend in2="BackgroundImageFix" mode="normal" result="effect1_dropShadow_2811_104"/><feBlend in="SourceGraphic" in2="effect1_dropShadow_2811_104" mode="normal" result="shape"/></filter></defs></svg>