<svg width="32" height="32" viewBox="0 0 32 32" fill="none" xmlns="http://www.w3.org/2000/svg"><circle cx="16" cy="16" r="16" fill="#ffabe7"/><path fill-rule="evenodd" clip-rule="evenodd" d="M3 15.9976C3 8.8228 8.81861 3 16 3C23.1819 3 29 8.82805 29 16.0024C29 23.1772 23.1814 29 16 29H14.9455V28.9531C8.2617 28.416 3 22.8178 3 15.9976ZM16.3233 26.8867C22.1898 26.7156 26.891 21.9051 26.891 16.0024C26.891 9.99097 22.0156 5.1086 16 5.1086C9.98391 5.1086 5.10898 9.98681 5.10898 15.9976C5.10898 22.0082 9.98834 26.8867 16 26.8867H16.3233Z" fill="#b8509a"/><path fill-rule="evenodd" clip-rule="evenodd" d="M10.7367 6.4736C10.5922 6.42811 10.4423 6.38094 10.2861 6.32797L10.9637 4.33118C11.026 4.3523 11.1381 4.38804 11.2689 4.42976C11.504 4.50472 11.7997 4.599 11.9758 4.66251L11.9852 4.66592L11.9946 4.66951C12.0428 4.68793 12.0945 4.70746 12.1486 4.72794C12.4214 4.83111 12.758 4.9584 13.0391 5.08986L13.0516 5.0957L13.1073 5.12355C13.2396 5.18522 13.4382 5.2799 13.6037 5.35876C13.6966 5.40304 13.779 5.44232 13.8333 5.46798L13.8585 5.47985L13.883 5.49304C13.8887 5.49611 13.8954 5.49969 13.9029 5.50373C13.9599 5.53426 14.0662 5.59114 14.1682 5.65347L14.1962 5.67057L14.2041 5.67611C14.2156 5.68281 14.2314 5.69176 14.2509 5.7026C14.2679 5.71208 14.2843 5.72109 14.3007 5.7301C14.3039 5.73187 14.3071 5.73364 14.3103 5.73541C14.3193 5.74038 14.3296 5.74603 14.3388 5.75116L14.3395 5.75152C14.3441 5.75413 14.3561 5.76078 14.3698 5.76882C14.3823 5.77598 14.4014 5.78691 14.4254 5.8006C14.4987 5.84244 14.6172 5.91007 14.7273 5.9745C14.8406 6.04087 15.0136 6.1431 15.1416 6.23283C15.2787 6.31705 15.4295 6.42148 15.5299 6.49101C15.548 6.50354 15.5644 6.51493 15.5788 6.52487C15.656 6.57187 15.7316 6.62516 15.7842 6.66284C15.8594 6.71675 15.9413 6.77782 16.016 6.83397C16.0505 6.85991 16.082 6.88371 16.1118 6.9062C16.1514 6.93611 16.188 6.96372 16.2244 6.99099C16.2545 7.0135 16.2796 7.03205 16.2998 7.04675C16.3098 7.05402 16.3176 7.05959 16.3234 7.06371C16.3284 7.06724 16.3308 7.06883 16.3309 7.06892L16.3584 7.08723L16.3849 7.10738C17.5487 7.99395 18.5851 9.03555 19.4697 10.1964L19.4706 10.1975L19.4714 10.1986C20.4493 11.4888 21.2214 12.921 21.7569 14.4452C23.3523 18.9013 22.8831 24.0495 20.3756 28.1134L18.5807 27.0063C20.7416 23.5041 21.1577 19.0256 19.7704 15.1532L19.7692 15.15L19.7681 15.1468C19.3059 13.8303 18.6385 12.5911 17.7913 11.4731C17.0248 10.4675 16.1297 9.56695 15.128 8.80088C15.0726 8.76245 15.0112 8.71685 14.9609 8.67926C14.9229 8.65083 14.8782 8.61709 14.8341 8.58383C14.8045 8.5615 14.7752 8.53937 14.7484 8.51923C14.676 8.46479 14.6102 8.41586 14.5558 8.37683C14.5072 8.34206 14.487 8.32922 14.4872 8.32902C14.4872 8.32901 14.4873 8.32905 14.4874 8.32913L14.456 8.31148L14.4194 8.28665C14.3656 8.25009 14.3176 8.2169 14.2736 8.18647C14.1771 8.11967 14.0998 8.06619 14.0213 8.01962L13.97 7.98913L13.9224 7.95304C13.9254 7.95529 13.9251 7.95514 13.921 7.95236C13.9131 7.94715 13.8914 7.93273 13.8508 7.9075C13.7973 7.87429 13.7316 7.8351 13.6614 7.79401C13.5619 7.73573 13.4713 7.68402 13.3996 7.64312C13.3661 7.62403 13.3368 7.6073 13.3126 7.59336L13.3105 7.59211C13.3067 7.59004 13.3013 7.58703 13.2931 7.58252C13.2906 7.58112 13.2878 7.57961 13.2849 7.578C13.2686 7.56904 13.2469 7.55707 13.2247 7.54474C13.1988 7.53033 13.1674 7.51262 13.1368 7.49472C13.12 7.48492 13.0888 7.46656 13.0539 7.44389C13.011 7.4183 12.9649 7.39355 12.9101 7.36409C12.9092 7.36365 12.9084 7.36321 12.9076 7.36278C12.842 7.33172 12.7604 7.29279 12.6737 7.25146C12.5106 7.17371 12.3297 7.08746 12.2041 7.02905L12.1906 7.02276L12.1338 6.99439C11.9347 6.90208 11.6963 6.81171 11.4293 6.71048C11.3713 6.68848 11.3119 6.66596 11.2513 6.6428C11.0867 6.58373 10.9158 6.52995 10.7367 6.4736ZM13.3128 7.59342C13.314 7.59407 13.3145 7.59437 13.3145 7.59438ZM13.3128 7.59342C13.314 7.59407 13.3145 7.59437 13.3145 7.59438Z" fill="#b8509a"/><path fill-rule="evenodd" clip-rule="evenodd" d="M15.1774 11.4919C18.3601 10.9172 21.2971 9.13207 23.3058 6.59106L24.9603 7.89856C22.639 10.8351 19.2503 12.8992 15.5519 13.567L15.5517 13.567C13.7102 13.899 11.8181 13.9102 9.97124 13.5716C8.12939 13.2433 6.35208 12.5821 4.74463 11.6168L5.83052 9.8092C7.21568 10.641 8.75086 11.2125 10.3439 11.4962L10.3466 11.4967L10.3494 11.4972C11.9374 11.7886 13.5744 11.7809 15.1772 11.4919" fill="#b8509a"/><path fill-rule="evenodd" clip-rule="evenodd" d="M9.54309 26.6889C11.3436 17.5014 20.7066 12.4275 28.364 14.5146L27.8093 16.5489C21.3092 14.7773 13.1728 19.1338 11.6127 27.0943L9.54309 26.6889Z" fill="#b8509a"/></svg>