<svg xmlns="http://www.w3.org/2000/svg" fill="none" viewBox="0 0 472 128"><path fill="#0061FE" d="M48.924 22 23.851 37.75 48.924 53.5l25.078-15.75L99.076 53.5l25.073-15.75L99.076 22 74.002 37.75 48.924 22Zm0 63L23.851 69.25 48.924 53.5l25.078 15.75L48.924 85Zm25.078-15.75L99.076 53.5l25.073 15.75L99.076 85 74.002 69.25Zm0 36.75L48.924 90.25 74.002 74.5l25.074 15.75L74.002 106Z"/><path fill="#1E1919" d="M141.95 37.527h19.953c12.76 0 23.181 7.405 23.181 24.202v3.59c0 16.86-9.833 24.49-22.88 24.49H141.95V37.526Zm11.146 9.468v33.22h8.582c7.181 0 12.097-4.765 12.097-15.246v-2.714c0-10.482-5.054-15.247-12.472-15.247h-8.207v-.013Zm37.918.513h8.869l1.389 9.831c1.689-6.741 6.017-10.193 13.861-10.193h2.715v11.219h-4.541c-9.095 0-11.297 3.152-11.297 12.094v19.362h-10.996V47.508ZM220.2 69.571v-1.175c0-14.221 9.094-21.85 21.417-21.85 12.61 0 21.342 7.766 21.342 21.85v1.175c0 13.934-8.582 21.338-21.342 21.338-13.636 0-21.417-7.404-21.417-21.338Zm31.612-.15v-1.025c0-7.918-3.965-12.533-10.195-12.533-6.155 0-10.271 4.328-10.271 12.533v1.025c0 7.63 3.891 11.882 10.196 11.882 6.317 0 10.27-4.177 10.27-11.882Zm16.939-21.913h9.244l1.101 8.068c2.277-5.429 6.968-9.018 13.936-9.018 10.784 0 17.827 7.767 17.827 22v1.176c0 13.933-7.844 21.188-17.827 21.188-6.742 0-11.221-3.002-13.498-7.918v21.338h-10.783V47.508ZM299.7 69.496v-.95c0-8.43-4.328-12.608-10.12-12.608-6.155 0-10.271 4.69-10.271 12.533v.813c0 7.48 3.966 12.17 10.046 12.17 6.317 0 10.345-4.178 10.345-11.958Zm27.359 12.62-.875 7.705h-9.533V33.35h10.784v21.7c2.352-5.503 7.043-8.505 13.711-8.505 10.045.075 17.526 7.042 17.526 21.113v1.25c0 14.084-7.043 22.001-17.827 22.001-6.968 0-11.509-3.365-13.786-8.793Zm20.542-13.207v-1.026c0-7.767-4.254-12.02-10.121-12.02-6.092 0-10.27 4.916-10.27 12.17v.876c0 7.917 4.028 12.47 10.12 12.47 6.38 0 10.271-4.103 10.271-12.47Zm15.987.662v-1.175c0-14.221 9.02-21.85 21.342-21.85 12.61 0 21.417 7.766 21.417 21.85v1.175c0 13.934-8.656 21.338-21.417 21.338-13.648 0-21.342-7.404-21.342-21.338Zm31.601-.15v-1.025c0-7.918-3.966-12.533-10.196-12.533-6.155 0-10.271 4.328-10.271 12.533v1.025c0 7.63 3.891 11.882 10.196 11.882 6.392 0 10.271-4.177 10.271-11.882Zm25.532-1.538L405.91 47.496h12.685l8.581 12.682 8.657-12.682h12.61l-15.037 20.312 15.838 22h-12.472L427.014 75.8l-9.458 14.008h-12.91l16.075-21.925Z"/></svg>