<svg xmlns="http://www.w3.org/2000/svg" fill="none" viewBox="0 0 472 128"><path fill="#F7F5F2" d="M49.16 22 24.088 37.75 49.161 53.5l25.077-15.75L99.312 53.5l25.074-15.75L99.312 22 74.238 37.75 49.161 22Zm0 63L24.088 69.25 49.161 53.5l25.077 15.75L49.161 85Zm25.078-15.75L99.312 53.5l25.074 15.75L99.312 85 74.238 69.25Zm0 36.75L49.161 90.25 74.238 74.5l25.074 15.75L74.238 106Zm67.948-68.473h19.954c12.76 0 23.181 7.405 23.181 24.202v3.59c0 16.86-9.833 24.49-22.881 24.49h-20.254V37.526Zm11.147 9.468v33.22h8.581c7.181 0 12.098-4.765 12.098-15.246v-2.714c0-10.482-5.054-15.247-12.473-15.247h-8.206v-.013Zm37.917.513h8.87l1.388 9.831c1.689-6.741 6.018-10.193 13.861-10.193h2.715v11.219h-4.541c-9.095 0-11.297 3.152-11.297 12.094v19.362H191.25V47.508Zm29.186 22.063v-1.175c0-14.221 9.095-21.85 21.417-21.85 12.61 0 21.342 7.766 21.342 21.85v1.175c0 13.934-8.582 21.338-21.342 21.338-13.636 0-21.417-7.404-21.417-21.338Zm31.612-.15v-1.025c0-7.918-3.965-12.533-10.195-12.533-6.155 0-10.271 4.328-10.271 12.533v1.025c0 7.63 3.891 11.882 10.196 11.882 6.317 0 10.27-4.177 10.27-11.882Zm16.939-21.913h9.245l1.101 8.068c2.276-5.429 6.968-9.018 13.936-9.018 10.783 0 17.826 7.767 17.826 22v1.176c0 13.933-7.843 21.188-17.826 21.188-6.743 0-11.222-3.002-13.499-7.918v21.338h-10.783V47.508Zm30.949 21.988v-.95c0-8.43-4.328-12.608-10.12-12.608-6.155 0-10.271 4.69-10.271 12.533v.813c0 7.48 3.966 12.17 10.046 12.17 6.317 0 10.345-4.178 10.345-11.958Zm27.36 12.62-.876 7.705h-9.533V33.35h10.784v21.7c2.352-5.503 7.043-8.505 13.711-8.505 10.045.075 17.526 7.042 17.526 21.113v1.25c0 14.084-7.043 22.001-17.826 22.001-6.968 0-11.51-3.365-13.786-8.793Zm20.541-13.207v-1.026c0-7.767-4.253-12.02-10.121-12.02-6.092 0-10.27 4.916-10.27 12.17v.876c0 7.917 4.028 12.47 10.12 12.47 6.38 0 10.271-4.103 10.271-12.47Zm15.988.662v-1.175c0-14.221 9.019-21.85 21.342-21.85 12.61 0 21.417 7.766 21.417 21.85v1.175c0 13.934-8.657 21.338-21.417 21.338-13.649 0-21.342-7.404-21.342-21.338Zm31.6-.15v-1.025c0-7.918-3.966-12.533-10.196-12.533-6.155 0-10.27 4.328-10.27 12.533v1.025c0 7.63 3.89 11.882 10.195 11.882 6.393 0 10.271-4.177 10.271-11.882Zm25.533-1.538-14.812-20.387h12.685l8.582 12.682 8.657-12.682h12.61l-15.037 20.312 15.837 22h-12.472L427.25 75.8l-9.457 14.008h-12.911l16.076-21.925Z"/></svg>