<svg version="1.2" xmlns="http://www.w3.org/2000/svg" viewBox="0 0 1550 305" width="1550" height="305">
	<title>Dropbox_logo_2017-svg</title>
	<style>
		.s0 { fill: #ffffff } 
	</style>
	<path id="Layer" class="s0" d="m179.8 57.3l-89.9 57.3 89.9 57.3-89.9 57.2-89.9-57.6 89.9-57.2-89.9-57 89.9-57.3zm-90.4 190.3l89.9-57.3 89.9 57.3-89.9 57.3zm90.4-76.1l89.9-57.2-89.9-57 89.4-57.3 89.9 57.3-89.9 57.3 89.9 57.3-89.9 57.2z"/>
	<path id="Layer" fill-rule="evenodd" class="s0" d="m429.7 57.3h72.7c46.3 0 84.6 26.8 84.6 87.9v12.9c0 61.6-35.8 89.3-83.2 89.3h-74.1zm40.6 34.5v120.9h31.1c26.4 0 44-17.1 44-55.4v-10c0-38.3-18.6-55.5-45.4-55.5zm170.8 1.9l5.3 35.8c6.2-24.4 22-37.4 50.7-37.4h10.1v41.1h-16.8c-33 0-41 11.4-41 43.9v70.8h-40.2v-154.2zm74.1 80.2v-4.3c0-51.6 33-79.8 78-79.8 45.8 0 77.9 28.2 77.9 79.8v4.3c0 50.6-31.1 77.9-77.9 77.9-49.8-0.5-78-27.1-78-77.9zm114.9-0.5v-3.8c0-28.7-14.5-45.9-37.4-45.9-22.5 0-37.4 15.8-37.4 45.9v3.8c0 27.7 14.5 43.5 37.4 43.5 22.9-0.4 37.4-15.8 37.4-43.5zm62.1-79.7h33.5l3.9 29.1c8-19.5 25.2-33 50.6-33 39.3 0 65.1 28.2 65.1 80.4v4.3c0 50.6-28.6 77.4-65.1 77.4-24.3 0-41-11-49.2-28.6v77.9h-39.3zm112.4 79.7v-3.4c0-30.7-15.8-45.8-36.9-45.8-22.4 0-37.3 17.1-37.3 45.8v2.9c0 27.3 14.4 44.5 36.9 44.5 23.1-0.5 37.3-15.2 37.3-44zm100.2 46l-3.5 28.1h-34.4v-205.4h39.2v78.8c8.7-20.1 25.9-31.1 50.3-31.1 36.9 0.4 64.1 25.8 64.1 76.9v4.8c0 51.1-25.9 80.4-65.1 80.4-25.8-0.6-42.6-12.6-50.6-32.5zm74.5-47.9v-3.8c0-28.2-15.3-44-36.9-44-22 0-37.3 17.6-37.3 44.4v3.4c0 28.7 14.8 45.4 36.8 45.4 23.6 0 37.4-14.7 37.4-45.4zm58.4 2.3v-4.3c0-51.5 33.1-79.7 78-79.7 45.9 0 78 28.2 78 79.7v4.3c0 50.7-31.7 77.9-78 77.9-49.7-0.4-78-27.1-78-77.9zm115.2-0.4v-3.9c0-28.6-14.4-45.8-37.4-45.8-22.4 0-37.3 15.8-37.3 45.8v3.9c0 27.7 14.4 43.5 37.3 43.5 23.1-0.5 37.4-15.8 37.4-43.5zm93.3-5.7l-54.1-74h46.4l31.1 46.2 31.6-46.2h45.9l-54.8 73.5 57.8 80.3h-45.4l-35.4-51-34.4 51h-47.4z"/>
</svg>