<svg xmlns="http://www.w3.org/2000/svg" fill="none" viewBox="0 0 221 62"><path fill="#333" d="M128.732 28.338h-2.813l-5.122 5.266V23.072h-2.164v17.962h2.164v-5.916l5.843 5.844.072.072h2.597v-.217l-6.564-6.492zm-13.919 9.619c-.794.793-1.948 1.226-3.246 1.226-2.237 0-4.473-1.37-4.473-4.544 0-2.67 1.876-4.545 4.473-4.545 1.154 0 2.236.433 3.101 1.226l.073.072 1.37-1.442-.072-.072c-1.298-1.227-2.813-1.804-4.545-1.804-3.967 0-6.636 2.67-6.636 6.564 0 4.545 3.318 6.565 6.636 6.565h.073c1.731 0 3.39-.65 4.544-1.876l.072-.072-1.442-1.443zm-14.717-2.812c0 2.308-1.587 4.04-3.823 4.112-2.38 0-3.823-1.443-3.823-3.896v-6.997h-2.164v6.997c0 3.607 2.164 5.916 5.554 5.916h.072c1.66 0 3.174-.794 4.184-2.02l.073-.145.072 1.948h2.019V28.364h-2.164zM78.726 23H72.16v18.033h6.565c6.276 0 9.017-4.616 9.017-9.161 0-4.256-2.813-8.873-9.017-8.873m6.78 8.8c0 3.462-2.091 6.925-6.708 6.925H74.47v-13.49h4.256c4.617 0 6.78 3.39 6.78 6.565m112.323 1.371h5.555v4.183c-1.371 1.154-3.03 1.803-4.833 1.803-4.906 0-7.142-3.534-7.142-6.997 0-3.534 2.236-7.358 7.07-7.358 1.947 0 3.751.722 5.193 2.02l.072.072 1.299-1.515-.072-.072c-1.731-1.731-4.04-2.597-6.565-2.597-2.741 0-5.049.866-6.708 2.597-1.732 1.732-2.669 4.184-2.597 6.925 0 4.256 2.452 9.162 9.378 9.162h.144a9.03 9.03 0 0 0 6.781-3.03V31.22h-7.647v1.948zM137.957 23h-6.565v18.033h6.565c6.276 0 9.017-4.616 9.017-9.161 0-4.256-2.814-8.873-9.017-8.873m6.781 8.8c0 3.462-2.092 6.925-6.709 6.925h-4.256v-13.49h4.256c4.544 0 6.709 3.39 6.709 6.565m69.559-3.725c-3.823 0-6.564 2.813-6.564 6.637s2.741 6.564 6.564 6.564 6.637-2.741 6.637-6.564c0-3.896-2.741-6.637-6.637-6.637m4.473 6.637c0 2.669-1.876 4.544-4.473 4.544-2.524 0-4.4-1.875-4.4-4.544 0-2.741 1.803-4.69 4.472-4.69 2.525.073 4.401 2.02 4.401 4.69m-59.443.434c0 2.308-1.587 4.04-3.823 4.112-2.38 0-3.823-1.443-3.823-3.896v-6.997h-2.164v6.997c0 3.607 2.164 5.916 5.482 5.916h.072c1.659 0 3.174-.794 4.184-2.02l.072-.145.073 1.948h2.019V28.364h-2.164v6.78zm14.717 2.812c-.794.793-1.948 1.226-3.246 1.226-2.236 0-4.473-1.37-4.473-4.544 0-2.67 1.876-4.545 4.473-4.545 1.154 0 2.236.433 3.102 1.226l.072.072 1.37-1.442-.072-.072c-1.298-1.227-2.813-1.804-4.544-1.804-3.968 0-6.637 2.67-6.637 6.564 0 4.545 3.318 6.565 6.637 6.565h.072c1.731 0 3.39-.65 4.544-1.876l.072-.072-1.442-1.443zm13.919-9.619h-2.813l-5.122 5.266V23.072h-2.164v17.962h2.164v-5.916l5.843 5.844.072.072h2.597v-.217l-6.564-6.492z"/><path fill="#DE5833" fill-rule="evenodd" d="M31 62c17.12 0 31-13.88 31-31S48.12 0 31 0 0 13.88 0 31s13.88 31 31 31" clip-rule="evenodd"/><path fill="#DDD" fill-rule="evenodd" d="M35.36 54.129c0-.242.059-.297-.711-1.832-2.046-4.097-4.102-9.873-3.167-13.599.17-.676-1.927-25.063-3.41-25.848-1.648-.879-3.676-2.272-5.531-2.582-.941-.15-2.175-.08-3.14.05-.171.024-.178.332-.014.387.633.215 1.402.587 1.855 1.15.086.107-.03.275-.166.28-.427.016-1.202.195-2.225 1.063-.118.1-.02.287.133.257 2.197-.435 4.441-.22 5.764.982.085.078.04.218-.071.248-11.477 3.119-9.205 13.103-6.15 25.354 2.589 10.382 3.642 14.07 4.016 15.328a.71.71 0 0 0 .429.466c4.022 1.509 12.387 1.54 12.387-1.099z" clip-rule="evenodd"/><path fill="#fff" fill-rule="evenodd" d="M59.457 31c0 15.716-12.74 28.457-28.457 28.457-15.716 0-28.457-12.74-28.457-28.457C2.543 15.284 15.283 2.543 31 2.543c15.716 0 28.457 12.74 28.457 28.457M24.359 56.18c-.787-2.429-2.984-9.47-5.155-18.367l-.216-.885-.002-.008c-2.628-10.732-4.773-19.497 6.988-22.25.108-.026.16-.154.089-.239-1.35-1.6-3.877-2.125-7.074-1.023-.131.046-.245-.087-.164-.199.627-.864 1.852-1.528 2.457-1.82.125-.06.117-.243-.015-.284a13.5 13.5 0 0 0-1.827-.436c-.179-.029-.195-.336-.015-.36 4.531-.61 9.264.75 11.638 3.742a.16.16 0 0 0 .09.056c8.696 1.867 9.319 15.613 8.317 16.24-.197.123-.83.052-1.665-.041-3.384-.379-10.084-1.129-4.554 9.177.054.102-.018.237-.132.255-3.108.483.85 10.188 3.784 16.625C48.438 53.689 57.035 43.348 57.035 31 57.035 16.621 45.38 4.965 31 4.965S4.965 16.62 4.965 31c0 12.084 8.232 22.245 19.394 25.18" clip-rule="evenodd"/><path fill="#3CA82B" d="M40.823 43.932c-.662-.307-3.207 1.518-4.897 2.92-.353-.5-1.018-.863-2.52-.602-1.314.229-2.04.546-2.364 1.092-2.074-.786-5.564-2-6.408-.828-.921 1.281.23 7.343 1.455 8.13.639.411 3.696-1.554 5.292-2.909.258.363.673.571 1.525.551 1.29-.03 3.38-.33 3.705-.93a.7.7 0 0 0 .05-.129c1.642.613 4.53 1.263 5.175 1.166 1.68-.253-.234-8.1-1.013-8.461"/><path fill="#4CBA3C" d="M36.081 47.031q.104.187.173.388c.234.655.615 2.736.327 3.25s-2.16.762-3.315.782-1.414-.403-1.648-1.057c-.187-.523-.28-1.753-.277-2.458-.047-1.045.334-1.412 2.1-1.698 1.305-.211 1.996.035 2.394.455 1.854-1.384 4.948-3.337 5.25-2.98 1.504 1.78 1.694 6.017 1.369 7.721-.107.557-5.089-.552-5.089-1.153 0-2.495-.647-3.18-1.284-3.25m-10.913-.779c.408-.646 3.717.157 5.534.965 0 0-.374 1.691.22 3.684.174.582-4.178 3.176-4.746 2.73-.657-.516-1.865-6.022-1.008-7.38"/><path fill="#FC3" fill-rule="evenodd" d="M26.77 33.134c.269-1.164 1.516-3.357 5.969-3.304 2.251-.01 5.048-.001 6.902-.212a24.8 24.8 0 0 0 6.164-1.499c1.928-.735 2.612-.571 2.852-.131.263.483-.047 1.318-.72 2.087-1.287 1.468-3.6 2.606-7.685 2.943s-6.791-.758-7.957 1.026c-.502.77-.114 2.583 3.837 3.154 5.338.77 9.722-.928 10.264.098s-2.579 3.113-7.925 3.157c-5.347.043-8.687-1.872-9.871-2.825-1.503-1.208-2.176-2.97-1.83-4.494" clip-rule="evenodd"/><g fill="#14307E" opacity=".8"><path d="M33.58 20.405c.299-.488.96-.865 2.042-.865 1.083 0 1.592.43 1.944.911.072.098-.037.213-.148.165l-.081-.036c-.396-.173-.882-.385-1.715-.397-.89-.012-1.452.21-1.805.403-.12.065-.307-.065-.237-.18m-12.185.624c1.051-.44 1.877-.382 2.461-.244.123.029.208-.103.11-.183-.453-.365-1.467-.82-2.79-.326-1.18.44-1.737 1.355-1.74 1.956 0 .141.29.153.366.033.204-.324.542-.797 1.593-1.236"/><path fill-rule="evenodd" d="M36.542 27.086a1.68 1.68 0 0 1-1.683-1.676 1.68 1.68 0 0 1 1.682-1.677c.93 0 1.683.752 1.683 1.677a1.68 1.68 0 0 1-1.682 1.676m1.185-2.232a.435.435 0 0 0-.872 0 .435.435 0 0 0 .872 0M25.393 26.57c0 1.08-.878 1.955-1.962 1.955a1.96 1.96 0 0 1-1.961-1.955c0-1.08.88-1.955 1.961-1.955a1.96 1.96 0 0 1 1.962 1.955m-.579-.648a.507.507 0 1 0-1.014.002.507.507 0 0 0 1.014-.002" clip-rule="evenodd"/></g><path fill="#fff" fill-rule="evenodd" d="M30.997 56.663c14.175 0 25.666-11.491 25.666-25.666S45.173 5.33 30.997 5.33 5.33 16.821 5.33 30.997c0 14.175 11.491 25.666 25.667 25.666m28.416-25.666c0 15.694-12.722 28.416-28.416 28.416S2.58 46.691 2.58 30.997 15.303 2.58 30.997 2.58s28.416 12.723 28.416 28.417" clip-rule="evenodd"/></svg>