<svg xmlns="http://www.w3.org/2000/svg" xml:space="preserve" style="enable-background:new 0 0 240 234" viewBox="0 0 240 234"><style>.st1{fill:#ff61f6}</style><g id="vlpa"><g id="vlpb"><g id="vlpc"><path id="vlpd" d="M42.5 0h155C221 0 240 19 240 42.5v149c0 23.5-19 42.5-42.5 42.5h-155C19 234 0 215 0 191.5v-149C0 19 19 0 42.5 0z" style="fill:#470137"/></g></g><g id="vlpe"><g id="vlpf"><path d="M22.8 164V62c-.1-.6.4-1.2 1-1.3h.1l6.7-.2 10.4-.2 12.7-.1c12.2 0 22.4 2.2 30.4 6.6 7.7 4.1 14 10.4 18.1 18.1 4 7.7 6 16.5 6 26.5.1 7-.9 13.9-3.1 20.5A48.7 48.7 0 0 1 84.2 158a54.9 54.9 0 0 1-30.1 8.3H42.8l-11.2-.1-7.8-.2c-.7 0-1-.6-1-1.6zm21.1-84.4v66.7l3.1.1 2.8.2 3.3.1c4.6.1 9.2-.7 13.6-2.3 4-1.4 7.5-3.7 10.5-6.8 3-3.2 5.3-7 6.7-11.1a47.6 47.6 0 0 0 .1-29.1 26 26 0 0 0-17.1-16.2c-4.3-1.3-8.7-2-13.2-1.9l-5.1.1-4.7.2zM198 165h-18.7c-.4.1-.9-.1-1.2-.4l-.6-1.2-4.8-21.3-3.2-15.7-2.1-10.9-1.3-7.6h-.1l-2.8 12.8c-.8 4.1-1.8 8.3-2.8 12.5L157 147l-4.1 16.4c-.2 1.1-.7 1.6-1.6 1.6h-18.7c-.5.1-1-.1-1.4-.3l-.7-1.1L111 86.3c-.3-.9.1-1.3 1.2-1.3h18.9c.9 0 1.4.3 1.5 1 2 8.8 3.7 16.4 5 22.8s2.4 11.8 3.1 16.3l1.9 11 1.2 7h.3a76.1 76.1 0 0 1 2.2-12.2l2.2-10.9 3.1-14.6a314.8 314.8 0 0 1 5-20.2c.1-.2.5-.3 1.1-.3h19.6c.6 0 .9.4 1 1.1a1358.2 1358.2 0 0 1 7.3 33.9c.8 4.2 1.5 7.9 1.9 10.9.4 3.1.9 5.6 1.3 7.7.3 1.7.6 3.4.7 5.1h.3c.5-2 .9-4.4 1.3-7.1s.9-5.7 1.6-9.1l2.1-11.2c.7-4.1 1.7-8.6 2.8-13.7l3.7-16.4c.2-.9.6-1.3 1.3-1.3h17.5c.9 0 1.2.5 1 1.4l-21.6 77.1c-.1.4-.3.8-.6 1.1 0 .5-.4.7-.9.6z" class="st1"/></g></g></g></svg>