<svg xmlns="http://www.w3.org/2000/svg" width="64" height="64"><defs><linearGradient id="a" x1="6.254%" x2="100%" y1="2.683%" y2="96.578%"><stop offset="0%" stop-color="#3596F7"/><stop offset="100%" stop-color="#821266"/></linearGradient></defs><g fill="none" fill-rule="evenodd"><path fill="url(#a)" d="M0 32C0 16.916 0 9.37 4.685 4.685 9.371 0 16.913 0 32 0c15.084 0 22.63 0 27.315 4.685C64 9.371 64 16.913 64 32c0 15.084 0 22.63-4.685 27.315C54.629 64 47.087 64 32 64c-15.084 0-22.63 0-27.315-4.685C0 54.629 0 47.087 0 32"/><path stroke="#000" stroke-linecap="round" stroke-linejoin="round" stroke-width="6.5" d="M32.5 15v33m-12-23v16m-10-13v10m33-13v16m10-13v10"/></g></svg>