<svg viewBox="0 0 220 220" xmlns="http://www.w3.org/2000/svg" width="220" height="220" fill="none"><path fill="#101214" fill-rule="evenodd" d="M205.593 165.181c3.26-1.836 4.373-5.904 2.493-9.087-1.88-3.18-6.045-4.271-9.304-2.435l-88.946 50.154-88.619-49.968c-3.256-1.836-7.42-.748-9.304 2.435-1.88 3.183-.763 7.251 2.493 9.087l91.766 51.74a6.932 6.932 0 0 0 5.295.632 6.967 6.967 0 0 0 2.364-.815l91.762-51.743Z" clip-rule="evenodd"/><path fill="#101214" fill-rule="evenodd" d="M214.794 113.73c.283-2.68-1.036-5.4-3.587-6.831l-97.01-54.436a7.326 7.326 0 0 0-2.463-.85 7.342 7.342 0 0 0-5.599.66L9.122 106.71c-2.742 1.54-4.06 4.571-3.492 7.438-.035 2.181.99 4.365 3.525 5.794l97.01 54.699a7.338 7.338 0 0 0 5.602.665 7.27 7.27 0 0 0 2.495-.858l97.014-54.703c2.62-1.477 3.628-3.76 3.518-6.014Zm-20.971-.385-83.828-47.038-83.78 47.013 83.828 47.266 83.78-47.241Z" clip-rule="evenodd"/><path fill="#101214" fill-rule="evenodd" d="M216.215 72.942c3.62-2.04 4.86-6.557 2.769-10.092-2.088-3.531-6.714-4.743-10.333-2.704l-98.782 55.7-98.414-55.493c-3.62-2.043-8.245-.83-10.333 2.704C-.97 66.588.27 71.11 3.89 73.15L105.8 130.61a7.707 7.707 0 0 0 5.885.698 7.654 7.654 0 0 0 2.621-.901l101.909-57.465Z" clip-rule="evenodd"/><path fill="#101214" d="m18.906 66.546 90.775-55.407 90.774 55.404-90.774 51.717-90.775-51.714Z"/><path fill="#101214" fill-rule="evenodd" d="M216.095 58.37c3.627 2.036 4.883 6.55 2.807 10.085-2.081 3.531-6.706 4.746-10.333 2.711L109.772 15.73 11.335 70.967c-3.627 2.035-8.253.82-10.333-2.712-2.077-3.535-.82-8.048 2.802-10.084L105.718.987a7.712 7.712 0 0 1 5.881-.694 7.7 7.7 0 0 1 2.587.893l101.909 57.185Z" clip-rule="evenodd"/></svg>