<svg xmlns="http://www.w3.org/2000/svg" width="404" height="404" style="transform:matrix(1.11388,0,0,1.11388,0,0);transform-origin:50% 50%;cursor:move;transition:transform 200ms ease-in-out 0s" viewBox="0 0 4040 4040"><defs><linearGradient id="a" x1="75%" x2="25%" y1="45%" y2="90%" gradientUnits="userSpaceOnUse"><stop offset="0%" style="stop-color:#8d8e8d"/><stop offset="1%" style="stop-color:#8b8c8b"/><stop offset="2%" style="stop-color:#8a8c8a"/><stop offset="3%" style="stop-color:#8a8b8a"/><stop offset="4%" style="stop-color:#828382"/><stop offset="5%" style="stop-color:#878987"/><stop offset="12%" style="stop-color:#848584"/><stop offset="13%" style="stop-color:#838583"/><stop offset="14%" style="stop-color:#838483"/><stop offset="24%" style="stop-color:#7d7e7d"/><stop offset="25%" style="stop-color:#7c7e7c"/><stop offset="26%" style="stop-color:#7c7d7c"/><stop offset="28%" style="stop-color:#7b7c7b"/><stop offset="29%" style="stop-color:#7a7c7a"/><stop offset="30%" style="stop-color:#7a7b7a"/><stop offset="31%" style="stop-color:#797b79"/><stop offset="37%" style="stop-color:#777877"/><stop offset="38%" style="stop-color:#767876"/><stop offset="92%" style="stop-color:#616261"/><stop offset="93%" style="stop-color:#5f605e"/><stop offset="94%" style="stop-color:#5f5f5e"/><stop offset="98%" style="stop-color:#5d5e5c"/><stop offset="100%" style="stop-color:#5d5d5d"/></linearGradient></defs><g fill="#333" style="transform:none"><path d="M3390 3118c1-24 5-88 10-143 24-264-44-534-188-747-49-73-49-73-215-128s-166-55-167-92c0-36-1-37-52-48-155-34-306-19-499 50-62 22-127 40-144 40-32 0-32 0-39-109-3-60-15-144-26-186-36-140-44-132 133-138 167-5 243-22 374-82 86-40 168-94 156-104-4-4-33-18-63-30-96-38-208-111-260-167-42-46-54-70-76-142-73-243-178-358-399-437-27-10-67-34-88-54-57-53-117-135-117-158 0-19 8-21 93-27 319-22 506-6 729 63 479 150 843 466 1053 915 147 314 191 715 119 1076-23 118-81 285-137 400-61 124-167 290-184 290-9 0-13-15-13-42zM321 2538c-28-146-35-229-35-433-1-188 3-236 21-330 67-328 222-622 452-854 110-112 185-181 195-181 2 0 12 24 22 53 22 69 64 150 108 212 24 33 36 61 36 82 0 30-5 35-58 62-118 60-213 144-301 269-51 72-51 72 19 72s70 0 70 34c0 30-6 37-45 60-25 15-72 50-106 77-196 164-338 527-339 867 0 47-3 62-14 62-10 0-18-18-25-52z"/><path d="M2180 1175c0-33 2-35 35-35s35 2 35 35-2 35-35 35-35-2-35-35zM1900 995c0-33 2-35 35-35s35 2 35 35-2 35-35 35-35-2-35-35z"/></g><g fill="#666" style="transform:none"><path fill="url(#a)" d="M2911 3730c85-125 134-292 110-378-16-59-67-107-130-122-101-24-216 12-581 184-207 98-372 157-505 182-103 19-368 16-465-6-232-51-457-150-545-240-50-51-50-51-50-248 0-155 4-213 18-274 18-78 18-78 53-78 26 0 34 4 34 18 1 14 5 12 23-9 142-169 182-215 187-219 3-3 42-48 85-100 77-93 78-95 52-98-23-3-27-8-27-38 0-24 5-34 15-34 8 0 15-4 15-9 0-11 98-54 181-79 82-25 249-45 306-36 40 6 43 8 42 38 0 26-8 36-46 61-26 17-58 46-72 65-29 39-23 36 60-32 73-59 257-179 343-223 78-40 78-40 73-145-3-58-13-130-22-160s-19-72-22-92c-5-38-5-38 30-38 22 0 37 6 41 15 4 10-1 15-15 15-16 0-19 4-14 18 18 48 35 148 41 245 4 59 8 107 9 107s52-18 114-40c182-65 359-86 507-59 78 14 254 71 254 82 0 6-25 7-58 3-116-13-94 5 75 62 166 57 166 57 215 130 150 222 215 497 189 800-6 68-9 127-6 132 3 4-3 18-13 31s-31 56-46 94c-68 172-199 348-336 450-33 25-143 85-155 85-3 0 13-27 36-60zm434-1211c-21-82-125-297-147-307-5-2-8-9-8-15 0-7-10-18-22-26-36-23-298-111-352-119-51-7-51-7-51-49s0-42-64-49c-91-10-223 1-311 26-93 26-231 80-226 89 8 12 208 105 275 128 25 8 96 37 156 65 141 63 143 64 320 138 83 34 168 70 190 80s76 32 120 50c44 17 91 37 105 44s26 12 28 10c2-1-4-30-13-65z"/><path d="M340 2611c-11-21-14-181-4-218 4-13 13-23 20-23 11 0 14 26 14 130 0 127-7 153-30 111zM345 2304c16-133 93-372 123-382 21-7 14 49-18 129-30 78-70 239-70 284 0 19-5 25-21 25-20 0-21-3-14-56zM490 1861c0-5 23-43 50-85 57-84 135-159 224-214 60-37 60-37 25-43-19-4-26-7-16-8 9 0 17-8 17-16 0-11 11-15 40-15 39 0 40 1 40 35 0 25-5 38-17 42-10 4-24 13-31 20s-20 13-28 13-14 5-14 10c0 6-6 10-14 10s-16 7-20 15c-3 8-15 15-26 15s-20 6-20 13c0 16-82 97-98 97-7 0-12 9-12 20s-4 20-10 20c-5 0-10 7-10 15s-4 15-9 15-12 11-15 25c-5 18-13 25-31 25-14 0-25-4-25-9zM2280 1634c0-16 12-22 68-31 86-15 194-45 208-58 6-5 35-21 65-35s56-28 57-32c2-5 8-8 13-8s17-8 27-18c15-15 16-21 6-30-7-7-22-12-34-12-11 0-20-4-20-10 0-5-9-10-19-10-30 0-51-11-51-26 0-8-10-14-24-14s-31-6-38-14c-8-7-24-17-36-20-12-4-22-14-22-22s-8-14-18-14c-20 0-72-49-72-68 0-7-4-12-10-12-5 0-10-13-10-30 0-18-5-30-13-30-12 0-57-130-57-165 0-8-4-15-9-15s-17-20-28-45c-10-25-21-45-25-45-5 0-8-9-8-20s-6-20-13-20c-16 0-67-52-67-68 0-7-9-12-20-12s-20-4-20-8-16-14-35-21-35-19-35-27c0-9-11-14-30-14-16 0-30-3-30-8 0-4-23-13-52-20-59-14-108-54-108-88 0-16-7-24-22-26s-24-11-26-25c-2-13-10-23-18-23s-14-7-14-15-4-15-10-15c-5 0-10-9-10-20 0-30 33-25 52 8 31 53 137 160 165 166 16 4 70 27 121 52 163 79 241 180 306 396 22 72 34 96 76 142 56 61 166 129 284 177 42 17 76 36 76 42 0 24-87 90-173 131-96 46-205 80-294 92-48 6-53 5-53-12zM640 1512c0-5 15-26 33-48 18-21 54-68 79-105 25-36 53-71 62-78 14-12 16-9 16 24 0 28-5 38-20 42-11 3-20 14-20 24 0 11-4 19-10 19-5 0-10 7-10 15s-4 15-10 15c-5 0-10 7-10 15s-9 15-20 15c-15 0-20 7-20 25 0 14-8 29-19 35-24 12-51 13-51 2zM870 1229c42-37 132-99 142-99 5 0 8 11 8 25 0 16-6 25-15 25-8 0-15 5-15 10 0 6-7 10-15 10s-15 5-15 10c0 6-11 10-25 10-18 0-25 5-25 20 0 17-7 20-37 20-38-1-38-1-3-31z"/><path d="M2034 1195c-109-55-168-152-138-229 10-27 68-21 84 8 17 32 77 74 178 125 82 41 82 41 82 81s0 40-78 40c-63 0-87-5-128-25zM1030 1130c0-5 14-17 30-25 33-17 34-15-16-85-39-56-71-118-95-187-18-53-18-53 6-53 19 0 25 8 36 50 7 28 16 50 20 50s15 20 26 45c10 25 21 45 26 45 4 0 7 7 7 15s5 15 10 15c6 0 10 9 10 20s7 20 15 20c10 0 15 11 15 35 0 19-4 35-10 35-5 0-10 7-10 15 0 10-11 15-35 15-19 0-35-4-35-10zM3275 918c-50-53-50-53 3-3 28 27 52 51 52 52 0 8-9-1-55-49z"/></g><g fill="#999" style="transform:none"><path fill="url(#a)" d="M766 3321c-37-41-48-272-21-439 69-426 448-742 891-742 94 0 94 0 94 35 0 24-7 41-22 53-59 48-98 85-98 95 0 6 7 1 16-11 8-12 21-22 27-22 7 0 18-9 25-20s16-20 22-20c5 0 21-11 36-25s33-25 40-25c8 0 14-4 14-9 0-16 295-191 322-191 4 0 8 7 8 15 0 20 7 19 86-13 156-64 224-77 409-77 169 1 171 1 275 37 105 36 105 36 2 37-106 1-130 14-45 24 27 3 116 29 198 59 150 53 150 53 188 108 63 92 125 229 152 339 14 57 24 111 22 120-4 13-5 13-6-2 0-10-6-15-12-12-5 4-33-4-62-18s-88-40-132-57-98-40-120-50-107-46-190-80c-177-74-179-75-320-138-60-28-131-57-156-65-44-15-115-47-243-109-32-15-65-28-73-28-9 0-13-6-10-14 4-10 1-13-8-9-8 3-12 10-8 16 3 6 1 7-6 3-24-15-271 147-450 297-45 37-83 67-86 67-6 0 4-54 16-97 15-49 65-111 115-142 44-29 44-29 15-33-84-12-337 41-327 69 3 7 2 13-3 13-4 0-28 28-52 62-39 56-183 235-199 248-3 3-32 37-65 75-189 226-223 259-226 218-1-10-7 11-15 47-17 82-17 263 0 358 7 39 9 72 6 72-4 0-14-8-24-19z"/><path d="M345 2328c14-105 47-234 85-333 41-104 122-245 160-280 21-19 21-19 18 20-2 33-7 41-25 43-18 3-23 10-23 33 0 19-5 29-15 29-8 0-15 9-15 20 0 24-41 110-52 110-4 0-8 11-8 25s-4 25-10 25c-5 0-10 7-10 15s-12 54-26 102c-14 49-30 123-37 166-9 65-14 77-30 77-17 0-18-5-12-52zM2080 1847c0-18-9-67-20-108s-20-86-20-101c0-28 0-28 75-28 68 0 75 2 75 20s-7 20-60 20c-58 0-60 1-50 20 12 22 40 158 40 191 0 12-7 19-20 19-16 0-20-7-20-33zM670 1635c7-8 45-36 84-62 39-25 74-49 78-52 4-4-23-5-61-3-61 4-70 2-74-14-4-17-5-17-6-1-1 11-9 17-26 17-30 0-29-3 25-73 19-26 39-47 44-47 4 0 6 18 4 40-4 40-4 40 69 40s73 0 73 35c0 24-5 35-15 35-8 0-15 5-15 10 0 6-11 10-25 10-16 0-25 6-25 15 0 8-7 15-15 15s-15 5-15 10c0 6-9 10-20 10s-20 7-20 15c0 11-11 15-36 15-31 0-35-2-24-15zM2240 1633c0-18 9-21 69-27 73-6 257-61 279-83 7-7 27-13 43-13 19 0 29-5 29-15 0-8 7-15 15-15s15-4 15-10c0-5 9-10 20-10s20-6 20-14-9-18-20-21-20-11-20-16-11-9-25-9c-16 0-25-6-25-15s-9-15-24-15c-35 0-56-10-56-26 0-8-10-14-25-14s-25-6-25-14c0-9-12-16-27-18-24-3-29-8-31-37-4-35-4-35 30-9 54 41 153 95 233 129 41 17 77 34 80 39 11 17-77 85-170 131-107 52-210 83-318 94-62 7-67 6-67-12zM762 1348c41-60 124-136 203-187 43-28 83-51 90-51s18-7 25-15c9-11 7-21-13-47-62-81-146-265-132-288 3-6 12-10 20-10 15 0 55 109 55 152 0 21 5 28 20 28 13 0 22 9 26 25 3 14 10 25 15 25s9 7 9 15 5 15 10 15c6 0 10 9 10 20s6 20 14 20c17 0 26 22 26 61 0 24-4 29-25 29-25 0-98 30-103 43-2 4-10 7-18 7s-14 5-14 10c0 6-6 10-14 10s-16 7-20 15c-3 8-15 15-26 15s-20 6-20 13c0 19-63 77-83 77-11 0-17 8-17 25 0 21-5 25-31 25-30 0-30 0-7-32zM2098 1223c-16-2-28-9-28-14s-11-9-25-9-25-4-25-10c0-5-7-10-15-10s-15-4-15-10c0-5-6-10-13-10-14 0-57-44-57-59 0-5-5-11-12-13-6-2-13-31-16-66-4-62-4-62 42-62 33 0 46 4 46 14 0 8 7 16 15 20 8 3 15 12 15 21 0 8 9 15 20 15s20 4 20 9 11 12 25 15c18 5 25 13 25 31 0 14-4 25-9 25-19 0-128-81-141-105-21-39-35-6-16 38 30 74 144 147 227 147 60 0 68-12 24-33-43-20-45-37-5-37 53 0 80 19 80 57 0 30-3 33-30 33-16 0-30 5-30 10 0 10-48 11-102 3zM2380 1209c0-6-7-17-15-25-8-9-15-26-15-39s-3-25-8-27c-11-5-52-140-52-172 0-55 25-19 61 86 19 59 47 125 62 147 27 41 27 41-3 41-16 0-30-5-30-11zM2240 876c0-8-5-16-11-18s-9-19-7-38c3-35 3-35 36 9 39 53 40 61 7 61-15 0-25-6-25-14zM2120 750c0-5-7-10-15-10s-15-9-15-20c0-15-7-20-27-20-14 0-59-12-99-27-61-23-74-32-74-50 0-23 0-23 73 3 76 28 195 93 217 118 11 14 8 16-24 16-20 0-36-4-36-10zM1342 584c-25-17-30-44-8-44 8 0 16-7 20-15 3-8 11-15 18-15s25-7 41-14c15-8 27-11 27-7 0 5 26 12 58 15 31 3 92 12 135 18 77 12 77 12 77 45s0 33-173 33c-140 0-177-3-195-16zM1807 573c-4-3-7-17-7-30 0-17-6-23-21-23-12 0-23-8-26-20-3-11-9-20-14-20s-9-13-9-30c0-16 4-30 8-30 5 0 31 28 58 62 83 106 79 98 46 98-16 0-32-3-35-7z"/></g><g fill="#CCC" style="transform:none"><path d="M767 3320c-14-16-30-30-34-30-18 0-70-67-86-110-36-100-47-174-47-330 0-234 42-399 154-604 101-186 288-396 442-498 108-72 267-145 379-175 88-23 120-26 265-27 133 0 171 3 195 16 46 24 150 48 211 48 40 0 54 4 54 14 0 22-51 29-147 21-82-7-86-7-79 11 24 61 38 144 43 255 6 126 6 126-83 173-118 63-236 142-357 240-153 124-147 120-147 104 0-70 65-175 135-218 19-12 35-26 35-31 0-14-119-11-208 6-366 70-658 366-717 727-23 142-16 332 16 407 15 35 5 36-24 1zM350 2631c-16-31-12-51 10-51 16 0 20 7 20 35 0 39-14 46-30 16zM340 2403c0-51 29-208 55-296 30-103 79-217 94-217 20 0 11 52-24 139-42 105-73 231-82 329-5 61-9 72-24 72-14 0-19-7-19-27zM490 1874c0-14 62-112 94-149 35-40 35-40 36-2 0 30-3 37-20 37-15 0-20 7-20 25 0 16-6 25-15 25-8 0-15 9-15 19 0 35-12 51-36 51-13 0-24-3-24-6zM656 1649c10-12 59-48 108-80 73-48 85-59 63-59-15 0-27-4-27-9 0-12 26-21 61-21 26 0 29 3 29 34 0 35-13 46-51 46-10 0-19 7-19 15s-7 15-15 15-15 5-15 10c0 6-7 10-15 10s-15 5-15 10c0 6-8 10-19 10-10 0-21 9-24 20-4 16-14 20-43 20-37 0-37 0-18-21zM2320 1622c0-20 38-32 103-32 15 0 27-4 27-10 0-5 14-10 30-10 17 0 30-4 30-10 0-5 11-10 25-10s25-4 25-10c0-5 14-10 30-10 19 0 30-5 30-14 0-16 21-26 56-26 17 0 24-6 24-20 0-15 7-20 26-20 23 0 24-2 10-15-8-8-20-15-27-15-8 0-33-7-56-16-29-12-43-23-43-35 0-15-8-19-35-19-24 0-35-5-35-15 0-9-9-15-25-15-20 0-25-5-25-25 0-14 2-25 5-25s40 20 83 44c42 25 107 57 145 72 37 15 67 33 67 40 0 22-81 83-164 123s-188 74-263 86c-38 6-43 5-43-13zM650 1510c0-5 12-24 28-42 15-18 44-58 65-89s47-65 57-74c20-18 20-17 20 19 0 29-4 39-20 43-11 3-20 14-20 24 0 11-4 19-9 19s-12 11-15 25c-5 18-13 25-31 25-14 0-25 5-25 10 0 6 14 10 30 10 36 0 41 25 8 34-35 9-88 7-88-4zM860 1245c0-9 125-97 172-121 29-14 54-21 65-17 17 7 17 6 1-17-96-136-156-262-165-345-2-22-6-101-9-176-5-137-5-137 93-118 100 18 230 55 248 69 6 5 28 11 50 15s46 12 53 18c7 5 22 11 35 12 12 1 28 3 35 4 23 2 12 27-20 46-22 13-58 20-113 23-70 4-90 1-145-21-35-15-65-25-67-23-5 5 90 142 152 221 41 52 55 78 55 102 0 31-2 33-36 33-42 0-68 12-111 53-32 30-43 57-23 57 6 0 10 15 10 34 0 29-4 36-31 45-18 6-43 11-55 11-15 0-24 6-24 15 0 8-7 15-15 15s-15 5-15 10c0 6-7 10-15 10s-15 5-15 10c0 6-9 10-20 10s-20 7-20 15c0 10-11 15-35 15-19 0-35-2-35-5zM2073 1219c-18-5-33-14-33-19 0-6-9-10-20-10s-20-4-20-10c0-5-7-10-15-10-10 0-15-10-15-30 0-27-3-30-30-30-23 0-30-4-30-20 0-11-4-20-10-20-5 0-10-16-10-35s5-35 10-35c6 0 10-11 10-25 0-22 4-25 35-25s36 3 42 30c4 21 11 30 25 30 10 0 21 7 24 15 4 8 12 15 20 15s14 7 14 15 9 15 20 15c24 0 110 41 110 52 0 4 11 8 25 8 23 0 25 4 25 44 0 37-4 45-22 50-33 8-118 6-155-5zm136-34c20-6 8-15-80-58-69-34-120-67-151-98-50-50-64-49-53 3 13 58 114 138 200 159 30 7 41 6 84-6zM2370 1180c0-20-5-30-15-30s-15-10-15-30c0-16-4-30-8-30s-21-40-37-90c-17-49-33-90-37-90-5 0-8-7-8-15s-4-15-10-15c-5 0-10-7-10-15s-4-15-10-15c-5 0-10-16-10-36 0-23 4-33 11-28 30 18 92 137 124 238 20 61 47 128 61 149 24 37 24 37-6 37-27 0-30-3-30-30zM2130 760c0-5-7-10-15-10s-15-4-15-8-16-14-35-21-35-17-35-22-9-9-20-9-20-4-20-10c0-5-9-10-20-10s-43-9-72-20c-54-21-190-40-285-40-39 0-53-4-53-14 0-8-6-17-12-19-7-3 21-6 62-7 75-2 75-2 5-15-38-7-100-16-137-20-38-4-68-11-68-16s11-26 24-47c13-20 27-50 30-67 28-156 22-148 86-114 32 17 86 53 119 80 34 27 65 49 70 49 4 0 20 17 34 38 14 20 47 62 75 92 42 48 62 60 134 88 80 30 198 97 212 121 5 7-5 11-28 11-20 0-36-4-36-10z"/></g><path fill="#FFF" d="M683 3248c-106-109-293-406-293-464 0-10-6-36-14-59-32-91-39-154-33-280 11-213 53-377 144-562 73-149 164-245 317-337 60-36 60-36-48-36-109 0-109 0-82-33 14-17 41-54 59-82 82-123 257-268 340-282 20-3 37-8 37-12 0-3-10-19-23-35-23-29-23-29 17-73 49-54 68-65 124-73 42-5 42-5-13-75-109-137-218-315-203-331 4-3 53 16 110 42 91 43 111 49 168 49 48 0 74-5 95-19 26-17 41-18 169-12 229 11 309 22 403 57 223 82 308 167 382 383 22 63 45 126 52 138 36 71 192 182 332 238 31 12 60 27 63 32 20 32-197 157-336 193-101 26-263 31-346 10-38-9-82-24-99-33-23-12-60-16-165-15-167 1-284 28-439 103-141 69-230 129-335 230-210 201-364 469-417 725-24 113-25 312-4 405 17 73 60 194 81 228 23 35 2 26-43-20zm1539-2066c5-5-24-25-78-51-101-48-180-103-189-131-8-24-23-26-31-5-22 55 67 152 175 192 38 14 107 11 123-5z" style="transform:none"/></svg>