<svg id="Layer_1" xmlns="http://www.w3.org/2000/svg" viewBox="0 0 276 322" width="2143" height="2500"><style>.st0{fill:#5f5f5f}.st1{fill:#fff}</style><title>Untitled 6</title><path class="st0" d="M250.8.9H25C6.8.9 0 7.7 0 26v220.9c0 2.1.1 4 .3 5.8.4 4 .5 7.9 4.2 12.3.4.4 4.2 3.3 4.2 3.3 2 1 3.4 1.7 5.7 2.7l111.1 46.6c5.8 2.6 8.2 3.7 12.4 3.6 4.2.1 6.6-.9 12.4-3.6L261.4 271c2.3-.9 3.7-1.7 5.7-2.7 0 0 3.8-2.8 4.2-3.3 3.7-4.4 3.8-8.3 4.2-12.3.2-1.8.3-3.7.3-5.8V26c0-18.3-6.7-25.1-25-25.1"/><path class="st1" d="M235.6 223l-.1.5-.1.6-.1.5-.2.5-.1.5-.2.5-.2.5-.2.4-.2.5-.3.4-.3.4-.3.4-.3.4-.3.4-.4.4-.3.3-.4.4-.4.3-.4.3-.4.2-.4.3-.5.3-.5.2-.5.3-.5.2-.5.2-.5.2v-.1l-.5.2-.5.1-.9.2-.5.1-.5.1-.5.1-.5.1-.6.1-.5.1h-2l-.5-.1h-.6l-.5-.1-.5-.1-.6-.1-.5-.1-.5-.1-.5-.1-.5-.1-.5-.1-.5-.1-.5-.2-.5-.1-.5-.2-.5-.2-.5-.2-.5-.2-.5-.2-.5-.2-.5-.2-.5-.2-.5-.2-.5-.2-.5-.3-.4-.3-.5-.3-.4-.3-.4-.3-.4-.3-.4-.3-.4-.3-.4-.3-.4-.3-.4-.4.3-.4.4-.4.3-.4.4-.4.3-.4.3-.4.4-.4.3-.4.4-.4.3-.4.4-.4.3-.4.3-.4.4-.4.3-.4.4-.4.3-.4.4.3.5.3.4.3.5.3.4.3.5.3.4.3.5.2.4.3.5.2.5.2.5.2.5.2.5.2.5.2.5.2.5.2.5.1 1 .2.6.1.5.1h.5l.6.1h1.1l.6-.1.5-.1.5-.1.5-.1.4-.2.4-.2.4-.3.3-.4.2-.4.2-.5.1-.5v-.1l-.1-.6-.2-.5-.3-.4-.4-.3-.4-.3-.4-.2-.5-.2-.5-.2-.6-.3-.4-.1-.4-.1-.5-.2-.5-.1-.5-.2-.5-.1-.6-.2-.5-.1-.6-.2-.5-.1-.5-.2-.5-.1-.5-.2-.5-.2-.5-.1-.5-.2-.5-.2-.5-.2-.6-.2-.5-.2-.5-.2-.5-.2-.5-.3-.5-.3-.4-.3-.5-.3-.4-.3-.4-.3-.4-.3-.4-.4-.4-.4-.3-.4-.3-.4-.3-.4-.3-.4-.3-.5-.2-.4-.2-.4-.1-.5-.2-.4-.1-.5-.1-.5-.1-.5-.1-.5-.1-.6v-1.2l.1-.5.1-.5.1-.5.1-.5.1-.5.2-.5.1-.5.2-.5.2-.5.2-.5.3-.5.3-.5.3-.4.3-.4.4-.4.4-.4.4-.4.4-.4.4-.3.4-.3.4-.3.4-.3.5-.3.5-.2.5-.3.5-.2.5-.2.5-.2.5-.2.4-.1.5-.1.5-.1.5-.1.5-.1.5-.1.5-.1.5-.1.5-.1h2.2l.6.1.6.1h.5l.6.1.5.1.6.1.5.1.5.1.5.1.5.1.5.1.5.2.5.2.5.1.5.2.5.2.5.2.5.2.5.2.5.3.4.2.5.3.5.3.4.3.5.3.4.3.4.3.4.3.4.3-.3.4-.3.4-.3.4-.3.4-.3.5-.3.4-.3.4-.3.4-.3.4-.3.4-.3.4-.3.4-.3.5-.3.4-.3.4-1 2.2-.3.4-.4-.3-.5-.3-.4-.3-.4-.3-.5-.2-.4-.3-.5-.2-.4-.2-.5-.2-.4-.2-.5-.2-.4-.2-.6-.2-.5-.2-.5-.2-.5-.1-.3.2-.5-.1-.5-.1-.5-.1-.5-.1h-1.1l-.6.1-.5.1-.5.1-.4.2-.4.2-.5.4-.3.5-.2.5-.1.5v.1l.1.7.2.6.2.3.4.4.5.3.4.3.5.2.6.2.6.2.4.1.4.2.5.1.5.2.5.1.6.2.6.2.6.2.6.1.5.2.6.2.5.1.5.2.5.2.5.2.5.2.5.2.5.1.6.2.5.3.5.2.5.3.5.3.5.3.4.3.4.3.4.3.4.4.4.4.4.4.4.4.3.4.3.5.3.4.3.5.2.4.2.5.1.5.1.5.2 1 .1.5.1.6v1.2l-.7-.6zm-35.5 10.2H171v-37.1h29.3v8.4h-19.6v6.1h17.6v7.9h-17.6v6.3h19.9v8.4h-.5zm-37.1 0h-9.3v-21.9l-.3.4-.3.5-.3.4-.3.4-.3.5-.3.4-.3.4-.3.5-.3.4-.3.4-.3.4-.3.5-.3.4-.3.4-.3.5-.3.4-.3.4-.3.5-.2.4-.3.4-.3.5-.3.4-.3.4-.3.5-.3.4-.2.4-.3.4-.3.5-.3.4-.3.4-.2.5-.3.4-.3.4-.3.5-.3.4h-.2l-.3-.5-.3-.4-.3-.5-.3-.4-.3-.5-.3-.4-.3-.5-.3-.4-.3-.5-.2-.4-.3-.5-.3-.4-.3-.5.5-.5-.3-.5-.3-.4-.3-.5-.3-.4-.3-.5-.3-.4-.2-.3-.3-.4-.3-.5-.3-.4-.3-.5-.3-.4-.3-.5-.2-.3-.3-.5-.3-.4-.3-.5-.3-.4-.3-.5-.3-.4v21.8h-9.6V196H135l.3.4.3.5.3.4.3.5.3.4.3.5.3.4.3.5.3.4.3.4.3.5.3.4.3.5.3.4.3.5.3.4.3.4.3.5.3.4.3.5.3.4.3.5.3.4.2.5.3.4.2.4.3.5.3.4.3.5.3.4.2.5.3.4.3.5.3.4.3-.4.3-.5.3-.4.3-.5.3-.4.3-.5.3-.4.3-.5.3-.4.2-.4.3-.5.3-.4.3-.5.3-.4.3-.5.3-.4.3-.5.3-.4.3-.4.3-.5.3-.4.3-.5.3-.4.3-.5.2-.4.3-.4.3-.5.3-.4.3-.5.3-.4.3-.5.3-.4.3-.5.3-.4h10.4v37.1l-2.3.1zm-58.8-15.3l-.2-.5-.2-.5-.2-.5-.2-.5-.2-.5-.2-.5-.2-.5-.2-.5-.2-.5-.2-.5-.2-.5-.2-.5-.2-.5-.2-.5-.2-.5-.2-.5-.2-.5-.2-.5-.2-.5-.2-.5-.2-.5-.2-.5-.2.5-.2.5-.2.5-.2.5-.2.5-.2.5-.2.5-.2.5-.2.5-.2.5-.2.5-.2.5-.2.5-.2.5-.2.5-.2.5-.2.5-.2.5-.2.5-.2.5-.2.5-.2.5-.2.5h8.6l.4-.5zm15.9 15.3h-9.9l-.2-.5-.2-.5-.2-.5-.2-.5-.2-.5-.2-.5-.2-.5-.2-.5-.2-.5-.2-.5-.2-.5-.2-.5-.2-.5-.2-.5-.2-.5H92.8l-.2.5-.2.5-.2.5-.2.5-.2.5-.4.9-.2.5-.2.5-.2.5-.2.5-.2.5-.2.5-.2.5-.2.5h-10l.2-.5.4-.9.2-.5.2-.5.4-.9.2-.5.2-.5.2-.5.2-.3.2-.5.2-.5.2-.5.2-.5.2-.5.2-.5.2-.5.2-.5.2-.5.2-.5.2-.5.4-.9.2-.5.2-.5.2-.5.2-.5.2-.5.2-.5.2-.5.2-.5.2-.5.2-.5.2-.5.2-.5.2-.5.2-.5.2-.5.2-.5.2-.5.2-.5.2-.5.2-.5.2-.5.2-.5.2-.5.2-.5.2-.5.2-.5.2-.5.2-.5.2-.5.2-.5.2-.5.2-.5.4-.9.2-.5.2-.5.2-.5.2-.5.2-.5.2-.5.2-.5.2-.5.2-.5.2-.5.1-.5.2-.5.2-.5.2-.5.2-.5.2-.5.2-.5.2-.5.2-.5.4-.9.2-.5h9.4l.2.5.2.5.2.5.2.5.2.5.2.5.2.5.2.5.2.5.2.5.2.5.2.5.2.5.2.5.2.5.2.5.2.5.2.5.2.5.2.5.2.5.2.5.2.5.2.5.2.5.2.5.2.5.2.5.2.5.2.5.4.9.2.5.2.5.2.5.2.5.2.5.2.5.2.5.2.5.2.5.2.5.2.5.2.5.2.5.2.5.2.5.2.5.2.5.2.5.2.5.2.5.2.5.2.5.2.5.2.5.2.5.2.5.2.5.2.5.2.5.2.5.2.5.2.5.2.5.2.5.2.5.2.5.2.5.2.5.2.5.2.5.2.5.2.5.2.5.2.5.2.5.2.5.4.9-1-.4zm-44.4-4.8l-.4.3-.4.3-.4.3-.4.3-.4.3-.4.3-.4.3-.5.3-.5.3-.5.3-.5.2-.5.3-.5.2-.5.2-.5.2-.5.2-.5.2-.5.2-.5.2-.5.2-.5.2-.5.1-.5.1-.5.1-.5.1-.5.1-.6.1-.5.1-.6.1-.5.1-.6.1H59l-.5-.1-.6-.1-.5-.1-.5-.1-.5-.1-.5-.1-.5-.1-.5-.1-.5-.1-.5-.1-.5-.1-.5-.2-.5-.2-.5-.2-.5-.2-.5-.2-.5-.2-.5-.2-.5-.3-.4-.2-.5-.3-.4-.3-.4-.3-.4-.3-.4-.3-.4-.3-.4-.3-.4-.3-.4-.4-.4-.3-.4-.4-.4-.4-.3-.4-.3-.4-.3-.4-.3-.4-.3-.4-.3-.4-.2-.4-.3-.5-.3-.4-.2-.5-.2-.5-.2-.5-.2-.5-.2-.4-.2-.5-.1-.5-.2-.5-.1-.5-.2-.5-.1-.5v-.5l-.1-.5v-.5l-.1-.5V212.4l.1-.6.1-.5.1-.5.1-.5.2-.5.1-.5.2-.5.2-.5.2-.5.2-.5.2-.5.2-.5.2-.5.2-.5.3-.5.3-.4.2-.4.3-.4.3-.4.3-.4.3-.4.3-.4.3-.4.4-.4.3-.4.4-.4.4-.4.4-.3.4-.4.4-.3.4-.3.4-.3.4-.3.4-.3.4-.3.5-.3.5-.3.5-.3.5-.2.5-.2.5-.3.4-.2.5-.2.5-.2.5-.1.5-.2.5-.1.5-.2.5-.1.5-.1.5-.1.5-.1.5-.1.5-.1.5-.1H61l.6.1.6.1h.5l.5.1.6.1.5.1.5.1.5.1.5.1.5.1.5.1.5.2.5.1.4.2.5.2.9.4.5.2.5.3.5.2.4.3.5.3.4.3.5.3.4.3.4.3.4.3.4.3.4.4.4.3-.3.4-.4.4-.3.4-.4.4-.3.4-.3.4-.4.4-.3.4-.3.4-.4.4-.3.4-.4.4-.3.4-.3.4-.4.4-.3.4-.4.4-.3.4-.4-.3-.4-.4-.4-.3-.4-.3-.4-.3-.4-.3-.4-.3-.5-.3-.4-.2-.4-.2-.4-.2-.5-.2-.5-.2-.5-.1-.5-.1-.5-.1-.5-.1-.6-.1-.6-.1h-1.1l-.5.1-.5.1-.5.1-.5.1-.5.2-.5.2-.4 1.2-.5.2-.4.3-.4.3-.4.3-.4.3-.4.3-.4.3-.3.4-.4.4-.3.4-.3.4-.3.4-.2.5-.3.4-.2.5-.2.5-.2.5-.2.5-.1.5-.1.5-.1.6v3.7l.1.5.1.5.1.5.2.5.6-.2.2.5.2.5.3.5.5.8.3.4.3.4.4.4.3.4.4.3.4.3.4.3.4.3.4.3.5.2.5.2.5.2.5.2.5.2.5.1.5.1.5.1.6.1h.9l.6-.1.6-.1.5-.1.5-.1.5-.1.5-.1.5-.1.5-.2.4-.2.5-.2.4-.2.4-.3v-5h-7.4v-7.4H76v16.6l-.3.2zM59.4 112.2h22v-17h-22V60.5h22.9v-17H40.7v122.7h41.9v-17H59.4v-37m157.4 3.7v27.7c0 4.9-2.3 7.2-7 7.2h-3.5c-4.9 0-7.2-2.3-7.2-7.2V66.1c0-4.9 2.3-7.2 7.2-7.2h3.1c4.7 0 7 2.3 7 7.2v24h18.3V65c0-15.2-7.3-22.6-22.5-22.6h-9.1c-15.2 0-22.7 7.5-22.7 22.8v79.2c0 15.3 7.5 22.8 22.7 22.8h9.2c15.2 0 22.7-7.5 22.7-22.8v-28.6h-18.2M152 43.5h18.7v122.7H152V43.5zM124.9 98c0 4.9-2.3 7.2-7 7.2h-7.7V60h7.7c4.7 0 7 2.3 7 7.2V98zm-4-54.5H91.6v122.7h18.7v-44.5h10.6c15.2 0 22.7-7.5 22.7-22.8V66.3c0-15.3-7.5-22.8-22.7-22.8zM84.7 277.1h106.9l-54.5 18-52.4-18"/></svg>