<svg width="32" height="32" viewBox="0 0 32 32" fill="none" xmlns="http://www.w3.org/2000/svg">
<g clip-path="url(#clip0_2_220)">
<path d="M26.3333 0H5.66667C2.53705 0 0 2.53705 0 5.66667V25.5333C0 28.6629 2.53705 31.2 5.66667 31.2H26.3333C29.4629 31.2 32 28.6629 32 25.5333V5.66667C32 2.53705 29.4629 0 26.3333 0Z" fill="#000B1D"/>
<path d="M24.8823 23.4601H21.0814C20.9163 23.4631 20.754 23.4169 20.6152 23.3274C20.4764 23.2379 20.3673 23.1092 20.3019 22.9575L16.1756 13.3096C16.1648 13.2721 16.1423 13.239 16.1112 13.2153C16.0801 13.1915 16.0423 13.1785 16.0032 13.1779C15.9641 13.1774 15.9259 13.1895 15.8943 13.2124C15.8626 13.2353 15.8392 13.2678 15.8274 13.3051L13.256 19.4308C13.242 19.4639 13.2365 19.5 13.2398 19.5358C13.2432 19.5716 13.2554 19.606 13.2752 19.6359C13.2951 19.6659 13.3221 19.6904 13.3538 19.7074C13.3855 19.7244 13.4209 19.7333 13.4568 19.7333H16.2834C16.369 19.7333 16.4527 19.7586 16.5241 19.8058C16.5955 19.8531 16.6514 19.9204 16.6848 19.9992L17.9223 22.7532C17.9551 22.8304 17.9683 22.9146 17.9606 22.9982C17.9529 23.0818 17.9246 23.1622 17.8783 23.2322C17.832 23.3022 17.7691 23.3597 17.6951 23.3994C17.6212 23.4392 17.5386 23.46 17.4546 23.4601H7.16453C7.08714 23.4596 7.01106 23.44 6.94308 23.403C6.87509 23.366 6.81732 23.3128 6.77491 23.248C6.7325 23.1833 6.70676 23.1091 6.7 23.0319C6.69324 22.9549 6.70565 22.8773 6.73615 22.8061L13.2814 7.21917C13.3483 7.0542 13.4634 6.91323 13.6116 6.81467C13.7599 6.71611 13.9344 6.66453 14.1124 6.66667H17.8875C18.0656 6.66432 18.2402 6.7158 18.3885 6.81439C18.5368 6.91298 18.6519 7.05407 18.7186 7.21917L25.3092 22.8061C25.3397 22.8772 25.3521 22.9546 25.3454 23.0316C25.3388 23.1086 25.3132 23.1828 25.2709 23.2475C25.2287 23.3122 25.1711 23.3655 25.1033 23.4026C25.0355 23.4396 24.9596 23.4594 24.8823 23.4601Z" fill="#FA0F00"/>
</g>
<defs>
<clipPath id="clip0_2_220">
<rect width="32" height="31.2" fill="white"/>
</clipPath>
</defs>
</svg>
