<svg xmlns="http://www.w3.org/2000/svg" width="256" height="308" preserveAspectRatio="xMidYMid" viewBox="0 0 256 308"><path fill="#797979" d="M43.505 91.65c1.633-1.357 3.102-1.824 3.102-1.824-.172 3.13.223 5.792.934 8.036a18.405 18.405 0 0 0 2.13 4.571c2.708 4.17 6.196 5.803 6.196 5.803.416-8.021 4.53-10.73 4.53-10.73-.683 4.682-.638 16.68 3.458 26.201 4.78 11.087-.156 10.59 6.493 24.495 8.37 17.483 32.094 17.268 32.094 17.268-13.602 3.917-28.629-.824-35.99-13.002-2.901-4.815-4.074-8.77-4.6-12.213-3.355-1.128-8.838-5.877-9.171-6.174.266.06 4.622 1.053 8.717 1.07-.14-2.992-.214-5.645-1.29-8.318-3.963-.482-8.252-3.125-8.252-3.125-.437 7.688-4.381 11.517-8.844 12.848l-1.132 5.821c4.31 5.78 15.182 14.292 15.182 14.292s-9.134-2.85-16.102-9.602l-2.546 13.045c4.446 3.591 9.082 6.694 13.516 9.424 13.045 8.036 30.858 11.69 35.472 11.468a239.577 239.577 0 0 0 13.564-2.843c-4.667-1.075-15.768-3.86-21.957-7.263 4.572.229 22.298 2.574 39.285 2.678 15.879-4.586 28.286-9.127 28.286-9.127s-6.535-9.135-1.9-19.805c4.636-10.67 14.567-13.21 19.338-13.887 4.044-3.05 9.446-14.545 10.1-25.037.674-10.945-6.991-14.722-11.383-20.406-4.393-5.684-7.236-13.112-12.95-20.444 5.344 2.634 8.868 7.392 8.868 7.392.757-1.996 4.72-13.231 1.239-20.036-3.837-7.48-12.503-10.849-12.503-10.849.972-1.114 3.472-2.255 3.472-2.255-12.55-6.308-24.034 1.914-24.034 1.914-.327-1.856-.097-3.851-.097-3.851-6.396 5.38-8.207 15.397-8.207 15.397 13.543-.089 18.365 5.15 18.365 5.15-14.565-2.508-30.92-1.172-43.595 5.254-12.674 6.425-24.027 19.79-24.027 19.79 1.537-7.695 5.566-11.16 5.566-11.16C68.124 66.362 61 67.223 61 67.223c1.343.972 2.857 3.494 2.857 3.494a23.84 23.84 0 0 0-8.4 2.063 23.55 23.55 0 0 0-3.384 1.857c-2.924 1.907-5.297 4.342-6.916 6.916-2.248 3.547-3.071 7.352-1.996 10.404.113-.106.232-.21.344-.307Zm68.297-3.955s1.96-6.648 8.95-9.646c6.99-2.998 20.963-.608 28.895 7.97 7.933 8.578 5.61 17.705-.884 21.2-9.883 5.313-13.483-.512-21.644-3.295-8.162-2.782-18.15-5.008-15.317-16.229Zm5.75 22.656c4.802-.676 6.42 2.381 4.616 6.559-1.803 4.177-4.415 6.163-6.64 6.693-4.431 1.04-9.73-2.797-9.863-5.765-.135-2.969 7.088-6.82 11.887-7.487Zm2.62 17.385c3.383 2.042 10.908.432 11.398-8.845 0 0 4.333 5.67-.453 10.589 1.329 1.862 3.458 11.97-4.103 15.902-8.304 4.326-14.055-4.37-15.294-6.796-5.618-.572-6.641-5.625-6.641-5.625 10.478 5.053 15.093-5.225 15.093-5.225ZM71.59 114.498c1.114-12.926 10.73-25.14 22.12-22.401 11.035 2.656 9.091 12.8 6.724 19.344-2.368 6.545-1.574 10.107-3.398 15.056-1.826 4.95-6.553 8.816-12.809 8.43-8.038-.497-13.623-7.94-12.636-20.429Z"/><path fill="#797979" d="M179.129 127.484s-2.539 5.918-13.054 7.978c-11.745 2.301-19.783 10.781-14.373 18.119 5.536 7.51 19.368 5.528 19.368 5.528-12.43 6.82-21.84-1.06-21.84-1.06 4.402 10.62 20.497 14.046 33.483 3.286 12.984-10.76 14.128-24.39 14.128-24.39-1.55 3.472-4.786 7.22-4.986 7.45.177-.431 4.073-9.974 3.532-17.223-.557-7.42-6.33-13.105-16.518-17.683-.453 10.403-8.015 20.48-8.015 20.48 3.355-.503 8.275-2.485 8.275-2.485ZM109.361 119.292c3.577 2.834 6.285 1.655 8.653-.994 2.367-2.65 1.624-4.868-1.87-3.83-3.495 1.038-5.261 2.08-6.865 3.058-.378.23-1.21.742.082 1.766ZM161.275 190.435c7.487 4.015 19.493 13.877 23.285 33.37-.393-.831-12.847-27.003-40.398-28.005-30.506 8.867-62.391 14.87-68.024 14.737-.096 4.757 9.053 60.597 12.89 79.46 21.051 11.041 52.131 6.448 65.67 3.109 23.472-6.634 39.27-33.964 39.27-33.964-1.166 13.699-10.768 24.629-11.065 24.971 13.853-6.493 32.642-22.967 35.395-29.081L193.84 176.09c-7.833 5.036-19.527 9.919-32.565 14.344ZM32.945 135.72c-1.336-.681-2.389-1.58-3.005-2.61 0 0 1.358.459 3.317.682a17.66 17.66 0 0 0 3.354.066c1.343-.11 2.753-.407 4.104-1.023a9.944 9.944 0 0 0 3.546-2.664c2.783-3.288 3.31-7.54 2.264-11.621a18.849 18.849 0 0 0-2.056-4.927 19.707 19.707 0 0 0-3.792-4.645 17.667 17.667 0 0 0-3.005-2.211c-1.19-.701-2.467-1.24-3.8-1.604-10.329-2.782-22.662 9.988-16.262 27.516 2.827 7.754 7.323 14.291 12.585 19.865l2.75-16.823Z"/><path fill="#797979" d="M200.395 124.639s6.805 17.498-10.916 36.887c-11.501 12.244-29.86 15.212-39.507 6.857 0 0-29.311 10.952-53.617 15.68-24.295 4.726-42 5.787-37.882-5.596-1.832-.78-4.036-1.944-6.203-3.175-12.184 4.258-15.197 13.912-12.03 20.873-6.353-3.465-9.485-15.144 5.728-24.636-1.685-1.053-2.79-1.782-2.79-1.782s-13.387 5.536-19.264 15.242c-5.877 9.706-1.239 19.352 11.257 20.962 12.496 1.61 47.552.747 97.828-12.61 50.275-13.357 88.668-36.918 93.866-51.758 5.198-14.84-16.08-18.24-26.47-16.944ZM117.753 97.06c.2.456 2.164 2.134 2.549 2.57.384.434 1.223.707 1.223.707l4.298 1.33c1.432.443 4.638.99 4.793 1.083.155.092 3.872 1.008 3.872 1.008s7.196-.205 7.32-.205c.123 0 2.443-.71 2.535-.773.092-.062 2.442-2.228 2.442-2.228l.959-5.133v-4.73c0-1.577-2.628-5.534-2.66-5.658-.03-.124-1.16-1.708-1.16-1.708l-2.055-1.63-5.133-1.76s-2.433-.684-2.524-.705c-.092-.02-3.229-.252-3.322-.169-.093.083-3.341 0-3.341 0l-3.152-.134c-1.05-.045-3.666.954-3.787 1.008-.122.056-3.075 2.352-3.138 2.444-.063.092-1.237 3.233-1.237 3.233s-.494 2.549-.525 2.642c-.032.093.65 5.442.65 5.442s1.192 2.912 1.393 3.367ZM79.197 126.279l3.988 1.485h5.983c.14 0 3.386-1.994 3.386-1.994l2.922-1.992c.974-.664 1.577-3.342 1.623-3.713.047-.371.418-4.613.418-4.613s1.024-3.283 1.117-3.55c.094-.266.413-1.993.632-2.227.218-.234.713-2.228.713-2.228l.641-2.413-.092-2.62.092-2.713-1.669-2.55-1.857-2.127-3.57-.52-.465 5.937-7.142-1.252-10.224 4.975-.786 1.612-2.017 7.004 1.066 7.28c.356 2.428 2.923 4.545 3.062 4.638.138.093 2.179 1.581 2.179 1.581Z"/><path fill="#4B4B4B" d="m219.026 246.908-3.941-10.99-4.5-14.657-5.611-16.79-3.85-13.868-5.982-17.762-36.3 15.8-20.348 5.689-17.81 5.256-18.299 3.77-19.787 4.205-6.246 1.794c17.067 7.73 35.498-6.06 58.746 1.857 23.248 7.918 38.462 25.23 38.957 37.597 0 0 6.122-6.926 6.493-14.407 6.74 28.878-9.09 54.232-61.652 63.878 0 0 21.212 1.546 32.465-1.051 11.254-2.597 21.025-5.998 21.025-5.998l12.83-5.365c3.124-1.546 6.247-3.091 9.37-4.638l10.063-7.884 11.038-10.435 5.333-7.513-1.994-8.488ZM107.766 178.639l4.73-2.319-14.192-37.149-35.833-8.13s-6.185-1.269-12.031-4.762l-2.13-5.056c-5.88-10.45-16.79-11.733-23.467-4.003-6.678 7.73-3.713 20.838 7.606 31.598 11.319 10.76 36.978 28.507 67.155 31.228l8.162-1.407ZM125.917 100.058c6.089 2.412 15.1 7.903 21.036 4.467 5.936-3.435 6.01-11.204-1.96-17.979-1.454-1.232-9.356-7.295-17.845-6.553-8.488.742-13.505 7.421-12.179 12.556 1.327 5.134 5.292 5.268 10.948 7.51Zm-1.953-8.185c.312-3.769 3.822-6.566 7.851-6.238 4.03.33 7.043 3.639 6.738 7.406a5.836 5.836 0 0 1-.148.972c-1.047-2.256-3.362-3.936-6.164-4.164-3.674-.296-6.923 1.997-7.688 5.262a6.483 6.483 0 0 1-.589-3.238Z"/><path fill="#4B4B4B" d="M84.48 131.795c8.956-.274 10.114-8.949 11.503-15.812 1.387-6.865 6.633-14.084 0-19.25-7.088-5.52-19.65 3.08-20.912 15.398-.682 6.649.46 19.946 9.41 19.664Zm-2.144-21.704c1.803-3.614 6.01-5.172 9.394-3.49a6.49 6.49 0 0 1 2.471 2.174c-3.193-1.032-6.832.563-8.48 3.861-1.255 2.515-1.018 5.365.377 7.426a6.002 6.002 0 0 1-.913-.37c-3.384-1.69-4.66-5.987-2.849-9.601ZM112.28 121.297c2.228.835 2.427 1.206 3.942 0 1.515-1.206 3.649-3.292 3.649-3.292l.834-1.777v-1.238c0-.061-.68-1.746-.68-1.746s-.817-.557-.866-.557c-.048 0-1.175-.03-1.5.062-.323.093-1.066.139-1.545.371-.48.233-4.02 2.056-4.02 2.056s-2.042 5.29.186 6.121ZM51.092 96.828c.44-1.576 3.061-3.91 3.061-3.91-1.298 7.73 3.061 12.305 3.061 12.305 9.554 1.36 13.574-1.607 13.574-1.607S89.278 78.2 73.94 74.119c-15.337-4.082-22.617 7.5-22.617 7.5 2.064-.811 5.89-.695 5.89-.695-7.791 5.608-6.122 15.904-6.122 15.904ZM149.938 72.697l5.627-1.98c5.503-12.861-3.416-18.55-3.416-18.55a43.242 43.242 0 0 1 5.581.185c-8.423-10.265-20.963-6.4-20.963-6.4 1.05-2.319 3.648-4.669 3.648-4.669-10.017.248-17.53 7.266-18.519 12.677l4.174 8.225 23.868 10.512ZM176.753 129.595c5.24-2.853 3.518-9.47-.255-12.625 0 0-5.937 9.863-6.957 12.996-1.02 3.133 1.971 2.48 7.212-.371Z"/><path fill="#4B4B4B" d="M148.687 181.283c37.58-8.905 68.036-30.919 70.385-40.751 2.35-9.832-13.48-9.77-13.48-9.77-1.299 5.503-5.719 10.31-5.719 10.31s-4.164 6.442-5.132 8.513l2.566-5.495 1.083-3.803.835-6.555-.65-6.276-2.102-6.246-4.422-6.709-3.772-2.504-1.7.588c-.567.196 9.027 12.027 2.443 27.24 0 0 .897-6.216-.465-9.896 0 0-3.739 15.368-17.158 22.417-13.42 7.05-23.224-5.64-14.1-14.903 0 0-5.195.711-6.053 2.682-.858 1.97-3.285 2.76-4.026 6.223a26.872 26.872 0 0 0-.558 6.492 22.053 22.053 0 0 0-.02 5.199c.33 2.844 3.05 6.06 3.05 6.06l1.082.883-6.46 2.58-20.592 7.277-19.754 4.73-19.247 4.36-11.78.185-7.235-1.344-2.783-4.87-10.876-5.495-4.197 1.09-5.998 3.713c-1.999 1.238-5.874 8.038-4.823 12.55 1.082 4.7 2.473 15.645 45.14 8.72 42.669-6.926 66.518-17.195 66.518-17.195Zm41.047-24.179 1.998-2.62c-.882 1.308-1.849 2.719-2.801 4.166-2.363 3.593-5.81 4.794-8.359 6.748l4.525-3.47 4.637-4.824Zm-15.675 10.853 6.078-2.244c-2.154 1.503-5.022 2.465-9.035 3.315l2.957-1.071Zm-20.126-.402 8.473 2.563c-2.22 0-4.045-.278-5.529-.755-2.727-.877-6.081-4.36-6.105-4.385l3.161 2.577Z"/><path fill="#383838" d="M118.896 119.57c1.64-.774 1.407-2.413 1.424-2.49.016-.077.4-1.05.57-2.01.172-.958-.757-1.206-1.93-1.839s-3.462-.217-3.462-.217l-1.083 1.114c3.495 1.948-.834 4.143-1.144 7.669 1.76.663 3.985-1.454 5.625-2.228ZM69.69 116.632c0 .185 1.205 8.44 1.345 9.996.14 1.555 2.457 6.005 2.599 6.375.142.37 8.672 5.936 9.415 6.262.742.324 5.936.416 6.075.324.14-.093 6.864-4.084 7.003-4.22.139-.137 3.757-10.343 3.757-10.343l-1.994-10.389c-2.273.048-7.962 10.529-13.435 10.991-5.472.463-8.378-4.823-9.955-11.996-.003 0-4.81 2.815-4.81 3ZM143.075 113.633c.185 0 8.719-1.423 10.636-2.041 1.917-.619 4.885-5.009 4.885-5.009l2.97-8.78c.99-2.927-2.35-6.123-2.411-6.309-.062-.185-8.907-12.366-14.102-14.68-5.194-2.313-3.648-1.27-4.266-1.455-.618-.186-3.463 1.298-3.587 1.456-.123.157-.31 4.294-.31 4.294 8.844 4.638 10.714 14.656 5.845 17.948-4.87 3.294-9.741.465-16.109 2.366 0 0 .99 4.604 1.114 4.793.125.188 15.148 7.417 15.335 7.417ZM59.1 88.528c-.989 3.118-.866 7.93.015 11.338 0 0 .047 1.6.047 1.74 0 .138 12.104-5.288 12.104-5.288l7.096-9.46c2.365-3.154.974-6.401-6.4-8.673-7.374-2.273-11.443 2.288-11.443 2.288 1.052-.063 2.536.309 2.536.309-5.751 3.85-6.555 9.662-6.555 9.662.529-.804 2.6-1.916 2.6-1.916ZM147.001 70.948s2.737 1.16 5.01-4.035c2.272-5.193-3.166-10.33-3.166-10.33.84.26 1.664.566 2.47.916-3.942-7.976-12.153-6.77-12.153-6.77.615-.823 2.273-1.716 2.273-1.716-8.534-1.994-13.759 5.534-13.759 5.534-.129 1.139-.257 2.278-.387 3.416l4.638 6.586 15.074 6.4ZM174.612 121.331l-5.813 7.978-.247 3.091 6.71-2.66c2.813-3.678 1.266-6.957-.65-8.409ZM151.987 157.931l-2.97-1.623c-.518.27-1.035.54-1.553.812v2.133c0 .07.927 2.203.927 2.203l2.896 3.942 4.8 2.69 6.307 1.438 4.198.417c1.398.139 5.495-.95 5.589-1.02.093-.07 4.638-1.507 4.73-1.624.092-.116 2.983-.981 8.242-2.93 5.26-1.947 9.276-6.306 10.698-8.378 5.164-2.659 11.394-10.744 3.045-13.017 0 0-1.793-1.02-1.188-4.266s-1.406-5.936-3.355.418c-1.949 6.353-8.92 13.248-8.92 13.248.866-1.793 1.221-7.872 1.221-7.872-3.895 5.705-11.424 15.752-21.565 15.691l-9.554-.965-3.548-1.297Z"/><path fill="#383838" d="m165.414 171.682-14.795-5.148-2.134-.586-14.284 5.718-13.14 3.896-3.575.9 5.495-1.767 8.349-2.643 18.452-6.909-2.69-4.87-1.53-7.606-1.16-1.391 1.453-3.633-43.592 2.103c-14.53.7-37.659-9.029-43.782-13.79 0 0-5.132-1.392-6.925-2.35 0 0 1.901 3.989 4.43 5.89 0 0-6.656-2.921-10.413-6.052.656-1.531 1.314-3.06 1.97-4.592l-.347-1.461c-.115-.487-2.228-10.481-12.861-8.255-10.634 2.227-8.194 17.067-.836 22.076 0 0 3.804-.495 8.442 4.02 4.637 4.513 7.041 6.345 7.041 6.345l4.36 2.76c5.739 3.873 16.44 9.229 24.974 12.336 0 0-7.684.51-12.692-.297 0 0 15.675 6.184 27.857 7.792 12.182 1.607 17.345 3.772 17.345 3.772l2.269-.372-4.186 1.06-12.274 3.247-11.347 1.948c-4.35.38-8.699.762-13.048 1.143l-10.326-7.853-7.576-1.424c-5.843 3.774-9.213 13.574 3.03 17.593 12.244 4.019 57.447-1.607 93.807-20.159 0-.003 11.083 1.017 14.239-1.44ZM217.805 244.418l-2.474-8.842-4.328-12.243-3.927-12.8-2.906-9.4-3-10.482c-1.122-3.639-2.246-7.278-3.37-10.917l-3.4-6.647-6.214 2.783-9.215 4.604-14.036 5.845-12.737 3.617c-4.246 1.205 9.46 3.772 12.057 6.787 2.598 3.014 7.513 4.776 9.23 7.652 1.716 2.876 4.034 4.592 4.915 6.817.882 2.226 2.228 3.239 3.2 6.122 4.036 8.117 7.607 17.64 7.792 21.66 0 0 2.288-7.855 2.35-17.006 0 0 11.037 33.856-5.07 50.768-15.646 16.51-7.854 15.985-2.938 13.697 4.916-2.288 13.883-7.916 13.883-7.916l9.15-7.203 7.917-7.359 6.153-7.637.215-1.392-3.247-10.508Z"/><path fill="#A7A5A5" d="M115.001 258.64c-4.085-32.093-30.332-44.986-40.72-44.568l12.243 76.725.712.866 15.46 5.379c33.143-9.029 19.169-48.913 15.396-53.675.68 9.15-3.091 15.274-3.091 15.274ZM229.624 132.98l-2.064-3.315-3.386-3.224-4.777-2.087-8.185-1.438-.765.858c13.727 2.783 16.878 16.232 6.77 31.722l4.244-1.832 2.736-3.107c.912-1.036 3.432-4.313 3.456-4.381.022-.068 1.809-4.638 1.809-4.638l.393-3.99-.231-4.568ZM32.449 200.391c-10.389-8.41-4.638-19.016 8.534-31.074 0 0-6.461 2.567-14.872 9.153-8.41 6.586-7.73 12.243-7.73 12.243l.65 7.204c.216 2.4 2.998 5.318 3.493 5.813.496.495 6.832 3.267 6.832 3.267l7.143 1.151c2.38.384 10.295 1.701 10.419 1.701h6.802c5.03-1.02 10.059-2.04 15.089-3.062 5.029-1.02-25.972 2.014-36.36-6.396ZM33.35 153.824c-16.763-16.046-18.565-32.943-12.867-40.496 5.698-7.554 13.697-8.108 18.397-6.624l-2.118-2.782-4.382-1.067h-4.476l-4.452 1.41c-1.716 1.446-3.432 2.89-5.148 4.337l-2.852 5.056-1.97 5.449v4.29l.764 6.77 2.087 5.797 3.594 7.329 5.195 8.278 4.336 4.752 7.815 6.587 8.394 5.572 7.235 4.15 8.094 4.059 11.455 3.896 12.872 1.623c-16.29-5-35.21-12.337-51.973-28.386ZM43.795 95.05l.68-1.515 1.268 5.195 2.35 4.576c.784 1.526 3.092 3.773 3.185 3.957.092.185 5.442 3.526 5.442 3.526l.123-3.526c-2.366-1.252-9.276-8.626-8.163-19.107 0 0-2.04.03-3.712 1.082 0 0 .975-14.161 18.15-18.768l-.818-1.074c-.272-.358 7.185-1.151 13.337 2.96l1.083-.71-.618-1.794-3.773-2.443-5.225-1.638-4.204-.402-3.835.433-.989.866.371 1.36-2.13 2.103-4.452 1.299-5.256 4.297-2.629 4.175-2.07 4.455-.96 5.473.774 4.232 2.071.988ZM74.837 106.259l-.418 3.54v2.102c3.99-7.93 8.302-15.954 22.03-15.52l-1.607-2.303-2.504-.432-2.15-.341-3.957.757-2.442 1.315-2.674 2.302-2.69 2.813-1.7 2.21-1.888 3.557ZM126.07 79.314s-2.49-1.06-6.478 1.12c-3.99 2.18-5.681 6.423-5.681 6.423l-1.253 2.917.743 3.553c.248 1.184 1.647 2.991 1.74 3.084.091.094 2.365 1.783 2.365 1.783l3.756 1.925 3.571.371c-9.894-5.38-9.832-16.183 1.237-21.176ZM158.063 45.906s-1.925-2.203-1.995-2.273c-.07-.07-3.57-2.991-3.57-2.991l2.086-1.276c.696-.425-1.716-1.485-1.786-1.554-.07-.068-2.991-1.715-2.991-1.715l-4.846-1.017h-7.284l-3.757.718-3.733.743c-1.244.248-1.947-.255-1.947-.44s-.163-1.53-.163-1.53l-1.575.434s-2.644 1.345-4.174 3.966c-1.53 2.62-3.038 4.962-3.038 4.962l-1.994 4.43-1.298 5.913 3.965-.302c1.321-.1 2.04-8.44 5.937-12.522l.51 2.736c.17.912 9.6-9.044 21.238-5.194l-2.365 2.852c-.789.951 12.014 3.21 16.158 13.165l.1-3.215-1.785-3.548-1.693-2.342ZM184.753 121.239c-1.577.34-1.273 7.76-6.277 12.43-2.323 2.168-2.884 2.051-3.671 3.74-1.317 2.826 1.6 6.261 7.026 0 5.426-6.26 4.498-16.51 2.922-16.17ZM170.214 140.168a2.83 2.83 0 1 0 0 5.66 2.83 2.83 0 0 0 0-5.66Z"/><path fill="#C6CACD" d="m157.097 73.264-2.896-3.89-1.031-1.394c-2.924-3.546-12.726-10.003-21.43-11.777l-7.325-1.394h-7.745s-10.67.841-10.804.882c-.134.04-10.76 3.436-10.9 3.524-.141.087-8.72 5.239-8.72 5.239l3.941 7.516 8.429 4.84s5.068 8.994 5.194 9.364c.125.371 3.087 11.383 3.087 11.873 0 .49-1.974 10.018-2.6 12.207-.625 2.189-3.213 21.126-5.528 25.95-2.314 4.822-12.436 13.452-17.26 15.582-4.823 2.13-3.799 8.504-3.74 8.593.06.09 4.89 2.635 4.89 2.635l5.284 1.885 4.326.058c8.274 1.158 22.461.49 34.532-2.308l8.384-5.238 3.83-9.61 2.048-10.952 4.356-11.59c1.452-3.864 5.38-8.163 5.662-8.906.282-.741 4.727-12.058 4.727-12.058l1.764-19.757-.475-11.274Zm-45.472 48.702a51.25 51.25 0 0 1-.913-.482c-.103-.06-1.025-.505-1.232-.854-.207-.349-.883-1.143-.95-1.217-.068-.074-1.21-1.024-1.21-1.024s.164-1.202.193-1.27c.03-.066 1.016-1.134 1.016-1.134l.165-.653c.066 0 1.958-.46 2.018-.505.06-.045 3.564-1.803 3.564-1.803l2.538-.378c.55-.054 1.1-.11 1.648-.163l.764.208.348.333.854.734c-.04.176-.04.36 0 .535.074.297 0 1.04 0 1.04.023.256.033.513.03.771-.008.253-.535 1.485-.587 1.573-.053.088-.927 1.255-.971 1.418-.045.163-.905 1.016-1.092 1.202-.185.186-1.157.883-1.254.972-.097.089-1.595.63-1.595.63s-1.691.208-1.766.208c-.074 0-1.487-.107-1.568-.141Zm17.497 18.224c-.49 1.514-2.367 2.509-2.412 2.575-.044.066-2.99 1.328-3.057 1.35-.067.023-2.508 0-2.553 0-.046 0-3.733-1.394-3.733-1.394s-2.18-1.788-2.227-1.877a866.054 866.054 0 0 1-1.766-4.015l.905-1.388 4.845-2.946 1.254-1.135 8.326-.512c2.775-.17.928 2.322 1.18 3.918.251 1.596-.272 3.916-.762 5.422v.002Zm23.663-40.53c-.222 1.669-1.113 2.998-2.537 4.207-1.424 1.21-4.207 2.998-6.923 3.458-2.716.46-6.746-.526-10.33-2.56-3.591-2.048-7.42-3.465-7.45-3.592 0 0-5.936-1.454-7.45-2.1-1.513-.645-3.28-3.124-4.456-4.919-1.175-1.795-1.053-3.243-.585-5.38.467-2.138 3.613-6.025 3.613-6.025l3.68-3.035 4.572-.891 4.95-.401 3.123.52 5.038 1.179c1.68.393 4.55 2.285 4.638 2.315.09.03 4.141 2.998 4.141 2.998s2.137 2.293 2.197 2.441c.06.149 2.723 4.022 2.634 4.119-.089.096 1.232 3.955 1.262 4.11.031.157.098 1.884-.117 3.553v.003ZM52.437 30.3l-.626.95-6.817 40.94 2.228.36 3.084.163 5.115-2.154c1.704-.718.465-10.04 2.816-20.553 2.35-10.512 3.524-17.994 3.524-17.994s-4.686-2.826-9.324-1.713ZM43.137 95.81l-1.63 1.745-2.01 7.513 6.803 4.824 1.67-5.349-3.556-8.936-1.277.203ZM32.541 147.514l-2.064 15.773 1.531 1.578h3.687L41.6 136.08l-6.462-.464-2.597 11.898Z"/><path fill="#A1A5A8" d="M175.91 99.657c-1.051-4.946-3.524-7.173-3.524-7.173s-3.342-3.648-5.936-6.555c-2.595-2.906-4.576-6.244-4.576-6.244s-3.001-4.028-5.735-7.704l-.445.53c-13.048-11.501-27.085-11.193-27.085-11.193 8.596 5.628 7.606 13.049 7.606 13.049 14.162 6.925 15.768 15.992 15.768 15.992s-1.082.023-.464 1.167c.618 1.143.618 3.741 1.298 6.06.68 2.32-.834 2.319-1.33 4.638-.494 2.32-1.545 1.422-2.936 2.938-1.39 1.516-4.05 1.328-6.988 2.164-2.937.835-9.43-2.412-9.43-2.412 3.09 3.092 3.712 11.934-.364 14.547 0 0 .07.765.255 1.878.186 1.112-.997 3.734-1.782 6.006-.785 2.272-.858 2.365-.858 2.365s.247 3.989.773 6.586c.525 2.597-.556 4.793-.556 4.793 6.863 10.698-2.787 21.561-2.787 21.561 7.3-1.688 13.829-4.158 17.813-7.462l-.186-1.114 5.257-14.47 4.084-2.474 3.4-1.36 5.195-1.793a13.978 13.978 0 0 0 3.896-2.35c1.856-1.607 2.411-2.598 3.958-5.626 1.547-3.029 3.154-5.071 4.205-8.596 1.051-3.524 1.114-4.885 1.485-8.287.371-3.401 1.04-4.514-.01-9.46ZM51.185 71.584l4.111-1.81c.12-1.55.238-3.101.356-4.653l.155-1.777c.051-.593.897-4.406.913-4.468l1.546-6.758.525-4.684 1.437-5.164.696-5.41.573-3.973.2-1.84-4.158-.912c1.809 4.87-5.426 34.028-6.354 41.449ZM44.042 108.408l1.856 1.577 2.072-5.318-2.289-2.443-1.639 6.184ZM38.709 145.2l2.8-8.841-5.304-.297c1.53 1.35 2.736 4.037 2.504 9.138Z"/><path fill="#F6FBFD" d="m109.85 115.426 4.735-3.295c9.877-5.706 6.382-9.178 3.325-12.162-7.978-12.37-3.376-12.74-5.198-21.334-3.592-18.06-26.469-14.18-26.469-14.18-3.072 3.067-6.144 6.135-9.217 9.201-5.624 4.976-14.759 18.254-18.24 27.53l-.555 4.742.556 7.688.883 4.548c.294 1.516 2.175 6.812 2.228 7.14.053.326 1.432 3.665 1.432 3.665l.98 5.988 1.201 8.296c.401 2.765 1.299 2.738 4.456 9.001 3.157 6.263 9.142 7.42 9.142 7.42 18.358 6.486 40.115-1.52 37.006-17.208 0 0-.468-1.068-1.625-3.762-1.157-2.693-.416-4.084-.416-4.084 6.82-7.183-.141-11.547-.141-11.547s.26-.46-1.343-.786c-1.602-.326-3.94-2.137-5.075-3.547-1.136-1.41 2.336-3.314 2.336-3.314Zm-9.438-10.085c0 .112-.787 3.756-.787 3.756l-1.18 3.342-1.372 4.452-.601 3.48-.928 4.308-2.53 4.89-3.569 2.782-2.575.788c-.067.028-3.243 0-3.243 0s-2.39-.625-2.508-.692c-.12-.066-2.292-1.21-2.292-1.21l-2.62-2.73-1.81-3.316-.996-2.464c-.33-.822.023-3.94 0-4.237-.022-.297-.304-5.098-.304-5.157 0-.06 1.114-4.282 1.158-4.4.043-.118.98-3.8.98-3.874 0-.075 2.544-4.726 2.641-4.846.098-.12 3.54-3.153 3.639-3.22.1-.067 5.105-3.25 5.105-3.25s2.04-.304 2.16-.327c.119-.024 3.124 0 3.124 0l3.48.928c.76.563 1.519 1.128 2.278 1.692l2.13 3.045.743 3.341c.247 1.114-.123 2.8-.123 2.92ZM51.432 30.895l-2.228 16.82L44.69 73.94c-1.505 8.742 1.16 1.554 1.229 1.577.07.023 1.53.139 1.53.139l2.713-3.267c-1.776-2.338 1.02-10.575 2.228-17.995 1.207-7.42 4.452-20.916 2.319-24.302l-3.277.802ZM40.773 97.362l-.835 7.073 3.054 2.055 1.762-6.647-.943-4.476-3.038 1.995ZM34.891 137.193l-2.442 10.728-.99 8.101c-.33 2.7-1.669 2.814-.185 5.257 1.484 2.442 3.401-2.49 4.05-6.895.649-4.406 1.515-12.18.278-17.315l-.711.124Z"/><path fill="#DF6064" d="M89.044 218.585c-5.981.03-10.826-.4-14.054-1.254l.638 5.135.022.156 3.162 19.82c10.78 1.069 21.474 1.046 31.826.178-5.19-11.806-13.698-19.62-21.594-24.035Z"/><path fill="#AA282A" d="M121.004 133.331s-1.989 2.798-5.417 4.416c3.821 8.823 15.642 5.001 12.17-5.395-3.043 1.974-6.753.98-6.753.98ZM52.238 54.372c-.044.297-.096.594-.156.891.698.097 1.643.46 2.222.787.372-1.84.75-3.743 1.114-5.621-.638-.252-1.59-.48-2.31-.594-.312 1.65-.654 3.194-.87 4.537ZM181.6 217.318c-.972-2.88-2.316-3.896-3.199-6.123-.882-2.226-3.198-3.94-4.92-6.818-.682-1.143-1.863-2.108-3.205-3.045-10.262 4.482-21.571 8.044-32.77 10.746 11.495 4.333 20.86 10.945 27.226 17.987 6.873-2.694 13.172-5.662 18.76-8.756a121.235 121.235 0 0 0-1.893-3.991Z"/><path fill="#771C1C" d="M198.295 183.751c-7.212 6.946-17.023 12.793-28.02 17.579 1.343.935 2.526 1.9 3.206 3.045 1.722 2.879 4.037 4.592 4.92 6.818.884 2.226 2.228 3.243 3.198 6.122a123.37 123.37 0 0 1 1.892 3.993c9.009-4.987 16.155-10.307 20.83-15.353l-6.026-22.204ZM55.296 50.378a744.14 744.14 0 0 1-1.114 5.602 9.581 9.581 0 0 1 2.197 1.708c.385-1.764.77-3.527 1.157-5.29-.34-.973-1.187-1.604-2.24-2.02ZM125.157 143.902s2.444-.737 3.757-2.921c1.313-2.185.99-2.336 1.318-4.194.329-1.86-1.318-3.69-1.318-3.69-4.127 3.06-6.215 7.234-3.757 10.805Z"/><path fill="#D63D3D" d="M137.507 212.078c-18.032 4.34-35.782 6.449-48.463 6.507 7.896 4.415 16.406 12.229 21.594 24.035 19.842-1.654 38.445-6.404 54.094-12.555-6.365-7.042-15.73-13.654-27.225-17.987ZM48.854 49.725l-.365 2.13v5.046c1.188-1.47 2.525-1.803 3.747-1.618.06-.297.112-.594.156-.89.215-1.344.505-2.897.817-4.543-1.787-.273-3.606-.184-4.355-.125ZM119.36 143.222h1.052c-.588-3.277 2.705-9.338 6.276-11.007l-6.345-.912-6.934 5.843 2.952 4.22 2.999 1.856Z"/><path d="M228.332 149.286c9.558-12.615 4.734-32.436-29.957-30.299 0 0-5.936-11.494-18.966-15.063-.326-7.109-4.467-12.185-8.363-15.521-3.896-3.336-6.27-8.43-8.385-10.492 0 0 3.991-7.807 3.309-17.334-.682-9.528-4.838-15.042-8.874-18.566l3.33-.29c-4.86-5.921-12.554-11.213-29.065-7.962.524-1.355 1.05-2.71 1.573-4.066-9.134 1.202-15.753 8.688-19.65 23.033-8.347-.4-26.43 6.151-35.12 15.026-4.044-3.168-13.788-5.684-21.074-3.888l6.238-31.96c-2.092-3.94-9.587-6.485-13.335-1.269L42.24 78.111a28.335 28.335 0 0 0-1.825 2.768c-3.08 5.328-2.377 10.56-.928 14.1l-1.195 7.3c-7.346-3.192-19.181-2.693-25.118 10.679-5.743 12.926 1.634 32.071 15.828 46.229l-.653 4.01c.252 2.7 5.273 5.92 8.726 2.923.327.245.661.483.995.72 0 0-12.719 6.901-19.828 16.487-7.109 9.585-5.009 25.044 13.788 27.58 18.797 2.539 37.97.617 37.97.617l13.097 80.965c4.366 26.988 13.988 10.121 37.919 11.145 23.931 1.024 80.514-8.262 102.774-47.961l-25.199-82.69s20.192-11.083 29.742-23.697Zm-33.05-22.113c.54 7.25-3.355 16.792-3.533 17.223.2-.23 3.435-3.978 4.986-7.451 0 0-1.142 13.632-14.129 24.391-12.986 10.759-29.08 7.332-33.48-3.286 0 0 9.409 7.88 21.838 1.06 0 0-13.832 1.982-19.367-5.528-5.41-7.339 2.627-15.818 14.373-18.12 10.515-2.063 13.053-7.977 13.053-7.977s-4.92 1.981-8.274 2.486c0 0 7.561-10.077 8.014-20.48 10.188 4.577 15.961 10.261 16.518 17.682ZM53.245 31.404s3.658-1.573 6.906 1.269L53.83 65.07c-.7.356-1.36.786-1.966 1.284.562.1 1.106.287 1.61.556l-.423 2.16c-.868.415-3.666 1.87-6.708 4.585l6.903-42.252Zm-8.192 50.148c1.618-2.575 3.992-5.009 6.916-6.916a23.447 23.447 0 0 1 3.384-1.857 23.834 23.834 0 0 1 8.402-2.062c2.903-.168-1.514-2.524-2.857-3.494 0 0 7.124-.861 13.832 4.393 0 0-4.03 3.465-5.567 11.16 0 0 11.355-13.357 24.028-19.79 12.674-6.434 29.028-7.762 43.593-5.257 0 0-4.822-5.239-18.365-5.15 0 0 1.81-10.017 8.207-15.397 0 0-.23 1.996.096 3.851 0 0 11.487-8.222 24.035-1.914 0 0-2.5 1.143-3.473 2.255 0 0 8.667 3.37 12.504 10.849 3.48 6.805-.483 18.04-1.239 20.035 0 0-3.524-4.757-8.868-7.39 5.714 7.332 8.564 14.751 12.949 20.443 4.386 5.691 12.058 9.46 11.383 20.406-.653 10.493-6.056 21.987-10.1 25.037-4.77.675-14.7 3.22-19.337 13.887-4.638 10.666 1.9 19.802 1.9 19.802s-12.408 4.541-28.287 9.128c-16.986-.104-34.713-2.451-39.284-2.679 6.189 3.406 17.29 6.188 21.957 7.265-4.549 1.083-9.127 2.054-13.564 2.841-4.616.223-22.432-3.428-35.478-11.464-4.43-2.73-9.067-5.833-13.516-9.425l2.55-13.043c6.966 6.753 16.101 9.602 16.101 9.602s-10.87-8.51-15.182-14.29l1.136-5.826c4.466-1.329 8.407-5.158 8.844-12.847 0 0 4.29 2.642 8.251 3.124 1.077 2.673 1.151 5.328 1.292 8.317-4.096-.015-8.452-1.01-8.718-1.068.333.297 5.816 5.045 9.171 6.173.526 3.443 1.7 7.398 4.6 12.214 7.361 12.179 22.388 16.919 35.99 13.002 0 0-23.723.214-32.094-17.268-6.648-13.907-1.714-13.41-6.492-24.495-4.097-9.521-4.141-21.52-3.459-26.202 0 0-4.118 2.708-4.53 10.73 0 0-3.49-1.634-6.196-5.802a18.39 18.39 0 0 1-2.13-4.572c-.712-2.241-1.105-4.905-.934-8.037 0 0-1.47.468-3.102 1.826-.112.096-.23.2-.342.304-1.079-3.046-.255-6.852 1.992-10.4h.001Zm2.822 29.577c.176-.902.35-1.805.527-2.708 1.857 2.352 4.363 4.57 7.717 6.011 0 0 .556 3.718 1.655 5.788 0 0-4.097-1.292-7.065-3.45-.002-.003-.885-2.553-2.837-5.64h.003Zm-5.692-12.013s.527-.935 1.188-1.56c0 0 .587 3.416 2.701 7.31l-.586 2.998a23.405 23.405 0 0 0-4.103-3.85l.8-4.898Zm-24.68 33.566c-6.397-17.525 5.936-30.299 16.263-27.515 1.332.364 2.61.903 3.8 1.603 1.077.63 2.084 1.37 3.005 2.211a19.706 19.706 0 0 1 3.792 4.645 18.833 18.833 0 0 1 2.055 4.927c1.047 4.085.52 8.334-2.263 11.621a9.944 9.944 0 0 1-3.547 2.664c-1.35.616-2.76.913-4.104 1.024-1.117.085-2.24.062-3.353-.067-1.96-.222-3.317-.682-3.317-.682.616 1.031 1.669 1.931 3.005 2.612l-2.753 16.823c-5.261-5.578-9.758-12.115-12.585-19.87l.002.004Zm18.21 25.26-1.21 6.195v.016a3.806 3.806 0 0 1-2.753-1.173l.171-1.046 1.061-6.486 3.045-18.633c1.233.26 2.496.355 3.755.283l-4.07 20.843Zm-.646 48.017c-12.496-1.61-17.134-11.256-11.257-20.963 5.877-9.706 19.263-15.241 19.263-15.241s1.106.728 2.791 1.782c-15.212 9.492-12.08 21.17-5.728 24.636-3.169-6.96-.156-16.614 12.03-20.874 2.167 1.232 4.371 2.397 6.203 3.176-4.118 11.383 13.59 10.323 37.883 5.596 24.308-4.728 53.616-15.68 53.616-15.68 9.647 8.355 28.005 5.387 39.507-6.857 17.72-19.39 10.917-36.887 10.917-36.887 10.388-1.298 31.663 2.1 26.468 16.942-5.195 14.841-43.591 38.4-93.867 51.76-50.275 13.36-85.34 14.216-97.828 12.606l.002.004Zm183.13 49.071c-2.756 6.111-21.545 22.588-35.401 29.078.297-.341 9.898-11.272 11.065-24.97 0 0-15.797 27.328-39.269 33.963-13.542 3.342-44.62 7.933-65.671-3.109-3.836-18.862-12.986-74.701-12.89-79.46 5.634.134 37.518-5.867 68.024-14.736 27.551 1.001 40.004 27.173 40.399 28.003-3.792-19.49-15.799-29.354-23.285-33.364 13.037-4.423 24.73-9.305 32.568-14.344l24.46 78.94Z"/><path d="M111.72 138.586c1.24 2.425 6.99 11.122 15.295 6.796 7.56-3.935 5.431-14.04 4.103-15.902 4.786-4.92.452-10.589.452-10.589-.49 9.277-8.013 10.887-11.398 8.845 0 0-4.615 10.278-15.093 5.225-.003 0 1.024 5.053 6.642 5.625Zm9.283-5.255s3.713.995 6.754-.98c3.471 10.398-8.35 14.22-12.171 5.396 3.43-1.618 5.418-4.416 5.418-4.416ZM115.528 123.603c2.228-.526 4.827-2.515 6.641-6.693 1.815-4.178.185-7.235-4.616-6.56-4.802.675-12.03 4.512-11.888 7.488.143 2.975 5.432 6.8 9.863 5.765Zm-6.249-6.077c1.604-.98 3.37-2.026 6.865-3.058 3.494-1.032 4.236 1.188 1.87 3.83-2.367 2.641-5.076 3.828-8.653.994-1.291-1.024-.46-1.535-.082-1.766ZM127.119 103.924c8.161 2.783 11.76 8.608 21.644 3.295 6.494-3.495 8.809-12.615.884-21.2-7.924-8.586-21.907-10.974-28.896-7.97-6.989 3.005-8.949 9.646-8.949 9.646-2.833 11.22 7.154 13.446 15.317 16.23Zm.03-23.931c8.487-.742 16.39 5.32 17.845 6.553 7.97 6.775 7.895 14.555 1.959 17.979-5.937 3.425-14.944-2.055-21.036-4.467-5.656-2.24-9.617-2.382-10.946-7.51-1.328-5.128 3.695-11.813 12.177-12.555ZM84.228 134.926c6.255.387 10.983-3.49 12.808-8.429 1.825-4.94 1.04-8.518 3.398-15.056 2.359-6.537 4.312-16.688-6.722-19.344-11.391-2.739-21.008 9.475-22.121 22.401-.987 12.49 4.598 19.932 12.637 20.428Zm-9.157-22.798c1.262-12.317 13.824-20.918 20.912-15.397 6.633 5.164 1.394 12.385 0 19.248-1.396 6.864-2.547 15.54-11.503 15.814-8.956.275-10.091-13.013-9.405-19.662l-.004-.003Z"/><path fill="#040002" d="M85.185 119.693c.294.148.599.272.913.371-1.395-2.063-1.634-4.913-.378-7.427 1.647-3.294 5.29-4.89 8.481-3.86a6.496 6.496 0 0 0-2.471-2.175c-3.384-1.684-7.59-.126-9.394 3.49-1.803 3.617-.535 7.91 2.85 9.6ZM132.239 89.847c2.804.231 5.12 1.907 6.164 4.164.076-.32.126-.645.148-.972.305-3.77-2.716-7.087-6.738-7.406-4.022-.319-7.54 2.471-7.85 6.238a6.48 6.48 0 0 0 .585 3.235c.768-3.262 4.017-5.556 7.691-5.259Z"/><path d="M28.085 221.635s-2.376 8.563-9.306 14.188c6.932 5.625 9.306 14.188 9.306 14.188s2.382-8.563 9.312-14.188c-6.93-5.625-9.312-14.188-9.312-14.188Z"/><path fill="#040002" d="M7.278 158.436S5.42 165.134 0 169.535c5.421 4.4 7.278 11.097 7.278 11.097s1.863-6.697 7.284-11.097c-5.421-4.4-7.284-11.099-7.284-11.099Z"/><path d="M7.278 158.436S5.42 165.134 0 169.535c5.421 4.4 7.278 11.097 7.278 11.097s1.863-6.697 7.284-11.097c-5.421-4.4-7.284-11.099-7.284-11.099Z"/><path fill="#040002" d="M100.568 26.168s2.197-7.894 8.593-13.082C102.768 7.898 100.571 0 100.571 0s-2.193 7.9-8.586 13.086c6.393 5.188 8.583 13.082 8.583 13.082Z"/><path d="M100.568 26.168s2.197-7.894 8.593-13.082C102.768 7.898 100.571 0 100.571 0s-2.193 7.9-8.586 13.086c6.393 5.188 8.583 13.082 8.583 13.082Z"/><path fill="#040002" d="M192.15 79.57s1.99-7.15 7.776-11.846c-5.786-4.696-7.775-11.845-7.775-11.845s-1.982 7.149-7.768 11.845c5.786 4.697 7.768 11.845 7.768 11.845Z"/><path d="M192.15 79.57s1.99-7.15 7.776-11.846c-5.786-4.696-7.775-11.845-7.775-11.845s-1.982 7.149-7.768 11.845c5.786 4.697 7.768 11.845 7.768 11.845Z"/><path fill="#040002" d="M250.511 134.502s-1.4 5.05-5.486 8.364c4.085 3.316 5.486 8.364 5.486 8.364s1.403-5.05 5.489-8.364c-4.086-3.316-5.489-8.364-5.489-8.364Z"/><path d="M250.511 134.502s-1.4 5.05-5.486 8.364c4.085 3.316 5.486 8.364 5.486 8.364s1.403-5.05 5.489-8.364c-4.086-3.316-5.489-8.364-5.489-8.364ZM236.681 160.975s-2.19 7.898-8.582 13.086c6.392 5.188 8.582 13.087 8.582 13.087s2.196-7.899 8.59-13.087c-6.394-5.188-8.59-13.086-8.59-13.086ZM77.877 42.388s1.863-6.44 7.284-10.672c-5.42-4.233-7.284-10.672-7.284-10.672s-1.857 6.44-7.278 10.672c5.42 4.232 7.278 10.672 7.278 10.672Z"/></svg>