<svg xmlns="http://www.w3.org/2000/svg" width="3787" height="1000" fill="none" viewBox="0 0 3787 1000">
  <path fill="#855DCD" d="M257.778 155.556h484.444v688.889h-71.111V528.889h-.698C662.554 441.677 589.258 373.333 500 373.333c-89.259 0-162.555 68.344-170.414 155.556h-.697v315.556h-71.111V155.556Z"/>
  <path fill="#855DCD" d="m128.889 253.333 28.889 97.778h24.444v395.556c-12.273 0-22.222 9.949-22.222 22.222v26.667h-4.445c-12.273 0-22.222 9.949-22.222 22.222v26.667h248.889v-26.667c0-12.273-9.949-22.222-22.222-22.222h-4.445v-26.667c0-12.273-9.949-22.222-22.222-22.222h-26.667V253.333H128.889ZM675.555 746.667c-12.273 0-22.222 9.949-22.222 22.222v26.667h-4.444c-12.273 0-22.223 9.949-22.223 22.222v26.667h248.889v-26.667c0-12.273-9.949-22.222-22.222-22.222h-4.444v-26.667c0-12.273-9.95-22.222-22.223-22.222V351.111h24.445L880 253.333H702.222v493.334h-26.667ZM3366.62 707.49V396.581h71.05v51.818h3.24c5.66-17.947 15.38-31.779 29.14-41.495 13.9-9.85 29.76-14.776 47.57-14.776 4.05 0 8.57.203 13.56.607 5.13.27 9.38.743 12.75 1.417v67.404c-3.1-1.079-8.02-2.024-14.77-2.833-6.61-.945-13.02-1.417-19.23-1.417-13.36 0-25.37 2.901-36.03 8.704-10.53 5.667-18.83 13.561-24.9 23.682-6.07 10.121-9.11 21.793-9.11 35.018v182.78h-73.27ZM3166.38 713.563c-31.17 0-58.09-6.477-80.76-19.432-22.54-13.089-39.88-31.576-52.02-55.461-12.15-24.02-18.22-52.291-18.22-84.812 0-31.982 6.07-60.05 18.22-84.205 12.28-24.29 29.41-43.182 51.41-56.676 22-13.629 47.84-20.444 77.52-20.444 19.17 0 37.25 3.104 54.25 9.311 17.14 6.073 32.25 15.519 45.34 28.338 13.23 12.82 23.62 29.148 31.17 48.985 7.56 19.701 11.34 43.182 11.34 70.44v22.468h-254.84v-49.389h184.6c-.13-14.034-3.17-26.516-9.11-37.447-5.93-11.065-14.23-19.769-24.89-26.111-10.53-6.343-22.81-9.514-36.84-9.514-14.98 0-28.14 3.644-39.47 10.931-11.34 7.152-20.18 16.598-26.52 28.338-6.21 11.605-9.38 24.357-9.51 38.256v43.114c0 18.083 3.3 33.601 9.91 46.556 6.62 12.819 15.86 22.67 27.73 29.552 11.88 6.747 25.78 10.121 41.7 10.121 10.66 0 20.31-1.484 28.95-4.453 8.63-3.104 16.12-7.624 22.47-13.562 6.34-5.937 11.13-13.292 14.37-22.063l68.41 7.692c-4.31 18.082-12.55 33.87-24.69 47.365-12.01 13.359-27.39 23.75-46.15 31.172-18.76 7.287-40.21 10.93-64.37 10.93ZM2970.8 396.581v56.677h-178.73v-56.677h178.73Zm-134.61-74.488h73.28v291.882c0 9.851 1.48 17.408 4.45 22.67 3.1 5.128 7.15 8.637 12.14 10.526 5 1.889 10.53 2.834 16.6 2.834 4.59 0 8.77-.338 12.55-1.012 3.92-.675 6.88-1.282 8.91-1.822l12.35 57.283c-3.92 1.35-9.52 2.834-16.81 4.453-7.15 1.62-15.92 2.564-26.31 2.834-18.35.54-34.88-2.226-49.59-8.299-14.71-6.207-26.38-15.788-35.02-28.743-8.5-12.954-12.68-29.147-12.55-48.579V322.093ZM2748.45 478.762l-66.8 7.287c-1.89-6.747-5.2-13.09-9.92-19.027-4.59-5.938-10.8-10.728-18.62-14.372-7.83-3.643-17.41-5.465-28.75-5.465-15.24 0-28.06 3.306-38.45 9.919-10.26 6.612-15.32 15.181-15.19 25.706-.13 9.041 3.18 16.396 9.92 22.063 6.89 5.668 18.22 10.324 34.01 13.967l53.03 11.335c29.42 6.343 51.28 16.396 65.58 30.16 14.44 13.764 21.73 31.779 21.86 54.045-.13 19.567-5.87 36.839-17.2 51.818-11.2 14.844-26.79 26.449-46.76 34.815-19.97 8.367-42.91 12.55-68.82 12.55-38.05 0-68.69-7.962-91.9-23.885-23.21-16.058-37.04-38.391-41.49-66.999l71.45-6.882c3.24 14.034 10.12 24.627 20.65 31.779 10.52 7.152 24.22 10.728 41.09 10.728 17.41 0 31.37-3.576 41.9-10.728 10.66-7.152 15.99-15.991 15.99-26.517 0-8.906-3.44-16.26-10.32-22.063-6.75-5.802-17.28-10.255-31.58-13.359l-53.03-11.133c-29.83-6.207-51.89-16.665-66.19-31.374-14.31-14.844-21.39-33.601-21.26-56.272-.13-19.161 5.06-35.759 15.59-49.794 10.66-14.169 25.44-25.099 44.33-32.791 19.02-7.826 40.95-11.74 65.78-11.74 36.44 0 65.11 7.759 86.03 23.278 21.05 15.518 34.07 36.502 39.07 62.951ZM2264.88 713.765c-19.71 0-37.45-3.508-53.24-10.525-15.65-7.152-28.07-17.678-37.24-31.577-9.04-13.899-13.57-31.037-13.57-51.413 0-17.543 3.24-32.049 9.72-43.519 6.48-11.471 15.32-20.647 26.52-27.529 11.2-6.882 23.81-12.077 37.85-15.586 14.17-3.643 28.81-6.275 43.92-7.894 18.22-1.889 33-3.576 44.33-5.06 11.34-1.62 19.57-4.049 24.7-7.287 5.26-3.374 7.89-8.569 7.89-15.586v-1.215c0-15.248-4.52-27.056-13.56-35.422-9.04-8.367-22.06-12.55-39.07-12.55-17.94 0-32.18 3.913-42.71 11.74-10.39 7.827-17.4 17.07-21.05 27.731l-68.41-9.716c5.39-18.892 14.3-34.68 26.71-47.365 12.42-12.82 27.6-22.401 45.55-28.743 17.95-6.477 37.78-9.716 59.51-9.716 14.98 0 29.89 1.754 44.73 5.263 14.85 3.508 28.41 9.311 40.69 17.408 12.28 7.961 22.13 18.824 29.55 32.588 7.56 13.765 11.33 30.97 11.33 51.616v208.083h-70.44v-42.71h-2.42c-4.46 8.636-10.73 16.733-18.83 24.29-7.96 7.422-18.01 13.427-30.16 18.015-12.01 4.453-26.11 6.679-42.3 6.679Zm19.02-53.842c14.71 0 27.46-2.901 38.26-8.704 10.8-5.937 19.09-13.764 24.9-23.48 5.93-9.716 8.9-20.309 8.9-31.779v-36.637c-2.29 1.889-6.2 3.643-11.74 5.263-5.4 1.619-11.47 3.036-18.21 4.25a562.52 562.52 0 0 1-20.04 3.239c-6.62.945-12.35 1.754-17.21 2.429-10.93 1.484-20.71 3.913-29.35 7.287s-15.45 8.097-20.44 14.169c-5 5.938-7.49 13.629-7.49 23.075 0 13.495 4.92 23.683 14.77 30.565 9.85 6.882 22.4 10.323 37.65 10.323ZM1982.05 713.563c-31.03 0-57.69-6.815-79.95-20.444-22.13-13.629-39.2-32.454-51.21-56.474-11.88-24.154-17.82-51.953-17.82-83.394 0-31.577 6.08-59.443 18.22-83.598 12.15-24.29 29.28-43.182 51.42-56.676 22.26-13.629 48.57-20.444 78.94-20.444 25.23 0 47.56 4.656 67 13.967 19.56 9.176 35.15 22.198 46.75 39.066 11.61 16.733 18.22 36.3 19.84 58.7h-70.03c-2.84-14.979-9.59-27.461-20.25-37.447-10.52-10.12-24.62-15.181-42.3-15.181-14.98 0-28.14 4.049-39.47 12.145-11.34 7.962-20.18 19.432-26.52 34.411-6.21 14.978-9.31 32.926-9.31 53.842 0 21.186 3.1 39.403 9.31 54.652 6.21 15.114 14.91 26.786 26.11 35.018 11.34 8.096 24.63 12.145 39.88 12.145 10.79 0 20.44-2.024 28.94-6.073 8.64-4.183 15.86-10.188 21.66-18.015 5.81-7.826 9.79-17.34 11.95-28.54h70.03c-1.75 21.996-8.23 41.495-19.43 58.498-11.2 16.868-26.45 30.092-45.75 39.673-19.29 9.446-41.96 14.169-68.01 14.169ZM1633.24 707.49V396.581h71.05v51.818h3.24c5.66-17.947 15.38-31.779 29.14-41.495 13.9-9.85 29.76-14.776 47.57-14.776 4.05 0 8.57.203 13.56.607 5.13.27 9.38.743 12.76 1.417v67.404c-3.11-1.079-8.03-2.024-14.78-2.833-6.61-.945-13.02-1.417-19.23-1.417-13.36 0-25.37 2.901-36.03 8.704-10.53 5.667-18.82 13.561-24.9 23.682-6.07 10.121-9.11 21.793-9.11 35.018v182.78h-73.27ZM1395.4 713.765c-19.7 0-37.44-3.508-53.23-10.525-15.65-7.152-28.07-17.678-37.25-31.577-9.04-13.899-13.56-31.037-13.56-51.413 0-17.543 3.24-32.049 9.72-43.519 6.48-11.471 15.31-20.647 26.51-27.529 11.2-6.882 23.82-12.077 37.86-15.586 14.17-3.643 28.81-6.275 43.92-7.894 18.22-1.889 32.99-3.576 44.33-5.06 11.33-1.62 19.57-4.049 24.69-7.287 5.27-3.374 7.9-8.569 7.9-15.586v-1.215c0-15.248-4.52-27.056-13.56-35.422-9.05-8.367-22.07-12.55-39.07-12.55-17.95 0-32.18 3.913-42.71 11.74-10.39 7.827-17.41 17.07-21.05 27.731l-68.42-9.716c5.4-18.892 14.31-34.68 26.72-47.365 12.42-12.82 27.6-22.401 45.55-28.743 17.94-6.477 37.78-9.716 59.51-9.716 14.97 0 29.88 1.754 44.73 5.263 14.84 3.508 28.4 9.311 40.68 17.408 12.28 7.961 22.13 18.824 29.56 32.588 7.55 13.765 11.33 30.97 11.33 51.616v208.083h-70.44v-42.71h-2.43c-4.45 8.636-10.73 16.733-18.82 24.29-7.96 7.422-18.02 13.427-30.16 18.015-12.01 4.453-26.11 6.679-42.31 6.679Zm19.03-53.842c14.71 0 27.46-2.901 38.26-8.704 10.79-5.937 19.09-13.764 24.89-23.48 5.94-9.716 8.91-20.309 8.91-31.779v-36.637c-2.29 1.889-6.21 3.643-11.74 5.263-5.4 1.619-11.47 3.036-18.22 4.25a555.27 555.27 0 0 1-20.04 3.239c-6.61.945-12.34 1.754-17.2 2.429-10.93 1.484-20.72 3.913-29.35 7.287-8.64 3.374-15.45 8.097-20.45 14.169-4.99 5.938-7.48 13.629-7.48 23.075 0 13.495 4.92 23.683 14.77 30.565 9.85 6.882 22.4 10.323 37.65 10.323ZM1259.13 396.581v56.677h-183.8v-56.677h183.8ZM1121.28 707.49V367.231c0-20.916 4.32-38.324 12.96-52.223 8.77-13.899 20.51-24.29 35.22-31.172 14.71-6.882 31.03-10.323 48.98-10.323 12.69 0 23.95 1.012 33.81 3.036 9.85 2.025 17.13 3.846 21.86 5.466l-14.58 56.676c-3.1-.945-7.01-1.889-11.74-2.834-4.72-1.08-9.98-1.619-15.79-1.619-13.63 0-23.27 3.306-28.94 9.918-5.53 6.477-8.3 15.788-8.3 27.933V707.49h-73.48Z"/>
</svg>
