<svg width="322" height="196" viewBox="0 0 322 196" fill="none" xmlns="http://www.w3.org/2000/svg">
<path d="M89.1 76H61.1C56.6817 76 53.1 79.5817 53.1 84V112C53.1 116.418 56.6817 120 61.1 120H89.1C93.5183 120 97.1 116.418 97.1 112V84C97.1 79.5817 93.5183 76 89.1 76Z" fill="#5791F5"/>
<path d="M75.0999 112.314C73.0906 112.314 71.3707 111.917 69.9401 111.121C68.5094 110.317 67.4124 109.2 66.6488 107.769C65.8853 106.331 65.5035 104.663 65.5035 102.766C65.5035 100.869 65.8853 99.2057 66.6488 97.7751C67.4124 96.3364 68.5094 95.2193 69.9401 94.4236C71.3707 93.6199 73.0906 93.218 75.0999 93.218C77.1092 93.218 78.8292 93.6199 80.2598 94.4236C81.6904 95.2193 82.7875 96.3364 83.551 97.7751C84.3146 99.2057 84.6963 100.869 84.6963 102.766C84.6963 104.663 84.3146 106.331 83.551 107.769C82.7875 109.2 81.6904 110.317 80.2598 111.121C78.8292 111.917 77.1092 112.314 75.0999 112.314ZM75.1482 107.396C75.7108 107.396 76.197 107.207 76.6069 106.829C77.0168 106.451 77.3343 105.913 77.5593 105.214C77.7844 104.514 77.8969 103.682 77.8969 102.718C77.8969 101.745 77.7844 100.914 77.5593 100.222C77.3343 99.5232 77.0168 98.9847 76.6069 98.607C76.197 98.2292 75.7108 98.0403 75.1482 98.0403C74.5534 98.0403 74.0431 98.2292 73.6171 98.607C73.1911 98.9847 72.8656 99.5232 72.6406 100.222C72.4155 100.914 72.303 101.745 72.303 102.718C72.303 103.682 72.4155 104.514 72.6406 105.214C72.8656 105.913 73.1911 106.451 73.6171 106.829C74.0431 107.207 74.5534 107.396 75.1482 107.396Z" fill="white"/>
<path d="M65.9709 90.565C68.887 88.0553 76.6352 84.5165 84.2288 90.507L81.6014 93.8389C76.2061 89.5824 70.7845 92.0208 68.7393 93.7809L65.9709 90.565Z" fill="white"/>
<path d="M65.9709 90.565C68.887 88.0553 76.6352 84.5165 84.2288 90.507L81.6014 93.8389C76.2061 89.5824 70.7845 92.0208 68.7393 93.7809L65.9709 90.565Z" fill="white"/>
<path d="M79.3787 84.5876C79.9446 84.5876 80.5575 86.4736 80.7933 87.4166L81.5005 89.5386H70.1842C70.1842 88.8314 71.5987 84.5876 72.306 83.8803C72.8718 83.3145 75.8424 84.116 77.2569 84.5876H79.3787Z" fill="white"/>
<path d="M79.3787 84.5876C79.9446 84.5876 80.5575 86.4736 80.7933 87.4166L81.5005 89.5386H70.1842C70.1842 88.8314 71.5987 84.5876 72.306 83.8803C72.8718 83.3145 75.8424 84.116 77.2569 84.5876H79.3787Z" fill="white"/>
<path d="M106.949 112.2V87.7637H123.63V92.5603H112.856V97.5717H122.568V102.38H112.856V112.2H106.949ZM133.826 112.546C131.909 112.546 130.254 112.168 128.862 111.413C127.478 110.649 126.412 109.563 125.664 108.155C124.925 106.739 124.555 105.057 124.555 103.108C124.555 101.215 124.929 99.5603 125.676 98.1444C126.424 96.7205 127.478 95.6148 128.838 94.8273C130.199 94.0319 131.801 93.6342 133.647 93.6342C134.951 93.6342 136.145 93.837 137.226 94.2427C138.308 94.6484 139.243 95.2489 140.03 96.0444C140.818 96.8398 141.43 97.8222 141.868 98.9916C142.305 100.153 142.524 101.485 142.524 102.989V104.444H126.595V101.056H137.095C137.087 100.435 136.94 99.8825 136.654 99.3972C136.367 98.912 135.974 98.5342 135.472 98.2637C134.979 97.9853 134.41 97.8461 133.766 97.8461C133.114 97.8461 132.529 97.9933 132.012 98.2876C131.495 98.5739 131.085 98.9677 130.783 99.4688C130.481 99.962 130.322 100.523 130.306 101.151V104.6C130.306 105.347 130.453 106.003 130.747 106.568C131.042 107.125 131.459 107.559 132 107.869C132.541 108.179 133.185 108.334 133.933 108.334C134.45 108.334 134.92 108.263 135.341 108.119C135.763 107.976 136.125 107.765 136.427 107.487C136.729 107.209 136.956 106.867 137.107 106.461L142.464 106.616C142.242 107.817 141.753 108.863 140.997 109.754C140.249 110.637 139.267 111.325 138.05 111.818C136.833 112.303 135.425 112.546 133.826 112.546ZM154.071 112.546C152.154 112.546 150.5 112.168 149.108 111.413C147.723 110.649 146.658 109.563 145.91 108.155C145.17 106.739 144.8 105.057 144.8 103.108C144.8 101.215 145.174 99.5603 145.922 98.1444C146.669 96.7205 147.723 95.6148 149.084 94.8273C150.444 94.0319 152.047 93.6342 153.892 93.6342C155.197 93.6342 156.39 93.837 157.472 94.2427C158.554 94.6484 159.488 95.2489 160.276 96.0444C161.063 96.8398 161.676 97.8222 162.113 98.9916C162.551 100.153 162.769 101.485 162.769 102.989V104.444H146.84V101.056H157.34C157.333 100.435 157.185 99.8825 156.899 99.3972C156.613 98.912 156.219 98.5342 155.718 98.2637C155.225 97.9853 154.656 97.8461 154.011 97.8461C153.359 97.8461 152.775 97.9933 152.258 98.2876C151.74 98.5739 151.331 98.9677 151.029 99.4688C150.726 99.962 150.567 100.523 150.551 101.151V104.6C150.551 105.347 150.698 106.003 150.993 106.568C151.287 107.125 151.705 107.559 152.246 107.869C152.786 108.179 153.431 108.334 154.179 108.334C154.696 108.334 155.165 108.263 155.586 108.119C156.008 107.976 156.37 107.765 156.672 107.487C156.975 107.209 157.201 106.867 157.352 106.461L162.71 106.616C162.487 107.817 161.998 108.863 161.242 109.754C160.494 110.637 159.512 111.325 158.295 111.818C157.078 112.303 155.67 112.546 154.071 112.546ZM172.443 112.463C171.091 112.463 169.862 112.113 168.756 111.413C167.651 110.713 166.768 109.663 166.107 108.263C165.447 106.863 165.117 105.125 165.117 103.048C165.117 100.893 165.459 99.1188 166.143 97.7268C166.827 96.3347 167.722 95.3046 168.828 94.6364C169.941 93.9683 171.139 93.6342 172.419 93.6342C173.382 93.6342 174.205 93.8012 174.889 94.1353C175.573 94.4614 176.138 94.883 176.583 95.4001C177.029 95.9171 177.367 96.4541 177.598 97.0109H177.717V87.7637H183.552V112.2H177.777V109.229H177.598C177.351 109.794 177.001 110.323 176.548 110.816C176.094 111.309 175.526 111.707 174.841 112.009C174.165 112.311 173.366 112.463 172.443 112.463ZM174.472 107.917C175.18 107.917 175.784 107.718 176.285 107.32C176.786 106.914 177.172 106.346 177.443 105.614C177.713 104.882 177.848 104.023 177.848 103.036C177.848 102.034 177.713 101.171 177.443 100.447C177.18 99.7234 176.794 99.1666 176.285 98.7768C175.784 98.387 175.18 98.1921 174.472 98.1921C173.748 98.1921 173.135 98.391 172.634 98.7887C172.133 99.1864 171.751 99.7472 171.489 100.471C171.234 101.195 171.107 102.05 171.107 103.036C171.107 104.023 171.238 104.882 171.501 105.614C171.763 106.346 172.141 106.914 172.634 107.32C173.135 107.718 173.748 107.917 174.472 107.917ZM187.242 112.2V87.7637H197.431C199.261 87.7637 200.792 88.0222 202.025 88.5393C203.266 89.0563 204.197 89.7802 204.817 90.7109C205.446 91.6416 205.76 92.7194 205.76 93.9444C205.76 94.8751 205.565 95.7063 205.175 96.4381C204.785 97.162 204.248 97.7626 203.564 98.2398C202.88 98.7171 202.089 99.0512 201.19 99.2421V99.4808C202.176 99.5285 203.087 99.795 203.922 100.28C204.765 100.765 205.442 101.442 205.951 102.309C206.46 103.168 206.714 104.186 206.714 105.363C206.714 106.676 206.38 107.849 205.712 108.883C205.044 109.909 204.077 110.721 202.813 111.317C201.548 111.906 200.013 112.2 198.207 112.2H187.242ZM193.148 107.439H196.799C198.08 107.439 199.022 107.197 199.627 106.711C200.239 106.226 200.546 105.55 200.546 104.683C200.546 104.055 200.398 103.514 200.104 103.06C199.81 102.599 199.392 102.245 198.851 101.998C198.31 101.744 197.662 101.617 196.906 101.617H193.148V107.439ZM193.148 97.8103H196.417C197.061 97.8103 197.634 97.7029 198.135 97.4881C198.636 97.2734 199.026 96.9631 199.305 96.5575C199.591 96.1518 199.734 95.6626 199.734 95.0898C199.734 94.2705 199.444 93.6262 198.863 93.1569C198.282 92.6876 197.499 92.4529 196.513 92.4529H193.148V97.8103ZM218.109 112.546C216.184 112.546 214.53 112.152 213.146 111.365C211.769 110.569 210.707 109.464 209.96 108.048C209.22 106.624 208.85 104.973 208.85 103.096C208.85 101.211 209.22 99.5603 209.96 98.1444C210.707 96.7205 211.769 95.6148 213.146 94.8273C214.53 94.0319 216.184 93.6342 218.109 93.6342C220.034 93.6342 221.685 94.0319 223.061 94.8273C224.445 95.6148 225.507 96.7205 226.247 98.1444C226.994 99.5603 227.368 101.211 227.368 103.096C227.368 104.973 226.994 106.624 226.247 108.048C225.507 109.464 224.445 110.569 223.061 111.365C221.685 112.152 220.034 112.546 218.109 112.546ZM218.145 108.143C218.845 108.143 219.438 107.928 219.923 107.499C220.408 107.069 220.778 106.473 221.032 105.709C221.295 104.946 221.426 104.063 221.426 103.06C221.426 102.042 221.295 101.151 221.032 100.388C220.778 99.6239 220.408 99.0273 219.923 98.5978C219.438 98.1683 218.845 97.9535 218.145 97.9535C217.421 97.9535 216.809 98.1683 216.307 98.5978C215.814 99.0273 215.436 99.6239 215.174 100.388C214.919 101.151 214.792 102.042 214.792 103.06C214.792 104.063 214.919 104.946 215.174 105.709C215.436 106.473 215.814 107.069 216.307 107.499C216.809 107.928 217.421 108.143 218.145 108.143ZM246.358 99.4688L241 99.612C240.945 99.2302 240.794 98.8921 240.547 98.5978C240.3 98.2955 239.978 98.0609 239.581 97.8938C239.191 97.7188 238.737 97.6313 238.22 97.6313C237.544 97.6313 236.967 97.7666 236.49 98.037C236.021 98.3075 235.79 98.6734 235.798 99.1347C235.79 99.4927 235.933 99.8029 236.228 100.065C236.53 100.328 237.067 100.539 237.838 100.698L241.37 101.366C243.2 101.716 244.56 102.297 245.451 103.108C246.35 103.919 246.803 104.993 246.811 106.33C246.803 107.586 246.429 108.68 245.69 109.611C244.958 110.542 243.956 111.265 242.683 111.782C241.41 112.292 239.954 112.546 238.316 112.546C235.699 112.546 233.634 112.009 232.123 110.935C230.62 109.853 229.761 108.406 229.546 106.592L235.309 106.449C235.436 107.117 235.766 107.626 236.299 107.976C236.832 108.326 237.512 108.501 238.34 108.501C239.087 108.501 239.696 108.362 240.165 108.084C240.634 107.805 240.873 107.435 240.881 106.974C240.873 106.56 240.69 106.23 240.332 105.984C239.974 105.729 239.413 105.53 238.65 105.387L235.452 104.778C233.615 104.444 232.246 103.828 231.348 102.929C230.449 102.022 230.003 100.869 230.011 99.4688C230.003 98.2438 230.329 97.1978 230.99 96.3308C231.65 95.4558 232.588 94.7876 233.806 94.3262C235.023 93.8648 236.458 93.6342 238.113 93.6342C240.595 93.6342 242.552 94.1552 243.983 95.1972C245.415 96.2313 246.207 97.6552 246.358 99.4688ZM265.684 99.4688L260.327 99.612C260.271 99.2302 260.12 98.8921 259.874 98.5978C259.627 98.2955 259.305 98.0609 258.907 97.8938C258.517 97.7188 258.064 97.6313 257.547 97.6313C256.871 97.6313 256.294 97.7666 255.817 98.037C255.347 98.3075 255.117 98.6734 255.125 99.1347C255.117 99.4927 255.26 99.8029 255.554 100.065C255.856 100.328 256.393 100.539 257.165 100.698L260.697 101.366C262.526 101.716 263.887 102.297 264.778 103.108C265.676 103.919 266.13 104.993 266.138 106.33C266.13 107.586 265.756 108.68 265.016 109.611C264.284 110.542 263.282 111.265 262.009 111.782C260.737 112.292 259.281 112.546 257.642 112.546C255.025 112.546 252.961 112.009 251.45 110.935C249.946 109.853 249.087 108.406 248.872 106.592L254.635 106.449C254.763 107.117 255.093 107.626 255.626 107.976C256.159 108.326 256.839 108.501 257.666 108.501C258.414 108.501 259.022 108.362 259.492 108.084C259.961 107.805 260.2 107.435 260.208 106.974C260.2 106.56 260.017 106.23 259.659 105.984C259.301 105.729 258.74 105.53 257.976 105.387L254.779 104.778C252.941 104.444 251.573 103.828 250.674 102.929C249.775 102.022 249.33 100.869 249.338 99.4688C249.33 98.2438 249.656 97.1978 250.316 96.3308C250.976 95.4558 251.915 94.7876 253.132 94.3262C254.349 93.8648 255.785 93.6342 257.439 93.6342C259.921 93.6342 261.878 94.1552 263.31 95.1972C264.742 96.2313 265.533 97.6552 265.684 99.4688Z" fill="white"/>
</svg>
