<svg width="148" height="148" viewBox="0 0 148 148" fill="none" xmlns="http://www.w3.org/2000/svg">
<path d="M121.091 0H26.9091C12.0476 0 0 12.0476 0 26.9091V121.091C0 135.952 12.0476 148 26.9091 148H121.091C135.952 148 148 135.952 148 121.091V26.9091C148 12.0476 135.952 0 121.091 0Z" fill="#5791F5"/>
<path d="M74.0003 122.147C67.2417 122.147 61.4563 120.812 56.6442 118.134C51.8322 115.43 48.142 111.673 45.5738 106.859C43.0057 102.022 41.7215 96.4119 41.7215 90.0311C41.7215 83.6503 43.0057 78.0556 45.5738 73.2436C48.142 68.4043 51.8322 64.6468 56.6442 61.9703C61.4563 59.267 67.2417 57.9151 74.0003 57.9151C80.7575 57.9151 86.5429 59.267 91.3563 61.9703C96.1697 64.6468 99.8596 68.4043 102.426 73.2436C104.996 78.0556 106.277 83.6503 106.277 90.0311C106.277 96.4119 104.996 102.022 102.426 106.859C99.8596 111.673 96.1697 115.43 91.3563 118.134C86.5429 120.812 80.7575 122.147 74.0003 122.147ZM74.1624 105.605C76.0548 105.605 77.6905 104.969 79.0689 103.698C80.448 102.426 81.5143 100.616 82.2711 98.2653C83.0313 95.9108 83.408 93.1122 83.408 89.8697C83.408 86.5969 83.0313 83.8017 82.2711 81.474C81.5143 79.1235 80.448 77.3122 79.0689 76.0418C77.6905 74.771 76.0548 74.1356 74.1624 74.1356C72.162 74.1356 70.4452 74.771 69.0123 76.0418C67.5797 77.3122 66.4849 79.1235 65.7277 81.474C64.9709 83.8017 64.5922 86.5969 64.5922 89.8697C64.5922 93.1122 64.9709 95.9108 65.7277 98.2653C66.4849 100.616 67.5797 102.426 69.0123 103.698C70.4452 104.969 72.162 105.605 74.1624 105.605Z" fill="white"/>
<path d="M43.2937 48.9914C53.102 40.5497 79.1631 28.6464 104.707 48.7963L95.8703 60.0036C77.7208 45.6863 59.4845 53.8882 52.6052 59.8085L43.2937 48.9914Z" fill="white"/>
<path d="M43.2937 48.9914C53.102 40.5497 79.1631 28.6464 104.707 48.7963L95.8703 60.0036C77.7208 45.6863 59.4845 53.8882 52.6052 59.8085L43.2937 48.9914Z" fill="white"/>
<path d="M88.393 28.8856C90.2968 28.8856 92.3587 35.2294 93.1492 38.4013L95.5306 45.5389H57.4654C57.4654 43.1602 62.2236 28.8856 64.6027 26.5065C66.5058 24.6034 76.4975 27.2993 81.2553 28.8856H88.393Z" fill="white"/>
<path d="M88.393 28.8856C90.2968 28.8856 92.3587 35.2294 93.1492 38.4013L95.5306 45.5389H57.4654C57.4654 43.1602 62.2236 28.8856 64.6027 26.5065C66.5058 24.6034 76.4975 27.2993 81.2553 28.8856H88.393Z" fill="white"/>
</svg>
