<svg xmlns="http://www.w3.org/2000/svg" width="224.44" height="60.19" viewBox="0 0 224.443 60.187"><radialGradient id="a" cx="-122.39" cy="442.72" r="29.58" gradientTransform="matrix(1 0 0 -1 134.45 453.73)" gradientUnits="userSpaceOnUse"><stop offset="0" stop-color="#fff"/><stop offset="1" stop-color="#007808"/></radialGradient><path fill="#0b4819" d="M.511 12.364V5.078l4.891 1.685v6.778zM4.455 42.317V15.226l4.675.989v25.178z"/><path fill="#105c80" d="m27.321 5.066-12.015 13.78v5.864l17.82-20.093 28.225-2.185-41.517 43.274 5.527.291 30.155-30.843v29.151l-3.35 3.149 8.496.459v8.068l-26.65-2.064 13.585-13.179v-6.495L28.175 53.465 4.919 51.667 42.222 11.55l-6.139.332L9.13 41.393V16.215l2.553-3.014-6.281.34V6.763z"/><path fill="#0b4819" d="m4.455 15.226 2.704-3.255 4.524 1.23-2.553 3.014z"/><path fill="#084010" d="m11.004 18.039 4.302.807v5.864l-4.302-.352z"/><path fill="#0c541e" d="m15.82 47.006 4.014-1.3 5.527.291-3.647 1.349z"/><path fill="#1a5c34" d="m23.808 3.106 3.513 1.96-12.015 13.78-4.302-.807z"/><path fill="#0b4819" d="M11.004 24.358 30.022 2.58l3.104 2.037-17.82 20.093z"/><path fill="#1a5c34" d="m33.195 10.432 2.888 1.45L9.13 41.393l-4.675.924z"/><path fill="#0b4819" d="m0 53.344 39.798-43.302 2.424 1.508L4.919 51.667z"/><path fill="#1a5c34" d="m45.597 34.677 2-.434-19.422 19.222-3.454 1.972z"/><path fill="#0b4819" d="M45.597 41.737v-7.06l2-.434v6.495z"/><path fill="#0b4819" d="m30.973 55.965 14.624-14.228 2-.999-13.585 13.179z"/><path fill="#13802d" d="m54.168 45.648-3.63 3.411 1.628-1.605 3.35-3.149z"/><path fill="#0b4819" d="M21.714 47.346 54.168 13.9l1.348 1.254-30.155 30.843z"/><path fill="#084010" d="m54.168 13.9 1.348 1.254v29.151l-1.348 1.343zM59.759 49.604l.903-1.691v8.068l-.903 2.422z"/><path fill="#1a5c34" d="m60.507 0 .844 2.432-41.517 43.274-4.014 1.3z"/><path fill="url(#a)" d="M23.808 3.106 11.004 18.039v6.319L30.022 2.58 60.507 0 15.82 47.006l5.894.34L54.168 13.9v31.748l-3.63 3.411 9.221.545v8.799l-28.786-2.438 14.624-14.228v-7.06l-20.876 20.76L0 53.344l39.798-43.302-6.603.39-28.74 31.885V15.226l2.704-3.255-6.648.393V5.078z"/><path d="M77.605 29.691h10.25v6.415h-10.25v14.278h-5.52v.003-34.49h19.414v6.438H77.605zM99.117 29.691h10.252v6.415H99.117v14.278h-5.518v.003-34.49h19.414v6.438H99.117zM121.51 35.672v14.715h-6.438V28.062l6.438-.691v2.046c1.441-1.353 3.28-2.023 5.517-2.023 2.912 0 5.135.882 6.668 2.645 1.688-1.763 4.215-2.645 7.587-2.645 2.912 0 5.135.882 6.668 2.645 1.533 1.766 2.3 3.793 2.3 6.093v14.255h-6.438V37.74c0-1.533-.346-2.72-1.036-3.563-.691-.84-1.808-1.285-3.357-1.334-1.271.091-2.375.934-3.312 2.53a9.213 9.213 0 0 0-.115 1.451v13.567h-6.438V37.746c0-1.533-.345-2.72-1.036-3.563-.69-.84-1.802-1.287-3.35-1.337-1.411.09-2.63 1.031-3.658 2.826zM153.486 60.043V28.062l6.438-.691v1.839c1.716-1.23 3.403-1.84 5.06-1.84 3.526 0 6.322 1.147 8.391 3.446 2.07 2.302 3.106 4.981 3.106 8.047s-1.036 5.748-3.106 8.047-4.865 3.448-8.392 3.448c-2.3-.157-3.984-.774-5.06-1.863v11.566zm6.438-23.244v3.728c.306 2.572 1.915 4.086 4.829 4.526 3.678-.29 5.747-2.2 6.208-5.724-.155-4.296-2.224-6.514-6.208-6.671-2.914.46-4.523 1.842-4.83 4.141zM177.504 38.89c0-3.373 1.072-6.135 3.217-8.278 2.145-2.145 4.905-3.218 8.277-3.218s6.054 1.073 8.047 3.218c1.994 2.143 2.99 4.905 2.99 8.277v2.3h-15.863c.154 1.227.69 2.184 1.609 2.875s1.993 1.036 3.217 1.036c2.146 0 4.063-.61 5.748-1.837l3.678 3.676c-1.687 2.3-4.83 3.448-9.428 3.448-3.372 0-6.132-1.073-8.277-3.218s-3.215-4.905-3.215-8.28zm14.715-5.173c-.921-.69-1.994-1.036-3.218-1.036s-2.3.346-3.218 1.036-1.378 1.648-1.378 2.875h9.198c-.006-1.227-.466-2.184-1.384-2.875zM224.443 28.085v20.463c0 3.217-.957 5.91-2.875 8.07s-4.33 3.304-7.244 3.43l-1.378.138c-4.445-.091-7.896-1.362-10.347-3.816l2.99-3.448c1.688 1.23 3.733 1.915 6.14 2.069 2.454 0 4.113-.576 4.976-1.724.868-1.146 1.3-2.415 1.3-3.79v-1.149c-1.716 1.379-3.71 2.07-5.978 2.07-3.526 0-6.168-1.037-7.931-3.106s-2.645-4.866-2.645-8.392c0-3.372.957-6.135 2.875-8.277 1.917-2.146 4.635-3.218 8.162-3.218 2.605.157 4.445.85 5.517 2.093v-2.093zm-6.438 12.874v-3.726c-.306-2.571-1.915-4.086-4.83-4.525-3.832.138-5.9 2.045-6.207 5.723.154 4.296 2.224 6.514 6.208 6.671 2.914-.463 4.523-1.844 4.83-4.143z"/></svg>