<svg xmlns="http://www.w3.org/2000/svg" width="50" height="72" fill="none" viewBox="0 0 50 72"><path fill="#fa5d19" d="M41.715 23.193c-2.762.82-4.844 2.675-6.37 4.69-.327.432-1.01.107-.88-.423 2.92-12.007-.937-21.986-12.961-26.898a.803.803 0 0 0-1.085.937c5.47 21.961-17.537 20.109-14.63 45.005.05.427-.43.72-.78.47-1.09-.782-2.307-2.415-3.142-3.562a.502.502 0 0 0-.887.16c-.665 2.404-.98 4.67-.98 6.92 0 8.749 4.497 16.45 11.304 20.915.39.255.89-.11.758-.557a13.5 13.5 0 0 1-.563-3.697c0-.788.05-1.593.173-2.343.285-1.885.94-3.68 2.04-5.314 3.772-5.663 11.334-11.132 10.127-18.56-.078-.47.477-.78.827-.457 5.328 4.868 6.383 11.415 5.508 17.287-.075.51.564.782.887.382a11.6 11.6 0 0 1 2.892-2.587c.27-.168.63-.04.733.26.602 1.752 1.497 3.397 2.342 5.042a13.46 13.46 0 0 1 .905 9.982.502.502 0 0 0 .755.57C45.5 66.95 50 59.248 50 50.494c0-3.043-.532-6.025-1.54-8.82-2.112-5.862-7.472-10.264-6.117-17.904.065-.365-.273-.682-.628-.577" style="fill:#fa5d19;fill:color(display-p3 .9816 .3634 .0984);fill-opacity:1"/></svg>