<svg xmlns="http://www.w3.org/2000/svg" viewBox="0 0 43.5 65"><defs><linearGradient id="b" x1="5.9" x2="27.6" y1="28" y2="64.5" data-name="Degradado sin nombre" gradientTransform="matrix(1 0 0 -1 0 66)" gradientUnits="userSpaceOnUse"><stop offset="0" stop-color="#f8682f"/><stop offset="1" stop-color="#dd2c00"/></linearGradient><linearGradient id="c" x1="29" x2="26.5" y1="38.5" y2="-5" data-name="Degradado sin nombre 2" gradientTransform="matrix(1 0 0 -1 0 66)" gradientUnits="userSpaceOnUse"><stop offset="0" stop-color="#f8682f"/><stop offset=".6" stop-color="#e92a4e"/><stop offset="1" stop-color="#c447ff"/></linearGradient><clipPath id="a"><path d="M0 .1h44.8v64H0z" style="fill:none"/></clipPath></defs><g style="clip-path:url(#a)"><path d="M31.4 24.3c.4 0 .9.2 1.6.3l6.6 4.3-21.5 12.8c-.3.1-.7.2-1.1.4-.5.1-1.1.2-1.5.3h-1.4l-8.3-9.9 17.3-6.7c1.8-.7 3.3-1 4.5-1.2 1.3-.2 2.5-.4 3.9-.3Z" style="fill:#ffc400"/><path d="M31 7.9c-.1-.6-.3-1.2-.5-1.7-.3-1-1.1-3-3-4.9-.3-.3-.8-.8-1.4-1.2-2.3 2.8-4.4 4.8-5.8 6-3.6 3.3-9.5 7.8-13.3 11.3-.7.6-2 1.9-3.2 4-.2.4-.5.9-.8 1.4 0 0 0 .2-.1.3-.1.3-.2.5-.4.8-.5 1.1-1.1 2.6-1.2 4.5-.2 1.7 0 3 .1 3.6 0 .2 0 .4.1.6.2.7.4 1.4.7 2 1.3 3 3.4 4.7 3.8 5 2.3 1.8 4.6 2.3 5.3 2.5 1 .2 1.9.2 2.6.2-.1-.5-.3-1.2-.4-2-.3-2.9.7-5.1 1.1-6.3.4-.8 1.2-2.8 3.1-4.6.9-.8 1.8-1.5 2.7-2.1 1-.7 1.9-1.2 2.4-1.5 1.8-1.3 5.3-4.3 7.1-9 .2-.6.4-1.1.4-1.1.6-1.8 1.1-4.5.4-7.7Z" style="fill:url(#b)"/><path d="M14 42.3c-.6 0-1.5 0-2.6-.2-.7-.1-3-.7-5.3-2.5-.5-.4-3.7-3-4.6-7.7-.1-.6-.3-1.9-.1-3.6.2-1.9.8-3.3 1.2-4.5.4-1.1.9-1.9 1.2-2.5.1.4.4 1 .8 1.6.9 1.4 2 2.1 2.8 2.7.4.2 2.1 1.3 4.7 1.9 1.8.4 3.2.4 3.6.4 1.1 0 2.7-.2 4.7-.9 1.1-.4 2-1 2.6-1.3-.5.4-1.4.9-2.5 1.6-.9.6-1.9 1.3-2.7 2.1-1.9 1.8-2.7 3.8-3.1 4.6-.5 1.1-1.4 3.3-1.1 6.3 0 .9.2 1.6.4 2Z" style="fill:#ff9100"/><path d="M42 41.4c.8-1.6 1.1-3.3 1.1-3.3 0-.4.2-1.1.3-1.8 0-.7 0-1.8-.1-2.7-.5-2.9-2.7-5.2-3-5.5 0 0-1.5-1.5-3.7-2.6-.3-.2-.9-.4-1.7-.7-.8-.2-1.4-.3-2-.4-.7 0-1.2-.1-1.6-.2h.4c.4 0 .6.2.8.3.2 0 .5.2.8.5.1.1.3.2.4.4.1.2.3.4.4.8.3 1.1-.4 2.1-.6 2.5-1.7 2.6-11.1 8.1-16.6 13.8-1.4 1.5-2.4 2.8-3.2 4.4-1.7 3.8-1.1 7.4-.9 8.2 1 5.3 4.9 8.2 5.8 8.8 2.7-3 5.1-5.3 6.9-7 4.5-4.1 10.3-8.6 10.3-8.6s4.5-3.6 6.2-7.1Z" style="fill:url(#c)"/></g></svg>