<svg xmlns="http://www.w3.org/2000/svg" width="172" height="40" fill="none" viewBox="0 0 172 40"><path fill="#fa5d19" d="M23.36 12.828c-1.546.46-2.712 1.498-3.566 2.626-.184.243-.566.06-.493-.236 1.635-6.724-.525-12.312-7.259-15.063a.45.45 0 0 0-.607.525c3.063 12.298-9.82 11.26-8.193 25.202a.28.28 0 0 1-.437.263c-.61-.438-1.292-1.352-1.76-1.994a.28.28 0 0 0-.496.09A14.3 14.3 0 0 0 0 28.114c0 4.9 2.518 9.213 6.33 11.713.219.143.499-.061.425-.312a7.55 7.55 0 0 1-.219-3.382 7.2 7.2 0 0 1 1.143-2.976c2.112-3.171 6.347-6.234 5.67-10.393-.043-.264.268-.437.464-.256 2.983 2.725 3.574 6.392 3.084 9.68-.042.285.317.438.497.214a6.5 6.5 0 0 1 1.62-1.449.28.28 0 0 1 .41.146c.337.981.839 1.902 1.312 2.823a7.54 7.54 0 0 1 .506 5.59c-.076.254.2.465.423.32A13.99 13.99 0 0 0 28 28.117c0-1.704-.298-3.374-.862-4.94-1.183-3.282-4.185-5.747-3.426-10.025.036-.205-.153-.383-.351-.324"/><path fill="#262626" d="M41 34.052v-23.09h14.759v3.364H44.797v6.697h9.047v3.265h-9.047v9.764zm18.957-19.264c-1.222 0-2.18-.89-2.18-2.144 0-1.253.958-2.144 2.18-2.144 1.221 0 2.179.89 2.179 2.144s-.958 2.144-2.18 2.144M58.14 34.052V17.163h3.566v16.89zm15.449-16.889h.792v3.332h-1.585c-3.17 0-4.193 2.474-4.193 5.08v8.477h-3.566V17.163h3.17l.396 2.54c.858-1.418 2.212-2.54 4.986-2.54M83.632 34.25c-5.316 0-8.65-3.43-8.65-8.61 0-5.211 3.334-8.675 8.32-8.675 4.886 0 8.155 3.101 8.254 8.049 0 .429-.033.89-.099 1.352H78.713v.231c.099 2.87 1.915 4.75 4.72 4.75 2.18 0 3.765-1.088 4.26-2.969h3.566c-.594 3.332-3.434 5.872-7.627 5.872m-4.787-10.49h9.013c-.297-2.507-2.047-3.925-4.523-3.925-2.278 0-4.226 1.517-4.49 3.925m23.188 10.49c-5.118 0-8.386-3.332-8.386-8.61 0-5.211 3.367-8.675 8.485-8.675 4.358 0 7.065 2.408 7.759 6.235h-3.731c-.462-1.98-1.882-3.2-4.094-3.2-2.873 0-4.755 2.309-4.755 5.64 0 3.3 1.882 5.575 4.755 5.575 2.179 0 3.632-1.253 4.061-3.2h3.764c-.661 3.827-3.533 6.235-7.858 6.235m18.973-17.087h.793v3.332h-1.585c-3.17 0-4.193 2.474-4.193 5.08v8.477h-3.566V17.163h3.17l.396 2.54c.858-1.418 2.212-2.54 4.985-2.54m9.608-.198c4.49 0 7.065 2.144 7.065 6.136v10.951h-3.103l-.297-2.408c-1.156 1.517-2.774 2.606-5.448 2.606-3.698 0-6.174-1.814-6.174-4.948 0-3.463 2.509-5.41 7.263-5.41h4.227V22.87c0-1.88-1.354-3.035-3.698-3.035-2.113 0-3.533.99-3.797 2.474h-3.5c.363-3.299 3.203-5.344 7.462-5.344m-1.189 14.514c2.972 0 4.689-1.748 4.722-4.354v-.594h-4.425c-2.212 0-3.433.825-3.433 2.54 0 1.419 1.188 2.408 3.136 2.408m15.228 2.573-5.514-16.889h3.764l3.863 12.93 3.863-12.93h3.268l3.698 12.93 3.995-12.93h3.632l-5.613 16.89h-3.83l-3.565-11.48-3.698 11.48zm22.281 0v-23.09h3.566v23.09z"/></svg>