<svg xmlns="http://www.w3.org/2000/svg" width="749" height="205" fill="none" viewBox="0 0 749 205"><path fill="#5E5E5E" d="M707.39 161.434c-7.234 0-13.775-1.685-19.622-5.055-5.747-3.369-10.256-8.027-13.527-13.973-3.27-6.045-4.905-12.783-4.905-20.216 0-7.135 1.536-13.676 4.608-19.622 3.171-6.045 7.581-10.801 13.23-14.27 5.648-3.567 12.09-5.351 19.324-5.351 7.433 0 13.874 1.635 19.325 4.905 5.549 3.27 9.761 7.83 12.635 13.676 2.874 5.748 4.311 12.387 4.311 19.919 0 .892-.05 1.784-.149 2.676-.099.891-.149 1.387-.149 1.486h-56.784c.496 6.739 2.924 11.942 7.284 15.608 4.361 3.667 9.315 5.5 14.865 5.5 8.523 0 15.063-3.964 19.622-11.892l13.973 6.69c-3.271 6.045-7.829 10.9-13.676 14.567-5.748 3.568-12.536 5.352-20.365 5.352Zm18.73-48.311c-.198-2.379-.991-4.807-2.378-7.284-1.388-2.478-3.568-4.559-6.541-6.243-2.874-1.784-6.491-2.676-10.851-2.676-4.856 0-9.068 1.486-12.636 4.459-3.468 2.973-5.846 6.888-7.135 11.744h39.541ZM633.449 161.434c-8.424 0-15.41-1.933-20.96-5.798-5.45-3.964-9.315-8.919-11.594-14.865l14.567-6.243c1.685 4.063 4.113 7.135 7.284 9.216 3.27 2.081 6.838 3.122 10.703 3.122 4.063 0 7.383-.743 9.959-2.23 2.577-1.585 3.865-3.617 3.865-6.094 0-2.379-1.04-4.311-3.122-5.798-2.081-1.585-5.5-2.973-10.256-4.162l-10.109-2.378c-5.549-1.289-10.355-3.667-14.418-7.135-3.964-3.568-5.946-8.176-5.946-13.825 0-6.838 2.824-12.239 8.473-16.203 5.648-4.063 12.585-6.094 20.81-6.094 6.838 0 12.883 1.437 18.136 4.31 5.351 2.874 9.216 7.037 11.594 12.487l-14.419 6.095c-1.387-3.072-3.518-5.352-6.392-6.838-2.874-1.487-5.995-2.23-9.364-2.23-3.271 0-6.145.743-8.622 2.23-2.478 1.387-3.716 3.27-3.716 5.649 0 2.081.842 3.765 2.527 5.054 1.783 1.288 4.558 2.378 8.324 3.27l11 2.676c7.432 1.882 12.982 4.756 16.649 8.621 3.666 3.766 5.5 8.325 5.5 13.676 0 4.36-1.338 8.324-4.014 11.892-2.576 3.567-6.193 6.392-10.851 8.473-4.559 2.081-9.761 3.122-15.608 3.122ZM555.223 161.434c-5.252 0-10.009-1.041-14.27-3.122-4.162-2.18-7.482-5.153-9.96-8.919-2.378-3.865-3.567-8.225-3.567-13.081 0-7.73 2.874-13.825 8.621-18.284 5.847-4.46 13.23-6.689 22.149-6.689 7.829 0 14.518 1.338 20.068 4.013v-3.121c0-4.46-1.784-8.126-5.352-11-3.468-2.973-7.68-4.46-12.635-4.46-7.531 0-13.576 3.072-18.135 9.216l-12.486-8.621c3.468-4.658 7.779-8.225 12.932-10.703 5.252-2.477 11.149-3.716 17.689-3.716 10.802 0 19.126 2.725 24.973 8.175 5.946 5.352 8.919 12.933 8.919 22.744v45.189h-15.905v-9.067h-.892c-2.378 3.369-5.401 6.144-9.068 8.324-3.666 2.081-8.027 3.122-13.081 3.122Zm2.676-13.528c3.667 0 7.036-.891 10.108-2.675 3.171-1.883 5.649-4.311 7.432-7.284 1.883-3.072 2.825-6.342 2.825-9.811-5.252-2.874-10.852-4.311-16.798-4.311-5.45 0-9.711 1.189-12.783 3.568-3.072 2.378-4.608 5.401-4.608 9.067 0 3.37 1.337 6.145 4.013 8.325 2.775 2.081 6.045 3.121 9.811 3.121ZM486.618 161.433c-5.352 0-10.158-1.139-14.419-3.419-4.162-2.279-7.284-5.153-9.365-8.621h-.892v9.662h-15.46V52.622h16.352v31.96l-.892 10.256h.892c2.081-3.369 5.203-6.193 9.365-8.473 4.261-2.279 9.067-3.418 14.419-3.418 6.342 0 12.189 1.684 17.54 5.054 5.451 3.369 9.762 8.076 12.933 14.121 3.27 5.946 4.905 12.635 4.905 20.068 0 7.432-1.635 14.122-4.905 20.067-3.171 5.946-7.482 10.654-12.933 14.122-5.351 3.37-11.198 5.054-17.54 5.054Zm-2.825-15.013c3.865 0 7.433-.991 10.703-2.973 3.369-1.982 6.045-4.807 8.027-8.473 2.081-3.766 3.122-8.027 3.122-12.784 0-4.757-1.041-8.969-3.122-12.635-1.982-3.766-4.658-6.64-8.027-8.622-3.27-1.982-6.838-2.973-10.703-2.973-3.865 0-7.482.991-10.851 2.973-3.27 1.982-5.946 4.806-8.027 8.473-1.982 3.667-2.973 7.928-2.973 12.784 0 4.856.991 9.117 2.973 12.784 2.081 3.666 4.757 6.491 8.027 8.473 3.369 1.982 6.986 2.973 10.851 2.973ZM401.365 161.434c-7.235 0-13.775-1.685-19.622-5.055-5.748-3.369-10.257-8.027-13.527-13.973-3.27-6.045-4.905-12.783-4.905-20.216 0-7.135 1.536-13.676 4.608-19.622 3.171-6.045 7.581-10.801 13.229-14.27 5.649-3.567 12.091-5.351 19.325-5.351 7.432 0 13.874 1.635 19.324 4.905 5.55 3.27 9.762 7.83 12.635 13.676 2.874 5.748 4.311 12.387 4.311 19.919 0 .892-.049 1.784-.148 2.676-.1.891-.149 1.387-.149 1.486h-56.784c.495 6.739 2.923 11.942 7.284 15.608 4.36 3.667 9.315 5.5 14.865 5.5 8.522 0 15.063-3.964 19.621-11.892l13.973 6.69c-3.27 6.045-7.828 10.9-13.675 14.567-5.748 3.568-12.536 5.352-20.365 5.352Zm18.73-48.311c-.199-2.379-.991-4.807-2.379-7.284-1.387-2.478-3.567-4.559-6.54-6.243-2.874-1.784-6.491-2.676-10.852-2.676-4.856 0-9.067 1.486-12.635 4.459-3.468 2.973-5.847 6.888-7.135 11.744h39.541ZM317.93 85.325h15.459v11h.892c1.586-3.766 4.46-6.887 8.622-9.365 4.162-2.576 8.423-3.864 12.784-3.864 3.567 0 6.491.495 8.77 1.486v17.095c-3.37-1.685-7.135-2.527-11.297-2.527-5.352 0-9.861 2.081-13.528 6.243-3.567 4.063-5.351 9.067-5.351 15.013v38.649H317.93v-73.73ZM294.594 72.838c-3.072 0-5.698-1.04-7.879-3.121-2.081-2.18-3.121-4.806-3.121-7.879 0-3.072 1.04-5.648 3.121-7.73 2.181-2.18 4.807-3.27 7.879-3.27 3.072 0 5.648 1.09 7.73 3.27 2.18 2.082 3.27 4.658 3.27 7.73s-1.09 5.699-3.27 7.879c-2.082 2.08-4.658 3.121-7.73 3.121Zm-8.176 12.487h16.351v73.73h-16.351v-73.73ZM211.938 52.622H276.6v15.906h-48.014v30.621h43.257v15.757h-43.257v44.149h-16.648V52.622Z"/><path fill="#FF9100" d="M51.227 191.109a77.714 77.714 0 0 0 26.359 5.568 77.468 77.468 0 0 0 35.304-7.116 109.954 109.954 0 0 1-34.417-21.609c-6.438 10.308-15.96 18.449-27.245 23.157Z"/><path fill="#FFC400" d="M78.471 167.955c-22.67-20.967-36.423-51.314-35.261-84.6.038-1.08.095-2.16.161-3.24a58.722 58.722 0 0 0-30.66.32 77.424 77.424 0 0 0-10.159 35.793c-1.174 33.624 19.173 63.003 48.674 74.884a58.878 58.878 0 0 0 27.245-23.157Z"/><path fill="#FF9100" d="M78.472 167.954c5.27-8.435 8.467-18.324 8.839-28.978.978-28.026-17.862-52.135-43.939-58.862-.066 1.08-.123 2.16-.161 3.24-1.162 33.286 12.59 63.633 35.261 84.6Z"/><path fill="#DD2C00" d="M84.394 1.335C69.544 13.233 57.816 28.921 50.72 46.994a109.67 109.67 0 0 0-7.36 33.127c26.076 6.727 44.917 30.836 43.939 58.862a58.48 58.48 0 0 1-8.84 28.978 109.787 109.787 0 0 0 34.418 21.609c25.79-11.921 44.088-37.574 45.148-67.916.686-19.659-6.867-37.18-17.54-51.969-11.271-15.64-56.09-68.35-56.09-68.35Z"/></svg>