<svg xmlns="http://www.w3.org/2000/svg" viewBox="0 0 460 180"><path d="M69.124 157.319c-7.282-5.728-15.05-11.22-20.358-18.952-11.17-13.637-19.77-29.425-25.65-46.017-3.553-10.788-4.77-22.355-9.351-32.727-4.792-7.533.821-15.768 9.073-18.162 3.673-.705 10.133-4.17 2.336-1.694-6.99 5.129-7.667-4.655-.5-5.275 4.893-.65 6.694-4.655 5.02-8.26-5.25-3.425 12.735-7.188 3.685-12.298-9.427-10.17 13.187-12.129 7.607-.578-1.335 8.882 15.802-1.628 11.826 8.63 4.04 4.925 15.133 1.12 14.858 8.03 5.887.405 7.908 5.359 13.434 5.739 5.728 2.586 16.11 4.625 18.06 11.079-5.683 4.499-18.841-9.293-19.473 3.16 1.716 18.396 1.279 37.347 8.01 54.865 3.183 10.608 10.9 18.958 17.87 27.22 6.67 8.091 15.703 13.787 24.91 18.583 8.076 3.81 16.783 6.335 25.585 7.92 3.57-2.73 9.873-12.882 15.443-8.601.264 4.81-11.054 10.055-.533 9.523 6.178-1.864 10.464 4.778 15.551-1.213 4.687 5.552 19.482-3.547 16.147 7.802-4.51 2.91-11.087 1.151-15.604 5.154-7.447-3.72-13.377 3.328-21.622 2.437-9.156 1.64-18.471 2.302-27.755 2.316-15.229-1.203-30.781-1.71-45.27-7.013-8.16-2.372-16.126-7.019-23.299-11.668zm12.862 5.573c7.97 3.446 15.763 7.079 24.497 8.174 13.857 1.928 28.166 4.892 42.073 2.188-6.294-2.842-12.801 1.107-19.071-2.032-7.52 1.618-15.59-.413-23.236-1.412-8.694-3.873-18.076-6.536-26.218-11.562-10.173-3.716 5.262 4.765 8.009 5.452 6.36 3.61-6.993-1.85-8.876-3.351-5.326-2.988-6.005-2.364-.527.67 1.103.646 2.193 1.323 3.35 1.873zm-15.165-10.717c7.723 2.86-.034-5.431-3.572-4.95-1.568-2.72-5.99-4.438-2.871-5.899-5.612 1.948-5.879-7.408-8.516-6.071-5.937-1.875-2.31-8.515-9.382-12.593-.646-4.297-7.026-8.024-9.06-14.506-.9-3.318-7.21-12.847-3.333-3.979 3.3 8.538 9.106 15.849 13.938 23.152 3.752 6.953 8.183 14.22 15.016 18.558 2.304 2.21 4.528 5.595 7.78 6.288zm-22.247-24.426c.27-1.167 1.412 2.524 0 0zm31.496 27.855c1.71-.766-2.459-.965 0 0zm4.192 1.53c-.434-2.113-1.913 1.18 0 0zm5.248 2.188c2.498-2.379-3.85-1.5 0 0zm8.994 5.013c1.518-2.244-4.859-.847 0 0zm-17.27-12.04c3.88-2.51-5.013-.034 0 0zm3.936 1.963c-.11-1.327-1.403.595 0 0zm19.674 12.28c3.163 1.996 18.47 4.375 8.885.819-1.604.338-17.772-4.574-8.885-.819zM69.61 142.212c-.307-1.33-4.91-1.47 0 0zm9.16 5.338c2.383-1.662-4.948-1.282 0 0zm7.704 4.724c3.42-1.29-5.55-1.296 0 0zm-20.59-14.12c3.71 2.845 14.967.364 5.683-1.7-4.226-2.252-13.749-3.794-7.258 1.358l1.574.341zm25.808 15.751c1.546-2.634-6.483-1.504 0 0zm-7.843-6.233c9.076 2.568-7.631-5.739-2.239-.944l1.195.54 1.044.404zm15.724 9.088c8.595.082-7.763-1.185 0 0zm-36.997-23.58c-.336-1.6-2.12.135 0 0zm51.536 31.735c.229-2.89-2.805 2.152 0 0zm-36.869-22.752c-.52-1.523-2.685-.063 0 0zm-13.852-9.987c4.935-.296-6.755-2.174 0 0zm-16.41-10.607c-.614-2.365-5.369-4.252 0 0zm43.08 27.34c-.904-1.031-.425.225 0 0zm26.814 16.454c-.086-1.575-1.46.596 0 0zm-29.187-18.905c.483-2.03-4.208-.615 0 0zm-19.976-12.66c3.67-.393-5.88-2.482 0 0zm33.791 20.997c5.72-2.266-5.575-1.106 0 0zm-17.577-11.931c6.593.85-7.844-4.485-1.446-.478l1.446.478zm22.913 14.088c6.155-3.68 4.126 8.617 10.443 1.039 6.23-4.55-5.381 5.624 2.298.811 5.554-3.714 13.757 1.76 18.939 3.547 3.726-.183 7.35 3.223 11.17 1.15 7.354-1.98-14.382-2.937-8.684-6.451-6.73 1.958-11.7-2.335-15.012-6.645-7.548-1.743-16.276-5.602-20.043-12.282-1.536-2.508 2.22.353-1.326-3.747-4.548-4.045-6.82-8.637-9.872-13.555-3.648-1.946-4.073-7.673-4.442-.192.03-4.722-4.404-7.9-5.485-6.578-.02-4.548 4.743-2.268 1.409-5.633-.718-4.713-3.08-9.624-3.791-14.945-1.104-2.565-.156-8.059-3.767-2.252-1.315 6.137-.436-7.541 1.61-3.03 2.685-4.603-.965-4.062-1.114-3.423 1.75-3.883 1.107-9.392-.457-7.29.933-4.116 1.473-15.148-1.395-13.193 1.739-4.304 3.297-19.694-4.25-13.826-3.058.043-8.354 1.11-10.857 2.355 7.85 4.327-.79 1.563-3.985.875-.416 4.004-3.581 2.272-7.535 2.311 6.315.782-3.075 6.46-6.698 4.254-4.705 2.249 4.06 7.862.094 9.597.487 2.617-7.208-.945-6.604 5.098-4.568-1.921-.629 7.168 1.656 4.094 7.77 2.103 5.47 6.896 5.667 11.45-1.265 2.653-6.25-6.237-1.11-5.825-4.054-6.587-4.485-2.381-7.854.679-.784.222 8.594 4.354 2.709 6.396 5.178.8 5.325 5.33 6.38 8.198 3.111 3.241 2.475-3.58 6.198.316-2.356-3.47-12.481-9.778-4.33-7.755-.043-3.493-1.474-6.31 1.024-6.241 2.473-4.48-2.59 11.044 2.985 5.35 1.543-.673 1.925-4.484 4.7.36 4.028 3.964 1.455 6.836-4.229 3.207 1.017 3.45 7.603 4.682 6.365 10.077 1.313 4.744 3.148 2.997 4.748 2.722 1.256 4.61 1.968 1.22 2.028-.973 5.747 1.23 4.401 4.627 6.2 7.001 3.96 1.788-5.67-12.117 1.13-4.181 7.154 6.459 2.683 9.155-3.737 8.12 4.063-.328 5.374 5.493 10.456 5.289 4.635 2.204 7.772 10.672-.216 7.147-2.77-2.498-12.576-5.58-4.567-.828 7.396 3.425 13.27 5.474 20.404 9.774 5.106 3.645 7.311 7.819 9.246 8.645-4.29 2.05-12.93-1.636-6.515-2.766-4.001-.729-8.502-2.752-4.67 2.233 3.26 2.722 11.548 2.433 13.034 2.742-1.26 2.775-3.421 2.995.051 3.21-3.874 2.065 1.242 2.385 1.601 3.564zm-7.921-22.37c-2.357-2.465-2.966-7.081-.419-3.064 1.307.525 4.186 7.544.419 3.064zm25.797 16.387c1.47-.095.043 1.117 0 0zm-29.519-22.43c-.09-3.727.853 2.874 0 0zm-2.563-3.45c-2.965-5.728 3.737 1.622 0 0zm-31.071-21.445c1.741-.464.857 2.979 0 0zm24.728 13.404c1.07-4.017 1.257 3.37 0 0zM68.82 104.9c-1.231-2.216 2.576 2.079 0 0zm14.993 4.806c-2.808-6.292 1.988-3.437.621 1.032l-.62-1.032zM57.958 92.464c-1.256-2.065-3.333-8.122-2.664-9.97.605 3.01 6.404 12.959 2.845 4.12-3.934-7.409 4.701 2.405 5.59 4.253.413 1.838-2.427-.502-.503 3.808-3.51-4.907-2.072 2.711-5.268-2.211zm-7.99-5.506c.328-4.8 1.829 3.29 0 0zm3.594 1.237c1.715-3.623 2.908 5.05 0 0zm-8.647-6.689c-2.975-2.956-5.127-5.681.14-1.834 2.03.079-4.51-6.197.488-1.993 5.256.958 2.595 8.616-.628 3.827zm4.542-.118c1.728-1.712.917 1.685 0 0zm2.795.896c-2.62-4.91 3.178 2.058 0 0zm-5.556-5.31C38.048 69.278 57.564 81 48.11 78.401l-1.413-1.426zm24.78 14.398c-3.743-2.244-.992-15.798.284-6.528 3.638-1.177-.201 4.787 2.513 4.732-.428 3.763-1.642 5.116-2.798 1.796zm9.165 5.416c.367-4.084.772 2.793 0 0zm-1.592-1.573c.412-1.744.042 2.055 0 0zm-30.656-20.77C42.837 66.78 64.54 82.2 51.95 76.39c-1.315-.344-2.898-.467-3.558-1.945zm17.649 9.358c-.526-6.455 1.174 1.07 0 0zm13.4 8.596c1.037-3.677.077 2.432 0 0zm-30.198-20.88c3.302-.706 13.685 5.8 4.15 1.86-1.06-1.174-3.318-.64-4.15-1.86zM77.6 85.654c.353-6.6 1.971-3.942.012.945l-.012-.945zm-25.899-16.43c1.345-1.973-3.572-8.923.709-2.493 1.85 1.47 5.355 2.462 2.26 3.08 4.868 4.295-1.187 1.164-2.969-.587zm24.496 14.368c.93-7.518.82 4.405 0 0zM48.892 62.28c1.028-.44.543 1.37 0 0zm6.39 3.803c1.644-3.45 3.033 3.848 0 0zm18.023 10.026c-.017-1.325.34 1.928 0 0zm-1.044-2.311c-2.502-6.172 2.327 3.267 0 0zm-1.536-4.046c-.42-2.55 1.427 3.203 0 0zm2.5-4.064c-1.717-3.025 2.168-13.331 2.601-6.94-1.812 4.98-.523 7.767.741 1.087 2.335-5.257-.504 10.374-3.342 5.853zm2.569-15.327c.748-.919.166 1.107 0 0zm-4.29 84.535c-1.018-.888.128.565 0 0zm8.837 4.47c4.916 1.262 4.891-.765.448-1.367-2.39-2.223-9.93-4.58-3.18-.275.446 1.132 1.859 1.105 2.732 1.642zm-17.454-11.593c2.709 2.02 10.201 5.724 3.858.769 2.139-2.485-4.093-3.807-2.026-5.47-5.258-3.217-4.148-2.93-.464-2.83-6.32-2.824.912-2.613.572-4.06-2.437-.481-12.103-4.297-6.416.313-5.781-2.947-1.378 1.098-3.125.67-5.912-1.611 5.264 4.503-.94 2.985 3.392 2.688 9.13 6.884 1.435 2.844-1.014 1.46 5.506 3.672 7.106 4.78zm9.243 5.31c11.24 3.622-5.51-4.424 0 0zm47.317 28.665c.145-2.23-1.536 1.902 0 0zm4.863 2.047c2.593-2.513.106 4.002 4.297-.616.045-3.305-.13-5.257-4.816-1.242-1.292.716-1.869 3.763.52 1.858zM47.112 115.31c-.797-3.13-5.582-3.114 0 0zm5.193 3.403c-1.929-3.197-6.88-2.894 0 0zm29.543 17.817c2.884 2.562 13.248 1.88 3.503.316-1.443-2.134-9.164-1.62-3.503-.316zm40.612 25.082c4.44-3.725-4.3 1.662 0 0zm9.233 6.345c.028-1.196-1.913.523 0 0zm.014-1.674c4.916-5.209-4.763.308 0 0zM34.34 104.618c-4.19-5.978-2.605-8.665-6.645-13.546-.765-3.733-6.932-12.204-3.19-3.23 3.428 5.249 4.446 13.375 9.835 16.776zm95.826 60.01c9.045-5.846-3.712-2.546 0 0zm6.904 2.705c4.53-3.889-2.864-.814 0 0zm-91.497-58.63c1.296-1.928-3.347-.246 0 0zm90.056 56.783c4.385-2.827-1.01-2.393-.795.26l.795-.26zm-59.514-37.512c-.15-1.909-2.316.162 0 0zm3.678 2.117c-1.169-2.364-1.797.37 0 0zm62.872 37.306c5.619-4.053-3.405-.776-1.179.768l1.18-.768zm-2.15-1.04c4.576-3.835-4.833 1.7 0 0zm10.99 7.32c3.074-2.058-3.732-.666 0 0zM48.39 107.313c4.12.923 16.46 10.144 9.18.638-3.73-1.104-1.493-10.22-5.296-8.606 2.553 4.265 2.1 6.08-3.26 3.391-6.737-3.288-3.786 1.63-2.47 2.985-1.793.408 2.374 1.558 1.846 1.592zm-18.765-14.82c.737-3.05-6.79-16.78-3.555-6.88 1.168 2.074 1.05 6.004 3.555 6.88zm34.443 21.235c-2.121-1.774-.1-.251 0 0zm5.223 1.215c-.003-3.23-5.773-1.312 0 0zm45.261 28.533c-.863-2.207-3.412-.05 0 0zm2.174 1.588c-.32-1.235-1.254.239 0 0zm17.94 11.3c1.726-1.275-2.153-.163 0 0zM38.998 94.886c4.935-1.911-5.287-1.363 0 0zm71.57 45.089c-.055-3.195-3.146.793 0 0zm-73.52-49.633c3.17-1.071-2.932-.706 0 0zm9.202 4.457c-.058-1.05-.973.398 0 0zm112.231 68.822c4.077-.827 13.366 2.075 14.868-1.081-4.95-.12-17.128-3.493-17.704.805l1.084.17 1.752.106zM49.174 95.536c.071-3.238-2.524-.12 0 0zM24.981 78.754c-1.099-6.169-4.179-.934 0 0zm5.77 1.45c.07-1.98-5.281-1.782 0 0zm3.296 1.62c-.953-.773-.746.974 0 0zM54.792 95.13c.977-.897-2.312-.665 0 0zm-22.94-16.96c-.558-4.659-6.683-.698 0 0zm-11.828-7.674c-.169-2.15-1.153.81 0 0zm1.759-1.329c-.287-2.55-1.51.324 0 0zm9.72 5.802c4.111-1.614-7.486-3.34-.84-.305l.84.305zm130.098 80.36c2.631-2.413-3.343-.746 0 0zm15.717 8.146c1.054-3.118-2.654.411 0 0zm-144.82-93.6c.432-3.017-3.26.598 0 0zm-13.831-9.267c-.743-4.259-.641-11.735 6.465-9.208-9.486 1.883 6.565 11.79 4.538 3.968 3.989.195 7.803-2.357 5.71 1.516 7.859-.868 13.307-7.682 20.898-6.727 5.913-.783 12.378-1.376 18.75-3.756 5.24-.378 10.283-6.018 7.411-9.362-7.145-.604-14.623.29-22.52 1.86-8.75 1.818-16.7 5.275-25.528 6.758-8.606 1.156 1.73 3.185-.734 3.637-4.491 1.558 5.355 2.61-.583 4.252-3.667-.697-7.483-1.957-5.917-5.822-8.244 1.07-15.488 4.491-8.975 12.88l.485.004zM38.53 50.492c1.933-7.12 10.355 5.86 3.168.946-.858-.642-2.27-1.166-3.168-.946zm.376-3.452c2.79-2.078 1.483 1.165 0 0zm3.542.056c.252-3.276 8.11 1.735 1.296 1.18l-1.296-1.18zm4.846-1.948c1.77-2.067.508 1.84 0 0zm1.24-.83c2.946-3.54 16.685-2.26 6.628-.345-2.695-2.03-4.761 1.197-6.629.345zm17.93-2.764c-.449-9.67 8.907 3.437 0 0zm5.087-.027c1.86-4.874 7.218-1.956.86-.98.139.519-.186 2.516-.86.98zM30.491 67.374c5.558-3.403-5.9-2.953 0 0zm4.11 1.142c1.948-2.072-4.235-.84 0 0zm-12.108-8.593c3.175-2.44-3.758-.928 0 0zm164.102 102.662c.092-2.83-2.427 1.276 0 0zm-16.675-11.38c.474-3.258-2.143.285 0 0zm21.26 12.478c4.44.015 13.453-1.38 3.792-1.375-1.515.237-8.833.186-3.792 1.374zM38.215 66.518c3.593-.246 5.622-3.963-.695-3.75-9.79-1.013 8.637 3.353-1.256 2.104-1.33.88 1.874 1.89 1.95 1.646zm3.164 1.602c-.375-2.307-1.11 1.226 0 0zm3.754-10.01c1.56-1.934-2.157-.517 0 0zm-11.95-19.975c6.413-2.182 15.183-4.633 18.21 1.074-3.081-3.709-1.243-7.36 1.667-1.937 4.116 5.486 6.176-2.496 3.5-4.336 3.05 3.79 6.52 5.581 2.042.24 4.866-5.853-9.743.766-13.063.7-1.598.716-16.494 3.798-12.356 4.259zm3.759-7.198c3.657-2.76 12.648 1.642 6.879-2.743-.565-.498-12.636 3.325-6.88 2.743zm13.333.55c4.28.11-1.846-5.75 3.254-3.095-.837-2.736-5.938-3.248-8.432-4.342-1.41 2.502 2.871 7.471 5.178 7.438zM39.279 19.385c1.481-2.007-2.595 1.018 0 0zm5.45 1.305c6.898-.915-1.758-2.971-1.39-.074l1.39.074zm-10.175-7.963c-4.857-6.34 9.134 1.066 4.199-5.572-4.153-3.307-8.144 3.722-4.2 5.572zM96.884 46.3c2.227-3.949-9.197-5.323-1.501-1.4.708.237.548 1.673 1.5 1.4z"/><g font-size="144" font-weight="400" font-family="High Tower Text"><path d="M202.031 19.063c-.797 3.14-1.29 8.414-1.477 15.82 0 1.454-.656 2.18-1.968 2.18-1.313 0-2.227-.633-2.742-1.898-1.407-3.422-2.743-5.813-4.008-7.172-1.5-1.594-3.493-2.555-5.977-2.883-2.672-.422-9.328-.633-19.969-.633-2.437 0-4.03.258-4.78.774-.47.328-.704 1.03-.704 2.109V59.21c0 1.079.68 1.594 2.04 1.547 4.17-.046 10.218-.328 18.14-.843 1.547-.188 2.59-.692 3.129-1.512.539-.82 1.066-2.941 1.582-6.363.328-1.875 1.43-2.602 3.304-2.18 1.594.328 2.274 1.055 2.04 2.18-1.313 6.375-1.735 14.672-1.266 24.89.047 1.219-.727 1.875-2.32 1.969-1.313.14-2.133-.562-2.461-2.11-1.22-5.859-3.481-8.988-6.786-9.386-3.304-.398-8.683-.598-16.136-.598-.844 0-1.266.305-1.266.914v31.64c0 2.345.867 3.938 2.602 4.782 1.359.703 4.289 1.336 8.789 1.899 2.296.234 3.304 1.242 3.023 3.023-.281 1.547-2.344 2.156-6.187 1.828-11.11-.89-20.274-.844-27.493.14-2.015.282-3.023-.538-3.023-2.46 0-1.219 1.008-1.922 3.023-2.11 4.594-.515 6.891-4.546 6.891-12.093V34.18c0-3.093-.55-5.472-1.652-7.136-1.102-1.664-3.153-3.176-6.153-4.536-1.875-.843-2.578-1.992-2.109-3.445.234-.89.61-1.383 1.125-1.477.469-.14 1.71-.046 3.727.282 2.953.469 9.914.703 20.882.703 12.938 0 24.117-.281 33.54-.844 3.14-.187 4.71.07 4.71.774 0 .187-.023.375-.07.562zM247.734 108.43c0 1.875-1.055 2.696-3.164 2.461-6.469-.61-14.484-.515-24.047.281-1.922.188-3.105.141-3.55-.14-.446-.281-.669-1.055-.669-2.32 0-1.126 1.278-2.075 3.832-2.848 2.555-.774 3.833-3.082 3.833-6.926V35.305c0-3.797-.551-6.586-1.653-8.367-1.101-1.781-3.035-3.164-5.8-4.148-1.454-.516-2.18-1.242-2.18-2.18 0-1.406 1.054-2.46 3.164-3.164 3.187-1.031 6.492-2.625 9.914-4.781 2.812-1.688 4.594-2.532 5.344-2.532 1.734 0 2.601 1.196 2.601 3.586 0-.187-.094 2.157-.281 7.032-.14 4.64-.188 9.21-.14 13.71l.28 62.79c0 2.859.704 4.933 2.11 6.222 1.406 1.29 3.82 2.145 7.242 2.567 2.11.234 3.164 1.03 3.164 2.39zM311.86 103.72c0 .984-1.794 2.472-5.38 4.464-3.586 1.992-6.457 2.988-8.613 2.988-1.828 0-3.445-.89-4.852-2.671-1.406-1.782-2.39-2.672-2.953-2.672-.422 0-2.648.96-6.68 2.882-4.03 1.922-8.085 2.883-12.163 2.883-3.844 0-7.055-1.125-9.633-3.375-2.813-2.484-4.22-5.86-4.219-10.125 0-8.109 9.281-13.922 27.844-17.437 3.187-.61 4.804-1.899 4.851-3.867l.14-4.5c.282-7.688-3.116-11.532-10.194-11.532-2.016 0-3.926 1.805-5.73 5.414-1.806 3.61-4.395 5.555-7.77 5.836-3.844.375-5.766-1.242-5.766-4.851 0-2.25 2.86-4.875 8.578-7.875 6-3.14 11.766-4.711 17.297-4.711 9.516 0 14.226 4.523 14.133 13.57l-.281 28.969c-.047 3.047 1.242 4.57 3.867 4.57.515 0 1.5-.117 2.953-.351 1.453-.235 2.297-.352 2.531-.352 1.36 0 2.04.914 2.04 2.742zm-21.657-16.032c.047-1.172-.223-1.945-.809-2.32-.586-.375-1.511-.446-2.777-.211-11.297 2.015-16.945 5.695-16.945 11.039 0 5.39 2.93 8.086 8.789 8.086 2.343 0 4.757-.446 7.242-1.336 2.906-1.031 4.36-2.274 4.36-3.727zM364.312 95.352c0 4.969-1.91 8.918-5.73 11.848-3.82 2.93-9.035 4.394-15.645 4.394-4.406 0-8.812-.468-13.218-1.406-3.797-.844-6-1.617-6.61-2.32-.375-.657-.562-3.867-.562-9.633 0-2.484.562-3.773 1.687-3.867 1.125-.14 2.086.469 2.883 1.828 3.516 6.14 9.187 9.21 17.016 9.21 6.609 0 9.914-2.296 9.914-6.89 0-2.015-.75-3.703-2.25-5.062-1.641-1.547-4.829-3.352-9.563-5.414-6.844-3.047-11.414-5.72-13.71-8.016-2.485-2.437-3.727-5.719-3.727-9.844 0-5.062 1.945-9 5.836-11.812 3.609-2.719 8.437-4.078 14.484-4.078 3.797 0 7.266.304 10.406.914 3.375.61 5.133 1.36 5.274 2.25.375 2.625 1.148 6.422 2.32 11.39.14.61-.516 1.102-1.969 1.477-1.547.328-2.578.07-3.094-.774-3.703-6.046-8.39-9.07-14.062-9.07-6.422 0-9.633 2.063-9.633 6.188 0 2.297.867 4.125 2.602 5.484 1.547 1.172 5.18 3 10.898 5.484 6 2.579 10.078 4.899 12.235 6.961 2.812 2.672 4.218 6.258 4.218 10.758zM445.875 108.008c0 1.641-1.102 2.508-3.305 2.602-3.281.047-7.57.281-12.867.703-2.625.516-4.5.188-5.625-.984-7.406-7.97-13.688-16.313-18.844-25.032-.422-.75-.96-1.125-1.617-1.125-.797 0-2.18.704-4.148 2.11-2.204 1.219-3.305 2.953-3.305 5.203 0 1.594.047 3.89.14 6.89.094 3 .844 4.97 2.25 5.907.985.656 3.258 1.172 6.82 1.547 2.204.28 3.305 1.101 3.305 2.46 0 1.079-.175 1.747-.527 2.005-.351.257-1.277.316-2.777.175-4.688-.422-12.61-.187-23.766.703-2.812.235-4.336-.117-4.57-1.054-.094-.328-.14-.797-.14-1.407 0-1.453 1.429-2.554 4.288-3.304 2.578-.656 3.867-3.68 3.867-9.07V34.882c0-3.843-.375-6.515-1.125-8.015-1.03-1.922-3.187-3.422-6.468-4.5-1.547-.516-2.32-1.242-2.32-2.18 0-1.36 1.1-2.414 3.304-3.164a44.143 44.143 0 0010.055-4.852c2.578-1.687 4.172-2.53 4.781-2.53 1.922 0 2.883 1.218 2.883 3.655 0-.328-.024 1.993-.07 6.961-.047 3.422-.07 8.016-.07 13.782l.14 44.015c0 1.219.328 1.828.984 1.828.703 0 1.781-.609 3.235-1.828 3.89-3.047 8.671-7.031 14.343-11.953 1.125-1.172 1.688-2.11 1.688-2.812 0-1.266-1.899-2.157-5.695-2.672-1.641-.188-2.415-1.102-2.32-2.742.14-1.641.96-2.344 2.46-2.11 3.375.469 8.297.727 14.766.774 4.5.047 8.976.07 13.43.07 1.453.047 2.18.914 2.18 2.601 0 1.594-1.15 2.461-3.446 2.602-3.61.14-7.008.961-10.195 2.461-4.454 2.016-9.211 5.555-14.274 10.617-.375.281-.562.633-.562 1.055 0 .656.796 2.226 2.39 4.71 5.86 8.907 11.39 15.634 16.594 20.18 3.328 2.86 6.445 4.29 9.352 4.29 2.156 0 3.492.152 4.007.457.516.304.774 1.113.774 2.425z" style="-inkscape-font-specification:High Tower Text"/></g></svg>