<svg xmlns="http://www.w3.org/2000/svg" fill="none" viewBox="0 0 477 98"><path fill="#242424" d="M52.06 19.69H20.44V44.8H49.5V61.2H20.44v34.06H.25v-92h51.81v16.44ZM67.22 95.25v-92h19.75v92H67.22ZM166.69 95.25h-19.7v-9h-.3a25.63 25.63 0 0 1-8.57 8.5 21.61 21.61 0 0 1-11 2.81c-7.41 0-12.98-2.25-16.69-6.75-3.7-4.5-5.56-11.23-5.56-20.19V32h19.69v36.88c0 4.5.9 7.9 2.69 10.18 1.79 2.25 4.48 3.38 8.06 3.38 3.54 0 6.38-1.23 8.5-3.69 2.13-2.5 3.19-5.88 3.19-10.13V32h19.69v63.25ZM241.15 69.63H199.4c.34 4.62 1.88 8.06 4.63 10.3 2.79 2.26 6.62 3.38 11.5 3.38 1.83 0 4.35-.54 7.56-1.62a32.75 32.75 0 0 0 9.44-5.25l8.75 11.19a45.68 45.68 0 0 1-13.5 7.56 47.03 47.03 0 0 1-15.31 2.37c-10.34 0-18.36-2.85-24.07-8.56-5.7-5.75-8.56-13.75-8.56-24 0-10.2 3.02-18.52 9.06-24.94 6.04-6.41 13.69-9.62 22.94-9.62 8.88 0 15.98 2.68 21.31 8.06 5.34 5.33 8 13.1 8 23.31v7.81ZM222.84 57.5c0-4.96-.94-8.48-2.81-10.56-1.84-2.13-4.6-3.19-8.31-3.19-3.17 0-5.92 1.23-8.25 3.69-2.3 2.46-3.7 5.81-4.2 10.06h23.57ZM316 95.25h-19.7V60.44c0-4.96-.89-8.67-2.68-11.13-1.75-2.5-4.4-3.75-7.94-3.75-3.41 0-6.23 1.31-8.44 3.94-2.2 2.63-3.3 5.96-3.3 10v35.75h-19.76V32h19.75v10.13h.25c2.38-3.92 5.27-6.84 8.69-8.76a23.46 23.46 0 0 1 11.88-2.93c7.08 0 12.4 2.2 15.93 6.62 3.54 4.38 5.31 10.96 5.31 19.75v38.44ZM372.96 95c-2 .83-4.25 1.46-6.75 1.88-2.46.45-4.96.68-7.5.68-7 0-12.27-1.69-15.81-5.06-3.54-3.38-5.31-8.42-5.31-15.13v-30.8H327.2V32h10.38V16.5l19.69-5.63V32h14.37v14.56h-14.38v29.56c0 2.46.48 4.25 1.44 5.38.96 1.08 2.5 1.63 4.63 1.63 1.04 0 2.04-.13 3-.38.96-.3 1.87-.65 2.75-1.06L372.96 95Z"/><path stroke="#242424" stroke-width="18" d="M421.5 21c7.5-7 17.7-13.19 30-10.5 16 3.5 22 22.5 8.5 36S427 58.25 427 86h48.5"/></svg>