<svg viewBox="0 0 256 231" width="256" height="231" xmlns="http://www.w3.org/2000/svg" preserveAspectRatio="xMidYMid"><defs><radialGradient cx="53.096%" cy="49.564%" fx="53.096%" fy="49.564%" r="93.348%" gradientTransform="matrix(.77604 0 0 1 .119 0)" id="a"><stop stop-color="#BA7BF0" offset="0%"/><stop stop-color="#996BEC" offset="45%"/><stop stop-color="#5046E4" offset="100%"/></radialGradient></defs><path d="M179.016 31.598h29.478c26.22 0 47.506 21.287 47.506 47.507v103.652c0 26.22-21.287 47.507-47.506 47.507h-2.323c-13.495-2.111-19.348-6.158-23.869-9.579l-37.479-30.815a5.276 5.276 0 0 0-6.635 0l-12.176 10.012-34.292-28.197a5.263 5.263 0 0 0-6.632 0l-47.64 41.91c-9.588 7.798-15.93 6.357-20.043 5.905C6.782 210.782 0 197.556 0 182.757V79.105c0-26.22 21.287-47.507 47.51-47.507h29.412l-.053.119-.992 2.89-.308.992-1.335 5.92-.184 1.04-.586 5.93-.078 1.627-.012.57.056 2.72.134 1.593.33 2.494.421 2.245.5 2.068.648 2.238 1.683 4.74.555 1.422 2.931 6.192 1.036 1.902 3.389 5.818 1.297 2.099 4.73 6.965.683.923 6.155 8.01 1.99 2.467 7.027 8.216 1.444 1.58 5.793 6.234 2.295 2.376 3.792 3.766-.761.636-.474.428a46.423 46.423 0 0 0-3.654 3.816 32.49 32.49 0 0 0-1.572 2.008 25.939 25.939 0 0 0-2.03 3.318c-.303.6-.574 1.215-.814 1.842a17.056 17.056 0 0 0-1.1 5.008l-.022 1.481c.054 2.088.48 4.15 1.256 6.09a16.962 16.962 0 0 0 3.387 5.31 17.222 17.222 0 0 0 3.57 2.906c1.12.686 2.313 1.25 3.554 1.68 2.698.915 5.56 1.24 8.394.954h.016a18.933 18.933 0 0 0 6.922-2.054 17.902 17.902 0 0 0 2.644-1.712 16.956 16.956 0 0 0 5.332-7.09c.873-2.18 1.3-4.51 1.262-6.854l-.068-1.225a17.258 17.258 0 0 0-1.148-4.718 19.594 19.594 0 0 0-.888-1.927 26.472 26.472 0 0 0-2.09-3.308c-.355-.48-.723-.952-1.103-1.413a45.505 45.505 0 0 0-4.078-4.271l-1.026-.873 1.736-1.715 7.465-7.795 2.582-2.835 4.013-4.515 2.61-3.052 3.722-4.534 2.52-3.168 3.7-4.948 1.869-2.56 2.65-3.963 2.207-3.377 4.16-7.243 2.379-4.752.069-.146 1.82-4.41c.025-.056.045-.115.063-.174l1.961-6.118.206-.891.851-4.87.165-1.32.05-.807.06-3.05-.016-.567-.156-2.732-.193-2.12-.967-6.114c-.015-.081-.031-.162-.056-.243l-1.241-4.522-.427-1.256-.558-1.39Zm14.012 129.258c-6.18.087-11.169 5.076-11.256 11.256.09 6.179 5.078 11.165 11.256 11.253 6.178-.09 11.166-5.075 11.26-11.253-.09-6.18-5.08-11.169-11.26-11.256Z" fill="url(#a)"/><path d="M102.63 230.264H47.51A47.304 47.304 0 0 1 17.404 219.5c4.113.452 10.455 1.893 20.043-5.905l47.64-41.91a5.263 5.263 0 0 1 6.632 0l34.292 28.197 12.176-10.012a5.276 5.276 0 0 1 6.635 0l37.48 30.815c4.52 3.42 10.373 7.468 23.868 9.579h-24.932a10.599 10.599 0 0 1-6.12-2.04l-.437-.336-32.983-27.389-32.55 27.389a10.427 10.427 0 0 1-6.519 2.376Zm90.398-69.408c-6.18.087-11.169 5.076-11.256 11.256.09 6.179 5.078 11.165 11.256 11.253 6.178-.09 11.166-5.075 11.26-11.253-.09-6.18-5.08-11.169-11.26-11.256Zm-72.765-34.102-3.792-3.766-2.295-2.376-5.793-6.233-1.444-1.581-7.028-8.216-1.99-2.466-6.154-8.01-.683-.924-4.73-6.965-1.297-2.099-3.39-5.818-1.035-1.902-2.93-6.192-.556-1.422-1.683-4.74-.649-2.238-.499-2.068-.42-2.245L73.563 55l-.134-1.593-.056-2.72.012-.57.078-1.627.586-5.93.184-1.04 1.335-5.92.308-.992.992-2.89.318-.749 1.578-3.467 1.094-2.064 1.525-2.513 1.518-2.239 1.082-1.422 1.247-1.503 1.372-1.509 1.176-1.182 2.862-2.519 2.092-1.712c.05-.043.103-.08.156-.118l2.476-1.675 1.968-1.253 3.735-1.968c.056-.034.122-.062.18-.09l5.298-2.198.49-.184 4.708-1.378 1.99-.446 2.687-.54 1.784-.27 2.734-.34 1.865-.166 3.7-.196 1.45-.016 2.748.056.714.04 3.978.331 5.264.742.608.128 5.2 1.294 1.528.455 1.697.587 2.067.782 1.634.692 2.4 1.132 1.513.777 2.719 1.596 1.013.624 3.707 2.706 1.064.923 2.585 2.354.127.128 2.192 2.351.755.851 2.572 3.418.524.816 2.042 3.449.615 1.182 1.15 2.572 1.204 3.003.427 1.256 1.241 4.522c.023.08.042.16.056.243l.967 6.114.193 2.12.156 2.732.016.567-.06 3.05-.05.807-.165 1.32-.851 4.87-.206.891-1.961 6.118c-.018.06-.038.118-.062.175l-1.821 4.409-.069.146-2.38 4.752-4.159 7.243-2.207 3.377-2.65 3.963-1.868 2.56-3.701 4.948-2.52 3.168-3.723 4.534-2.61 3.052-4.012 4.515-2.582 2.835-7.465 7.795-1.736 1.715 1.026.873a45.503 45.503 0 0 1 4.078 4.271c.38.462.748.933 1.104 1.413a26.472 26.472 0 0 1 2.089 3.308c.33.624.627 1.269.888 1.927.596 1.51.998 3.105 1.148 4.718l.068 1.225a17.667 17.667 0 0 1-1.262 6.853 16.956 16.956 0 0 1-5.332 7.09c-.83.65-1.715 1.22-2.644 1.713a18.933 18.933 0 0 1-6.922 2.054h-.016a19.924 19.924 0 0 1-8.394-.954 18.253 18.253 0 0 1-3.554-1.68 17.22 17.22 0 0 1-3.57-2.906 16.962 16.962 0 0 1-3.387-5.31 17.586 17.586 0 0 1-1.256-6.09l.022-1.481a17.056 17.056 0 0 1 1.1-5.008c.24-.63.512-1.244.814-1.842a25.938 25.938 0 0 1 2.03-3.318c.496-.689 1.023-1.36 1.572-2.008a46.423 46.423 0 0 1 3.654-3.816l.474-.428.76-.636Z"/><path d="m141.7 200.499 32.982 27.389a10.589 10.589 0 0 0 6.67 2.376h-78.834c2.42 0 4.764-.839 6.632-2.376l32.55-27.389Zm-13.536-64.64.299.087c.097.047.178.116.265.175l.25.221a35.63 35.63 0 0 1 1.792 1.774c.406.434.802.88 1.182 1.341a19.32 19.32 0 0 1 1.347 1.83c.178.281.343.565.499.861.134.256.256.52.362.789.187.468.327.96.37 1.462l-.009.942a5.372 5.372 0 0 1-2.547 4.187 7.29 7.29 0 0 1-3.1 1.02l-1.162.034-.983-.087a7.477 7.477 0 0 1-1.35-.327 6.454 6.454 0 0 1-1.278-.599l-.767-.561a5.263 5.263 0 0 1-1.746-2.994 7.539 7.539 0 0 1-.09-.592l-.029-.898c.016-.243.053-.483.106-.723a7.53 7.53 0 0 1 .57-1.516c.315-.606.674-1.189 1.073-1.743a26.809 26.809 0 0 1 2.155-2.56 32.093 32.093 0 0 1 1.534-1.521l.377-.34c.262-.175.265-.175.565-.262h.315Zm-1.93-125.195.121-.01v104.981l-.262-.483a293.485 293.485 0 0 1-9.644-19.544 208.977 208.977 0 0 1-6.545-16.385 129.208 129.208 0 0 1-3.944-13.492c-.83-3.626-1.465-7.305-1.727-11.022a53.98 53.98 0 0 1-.09-4.764c.024-1.385.08-2.766.168-4.147a78 78 0 0 1 .676-6.492c.253-1.693.565-3.38.951-5.048a53.058 53.058 0 0 1 1.067-3.935 46.63 46.63 0 0 1 2.104-5.482c.3-.642.62-1.281.958-1.908 2.026-3.754 4.776-7.212 8.378-9.525a17.514 17.514 0 0 1 7.789-2.744Zm13.613.265 7.062 2.014c3.271 1.207 6.42 2.781 9.314 4.746a37.367 37.367 0 0 1 10.015 9.99 37.714 37.714 0 0 1 3.879 7.477 43.852 43.852 0 0 1 2.7 12.107c.094 1.085.147 2.173.168 3.262.025 1.01.02 2.023-.062 3.033-.2 2.261-.626 4.496-1.269 6.673a52.82 52.82 0 0 1-1.83 5.25 75.765 75.765 0 0 1-2.906 6.277c-2.354 4.547-5.064 8.896-7.964 13.102a204.078 204.078 0 0 1-11.483 14.986c-4.406 5.254-9.001 10.347-13.776 15.269a292.15 292.15 0 0 0 9.067-18.553 230.134 230.134 0 0 0 4.41-10.623c1.519-3.928 2.888-7.913 4.106-11.945a117.089 117.089 0 0 0 2.36-9.16 74.917 74.917 0 0 0 1.282-8.014c.23-2.245.314-4.502.258-6.754a96.056 96.056 0 0 0-.152-4.131c-.33-5.538-1.173-11.057-2.788-16.367a47.834 47.834 0 0 0-2.226-5.899c-2.067-4.502-4.952-8.712-8.855-11.783l-1.31-.957Z" fill="#FFF"/></svg>