<svg width="260" height="260" viewBox="0 0 260 260" fill="none" xmlns="http://www.w3.org/2000/svg">
<g filter="url(#filter0_ii_242_49)">
<path d="M60.9869 225.79C62.0456 224.773 63.6785 224.661 64.8902 225.489C98.1372 248.214 140.618 251.635 176.646 235.754C179.512 234.491 178.543 230.57 175.411 230.574L138.08 230.62C137.283 230.621 136.577 230.108 136.331 229.35L132.095 216.29L147.401 216.272C149.468 216.269 150.933 214.252 150.295 212.285L147.716 204.335C147.332 203.15 148.214 201.934 149.46 201.933L165.093 201.914C165.89 201.913 166.596 202.425 166.842 203.183L170.394 214.133C170.801 215.391 171.974 216.242 173.296 216.24L190.569 216.219L205.881 216.273C206.175 216.274 206.68 216.328 206.68 216.328C206.68 216.328 207.344 216.491 207.541 216.697L214.848 224.316C216.037 225.556 215.963 227.542 214.66 228.663C169.242 267.719 103.245 270.268 55.1412 236.309C53.605 235.225 53.4664 233.012 54.8227 231.709L60.9869 225.79Z" fill="url(#paint0_linear_242_49)"/>
<path d="M225.02 46.0924C226.259 44.8441 228.301 44.9035 229.436 46.2472C267.582 91.4328 270.021 156.495 236.755 204.223C235.688 205.754 233.499 205.918 232.182 204.596L226.167 198.557C225.12 197.507 224.988 195.854 225.818 194.626C250.234 158.512 251.995 111.649 231.103 73.984C229.857 71.7384 226.608 72.1081 225.789 74.542L221.307 87.8688L209.559 123.922C209.313 124.676 208.611 125.186 207.819 125.189L194.044 125.23L198.82 110.575C199.463 108.602 197.989 106.578 195.914 106.584L187.558 106.609C186.309 106.613 185.421 105.393 185.808 104.205L190.69 89.2213C190.936 88.4677 191.637 87.9569 192.43 87.9545L204 87.92C205.315 87.9161 206.48 87.0681 206.887 85.8172L212.284 69.2553L216.828 54.9123C216.903 54.6735 217.038 54.2668 217.074 54.112C217.082 54.078 217.162 53.9886 217.188 53.9654C217.27 53.8937 217.474 53.6974 217.55 53.6205L225.02 46.0924Z" fill="url(#paint1_linear_242_49)"/>
<path d="M108.734 204.382C108.35 203.197 109.232 201.982 110.478 201.98L126.111 201.961C126.908 201.96 127.614 202.473 127.859 203.23L132.095 216.29L113.94 216.313C113.144 216.314 112.438 215.801 112.192 215.043L108.734 204.382Z" fill="url(#paint2_linear_242_49)"/>
<path d="M178.53 126.537C178.776 125.784 179.477 125.273 180.27 125.271L194.044 125.23L188.376 142.625C188.13 143.379 187.429 143.889 186.636 143.892L175.398 143.925C174.148 143.929 173.26 142.709 173.648 141.521L178.53 126.537Z" fill="url(#paint3_linear_242_49)"/>
<path d="M34.9958 59.7336C36.0647 60.7981 36.188 62.4849 35.3214 63.7197C9.79106 100.098 7.67865 147.903 28.984 186.172C30.2356 188.42 33.4918 188.038 34.2985 185.594L50.4602 136.642C50.7065 135.896 51.4001 135.39 52.1856 135.382L66.0449 135.25L61.148 150.082C60.4933 152.065 61.9823 154.104 64.0705 154.084L72.4215 154.004C73.6794 153.992 74.5764 155.22 74.182 156.415L69.1665 171.606C68.9202 172.352 68.2266 172.859 67.4411 172.866L55.8078 172.978C54.4819 172.99 53.3164 173.859 52.9255 175.126L47.7344 191.953L43.3569 205.815C43.3115 205.974 43.2418 206.04 43.1641 206.172C43.125 206.128 43.203 206.216 43.1641 206.172L35.1416 214.134C33.9016 215.365 31.8757 215.3 30.7459 213.967C-8.02707 168.239 -10.1282 102.035 24.4423 54.0874C25.5195 52.5934 27.6759 52.4442 28.9809 53.7438L34.9958 59.7336Z" fill="url(#paint4_linear_242_49)"/>
<path d="M46.7472 34.4242C45.4968 33.1792 45.5647 31.1289 46.9207 29.9998C92.4034 -7.87635 157.666 -9.88716 205.249 23.9672C206.757 25.0399 206.912 27.2081 205.606 28.5181L199.602 34.536C198.543 35.5975 196.869 35.7253 195.636 34.8723C163.393 12.5712 122.336 8.53146 86.9002 22.753C83.9531 23.9358 84.8698 27.9053 88.0455 27.9029L124.288 27.8762C125.084 27.8756 125.789 28.3875 126.035 29.144L130.285 42.2104L114.954 42.2216C112.885 42.2231 111.419 44.243 112.059 46.2109L114.644 54.1584C115.03 55.3439 114.147 56.5607 112.9 56.5616L97.2375 56.5733C96.442 56.5738 95.7367 56.0619 95.4906 55.3055L91.9273 44.3501C91.518 43.092 90.3437 42.2418 89.0208 42.2457L56.4642 42.3423C56.2501 42.3425 56.0631 42.356 55.8936 42.3457C55.6612 42.3316 55.1529 42.3822 54.9276 42.3234C54.789 42.2872 54.6219 42.2643 54.5204 42.1632L46.7472 34.4242Z" fill="url(#paint5_linear_242_49)"/>
<path d="M71.8646 117.623C72.1109 116.877 72.8045 116.37 73.59 116.363L84.8847 116.254C86.1427 116.242 87.0397 117.471 86.6453 118.665L81.6297 133.857C81.3834 134.603 80.6897 135.11 79.9042 135.117L66.0449 135.25L71.8646 117.623Z" fill="url(#paint6_linear_242_49)"/>
<path d="M148.473 42.197C149.268 42.1964 149.973 42.7083 150.22 43.4648L153.688 54.1298C154.074 55.3153 153.191 56.5321 151.944 56.5331L136.282 56.5446C135.486 56.5452 134.781 56.0333 134.535 55.2768L130.285 42.2104L148.473 42.197Z" fill="url(#paint7_linear_242_49)"/>
</g>
<defs>
<filter id="filter0_ii_242_49" x="0" y="0" width="260" height="262" filterUnits="userSpaceOnUse" color-interpolation-filters="sRGB">
<feFlood flood-opacity="0" result="BackgroundImageFix"/>
<feBlend mode="normal" in="SourceGraphic" in2="BackgroundImageFix" result="shape"/>
<feColorMatrix in="SourceAlpha" type="matrix" values="0 0 0 0 0 0 0 0 0 0 0 0 0 0 0 0 0 0 127 0" result="hardAlpha"/>
<feOffset dy="2"/>
<feGaussianBlur stdDeviation="2"/>
<feComposite in2="hardAlpha" operator="arithmetic" k2="-1" k3="1"/>
<feColorMatrix type="matrix" values="0 0 0 0 1 0 0 0 0 1 0 0 0 0 1 0 0 0 0.2 0"/>
<feBlend mode="normal" in2="shape" result="effect1_innerShadow_242_49"/>
<feColorMatrix in="SourceAlpha" type="matrix" values="0 0 0 0 0 0 0 0 0 0 0 0 0 0 0 0 0 0 127 0" result="hardAlpha"/>
<feOffset dy="-3.1"/>
<feComposite in2="hardAlpha" operator="arithmetic" k2="-1" k3="1"/>
<feColorMatrix type="matrix" values="0 0 0 0 0 0 0 0 0 0 0 0 0 0 0 0 0 0 0.2 0"/>
<feBlend mode="normal" in2="effect1_innerShadow_242_49" result="effect2_innerShadow_242_49"/>
</filter>
<linearGradient id="paint0_linear_242_49" x1="130" y1="260" x2="130" y2="0" gradientUnits="userSpaceOnUse">
<stop stop-color="#D1F5E2"/>
<stop offset="1" stop-color="#CBFFE4"/>
</linearGradient>
<linearGradient id="paint1_linear_242_49" x1="130" y1="260" x2="130" y2="0" gradientUnits="userSpaceOnUse">
<stop stop-color="#D1F5E2"/>
<stop offset="1" stop-color="#CBFFE4"/>
</linearGradient>
<linearGradient id="paint2_linear_242_49" x1="130" y1="260" x2="130" y2="0" gradientUnits="userSpaceOnUse">
<stop stop-color="#D1F5E2"/>
<stop offset="1" stop-color="#CBFFE4"/>
</linearGradient>
<linearGradient id="paint3_linear_242_49" x1="130" y1="260" x2="130" y2="0" gradientUnits="userSpaceOnUse">
<stop stop-color="#D1F5E2"/>
<stop offset="1" stop-color="#CBFFE4"/>
</linearGradient>
<linearGradient id="paint4_linear_242_49" x1="130" y1="260" x2="130" y2="0" gradientUnits="userSpaceOnUse">
<stop stop-color="#D1F5E2"/>
<stop offset="1" stop-color="#CBFFE4"/>
</linearGradient>
<linearGradient id="paint5_linear_242_49" x1="130" y1="260" x2="130" y2="0" gradientUnits="userSpaceOnUse">
<stop stop-color="#D1F5E2"/>
<stop offset="1" stop-color="#CBFFE4"/>
</linearGradient>
<linearGradient id="paint6_linear_242_49" x1="130" y1="260" x2="130" y2="0" gradientUnits="userSpaceOnUse">
<stop stop-color="#D1F5E2"/>
<stop offset="1" stop-color="#CBFFE4"/>
</linearGradient>
<linearGradient id="paint7_linear_242_49" x1="130" y1="260" x2="130" y2="0" gradientUnits="userSpaceOnUse">
<stop stop-color="#D1F5E2"/>
<stop offset="1" stop-color="#CBFFE4"/>
</linearGradient>
</defs>
</svg>
