<svg width="1608" height="496" viewBox="0 0 1608 496" fill="none" xmlns="http://www.w3.org/2000/svg">
<g filter="url(#filter0_d_238_16)">
<path d="M509.03 137.85V187.905H553.76V213.11H509.03V373.215H479.21V213.11H443V187.905H479.21V138.205C479.21 120.455 490.57 113 507.965 113H564.765V137.85H509.03Z" fill="white"/>
<path d="M619.798 348.01H671.983V373.215H616.603C597.078 373.215 589.978 362.92 589.978 347.655V113H619.798V348.01Z" fill="white"/>
<path d="M674.965 187.905H706.56L733.185 248.965L761.23 318.9H767.265L796.375 248.61L823.355 187.905H854.595L779.69 351.56V406.23C779.69 424.335 769.04 433.21 753.42 433.21H674.255V408.36H749.87V351.205L674.965 187.905Z" fill="white"/>
<path d="M1082.41 187.905H1112.94L1061.11 373.215H1022.77L998.985 280.915L987.27 224.825H981.59L970.94 280.915L948.575 373.215H909.17L856.63 187.905H887.16L913.075 287.305L925.145 343.395H930.825L967.39 187.905H1002.89L1040.52 342.685H1046.2L1056.85 288.015L1082.41 187.905Z" fill="white"/>
<path d="M1121.09 279.85C1121.09 219.855 1155.17 184.355 1207.35 184.355C1256.34 184.355 1289.36 215.24 1289.36 267.425C1289.36 273.815 1289 281.27 1287.94 286.95H1151.62V297.6C1151.62 330.615 1174.34 352.625 1208.42 352.625C1235.4 352.625 1254.92 338.07 1260.6 317.48H1290.07C1282.97 352.98 1249.95 376.765 1207.71 376.765C1154.81 376.765 1121.09 339.49 1121.09 279.85ZM1151.62 264.94H1259.54V257.485C1259.54 228.375 1238.59 208.85 1207.35 208.85C1174.69 208.85 1151.62 229.085 1151.62 259.615V264.94Z" fill="white"/>
<path d="M1314.9 279.85C1314.9 219.855 1348.98 184.355 1401.16 184.355C1450.15 184.355 1483.17 215.24 1483.17 267.425C1483.17 273.815 1482.81 281.27 1481.75 286.95H1345.43V297.6C1345.43 330.615 1368.15 352.625 1402.23 352.625C1429.21 352.625 1448.73 338.07 1454.41 317.48H1483.88C1476.78 352.98 1443.76 376.765 1401.52 376.765C1348.62 376.765 1314.9 339.49 1314.9 279.85ZM1345.43 264.94H1453.35V257.485C1453.35 228.375 1432.4 208.85 1401.16 208.85C1368.5 208.85 1345.43 229.085 1345.43 259.615V264.94Z" fill="white"/>
<path d="M1551.74 348.01H1603.93V373.215H1548.55C1529.02 373.215 1521.92 362.92 1521.92 347.655V113H1551.74V348.01Z" fill="white"/>
</g>
<g filter="url(#filter1_dii_238_16)">
<path d="M178.987 341.79C180.046 340.773 181.679 340.661 182.89 341.489C216.137 364.214 258.618 367.635 294.646 351.754C297.512 350.491 296.543 346.57 293.411 346.574L256.08 346.62C255.283 346.621 254.577 346.108 254.331 345.35L250.095 332.29L265.401 332.272C267.468 332.269 268.933 330.252 268.295 328.285L265.716 320.335C265.332 319.15 266.214 317.934 267.46 317.933L283.093 317.914C283.89 317.913 284.596 318.425 284.842 319.183L288.394 330.133C288.801 331.391 289.974 332.242 291.296 332.24L308.569 332.219L323.881 332.273C324.175 332.274 324.68 332.328 324.68 332.328C324.68 332.328 325.344 332.491 325.541 332.697L332.848 340.316C334.037 341.556 333.963 343.542 332.66 344.663C287.242 383.719 221.245 386.268 173.141 352.309C171.605 351.225 171.466 349.012 172.823 347.709L178.987 341.79Z" fill="url(#paint0_linear_238_16)"/>
<path d="M343.02 162.092C344.259 160.844 346.301 160.903 347.436 162.247C385.582 207.433 388.021 272.495 354.755 320.223C353.688 321.754 351.499 321.918 350.182 320.596L344.167 314.557C343.12 313.507 342.988 311.854 343.818 310.626C368.234 274.512 369.995 227.649 349.103 189.984C347.857 187.738 344.608 188.108 343.789 190.542L339.307 203.869L327.559 239.922C327.313 240.676 326.611 241.186 325.819 241.189L312.044 241.23L316.82 226.575C317.463 224.602 315.989 222.578 313.914 222.584L305.558 222.609C304.309 222.613 303.421 221.393 303.808 220.205L308.69 205.221C308.936 204.468 309.637 203.957 310.43 203.955L322 203.92C323.315 203.916 324.48 203.068 324.887 201.817L330.284 185.255L334.828 170.912C334.903 170.674 335.038 170.267 335.074 170.112C335.082 170.078 335.162 169.989 335.188 169.965C335.27 169.894 335.474 169.697 335.55 169.62L343.02 162.092Z" fill="url(#paint1_linear_238_16)"/>
<path d="M226.734 320.382C226.35 319.197 227.232 317.982 228.478 317.98L244.111 317.961C244.908 317.96 245.614 318.473 245.859 319.23L250.095 332.29L231.94 332.313C231.144 332.314 230.438 331.801 230.192 331.043L226.734 320.382Z" fill="url(#paint2_linear_238_16)"/>
<path d="M296.53 242.537C296.776 241.784 297.477 241.273 298.27 241.271L312.044 241.23L306.376 258.625C306.13 259.379 305.429 259.889 304.636 259.892L293.398 259.925C292.148 259.929 291.26 258.709 291.648 257.521L296.53 242.537Z" fill="url(#paint3_linear_238_16)"/>
<path d="M152.996 175.734C154.065 176.798 154.188 178.485 153.321 179.72C127.791 216.098 125.679 263.903 146.984 302.172C148.236 304.42 151.492 304.038 152.299 301.594L168.46 252.642C168.706 251.896 169.4 251.39 170.186 251.382L184.045 251.25L179.148 266.082C178.493 268.065 179.982 270.104 182.07 270.084L190.421 270.004C191.679 269.992 192.576 271.22 192.182 272.415L187.166 287.606C186.92 288.352 186.227 288.859 185.441 288.866L173.808 288.978C172.482 288.99 171.316 289.859 170.925 291.126L165.734 307.953L161.357 321.815C161.311 321.974 161.242 322.04 161.164 322.172C161.125 322.128 161.203 322.216 161.164 322.172L153.142 330.134C151.902 331.365 149.876 331.3 148.746 329.967C109.973 284.239 107.872 218.035 142.442 170.087C143.519 168.593 145.676 168.444 146.981 169.744L152.996 175.734Z" fill="url(#paint4_linear_238_16)"/>
<path d="M164.747 150.424C163.497 149.179 163.565 147.129 164.921 146C210.403 108.124 275.666 106.113 323.249 139.967C324.757 141.04 324.912 143.208 323.606 144.518L317.602 150.536C316.543 151.597 314.869 151.725 313.636 150.872C281.393 128.571 240.336 124.531 204.9 138.753C201.953 139.936 202.87 143.905 206.045 143.903L242.288 143.876C243.084 143.876 243.789 144.388 244.035 145.144L248.285 158.21L232.954 158.222C230.885 158.223 229.419 160.243 230.059 162.211L232.644 170.158C233.03 171.344 232.147 172.561 230.9 172.562L215.237 172.573C214.442 172.574 213.737 172.062 213.491 171.305L209.927 160.35C209.518 159.092 208.344 158.242 207.021 158.246L174.464 158.342C174.25 158.342 174.063 158.356 173.894 158.346C173.661 158.332 173.153 158.382 172.928 158.323C172.789 158.287 172.622 158.264 172.52 158.163L164.747 150.424Z" fill="url(#paint5_linear_238_16)"/>
<path d="M189.865 233.623C190.111 232.877 190.805 232.37 191.59 232.363L202.885 232.254C204.143 232.242 205.04 233.471 204.645 234.665L199.63 249.857C199.383 250.603 198.69 251.11 197.904 251.117L184.045 251.25L189.865 233.623Z" fill="url(#paint6_linear_238_16)"/>
<path d="M266.473 158.197C267.268 158.196 267.973 158.708 268.22 159.465L271.688 170.13C272.074 171.315 271.191 172.532 269.944 172.533L254.282 172.545C253.486 172.545 252.781 172.033 252.535 171.277L248.285 158.21L266.473 158.197Z" fill="url(#paint7_linear_238_16)"/>
</g>
<defs>
<filter id="filter0_d_238_16" x="439" y="113" width="1168.93" height="328.21" filterUnits="userSpaceOnUse" color-interpolation-filters="sRGB">
<feFlood flood-opacity="0" result="BackgroundImageFix"/>
<feColorMatrix in="SourceAlpha" type="matrix" values="0 0 0 0 0 0 0 0 0 0 0 0 0 0 0 0 0 0 127 0" result="hardAlpha"/>
<feOffset dy="4"/>
<feGaussianBlur stdDeviation="2"/>
<feComposite in2="hardAlpha" operator="out"/>
<feColorMatrix type="matrix" values="0 0 0 0 0 0 0 0 0 0 0 0 0 0 0 0 0 0 0.25 0"/>
<feBlend mode="normal" in2="BackgroundImageFix" result="effect1_dropShadow_238_16"/>
<feBlend mode="normal" in="SourceGraphic" in2="effect1_dropShadow_238_16" result="shape"/>
</filter>
<filter id="filter1_dii_238_16" x="0" y="0" width="496" height="496" filterUnits="userSpaceOnUse" color-interpolation-filters="sRGB">
<feFlood flood-opacity="0" result="BackgroundImageFix"/>
<feColorMatrix in="SourceAlpha" type="matrix" values="0 0 0 0 0 0 0 0 0 0 0 0 0 0 0 0 0 0 127 0" result="hardAlpha"/>
<feOffset dy="2"/>
<feGaussianBlur stdDeviation="59"/>
<feComposite in2="hardAlpha" operator="out"/>
<feColorMatrix type="matrix" values="0 0 0 0 1 0 0 0 0 1 0 0 0 0 1 0 0 0 0.2 0"/>
<feBlend mode="normal" in2="BackgroundImageFix" result="effect1_dropShadow_238_16"/>
<feBlend mode="normal" in="SourceGraphic" in2="effect1_dropShadow_238_16" result="shape"/>
<feColorMatrix in="SourceAlpha" type="matrix" values="0 0 0 0 0 0 0 0 0 0 0 0 0 0 0 0 0 0 127 0" result="hardAlpha"/>
<feOffset dy="2"/>
<feGaussianBlur stdDeviation="2"/>
<feComposite in2="hardAlpha" operator="arithmetic" k2="-1" k3="1"/>
<feColorMatrix type="matrix" values="0 0 0 0 1 0 0 0 0 1 0 0 0 0 1 0 0 0 0.2 0"/>
<feBlend mode="normal" in2="shape" result="effect2_innerShadow_238_16"/>
<feColorMatrix in="SourceAlpha" type="matrix" values="0 0 0 0 0 0 0 0 0 0 0 0 0 0 0 0 0 0 127 0" result="hardAlpha"/>
<feOffset dy="-3.1"/>
<feComposite in2="hardAlpha" operator="arithmetic" k2="-1" k3="1"/>
<feColorMatrix type="matrix" values="0 0 0 0 0 0 0 0 0 0 0 0 0 0 0 0 0 0 0.2 0"/>
<feBlend mode="normal" in2="effect2_innerShadow_238_16" result="effect3_innerShadow_238_16"/>
</filter>
<linearGradient id="paint0_linear_238_16" x1="248" y1="376" x2="248" y2="116" gradientUnits="userSpaceOnUse">
<stop stop-color="#D1F5E2"/>
<stop offset="1" stop-color="#CBFFE4"/>
</linearGradient>
<linearGradient id="paint1_linear_238_16" x1="248" y1="376" x2="248" y2="116" gradientUnits="userSpaceOnUse">
<stop stop-color="#D1F5E2"/>
<stop offset="1" stop-color="#CBFFE4"/>
</linearGradient>
<linearGradient id="paint2_linear_238_16" x1="248" y1="376" x2="248" y2="116" gradientUnits="userSpaceOnUse">
<stop stop-color="#D1F5E2"/>
<stop offset="1" stop-color="#CBFFE4"/>
</linearGradient>
<linearGradient id="paint3_linear_238_16" x1="248" y1="376" x2="248" y2="116" gradientUnits="userSpaceOnUse">
<stop stop-color="#D1F5E2"/>
<stop offset="1" stop-color="#CBFFE4"/>
</linearGradient>
<linearGradient id="paint4_linear_238_16" x1="248" y1="376" x2="248" y2="116" gradientUnits="userSpaceOnUse">
<stop stop-color="#D1F5E2"/>
<stop offset="1" stop-color="#CBFFE4"/>
</linearGradient>
<linearGradient id="paint5_linear_238_16" x1="248" y1="376" x2="248" y2="116" gradientUnits="userSpaceOnUse">
<stop stop-color="#D1F5E2"/>
<stop offset="1" stop-color="#CBFFE4"/>
</linearGradient>
<linearGradient id="paint6_linear_238_16" x1="248" y1="376" x2="248" y2="116" gradientUnits="userSpaceOnUse">
<stop stop-color="#D1F5E2"/>
<stop offset="1" stop-color="#CBFFE4"/>
</linearGradient>
<linearGradient id="paint7_linear_238_16" x1="248" y1="376" x2="248" y2="116" gradientUnits="userSpaceOnUse">
<stop stop-color="#D1F5E2"/>
<stop offset="1" stop-color="#CBFFE4"/>
</linearGradient>
</defs>
</svg>
