<svg width="32" height="32" viewBox="0 0 32 32" fill="none" xmlns="http://www.w3.org/2000/svg">
<g clip-path="url(#clip0_2_105)">
<path d="M32 0H0V31.2H32V0Z" fill="#DBDCDD"/>
<path d="M17.28 10.88H16.1067C16.0534 10.8267 15.9467 10.6267 15.7867 10.2667C15.6267 9.92003 15.4534 9.52003 15.2534 9.08003H10.48V14.6667H14.3867C14.4267 14.4267 14.4934 14.12 14.5867 13.7467C14.68 13.3734 14.7734 13.0534 14.8534 12.7867H15.7334V17.5867H14.8534C14.7867 17.2934 14.7067 16.9467 14.6134 16.56C14.52 16.1734 14.44 15.8667 14.3867 15.64H10.48V21.1067C10.72 21.12 11.04 21.1334 11.4134 21.16C11.8 21.1867 12.2134 21.2267 12.6534 21.28V22.16H6.49338V21.28C6.77338 21.2534 7.10671 21.2134 7.46671 21.1867C7.82671 21.1467 8.12004 21.12 8.33338 21.0934V9.20003C8.16004 9.1867 7.89338 9.16003 7.50671 9.13336C7.13338 9.1067 6.78671 9.0667 6.49338 9.00003V8.13336H17.2934V10.88H17.28Z" fill="#353535"/>
<path d="M18.1334 22.16V21.28C18.44 21.2267 18.72 21.1867 18.9467 21.16C19.1734 21.1334 19.36 21.12 19.52 21.1067V13.4667C19.4267 13.4667 19.2934 13.4534 19.1467 13.44C19 13.4267 18.84 13.4134 18.6934 13.4C18.5334 13.3867 18.3867 13.3734 18.2534 13.3467C18.12 13.32 18.0267 13.3067 17.96 13.2934V12.4134H19.52C19.52 11.76 19.5867 11.0934 19.72 10.4267C19.8534 9.76003 20.12 9.1467 20.52 8.5867C20.92 8.0267 21.4267 7.56003 22.0534 7.17337C22.68 6.7867 23.44 6.5867 24.3334 6.5867C24.5734 6.5867 24.8267 6.60003 25.08 6.61337C25.3334 6.6267 25.56 6.68003 25.76 6.7467V8.6267H24.2667C24.2267 8.5467 24.1467 8.40003 24.04 8.20003C23.9334 8.00003 23.84 7.8267 23.7734 7.6667H23.7334C23.4667 7.64003 23.1867 7.6667 22.92 7.7467C22.6534 7.8267 22.4134 7.9867 22.2 8.21337C21.9867 8.45337 21.8134 8.77337 21.68 9.1867C21.5467 9.60003 21.48 10.12 21.48 10.7467V12.4134H23.68V13.2934C23.56 13.3067 23.4267 13.32 23.24 13.3467C23.0667 13.3734 22.8667 13.3867 22.6667 13.4C22.4667 13.4134 22.2534 13.4267 22.0534 13.44C21.8534 13.4534 21.6534 13.4667 21.4934 13.4667V21.12C21.7334 21.1334 22.04 21.16 22.4 21.2C22.76 21.24 23.0534 21.2667 23.28 21.2934V22.1734H18.1334V22.16Z" fill="#353535"/>
</g>
<defs>
<clipPath id="clip0_2_105">
<rect width="32" height="31.2" fill="white"/>
</clipPath>
</defs>
</svg>
