<svg width="32" height="32" viewBox="0 0 32 32" fill="none" xmlns="http://www.w3.org/2000/svg">
<g clip-path="url(#clip0_2_12)">
<path d="M26.3333 0H5.66667C2.53705 0 0 2.53705 0 5.66667V25.5333C0 28.6629 2.53705 31.2 5.66667 31.2H26.3333C29.4629 31.2 32 28.6629 32 25.5333V5.66667C32 2.53705 29.4629 0 26.3333 0Z" fill="#000B1D"/>
<path d="M17.6392 13.0649C16.8921 15.5689 16.2634 17.9826 15.5163 20.3452C15.0922 21.678 14.6278 22.9502 14.0423 23.7578C13.396 24.6665 12.1844 25.5349 10.7306 25.5349C9.70068 25.5349 8.69102 25.0502 8.69102 23.98C8.69102 23.3136 9.37756 22.6876 9.92281 22.6876C10.0379 22.6831 10.1519 22.7109 10.2518 22.7681C10.3518 22.8252 10.4337 22.9093 10.4882 23.0107C10.993 23.9194 11.4777 24.4444 11.6998 24.4444C11.922 24.4444 12.1037 24.1415 12.4671 22.829L15.1175 13.0666L13.2106 13.0644C13.0692 12.6403 13.2704 12.1325 13.5127 12.0316H15.4109C15.7743 10.8603 16.2029 9.66311 16.8087 8.59288C17.7173 6.95727 19.1712 5.66492 21.1703 5.66492C22.6848 5.66492 23.3107 6.39187 23.3107 7.3208C23.2906 8.31019 22.4223 8.81501 22.0184 8.81501C21.6954 8.81501 21.5338 8.57274 21.4328 8.22947C21.0896 6.93712 20.6453 6.55343 20.3827 6.55343C20.1203 6.55343 19.7164 7.03798 19.2722 8.04764C18.6866 9.31984 18.2926 10.7056 17.9292 12.0382L20.2385 12.0352C20.3798 12.3179 20.265 12.9031 19.9218 13.0646L17.6392 13.0649Z" fill="white"/>
</g>
<defs>
<clipPath id="clip0_2_12">
<rect width="32" height="31.2" fill="white"/>
</clipPath>
</defs>
</svg>
