<svg xmlns="http://www.w3.org/2000/svg" width="300" height="300" fill="none"><g clip-path="url(#a)"><path fill="#734F96" d="M44.01 299.986C26.274 299.992 0 269.031 0 255.695V43.73C0 25.782 31.051 0 44.452 0L256.81.015C275.136.016 300 29.907 300 44.15v212.173c0 20.902-28.002 43.585-43.791 43.59l-212.2.072Z"/><path fill="#fff" d="m41.187 241.619 11.527-.706c23.408-1.529 23.173-1.411 24.349-19.761 1.059-17.409-.275-153.712-1.059-156.445-1.29-4.501-6.135-7.09-20.585-7.087l-14.232-.088V32.007h218.787v97.748l-25.761-.382c-.235-.235-.941-7.146-1.411-13.498-2.706-29.877-9.41-47.067-22.349-53.772-6.823-3.529-17.476-4.57-51.598-4.58l-31.8.009v73.282h5.646c9.528-.118 21.643-2.353 25.643-4.823 5.175-3.176 9.527-12.351 11.057-23.408 1.152-8.07 2.042-14.107 2.042-14.107l25.012-.008V204.92h-25.878v-4.587c0-7.528-3.529-25.055-5.999-30.348-3.882-8.116-10.469-10.939-29.172-12.704l-8.587-.823.471 37.758c.353 35.877.588 37.876 2.823 40.935 2.823 3.764 5.881 4.47 24.584 5.881l12.554.597-.085 25.634H41.186v-25.643Z"/></g><defs><clipPath id="a"><path fill="#fff" d="M0 0h300v299.986H0z"/></clipPath></defs></svg>