<svg width="32" height="32" viewBox="0 0 32 32" fill="none" xmlns="http://www.w3.org/2000/svg">
<g clip-path="url(#clip0_2_223)">
<path d="M26.3333 0H5.66667C2.53705 0 0 2.53705 0 5.66667V25.5333C0 28.6629 2.53705 31.2 5.66667 31.2H26.3333C29.4629 31.2 32 28.6629 32 25.5333V5.66667C32 2.53705 29.4629 0 26.3333 0Z" fill="#001E36"/>
<path d="M11.2883 16.6201V21.8794C11.2917 21.9027 11.2895 21.9265 11.2821 21.9489C11.2747 21.9712 11.2621 21.9915 11.2454 22.0082C11.2288 22.0249 11.2084 22.0374 11.1861 22.0449C11.1637 22.0523 11.1399 22.0545 11.1166 22.0511H8.47617C8.45451 22.0538 8.43252 22.0513 8.41201 22.0438C8.39149 22.0364 8.37303 22.0241 8.35814 22.0082C8.33243 21.9625 8.32119 21.9101 8.32591 21.8579V8.14074C8.32591 7.94048 8.376 7.84029 8.47618 7.84019H16.977C17.0292 7.83557 17.0816 7.84679 17.1273 7.87238C17.1558 7.89386 17.1773 7.99047 17.1917 8.16219L17.4278 10.5021C17.4348 10.5227 17.4355 10.545 17.4297 10.566C17.424 10.5871 17.4121 10.6059 17.3956 10.6201C17.3772 10.6381 17.3553 10.6521 17.3314 10.6613C17.3074 10.6706 17.2817 10.6748 17.2561 10.6738H11.2883V13.9367H16.655C16.7838 13.9367 16.8482 13.987 16.8482 14.087V16.4483C16.8515 16.4717 16.8494 16.4955 16.8419 16.5178C16.8345 16.5402 16.8219 16.5605 16.8053 16.5772C16.7886 16.5938 16.7683 16.6064 16.7459 16.6138C16.7236 16.6213 16.6998 16.6234 16.6764 16.6201L11.2883 16.6201Z" fill="#31A8FF"/>
<path d="M18.7373 11.3822H21.0772C21.1407 11.3828 21.2023 11.404 21.2527 11.4428C21.3031 11.4815 21.3394 11.5356 21.3562 11.5969C21.4073 11.691 21.4435 11.7923 21.4636 11.8974C21.4935 12.0355 21.515 12.1753 21.528 12.3161C21.542 12.4663 21.5492 12.6273 21.5495 12.799C21.9507 12.3318 22.4346 11.9425 22.9769 11.6506C23.5862 11.3212 24.2702 11.1548 24.9626 11.1676C24.9889 11.1638 25.0156 11.1662 25.0408 11.1746C25.0659 11.183 25.0888 11.1971 25.1075 11.2159C25.1263 11.2346 25.1404 11.2575 25.1488 11.2826C25.1572 11.3078 25.1596 11.3345 25.1558 11.3608V13.9583C25.1558 14.0585 25.084 14.1085 24.9412 14.1085C24.0765 14.055 23.2115 14.2096 22.4189 14.5593C22.1495 14.6758 21.9052 14.8435 21.6997 15.053V21.858C21.6997 21.9868 21.6425 22.0512 21.528 22.0512H18.9305C18.9013 22.0554 18.8716 22.0527 18.8436 22.0434C18.8157 22.0341 18.7903 22.0184 18.7694 21.9976C18.7486 21.9767 18.7329 21.9513 18.7236 21.9234C18.7143 21.8954 18.7116 21.8657 18.7158 21.8365V14.452C18.7158 14.1373 18.7122 13.8046 18.7051 13.4538C18.6977 13.1033 18.687 12.7562 18.6729 12.4126C18.6634 12.1177 18.6347 11.8237 18.587 11.5325C18.5817 11.5117 18.5818 11.4899 18.5875 11.4692C18.5931 11.4485 18.6041 11.4296 18.6192 11.4145C18.6344 11.3993 18.6533 11.3883 18.674 11.3827C18.6947 11.377 18.7165 11.3769 18.7373 11.3822H18.7373Z" fill="#31A8FF"/>
</g>
<defs>
<clipPath id="clip0_2_223">
<rect width="32" height="31.2" fill="white"/>
</clipPath>
</defs>
</svg>
