<svg id="Calque_1" data-name="Calque 1" xmlns="http://www.w3.org/2000/svg" viewBox="0 0 285.21 283.07"><defs><style>.cls-1{fill:#227371;}</style></defs><title>friym</title><circle class="cls-1" cx="115.02" cy="106.5" r="12.14"/><path class="cls-1" d="M170.91,142.3c-8.74,5.19-17.66,8.66-27.58,8.65s-18.85-3.5-27.57-8.72c-10.3-6.15-18.44,8-8.33,14,11.26,6.63,23,11,35.89,11s24.63-4.3,35.89-10.91h0C189.3,150.38,181.23,136.17,170.91,142.3Z"/><circle class="cls-1" cx="171.77" cy="106.52" r="12.14"/><path class="cls-1" d="M266.51,77.68q-22-41.46-64.26-61.44A138.5,138.5,0,0,0,121.74,4.87C61.58,14.65,15.15,60.77,5.62,121.5A119.66,119.66,0,0,0,4.46,137q-.22,11.46.12,15.55,4.33,51.11,39.88,87.57v0a.39.39,0,0,1,0,.55Q30.12,255,20,265.23q-3,3.07-3.56,5C15.2,274.8,17.72,280.5,22.7,281q2.78.24,7,.24,24.56-.11,99.21-.07,18.27,0,19.8,0C206,279,254.62,242.61,274.4,188.83,287.45,153.3,284.26,111.14,266.51,77.68Zm-25.74,59.17c0,6.79-2.73,12.2-9.62,13.83-1.73.41-4.15.21-6.18.26h-.1a.45.45,0,0,0-.38.51c0,5.45,0,8.57,0,9.39-.62,17.71-13.41,33.09-30.4,37.45q-5.29,1.35-17.53,1.35H122.75a4.63,4.63,0,0,0-2.56.78L92.45,218.94q-5.62,3.78-9.09,4.55C74.76,225.38,65.13,220,63,210.93a39.11,39.11,0,0,1-.65-8.3q0-30.94,0-51.2a.49.49,0,0,0-.53-.55c-2.23-.09-4.92.25-7-.45a11.84,11.84,0,0,1-7.82-7.21q-.94-2.56-.9-9.78,0-8-.05-13.86-.13-7.35,1.27-10.23,2.93-6,10.28-6.88c1.12-.13,3,.13,4.31-.05a.49.49,0,0,0,.45-.52c.06-3.39-.22-9.38.45-13.51,2.62-16.29,14.57-29.92,31.06-33.51A67.61,67.61,0,0,1,107,54q36.1,0,72.17,0,10.76,0,15.66,1.35c18,4.91,29.63,21.52,29.58,40v6.74a.42.42,0,0,0,.45.38c6.63-.52,12.67,1.31,15,8q.83,2.32.83,8.37l0,0Z"/></svg>