<?xml version="1.0" encoding="utf-8"?>
<!-- Generator: Adobe Illustrator 21.0.0, SVG Export Plug-In . SVG Version: 6.00 Build 0)  -->
<svg version="1.1" id="Calque_1" xmlns="http://www.w3.org/2000/svg" xmlns:xlink="http://www.w3.org/1999/xlink" x="0px" y="0px"
	 viewBox="0 0 653.5 169.2" style="enable-background:new 0 0 653.5 169.2;" xml:space="preserve">
<style type="text/css">
	.st0{fill:#227371;}
	.st1{fill:#FFFFFF;}
</style>
<title>fm_fullemerald</title>
<g>
	<path class="st0" d="M220.9,84.5h-23.4V59.6h23c-0.1-1.2-0.2-2.3-0.1-3.5c0-22.1,15.8-33.7,43.7-33.7c12.2,0,20.2,2.3,26,5.4v23
		c-4.4-2.5-10-3.8-16.6-3.8c-12.9,0-17.3,5.1-17.3,12.6h32.2v25h-31.6v48.2h-35.8V84.5z"/>
	<path class="st0" d="M299.5,47h35.2v27.3c4-20.3,12.8-29.2,26.3-29.2c4.7-0.1,9.3,1.1,13.3,3.5v31.6c-2.9-1.9-7.9-3.7-14.5-3.7
		c-15,0-24.3,8.5-24.3,29.2v27h-35.9L299.5,47z"/>
	<path class="st0" d="M383.9,44.1c0-5.8,8.2-10,19.6-10s19.2,4.2,19.2,10c0,6-7.9,10.2-19.2,10.2S383.9,50.2,383.9,44.1z"/>
	<path class="st0" d="M431.7,139.2h22c2.2,5.6,6,7.9,13,7.9c9.7,0,13.9-5.3,13.9-18.1c0,0-10.4,2.9-18,2.9
		c-15.3,0-31.5-11.9-31.5-42.8V46.7h22v42.3c0,13.3,5.6,18.9,13.8,18.9c7.9,0,13.8-6,13.8-18.9V46.7h22v81.3
		c0,29.3-16.1,41.1-35.9,41.1C449.6,169.2,435.4,160,431.7,139.2"/>
	<path class="st0" d="M510.3,47h31v20.1c4.4-16.6,13.3-23.9,27.2-23.9s22.8,8.4,26.2,23.5c4.4-16.1,13.6-23.5,27.7-23.5
		c18.6,0,28.5,13.8,28.5,39v50.6h-31.4V90.4c0-11.3-3.5-18-11.2-18c-8.1,0-12.1,7.2-12.1,18v42.4H565V89.1c0-10.1-3.5-16.7-11-16.7
		c-8,0-12.3,7.8-12.3,19.6v40.8h-31.3V47z"/>
	<path class="st0" d="M402.6,64.8c-6.2,0.1-12.3-1.7-17.5-5V133h36V59.2C415.6,63,409.1,64.9,402.6,64.8z"/>
	<path class="st1" d="M143,66.3c-1.4-4-5-5.1-9-4.8c-0.1,0-0.3-0.1-0.3-0.2c0,0,0,0,0,0v-4c0-11-6.9-20.9-17.6-23.9
		c-3.1-0.6-6.2-0.9-9.3-0.8c-14.3,0-28.7,0-43,0c-2.6-0.1-5.3,0.1-7.9,0.5c-9.7,2.2-17.1,10.2-18.5,20c-0.3,2.7-0.4,5.4-0.3,8.1
		c0,0.2-0.1,0.3-0.3,0.3c0,0,0,0,0,0c-0.8,0.1-1.9,0-2.6,0c-2.6,0.2-5,1.7-6.1,4.1c-0.6,1.1-0.8,3.2-0.8,6.1c0,2.3,0,5.1,0,8.3
		c-0.1,2,0.1,3.9,0.5,5.8c0.8,2.1,2.5,3.7,4.7,4.3c1.4,0.3,2.8,0.4,4.2,0.3c0.2,0,0.3,0.1,0.3,0.3c0,0,0,0,0,0c0,0,0,0,0,0.1
		c0,8.1,0,18.2,0,30.5c0,1.7,0.1,3.3,0.4,4.9c1.4,5.3,6.8,8.6,12.2,7.5c1.9-0.6,3.8-1.5,5.4-2.7l16.5-11c0.5-0.3,1-0.5,1.5-0.5h32.1
		c3.5,0.1,7-0.1,10.5-0.8c10.3-2.7,17.6-11.7,18.1-22.3c0-0.5,0-2.3,0-5.6c0-0.1,0.1-0.3,0.2-0.3h0.1c1.2,0.1,2.5,0,3.7-0.2
		c4.1-1,5.7-4.2,5.7-8.3V71.3l0,0C143.5,69.6,143.4,67.9,143,66.3z M68.5,56.7c4,0,7.2,3.2,7.2,7.2s-3.2,7.2-7.2,7.2
		s-7.2-3.2-7.2-7.2l0,0C61.3,59.9,64.5,56.7,68.5,56.7z M106.8,93.6L106.8,93.6c-6.7,3.9-13.7,6.5-21.4,6.5S70.7,97.5,64,93.6
		c-6-3.6-1.2-12,5-8.3c5.2,3.1,10.5,5.2,16.4,5.2s11.2-2.1,16.4-5.2C108,81.6,112.8,90.1,106.8,93.6z M102.3,71.2
		c-4,0-7.2-3.2-7.2-7.2c0-4,3.2-7.2,7.2-7.2c4,0,7.2,3.2,7.2,7.2v0C109.6,67.9,106.3,71.2,102.3,71.2L102.3,71.2z"/>
	<circle class="st0" cx="68.5" cy="63.9" r="7.2"/>
	<path class="st0" d="M101.8,85.3c-5.2,3.1-10.5,5.2-16.4,5.2s-11.3-2.1-16.4-5.2c-6.1-3.7-11,4.8-5,8.3c6.7,4,13.7,6.6,21.4,6.6
		s14.7-2.6,21.4-6.5l0,0C112.8,90.1,108,81.6,101.8,85.3z"/>
	<circle class="st0" cx="102.3" cy="63.9" r="7.2"/>
	<path class="st0" d="M158.9,46.7c-16.5-31.5-51.2-49-86.3-43.4C36.7,8.9,8.7,37,3.2,72.9c-0.4,3.1-0.7,6.2-0.7,9.3
		c-0.1,4.6-0.1,7.7,0.1,9.3c1.4,19.7,9.9,38.2,23.8,52.2l0,0c0.1,0.1,0.1,0.2,0,0.3c0,0,0,0,0,0c-5.7,5.7-10.6,10.6-14.6,14.6
		c-0.9,0.8-1.7,1.8-2.1,3c-0.7,2.7,0.8,6.1,3.7,6.4c1.1,0.1,2.5,0.1,4.2,0.1c9.8,0,29.5,0,59.2,0c7.3,0,11.2,0,11.8,0
		c34.1-1.3,63.1-22.9,74.9-55C171.4,91.8,169.4,66.7,158.9,46.7z M143.5,82c0,4.1-1.6,7.3-5.7,8.3c-1.2,0.2-2.5,0.2-3.7,0.2H134
		c-0.1,0-0.2,0.2-0.2,0.3c0,3.3,0,5.1,0,5.6c-0.5,10.6-7.8,19.7-18.1,22.3c-3.4,0.7-7,0.9-10.5,0.8H73.1c-0.5,0-1.1,0.2-1.5,0.5
		L55,131c-1.6,1.2-3.5,2.1-5.4,2.7c-5.4,1.1-10.7-2.2-12.2-7.5c-0.3-1.6-0.4-3.3-0.4-4.9c0-12.3,0-22.5,0-30.5c0,0,0,0,0-0.1
		c0-0.2-0.1-0.3-0.3-0.3c0,0,0,0,0,0c-1.4,0.1-2.8,0-4.2-0.3c-2.1-0.6-3.9-2.2-4.7-4.3c-0.5-1.9-0.6-3.9-0.5-5.8c0-3.2,0-5.9,0-8.3
		c-0.1-2.9,0.2-5,0.8-6.1c1.1-2.4,3.5-4,6.1-4.1c0.7-0.1,1.8,0.1,2.6,0c0.2,0,0.3-0.1,0.3-0.3c0,0,0,0,0,0c-0.1-2.7,0-5.4,0.3-8.1
		c1.5-9.8,8.8-17.8,18.5-20c2.6-0.4,5.2-0.6,7.9-0.5c14.4,0,28.7,0,43,0c3.1-0.1,6.3,0.2,9.3,0.8c10.7,2.9,17.7,12.8,17.6,23.9v4
		c0,0.1,0.1,0.2,0.3,0.2c0,0,0,0,0,0c4-0.3,7.6,0.8,9,4.8c0.4,1.6,0.6,3.3,0.5,5l0,0L143.5,82z"/>
</g>
</svg>
