<svg id="Calque_1" data-name="Calque 1" xmlns="http://www.w3.org/2000/svg" viewBox="0 0 653.5 169.17"><defs><style>.cls-1{fill:#227371;}</style></defs><title>friym-wordmak</title><circle class="cls-1" cx="68.5" cy="63.92" r="7.24"/><path class="cls-1" d="M101.83,85.28c-5.21,3.1-10.53,5.17-16.45,5.16s-11.25-2.09-16.44-5.2c-6.14-3.67-11,4.77-5,8.33,6.72,4,13.7,6.55,21.41,6.56s14.69-2.57,21.41-6.51h0C112.81,90.09,108,81.62,101.83,85.28Z"/><circle class="cls-1" cx="102.35" cy="63.93" r="7.24"/><path class="cls-1" d="M158.86,46.73A82.87,82.87,0,0,0,72.51,3.3,83,83,0,0,0,3.24,72.87a71.35,71.35,0,0,0-.69,9.26q-.13,6.84.07,9.27a82.65,82.65,0,0,0,23.79,52.24h0a.23.23,0,0,1,0,.33q-8.55,8.54-14.58,14.62a7.93,7.93,0,0,0-2.13,3c-.74,2.74.76,6.14,3.73,6.41q1.66.14,4.2.14,14.65-.07,59.18,0,10.9,0,11.81,0c34.12-1.26,63.15-22.94,74.94-55C171.35,91.84,169.45,66.69,158.86,46.73ZM143.51,82c0,4.05-1.63,7.27-5.74,8.25a20.5,20.5,0,0,1-3.69.16H134a.27.27,0,0,0-.23.3c0,3.25,0,5.11,0,5.6a24.27,24.27,0,0,1-18.13,22.34,47.49,47.49,0,0,1-10.46.8H73.11a2.76,2.76,0,0,0-1.53.47L55,131a17.54,17.54,0,0,1-5.42,2.72,10.4,10.4,0,0,1-12.16-7.49,23.34,23.34,0,0,1-.39-4.95q0-18.46,0-30.54a.29.29,0,0,0,0-.06.29.29,0,0,0-.32-.27,15.79,15.79,0,0,1-4.18-.27,7.06,7.06,0,0,1-4.66-4.3A19.56,19.56,0,0,1,27.36,80q0-4.76,0-8.27-.08-4.39.75-6.1a7.26,7.26,0,0,1,6.13-4.11c.67-.07,1.77.08,2.57,0a.29.29,0,0,0,.27-.31,62,62,0,0,1,.27-8.06,24.18,24.18,0,0,1,18.53-20,40.33,40.33,0,0,1,7.89-.55q21.53,0,43,0a38.83,38.83,0,0,1,9.34.8c10.74,2.93,17.67,12.84,17.64,23.87v4a.25.25,0,0,0,.27.23c4-.31,7.56.78,9,4.78a17,17,0,0,1,.5,5l0,0Z"/><path class="cls-1" d="M220.94,84.53H197.49V59.6h23a28.23,28.23,0,0,1-.15-3.52c0-22.14,15.83-33.73,43.69-33.73,12.17,0,20.23,2.31,26,5.4v23c-4.4-2.49-10-3.81-16.57-3.81-12.9,0-17.3,5.13-17.3,12.61H288.4V84.52H256.77v48.24H220.94Z"/><path class="cls-1" d="M299.54,47h35.18V74.27C338.68,54,347.48,45.1,361,45.1a25.12,25.12,0,0,1,13.34,3.52V80.25c-2.93-1.91-7.92-3.67-14.51-3.67-15,0-24.34,8.49-24.34,29.18v27h-35.9Z"/><path class="cls-1" d="M383.85,44.13c0-5.83,8.21-10,19.64-10s19.2,4.19,19.2,10c0,6-7.92,10.22-19.2,10.22S383.85,50.16,383.85,44.13Z"/><path class="cls-1" d="M431.74,139.16h22c2.2,5.62,6,7.85,13,7.85,9.68,0,13.93-5.29,13.93-18.07,0,0-10.41,2.9-18,2.9-15.25,0-31.53-11.94-31.53-42.8V46.74h22V89.05c0,13.3,5.57,18.93,13.78,18.93,7.92,0,13.78-6,13.78-18.93V46.74h22v81.34c0,29.32-16.12,41.09-35.92,41.09-17.15,0-31.37-9.2-35-30"/><path class="cls-1" d="M510.34,47h31V67.05c4.36-16.57,13.34-23.92,27.19-23.92s22.83,8.36,26.16,23.46c4.36-16.13,13.59-23.46,27.71-23.46,18.6,0,28.47,13.78,28.47,39v50.58H619.49V90.39c0-11.29-3.47-18-11.16-18-8.08,0-12.06,7.18-12.06,18v42.37H565V89.05c0-10.12-3.46-16.71-11-16.71-8,0-12.35,7.77-12.35,19.64v40.76H510.34Z"/><path class="cls-1" d="M402.56,64.76a31.77,31.77,0,0,1-17.54-5V133H421V59.21A31.27,31.27,0,0,1,402.56,64.76Z"/></svg>