<svg xmlns="http://www.w3.org/2000/svg" fill="none" viewBox="0 0 27 32"><path fill="#3551F3" d="M20.395 32a6.35 6.35 0 0 1-3.516-1.067A6.355 6.355 0 0 1 13.362 32c-1.249 0-2.48-.375-3.516-1.067A6.265 6.265 0 0 1 6.372 32h-.038a6.255 6.255 0 0 1-4.5-1.906 6.377 6.377 0 0 1-1.836-4.482v-12.25C0 5.995 5.994 0 13.362 0c7.369 0 13.363 5.994 13.363 13.363v12.253c0 3.393-2.626 6.192-5.978 6.375-.117.007-.234.009-.352.009Z"/><path fill="#000" d="M20.395 30.593a4.932 4.932 0 0 1-3.08-1.083.656.656 0 0 0-.42-.145.784.784 0 0 0-.487.176 4.939 4.939 0 0 1-3.046 1.055 4.939 4.939 0 0 1-3.045-1.055.751.751 0 0 0-.942 0 4.883 4.883 0 0 1-3.01 1.055h-.033a4.852 4.852 0 0 1-3.49-1.482 4.982 4.982 0 0 1-1.436-3.498V13.367c0-6.597 5.364-11.96 11.957-11.96 6.592 0 11.956 5.363 11.956 11.956v12.253c0 2.645-2.042 4.827-4.65 4.97a5.342 5.342 0 0 1-.274.007Z"/><path fill="#fff" d="M23.912 13.363v12.253c0 1.876-1.447 3.463-3.32 3.566a3.503 3.503 0 0 1-2.398-.769c-.778-.626-1.873-.598-2.658.021a3.5 3.5 0 0 1-2.176.753 3.494 3.494 0 0 1-2.173-.753 2.153 2.153 0 0 0-2.684 0 3.498 3.498 0 0 1-2.15.753c-1.948.014-3.54-1.627-3.54-3.575v-12.25c0-5.825 4.724-10.549 10.55-10.549 5.825 0 10.549 4.724 10.549 10.55Z"/><path fill="#000" d="m11.28 12.437-3.93-2.27a1.072 1.072 0 0 0-1.463.392 1.072 1.072 0 0 0 .391 1.463l2.326 1.343-2.326 1.343a1.072 1.072 0 0 0 1.071 1.855l3.932-2.27a1.071 1.071 0 0 0 0-1.854v-.002ZM20.182 12.291h-5.164a1.071 1.071 0 1 0 0 2.143h5.164a1.071 1.071 0 1 0 0-2.143Z"/></svg>