<svg xmlns="http://www.w3.org/2000/svg" width="256" height="360" preserveAspectRatio="xMidYMid"><path fill="#F3D71D" d="M125.883 359.543c-29.818-1.276-50.55-5.242-67.095-12.834-2.415-1.108-2.053-.366-4.657-9.534-4.537-15.967-7.985-30.435-11.679-48.999-1.872-9.41-2.749-13.345-7.073-31.735-7.76-33-10.707-48.173-12.403-63.854-.429-3.972.344-9.402 1.559-10.947.719-.914.733-3.248.021-3.434-.415-.108-.518-.46-.67-2.284-.126-1.514-.323-2.337-.66-2.767-.327-.415-.482-1.027-.482-1.9 0-.708-.115-1.36-.256-1.446-.154-.095-.256-1.832-.256-4.35 0-2.52-.102-4.257-.256-4.352-.14-.087-.256.072-.256.354 0 3.155-2.267-2.591-3.589-9.095-3.391-16.69-8.957-33.277-7.677-22.876.45 3.659 1.28 7.256 3.664 15.878 2.8 10.128 4.076 17.3 3.506 19.711-.814 3.447-6.072-17.253-9.102-35.835-.77-4.715-1.924-11.798-2.567-15.74-1.435-8.806-2.77-15.42-4.594-22.76-1.826-7.346-1.774-8.538.495-11.427 4.677-5.957 18.402-10.587 19.885-6.71 1.017 2.658-1.98 4.5-10.13 6.224-7.064 1.494-7.717 2.563-3.883 6.35 3.834 3.786 26.071 7.17 52.382 7.971 46.598 1.42 76.14 1.793 84.456 1.068 2.041-.177 4.943-.39 6.449-.472 2.738-.15 2.738-.15 2.613-.817-.094-.506.124-.98.899-1.948a88.173 88.173 0 0 0 1.867-2.432c1.579-2.154 4.23-2.976 5.33-1.65 1.376 1.657.16 5.494-2.112 6.67-1.05.542-.749.709 1.674.927 1.15.104 2.75.259 3.557.344 2.439.257 4.298-.624 3.274-1.551-2.258-2.043 1.99-6.164 8.568-8.313.986-.321 1.901-.686 2.035-.81.134-.122.425-.223.648-.223.84 0 3.24-1.861 5.91-4.58 1.52-1.548 3.226-3.107 3.792-3.465.566-.357 1.154-.881 1.305-1.165.46-.86-.436-.628-2.429.628-.985.62-2.367 1.48-3.071 1.91-1.461.894-4.713 3.05-7.84 5.2-1.178.809-2.43 1.666-2.781 1.904-.352.239-.849.61-1.105.823-.565.475-3.192.589-4.654.202-3.795-1.004-4.068-4.336-.828-10.122 1.418-2.533 5.326-7.715 5.819-7.715.122 0 .547-.48.943-1.068.717-1.064 1.172-1.408 3.455-2.612 1.642-.867 2.602-.96 2.863-.281.155.403-.996 2.936-2.293 5.045-2.718 4.421-2.955 4.87-2.7 5.125.362.362 3.129-1.298 3.539-2.124.172-.346.632-1.318 1.022-2.158 2.64-5.689 8.957-6.249 12.843-1.14 1.027 1.351 1.313 1.504 1.318.706.018-2.498 3.496-4.547 7.738-4.56 1.759-.005 1.874-.293.351-.874-2.081-.795-2.2-1.193-.828-2.761 1.902-2.175 1-2.598-2.615-1.225-3.487 1.325-6.876 2.043-9.194 1.946-1.23-.051-2.514.01-2.852.137-.338.127-1.241.284-2.006.349-.766.065-1.485.176-1.599.246-.114.07-.766.052-1.449-.041-3.798-.519-3.446-3.812 1.311-12.24a74.754 74.754 0 0 0 1.949-3.712c.436-.915 2.21-4.543 3.94-8.062 1.732-3.519 3.624-7.434 4.205-8.701.581-1.267 1.342-2.85 1.691-3.52.349-.668.634-1.33.634-1.472 0-.142.295-.861.655-1.6 2.327-4.765 6.037-16.53 5.585-17.707-.091-.24-.015-.398.193-.398.19 0 .921-.384 1.626-.854a84.694 84.694 0 0 1 1.98-1.28c.571-.352.67-.559.552-1.153-.66-3.301 5.435-1.191 13.02 4.507 11.155 8.38 21.059 22.543 29.334 41.95 7.354 17.248 9.285 46.5 4.516 68.415-3.343 15.364-5.619 38.943-8.064 83.56-1.557 28.407-2.447 41.226-3.731 53.746-.347 3.378-.8 8.445-1.007 11.26-1.043 14.135-2.613 27.258-5.284 44.148-.913 5.774-1.041 7.131-1.111 11.773-.263 17.501-6.678 27.44-18.844 29.192-1.18.17-3.642.749-5.472 1.286-14.833 4.355-30.657 6.664-52.337 7.638-17.583.79-22.668.869-31.48.492Zm-60.4-26.47c-3.158-12.875-5.005-18.986-7.225-23.91-2.378-5.272-2.918-5.97-2.624-3.392 1.35 11.85 4.602 22.841 9.897 33.439 2.792 5.588 2.79 5.438-.048-6.138Zm-5.535 8.528c.922-3.438-.552-10.67-4.843-23.77-2.448-7.47-4.251-13.968-4.591-16.538-.223-1.685-.454-1.827-1.412-.869-1.537 1.537-1.072 4.716 2.389 16.349.93 3.13 1.825 6.7 1.986 7.933.947 7.25 5.718 19.706 6.471 16.895Zm86.78-38.114c4.67-3.093 4.057-12.108-1.018-14.983-4.57-2.588-7.023 3.051-5.083 11.681.87 3.871 3.276 5.174 6.101 3.302Zm-13.765-.681c3.482-1.786 4.639-7.744 2.457-12.657-2.152-4.844-6.467-2.39-7.245 4.12-.112.942-.378 2.819-.59 4.17-.76 4.845 1.255 6.48 5.378 4.367Zm-84.739-8.908c.559-4.468-.6-10.924-4.345-24.23-1.063-3.773-2.288-8.668-2.723-10.876-1.421-7.22-3.574-10.738-2.534-4.143.504 3.202 3.353 17.81 3.967 20.347.341 1.407.917 4.958 1.28 7.89.904 7.302 1.697 10.195 3.256 11.88.773.836.899.736 1.1-.868Zm59.232-24.695c19.495-4.467 25.781-28.846 10.394-40.31-9.922-7.392-16.135-7.929-31.636-2.735-3.167 1.061-6.018 2.093-6.336 2.293-1.13.711-2.877 3.231-2.877 4.15 0 .471-.452 1.979-1.005 3.35-7.322 18.161 11.32 37.867 31.46 33.252Zm-24.697-13.952c-7.669-1.145-9.322-7.675-3.452-13.637 4.265-4.33 9.23-4.705 12.875-.972 7.213 7.388 1.503 16.241-9.423 14.61Zm97.236 10.363c13.391-2.25 21.788-17.645 16.266-29.823-12.93-28.517-59.368-14.818-49.184 14.509 4.354 12.538 16.315 18.103 32.918 15.314Zm-26.087-11.835c-5.97-1.47-7.906-6.925-4.707-13.261 3.999-7.922 12.555-7.829 16.776.183 2.55 4.84 1.972 6.452-2.163 6.035-3.718-.375-4.938.156-3.12 1.36 1.324.876 3.018 2.402 3.345 3.012 1.021 1.908-5.861 3.722-10.131 2.67Zm-62.929-105.81c1.001-.145 1.711-.49 3.01-1.46.936-.698 2.42-1.797 3.297-2.44 7.916-5.81 10.463-7.847 13.37-10.69.985-.964 3.864-3.562 6.398-5.772 2.533-2.21 5.08-4.445 5.657-4.966.578-.52 1.615-1.446 2.304-2.055 2.161-1.914 5.988-5.412 8.93-8.164 3.453-3.23 10.918-10.78 10.866-10.99-.124-.502-2.326-.922-4.98-.95-2.755-.03-2.814-.042-2.794-.612.028-.772.06-.768-7.443-.94-60.02-1.387-100.238-3.456-121.974-6.278-2.532-.328-2.791-.32-2.791.086 0 .712 2.072 2.68 3.71 3.525 2.061 1.062 2.092 1.527.126 1.886-2.108.384-2.045.135-1.217 4.766 3.32 18.58 8.201 22.785 18.505 15.946 5.927-3.934 43.901-8.008 68.963-7.4 4.302.105 7.268.06 8.701-.13 1.197-.16 2.832-.35 3.634-.424.803-.074 1.594-.297 1.76-.496.164-.199.739-.362 1.275-.362.537 0 1.3-.133 1.696-.296 2.713-1.114 23.37-1.542 23.37-.484 0 .186-1.062 1.2-3.528 3.364-.576.506-3.56 2.808-6.63 5.116-4.654 3.5-7.764 5.916-9.164 7.121-.14.121-1.68 1.736-3.42 3.588-7.159 7.618-14.634 12.861-21.058 14.769-.898.267-1.262.529-1.468 1.056-.346.888-1.462 2.874-1.812 3.224-.583.583-.298.996.566.821a49.209 49.209 0 0 1 2.141-.358Zm12.255-2.345c.096-.156 2.036-.256 4.965-.256 5.673 0 10.262-.247 10.262-.551 0-.12-.164-.217-.365-.217-1.09 0-1.43-1.273-.743-2.777.854-1.866 1.65-2.763 10.368-11.683 3.44-3.52 6.719-6.974 7.288-7.678 4.922-6.089 8.892-11.883 8.446-12.33-.192-.192-3.97 3.344-4.548 4.257-.226.358-1.32 1.55-2.43 2.648-2.178 2.154-2.305 2.294-6.386 7.089-1.498 1.759-3.05 3.544-3.449 3.966-.399.423-1.294 1.402-1.99 2.176-2.287 2.547-6.488 6.615-8.366 8.102-4.22 3.34-10.737 6.632-12.797 6.464-.695-.057-2.175.299-2.175.523 0 .54 1.612.764 1.92.267Zm58.703-1.008c.326-.49.6-.528 3.838-.532 4.753-.005 7.297-.994 5.532-2.15-.36-.236-.637-.664-.639-.987-.008-1.983-1.474-3.62-2.284-2.553-2.358 3.104-2.798 3.563-3.987 4.158-7.717 3.87-12.3-5.026-8.442-16.385 3.328-9.796 3.594-10.682 4.38-14.582.382-1.889.029-5.603-.541-5.7-1.202-.202-6.755 17.378-9.075 28.734-1 4.89-1.02 4.94-2.368 5.794-4.735 2.999-6.634 1.613-5.138-3.747.468-1.678 1.968-5.833 2.655-7.355.27-.597.49-1.15.49-1.23 0-.08.236-.685.525-1.346 3.369-7.697 4.161-10.502 3.058-10.82-3.182-.917-7.555 1.527-9.464 5.29-.208.41-.638 1.171-.955 1.692-.722 1.186-1.98 3.517-4.115 7.627-2.91 5.6-3.551 6.669-5.513 9.18-2.08 2.662-4.243 3.965-7.722 4.649-2.487.489-2.446.615.256.79 7.018.455 39.141.027 39.509-.527Zm-28.835-1.308c-1.096-.44-1.658-2.728-1.047-4.263 1.207-3.03 2.828-5.553 8.44-13.128 1.198-1.619 2.616-3.605 3.15-4.415 2.847-4.316 3.273 3.312.54 9.662-2.92 6.783-7.716 12.575-10.265 12.396-.127-.009-.495-.122-.818-.252Zm67.97-1.032c1.426-.158 2.658-.43 2.89-.64.279-.25 1.046-.363 2.48-.363 1.142 0 2.147-.115 2.234-.256.087-.14.369-.256.625-.256.428 0 .928-.964.646-1.246-.064-.064-.721.02-1.461.184-1.308.292-2.431.465-4.8.74-3.144.365-11.908.12-14.32-.4-.848-.182-.897-.256-1.167-1.752-.488-2.698-1.918-3.966-3.75-3.324-1.81.635-1.912.968-.473 1.544 1.045.418 2.05 1.245 2.05 1.686 0 .468-1.59 2.056-2.058 2.056-.259 0-.535.104-.613.23-.173.281-3.182 1.214-4.686 1.454-2.828.45-.258.62 9.415.62 5.806 0 11.615-.124 12.989-.277Zm16.633-13.917c1.379-.234 2.872-1.557 2.872-2.544 0-.739-.582-1.129-1.09-.731-.317.247-2.28.764-3.005.791-.211.008-.87.093-1.463.189-3.926.634-14.846-2.828-19.953-6.325-.588-.402-1.137-.732-1.218-.732-.239 0-2.766-1.796-3.535-2.511-2.647-2.466 2.302-2.704 8.766-.423 4.087 1.443 4.624 1.651 5.722 2.218 1.693.875 1.89.96 3.696 1.599 4.158 1.47 4.503 1.119 1.203-1.225-4.915-3.492-10.143-5.655-12.104-5.008-2.126.702-6.981-.565-11.57-3.017-8.216-4.393-11.324-5.19-8.522-2.184 3.756 4.027 8.627 8.52 11.697 10.79 1.91 1.41 4.514 3.19 5.015 3.426.211.1.902.482 1.536.85 1.476.858 6.364 3.053 7.614 3.42 2.443.718 3.663 1.006 4.947 1.17.763.096 1.528.25 1.7.34.412.217 6.287.146 7.692-.093Zm-30.143-37.677c.634-.054 1.67-.15 2.304-.214 1.23-.125 5.03-.893 7.55-1.527.844-.213 4.472-.788 8.061-1.279 13.27-1.814 17.197-3.294 20.494-7.722 1.445-1.939 1.45-2.188.118-4.771-2.668-5.17.132-6.764 6.389-3.635 2.193 1.097 2.175 1.097 2.175.013 0-.983-.195-1.168-1.516-1.44-7.191-1.475-10.513-6.912-6.737-11.026.678-.74.622-1.552-.344-5.016-.425-1.526-.672-1.613-1.91-.679-.485.366-1.38.884-1.99 1.152-1.108.486-1.108.486.025 1.62 3.614 3.613-.956 8.086-8.77 8.584-5.119.326-5.561.484-3.246 1.157 3.913 1.138 4.498 3.573 1.24 5.157-3.036 1.476-2.9 1.588.873.728 6.052-1.38 10.706-1.18 11.292.488 1.615 4.594-1.53 9.3-7.856 11.759-1.513.588-2.419.864-5.502 1.673-1.56.409-6.059 1.097-6.207.949-.072-.072-.322-.029-.556.097-.234.125-1.342.303-2.462.396-6.553.542-10.01.998-17.321 2.288-4.048.713-4.55.844-4.55 1.184 0 .248 5.023.47 6.399.284a49.99 49.99 0 0 1 2.047-.22Zm21.842-36.375c1.007-.675 3.157-2.104 4.777-3.175 5.117-3.385 8.6-7.032 9.326-9.764.192-.723.425-1.503.517-1.732.281-.701-.66-3.238-.997-2.684-1.546 2.55-2.71 4.008-5.003 6.274-3.806 3.76-5.193 5.062-5.655 5.311-.761.411-4.886 5.081-5.249 5.943-.715 1.699-.483 1.681 2.284-.173ZM26.839 73.232c0-.26.385-.98.857-1.6 1.184-1.552 1.702-2.626 1.702-3.527 0-1-.341-.872 5.788-2.182 13.714-2.93 19.588-3.683 30.087-3.858 55.376-.92 71.63-1.427 89.231-2.79 4.479-.346 4.47-.348 5.7 1.591 2.659 4.192-4.868 6.947-16.534 6.053-1.126-.087-6.481-.19-11.9-.231-9.854-.074-9.854-.074-15.204-1.152-7.81-1.573-10.098-1.482-12.347.493-1.055.926-.717.922-3.245.031-6.391-2.252-14.298-2.39-27.044-.471-4.294.646-9.303 1.302-11.133 1.457-9.508.806-18.424 2.453-29.862 5.518-4.755 1.274-6.096 1.421-6.096.668Z"/><path fill="#D5AD2D" d="M125.883 359.543c-29.818-1.276-50.55-5.242-67.095-12.834-2.415-1.108-2.053-.366-4.657-9.534-4.537-15.967-7.985-30.435-11.679-48.999-1.872-9.41-2.749-13.345-7.073-31.735-7.76-33-10.707-48.173-12.403-63.854-.429-3.972.344-9.402 1.559-10.947.719-.914.733-3.248.021-3.434-.415-.108-.518-.46-.67-2.284-.126-1.514-.323-2.337-.66-2.767-.327-.415-.482-1.027-.482-1.9 0-.708-.115-1.36-.256-1.446-.154-.095-.256-1.832-.256-4.35 0-2.52-.102-4.257-.256-4.352-.14-.087-.256.072-.256.354 0 3.155-2.267-2.591-3.589-9.095-3.391-16.69-8.957-33.277-7.677-22.876.45 3.659 1.28 7.256 3.664 15.878 2.8 10.128 4.076 17.3 3.506 19.711-.814 3.447-6.072-17.253-9.102-35.835-.77-4.715-1.924-11.798-2.567-15.74-1.435-8.806-2.77-15.42-4.594-22.76-1.826-7.346-1.774-8.538.495-11.427 4.677-5.957 18.402-10.587 19.885-6.71 1.017 2.658-1.98 4.5-10.13 6.224-7.064 1.494-7.717 2.563-3.883 6.35 3.834 3.786 26.071 7.17 52.382 7.971 46.598 1.42 76.14 1.793 84.456 1.068 2.041-.177 4.943-.39 6.449-.472 2.738-.15 2.738-.15 2.613-.817-.094-.506.124-.98.899-1.948a88.173 88.173 0 0 0 1.867-2.432c1.677-2.288 4.364-3.004 5.451-1.452.72 1.028.387 1.322-.406.359-1.26-1.528-3.168-.916-4.972 1.595a57.216 57.216 0 0 1-1.6 2.1c-1.781 2.206-.163 3.77 2.968 2.868 2.213-.638 4.134-2.902 4.134-4.873 0-.468.085-.614.257-.442.73.729-1.062 4.061-2.614 4.864-1.05.543-.749.71 1.674.928 1.15.104 2.75.259 3.557.344 2.439.257 4.298-.624 3.274-1.551-2.258-2.043 1.99-6.164 8.568-8.313.986-.321 1.901-.686 2.035-.81.134-.122.425-.223.648-.223.839 0 3.24-1.86 5.902-4.572 2.718-2.769 3.97-3.818 4.236-3.55.076.075-.302.46-.84.856-3.971 2.93-4.136 4.057-.302 2.064 5.573-2.896 7.897-3.491 6.092-1.56-2.318 2.48-9.975 6.137-10.904 5.208-.195-.195-.68-.014-1.675.622-.771.493-2.542 1.296-3.936 1.785-4.784 1.677-6.03 2.376-8.8 4.941-8.865 8.207 38.748 4.792 64.907-4.656 4.388-1.585 5.226-2.53 4.874-5.5-.604-5.105-10.593-11.468-13.344-8.501-.655.707-.924.51-.33-.24 1.022-1.294 3.788-1.029 7.23.692 2.194 1.098 2.175 1.098 2.175.007 0-.952-.494-1.4-1.583-1.435-.574-.019-2.859-.948-2.423-.986.119-.01.854.166 1.632.392 5.534 1.609 7.589-1.168 4.932-6.663-.277-.573-1.073-3.288-1.769-6.033-3.649-14.401-11.057-29.943-14.274-29.943-.76 0-.745.036-2.013-4.863-2.177-8.41-3.783-11.504-6.887-13.27-6.745-3.838-8.396-10.813-1.928-8.148 13.88 5.72 28.03 23.22 38.357 47.441 7.354 17.248 9.285 46.5 4.516 68.415-3.343 15.364-5.619 38.943-8.064 83.56-1.557 28.407-2.447 41.226-3.731 53.746-.347 3.378-.8 8.445-1.007 11.26-1.043 14.135-2.613 27.258-5.284 44.148-.913 5.774-1.041 7.131-1.111 11.773-.263 17.501-6.678 27.44-18.844 29.192-1.18.17-3.642.749-5.472 1.286-14.833 4.355-30.657 6.664-52.337 7.638-17.583.79-22.668.869-31.48.492Zm-60.4-26.47c-3.158-12.875-5.005-18.986-7.225-23.91-2.378-5.272-2.918-5.97-2.624-3.392 1.35 11.85 4.602 22.841 9.897 33.439 2.792 5.588 2.79 5.438-.048-6.138Zm-5.535 8.528c.922-3.438-.552-10.67-4.843-23.77-2.448-7.47-4.251-13.968-4.591-16.538-.223-1.685-.454-1.827-1.412-.869-1.537 1.537-1.072 4.716 2.389 16.349.93 3.13 1.825 6.7 1.986 7.933.947 7.25 5.718 19.706 6.471 16.895Zm86.78-38.114c4.67-3.093 4.057-12.108-1.018-14.983-4.57-2.588-7.023 3.051-5.083 11.681.87 3.871 3.276 5.174 6.101 3.302Zm-13.765-.681c3.482-1.786 4.639-7.744 2.457-12.657-2.152-4.844-6.467-2.39-7.245 4.12-.112.942-.378 2.819-.59 4.17-.76 4.845 1.255 6.48 5.378 4.367Zm-84.739-8.908c.559-4.468-.6-10.924-4.345-24.23-1.063-3.773-2.288-8.668-2.723-10.876-1.421-7.22-3.574-10.738-2.534-4.143.504 3.202 3.353 17.81 3.967 20.347.341 1.407.917 4.958 1.28 7.89.904 7.302 1.697 10.195 3.256 11.88.773.836.899.736 1.1-.868Zm59.232-24.695c19.495-4.467 25.781-28.846 10.394-40.31-9.922-7.392-16.135-7.929-31.636-2.735-3.167 1.061-6.018 2.093-6.336 2.293-1.13.711-2.877 3.231-2.877 4.15 0 .471-.452 1.979-1.005 3.35-7.322 18.161 11.32 37.867 31.46 33.252Zm-24.697-13.952c-7.669-1.145-9.322-7.675-3.452-13.637 4.265-4.33 9.23-4.705 12.875-.972 7.213 7.388 1.503 16.241-9.423 14.61Zm97.236 10.363c13.391-2.25 21.788-17.645 16.266-29.823-12.93-28.517-59.368-14.818-49.184 14.509 4.354 12.538 16.315 18.103 32.918 15.314Zm-26.087-11.835c-5.97-1.47-7.906-6.925-4.707-13.261 3.999-7.922 12.555-7.829 16.776.183 2.55 4.84 1.972 6.452-2.163 6.035-3.718-.375-4.938.156-3.12 1.36 1.324.876 3.018 2.402 3.345 3.012 1.021 1.908-5.861 3.722-10.131 2.67Zm-62.925-105.81c1.008-.146 1.706-.485 3.001-1.46.929-.698 2.353-1.754 3.165-2.346 4.468-3.256 8.311-6.18 9.668-7.355 1.76-1.524 2.175-1.805 2.175-1.468 0 .132-.662.778-1.472 1.436-.809.658-1.671 1.36-1.916 1.562-.681.56-5.477 4.131-8.228 6.128-2.95 2.14-2.984 2.259-.605 2.09 3.367-.24 4.068-.412 3.895-.96-.176-.553.87-1.093 1.783-.919.415.08.347.145-.313.302-.463.11-.8.33-.748.487.127.388 1.458.52 1.8.178.178-.178 1.977-.276 5.048-.276 5.64 0 10.225-.247 10.225-.551 0-.12-.164-.217-.365-.217-.41 0-1.17-.677-1.17-1.042 0-.13.23-.007.512.274.363.364.853.512 1.69.512.903 0 1.148.083 1.043.357-.375.976 41.104.883 41.766-.094.323-.478.623-.52 3.838-.523 4.753-.005 7.297-.994 5.532-2.15-.36-.236-.637-.664-.639-.987 0-.314-.284-1.175-.628-1.914-.344-.739-.522-1.343-.396-1.343.329 0 .523.38 1.161 2.274.55 1.635.6 1.691 1.688 1.97 1.09.28 1.1.292.353.415-.422.07.269.129 1.536.131 1.617.004 2.036-.051 1.407-.184-.492-.103-.817-.203-.722-.222.096-.018 1.07-.158 2.165-.31 3.457-.481 5.931-1.394 6.027-2.225.072-.63.18-.698 1.1-.698 1.786 0 1.343-1.717-.534-2.069-.932-.175-1.52-.698-1.26-1.12.254-.41 1.666-1.08 2.007-.95.173.064.083.189-.209.29-1.607.553-1.72.982-.398 1.51 1.054.422 2.062 1.248 2.062 1.69 0 .47-1.59 2.057-2.06 2.057-.258 0-.534.104-.612.23-.173.281-3.182 1.214-4.686 1.454-2.828.45-.258.62 9.415.62 10.692 0 15.146-.257 15.878-.916.279-.252 1.046-.364 2.48-.364 1.142 0 2.147-.115 2.234-.256.087-.14.369-.256.625-.256.428 0 .928-.964.646-1.246-.064-.064-.721.01-1.461.166-2.693.564-3.009.605-3.009.388 0-.121.822-.373 1.827-.559 8.933-1.652 15.786-6.653 18.658-13.618.398-.966 1.556-3.285 2.573-5.153 6.217-11.421 9.848-21.29 8.92-24.246a14.078 14.078 0 0 1-.354-1.563c-.287-1.74-.43-1.798-3.472-1.394-13.598 1.81-40.023 4.514-56.176 5.75-11.344.869-26.777 1.8-29.887 1.804-1.224.002-1.224.002-5.75 4.34-5.663 5.43-6.138 5.453-.728.036 2.226-2.229 3.948-4.11 3.826-4.182-.825-.483-3.894-.963-5.762-.902-2.076.068-2.135.054-2.115-.512.028-.772.06-.768-7.443-.94-60.02-1.387-100.238-3.456-121.974-6.278-2.532-.328-2.791-.32-2.791.086 0 .712 2.072 2.68 3.71 3.525 2.061 1.062 2.092 1.527.126 1.886-2.108.384-2.045.135-1.217 4.766 3.32 18.58 8.201 22.785 18.505 15.946 5.927-3.934 43.901-8.008 68.963-7.4 4.302.105 7.268.06 8.701-.13 1.197-.16 2.832-.35 3.634-.424.803-.074 1.594-.297 1.76-.496.164-.199.739-.362 1.275-.362.537 0 1.3-.133 1.696-.296 2.713-1.114 23.37-1.542 23.37-.484 0 .186-1.062 1.2-3.528 3.364-.576.506-3.56 2.808-6.63 5.116-4.654 3.5-7.764 5.916-9.164 7.121-.14.121-1.68 1.736-3.42 3.588-7.159 7.618-14.634 12.861-21.058 14.769-.898.267-1.262.529-1.468 1.056-.346.888-1.462 2.874-1.812 3.224-.583.583-.298.996.566.821a49.236 49.236 0 0 1 2.145-.359ZM26.839 73.232c0-.26.385-.98.857-1.6 1.184-1.552 1.702-2.626 1.702-3.527 0-1-.341-.872 5.788-2.182 13.714-2.93 19.588-3.683 30.087-3.858 55.376-.92 71.63-1.427 89.231-2.79 4.479-.346 4.47-.348 5.7 1.591 2.659 4.192-4.868 6.947-16.534 6.053-1.126-.087-6.481-.19-11.9-.231-9.854-.074-9.854-.074-15.204-1.152-7.81-1.573-10.098-1.482-12.347.493-1.055.926-.717.922-3.245.031-6.391-2.252-14.298-2.39-27.044-.471-4.294.646-9.303 1.302-11.133 1.457-9.508.806-18.424 2.453-29.862 5.518-4.755 1.274-6.096 1.421-6.096.668Z"/><path fill="#28A8DD" d="M125.883 359.543c-29.818-1.276-50.55-5.242-67.095-12.834-2.415-1.108-2.053-.366-4.657-9.534-4.537-15.967-7.985-30.435-11.679-48.999-1.872-9.41-2.749-13.345-7.073-31.735-7.76-33-10.707-48.173-12.403-63.854-.429-3.972.344-9.402 1.559-10.947.719-.914.733-3.248.021-3.434-.415-.108-.518-.46-.67-2.284-.126-1.514-.323-2.337-.66-2.767-.327-.415-.482-1.027-.482-1.9 0-.708-.115-1.36-.256-1.446-.154-.095-.256-1.832-.256-4.35 0-2.52-.102-4.257-.256-4.352-.14-.087-.256.072-.256.354 0 3.155-2.267-2.591-3.589-9.095-3.391-16.69-8.957-33.277-7.677-22.876.45 3.659 1.28 7.256 3.664 15.878 2.8 10.128 4.076 17.3 3.506 19.711-.814 3.447-6.072-17.253-9.102-35.835-.77-4.715-1.924-11.798-2.567-15.74-1.435-8.806-2.77-15.42-4.594-22.76-1.826-7.346-1.774-8.538.495-11.427 4.677-5.957 18.402-10.587 19.885-6.71 1.017 2.658-1.98 4.5-10.13 6.224-7.064 1.494-7.717 2.563-3.883 6.35 3.834 3.786 26.071 7.17 52.382 7.971 46.558 1.418 76.123 1.792 84.456 1.07 8.231-.714 8.727-.709 10.103.098 1.226.718 1.226.718 2.792.33 1.566-.39 1.942-.38 7.4.193 1.189.124 1.76.044 2.866-.405 1.227-.498 1.49-.524 2.355-.237 1.793.596 18.883.424 24.902-.25 16.74-1.878 36.554-6.448 43.144-9.952.775-.413 5.872-1.648 9.194-2.229 3.19-.557 5.25-1.049 6.782-1.617 1.407-.522 1.407-.522 1.573 1.699.735 9.874-.364 25.808-2.342 33.956-.52 2.137-1.13 5.547-2.04 11.389-.296 1.9-.664 3.706-.818 4.014-.155.307-.211.825-.126 1.15.085.327-.128 2.897-.475 5.712-1.821 14.814-2.968 29.838-4.727 61.935-1.557 28.407-2.447 41.226-3.731 53.746-.347 3.378-.8 8.445-1.007 11.26-1.043 14.135-2.613 27.258-5.284 44.148-.913 5.774-1.041 7.131-1.111 11.773-.263 17.501-6.678 27.44-18.844 29.192-1.18.17-3.642.749-5.472 1.286-14.833 4.355-30.657 6.664-52.337 7.638-17.583.79-22.668.869-31.48.492Zm-60.4-26.47c-3.158-12.875-5.005-18.986-7.225-23.91-2.378-5.272-2.918-5.97-2.624-3.392 1.35 11.85 4.602 22.841 9.897 33.439 2.792 5.588 2.79 5.438-.048-6.138Zm-5.535 8.528c.922-3.438-.552-10.67-4.843-23.77-2.448-7.47-4.251-13.968-4.591-16.538-.223-1.685-.454-1.827-1.412-.869-1.537 1.537-1.072 4.716 2.389 16.349.93 3.13 1.825 6.7 1.986 7.933.947 7.25 5.718 19.706 6.471 16.895Zm86.78-38.114c4.67-3.093 4.057-12.108-1.018-14.983-4.57-2.588-7.023 3.051-5.083 11.681.87 3.871 3.276 5.174 6.101 3.302Zm-13.765-.681c3.482-1.786 4.639-7.744 2.457-12.657-2.152-4.844-6.467-2.39-7.245 4.12-.112.942-.378 2.819-.59 4.17-.76 4.845 1.255 6.48 5.378 4.367Zm-84.739-8.908c.559-4.468-.6-10.924-4.345-24.23-1.063-3.773-2.288-8.668-2.723-10.876-1.421-7.22-3.574-10.738-2.534-4.143.504 3.202 3.353 17.81 3.967 20.347.341 1.407.917 4.958 1.28 7.89.904 7.302 1.697 10.195 3.256 11.88.773.836.899.736 1.1-.868Zm76.958-8.281c2.607-1.406 5.268-2.048 8.484-2.046 2.474.002 4.34.257 11.412 1.562 8.63 1.593 13.704.394 13.105-3.098-1.356-7.911-5.379-9.647-17.731-7.653-7.206 1.163-12.424 1.217-15.356.16-2.316-.834-2.175-.827-3.894-.184-6.217 2.326-5.944 9.737.434 11.759.858.272 1.58.501 1.604.51.025.007.899-.447 1.942-1.01Zm-17.726-16.414c19.495-4.467 25.781-28.846 10.394-40.31-9.922-7.392-16.135-7.929-31.636-2.735-3.167 1.061-6.018 2.093-6.336 2.293-1.13.711-2.877 3.231-2.877 4.15 0 .471-.452 1.979-1.005 3.35-7.322 18.161 11.32 37.867 31.46 33.252Zm-24.697-13.952c-7.669-1.145-9.322-7.675-3.452-13.637 4.265-4.33 9.23-4.705 12.875-.972 7.213 7.388 1.503 16.241-9.423 14.61Zm97.236 10.363c13.391-2.25 21.788-17.645 16.266-29.823-12.93-28.517-59.368-14.818-49.184 14.509 4.354 12.538 16.315 18.103 32.918 15.314Zm-26.087-11.835c-5.97-1.47-7.906-6.925-4.707-13.261 3.999-7.922 12.555-7.829 16.776.183 2.55 4.84 1.972 6.452-2.163 6.035-3.718-.375-4.938.156-3.12 1.36 1.324.876 3.018 2.402 3.345 3.012 1.021 1.908-5.861 3.722-10.131 2.67ZM89.526 148.19c.255-.136 1.182-.276 2.06-.311 1.285-.05 1.63-.155 1.771-.538.154-.415.528-.485 2.979-.56 3.685-.112 5.145-.317 6.386-.898 1.108-.519 11.76-.935 18.81-.735 12.537.356 40.054-.004 40.402-.528.33-.496.594-.533 3.841-.537 3.649-.004 5.137-.296 5.745-1.127.31-.424 1.184-.45 13.625-.42 13.549.033 18.018-.181 18.817-.9.279-.252 1.046-.364 2.48-.364 1.142 0 2.147-.115 2.234-.256.102-.164 3.882-.256 10.5-.256 9.968 0 10.35-.018 10.606-.496.23-.429.639-.515 3.016-.633 5.658-.283 7.096-.442 7.53-.832.332-.3.985-.369 2.929-.312 2.502.072 2.502.072 2.812-1.067.17-.626.54-1.772.823-2.546.41-1.124.55-2.363.691-6.143.195-5.172.375-6.821 1.062-9.725.551-2.329.565-17.86.021-23.93-.339-3.787-7.328-5.21-12.502-2.544-.854.44-21.576 2.896-37.597 4.456-16.198 1.578-36.633 3.077-47.603 3.492-2.918.11-4.715.288-5.157.512-.58.293-.877.28-2.048-.093-.918-.291-2.252-.436-4.056-.441-2.628-.007-2.686-.02-2.666-.589.028-.772.06-.768-7.443-.94-60.02-1.387-100.238-3.456-121.974-6.278-2.532-.328-2.791-.32-2.791.086 0 .712 2.072 2.68 3.71 3.525 2.061 1.062 2.092 1.527.126 1.886-2.108.384-2.045.135-1.217 4.766 3.32 18.58 8.201 22.785 18.505 15.946 5.927-3.934 43.901-8.008 68.963-7.4 4.302.105 7.268.06 8.701-.13 1.197-.16 2.832-.35 3.634-.424.803-.074 1.594-.297 1.76-.496.164-.199.739-.362 1.275-.362.537 0 1.3-.133 1.696-.296 2.713-1.114 23.37-1.542 23.37-.484 0 .186-1.062 1.2-3.528 3.364-.576.506-3.56 2.808-6.63 5.116-4.654 3.5-7.764 5.916-9.164 7.121-.14.121-1.68 1.736-3.42 3.588-7.159 7.618-14.634 12.861-21.058 14.769-.898.267-1.262.529-1.468 1.056-.346.888-1.462 2.874-1.812 3.224-.744.744.19 1.253 1.254.684ZM26.84 73.232c0-.26.385-.98.857-1.6 1.184-1.552 1.702-2.626 1.702-3.527 0-1-.341-.872 5.788-2.182 13.714-2.93 19.588-3.683 30.087-3.858 55.376-.92 71.63-1.427 89.231-2.79 4.479-.346 4.47-.348 5.7 1.591 2.659 4.192-4.868 6.947-16.534 6.053-1.126-.087-6.481-.19-11.9-.231-9.854-.074-9.854-.074-15.204-1.152-7.81-1.573-10.098-1.482-12.347.493-1.055.926-.717.922-3.245.031-6.391-2.252-14.298-2.39-27.044-.471-4.294.646-9.303 1.302-11.133 1.457-9.508.806-18.424 2.453-29.862 5.518-4.755 1.274-6.096 1.421-6.096.668Z"/><path fill="#3698A6" d="M125.883 359.543c-29.818-1.276-50.55-5.242-67.095-12.834-2.415-1.108-2.053-.366-4.657-9.534-4.537-15.967-7.985-30.435-11.679-48.999-1.872-9.41-2.749-13.345-7.073-31.735-7.76-33-10.707-48.173-12.403-63.854-.474-4.39.408-9.765 1.838-11.195.933-.934 1.056-2.7.24-3.46-.372-.347-.566-1.02-.74-2.583-.136-1.214-.401-2.298-.622-2.547-.491-.552-.682-2.173-.9-7.643-.097-2.417-.269-4.487-.382-4.6-.247-.245-.68.375-.686.981-.027 3.023-2.286-2.746-3.593-9.174-3.391-16.69-8.957-33.277-7.677-22.876.45 3.659 1.28 7.256 3.664 15.878 2.8 10.128 4.076 17.3 3.506 19.711-.814 3.447-6.072-17.253-9.102-35.835-.77-4.715-1.924-11.798-2.567-15.74-1.435-8.806-2.77-15.42-4.594-22.76-1.826-7.346-1.774-8.538.495-11.427 4.677-5.957 18.402-10.587 19.885-6.71 1.017 2.658-1.98 4.5-10.13 6.224-7.064 1.494-7.717 2.563-3.883 6.35 3.834 3.786 26.071 7.17 52.382 7.971 46.558 1.418 76.123 1.792 84.456 1.07 8.231-.714 8.727-.709 10.103.098 1.226.718 1.226.718 2.792.33 1.566-.39 1.942-.38 7.4.193 1.189.124 1.76.044 2.866-.405 1.227-.498 1.49-.524 2.355-.237 1.793.596 18.883.424 24.902-.25 16.74-1.878 36.554-6.448 43.144-9.952.775-.413 5.872-1.648 9.194-2.229 3.19-.557 5.25-1.049 6.782-1.617 1.407-.522 1.407-.522 1.573 1.699.735 9.874-.364 25.808-2.342 33.956-.52 2.137-1.13 5.547-2.04 11.389-.296 1.9-.664 3.706-.818 4.014-.155.307-.211.825-.126 1.15.085.327-.128 2.897-.475 5.712-1.821 14.814-2.968 29.838-4.727 61.935-1.557 28.407-2.447 41.226-3.731 53.746-.347 3.378-.8 8.445-1.007 11.26-1.043 14.135-2.613 27.258-5.284 44.148-.913 5.774-1.041 7.131-1.111 11.773-.263 17.501-6.678 27.44-18.844 29.192-1.18.17-3.642.749-5.472 1.286-14.833 4.355-30.657 6.664-52.337 7.638-17.583.79-22.668.869-31.48.492Zm-60.4-26.47c-3.158-12.875-5.005-18.986-7.225-23.91-2.378-5.272-2.918-5.97-2.624-3.392 1.35 11.85 4.602 22.841 9.897 33.439 2.792 5.588 2.79 5.438-.048-6.138Zm-5.535 8.528c.922-3.438-.552-10.67-4.843-23.77-2.448-7.47-4.251-13.968-4.591-16.538-.223-1.685-.454-1.827-1.412-.869-1.537 1.537-1.072 4.716 2.389 16.349.93 3.13 1.825 6.7 1.986 7.933.947 7.25 5.718 19.706 6.471 16.895Zm86.78-38.114c4.67-3.093 4.057-12.108-1.018-14.983-4.57-2.588-7.023 3.051-5.083 11.681.87 3.871 3.276 5.174 6.101 3.302Zm-13.765-.681c3.482-1.786 4.639-7.744 2.457-12.657-2.152-4.844-6.467-2.39-7.245 4.12-.112.942-.378 2.819-.59 4.17-.76 4.845 1.255 6.48 5.378 4.367Zm-84.739-8.908c.559-4.468-.6-10.924-4.345-24.23-1.063-3.773-2.288-8.668-2.723-10.876-1.421-7.22-3.574-10.738-2.534-4.143.504 3.202 3.353 17.81 3.967 20.347.341 1.407.917 4.958 1.28 7.89.904 7.302 1.697 10.195 3.256 11.88.773.836.899.736 1.1-.868Zm76.958-8.281c2.607-1.406 5.268-2.048 8.484-2.046 2.474.002 4.34.257 11.412 1.562 8.63 1.593 13.704.394 13.105-3.098-1.356-7.911-5.379-9.647-17.731-7.653-7.206 1.163-12.424 1.217-15.356.16-2.316-.834-2.175-.827-3.894-.184-6.217 2.326-5.944 9.737.434 11.759.858.272 1.58.501 1.604.51.025.007.899-.447 1.942-1.01Zm-17.726-16.414c19.495-4.467 25.781-28.846 10.394-40.31-10.173-7.58-16.658-8.01-33.227-2.202-3.475 1.218-5.128 1.686-5.31 1.504-.182-.182-.265-.127-.265.178 0 .244-.163.506-.362.583-.756.29-1.615 1.992-1.666 3.298-.03.795-.424 2.208-1.039 3.733-7.308 18.125 11.36 37.826 31.475 33.216Zm-24.697-13.952c-7.669-1.145-9.322-7.675-3.452-13.637 4.265-4.33 9.23-4.705 12.875-.972 7.213 7.388 1.503 16.241-9.423 14.61Zm97.236 10.363c13.391-2.25 21.788-17.645 16.266-29.823-12.93-28.517-59.368-14.818-49.184 14.509 4.354 12.538 16.315 18.103 32.918 15.314Zm-26.087-11.835c-5.97-1.47-7.906-6.925-4.707-13.261 3.999-7.922 12.555-7.829 16.776.183 2.55 4.84 1.972 6.452-2.163 6.035-3.718-.375-4.938.156-3.12 1.36 1.324.876 3.018 2.402 3.345 3.012 1.021 1.908-5.861 3.722-10.131 2.67Zm-14.893-87.57c.188-.66.099-.984-.56-2.021-5.029-7.93.583-18.952 8.528-16.746 3.25.902 3.26 2.697.06 9.693-3.024 6.609-2.792 7.811 1.505 7.811 3.042 0 2.901.21 3.186-4.762.731-12.782 4.585-17.094 12.795-14.318 2.13.721 2.166.764 2.81 3.303 2.467 9.743 5.832 12.507 14.72 12.093 6.306-.294 7.708-1.63 10.123-9.644 2.055-6.823 3.48-8.495 7.732-9.076 1.019-.14 2.37-.362 3.004-.494 2.686-.562 5.347-.166 6.045.899.594.906.942.499.804-.94-.12-1.246-.12-1.246 9.815-1.246 9.566 0 9.944-.018 10.2-.496.23-.429.639-.515 3.016-.633 5.658-.283 7.096-.442 7.53-.832.332-.3.985-.369 2.929-.312 2.502.072 2.502.072 2.812-1.067.17-.626.54-1.772.823-2.546.41-1.124.55-2.363.691-6.143.195-5.172.375-6.821 1.062-9.725.551-2.329.565-17.86.021-23.93-.339-3.787-7.328-5.21-12.502-2.544-.854.44-21.576 2.896-37.597 4.456-16.198 1.578-36.633 3.077-47.603 3.492-2.918.11-4.715.288-5.157.512-.58.293-.877.28-2.048-.093-.918-.291-2.252-.436-4.056-.441-2.628-.007-2.686-.02-2.666-.589.028-.772.06-.768-7.443-.94-60.02-1.387-100.238-3.456-121.974-6.278-2.532-.328-2.791-.32-2.791.086 0 .712 2.072 2.68 3.71 3.525 2.061 1.062 2.092 1.527.126 1.886-2.108.384-2.045.135-1.217 4.766 3.32 18.58 8.201 22.785 18.505 15.946 4.904-3.255 24.704-5.92 53.127-7.149 22.659-.98 17.575.46-12.188 3.452-14.661 1.473-21.553 2.425-28.664 3.959-1.549.334-3.624.666-4.613.737-8.61.626-16.83 10.995-12.508 15.778 1.277 1.414 3.125 2.05 6.66 2.297 1.567.109 2.957.265 3.09.347.132.082 1.787.432 3.678.778 4.026.737 4.847 1.015 5.027 1.704.121.464.353.509 2.631.509 2.268 0 2.532.05 2.862.547.303.457.686.567 2.324.673 1.481.095 2.068.243 2.395.604.278.308.78.48 1.403.48.532 0 1.04.114 1.127.255.087.14.748.256 1.47.256 1.008 0 1.454.133 1.924.576.586.55.835.58 5.689.659 4.625.075 5.115.126 5.522.575.463.513 2.926.738 2.926.268 0-.896 4.418-1.642 10.109-1.706 4.081-.046 5.61-.166 7.545-.59 3.214-.707 3.32-.543 1.552 2.393-.424.704-.881 1.53-1.017 1.835-.135.305-.56.708-.944.896-.385.187-1.156 1.011-1.714 1.831-.772 1.135-1.327 1.638-2.323 2.11-4.294 2.03-7.78 5.485-5.536 5.485.576 0 1.323.18 1.659.4.554.364.683.364 1.386 0 .426-.22.936-.4 1.134-.4.199 0 .803-.72 1.343-1.6 1.702-2.77 8.782-9.342 9.69-8.994.265.102.472-.035.608-.402.191-.517.405-.563 3.009-.644 3.301-.103 5.51-.353 5.894-.666.167-.136.958.039 1.998.44 2.959 1.144 3.175 2.42.638 3.767-4.487 2.381-5.246 7.533-1.704 11.557 3.052 3.468 8.18 2.772 5.278-.716-5.534-6.649-1.657-12.209 10.022-14.374 7.445-1.38 18.37.981 16.359 3.537-1.745 2.219-1.744 5.311.004 12.44.431 1.755.784 3.46.784 3.787 0 1.055 3.095.743 3.406-.344Zm37.512-9.166c-7.418-2.65-7.332-10.838.111-10.623 2.077.06 2.529-.01 3.886-.614 5.294-2.352 10.27 1.518 8.733 6.79-.905 3.103-2.713 4.271-7.07 4.567-4.017.274-4.593.261-5.66-.12ZM26.84 73.233c0-.262.385-.982.857-1.6 1.184-1.553 1.702-2.627 1.702-3.528 0-1-.341-.872 5.788-2.182 13.714-2.93 19.588-3.683 30.087-3.858 55.376-.92 71.63-1.427 89.231-2.79 4.479-.346 4.47-.348 5.7 1.591 2.659 4.192-4.868 6.947-16.534 6.053-1.126-.087-6.481-.19-11.9-.231-9.854-.074-9.854-.074-15.204-1.152-7.81-1.573-10.098-1.482-12.347.493-1.055.926-.717.922-3.245.031-6.391-2.252-14.298-2.39-27.044-.471-4.294.646-9.303 1.302-11.133 1.457-9.508.806-18.424 2.453-29.862 5.518-4.755 1.274-6.096 1.421-6.096.668Z"/><path fill="#008ECF" d="M130.618 359.674c-33.677-1.803-49.71-4.452-66.414-10.972-7.265-2.836-7.284-2.848-8.026-5.284-4.5-14.765-9.192-33.89-13.114-53.446-2.281-11.374-3.069-14.916-7.628-34.314-11.566-49.208-14.475-69.419-10.624-73.805.945-1.076 1.073-3.147.243-3.92-.373-.348-.567-1.021-.741-2.584-.136-1.214-.401-2.298-.622-2.547-.492-.553-.682-2.176-.9-7.674-.138-3.452-.258-4.475-.548-4.654-.522-.321-.778-.09-.788.712-.028 2.36-2.11-3.862-3.325-9.932-3.725-18.62-10.312-35.34-7.522-19.095.459 2.673 1.802 8.02 3.782 15.062 1.695 6.024 2.644 10.612 2.951 14.27.981 11.657-5.28-11.768-8.549-31.991-4.48-27.713-5.75-34.264-8.227-42.484-1.07-3.549-.559-5.404 2.315-8.407 6.045-6.317 19.736-9.835 18.732-4.813-.415 2.074-3.16 3.38-10.115 4.812-7.195 1.482-7.924 2.72-3.926 6.67 3.15 3.113 20.348 6.365 40.253 7.611 3.702.232 8.026.379 30.711 1.044 30.539.896 58.763 1.126 65.902.539 8.303-.683 9.26-.686 10.422-.033.934.525 1.17.558 2.222.308 1.123-.266 1.987-.227 7.993.36 1.207.118 1.673.032 2.85-.525 1.206-.57 1.513-.624 2.14-.373 1.44.574 19.138.39 24.92-.258 16.75-1.88 36.554-6.449 43.143-9.952.775-.413 5.872-1.648 9.194-2.229 3.233-.565 5.276-1.049 6.602-1.563 2.245-.871 2.776 11.01 1.065 23.811-.935 6.996-1.144 8.352-1.634 10.638l-.878 4.095c-2.837 13.207-5.28 39.463-7.584 81.513-1.673 30.53-2.478 41.837-4.09 57.456-.27 2.605-.56 5.83-.645 7.167-.756 11.79-2.451 25.993-5.383 45.109-.91 5.931-1.1 7.744-.98 9.341 1.241 16.425-6.34 28.657-18.976 30.619-1.267.197-4.33.946-6.809 1.665-12.518 3.633-26.72 5.802-45.4 6.932-12.093.732-28.513 1.307-31.992 1.12Zm-1.11-3.617c.94-.939-1.835-1.386-13.862-2.234-2.885-.203-6.686-.541-8.446-.75-9.613-1.146-17.23-1.211-14.41-.125 5.108 1.97 35.301 4.526 36.718 3.11ZM68.043 342.85c0-.661-4.569-18.963-5.726-22.938-2.135-7.332-5.927-16.38-6.864-16.38-.877 0 1.298 12.45 3.398 19.451 2.77 9.23 9.192 23.113 9.192 19.867Zm-7.9-1.077c.888-4.101-.399-10.54-4.777-23.908-2.407-7.348-4.24-13.912-4.608-16.508-.237-1.66-.485-1.974-1.277-1.613-2.285 1.041-1.932 4.696 1.575 16.312.912 3.016 1.833 6.644 2.049 8.061 1.382 9.087 6.25 21.298 7.038 17.656Zm86.5-37.948c4.078-2.586 4.792-8.506 1.576-13.078-5.333-7.58-10.821-.117-7.634 10.383.965 3.18 3.509 4.312 6.058 2.695Zm-13.68-.764c4.433-2.28 5.177-10.984 1.288-15.076-2.324-2.445-5.735 1.09-6.35 6.58-.129 1.16-.345 2.586-.48 3.17-1.205 5.218 1.22 7.548 5.542 5.326Zm-84.52-9.146c.595-3.85-.652-11.07-3.96-22.928-1.27-4.551-2.708-10.265-3.195-12.698-1.184-5.913-3.188-9.925-3.188-6.383 0 1.787 2.84 17.246 4.219 22.963.356 1.478.94 5.048 1.299 7.934.95 7.657 1.553 9.948 3.094 11.748 1.157 1.352 1.44 1.248 1.731-.636Zm76.77-8.297c4.561-2.503 8.388-2.652 18.457-.718 13.338 2.562 18.677-1.304 12.023-8.704-2.725-3.031-5.574-3.36-15.478-1.782-6.608 1.052-12.303 1.14-14.716.229-2.935-1.11-4.78-.724-7.045 1.472-3.874 3.756-1.283 9.408 4.818 10.513.042.007.915-.447 1.94-1.01ZM107.77 269.39c2.815-.714 3.53-1.046 7.959-3.693 14.676-8.773 14.7-30.038.045-38.492a498.73 498.73 0 0 1-3.199-1.863c-7.031-4.141-13.786-3.917-27.384.91-2.464.875-4.802 1.584-5.196 1.575-.531-.012-.777.145-.953.607-.13.343-.335.623-.456.623-.576 0-1.841 2.29-1.841 3.33 0 .654-.394 2.049-1.01 3.578-7.372 18.284 12.008 38.506 32.035 33.425Zm-25.665-14.486c-6.801-1.151-8.09-7.298-2.723-12.979 4.15-4.393 8.802-4.816 12.47-1.134 7.484 7.51 1.596 16.035-9.747 14.113Zm98.295 10.88c16.257-3.234 22.851-21.108 12.978-35.178-15.004-21.382-51.938-8.947-47.52 16 2.642 14.912 16.712 22.724 34.542 19.178Zm-26.26-12.165c-7.098-1.407-8.398-10.104-2.412-16.13 5.279-5.315 12.782-2.25 15.227 6.219.761 2.638.288 3.006-3.62 2.814-4.508-.221-4.867.19-2.026 2.321 2.252 1.69 2.925 2.55 2.448 3.125-1.172 1.412-6.345 2.3-9.617 1.65Zm.28-61.789c1.83-.075 3.73-.204 4.222-.286a39.38 39.38 0 0 1 1.664-.238c.422-.048 1.286-.153 1.92-.234l2.047-.26a62.81 62.81 0 0 0 1.791-.258c.493-.08 1.241-.195 1.664-.255.778-.112 3.338-.556 7.294-1.266 16.967-3.042 28.8-8.51 41.492-19.17.37-.311 1.16-.968 1.758-1.46a51.574 51.574 0 0 0 2.167-1.92c.595-.563 1.86-1.715 2.81-2.56.95-.844 2.331-2.11 3.07-2.815 2.641-2.52 5.471-5.075 7.853-7.09.617-.523 1.466-1.244 1.889-1.605.422-.36 1.31-1.085 1.973-1.61.845-.67 1.256-1.208 1.374-1.8.152-.759.249-.836.958-.767.62.06.856-.057 1.102-.543.172-.34.495-.72.716-.845.286-.16.403-.612.403-1.56 0-1.137.085-1.37.576-1.586.316-.14.61-.496.653-.794.042-.297.35-.665.683-.817.5-.227.639-.54.787-1.762.098-.818.263-1.602.366-1.742.103-.141.308-.717.457-1.28.148-.563.5-1.657.783-2.431.41-1.125.55-2.361.691-6.143.195-5.172.375-6.821 1.062-9.725.551-2.329.565-17.86.021-23.93-.339-3.787-7.328-5.21-12.502-2.544-.854.44-21.587 2.897-37.597 4.456-12.347 1.203-28.167 2.44-39.413 3.085-2.745.157-6.833.398-9.085.535-5.335.325-6.241.314-6.72-.083-.28-.232-1.262-.319-3.324-.292-2.787.037-2.92.015-2.796-.462.209-.799-.502-.898-7.763-1.076-63.566-1.559-98.157-3.345-122.2-6.31-2.681-.33-2.693-.33-2.693.233 0 .787 2.151 2.946 3.823 3.837 1.87.997 1.923 1.227.336 1.443-2.53.343-2.457.009-1.335 6.048 3.295 17.736 8.84 22.187 18.764 15.06 3.015-2.166 19.889-5.082 35.484-6.133 6.812-.46 8.083-.527 17.147-.912 10.47-.446 12.994-.472 12.653-.13-.336.335-9.603 1.637-17.387 2.443-22.853 2.364-25.895 2.75-34.167 4.334-2.463.471-5.515.986-6.782 1.143-13.713 1.702-18.427 17.44-5.502 18.367 4.613.331 11.772 2.021 11.772 2.779 0 .305.494.375 2.656.375 2.43 0 2.687.047 3.02.547.303.457.686.567 2.324.673 1.481.095 2.068.243 2.395.604.278.308.78.48 1.403.48.532 0 1.04.114 1.127.255.087.14.748.256 1.47.256 1.008 0 1.454.133 1.924.576.586.55.836.58 5.647.658 4.49.074 5.09.135 5.547.56.702.654 2.916.792 3.49.217.91-.91 4.893-1.555 9.345-1.515 3.676.034 7.856-.36 9.622-.904 1.194-.369-1.41 4.766-2.687 5.296-.387.161-.706.423-.709.582-.015.9-1.608 2.763-2.877 3.362-10.936 5.165-11.13 16.396-.403 23.369 6.948 4.517 8.244 5.304 11.22 6.813 7.006 3.554 16.252 6.44 23.8 7.43.634.083 1.44.203 1.792.265.752.135 2.678.364 4.479.533.704.066 1.855.179 2.56.25.703.071 2.341.16 3.64.2 1.3.038 2.413.12 2.474.182.149.149 17.524.042 21.781-.133ZM27.094 73.104c0-.19.385-.853.857-1.471 1.18-1.547 1.702-2.627 1.702-3.515 0-.569.141-.788.576-.894 12.236-2.99 24.495-4.744 34.358-4.915 60.08-1.04 72.783-1.434 89.703-2.792 4.501-.36 4.585-.341 5.648 1.334 2.744 4.327-1.412 5.826-15.885 5.73-23.12-.155-21.527-.082-27.453-1.274-7.801-1.569-10.249-1.461-12.638.556-.807.681-.807.681-3.469-.21-6.613-2.212-13.184-2.255-27.46-.177-4.927.717-10.517 1.418-12.423 1.557-6.641.487-13.866 1.828-25.052 4.648-7.219 1.82-8.464 2.03-8.464 1.423Z"/><path fill="#1B6F95" d="M130.618 359.674c-33.677-1.803-49.71-4.452-66.414-10.972-7.265-2.836-7.284-2.848-8.026-5.284-4.5-14.765-9.192-33.89-13.114-53.446-2.281-11.374-3.069-14.916-7.628-34.314-11.537-49.087-14.48-69.483-10.646-73.774 1.272-1.424 2.295.246 3.42 5.584 6.423 30.44 16.92 70.292 24.775 94.054 2.938 8.888 2.44 8.036 4.587 7.856 2.226-.187 2.262-.11 1.151 2.476-2.06 4.798-1.043 7.228 5.417 12.942 2.74 2.423 2.487 3.134-.94 2.64-2.373-.341-2.214-.674-1.329 2.776.411 1.605.988 4.069 1.28 5.476 4.508 21.658 9.033 29.35 18.4 31.27 28.947 5.938 61.982 6.963 105.658 3.277 17.16-1.448 30.528-6.78 34.805-13.883 1.106-1.836 1.136-1.752-.691-1.943-2.948-.308-2.87-1.022.251-2.316 4.626-1.918 6.07-3.426 6-6.267-.032-1.232.147-2.237.685-3.855 1.825-5.492 2.196-9.753 1.772-20.373-.358-8.959-.25-12.516.482-15.853 1.131-5.156 1.735-10.298 2.736-23.29.678-8.809 1.178-13.766 1.784-17.659.57-3.664.862-7.572 1.275-17.02.468-10.702.764-14.807 1.432-19.834.83-6.252.971-6.72 2.483-8.233 2.167-2.166 2.103-3.686-.303-7.198-3.672-5.362-3.675-8.173-.01-11.55 1.402-1.294 1.447-3.174.371-15.503-1.14-13.051-1.118-17.34.086-17.223.618.06.855-.057 1.101-.543.172-.34.495-.72.716-.845.286-.16.403-.612.403-1.56 0-1.137.085-1.37.576-1.586.316-.14.61-.496.653-.794.042-.297.35-.665.683-.817.5-.227.639-.54.787-1.762.098-.818.263-1.602.366-1.742.103-.141.308-.717.457-1.28.148-.563.5-1.657.783-2.431.41-1.125.55-2.361.691-6.143.195-5.172.375-6.821 1.062-9.725.551-2.329.565-17.86.021-23.93-.339-3.787-7.328-5.21-12.502-2.544-.854.44-21.587 2.897-37.597 4.456-12.347 1.203-28.167 2.44-39.413 3.085-2.745.157-6.833.398-9.085.535-5.335.325-6.241.314-6.72-.083-.28-.232-1.262-.319-3.324-.292-2.787.037-2.92.015-2.796-.462.209-.799-.502-.898-7.763-1.076-63.566-1.559-98.157-3.345-122.2-6.31-2.681-.33-2.693-.33-2.693.233 0 .787 2.151 2.946 3.823 3.837 1.87.997 1.923 1.227.336 1.443-2.53.343-2.457.009-1.335 6.048 3.295 17.736 8.84 22.187 18.764 15.06 3.015-2.166 19.889-5.082 35.484-6.133 6.812-.46 8.083-.527 17.147-.912 10.47-.446 12.994-.472 12.653-.13-.336.335-9.603 1.637-17.387 2.443-22.853 2.364-25.895 2.75-34.167 4.334-2.463.471-5.515.986-6.782 1.143-13.713 1.702-18.427 17.44-5.502 18.367 2.24.161 10.496 1.72 11.254 2.127.881.471.643 1.25-.535 1.751-1.054.448-1.054.448.018 1.157.878.581 1.016.776.766 1.078-.465.56-.69.515-8.335-1.685-9.606-2.765-11.678-2.968-9.055-.89 2.01 1.591 1.745 2.249-.616 1.532-2.131-.646-2.005-1.288-1.031 5.25.241 1.619.429 3.375.417 3.903-.013.529.148 1.738.355 2.688.97 4.428 1.06 7.503.188 6.313-.604-.824-2.064-5.898-2.902-10.089-3.725-18.62-10.312-35.34-7.522-19.095.459 2.673 1.802 8.02 3.782 15.062 1.695 6.024 2.644 10.612 2.951 14.27.981 11.657-5.28-11.768-8.549-31.991-4.48-27.713-5.75-34.264-8.227-42.484-1.07-3.549-.559-5.404 2.315-8.407 6.045-6.317 19.736-9.835 18.732-4.813-.415 2.074-3.16 3.38-10.115 4.812-7.195 1.482-7.924 2.72-3.926 6.67 3.15 3.113 20.348 6.365 40.253 7.611 3.702.232 8.026.379 30.711 1.044 30.539.896 58.763 1.126 65.902.539 8.303-.683 9.26-.686 10.422-.033.934.525 1.17.558 2.222.308 1.123-.266 1.987-.227 7.993.36 1.207.118 1.673.032 2.85-.525 1.206-.57 1.513-.624 2.14-.373 1.44.574 19.138.39 24.92-.258 16.75-1.88 36.554-6.449 43.143-9.952.775-.413 5.872-1.648 9.194-2.229 3.233-.565 5.276-1.049 6.602-1.563 2.245-.871 2.776 11.01 1.065 23.811-.935 6.996-1.144 8.352-1.634 10.638l-.878 4.095c-2.837 13.207-5.28 39.463-7.584 81.513-1.673 30.53-2.478 41.837-4.09 57.456-.27 2.605-.56 5.83-.645 7.167-.756 11.79-2.451 25.993-5.383 45.109-.91 5.931-1.1 7.744-.98 9.341 1.241 16.425-6.34 28.657-18.976 30.619-1.267.197-4.33.946-6.809 1.665-12.518 3.633-26.72 5.802-45.4 6.932-12.093.732-28.513 1.307-31.992 1.12Zm-1.11-3.617c.94-.939-1.835-1.386-13.862-2.234-2.885-.203-6.686-.541-8.446-.75-9.613-1.146-17.23-1.211-14.41-.125 5.108 1.97 35.301 4.526 36.718 3.11ZM68.043 342.85c0-.661-4.569-18.963-5.726-22.938-2.135-7.332-5.927-16.38-6.864-16.38-.877 0 1.298 12.45 3.398 19.451 2.77 9.23 9.192 23.113 9.192 19.867Zm-7.9-1.077c.888-4.101-.399-10.54-4.777-23.908-2.407-7.348-4.24-13.912-4.608-16.508-.237-1.66-.485-1.974-1.277-1.613-2.285 1.041-1.932 4.696 1.575 16.312.912 3.016 1.833 6.644 2.049 8.061 1.382 9.087 6.25 21.298 7.038 17.656Zm-11.7-47.858c.595-3.85-.652-11.07-3.96-22.928-1.27-4.551-2.708-10.265-3.195-12.698-1.184-5.913-3.188-9.925-3.188-6.383 0 1.787 2.84 17.246 4.219 22.963.356 1.478.94 5.048 1.299 7.934.95 7.657 1.553 9.948 3.094 11.748 1.157 1.352 1.44 1.248 1.731-.636Zm56.198 25.323c-.352-.05-1.676-.217-2.943-.37-1.267-.153-6.046-1.022-10.621-1.931-9.508-1.89-14.394-2.645-17.154-2.651-3.057-.007-4.062-1.35-2.316-3.095 1.279-1.28 3.754-.994 11.412 1.316 5.248 1.582 9.156 2.533 11.504 2.797.99.112 2.952.451 4.36.754 2.098.451 17.059 2.319 18.575 2.319.238 0 .492.23.566.512.126.484-10.525.762-13.383.35Zm24.185-11.45c-3.414-1.607-4.66-4.028-5.378-10.45-.969-8.675-2.334-10.609-8.352-11.835-1.424-.29-1.638-4.94-.356-7.74 1.357-2.964 4.448-6.377 9.458-10.444 1.387-1.126 3.263-2.764 4.168-3.639 1.994-1.928 2.268-2 7.37-1.964 11.458.081 23.155 9.13 26.715 20.666.94 3.044.838 3.2-4.193 6.451-6.244 4.035-7.566 6.092-6.79 10.564 1.201 6.91-1.92 9.044-10.129 6.925-5.472-1.413-7.982-1.094-9.763 1.24-.755.991-1.069 1.017-2.75.226Zm17.817-3.963c4.078-2.586 4.792-8.506 1.576-13.078-5.333-7.58-10.821-.117-7.634 10.383.965 3.18 3.509 4.312 6.058 2.695Zm-13.68-.764c4.433-2.28 5.177-10.984 1.288-15.076-2.324-2.445-5.735 1.09-6.35 6.58-.129 1.16-.345 2.586-.48 3.17-1.205 5.218 1.22 7.548 5.542 5.326Zm-7.75-17.443c4.561-2.503 8.388-2.652 18.457-.718 13.338 2.562 18.677-1.304 12.023-8.704-2.725-3.031-5.574-3.36-15.478-1.782-6.608 1.052-12.303 1.14-14.716.229-2.935-1.11-4.78-.724-7.045 1.472-3.874 3.756-1.283 9.408 4.818 10.513.042.007.915-.447 1.94-1.01Zm-29.806-12.543c-17.963-3.04-30.224-22.995-23.04-37.496 2.976-6.007 5.814-5.682 3.368.386-7.933 19.676 16.427 41.754 35.587 32.252 18.722-9.285 21.122-31.396 4.452-41.012a498.73 498.73 0 0 1-3.199-1.863c-7.005-4.126-13.737-3.915-27.256.856-4.3 1.518-4.813 1.67-5.439 1.61-.562-.053-.355-.39 1.28-2.084 15.028-15.56 47.547-4.424 49.569 16.976 1.77 18.734-15.64 33.706-35.322 30.375Zm74.496-1.962c-22.603-2.28-36.247-23.955-25.647-40.742 14.115-22.355 46.628-19.407 55.971 5.075 6.94 18.184-9.694 37.749-30.324 35.667Zm10.497-5.33c16.257-3.233 22.851-21.107 12.978-35.177-15.004-21.382-51.938-8.947-47.52 16 2.642 14.912 16.712 22.724 34.542 19.178Zm-26.26-12.164c-7.098-1.407-8.398-10.104-2.412-16.13 5.279-5.315 12.782-2.25 15.227 6.219.761 2.638.288 3.006-3.62 2.814-4.508-.221-4.867.19-2.026 2.321 2.252 1.69 2.925 2.55 2.448 3.125-1.172 1.412-6.345 2.3-9.617 1.65Zm-72.035 1.285c-6.801-1.151-8.09-7.298-2.723-12.979 4.15-4.393 8.802-4.816 12.47-1.134 7.484 7.51 1.596 16.035-9.747 14.113ZM27.095 73.104c0-.19.385-.853.857-1.471 1.18-1.547 1.702-2.627 1.702-3.515 0-.569.141-.788.576-.894 12.236-2.99 24.495-4.744 34.358-4.915 60.08-1.04 72.783-1.434 89.703-2.792 4.501-.36 4.585-.341 5.648 1.334 2.744 4.327-1.412 5.826-15.885 5.73-23.12-.155-21.527-.082-27.453-1.274-7.801-1.569-10.249-1.461-12.638.556-.807.681-.807.681-3.469-.21-6.613-2.212-13.184-2.255-27.46-.177-4.927.717-10.517 1.418-12.423 1.557-6.641.487-13.866 1.828-25.052 4.648-7.219 1.82-8.464 2.03-8.464 1.423Z"/><path fill="#0C0E0E" d="M130.234 359.583c-33.468-1.848-50.104-4.66-66.6-11.263-6.73-2.693-6.611-2.614-7.314-4.863-3.993-12.79-9.123-33.739-13.244-54.087-2.4-11.845-3.277-15.783-7.827-35.105-11.273-47.88-14.653-72.427-9.97-72.427 1.107 0 1.434.947 3.481 10.109 8.252 36.92 17.31 70.854 24.682 92.459 2.088 6.118 1.774 5.655 3.729 5.498 2.074-.167 2.057-.204 1 2.193-1.876 4.252-.715 7.153 4.901 12.242 3.162 2.865 3.151 3.195-.086 2.723-2.563-.374-2.522-.415-1.882 1.885.287 1.034 1.106 4.528 1.82 7.765 4.768 21.62 9.082 28.728 18.628 30.694 28.45 5.858 64.15 6.839 108.314 2.975 15.333-1.342 29.4-7.522 32.883-14.446.767-1.526.733-1.59-.955-1.8-2.647-.331-2.612-.53.319-1.792 4.38-1.887 5.74-3.327 5.791-6.126.023-1.273.274-2.589.816-4.28 1.723-5.38 2.128-10.54 1.636-20.837-.375-7.836-.281-10.992.432-14.467 1.214-5.918 1.82-11.218 2.983-26.097.357-4.575.985-10.852 1.395-13.948.785-5.933 1.167-10.29 1.403-15.996.666-16.083 1.154-21.825 2.334-27.494.32-1.54.534-1.948 1.62-3.097 2.395-2.532 2.314-3.85-.498-8.114-3.332-5.054-3.333-6.867-.001-10.51 1.55-1.695 1.642-4.705.523-17.312-.829-9.346-.832-15.425-.01-15.623.351-.084.775-.427.941-.761.167-.335.485-.71.706-.834.28-.156.403-.603.403-1.467 0-1.15.057-1.262.768-1.51.422-.147.767-.448.767-.67 0-.221.274-.527.608-.68.73-.332 1.318-1.92 1.105-2.986-.155-.775.176-2.233 1.058-4.66.408-1.12.548-2.37.69-6.142.195-5.172.375-6.821 1.062-9.725.551-2.329.565-17.86.021-23.93-.34-3.787-7.328-5.21-12.502-2.544-.854.44-21.576 2.896-37.597 4.456-16.162 1.574-36.544 3.07-47.603 3.494-2.463.094-4.695.249-4.96.344-.264.095-1.07.01-1.791-.19-2.407-.665-3.346-.783-5.085-.638-1.648.137-1.728.118-1.728-.414 0-.846 2.457-.726-40.18-1.953-38.926-1.12-62.485-2.434-82.794-4.618-10.77-1.159-10.644-1.166-9.605.515.719 1.163 2.048 2.302 3.61 3.094 1.542.781 1.461 1.026-.416 1.26-1.846.23-1.825.107-.89 5.299 3.367 18.713 8.437 22.993 18.969 16.013 3.487-2.312 19.09-5.02 35.679-6.194 10.385-.734 27.571-1.39 27.219-1.037-.35.35-10.057 1.527-24.276 2.943-12.427 1.239-20.366 2.349-25.977 3.633-1.266.29-3.301.616-4.522.725-14.917 1.333-20.603 18.086-6.51 19.177 1.564.121 3.015.289 3.227.373.21.084 1.9.431 3.752.772 4.768.878 5.262 1.24 3.001 2.21-1.376.59-1.376.586-.035 1.451 1.724 1.113.596 1.018-4.035-.338-12.923-3.786-15.679-4.064-12.508-1.26 1.497 1.322 1.42 1.52-.383.992-.941-.276-1.44-.317-1.625-.132-.282.282.374 5.366 2.235 17.318.635 4.076-1.765-1.96-2.701-6.795-2.92-15.077-7.536-29.442-8.804-27.391-.59.954 1.123 9.71 3.71 18.976 2.638 9.441 3.828 15.28 3.828 18.773 0 5.836-5.705-17.024-8.426-33.763l-2.435-14.972C4.863 104.54 3.68 98.52 2.133 92.39.635 86.457.699 86.682.386 86.283c-1.02-1.297.07-4.863 2.248-7.352 5.278-6.034 18.83-9.85 18.83-5.303 0 2.006-2.874 3.38-10.365 4.954-7.022 1.476-7.64 2.708-3.497 6.97 1.336 1.374 1.883 1.58 8.232 3.108 12.747 3.066 25.836 4.4 49.138 5.005 5.56.145 13.91.381 18.555.525 23.983.743 50.999.973 58.736.5 9.852-.602 11.695-.621 12.786-.129.887.4 1.166.418 2.158.14.626-.175 1.28-.23 1.455-.123.173.107 1.363.29 2.643.407 1.28.116 2.87.282 3.534.369 1.243.162 3.204-.365 4.069-1.095.325-.275.567-.286 1.151-.053 1.447.577 19.126.396 24.925-.255 16.75-1.88 36.555-6.449 43.144-9.952.772-.41 5.85-1.643 9.194-2.231 3.82-.672 4.86-.915 6.221-1.453 1.01-.399 1.433-.463 1.648-.248.71.71.848 15.245.187 19.873-.14.986-.487 3.692-.77 6.015-.284 2.322-1.03 6.756-1.658 9.853-.95 4.684-2.365 13.052-2.835 16.763-2.087 16.45-3.545 34.445-5.092 62.83-1.895 34.785-2.582 44.624-4.343 62.192-.338 3.378-.69 7.351-.78 8.83-.634 10.368-2.388 24.903-5.258 43.562-.853 5.542-1.013 7.207-1.013 10.547 0 17.745-6.393 27.507-19.205 29.324-1.048.15-2.985.617-4.305 1.04-13.745 4.402-33.812 7.178-58.131 8.04-2.323.083-5.547.257-7.166.388-4.271.344-10.905.462-14.588.259Zm-.855-3.345c2.594-.987-1.55-1.754-13.744-2.544a208.066 208.066 0 0 1-8.37-.76c-10.595-1.212-17.202-1.236-14.996-.055 3.657 1.958 33.655 4.672 37.11 3.359Zm-61.08-13.04c0-4.482-8.646-32.853-11.678-38.323-3.355-6.05-.173 12.736 4.085 24.122 3.292 8.8 7.593 16.845 7.593 14.2Zm-7.903-2.67c.12-6.062-.593-9.388-4.776-22.28-2.932-9.036-3.708-11.76-4.472-15.706-.672-3.465-1.009-3.839-2.26-2.506-1.692 1.8-1.363 4.64 1.743 15.054 1.832 6.146 2.386 8.43 2.688 11.092.506 4.465 4.077 14.235 5.97 16.332.636.706 1.07-.07 1.107-1.985Zm-11.959-45.335c1.064-2.772-.335-11.743-3.723-23.874-2.255-8.073-3.053-11.294-3.65-14.738-.648-3.736-2.562-7.186-3.08-5.553-.285.897 3.07 19.774 4.327 24.352.213.774.684 3.768 1.047 6.654 1.27 10.081 3.772 16.566 5.08 13.16Zm57.228 23.774c-2.597-.197-8.705-1.22-14.972-2.507-7.948-1.633-10.856-2.1-15.612-2.51-3.583-.309-3.583-.309-3.658-1.077-.256-2.612 2.458-2.618 11.209-.026 6.65 1.97 8.571 2.444 10.62 2.618.986.084 2.656.372 3.711.64 2.057.522 6.982 1.222 13.18 1.873 5.35.561 6.013.675 5.375.927-.495.196-7.506.24-9.853.062Zm23.161-11.636c-3.242-1.675-4.332-3.987-5.11-10.842-.596-5.257-1.098-6.909-2.604-8.575-1.13-1.252-2.974-2.246-4.57-2.465-5.714-.783-2.045-9.457 7.294-17.245 1.76-1.468 3.962-3.38 4.895-4.252 1.989-1.858 2.592-2.028 7.006-1.974 11 .134 22.521 9.067 26.218 20.329.992 3.021 1.043 2.945-4.392 6.47-6.105 3.958-7.445 6.431-6.323 11.665 1.13 5.271-2.781 7.543-9.49 5.51-4.758-1.44-8.686-.988-10.294 1.186-.647.875-1.227.918-2.63.193Zm16.944-2.909c7.148-2.986 4.775-18.288-2.62-16.901-4.293.805-5.02 13.747-.925 16.43 1.329.871 2.284.998 3.545.471Zm-12.986-1.187c4.776-2.051 5.636-11.832 1.37-15.578-2.055-1.804-5.423 1.095-6.09 5.243-.068.428-.357 2.18-.64 3.89-1.128 6.797.364 8.59 5.36 6.445Zm-7.337-17.6c4.368-2.382 8.214-2.546 17.503-.748 9.287 1.797 15.69 1.032 15.483-1.85-.213-2.966-1.493-6.052-3.092-7.457-3.07-2.695-5.642-2.81-18.453-.828-5.147.796-10.39.464-12.863-.815-1.543-.798-5.293 1.044-6.665 3.272-3.122 5.075 2.84 11.288 8.087 8.426ZM96.345 272.81c-19.192-3.017-32.136-25.112-22.69-38.728 2.798-4.031 3.876-3.076 1.987 1.76-8.02 20.532 16.563 42.207 36.426 32.116 18.882-9.593 20.229-31.878 2.516-41.616a251.798 251.798 0 0 1-3.417-1.911c-5.896-3.395-13.378-2.82-27.084 2.08-4.658 1.666-4.768 1.607-2.028-1.085 9.975-9.8 29.836-8.396 41.048 2.9 18.214 18.35-.034 48.686-26.758 44.484Zm74.326-2.072c-21.447-1.821-35.61-21.507-27.319-37.97 12.904-25.62 49.6-21.635 57.59 6.255 4.506 15.73-12.214 33.248-30.271 31.715Zm3.892-4.364c22.089.634 31.648-24.16 15.425-40.005-11.606-11.335-34.708-7.898-42.074 6.26-7.922 15.228 4.55 34.998 21.35 33.843a66.034 66.034 0 0 1 5.3-.098Zm-21.222-13.12c-5.495-1.717-6.928-7.82-3.194-13.597 4.81-7.442 13.312-5.71 16.428 3.344 1.1 3.198.757 3.589-2.93 3.337-4.636-.316-5.517.367-2.891 2.243 3.094 2.211 3.646 3.165 2.252 3.886-2.085 1.078-7.36 1.508-9.665.787Zm-69.558 1.663c-6.87-.673-9.254-4.285-6.508-9.863 3.16-6.42 10.307-8.509 14.537-4.247 6.907 6.96 2.265 15.117-8.029 14.11ZM27.238 73.22c-.078-.127.371-.915 1-1.75 1.222-1.627 1.672-2.568 1.672-3.498 0-.555.298-.643 6.462-1.906 17.4-3.563 14.914-3.382 56.496-4.12 31.715-.564 48.453-1.196 62.184-2.347 3.735-.313 4.72.137 5.35 2.448 1.034 3.792-1.975 4.375-22.234 4.31-17.224-.054-14.483.152-25.081-1.891-4.436-.855-7.525-.419-9.061 1.28-.62.684-.861.676-3.005-.097-3.836-1.384-6.54-1.768-12.375-1.756-5.591.01-6.276.08-18.3 1.856-2.885.427-6.8.897-8.7 1.046-8.247.644-16.797 2.266-29.66 5.627-4.215 1.101-4.528 1.154-4.748.798Z"/></svg>