<svg xmlns="http://www.w3.org/2000/svg" xml:space="preserve" viewBox="0 0 249.1 67.5"><path d="M103.4 55.9h-.1s0 .1.1 0m0 .1c-.5 0-1.8.3-3.2.3-4.4 0-5.9-2-5.9-4.6V34.2h8.9c.5 0 .9-.4.9-1.1v-9.5c0-.5-.4-.9-.9-.9h-8.9V10.9c0-.4-.3-.7-.8-.7h-12c-.5 0-.8.3-.8.7V23s-6.1 1.5-6.5 1.6-.7.5-.7.9v7.6c0 .6.4 1.1.9 1.1h6.2v18.3c0 13.6 9.5 15 16 15 3 0 6.5-.9 7.1-1.2.3-.1.5-.5.5-.9V57c0-.5-.4-.9-.8-1m132.1-12.3c0-10.1-4.1-11.4-8.4-11-3.3.2-6 1.9-6 1.9v19.6s2.7 1.9 6.8 2c5.8.2 7.6-1.8 7.6-12.5m13.6-.9c0 19.1-6.2 24.6-17 24.6-9.1 0-14.1-4.6-14.1-4.6s-.2 2.6-.5 2.9c-.2.3-.4.4-.8.4h-8.3c-.6 0-1.1-.4-1.1-.9l.1-62c0-.5.4-.9.9-.9h11.9c.5 0 .9.4.9.9l-.1 20.9s4.6-3 11.3-3h.1c6.8.1 16.7 2.6 16.7 21.7m-48.6-20.1h-11.7c-.6 0-.9.4-.9 1.1v30.3s-3.1 2.2-7.3 2.2-5.4-1.9-5.4-6.1V23.7c0-.5-.4-.9-.9-.9h-11.9c-.5 0-.9.4-.9.9v28.5c0 12.3 6.9 15.3 16.3 15.3 7.8 0 14.1-4.3 14.1-4.3s.3 2.2.4 2.5.5.5.9.5h7.5c.6 0 .9-.4.9-.9l.1-41.7c-.2-.5-.6-.9-1.2-.9m-132.2-.1H56.4c-.5 0-.9.5-.9 1.1v40.9c0 1.1.7 1.5 1.7 1.5h10.7c1.1 0 1.4-.5 1.4-1.5v-41c-.1-.5-.5-1-1-1M62.4 3.8c-4.3 0-7.7 3.4-7.7 7.7s3.4 7.7 7.7 7.7c4.2 0 7.6-3.4 7.6-7.7s-3.4-7.7-7.6-7.7m92-1.4h-11.8c-.5 0-.9.4-.9.9v22.8h-18.5V3.3c0-.5-.4-.9-.9-.9h-11.9c-.5 0-.9.4-.9.9v62c0 .5.5.9.9.9h11.9c.5 0 .9-.4.9-.9V38.8h18.5l-.1 26.5c0 .5.4.9.9.9h11.9c.5 0 .9-.4.9-.9v-62c0-.5-.4-.9-.9-.9M49.1 29.8v32c0 .2-.1.6-.3.7 0 0-7 5-18.5 5-13.8 0-30.3-4.3-30.3-33C0 5.9 14.4-.1 28.4 0c12.2 0 17.1 2.7 17.8 3.2.2.3.3.5.3.8l-2.3 9.9c0 .5-.5 1.1-1.1.9-2-.6-5-1.8-12.1-1.8-8.2 0-17 2.3-17 20.8s8.4 20.6 14.4 20.6c5.1 0 7-.6 7-.6V41.1h-8.2c-.6 0-1.1-.4-1.1-.9V29.8c0-.5.4-.9 1.1-.9h20.9c.6 0 1 .4 1 .9" style="fill:#fff"/></svg>