<?xml version="1.0" encoding="utf-8"?>
<!-- Generator: Adobe Illustrator 28.0.0, SVG Export Plug-In . SVG Version: 6.00 Build 0)  -->
<svg version="1.1" id="Layer_1" xmlns="http://www.w3.org/2000/svg" xmlns:xlink="http://www.w3.org/1999/xlink" x="0px" y="0px"
	 viewBox="0 0 249.1 67.5" style="enable-background:new 0 0 249.1 67.5;" xml:space="preserve">
<style type="text/css">
	.st0{fill:#1B1F24;}
</style>
<path class="st0" d="M103.4,55.9h-0.1C103.3,55.9,103.3,56,103.4,55.9L103.4,55.9L103.4,55.9z M103.4,56c-0.5,0-1.8,0.3-3.2,0.3
	c-4.4,0-5.9-2-5.9-4.6V34.2h8.9c0.5,0,0.9-0.4,0.9-1.1v-9.5c0-0.5-0.4-0.9-0.9-0.9h-8.9V10.9c0-0.4-0.3-0.7-0.8-0.7h-12
	c-0.5,0-0.8,0.3-0.8,0.7V23c0,0-6.1,1.5-6.5,1.6c-0.4,0.1-0.7,0.5-0.7,0.9v7.6c0,0.6,0.4,1.1,0.9,1.1h6.2v18.3c0,13.6,9.5,15,16,15
	c3,0,6.5-0.9,7.1-1.2c0.3-0.1,0.5-0.5,0.5-0.9V57C104.2,56.5,103.8,56.1,103.4,56z M235.5,43.7c0-10.1-4.1-11.4-8.4-11
	c-3.3,0.2-6,1.9-6,1.9v19.6c0,0,2.7,1.9,6.8,2C233.7,56.4,235.5,54.4,235.5,43.7z M249.1,42.8c0,19.1-6.2,24.6-17,24.6
	c-9.1,0-14.1-4.6-14.1-4.6s-0.2,2.6-0.5,2.9c-0.2,0.3-0.4,0.4-0.8,0.4h-8.3c-0.6,0-1.1-0.4-1.1-0.9l0.1-62c0-0.5,0.4-0.9,0.9-0.9
	h11.9c0.5,0,0.9,0.4,0.9,0.9l-0.1,20.9c0,0,4.6-3,11.3-3h0.1C239.2,21.2,249.1,23.7,249.1,42.8z M200.5,22.7h-11.7
	c-0.6,0-0.9,0.4-0.9,1.1v30.3c0,0-3.1,2.2-7.3,2.2c-4.2,0-5.4-1.9-5.4-6.1V23.7c0-0.5-0.4-0.9-0.9-0.9h-11.9c-0.5,0-0.9,0.4-0.9,0.9
	v28.5c0,12.3,6.9,15.3,16.3,15.3c7.8,0,14.1-4.3,14.1-4.3s0.3,2.2,0.4,2.5c0.1,0.3,0.5,0.5,0.9,0.5h7.5c0.6,0,0.9-0.4,0.9-0.9
	l0.1-41.7C201.5,23.1,201.1,22.7,200.5,22.7z M68.3,22.6H56.4c-0.5,0-0.9,0.5-0.9,1.1v40.9c0,1.1,0.7,1.5,1.7,1.5h10.7
	c1.1,0,1.4-0.5,1.4-1.5V23.6C69.2,23.1,68.8,22.6,68.3,22.6z M62.4,3.8c-4.3,0-7.7,3.4-7.7,7.7s3.4,7.7,7.7,7.7
	c4.2,0,7.6-3.4,7.6-7.7S66.6,3.8,62.4,3.8z M154.4,2.4h-11.8c-0.5,0-0.9,0.4-0.9,0.9v22.8h-18.5V3.3c0-0.5-0.4-0.9-0.9-0.9h-11.9
	c-0.5,0-0.9,0.4-0.9,0.9v62c0,0.5,0.5,0.9,0.9,0.9h11.9c0.5,0,0.9-0.4,0.9-0.9V38.8h18.5l-0.1,26.5c0,0.5,0.4,0.9,0.9,0.9h11.9
	c0.5,0,0.9-0.4,0.9-0.9v-62C155.3,2.8,154.9,2.4,154.4,2.4z M49.1,29.8v32c0,0.2-0.1,0.6-0.3,0.7c0,0-7,5-18.5,5
	C16.5,67.5,0,63.2,0,34.5C0,5.9,14.4-0.1,28.4,0c12.2,0,17.1,2.7,17.8,3.2c0.2,0.3,0.3,0.5,0.3,0.8l-2.3,9.9c0,0.5-0.5,1.1-1.1,0.9
	c-2-0.6-5-1.8-12.1-1.8c-8.2,0-17,2.3-17,20.8s8.4,20.6,14.4,20.6c5.1,0,7-0.6,7-0.6V41.1h-8.2c-0.6,0-1.1-0.4-1.1-0.9V29.8
	c0-0.5,0.4-0.9,1.1-0.9h20.9C48.7,28.9,49.1,29.3,49.1,29.8z"/>
</svg>
