<svg width="360" height="113" viewBox="0 0 360 113" fill="none" xmlns="http://www.w3.org/2000/svg" xmlns:xlink="http://www.w3.org/1999/xlink">
 <g clip-path="url(#clip0)">
  <path fill-rule="evenodd" clip-rule="evenodd" d="M171.443 4.47103C168.755 6.69312 166.947 9.80032 166.343 13.2352C165.295 20.4152 170.233 25.9539 177.42 25.9539C184.754 25.9539 190.893 21.0159 191.941 14.1292C193.135 6.79546 188.197 1.11008 181.01 1.11008C177.523 1.05736 174.131 2.24893 171.443 4.47103ZM109.321 64.669C109.495 61.3145 109.444 57.9521 109.168 54.6044H54.3254L45.0361 73.707H85.8744C82.7663 84.7355 71.1162 91.72 57.1472 91.72C36.0191 91.72 22.0501 77.5904 22.0501 57.5588C22.0501 37.9883 36.3404 23.705 55.436 23.705C69.8799 23.705 78.422 31.1434 82.7803 39.8531H106.528C100.779 17.803 82.3054 2.89114 55.436 2.89114C23.447 2.89114 0 26.1844 0 57.5588C0 89.2335 23.1397 112.22 57.1472 112.164C88.3679 112.164 108.078 89.9809 109.321 64.669ZM129.814 4.60232L113.044 110.508H134.48L151.242 4.60232H129.814ZM153.254 110.508L164.743 37.5203H186.172L174.682 110.508H153.254ZM281.818 4.60232H260.389L253.859 45.4407C249.982 39.6994 242.998 35.8161 232.905 35.8161C215.821 35.8161 197.661 47.3056 193.925 70.9132C189.42 99.4798 208.054 112.22 222.498 112.22C232.13 112.22 240.05 108.329 245.638 101.345L250.262 110.508H274.051L268.701 91.0285L281.818 4.60232ZM234.924 54.4507C243.151 54.4507 252.001 61.9032 249.982 74.9502C247.81 88.9262 237.25 93.5849 229.79 93.5849C220.012 93.5849 212.874 85.1965 214.732 73.239C216.443 61.9032 224.67 54.4507 234.924 54.4507ZM358.843 81.0058H304.021C306.354 90.3231 312.878 94.9748 321.881 94.9748C330.115 94.9748 334.453 92.9563 337.414 88.4513H356.824C352.165 105.375 336.793 112.199 322.349 112.199C299.209 112.199 284.15 95.8897 284.15 73.9933C284.15 52.2576 299.677 35.7951 321.727 35.7951C343.777 35.7951 359.003 52.2785 359.003 74.0143V74.016C359.003 76.9691 359.003 78.0519 358.843 81.0058ZM303.868 66.7155H339.447C338.05 58.7951 330.59 53.2075 321.741 53.2075C312.41 53.2075 305.921 58.6414 303.868 66.7155Z" fill="#202124">
  </path>
 </g>
 <defs>
  <clipPath id="clip0">
   <rect width="360" height="112.222" fill="white">
   </rect>
  </clipPath>
 </defs>
</svg>