<svg viewBox="0 0 360 113" xmlns="http://www.w3.org/2000/svg" width="360" height="113" fill="none"><g clip-path="url(#a)"><path fill="#202124" fill-rule="evenodd" d="M171.443 4.471a14.67 14.67 0 0 0-5.1 8.764c-1.048 7.18 3.89 12.719 11.077 12.719 7.334 0 13.473-4.938 14.521-11.825 1.194-7.334-3.744-13.019-10.931-13.019a14.67 14.67 0 0 0-9.567 3.361m-62.122 60.198a75 75 0 0 0-.153-10.065H54.325l-9.289 19.103h40.838C82.766 84.736 71.116 91.72 57.147 91.72c-21.128 0-35.097-14.13-35.097-34.161 0-19.57 14.29-33.854 33.386-33.854 14.444 0 22.986 7.438 27.344 16.148h23.748c-5.749-22.05-24.223-36.962-51.092-36.962C23.447 2.891 0 26.184 0 57.56c0 31.675 23.14 54.661 57.147 54.605 31.22 0 50.931-22.183 52.174-47.495m20.493-60.067-16.77 105.906h21.436L151.242 4.602zm23.44 105.906 11.489-72.988h21.429l-11.49 72.988zM281.818 4.602h-21.429l-6.53 40.839c-3.877-5.742-10.861-9.625-20.954-9.625-17.084 0-35.244 11.49-38.98 35.097-4.505 28.567 14.129 41.307 28.573 41.307 9.632 0 17.552-3.891 23.14-10.875l4.624 9.163h23.789l-5.35-19.48zm-46.894 49.849c8.227 0 17.077 7.452 15.058 20.5-2.172 13.975-12.732 18.634-20.192 18.634-9.778 0-16.916-8.388-15.058-20.346 1.711-11.336 9.938-18.788 20.192-18.788m123.919 26.555h-54.822c2.333 9.317 8.857 13.969 17.86 13.969 8.234 0 12.572-2.019 15.533-6.524h19.41c-4.659 16.924-20.031 23.748-34.475 23.748-23.14 0-38.199-16.31-38.199-38.206 0-21.735 15.527-38.198 37.577-38.198s37.276 16.484 37.276 38.22v.001c0 2.953 0 4.036-.16 6.99m-54.975-14.29h35.579c-1.397-7.92-8.857-13.508-17.706-13.508-9.331 0-15.82 5.433-17.873 13.508" clip-rule="evenodd"/></g><defs><clipPath id="a"><path fill="#fff" d="M0 0h360v112.222H0z"/></clipPath></defs></svg>