<svg viewBox="0 0 166 34" class="prefix__logo-mark" xmlns="http://www.w3.org/2000/svg"><path fill="#fff" class="prefix__path-mobile" d="M30.82 1.45c-3.7-2.31-8.6-1.77-12.96.98-4.35-2.75-9.24-3.3-12.95-.98-5.87 3.67-6.58 13.11-1.59 21.1 3.68 5.88 9.43 9.33 14.55 9.27 5.12.06 10.87-3.39 14.54-9.27 4.99-7.99 4.28-17.43-1.59-21.1zM6.02 20.86a19.11 19.11 0 01-2.3-5.27 15.07 15.07 0 01-.5-4.97c.22-2.95 1.42-5.24 3.38-6.47 1.96-1.22 4.54-1.3 7.3-.2.42.17.83.36 1.22.57a22.5 22.5 0 00-3.95 4.75C8.14 14.12 7.2 19.5 8.27 23.8a19.72 19.72 0 01-2.25-2.95zm26-5.27a19.16 19.16 0 01-2.3 5.27 19.73 19.73 0 01-2.25 2.96c.94-3.86.3-8.58-2.02-13a.58.58 0 00-.83-.24l-7.23 4.52a.59.59 0 00-.19.81l1.06 1.7a.59.59 0 00.82.18l4.68-2.92a15.07 15.07 0 01.92 6.33c-.23 2.95-1.43 5.25-3.38 6.47a6.6 6.6 0 01-3.35.97h-.15a6.6 6.6 0 01-3.35-.97c-1.96-1.22-3.16-3.52-3.38-6.47a15.1 15.1 0 01.5-4.97 19.67 19.67 0 016.02-9.65 15.1 15.1 0 014.25-2.63c2.74-1.09 5.34-1.02 7.3.2 1.95 1.23 3.15 3.53 3.37 6.48a15.1 15.1 0 01-.49 4.96z"/><path  fill="#fff" class="prefix__path-desktop" d="M74.06 12.9a7.23 7.23 0 00-7.34 7.2c0 4 3.28 7.11 7.34 7.11a7.19 7.19 0 007.37-7.12c0-4.03-3.27-7.2-7.37-7.2zm0 10.55c-1.87 0-3.29-1.51-3.29-3.39s1.42-3.4 3.3-3.4c1.9 0 3.32 1.54 3.32 3.41a3.31 3.31 0 01-3.33 3.38zM90.58 7.36h-7.46a.6.6 0 00-.62.61v18.21a.6.6 0 00.61.65h7.47c5.98 0 10.13-3.97 10.13-9.76 0-5.82-4.15-9.7-10.13-9.7zm.18 15.62h-4.09V11.2h4.09c3.3 0 5.59 2.47 5.59 5.86 0 3.34-2.28 5.92-5.59 5.92zm24.82-9.7h-2.8a.63.63 0 00-.6.62v.83c-.63-1.06-2.08-1.84-3.87-1.84-3.5 0-6.79 2.76-6.79 7.15 0 4.37 3.25 7.17 6.76 7.17 1.8 0 3.28-.78 3.92-1.83v.86a.59.59 0 00.58.58h2.8a.57.57 0 00.6-.58V13.9a.6.6 0 00-.6-.62zm-6.53 10.2c-1.86 0-3.26-1.43-3.26-3.41s1.4-3.41 3.26-3.41c1.86 0 3.25 1.42 3.25 3.4 0 1.99-1.4 3.42-3.25 3.42zm22.3-16.12h-2.82a.6.6 0 00-.6.59v6.72c-.65-1-2.12-1.78-3.95-1.78-3.48 0-6.7 2.76-6.7 7.15 0 4.37 3.25 7.17 6.75 7.17 1.8 0 3.17-.78 3.92-1.83v.86c0 .32.26.58.58.58h2.81a.57.57 0 00.59-.58V7.95a.57.57 0 00-.59-.59zm-6.54 16.15c-1.85 0-3.24-1.44-3.24-3.44s1.4-3.45 3.24-3.45c1.85 0 3.24 1.44 3.24 3.45 0 2-1.39 3.44-3.24 3.44zM147.1 7.36h-2.8a.6.6 0 00-.62.59v6.72c-.64-1-2.11-1.78-3.94-1.78-3.48 0-6.7 2.76-6.7 7.15 0 4.37 3.25 7.17 6.75 7.17 1.8 0 3.17-.78 3.92-1.83v.86a.59.59 0 00.59.58h2.8a.57.57 0 00.58-.58V7.95a.57.57 0 00-.58-.59zm-6.53 16.15c-1.86 0-3.24-1.44-3.24-3.44s1.39-3.45 3.24-3.45c1.84 0 3.23 1.44 3.23 3.45 0 2-1.38 3.44-3.23 3.44zm21.9-9.28l-4.19 14.37c-.8 2.56-2.61 4.09-5.42 4.09a6.77 6.77 0 01-3.35-.78c-.53-.3-.97-.58-.97-1.03 0-.27.09-.41.25-.67l.83-1.25c.24-.35.41-.46.66-.46a.96.96 0 01.56.2 3 3 0 001.75.62c.86 0 1.52-.27 1.88-1.3l.36-1.2h-1.7c-.42 0-.65-.25-.75-.58l-3.75-12c-.14-.48-.01-.95.68-.95h2.96c.36 0 .6.12.77.64l2.77 9.67 2.59-9.67c.08-.34.3-.64.75-.64h2.8c.55 0 .72.38.52.94zm-96.8 4.28v7.67a.63.63 0 01-.64.64h-2.31a.62.62 0 01-.64-.64v-2.01c-1.47 1.85-4.03 3.02-6.92 3.02-5.44 0-9.68-4.08-9.68-9.9 0-6.05 4.58-10.22 10.37-10.22 4.28 0 7.7 1.84 9.22 5.54a.84.84 0 01.07.3c0 .18-.12.31-.5.44l-2.7 1.04a.7.7 0 01-.5.01.78.78 0 01-.33-.37 5.67 5.67 0 00-5.36-3.1c-3.45 0-5.92 2.7-5.92 6.19 0 3.39 2.1 6.17 6.02 6.17 2.06 0 3.7-.97 4.47-2.04h-2.45a.63.63 0 01-.63-.63v-2.09a.63.63 0 01.63-.63h7.16a.6.6 0 01.64.6z"/></svg>