<svg xmlns="http://www.w3.org/2000/svg" width="500" height="500" fill="none" viewBox="0 0 500 500"><path fill="#fff" d="M0 0h500v500H0z"/><path fill="#1dacbc" d="M0 0v500h500V0z"/><path stroke="#fff" stroke-linecap="round" stroke-miterlimit="10" stroke-width="21.375" d="M101.98 312.798c0-24.225 19.238-43.462 43.463-43.462 10.687 0 19.95 3.562 27.787 9.975 9.263 7.837 15.675 19.95 15.675 33.487 0 24.225-19.237 43.463-43.462 43.463"/><path stroke="#fff" stroke-linecap="round" stroke-miterlimit="10" stroke-width="21.375" d="M188.218 312.785c0-6.413-1.425-12.825-4.275-17.813-5.7-11.4-2.85-25.65 4.988-34.912l17.812-21.375c8.55-9.975 21.375-14.25 33.488-11.4 3.562.712 7.125 1.425 10.687 1.425 3.563 0 7.125-.713 10.688-1.425 12.112-3.563 25.65 1.425 33.487 11.4l12.113 14.25c9.262 10.687 11.4 26.362 4.275 38.475-3.563 6.412-5.7 13.537-5.7 21.375"/><path stroke="#fff" stroke-linecap="round" stroke-miterlimit="10" stroke-width="21.375" d="M295.05 185.254c0 13.537-6.412 24.937-15.675 33.487-7.837 6.413-17.1 9.975-27.787 9.975-10.688 0-19.95-3.562-27.788-9.975-9.262-7.837-15.675-19.95-15.675-33.487 0-24.225 19.238-43.463 43.463-43.463M349.923 356.261c-24.225 0-43.462-19.238-43.462-43.463 0-15.675 8.55-29.212 20.662-37.05 6.413-4.275 14.25-6.412 22.088-6.412 24.225 0 43.462 19.237 43.462 43.462"/></svg>