<svg xmlns="http://www.w3.org/2000/svg" width="531" height="152" fill="none" viewBox="0 0 531 152"><path fill="#fafafa" d="M309.514 24.066s-30.947-.553-41.371 0c-4.691 0-9.349.945-13.682 2.736a35.9 35.9 0 0 0-11.597 7.814 35.9 35.9 0 0 0-7.753 11.723 36.5 36.5 0 0 0-2.736 13.806c0 4.722.912 9.443 2.736 13.806a36.3 36.3 0 0 0 7.753 11.723c3.323 3.354 7.265 6.024 11.597 7.815 4.333 1.823 8.991 2.735 13.682 2.735 10.424.554 41.371 0 41.371 0v-72.19zm-18.601 53.337h-18.6c-11.532 0-20.914-7.261-20.914-17.193 0-9.931 9.382-17.258 20.914-17.55h18.6zM501.985 81.734c-6.906-1.237-10.782-6.317-11.206-15.565s-.847-42.59-.847-42.59H471.82c0 4.525.261 36.273.587 46.433.586 16.509 8.99 25.952 24.431 29.013a145.6 145.6 0 0 0 33.455.748V82.256c-9.446.847-18.926.684-28.308-.52M409.45 61.617c-.097-10.81-4.43-21.165-12.085-28.752-7.623-7.587-17.949-11.82-28.667-11.723a40.8 40.8 0 0 0-15.505 2.964 40.7 40.7 0 0 0-13.194 8.726 41.2 41.2 0 0 0-8.893 13.155 40.7 40.7 0 0 0-3.192 15.597c.033 5.34 1.14 10.648 3.192 15.565 2.085 4.917 5.082 9.41 8.861 13.155a40.7 40.7 0 0 0 13.193 8.727 39.6 39.6 0 0 0 15.506 2.963c10.717.065 21.011-4.135 28.666-11.722a41.07 41.07 0 0 0 12.086-28.72h.032zm-40.719 21.1a20.7 20.7 0 0 1-11.434-3.875 21.2 21.2 0 0 1-7.427-9.605 21.2 21.2 0 0 1-.945-12.146c.88-4.038 2.899-7.75 5.864-10.648s6.678-4.852 10.717-5.6c4.039-.75 8.209-.326 11.988 1.302a21.17 21.17 0 0 1 9.284 7.782 21.18 21.18 0 0 1 3.485 11.657 21.62 21.62 0 0 1-6.449 15.044 21.23 21.23 0 0 1-15.083 6.057zM275.598 112.636c-6.776 0-20.914-.521-31.207-1.042v17.779c8.372.325 29.089 2.018 40.23-.456 9.48-2.084 18.862-7.978 21.533-16.249h-30.589zM448.898 23.219h-19.187v75.804h19.187z"/><path fill="#fafafa" fill-rule="evenodd" d="M75.315 0c41.599 0 75.314 34.028 75.314 76s-33.715 76-75.314 76C33.715 152 0 117.973 0 76S33.716 0 75.315 0m30.49 70.562-13.063 1.4c-1.726.196-2.931 1.661-2.931 3.42 0 8.563-6.841 15.499-15.31 15.499S59.19 83.945 59.19 75.414c0-1.758-1.206-3.256-2.932-3.452l-13.063-1.4Q43 72.272 43 73.982c0 17.55 14.137 31.845 31.5 31.845s31.501-14.295 31.501-31.846q0-1.758-.196-3.419m-31.24-27.385c-6.775 0-12.28 5.536-12.28 12.374s5.505 12.374 12.28 12.374c6.776 0 12.281-5.536 12.281-12.374s-5.505-12.374-12.28-12.374" clip-rule="evenodd"/></svg>