<svg xmlns="http://www.w3.org/2000/svg" width="326" height="329" fill="none" viewBox="0 0 326 329"><path fill="#d64040" fill-rule="evenodd" d="M163 0c90.031 0 163 73.652 163 164.5S253.031 329 163 329C72.97 329 0 255.348 0 164.5S72.97 0 163 0m65.99 152.73-28.272 3.031c-3.736.422-6.345 3.594-6.345 7.4 0 18.536-14.805 33.548-33.136 33.548-18.33 0-33.135-15.012-33.135-33.478 0-3.806-2.609-7.048-6.345-7.47l-28.272-3.031a65 65 0 0 0-.423 7.4c0 37.989 30.598 68.929 68.175 68.929 37.578 0 68.176-30.94 68.176-68.929q0-3.806-.423-7.4m-67.611-59.274c-14.665 0-26.58 11.982-26.58 26.782s11.915 26.783 26.58 26.783 26.578-11.982 26.578-26.783c0-14.8-11.914-26.782-26.578-26.782" clip-rule="evenodd"/></svg>