<svg xmlns="http://www.w3.org/2000/svg" version="1.2" viewBox="0 0 1528 641"><path d="M344.9 63c-58.6 0-94.8 44.4-94.8 119.9 0 74.9 36.2 119.8 94.8 119.8 58.6 0 94.8-44.3 94.8-119.8S404.1 63 344.9 63zm0 226c-22.5 0-29.3-24.4-29.3-106.7 0-82.4 6.8-106.8 29.3-106.8 22.4 0 29.3 25 29.3 107.4 0 81.7-6.9 106.1-29.3 106.1zm432.2 113c-25 0-43 9.3-53.6 25.5v-82.3h-63v152.9c0 83-47.4 122.3-90.5 122.3-31.8 0-44.9-21.8-44.9-96.7s8.1-108.6 33.7-108.6c16.8 0 31.2 16.2 45.5 53.6h15.6v-55.5c-18.7-7.5-41.8-11.2-59.8-11.2-64.3 0-100.5 46.1-100.5 121.7 0 74.9 36.2 117.3 97.3 117.3 50.6 0 86.7-26.8 103.6-72.4v66.8h63V465.6c0-26.2 14.3-39.3 29.3-39.3 14.3 0 19.3 11.9 19.3 30V636h63V468.1c0-46.8-23.1-66.1-58-66.1zM478.4 6.2v290.9h62.9V6.2zm227.1 0v79.3C699.8 71.8 686.1 63 664.3 63 615 63 582 107.4 582 181.6c0 76.2 29.3 120.5 79.8 120.5 23.7 0 39.9-11.2 47.4-34.3v28.7h58.6V6.2zM674.3 284c-19.9 0-26.8-20-26.8-103 0-78 6.9-101.1 28.1-101.1 23.1 0 31.2 27.5 31.2 101.1 0 74.3-10.6 103-32.5 103zm365.5-221c-28 0-48.6 15-57.4 35.6-8.7-23.7-26.2-35.6-51.1-35.6-26.8 0-46.2 11.9-55.5 31.2V68.7h-58.6v228.4h62.3V126.7c0-26.2 12.5-39.3 28.1-39.3 13.1 0 18.7 10.6 18.7 28.7v181h63V126.7c0-26.2 12.5-39.3 28.1-39.3 13.1 0 18.7 10.6 18.7 28.7v181h63V129.2c0-46.8-23.7-66.2-59.3-66.2zm-51.7 438.8L951.9 480c-24.3-14.4-33.1-23.1-33.1-38.1 0-16.9 11.9-27.5 31.8-27.5 23.7 0 41.2 15.6 51.8 53.7h15.6v-58.7c-20-4.3-42.4-8.1-62.4-8.1-50.5 0-81.1 25-81.1 65.6 0 28.1 15.6 47.4 47.4 66.7l30 18.1c24.9 15 33.7 25.6 33.7 42.5 0 21.8-13.8 33.1-37.5 33.1-29.3 0-46.1-18.8-57.3-59.9h-15.6v64.2c23 6.3 47.4 8.8 67.3 8.8 57.4 0 90.5-26.9 90.5-71.8-.7-30.6-15.6-49.3-44.9-66.8zM1228.2 63c-23.7 0-51.8 4.4-78 12.5v53.7h15.6c13.1-33.7 30.6-52.4 55.5-52.4 15.6 0 21.8 7.5 21.8 24.9v29.4c0 14.3-3.7 18.7-19.9 24.3l-16.9 5.6c-49.9 16.9-72.3 38.7-72.3 78 0 41.9 24.9 63.7 61.1 63.7 25.6 0 47.4-11.2 54.3-33.1v27.5h57.3v-166c-.6-45-27.4-68.1-78.5-68.1zm14.9 172.9c0 30-9.9 43.7-25.5 43.7-15 0-20-11.8-20-42.4v-6.3c0-35.5 7.5-49.9 28.1-60.5l17.4-8.7zm227-172.9c-27.4 0-47.4 11.8-57.3 31.2V68.6h-59.3V297h63V126c0-26.2 14.4-39.3 29.3-39.3 14.4 0 19.4 11.8 19.4 29.9v179.8h62.9V129.1c0-46.8-23-66.1-58-66.1zM223.4 537.9c0 58.7-42.4 98-110.4 98H13.3V531.7h14.9c13.7 61.8 39.3 89.3 82.3 89.3 35 0 53.7-18.8 53.7-49.4 0-32.4-20-47.4-49.3-64.2l-44.3-26.3C33.2 459.3 12 432.5 12 395c0-41.8 24.3-68.6 63.6-79.9C20.1 300.1.2 249.6.2 159.7.2 57.3 42.6-.1 129.3-.1h80.4v86.2h-15.6c-18.7-55-34.9-71.8-64.2-71.8C86.8 14.3 75 60.5 75 162.2c0 117.3 10.6 143.6 42.4 143.6 24.3 0 36.2-15.6 36.2-52.5v-44.9c0-27.5-8.7-37.5-37.4-41.8v-14.4h96v245.3h-14.3C176 335.7 148 322 116.8 322c-30.6 0-49.3 14.3-49.3 42.4 0 26.2 15.6 38.7 44.9 56.2l48 28.7c38.1 23.7 63 45.6 63 88.6zm121-136c-23.7 0-51.7 4.3-77.9 12.5V468h15.6c13.1-33.7 30.5-52.4 55.5-52.4 15.6 0 21.8 7.5 21.8 25v28.7c0 14.3-3.7 18.7-20 24.3l-16.8 5.6c-49.9 16.9-72.3 38.7-72.3 78.1 0 41.8 24.9 63.6 61.1 63.6 25.5 0 47.4-11.2 54.2-33.1v27.5h56.8V470.5c0-45.5-27.5-68.6-78-68.6zm15 172.9c0 29.9-10 43.7-25.6 43.7-14.9 0-19.9-11.9-19.9-42.5v-6.2c0-35.6 7.4-50 28-60.6l17.5-8.7z" style="opacity:.95;fill:#000"/></svg>