<svg xmlns="http://www.w3.org/2000/svg" version="1.2" viewBox="0 0 1549 1118"><style>.s0{fill:#fff}</style><g id="Page 1"><path id="Path 5" d="M1548.9 778c0 215.9-147.4 340-407.7 340-71.5 0-176.3-11.2-274.7-27V668.7h76l31.9 99.9c71.5 230.2 122.3 306.3 212.6 306.3 95.3 0 163.7-84.1 163.7-195.2 0-90.4-42.8-153.9-134.9-203.3l-158.7-85.5c-122.3-65.2-189.2-166.8-189.2-290.5 0-187.5 154.1-300 406.4-300 57.1 0 124 4.5 230.2 18.9v344.5h-76.1L1385.7 232c-43.1-139.5-89-190.6-173.1-190.6-93.9 0-149.2 60.2-149.2 147.9 0 77.8 42.7 133.1 126.8 180.8l160.5 90.4c134.8 76.4 198.2 178.1 198.2 317.5z" class="s0"/><path id="path2" d="M445.4 546H774v538.4c-109.3 22-193.4 33.2-285.5 33.2C128 1117.6.8 911.2.8 571.6.8 206.4 177.4 0 528.1 0c44.5 0 128.5 3.2 233.3 18.9v344.9h-76l-43.1-132.1c-41-125.2-90.4-187.2-168.2-187.2-134.9 0-206.3 182.6-206.3 524 0 342.7 28.7 504.6 204.6 504.6 23.8 0 52.5-3.1 79.5-10.8V662l-106.5-73.2z" class="s0"/></g></svg>