<svg width="74" height="54" viewBox="0 0 74 54" fill="none" xmlns="http://www.w3.org/2000/svg">
<path d="M63.6818 0H20.4214C16.6679 0 13.6143 3.05368 13.6143 6.80715V13.6143H66.3538C70.1073 13.6143 73.161 16.668 73.161 20.4215V9.47913C73.161 4.19881 68.8985 0 63.6818 0Z" fill="#4285F4"/>
<path d="M9.47913 0C4.26243 0 0 4.26243 0 9.47913V32.9543C0 36.7078 3.05368 39.7614 6.80715 39.7614H13.6143V6.80716C13.6143 3.05368 16.668 0 20.4215 0H9.47913V0Z" fill="#34A853"/>
<path d="M9.47913 53.3758H52.7396C56.493 53.3758 59.5467 50.3221 59.5467 46.5686V39.7615H6.80715C3.05368 39.7615 0 36.7078 0 32.9543V43.9603C0 49.1134 4.19881 53.3758 9.47913 53.3758Z" fill="#FBBC04"/>
<path d="M63.6818 53.3757C68.8985 53.3757 73.161 49.1133 73.161 43.8966V20.4214C73.161 16.6679 70.1073 13.6143 66.3538 13.6143H59.5467V46.5685C59.5467 50.322 56.493 53.3757 52.7395 53.3757H63.6818V53.3757Z" fill="#EA4335"/>
</svg>
