<svg width="115" height="20" viewBox="0 0 115 20" fill="none" xmlns="http://www.w3.org/2000/svg">
<path fill-rule="evenodd" clip-rule="evenodd" d="M38.1051 15.7286C34.0621 15.7286 30.6699 12.4077 30.6699 8.33111C30.6699 4.25452 34.0621 0.933594 38.1051 0.933594C40.3336 0.933594 41.9311 1.80857 43.1341 2.96195L41.7142 4.39372C40.8464 3.57841 39.7025 2.94206 38.1051 2.94206C35.1468 2.94206 32.8393 5.34824 32.8393 8.31122C32.8393 11.2941 35.1468 13.6804 38.1051 13.6804C40.0181 13.6804 41.1028 12.9048 41.8128 12.2088C42.3847 11.6322 42.7594 10.7969 42.8975 9.66346H38.1051V7.63511H44.8499C44.9288 7.99305 44.9485 8.43054 44.9485 8.88791C44.9485 10.3992 44.5344 12.2685 43.213 13.6207C41.9311 15.0127 40.2942 15.7286 38.1051 15.7286ZM99.2254 15.4282V3.97403H102.834V2.36328H93.9399V3.97403H97.5687V15.4282H99.2254ZM108.477 15.4517H110.212L114.945 2.38672H113.092L109.404 12.9858H109.325L105.775 2.38672H103.921L108.477 15.4517ZM50.7286 15.7242C53.2924 15.7242 55.3829 13.7157 55.3829 10.9715C55.3829 8.20733 53.2924 6.21875 50.7286 6.21875C48.1647 6.21875 46.0742 8.20733 46.0742 10.9715C46.0742 13.6958 48.1647 15.7242 50.7286 15.7242ZM50.7286 8.08802C52.1485 8.08802 53.3516 9.26128 53.3516 10.9715C53.3516 12.6617 52.1288 13.8549 50.7286 13.8549C49.3086 13.8549 48.1056 12.6617 48.1056 10.9715C48.1056 9.26128 49.3283 8.08802 50.7286 8.08802ZM65.8151 10.9716C65.8151 13.7158 63.7246 15.7243 61.1607 15.7243C58.5969 15.7243 56.5063 13.696 56.5063 10.9716C56.5063 8.20748 58.5969 6.2189 61.1607 6.2189C63.7246 6.19901 65.8151 8.20748 65.8151 10.9716ZM63.7837 10.9716C63.7837 9.26142 62.5807 8.08816 61.1607 8.08816C59.7605 8.08816 58.5377 9.26142 58.5377 10.9716C58.5377 12.6619 59.7407 13.855 61.1607 13.855C62.561 13.855 63.7837 12.6619 63.7837 10.9716ZM75.9916 15.048V6.49715H74.0391V7.2727H73.9602C73.4869 6.7159 72.5994 6.21875 71.4753 6.21875C69.1284 6.21875 66.959 8.30676 66.959 10.9913C66.959 13.656 69.1087 15.7242 71.4753 15.7242C72.5994 15.7242 73.4869 15.227 73.9602 14.6503H74.0391V15.3264C74.0391 17.1559 73.0728 18.1303 71.5147 18.1303C70.2328 18.1303 69.4439 17.2156 69.1284 16.4401L67.314 17.1957C67.8267 18.4485 69.2073 19.9996 71.495 19.9996C73.9405 19.9996 75.9916 18.5678 75.9916 15.048ZM71.6331 8.08802C73.053 8.08802 74.1575 9.32093 74.1575 10.9913C74.1575 12.6419 73.053 13.8549 71.6331 13.8549C70.2131 13.8549 69.0101 12.6419 69.0101 10.9913C69.0101 9.32093 70.1934 8.08802 71.6331 8.08802ZM79.6201 1.44531V15.4449H77.5493V1.44531H79.6201ZM89.4023 13.6163L87.7852 12.5424C87.2329 13.3379 86.523 13.8549 85.4777 13.8549C84.4324 13.8549 83.6633 13.3578 83.19 12.4032L89.501 9.77831L89.284 9.24139C88.8896 8.18744 87.6865 6.21875 85.241 6.21875C82.8153 6.21875 80.8628 8.14767 80.8628 10.9715C80.8628 13.6362 82.7955 15.7242 85.4777 15.7242C87.6274 15.7242 88.8896 14.3918 89.4023 13.6163ZM87.0357 9.06242L82.8153 10.8323C82.7758 8.98287 84.2352 8.04824 85.2805 8.04824C86.1088 8.04824 86.7991 8.46585 87.0357 9.06242Z" fill="white"></path>
<path d="M19.7401 0H6.32923C5.16564 0 4.21899 0.954517 4.21899 2.12778V4.25556H20.5684C21.732 4.25556 22.6786 5.21008 22.6786 6.38334V2.96298C22.6786 1.31246 21.3573 0 19.7401 0Z" fill="#4285F4"></path>
<path d="M2.93856 0C1.32136 0 0 1.33235 0 2.96298V10.3008C0 11.4741 0.946648 12.4286 2.11024 12.4286H4.22047V2.12778C4.22047 0.954518 5.16712 0 6.33071 0H2.93856Z" fill="#34A853"></path>
<path d="M2.93856 16.6817H16.3494C17.513 16.6817 18.4597 15.7272 18.4597 14.5539V12.4261H2.11024C0.946648 12.4261 0 11.4716 0 10.2983V13.7386C0 15.3493 1.30164 16.6817 2.93856 16.6817Z" fill="#FBBC04"></path>
<path d="M19.7399 16.6886C21.3571 16.6886 22.6785 15.3563 22.6785 13.7256V6.38779C22.6785 5.21453 21.7318 4.26001 20.5683 4.26001H18.458V14.5609C18.458 15.7341 17.5114 16.6886 16.3478 16.6886H19.7399Z" fill="#EA4335"></path>
</svg>