<svg xmlns="http://www.w3.org/2000/svg" viewBox="0 0 162.28 32"><g data-name="Capa 2"><g data-name="Capa 1"><path d="m159.36 13.46-3 7.64h-.09l-3.13-7.64h-2.83L155 24.14l-2.68 5.94h2.75l7.23-16.62zm-21.2-6.34h-2.62v17.62h2.62zm-9.86 0H122v17.62h2.64v-6.67h3.67a5.59 5.59 0 0 0 5.78-5.47 5.6 5.6 0 0 0-5.79-5.48Zm.07 8.49h-3.73v-6h3.74a3 3 0 0 1 0 6Zm16.25-2.53a4.94 4.94 0 0 0-4.69 2.7l2.34 1a2.48 2.48 0 0 1 2.4-1.28 2.52 2.52 0 0 1 2.76 2.27v.18a5.73 5.73 0 0 0-2.73-.69c-2.51 0-5.07 1.38-5.07 4 0 2.36 2.05 3.88 4.37 3.88a3.66 3.66 0 0 0 3.34-1.72h.1v1.36H150V18c0-3.13-2.34-4.87-5.36-4.87Zm-.31 9.66c-.86 0-2.06-.44-2.06-1.5 0-1.36 1.49-1.88 2.79-1.88a4.67 4.67 0 0 1 2.4.59 3.19 3.19 0 0 1-3.13 2.79Zm-94.82 2.38A9.46 9.46 0 0 1 40 15.81a9.46 9.46 0 0 1 9.49-9.31 8.91 8.91 0 0 1 6.41 2.57l-1.81 1.79A6.51 6.51 0 0 0 49.49 9a6.77 6.77 0 0 0 0 13.54 6.25 6.25 0 0 0 4.72-1.87 5.26 5.26 0 0 0 1.39-3.2h-6.11V15h8.6a8.38 8.38 0 0 1 .13 1.59 8.37 8.37 0 0 1-2.21 6 8.57 8.57 0 0 1-6.52 2.53Zm22.03-6a5.94 5.94 0 1 1-11.87 0 5.94 5.94 0 1 1 11.87 0zm-2.6 0a3.35 3.35 0 1 0-6.67 0 3.35 3.35 0 1 0 6.67 0zm15.9 0a5.93 5.93 0 1 1-11.86 0 5.93 5.93 0 1 1 11.86 0zm-2.59 0a3.35 3.35 0 1 0-6.67 0 3.35 3.35 0 1 0 6.67 0zm15.57-5.63v10.77c0 4.42-2.63 6.24-5.73 6.24a5.75 5.75 0 0 1-5.34-3.5L89 26a3.33 3.33 0 0 0 3 2.13c2 0 3.22-1.23 3.22-3.52v-.86h-.1A4.12 4.12 0 0 1 92 25.12a6 6 0 0 1 0-12 4.18 4.18 0 0 1 3.16 1.34h.1v-1h2.54Zm-2.33 5.66a3.39 3.39 0 0 0-3.21-3.66 3.48 3.48 0 0 0-3.36 3.66 3.45 3.45 0 0 0 3.36 3.61 3.35 3.35 0 0 0 3.21-3.61Zm6.96-12.01v17.61h-2.64V7.14Zm10.4 13.96 2.06 1.36a6 6 0 0 1-5 2.66 5.81 5.81 0 0 1-5.89-6 5.52 5.52 0 0 1 10.75-2.18l.27.69-8 3.31a3.07 3.07 0 0 0 2.92 1.82 3.44 3.44 0 0 0 2.89-1.66zm-6.31-2.16 5.38-2.22a2.34 2.34 0 0 0-2.24-1.27 3.29 3.29 0 0 0-3.14 3.49z" style="fill:#5f6368"/><path d="M13.54 15.28.12 29.34a3.64 3.64 0 0 0 5.33 2.16l15.1-8.6z" style="fill:#ea4335"/><path d="m27.11 12.89-6.53-3.74-7.35 6.45 7.38 7.28 6.48-3.7a3.55 3.55 0 0 0 0-6.29z" style="fill:#fbbc04"/><path d="M.12 2.66a3.46 3.46 0 0 0-.12.92v24.84a3.66 3.66 0 0 0 .12.92L14 15.64Z" style="fill:#4285f4"/><path d="m13.64 16 6.94-6.85L5.5.51A3.72 3.72 0 0 0 3.63 0 3.64 3.64 0 0 0 .12 2.65Z" style="fill:#34a853"/></g></g></svg>