<svg width="32" height="32" viewBox="0 0 32 32" fill="none" xmlns="http://www.w3.org/2000/svg">
<g clip-path="url(#clip0_1453_3284)">
<path d="M15.8258 31.9135C19.1265 31.9135 22.5858 31.1824 23.9792 30.1684C24.869 29.5337 25.3105 29.5958 26.1037 28.8371C26.3245 28.6163 26.421 28.5508 26.4831 28.4887C29.4975 26.0124 31.2427 22.8083 31.2427 18.6523C31.2427 11.8923 26.4521 7.29137 19.599 7.29137C13.5702 7.29137 8.96928 11.1301 8.96928 16.0483C8.96928 20.5216 12.4596 23.7257 17.4399 23.7257C17.7262 23.7257 17.8538 23.567 18.1711 23.567C19.3783 23.567 20.3612 23.2187 20.9958 22.553C21.3131 22.2047 21.9167 21.5046 21.9788 21.4735C22.265 21.2183 22.3271 20.8389 22.3926 20.6803C22.4547 20.5216 22.5823 20.425 22.6479 20.2043C22.71 19.9491 22.6168 19.6318 22.6168 19.349C22.6168 18.842 22.8376 18.335 22.8376 17.859C22.8376 16.5277 21.251 15.193 19.8232 15.193C19.6645 15.193 19.6645 15.0653 19.5679 15.0653C19.4714 15.0653 19.3783 15.1619 19.2817 15.1619C19.1851 15.1619 19.0609 15.0033 18.9333 15.0033C18.8057 15.0033 18.7436 15.1309 18.5539 15.1309C18.1401 15.1309 18.109 15.193 17.7917 15.193C17.6952 15.193 17.5365 15.224 17.4744 15.255C17.3468 15.3171 17.3468 15.4137 17.2192 15.4137C17.0491 15.4137 16.964 15.4459 16.964 15.5103C16.964 15.8586 16.995 15.7965 16.8364 15.7965C16.6662 15.7965 16.5604 15.8069 16.5191 15.8276C16.3914 15.8896 16.488 16.0483 16.3604 16.1449C16.2328 16.2069 16.2018 16.3035 16.1707 16.4932C16.1397 16.6829 15.95 16.7484 15.95 16.9381C15.95 17.0347 15.981 17.0968 15.981 17.1589C15.981 17.3486 15.6016 17.2865 15.6016 17.4762C15.6016 17.6038 15.6982 17.6969 15.6982 17.8245C15.6982 17.9211 15.6361 17.9832 15.6361 18.0797C15.6361 18.1763 15.6982 18.2384 15.6982 18.3005C15.6982 18.4591 15.4775 18.4902 15.4775 18.6178C15.4775 18.7454 15.6051 18.8385 15.6051 18.9351C15.6051 18.9972 15.5085 19.0316 15.5085 19.1248C15.5085 19.2179 15.4775 19.0627 15.6672 19.3455C15.7948 19.5352 15.7948 19.6318 15.6672 19.7904C15.5396 19.9491 15.2878 20.0456 14.9705 20.0456C13.6392 20.0456 13.4805 18.6799 12.7493 18.4591C12.5286 18.397 12.4941 18.3626 12.4941 18.2694C12.4941 18.1763 12.4941 18.2073 12.6217 18.0797C12.7493 17.9521 12.7804 17.859 12.7804 17.7624C12.7804 17.6659 12.7804 17.6348 12.7183 17.5727C12.4631 17.1589 12.3389 16.6519 12.3389 16.0828C12.3389 13.165 15.8913 10.7196 19.2575 10.7196C20.2715 10.7196 20.1129 10.9749 20.7165 10.9749C20.8751 10.9749 20.813 10.9749 21.0338 10.9438C21.6063 10.8473 22.6513 11.0714 23.4756 11.4819C25.7588 12.6235 27.2522 15.3206 27.2522 18.4626C27.2522 23.8257 22.4927 27.7265 16.1466 27.7265C12.6873 27.7265 10.3075 26.647 7.95873 24.0154C7.70351 23.7291 8.08634 24.0775 7.67247 23.3498C7.16547 22.4599 7.22755 23.0324 7.22755 23.0324C7.0689 22.8428 6.78263 22.3013 6.62398 22.1116C6.43429 21.8908 6.17907 21.9219 6.08594 21.7943C5.95833 21.6356 6.14803 21.3494 6.08594 21.1907C6.02386 20.9355 5.48237 20.5561 5.42029 20.3664C5.35821 20.1767 5.13403 18.9696 5.13403 18.7488C5.13403 18.4936 5.32372 18.4626 5.32372 18.3039C5.32372 18.0832 5.03746 18.0177 4.87881 17.7003C4.72015 17.383 4.62358 16.6519 4.62358 15.8586C4.62358 15.4447 4.62358 15.2861 4.75119 14.3342C4.78224 14.0169 5.25819 14.0169 5.25819 13.6685C5.25819 13.5409 5.19611 13.3822 5.19611 13.2891C5.19611 13.1615 5.19611 13.1305 5.22715 13.0339C6.55845 7.45003 12.5252 3.29402 19.1575 3.29402C21.4407 3.29402 23.1859 3.7079 25.883 4.84951C26.7728 5.22889 28.0731 4.56324 28.0731 3.86655C28.1352 3.64582 28.011 3.58029 27.9765 3.45268C27.9455 3.32506 27.8179 3.16641 27.6903 3.13537C27.6282 3.10433 27.5937 3.00776 27.5316 2.91464C27.435 2.75599 27.3419 2.6939 27.0867 2.62837C26.9591 2.59733 26.897 2.56629 26.8315 2.50076C26.7349 2.37315 26.6728 2.31107 26.5452 2.24554C26.4176 2.18346 26.3245 2.24554 26.2589 2.2145C26.1969 2.18346 26.1624 2.11793 26.1003 2.08689C26.0692 2.05585 26.0037 2.05585 25.9106 2.05585C22.71 0.34171 20.6164 0.0864868 17.8262 0.0864868C11.7974 0.0864868 6.40325 2.69046 3.07155 7.22584C2.78528 7.60523 2.94394 8.23984 2.53351 8.62267C1.74025 9.35385 0.757294 13.3512 0.757294 15.8896C0.757294 18.0142 1.26429 20.8389 1.92994 22.3944C3.2302 25.4398 2.66112 24.1706 2.85082 24.4569C3.2302 25.0604 3.54751 25.1225 3.70616 25.3122C3.70616 25.3122 3.80273 25.5019 3.80273 25.6916C3.80273 25.8192 3.80273 25.8503 3.83377 25.9123C3.93034 26.102 4.37181 26.4193 4.49942 26.5469C4.78568 26.8332 5.00642 27.4368 5.48237 27.9127C6.21356 28.6439 7.25859 29.213 10.5903 30.7685C11.7629 31.3065 11.0973 31.0237 11.2249 31.0547C11.5112 31.1513 11.8906 31.1513 12.1147 31.31C12.2423 31.4065 12.0837 31.372 12.432 31.372C12.4941 31.372 12.4941 31.4031 12.5597 31.4341C12.6217 31.4652 12.6873 31.5617 12.7804 31.5617C12.8425 31.5617 12.877 31.4997 12.9701 31.5307C13.0632 31.5617 13.2874 31.7204 13.4771 31.817C13.6357 31.9135 13.6668 31.9135 13.7323 31.848C13.922 31.7204 14.0496 31.879 14.2393 31.879C14.3014 31.879 14.3979 31.848 14.5876 31.848C14.8429 31.848 14.8429 31.9101 15.8258 31.9101" fill="#1E1E1E"/>
</g>
<defs>
<clipPath id="clip0_1453_3284">
<rect width="32" height="32" fill="white"/>
</clipPath>
</defs>
</svg>
