<svg width="32" height="32" viewBox="0 0 32 32" fill="none" xmlns="http://www.w3.org/2000/svg">
<g clip-path="url(#clip0_948_2145)">
<mask id="mask0_948_2145" style="mask-type:luminance" maskUnits="userSpaceOnUse" x="0" y="0" width="32" height="32">
<path d="M0 0H32V32H0V0Z" fill="white"/>
</mask>
<g mask="url(#mask0_948_2145)">
<path d="M15.826 31.9139C19.126 31.9139 22.586 31.1819 23.979 30.1679C24.869 29.5339 25.311 29.5959 26.104 28.8379C26.324 28.6159 26.421 28.5509 26.484 28.4879C29.497 26.0119 31.243 22.8079 31.243 18.6519C31.243 11.8919 26.453 7.29194 19.599 7.29194C13.57 7.29194 8.969 11.1299 8.969 16.0479C8.969 20.5219 12.459 23.7259 17.439 23.7259C17.726 23.7259 17.854 23.5669 18.171 23.5669C19.378 23.5669 20.361 23.2189 20.996 22.5529C21.313 22.2049 21.916 21.5049 21.979 21.4729C22.265 21.2179 22.327 20.8389 22.393 20.6799C22.455 20.5219 22.583 20.4249 22.648 20.2039C22.71 19.9489 22.617 19.6319 22.617 19.3489C22.617 18.8419 22.837 18.3349 22.837 17.8589C22.837 16.5279 21.251 15.1929 19.823 15.1929C19.664 15.1929 19.664 15.0649 19.568 15.0649C19.471 15.0649 19.378 15.1619 19.282 15.1619C19.185 15.1619 19.061 15.0029 18.933 15.0029C18.805 15.0029 18.743 15.1309 18.553 15.1309C18.14 15.1309 18.109 15.1929 17.792 15.1929C17.6833 15.1962 17.5759 15.2171 17.474 15.2549C17.347 15.3169 17.347 15.4139 17.219 15.4139C17.049 15.4139 16.964 15.4459 16.964 15.5099C16.964 15.8589 16.995 15.7969 16.836 15.7969C16.666 15.7969 16.5603 15.8069 16.519 15.8269C16.391 15.8899 16.488 16.0479 16.36 16.1449C16.233 16.2069 16.202 16.3039 16.17 16.4929C16.14 16.6829 15.95 16.7479 15.95 16.9379C15.95 17.0349 15.981 17.0969 15.981 17.1579C15.981 17.3479 15.601 17.2859 15.601 17.4759C15.601 17.6039 15.698 17.6959 15.698 17.8249C15.698 17.9209 15.636 17.9829 15.636 18.0799C15.636 18.1759 15.698 18.2379 15.698 18.2999C15.698 18.4599 15.478 18.4899 15.478 18.6179C15.478 18.7449 15.605 18.8379 15.605 18.9349C15.605 18.9969 15.508 19.0319 15.508 19.1249C15.508 19.2179 15.478 19.0629 15.668 19.3449C15.795 19.5349 15.795 19.6319 15.668 19.7899C15.54 19.9499 15.288 20.0459 14.971 20.0459C13.639 20.0459 13.481 18.6799 12.749 18.4589C12.529 18.3969 12.494 18.3629 12.494 18.2689C12.494 18.1759 12.494 18.2069 12.622 18.0789C12.749 17.9519 12.78 17.8589 12.78 17.7619C12.78 17.6659 12.78 17.6349 12.718 17.5719C12.463 17.1589 12.338 16.6519 12.338 16.0819C12.338 13.1649 15.891 10.7199 19.258 10.7199C20.272 10.7199 20.113 10.9749 20.717 10.9749C20.875 10.9749 20.813 10.9749 21.034 10.9439C21.606 10.8469 22.651 11.0709 23.476 11.4819C25.759 12.6239 27.252 15.3209 27.252 18.4619C27.252 23.8259 22.492 27.7269 16.147 27.7269C12.687 27.7269 10.307 26.6469 7.959 24.0149C7.704 23.7289 8.086 24.0779 7.672 23.3499C7.165 22.4599 7.228 23.0319 7.228 23.0319C7.068 22.8419 6.783 22.3019 6.624 22.1119C6.434 21.8909 6.179 21.9219 6.086 21.7939C5.958 21.6359 6.148 21.3489 6.086 21.1909C6.024 20.9359 5.482 20.5559 5.42 20.3659C5.358 20.1759 5.134 18.9699 5.134 18.7489C5.134 18.4939 5.324 18.4629 5.324 18.3039C5.324 18.0839 5.037 18.0179 4.879 17.6999C4.72 17.3829 4.624 16.6519 4.624 15.8589C4.624 15.4449 4.624 15.2859 4.751 14.3339C4.782 14.0169 5.258 14.0169 5.258 13.6689C5.258 13.5409 5.196 13.3819 5.196 13.2889C5.196 13.1619 5.196 13.1299 5.227 13.0339C6.558 7.44994 12.525 3.29394 19.157 3.29394C21.441 3.29394 23.186 3.70794 25.883 4.84994C26.773 5.22894 28.073 4.56294 28.073 3.86694C28.135 3.64594 28.011 3.57994 27.977 3.45294C27.945 3.32494 27.817 3.16594 27.69 3.13494C27.628 3.10494 27.594 3.00794 27.532 2.91494C27.435 2.75594 27.342 2.69394 27.087 2.62794C26.9906 2.6132 26.9011 2.56882 26.831 2.50094C26.7597 2.3923 26.6611 2.30435 26.545 2.24594C26.418 2.18294 26.325 2.24594 26.259 2.21494C26.197 2.18294 26.162 2.11794 26.1 2.08694C26.07 2.05594 26.004 2.05594 25.91 2.05594C22.71 0.341938 20.616 0.0859375 17.826 0.0859375C11.797 0.0859375 6.403 2.68994 3.072 7.22594C2.785 7.60594 2.944 8.23994 2.534 8.62294C1.74 9.35294 0.757004 13.3499 0.757004 15.8899C0.757004 18.0139 1.264 20.8389 1.93 22.3939C3.23 25.4399 2.661 24.1709 2.85 24.4569C3.23 25.0599 3.548 25.1219 3.706 25.3119C3.706 25.3119 3.803 25.5019 3.803 25.6919C3.803 25.8189 3.803 25.8499 3.833 25.9119C3.93 26.1019 4.372 26.4189 4.499 26.5469C4.786 26.8329 5.006 27.4369 5.482 27.9129C6.214 28.6429 7.259 29.2129 10.59 30.7679C11.763 31.3059 11.097 31.0239 11.225 31.0549C11.511 31.1509 11.891 31.1509 12.115 31.3099C12.242 31.4069 12.084 31.3719 12.432 31.3719C12.494 31.3719 12.494 31.4029 12.56 31.4339C12.622 31.4649 12.687 31.5619 12.78 31.5619C12.843 31.5619 12.877 31.4999 12.97 31.5309C13.063 31.5609 13.287 31.7209 13.477 31.8169C13.636 31.9129 13.667 31.9129 13.732 31.8479C13.922 31.7199 14.05 31.8789 14.239 31.8789C14.301 31.8789 14.398 31.8479 14.588 31.8479C14.843 31.8479 14.843 31.9099 15.826 31.9099" fill="#F7F7F2"/>
</g>
</g>
<defs>
<clipPath id="clip0_948_2145">
<rect width="32" height="32" fill="white"/>
</clipPath>
</defs>
</svg>
