<svg xmlns="http://www.w3.org/2000/svg" width="1263" height="400" fill="none" viewBox="0 0 1263 400"><path fill="#000" d="M144.979 199.328c0-53.469 40.362-97.512 92.28-103.322-17.703-32.085-51.863-53.818-91.099-53.818-57.226 0-103.654 46.232-103.97 103.383l-.002-.001v109.289L146.75 357.06l-1.772-108.108zm103.973 54.941.591-108.109c56.825 0 103.004 45.588 103.958 102.186l.015.015v108.108zm347.994-41.099q-2.19-7.615-6.154-13.457-3.964-5.946-9.702-10.014-5.633-4.173-12.935-6.363-7.197-2.19-15.96-2.191-16.377 0-28.791 8.137-12.309 8.136-19.194 23.679-6.885 15.44-6.884 37.762t6.78 37.971q6.78 15.647 19.194 23.888 12.413 8.136 29.312 8.136 15.335 0 26.183-5.424 10.953-5.529 16.691-15.543 5.841-10.014 5.841-23.679l9.18 1.356h-55.078v-34.007h89.397v26.913q0 28.166-11.891 48.402-11.893 20.133-32.755 31.086-20.863 10.85-47.776 10.849-30.043 0-52.784-13.248-22.74-13.353-35.466-37.866-12.623-24.62-12.623-58.417 0-25.974 7.511-46.315 7.615-20.446 21.28-34.633t31.816-21.593 39.327-7.406q18.15 0 33.798 5.32 15.647 5.216 27.747 14.813 12.205 9.597 19.925 22.844 7.719 13.144 9.909 29zm80.974 144.58V197.523h43.082v27.956h1.669q4.381-14.917 14.709-22.532 10.326-7.719 23.783-7.719 3.339 0 7.198.417t6.78 1.148v39.43q-3.129-.938-8.658-1.669-5.528-.73-10.118-.73-9.806 0-17.525 4.277-7.615 4.173-12.1 11.683-4.382 7.511-4.382 17.317v90.649zm120.197 0V197.523h44.438V357.75zm22.323-180.882q-9.91 0-17.003-6.571-6.99-6.676-6.989-15.961 0-9.179 6.989-15.751 7.094-6.676 17.003-6.676 9.91 0 16.899 6.676 7.093 6.572 7.093 15.751 0 9.285-7.093 15.961-6.989 6.571-16.899 6.571m116.754 183.49q-18.255 0-33.067-9.388-14.709-9.494-23.367-27.852-8.553-18.464-8.554-45.273 0-27.539 8.867-45.794 8.866-18.36 23.575-27.435 14.812-9.18 32.442-9.18 13.456 0 22.428 4.59 9.075 4.486 14.604 11.266 5.633 6.676 8.553 13.144h1.357v-80.322h44.338V357.75h-43.817v-25.661h-1.878q-3.129 6.675-8.866 13.248-5.633 6.467-14.709 10.744-8.97 4.277-21.906 4.277m14.083-35.363q10.745 0 18.15-5.841 7.511-5.946 11.475-16.586 4.068-10.64 4.068-24.932 0-14.29-3.964-24.827-3.963-10.535-11.474-16.273-7.51-5.736-18.255-5.737-10.953 0-18.464 5.946t-11.37 16.482-3.86 24.409q0 13.978 3.86 24.723 3.963 10.64 11.37 16.69 7.51 5.946 18.464 5.946m159.313 35.78q-15.33 0-27.33-5.32c-8-3.616-14.33-8.936-18.98-15.96-4.59-7.093-6.89-15.925-6.89-26.496 0-8.901 1.64-16.377 4.9-22.428 3.27-6.05 7.72-10.918 13.36-14.604 5.63-3.685 12.03-6.467 19.19-8.345q10.845-2.816 22.74-3.964 13.98-1.46 22.53-2.712 8.55-1.356 12.42-3.964c2.57-1.739 3.86-4.312 3.86-7.719v-.626c0-6.607-2.09-11.718-6.26-15.334-4.11-3.617-9.95-5.425-17.53-5.425-8 0-14.36 1.774-19.09 5.32q-7.095 5.216-9.39 13.144l-41.1-3.338c2.09-9.736 6.19-18.151 12.31-25.244 6.12-7.163 14.02-12.657 23.68-16.482 9.74-3.894 21-5.842 33.8-5.842q13.35 0 25.56 3.13c8.2 2.086 15.47 5.32 21.8 9.701q9.6 6.572 15.12 16.899c3.69 6.815 5.53 14.987 5.53 24.514v108.07h-42.14v-22.219h-1.25c-2.57 5.007-6.02 9.423-10.33 13.248q-6.465 5.633-15.54 8.867-9.075 3.129-20.97 3.129m12.73-30.668c6.53 0 12.31-1.287 17.31-3.86q7.515-3.964 11.79-10.64c2.85-4.451 4.28-9.493 4.28-15.126v-17.003c-1.39.904-3.3 1.739-5.74 2.504-2.36.695-5.04 1.356-8.03 1.982q-4.485.834-8.97 1.564c-2.99.417-5.7.8-8.14 1.148-5.21.765-9.77 1.982-13.66 3.651-3.9 1.669-6.92 3.929-9.08 6.78-2.16 2.782-3.23 6.259-3.23 10.432q0 9.076 6.57 13.873c4.45 3.13 10.08 4.695 16.9 4.695"/></svg>