<svg width="1024" height="400" viewBox="0 0 1024 400" fill="none" xmlns="http://www.w3.org/2000/svg">
<path d="M878.447 292.85V108.548H907.572V230.18L969.173 159.399H1004.48L949.069 220.058L1005 292.85H970.204L924.902 230.304L907.572 230.18V292.85H878.447Z" fill="#0A0A0A"/>
<path d="M790.12 295.947C746.819 295.947 723.364 265.23 723.364 225.995C723.364 186.502 746.819 156.043 790.12 156.043C833.679 156.043 856.876 186.502 856.876 225.995C856.876 265.23 833.679 295.947 790.12 295.947ZM753.778 225.995C753.778 256.454 770.274 271.683 790.12 271.683C810.224 271.683 826.462 256.454 826.462 225.995C826.462 195.536 810.224 180.049 790.12 180.049C770.274 180.049 753.778 195.536 753.778 225.995Z" fill="#0A0A0A"/>
<path d="M642.304 292.85V180.565L666.789 159.399H718.854V184.179H671.429V292.85H642.304Z" fill="#0A0A0A"/>
<path d="M530.938 296.258C475.424 296.258 442.325 255.938 442.325 200.957C442.325 145.46 476.606 104.16 532.021 104.16C575.323 104.16 607.025 126.359 614.5 167.659H581.251C576.353 144.169 556.765 131.005 532.021 131.005C492.07 131.005 474.544 165.594 474.544 200.957C474.544 236.32 492.07 270.651 532.021 270.651C570.168 270.651 586.921 243.031 588.21 220.058H530.732V193.331H617.593L617.451 207.305C617.451 259.231 596.295 296.258 530.938 296.258Z" fill="#0A0A0A"/>
<path d="M163.591 251.367L288.916 158.716C295.06 154.174 303.842 155.946 306.769 163.001C322.178 200.209 315.294 244.924 284.638 275.625C253.982 306.326 211.328 313.059 172.34 297.724L129.75 317.472C190.837 359.287 265.016 348.946 311.369 302.492C348.137 265.67 359.524 215.479 348.877 170.217L348.973 170.314C333.533 103.822 352.769 77.2447 392.174 22.898C393.107 21.6094 394.04 20.3208 394.973 19L343.119 70.9306V70.7695L163.559 251.399" fill="#0A0A0A"/>
<path d="M137.728 273.885C93.8835 231.941 101.443 167.028 138.854 129.594C166.518 101.889 211.842 90.5817 251.409 107.205L293.902 87.5535C286.246 82.0126 276.435 76.0528 265.176 71.8648C214.287 50.8929 153.362 61.3305 111.994 102.727C72.2025 142.577 59.6893 203.85 81.1773 256.135C97.229 295.211 70.9158 322.852 44.4097 350.75C35.0167 360.64 25.5916 370.53 18 381L137.696 273.917" fill="#0A0A0A"/>
</svg>
