<svg xmlns="http://www.w3.org/2000/svg" fill="none" viewBox="0 0 512 512">
  <path fill="url(#a)" d="M464 352.09c0 84.656-50.366 156.03-144.988 156.031-17.516 0-31.494-17.057-31.494-34.572l-.003-236.458c-.199-32.803 37.064-46.554 68.351-36.695C422.027 221.245 464 283.302 464 352.09"/>
  <path stroke="#fda6af" stroke-opacity=".66" d="M319.011 507.621c47.175 0 83.28-17.787 107.599-46.096 24.327-28.318 36.89-67.202 36.89-109.435 0-68.586-41.847-130.439-107.784-151.217-15.535-4.895-32.54-3.923-45.617 2.323-13.058 6.238-22.182 17.717-22.084 33.892v.003l.003 236.458c0 17.3 13.812 34.072 30.993 34.072Z"/>
  <path fill="url(#b)" d="M224.054 3.879c61.898 0 116.329 31.948 147.716 80.251 13.768 21.189-4.223 45.809-29.493 45.809h-5.199c-62.659 0-113.455 50.796-113.455 113.455v74.671c0 20.922-17.189 38.288-37.621 33.786C107.064 334.46 48.001 264.096 48 179.933 48 82.703 126.825 3.88 224.054 3.879"/>
  <path stroke="#fda6af" stroke-opacity=".66" d="M224.054 4.379c61.721 0 115.998 31.856 147.297 80.023 6.767 10.414 5.729 21.649-.103 30.299-5.84 8.663-16.498 14.738-28.97 14.738h-5.201c-62.935.001-113.954 51.019-113.954 113.954v74.671c0 20.684-16.968 37.716-37.013 33.299C107.396 334.021 48.5 263.856 48.5 179.932l.015-2.268C49.72 82.512 126.633 5.6 221.785 4.394z"/>
  <defs>
    <linearGradient id="a" x1="375.758" x2="375.758" y1="508.121" y2="192.97" gradientUnits="userSpaceOnUse">
      <stop stop-color="#ff7686"/>
      <stop offset=".5" stop-color="#dc415d"/>
      <stop offset="1" stop-color="#d41847"/>
    </linearGradient>
    <linearGradient id="b" x1="212.267" x2="212.267" y1="3.879" y2="352.568" gradientUnits="userSpaceOnUse">
      <stop stop-color="#d41847"/>
      <stop offset=".5" stop-color="#dc415d"/>
      <stop offset="1" stop-color="#ff7686"/>
    </linearGradient>
  </defs>
</svg>
