<?xml version="1.0" encoding="utf-8"?>
<!-- Generator: Adobe Illustrator 24.2.0, SVG Export Plug-In . SVG Version: 6.00 Build 0)  -->
<svg version="1.1" id="Layer_1" xmlns="http://www.w3.org/2000/svg" xmlns:xlink="http://www.w3.org/1999/xlink" x="0px" y="0px"
	 viewBox="0 0 1024 791.27002" style="enable-background:new 0 0 1024 791.27002;" xml:space="preserve">
<style type="text/css">
	.st0{fill:#9FEF00;}
</style>
<path class="st0" d="M697.93835,297.50143c0.00049-0.04691,0.00452-0.09305,0.00452-0.13995
	c0-4.64658-2.05377-8.99628-5.51544-11.95172c-0.16724-0.14578-0.34021-0.28525-0.51428-0.42371
	c-0.0517-0.04062-0.10291-0.08197-0.15509-0.12183c-0.59521-0.46054-1.22827-0.87796-1.89917-1.24747l-169.76471-98.01547
	c-0.41071-0.24364-0.8291-0.47014-1.25714-0.67746c-2.55103-1.23232-5.29578-1.71405-7.96582-1.52412
	c-1.40308,0.10164-2.80627,0.39169-4.16898,0.88098c-1.01544,0.36269-1.99631,0.8313-2.92343,1.39728l-169.85989,98.0649
	c-4.86584,2.81018-7.86215,8.00027-7.86215,13.61862c0,0.11374,0.00882,0.22623,0.0112,0.33972
	c-0.0025,0.12561-0.02094,0.24969-0.02094,0.37531l0.00012,195.83673c0,5.99643,3.35712,11.20972,8.29587,13.86224
	l169.79468,98.03036c0.3139,0.18134,0.63281,0.3501,0.95541,0.50793c0.02219,0.01086,0.04489,0.01947,0.06708,0.03027
	c0.48273,0.23334,0.97556,0.43634,1.47446,0.61743c0.06961,0.02521,0.13809,0.05347,0.20807,0.0777
	c0.49307,0.17151,0.99298,0.31372,1.49728,0.43433c0.09546,0.02295,0.19052,0.04541,0.28638,0.06628
	c0.5033,0.11078,1.01001,0.19879,1.51971,0.25928c0.08136,0.00964,0.16257,0.01544,0.24402,0.02374
	c0.53546,0.05499,1.0723,0.09052,1.60977,0.09052c0.5376,0,1.07458-0.03552,1.60999-0.09052
	c0.08124-0.0083,0.16248-0.0141,0.24365-0.02374c0.50989-0.06049,1.01654-0.1488,1.51996-0.25928
	c0.09576-0.02087,0.19055-0.04333,0.28601-0.06604c0.50433-0.12085,1.00446-0.26306,1.49756-0.43433
	c0.06989-0.02448,0.13818-0.05273,0.20782-0.07794c0.49847-0.18109,0.99097-0.38385,1.47345-0.61688
	c0.02258-0.01111,0.04578-0.01996,0.06836-0.03107c0.32269-0.15784,0.6416-0.32635,0.95538-0.50769l169.79456-98.03036
	c4.93884-2.65253,8.29584-7.86581,8.29584-13.86224l0.00049-195.95755C697.95294,297.80386,697.94238,297.65302,697.93835,297.50143
	z M392.67059,290.95648l115.6322-66.76077c2.28885-1.32161,5.10895-1.32161,7.39795,0l115.63019,66.759
	c4.93207,2.84726,4.93207,9.96625,0.00012,12.81378l-115.63208,66.7605c-2.28894,1.32159-5.1091,1.32159-7.39807,0.00024
	l-115.63031-66.75925C387.73868,300.92249,387.73853,293.80399,392.67059,290.95648z M491.96909,544.71106
	c0,5.68195-6.15076,9.23309-11.07135,6.39215l-115.4053-66.62985c-2.28357-1.31857-3.6904-3.75522-3.6904-6.39212V344.83359
	c0-5.68164,6.15076-9.23282,11.07135-6.39188l115.4053,66.62988c2.28369,1.31857,3.6904,3.75522,3.6904,6.39212V544.71106z
	 M662.19775,478.08124c0,2.6369-1.40686,5.07355-3.69043,6.39212l-115.40533,66.62985
	c-4.92059,2.84094-11.07135-0.71021-11.07135-6.39215V411.46371c0-2.6369,1.40674-5.07355,3.69043-6.39212l115.40515-66.62988
	c4.92072-2.84094,11.07153,0.71024,11.07153,6.39215V478.08124z"/>
</svg>
