<svg xmlns="http://www.w3.org/2000/svg" width="541.951" height="333.706" viewBox="0 0 541.951 333.706">
  <path fill="#00ec63" d="M294.276.37c11.332-.532 25.692-.16 37.217-.16l69.202.007L487.968.19c15.09-.001 30.19-.071 45.277.058 6.605.057 8.612-.274 8.654 6.965.091 15.84.008 31.679.005 47.519l.002 95.35.012 116.19c.01 20.655.083 41.352-.03 62.004-.016 2.888-.345 3.13-2.42 5.114-11.328.402-24.452.09-35.88.092l-67.82.01h-88.82c-15.507-.001-31.019.058-46.525-.06-6.454-.048-8.612.305-8.61-6.924 0-14.547.057-29.094.057-43.64l-.005-92.257-.02-120.401c-.006-21.337-.053-42.715.052-64.051.016-3.383-.02-3.484 2.38-5.79"/>
  <path fill="#fefffe" d="M2.445.383C5.793.11 19.578-.022 22.328.19 31.38.893 78.464-1.33 82.32 1.41c2.132 5.955 1.306 41.603 1.305 49.608l-.016 74.218 83.268-.01-.016-85.001c.001-6.585-.51-33.015.85-38.34C170.604-.948 189.177.273 193.917.252L226.401.15c5.191-.01 19.392-.77 23.02 1.687 1.196 5.846.821 19.343.818 26.057l-.01 42.238.014 169.013-.003 65.026c0 8.303.118 17.643-.15 26.03-.045 1.385-1.367 2.368-2.436 3.2-14.446.648-31.585-.216-46.299.136-6.16.147-28.499.262-32.759-.656-2.757-3.355-1.723-39.374-1.722-45.45l.027-78.903-83.294-.043.032 78.206c.004 12.918.08 25.853-.082 38.765-.036 2.896-.124 7.574-3.696 7.828-8.668.618-17.482.152-26.194.175l-30.663.116c-5.256.012-18.332.843-22.095-1.831C-.53 323.38.171 310.402.17 301.68l-.01-44.578-.004-134.84.01-82.146.003-24.873c0-3.663-.042-7.525.06-11.202.04-1.443 1.238-2.595 2.217-3.66"/>
</svg>
