<svg id="Layer_1" data-name="Layer 1" xmlns="http://www.w3.org/2000/svg" viewBox="0 0 72 14.09398"><defs><style>.cls-1{fill:#9fef00;}.cls-2{fill:#141d2b;}</style></defs><path class="cls-1" d="M14.383,4.42024l.00038-.00581a.42085.42085,0,0,0-.12881-.3026L14.242,4.10071c-.00883-.00787-.01759-.0158-.02713-.02294-.00913-.007-.01894-.01307-.02875-.01925l-.01332-.00891L9.61836,1.42008q-.01651-.00981-.03368-.01816a.42225.42225,0,0,0-.40345.0202l-4.551,2.62744-.01458.00975-.01056.00606-.00944.00735-.02443.019-.015.01322a.42209.42209,0,0,0-.03024.03094l-.00126.00144a.4205.4205,0,0,0-.10513.27712L4.42,4.42106l-.0007.01254v5.247a.42128.42128,0,0,0,.22228.37142l4.54926,2.6265.01123.00551.02882.0142.01925.00806.03063.01033.019.00551c.01129.00282.02268.00486.03412.00672l.01652.00281a.39515.39515,0,0,0,.10223,0l.01653-.00281.0341-.00672.019-.00551.03059-.01032.01926-.00807.02884-.0142.01121-.00551,4.54927-2.6265a.42129.42129,0,0,0,.22227-.37142V4.43037ZM6.20433,4.24282l3.09811-1.7887a.19819.19819,0,0,1,.19821,0l3.098,1.78865a.19822.19822,0,0,1,0,.34333L9.5006,6.3748a.19819.19819,0,0,1-.19821,0L6.20433,4.58613A.19821.19821,0,0,1,6.20433,4.24282Zm2.66048,6.7988a.19774.19774,0,0,1-.29663.17125l-3.092-1.78518a.19778.19778,0,0,1-.09888-.17127V5.68634a.19775.19775,0,0,1,.29663-.17125l3.092,1.7852a.19777.19777,0,0,1,.09887.17127Zm4.5609-1.7852a.1978.1978,0,0,1-.09888.17127l-3.092,1.78518a.19775.19775,0,0,1-.29663-.17125V7.47156a.19776.19776,0,0,1,.09888-.17127l3.092-1.7852a.19776.19776,0,0,1,.29664.17125Z"/><path class="cls-2" d="M21.59511,9.22088V7.54458a.10678.10678,0,0,0-.10678-.10677H20.017a.10677.10677,0,0,0-.10678.10677v1.6763a.10678.10678,0,0,1-.10678.10678h-.89471a.10678.10678,0,0,1-.10678-.10678V4.8731a.10678.10678,0,0,1,.10678-.10677h.89471a.10678.10678,0,0,1,.10678.10677V6.38924A.10677.10677,0,0,0,20.017,6.496h1.47129a.10678.10678,0,0,0,.10678-.10677V4.8731a.10677.10677,0,0,1,.10677-.10677h.89472a.10677.10677,0,0,1,.10677.10677V9.22088a.10678.10678,0,0,1-.10677.10678h-.89472A.10678.10678,0,0,1,21.59511,9.22088Z"/><path class="cls-2" d="M25.147,8.436l-.24858.816a.10678.10678,0,0,1-.10214.07566h-.93757a.10678.10678,0,0,1-.10106-.14127l1.48382-4.34777a.10677.10677,0,0,1,.101-.07229H26.644a.10677.10677,0,0,1,.10105.07229l1.48387,4.34777a.10678.10678,0,0,1-.10105.14127H27.1907a.10677.10677,0,0,1-.10232-.07629l-.2428-.81477a.10679.10679,0,0,0-.10233-.07629H25.2491A.10678.10678,0,0,0,25.147,8.436Zm1.31072-1.29284c-.16658-.54462-.32669-1.10832-.46125-1.6593H25.9836c-.13451.551-.28826,1.11468-.44843,1.6593l-.04982.17084a.10678.10678,0,0,0,.10251.13666h.82067a.10677.10677,0,0,0,.10192-.13862Z"/><path class="cls-2" d="M32.95449,6.40634h-.93955a.10661.10661,0,0,1-.10481-.08839.78119.78119,0,0,0-.82694-.69314c-.60218,0-.97376.53815-.97376,1.42218s.37158,1.42218.96093,1.42218a.81086.81086,0,0,0,.84491-.72064.10642.10642,0,0,1,.10448-.08653h.95a.10744.10744,0,0,1,.10617.12114,1.82649,1.82649,0,0,1-2.00561,1.647A2.09139,2.09139,0,0,1,28.94991,7.047a2.09715,2.09715,0,0,1,2.13328-2.38316,1.79309,1.79309,0,0,1,1.9779,1.6248A.10742.10742,0,0,1,32.95449,6.40634Z"/><path class="cls-2" d="M38.136,9.32766H37.009a.10676.10676,0,0,1-.08905-.04787L35.56141,7.22634h-.01283V9.22088a.10678.10678,0,0,1-.10677.10678H34.547a.10678.10678,0,0,1-.10678-.10678V4.8731a.10678.10678,0,0,1,.10678-.10677h.89477a.10677.10677,0,0,1,.10677.10677v1.86h.01283L36.86849,4.813a.10678.10678,0,0,1,.08827-.04669H38.0097a.10678.10678,0,0,1,.08466.17184L36.61629,6.8614a.10676.10676,0,0,0-.00111.12865l1.60663,2.16724A.10678.10678,0,0,1,38.136,9.32766Z"/><path class="cls-2" d="M41.23111,5.39843V9.22088a.10678.10678,0,0,1-.10678.10678h-.38226a.10678.10678,0,0,1-.10678-.10678V5.39843a.10677.10677,0,0,0-.10677-.10677H39.18537a.10678.10678,0,0,1-.10677-.10678V4.8731a.10677.10677,0,0,1,.10677-.10677H42.681a.10677.10677,0,0,1,.10677.10677v.31178a.10678.10678,0,0,1-.10677.10678H41.33788A.10677.10677,0,0,0,41.23111,5.39843Z"/><path class="cls-2" d="M46.8944,9.22088V7.32676A.10678.10678,0,0,0,46.78762,7.22h-2.1119a.10678.10678,0,0,0-.10677.10678V9.22088a.10678.10678,0,0,1-.10678.10678h-.37585a.10678.10678,0,0,1-.10678-.10678V4.8731a.10678.10678,0,0,1,.10678-.10677h.37585a.10678.10678,0,0,1,.10678.10677V6.59424a.10677.10677,0,0,0,.10677.10677h2.1119a.10678.10678,0,0,0,.10678-.10677V4.8731a.10677.10677,0,0,1,.10677-.10677h.38227a.10677.10677,0,0,1,.10677.10677V9.22088a.10678.10678,0,0,1-.10677.10678h-.38227A.10678.10678,0,0,1,46.8944,9.22088Z"/><path class="cls-2" d="M49.93125,5.39843V6.62635a.10678.10678,0,0,0,.10677.10678h2.003a.10678.10678,0,0,1,.10677.10678v.30531A.10677.10677,0,0,1,52.041,7.252H50.038a.10678.10678,0,0,0-.10677.10678V8.69555a.10678.10678,0,0,0,.10677.10678h2.208a.10678.10678,0,0,1,.10678.10677v.31178a.10678.10678,0,0,1-.10678.10678H49.44862a.10678.10678,0,0,1-.10678-.10678V4.8731a.10678.10678,0,0,1,.10678-.10677h2.727a.10678.10678,0,0,1,.10678.10677v.31178a.10678.10678,0,0,1-.10678.10678H50.038A.10677.10677,0,0,0,49.93125,5.39843Z"/><path class="cls-2" d="M55.601,4.76633c1.13392,0,1.65919.47413,1.65919,1.17234A1.01522,1.01522,0,0,1,56.485,6.983v.01272a1.00455,1.00455,0,0,1,.89049,1.06348c0,.77517-.615,1.26849-1.66561,1.26849H53.92674A.10678.10678,0,0,1,53.82,9.22088V4.8731a.10678.10678,0,0,1,.10678-.10677ZM54.909,6.50456a.10678.10678,0,0,0,.10678.10678h.4698c.49327,0,.70468-.16016.70468-.49968s-.205-.48685-.66625-.48685h-.50823a.10678.10678,0,0,0-.10678.10678Zm0,1.85148a.10678.10678,0,0,0,.10678.10677h.49545c.51887,0,.72387-.16016.72387-.50614,0-.36516-.21136-.53169-.74311-.53169h-.47621a.10678.10678,0,0,0-.10678.10678Z"/><path class="cls-2" d="M62.84022,7.047a2.21348,2.21348,0,1,1-4.41394,0,2.21348,2.21348,0,1,1,4.41394,0Zm-3.25442,0c0,.89686.3844,1.42218,1.05066,1.42218.65984,0,1.04419-.52532,1.04419-1.42218s-.38435-1.42218-1.04419-1.42218C59.9702,5.62481,59.5858,6.15014,59.5858,7.047Z"/><path class="cls-2" d="M67.49369,9.32766H66.44151a.10678.10678,0,0,1-.09472-.05749l-.7901-1.5185h-.01282l-.79643,1.5188a.10678.10678,0,0,1-.09456.05719h-1.0464a.10678.10678,0,0,1-.09134-.16208l1.28424-2.12109a.10678.10678,0,0,0,.00013-.1104l-1.20816-2.0059a.10677.10677,0,0,1,.09147-.16186H64.7032a.10677.10677,0,0,1,.09518.05838l.74549,1.4663h.01282l.73916-1.466a.10677.10677,0,0,1,.09534-.0587h1.02014a.10677.10677,0,0,1,.09147.16186L66.29472,6.934a.10677.10677,0,0,0,.00024.11058l1.28995,2.12084A.10678.10678,0,0,1,67.49369,9.32766Z"/></svg>