<?xml version="1.0" encoding="utf-8"?>
<!-- Generator: Adobe Illustrator 24.2.0, SVG Export Plug-In . SVG Version: 6.00 Build 0)  -->
<svg version="1.1" id="Layer_1" xmlns="http://www.w3.org/2000/svg" xmlns:xlink="http://www.w3.org/1999/xlink" x="0px" y="0px"
	 viewBox="0 0 300 58.8" style="enable-background:new 0 0 300 58.8;" xml:space="preserve">
<style type="text/css">
	.st0{fill:#9FEF00;}
	.st1{fill:#FFFFFF;}
</style>
<path class="st0" d="M59.9,18.5L59.9,18.5c0-0.5-0.2-1-0.5-1.3c0,0,0,0-0.1,0c0,0-0.1-0.1-0.1-0.1c0,0-0.1-0.1-0.1-0.1
	c0,0,0,0-0.1,0l-19-11c0,0-0.1-0.1-0.1-0.1c-0.5-0.3-1.2-0.2-1.7,0.1l-19,10.9c0,0,0,0-0.1,0c0,0,0,0,0,0c0,0,0,0,0,0
	c0,0-0.1,0.1-0.1,0.1c0,0,0,0-0.1,0.1c0,0-0.1,0.1-0.1,0.1l0,0c-0.3,0.3-0.4,0.7-0.4,1.2l0,0c0,0,0,0,0,0.1v21.9
	c0,0.6,0.4,1.2,0.9,1.5l19,10.9c0,0,0,0,0,0c0,0,0.1,0,0.1,0.1c0,0,0.1,0,0.1,0c0,0,0.1,0,0.1,0c0,0,0.1,0,0.1,0c0,0,0.1,0,0.1,0
	c0,0,0,0,0.1,0c0.1,0,0.3,0,0.4,0c0,0,0,0,0.1,0c0,0,0.1,0,0.1,0c0,0,0.1,0,0.1,0c0,0,0.1,0,0.1,0c0,0,0.1,0,0.1,0
	c0,0,0.1,0,0.1-0.1c0,0,0,0,0,0l19-10.9c0.6-0.3,0.9-0.9,0.9-1.5L59.9,18.5C59.9,18.5,59.9,18.5,59.9,18.5z M25.8,17.7l12.9-7.5
	c0.3-0.1,0.6-0.1,0.8,0l12.9,7.5c0.4,0.2,0.5,0.7,0.3,1.1c-0.1,0.1-0.2,0.2-0.3,0.3l-12.9,7.5c-0.3,0.1-0.6,0.1-0.8,0l-12.9-7.5
	c-0.4-0.2-0.5-0.7-0.3-1.1C25.6,17.9,25.7,17.8,25.8,17.7L25.8,17.7z M36.9,46.1c0,0.5-0.4,0.8-0.8,0.8c-0.1,0-0.3,0-0.4-0.1
	l-12.9-7.4c-0.3-0.1-0.4-0.4-0.4-0.7V23.7c0-0.5,0.4-0.8,0.8-0.8c0.1,0,0.3,0,0.4,0.1l12.9,7.4c0.3,0.1,0.4,0.4,0.4,0.7V46.1z
	 M55.9,38.6c0,0.3-0.2,0.6-0.4,0.7l-12.9,7.4c-0.4,0.2-0.9,0.1-1.1-0.3c-0.1-0.1-0.1-0.3-0.1-0.4V31.2c0-0.3,0.2-0.6,0.4-0.7
	L54.7,23c0.4-0.2,0.9-0.1,1.1,0.3c0.1,0.1,0.1,0.3,0.1,0.4L55.9,38.6z"/>
<path class="st1" d="M90,38.5v-7c0-0.2-0.2-0.4-0.4-0.4h-6.1c-0.2,0-0.4,0.2-0.4,0.4c0,0,0,0,0,0v7c0,0.2-0.2,0.4-0.4,0.4h-3.7
	c-0.2,0-0.4-0.2-0.4-0.4V20.4c0-0.2,0.2-0.4,0.4-0.4h3.7c0.2,0,0.4,0.2,0.4,0.4v6.3c0,0.2,0.2,0.4,0.4,0.4l0,0h6.1
	c0.2,0,0.4-0.2,0.4-0.4c0,0,0,0,0,0v-6.3c0-0.2,0.2-0.4,0.4-0.4h3.7c0.2,0,0.4,0.2,0.4,0.4v18.1c0,0.2-0.2,0.4-0.4,0.4h-3.7
	C90.2,38.9,90,38.7,90,38.5z"/>
<path class="st1" d="M104.8,35.2l-1,3.4c-0.1,0.2-0.2,0.3-0.4,0.3h-3.9c-0.2,0-0.4-0.2-0.4-0.4c0,0,0-0.1,0-0.1l6.2-18.1
	c0.1-0.2,0.2-0.3,0.4-0.3h5.4c0.2,0,0.4,0.1,0.4,0.3l6.2,18.1c0.1,0.2,0,0.5-0.3,0.6c0,0-0.1,0-0.1,0h-3.9c-0.2,0-0.4-0.1-0.4-0.3
	l-1-3.4c-0.1-0.2-0.2-0.3-0.4-0.3h-6.2C105,34.9,104.8,35,104.8,35.2z M110.2,29.8c-0.7-2.3-1.4-4.6-1.9-6.9h-0.1
	c-0.6,2.3-1.2,4.6-1.9,6.9l-0.2,0.7c-0.1,0.2,0.1,0.5,0.3,0.6c0,0,0.1,0,0.1,0h3.4c0.2,0,0.4-0.2,0.4-0.4c0,0,0-0.1,0-0.1
	L110.2,29.8z"/>
<path class="st1" d="M137.3,26.7h-3.9c-0.2,0-0.4-0.2-0.4-0.4c-0.2-1.7-1.7-3-3.4-2.9c-2.5,0-4.1,2.2-4.1,5.9s1.5,5.9,4,5.9
	c1.8,0.1,3.3-1.2,3.5-3c0-0.2,0.2-0.4,0.4-0.4h4c0.2,0,0.4,0.2,0.4,0.4c0,0,0,0,0,0.1c-0.6,4.4-3.7,6.9-8.4,6.9
	c-5.5,0-8.8-3.8-8.8-9.9s3.4-9.9,8.9-9.9c4.7,0,7.8,2.6,8.2,6.8C137.8,26.5,137.6,26.7,137.3,26.7C137.3,26.7,137.3,26.7,137.3,26.7
	z"/>
<path class="st1" d="M158.9,38.9h-4.7c-0.1,0-0.3-0.1-0.4-0.2l-5.7-8.6h-0.1v8.3c0,0.2-0.2,0.4-0.4,0.4h-3.7c-0.2,0-0.4-0.2-0.4-0.4
	V20.4c0-0.2,0.2-0.4,0.4-0.4h3.7c0.2,0,0.4,0.2,0.4,0.4v7.7h0.1l5.4-8c0.1-0.1,0.2-0.2,0.4-0.2h4.4c0.2,0,0.4,0.2,0.4,0.4
	c0,0.1,0,0.2-0.1,0.3l-6.2,8c-0.1,0.2-0.1,0.4,0,0.5l6.7,9c0.1,0.2,0.1,0.5-0.1,0.6C159.1,38.9,159,38.9,158.9,38.9z"/>
<path class="st1" d="M171.8,22.5v15.9c0,0.2-0.2,0.4-0.4,0.4h-1.6c-0.2,0-0.4-0.2-0.4-0.4V22.5c0-0.2-0.2-0.4-0.4-0.4h-5.6
	c-0.2,0-0.4-0.2-0.4-0.4c0,0,0,0,0,0v-1.3c0-0.2,0.2-0.4,0.4-0.4l0,0h14.6c0.2,0,0.4,0.2,0.4,0.4v1.3c0,0.2-0.2,0.4-0.4,0.4h-5.6
	C172,22.1,171.8,22.3,171.8,22.5C171.8,22.5,171.8,22.5,171.8,22.5z"/>
<path class="st1" d="M195.4,38.5v-7.9c0-0.2-0.2-0.4-0.4-0.4h0h-8.8c-0.2,0-0.4,0.2-0.4,0.4c0,0,0,0,0,0v7.9c0,0.2-0.2,0.4-0.4,0.4
	h-1.6c-0.2,0-0.4-0.2-0.4-0.4c0,0,0,0,0,0V20.4c0-0.2,0.2-0.4,0.4-0.4h1.6c0.2,0,0.4,0.2,0.4,0.4v7.2c0,0.2,0.2,0.4,0.4,0.4h8.8
	c0.2,0,0.4-0.2,0.4-0.4v-7.2c0-0.2,0.2-0.4,0.4-0.4h1.6c0.2,0,0.4,0.2,0.4,0.4v18.1c0,0.2-0.2,0.4-0.4,0.4h-1.6
	C195.6,38.9,195.4,38.7,195.4,38.5z"/>
<path class="st1" d="M208,22.5v5.1c0,0.2,0.2,0.4,0.4,0.4l0,0h8.3c0.2,0,0.4,0.2,0.4,0.4v1.3c0,0.2-0.2,0.4-0.4,0.4h-8.3
	c-0.2,0-0.4,0.2-0.4,0.4c0,0,0,0,0,0v5.6c0,0.2,0.2,0.4,0.4,0.4l0,0h9.2c0.2,0,0.4,0.2,0.4,0.4v1.3c0,0.2-0.2,0.4-0.4,0.4H206
	c-0.2,0-0.4-0.2-0.4-0.4c0,0,0,0,0,0V20.4c0-0.2,0.2-0.4,0.4-0.4l0,0h11.4c0.2,0,0.4,0.2,0.4,0.4v1.3c0,0.2-0.2,0.4-0.4,0.4h-8.9
	C208.2,22.1,208,22.3,208,22.5C208,22.5,208,22.5,208,22.5z"/>
<path class="st1" d="M231.6,19.9c4.7,0,6.9,2,6.9,4.9c0.1,2-1.2,3.9-3.2,4.4v0.1c2.5,0.6,3.7,2,3.7,4.4c0,3.2-2.6,5.3-6.9,5.3h-7.4
	c-0.2,0-0.4-0.2-0.4-0.4V20.4c0-0.2,0.2-0.4,0.4-0.4L231.6,19.9z M228.7,27.2c0,0.2,0.2,0.4,0.4,0.4h2c2.1,0,2.9-0.7,2.9-2.1
	s-0.9-2-2.8-2h-2.1c-0.2,0-0.4,0.2-0.4,0.4L228.7,27.2z M228.7,34.9c0,0.2,0.2,0.4,0.4,0.4h2.1c2.2,0,3-0.7,3-2.1
	c0-1.5-0.9-2.2-3.1-2.2h-2c-0.2,0-0.4,0.2-0.4,0.4L228.7,34.9z"/>
<path class="st1" d="M261.8,29.4c0,6.1-3.5,9.9-9.2,9.9c-5.7,0-9.2-3.8-9.2-9.9s3.5-9.9,9.2-9.9C258.3,19.5,261.8,23.3,261.8,29.4z
	 M248.2,29.4c0,3.7,1.6,5.9,4.4,5.9c2.7,0,4.3-2.2,4.3-5.9s-1.6-5.9-4.3-5.9C249.8,23.5,248.2,25.7,248.2,29.4z"/>
<path class="st1" d="M281.2,38.9h-4.4c-0.2,0-0.3-0.1-0.4-0.2l-3.3-6.3H273l-3.3,6.3c-0.1,0.1-0.2,0.2-0.4,0.2H265
	c-0.2,0-0.4-0.2-0.4-0.4c0-0.1,0-0.2,0.1-0.2l5.3-8.8c0.1-0.1,0.1-0.3,0-0.5l-5-8.4c-0.1-0.2-0.1-0.5,0.2-0.6c0.1,0,0.1-0.1,0.2-0.1
	h4.3c0.2,0,0.3,0.1,0.4,0.2l3.1,6.1h0.1l3.1-6.1c0.1-0.1,0.2-0.2,0.4-0.2h4.2c0.2,0,0.4,0.2,0.4,0.4c0,0.1,0,0.2-0.1,0.2l-5,8.4
	c-0.1,0.1-0.1,0.3,0,0.5l5.4,8.8c0.1,0.2,0.1,0.5-0.1,0.6C281.3,38.9,281.2,38.9,281.2,38.9z"/>
</svg>
