<?xml version="1.0" encoding="UTF-8"?><svg id="Layer_2" xmlns="http://www.w3.org/2000/svg" viewBox="0 0 230.61 32.95"><defs><style>.cls-1{fill:#fff;stroke-width:0px;}</style></defs><g id="Layer_1-2"><path class="cls-1" d="M58.29,6.83h5.72v7.39h12.58v-7.39h5.72v19.62h-5.72v-7.99h-12.58v7.99h-5.72V6.83Z"/><path class="cls-1" d="M104.59,20.19h-14.16c.27,1.85,1.46,3.22,5.01,3.22,3.25,0,4.23-.8,4.44-1.82h4.71c-.15,2.83-2.62,5.16-9.15,5.16-7.99,0-10.38-3.79-10.38-7.51,0-4.8,3.64-7.81,10.08-7.81s9.45,2.74,9.45,7.54v1.22ZM99.88,17.32c0-1.34-1.01-2.56-4.44-2.56-3.1,0-4.44.95-4.89,2.68h9.33v-.12Z"/><path class="cls-1" d="M107.04,5.58h5.31v20.87h-5.31V5.58Z"/><path class="cls-1" d="M115.24,6.02h5.31v3.82h-5.31v-3.82ZM115.24,11.72h5.31v14.73h-5.31v-14.73Z"/><path class="cls-1" d="M123.44,11.72h5.31l-.06,3.19h.03c.78-2.24,3.07-3.49,6.71-3.49,6.08,0,9,2.89,9,7.33,0,5.37-3.43,7.99-9,7.99-3.64,0-5.75-1.16-6.8-3.07h-.03c.06.8.15,2.15.15,2.95v5.72h-5.31V11.72ZM139.15,18.93c0-2.24-1.52-3.7-4.95-3.7s-5.46,1.67-5.46,4.08v.09c0,1.91,1.76,3.52,5.49,3.52,3.4,0,4.92-1.25,4.92-4Z"/><path class="cls-1" d="M146.07,22.06c0-2.42,1.52-4.29,5.67-4.29h8.26v-.21c0-2-1.19-2.8-4.56-2.8-3.1,0-3.88.86-3.88,1.73,0,.03,0,.12.03.27h-5.01c-.03-.27-.03-.48-.03-.54,0-2.8,2.53-4.8,9.09-4.8s9.66,2.39,9.66,6.65v8.38h-5.31c.06-1.01.15-2.36.15-3.28h-.03c-.6,2.12-2.36,3.58-7.01,3.58-5.43,0-7.04-2.56-7.04-4.68ZM160,20.63v-.12h-6.65c-1.79,0-2.56.3-2.56,1.25s1.01,1.64,3.82,1.64c3.58,0,5.4-1.55,5.4-2.77Z"/><path class="cls-1" d="M188.56,27.58c0,2.86-2.74,5.37-10.53,5.37-8.56,0-10.64-2.12-10.64-4,0-1.4,1.07-2.47,3.55-2.56v-.03c-1.61-.78-1.79-1.97-1.79-2.59,0-1.31.86-2.56,2.44-2.83v-.06c-2.18-.86-3.19-2.39-3.19-4.29,0-2.77,2.59-5.16,8.74-5.16,2.36,0,4.23.33,5.64.95l.03-.09c-.48-.36-.89-.86-.89-1.49,0-1.07,1.13-2.09,4-2.09.83,0,1.52.09,1.79.15v2.98c-.39-.06-.92-.09-1.28-.09-1.22,0-1.7.51-1.7,1.22,0,.3.09.6.21.92.63.75.95,1.67.95,2.68,0,2.89-2.68,5.16-8.74,5.16-1.28,0-2.44-.09-3.43-.27-.15.21-.33.6-.33,1.01,0,.6.48,1.1,1.76,1.1h7.1c5.01,0,6.32,2,6.32,4ZM183.25,28.3c0-.72-.54-1.19-2.74-1.19h-5.22c-2.27,0-2.59.72-2.59,1.25,0,.98,1.64,1.67,5.34,1.67s5.22-.72,5.22-1.73ZM173.41,16.58c0,1.31,1.19,2.12,3.73,2.12s3.73-.89,3.73-2.12-1.22-2.12-3.73-2.12-3.73.95-3.73,2.12Z"/><path class="cls-1" d="M189.16,19.11c0-3.97,2.86-7.69,10.35-7.69s10.35,3.73,10.35,7.69-2.8,7.63-10.35,7.63-10.35-3.64-10.35-7.63ZM204.55,19.11c0-2.09-1.34-3.88-5.04-3.88s-5.04,1.79-5.04,3.88,1.31,3.82,5.04,3.82,5.04-1.76,5.04-3.82Z"/><path class="cls-1" d="M211.94,21.56h5.01c.03.95.42,1.85,4.08,1.85s4.26-.6,4.26-1.49c0-.45-.27-.83-1.22-.95-1.13-.15-2.86-.15-4.47-.24-2.89-.12-4.98-.45-6.08-1.1-1.1-.66-1.58-1.76-1.58-3.01,0-3.1,3.19-5.19,9.09-5.19,7.07,0,8.68,2.42,8.68,5.28h-5.01c-.03-1.07-.54-1.94-3.52-1.94s-3.94.6-3.94,1.52c0,.57.33.86,1.4,1.04,1.01.15,2.53.15,4.5.27,2.21.12,4.2.3,5.43.86,1.37.63,2.03,1.79,2.03,3.28,0,2.39-1.67,5.01-9.57,5.01s-9.09-2.95-9.09-5.19Z"/><path class="cls-1" d="M28.94,18.16l-5.35-1.5h0s-4.67-1.32-4.67-1.32c-.8-.23-1.64.24-1.86,1.05l-.81,2.87c-.23.8-1.06,1.27-1.86,1.05l-4.07-1.14c-.8-.23-1.27-1.06-1.05-1.86l3.54-12.6c.23-.8-.24-1.64-1.05-1.86l-4.28-1.2c-.8-.23-1.64.24-1.86,1.05L.06,22.47c-.23.8.24,1.64,1.05,1.86l18.37,5.16c.8.23,1.64-.24,1.86-1.05l1.39-4.95c.23-.8,1.06-1.27,1.86-1.05l2.91.82c.8.23,1.64-.24,1.86-1.05l.62-2.19c.23-.8-.24-1.64-1.05-1.86Z"/><path class="cls-1" d="M47.28,4.98l-7.07-1.99v-.02s-5.73-1.59-5.73-1.59L29.78.07c-.99-.28-2.02.3-2.3,1.29l-1.03,3.66c-.28.99-1.31,1.57-2.3,1.29l-2.15-.6c-.99-.28-2.02.3-2.3,1.29l-.43,1.52c-.28.99.3,2.02,1.29,2.3l4.64,1.3h0s4.69,1.32,4.69,1.32c.99.28,2.02-.3,2.3-1.29l.51-1.8c.28-.99,1.31-1.57,2.3-1.29l3.39.95c.99.28,1.57,1.31,1.29,2.3l-3.23,11.51c-.28.99.3,2.02,1.29,2.3l3.33.93c.99.28,2.02-.3,2.3-1.29l5.19-18.49c.28-.99-.3-2.02-1.29-2.3Z"/></g></svg>