<?xml version="1.0" encoding="UTF-8"?><svg id="Layer_2" xmlns="http://www.w3.org/2000/svg" xmlns:xlink="http://www.w3.org/1999/xlink" viewBox="0 0 378.99 54.15"><defs><style>.cls-1{fill:url(#linear-gradient);}.cls-1,.cls-2,.cls-3{stroke-width:0px;}.cls-2{fill:url(#linear-gradient-2);}.cls-3{fill:#1a2033;}</style><linearGradient id="linear-gradient" x1="-5.91" y1="39.37" x2="88.27" y2="-6.92" gradientUnits="userSpaceOnUse"><stop offset=".15" stop-color="#0049ea"/><stop offset=".61" stop-color="#00228e"/></linearGradient><linearGradient id="linear-gradient-2" x1="-.19" y1="51.01" x2="94" y2="4.72" xlink:href="#linear-gradient"/></defs><g id="Layer_1-2"><path class="cls-3" d="M95.79,11.22h9.41v12.15h20.68v-12.15h9.41v32.24h-9.41v-13.13h-20.68v13.13h-9.41V11.22Z"/><path class="cls-3" d="M171.9,33.17h-23.28c.44,3.04,2.4,5.29,8.23,5.29,5.34,0,6.96-1.32,7.3-2.99h7.74c-.25,4.66-4.31,8.48-15.04,8.48-13.13,0-17.05-6.22-17.05-12.35,0-7.89,5.98-12.84,16.56-12.84s15.53,4.51,15.53,12.4v2.01ZM164.16,28.47c0-2.2-1.67-4.21-7.3-4.21-5.1,0-7.3,1.57-8.04,4.41h15.34v-.2Z"/><path class="cls-3" d="M175.92,9.16h8.72v34.3h-8.72V9.16Z"/><path class="cls-3" d="M189.39,9.9h8.72v6.27h-8.72v-6.27ZM189.39,19.26h8.72v24.21h-8.72v-24.21Z"/><path class="cls-3" d="M202.87,19.26h8.72l-.1,5.24h.05c1.27-3.68,5.05-5.73,11.03-5.73,10,0,14.8,4.75,14.8,12.05,0,8.82-5.63,13.13-14.8,13.13-5.98,0-9.46-1.91-11.17-5.05h-.05c.1,1.32.25,3.53.25,4.85v9.41h-8.72V19.26ZM228.69,31.12c0-3.68-2.5-6.08-8.13-6.08s-8.97,2.74-8.97,6.71v.15c0,3.14,2.89,5.78,9.02,5.78,5.59,0,8.09-2.06,8.09-6.57Z"/><path class="cls-3" d="M240.06,36.26c0-3.97,2.5-7.06,9.31-7.06h13.57v-.34c0-3.28-1.96-4.61-7.5-4.61-5.1,0-6.37,1.42-6.37,2.84,0,.05,0,.2.05.44h-8.23c-.05-.44-.05-.78-.05-.88,0-4.61,4.17-7.89,14.95-7.89s15.88,3.92,15.88,10.93v13.77h-8.72c.1-1.67.25-3.87.25-5.39h-.05c-.98,3.48-3.87,5.88-11.52,5.88-8.92,0-11.56-4.21-11.56-7.69ZM262.95,33.91v-.2h-10.93c-2.94,0-4.21.49-4.21,2.06s1.67,2.69,6.27,2.69c5.88,0,8.87-2.55,8.87-4.56Z"/><path class="cls-3" d="M309.89,45.33c0,4.7-4.51,8.82-17.3,8.82-14.06,0-17.49-3.48-17.49-6.57,0-2.3,1.76-4.07,5.83-4.21v-.05c-2.65-1.27-2.94-3.23-2.94-4.26,0-2.16,1.42-4.21,4.02-4.66v-.1c-3.58-1.42-5.24-3.92-5.24-7.06,0-4.56,4.26-8.48,14.36-8.48,3.87,0,6.96.54,9.26,1.57l.05-.15c-.78-.59-1.47-1.42-1.47-2.45,0-1.76,1.86-3.43,6.57-3.43,1.37,0,2.5.15,2.94.25v4.9c-.64-.1-1.52-.15-2.11-.15-2.01,0-2.79.83-2.79,2.01,0,.49.15.98.34,1.52,1.03,1.23,1.57,2.74,1.57,4.41,0,4.75-4.41,8.48-14.36,8.48-2.11,0-4.02-.15-5.63-.44-.25.34-.54.98-.54,1.67,0,.98.78,1.81,2.89,1.81h11.66c8.23,0,10.39,3.28,10.39,6.57ZM301.17,46.5c0-1.18-.88-1.96-4.51-1.96h-8.58c-3.72,0-4.26,1.18-4.26,2.06,0,1.62,2.7,2.74,8.77,2.74s8.58-1.18,8.58-2.84ZM285,27.25c0,2.16,1.96,3.48,6.13,3.48s6.13-1.47,6.13-3.48-2.01-3.48-6.13-3.48-6.13,1.57-6.13,3.48Z"/><path class="cls-3" d="M310.88,31.41c0-6.52,4.7-12.64,17-12.64s17,6.13,17,12.64-4.61,12.54-17,12.54-17-5.98-17-12.54ZM336.16,31.41c0-3.43-2.2-6.37-8.28-6.37s-8.28,2.94-8.28,6.37,2.16,6.27,8.28,6.27,8.28-2.89,8.28-6.27Z"/><path class="cls-3" d="M348.32,35.43h8.23c.05,1.57.69,3.04,6.71,3.04s7.01-.98,7.01-2.45c0-.73-.44-1.37-2.01-1.57-1.86-.25-4.7-.25-7.35-.39-4.75-.2-8.18-.73-10-1.81-1.81-1.08-2.6-2.89-2.6-4.95,0-5.1,5.24-8.53,14.95-8.53,11.61,0,14.26,3.97,14.26,8.67h-8.23c-.05-1.76-.88-3.18-5.78-3.18s-6.47.98-6.47,2.5c0,.93.54,1.42,2.3,1.72,1.67.25,4.17.25,7.4.44,3.63.2,6.91.49,8.92,1.42,2.25,1.03,3.33,2.94,3.33,5.39,0,3.92-2.74,8.23-15.73,8.23s-14.95-4.85-14.95-8.53Z"/><path class="cls-1" d="M47.56,29.85l-8.79-2.47h0s-7.68-2.16-7.68-2.16c-1.32-.37-2.69.4-3.06,1.72l-1.32,4.72c-.37,1.32-1.74,2.09-3.06,1.72l-6.69-1.88c-1.32-.37-2.09-1.74-1.72-3.06l5.81-20.7c.37-1.32-.4-2.69-1.72-3.06l-7.04-1.98c-1.32-.37-2.69.4-3.06,1.72L.09,36.93c-.37,1.32.4,2.69,1.72,3.06l30.19,8.48c1.32.37,2.69-.4,3.06-1.72l2.29-8.14c.37-1.32,1.74-2.09,3.06-1.72l4.79,1.34c1.32.37,2.69-.4,3.06-1.72l1.01-3.6c.37-1.32-.4-2.69-1.72-3.06Z"/><path class="cls-2" d="M77.69,8.19l-11.62-3.26v-.03s-9.42-2.61-9.42-2.61L48.94.12c-1.63-.46-3.33.49-3.78,2.13l-1.69,6.02c-.46,1.63-2.15,2.58-3.78,2.13l-3.53-.99c-1.63-.46-3.33.49-3.78,2.13l-.7,2.5c-.46,1.63.49,3.33,2.13,3.78l7.63,2.14h0s7.71,2.17,7.71,2.17c1.63.46,3.33-.49,3.78-2.13l.83-2.96c.46-1.63,2.15-2.58,3.78-2.13l5.57,1.56c1.63.46,2.58,2.15,2.13,3.78l-5.31,18.92c-.46,1.63.49,3.33,2.13,3.78l5.47,1.54c1.63.46,3.33-.49,3.78-2.13l8.53-30.4c.46-1.63-.49-3.33-2.13-3.78Z"/></g></svg>