<svg xmlns="http://www.w3.org/2000/svg" width="268" height="80" viewBox="0 0 268 80"><path fill="#FFF" fill-rule="evenodd" d="M64.8 0A7.2 7.2 0 0 1 72 7.2v65.6a7.2 7.2 0 0 1-7.2 7.2H7.2A7.2 7.2 0 0 1 0 72.8V7.2A7.2 7.2 0 0 1 7.2 0Zm0 4H7.2A3.204 3.204 0 0 0 4 7.2v65.6C4 74.564 5.436 76 7.2 76h57.6c1.765 0 3.2-1.436 3.2-3.2V7.2C68 5.435 66.565 4 64.8 4ZM19 52l9 8-9 8V52Zm8-40v22.711C30.994 33.411 36.577 32 42 32c4.945 0 7.905 1.944 9.517 3.575 3.298 3.335 3.478 7.545 3.483 8.34V68h-8V44.11c-.039-1.867-.938-4.11-5-4.11-7.77 0-16.443 3.733-17.283 4.103l-.066.029L19 46.692V12h8Zm164.995 13c6.558 0 13.375 4.165 13.375 14.15s-6.817 14.15-13.375 14.15c-6.597-.002-13.412-4.165-13.412-14.15 0-9.982 6.815-14.15 13.412-14.15Zm59.995.517v16.288c0 3.758 1.215 5.453 4.165 5.453 2.948 0 4.125-1.696 4.125-5.453V25.517h7.22V41.84c0 7.222-3.462 11.347-11.423 11.347-7.96 0-11.457-4.124-11.457-11.347V25.517h7.37Zm-31.05 0v9.875l7.518-9.875h8.547l-9.175 10.76 9.985 16.508h-8.327l-6.448-10.907-2.1 2.432v8.475h-7.37V25.518h7.37Zm-80.69 0v6.118h-12.085v4.422h8.623v5.748h-8.623v5.047h12.713v5.933h-20.08V25.518h19.452Zm19.368 0c7 0 11.275 2.323 11.275 8.88 0 4.273-1.805 6.745-5.38 7.958l5.785 10.428h-7.81l-5.27-9.468h-2.028v9.468h-7.222V25.517h10.65Zm-64.748 0V35.65h9.065V25.517h7.37v27.265h-7.37V41.766H94.87v11.017H87.5V25.518h7.37Zm97.123 5.566c-3.87 0-6.043 3.057-6.043 8.067 0 5.013 2.175 8.255 6.043 8.255 3.832-.002 6.005-3.242 6.005-8.255 0-5.01-2.175-8.067-6.005-8.067Zm-32.633.402h-3.168v6.227h3.168c3.022 0 4.347-.847 4.347-3.132s-1.327-3.095-4.347-3.095ZM55 12c-.54 4.544-2.382 8.9-6 13h-8c3.144-4.125 5.118-8.466 6-13Z"/></svg>