<svg xmlns="http://www.w3.org/2000/svg" width="72" height="80" viewBox="0 0 72 80"><path fill="#430098" fill-rule="evenodd" d="M64.8 0A7.2 7.2 0 0 1 72 7.2v65.6a7.2 7.2 0 0 1-7.2 7.2H7.2A7.2 7.2 0 0 1 0 72.8V7.2A7.2 7.2 0 0 1 7.2 0Zm0 4H7.2A3.204 3.204 0 0 0 4 7.2v65.6C4 74.564 5.436 76 7.2 76h57.6c1.765 0 3.2-1.436 3.2-3.2V7.2C68 5.435 66.565 4 64.8 4ZM19 52l9 8-9 8V52Zm8-40v22.711C30.994 33.411 36.577 32 42 32c4.945 0 7.905 1.944 9.517 3.575 3.298 3.335 3.478 7.545 3.483 8.34V68h-8V44.11c-.039-1.867-.938-4.11-5-4.11-7.77 0-16.443 3.733-17.283 4.103l-.066.029L19 46.692V12h8Zm28 0c-.54 4.544-2.382 8.9-6 13h-8c3.144-4.125 5.118-8.466 6-13Z"/></svg>