<svg xmlns="http://www.w3.org/2000/svg" viewBox="0 0 1705 241"><path fill="#F2F4F9" d="M240 224.813c0 8.25-6.75 15-15 15H15c-8.25 0-15-6.75-15-15v-90c0-8.25 4.77-19.77 10.61-25.61l98.78-98.78c5.83-5.83 15.38-5.83 21.21 0l98.79 98.79c5.83 5.83 10.61 17.36 10.61 25.61v90-.01Z"/><path fill="#18BCF2" d="m229.39 109.203-98.78-98.78c-5.83-5.83-15.38-5.83-21.21 0l-98.79 98.78C4.78 115.033 0 126.563 0 134.813v90c0 8.25 6.75 15 15 15h92.27l-40.63-40.63c-2.09.72-4.32 1.13-6.64 1.13-11.3 0-20.5-9.2-20.5-20.5s9.2-20.5 20.5-20.5 20.5 9.2 20.5 20.5c0 2.33-.41 4.56-1.13 6.65l31.63 31.63v-115.88c-6.8-3.34-11.5-10.32-11.5-18.39 0-11.3 9.2-20.5 20.5-20.5s20.5 9.2 20.5 20.5c0 8.07-4.7 15.05-11.5 18.39v81.27l31.46-31.46c-.62-1.96-.96-4.04-.96-6.2 0-11.3 9.2-20.5 20.5-20.5s20.5 9.2 20.5 20.5-9.2 20.5-20.5 20.5c-2.5 0-4.88-.47-7.09-1.29L129 208.943v30.88h96c8.25 0 15-6.75 15-15v-90c0-8.25-4.77-19.77-10.61-25.61v-.01Z"/><path fill="#1D2126" d="M320.04 46.606h24.76v61l64.36.2v-61.2h25v146h-25v-62.78l-64.36-.2v63H320l.04-146.02ZM506.8 91.236c15.1 0 27.403 4.85 36.91 14.55 9.507 9.7 14.26 22.17 14.26 37.41 0 15.167-4.753 27.6-14.26 37.3-9.507 9.7-21.81 14.55-36.91 14.55-15.24 0-27.61-4.85-37.11-14.55-9.5-9.7-14.253-22.133-14.26-37.3 0-15.333 4.753-27.816 14.26-37.45 9.507-9.633 21.877-14.47 37.11-14.51Zm0 82.52c8.073 0 14.633-2.846 19.68-8.54 5.047-5.693 7.567-13.1 7.56-22.22 0-9.106-2.52-16.48-7.56-22.12-5.04-5.64-11.6-8.453-19.68-8.44-8.267 0-14.933 2.814-20 8.44-5.067 5.627-7.607 13-7.62 22.12 0 9.12 2.54 16.527 7.62 22.22 5.08 5.694 11.747 8.54 20 8.54ZM726.68 129.826v62.79h-23v-59.19c0-6.826-1.757-12.16-5.27-16s-8.3-5.763-14.36-5.77c-6.44 0-11.583 2.1-15.43 6.3-3.847 4.2-5.767 10.077-5.76 17.63v57h-23.19v-59.16c0-6.826-1.71-12.16-5.13-16s-8.157-5.763-14.21-5.77c-6.44 0-11.613 2.1-15.52 6.3-3.907 4.2-5.86 10.077-5.86 17.63v57h-23.63v-98.61h22l.78 9.47c5.733-8.4 15.067-12.6 28-12.6 7.553 0 14.097 1.564 19.63 4.69a30.244 30.244 0 0 1 12.59 13.67 27.747 27.747 0 0 1 12-13.47c5.56-3.26 12.183-4.89 19.87-4.89 11.2 0 20.087 3.45 26.66 10.35 6.573 6.9 9.85 16.444 9.83 28.63ZM841.28 151.986H765.7c.78 7.42 3.58 13.087 8.4 17 4.82 3.914 10.94 5.86 18.36 5.84 12.04 0 20.47-5 25.29-15l19.73 7.81a43.246 43.246 0 0 1-17.53 20.31c-8 4.894-17.163 7.337-27.49 7.33-14.587 0-26.42-4.77-35.5-14.31-9.08-9.54-13.623-22.056-13.63-37.55 0-15.493 4.577-28.09 13.73-37.79s21.113-14.55 35.88-14.55c14.52 0 26.207 4.784 35.06 14.35 8.853 9.567 13.28 22.167 13.28 37.8v8.76Zm-75.19-16.61h51.17c-.46-8-2.883-14.103-7.27-18.31-4.387-4.206-10.297-6.286-17.73-6.24-7.333 0-13.333 2.13-18 6.39s-7.39 10.314-8.17 18.16ZM993.53 158.626h-55.56l-12 34h-25.59l52.73-146h25.59l52.83 146h-26.17l-11.83-34Zm-7.22-21-20.41-58.4-20.61 58.4h41.02ZM1077.86 176.196c4.88 0 8.74-.96 11.57-2.88a9.658 9.658 0 0 0 3.26-3.706 9.622 9.622 0 0 0 .99-4.834c0-5.266-3.55-8.783-10.64-10.55l-13.58-3.61c-18.67-5.08-28-14.683-28-28.81 0-9.046 3.29-16.436 9.86-22.17 6.57-5.733 15.43-8.596 26.56-8.59 9.96 0 18.29 2.277 25 6.83a27.989 27.989 0 0 1 8.13 8.087 28.042 28.042 0 0 1 4.22 10.663l-21.19 5a12.052 12.052 0 0 0-1.56-4.772c-.85-1.463-2-2.73-3.37-3.718a17.258 17.258 0 0 0-10.5-3.13c-4.23 0-7.65 1.06-10.25 3.18a10.112 10.112 0 0 0-3.91 8.25 9.04 9.04 0 0 0 .72 3.737 9.041 9.041 0 0 0 2.21 3.103c1.96 1.82 4.99 3.284 9.08 4.39l13.38 3.32c8.92 2.414 15.72 6.06 20.41 10.94a25.156 25.156 0 0 1 5.32 8.327c1.2 3.1 1.77 6.409 1.68 9.733 0 9.254-3.48 16.61-10.45 22.07-6.97 5.46-16.57 8.197-28.81 8.21-11.33 0-20.42-2.49-27.25-7.47a29.252 29.252 0 0 1-8.17-8.814 29.129 29.129 0 0 1-3.94-11.356l21.58-3.81c.13 1.817.67 3.582 1.57 5.162a12.194 12.194 0 0 0 3.66 3.968c3.16 2.17 7.28 3.25 12.42 3.25ZM1167.46 176.196c4.89 0 8.74-1 11.58-2.88a9.581 9.581 0 0 0 3.25-3.709 9.722 9.722 0 0 0 .99-4.831c0-5.266-3.55-8.783-10.64-10.55l-13.57-3.61c-18.67-5.08-28-14.683-28-28.81 0-9.046 3.29-16.436 9.86-22.17 6.57-5.733 15.43-8.596 26.56-8.59 9.96 0 18.29 2.277 25 6.83a28.02 28.02 0 0 1 8.13 8.088 28.049 28.049 0 0 1 4.23 10.662l-21.2 5a12.052 12.052 0 0 0-1.56-4.772c-.85-1.463-2-2.73-3.37-3.718a17.258 17.258 0 0 0-10.5-3.13c-4.23 0-7.65 1.06-10.25 3.18a10.184 10.184 0 0 0-2.94 3.66 10.24 10.24 0 0 0-.97 4.59 8.891 8.891 0 0 0 .73 3.737 8.883 8.883 0 0 0 2.2 3.103c2 1.82 5 3.28 9.09 4.39l13.38 3.32c8.91 2.414 15.71 6.06 20.41 10.94a25.154 25.154 0 0 1 5.31 8.328c1.2 3.1 1.78 6.408 1.69 9.732 0 9.254-3.48 16.61-10.45 22.07-6.97 5.46-16.57 8.197-28.81 8.21-11.33 0-20.42-2.49-27.25-7.47a29.252 29.252 0 0 1-8.17-8.814 29.129 29.129 0 0 1-3.94-11.356l21.59-3.81a12.06 12.06 0 0 0 1.57 5.162c.9 1.58 2.15 2.937 3.65 3.968 3.14 2.17 7.26 3.25 12.4 3.25ZM1221.91 59.826c-.03-1.974.33-3.935 1.06-5.767a14.833 14.833 0 0 1 3.23-4.896c1.4-1.399 3.06-2.504 4.89-3.249a14.744 14.744 0 0 1 5.76-1.088c1.96-.03 3.9.345 5.71 1.1 1.8.755 3.44 1.875 4.79 3.29 2.79 2.81 4.36 6.61 4.36 10.57s-1.57 7.76-4.36 10.57a14.157 14.157 0 0 1-4.78 3.33 14.164 14.164 0 0 1-5.72 1.12 14.305 14.305 0 0 1-10.55-4.45 14.524 14.524 0 0 1-3.27-4.816 14.374 14.374 0 0 1-1.12-5.714Zm26.76 34.18v98.63h-23.64v-98.66l23.64.03ZM1305.85 176.196c4.88 0 8.74-.96 11.57-2.88a9.675 9.675 0 0 0 3.26-3.707 9.728 9.728 0 0 0 .99-4.833c0-5.266-3.55-8.783-10.65-10.55l-13.57-3.61c-18.67-5.08-28-14.683-28-28.81 0-9.046 3.29-16.436 9.86-22.17 6.57-5.733 15.43-8.596 26.57-8.59 9.96 0 18.29 2.277 25 6.83 3.23 2.111 6 4.865 8.13 8.091a28.186 28.186 0 0 1 4.22 10.659l-21.19 5a12.052 12.052 0 0 0-1.56-4.772c-.85-1.463-2-2.73-3.37-3.718a17.291 17.291 0 0 0-10.5-3.13c-4.23 0-7.65 1.06-10.26 3.18a10.164 10.164 0 0 0-2.93 3.662 10.102 10.102 0 0 0-.97 4.588 9.04 9.04 0 0 0 .72 3.737 9.041 9.041 0 0 0 2.21 3.103c1.95 1.82 4.98 3.284 9.08 4.39l13.38 3.32c8.92 2.414 15.72 6.06 20.41 10.94a25.156 25.156 0 0 1 5.32 8.327c1.2 3.1 1.77 6.409 1.68 9.733 0 9.254-3.48 16.61-10.45 22.07-6.97 5.46-16.57 8.197-28.81 8.21-11.33 0-20.41-2.49-27.24-7.47a29.228 29.228 0 0 1-8.18-8.811 29.278 29.278 0 0 1-3.93-11.359l21.58-3.81a12.06 12.06 0 0 0 1.57 5.162c.9 1.58 2.15 2.937 3.65 3.968 3.14 2.17 7.26 3.25 12.41 3.25ZM1415.86 192.606a81.653 81.653 0 0 1-17.19 2.25c-9.96 0-17.72-2.736-23.29-8.21-5.57-5.473-8.35-13.61-8.35-24.41v-48.24h-15.14v-20h15.14v-30.78h23.44v30.76h22.75v20h-22.75v44c0 10.667 4.13 16 12.4 16 3.42-.143 6.8-.836 10-2.05l2.99 20.68ZM1495.01 192.606a70.915 70.915 0 0 1-1.66-11.23 29.8 29.8 0 0 1-12.16 10.11 41.804 41.804 0 0 1-18.21 3.76c-10.81 0-19.48-2.88-26-8.64-6.52-5.76-9.77-13.556-9.76-23.39 0-9.64 3.21-17.176 9.62-22.61 6.41-5.433 15.18-8.153 26.31-8.16h29.65v-3.8c0-6.186-1.81-10.81-5.42-13.87-3.61-3.06-8.67-4.59-15.18-4.59-11.52 0-19.79 4.817-24.81 14.45l-17.18-10.06c8.33-15.686 22.75-23.53 43.26-23.53 12.43 0 22.61 3.19 30.56 9.57 7.95 6.38 11.95 16.764 12 31.15v39.26c0 11.127.58 18.32 1.75 21.58h-22.77Zm-2-43.85h-24.32c-5.53 0-9.82 1.27-12.89 3.81a12.88 12.88 0 0 0-3.52 4.688 12.818 12.818 0 0 0-1.07 5.762c0 4.62 1.56 8.137 4.69 10.55 3.13 2.41 7.58 3.61 13.38 3.61 6.96 0 12.66-2.196 17.09-6.59 4.43-4.393 6.65-10.92 6.64-19.58v-2.25ZM1629.53 131.766v60.84H1606v-55.78c0-9.38-2.21-15.793-6.64-19.24a22.78 22.78 0 0 0-14.85-5.17 23.77 23.77 0 0 0-17.09 6.54c-4.55 4.36-6.82 10.577-6.83 18.65v55h-23.63v-98.63h22.16l.78 10.64a28.54 28.54 0 0 1 12.21-9.91 41.57 41.57 0 0 1 17.48-3.66c12.76 0 22.61 3.53 29.54 10.59 6.93 7.06 10.4 17.104 10.4 30.13ZM1704.98 192.606a81.786 81.786 0 0 1-17.18 2.22c-9.96 0-17.72-2.736-23.29-8.21-5.57-5.473-8.35-13.61-8.35-24.41v-48.21h-15.14v-20h15.14v-30.78h23.43v30.76h22.76v20h-22.76v44c0 10.667 4.14 16 12.41 16 3.42-.143 6.8-.836 10-2.05l2.98 20.68Z"/></svg>