<svg xmlns="http://www.w3.org/2000/svg" preserveAspectRatio="xMidYMid" viewBox="0 0 256 330"><path d="M134.129.029c.876-.113 1.65.108 2.319.662a1256.253 1256.253 0 0 1 69.573 93.427c16.094 24.231 29.788 49.851 41.082 76.862 18.037 48.108 8.65 89.963-28.16 125.564-32.209 27.22-69.314 37.822-111.318 31.805-50.208-10.237-84.332-39.28-102.373-87.133C.553 225.638-.993 209.736.614 193.51c2.676-27.93 9.302-54.877 19.878-80.838 4.407-10.592 10.15-20.31 17.228-29.154a381.88 381.88 0 0 1 16.565 21.203c2.44 2.55 4.98 4.98 7.62 7.289C82.06 72.01 106.135 34.685 134.13.029Z" fill="#FF5B11" opacity=".993"/><path d="M129.49 53.7c24.314 28.2 46.29 58.238 65.93 90.114a187.318 187.318 0 0 1 15.24 33.13c8.338 32.804-.607 59.86-26.836 81.169-25.367 17.85-53.196 23.15-83.488 15.902-32.666-10.136-51.55-32.113-56.653-65.929-1.238-10.662-.133-21.043 3.314-31.142a225.41 225.41 0 0 1 17.89-35.78l19.878-29.155a5509.508 5509.508 0 0 0 44.726-58.31Z" fill="#FF9758"/></svg>