<svg xmlns="http://www.w3.org/2000/svg" preserveAspectRatio="xMidYMid" viewBox="0 0 256 355">
  <path d="M195 260c-11 9-20 23-31 32 5 26-4 37 7 46 4 3 29 10 43 2 0-13-7-17-14-22-8-16-5-42-6-58" fill="#2E93EE"/>
  <path d="M200 344c-1-8-7-14-14-17 6 4 9 10 9 17h5ZM212 341c-1-7-7-13-14-16 8 5 10 11 9 18l5-2Z" fill="#2E578B"/>
  <path d="M183 128c-5 8-8 24 34 47 0 0-18 30-23 35-6 6-9 21-4 28l10 11s13 2 19-1c7-8 9-20 4-30 0 0 35-36 33-47s-57-67-73-43Z" fill="#2E93EE"/>
  <path d="m223 218-17 14 8-3s6 7 1 14c0 0 9-5 3-16l5-8v-1Z" fill="#2E578B"/>
  <g fill="#2E93EE">
    <path d="m78 212-2 7c-2 4-4 4 2 7 5 2 9 4 14 4 8 2 7 1 3-7l-6-10c-8-12-10-11-11-1M49 208c-3 5 1 6 7 8l7 2c7 1 5 0 2-6l-6-9c-11-17-6-3-10 5M23 205v4c0 5-1 4 5 5h8c7-2 5-4 1-8l-5-5c-14-11-9-3-9 4"/>
  </g>
  <path d="M121 39S79 61 80 68c0 7 12 6 16 15 0 0-26 18-24 26s18 5 22 12c0 0-4 16 0 22s3 1 8 8c1 0-2-60 19-112Z" fill="#2E93EE"/>
  <path d="M113 59c14 14 33 23 50 34 12 7 22 16 31 27 10 14 4 30 6 47a185 185 0 0 1 1 48c-3 25-4 46-22 64-22 24-46 29-73 9-10-6-19-14-27-23l-18-17c-8-8-17-14-27-19-11-4-18 1-23 4-3 1-7 3-10 1l-1-4 7-10c16-14 42-15 62-4 7 4 15 8 24 9 6 0 12-1 17-5 3-3 6-8 6-13 2-7 1-14-1-21-3-9-9-18-13-27-12-32-16-69 4-99l3-4 4 3Z" fill="#2E93EE"/>
  <path d="M37 230c14 7 29 23 44 40 19 23 66 56 105 4 36-49 19-118 17-125v-1c-1-2-34-44-64-50-8 7-10 19 1 40 18 36 32 88 0 120-4 4-10 8-16 10-23 8-35-6-49-19a68 68 0 0 0-38-19Z" fill="#FFCF00"/>
  <path d="M190 268c-14-2-27-7-38-16 8 12 20 20 34 22l4-6ZM127 271c5 11 13 21 22 30l9-3c-13-6-24-15-31-27ZM79 268l2 3 1 1c-1-4 0-7 1-10l-4 6ZM94 284l6 4c-2-6-2-12 0-15l-6 11Z" fill="#ECA93F"/>
  <path d="m63 251 4 4 1-8-5 4Z" fill="#FF9144"/>
  <path d="M163 225c14-4 29-4 43 0l1-6c-28-7-44 6-44 6ZM208 180v-7c-31-1-47 14-47 14 15-7 31-10 47-7ZM196 140l-4-4c-32 0-41 15-41 15 14-9 29-13 45-11Z" fill="#ECA93F"/>
  <path d="m208 175-4-22-2-1-69-42v6c14 19 45 53 75 59Z" fill="#ECA93F"/>
  <path d="M105 255c4-6 11-10 19-9 20 2 14 27 9 42-4 10-6 21-6 32 0 14 5 19-1 24-11 8-24 11-37 10-11-2-12-26 7-32 5-11 5-23 4-35 0-8-1-24 5-33" fill="#2E93EE"/>
  <path d="m100 354 5-1c-1-7 1-14 6-19-8 4-10 12-11 20ZM89 354c-2-7 0-15 6-21-7 4-11 11-11 18 1 2 3 3 5 3ZM100 224s-3 14 7 19c8 4 17 4 22-2 7-8 17-25-10-41-16-10-17 24-17 24h-2ZM102 158l7 14c0 1 22-27 18-31-4-5-21 11-25 17Z" fill="#2E578B"/>
  <path d="M123 119c24 22-25 52-25 52 5 3 12 15 17 23 5 9 7 7 13 14s-11 17-11 17-58-31-58-51c0-3 13-25 27-39 7-7 26-27 37-16Z" fill="#2E93EE"/>
  <path d="M101 214s-4 22 8 28c0 0 11 1 16-3 0 0 13-20 3-31-10-10-27 6-27 6Z" fill="#2E93EE"/>
  <path d="m100 216 20 10c-3 0-6 0-8-2 0 0-5 9 0 14 0 0-7-2-5-15l-7-7Z" fill="#2E578B"/>
  <path d="M115 53s9-52 31-53c14-1 21 17 21 17 9 0 17 3 24 8 0 0 4-7 11-5 6 2 14 17 11 42 7 1 12 5 16 10-2 3-5 5-8 5-4 1-23-6-29-2-5 4-8 10-6 17 0 0-22-3-31-15s-18-35-40-24Z" fill="#2E93EE"/>
  <path d="M188 56s6-17 16-22c0 9 1 17 3 25l-19-3ZM143 21s13 6 21 33l-29-2c5-10 7-21 8-31Z" fill="#F1F1F2"/>
  <path d="M148 33c3 0 6 3 6 8 0 4-3 8-6 8s-6-4-6-8c0-5 3-8 6-8M197 54c2 0 4-3 4-6s-2-6-4-6h-2l-3 6c0 3 2 6 5 6Z" fill="#2E578B"/>
  <path d="M144 66s-16-13-24-4c-9 11 0 27 0 27s1-7 5-9c0 0 1 22 38 47 36 25 52 22 60 20s16-8 13-14-24-24-24-24-8 1-23-4c-16-6-37-17-51-36l6-3" fill="#FF9144"/>
  <path d="M135 95c20-5 41 1 57 15l-4-2s18-1 21 2c11 7 18 19 19 33 1 6-14 10-48-7-21-11-45-41-45-41Z" fill="#FF6B17"/>
  <path d="M176 99Z" fill="#FF9144"/>
  <path d="M211 109s-5 19-12 17c-2-1-1-6-2-10l-4-11 18 4ZM245 102s-1 19-8 18c-3 0-3-5-4-9l-6-10 18 1Z" fill="#EBEEF2"/>
  <path d="M253 85c-1-13-19-19-32-10-10-2-22-9-33 2-4 3-5 9-3 14 0 0-22-3-29-14-8-12-18-27-29-28-5 0-15-1-20 10-6 10-9 30 32 61 42 31 60 39 69 39 11 0 12-4 25-6 6-1 12-12 4-22-6-8-13-14-22-19 0 0 16 13 19 19 3 7-6 11-14 13s-18 4-54-21-40-50-40-50c-5 0-5 10-5 10s-6-12 1-19c9-8 18 2 18 2h-1c-5-2-6 2-6 2 15 19 33 33 55 42 16 6 24-1 24-1 8 0 15 0 23-2 5-1 19-3 18-22Z" fill="#FFCF00"/>
  <path d="M200 84c4-1 7 4 2 6-1 2 0 4 3 4-3 2-6 1-7-2-2-3-1-7 2-8M242 82c-3-1-5 3-1 5 0 2-1 3-3 4 8 2 8-7 4-9" fill="#ECA93F"/>
</svg>
