<svg fill="none" height="37.682" viewBox="0 0 128 37.682" width="128" xmlns="http://www.w3.org/2000/svg"><path d="M33.005 30.23V11.959c0 -0.106 0.084 -0.191 0.187 -0.191h3.708c0.103 0 0.187 0.086 0.187 0.191v6.902c0.659 -1.172 1.952 -2.239 4.03 -2.239 3.321 0 4.563 2.16 4.563 5.154v8.451c0 0.106 -0.083 0.191 -0.187 0.191h-3.683a0.188 0.188 0 0 1 -0.187 -0.191V22.844c0 -1.823 -0.558 -2.889 -2.104 -2.889 -1.546 0 -2.458 1.093 -2.458 3.071v7.203c0 0.106 -0.083 0.191 -0.186 0.191h-3.683a0.188 0.188 0 0 1 -0.187 -0.191z" fill="#053d4e"></path><path d="M46.975 23.808v-0.26c0 -4.061 2.738 -6.925 6.87 -6.925s6.869 2.863 6.869 6.925v0.26c0 4.088 -2.712 6.951 -6.869 6.951s-6.87 -2.863 -6.87 -6.95m9.632 0v-0.26c0 -2.446 -0.836 -3.748 -2.763 -3.748 -1.926 0 -2.762 1.302 -2.762 3.748v0.26c0 2.473 0.861 3.774 2.763 3.774s2.763 -1.302 2.763 -3.774" fill="#053d4e"></path><path d="M63.688 26.36V19.955h-2.257a0.126 0.126 0 0 1 -0.124 -0.128v-2.736a0.126 0.126 0 0 1 0.124 -0.128h2.257v-5.064a0.126 0.126 0 0 1 0.124 -0.128h3.806a0.126 0.126 0 0 1 0.124 0.128v5.064h2.907a0.126 0.126 0 0 1 0.124 0.128v2.736a0.126 0.126 0 0 1 -0.124 0.128h-2.907v6.118c0 1.068 0.507 1.51 1.775 1.51 0.533 0 0.786 -0.099 1.146 -0.212l0.162 0.123v2.829a0.128 0.128 0 0 1 -0.091 0.125c-0.66 0.192 -1.382 0.311 -2.205 0.311 -3.32 0 -4.841 -1.51 -4.841 -4.4" fill="#053d4e"></path><path d="M72.561 30.292V17.09c0 -0.071 0.056 -0.128 0.125 -0.128h3.805a0.126 0.126 0 0 1 0.124 0.128v1.928c0.609 -1.198 1.825 -2.394 3.854 -2.394s3.295 0.807 3.954 2.5c0.912 -1.562 2.332 -2.5 4.233 -2.5 3.219 0 4.487 2.135 4.487 5.258v8.411a0.126 0.126 0 0 1 -0.125 0.128h-3.805a0.126 0.126 0 0 1 -0.124 -0.128V22.663c0 -1.849 -0.685 -2.733 -1.952 -2.733 -1.419 0 -2.256 1.041 -2.256 3.254v7.109a0.126 0.126 0 0 1 -0.124 0.127h-3.806a0.126 0.126 0 0 1 -0.124 -0.128v-7.602c0 -1.823 -0.608 -2.76 -1.901 -2.76 -1.394 0 -2.306 0.989 -2.306 3.229v7.135a0.126 0.126 0 0 1 -0.124 0.128h-3.805a0.126 0.126 0 0 1 -0.124 -0.128z" fill="#053d4e"></path><path d="M94.555 26.671c0 -2.316 1.444 -3.696 3.954 -4.009l4.563 -0.625v-0.859c0 -0.989 -0.633 -1.587 -1.952 -1.587s-2.024 0.508 -2.166 1.455a0.126 0.126 0 0 1 -0.125 0.107h-3.605a0.129 0.129 0 0 1 -0.127 -0.139c0.221 -2.778 2.584 -4.39 6.1 -4.39s5.83 1.77 5.83 4.582v9.086a0.126 0.126 0 0 1 -0.125 0.128h-3.559a0.126 0.126 0 0 1 -0.124 -0.12l-0.12 -1.884c-0.785 1.458 -2.256 2.342 -4.233 2.342 -2.535 0 -4.309 -1.717 -4.309 -4.087zm8.516 -1.144v-0.963l-3.092 0.417c-1.013 0.13 -1.495 0.625 -1.495 1.432 0 0.885 0.634 1.406 1.8 1.406 1.52 0 2.788 -0.911 2.788 -2.291z" fill="#053d4e"></path><path d="M120.598 19.955h-2.257a0.126 0.126 0 0 1 -0.125 -0.128v-2.736c0 -0.071 0.056 -0.128 0.125 -0.128h2.257v-5.064a0.126 0.126 0 0 1 0.124 -0.128h3.806a0.126 0.126 0 0 1 0.124 0.128v5.064h3.17a0.126 0.126 0 0 1 0.124 0.128v2.736a0.126 0.126 0 0 1 -0.124 0.128h-3.17v6.118c0 1.068 0.507 1.51 1.775 1.51 0.54 0 0.999 -0.103 1.416 -0.216a0.126 0.126 0 0 1 0.157 0.124v2.832a0.128 0.128 0 0 1 -0.091 0.125c-0.681 0.192 -1.645 0.312 -2.47 0.312 -3.32 0 -4.841 -1.51 -4.841 -4.399z" fill="#053d4e"></path><path d="M116.581 16.968c-2.189 -0.2 -3.302 0.562 -3.893 2.131v-2.009a0.126 0.126 0 0 0 -0.124 -0.128h-3.607a0.126 0.126 0 0 0 -0.125 0.128v13.202c0 0.071 0.056 0.128 0.125 0.128h3.607a0.126 0.126 0 0 0 0.124 -0.128V24.147c0 -4.027 1.596 -4.351 3.874 -4.209a0.126 0.126 0 0 0 0.133 -0.127v-2.714a0.132 0.132 0 0 0 -0.114 -0.129z" fill="#053d4e"></path><path d="M25.775 17.751a19.858 19.858 0 0 0 -2.148 -4.964h0.002s-0.927 -1.538 -1.316 -2.003H22.31c-0.096 -0.121 -0.289 0.013 -0.215 0.151 0.109 0.229 0.208 0.511 0.139 0.786 -0.114 0.336 -0.489 0.569 -0.834 0.45a0.748 0.748 0 0 1 -0.254 -0.17c-0.353 -0.365 -0.537 -0.969 -0.766 -1.736 -0.206 -0.683 -0.461 -1.531 -0.921 -2.449 -0.748 -1.492 -1.633 -2.182 -1.669 -2.211a0.126 0.126 0 0 0 -0.154 -0.001 0.138 0.138 0 0 0 -0.048 0.15c0.004 0.012 0.376 1.242 -0.342 2.173 -0.286 0.371 -0.721 0.595 -1.228 0.627 -0.51 0.033 -1.015 -0.136 -1.318 -0.44 -0.751 -0.755 -0.839 -2.093 -0.825 -2.823 0.047 -2.434 0.782 -4.139 1.165 -4.7a0.138 0.138 0 0 0 -0.005 -0.161 0.128 0.128 0 0 0 -0.152 -0.038C11.909 1.681 9.754 3.888 8.653 6.765c-0.619 1.711 -0.889 2.491 -1.108 2.982 -0.202 0.449 -0.389 0.656 -0.58 0.77 -0.105 0.064 -0.233 0.1 -0.365 0.105 -0.194 -0.02 -1.154 -0.196 -0.318 -1.802 0.069 -0.135 -0.114 -0.269 -0.216 -0.16l-0.658 0.727q-0.044 0.048 -0.088 0.096l-0.109 0.121q-0.028 0.032 -0.051 0.062C3.08 12.043 1.627 15.085 0.79 17.895 0.04 20.595 -0.007 22.752 0 23.572l0.001 0.182c0 3.634 1.382 7.05 3.891 9.62s5.847 3.985 9.395 3.985 6.886 -1.415 9.395 -3.985c2.51 -2.57 3.891 -5.987 3.891 -9.62 0 -2.315 -0.298 -4.201 -0.803 -6.003zM13.289 30.798c-3.798 0 -6.879 -3.152 -6.879 -7.043s3.08 -7.044 6.879 -7.044 6.879 3.154 6.879 7.044 -3.08 7.043 -6.879 7.043" fill="#FF4000"></path></svg>