<svg width="27" height="37" viewBox="0 0 27 37" fill="none" xmlns="http://www.w3.org/2000/svg">
<path d="M25.7756 17.3698C25.2893 15.6249 24.5666 13.9548 23.6276 12.4058H23.6296C23.6296 12.4058 22.7026 10.8678 22.3136 10.4028H22.3106C22.2146 10.2818 22.0216 10.4158 22.0956 10.5538C22.2046 10.7828 22.3036 11.0648 22.2346 11.3398C22.1206 11.6758 21.7456 11.9088 21.4006 11.7898C21.3051 11.7512 21.2186 11.6933 21.1466 11.6198C20.7936 11.2548 20.6096 10.6508 20.3806 9.8838C20.1746 9.2008 19.9196 8.35279 19.4596 7.43479C18.7116 5.94279 17.8266 5.25279 17.7906 5.22379C17.7686 5.20662 17.7416 5.19721 17.7137 5.19703C17.6859 5.19685 17.6587 5.20591 17.6366 5.2228C17.6142 5.23992 17.5976 5.26346 17.5891 5.29028C17.5805 5.31709 17.5803 5.34588 17.5886 5.3728C17.5926 5.3848 17.9646 6.61479 17.2466 7.54579C16.9606 7.91679 16.5256 8.1408 16.0186 8.1728C15.5086 8.2058 15.0036 8.0368 14.7006 7.7328C13.9496 6.9778 13.8616 5.63979 13.8756 4.90979C13.9226 2.47579 14.6576 0.770795 15.0406 0.209795C15.0567 0.185815 15.0649 0.157376 15.064 0.12849C15.0631 0.0996036 15.0532 0.071728 15.0356 0.048795C15.018 0.0265184 14.9936 0.0106996 14.9661 0.00382184C14.9385 -0.00305591 14.9095 -0.000603202 14.8836 0.010795C11.9096 1.2998 9.75456 3.50679 8.65356 6.38379C8.03456 8.09479 7.76456 8.8748 7.54556 9.3658C7.34356 9.8148 7.15656 10.0218 6.96556 10.1358C6.86056 10.1998 6.73256 10.2358 6.60056 10.2408C6.40656 10.2208 5.44656 10.0448 6.28256 8.4388C6.35156 8.3038 6.16856 8.1698 6.06656 8.2788L5.40856 9.0058C5.37923 9.0378 5.3499 9.0698 5.32056 9.1018L5.21156 9.2228C5.1929 9.24413 5.1759 9.2648 5.16056 9.2848C3.08056 11.6618 1.62756 14.7038 0.790564 17.5138C0.0405639 20.2138 -0.00643612 22.3708 0.000563879 23.1908L0.00156388 23.3728C0.00156388 27.0068 1.38356 30.4228 3.89256 32.9928C6.40156 35.5628 9.73956 36.9778 13.2876 36.9778C16.8356 36.9778 20.1736 35.5628 22.6826 32.9928C25.1926 30.4228 26.5736 27.0058 26.5736 23.3728C26.5736 21.0578 26.2756 19.1718 25.7706 17.3698H25.7756ZM13.2896 30.4168C9.49156 30.4168 6.41056 27.2648 6.41056 23.3738C6.41056 19.4828 9.49056 16.3298 13.2896 16.3298C17.0886 16.3298 20.1686 19.4838 20.1686 23.3738C20.1686 27.2638 17.0886 30.4168 13.2896 30.4168Z" fill="#FF4000"/>
</svg>
