<svg width="251" height="83" viewBox="0 0 251 83" fill="none" xmlns="http://www.w3.org/2000/svg">
<path d="M153.602 82.4612H173.519V0.015625H153.602V82.4612ZM118.632 58.9549C118.632 61.8498 116.201 64.2815 113.306 64.2815H101.726C98.8314 64.2815 96.3998 61.8498 96.3998 58.9549C96.3998 57.797 96.3998 25.722 96.3998 25.722H76.4831V60.5761C76.4831 74.8188 85.6309 82.3454 99.063 82.3454H118.516C130.906 82.3454 138.433 73.4292 138.433 60.5761V25.722H118.516C118.632 25.722 118.632 57.9128 118.632 58.9549ZM230.605 25.722C230.605 25.722 230.605 57.9128 230.605 58.9549C230.605 61.8498 228.174 64.2815 225.279 64.2815H213.699C210.805 64.2815 208.373 61.8498 208.373 58.9549C208.373 57.797 208.373 25.722 208.373 25.722H188.456V60.5761C188.456 74.8188 197.604 82.3454 211.036 82.3454H230.49C242.88 82.3454 250.406 73.4292 250.406 60.5761V25.722H230.605ZM39.7763 25.722C39.7763 25.722 29.4706 25.722 27.039 25.722C22.523 25.722 20.3229 26.8799 20.3229 26.8799V0.015625H0.40625V82.3454H20.2071V49.2282C20.2071 46.3334 22.6388 43.9017 25.5336 43.9017H37.1131C40.0079 43.9017 42.4396 46.3334 42.4396 49.2282V82.4612H62.3562V46.5649C62.3562 31.5117 52.2821 25.722 39.7763 25.722Z" fill="#1CE783"/>
</svg>
