<svg width="83" height="80" viewBox="0 0 83 80" fill="none" xmlns="http://www.w3.org/2000/svg">
<g clip-path="url(#clip0_906_1865)">
<path d="M67.5214 0H14.5299C6.50526 0 0 6.50526 0 14.5299V65.4701C0 73.4947 6.50526 80 14.5299 80H67.5214C75.546 80 82.0513 73.4947 82.0513 65.4701V14.5299C82.0513 6.50526 75.546 0 67.5214 0Z" fill="#330000"/>
<path d="M39.7607 48.0096H27.0459L24.4589 56.0459C24.4237 56.1924 24.3384 56.3221 24.2178 56.4125C24.0972 56.503 23.9489 56.5485 23.7984 56.5413H17.3584C16.9911 56.5413 16.8627 56.3395 16.9731 55.9358L27.9815 24.2312C28.0917 23.901 28.2018 23.5249 28.3119 23.1028C28.4559 22.3684 28.5296 21.622 28.5321 20.8736C28.5246 20.8213 28.5294 20.7679 28.5461 20.7178C28.5629 20.6676 28.591 20.6221 28.6284 20.5847C28.6658 20.5473 28.7114 20.5191 28.7615 20.5024C28.8117 20.4856 28.865 20.4808 28.9174 20.4883H37.669C37.9255 20.4883 38.0722 20.58 38.1094 20.7635L50.6042 55.9908C50.7143 56.3581 50.6041 56.5416 50.2739 56.5413H43.1183C42.9954 56.5549 42.8717 56.5233 42.7704 56.4524C42.6692 56.3815 42.5971 56.2761 42.5679 56.156L39.7607 48.0096ZM29.0274 41.0743H37.7241C37.504 40.3407 37.2471 39.515 36.9536 38.5973C36.6594 37.6805 36.3476 36.6989 36.0179 35.6525C35.6876 34.6068 35.3572 33.561 35.027 32.5151C34.6968 31.4693 34.3941 30.4602 34.1189 29.4877C33.8436 28.5159 33.5959 27.6261 33.3759 26.8182H33.3208C33.0109 28.3048 32.6251 29.7745 32.1649 31.2216C31.6506 32.8729 31.1276 34.5609 30.5961 36.2855C30.0637 38.0108 29.5408 39.6071 29.0274 41.0743Z" fill="#FF9A00"/>
<path d="M58.0343 26.3229C57.4729 26.3455 56.9131 26.2493 56.3914 26.0406C55.8697 25.8319 55.398 25.5155 55.007 25.112C54.6171 24.691 54.3142 24.1971 54.1158 23.6587C53.9174 23.1202 53.8274 22.5479 53.851 21.9746C53.831 21.4069 53.9309 20.8414 54.1443 20.315C54.3577 19.7886 54.6798 19.3131 55.0894 18.9197C55.4951 18.5303 55.974 18.2252 56.4984 18.0221C57.0227 17.8189 57.5822 17.7218 58.1443 17.7363C59.4654 17.7363 60.5021 18.1307 61.2543 18.9197C61.634 19.3297 61.9291 19.8105 62.1227 20.3347C62.3163 20.8589 62.4046 21.4162 62.3826 21.9746C62.4056 22.5501 62.3127 23.1245 62.1094 23.6634C61.9061 24.2024 61.5966 24.695 61.1992 25.112C60.7839 25.5214 60.2882 25.8404 59.7435 26.0488C59.1988 26.2572 58.6169 26.3505 58.0343 26.3229ZM54.2362 55.9909V29.6805C54.2362 29.3503 54.3825 29.1851 54.6766 29.1851H61.4469C61.7403 29.1851 61.887 29.3502 61.8873 29.6805V55.9909C61.8873 56.3582 61.7405 56.5416 61.4469 56.5414H54.7317C54.4015 56.5414 54.2364 56.3579 54.2362 55.9909Z" fill="#FF9A00"/>
</g>
<defs>
<clipPath id="clip0_906_1865">
<rect width="82.0513" height="80" fill="white"/>
</clipPath>
</defs>
</svg>
