<svg width="32" height="32" viewBox="0 0 32 32" fill="none" xmlns="http://www.w3.org/2000/svg">
<g clip-path="url(#clip0_2_298)">
<path d="M26.3333 0H5.66667C2.53705 0 0 2.53705 0 5.66667V25.5333C0 28.6629 2.53705 31.2 5.66667 31.2H26.3333C29.4629 31.2 32 28.6629 32 25.5333V5.66667C32 2.53705 29.4629 0 26.3333 0Z" fill="#49021F"/>
<path d="M12.8661 8.16218V21.8364C12.8661 21.9797 12.8018 22.0512 12.673 22.0511H10.0755C9.96081 22.0511 9.90358 21.9796 9.90378 21.8364V8.16218C9.90378 8.04779 9.96816 7.99054 10.0969 7.99043H12.6944C12.7177 7.98712 12.7415 7.98928 12.7639 7.99673C12.7862 8.00419 12.8065 8.01675 12.8232 8.03341C12.8398 8.05007 12.8524 8.07038 12.8598 8.09273C12.8673 8.11507 12.8695 8.13885 12.8661 8.16218Z" fill="#FF3366"/>
<path d="M23.1057 19.5395V21.7506C23.1074 21.7896 23.0983 21.8283 23.0794 21.8624C23.0604 21.8965 23.0324 21.9247 22.9984 21.9438C22.6327 22.081 22.2499 22.1677 21.8607 22.2014C21.4314 22.2443 21.0164 22.2658 20.6156 22.2658C19.8029 22.2788 18.9949 22.1405 18.2328 21.8579C17.5616 21.6059 16.9535 21.2103 16.4511 20.6987C15.9614 20.1933 15.5781 19.5947 15.3241 18.9385C15.0558 18.2474 14.921 17.5117 14.927 16.7703C14.9072 15.7571 15.1672 14.7581 15.6783 13.8831C16.1865 13.0388 16.9183 12.3516 17.7928 11.8974C18.7014 11.411 19.764 11.1677 20.9805 11.1675C21.404 11.1598 21.8275 11.1849 22.2471 11.2427C22.4935 11.2809 22.7373 11.3346 22.977 11.4037C23.0145 11.4297 23.0443 11.4653 23.0632 11.5069C23.0821 11.5485 23.0894 11.5944 23.0843 11.6398L23.0628 13.8509C23.0628 13.9797 23.0056 14.0298 22.8911 14.0011C22.6543 13.9168 22.4098 13.8557 22.1612 13.8187C21.8061 13.7646 21.4471 13.7395 21.0879 13.7435C20.5414 13.7352 19.9995 13.8451 19.4993 14.0655C19.0395 14.2694 18.6508 14.6057 18.3831 15.0315C18.1111 15.4609 17.9751 16.0047 17.9752 16.663C17.9752 17.4073 18.1362 17.994 18.4582 18.4233C18.7663 18.8423 19.1923 19.1599 19.6818 19.3356C20.1596 19.5118 20.6646 19.6026 21.1738 19.6039C21.518 19.6055 21.862 19.5875 22.2042 19.5503C22.4515 19.528 22.696 19.4813 22.934 19.4107C23.0484 19.3822 23.1056 19.4252 23.1057 19.5395Z" fill="#FF3366"/>
</g>
<defs>
<clipPath id="clip0_2_298">
<rect width="32" height="31.2" fill="white"/>
</clipPath>
</defs>
</svg>
