<svg width="32" height="32" viewBox="0 0 32 32" fill="none" xmlns="http://www.w3.org/2000/svg">
<g clip-path="url(#clip0_2_156)">
<path d="M26.3333 0H5.66667C2.53705 0 0 2.53705 0 5.66667V25.5333C0 28.6629 2.53705 31.2 5.66667 31.2H26.3333C29.4629 31.2 32 28.6629 32 25.5333V5.66667C32 2.53705 29.4629 0 26.3333 0Z" fill="#49021F"/>
<path d="M11.6211 8.16221V21.8365C11.6211 21.9797 11.5567 22.0512 11.4279 22.0511H8.83037C8.71572 22.0511 8.6585 21.9796 8.65869 21.8365V8.16221C8.65869 8.04782 8.72308 7.99057 8.85186 7.99046H11.4493C11.4726 7.98715 11.4964 7.98931 11.5188 7.99677C11.5411 8.00422 11.5614 8.01678 11.5781 8.03344C11.5947 8.0501 11.6073 8.07041 11.6148 8.09276C11.6222 8.1151 11.6244 8.13888 11.6211 8.16221Z" fill="white"/>
<path d="M19.3062 22.2658C18.3181 22.2808 17.3391 22.0755 16.4404 21.6647C15.6031 21.2773 14.9032 20.6447 14.4333 19.8508C13.9465 19.0425 13.7032 18.0299 13.7034 16.8133C13.6953 15.828 13.947 14.8581 14.4333 14.0011C14.9341 13.1283 15.6706 12.4141 16.5585 11.9403C17.4885 11.4251 18.6119 11.1675 19.9287 11.1675C20.0001 11.1675 20.0931 11.1711 20.2077 11.1783C20.3221 11.1856 20.4581 11.1964 20.6156 11.2105V6.98155C20.6156 6.88158 20.6586 6.83128 20.7445 6.83128H23.4492C23.4667 6.82878 23.4845 6.83039 23.5013 6.83598C23.5181 6.84156 23.5333 6.85098 23.5458 6.86347C23.5583 6.87596 23.5677 6.8912 23.5733 6.90796C23.5789 6.92473 23.5805 6.94256 23.5781 6.96006V19.6469C23.5781 19.8904 23.5888 20.1552 23.6102 20.4411C23.6317 20.7276 23.6496 20.9852 23.6639 21.2139C23.6666 21.2585 23.6557 21.3029 23.6327 21.3412C23.6097 21.3795 23.5757 21.41 23.5351 21.4286C22.8373 21.7196 22.1105 21.9355 21.367 22.0726C20.6871 22.1981 19.9975 22.2627 19.3062 22.2658ZM20.6156 19.6039V13.7436C20.4996 13.7121 20.3811 13.6906 20.2614 13.6791C20.1152 13.6644 19.9683 13.6573 19.8213 13.6577C19.3004 13.6525 18.7856 13.7702 18.3187 14.0011C17.8639 14.2272 17.4756 14.5675 17.1917 14.9886C16.8982 15.4179 16.7515 15.9832 16.7516 16.6845C16.7412 17.1524 16.8176 17.6183 16.977 18.0583C17.1067 18.4129 17.3118 18.7352 17.5781 19.0029C17.833 19.2492 18.1417 19.4329 18.4797 19.5396C18.8367 19.6552 19.2099 19.7131 19.5852 19.7113C19.7855 19.7113 19.9715 19.7041 20.1433 19.6898C20.3033 19.6778 20.4616 19.649 20.6156 19.6039Z" fill="white"/>
</g>
<defs>
<clipPath id="clip0_2_156">
<rect width="32" height="31.2" fill="white"/>
</clipPath>
</defs>
</svg>
