<svg width="83" height="80" viewBox="0 0 83 80" fill="none" xmlns="http://www.w3.org/2000/svg">
<g clip-path="url(#clip0_906_1830)">
<path d="M67.5214 0H14.5299C6.50526 0 0 6.50526 0 14.5299V65.4701C0 73.4947 6.50526 80 14.5299 80H67.5214C75.546 80 82.0513 73.4947 82.0513 65.4701V14.5299C82.0513 6.50526 75.546 0 67.5214 0Z" fill="#49021F"/>
<path d="M29.7977 20.9286V55.9908C29.7977 56.3581 29.6326 56.5415 29.3024 56.5413H22.6421C22.3481 56.5413 22.2014 56.3578 22.2019 55.9908V20.9286C22.2019 20.6353 22.367 20.4885 22.6972 20.4882H29.3574C29.4172 20.4797 29.4781 20.4853 29.5355 20.5044C29.5928 20.5235 29.6448 20.5557 29.6875 20.5984C29.7303 20.6412 29.7625 20.6932 29.7816 20.7505C29.8007 20.8078 29.8062 20.8688 29.7977 20.9286Z" fill="#FF3366"/>
<path d="M49.5031 57.0919C46.9696 57.1304 44.4594 56.6039 42.1549 55.5506C40.0081 54.5571 38.2135 52.9352 37.0085 50.8995C35.7605 48.8268 35.1366 46.2306 35.137 43.111C35.1162 40.5847 35.7618 38.0977 37.0085 35.9004C38.2926 33.6622 40.1811 31.831 42.4577 30.6163C44.8425 29.2952 47.723 28.6347 51.0993 28.6347C51.2825 28.6347 51.521 28.6439 51.8148 28.6623C52.1081 28.6812 52.4567 28.7087 52.8607 28.7448V17.9014C52.8607 17.6451 52.9708 17.5161 53.191 17.5161H60.1263C60.1711 17.5097 60.2169 17.5138 60.2599 17.5282C60.3029 17.5425 60.3419 17.5666 60.374 17.5986C60.4061 17.6307 60.4302 17.6697 60.4445 17.7127C60.4589 17.7557 60.463 17.8015 60.4566 17.8463V50.3766C60.4566 51.001 60.4841 51.6799 60.5391 52.4132C60.5942 53.1476 60.6401 53.8081 60.6768 54.3947C60.6836 54.509 60.6556 54.6228 60.5967 54.721C60.5378 54.8192 60.4505 54.8973 60.3465 54.9452C58.5573 55.6914 56.6937 56.2449 54.7872 56.5964C53.0441 56.9181 51.2757 57.0839 49.5031 57.0919ZM52.8606 50.2665V35.2399C52.5631 35.1593 52.2594 35.104 51.9525 35.0747C51.5776 35.037 51.2009 35.0187 50.8241 35.0197C49.4884 35.0064 48.1684 35.3081 46.9711 35.9004C45.805 36.48 44.8093 37.3525 44.0814 38.4323C43.3289 39.5332 42.9528 40.9827 42.953 42.7807C42.9262 43.9806 43.1221 45.175 43.5309 46.3034C43.8636 47.2127 44.3894 48.0389 45.0722 48.7253C45.7258 49.3568 46.5172 49.8279 47.3839 50.1014C48.2994 50.3979 49.2563 50.5465 50.2186 50.5417C50.7321 50.5417 51.2091 50.5234 51.6497 50.4867C52.0599 50.4558 52.4658 50.382 52.8606 50.2665Z" fill="#FF3366"/>
</g>
<defs>
<clipPath id="clip0_906_1830">
<rect width="82.0513" height="80" fill="white"/>
</clipPath>
</defs>
</svg>
