<svg xmlns="http://www.w3.org/2000/svg" viewBox="0 0 1000 191.73" class="css-ofyhr8 e1e0p39a3"><path fill="white" d="M6.05 189.21c-3.78 0-6-2.27-6-6.06v-2c0-3.78 1.77-5.55 5.05-6.81l7.31-2.52c5.05-2 6.81-4.29 6.81-9.59V39.61c0-5.3-1.76-7.57-6.81-9.59L5.05 27.5c-3.28-1.26-5-3-5-6.81v-2c0-3.79 2.27-6.06 6.05-6.06h49.7c3.79 0 6.06 2.27 6.06 6.06v2c0 3.78-1.77 5.55-5.05 6.81L49.45 30c-5.3 2-7.07 4.29-7.07 9.59v122.6c0 5.3 1.77 7.57 7.07 9.59l7.31 2.52c3.28 1.26 5.05 3 5.05 6.81v2c0 3.79-2.27 6.06-6.06 6.06Zm70.89 0c-3.78 0-6-2.27-6-6.06v-1.76c0-3.53 1.76-5.3 5.29-6.31l5-1.51c5-1.52 6.81-4 6.81-9.59V98.64c0-7.57-2-10.6-11.6-12.87-4-1-5.55-2.52-5.55-6v-1.56c0-2.78 1.51-4.8 5.29-6.06l22.46-8.83c6-2.27 9.84 0 9.84 6.31v5.55c0 2.52 2 3.28 4 2l4-2.27c12.11-7.57 25.73-12.37 39.35-12.37 20.69 0 31.79 12.87 31.79 35.32V164c0 5.55 1.77 8.07 7.06 9.59l4.8 1.51c3.53 1 5.29 2.78 5.29 6.31v1.76c0 3.79-2.27 6.06-6.05 6.06h-27c-3.79 0-6.06-2.27-6.06-6.06v-80.24c0-14.89-3.78-22.45-16.65-22.45s-26.23 5-33.55 9.58c-4.54 2.53-5.8 5-5.8 9.84V164c0 5.55 1.76 8.07 6.81 9.59l5 1.51c3.54 1 5.3 2.78 5.3 6.31v1.76c0 3.79-2.27 6.06-6 6.06Zm143.79 0c-3.78 0-6-2.27-6-6.06v-1.76c0-3.53 1.76-5.3 5.3-6.31l5.29-1.51c4.55-1.52 6.56-3.79 6.56-9.59V84.51a2.91 2.91 0 0 0-3-3h-9.09c-3.78 0-6.05-2.53-6.05-6.31v-1.79c0-3.53 1.77-5.55 4.79-7.06l2.78-1.26c4-2.27 5-4 5.8-8.58l1.51-15.39C231.83 12.61 250.5 0 274.47 0c11.35 0 19.68 1.51 25.23 4.29 4.28 2 5 4.54 3.28 8.83l-5.3 13.12c-1 2.52-2.53 4-5.05 4-2.27 0-4.29-1.26-6.56-3.28-7.31-6.3-14.88-10.59-21.95-10.59C254 16.4 247 24.72 247 37.34c0 18.92 10.6 27.75 29.77 27.75H281c3.78 0 6.05 2.27 6.05 6v4.29c0 3.79-2.27 6.06-6.05 6.06h-24.19a3.12 3.12 0 0 0-3.28 3V164c0 5.3 1.77 8.33 6.81 9.59l7.82 1.51c3 .5 5 2.27 5 6.31v1.76c0 3.79-2.27 6.06-6.06 6.06Zm96.37 0c-3.78 0-6.31-2.27-6.31-6.31v-1.51c0-3.53 1.77-5.3 5.3-6.31l5.05-1.51c5-1.52 6.81-4.29 6.81-9.59V36.83c0-6.3-1-10.85-11.61-13.37-4.54-1-5.55-2.52-5.55-5.8V16.4c0-3.28 1.52-4.8 5-6.06L339.55 1c6.06-2.52 10.09 0 10.09 6.31V164c0 4.54 1.26 8.07 6.81 9.59l5.3 1.51c3.53 1 5.05 2.78 5.05 6.31v1.51c0 3.79-2.27 6.31-6.06 6.31Zm159.18-24.47c-5.8 13.37-21.94 27-49.69 27-35.32 0-61.56-25.48-61.56-64.58 0-39.36 25.23-64.59 57.77-64.59 25 0 44.4 13.88 49.95 38.86 1 4.79-.75 7.06-4.54 8.32l-74.92 27.75a3.07 3.07 0 0 0-1.77 4c5.8 17.4 19.93 29.26 40.36 29.26 15.9 0 27-6 33.3-13.62 3.28-3.53 6.82-5 10.1-2.78 3.02 1.8 3.28 5.08 1 10.38m-89.55-46.93a16 16 0 0 0 .25 3c.25 1.51 1.26 2.27 3.28 1.26l54.49-20.68c2.27-.76 3.78-1.77 2.77-4.8C443.49 84.77 433.4 79 422.05 79c-19.93 0-35.32 14.85-35.32 38.81m99.39 9.34c0-38.6 23.72-64.33 57.27-64.33 8.07 0 12.86 2.27 18.42 2.27 6.05 0 8.32-2.27 11.35-2.27 3.28 0 4.54 1.51 6.05 4.54l12.36 27.24c1.77 4 .51 7.07-2.27 8.33l-1 .5c-3 1.77-6 1-8.57-2-13.64-15.91-22.73-23.22-36.34-23.22-18.67 0-35.32 14.88-35.32 41.12 0 30 17.91 51.46 45.91 51.46 13.63 0 21.95-3.53 28.26-9.84 4-3.78 6.81-4.54 9.84-2.77 2.77 1.76 4.29 4.54.76 10.85-7.07 13.62-24 22.7-44.15 22.7-38.35 0-62.57-25.73-62.57-64.58M616.8 166V84.51a2.91 2.91 0 0 0-3-3h-9.08c-3.78 0-6.05-2.27-6.05-5.55v-1.79c0-3 1-5 4.28-7.32 8.58-6.3 15.14-14.12 22.46-24.47 2.27-3.53 4.79-4.79 7.56-4.79 3.79 0 6.31 2.52 6.31 6.56v17.91a2.91 2.91 0 0 0 3 3h23.46c3.79 0 6.06 2.27 6.06 6v4.29c0 3.79-2.27 6.06-6.06 6.06h-24.47a2.91 2.91 0 0 0-3 3v77.7c0 8.08 3.79 11.86 11.61 11.86 12.86 0 14.13-6 19.93-6a4.7 4.7 0 0 1 4.79 5c0 9.34-10.59 18.67-29.26 18.67-19.46.09-28.54-9.75-28.54-25.64m76.2 23.21c-3.78 0-6.05-2.27-6.05-6.06v-1.76c0-3.53 1.77-5.3 5.3-6.31l5-1.51c5.05-1.52 6.81-4 6.81-9.59V99.14c0-7.56-2-10.59-11.6-12.86-4-1-5.55-2.52-5.55-6.06v-1.51c0-2.77 1.51-4.79 5.3-6l23.46-9.34c6.31-2.27 10.09 0 10.09 6.31V164c0 5.55 1.77 8.07 6.81 9.59l5 1.51c3.53 1 5.29 2.78 5.29 6.31v1.76c0 3.79-2.27 6.06-6 6.06Zm2.27-163.73c0-8.83 7.07-15.64 16.91-15.64s16.9 6.81 16.9 15.64-7.08 15.64-16.92 15.64-16.91-7.06-16.91-15.64Zm47.41 101.67c0-38.35 26.24-64.59 60.55-64.59s60.54 26.24 60.54 64.59-26.23 64.58-60.54 64.58-60.55-26.24-60.55-64.58m99.15 5.8c0-28-14.89-52-42.39-52-20.18 0-34.81 14.63-34.81 40.11 0 28.26 15.14 52.22 42.38 52.22 20.18.03 34.82-14.6 34.82-40.28Zm30.27 56.26c-3.79 0-6.06-2.27-6.06-6.06v-1.76c0-3.53 1.77-5.3 5.3-6.31l5-1.51c5-1.52 6.82-4 6.82-9.59V98.64c0-7.57-2-10.6-11.61-12.87-4-1-5.55-2.52-5.55-6v-1.56c0-2.78 1.51-4.8 5.3-6.06l22.45-8.83c6.06-2.27 9.84 0 9.84 6.31v5.55c0 2.52 2 3.28 4 2l4-2.27c12.11-7.57 25.74-12.37 39.36-12.37 20.69 0 31.79 12.87 31.79 35.32V164c0 5.55 1.76 8.07 7.06 9.59l4.79 1.51c3.53 1 5.3 2.78 5.3 6.31v1.76c0 3.79-2.27 6.06-6 6.06H967c-3.78 0-6.05-2.27-6.05-6.06v-80.24c0-14.89-3.79-22.45-16.65-22.45s-26.24 5-33.56 9.58c-4.54 2.53-5.8 5-5.8 9.84V164c0 5.55 1.77 8.07 6.81 9.59l5 1.51c3.53 1 5.3 2.78 5.3 6.31v1.76c0 3.79-2.27 6.06-6.06 6.06Z"/></svg>