<svg xmlns="http://www.w3.org/2000/svg" xml:space="preserve" id="Capa_1" x="0" y="0" style="enable-background:new 0 0 138 34.942" version="1.1" viewBox="0 0 138 34.942"><style>.st0{fill:#2088c2}</style><g id="Logo_3_"><g id="InfoJobs_3_"><path d="M0 26.798c0 .299.263.488.563.488h4.991c.339 0 .639-.225.676-.562L9.447.606V.531c0-.263-.151-.451-.411-.451H3.578c-.34.039-.401.192-.437.493L0 26.798zM29.557 11.746c0 .826-.114 1.615-.188 2.402l-1.576 12.576a.618.618 0 0 1-.638.562h-4.579c-.338 0-.563-.189-.563-.488v-.075l1.501-12.199c.076-.526.15-1.053.15-1.539v-.038c0-.601-.113-1.052-.375-1.351-.376-.45-.975-.638-1.878-.638-1.802 0-3.866.488-3.866.488L15.67 26.723c-.039.337-.301.562-.677.562h-4.578c-.337 0-.564-.189-.564-.488v-.075l2.028-16.366c.188-1.426 1.164-1.877 3.415-2.401 1.952-.45 4.957-.863 7.319-.863 2.704 0 4.693.375 5.856 1.5.674.714 1.088 1.727 1.088 3.116v.038zM77.098.481c0-.263-.149-.45-.45-.45h-.073L71.322.019c-.337.037-.452.184-.49.484l-3.342 27.42c-.528 2.819-1.688 2.835-3.64 2.948-.788.037-1.501.037-2.027.074-.562 0-.826.205-.9.844l-.263 2.176v.187c0 .526.337.564.674.601.676.076 1.014.187 3.606.187 4.39 0 8.03-1.35 8.745-7.168L77.098.481z" class="st0"/><path d="M64.066 21.942c-1.239 3.378-3.792 5.668-9.796 5.668-3.379 0-5.482-.712-6.758-1.951-1.312-1.314-1.727-3.154-1.727-5.33 0-2.402.49-5.968 1.39-8.146 1.313-3.151 3.905-5.254 9.647-5.254 3.415 0 5.555.751 6.831 2.028 1.276 1.277 1.652 3.04 1.652 5.217-.001 2.363-.415 5.629-1.239 7.768M58.812 11.62c-.489-.525-1.241-.787-2.479-.787-2.74 0-3.566 1.239-4.054 3.903-.339 1.84-.637 3.902-.637 5.78 0 1.164.151 1.989.712 2.514.487.45 1.239.676 2.403.676 2.814 0 3.602-1.313 4.091-4.128.337-1.803.601-3.717.601-5.518 0-1.126-.152-1.914-.637-2.44M96.366 21.942c-1.24 3.378-3.791 5.67-9.797 5.67-3.379 0-5.481-.714-6.757-1.953-1.312-1.313-1.725-3.153-1.725-5.33 0-2.402.487-5.967 1.388-8.144 1.315-3.152 3.905-5.256 9.65-5.256 3.413 0 5.553.753 6.827 2.026 1.277 1.278 1.653 3.041 1.653 5.218 0 2.366-.413 5.632-1.239 7.769M91.112 11.62c-.488-.524-1.238-.787-2.477-.787-2.74 0-3.566 1.237-4.053 3.903-.34 1.84-.638 3.903-.638 5.78 0 1.164.149 1.99.711 2.514.489.452 1.24.676 2.403.676 2.817 0 3.604-1.314 4.091-4.129.337-1.801.601-3.716.601-5.517 0-1.126-.15-1.913-.638-2.44M118.405 21.305c-1.279 4.241-3.868 6.305-9.873 6.305-2.93 0-5.48-.413-6.906-.9-1.465-.488-1.838-1.125-1.838-2.141 0-.487.075-1.051.187-1.763L102.622.901c.038-.526.262-.825.788-.901l4.355.012h.187c.337 0 .563.152.563.527V.65l-.621 4.777-.273 2.197s2.262-.696 4.741-.696c2.476 0 4.277.489 5.441 1.616 1.125 1.087 1.653 2.813 1.653 5.403-.001 2.365-.377 5.069-1.051 7.358m-5.293-9.645c-.489-.639-1.278-.79-2.517-.79-1.503 0-3.452.487-3.452.487l-1.465 12.049s1.277.3 2.853.3c2.704 0 3.83-.751 4.542-4.728.3-1.616.526-3.342.526-4.993.001-1.088-.15-1.838-.487-2.325M137.249 10.983c-.075.263-.3.373-.562.373-.039 0-.076-.036-.151-.036-.376-.039-2.514-.527-4.504-.527-.938 0-2.064.113-2.777.677-.489.412-.713.975-.713 1.612v.04c.038 1.575 1.728 1.65 3.453 1.99 1.501.225 3.003.599 3.978 1.575.751.713 1.201 1.801 1.201 3.454 0 1.838-.563 3.715-1.877 5.103-1.652 1.728-4.28 2.365-7.206 2.365-3.229 0-6.157-.788-6.793-1.089-.113-.075-.34-.111-.34-.449 0-.113 0-.188.038-.338l.754-2.403c.111-.336.26-.45.486-.45.074 0 .114 0 .188.037.487.113 3.078.863 5.403.863 1.052 0 2.028-.187 2.666-.751.563-.45.788-1.088.788-1.727 0-.787-.263-1.2-.788-1.462-.526-.263-1.238-.377-2.101-.527-1.39-.262-3.303-.525-4.542-1.726-.713-.751-1.163-1.763-1.163-3.341 0-1.652.45-3.415 1.499-4.69 1.878-2.253 5.069-2.59 7.47-2.59 3.002 0 5.293.637 6.007.863.263.076.337.263.337.489v.187l-.751 2.478zM46.381.657C45.82.506 44.13.018 41.428.018c-4.393 0-6.682 1.99-7.169 5.969l-.3 2.552-.489 4.129-1.842 13.159h-.005l-.033.263-.105.745-.005.023.001.008-.001.007h.003c.009.288.261.412.556.412h4.44c.337 0 .684-.113.759-.549l.04-.3.005-.001 1.966-13.769h4.769c.338 0 .6-.226.637-.562l.375-3.003v-.075c0-.299-.185-.488-.526-.488h-4.765l.3-2.401c.223-1.578.9-2.028 2.665-2.028 1.012 0 2.176.189 2.626.263h.15c.3 0 .414-.15.49-.488l.712-2.552c.036-.075.036-.15.036-.189.001-.224-.073-.411-.337-.486z" class="st0"/></g></g></svg>