<svg xmlns="http://www.w3.org/2000/svg" xml:space="preserve" style="enable-background:new 0 0 792 224.7" viewBox="0 0 792 224.7"><defs><linearGradient id="a" x1="0%" x2="100%" y1="0%" y2="0%"><stop offset="0%" style="stop-color:#780cff"/><stop offset="35%" style="stop-color:#fc01d8"/><stop offset="70%" style="stop-color:#ff005f"/><stop offset="100%" style="stop-color:#fc0"/></linearGradient></defs><path fill="url(#a)" d="M40.8.8c-16.2 6.8-34 26-39.7 50C-6 81.3 23.6 94.2 26.1 90c2.9-5-5.3-6.6-7-22.5-2.2-20.4 7.3-43.3 19.3-53.3 2.2-1.9 2.1.7 2.1 5.5 0 8.6-.5 85.5-.5 101.5 0 21.7-.9 28.6-2.5 35.4-1.6 6.9-4.3 11.5-2.3 13.3 2.2 2 11.7-2.8 17.2-10.4 6.6-9.2 8.9-20.2 9.3-32.2.5-14.5.5-37.4.5-50.5 0-12 .2-47.1-.2-68.2C61.9 3.4 47.5-2.1 40.8.8m575.6 101.6c-.5 11.3-3 20.1-6.1 26.3-6 12.1-18.5 15.8-23.8-1.5-2.9-9.4-3-25.2-.9-38.4 2.1-13.4 8-23.6 17.8-22.7 9.5 1 14 13.4 13 36.3zm-162.2 70.1c-.1 18.8-3.1 35.2-9.4 40-9 6.8-21.1 1.7-18.6-12 2.2-12.1 12.7-24.5 28-39.6v11.6zm-2.5-70.2c-.5 10.3-3.2 20.6-6.1 26.5-6 12.1-18.6 15.8-23.8-1.5-3.6-11.9-2.7-27.2-.9-36.9 2.3-12.5 7.8-24.2 17.8-24.2 9.6 0 14.4 10.6 13 36.1zm-94-.1c-.6 10.9-2.7 20-6.1 26.6-6.2 12-18.4 15.8-23.8-1.5-3.9-12.5-2.6-29.5-.9-38.7 2.4-13.6 8.4-23.3 17.8-22.4 9.6.9 14.2 13.3 13 36zm430.7 12.7c-2.4 0-3.4 2.4-4.3 6.5-3.1 14.2-6.3 17.4-10.5 17.4-4.7 0-8.9-7-9.9-21.1-.8-11.1-.7-31.4.4-51.7.2-4.2-.9-8.3-12.1-12.3-4.8-1.7-11.8-4.3-15.3 4.1-9.8 23.7-13.7 42.5-14.6 50.2 0 .4-.5.5-.6-.4-.6-6.1-1.9-17.2-2-40.6 0-4.6-1-8.4-6-11.6-3.3-2.1-13.2-5.7-16.8-1.4-3.1 3.5-6.7 13.1-10.4 24.4-3 9.2-5.1 15.4-5.1 15.4s0-24.8.1-34.2c0-3.6-2.4-4.7-3.2-5-3.3-1-9.8-2.6-12.6-2.6-3.4 0-4.2 1.9-4.2 4.7 0 .4-.5 32.7-.5 55.3v3.2c-1.9 10.4-8 24.5-14.7 24.5-6.7 0-9.8-5.9-9.8-32.8 0-15.7.5-22.6.7-33.9.1-6.5.4-11.6.4-12.7 0-3.5-6.1-5.3-8.9-5.9-2.8-.7-5.3-.9-7.2-.8-2.7.2-4.6 1.9-4.6 4.4v3.8c-3.5-5.5-9.1-9.3-12.9-10.4-10.1-3-20.6-.3-28.5 10.8C569 71 565.2 81 563.7 95.4c-1.1 10.5-.7 21.1 1.2 30.2-2.4 10.2-6.7 14.3-11.5 14.3-6.9 0-12-11.3-11.4-30.9.4-12.9 3-21.9 5.8-35 1.2-5.6.2-8.5-2.2-11.3-2.2-2.6-7-3.9-13.9-2.3-4.9 1.1-11.9 2.4-18.3 3.3 0 0 .4-1.5.7-4.3 1.7-14.3-13.8-13.1-18.8-8.5-3 2.7-5 5.9-5.7 11.7-1.2 9.2 6.3 13.5 6.3 13.5-2.4 11.2-8.5 25.9-14.6 36.4-3.3 5.7-5.9 9.9-9.1 14.3v-5c-.1-23.6.2-42.1.4-48.8.1-6.5.4-11.4.4-12.6 0-2.6-1.5-3.5-4.6-4.7-2.7-1.1-6-1.8-9.4-2.1-4.3-.3-6.8 1.9-6.8 4.6v3.6c-3.5-5.5-9.1-9.3-12.9-10.4-10.1-3-20.6-.3-28.5 10.8-6.3 8.8-10.4 21.2-11.6 33.1-1.1 11.1-.9 20.5.6 28.4-1.6 7.9-6.2 16.2-11.4 16.2-6.7 0-10.5-5.9-10.5-32.8 0-15.7.5-22.6.7-33.9.1-6.5.4-11.6.4-12.7 0-3.5-6.1-5.3-8.9-5.9-2.9-.7-5.5-.9-7.4-.8-2.6.2-4.4 2.5-4.4 4.2v4c-3.5-5.5-9.1-9.3-12.9-10.4-10.1-3-20.6-.3-28.5 10.8-5.2 7.2-9.4 15.2-11.6 32.9-.6 5.1-.9 9.9-.9 14.4-2.1 12.7-11.3 27.4-18.8 27.4-4.4 0-8.6-8.5-8.6-26.7 0-24.2 1.5-58.7 1.8-62 0 0 9.5-.2 11.3-.2 4.7-.1 9 .1 15.3-.3 3.2-.2 6.2-11.5 2.9-12.9-1.5-.6-11.9-1.2-16.1-1.3-3.5-.1-13.2-.8-13.2-.8s.9-22.9 1.1-25.3c.2-2-2.4-3.1-3.9-3.7-3.6-1.5-6.9-2.3-10.7-3.1-5.3-1.1-7.7 0-8.2 4.5-.7 6.8-1.1 26.8-1.1 26.8-3.9 0-17.3-.8-21.2-.8-3.6 0-7.6 15.6-2.5 15.8 5.8.2 15.8.4 22.5.6 0 0-.3 35-.3 45.9v3.3c-3.7 19.1-16.6 29.5-16.6 29.5 2.8-12.7-2.9-22.2-13.1-30.2-3.8-3-11.2-8.6-19.5-14.7 0 0 4.8-4.7 9.1-14.3 3-6.8 3.2-14.5-4.3-16.2-12.3-2.8-22.4 6.2-25.4 15.8-2.3 7.5-1.1 13 3.5 18.7.3.4.7.8 1.1 1.3-2.8 5.3-6.6 12.5-9.8 18.1-9 15.5-15.7 27.7-20.8 27.7-4.1 0-4-12.4-4-24.1 0-10 .7-25.1 1.3-40.8.2-5.2-2.4-8.1-6.7-10.8-2.6-1.6-8.2-4.8-11.5-4.8-4.9 0-18.9.7-32.2 39.1-1.7 4.8-5 13.7-5 13.7l.3-46.2c0-1.1-.6-2.1-1.9-2.8-2.2-1.2-8.2-3.7-13.5-3.7-2.5 0-3.8 1.2-3.8 3.5l-.9 71.9c0 5.5.1 11.9.7 14.7.5 2.8 1.4 5.1 2.5 6.4 1.1 1.4 2.3 2.4 4.4 2.8 1.9.4 12.5 1.7 13-2.3.7-4.8.7-10 6.2-29.5 8.6-30.3 19.8-45.1 25.1-50.3.9-.9 2-1 1.9.5-.2 6.6-1 23.2-1.6 37.3-1.4 37.7 5.4 44.7 15.2 44.7 7.5 0 18.1-7.5 29.4-26.3 7.1-11.8 13.9-23.3 18.9-31.6 3.4 3.2 7.3 6.6 11.1 10.3 9 8.5 11.9 16.6 9.9 24.2-1.5 5.9-7.1 11.9-17.1 6-2.9-1.7-4.2-3-7.1-5-1.6-1-4-1.3-5.4-.3-3.7 2.8-5.9 6.4-7.1 10.9-1.2 4.3 3.1 6.6 7.6 8.6 3.9 1.7 12.2 3.3 17.5 3.5 20.6.7 37.2-10 48.7-37.5 2.1 23.7 10.8 37.2 26.1 37.2 10.2 0 20.4-13.2 24.9-26.1 1.3 5.3 3.2 9.9 5.6 13.8 11.7 18.6 34.5 14.6 46-1.2 3.5-4.9 4.1-6.6 4.1-6.6 1.7 14.9 13.7 20.1 20.6 20.1 7.7 0 15.7-3.6 21.2-16.2.7 1.4 1.4 2.7 2.1 3.9 11.7 18.6 34.5 14.6 46-1.2.5-.7 1-1.4 1.4-2l.3 9.8s-6.5 6-10.5 9.7c-17.6 16.2-31 28.5-32 42.8-1.3 18.2 13.5 25 24.7 25.9 11.9.9 22-5.6 28.3-14.8 5.5-8.1 9.1-25.5 8.8-42.7-.1-6.9-.3-15.6-.4-25 6.2-7.2 13.2-16.3 19.6-26.9 7-11.6 14.5-27.2 18.4-39.3 0 0 6.5.1 13.5-.4 2.2-.1 2.9.3 2.5 1.9-.5 2-8.8 34-1.2 55.3 5.2 14.6 16.9 19.3 23.8 19.3 8.1 0 15.9-6.1 20-15.2.5 1 1 2 1.6 2.9 11.7 18.6 34.4 14.6 46-1.2 2.6-3.6 4.1-6.6 4.1-6.6 2.5 15.4 14.5 20.2 21.4 20.2 7.2 0 14-2.9 19.5-16 .2 5.7.6 10.4 1.2 11.9.3.9 2.4 2 3.9 2.6 6.6 2.4 13.2 1.3 15.7.8 1.7-.3 3-1.7 3.2-5.3.5-9.3.2-25 3-36.6 4.7-19.5 9.2-27.1 11.3-30.9 1.2-2.1 2.5-2.4 2.5-.2.1 4.5.3 17.7 2.2 35.5 1.3 13.1 3.2 20.8 4.5 23.2 4 7 8.8 7.3 12.8 7.3 2.5 0 7.8-.7 7.3-5.1-.2-2.2.2-15.6 4.8-34.8 3.1-12.6 8.1-23.9 10-28.1.7-1.5 1-.3 1-.1-.4 8.7-1.3 37 2.3 52.4 4.8 21 18.6 23.3 23.4 23.3 10.3 0 18.7-7.8 21.5-28.4.7-4.9-.3-8.7-3.4-8.7"/></svg>