<svg xmlns="http://www.w3.org/2000/svg" xml:space="preserve" viewBox="0 0 1024 1024"><path fill="url(#a)" d="M512 0c139.052 0 156.488.588 211.096 3.08 54.496 2.488 91.716 11.144 124.284 23.8 33.668 13.08 62.22 30.592 90.684 59.056s45.972 57.016 59.056 90.688c12.66 32.564 21.31 69.784 23.8 124.28 2.49 54.608 3.08 72.044 3.08 211.096 0 139.052-.59 156.488-3.08 211.1-2.49 54.496-11.14 91.712-23.8 124.28-13.084 33.672-30.592 62.224-59.056 90.688-28.464 28.464-57.016 45.972-90.688 59.052-32.564 12.66-69.784 21.31-124.28 23.8-54.608 2.49-72.044 3.08-211.096 3.08-139.052 0-156.488-.59-211.1-3.08-54.496-2.49-91.712-11.14-124.28-23.8-33.672-13.084-62.224-30.588-90.688-59.052-28.464-28.464-45.972-57.02-59.052-90.688-12.66-32.564-21.312-69.784-23.8-124.284C.588 668.488 0 651.052 0 512c0-139.052.588-156.488 3.08-211.096 2.488-54.496 11.14-91.716 23.8-124.284 13.084-33.668 30.588-62.22 59.052-90.684s57.016-45.972 90.688-59.056c32.564-12.656 69.784-21.312 124.284-23.8C355.512.588 372.948 0 512 0Zm0 92.256c-136.712 0-152.904.52-206.892 2.98-49.92 2.28-77.032 10.62-95.072 17.632-23.896 9.288-40.952 20.38-58.872 38.3-17.916 17.916-29.012 34.972-38.296 58.868-7.012 18.044-15.352 45.156-17.632 95.076-2.464 53.988-2.984 70.18-2.984 206.888 0 136.712.52 152.904 2.984 206.892 2.276 49.92 10.62 77.032 17.632 95.072 9.284 23.896 20.38 40.952 38.296 58.872 17.916 17.916 34.976 29.012 58.872 38.296 18.044 7.012 45.152 15.352 95.072 17.632 53.98 2.464 70.172 2.984 206.892 2.984 136.716 0 152.908-.52 206.888-2.984 49.92-2.276 77.032-10.62 95.076-17.632 23.896-9.284 40.952-20.38 58.868-38.296 17.916-17.916 29.012-34.976 38.3-58.872 7.012-18.044 15.352-45.152 17.632-95.072 2.46-53.988 2.98-70.18 2.98-206.892 0-136.708-.52-152.9-2.98-206.892-2.28-49.916-10.62-77.028-17.632-95.072-9.288-23.896-20.38-40.952-38.3-58.868-17.916-17.916-34.972-29.012-58.868-38.3-18.044-7.012-45.156-15.352-95.076-17.632-53.988-2.46-70.18-2.98-206.888-2.98Zm0 156.824c145.204 0 262.92 117.716 262.92 262.92 0 145.208-117.716 262.92-262.92 262.92-145.208 0-262.92-117.712-262.92-262.92 0-145.2 117.712-262.92 262.92-262.92Zm0 433.588c94.256 0 170.668-76.412 170.668-170.668S606.256 341.332 512 341.332 341.332 417.744 341.332 512 417.744 682.668 512 682.668Zm334.744-443.976c0 33.936-27.504 61.44-61.44 61.44-33.932 0-61.44-27.504-61.44-61.44 0-33.932 27.508-61.44 61.44-61.44 33.936 0 61.44 27.508 61.44 61.44Z"/><path fill="url(#b)" d="M512 0c139.052 0 156.488.588 211.096 3.08 54.496 2.488 91.716 11.144 124.284 23.8 33.668 13.08 62.22 30.592 90.684 59.056s45.972 57.016 59.056 90.688c12.66 32.564 21.31 69.784 23.8 124.28 2.49 54.608 3.08 72.044 3.08 211.096 0 139.052-.59 156.488-3.08 211.1-2.49 54.496-11.14 91.712-23.8 124.28-13.084 33.672-30.592 62.224-59.056 90.688-28.464 28.464-57.016 45.972-90.688 59.052-32.564 12.66-69.784 21.31-124.28 23.8-54.608 2.49-72.044 3.08-211.096 3.08-139.052 0-156.488-.59-211.1-3.08-54.496-2.49-91.712-11.14-124.28-23.8-33.672-13.084-62.224-30.588-90.688-59.052-28.464-28.464-45.972-57.02-59.052-90.688-12.66-32.564-21.312-69.784-23.8-124.284C.588 668.488 0 651.052 0 512c0-139.052.588-156.488 3.08-211.096 2.488-54.496 11.14-91.716 23.8-124.284 13.084-33.668 30.588-62.22 59.052-90.684s57.016-45.972 90.688-59.056c32.564-12.656 69.784-21.312 124.284-23.8C355.512.588 372.948 0 512 0Zm0 92.256c-136.712 0-152.904.52-206.892 2.98-49.92 2.28-77.032 10.62-95.072 17.632-23.896 9.288-40.952 20.38-58.872 38.3-17.916 17.916-29.012 34.972-38.296 58.868-7.012 18.044-15.352 45.156-17.632 95.076-2.464 53.988-2.984 70.18-2.984 206.888 0 136.712.52 152.904 2.984 206.892 2.276 49.92 10.62 77.032 17.632 95.072 9.284 23.896 20.38 40.952 38.296 58.872 17.916 17.916 34.976 29.012 58.872 38.296 18.044 7.012 45.152 15.352 95.072 17.632 53.98 2.464 70.172 2.984 206.892 2.984 136.716 0 152.908-.52 206.888-2.984 49.92-2.276 77.032-10.62 95.076-17.632 23.896-9.284 40.952-20.38 58.868-38.296 17.916-17.916 29.012-34.976 38.3-58.872 7.012-18.044 15.352-45.152 17.632-95.072 2.46-53.988 2.98-70.18 2.98-206.892 0-136.708-.52-152.9-2.98-206.892-2.28-49.916-10.62-77.028-17.632-95.072-9.288-23.896-20.38-40.952-38.3-58.868-17.916-17.916-34.972-29.012-58.868-38.3-18.044-7.012-45.156-15.352-95.076-17.632-53.988-2.46-70.18-2.98-206.888-2.98Zm0 156.824c145.204 0 262.92 117.716 262.92 262.92 0 145.208-117.716 262.92-262.92 262.92-145.208 0-262.92-117.712-262.92-262.92 0-145.2 117.712-262.92 262.92-262.92Zm0 433.588c94.256 0 170.668-76.412 170.668-170.668S606.256 341.332 512 341.332 341.332 417.744 341.332 512 417.744 682.668 512 682.668Zm334.744-443.976c0 33.936-27.504 61.44-61.44 61.44-33.932 0-61.44-27.504-61.44-61.44 0-33.932 27.508-61.44 61.44-61.44 33.936 0 61.44 27.508 61.44 61.44Z"/><path fill="url(#c)" d="M512 0c139.052 0 156.488.588 211.096 3.08 54.496 2.488 91.716 11.144 124.284 23.8 33.668 13.08 62.22 30.592 90.684 59.056s45.972 57.016 59.056 90.688c12.66 32.564 21.31 69.784 23.8 124.28 2.49 54.608 3.08 72.044 3.08 211.096 0 139.052-.59 156.488-3.08 211.1-2.49 54.496-11.14 91.712-23.8 124.28-13.084 33.672-30.592 62.224-59.056 90.688-28.464 28.464-57.016 45.972-90.688 59.052-32.564 12.66-69.784 21.31-124.28 23.8-54.608 2.49-72.044 3.08-211.096 3.08-139.052 0-156.488-.59-211.1-3.08-54.496-2.49-91.712-11.14-124.28-23.8-33.672-13.084-62.224-30.588-90.688-59.052-28.464-28.464-45.972-57.02-59.052-90.688-12.66-32.564-21.312-69.784-23.8-124.284C.588 668.488 0 651.052 0 512c0-139.052.588-156.488 3.08-211.096 2.488-54.496 11.14-91.716 23.8-124.284 13.084-33.668 30.588-62.22 59.052-90.684s57.016-45.972 90.688-59.056c32.564-12.656 69.784-21.312 124.284-23.8C355.512.588 372.948 0 512 0Zm0 92.256c-136.712 0-152.904.52-206.892 2.98-49.92 2.28-77.032 10.62-95.072 17.632-23.896 9.288-40.952 20.38-58.872 38.3-17.916 17.916-29.012 34.972-38.296 58.868-7.012 18.044-15.352 45.156-17.632 95.076-2.464 53.988-2.984 70.18-2.984 206.888 0 136.712.52 152.904 2.984 206.892 2.276 49.92 10.62 77.032 17.632 95.072 9.284 23.896 20.38 40.952 38.296 58.872 17.916 17.916 34.976 29.012 58.872 38.296 18.044 7.012 45.152 15.352 95.072 17.632 53.98 2.464 70.172 2.984 206.892 2.984 136.716 0 152.908-.52 206.888-2.984 49.92-2.276 77.032-10.62 95.076-17.632 23.896-9.284 40.952-20.38 58.868-38.296 17.916-17.916 29.012-34.976 38.3-58.872 7.012-18.044 15.352-45.152 17.632-95.072 2.46-53.988 2.98-70.18 2.98-206.892 0-136.708-.52-152.9-2.98-206.892-2.28-49.916-10.62-77.028-17.632-95.072-9.288-23.896-20.38-40.952-38.3-58.868-17.916-17.916-34.972-29.012-58.868-38.3-18.044-7.012-45.156-15.352-95.076-17.632-53.988-2.46-70.18-2.98-206.888-2.98Zm0 156.824c145.204 0 262.92 117.716 262.92 262.92 0 145.208-117.716 262.92-262.92 262.92-145.208 0-262.92-117.712-262.92-262.92 0-145.2 117.712-262.92 262.92-262.92Zm0 433.588c94.256 0 170.668-76.412 170.668-170.668S606.256 341.332 512 341.332 341.332 417.744 341.332 512 417.744 682.668 512 682.668Zm334.744-443.976c0 33.936-27.504 61.44-61.44 61.44-33.932 0-61.44-27.504-61.44-61.44 0-33.932 27.508-61.44 61.44-61.44 33.936 0 61.44 27.508 61.44 61.44Z"/><defs><radialGradient id="a" cx="0" cy="0" r="1" gradientTransform="matrix(871.396 269.57 -152.264 492.2 322.577 976.97)" gradientUnits="userSpaceOnUse"><stop offset="0" stop-color="#ffd501"/><stop offset=".32" stop-color="#ffbd07"/><stop offset=".59" stop-color="#ff671d"/><stop offset="1" stop-color="#ff00b9"/></radialGradient><radialGradient id="b" cx="0" cy="0" r="1" gradientTransform="matrix(94.7015 306.205 -937.345 289.897 119.251 57.4757)" gradientUnits="userSpaceOnUse"><stop offset="0" stop-color="#6d19ff"/><stop offset=".43" stop-color="#9712eb"/><stop offset=".96" stop-color="#fa01bb"/><stop offset="1" stop-color="#ff00b9" stop-opacity="0"/></radialGradient><radialGradient id="c" cx="0" cy="0" r="1" gradientTransform="matrix(112.098 -864.179 131.728 17.0873 1003.58 829.183)" gradientUnits="userSpaceOnUse"><stop offset="0" stop-color="#fe158a"/><stop offset=".46" stop-color="#ff023e"/><stop offset="1" stop-color="#ff0037" stop-opacity="0"/></radialGradient></defs></svg>