<svg xmlns="http://www.w3.org/2000/svg" fill="none" viewBox="0 0 216 256"><g fill="#fff" clip-path="url(#prefix__a)"><path d="M74.46 229.59a101.18 101.18 0 01-52.44-46.76C-4.37 133.33 14.38 71.8 63.89 45.41c48.22-25.7 107.83-8.58 135.28 38.06-13 30.14-33.75 61.99-61.15 91.63-20.22 21.86-41.91 40.21-63.56 54.49z"/><path d="M4.7 253.6c-11.31-8.5-.4-36.72 13.71-55.87l4.37 6.17c-5.24 12.38-14.4 37.57 23.17 8.53 37.56-29.05 100.5-109.99 127.52-158.8 21.62-39.06-1.76-29.79-15.78-20.8l-6.15-3.31C165.79 15.7 190.6-.92 202.49 4.3c25.77 11.34 6.58 85.08-51.37 156.58C93.17 232.4 20.65 265.6 4.7 253.6zm207.97-129.58a101.61 101.61 0 01-53.24 100.69 101.2 101.2 0 01-40.11 11.67c13.14-24.49 30.85-49.62 52.6-73.5a391 391 0 0140.75-38.86z"/></g><defs><clipPath id="prefix__a"><path fill="#fff" d="M0 0h215.37v256H0z"/></clipPath></defs></svg>