<svg width="124" height="48" viewBox="0 0 124 48" fill="none" xmlns="http://www.w3.org/2000/svg">
<g clip-path="url(#clip0_1060_880)">
<path d="M8.97579 0.669434H0V9.62561H8.97579V0.669434Z" fill="#04C7FD"/>
<path d="M8.75251 47.3307V15.0757H0.255859V47.3307H8.75251ZM65.2265 47.6494V39.745C63.9807 39.745 62.9266 39.6813 62.16 39.5538C61.2656 39.4263 60.5949 39.1076 60.1477 38.6614C59.7005 38.2151 59.413 37.5777 59.2533 36.749C59.1255 35.9522 59.0616 34.9004 59.0616 33.6255V22.3426H65.2265V15.0757H59.0616V2.48606H50.533V33.6892C50.533 36.3347 50.7566 38.5657 51.2038 40.3506C51.651 42.1036 52.4176 43.5378 53.4717 44.6215C54.5258 45.7052 55.9313 46.4701 57.6242 46.9482C59.3491 47.4263 61.5212 47.6494 64.1085 47.6494H65.2265ZM114.034 47.3307V0H105.506V47.3307H114.034ZM42.3239 18.2311C39.9601 15.6813 36.6381 14.4064 32.4218 14.4064C30.3774 14.4064 28.5248 14.8207 26.8318 15.6494C25.1708 16.4781 23.7334 17.6255 22.6155 19.0916L22.1363 19.6972V19.1554V15.0757H13.7355V47.3307H22.2002V30.1514V31.3307C22.2002 31.1394 22.2002 30.9482 22.2002 30.757C22.296 27.7291 23.0307 25.498 24.4362 24.0637C25.9375 22.5339 27.7582 21.7689 29.8344 21.7689C32.294 21.7689 34.1786 22.5339 35.4243 24C36.6381 25.4661 37.277 27.5378 37.277 30.1833V30.247V47.2988H45.8695V29.004C45.9014 24.4143 44.6876 20.7809 42.3239 18.2311ZM101.098 31.1394C101.098 28.8127 100.682 26.6454 99.8839 24.6056C99.0534 22.5976 97.9035 20.8127 96.4661 19.2829C94.9967 17.753 93.2399 16.5737 91.1956 15.7131C89.1513 14.8526 86.8834 14.4382 84.4238 14.4382C82.092 14.4382 79.888 14.8845 77.8437 15.745C75.7994 16.6374 74.0106 17.8167 72.5093 19.3147C71.008 20.8127 69.7942 22.5976 68.9318 24.6374C68.0374 26.6773 67.6222 28.8765 67.6222 31.2032C67.6222 33.5299 68.0374 35.7291 68.8679 37.7689C69.6984 39.8088 70.8803 41.5936 72.3496 43.0916C73.819 44.5896 75.6397 45.8008 77.7479 46.6613C79.8561 47.5538 82.1879 48 84.6794 48C91.8983 48 96.3702 44.7171 99.0534 41.6574L92.9205 37.004C91.6428 38.5339 88.5763 40.6056 84.7432 40.6056C82.3476 40.6056 80.3671 40.0637 78.8658 38.9482C77.3646 37.8645 76.3424 36.3347 75.7994 34.4542L75.7036 34.1673H101.098V31.1394ZM75.7674 28.1753C75.7674 25.8167 78.4825 21.7052 84.328 21.6733C90.1734 21.6733 92.9205 25.7849 92.9205 28.1434L75.7674 28.1753Z" fill="#0068B5"/>
<path d="M123.745 43.1233C123.586 42.7408 123.362 42.4221 123.075 42.1352C122.787 41.8484 122.468 41.6253 122.084 41.4659C121.701 41.3066 121.286 41.2109 120.871 41.2109C120.423 41.2109 120.04 41.3066 119.657 41.4659C119.273 41.6253 118.954 41.8484 118.667 42.1352C118.379 42.4221 118.155 42.7408 117.996 43.1233C117.836 43.5058 117.74 43.9201 117.74 44.3344C117.74 44.7807 117.836 45.1631 117.996 45.5456C118.155 45.9281 118.379 46.2468 118.667 46.5336C118.954 46.8205 119.273 47.0436 119.657 47.203C120.04 47.3623 120.455 47.4579 120.871 47.4579C121.318 47.4579 121.701 47.3623 122.084 47.203C122.468 47.0436 122.787 46.8205 123.075 46.5336C123.362 46.2468 123.586 45.9281 123.745 45.5456C123.905 45.1631 124.001 44.7488 124.001 44.3344C124.001 43.9201 123.905 43.5058 123.745 43.1233ZM123.234 45.3544C123.107 45.6731 122.915 45.9599 122.691 46.183C122.468 46.4062 122.18 46.5974 121.861 46.7249C121.541 46.8524 121.222 46.9161 120.839 46.9161C120.487 46.9161 120.136 46.8524 119.816 46.7249C119.497 46.5974 119.21 46.4062 118.986 46.183C118.762 45.9599 118.571 45.6731 118.443 45.3544C118.315 45.0356 118.251 44.7169 118.251 44.3344C118.251 43.9838 118.315 43.6332 118.443 43.3145C118.571 42.9958 118.762 42.7089 118.986 42.4858C119.21 42.2627 119.497 42.0715 119.816 41.944C120.136 41.8165 120.455 41.7528 120.839 41.7528C121.19 41.7528 121.541 41.8165 121.861 41.944C122.18 42.0715 122.468 42.2627 122.691 42.4858C122.915 42.7089 123.107 42.9958 123.234 43.3145C123.362 43.6332 123.426 43.952 123.426 44.3344C123.458 44.7169 123.362 45.0356 123.234 45.3544ZM121.446 44.5894C121.701 44.5575 121.893 44.4619 122.052 44.3026C122.212 44.1432 122.308 43.9201 122.308 43.6014C122.308 43.2508 122.212 42.9958 121.989 42.8046C121.797 42.6133 121.446 42.5177 121.03 42.5177H119.625V46.1193H120.296V44.6532H120.775L121.669 46.1193H122.372L121.446 44.5894ZM121.094 44.0795C120.998 44.0795 120.903 44.0795 120.775 44.0795H120.296V43.0595H120.775C120.871 43.0595 120.966 43.0595 121.094 43.0595C121.19 43.0595 121.286 43.0914 121.382 43.1233C121.477 43.1552 121.541 43.2189 121.573 43.2827C121.605 43.3464 121.637 43.442 121.637 43.5695C121.637 43.697 121.605 43.7926 121.573 43.8564C121.509 43.9201 121.446 43.9838 121.382 44.0157C121.286 44.0476 121.19 44.0795 121.094 44.0795Z" fill="#0068B5"/>
</g>
<defs>
<clipPath id="clip0_1060_880">
<rect width="124" height="48" fill="white"/>
</clipPath>
</defs>
</svg>
