<?xml version="1.0" encoding="utf-8"?>
<!-- Generator: Adobe Illustrator 26.0.3, SVG Export Plug-In . SVG Version: 6.00 Build 0)  -->
<svg version="1.0" id="katman_1" xmlns="http://www.w3.org/2000/svg" xmlns:xlink="http://www.w3.org/1999/xlink" x="0px" y="0px"
	 viewBox="0 0 800 600" style="enable-background:new 0 0 800 600;" xml:space="preserve">
<style type="text/css">
	.st0{fill:#E3E3E3;}
	.st1{fill:url(#SVGID_1_);}
	.st2{fill:url(#SVGID_00000081617719026605376880000009475386215333738917_);}
	.st3{fill-rule:evenodd;clip-rule:evenodd;fill:#29ABE2;}
</style>
<path class="st0" d="M399.8,555.1c141.1,0,255.5-114.4,255.5-255.5c0-141.1-114.4-255.5-255.5-255.5
	c-141.1,0-255.5,114.4-255.5,255.5C144.3,440.7,258.7,555.1,399.8,555.1z"/>
<linearGradient id="SVGID_1_" gradientUnits="userSpaceOnUse" x1="464.5217" y1="377.5703" x2="582.9615" y2="257.8889" gradientTransform="matrix(1 0 0 -1 -20.9449 604.3622)">
	<stop  offset="0.21" style="stop-color:#F15A24"/>
	<stop  offset="0.6841" style="stop-color:#FBB03B"/>
</linearGradient>
<path class="st1" d="M488.6,213.2c-19.3,0-40.3,10.5-62.6,31.1c-10.5,9.7-19.7,20.3-26.5,28.6c0,0,10.8,12.4,22.6,25.7
	c6.5-8.1,15.6-19,26.3-28.9c19.7-18.4,32.6-22.2,40.1-22.2c27.7,0,50.3,23.3,50.3,52c0,28.4-22.5,51.7-50.3,52
	c-1.3,0-2.9-0.2-4.8-0.6c8.1,3.7,16.9,6.4,25,6.4c50.8,0,60.9-35.1,61.4-37.6c1.4-6.4,2.3-13.2,2.3-20.1
	C572.4,252,534.8,213.2,488.6,213.2z"/>
<linearGradient id="SVGID_00000008864193439849857800000008244750877615829427_" gradientUnits="userSpaceOnUse" x1="376.9096" y1="231.9637" x2="258.4695" y2="351.6451" gradientTransform="matrix(1 0 0 -1 -20.9449 604.3622)">
	<stop  offset="0.21" style="stop-color:#ED1E79"/>
	<stop  offset="0.8929" style="stop-color:#522785"/>
</linearGradient>
<path style="fill:url(#SVGID_00000008864193439849857800000008244750877615829427_);" d="M311,386c19.3,0,40.3-10.5,62.6-31.1
	c10.5-9.7,19.7-20.3,26.5-28.6c0,0-10.8-12.4-22.6-25.7c-6.5,8.1-15.6,19-26.3,28.9c-19.7,18.3-32.7,22.2-40.1,22.2
	c-27.7,0-50.3-23.3-50.3-52c0-28.4,22.5-51.7,50.3-52c1.3,0,2.9,0.2,4.8,0.6c-8.1-3.7-16.9-6.4-25-6.4c-50.8-0.1-60.9,35-61.4,37.6
	c-1.4,6.4-2.3,13.2-2.3,20.1C227.1,347.1,264.6,386,311,386z"/>
<path class="st3" d="M349.7,270.6c-5.6-5.4-32.7-27.4-58.7-28.2c-46.4-1.2-60,32.5-61.2,36.8c9-37.7,42.1-65.8,81.4-66
	c32.1,0,64.5,31.4,88.5,59.8l0.1-0.1c0,0,10.8,12.4,22.6,25.7c0,0,13.5,15.9,27.7,29.8c5.6,5.4,32.6,27.1,58.6,27.9
	c47.7,1.3,60.9-34.2,61.5-36.9c-8.8,38-42,66.2-81.5,66.4c-32.1,0-64.5-31.4-88.6-59.8c0,0.1-0.1,0.1-0.1,0.2
	c0,0-10.8-12.4-22.6-25.7C377.5,300.5,364,284.5,349.7,270.6z M229.7,279.6c0-0.1,0-0.2,0.1-0.3
	C229.7,279.4,229.7,279.5,229.7,279.6z"/>
</svg>
