<svg width="1452" height="1811" viewBox="0 0 1452 1811" fill="none" xmlns="http://www.w3.org/2000/svg">
<path d="M0.674316 0.604492C292.385 195.871 484.449 528.4 484.449 905.793C484.449 1283.14 292.324 1615.47 0.674316 1810.75V1496.81C149.708 1344.34 241.617 1135.84 241.617 905.793C241.617 675.683 149.778 467.016 0.674316 314.539V0.604492Z" fill="#0A0A0A"/>
<path d="M484.449 0.604492C776.16 195.871 968.224 528.4 968.224 905.793C968.224 1283.14 776.099 1615.47 484.449 1810.75V1496.81C633.483 1344.34 725.392 1135.84 725.392 905.793C725.392 675.683 633.553 467.016 484.449 314.539V0.604492Z" fill="#0A0A0A"/>
<path d="M968.224 0.604492C1259.94 195.871 1452 528.4 1452 905.793C1452 1283.14 1259.87 1615.47 968.224 1810.75V1496.81C1117.26 1344.34 1209.17 1135.84 1209.17 905.793C1209.17 675.683 1117.33 467.016 968.224 314.539V0.604492Z" fill="#0A0A0A"/>
</svg>
