<svg xmlns="http://www.w3.org/2000/svg" width="414" height="72" fill="none" viewBox="0 0 414 72"><path fill="#fff" d="M0 34.5h3v3H0zM10.5 21h6v6h-6zm0 24h6v6h-6zm10-38h10v10h-10zm2 26h6v6h-6zm-2 22h10v10h-10zm12-36h10v10h-10zm0 24h10v10h-10zm11-37h12v12h-12zm1 25h10v10h-10zm-1 23h12v12h-12zm12-36h12v12h-12zm0 24h12v12h-12zm12-12h12v12h-12zm344.771 13.568h-29.498v1.634h2.752c.258 9.89 5.59 16.77 12.986 16.77 5.934 0 10.148-2.322 12.814-7.138l.172.086c-1.462 7.482-7.31 12.384-14.534 12.384-11.868 0-19.78-8.256-19.78-20.554 0-11.782 8.514-21.586 18.748-21.586 9.976 0 16.684 7.568 16.34 18.404m-16.942-14.964c-5.332 0-8.858 4.3-9.632 11.954h18.146c0-6.966-3.526-11.954-8.514-11.954M349.87 35.14c0-2.322-.602-3.01-3.956-4.644l-3.096-1.462 14.964-3.87v6.364c-.43.774-1.806 3.526-2.15 4.386v3.612c3.096-8.6 8.944-14.62 14.706-14.62 4.386 0 6.708 2.924 6.88 5.848.172 3.44-2.15 5.418-4.644 5.59-2.408.086-4.902-1.806-4.902-4.644 0-.688.43-1.634.774-1.806h1.204v-1.462c-5.332-.258-10.234 5.848-11.868 10.922v18.92c0 3.44 1.548 5.504 4.73 5.762l2.064.172v2.236h-21.5v-2.236l1.806-.172c3.44-.344 4.988-2.322 4.988-5.762zm-9.903 8.428h-29.498v1.634h2.752c.258 9.89 5.59 16.77 12.986 16.77 5.934 0 10.148-2.322 12.814-7.138l.172.086c-1.462 7.482-7.31 12.384-14.534 12.384-11.868 0-19.78-8.256-19.78-20.554 0-11.782 8.514-21.586 18.748-21.586 9.976 0 16.684 7.568 16.34 18.404m-16.942-14.964c-5.332 0-8.858 4.3-9.632 11.954h18.146c0-6.966-3.526-11.954-8.514-11.954"/><path fill="#fff" d="M285.611 58.274v-28.81h-6.708v-3.44h6.708v-2.58c0-11.18 6.794-18.748 16.77-18.748 6.106 0 10.922 3.182 10.922 7.31 0 2.408-1.634 4.386-4.128 4.386-3.096 0-4.902-2.58-4.3-6.02h1.72c0-1.806-1.72-2.838-4.816-2.838-5.246 0-8.256 3.526-8.256 9.804v8.686h11.008v3.44h-13.932v1.634h2.924v27.176c0 3.612 1.548 5.504 4.558 5.762l1.978.172v2.236h-21.242v-2.236l1.806-.172c3.354-.344 4.988-2.236 4.988-5.762M251.115 35.14c0-2.322-.602-3.01-3.956-4.644l-3.096-1.462 14.964-3.87v6.364c-.43.774-1.806 3.526-2.15 4.386v3.612c3.096-8.6 8.944-14.62 14.706-14.62 4.386 0 6.708 2.924 6.88 5.848.172 3.44-2.15 5.418-4.644 5.59-2.408.086-4.902-1.806-4.902-4.644 0-.688.43-1.634.774-1.806h1.204v-1.462c-5.332-.258-10.234 5.848-11.868 10.922v18.92c0 3.44 1.548 5.504 4.73 5.762l2.064.172v2.236h-21.5v-2.236l1.806-.172c3.44-.344 4.988-2.322 4.988-5.762zm-9.903 8.428h-29.498v1.634h2.752c.258 9.89 5.59 16.77 12.986 16.77 5.934 0 10.148-2.322 12.814-7.138l.172.086c-1.462 7.482-7.31 12.384-14.534 12.384-11.868 0-19.78-8.256-19.78-20.554 0-11.782 8.514-21.586 18.748-21.586 9.976 0 16.684 7.568 16.34 18.404M224.27 28.604c-5.332 0-8.858 4.3-9.632 11.954h18.146c0-6.966-3.526-11.954-8.514-11.954m-31.207 2.494v26.144c0 2.666 1.806 4.3 4.472 4.3 3.182 0 5.418-1.806 7.052-5.59l.258.086c-1.548 7.31-5.332 11.094-11.18 11.094-4.816 0-8.514-3.354-8.514-8.514V29.464h-7.138c5.418-3.526 11.782-11.008 15.05-17.802v14.362h11.352v3.44h-14.276v1.634zm-53.637 4.042c0-2.322-.602-3.01-3.956-4.644l-3.096-1.462 14.964-3.87v5.074l-2.666 3.612v2.666l1.72-2.322c4.128-5.848 9.288-9.116 14.448-9.116 7.482 0 11.868 4.73 11.868 12.814v20.382c0 3.526 1.634 5.418 4.988 5.762l1.806.172v2.236H158.69v-2.236l1.548-.172c3.096-.344 4.558-2.236 4.558-5.762v-19.78c0-5.074-2.838-7.998-7.74-7.998-3.526 0-7.138 2.064-9.718 5.504v22.274c0 3.526 1.462 5.418 4.558 5.762l1.548.172v2.236h-20.812v-2.236l1.806-.172c3.354-.344 4.988-2.236 4.988-5.762zM122.7 57.414c0 3.956 2.064 6.02 6.106 6.364l1.978.172v2.494H105.5V63.95l1.978-.172c4.042-.344 6.106-2.408 6.106-6.364v-42.14c0-3.956-2.064-6.02-6.106-6.364l-1.978-.172V6.244h25.284v2.494l-1.978.172c-4.042.344-6.106 2.408-6.106 6.364z"/></svg>