<svg width="441" height="113" viewBox="0 0 441 113" fill="none" xmlns="http://www.w3.org/2000/svg">
<path d="M121.443 7.40522H134.492V105.483H121.443V7.40522Z" fill="#EDEDED"/>
<path d="M149.024 34.466H160.013V45.7298H160.288C165.141 37.1217 172.834 32.8176 183.365 32.8176C188.035 32.8176 191.927 33.4586 195.041 34.7407C198.155 36.0227 200.673 37.8085 202.596 40.0979C204.519 42.3873 205.847 45.1346 206.58 48.3397C207.404 51.4533 207.816 54.9332 207.816 58.7794V105.483H196.14V57.4058C196.14 53.0101 194.858 49.5302 192.294 46.9661C189.73 44.402 186.204 43.1199 181.717 43.1199C178.145 43.1199 175.032 43.6693 172.376 44.7683C169.812 45.8672 167.66 47.424 165.92 49.4386C164.18 51.4533 162.852 53.8343 161.936 56.5816C161.112 59.2373 160.7 62.1677 160.7 65.3729V105.483H149.024V34.466Z" fill="#EDEDED"/>
<path d="M236.067 34.466H250.215V44.7683H236.067V88.8621C236.067 90.2358 236.158 91.3347 236.341 92.1589C236.616 92.9831 237.074 93.6241 237.715 94.082C238.356 94.5399 239.226 94.8604 240.325 95.0435C241.515 95.1351 243.026 95.1809 244.858 95.1809H250.215V105.483H241.287C238.264 105.483 235.655 105.3 233.457 104.934C231.351 104.476 229.611 103.697 228.237 102.599C226.955 101.5 225.993 99.9428 225.352 97.9282C224.711 95.9135 224.391 93.2578 224.391 89.9611V44.7683H212.303V34.466H224.391V13.1745H236.067V34.466Z" fill="#EDEDED"/>
<path d="M307.006 63.175C306.822 60.4278 306.181 57.8179 305.082 55.3453C304.075 52.8727 302.656 50.7665 300.824 49.0266C299.084 47.195 296.978 45.7756 294.505 44.7683C292.124 43.6693 289.469 43.1199 286.538 43.1199C283.516 43.1199 280.769 43.6693 278.296 44.7683C275.915 45.7756 273.855 47.195 272.115 49.0266C270.375 50.8581 269.002 53.0101 267.994 55.4827C266.987 57.8636 266.392 60.4278 266.208 63.175H307.006ZM318.269 82.9555C316.713 90.9226 313.279 96.9208 307.967 100.95C302.656 104.98 295.971 106.994 287.912 106.994C282.234 106.994 277.289 106.078 273.077 104.247C268.956 102.415 265.476 99.8513 262.637 96.5545C259.798 93.2578 257.646 89.32 256.181 84.7412C254.807 80.1624 254.029 75.1715 253.846 69.7685C253.846 64.3655 254.67 59.4204 256.318 54.9332C257.967 50.446 260.256 46.554 263.186 43.2573C266.208 39.9605 269.734 37.3964 273.763 35.5649C277.884 33.7333 282.372 32.8176 287.225 32.8176C293.544 32.8176 298.764 34.1454 302.885 36.8011C307.097 39.3653 310.44 42.662 312.912 46.6914C315.476 50.7207 317.216 55.1164 318.132 59.8783C319.139 64.6403 319.552 69.1733 319.368 73.4774H266.208C266.117 76.5909 266.483 79.5672 267.307 82.406C268.132 85.1533 269.459 87.6259 271.291 89.8237C273.122 91.9299 275.458 93.6241 278.296 94.9062C281.135 96.1882 284.478 96.8293 288.324 96.8293C293.269 96.8293 297.299 95.6846 300.412 93.3952C303.617 91.1058 305.724 87.6259 306.731 82.9555H318.269Z" fill="#EDEDED"/>
<path d="M326.664 7.40522H338.34V105.483H326.664V7.40522Z" fill="#EDEDED"/>
<path d="M351.62 7.40522H363.296V105.483H351.62V7.40522Z" fill="#EDEDED"/>
<path d="M384.406 70.0433C384.406 74.3473 384.955 78.1935 386.054 81.5818C387.245 84.8786 388.847 87.6717 390.862 89.9611C392.877 92.1589 395.212 93.853 397.868 95.0435C400.615 96.234 403.5 96.8293 406.522 96.8293C409.544 96.8293 412.382 96.234 415.038 95.0435C417.785 93.853 420.166 92.1589 422.181 89.9611C424.196 87.6717 425.753 84.8786 426.851 81.5818C428.042 78.1935 428.637 74.3473 428.637 70.0433C428.637 65.7392 428.042 61.9388 426.851 58.642C425.753 55.2537 424.196 52.4149 422.181 50.1255C420.166 47.8361 417.785 46.0961 415.038 44.9056C412.382 43.7151 409.544 43.1199 406.522 43.1199C403.5 43.1199 400.615 43.7151 397.868 44.9056C395.212 46.0961 392.877 47.8361 390.862 50.1255C388.847 52.4149 387.245 55.2537 386.054 58.642C384.955 61.9388 384.406 65.7392 384.406 70.0433ZM372.043 70.0433C372.043 64.8234 372.776 59.9699 374.241 55.4827C375.706 50.9039 377.904 46.9661 380.834 43.6693C383.765 40.281 387.382 37.6253 391.686 35.7022C395.99 33.7791 400.935 32.8176 406.522 32.8176C412.199 32.8176 417.144 33.7791 421.357 35.7022C425.661 37.6253 429.278 40.281 432.209 43.6693C435.139 46.9661 437.337 50.9039 438.802 55.4827C440.267 59.9699 441 64.8234 441 70.0433C441 75.2631 440.267 80.1166 438.802 84.6039C437.337 89.0911 435.139 93.0289 432.209 96.4172C429.278 99.7139 425.661 102.324 421.357 104.247C417.144 106.078 412.199 106.994 406.522 106.994C400.935 106.994 395.99 106.078 391.686 104.247C387.382 102.324 383.765 99.7139 380.834 96.4172C377.904 93.0289 375.706 89.0911 374.241 84.6039C372.776 80.1166 372.043 75.2631 372.043 70.0433Z" fill="#EDEDED"/>
<path d="M0.0310059 0.0463867C18.206 12.2124 30.1725 32.9306 30.1725 56.444C30.1725 79.9545 18.2022 100.66 0.0310059 112.827V93.2673C9.31654 83.7678 15.0429 70.7772 15.0429 56.444C15.0429 42.107 9.32088 29.1061 0.0310059 19.606V0.0463867Z" fill="#EDEDED"/>
<path d="M30.1725 0.0463867C48.3475 12.2124 60.314 32.9306 60.314 56.444C60.314 79.9545 48.3437 100.66 30.1725 112.827V93.2673C39.4581 83.7678 45.1844 70.7772 45.1844 56.444C45.1844 42.107 39.4624 29.1061 30.1725 19.606V0.0463867Z" fill="#EDEDED"/>
<path d="M60.314 0.0463867C78.489 12.2124 90.4556 32.9306 90.4556 56.444C90.4556 79.9545 78.4852 100.66 60.314 112.827V93.2673C69.5996 83.7678 75.3259 70.7772 75.3259 56.444C75.3259 42.107 69.6039 29.1061 60.314 19.606V0.0463867Z" fill="#EDEDED"/>
</svg>
