<svg xmlns="http://www.w3.org/2000/svg" preserveAspectRatio="xMidYMid" viewBox="0 0 256 283">
  <path d="M240 139a26 26 0 0 0-29-26L247 6H93l36 107a26 26 0 0 0-28 26c0 12 8 22 19 25a115 115 0 0 1-58 49c-16-8-23-27-17-43l3-5a26 26 0 1 0-21-4c-7 14-16 30-19 48-4 21 0 44 18 57 44 30 91-18 140-31 18-4 38-3 54-13 12-6 20-18 22-31 2-12-1-25-9-35 4-5 7-11 7-17" fill="#99425B"/>
  <path d="M236 190c-2 11-9 21-19 27-10 5-21 7-33 9l-19 3c-17 4-34 12-50 20-32 16-59 30-85 12-19-13-18-38-16-51 2-12 8-24 13-35l3-5 8 2c-5 18 3 37 21 47l3 1 2-1c15-5 28-13 39-24 8-7 14-15 20-24a33 33 0 0 0 37-28h21a33 33 0 0 0 51 23c4 7 5 16 4 24ZM42 119a20 20 0 1 1 0 40 20 20 0 0 1 0-40Zm66 20a20 20 0 1 1 40 0 20 20 0 0 1-40 0Zm83-24c-5 4-8 10-9 15h-23c-1-6-5-11-10-15l21-42 21 42ZM102 13h136l-32 94-4 1-32-64-32 64-4-1-32-94Zm131 126a20 20 0 0 1-20 20 20 20 0 1 1 20-20Zm13 0c0-16-12-29-27-32L256 0H84l37 107a33 33 0 0 0-11 60 110 110 0 0 1-47 39c-12-8-17-21-12-33l1-1 1-2a33 33 0 1 0-34-8l-4 8c-5 11-11 24-14 38-4 28 3 51 22 63 11 8 22 11 34 11 21 0 43-11 64-21 15-8 31-16 47-19l18-4c13-1 26-3 37-10a51 51 0 0 0 18-72c3-5 5-11 5-17Z" fill="#FFF"/>
</svg>
