<svg width="100" height="100" viewBox="0 0 100 100" fill="none" xmlns="http://www.w3.org/2000/svg">
<path d="M32.2078 59.9828C32.0282 59.6706 31.904 59.3296 31.8406 58.975C31.9109 59.3281 32.0359 59.668 32.2078 59.9828ZM32.6593 60.5398C32.8328 60.7117 33.0281 60.8609 33.2445 60.968C33.0283 60.8575 32.8312 60.7129 32.6609 60.5398H32.6593Z" fill="#083042"/>
<path d="M50.2672 79.6617H50.1578C49.0622 79.6663 47.9833 79.3932 47.0219 78.868L25.0047 66.5633C23.7054 65.8352 22.9062 64.4852 22.9062 63.0266V37.9906C22.9062 36.918 23.1008 35.8891 23.5547 34.9891L6.33904 25.4078C5.62576 26.9078 5.25858 28.6016 5.27967 30.3812V71.7305C5.29266 72.9263 5.62167 74.0975 6.23332 75.1251C6.84498 76.1528 7.71753 77.0004 8.76248 77.582L45.0758 97.9039C46.6773 98.8039 48.4719 99.2328 50.2453 99.2328V99.2117C50.2883 96.618 50.2672 86.2203 50.2672 79.6617Z" fill="#083042"/>
<path d="M67.5468 39.5313L67.4164 39.3391C67.3086 39.1891 67.2015 39.0602 67.0937 38.9109C67.2015 39.0391 67.3086 39.1898 67.4164 39.3391C67.4693 39.3965 67.5132 39.4608 67.5468 39.5313ZM49.4234 29.5C49.5328 29.5 49.6195 29.4789 49.7281 29.4789C49.6195 29.5 49.5109 29.5 49.4234 29.5Z" fill="#3DDB85"/>
<path d="M23.5328 34.9664C24.0154 33.9661 24.7833 33.131 25.7398 32.5664L46.4586 20.4547C47.4077 19.8973 48.4862 19.5982 49.5868 19.5869C50.6874 19.5757 51.7717 19.8528 52.732 20.3906L73.668 32.1164C74.6075 32.6409 75.4142 33.3741 76.0258 34.2594L92.9609 24.25C91.9539 22.7997 90.6301 21.5975 89.0898 20.7344L54.5047 1.37813C52.9215 0.493599 51.1347 0.0381498 49.3213 0.0569237C47.5079 0.0756977 45.7309 0.568043 44.1664 1.48516L9.97264 21.4625C8.39429 22.3845 7.1286 23.7585 6.33905 25.407L23.5328 34.9664Z" fill="#3DDC84"/>
<path d="M32.2477 39.7906C32.2914 39.7047 32.3344 39.6187 32.3789 39.5562C32.3344 39.6414 32.2922 39.7047 32.2477 39.7906Z" fill="#3DDB85"/>
<path d="M92.939 24.25L76.0039 34.2594C76.6523 35.2023 77.0422 36.3164 77.0625 37.4539V61.2898C77.0757 62.3816 76.7983 63.4572 76.2587 64.4064C75.7192 65.3556 74.9369 66.1442 73.9922 66.6914L53.2718 78.8047C52.357 79.3374 51.3231 79.6321 50.2648 79.6617C50.2875 86.2 50.2875 96.5969 50.2437 99.1906V99.2117C52.0599 99.1918 53.8403 98.7043 55.4132 97.7961L89.6078 77.7969C92.7875 75.932 94.7343 72.5445 94.6906 68.8789V29.5445C94.6687 27.6367 94.0203 25.8148 92.939 24.25Z" fill="#4285F4"/>
<path d="M67.9398 58.7398C67.9179 58.7836 67.9179 58.8266 67.8961 58.8711C67.9203 58.8312 67.9352 58.7863 67.9398 58.7398ZM67.7226 39.8125C67.6781 39.7047 67.6132 39.6187 67.5484 39.5117C67.6132 39.6187 67.6789 39.7266 67.7226 39.8125ZM52.1929 69.2L66.0781 61.0766L52.1929 69.2016V69.2ZM67.7656 59.2328C67.7218 59.3406 67.657 59.4477 67.6125 59.5555C67.657 59.4266 67.7 59.3187 67.7656 59.2328Z" fill="#4285F4"/>
<path d="M32.1859 39.9828C32.0097 40.3992 31.9003 40.8409 31.8617 41.2914C31.8398 41.4617 31.8398 41.6336 31.8398 41.8274V58.6109C31.8398 58.7391 31.8398 58.8469 31.8617 58.9758C31.9055 59.3391 32.0352 59.6828 32.2289 59.9836C32.3594 60.1977 32.5102 60.368 32.6625 60.5398C32.8359 60.7117 33.0297 60.8609 33.2453 60.9695L47.9969 69.2219C48.6387 69.5762 49.3606 69.7605 50.0937 69.757H50.2461C50.9338 69.7336 51.604 69.5346 52.193 69.1789L66.0781 61.0547C66.1648 61.0117 66.2297 60.9469 66.3164 60.9047C66.468 60.7977 66.6195 60.6899 66.7492 60.5609C66.9529 60.3766 67.1401 60.1766 67.3109 59.9609C67.4187 59.8109 67.5273 59.6617 67.6141 59.5109C67.6781 59.4047 67.7227 59.2969 67.7648 59.1891C67.8086 59.0836 67.8742 58.9539 67.9172 58.8258C67.9383 58.782 67.9383 58.7391 67.9602 58.6969C68.0912 58.2806 68.1568 57.8466 68.1547 57.4102V41.4406C68.1547 41.1414 68.1109 40.8625 68.0469 40.5844C68.0039 40.3906 67.9375 40.2188 67.8734 40.0469L67.7437 39.7906C67.7008 39.6828 67.6344 39.5977 67.5703 39.4899L67.4406 39.2977C67.3328 39.1469 67.2242 39.0188 67.1164 38.8688C66.7641 38.4581 66.3387 38.1164 65.8617 37.8609L51.8258 29.9953C51.5839 29.8585 51.3303 29.7435 51.068 29.6516C50.7161 29.5453 50.3529 29.4808 49.9859 29.4594H49.7047C49.5977 29.4594 49.5109 29.4594 49.4031 29.4797C49.1546 29.502 48.9085 29.5451 48.6672 29.6086C48.6242 29.6297 48.5812 29.6297 48.5375 29.6524C48.2133 29.7383 47.9102 29.8875 47.607 30.0586L33.7219 38.1836C33.3189 38.4204 32.9659 38.7335 32.6828 39.1055C32.5758 39.2555 32.4672 39.4055 32.3805 39.5555C32.3375 39.6414 32.2945 39.7055 32.2508 39.7914L32.1859 39.9828Z" fill="#D6F0FF"/>
<path d="M50.2437 69.7563H50.0922C49.3586 69.7602 48.6361 69.5762 47.9937 69.2219L33.2437 60.9688C33.0317 60.8509 32.8354 60.7068 32.6594 60.5398C32.4902 60.3746 32.3446 60.1869 32.2266 59.982C32.047 59.6698 31.9228 59.3288 31.8594 58.9742C31.8367 58.8469 31.8367 58.7391 31.8367 58.6109V41.8258C31.8367 41.6547 31.8367 41.4625 31.8594 41.2899C31.9008 40.8406 32.0094 40.3992 32.1836 39.982L28.2031 37.5609L23.5312 34.9672C23.0984 35.8672 22.8828 36.8953 22.8828 37.968V63.0047C22.8956 63.7256 23.0957 64.4309 23.4634 65.0511C23.8312 65.6713 24.354 66.1852 24.9805 66.5422L46.9781 78.8672C47.9357 79.4024 49.0172 79.6761 50.1141 79.6609H50.2234C50.2234 76.4664 50.2008 74.1945 50.2008 74.1945L50.2437 69.7563Z" fill="#083042"/>
<path d="M50.2437 69.7563H50.0922C49.3586 69.7602 48.6361 69.5762 47.9937 69.2219L33.2437 60.9688C33.0317 60.8509 32.8354 60.7068 32.6594 60.5398C32.4902 60.3746 32.3446 60.1869 32.2266 59.982C32.047 59.6698 31.9228 59.3288 31.8594 58.9742C31.8367 58.8469 31.8367 58.7391 31.8367 58.6109V41.8258C31.8367 41.6547 31.8367 41.4625 31.8594 41.2899C31.9008 40.8406 32.0094 40.3992 32.1836 39.982L28.2031 37.5609L23.5312 34.9672C23.0984 35.8672 22.8828 36.8953 22.8828 37.968V63.0047C22.8956 63.7256 23.0957 64.4309 23.4634 65.0511C23.8312 65.6713 24.354 66.1852 24.9805 66.5422L46.9781 78.8672C47.9357 79.4024 49.0172 79.6761 50.1141 79.6609H50.2234C50.2234 76.4664 50.2008 74.1945 50.2008 74.1945L50.2437 69.7563Z" fill="#041619"/>
<path d="M73.6453 32.1164L52.7086 20.3898C51.7483 19.8523 50.664 19.5754 49.5636 19.5868C48.4631 19.5981 47.3848 19.8974 46.4359 20.4547L25.7172 32.5672C24.7557 33.1262 23.986 33.9632 23.5093 34.968L28.2047 37.5617L32.1836 39.9828L32.2476 39.7906C32.2914 39.7039 32.3343 39.6188 32.3773 39.5547C32.464 39.4047 32.5726 39.2547 32.6804 39.1047C32.9617 38.7398 33.3078 38.4406 33.7195 38.1828L47.6039 30.0578C47.9007 29.8911 48.2109 29.7557 48.5343 29.6516C48.5781 29.6305 48.6211 29.6305 48.664 29.6078C48.9052 29.5422 49.1502 29.4995 49.3992 29.4797C49.507 29.4797 49.5937 29.4578 49.7023 29.4578H49.9836C50.35 29.4813 50.7125 29.5445 51.0648 29.65C51.3315 29.7344 51.5838 29.8492 51.8218 29.9945L65.8578 37.8617C66.3315 38.1224 66.7565 38.4631 67.114 38.8688C67.2211 38.9969 67.3304 39.1477 67.4375 39.2969L67.5679 39.4891L71.1578 37.1109L76.0242 34.2172C75.3968 33.3805 74.5968 32.6305 73.6453 32.1164Z" fill="#3DDB85"/>
<path d="M73.6453 32.1164L52.7086 20.3898C51.7483 19.8523 50.664 19.5754 49.5636 19.5868C48.4631 19.5981 47.3848 19.8974 46.4359 20.4547L25.7172 32.5672C24.7557 33.1262 23.986 33.9632 23.5093 34.968L28.2047 37.5617L32.1836 39.9828L32.2476 39.7906C32.2914 39.7039 32.3343 39.6188 32.3773 39.5547C32.464 39.4047 32.5726 39.2547 32.6804 39.1047C32.9617 38.7398 33.3078 38.4406 33.7195 38.1828L47.6039 30.0578C47.9007 29.8911 48.2109 29.7557 48.5343 29.6516C48.5781 29.6305 48.6211 29.6305 48.664 29.6078C48.9052 29.5422 49.1502 29.4995 49.3992 29.4797C49.507 29.4797 49.5937 29.4578 49.7023 29.4578H49.9836C50.35 29.4813 50.7125 29.5445 51.0648 29.65C51.3315 29.7344 51.5838 29.8492 51.8218 29.9945L65.8578 37.8617C66.3315 38.1224 66.7565 38.4631 67.114 38.8688C67.2211 38.9969 67.3304 39.1477 67.4375 39.2969L67.5679 39.4891L71.1578 37.1109L76.0242 34.2172C75.3968 33.3805 74.5968 32.6305 73.6453 32.1164Z" fill="#37BF6E"/>
<path d="M67.5469 39.5328C67.6117 39.6391 67.6555 39.725 67.7195 39.8328L67.85 40.0899C68.0317 40.532 68.1271 41.0048 68.1312 41.4828V57.4531C68.133 57.8893 68.0671 58.3231 67.9359 58.7391C67.9148 58.7813 67.9148 58.825 67.893 58.8672C67.8519 58.9927 67.8015 59.1149 67.7422 59.2328C67.6976 59.3383 67.6328 59.4461 67.5898 59.5531C67.5039 59.7039 67.3953 59.8531 67.2867 60.0039C67.1174 60.2197 66.9294 60.4202 66.725 60.6031C66.5953 60.732 66.4437 60.8391 66.2922 60.9469C66.2055 60.9891 66.1414 61.0539 66.0547 61.0969L52.1687 69.2203C51.5716 69.5574 50.9061 69.7555 50.2219 69.8V74.2367C50.2219 74.2367 50.2219 76.5094 50.2437 79.7031C51.3036 79.6839 52.34 79.3885 53.2508 78.8461L73.9695 66.7336C75.8953 65.5985 77.0633 63.5399 77.0414 61.3328V37.4961C77.0203 36.3383 76.6312 35.2445 75.9828 34.3016L71.1148 37.1961L67.5469 39.5328Z" fill="#4285F4"/>
<path d="M67.5469 39.5328C67.6117 39.6391 67.6555 39.725 67.7195 39.8328L67.85 40.0899C68.0317 40.532 68.1271 41.0048 68.1312 41.4828V57.4531C68.133 57.8893 68.0671 58.3231 67.9359 58.7391C67.9148 58.7813 67.9148 58.825 67.893 58.8672C67.8519 58.9927 67.8015 59.1149 67.7422 59.2328C67.6976 59.3383 67.6328 59.4461 67.5898 59.5531C67.5039 59.7039 67.3953 59.8531 67.2867 60.0039C67.1174 60.2197 66.9294 60.4202 66.725 60.6031C66.5953 60.732 66.4437 60.8391 66.2922 60.9469C66.2055 60.9891 66.1414 61.0539 66.0547 61.0969L52.1687 69.2203C51.5716 69.5574 50.9061 69.7555 50.2219 69.8V74.2367C50.2219 74.2367 50.2219 76.5094 50.2437 79.7031C51.3036 79.6839 52.34 79.3885 53.2508 78.8461L73.9695 66.7336C75.8953 65.5985 77.0633 63.5399 77.0414 61.3328V37.4961C77.0203 36.3383 76.6312 35.2445 75.9828 34.3016L71.1148 37.1961L67.5469 39.5328Z" fill="#3870B2"/>
<path d="M48.5585 29.6734C48.2335 29.7594 47.9304 29.9094 47.6289 30.0797L33.7429 38.2047L47.6273 30.0812C47.9159 29.9016 48.2291 29.7647 48.557 29.675L48.5585 29.6734Z" fill="#D6F0FF"/>
<path opacity="0.1" d="M48.5585 29.6734C48.2335 29.7594 47.9304 29.9094 47.6289 30.0797L33.7429 38.2047L47.6273 30.0812C47.9159 29.9016 48.2291 29.7647 48.557 29.675L48.5585 29.6734Z" fill="black"/>
<path d="M67.85 40.0695C67.9164 40.2446 67.9737 40.4229 68.0218 40.6039C67.9789 40.4328 67.9125 40.2617 67.8484 40.0695H67.85Z" fill="#D6F0FF"/>
<path opacity="0.1" d="M67.85 40.0695C67.9164 40.2446 67.9737 40.4229 68.0218 40.6039C67.9789 40.4328 67.9125 40.2617 67.8484 40.0695H67.85Z" fill="black"/>
</svg>
