<svg xmlns="http://www.w3.org/2000/svg" fill="none" viewBox="0 0 559 81"><g clip-path="url(#a)"><mask id="b" width="559" height="81" x="0" y="0" maskUnits="userSpaceOnUse" style="mask-type:luminance"><path fill="#fff" d="M0 0h559v81H0V0Z"/></mask><g mask="url(#b)"><path fill="#EF5B3C" d="M146.133 16.604h-5.286v31.188c0 5.184-1.404 9.072-4.212 11.664-2.752 2.592-6.469 3.888-11.149 3.888-4.185 0-7.46-.91-9.828-2.73-2.312-1.875-4.047-4.109-5.203-6.7l6.442-4.882c1.046 2.372 2.202 3.944 3.469 4.716a8.864 8.864 0 0 0 4.294 1.075c2.478 0 4.267-.634 5.368-1.902 1.101-1.324 1.652-3.007 1.652-5.047v-31.27h-9.91v-7.86h24.363v7.86Zm8.924 1.075V7.918h9.002v9.76l-9.002.001Zm14.783 44.838h-19.821v-6.784h5.534V32.24h-5.864v-6.866h14.618v30.36h5.533v6.784Zm46.662-30.278h-5.368V61.11c0 5.901-1.652 10.672-4.955 14.312-3.249 3.64-8.121 5.46-14.618 5.46-3.855 0-7.461-.827-10.819-2.482-3.359-1.654-5.727-4.495-7.103-8.52l6.855-3.723c2.312 5.074 6.056 7.61 11.232 7.61 3.083 0 5.616-1.102 7.598-3.308 1.982-2.206 2.973-5.35 2.973-9.431v-5.543c-1.046 1.985-2.56 3.695-4.542 5.13-1.928 1.378-4.598 2.067-8.011 2.067-4.35 0-8.122-1.517-11.315-4.55-3.139-3.088-4.708-7.555-4.708-13.401 0-5.295 1.404-9.955 4.212-13.98 2.863-4.082 6.993-6.123 12.389-6.123 5.616 0 9.607 2.179 11.975 6.536v-5.791h14.205v6.866Zm-14.205 12.574v-2.978c0-3.088-.881-5.543-2.643-7.362-1.762-1.82-3.964-2.73-6.607-2.73-3.083 0-5.451 1.13-7.102 3.392-1.652 2.206-2.478 5.211-2.478 9.017 0 3.915.826 6.811 2.478 8.686 1.651 1.82 3.743 2.73 6.276 2.73 3.139 0 5.588-1.103 7.351-3.31 1.816-2.205 2.725-4.688 2.725-7.445Zm50.095 6.619c0 3.86-1.596 6.81-4.79 8.851-3.138 2.04-7.157 3.061-12.057 3.061-2.643 0-5.314-.303-8.011-.91-2.643-.606-5.038-1.517-7.186-2.73l1.322-9.596 6.937.662-.082 4.798c1.057.444 2.167.75 3.303.91 1.212.166 2.285.248 3.221.248 2.257 0 4.212-.386 5.864-1.158 1.707-.827 2.56-2.04 2.56-3.64 0-1.544-.771-2.647-2.313-3.309-1.486-.662-3.358-1.158-5.615-1.49a74.406 74.406 0 0 1-6.773-1.488c-2.257-.662-4.157-1.71-5.698-3.144-1.487-1.49-2.23-3.695-2.23-6.618 0-4.301 1.624-7.252 4.873-8.852 3.303-1.599 6.772-2.399 10.406-2.399 4.79 0 9.305 1.131 13.544 3.392l.908 9.183-6.937.827-.743-5.543c-2.147-.827-4.322-1.24-6.525-1.24-1.707 0-3.166.358-4.377 1.075-1.156.661-1.734 1.737-1.734 3.226 0 1.544.743 2.62 2.23 3.227 1.486.606 3.331 1.103 5.533 1.489 2.235.338 4.443.836 6.607 1.49 2.203.605 4.047 1.653 5.534 3.142 1.486 1.434 2.229 3.613 2.229 6.536Zm8.521-23.33c2.753-1.323 5.203-2.233 7.351-2.73 2.147-.496 4.625-.744 7.433-.744 4.129 0 7.515 1.048 10.158 3.144 2.698 2.096 4.047 5.239 4.047 9.43v16.711c0 2.206.908 3.31 2.725 3.31.496 0 1.129-.11 1.9-.332l.082 4.881c-1.817 1.048-3.799 1.572-5.946 1.572-4.68 0-7.213-2.454-7.598-7.363v-.165c-1.102 1.93-2.671 3.667-4.708 5.212-1.982 1.544-4.459 2.316-7.433 2.316-2.588 0-5.148-.772-7.681-2.316-2.477-1.6-3.716-4.357-3.716-8.273 0-4.577 1.817-7.583 5.451-9.017 3.634-1.49 7.57-2.233 11.81-2.233 1.046 0 2.12.027 3.221.082 1.021.049 2.04.131 3.056.248v-2.068c0-2.206-.386-4.191-1.156-5.956-.772-1.765-2.698-2.648-5.782-2.648-1.156 0-2.257.083-3.303.249a9.483 9.483 0 0 0-2.891.992l-1.486 5.708-7.103-.744 1.569-9.265Zm20.152 19.69v-1.324c-.937-.11-1.9-.22-2.891-.331a27.612 27.612 0 0 0-3.056-.165c-2.202 0-4.184.386-5.946 1.157-1.707.772-2.56 2.317-2.56 4.633 0 3.365 1.789 5.047 5.368 5.047 2.092 0 4.074-.745 5.946-2.234 1.872-1.544 2.918-3.805 3.139-6.783Zm75.691-15.636h-3.717l-10.406 30.36h-6.607l-10.24-24.486h-.413l-9.663 24.487h-6.277l-10.654-30.36h-3.633v-6.784h18.83v6.784h-5.782l5.699 17.868h.495l9.498-24.652h5.451l10.654 24.404h.495l4.46-17.62h-5.534v-6.784h17.344v6.784Zm42.923 14.56c0 5.35-1.872 9.458-5.617 12.326-3.688 2.868-8.589 4.302-14.7 4.302-3.634 0-7.158-.441-10.571-1.324-3.359-.882-6.029-2.15-8.011-3.805l1.486-12.326 7.351.745-.166 6.617c1.817.938 3.469 1.545 4.956 1.82 1.541.221 2.973.331 4.294.331 3.194 0 5.837-.496 7.929-1.49 2.147-1.047 3.221-3.115 3.221-6.203 0-3.365-1.211-5.598-3.634-6.7-2.423-1.159-5.203-2.041-8.342-2.648a68.432 68.432 0 0 1-7.68-1.985c-2.588-.828-4.735-2.206-6.442-4.137-1.707-1.93-2.56-4.77-2.56-8.52 0-5.626 1.899-9.652 5.698-12.079 3.854-2.482 8.149-3.722 12.884-3.722 3.303 0 6.497.496 9.58 1.489 3.138.992 5.589 2.288 7.35 3.888l.496 11.333-7.35.662-.744-6.949c-1.541-.883-3.083-1.49-4.625-1.82a21.22 21.22 0 0 0-4.459-.496c-2.588 0-4.735.524-6.442 1.572-1.707 1.048-2.56 2.73-2.56 5.046 0 2.702 1.046 4.55 3.138 5.542 2.147.938 4.542 1.71 7.185 2.317 2.258.496 4.818 1.158 7.681 1.985 2.863.827 5.34 2.316 7.433 4.468 2.147 2.095 3.221 5.349 3.221 9.761Zm35.253 4.881c-1.046 7.831-5.396 11.747-13.049 11.747-3.965 0-7.131-1.048-9.498-3.144-2.312-2.095-3.469-5.018-3.469-8.768V31.908h-5.45v-6.535h5.45v-11.5h8.837v11.5h13.792v6.535h-13.792v18.117c0 3.916 1.707 5.874 5.121 5.874.936 0 1.982-.331 3.138-.993 1.156-.717 1.955-2.51 2.395-5.377l6.525 2.068Zm5.755-23.494c2.754-1.324 5.203-2.234 7.351-2.73 2.147-.497 4.625-.745 7.433-.745 4.129 0 7.516 1.048 10.158 3.144 2.698 2.096 4.047 5.239 4.047 9.43v16.711c0 2.206.909 3.31 2.726 3.31.495 0 1.128-.11 1.899-.332l.083 4.881c-1.817 1.048-3.799 1.572-5.947 1.572-4.68 0-7.213-2.454-7.598-7.363v-.165c-1.101 1.93-2.67 3.667-4.708 5.212-1.982 1.544-4.459 2.316-7.433 2.316-2.587 0-5.147-.772-7.68-2.316-2.478-1.6-3.717-4.357-3.717-8.273 0-4.577 1.817-7.583 5.451-9.017 3.634-1.49 7.571-2.233 11.811-2.233 1.045 0 2.119.027 3.221.082a45.82 45.82 0 0 1 3.055.248v-2.068c0-2.206-.385-4.191-1.156-5.956-.771-1.765-2.698-2.648-5.781-2.648-1.156 0-2.258.083-3.304.249a9.492 9.492 0 0 0-2.891.992l-1.486 5.708-7.103-.744 1.569-9.265Zm20.152 19.689v-1.324c-.936-.11-1.899-.22-2.89-.331a27.625 27.625 0 0 0-3.056-.165c-2.203 0-4.185.386-5.946 1.157-1.707.772-2.561 2.317-2.561 4.633 0 3.365 1.79 5.047 5.369 5.047 2.092 0 4.074-.745 5.946-2.234 1.872-1.544 2.918-3.805 3.138-6.783Zm51.623 1.406c-.385 3.309-1.844 6.508-4.377 9.596-2.532 3.034-6.607 4.55-12.223 4.55-5.285 0-9.607-1.6-12.966-4.798-3.304-3.199-4.955-7.859-4.955-13.98 0-6.012 1.707-10.838 5.12-14.478 3.469-3.64 7.984-5.46 13.545-5.46 2.202 0 4.405.276 6.607.828 2.202.551 4.377 1.461 6.524 2.73l1.486 10.423-7.102.744-1.239-6.12a14.518 14.518 0 0 0-6.442-1.49c-6.166 0-9.249 4.136-9.249 12.409 0 8.052 3.165 12.078 9.497 12.078 4.625 0 7.406-2.813 8.341-8.438l7.433 1.406Zm45.409 13.319h-18.502v-6.784h4.294l-7.762-9.265h-5.947v9.265h4.13v6.784h-18.5v-6.784h5.534V12.385h-5.864V5.6h14.7v34.497h6.36l6.524-7.86h-4.873v-6.865h18.088v6.866h-4.624l-8.756 10.258 11.231 13.236h3.967v6.784Z"/><path fill="url(#c)" d="M36.224 72.51c-1.946-1.126-3.857-2.317-5.846-3.36-2.714-1.424-2.878-5.151-.186-6.615 1.633-.887 2.837-2.2 3.31-4.066.664-2.62.016-4.891-2.02-6.642-1.993-1.713-4.334-2.154-6.791-1.143-2.48 1.02-3.818 2.96-4.039 5.649-.024.273-.01.55-.017.823-.077 2.916-2.961 4.588-5.502 3.142-4.083-2.324-8.135-4.695-12.199-7.052a4.638 4.638 0 0 1-.615-.423C-.029 50.883-.646 47.787.865 45.12a890.687 890.687 0 0 1 6.93-12.025c1.563-2.661 4.95-2.594 6.5.085 2.475 4.278 8.213 4.655 11.055.691 1.496-2.086 1.677-4.377.552-6.671-1.125-2.294-3.046-3.489-5.604-3.658-.69-.045-1.426-.044-2.052-.293-2.058-.812-2.914-3.135-1.81-5.109 2.344-4.189 4.717-8.367 7.205-12.47 1.608-2.654 4.808-3.459 7.622-2.146.338.159.67.338.994.526 3.741 2.161 7.506 4.285 11.21 6.513 1.175.707 2.388.034 2.347-1.37-.112-3.847 2.335-7.247 5.88-8.445 3.683-1.247 7.677-.032 9.978 3.035 2.317 3.085 2.456 7.296.16 10.424-.76 1.035-1.817 1.954-2.929 2.6-1.125.653-1.165 2.035.031 2.701 3.862 2.153 7.673 4.398 11.494 6.621 2.553 1.486 3.762 3.884 3.22 6.506a7.555 7.555 0 0 1-.821 2.156c-2.193 3.873-4.474 7.698-6.64 11.586-1.615 2.897-5.3 2.767-6.734.018-1.29-2.475-3.98-3.688-6.681-3.271-2.608.402-4.775 2.428-5.364 5.018-.594 2.61.475 5.331 2.738 6.887 1.098.756 2.341 1.201 3.666 1.1 3.22-.247 5.07 3.091 3.344 5.931-2.274 3.74-4.388 7.572-6.578 11.36-1.934 3.346-5.378 4.273-8.713 2.354-1.883-1.084-3.763-2.176-5.643-3.264l.002-.001Z"/></g></g><defs><linearGradient id="c" x1="-2.179" x2="99.979" y1="11.969" y2="84.141" gradientUnits="userSpaceOnUse"><stop offset=".184" stop-color="#FA242D"/><stop offset=".958" stop-color="#EF5B3C"/></linearGradient><clipPath id="a"><path fill="#fff" d="M0 0h559v81H0z"/></clipPath></defs></svg>