<svg width="559" height="81" viewBox="0 0 559 81" fill="none" xmlns="http://www.w3.org/2000/svg">
<g clip-path="url(#clip0_184_2)">
<mask id="mask0_184_2" style="mask-type:luminance" maskUnits="userSpaceOnUse" x="0" y="0" width="559" height="81">
<path d="M0 0H559V81H0V0Z" fill="white"/>
</mask>
<g mask="url(#mask0_184_2)">
<path d="M146.133 16.6039H140.847V47.7916C140.847 52.9756 139.443 56.8636 136.635 59.4562C133.883 62.0482 130.166 63.3442 125.486 63.3442C121.301 63.3442 118.026 62.4341 115.658 60.6141C113.346 58.7391 111.611 56.5054 110.455 53.9134L116.897 49.0322C117.943 51.404 119.099 52.9756 120.366 53.7481C121.687 54.4646 123.118 54.8234 124.66 54.8234C127.138 54.8234 128.927 54.189 130.028 52.9207C131.129 51.597 131.68 49.9145 131.68 47.8743V16.6039H121.77V8.74474H146.133V16.6039ZM155.057 17.6792V7.91788H164.059V17.6787L155.057 17.6792ZM169.84 62.5168H150.019V55.7334H155.553V32.2391H149.689V25.3731H164.307V55.7334H169.84V62.5168ZM216.502 32.2391H211.134V61.1104C211.134 67.0115 209.482 71.7823 206.179 75.4219C202.93 79.062 198.058 80.882 191.561 80.882C187.706 80.882 184.1 80.0546 180.742 78.4004C177.383 76.7456 175.015 73.9052 173.639 69.8796L180.494 66.1569C182.806 71.2305 186.55 73.7676 191.726 73.7676C194.809 73.7676 197.342 72.6646 199.324 70.4586C201.306 68.2526 202.297 65.1088 202.297 61.0278V55.485C201.251 57.4703 199.737 59.18 197.755 60.6141C195.827 61.9927 193.157 62.682 189.744 62.682C185.394 62.682 181.622 61.1653 178.429 58.1325C175.29 55.0441 173.721 50.5766 173.721 44.7305C173.721 39.4361 175.125 34.7762 177.933 30.7501C180.796 26.6686 184.926 24.6283 190.322 24.6283C195.938 24.6283 199.929 26.8067 202.297 31.1638V25.3726H216.502V32.2391ZM202.297 44.8131V41.8351C202.297 38.7474 201.416 36.2923 199.654 34.4728C197.892 32.6528 195.69 31.7428 193.047 31.7428C189.964 31.7428 187.596 32.8735 185.945 35.135C184.293 37.3405 183.467 40.3462 183.467 44.1515C183.467 48.0672 184.293 50.9631 185.945 52.8376C187.596 54.6576 189.688 55.5676 192.221 55.5676C195.36 55.5676 197.809 54.4646 199.572 52.2586C201.388 50.0526 202.297 47.5704 202.297 44.8131ZM252.392 51.4317C252.392 55.292 250.796 58.2428 247.602 60.283C244.464 62.3238 240.445 63.3442 235.545 63.3442C232.902 63.3442 230.231 63.0408 227.534 62.4342C224.891 61.8275 222.496 60.9174 220.348 59.7041L221.67 50.108L228.607 50.7696L228.525 55.5676C229.582 56.0123 230.692 56.3181 231.828 56.4777C233.04 56.6435 234.113 56.7261 235.049 56.7261C237.306 56.7261 239.261 56.3401 240.913 55.5676C242.62 54.7408 243.473 53.5274 243.473 51.9281C243.473 50.3836 242.702 49.2806 241.16 48.619C239.674 47.9569 237.802 47.4611 235.545 47.1295C233.287 46.7435 231.03 46.2472 228.772 45.6405C226.515 44.9789 224.615 43.9308 223.074 42.4973C221.587 41.0077 220.844 38.8017 220.844 35.8792C220.844 31.5775 222.468 28.6267 225.717 27.0274C229.02 25.428 232.489 24.6283 236.123 24.6283C240.913 24.6283 245.428 25.7591 249.667 28.02L250.575 37.2029L243.638 38.0298L242.895 32.487C240.748 31.6601 238.573 31.2464 236.37 31.2464C234.663 31.2464 233.204 31.6052 231.993 32.3217C230.837 32.9833 230.259 34.0591 230.259 35.5481C230.259 37.092 231.002 38.1679 232.489 38.7745C233.975 39.3812 235.82 39.8776 238.022 40.2635C240.257 40.6019 242.465 41.0997 244.629 41.7531C246.832 42.3592 248.676 43.4073 250.163 44.8963C251.649 46.3298 252.392 48.5087 252.392 51.4317ZM260.913 28.1026C263.666 26.7789 266.116 25.8694 268.264 25.3726C270.411 24.8762 272.889 24.6278 275.697 24.6278C279.826 24.6278 283.212 25.6759 285.855 27.7721C288.553 29.8678 289.902 33.011 289.902 37.2024V53.9134C289.902 56.1194 290.81 57.2224 292.627 57.2224C293.123 57.2224 293.756 57.1121 294.527 56.8914L294.609 61.772C292.792 62.8201 290.81 63.3442 288.663 63.3442C283.983 63.3442 281.45 60.8897 281.065 55.9813V55.8161C279.963 57.7465 278.394 59.4834 276.357 61.0278C274.375 62.5717 271.898 63.3442 268.924 63.3442C266.336 63.3442 263.776 62.5717 261.243 61.0278C258.766 59.4285 257.527 56.6706 257.527 52.7549C257.527 48.1776 259.344 45.1719 262.978 43.7378C266.612 42.2488 270.548 41.5046 274.788 41.5046C275.834 41.5046 276.908 41.5318 278.009 41.5872C279.03 41.6358 280.049 41.7184 281.065 41.8351V39.7672C281.065 37.5612 280.679 35.5759 279.909 33.8107C279.137 32.0461 277.211 31.1633 274.127 31.1633C272.971 31.1633 271.87 31.2464 270.824 31.4117C269.833 31.5775 268.869 31.908 267.933 32.4044L266.447 38.1124L259.344 37.3676L260.913 28.1026ZM281.065 47.7916V46.4679C280.128 46.3576 279.165 46.2472 278.174 46.1368C277.159 46.0253 276.139 45.9701 275.118 45.9716C272.916 45.9716 270.934 46.3576 269.172 47.1295C267.465 47.9014 266.612 49.4459 266.612 51.7623C266.612 55.1268 268.401 56.8087 271.98 56.8087C274.072 56.8087 276.054 56.064 277.926 54.575C279.798 53.0311 280.844 50.7696 281.065 47.7916ZM356.756 32.1565H353.039L342.633 62.5168H336.026L325.786 38.0298H325.373L315.71 62.5168H309.433L298.779 32.1565H295.146V25.3726H313.976V32.1565H308.194L313.893 50.0254H314.388L323.886 25.3726H329.337L339.991 49.7769H340.486L344.946 32.1565H339.412V25.3726H356.756V32.1565ZM399.679 46.7163C399.679 52.0656 397.807 56.1743 394.062 59.0425C390.374 61.9101 385.473 63.3442 379.362 63.3442C375.728 63.3442 372.204 62.9028 368.791 62.0205C365.432 61.1381 362.762 59.8693 360.78 58.2151L362.266 45.8889L369.617 46.6337L369.451 53.2513C371.268 54.189 372.92 54.7957 374.407 55.0713C375.948 55.292 377.38 55.4024 378.701 55.4024C381.895 55.4024 384.538 54.906 386.63 53.9128C388.777 52.8653 389.851 50.7973 389.851 47.709C389.851 44.3445 388.64 42.1113 386.217 41.0083C383.794 39.8504 381.014 38.9675 377.875 38.3608C375.279 37.8482 372.715 37.1853 370.195 36.3755C367.607 35.5481 365.46 34.1695 363.753 32.2391C362.046 30.3092 361.193 27.4682 361.193 23.7183C361.193 18.0929 363.092 14.0668 366.891 11.6401C370.745 9.15843 375.04 7.91788 379.775 7.91788C383.078 7.91788 386.272 8.41421 389.355 9.40687C392.493 10.3995 394.944 11.6955 396.705 13.2949L397.201 24.6283L389.851 25.2899L389.107 18.3413C387.566 17.4585 386.024 16.8518 384.482 16.5213C382.941 16.1902 381.454 16.025 380.023 16.025C377.435 16.025 375.288 16.5485 373.581 17.5966C371.874 18.6447 371.021 20.3266 371.021 22.643C371.021 25.3448 372.067 27.1932 374.159 28.1853C376.306 29.123 378.701 29.895 381.344 30.5017C383.602 30.998 386.162 31.6596 389.025 32.4875C391.888 33.3144 394.365 34.8034 396.458 36.9545C398.605 39.0502 399.679 42.3037 399.679 46.7163ZM434.932 51.597C433.886 59.4285 429.536 63.3442 421.883 63.3442C417.918 63.3442 414.752 62.2961 412.385 60.2004C410.073 58.1047 408.916 55.1817 408.916 51.4317V31.908H403.466V25.3726H408.916V13.8738H417.753V25.3726H431.545V31.908H417.753V50.0254C417.753 53.9411 419.46 55.8987 422.874 55.8987C423.81 55.8987 424.856 55.5676 426.012 54.906C427.168 54.189 427.967 52.3967 428.407 49.5291L434.932 51.597ZM440.687 28.1026C443.441 26.7789 445.89 25.8694 448.038 25.3726C450.185 24.8762 452.663 24.6278 455.471 24.6278C459.6 24.6278 462.987 25.6759 465.629 27.7721C468.327 29.8678 469.676 33.011 469.676 37.2024V53.9134C469.676 56.1194 470.585 57.2224 472.402 57.2224C472.897 57.2224 473.53 57.1121 474.301 56.8914L474.384 61.772C472.567 62.8201 470.585 63.3442 468.437 63.3442C463.757 63.3442 461.224 60.8897 460.839 55.9813V55.8161C459.738 57.7465 458.169 59.4834 456.131 61.0278C454.149 62.5717 451.672 63.3442 448.698 63.3442C446.111 63.3442 443.551 62.5717 441.018 61.0278C438.54 59.4285 437.301 56.6706 437.301 52.7549C437.301 48.1776 439.118 45.1719 442.752 43.7378C446.386 42.2488 450.323 41.5046 454.563 41.5046C455.608 41.5046 456.682 41.5318 457.784 41.5872C458.805 41.6358 459.824 41.7184 460.839 41.8351V39.7672C460.839 37.5612 460.454 35.5759 459.683 33.8107C458.912 32.0461 456.985 31.1633 453.902 31.1633C452.746 31.1633 451.644 31.2464 450.598 31.4117C449.607 31.5775 448.644 31.908 447.707 32.4044L446.221 38.1124L439.118 37.3676L440.687 28.1026ZM460.839 47.7916V46.4679C459.903 46.3576 458.94 46.2472 457.949 46.1368C456.934 46.0253 455.913 45.9701 454.893 45.9716C452.69 45.9716 450.708 46.3576 448.947 47.1295C447.24 47.9014 446.386 49.4459 446.386 51.7623C446.386 55.1268 448.176 56.8087 451.755 56.8087C453.847 56.8087 455.829 56.064 457.701 54.575C459.573 53.0311 460.619 50.7696 460.839 47.7916ZM512.462 49.198C512.077 52.507 510.618 55.7057 508.085 58.794C505.553 61.8275 501.478 63.3442 495.862 63.3442C490.577 63.3442 486.255 61.7448 482.896 58.5462C479.592 55.3475 477.941 50.687 477.941 44.5652C477.941 38.5538 479.648 33.7281 483.061 30.0885C486.53 26.4484 491.045 24.6283 496.606 24.6283C498.808 24.6283 501.011 24.904 503.213 25.4557C505.415 26.007 507.59 26.917 509.737 28.1853L511.223 38.6087L504.121 39.3535L502.882 33.2323C500.878 32.2469 498.673 31.7372 496.44 31.7428C490.274 31.7428 487.191 35.8792 487.191 44.1515C487.191 52.2037 490.356 56.2298 496.688 56.2298C501.313 56.2298 504.094 53.4171 505.029 47.7916L512.462 49.198ZM557.871 62.5168H539.369V55.7334H543.663L535.901 46.4679H529.954V55.7334H534.084V62.5168H515.584V55.7334H521.118V12.3848H515.254V5.6015H529.954V40.0977H536.314L542.838 32.2385H537.965V25.3726H556.053V32.2385H551.429L542.673 42.4967L553.904 55.7329H557.871V62.5168Z" fill="#EF5B3C"/>
<path d="M36.2243 72.5097C34.2781 71.3839 32.3666 70.1933 30.3776 69.1496C27.664 67.7263 27.4995 63.9987 30.192 62.5347C31.8245 61.6475 33.0293 60.3352 33.5015 58.4695C34.1658 55.8487 33.5177 53.578 31.4826 51.827C29.4891 50.114 27.1484 49.6726 24.691 50.6843C22.2108 51.7036 20.873 53.6432 20.6521 56.3325C20.6282 56.606 20.6423 56.8827 20.6347 57.1561C20.5576 60.0721 17.6736 61.7443 15.1326 60.2983C11.0503 57.9743 6.99781 55.603 2.93448 53.2464C2.71828 53.122 2.51246 52.9804 2.31904 52.8229C-0.0287653 50.8821 -0.645836 47.7868 0.865092 45.1208C3.14403 41.0945 5.45427 37.0861 7.79561 33.0959C9.35809 30.4348 12.7441 30.5017 14.2947 33.1807C16.7695 37.459 22.5082 37.8357 25.3498 33.8721C26.8456 31.7863 27.0268 29.4949 25.9018 27.2008C24.7767 24.9067 22.856 23.7124 20.2977 23.5433C19.6073 23.4982 18.8719 23.4987 18.2462 23.2497C16.1882 22.4376 15.3318 20.1152 16.4368 18.1413C18.7797 13.9521 21.153 9.77383 23.6408 5.67056C25.2489 3.01713 28.4493 2.21202 31.2633 3.52487C31.6014 3.68361 31.9325 3.86301 32.2565 4.05056C35.998 6.21201 39.7628 8.33649 43.4663 10.5637C44.6418 11.271 45.8548 10.598 45.8136 9.19378C45.7018 5.34656 48.1489 1.94727 51.6934 0.749126C55.3774 -0.497948 59.3707 0.716508 61.6724 3.78418C63.9892 6.86925 64.1282 11.0796 61.8325 14.2082C61.0721 15.2427 60.0154 16.162 58.9034 16.8083C57.7784 17.4607 57.7376 18.8426 58.9343 19.5091C62.7963 21.6618 66.6073 23.907 70.428 26.1304C72.981 27.6161 74.1896 30.014 73.6485 32.6365C73.4865 33.3929 73.2094 34.1199 72.8268 34.792C70.6337 38.6647 68.3532 42.4897 66.1861 46.3777C64.5716 49.2752 60.887 49.1447 59.4526 46.3956C58.1637 43.921 55.4729 42.7077 52.7718 43.1246C50.164 43.5269 47.9969 45.5535 47.4081 48.1434C46.8138 50.7539 47.883 53.4741 50.1456 55.03C51.244 55.7856 52.4874 56.2314 53.8122 56.1298C57.0327 55.8835 58.8822 59.2213 57.1559 62.0612C54.8824 65.8003 52.768 69.6328 50.5776 73.4219C48.6444 76.7668 45.2003 77.6942 41.8653 75.7747C39.9821 74.6907 38.1021 73.5986 36.2216 72.5108L36.2243 72.5097Z" fill="url(#paint0_linear_184_2)"/>
</g>
</g>
<defs>
<linearGradient id="paint0_linear_184_2" x1="-2.17902" y1="11.969" x2="99.9791" y2="84.1408" gradientUnits="userSpaceOnUse">
<stop offset="0.184" stop-color="#FA242D"/>
<stop offset="0.958" stop-color="#EF5B3C"/>
</linearGradient>
<clipPath id="clip0_184_2">
<rect width="559" height="81" fill="white"/>
</clipPath>
</defs>
</svg>
