<svg viewBox="0 0 256 63" width="256" height="63" fill="none" xmlns="http://www.w3.org/2000/svg"><g clip-path="url(#prefix__clip0_1_202)"><path d="M109.481 22.561l.001-.002-1.638 5.805 1.637-5.803zm7.96 21.272h.002l-10.814.04 10.812-.04zm.948-.737l1.884-7.184-1.884 7.185zm30.795-33.084l-2.664 12.324 2.664-12.325v.001z" fill="#131B28"/><path d="M157.603 9.27h-7.504c-.416 0-.829.334-.918.741l-2.664 12.325-2.664 12.325a.984.984 0 01-.917.74h-5.311c-5.255 0-4.647-3.635-3.571-8.614l.032-.15.118-.627.022-.119.24-1.277.257-1.37c.078-.413.196-1.017.274-1.396l1.211-5.917 1.212-5.917c.084-.408-.189-.743-.606-.743h-7.702a.98.98 0 00-.914.742l-1.656 7.857-1.656 7.856a.048.048 0 00-.002.012l-.154.73c-1.907 8.709-1.401 17.013 8.966 17.273.169.005.3.007.3.007h16.273c.416 0 .828-.335.916-.743l3.509-16.495 3.509-16.497c.086-.409-.184-.742-.6-.743zm29.935 26.216c.417 0 .689.334.605.742l-.728 3.561m-.728 3.563l.729-3.563-.729 3.565v-.002zm-.913.75l.003-.001a1987.044 1987.044 0 01-.003 0zm-18.305-13.203c-.006-.39.438-1.062.855-1.062l-.937-.015c-.423 4.247.082 1.077.082 1.077z" fill="#131B28"/><path d="M187.538 35.486c.417 0 .689.334.605.742l-.728 3.561-.119.58m-11.144 3.79l-1.81.006c.597 0 1.204-.004 1.81-.006zm10.535-.805l.611-2.984-.611 2.986v-.002zM63.285 30.988l1.166-5.166-1.333 5.906-1.28 6.016 1.122-5.274c.086-.408.233-1.075.325-1.482zm13.95-21.805h-8.24a.998.998 0 00-.926.738l-.782 3.45-.781 3.45c-.092.405.173.738.59.738h8.305c.416 0 .83-.333.92-.74l.755-3.449.755-3.446v-.001c.09-.407-.178-.74-.595-.74zm-1.793 11.473v-.001l-2.417 11.181 2.417-11.18zM51.504 57.704a679.87 679.87 0 00-.004 0h.004z" fill="#131B28"/><path d="M74.846 19.915h-8.305a.995.995 0 00-.925.74l-1.167 5.167-1.166 5.167c-.092.406-.238 1.073-.325 1.482l-1.12 5.274-1.12 5.273c-.11.493-.244.98-.4 1.459 0 0-1.552 4.617-4.16 4.565l-.326-.007c-1.264-.024-2.257-.041-2.257-.041h-.002a.988.988 0 00-.93.722l-.862 3.621-.86 3.62c-.097.404.164.738.578.745 1.48.017 4.792.055 6.798.055 6.516 0 9.95-3.61 12.152-13.999l2.577-11.922 2.417-11.181c.088-.407-.181-.74-.597-.74zM192.83 43.746c-.417 0-.687-.334-.599-.743l6.247-29.265" fill="#131B28"/><path d="M192.321 43.375c-.05-.204-.021-.703.068-1.112l2.965-13.89-3.124 14.631c-.088.408.182.742.599.742h.759c-.417 0-1.217-.167-1.267-.37zm8.698.204c-.226.092-.754.167-1.171.167h.759a.967.967 0 00.908-.743l.151-.742c-.084.407-.419 1.226-.647 1.318zm1.759-6.822l1.116-5.512-.002.01-1.114 5.502zM227.431 15.7l.344 1.422c.094.407-.168.738-.584.739m-23.298 13.385c.083-.408.22-1.07.306-1.473l1.192-5.581-1.349 6.322-.149.732zm-5.312-17.986l-.259 1.221-2.965 13.892 3.124-14.633.1-.48z" fill="#131B28"/><path d="M227.773 17.121l-.344-1.422-.341-1.457-.172-.737c-.675-2.62-2.656-4.133-6.955-4.133l-6.695-.008-6.165-.007h-6.937a.978.978 0 00-.914.74h-.001l-.306 1.45-.362 1.712-.101.48-3.124 14.632-2.965 13.891c-.089.409-.118.908-.068 1.112.051.204.85.371 1.267.371h6.258c.418 0 .945-.075 1.171-.167.228-.092.563-.91.646-1.318l1.112-5.503 1.114-5.502.002-.011.149-.732 1.349-6.322 1.192-5.583a.981.981 0 01.914-.739l19.692-.01c.416 0 .679-.33.584-.737z" fill="#131B28"/><path d="M253.124 4.263c-.418.003-1.099.006-1.516.006h-6.303c-.418 0-.951.281-1.186.625l-13.937 20.42c-.236.344-.504.293-.597-.113l-1.026-4.499c-.092-.407-.51-.738-.926-.738h-8.961c-.417 0-.663.327-.55.728l4.016 14.065c.114.4.122 1.06.019 1.463l-1.75 6.807c-.104.404.153.735.57.735h8.855c.417 0 .843-.33.946-.735l1.751-6.807a4.521 4.521 0 01.644-1.34L255.8 4.848c.252-.332.115-.603-.301-.6l-2.375.015zM181.938 21.88l-.001-.009c-.052.452-.469.784-.885.784h-11.36c-.393 0-.593-.267-.535-.596.004-.01.005-.019.01-.027l-.007.004.006-.039.052-.193c1.086-2.885 3.295-4.778 7.449-4.778 4.676 0 5.588 2.285 5.271 4.854zm-3.333-13.113c-14.582 0-18.037 8.851-19.975 17.784-1.939 9.105-1.772 17.618 13.317 17.618h1.653c.059-.002.117-.002.177-.002h.561l1.811-.007h.03c3.985-.015 7.982-.045 9.6-.058a.982.982 0 00.904-.745l.611-2.985.119-.581.729-3.56c.084-.41-.19-.744-.606-.744H173.97c-5.395 0-6.997-1.433-6.406-5.648h21.684l-.002.002.015-.002a.896.896 0 00.842-.75l-.002.003c3.219-12.145 2.296-20.324-11.497-20.324h.001zm-68.918 13.066l-.206.727v.002l-1.638 5.803-1.637 5.802c-.112.4-.546.728-.964.728h-8.666c-6.573 0-8.174-5.14-6.573-12.725 1.6-7.757 4.738-12.579 11.208-13.067 8.842-.667 10.61 5.552 8.476 12.73zm5.943 12.616s4.086-9.92 5.014-15.652C121.91 11.125 118.069 0 103.233 0c-14.75 0-21.155 10.622-23.6 22.168-2.443 11.63.759 21.83 15.425 21.747l11.571-.043 10.814-.039c.417-.004.843-.334.949-.736l1.883-7.186c.105-.403-.15-.735-.566-.737l-1.805-.01-1.805-.011c-.355-.003-.558-.232-.515-.536a.712.712 0 01.045-.17l.001.001z" fill="#131B28"/><path d="M188.652 27.808a.499.499 0 01-.85.352.498.498 0 11.85-.352z" fill="#131B28"/><path d="M2.995 14.908c-4.073 5.854-3.566 13.47-.455 19.69.074.15.152.296.228.443.05.093.095.188.146.28.029.055.06.109.09.161a23.512 23.512 0 00.459.8l.17.279c.112.18.228.36.345.539.05.076.097.152.147.227.162.242.328.482.499.72l.014.02c.027.038.057.074.085.112.148.205.3.406.454.605l.172.218a26.373 26.373 0 001.178 1.39l.023.025c.407.442.828.871 1.262 1.286.065.063.13.126.194.185.217.205.438.405.662.602.037.033.076.065.113.096.194.169.393.336.591.5l.246.195c.162.13.327.26.493.386l.264.2c.183.135.367.268.553.398.069.048.134.096.202.142.02.013.036.027.055.04.177.121.358.238.538.355.078.052.154.105.233.155.277.176.558.349.842.516l.232.131c.21.121.42.239.632.355.115.062.234.12.35.18.15.079.3.159.452.235l.105.05c.06.03.123.058.184.09a26.158 26.158 0 001.704.747c.068.028.136.054.204.08a27.809 27.809 0 001.767.614c.07.02.14.043.212.064.3.09.598.199.907.256 19.698 3.592 25.42-11.837 25.42-11.837-4.805 6.26-13.335 7.911-21.417 6.073-.306-.07-.603-.165-.902-.253a25.97 25.97 0 01-1.093-.35l-.12-.044a27.77 27.77 0 01-.765-.284c-.071-.029-.143-.055-.215-.084a25.15 25.15 0 01-.826-.344c-.056-.024-.11-.05-.166-.072a38.065 38.065 0 01-.899-.422c-.18-.088-.36-.182-.54-.274-.119-.063-.24-.123-.36-.189a20.768 20.768 0 01-.646-.363l-.218-.121c-.283-.168-.564-.34-.842-.516-.076-.05-.152-.1-.227-.152-.202-.13-.402-.262-.6-.398-.065-.044-.128-.092-.193-.135-.19-.135-.379-.271-.566-.41a41.8 41.8 0 01-.99-.772 29.037 29.037 0 01-.637-.536l-.07-.059c-.226-.2-.45-.402-.67-.608l-.188-.182a19.617 19.617 0 01-.48-.471l-.19-.188c-.2-.206-.396-.414-.59-.624l-.028-.031c-.204-.223-.404-.45-.599-.681l-.157-.187c-.146-.175-.29-.353-.43-.532-.054-.065-.106-.13-.158-.197-.17-.22-.335-.439-.498-.662C4.2 26.25 2.59 17.81 6.174 10.876" fill="#0868AC"/><path d="M15.638 9.976c-2.945 4.239-2.785 9.913-.488 14.396.385.753.82 1.48 1.303 2.175.441.632.93 1.384 1.516 1.893.213.234.435.462.661.686.058.059.116.114.174.172.22.214.444.424.676.628.01.007.018.016.027.024l.007.006c.255.224.52.44.788.652l.18.14c.268.206.543.409.824.602l.024.019c.124.086.25.165.377.248.06.039.117.08.178.118.201.129.404.254.611.374l.087.05c.178.103.36.205.54.302.064.036.128.067.193.1.125.066.25.133.378.196.019.01.038.018.057.026.26.128.52.251.788.368.057.025.116.048.174.071.214.09.43.18.646.262.092.035.186.069.277.102.197.073.395.14.594.207l.268.086c.284.088.563.199.859.248 15.208 2.52 18.72-9.19 18.72-9.19-3.166 4.559-9.295 6.733-15.835 5.035-.377-.099-.75-.21-1.12-.332a19.629 19.629 0 01-1.523-.57c-.059-.026-.118-.049-.175-.075-.267-.116-.532-.24-.793-.368-.134-.066-.266-.135-.398-.203l-.23-.118c-.169-.092-.337-.187-.503-.284l-.12-.068a19.35 19.35 0 01-.61-.372c-.062-.04-.122-.082-.183-.123a24.109 24.109 0 01-.396-.261 22.153 22.153 0 01-.822-.602l-.185-.145c-2.863-2.26-5.132-5.35-6.211-8.852-1.13-3.633-.887-7.71 1.072-11.02" fill="#0868AC"/><path d="M26.271 6.291c-1.736 2.555-1.906 5.73-.702 8.552 1.271 2.995 3.875 5.345 6.913 6.46.125.046.25.088.377.131.055.017.11.036.167.052.179.056.356.122.541.157 8.398 1.622 10.675-4.31 11.282-5.183-1.995 2.873-5.349 3.563-9.462 2.564a12.19 12.19 0 01-2.177-.798 12.227 12.227 0 01-2.073-1.265C27.455 14.168 25.168 8.84 27.57 4.5m93.276 51.562l-2.421 5.513h-2.672l.219-5.01-1.967 5.01h-2.588l-.068-5.513.286-1.361h1.832l-.353 5.445 2.034-5.445h2.555l-.185 5.513 2.017-5.513h1.597l-.286 1.361zm4.217 1.632c.235-1.076.168-1.277-.386-1.277h-.841l-.538 2.521-.824 2.638h-1.563l1.277-5.983.186-.875h1.428l.185.404s.824-.487 1.63-.487c1.715 0 1.58 1.293 1.21 3.059h-1.764zm5.077-3.85c-.688 0-1.126-.202-.958-1.042.185-.84.723-1.043 1.395-1.043.673 0 1.127.202.942 1.043-.169.823-.706 1.041-1.379 1.041zm-.739 7.732h-1.547l.303-2.69.538-2.486-1.075-.236.302-1.462h2.941l-1.462 6.874zm6.706-5.416l-1.933.237-.556 2.621c-.151.723-.151.925.489.925h1.293l-.269 1.378s-1.176.353-1.681.353c-1.983 0-1.966-1.092-1.613-2.723l.538-2.572-1.076-.234.319-1.463h1.127l.639-1.732h1.53l-.371 1.732h1.883l-.319 1.478zm4.016.088c-.907 0-1.378.471-1.562 1.311l2.588-.218c.117-.572-.001-1.093-1.026-1.093zm-1.814 2.554c-.119.842.201 1.127 1.276 1.127h2.706l-.269 1.277s-1.63.453-2.84.453c-3.008 0-3.043-1.696-2.656-3.512.387-1.782 1.075-3.546 3.983-3.546 2.808 0 2.942 1.697 2.252 4.201h-4.452zm10.62 2.772h-1.546l.303-2.689 1.092-5.11-1.077-.251.32-1.463h2.942l-2.034 9.513zm5.585-5.326c-.909 0-1.379.471-1.564 1.311l2.589-.218c.117-.572 0-1.093-1.025-1.093zm-1.816 2.554c-.117.842.202 1.127 1.277 1.127h2.707l-.27 1.277s-1.631.453-2.841.453c-3.008 0-3.042-1.696-2.655-3.512.387-1.782 1.076-3.546 3.983-3.546 2.807 0 2.942 1.697 2.253 4.201h-4.454zm11.545-2.47s-1.966.016-2.504.016c-1.144 0-1.261.352-1.345.721l-.068.337 3.631.27s.017 1.159-.134 1.814c-.219 1.093-1.345 2.201-3.378 2.201-1.009 0-2.64-.385-2.64-.385l.286-1.328h2.505c1.109 0 1.261-.303 1.329-.605l.083-.436-3.563-.27s-.134-.892.05-1.781c.27-1.212 1.378-2.253 3.412-2.253 1.008 0 2.638.369 2.638.369l-.302 1.33zm6.758 0s-1.966.016-2.505.016c-1.142 0-1.26.352-1.344.721l-.068.337 3.631.27s.017 1.159-.134 1.814c-.218 1.093-1.345 2.201-3.378 2.201-1.009 0-2.639-.385-2.639-.385l.286-1.328h2.504c1.109 0 1.26-.303 1.329-.605l.083-.436-3.563-.27s-.134-.892.05-1.781c.27-1.212 1.378-2.253 3.413-2.253 1.007 0 2.637.369 2.637.369l-.302 1.33zm2.116 6.337h-1.344l.05-1.01c-.488-.031-.74-.384-.622-.974.185-.84.706-1.041 1.395-1.041.672 0 1.125.2.941 1.04l-.42 1.985zm8.991-6.27c-1.008 0-1.361.605-1.597 1.715-.235 1.11-.168 1.764.84 1.764h1.395l.774-3.478h-1.412zm2.303 4.285l-.186.892-1.411-.017-.202-.437s-1.245.537-2.084.537c-2.152 0-2.253-1.764-1.866-3.546.386-1.815 1.227-3.53 3.362-3.53.774 0 1.815.387 1.815.387l.857-2.908h1.547l-1.832 8.622zm5.564-4.353c-1.311 0-1.732.738-1.966 1.814-.219 1.093-.117 1.833 1.175 1.833 1.346 0 1.749-.723 1.984-1.833.236-1.042.168-1.814-1.193-1.814zm-1.143 5.345c-2.773 0-2.992-1.73-2.622-3.53.387-1.798 1.362-3.513 4.135-3.513 2.756 0 3.009 1.715 2.621 3.513-.386 1.832-1.361 3.53-4.134 3.53zm15.734-.102l.303-2.656.151-.756c.219-1.008.354-1.747-.706-1.747h-.823c.034.52-.068 1.11-.202 1.73l-.723 3.43h-1.563l.303-2.657.151-.756c.219-1.008.352-1.747-.705-1.747h-.673l-1.11 5.16h-1.799l1.463-6.874h1.411l.219.42s.959-.505 1.732-.505c.587 0 1.025.27 1.176.605.336-.185 1.294-.605 1.984-.605 2.15 0 2.084 1.747 1.697 3.53l-.723 3.429h-1.563zm7.144-5.243c-1.312 0-1.732.738-1.966 1.814-.219 1.093-.117 1.833 1.176 1.833 1.344 0 1.749-.723 1.984-1.833.234-1.042.167-1.814-1.194-1.814zm-1.143 5.345c-2.775 0-2.992-1.73-2.622-3.53.386-1.798 1.361-3.513 4.135-3.513 2.757 0 3.008 1.715 2.621 3.513-.386 1.832-1.361 3.53-4.134 3.53zm8.805-3.982c.234-1.076.168-1.277-.386-1.277h-.842l-.538 2.521-.824 2.638h-1.562l1.277-5.983.185-.875h1.429l.184.404s.824-.487 1.631-.487c1.714 0 1.579 1.293 1.21 3.059h-1.764zm6.02-1.447c-.907 0-1.378.472-1.562 1.312l2.587-.218c.118-.572 0-1.093-1.025-1.093zm-1.815 2.555c-.117.842.201 1.127 1.277 1.127h2.706l-.269 1.277s-1.63.453-2.84.453c-3.008 0-3.042-1.696-2.657-3.512.388-1.782 1.077-3.546 3.984-3.546 2.806 0 2.942 1.697 2.252 4.201h-4.453zm5.964 2.875c-.707 0-1.143-.202-.958-1.025.167-.842.688-1.043 1.395-1.043.655 0 1.109.2.941 1.043-.186.806-.722 1.025-1.378 1.025z" fill="#0868AC"/></g><defs><clipPath id="prefix__clip0_1_202"><path fill="#fff" d="M0 0h256v62.669H0z"/></clipPath></defs></svg>