<svg xmlns="http://www.w3.org/2000/svg" width="100" height="96.334" fill="none" viewBox="0 0 100 96.334">
  <g fill="#0868ac" clip-path="url(#a)" transform="translate(-.16 -9.782)scale(2.17375)">
    <path d="M2.995 14.908c-4.073 5.854-3.566 13.47-.455 19.69q.112.224.228.443c.05.093.095.188.146.28q.044.083.09.161a24 24 0 0 0 .459.8l.17.279q.169.27.345.539.074.114.147.227.243.363.499.72l.014.02q.042.056.085.112.223.307.454.605l.172.218a26 26 0 0 0 1.178 1.39l.023.025q.61.663 1.262 1.286.098.096.194.185.326.307.662.602.057.05.113.096.293.254.591.5l.246.195q.243.196.493.386l.264.2q.274.203.553.398.102.072.202.142.028.02.055.04.267.18.538.355.116.079.233.155.416.265.842.516l.232.131q.315.181.632.355.174.091.35.18.225.12.452.235l.105.05q.091.043.184.09a26 26 0 0 0 1.704.747q.102.042.204.08a28 28 0 0 0 1.767.614q.105.031.212.064c.3.09.598.199.907.256 19.698 3.592 25.42-11.837 25.42-11.837-4.805 6.26-13.335 7.911-21.417 6.073-.306-.07-.603-.165-.902-.253a26 26 0 0 1-1.093-.35l-.12-.044a28 28 0 0 1-.765-.284q-.107-.042-.215-.084a25 25 0 0 1-.826-.344q-.083-.037-.166-.072a38 38 0 0 1-.899-.422c-.18-.088-.36-.182-.54-.274-.119-.063-.24-.123-.36-.189a21 21 0 0 1-.646-.363l-.218-.121a35 35 0 0 1-.842-.516q-.114-.075-.227-.152-.303-.194-.6-.398c-.065-.044-.128-.092-.193-.135a33 33 0 0 1-.566-.41 42 42 0 0 1-.99-.772 29 29 0 0 1-.637-.536l-.07-.059q-.34-.3-.67-.608l-.188-.182a20 20 0 0 1-.48-.471l-.19-.188q-.3-.309-.59-.624l-.028-.031q-.306-.335-.599-.681l-.157-.187q-.22-.263-.43-.532a8 8 0 0 1-.158-.197q-.254-.329-.498-.662C4.2 26.25 2.59 17.81 6.174 10.876"/>
    <path d="M15.638 9.976c-2.945 4.239-2.785 9.913-.488 14.396q.578 1.131 1.303 2.175c.441.632.93 1.384 1.516 1.893q.32.35.661.686.087.087.174.172.329.321.676.628.014.011.027.024l.007.006q.384.335.788.652l.18.14q.402.31.824.602l.024.019c.124.086.25.165.377.248q.088.06.178.118.301.194.611.374l.087.05q.268.155.54.302.096.052.193.1.187.1.378.196.029.014.057.026.388.192.788.368.086.037.174.071c.214.09.43.18.646.262q.14.053.277.102.296.108.594.207l.268.086c.284.088.563.199.859.248 15.208 2.52 18.72-9.19 18.72-9.19-3.166 4.559-9.295 6.733-15.835 5.035q-.565-.149-1.12-.332a20 20 0 0 1-1.523-.57q-.089-.037-.175-.075a19 19 0 0 1-.793-.368q-.2-.1-.398-.203l-.23-.118a19 19 0 0 1-.503-.284l-.12-.068a19 19 0 0 1-.61-.372q-.092-.06-.183-.123a24 24 0 0 1-.396-.261 22 22 0 0 1-.822-.602l-.185-.145c-2.863-2.26-5.132-5.35-6.211-8.852-1.13-3.633-.887-7.71 1.072-11.02"/>
    <path d="M26.271 6.291c-1.736 2.555-1.906 5.73-.702 8.552 1.271 2.995 3.875 5.345 6.913 6.46q.187.068.377.131.082.027.167.052c.179.056.356.122.541.157 8.398 1.622 10.675-4.31 11.282-5.183-1.995 2.873-5.349 3.563-9.462 2.564a12 12 0 0 1-2.177-.798 12.2 12.2 0 0 1-2.073-1.265C27.455 14.168 25.168 8.84 27.57 4.5"/>
  </g>
  <defs>
    <clipPath id="a">
      <path fill="#fff" d="M0 0h256v62.669H0Z"/>
    </clipPath>
  </defs>
</svg>
