<svg xmlns="http://www.w3.org/2000/svg" xml:space="preserve" width="841.89" height="595.28"><g fill="#6C7A89"><path d="M326.086 310.964v34.47h-20.987v-90.63h20.987v9.614c2.892-3.83 6.097-6.654 9.614-8.471 3.518-1.817 7.562-2.726 12.135-2.726 8.09 0 14.733 3.215 19.932 9.643 5.197 6.43 7.797 14.706 7.797 24.827 0 10.123-2.6 18.399-7.797 24.827-5.198 6.43-11.842 9.644-19.932 9.644-4.573 0-8.618-.909-12.135-2.726-3.517-1.819-6.722-4.641-9.614-8.472zm13.953-42.502c-4.495 0-7.943 1.651-10.347 4.954-2.403 3.303-3.605 8.061-3.605 14.275s1.202 10.972 3.605 14.274c2.404 3.304 5.853 4.954 10.347 4.954s7.923-1.642 10.288-4.925c2.364-3.282 3.547-8.05 3.547-14.303 0-6.252-1.183-11.021-3.547-14.304-2.365-3.283-5.795-4.925-10.288-4.925zM382.156 229.244h20.987v91.217h-20.987v-91.217zM413.722 294.901v-40.098h21.104v6.566c0 3.557-.021 8.022-.059 13.396-.04 5.374-.059 8.96-.059 10.757 0 5.276.136 9.078.41 11.402.272 2.326.742 4.016 1.406 5.07.859 1.369 1.983 2.424 3.371 3.166 1.387.743 2.98 1.114 4.777 1.114 4.377 0 7.816-1.681 10.318-5.042 2.5-3.36 3.752-8.031 3.752-14.011v-32.418h20.986v65.658h-20.986v-9.497c-3.166 3.831-6.518 6.653-10.055 8.472-3.537 1.816-7.436 2.726-11.695 2.726-7.582 0-13.356-2.325-17.322-6.976-3.965-4.651-5.948-11.413-5.948-20.285zM551.863 265.707c2.656-4.064 5.812-7.161 9.467-9.292 3.654-2.13 7.67-3.195 12.047-3.195 7.543 0 13.287 2.326 17.236 6.976 3.946 4.651 5.92 11.412 5.92 20.283v39.981H575.43v-34.236c.038-.507.067-1.035.088-1.583.02-.547.029-1.329.029-2.345 0-4.65-.685-8.021-2.053-10.112-1.368-2.09-3.576-3.136-6.624-3.136-3.986 0-7.063 1.641-9.233 4.924-2.168 3.283-3.293 8.031-3.37 14.245v32.243h-21.104v-34.236c0-7.269-.625-11.949-1.876-14.04-1.251-2.09-3.479-3.136-6.683-3.136-4.025 0-7.133 1.651-9.321 4.954-2.189 3.303-3.282 8.022-3.282 14.157v32.301h-21.105v-65.658H512v9.614c2.578-3.712 5.539-6.507 8.881-8.383 3.342-1.875 7.024-2.813 11.051-2.813 4.533 0 8.538 1.094 12.018 3.283 3.477 2.189 6.114 5.257 7.913 9.204zM628.217 264.417c2.891-3.83 6.096-6.654 9.613-8.471 3.518-1.817 7.562-2.726 12.135-2.726 8.09 0 14.734 3.215 19.932 9.643 5.197 6.43 7.797 14.706 7.797 24.827 0 10.123-2.6 18.399-7.797 24.827-5.197 6.43-11.842 9.644-19.932 9.644-4.572 0-8.617-.909-12.135-2.726-3.518-1.818-6.723-4.641-9.613-8.472v9.497h-20.988v-91.217h20.988v35.174zm13.951 42.502c4.494 0 7.924-1.642 10.289-4.925 2.363-3.282 3.547-8.05 3.547-14.303 0-6.252-1.184-11.021-3.547-14.304-2.365-3.283-5.795-4.924-10.289-4.924s-7.943 1.651-10.346 4.954c-2.404 3.303-3.605 8.061-3.605 14.275s1.201 10.972 3.605 14.274c2.403 3.303 5.852 4.953 10.346 4.953z"/></g><path fill="#5BAADE" d="M226.977 355.938c0 4.434-.341 8.436-1.016 12.009-.678 3.572-1.94 6.652-3.788 9.24-1.848 2.586-4.342 4.586-7.483 6.004-3.141 1.414-7.177 2.125-12.102 2.125-2.957 0-5.913-.555-8.869-1.664l1.663-9.792c2.586.984 4.925 1.478 7.021 1.478 2.956 0 5.326-.525 7.113-1.57 1.785-1.047 3.141-2.402 4.065-4.064.923-1.663 1.539-3.603 1.848-5.82.306-2.217.461-4.559.461-7.021V248.094h11.086v107.844z"/><path fill="#FFF" d="M213.12 232.321c0-2.337.799-4.309 2.402-5.912 1.599-1.599 3.571-2.402 5.913-2.402 2.338 0 4.31.804 5.913 2.402 1.599 1.603 2.402 3.575 2.402 5.912 0 2.342-.803 4.314-2.402 5.914-1.603 1.602-3.575 2.402-5.913 2.402-2.341 0-4.314-.8-5.913-2.402-1.603-1.6-2.402-3.572-2.402-5.914z"/><path fill="#5BAADE" d="M221.435 224.007c2.338 0 4.31.804 5.913 2.402 1.599 1.603 2.402 3.575 2.402 5.912 0 2.342-.803 4.314-2.402 5.914-1.603 1.602-3.575 2.402-5.913 2.402-2.341 0-4.314-.8-5.913-2.402-1.603-1.6-2.402-3.572-2.402-5.914 0-2.337.799-4.309 2.402-5.912 1.599-1.598 3.571-2.402 5.913-2.402m0-2c-2.879 0-5.344 1.005-7.327 2.988-1.983 1.983-2.988 4.448-2.988 7.326 0 2.883 1.005 5.349 2.989 7.33 1.977 1.981 4.443 2.986 7.326 2.986 2.878 0 5.343-1.005 7.326-2.987 1.983-1.985 2.988-4.45 2.988-7.329 0-2.873-1.004-5.337-2.986-7.324-1.99-1.985-4.454-2.99-7.328-2.99zM241.942 319.17c2.338 4.559 5.788 8.037 10.347 10.439 4.556 2.401 9.359 3.602 14.412 3.602 2.337 0 4.679-.367 7.021-1.107 2.338-.738 4.435-1.784 6.282-3.141a17.138 17.138 0 0 0 4.527-4.896c1.169-1.908 1.755-4.094 1.755-6.56 0-3.94-1.265-6.897-3.788-8.868-2.526-1.969-5.635-3.511-9.331-4.619-3.695-1.109-7.76-2.062-12.194-2.865-4.435-.798-8.5-2.031-12.195-3.694-3.695-1.662-6.807-3.973-9.331-6.929-2.526-2.957-3.788-7.142-3.788-12.564 0-4.186.86-7.821 2.586-10.901 1.724-3.077 3.972-5.636 6.744-7.668 2.771-2.032 5.881-3.54 9.331-4.526a38.147 38.147 0 0 1 10.532-1.479c7.021 0 13.086 1.293 18.199 3.88 5.11 2.587 9.083 6.651 11.917 12.194l-9.978 5.912c-2.095-3.94-4.711-6.928-7.852-8.961-3.141-2.032-7.238-3.048-12.287-3.048-1.972 0-4.036.309-6.19.924-2.157.618-4.097 1.478-5.82 2.586a14.984 14.984 0 0 0-4.342 4.25c-1.172 1.725-1.755 3.695-1.755 5.912 0 3.819 1.262 6.65 3.788 8.499 2.522 1.847 5.635 3.296 9.331 4.341 3.695 1.048 7.76 1.941 12.194 2.679 4.434.74 8.499 1.94 12.194 3.603 3.695 1.664 6.805 4.065 9.331 7.206 2.524 3.142 3.788 7.607 3.788 13.396 0 4.434-.832 8.284-2.494 11.547a23.913 23.913 0 0 1-6.836 8.223c-2.895 2.218-6.189 3.88-9.885 4.989-3.696 1.108-7.576 1.662-11.64 1.662-7.391 0-14.134-1.417-20.232-4.249-6.097-2.832-10.809-7.207-14.134-13.119l9.793-6.65z"/><path fill="#FFF" d="M171.902 375.73c0-2.338.8-4.311 2.401-5.914 1.601-1.598 3.572-2.402 5.914-2.402 2.337 0 4.311.805 5.912 2.402 1.599 1.604 2.402 3.576 2.402 5.914 0 2.34-.803 4.312-2.402 5.913-1.602 1.601-3.575 2.402-5.912 2.402-2.342 0-4.313-.802-5.914-2.402-1.6-1.6-2.401-3.573-2.401-5.913z"/><path fill="#5BAADE" d="M180.218 367.414c2.337 0 4.311.805 5.912 2.402 1.599 1.604 2.402 3.576 2.402 5.914 0 2.34-.803 4.312-2.402 5.913-1.602 1.601-3.575 2.402-5.912 2.402-2.342 0-4.313-.802-5.914-2.402-1.601-1.601-2.401-3.573-2.401-5.913 0-2.338.8-4.311 2.401-5.914 1.6-1.597 3.572-2.402 5.914-2.402m0-2c-2.876 0-5.341 1.006-7.327 2.987-1.983 1.986-2.988 4.451-2.988 7.329 0 2.881 1.005 5.347 2.988 7.328 1.982 1.982 4.448 2.987 7.328 2.987 2.877 0 5.342-1.005 7.326-2.987 1.983-1.984 2.988-4.449 2.988-7.328 0-2.875-1.004-5.34-2.986-7.326-1.991-1.984-4.455-2.99-7.329-2.99z"/></svg>