<svg xmlns="http://www.w3.org/2000/svg" viewBox="0 0 320 200">
    <g stroke="#eee" stroke-width="2">
        <path d="M67.871094 164.3125c0 7.535156-.847656 13.621094-2.542969 18.253906-1.695313 4.636719-4.105469 8.234375-7.234375 10.796875-3.125 2.5625-6.875 4.277344-11.246094 5.144531-4.371094.863282-9.234375 1.296876-14.582031 1.296876-7.238281 0-12.777344-1.128907-16.617187-3.390626-3.84375-2.261718-5.765626-4.972656-5.765626-8.140624 0-2.636719 1.070313-4.859376 3.21875-6.667969 2.148438-1.808594 5.03125-2.710938 8.648438-2.710938 2.714844 0 4.882812.734375 6.5 2.203125 1.621094 1.46875 2.960938 2.921875 4.015625 4.351563 1.203125 1.582031 2.222656 2.636719 3.050781 3.164062.828125.527344 1.582032.792969 2.261719.792969 1.429687 0 2.523437-.847656 3.277344-2.542969.753906-1.695312 1.128906-4.992187 1.128906-9.890625V84.050781l25.886719-7.121093V164.3125m36.867187-84.898438v59.800782c0 1.660156.320313 3.222656.960938 4.691406.640625 1.46875 1.527343 2.734375 2.65625 3.789062 1.132812 1.054688 2.449219 1.902344 3.957031 2.542969 1.507812.640625 3.128906.960938 4.863281.960938 1.957031 0 4.183594-1.097657 6.894531-2.996094 4.292969-3.007813 6.894532-5.074219 6.894532-7.519531V79.414062h25.773437V164.3125h-25.773437v-7.914062c-3.390625 2.863281-7.007813 5.160156-10.851563 6.894531-3.84375 1.734375-7.574219 2.601562-11.191406 2.601562-4.21875 0-8.140625-.699219-11.757813-2.09375-3.617187-1.394531-6.78125-3.296875-9.492187-5.707031-2.714844-2.410156-4.84375-5.238281-6.390625-8.480469-1.542969-3.238281-2.316406-6.707031-2.316406-10.398437V79.414062h25.773437m88.144531 84.898438h-25.660156V45.277344l25.660156-7.121094V164.3125m10.71875-80.261719L229.375 76.929688V164.3125h-25.773438V84.050781m79.625 36.398438c-2.488281 1.058593-4.996093 2.28125-7.519531 3.675781-2.523437 1.394531-4.824219 2.921875-6.894531 4.578125-2.074219 1.65625-3.75 3.429687-5.03125 5.3125s-1.921875 3.84375-1.921875 5.878906c0 1.582031.207031 3.109375.621094 4.578125.414062 1.46875 1 2.730469 1.753906 3.785156.753906 1.054688 1.582031 1.902344 2.488281 2.542969.902344.640625 1.882813.960938 2.9375.960938 2.109375 0 4.238282-.640625 6.386719-1.921875 2.148437-1.28125 4.539063-2.898438 7.179687-4.859375v-24.53125m25.882813 43.863281h-25.882813v-6.785156c-1.433593 1.207031-2.828124 2.320312-4.183593 3.335937-1.355469 1.015625-2.882813 1.902344-4.578125 2.65625-1.695313.753907-3.597656 1.335938-5.710938 1.753907-2.109375.414062-4.597656.621093-7.457031.621093-3.921875 0-7.445313-.566406-10.570313-1.695312-3.128906-1.132813-5.785156-2.675781-7.96875-4.636719-2.1875-1.957031-3.863281-4.277344-5.03125-6.953125-1.167968-2.671875-1.753906-5.59375-1.753906-8.757813 0-3.242187.621094-6.179687 1.867188-8.820312 1.242187-2.636719 2.9375-5.007812 5.085937-7.121094 2.148438-2.109375 4.652344-3.992187 7.515625-5.652344 2.863282-1.65625 5.9375-3.183593 9.214844-4.578124 3.277344-1.394532 6.6875-2.671876 10.230469-3.839844 3.539062-1.167969 7.046875-2.28125 10.511719-3.335938l2.828124-.679687v-8.363281c0-5.425782-1.039062-9.269532-3.109374-11.53125-2.074219-2.261719-4.84375-3.390626-8.308594-3.390626-4.070313 0-6.898438.980469-8.480469 2.9375-1.582031 1.960938-2.375 4.332032-2.375 7.121094 0 1.582032-.167969 3.128906-.507813 4.636719-.335937 1.507813-.921874 2.824219-1.75 3.957031-.828124 1.128906-2.015624 2.035156-3.5625 2.710938-1.542968.679687-3.484374 1.019531-5.820312 1.019531-3.617188 0-6.554688-1.039063-8.816406-3.109375-2.261719-2.074219-3.390625-4.691406-3.390625-7.859375 0-2.9375.996093-5.667969 2.992187-8.191406 2-2.527344 4.691406-4.695313 8.085938-6.5 3.390625-1.8125 7.308594-3.242188 11.753906-4.296875 4.445312-1.054688 9.15625-1.582032 14.128906-1.582032 6.105469 0 11.363282.546876 15.773438 1.636719 4.40625 1.09375 8.042968 2.65625 10.90625 4.691407 2.863281 2.035156 4.972656 4.484374 6.328125 7.347656 1.359375 2.863281 2.035156 6.070312 2.035156 9.609375V164.3125"/>
        <path fill="#CB3C33" d="M235.273438 55.089844c0 9.667968-7.835938 17.5-17.5 17.5-9.667969 0-17.5-7.832032-17.5-17.5 0-9.664063 7.832031-17.5 17.5-17.5 9.664062 0 17.5 7.835937 17.5 17.5"/>
        <path fill="#4063D8" d="M72.953125 55.089844c0 9.667968-7.835937 17.5-17.5 17.5-9.664063 0-17.5-7.832032-17.5-17.5 0-9.664063 7.835937-17.5 17.5-17.5 9.664063 0 17.5 7.835937 17.5 17.5"/>
        <path fill="#9558B2" d="M277.320312 55.089844c0 9.667968-7.835937 17.5-17.5 17.5-9.664062 0-17.5-7.832032-17.5-17.5 0-9.664063 7.835938-17.5 17.5-17.5 9.664063 0 17.5 7.835937 17.5 17.5"/>
        <path fill="#389826" d="M256.300781 18.671875c0 9.664063-7.835937 17.5-17.5 17.5-9.667969 0-17.5-7.835937-17.5-17.5 0-9.664063 7.832031-17.5 17.5-17.5 9.664063 0 17.5 7.835937 17.5 17.5"/>
    </g>
</svg>