<svg xmlns="http://www.w3.org/2000/svg" id="Layer_1" data-name="Layer 1" viewBox="0 0 171.11 190.03"><defs><style>.cls-1,.cls-2{fill-rule:evenodd}.cls-1{fill:#6950a1}.cls-2{fill:#fdb614}</style></defs><path d="M40.38 52.2c-10.57 0-19.22 8.73-19.22 19.41v5.15h9.33v-5.15c0-5.5 4.45-9.99 9.89-9.99h5.1V52.2h-5.1ZM110.59 161.94c10.57 0 19.22-8.76 19.22-19.44v-5.15h-9.33v5.15c0 5.53-4.45 10.02-9.89 10.02h-5.1v9.42h5.1Z" class="cls-1"/><path d="M66.77 103.7c-4.25 0-7.71-3.46-7.71-7.76s3.46-7.79 7.71-7.79 7.71 3.49 7.71 7.79-3.46 7.76-7.71 7.76Zm8.73-23.27c-14.57 0-26.36 11.91-26.36 26.63s11.79 26.63 26.36 26.63 26.36-11.91 26.36-26.63S90.04 80.43 75.5 80.43Z" style="fill:#6950a1"/><path d="M125.16 28.12c0 6.1-1.93 11.77-5.16 16.41-1.79 3.29-4.2 5.67-7.51 7.39-4.48 3.01-9.86 4.78-15.62 4.78h-.23v.2h.23c6.38 0 12.3 2.18 17.04 5.81 2.27 1.43 4.08 3.24 5.5 5.53 3.6 4.81 5.75 10.77 5.75 17.24v.23h.23v-.23c0-5.73 1.67-11.05 4.56-15.52 1.76-3.55 4.2-6.1 7.63-7.93 4.56-3.24 10.12-5.12 16.1-5.12v-.2c-5.44 0-10.54-1.57-14.88-4.29-4.34-2-7.26-4.95-9.21-9.36-2.66-4.35-4.2-9.45-4.2-14.92v-.03h-.23v.03ZM105.04 28.09c0 1.8-.57 3.46-1.5 4.84-.54.97-1.25 1.69-2.24 2.18-1.3.89-2.89 1.43-4.59 1.43h-.06v.06h.06c1.9 0 3.63.63 5.02 1.72.68.4 1.22.94 1.62 1.6 1.08 1.43 1.7 3.18 1.7 5.1v.06h.09v-.06c0-1.69.48-3.26 1.33-4.58.51-1.03 1.25-1.8 2.24-2.35 1.36-.94 3-1.49 4.76-1.49v-.06c-1.62 0-3.12-.49-4.39-1.29-1.28-.57-2.13-1.46-2.72-2.75-.77-1.29-1.22-2.78-1.22-4.41h-.09Z" class="cls-2"/><path d="M40.38 161.94c-10.57 0-19.22-8.76-19.22-19.44v-5.15h9.33v5.15c0 5.53 4.45 10.02 9.89 10.02h5.1v9.42h-5.1Z" class="cls-1"/></svg>