<svg width="267" height="230" viewBox="0 0 267 230" fill="none" xmlns="http://www.w3.org/2000/svg">
<path d="M96.0643 0C114.12 0 130.343 3.95124 144.731 11.8537C159.12 19.7563 170.546 32.1745 179.01 49.1085C187.756 66.0424 192.129 88.0565 192.129 115.151C192.129 142.245 187.756 164.259 179.01 181.193C170.546 197.845 159.12 210.122 144.731 218.025C130.343 225.927 114.12 229.878 96.0643 229.878C78.2903 229.878 62.068 225.927 47.3973 218.025C33.0089 210.122 21.4417 197.845 12.6957 181.193C4.23192 164.259 0 142.245 0 115.151C0 88.0565 4.23192 66.0424 12.6957 49.1085C21.4417 32.1745 33.0089 19.7563 47.3973 11.8537C62.068 3.95124 78.2903 0 96.0643 0ZM96.0643 8.46699C79.9831 8.46699 66.7231 16.7928 56.2844 33.4445C46.1278 50.0963 41.0495 77.3317 41.0495 115.151C41.0495 152.97 46.1278 180.205 56.2844 196.857C66.7231 213.227 79.9831 221.411 96.0643 221.411C112.146 221.411 125.264 213.227 135.421 196.857C145.86 180.205 151.079 152.97 151.079 115.151C151.079 77.3317 145.86 50.0963 135.421 33.4445C125.264 16.7928 112.146 8.46699 96.0643 8.46699Z" fill="#F2F2F2"/>
<path d="M170.659 0C188.715 0 204.937 3.95124 219.326 11.8537C233.714 19.7563 245.14 32.1745 253.604 49.1085C262.35 66.0424 266.723 88.0565 266.723 115.151C266.723 142.245 262.35 164.259 253.604 181.193C245.14 197.845 233.714 210.122 219.326 218.025C204.937 225.927 188.715 229.878 170.659 229.878C152.885 229.878 136.663 225.927 121.992 218.025C107.603 210.122 96.0362 197.845 87.2903 181.193C78.8264 164.259 74.5945 142.245 74.5945 115.151C74.5945 88.0565 78.8264 66.0424 87.2903 49.1085C96.0362 32.1745 107.603 19.7563 121.992 11.8537C136.663 3.95124 152.885 0 170.659 0ZM170.659 8.46699C154.578 8.46699 141.318 16.7928 130.879 33.4445C120.722 50.0963 115.644 77.3317 115.644 115.151C115.644 152.97 120.722 180.205 130.879 196.857C141.318 213.227 154.578 221.411 170.659 221.411C186.74 221.411 199.859 213.227 210.016 196.857C220.454 180.205 225.674 152.97 225.674 115.151C225.674 77.3317 220.454 50.0963 210.016 33.4445C199.859 16.7928 186.74 8.46699 170.659 8.46699Z" fill="#F2F2F2"/>
</svg>
