<svg width="2326" height="840" viewBox="0 0 2326 840" fill="none" xmlns="http://www.w3.org/2000/svg">
<path d="M174.672 0V727.368C174.672 756.842 179.933 776.842 190.455 787.368C200.978 797.895 218.866 803.158 244.119 803.158V825.263C232.895 824.561 216.06 823.86 193.612 823.158C171.866 821.754 149.769 821.053 127.321 821.053C103.47 821.053 79.2686 821.754 54.7164 823.158C30.1642 823.86 11.9254 824.561 0 825.263V803.158C28.7612 803.158 49.1045 797.895 61.0298 787.368C73.6567 776.842 79.9701 756.842 79.9701 727.368V126.316C79.9701 94.7368 74.3582 71.5789 63.1343 56.8421C51.9104 41.4035 30.8657 33.6842 0 33.6842V11.5789C22.4478 13.6842 44.194 14.7368 65.2388 14.7368C85.5821 14.7368 104.873 13.6842 123.112 11.5789C142.052 8.77194 159.239 4.9123 174.672 0ZM509.283 283.158V304.211C491.746 305.614 475.261 310.526 459.828 318.947C444.395 326.667 429.313 338.246 414.582 353.684L266.216 509.474L280.948 480L476.664 748.421C488.589 764.561 499.813 777.193 510.336 786.316C521.56 795.439 534.888 801.053 550.321 803.158V825.263C542.604 824.561 530.328 823.86 513.492 823.158C497.358 821.754 481.224 821.053 465.089 821.053C443.343 821.053 421.246 821.754 398.798 823.158C376.351 823.86 359.515 824.561 348.291 825.263V803.158C362.321 803.158 372.142 799.649 377.754 792.632C383.366 785.614 382.313 777.193 374.597 767.368L253.589 590.526C240.261 571.579 227.985 559.298 216.761 553.684C206.239 548.07 190.806 544.912 170.463 544.211V523.158C192.91 520.351 211.149 515.789 225.179 509.474C239.209 502.456 252.537 492.281 265.164 478.947L343.03 397.895C365.478 374.737 376.701 356.491 376.701 343.158C376.701 329.123 369.336 319.298 354.604 313.684C340.575 307.368 321.985 304.211 298.836 304.211V283.158C317.075 283.86 337.418 284.912 359.866 286.316C383.015 287.018 402.306 287.368 417.739 287.368C429.664 287.368 441.239 287.368 452.463 287.368C463.686 286.667 474.209 285.965 484.03 285.263C493.851 284.561 502.269 283.86 509.283 283.158Z" fill="#1A1A1A"/>
<path d="M857.369 268.421C884.026 268.421 906.123 271.93 923.66 278.947C941.899 285.965 956.981 295.789 968.906 308.421C982.234 322.456 991.705 340 997.317 361.053C1002.93 382.105 1005.73 410.526 1005.73 446.316V727.368C1005.73 756.842 1011.7 776.842 1023.62 787.368C1036.25 797.895 1056.94 803.158 1085.7 803.158V825.263C1073.78 824.561 1055.54 823.86 1030.99 823.158C1006.44 821.754 982.585 821.053 959.436 821.053C936.287 821.053 913.488 821.754 891.041 823.158C869.294 823.86 852.809 824.561 841.585 825.263V803.158C866.839 803.158 884.727 797.895 895.25 787.368C905.772 776.842 911.033 756.842 911.033 727.368V423.158C911.033 401.404 909.279 381.404 905.772 363.158C902.264 344.912 894.197 330.175 881.57 318.947C869.645 307.719 851.055 302.105 825.802 302.105C796.339 302.105 770.384 310.526 747.936 327.368C726.19 344.211 709.003 367.368 696.376 396.842C684.451 425.614 678.488 457.895 678.488 493.684V727.368C678.488 756.842 683.75 776.842 694.272 787.368C704.794 797.895 722.682 803.158 747.936 803.158V825.263C736.712 824.561 719.876 823.86 697.429 823.158C675.682 821.754 653.235 821.053 630.085 821.053C606.936 821.053 583.085 821.754 558.533 823.158C533.981 823.86 515.742 824.561 503.817 825.263V803.158C532.578 803.158 552.921 797.895 564.847 787.368C577.473 776.842 583.787 756.842 583.787 727.368V397.895C583.787 366.316 578.175 343.158 566.951 328.421C555.727 312.982 534.682 305.263 503.817 305.263V283.158C526.264 285.263 548.011 286.316 569.055 286.316C589.399 286.316 608.69 285.263 626.929 283.158C645.869 280.351 663.056 276.491 678.488 271.579V395.789C696.727 348.07 721.981 315.088 754.25 296.842C787.22 277.895 821.593 268.421 857.369 268.421Z" fill="#1A1A1A"/>
<path d="M1305.29 268.421C1350.18 268.421 1390.52 278.246 1426.29 297.895C1462.07 317.544 1490.48 348.421 1511.52 390.526C1533.27 432.632 1544.14 487.368 1544.14 554.737C1544.14 622.105 1533.27 676.842 1511.52 718.947C1490.48 760.351 1462.07 790.877 1426.29 810.526C1390.52 830.175 1350.18 840 1305.29 840C1261.09 840 1220.76 830.175 1184.28 810.526C1148.5 790.877 1119.74 760.351 1097.99 718.947C1076.95 676.842 1066.43 622.105 1066.43 554.737C1066.43 487.368 1076.95 432.632 1097.99 390.526C1119.74 348.421 1148.5 317.544 1184.28 297.895C1220.76 278.246 1261.09 268.421 1305.29 268.421ZM1305.29 289.474C1265.3 289.474 1232.33 310.175 1206.38 351.579C1181.12 392.982 1168.49 460.702 1168.49 554.737C1168.49 648.772 1181.12 716.491 1206.38 757.895C1232.33 798.597 1265.3 818.947 1305.29 818.947C1345.27 818.947 1377.89 798.597 1403.14 757.895C1429.1 716.491 1442.08 648.772 1442.08 554.737C1442.08 460.702 1429.1 392.982 1403.14 351.579C1377.89 310.175 1345.27 289.474 1305.29 289.474Z" fill="#1A1A1A"/>
<path d="M1490.76 268.421C1535.66 268.421 1575.99 278.246 1611.77 297.895C1647.54 317.544 1675.95 348.421 1697 390.526C1718.75 432.632 1729.62 487.368 1729.62 554.737C1729.62 622.105 1718.75 676.842 1697 718.947C1675.95 760.351 1647.54 790.877 1611.77 810.526C1575.99 830.175 1535.66 840 1490.76 840C1446.57 840 1406.23 830.175 1369.75 810.526C1333.98 790.877 1305.22 760.351 1283.47 718.947C1262.42 676.842 1251.9 622.105 1251.9 554.737C1251.9 487.368 1262.42 432.632 1283.47 390.526C1305.22 348.421 1333.98 317.544 1369.75 297.895C1406.23 278.246 1446.57 268.421 1490.76 268.421ZM1490.76 289.474C1450.78 289.474 1417.81 310.175 1391.85 351.579C1366.6 392.982 1353.97 460.702 1353.97 554.737C1353.97 648.772 1366.6 716.491 1391.85 757.895C1417.81 798.597 1450.78 818.947 1490.76 818.947C1530.75 818.947 1563.36 798.597 1588.62 757.895C1614.57 716.491 1627.55 648.772 1627.55 554.737C1627.55 460.702 1614.57 392.982 1588.62 351.579C1563.36 310.175 1530.75 289.474 1490.76 289.474Z" fill="#1A1A1A"/>
<path d="M1894.66 108.421V284.211H2050.4V305.263H1894.66V712.632C1894.66 745.614 1900.63 768.772 1912.55 782.105C1924.48 795.439 1940.96 802.105 1962.01 802.105C1983.05 802.105 2001.29 793.684 2016.72 776.842C2032.16 759.298 2045.48 730.175 2056.71 689.474L2077.75 694.737C2070.74 735.439 2056.71 769.825 2035.66 797.895C2015.32 825.965 1983.75 840 1940.96 840C1917.11 840 1897.47 836.842 1882.04 830.526C1866.6 824.912 1852.92 816.491 1841 805.263C1825.57 789.123 1814.69 769.825 1808.38 747.368C1802.77 724.912 1799.96 695.088 1799.96 657.895V305.263H1698.95V284.211H1799.96V123.158C1817.5 122.456 1834.34 121.053 1850.47 118.947C1866.6 116.842 1881.34 113.333 1894.66 108.421Z" fill="#1A1A1A"/>
<path d="M2140.34 108.421V284.211H2296.07V305.263H2140.34V712.632C2140.34 745.614 2146.3 768.772 2158.22 782.105C2170.15 795.439 2186.64 802.105 2207.68 802.105C2228.72 802.105 2246.96 793.684 2262.4 776.842C2277.83 759.298 2291.16 730.175 2302.38 689.474L2323.43 694.737C2316.41 735.439 2302.38 769.825 2281.34 797.895C2260.99 825.965 2229.43 840 2186.64 840C2162.78 840 2143.14 836.842 2127.71 830.526C2112.28 824.912 2098.6 816.491 2086.67 805.263C2071.24 789.123 2060.37 769.825 2054.05 747.368C2048.44 724.912 2045.64 695.088 2045.64 657.895V305.263H1944.62V284.211H2045.64V123.158C2063.17 122.456 2080.01 121.053 2096.14 118.947C2112.28 116.842 2127.01 113.333 2140.34 108.421Z" fill="#1A1A1A"/>
</svg>
