<svg xmlns="http://www.w3.org/2000/svg" preserveAspectRatio="xMidYMid" viewBox="0 0 256 274">
  <path d="M128 1.3 0 64v148.1L128 275l128-62.8V64.1L128 1.3Z" fill="#0081C2"/>
  <path d="M225.1 185.6c-.4-2.7-1.5-5.3-3-7.4a23.2 23.2 0 0 0-5-5.2 33.4 33.4 0 0 0-12.8-5.8 45.9 45.9 0 0 0 7-13.4 26 26 0 0 0 1-10.3c-.5-3.5-1.8-6.9-3.8-9.6-1-1.3-2-2.6-3.3-3.7l-.9-.7-1-.8-.9-.7-1-.6a1.1 1.1 0 0 0-1.4 1.7l.8.8.7.8.7.8.6.9c.9 1.2 1.6 2.4 2.1 3.6 1.2 2.5 1.6 5.1 1.4 7.7-.2 2.5-1 5-2.2 7.4a32 32 0 0 1-8 10.1l-.4.3s.1-.1 0 0h-.1a25.9 25.9 0 0 1-8.6 3.8 24.7 24.7 0 0 1-13.9-.7h-.3a25.2 25.2 0 0 0 5.7-1.6 19 19 0 0 0 11.4-13.7l.6-3.8a39 39 0 0 0 0-7v-1l-.1-.8-.1-.8-.1-.8v-.3l-.1-.2V134.3l-.2-.7-.2-1.4-.8-5.7-.2-2.8-.2-2.8v-8.5l.3-2.7a36 36 0 0 1 1.1-5.4c.5-1.7 1.2-3.4 2-5 1-1.5 2-2.9 3.3-4a9 9 0 0 1 3.4-1.7l.6-.1.7-.1a1.1 1.1 0 0 0 0-2.2l-.7-.1h-.9a11.1 11.1 0 0 0-5 1.3c-2 1-3.7 2.5-5.1 4.2a27.5 27.5 0 0 0-3.7 5.5c-1 2-1.7 4-2.4 6l-1 3-.6 3.2a83 83 0 0 0-1.8 18.7v5l-.1.6a25.4 25.4 0 0 1-1.5 6.8c-.3.6-.5 1.1-.9 1.5-.6.9-1.2 1.3-1.8 1.6a7 7 0 0 1-2.6.5 15.8 15.8 0 0 1-4.4-.5s-5-1.8-3.4-7.6a9.1 9.1 0 0 1 7-4.9s8.2-63.3-43-104C76.6 72.7 84.8 136 84.8 136c4 .6 6.2 3 7.2 5.3 1.3 5.1-2.9 7-3.4 7.2l-.7.1c-1.4.3-2.7.4-3.8.4a7 7 0 0 1-2.6-.5c-.6-.3-1.2-.7-1.9-1.6l-.8-1.5-.7-2c-.4-1.5-.6-3.1-.8-4.8V135.6l-.1-.2V133a122.8 122.8 0 0 0-1.8-18.7l-.7-3.1-.9-3.1-2.4-6c-1-2-2.2-3.8-3.7-5.5a17.5 17.5 0 0 0-5.2-4.2 12.1 12.1 0 0 0-5-1.3H56a1.1 1.1 0 0 0 0 2.3h.8l.6.2a8.4 8.4 0 0 1 3.4 1.7c1.3 1.1 2.4 2.5 3.2 4a23 23 0 0 1 2 5 36 36 0 0 1 1.2 5.4l.2 2.7.2 2.8v5.7c-.2.9-.2 1.8-.3 2.8a114.7 114.7 0 0 1-1 8.5l-.2 1.4-.1.7V134.6l-.1.1v.4l-.2.8v.8l-.2.9v.8a38.8 38.8 0 0 0 .6 10.9 23.8 23.8 0 0 0 3.8 7.9 18.6 18.6 0 0 0 7.6 5.8 23 23 0 0 0 5.7 1.5l-.3.1a22.7 22.7 0 0 1-14 .7 29 29 0 0 1-8.5-3.7l-.1-.1c-.1-.1 0 0 0 0l-.3-.3a25 25 0 0 1-3.6-3.5A32 32 0 0 1 52 151c-1.2-2.4-2-4.9-2.2-7.4-.2-2.6.2-5.2 1.4-7.7.5-1.2 1.2-2.5 2-3.6l.7-.9.7-.8.7-.8.8-.9a1.1 1.1 0 0 0-1.5-1.7l-1 .7-.9.7-1 .7-.8.8c-1.2 1.1-2.3 2.4-3.3 3.7-2 2.7-3.3 6-3.7 9.6-.5 3.5 0 7 1 10.3a40 40 0 0 0 7 13.4 34.2 34.2 0 0 0-12.9 5.8 23.3 23.3 0 0 0-5 5.2 16.9 16.9 0 0 0-.8 18.6 22.8 22.8 0 0 0 4 5.1l.5.6.3.3.3.3 1 .9a57.4 57.4 0 0 0 14 8.9c3 1.4 6 2.5 9 3.6v.2l.2.5.3.6.6 1 .1.3.2.2.4.5.7.9c2 2.4 4.6 4 7.2 5a20 20 0 0 0 7.9 1.1h1l.9-.1 1-.2.8-.2 1-.2h.4l.5-.2 1-.3.4-.2.4-.1 1.4-.6.1-.1h.3v-.1l.4-.2.6-.3 1.2-.5 1.2-.5a33.7 33.7 0 0 1 15.4-2c1.8.2 3.4.7 5 1.4 1.5.7 2.9 1.6 4 2.7l.4.5.4.5.2.2.2.3.3.5c.4.7.8 1.5 1 2.3l.1.6.1.7v.3l.1.3v2l-.1 1.4a1.1 1.1 0 0 0 2.2.5l.4-1.4.3-1.7.1-.8V229c-.1-1.2-.4-2.3-.7-3.3l-.4-.8-.1-.4-.2-.4-.4-.8-.5-.7-1-1.4-.6-.6-.6-.6a24.7 24.7 0 0 0-8.7-4.9 35.3 35.3 0 0 0-19.4-.5l-1.6.4-1.5.4-.8.3h-.4l-.1.1c.3-.1 0 0 0 0l-1.5.4h-.5l-.5.2h-3.1a9.2 9.2 0 0 1-3.6-1c-1-.6-1.7-1.3-2-2-.5-.8-.5-1.4-.5-2.2.1-.7.4-1.5 1-2.5.5-1 1.3-2 2.3-3 2-1.8 4.7-3.6 7.7-5.1l.6-.3.5-.3 1.2-.5 2.4-1 2.7-1.1 1.4-.6h.2l.2-.1.4-.2.7-.4 2.9-1.4c6-2.7 18.7-7.7 30-7.7s24 5 30 7.7l2.9 1.4.7.4.4.2h.2l.2.1 1.4.6 2.7 1.1 2.4 1 1.1.5.6.3.6.3c3 1.5 5.7 3.3 7.7 5.2 1 1 1.8 2 2.4 2.9.5 1 .8 1.8.9 2.5 0 .8 0 1.4-.4 2.2-.4.7-1.1 1.4-2.1 2-1 .5-2.2.9-3.6 1H173l-.5-.1h-.5l-1.4-.5h-.2s-.2-.1.1 0h-.1l-.4-.1-.8-.3-1.5-.4-1.6-.4a35.3 35.3 0 0 0-19.4.5 24.6 24.6 0 0 0-8.7 4.9l-.6.6-.6.6-1 1.4-.5.7-.4.8-.2.4-.1.4-.4.8c-.3 1-.6 2.1-.7 3.3v2.4l.1.8c0 .6.2 1.1.3 1.7l.4 1.4c.2.5.7.8 1.2.8.6-.1 1-.6 1-1.3l-.1-1.4V230.7l.2-.7.1-.6c.2-.8.6-1.6 1-2.3l.3-.5.2-.3.2-.2.4-.5c0-.2.2-.3.4-.5 1.1-1.1 2.5-2 4-2.7 1.6-.7 3.3-1.2 5-1.4a29.2 29.2 0 0 1 15.4 2l1.2.5 1.2.5.6.3.3.2h.1l.3.1h.1l1.4.7.4.1.5.2 1 .3.4.1.5.1.9.2.9.2 1 .2h.9l1 .1a20 20 0 0 0 7.8-1.1c2.6-1 5.2-2.6 7.2-5l.8-1 .3-.4.2-.2.1-.3.6-1 .3-.6.2-.5v-.2a65 65 0 0 0 23-12.6l1-.8.3-.3.3-.3.6-.6a29.1 29.1 0 0 0 4-5.1l1.4-3.3a17 17 0 0 0 .7-7.9ZM75.5 188l-.7.5-.7.5-1.4 1-.7.6-.7.5-1.3 1.2-1.3 1.3-.6.6-.6.7-1.2 1.4c-1.6 2-3 4.3-4 7-.6 1.2-1 2.7-1.2 4.2l-.2 1.1v.2a91.7 91.7 0 0 1-11.3-8.6c-1.2-1-2.2-2.2-3.2-3.4l-.8-.8-.1-.3-.2-.2-.2-.3a17.3 17.3 0 0 1-1.8-3.4l-.4-1.4c-.1-1 0-1.7.2-2.3.3-.6.7-1.2 1.3-1.8.6-.6 1.4-1.2 2.4-1.7 2-1 4.5-1.8 7-2.2a28.8 28.8 0 0 1 17.3 3.3l.9.4.7.4.5.2.5.3 2 .8-.2.2Zm37-44a4.1 4.1 0 1 1 0-8.3 4.1 4.1 0 0 1 0 8.2Zm31 0a4.1 4.1 0 1 1 0-8.3 4.1 4.1 0 0 1 0 8.2Zm69.6 46.4a9 9 0 0 1-1.1 3l-1 1.8-.3.3-.2.2-.1.2-.8 1A47.9 47.9 0 0 1 199 206a95 95 0 0 1-4 2.6v-1.3a27.5 27.5 0 0 0-5.2-11.1l-1.3-1.5-.6-.7-.6-.6-1.3-1.3-1.3-1.2-.7-.5a10 10 0 0 0-.7-.6l-1.4-1-.7-.5-.7-.5-.3-.2 2.1-.8.5-.3.5-.2.7-.4.9-.4 1.7-1a28.3 28.3 0 0 1 22.6-.1c1 .5 1.8 1 2.4 1.7.6.6 1 1.2 1.3 1.8.2.6.3 1.3.2 2.3Z" fill="#FFF"/>
</svg>
