<svg width="165" height="49" viewBox="0 0 165 49" fill="none" xmlns="http://www.w3.org/2000/svg">
<path d="M53.1078 26.433C53.1078 34.868 42.8135 38.2956 30.0317 38.2956C17.25 38.2956 6.80579 34.868 6.80579 26.433C6.80579 17.9981 17.175 11.1726 29.9568 11.1726C42.7386 11.1726 53.1078 18.013 53.1078 26.433Z" fill="#24A95A"/>
<path d="M50.7571 8.04725C50.7571 3.60623 47.1308 -0.000244141 42.6655 -0.000244141C40.3434 -0.000244141 38.2507 0.976138 36.7757 2.53122C36.5473 2.7721 36.2134 2.88947 35.888 2.82376C34.0195 2.44651 32.0428 2.23517 30.0036 2.23517C27.9646 2.23517 25.9881 2.43403 24.1198 2.82041C23.794 2.88778 23.4587 2.77233 23.2288 2.53185C21.7421 0.976403 19.6503 -0.000244141 17.3417 -0.000244141C12.8763 -0.000244141 9.25008 3.60623 9.25008 8.04725C9.25008 9.34253 9.55652 10.5558 10.0962 11.6349C10.2255 11.8934 10.2385 12.196 10.1267 12.4624C9.60308 13.71 9.325 15.0274 9.325 16.3928C9.325 24.2168 18.5854 30.5504 30.0036 30.5504C41.4217 30.5504 50.6822 24.2168 50.6822 16.3928C50.6822 15.0274 50.4041 13.71 49.8805 12.4624C49.7687 12.196 49.7817 11.8934 49.9109 11.6349C50.4506 10.5558 50.7571 9.34253 50.7571 8.04725Z" fill="#32DA6D"/>
<path d="M14.0572 37.6884C15.1211 37.6884 15.9603 36.7644 15.8404 35.7212C15.4059 32.0253 13.5628 24.0225 5.45616 19.2089C-3.43038 13.9306 0.797484 27.9639 2.56467 33.0767C2.92211 34.1108 2.50758 35.2592 1.55864 35.8039L0.9758 36.1385C0.226576 36.5707 0.54125 37.6884 1.39536 37.6884H14.0572Z" fill="#32DA6D"/>
<path d="M46.262 37.6884C45.303 37.6884 44.5538 36.7644 44.6587 35.7212C45.0333 32.0402 46.7115 24.0225 54.024 19.2089C62.1213 13.8897 58.18 28.183 56.6067 33.1942C56.2981 34.1772 56.6779 35.2472 57.5483 35.7986L58.0848 36.1385C58.7591 36.5707 58.4744 37.6884 57.7101 37.6884H46.262Z" fill="#32DA6D"/>
<path d="M16.6813 12.5118C19.4123 12.5118 21.6262 10.31 21.6262 7.59394C21.6262 4.87785 19.4123 2.67603 16.6813 2.67603C13.9503 2.67603 11.7365 4.87785 11.7365 7.59394C11.7365 10.31 13.9503 12.5118 16.6813 12.5118Z" fill="white"/>
<path d="M43.0618 12.5118C45.7928 12.5118 48.0067 10.31 48.0067 7.59394C48.0067 4.87785 45.7928 2.67603 43.0618 2.67603C40.3309 2.67603 38.117 4.87785 38.117 7.59394C38.117 10.31 40.3309 12.5118 43.0618 12.5118Z" fill="white"/>
<path d="M16.6881 10.5353C18.3172 10.5353 19.638 9.21456 19.638 7.58538C19.638 5.95621 18.3172 4.6355 16.6881 4.6355C15.0589 4.6355 13.7382 5.95621 13.7382 7.58538C13.7382 9.21456 15.0589 10.5353 16.6881 10.5353Z" fill="#092511"/>
<path d="M43.0686 10.5353C44.6978 10.5353 46.0185 9.21456 46.0185 7.58538C46.0185 5.95621 44.6978 4.6355 43.0686 4.6355C41.4394 4.6355 40.1187 5.95621 40.1187 7.58538C40.1187 9.21456 41.4394 10.5353 43.0686 10.5353Z" fill="#092511"/>
<path d="M36.5496 18.9984C37.2809 19.0613 37.8337 19.7102 37.6496 20.4208C37.5008 20.9951 37.2875 21.5522 37.0131 22.0813C36.534 23.0048 35.8777 23.825 35.0817 24.4949C34.2857 25.1648 33.3655 25.6714 32.3737 25.9857C31.3819 26.3 30.3379 26.4158 29.3013 26.3267C28.2647 26.2375 27.2558 25.945 26.3323 25.4659C25.4087 24.9869 24.5886 24.3306 23.9187 23.5346C23.2488 22.7385 22.7422 21.8184 22.4279 20.8266C22.203 20.117 22.0797 19.3806 22.0604 18.6394C22.0477 18.1502 22.4822 17.7882 22.9697 17.8301L36.5496 18.9984Z" fill="#092511"/>
<path d="M75.2651 33.9386C75.2651 35.9449 73.6387 37.5712 71.6325 37.5712C69.6263 37.5712 67.9999 35.9449 67.9999 33.9386L67.9999 5.63261C67.9999 3.62638 69.6263 2 71.6325 2C73.6388 2 75.2651 3.62637 75.2651 5.63261L75.2651 30.3797V33.9386Z" fill="white"/>
<path d="M71.6241 37.6282C69.6225 37.6282 67.9999 36.0056 67.9999 34.004C67.9999 32.0024 69.6225 30.3797 71.6241 30.3797H75.2651H83.2955C85.2972 30.3797 86.9198 32.0024 86.9198 34.004C86.9198 36.0056 85.2972 37.6282 83.2955 37.6282H71.6241Z" fill="white"/>
<path d="M99.0925 38.3935C96.7336 38.3935 94.6264 37.8589 92.7708 36.7895C90.9466 35.7202 89.4998 34.2577 88.4305 32.4021C87.3926 30.515 86.8736 28.3606 86.8736 25.9389C86.8736 23.4857 87.3769 21.3313 88.3833 19.4757C89.4212 17.5886 90.8522 16.1104 92.6764 15.0411C94.5006 13.9717 96.5921 13.4371 98.9509 13.4371C101.436 13.4371 103.574 13.956 105.367 14.9939C107.16 16.0003 108.544 17.4471 109.519 19.3342C110.494 21.1898 110.981 23.4071 110.981 25.9861C110.981 27.0036 110.159 27.8298 109.141 27.8345L92.9887 27.9096C91.7316 27.9155 90.7168 26.8839 90.7433 25.627C90.7689 24.411 91.762 23.4385 92.9783 23.4385H100.419C102.266 23.4385 103.895 21.6641 102.489 20.4664C101.64 19.7116 100.476 19.3342 98.9981 19.3342C97.7715 19.3342 96.7651 19.57 95.9788 20.0418C95.224 20.5136 94.6578 21.2527 94.2804 22.2591C93.903 23.2341 93.7143 24.4921 93.7143 26.0333C93.7143 28.2348 94.1546 29.8703 95.0353 30.9396C95.9473 31.9775 97.3469 32.4965 99.234 32.4965C100.618 32.4965 101.766 32.2606 102.678 31.7888C102.715 31.7695 102.752 31.7499 102.788 31.73C104.135 30.9884 105.479 29.8074 107.016 29.8074C109.149 29.8074 110.825 31.7954 109.648 33.5736C109.022 34.5202 108.208 35.3563 107.207 36.0819C105.037 37.623 102.332 38.3935 99.0925 38.3935Z" fill="white"/>
<path d="M120.863 38.2417C118.378 38.2417 116.397 37.5655 114.919 36.2131C113.472 34.8292 112.749 32.9893 112.749 30.6934C112.749 28.5233 113.488 26.7935 114.966 25.504C116.476 24.2145 118.646 23.4596 121.476 23.2395L127.705 22.7501C127.917 22.7334 128.081 22.5562 128.081 22.3431C128.081 21.5568 127.924 20.9121 127.609 20.4089C127.295 19.8742 126.839 19.4811 126.241 19.2295C125.675 18.9464 124.952 18.8049 124.071 18.8049C122.53 18.8049 121.351 19.0879 120.533 19.6541C119.262 20.5693 118.084 22.1072 116.517 22.1072H116.334C114.666 22.1072 113.238 20.7116 113.804 19.1432C114.024 18.5363 114.316 17.9675 114.683 17.4367C115.595 16.1158 116.884 15.0936 118.551 14.3703C120.25 13.6469 122.215 13.2852 124.448 13.2852C126.744 13.2852 128.679 13.6941 130.251 14.5118C131.855 15.3295 133.066 16.5247 133.884 18.0972C134.733 19.6698 135.158 21.5883 135.158 23.8528V34.1787C135.158 36.0839 133.613 37.6284 131.708 37.6284H129.298C128.978 37.6284 128.706 37.3943 128.658 37.0777C128.557 36.411 127.234 36.1206 126.692 36.5226C126.366 36.7645 125.996 36.9916 125.581 37.2038C124.197 37.8957 122.624 38.2417 120.863 38.2417ZM123.411 32.8635C124.794 32.8635 125.927 32.5333 126.807 31.8728C127.688 31.1809 128.128 30.1587 128.128 28.8063C128.128 28.1221 127.541 27.5852 126.86 27.6464L124.448 27.8628C122.876 27.9886 121.759 28.2559 121.099 28.6648C120.47 29.0422 120.155 29.6083 120.155 30.3632C120.155 31.2123 120.423 31.8414 120.957 32.2502C121.492 32.6591 122.31 32.8635 123.411 32.8635Z" fill="white"/>
<path d="M141.756 48.9508C139.75 48.9508 138.124 47.3244 138.124 45.3181V17.6837C138.124 15.6713 139.755 14.04 141.767 14.04H144.284C144.673 14.04 145.002 14.3284 145.053 14.7141C145.148 15.4417 146.233 15.7203 146.807 15.2629C147.273 14.8922 147.806 14.5632 148.408 14.2759C149.792 13.6154 151.317 13.2852 152.984 13.2852C155.186 13.2852 157.12 13.7727 158.787 14.7477C160.454 15.7227 161.759 17.1222 162.703 18.9464C163.646 20.7391 164.118 22.9092 164.118 25.4568C164.118 27.9414 163.678 30.1587 162.797 32.1087C161.948 34.0272 160.69 35.5369 159.023 36.6377C157.387 37.7384 155.39 38.2888 153.031 38.2888C151.396 38.2888 149.886 38.0058 148.502 37.4397C147.336 36.9624 145.389 37.8467 145.389 39.1072V45.4349C145.389 47.3767 143.815 48.9508 141.873 48.9508H141.756ZM145.436 25.8342C145.436 26.9979 145.672 28.0358 146.144 28.9479C146.647 29.8285 147.323 30.5204 148.172 31.0236C149.053 31.4954 150.059 31.7313 151.192 31.7313C152.355 31.7313 153.346 31.4797 154.164 30.9765C155.013 30.4732 155.658 29.7813 156.098 28.9007C156.57 28.0201 156.806 26.9979 156.806 25.8342C156.806 24.6705 156.57 23.6483 156.098 22.7677C155.658 21.8871 155.013 21.1952 154.164 20.6919C153.346 20.1887 152.355 19.9371 151.192 19.9371C150.059 19.9371 149.053 20.1887 148.172 20.6919C147.323 21.1637 146.647 21.8399 146.144 22.7205C145.672 23.6012 145.436 24.6391 145.436 25.8342Z" fill="white"/>
</svg>
