<svg xmlns="http://www.w3.org/2000/svg" width="1080" height="1080">
  <path fill="#baf250" d="m522.172-.203 3.967-.021c4.204-.02 8.407-.025 12.611-.026l2.171-.001C562.758-.258 584.321.102 606 3q1.994.254 3.988.504C660.25 9.907 709.626 23.609 756 44l3.123 1.37C790.652 59.31 820.91 75.98 849 96l2.166 1.526a479 479 0 0 1 30.09 23.034c2.456 2.028 4.947 4.01 7.432 6.002 5.268 4.311 10.24 8.908 15.21 13.555 2.554 2.387 5.16 4.704 7.79 7.008 4.997 4.48 9.747 9.2 14.5 13.938l2.305 2.291c4.15 4.16 8.13 8.409 11.963 12.862 2.04 2.358 4.168 4.629 6.294 6.909 4.749 5.208 9.102 10.652 13.41 16.227q2.804 3.627 5.711 7.171c60.723 74.169 99.142 169.263 114.332 315.649l.021 3.967c.02 4.204.025 8.407.026 12.611l.001 2.171c.007 21.837-.353 43.4-3.251 65.079q-.254 1.994-.504 3.988C1070.093 660.25 1056.391 709.626 1036 756l-1.37 3.123C1020.69 790.652 1004.02 820.91 984 849l-1.526 2.166a479 479 0 0 1-23.034 30.09c-2.028 2.456-4.01 4.947-6.003 7.432-4.31 5.268-8.907 10.24-13.554 15.21-2.387 2.554-4.704 5.16-7.008 7.79-4.48 4.997-9.2 9.747-13.937 14.5l-2.292 2.305c-4.16 4.15-8.409 8.13-12.862 11.963-2.358 2.04-4.629 4.168-6.909 6.294-5.208 4.749-10.652 9.102-16.227 13.41a322 322 0 0 0-7.171 5.711c-74.169 60.723-169.263 99.142-315.649 114.332l-3.967.021c-4.204.02-8.407.025-12.611.026l-2.171.001c-21.837.007-43.4-.353-65.079-3.251q-1.994-.254-3.988-.504C419.75 1070.093 370.374 1056.391 324 1036l-3.123-1.37C289.348 1020.69 259.09 1004.02 231 984l-2.166-1.526a479 479 0 0 1-30.09-23.034c-2.456-2.028-4.947-4.01-7.431-6.003-5.269-4.31-10.242-8.907-15.211-13.554-2.554-2.387-5.16-4.704-7.79-7.008-4.997-4.48-9.747-9.2-14.5-13.937-1.14-1.135-1.14-1.135-2.305-2.292-4.15-4.16-8.13-8.409-11.963-12.862-2.04-2.358-4.168-4.629-6.294-6.909-4.749-5.208-9.102-10.652-13.41-16.227a322 322 0 0 0-5.711-7.171C53.406 799.308 14.987 704.214-.203 557.828l-.021-3.967c-.02-4.204-.025-8.407-.026-12.611l-.001-2.171C-.258 517.242.102 495.679 3 474q.254-1.994.504-3.988C9.907 419.75 23.609 370.374 44 324l1.37-3.123C59.31 289.348 75.98 259.09 96 231l1.526-2.166a479 479 0 0 1 23.034-30.09c2.028-2.456 4.01-4.947 6.002-7.431 4.311-5.269 8.908-10.242 13.555-15.211 2.387-2.554 4.704-5.16 7.008-7.79 4.48-4.997 9.2-9.747 13.938-14.5l2.291-2.305c4.16-4.15 8.409-8.13 12.862-11.963 2.358-2.04 4.629-4.168 6.909-6.294 5.208-4.749 10.652-9.102 16.227-13.41q3.627-2.805 7.171-5.711C280.692 53.406 375.786 14.987 522.172-.203"/>
  <path fill="#1a2e05" d="M588 205c.577.345 1.154.69 1.748 1.047C612.23 219.85 627.558 242.51 634 268c9.54 40.26.271 82.164-14 120l-1.108 2.957c-5.671 14.907-12.838 28.38-21.078 42.009-7.99 13.363-15.41 27.08-22.629 40.873a2043 2043 0 0 1-2.744 5.217c-5.807 11.205-8.752 21.497-5.636 34.233 4.288 11.444 11.58 18.63 22.593 23.652 4.226 1.72 7.388 2.195 11.94 2.233l3.982.04 2.136.016q3.351.026 6.702.065 9.53.104 19.063.182c24.38.207 48.74.667 72.904 4.273l3.463.508c45.492 7.02 93.643 23.453 123.01 60.96 16.711 23.162 22.545 47.41 19.018 75.88-2.005 12.308-6.38 23.167-12.616 33.902l-1.684 3.008c-12.515 21.07-34.579 36.589-58.097 43.027-24.37 5.456-49.707 2.41-72.219-8.035l-2.004-.923C685.336 742.91 668.525 730.015 653 715l-1.984-1.917C642.81 705.108 635.002 697.07 628 688q-1.63-2.04-3.266-4.078c-7.908-9.925-15.046-20.14-21.734-30.922l1.582 3.207c23.872 49.032 45.058 109.916 26.793 164.293-4.902 13.526-11.566 25.905-21.375 36.5l-2.262 2.54c-15.096 16.118-38.074 27.643-60.34 28.568-28.283.565-52.515-4.126-74.398-23.108l-3.062-2.312c-21.84-19.982-31.98-50.31-33.333-79.243C435.413 736.597 451.955 693.06 473 652c-2.386 2.386-4.103 5.521-6 8.313-7.23 10.57-14.86 20.797-23 30.687l-1.26 1.537C431.446 706.254 419.15 719.2 405 730l-2.812 2.223c-28.598 22.17-62.222 34.646-98.721 30.488C279.132 758.854 256.978 744.326 242 725c-15.66-22.778-23.806-49.066-19.348-76.707 5.853-29.583 25.235-54.549 49.849-71.21 14.562-9.5 30.02-16.639 46.499-22.083l3.336-1.137c16.42-5.34 33.144-8.484 50.25-10.554 3.277-.42 6.53-.964 9.789-1.496 7.54-1.108 15.027-.99 22.625-.813v-2l-2.184.105C359.44 540.2 304.957 527.548 270 501l-2.547-1.918A233 233 0 0 1 260 493l-2.68-2.234C237.904 473.935 224.042 449.898 222 424c-1.322-23.548 3.656-46.79 18-66l1.898-2.562c15.58-20.197 37.494-34.9 63.102-38.438 14.387-1.135 29.034-.842 43 3l2.1.57c28.677 8.01 52.722 26.062 73.9 46.43l1.489 1.422c5.852 5.616 11.228 11.439 16.277 17.785 2.289 2.861 4.663 5.635 7.046 8.418 9.469 11.353 17.67 23.661 25.188 36.375l-1.617-3.348c-24.821-51.688-48.33-112.238-28.633-169.59 9.79-26.503 27.856-46.735 53.488-58.937 3.562-1.45 7.165-2.696 10.825-3.875l1.966-.64c25.435-7.782 55.432-3.148 77.971 10.39"/>
  <path fill="#1a2e05" d="M827.883 336.137A223 223 0 0 1 836 343l1.895 1.605c9.318 8.49 16.037 20.622 20.105 32.395l.926 2.613c1.895 5.775 2.796 11.325 3.074 17.387l.16 3.438c.588 24.522-8.189 44.374-24.732 62.177C807.902 493.111 764.504 502.677 724 508l-1.998.27c-8.703 1.024-17.448.933-26.197.968l-2.617.013q-6.84.03-13.683.044c-4.691.011-9.382.046-14.074.085-3.629.027-7.258.035-10.887.038q-2.595.008-5.188.035c-2.421.025-4.841.024-7.263.017l-2.132.039c-7.563-.079-13.833-3.711-19.356-8.665-5.01-5.753-7.71-13.029-7.855-20.594l-.078-2.422c1.025-8.838 6.301-16.071 10.89-23.453q2.31-3.748 4.614-7.5l1.2-1.948a865 865 0 0 0 8.292-13.802C645.838 417.281 654.085 403.69 664 391c.535-.693 1.07-1.385 1.62-2.1 12.82-16.492 27.353-31.723 44.38-43.9l1.75-1.278c14.338-10.4 29.871-18.047 47.25-21.722l2.844-.676c22.532-4.87 47.606 1.15 66.039 14.813"/>
  <path fill="#9acb41" d="m474 648 1 2c-.62 1.696-.62 1.696-1.652 3.695l-1.104 2.168-1.182 2.262-1.17 2.285q-1.437 2.8-2.892 5.59l-3-1c1.764-3.751 3.939-7.235 6.125-10.75l1.129-1.824q1.371-2.214 2.746-4.426"/>
  <path fill="#94c33e" d="M467 416c2.292 2.898 4.079 5.831 5.75 9.125l1.36 2.633L475 430l-1 2a1593 1593 0 0 1-3.437-5.312l-1.934-2.989C467 421 467 421 466 418z"/>
  <path fill="#a2d445" d="M602 652c3.336 2.99 5.15 5.932 7 10h-3a652 652 0 0 1-2-3.875l-1.125-2.18C602 654 602 654 602 652"/>
</svg>
