<svg xmlns="http://www.w3.org/2000/svg" width="94" height="111" viewBox="0 0 94 111">
  <title>1_black</title>
  <path fill="#ffa116" d="M67.507 83.066a6.367 6.367 0 0 1 9.016.015 6.394 6.394 0 0 1-.015 9.032L65.435 103.17c-10.216 10.2-26.875 10.349-37.263.343-.06-.057-4.685-4.593-19.945-19.556-10.152-9.954-11.163-25.882-1.61-36.11l17.812-19.072c9.481-10.153 26.958-11.263 37.799-2.496l16.177 13.083a6.394 6.394 0 0 1 .956 8.98 6.37 6.37 0 0 1-8.965.958L54.219 36.217c-5.67-4.584-15.587-3.955-20.48 1.284l-17.81 19.072c-4.65 4.98-4.141 13.001 1.218 18.256l19.851 19.465c5.401 5.202 14.134 5.124 19.437-.17z"/>
  <path fill="#b3b3b3" d="M40.607 72.001c-3.521 0-6.375-2.859-6.375-6.386s2.854-6.386 6.375-6.386h47.018c3.52 0 6.375 2.859 6.375 6.386s-2.854 6.386-6.375 6.386z" style="fill-rule:evenodd"/>
  <path fill="#fff" d="M49.412 2.023a6.367 6.367 0 0 1 9.011-.3 6.394 6.394 0 0 1 .3 9.027L15.929 56.573c-4.65 4.979-4.141 13 1.218 18.256l19.763 19.38a6.394 6.394 0 0 1 .097 9.031 6.367 6.367 0 0 1-9.016.097L8.227 83.957c-10.152-9.955-11.163-25.883-1.61-36.11Z" style="fill-rule:evenodd;fill:#141414;fill-opacity:1"/>
</svg>
