<svg xmlns="http://www.w3.org/2000/svg" width="458" height="111" viewBox="0 0 458 111">
  <title>logo_english_dark</title>
  <g fill="none" fill-rule="evenodd">
    <path fill="#ffa116" fill-rule="nonzero" d="M67.507 83.066a6.367 6.367 0 0 1 9.016.015 6.394 6.394 0 0 1-.015 9.032L65.435 103.17c-10.216 10.2-26.875 10.349-37.263.343-.06-.057-4.685-4.593-19.945-19.556-10.152-9.954-11.163-25.882-1.61-36.11l17.812-19.072c9.481-10.153 26.958-11.263 37.799-2.496l16.177 13.083a6.394 6.394 0 0 1 .956 8.98 6.37 6.37 0 0 1-8.965.958L54.219 36.217c-5.67-4.584-15.587-3.955-20.48 1.284L15.929 56.573c-4.65 4.98-4.141 13.001 1.218 18.256l19.851 19.465c5.401 5.202 14.134 5.124 19.437-.17z"/>
    <path fill="#b3b3b3" d="M40.607 72.001c-3.521 0-6.375-2.859-6.375-6.386s2.854-6.386 6.375-6.386h47.018c3.52 0 6.375 2.859 6.375 6.386s-2.854 6.386-6.375 6.386z"/>
    <path fill="#000" d="M49.412 2.023a6.367 6.367 0 0 1 9.011-.3 6.394 6.394 0 0 1 .3 9.027L15.929 56.573c-4.65 4.979-4.141 13 1.218 18.256l19.763 19.38a6.394 6.394 0 0 1 .097 9.031 6.367 6.367 0 0 1-9.016.097L8.227 83.957c-10.152-9.955-11.163-25.883-1.61-36.11zM131.914 38.883v42.031q0 2.422 1.719 4.14 1.719 1.72 4.14 1.72h11.368q1.485 0 2.539 1.054a3.46 3.46 0 0 1 1.054 2.54v.077q0 1.485-1.054 2.5A3.46 3.46 0 0 1 149.14 94h-11.367q-5.43 0-9.257-3.828t-3.828-9.258V38.883q0-1.484 1.054-2.54 1.055-1.014 2.5-1.015h.117q1.446 0 2.5 1.016a3.46 3.46 0 0 1 1.055 2.539m45.274 19.765q-5.86 0-10 4.141-4.102 4.14-4.102 10 0 1.055.156 2.07l24.727-11.171q-4.219-5.04-10.781-5.04m19.375 5.157q.624 1.328.117 2.734-.508 1.368-1.875 1.992-5.47 2.46-14.375 6.485L166.094 81.5q4.218 5.39 11.094 5.39 4.57 0 8.28-2.695 3.595-2.616 5.04-6.797.86-2.421 3.437-2.421 1.835 0 2.93 1.523 1.054 1.484.43 3.242-2.187 6.328-7.657 10.235Q184.062 94 177.188 94q-8.829 0-15.079-6.25t-6.25-15.078 6.25-15.078 15.078-6.25q6.367 0 11.641 3.476 5.196 3.398 7.734 8.985m28.164-5.157q-5.86 0-10 4.141-4.102 4.14-4.102 10 0 1.055.156 2.07l24.727-11.171q-4.219-5.04-10.781-5.04m19.375 5.157q.624 1.328.117 2.734-.509 1.368-1.875 1.992-5.47 2.46-14.375 6.485L213.633 81.5q4.218 5.39 11.094 5.39 4.57 0 8.28-2.695 3.595-2.616 5.04-6.797.86-2.421 3.437-2.421 1.835 0 2.93 1.523 1.054 1.484.43 3.242-2.188 6.328-7.656 10.235Q231.602 94 224.727 94q-8.829 0-15.079-6.25t-6.25-15.078 6.25-15.078 15.079-6.25q6.367 0 11.64 3.476 5.196 3.398 7.735 8.985m11.68-28.477q1.444 0 2.5 1.016a3.46 3.46 0 0 1 1.054 2.539v12.46h7.031q1.446 0 2.5 1.055a3.46 3.46 0 0 1 1.055 2.54v.078q0 1.485-1.055 2.5-1.054 1.054-2.5 1.054h-7.031v24.336q0 1.602 1.133 2.735t2.773 1.132h3.125q1.446 0 2.5 1.055a3.46 3.46 0 0 1 1.055 2.54v.077q0 1.485-1.055 2.5-1.054 1.055-2.5 1.055h-3.125q-4.61 0-7.89-3.242-3.243-3.282-3.243-7.852V38.883q0-1.484 1.055-2.54 1.055-1.014 2.5-1.015zm47.968 0q3.711 0 7.305.899 2.695.702 2.695 3.437v.117q0 1.72-1.406 2.813-1.367 1.054-3.047.625a22.2 22.2 0 0 0-5.547-.703q-9.14 0-15.625 6.484t-6.484 15.664 6.484 15.664q6.484 6.445 15.625 6.445 2.813.001 5.547-.664 1.68-.43 3.047.625 1.406 1.055 1.406 2.813v.078q0 2.774-2.695 3.477-3.594.898-7.305.898-12.149 0-20.742-8.594-8.595-8.594-8.594-20.742 0-12.148 8.594-20.742t20.742-8.594m36.406 23.32q-5.86 0-10 4.141-4.101 4.14-4.101 10 0 5.82 4.101 9.961 4.14 4.14 10 4.14t9.961-4.14q4.14-4.14 4.14-9.96 0-5.86-4.14-10-4.101-4.142-9.96-4.142m0-7.304q8.829 0 15.078 6.25 6.25 6.249 6.25 15.078 0 8.828-6.25 15.078Q348.985 94 340.156 94q-8.827 0-15.078-6.25t-6.25-15.078q0-8.829 6.25-15.078 6.25-6.25 15.078-6.25m48.125 7.304q-5.86 0-10 4.141-4.101 4.14-4.101 10 0 5.82 4.101 9.961 4.14 4.14 10 4.14t9.961-4.14q4.14-4.14 4.14-9.96 0-5.86-4.14-10-4.101-4.142-9.96-4.142m17.774-23.32q1.445 0 2.5 1.016a3.46 3.46 0 0 1 1.054 2.539v33.906q-.039 8.79-6.289 15T388.281 94q-8.827 0-15.078-6.25t-6.25-15.078q0-8.829 6.25-15.078 6.25-6.25 15.078-6.25 8.047 0 14.102 5.351V38.883q0-1.484 1.055-2.54 1.054-1.014 2.5-1.015zm31.523 23.32q-5.86 0-10 4.141-4.101 4.14-4.101 10 0 1.055.156 2.07l24.726-11.171q-4.219-5.04-10.78-5.04m19.375 5.157q.625 1.328.117 2.734-.507 1.368-1.875 1.992-5.469 2.46-14.375 6.485L426.484 81.5q4.219 5.39 11.094 5.39 4.57 0 8.281-2.695 3.594-2.616 5.04-6.797.858-2.421 3.437-2.421 1.836 0 2.93 1.523 1.054 1.484.43 3.242-2.188 6.328-7.657 10.235Q444.452 94 437.58 94q-8.829 0-15.079-6.25t-6.25-15.078 6.25-15.078 15.078-6.25q6.368 0 11.64 3.476 5.196 3.398 7.735 8.985"/>
  </g>
</svg>
