<svg width="32" height="32" viewBox="0 0 32 32" fill="none" xmlns="http://www.w3.org/2000/svg">
<g clip-path="url(#clip0_2_34)">
<path d="M26.3333 0H5.66667C2.53705 0 0 2.53705 0 5.66667V25.5333C0 28.6629 2.53705 31.2 5.66667 31.2H26.3333C29.4629 31.2 32 28.6629 32 25.5333V5.66667C32 2.53705 29.4629 0 26.3333 0Z" fill="#001E36"/>
<path d="M11.2256 22.0511H3.61352C3.48467 22.0511 3.42028 21.9724 3.42033 21.815V8.18362C3.42033 8.05484 3.4783 7.99044 3.59424 7.99042H5.95129C6.04123 7.99042 6.08652 8.04074 6.08652 8.14071V19.3463H11.6314C11.7473 19.3463 11.7923 19.4107 11.7666 19.5395L11.4188 21.8579C11.4058 21.9438 11.3801 21.9974 11.3416 22.0189C11.3063 22.0394 11.2664 22.0505 11.2256 22.0511Z" fill="#31A8FF"/>
<path d="M13.1382 11.3822H15.2441C15.36 11.3822 15.4437 11.4537 15.4952 11.5968C15.5415 11.6919 15.5741 11.7931 15.5918 11.8974C15.6188 12.0357 15.6382 12.1755 15.6498 12.316C15.6625 12.4662 15.6689 12.6272 15.6691 12.7989C16.0219 12.3393 16.4577 11.9497 16.9539 11.6505C17.492 11.3239 18.1116 11.1565 18.741 11.1675C18.8569 11.1675 18.9149 11.2319 18.9149 11.3607V13.9582C18.9149 14.0585 18.8505 14.1086 18.7217 14.1084C18.2974 14.0778 17.8709 14.1104 17.4562 14.2051C17.1083 14.2822 16.771 14.4011 16.4516 14.5593C16.205 14.679 15.985 14.8468 15.8044 15.053V21.8579C15.8044 21.9867 15.7528 22.0511 15.6498 22.0511H13.3121C13.1832 22.0511 13.1188 21.9796 13.1189 21.8364V14.4519C13.1189 14.1373 13.1157 13.8045 13.1092 13.4537C13.1026 13.1032 13.0929 12.7561 13.0802 12.4126C13.0717 12.1179 13.0459 11.8241 13.003 11.5324C12.9987 11.4909 13.0089 11.4492 13.0319 11.4144C13.0465 11.402 13.0634 11.3928 13.0817 11.3872C13.1 11.3817 13.1192 11.38 13.1382 11.3822Z" fill="#31A8FF"/>
<path d="M28.3496 9.41347C28.0643 9.29824 27.7648 9.22176 27.4592 9.18606C27.0083 9.12931 26.5541 9.10319 26.0996 9.1079C24.7919 9.1079 23.6479 9.38821 22.6995 9.94104C21.7542 10.4904 20.9877 11.3012 20.4922 12.2758C19.9782 13.2687 19.7175 14.4359 19.7175 15.7451C19.7074 16.536 19.808 17.3244 20.0163 18.0874C20.1969 18.7373 20.4831 19.3531 20.8634 19.9101C21.2196 20.4242 21.6621 20.8727 22.1714 21.2356C22.684 21.5982 23.2547 21.8705 23.8589 22.0407C24.4919 22.2186 25.1466 22.3075 25.8041 22.3049C26.2645 22.3068 26.7244 22.2774 27.1808 22.2171C27.5486 22.1739 27.9095 22.0843 28.2549 21.9504C28.3209 21.9198 28.3755 21.8689 28.4106 21.8052C28.4457 21.7414 28.4595 21.6681 28.4499 21.5959V19.607C28.4539 19.5714 28.4499 19.5354 28.4382 19.5015C28.4265 19.4677 28.4074 19.4369 28.3822 19.4114C28.3489 19.3837 28.2782 19.3507 28.1742 19.4304C27.875 19.5426 27.563 19.617 27.2453 19.6517C26.859 19.6923 26.4707 19.7115 26.0823 19.7091C25.7292 19.707 25.3778 19.6594 25.0368 19.5674C24.6818 19.4735 24.3416 19.3305 24.026 19.1427C23.6981 18.9431 23.4119 18.6821 23.1829 18.374C22.9238 18.0265 22.7258 17.6374 22.5977 17.2233C22.447 16.7189 22.3752 16.1941 22.3847 15.6677C22.3668 14.9326 22.5182 14.2031 22.827 13.5357C23.104 12.9596 23.5383 12.4737 24.0798 12.134C24.6688 11.7838 25.3451 11.6079 26.0302 11.6266C26.4499 11.6245 26.8691 11.6596 27.2826 11.7313C27.6171 11.7852 27.9405 11.8933 28.2401 12.0513C28.2659 12.0667 28.2953 12.075 28.3253 12.0752C28.3553 12.0754 28.3848 12.0676 28.4108 12.0525C28.4395 12.0285 28.462 11.9977 28.4761 11.963C28.4903 11.9283 28.4957 11.8906 28.492 11.8533V9.72907C28.4985 9.66855 28.4887 9.60739 28.4637 9.55191C28.4386 9.49643 28.3993 9.44864 28.3496 9.41347Z" fill="#31A8FF"/>
</g>
<defs>
<clipPath id="clip0_2_34">
<rect width="32" height="31.2" fill="white"/>
</clipPath>
</defs>
</svg>
