<svg xmlns="http://www.w3.org/2000/svg" fill="none" viewBox="0 0 128 128"><mask id="a" width="120" height="120" x="4" y="4" maskUnits="userSpaceOnUse" style="mask-type:alpha"><path fill="#0535C1" d="M64 124A60 60 0 1 0 64 4a60 60 0 0 0 0 120Z"/></mask><g mask="url(#a)"><path fill="#06F" d="M64 124A60 60 0 1 0 64 4a60 60 0 0 0 0 120Z"/><path fill="#5DBCEB" d="M94 60.25a10 10 0 1 1 9.96-10.94 1 1 0 0 0 .98.94H109a5 5 0 0 1 0 10H94Z"/><path fill="#F63" d="M63.5 14.31 44.44 26.23a.94.94 0 0 0-.44.79v19.8c0 .51-.42.93-.94.93h-8.12a.94.94 0 0 0-.94.94V59.3c0 .52.42.94.94.94h7.99c.56 0 1 .5.93 1.06l-9.72 71.63a.94.94 0 0 0 .93 1.06h57.86a.94.94 0 0 0 .93-1.06L84.14 61.3a.94.94 0 0 1 .93-1.06h8c.51 0 .93-.42.93-.94V48.7a.94.94 0 0 0-.94-.94h-8.12a.94.94 0 0 1-.94-.94v-19.8a.94.94 0 0 0-.44-.8L64.5 14.31a.94.94 0 0 0-1 0Z"/><path fill="#FFA385" d="m36.31 116.93 2.65-19.5 46.9-23.45L88.16 91l-51.84 25.93ZM82.17 134H45.83l45.11-22.55 2.3 17.01L82.18 134Zm-12.5-73.75L42.13 74.02 44 60.25h25.67Z"/><path fill="#FF3" d="M56.5 34c0-.69.56-1.25 1.25-1.25h12.5c.69 0 1.25.56 1.25 1.25v12.5c0 .69-.56 1.25-1.25 1.25h-12.5c-.69 0-1.25-.56-1.25-1.25V34Z"/><path fill="#fff" d="M24 74a10 10 0 1 1 0-20 10 10 0 0 1 8.73 5.11 2.12 2.12 0 0 0 1.8 1.14H44A6.88 6.88 0 1 1 44 74H24Z"/></g></svg>