<svg width="83" height="80" viewBox="0 0 83 80" fill="none" xmlns="http://www.w3.org/2000/svg">
<g clip-path="url(#clip0_906_1810)">
<path d="M67.5214 0H14.5299C6.50526 0 0 6.50526 0 14.5299V65.4701C0 73.4947 6.50526 80 14.5299 80H67.5214C75.546 80 82.0513 73.4947 82.0513 65.4701V14.5299C82.0513 6.50526 75.546 0 67.5214 0Z" fill="#001E36"/>
<path d="M43.0906 56.5413H21.4038C21.0367 56.5413 20.8532 56.3395 20.8534 55.9358V20.9837C20.8438 20.9164 20.85 20.8478 20.8715 20.7833C20.893 20.7188 20.9292 20.6602 20.9773 20.6121C21.0254 20.5641 21.084 20.5278 21.1485 20.5063C21.2129 20.4849 21.2816 20.4787 21.3489 20.4883H28.0641C28.1164 20.4809 28.1697 20.4858 28.2198 20.5026C28.27 20.5193 28.3155 20.5475 28.3529 20.5849C28.3902 20.6222 28.4184 20.6678 28.4351 20.7179C28.4519 20.768 28.4568 20.8213 28.4494 20.8737V49.606H44.2467C44.5768 49.606 44.7053 49.7711 44.6319 50.1014L43.6412 56.0459C43.6389 56.1271 43.6178 56.2066 43.5796 56.2782C43.5414 56.3498 43.4871 56.4116 43.421 56.4588C43.3189 56.5118 43.2057 56.5401 43.0906 56.5413Z" fill="#31A8FF"/>
<path d="M48.5395 29.1851H54.5391C54.702 29.1866 54.86 29.2411 54.9892 29.3404C55.1183 29.4398 55.2115 29.5785 55.2546 29.7356C55.3855 29.9767 55.4784 30.2367 55.5299 30.5062C55.6067 30.8603 55.6618 31.2187 55.695 31.5796C55.7312 31.9648 55.7496 32.3776 55.7501 32.818C56.779 31.6199 58.0198 30.6217 59.4104 29.8733C60.9725 29.0286 62.7264 28.602 64.5019 28.6348C64.5692 28.6252 64.6378 28.6313 64.7023 28.6528C64.7668 28.6743 64.8254 28.7106 64.8734 28.7586C64.9215 28.8067 64.9577 28.8653 64.9792 28.9298C65.0007 28.9943 65.0068 29.0629 64.9972 29.1302V35.7903C64.9972 36.0475 64.8137 36.1759 64.4468 36.1756C62.2296 36.0384 60.0118 36.4348 57.9793 37.3316C57.2886 37.6303 56.6624 38.0602 56.1354 38.5975V56.0461C56.1354 56.3764 55.9886 56.5415 55.695 56.5415H49.0348C48.96 56.5522 48.8838 56.5454 48.8121 56.5215C48.7404 56.4976 48.6753 56.4574 48.6219 56.4039C48.5685 56.3505 48.5282 56.2854 48.5044 56.2137C48.4805 56.142 48.4737 56.0658 48.4844 55.991V37.0563C48.4844 36.2495 48.4753 35.3964 48.4569 34.4968C48.438 33.598 48.4105 32.7082 48.3743 31.8272C48.3499 31.071 48.2764 30.3172 48.1542 29.5705C48.1405 29.5172 48.1408 29.4613 48.1553 29.4082C48.1698 29.3551 48.1979 29.3067 48.2368 29.2677C48.2757 29.2288 48.3241 29.2007 48.3772 29.1862C48.4303 29.1717 48.4862 29.1714 48.5395 29.1851Z" fill="#31A8FF"/>
</g>
<defs>
<clipPath id="clip0_906_1810">
<rect width="82.0513" height="80" fill="white"/>
</clipPath>
</defs>
</svg>
