<svg width="400" height="123" viewBox="0 0 400 123" fill="none" xmlns="http://www.w3.org/2000/svg">
<g clip-path="url(#clip0_3_26)">
<path d="M137.319 60.6553C137.203 57.7977 137.655 54.9454 138.647 52.263C139.639 49.5806 141.152 47.1212 143.1 45.0267C145.047 42.9322 147.39 41.2441 149.993 40.0597C152.597 38.8754 155.409 38.2182 158.267 38.1262H159.155C170.203 38.1262 176.724 44.625 178.652 52.2285L171.784 54.5248C171.168 51.6914 169.553 49.1741 167.234 47.4323C164.916 45.6905 162.048 44.8402 159.155 45.0366C152.007 45.0366 144.836 50.2572 144.836 60.7853C144.836 71.3133 151.833 76.339 159.242 76.339C162.149 76.4185 165 75.5204 167.336 73.7884C169.673 72.0565 171.361 69.5908 172.131 66.7858L178.868 68.9521C177.705 73.2309 175.119 76.9854 171.535 79.5964C167.951 82.2074 163.584 83.5189 159.155 83.3144C153.465 83.4188 147.966 81.2595 143.868 77.3111C139.769 73.3627 137.406 67.9484 137.298 62.2583C137.276 61.7384 137.298 61.1969 137.319 60.6553Z" fill="#375BD2"/>
<path d="M192.234 82.3179H185.129V37.9962H192.234V55.3263C193.265 54.1029 194.563 53.1312 196.027 52.4855C197.491 51.8397 199.083 51.537 200.682 51.6003C208.026 51.6003 211.514 56.8643 211.514 63.4281V82.3179H204.668V64.6845C204.873 63.1814 204.48 61.6578 203.572 60.4421C202.664 59.2265 201.315 58.4162 199.816 58.1858C199.391 58.1422 198.963 58.1422 198.538 58.1858C196.895 58.1858 195.319 58.8385 194.157 60.0004C192.995 61.1623 192.342 62.7381 192.342 64.3813C192.332 64.5616 192.332 64.7425 192.342 64.9228L192.234 82.3179Z" fill="#375BD2"/>
<path d="M227.457 65.2478L235.083 64.0563C236.816 63.8397 237.249 62.9515 237.249 61.8901C237.249 59.3772 235.559 57.3626 231.617 57.3626C230.128 57.2422 228.651 57.7137 227.508 58.6748C226.364 59.6359 225.645 61.0091 225.508 62.4966V62.8215L219.009 61.3702C219.55 56.2145 224.23 51.622 231.552 51.622C240.737 51.622 244.224 56.821 244.224 62.8865V77.6821C244.217 79.2853 244.34 80.8864 244.592 82.4695H238.094C237.859 81.2129 237.765 79.9343 237.812 78.6569C236.826 80.175 235.458 81.408 233.847 82.2328C232.235 83.0576 230.435 83.4455 228.627 83.3577C226.157 83.5616 223.707 82.7775 221.815 81.1775C219.922 79.5774 218.742 77.292 218.532 74.8226C218.532 74.671 218.532 74.5194 218.532 74.3894C218.424 68.9087 222.345 65.9626 227.457 65.2478ZM237.292 70.0352V68.6705L229.515 69.8402C228.46 69.8737 227.458 70.3139 226.719 71.0688C225.98 71.8237 225.562 72.8349 225.551 73.8911C225.559 74.4145 225.672 74.931 225.882 75.4104C226.092 75.8899 226.395 76.3227 226.774 76.6836C227.154 77.0446 227.601 77.3264 228.09 77.5127C228.579 77.699 229.1 77.7861 229.624 77.7687H229.949C230.835 77.8615 231.732 77.778 232.586 77.5229C233.44 77.2678 234.235 76.8462 234.926 76.2825C235.617 75.7187 236.189 75.0238 236.61 74.2379C237.031 73.452 237.292 72.5905 237.379 71.7032C237.41 71.1449 237.373 70.5849 237.27 70.0352H237.292Z" fill="#375BD2"/>
<path d="M256.312 37.3897C256.923 37.3811 257.529 37.4932 258.096 37.7196C258.663 37.946 259.18 38.2823 259.617 38.709C260.054 39.1358 260.402 39.6446 260.641 40.2063C260.881 40.768 261.007 41.3715 261.013 41.9821C261.013 42.8962 260.742 43.7899 260.236 44.5508C259.729 45.3117 259.009 45.9058 258.166 46.2585C257.322 46.6112 256.394 46.7067 255.496 46.533C254.599 46.3594 253.773 45.9243 253.122 45.2824C252.471 44.6406 252.024 43.8207 251.838 42.9257C251.652 42.0308 251.735 41.1008 252.076 40.2527C252.417 39.4045 253.001 38.6761 253.754 38.159C254.508 37.6419 255.398 37.3592 256.312 37.3463V37.3897ZM252.846 82.4479V52.5102H259.951V82.3179L252.846 82.4479Z" fill="#375BD2"/>
<path d="M276.133 82.3179H269.05V52.5101H275.96V56.4744C276.861 54.9522 278.155 53.7004 279.706 52.8504C281.257 52.0005 283.009 51.5836 284.777 51.6436C292.055 51.6436 295.608 56.9077 295.608 63.4714V82.3179H288.524V64.6845C288.524 61.0236 286.856 58.0558 282.394 58.0558C281.569 58.0614 280.753 58.2296 279.993 58.5505C279.233 58.8715 278.544 59.339 277.964 59.9264C277.385 60.5137 276.927 61.2095 276.616 61.9739C276.306 62.7382 276.149 63.5563 276.155 64.3813C276.155 64.6195 276.155 64.8578 276.155 65.0961L276.133 82.3179Z" fill="#375BD2"/>
<path d="M304.186 82.3179V37.9962H311.292V82.3179H304.186Z" fill="#375BD2"/>
<path d="M323.964 37.3897C324.879 37.3854 325.774 37.6529 326.536 38.1583C327.298 38.6636 327.893 39.384 328.245 40.228C328.597 41.072 328.69 42.0016 328.512 42.8986C328.335 43.7957 327.895 44.6198 327.249 45.2664C326.602 45.913 325.778 46.3529 324.881 46.5303C323.984 46.7076 323.054 46.6144 322.21 46.2625C321.366 45.9106 320.646 45.3158 320.14 44.5537C319.635 43.7916 319.367 42.8966 319.372 41.9821C319.383 40.7676 319.871 39.6061 320.729 38.7473C321.588 37.8884 322.75 37.401 323.964 37.3897ZM320.477 82.4479V52.5102H327.517V82.3179L320.477 82.4479Z" fill="#375BD2"/>
<path d="M343.807 82.3179H336.702V52.5102H343.612V56.4744C344.515 54.9537 345.809 53.7033 347.36 52.8535C348.911 52.0038 350.662 51.586 352.429 51.6437C359.708 51.6437 363.26 56.9077 363.26 63.4714V82.3179H356.155V64.6845C356.36 63.1814 355.966 61.6578 355.059 60.4421C354.151 59.2265 352.802 58.4162 351.303 58.1858C350.87 58.1423 350.435 58.1423 350.003 58.1858C348.348 58.2029 346.767 58.8723 345.603 60.0486C344.438 61.2249 343.785 62.813 343.786 64.4679C343.763 64.7202 343.763 64.9739 343.786 65.2261L343.807 82.3179Z" fill="#375BD2"/>
<path d="M387.501 65.0961L400 82.4262H391.335L382.67 70.1435L379.009 73.9995V82.3179H371.969V37.9962H379.009V64.5546L390.447 52.5102H399.87L387.501 65.0961Z" fill="#375BD2"/>
<path d="M53.2034 25.9951L83.9209 43.6285V79.0685L53.29 96.8102L22.5941 79.2201V43.8018L53.2034 25.9951ZM53.2034 0L41.9388 6.49878L11.2646 24.3054L0 30.8042V92.261L11.2646 98.7598L41.9821 116.393L53.2467 122.892L64.5112 116.393L95.1205 98.6298L106.385 92.1311V30.5876L95.1205 24.0888L64.4246 6.49878L53.16 0H53.2034Z" fill="#375BD2"/>
</g>
<defs>
<clipPath id="clip0_3_26">
<rect width="400" height="122.849" fill="white"/>
</clipPath>
</defs>
</svg>
