<svg width="400" height="124" viewBox="0 0 400 124" fill="none" xmlns="http://www.w3.org/2000/svg">
<g clip-path="url(#clip0_3_10)">
<path d="M137.319 61.231C137.203 58.3733 137.655 55.521 138.647 52.8386C139.639 50.1562 141.152 47.6968 143.1 45.6024C145.047 43.5079 147.39 41.8197 149.993 40.6354C152.597 39.451 155.409 38.7939 158.267 38.7018H159.155C170.203 38.7018 176.724 45.2006 178.652 52.8042L171.784 55.1004C171.168 52.267 169.553 49.7498 167.234 48.008C164.916 46.2662 162.048 45.4159 159.155 45.6122C152.007 45.6122 144.836 50.8329 144.836 61.3609C144.836 71.889 151.833 76.9147 159.242 76.9147C162.149 76.9941 165 76.096 167.336 74.3641C169.673 72.6321 171.361 70.1664 172.131 67.3615L178.868 69.5277C177.705 73.8065 175.119 77.5611 171.535 80.1721C167.951 82.7831 163.584 84.0945 159.155 83.89C153.465 83.9944 147.966 81.8351 143.868 77.8867C139.769 73.9384 137.406 68.5241 137.298 62.834C137.276 62.3141 137.298 61.7725 137.319 61.231Z" fill="white"/>
<path d="M192.234 82.8936H185.129V38.5719H192.234V55.902C193.265 54.6785 194.563 53.7069 196.027 53.0611C197.491 52.4154 199.083 52.1127 200.682 52.176C208.026 52.176 211.514 57.44 211.514 64.0038V82.8936H204.668V65.2602C204.873 63.757 204.48 62.2335 203.572 61.0178C202.664 59.8022 201.315 58.9918 199.816 58.7614C199.391 58.7178 198.963 58.7178 198.538 58.7614C196.895 58.7614 195.319 59.4142 194.157 60.5761C192.995 61.7379 192.342 63.3138 192.342 64.9569C192.332 65.1373 192.332 65.3182 192.342 65.4985L192.234 82.8936Z" fill="white"/>
<path d="M227.457 65.8235L235.083 64.632C236.816 64.4154 237.249 63.5272 237.249 62.4658C237.249 59.9529 235.559 57.9383 231.617 57.9383C230.128 57.8179 228.651 58.2894 227.508 59.2505C226.364 60.2116 225.645 61.5848 225.508 63.0723V63.3973L219.009 61.9459C219.55 56.7902 224.23 52.1977 231.552 52.1977C240.737 52.1977 244.224 57.3967 244.224 63.4622V78.2578C244.217 79.861 244.34 81.4621 244.592 83.0452H238.094C237.859 81.7886 237.765 80.51 237.812 79.2326C236.826 80.7507 235.458 81.9837 233.847 82.8085C232.235 83.6334 230.435 84.0212 228.627 83.9334C226.157 84.1373 223.707 83.3533 221.815 81.7532C219.922 80.1531 218.742 77.8677 218.532 75.3983C218.532 75.2467 218.532 75.0951 218.532 74.9651C218.424 69.4845 222.345 66.5383 227.457 65.8235ZM237.292 70.6109V69.2462L229.515 70.4159C228.46 70.4494 227.458 70.8896 226.719 71.6445C225.98 72.3994 225.562 73.4107 225.551 74.4669C225.559 74.9902 225.672 75.5067 225.882 75.9862C226.092 76.4656 226.395 76.8984 226.774 77.2594C227.154 77.6203 227.601 77.9022 228.09 78.0885C228.579 78.2748 229.1 78.3618 229.624 78.3445H229.949C230.835 78.4373 231.732 78.3537 232.586 78.0986C233.44 77.8435 234.235 77.422 234.926 76.8582C235.617 76.2944 236.189 75.5995 236.61 74.8136C237.031 74.0277 237.292 73.1663 237.379 72.2789C237.41 71.7206 237.373 71.1606 237.27 70.6109H237.292Z" fill="white"/>
<path d="M256.312 37.9653C256.923 37.9567 257.529 38.0689 258.096 38.2953C258.663 38.5217 259.18 38.8579 259.617 39.2847C260.054 39.7114 260.402 40.2203 260.641 40.782C260.881 41.3437 261.007 41.9472 261.013 42.5578C261.013 43.4719 260.742 44.3655 260.236 45.1264C259.729 45.8873 259.009 46.4814 258.166 46.8341C257.322 47.1868 256.394 47.2824 255.496 47.1087C254.599 46.935 253.773 46.4999 253.122 45.8581C252.471 45.2162 252.024 44.3963 251.838 43.5014C251.652 42.6064 251.735 41.6764 252.076 40.8283C252.417 39.9802 253.001 39.2518 253.754 38.7347C254.508 38.2175 255.398 37.9348 256.312 37.922V37.9653ZM252.846 83.0235V53.0858H259.951V82.8936L252.846 83.0235Z" fill="white"/>
<path d="M276.133 82.8936H269.05V53.0859H275.96V57.0501C276.861 55.5279 278.155 54.2761 279.706 53.4262C281.257 52.5762 283.009 52.1594 284.777 52.2194C292.055 52.2194 295.608 57.4834 295.608 64.0471V82.8936H288.524V65.2602C288.524 61.5993 286.856 58.6315 282.394 58.6315C281.569 58.6372 280.753 58.8053 279.993 59.1262C279.233 59.4472 278.544 59.9147 277.964 60.5021C277.385 61.0895 276.927 61.7852 276.616 62.5496C276.306 63.3139 276.149 64.132 276.155 64.957C276.155 65.1953 276.155 65.4335 276.155 65.6718L276.133 82.8936Z" fill="white"/>
<path d="M304.186 82.8936V38.5719H311.292V82.8936H304.186Z" fill="white"/>
<path d="M323.964 37.9653C324.879 37.961 325.774 38.2286 326.536 38.7339C327.298 39.2393 327.893 39.9597 328.245 40.8037C328.597 41.6477 328.69 42.5772 328.512 43.4743C328.335 44.3713 327.895 45.1955 327.249 45.8421C326.602 46.4887 325.778 46.9286 324.881 47.1059C323.984 47.2833 323.054 47.1901 322.21 46.8382C321.366 46.4862 320.646 45.8915 320.14 45.1294C319.635 44.3673 319.367 43.4722 319.372 42.5578C319.383 41.3433 319.871 40.1817 320.729 39.3229C321.588 38.4641 322.75 37.9766 323.964 37.9653ZM320.477 83.0235V53.0858H327.517V82.8936L320.477 83.0235Z" fill="white"/>
<path d="M343.807 82.8936H336.702V53.0858H343.612V57.0501C344.515 55.5294 345.809 54.2789 347.36 53.4292C348.911 52.5794 350.662 52.1616 352.429 52.2193C359.708 52.2193 363.26 57.4833 363.26 64.0471V82.8936H356.155V65.2602C356.36 63.757 355.966 62.2334 355.059 61.0178C354.151 59.8022 352.802 58.9918 351.303 58.7614C350.87 58.718 350.435 58.718 350.003 58.7614C348.348 58.7785 346.767 59.448 345.603 60.6242C344.438 61.8005 343.785 63.3886 343.786 65.0436C343.763 65.2958 343.763 65.5495 343.786 65.8018L343.807 82.8936Z" fill="white"/>
<path d="M387.501 65.6718L400 83.0019H391.335L382.67 70.7192L379.009 74.5751V82.8936H371.969V38.5719H379.009V65.1302L390.447 53.0858H399.87L387.501 65.6718Z" fill="white"/>
<path d="M53.2034 26.5708L83.9209 44.2042V79.6442L53.29 97.3859L22.5941 79.7958V44.3775L53.2034 26.5708ZM53.2034 0.575684L41.9388 7.07447L11.2646 24.8811L0 31.3799V92.8367L11.2646 99.3355L41.9821 116.969L53.2467 123.468L64.5112 116.969L95.1205 99.2055L106.385 92.7067V31.1633L95.1205 24.6645L64.4246 7.07447L53.16 0.575684H53.2034Z" fill="white"/>
</g>
<defs>
<clipPath id="clip0_3_10">
<rect width="400" height="122.849" fill="white" transform="translate(0 0.575684)"/>
</clipPath>
</defs>
</svg>
