<svg version="1.0" xmlns="http://www.w3.org/2000/svg" width="258pt" height="258pt" viewBox="0 0 258 258" style="" preserveAspectRatio="xMidYMid meet">
<g fill="#8A204CFF" stroke="#8A204CFF">
<path d="M 39.500 3.155 C 33.172 6.616 33.487 11.115 41.451 31.000 C 42.222 32.925 45.430 41.700 48.580 50.500 C 56.212 71.823 57.470 74.620 60.187 76.308 C 61.459 77.098 67.905 78.726 74.511 79.925 C 81.118 81.125 87.418 82.273 88.511 82.477 C 89.605 82.680 90.798 82.881 91.162 82.923 C 92.167 83.039 101.171 98.992 100.813 100.020 C 100.512 100.881 62.841 142.131 51.059 154.500 C 32.850 173.616 9.808 199.374 8.989 201.530 C 8.237 203.508 9.214 208.082 13.634 223.268 C 16.712 233.845 19.932 244.917 20.789 247.870 C 23.441 257.010 23.761 257.094 54.647 256.772 C 77.657 256.533 81.020 256.295 82.679 254.792 C 83.716 253.853 93.071 234.628 103.468 212.070 L 122.371 171.056 129.862 168.537 C 133.982 167.152 137.433 166.127 137.531 166.259 C 137.630 166.392 143.441 181.350 150.445 199.500 C 157.449 217.650 164.973 237.110 167.164 242.745 C 169.511 248.780 172.031 253.609 173.296 254.495 C 175.082 255.746 180.062 256.000 202.788 256.000 C 218.380 256.000 230.904 255.587 231.929 255.038 C 233.958 253.952 235.816 249.959 236.367 245.500 C 236.570 243.850 237.000 241.825 237.320 241.000 C 238.098 239.001 243.021 217.931 243.421 214.893 C 243.594 213.577 243.997 211.825 244.316 211.000 C 245.726 207.356 250.000 187.537 250.000 184.642 C 250.000 182.884 249.349 180.515 248.553 179.378 C 247.713 178.180 240.791 174.674 232.069 171.029 L 217.034 164.746 204.870 145.123 C 198.180 134.330 192.011 124.938 191.162 124.250 C 190.313 123.563 189.912 123.000 190.271 123.000 C 190.631 123.000 188.317 118.838 185.131 113.750 C 181.944 108.663 167.078 84.925 152.095 61.000 C 137.112 37.075 123.873 16.497 122.675 15.271 C 120.726 13.277 116.471 12.461 82.236 7.521 C 61.193 4.484 43.419 2.014 42.738 2.030 C 42.057 2.047 40.600 2.553 39.500 3.155 M 86.500 25.818 L 111.500 29.500 158.236 103.957 C 185.731 147.761 205.901 178.912 207.228 179.622 C 208.469 180.286 214.322 182.780 220.235 185.165 C 226.148 187.549 230.989 189.983 230.993 190.573 C 230.998 191.404 223.620 223.897 220.507 236.750 C 219.967 238.978 219.791 239.000 202.231 239.000 L 184.500 238.999 167.500 194.750 C 157.391 168.436 149.606 149.588 148.295 148.250 C 147.083 147.013 144.966 146.000 143.590 146.000 C 140.304 146.000 111.150 156.393 109.526 158.143 C 108.834 158.889 100.038 177.388 89.980 199.250 L 71.694 239.000 54.055 239.000 L 36.416 239.000 31.715 222.790 L 27.015 206.580 29.839 203.540 C 31.393 201.868 40.737 191.725 50.605 181.000 C 60.472 170.275 79.345 149.800 92.544 135.500 C 120.193 105.544 121.000 104.573 121.000 101.243 C 121.000 98.668 107.224 73.159 103.768 69.336 C 102.221 67.623 98.749 66.604 87.156 64.458 C 79.095 62.966 72.136 61.417 71.692 61.014 C 71.031 60.417 57.000 23.484 57.000 22.343 C 57.000 21.628 62.236 22.244 86.500 25.818 "/></g>
<g fill="#FFFFFFFF" stroke="#FFFFFFFF">
<path d="M 57.000 22.343 C 57.000 23.484 71.031 60.417 71.692 61.014 C 72.136 61.417 79.095 62.966 87.156 64.458 C 98.756 66.605 102.219 67.622 103.762 69.336 C 107.313 73.276 121.000 98.548 121.000 101.163 C 121.000 102.575 119.996 105.028 118.768 106.615 C 117.540 108.202 98.061 129.525 75.480 154.000 C 52.899 178.475 32.773 200.333 30.756 202.572 L 27.088 206.645 31.756 222.822 L 36.423 239.000 54.058 239.000 L 71.694 239.000 89.980 199.250 C 100.038 177.388 108.834 158.889 109.526 158.143 C 111.150 156.393 140.304 146.000 143.590 146.000 C 144.966 146.000 147.083 147.013 148.295 148.250 C 149.606 149.588 157.391 168.436 167.500 194.750 L 184.500 238.999 202.231 239.000 C 219.791 239.000 219.967 238.978 220.507 236.750 C 223.620 223.897 230.998 191.404 230.993 190.573 C 230.989 189.983 226.148 187.549 220.235 185.165 C 214.322 182.780 208.456 180.279 207.199 179.607 C 205.834 178.876 186.122 148.433 158.207 103.942 L 111.500 29.500 86.500 25.818 C 62.236 22.244 57.000 21.628 57.000 22.343 "/></g>
</svg>
