<svg fill="none" viewBox="0 0 320 320" xmlns="http://www.w3.org/2000/svg">
	<path
	d="M294 172.516c0 75.655-59.442 128.5-134 128.5-74.558 0-134-53.845-134-129.5 0-22.501 5-32.142 31.5-35.672 47.5-6.329 72.542-3.828 102.5-3.828 29.959 0 72.556-1.271 102.5 3.828 24.5 4.171 30 8.671 31.5 36.672z"
	fill="#FFB02E"
	/>
	<path
	d="M159.75 242.516c-28.25 0-35.75 3.5-35.75 3.5s3.5 27 35.75 27 35.75-27 35.75-27-7.5-3.5-35.75-3.5z"
	fill="#972021"
	/>
	<ellipse cx="160.5" cy="148.516" fill="#FF6723" rx="111.5" ry="11.5" />
	<path
	d="M135.5 160.015c.633-14.972-.483-22.788-5.5-36.443 0 0 9.5-12.056 27-12.056s30 3.064 30 3.064c-3.028 16.793-3.182 26.921-2.5 45.435h-49z"
	fill="#FEE064"
	/>
	<path
	d="M119.189 234.289c14.742-7.076 24.811-21.51 24.811-39.273 0-25.405-20.595-48-46-48s-47 19.595-47 45c0 13.983 6.542 26.812 16.662 35.521 5.893-2.245 12.652-3.521 19.838-3.521 12.705 0 24.077 3.989 31.689 10.273zM200.811 234.289C186.069 227.213 176 212.779 176 195.016c0-25.405 20.595-48 46-48s47 19.595 47 45c0 13.983-6.542 26.812-16.662 35.521-5.893-2.245-12.652-3.521-19.838-3.521-12.705 0-24.077 3.989-31.689 10.273z"
	fill="#fff"
	/>
	<circle cx="28" cy="28" fill="#270C36" r="28" transform="matrix(-1 0 0 1 247 165.016)" />
	<circle cx="101" cy="193.016" fill="#270C36" r="28" />
	<path
	d="M160.006 290.016c20.099 0 23.305-20.488 23.927-25.61.478-4.146-1.675-6.244-4.02-7.659-2.345-1.414-9.379-2.731-19.907-2.731-10.527 0-17.514 1.317-19.906 2.731-2.393 1.415-4.546 3.513-4.02 7.659.622 5.122 3.828 25.61 23.926 25.61z"
	fill="#F70A8D"
	/>
	<path
	d="M160.006 290.016c20.099 0 23.305-20.488 23.927-25.61.478-4.146-1.675-6.244-4.02-7.659-2.345-1.414-9.379-2.731-19.907-2.731-10.527 0-17.514 1.317-19.906 2.731-2.393 1.415-4.546 3.513-4.02 7.659.622 5.122 3.828 25.61 23.926 25.61z"
	fill="#F70A8D"
	/>
	<path
	d="M160.006 290.016c20.099 0 23.305-20.488 23.927-25.61.478-4.146-1.675-6.244-4.02-7.659-2.345-1.414-9.379-2.731-19.907-2.731-10.527 0-17.514 1.317-19.906 2.731-2.393 1.415-4.546 3.513-4.02 7.659.622 5.122 3.828 25.61 23.926 25.61z"
	fill="#20D45F"
	fill-opacity=".42"
	/>
	<path
	d="M173 19.016c-14.027 0-19.5-11.5-41-11-23.394 0-34 13-45.5 23-1.958 1.702-11.5 7-16 9-19.683 8.748-34.5 21.5-34.5 40.5 0 20.711 17.46 37.5 39 37.5 3.536 0 6.963-.453 10.22-1.301 8.7 10.539 22.179 16.658 37.28 17.301 23.5 1 31-15.25 44.5-8.5 9.259 4.629 13.83 8.5 28.5 8.5 17.108 0 25.057-5.233 30-11 9-10.5 22.879-4 31.5-4 18.778 0 34-14.551 34-32.5 0-17.95-15.222-32.5-34-32.5-5.15 0-14.856 1.27-17-7-3.5-13.5-20.148-29-44-29-9.318 0-17.691 1-23 1z"
	fill="#A68AE2"
	/>
	<path
	d="M157.32 14.32c4.969 2.458 9.492 4.696 15.68 4.696 2.284 0 5.134-.185 8.383-.396 4.304-.28 9.307-.604 14.617-.604 23.852 0 40.5 15.5 44 29 1.908 7.36 9.804 7.164 15.149 7.032a77.169 77.169 0 011.851-.032c16.664 0 30.528 11.46 33.438 26.583.137.71-1.083.88-1.354.208-.027-.07-.056-.139-.084-.208-4.719-11.431-17.265-19.605-32-19.605-.544 0-1.173.013-1.866.027-5.853.12-16.216.334-18.134-6.413-3.5-12.315-17.148-26.455-41-26.455-5.31 0-10.313.296-14.617.55-3.249.193-6.099.362-8.383.362-6.188 0-10.711-2.042-15.68-4.285-6.295-2.84-13.305-6.005-25.32-5.75-20.261 0-30.93 8.896-40.895 17.205a244.788 244.788 0 01-4.605 3.777c-1.958 1.553-11.5 6.386-16 8.21-15.7 6.366-28.304 15.055-32.762 27.107-.247.668-1.437.525-1.327-.178l.021-.135c2.572-16.004 16.348-27.125 34.068-35 4.5-2 14.042-7.298 16-9 1.54-1.34 3.064-2.732 4.605-4.14 9.965-9.109 20.634-18.86 40.895-18.86 12.015-.28 19.025 3.189 25.32 6.303z"
	fill="#DBA6E9"
	/>
	<circle cx="73.5" cy="20.516" fill="#7B61FF" r="9.5" />
	<circle cx="55" cy="108.016" fill="#D9D9D9" r="16" />
	<circle cx="55" cy="108.016" fill="#F2314D" r="16" />
	<circle cx="266.5" cy="49.516" fill="#7CEE1D" r="15.5" />
	<path
	d="M132.235 244.117c5.483-.823 14.191-1.601 27.515-1.601 12.211 0 20.546.654 26.073 1.396-1.542 5.86-12.963 8.104-26.823 8.104-13.698 0-25.013-2.191-26.765-7.899z"
	fill="#fff"
	/>
	<path
	d="M160.006 290.016c20.099 0 23.305-20.488 23.927-25.61.478-4.146-1.675-6.244-4.02-7.659-2.345-1.414-9.379-2.731-19.907-2.731-10.527 0-17.514 1.317-19.906 2.731-2.393 1.415-4.546 3.513-4.02 7.659.622 5.122 3.828 25.61 23.926 25.61z"
	fill="#F70A8D"
	/>
	<path
	d="M160.006 290.016c20.099 0 23.305-20.488 23.927-25.61.478-4.146-1.675-6.244-4.02-7.659-2.345-1.414-9.379-2.731-19.907-2.731-10.527 0-17.514 1.317-19.906 2.731-2.393 1.415-4.546 3.513-4.02 7.659.622 5.122 3.828 25.61 23.926 25.61z"
	fill="#F70A8D"
	/>
	<path
	d="M160.006 290.016c20.099 0 23.305-20.488 23.927-25.61.478-4.146-1.675-6.244-4.02-7.659-2.345-1.414-9.379-2.731-19.907-2.731-10.527 0-17.514 1.317-19.906 2.731-2.393 1.415-4.546 3.513-4.02 7.659.622 5.122 3.828 25.61 23.926 25.61z"
	fill="#F24630"
	/>
	<path
	d="M171.696 129.744c-5.721-3.89-13.954-4.248-19.786-.526-7.724 4.929-16.971 7.798-26.91 7.798-27.062 0-49-21.267-49-47.5 0-26.234 21.938-47.5 49-47.5 13.628 0 25.956 5.392 34.838 14.097 4.948 4.85 13.088 6.24 19.498 3.609a42.502 42.502 0 0116.164-3.166c22.92 0 41.5 18.012 41.5 40.23 0 22.218-18.58 40.23-41.5 40.23-8.856 0-17.065-2.69-23.804-7.272z"
	fill="#F4B8CA"
	/>
	<path
	d="M237 96.786c0 .752-1.081.808-1.271.08-4.558-17.42-20.841-30.31-40.229-30.31a42.503 42.503 0 00-16.164 3.166c-6.41 2.63-14.55 1.24-19.498-3.61-8.882-8.704-21.21-14.096-34.838-14.096-23.544 0-43.21 16.096-47.925 37.556-.139.632-1.075.59-1.075-.056 0-26.234 21.938-47.5 49-47.5 13.628 0 25.956 5.392 34.838 14.097 4.948 4.85 13.088 6.24 19.498 3.609a42.503 42.503 0 0116.164-3.166c22.92 0 41.5 18.012 41.5 40.23z"
	fill="#FFD7D7"
	/>
	<circle cx="205.5" cy="106.516" fill="#0C74FF" r="13.5" />
</svg>