<svg height="761" width="2500" xmlns="http://www.w3.org/2000/svg" viewBox="0.5 0.5 999 303.26" fill="none"><path fill="black" fill-rule="evenodd" clip-rule="evenodd" d="M.5 215.011V4.943h36.901v210.068zM131.86 62.615c-47.312 0-80.053 36.377-80.053 78.013 0 46.47 35.618 78.482 80.42 78.482 42.52 0 79.417-31.424 79.417-78.582 0-39.656-30.574-77.913-79.785-77.913zm-.435 35.597c24.76 0 42.984 19.273 42.984 42.55 0 24.68-20.093 42.683-42.316 42.683-26.258 0-42.783-20.812-42.783-42.616 0-23.9 18.657-42.617 42.115-42.617zM304.358 62.615c-47.312 0-80.052 36.377-80.052 78.013 0 46.47 35.618 78.482 80.42 78.482 42.52 0 79.417-31.424 79.417-78.582 0-27.77-12.026-40.092-12.026-40.092l10.228-3.508V66.98h-52.41s-11.362-4.365-25.577-4.365zm-.434 35.597c24.76 0 42.984 19.273 42.984 42.55 0 24.68-20.093 42.683-42.316 42.683-26.258 0-42.784-20.812-42.784-42.616 0-23.9 18.658-42.617 42.116-42.617zM346.647 225.28c0 24.68-20.093 42.817-42.316 42.817-26.258 0-42.85-21.013-42.85-42.817h-37.436c0 46.469 35.618 78.48 80.42 78.48 42.52 0 79.417-31.322 79.417-78.48zM398.923 215.011V66.98h36.901V215.01zM471.656 215.011V100.137h-19.788V66.98h19.788V21.522h36.9V66.98h20.323v33.157h-20.322v114.874zM441.733 24.936c0 13.495-10.94 24.435-24.436 24.435s-24.436-10.94-24.436-24.435S403.801.5 417.297.5s24.436 10.94 24.436 24.436zM611.84 62.514c-47.537 0-78.181 36.396-78.181 79.451 0 44.493 30.746 77.245 78.95 77.245 44.964 0 67.083-28.077 67.083-28.077l-24.668-24.7S636.4 186.52 613.076 186.52c-19.442 0-34.987-10.851-40.41-30.75h114.98v-10.161c0-40.545-23.466-83.094-75.807-83.094zm-1.17 32.49c16.998 0 34.383 9.094 38.27 30.817h-77.277c3.06-15.27 16.42-30.818 39.006-30.818zM779.947 219.229c-47.67 0-80.152-36.307-80.152-79.116 0-44.18 36.71-77.626 80-77.626 41.847 0 63.268 29.542 63.268 29.542l-25.742 25.625S802.41 98.388 779.62 98.388c-25.26 0-42.531 19.323-42.531 42.291 0 24.253 18.373 42.86 42.247 42.86 23.158 0 37.95-19.235 37.95-19.235l26 25.61s-21.213 29.315-63.338 29.315zM856.71 215.118V4.408h36.9v77.416s14.13-19.337 44.865-19.337c38.64 0 61.025 28.723 61.025 65.46v87.171h-36.901v-81.594c0-24.68-15.366-34.92-32.388-34.92-19.394 0-36.6 11.037-36.6 36.83v79.684z"/></svg>