<svg xmlns="http://www.w3.org/2000/svg" xml:space="preserve" style="enable-background:new 0 0 2500 761" viewBox="0 0 2500 761"><path d="M0 537.9V12.2h92.3v525.7H0zm328.7-381.4c-118.4 0-200.3 91-200.3 195.2 0 116.3 89.1 196.4 201.3 196.4 106.4 0 198.7-78.6 198.7-196.7 0-99.2-76.5-194.9-199.7-194.9zm-1.1 89.1c62 0 107.6 48.2 107.6 106.5 0 61.8-50.3 106.8-105.9 106.8-65.7 0-107.1-52.1-107.1-106.6 0-59.9 46.7-106.7 105.4-106.7zm432.8-89.1c-118.4 0-200.3 91-200.3 195.2 0 116.3 89.1 196.4 201.3 196.4 106.4 0 198.7-78.6 198.7-196.7 0-69.5-30.1-100.3-30.1-100.3l25.6-8.8v-74.9H824.4s-28.4-10.9-64-10.9zm-1.1 89.1c62 0 107.6 48.2 107.6 106.5 0 61.8-50.3 106.8-105.9 106.8-65.7 0-107.1-52.1-107.1-106.6 0-59.9 46.7-106.7 105.4-106.7zm106.9 318c0 61.8-50.3 107.1-105.9 107.1-65.7 0-107.2-52.6-107.2-107.1h-93.7c0 116.3 89.1 196.4 201.3 196.4 106.4 0 198.7-78.4 198.7-196.4h-93.2zm130.9-25.7V167.4h92.3v370.4l-92.3.1zm182 0V250.4h-49.5v-83h49.5V53.7h92.3v113.8h50.9v83h-50.9V538l-92.3-.1zm-74.9-475.7c0 33.8-27.4 61.1-61.2 61.1S981.9 96 981.9 62.2 1009.3 1 1043 1s61.2 27.4 61.2 61.2zm425.7 94c-119 0-195.6 91.1-195.6 198.8 0 111.3 76.9 193.3 197.6 193.3 112.5 0 167.9-70.3 167.9-70.3l-61.7-61.8s-46.6 50.3-105 50.3c-48.7 0-87.6-27.2-101.1-77h287.7v-25.4c-.1-101.4-58.8-207.9-189.8-207.9zm-2.9 81.3c42.5 0 86 22.8 95.8 77.1h-193.4c7.6-38.2 41-77.1 97.6-77.1zm423.6 310.9c-119.3 0-200.6-90.9-200.6-198 0-110.6 91.9-194.3 200.2-194.3 104.7 0 158.3 73.9 158.3 73.9l-64.4 64.1s-37.3-48.2-94.3-48.2c-63.2 0-106.4 48.4-106.4 105.8 0 60.7 46 107.3 105.7 107.3 58 0 95-48.1 95-48.1l65.1 64.1c-.1.1-53.2 73.4-158.6 73.4zm192.1-10.3V10.8h92.3v193.7s35.4-48.4 112.3-48.4C2444 156.2 2500 228 2500 320v218.1h-92.3V333.9c0-61.8-38.5-87.4-81.1-87.4-48.5 0-91.6 27.6-91.6 92.2v199.4h-92.3z" style="fill:#fff"/></svg>