<svg width="60" height="60" viewBox="0 0 60 60" fill="none" xmlns="http://www.w3.org/2000/svg">
<path fill-rule="evenodd" clip-rule="evenodd" d="M60 50.4615C60 49.357 59.1046 48.4615 58 48.4615H2C0.895431 48.4615 0 49.357 0 50.4615V58C0 59.1046 0.895432 60 2 60H58C59.1046 60 60 59.1046 60 58V50.4615Z" fill="#057BFA"/>
<path fill-rule="evenodd" clip-rule="evenodd" d="M30 27.2114C30 26.1069 29.1046 25.2114 28 25.2114H2C0.895431 25.2114 0 26.1069 0 27.2114V34.4614C0 35.566 0.89543 36.4614 2 36.4614H28C29.1046 36.4614 30 35.566 30 34.4614V27.2114Z" fill="#057BFA"/>
<path fill-rule="evenodd" clip-rule="evenodd" d="M15 3.21143C15 2.10686 14.1046 1.21143 13 1.21143H2C0.895431 1.21143 0 2.10686 0 3.21143V11.2114C0 12.316 0.89543 13.2114 2 13.2114H13C14.1046 13.2114 15 12.316 15 11.2114V3.21143Z" fill="#057BFA"/>
</svg>
