<svg width="427" height="101" viewBox="0 0 427 101" fill="none" xmlns="http://www.w3.org/2000/svg">
<path d="M99.2 80.7C93.8 80.7 88.9333 79.5333 84.6 77.2C80.2667 74.8667 76.8667 71.6333 74.4 67.5C72 63.3 70.8 58.5667 70.8 53.3C70.8 48.0333 72 43.3333 74.4 39.2C76.8667 35.0667 80.2667 31.8333 84.6 29.5C88.9333 27.1667 93.8 26 99.2 26C104.667 26 109.567 27.1667 113.9 29.5C118.233 31.8333 121.6 35.0667 124 39.2C126.467 43.3333 127.7 48.0333 127.7 53.3C127.7 58.5667 126.467 63.3 124 67.5C121.6 71.6333 118.233 74.8667 113.9 77.2C109.567 79.5333 104.667 80.7 99.2 80.7ZM99.2 70C103.8 70 107.6 68.4667 110.6 65.4C113.6 62.3333 115.1 58.3 115.1 53.3C115.1 48.3 113.6 44.2667 110.6 41.2C107.6 38.1333 103.8 36.6 99.2 36.6C94.6 36.6 90.8 38.1333 87.8 41.2C84.8667 44.2667 83.4 48.3 83.4 53.3C83.4 58.3 84.8667 62.3333 87.8 65.4C90.8 68.4667 94.6 70 99.2 70ZM192.653 26.6V71.9C192.653 90.7 183.053 100.1 163.853 100.1C158.72 100.1 153.853 99.4333 149.253 98.1C144.653 96.8333 140.853 94.9667 137.853 92.5L143.453 83.1C145.786 85.0333 148.72 86.5667 152.253 87.7C155.853 88.9 159.486 89.5 163.153 89.5C169.02 89.5 173.32 88.1667 176.053 85.5C178.786 82.8333 180.153 78.7667 180.153 73.3V70.5C178.02 72.8333 175.42 74.6 172.353 75.8C169.286 77 165.92 77.6 162.253 77.6C157.186 77.6 152.586 76.5333 148.453 74.4C144.386 72.2 141.153 69.1333 138.753 65.2C136.42 61.2667 135.253 56.7667 135.253 51.7C135.253 46.6333 136.42 42.1667 138.753 38.3C141.153 34.3667 144.386 31.3333 148.453 29.2C152.586 27.0667 157.186 26 162.253 26C166.12 26 169.62 26.6333 172.753 27.9C175.953 29.1667 178.62 31.1 180.753 33.7V26.6H192.653ZM164.153 67C168.886 67 172.753 65.6 175.753 62.8C178.82 59.9333 180.353 56.2333 180.353 51.7C180.353 47.2333 178.82 43.6 175.753 40.8C172.753 38 168.886 36.6 164.153 36.6C159.353 36.6 155.42 38 152.353 40.8C149.353 43.6 147.853 47.2333 147.853 51.7C147.853 56.2333 149.353 59.9333 152.353 62.8C155.42 65.6 159.353 67 164.153 67ZM225.587 80.7C221.253 80.7 217.02 80.1333 212.887 79C208.753 77.8667 205.453 76.4333 202.987 74.7L207.787 65.2C210.187 66.8 213.053 68.1 216.387 69.1C219.787 70.0333 223.12 70.5 226.387 70.5C233.853 70.5 237.587 68.5333 237.587 64.6C237.587 62.7333 236.62 61.4333 234.687 60.7C232.82 59.9667 229.787 59.2667 225.587 58.6C221.187 57.9333 217.587 57.1667 214.787 56.3C212.053 55.4333 209.653 53.9333 207.587 51.8C205.587 49.6 204.587 46.5667 204.587 42.7C204.587 37.6333 206.687 33.6 210.887 30.6C215.153 27.5333 220.887 26 228.087 26C231.753 26 235.42 26.4333 239.087 27.3C242.753 28.1 245.753 29.2 248.087 30.6L243.287 40.1C238.753 37.4333 233.653 36.1 227.987 36.1C224.32 36.1 221.52 36.6667 219.587 37.8C217.72 38.8667 216.787 40.3 216.787 42.1C216.787 44.1 217.787 45.5333 219.787 46.4C221.853 47.2 225.02 47.9667 229.287 48.7C233.553 49.3667 237.053 50.1333 239.787 51C242.52 51.8667 244.853 53.3333 246.787 55.4C248.787 57.4667 249.787 60.4 249.787 64.2C249.787 69.2 247.62 73.2 243.287 76.2C238.953 79.2 233.053 80.7 225.587 80.7ZM290.152 26C295.352 26 299.985 27.1333 304.052 29.4C308.185 31.6667 311.418 34.8667 313.752 39C316.085 43.1333 317.252 47.9 317.252 53.3C317.252 58.7 316.085 63.5 313.752 67.7C311.418 71.8333 308.185 75.0333 304.052 77.3C299.985 79.5667 295.352 80.7 290.152 80.7C282.952 80.7 277.252 78.3 273.052 73.5V99.4H260.552V26.6H272.452V33.6C274.518 31.0667 277.052 29.1667 280.052 27.9C283.118 26.6333 286.485 26 290.152 26ZM288.752 70C293.352 70 297.118 68.4667 300.052 65.4C303.052 62.3333 304.552 58.3 304.552 53.3C304.552 48.3 303.052 44.2667 300.052 41.2C297.118 38.1333 293.352 36.6 288.752 36.6C285.752 36.6 283.052 37.3 280.652 38.7C278.252 40.0333 276.352 41.9667 274.952 44.5C273.552 47.0333 272.852 49.9667 272.852 53.3C272.852 56.6333 273.552 59.5667 274.952 62.1C276.352 64.6333 278.252 66.6 280.652 68C283.052 69.3333 285.752 70 288.752 70ZM353.106 80.7C347.706 80.7 342.84 79.5333 338.506 77.2C334.173 74.8667 330.773 71.6333 328.306 67.5C325.906 63.3 324.706 58.5667 324.706 53.3C324.706 48.0333 325.906 43.3333 328.306 39.2C330.773 35.0667 334.173 31.8333 338.506 29.5C342.84 27.1667 347.706 26 353.106 26C358.573 26 363.473 27.1667 367.806 29.5C372.14 31.8333 375.506 35.0667 377.906 39.2C380.373 43.3333 381.606 48.0333 381.606 53.3C381.606 58.5667 380.373 63.3 377.906 67.5C375.506 71.6333 372.14 74.8667 367.806 77.2C363.473 79.5333 358.573 80.7 353.106 80.7ZM353.106 70C357.706 70 361.506 68.4667 364.506 65.4C367.506 62.3333 369.006 58.3 369.006 53.3C369.006 48.3 367.506 44.2667 364.506 41.2C361.506 38.1333 357.706 36.6 353.106 36.6C348.506 36.6 344.706 38.1333 341.706 41.2C338.773 44.2667 337.306 48.3 337.306 53.3C337.306 58.3 338.773 62.3333 341.706 65.4C344.706 68.4667 348.506 70 353.106 70ZM425.659 77.1C424.193 78.3 422.393 79.2 420.259 79.8C418.193 80.4 415.993 80.7 413.659 80.7C407.793 80.7 403.259 79.1667 400.059 76.1C396.859 73.0333 395.259 68.5667 395.259 62.7V37H386.459V27H395.259V14.8H407.759V27H422.059V37H407.759V62.4C407.759 65 408.393 67 409.659 68.4C410.926 69.7333 412.759 70.4 415.159 70.4C417.959 70.4 420.293 69.6667 422.159 68.2L425.659 77.1Z" fill="white"/>
<path fill-rule="evenodd" clip-rule="evenodd" d="M60 70.4615C60 69.357 59.1046 68.4615 58 68.4615H2C0.895431 68.4615 0 69.357 0 70.4615V78C0 79.1046 0.895432 80 2 80H58C59.1046 80 60 79.1046 60 78V70.4615Z" fill="#057BFA"/>
<path fill-rule="evenodd" clip-rule="evenodd" d="M30 47.2114C30 46.1069 29.1046 45.2114 28 45.2114H2C0.895431 45.2114 0 46.1069 0 47.2114V54.4614C0 55.566 0.89543 56.4614 2 56.4614H28C29.1046 56.4614 30 55.566 30 54.4614V47.2114Z" fill="#057BFA"/>
<path fill-rule="evenodd" clip-rule="evenodd" d="M15 23.2114C15 22.1069 14.1046 21.2114 13 21.2114H2C0.895431 21.2114 0 22.1069 0 23.2114V31.2114C0 32.316 0.89543 33.2114 2 33.2114H13C14.1046 33.2114 15 32.316 15 31.2114V23.2114Z" fill="#057BFA"/>
</svg>
