<svg width="513" height="500" viewBox="0 0 513 500" fill="none" xmlns="http://www.w3.org/2000/svg">
<path fill-rule="evenodd" clip-rule="evenodd" d="M141.274 110.643L74.7055 155.651C67.4711 160.542 62.4624 167.894 60.7029 176.2L54.1947 206.926C53.8496 208.556 53.0843 210.076 51.9685 211.351L21.7616 250.22C17.6946 254.864 17.7927 267.203 28.932 275.105C33.2037 278.759 38.9149 286.951 45.411 296.27C59.1654 316.001 76.4389 340.781 91.0194 338.208C111.652 331.092 136.908 328.816 156.3 338.208C216.644 386.646 171.251 413.904 156.3 500C164.294 453.962 206.568 375.275 295.93 332.76C282.702 322.154 248.307 314.255 224.421 311.883C224.421 311.883 297.803 250.22 388.308 221.884C325.127 74.3232 220.836 3.80531 220.836 3.80531C215.521 -2.6464 204.79 -0.529851 202.576 7.40676C200.797 30.7345 197.848 46.5972 192.979 61.55L156.3 20.0054C152.467 15.4716 144.809 18.0895 144.846 23.9197C151.057 57.8076 150.185 76.8294 141.274 110.643ZM216.719 31.4601C241.856 74.0927 253.243 98.3126 257.106 143.512C230.366 128.604 218.717 124.81 199.054 124.904C210.523 90.6679 214.029 70.0524 216.719 31.4601Z" fill="#2A2A2A"/>
<path d="M378.121 342.576C275.735 365.573 212.995 404.989 160.709 499.995C240.556 368.505 494.773 392.02 494.773 392.02C480.939 368.638 442.289 325.313 410.594 304.463C410.594 304.463 423.883 279.833 494.773 259.543C494.773 259.543 378.121 250.241 310.822 299.831C335.183 308.67 362.63 323.641 378.121 342.576Z" fill="#2A2A2A"/>
</svg>
