<svg width="305" height="298" viewBox="0 0 305 298" fill="none" xmlns="http://www.w3.org/2000/svg">
<path fill-rule="evenodd" clip-rule="evenodd" d="M83.9934 65.9433L44.4157 92.7681C40.1145 95.6833 37.1366 100.065 36.0905 105.015L32.2211 123.328C32.0159 124.3 31.561 125.205 30.8976 125.965L12.9383 149.131C10.5203 151.899 10.5786 159.253 17.2014 163.963C19.7411 166.14 23.1366 171.023 26.9988 176.577C35.1764 188.337 45.4462 203.106 54.115 201.572C66.3818 197.331 81.3979 195.974 92.9269 201.572C128.804 230.441 101.816 246.687 92.9269 298C97.6797 270.562 122.813 223.664 175.943 198.325C168.078 192.004 147.629 187.296 133.428 185.882C133.428 185.882 177.056 149.131 230.866 132.243C193.302 44.2967 131.297 2.26796 131.297 2.26796C128.137 -1.57726 121.756 -0.315791 120.44 4.41443C119.382 18.3178 117.629 27.772 114.734 36.6838L92.9269 11.9232C90.6483 9.22109 86.0949 10.7813 86.1172 14.2562C89.8099 34.4533 89.2914 45.7903 83.9934 65.9433ZM128.848 18.7502C143.793 44.1593 150.564 58.5943 152.86 85.5334C136.962 76.6478 130.036 74.3867 118.346 74.4429C125.165 54.0381 127.249 41.7512 128.848 18.7502Z" fill="white"/>
<path d="M224.809 204.175C163.936 217.881 126.635 241.373 95.5483 297.997C143.02 219.629 294.164 233.644 294.164 233.644C285.938 219.708 262.959 193.886 244.115 181.46C244.115 181.46 252.016 166.78 294.164 154.687C294.164 154.687 224.809 149.144 184.797 178.699C199.28 183.967 215.599 192.89 224.809 204.175Z" fill="white"/>
</svg>
