<?xml version="1.0" encoding="UTF-8"?>
<svg version="1.1" xmlns="http://www.w3.org/2000/svg" width="250" height="250">
<path d="M0 0 C82.5 0 165 0 250 0 C250 82.5 250 165 250 250 C167.5 250 85 250 0 250 C0 167.5 0 85 0 0 Z " fill="#FEFDFD" transform="translate(0,0)"/>
<path d="M0 0 C1 1 2 2 3 3 C3.66 3.33 4.32 3.66 5 4 C7.14229025 5.07114513 8.35431476 6.28276323 10 8 C10.99 8.66 11.98 9.32 13 10 C13 10.66 13 11.32 13 12 C13.5775 12.12375 14.155 12.2475 14.75 12.375 C19.78125005 13.77256946 22.36476127 16.27820797 26 20 C27.0954848 20.9064295 28.19965962 21.80246459 29.3125 22.6875 C30.199375 23.450625 31.08625 24.21375 32 25 C32 25.66 32 26.32 32 27 C32.99 27 33.98 27 35 27 C35 26.34 35 25.68 35 25 C38.61973402 23.68373308 41.09567131 23 45 23 C45 22.01 45 21.02 45 20 C43.515 19.505 43.515 19.505 42 19 C40.875 12.25 40.875 12.25 42 10 C53.5019973 9.69037495 63.89740512 9.6758698 75 13 C76.7634375 13.433125 76.7634375 13.433125 78.5625 13.875 C82.83648721 15.27375945 86.9283971 17.00916668 91.06640625 18.765625 C96.62240644 21.103436 102.26688951 23.13673909 108 25 C108 25.66 108 26.32 108 27 C108.7425 27.12375 109.485 27.2475 110.25 27.375 C112.80141485 27.95486701 114.7267573 28.73708739 117 30 C117 30.66 117 31.32 117 32 C118.1446875 32.185625 118.1446875 32.185625 119.3125 32.375 C122 33 122 33 125 35 C125 35.66 125 36.32 125 37 C125.804375 37.268125 126.60875 37.53625 127.4375 37.8125 C128.283125 38.204375 129.12875 38.59625 130 39 C130.33 39.99 130.66 40.98 131 42 C131.60714844 42.13277344 132.21429688 42.26554687 132.83984375 42.40234375 C135.91838502 43.25409206 136.75906177 44.98443059 138.5625 47.5625 C140.2269789 50.03212832 140.2269789 50.03212832 142 52 C142.99 52 143.98 52 145 52 C145 51.34 145 50.68 145 50 C150.05002222 48.96409801 154.87416389 48.89748328 160 49 C161 52 161 52 161 54 C161.598125 53.79375 162.19625 53.5875 162.8125 53.375 C165 53 165 53 168 55 C167.67 55.99 167.34 56.98 167 58 C166.360625 58.309375 165.72125 58.61875 165.0625 58.9375 C162.5209766 60.24676963 162.14950248 61.45467308 161 64 C160.01 64.495 160.01 64.495 159 65 C158.31527335 66.88764903 158.31527335 66.88764903 157.875 69.0625 C157.62363281 70.16271484 157.62363281 70.16271484 157.3671875 71.28515625 C157.24601563 71.85105469 157.12484375 72.41695313 157 73 C159.31 73 161.62 73 164 73 C163.67 75.97 163.34 78.94 163 82 C161.35 82 159.7 82 158 82 C158 83.65 158 85.3 158 87 C158.66 87 159.32 87 160 87 C162.13369429 101.66914823 162.73373036 115.3061993 160 130 C159.34 130 158.68 130 158 130 C157.979375 131.175625 157.95875 132.35125 157.9375 133.5625 C157.1808174 140.94015532 153.294125 147.47195594 150 154 C149.34 154 148.68 154 148 154 C147.814375 155.1446875 147.814375 155.1446875 147.625 156.3125 C147 159 147 159 145 162 C144.34 162 143.68 162 143 162 C142.731875 162.804375 142.46375 163.60875 142.1875 164.4375 C141.795625 165.283125 141.40375 166.12875 141 167 C140.01 167.33 139.02 167.66 138 168 C137.64587656 169.32796291 137.31478446 170.66216607 137 172 C135.625 173.75 135.625 173.75 134 175 C133.01 175 132.02 175 131 175 C130.67 175.99 130.34 176.98 130 178 C127.4375 179.1875 127.4375 179.1875 125 180 C125 180.66 125 181.32 125 182 C122.09451118 184.04169485 120.59857954 185 117 185 C116.67 185.99 116.34 186.98 116 188 C109.71915704 191.81336894 100.43588078 195.71960137 93 195 C93 195.66 93 196.32 93 197 C83.69508959 198.96632069 74.9021484 199.14572753 65.42919922 198.66210938 C62.86373463 198.5882312 60.52594922 198.54089724 58 199 C55.89346318 201.35824972 55.89346318 201.35824972 55 204 C54.34 204 53.68 204 53 204 C52.87625 204.5775 52.7525 205.155 52.625 205.75 C51.99351176 208.02335767 51.11141809 209.9253529 50 212 C49.34 212 48.68 212 48 212 C47.731875 212.969375 47.46375 213.93875 47.1875 214.9375 C46.795625 215.948125 46.40375 216.95875 46 218 C45.01 218.33 44.02 218.66 43 219 C43.99 214.38 44.98 209.76 46 205 C44.35 204.67 42.7 204.34 41 204 C38.5 202.625 38.5 202.625 36 201 C35.175 200.54625 34.35 200.0925 33.5 199.625 C29.54948197 197.05716328 26.50784888 194.52354663 25 190 C24.34 189.67 23.68 189.34 23 189 C21 188 21 188 20 185 C18.70921589 183.5412312 18.70921589 183.5412312 17 182 C15.88625 180.8553125 15.88625 180.8553125 14.75 179.6875 C12.07420986 177.07252328 9.28946481 174.7443539 6.35546875 172.4296875 C5 171 5 171 5 168 C4.01 167.67 3.02 167.34 2 167 C0.8125 164.4375 0.8125 164.4375 0 162 C-0.66 162 -1.32 162 -2 162 C-4.04169485 159.09451118 -5 157.59857954 -5 154 C-5.99 153.67 -6.98 153.34 -8 153 C-9.4477922 150.10441559 -10 148.25811062 -10 145 C-10.66 145 -11.32 145 -12 145 C-12.50636607 143.25183142 -13.00484619 141.50137737 -13.5 139.75 C-13.7784375 138.77546875 -14.056875 137.8009375 -14.34375 136.796875 C-15 134 -15 134 -15 130 C-15.66 130 -16.32 130 -17 130 C-18.9353514 115.1047062 -19.06760375 101.87936267 -17 87 C-16.34 87 -15.68 87 -15 87 C-14.95101562 86.41992188 -14.90203125 85.83984375 -14.8515625 85.2421875 C-14.40350595 80.56076908 -13.701979 76.42514541 -12 72 C-11.34 72 -10.68 72 -10 72 C-9.87625 71.2575 -9.7525 70.515 -9.625 69.75 C-9.04513299 67.19858515 -8.26291261 65.2732427 -7 63 C-6.34 63 -5.68 63 -5 63 C-4.814375 61.88625 -4.814375 61.88625 -4.625 60.75 C-3.51489556 55.86554049 -1.55408946 53.45536476 2 50 C3.49543376 48.17492762 4.97711495 46.34154163 6.4375 44.48828125 C8.25178245 42.76017722 9.55682616 42.39490956 12 42 C10.90213575 36.59212615 10.90213575 36.59212615 7 33 C6.31411253 31.67645151 5.64836894 30.34232632 5 29 C0.8240755 24.04108965 -3.19096452 22.42579235 -9.48828125 21.5 C-13.41818847 20.71768565 -16.51271508 18.93738051 -20 17 C-20 16.34 -20 15.68 -20 15 C-21.32 14.34 -22.64 13.68 -24 13 C-23.52905569 8.50248183 -22.15077695 6.72342994 -18.75 3.8125 C-17.98171875 3.13832031 -17.2134375 2.46414062 -16.421875 1.76953125 C-10.62518877 -2.46578949 -6.65396328 -2.21798776 0 0 Z " fill="#030101" transform="translate(53,16)"/>
<path d="M0 0 C0 0.66 0 1.32 0 2 C4.29 2 8.58 2 13 2 C13 3.65 13 5.3 13 7 C13.66 7 14.32 7 15 7 C17.13369429 21.66914823 17.73373036 35.3061993 15 50 C14.34 50 13.68 50 13 50 C12.979375 51.175625 12.95875 52.35125 12.9375 53.5625 C12.1808174 60.94015532 8.294125 67.47195594 5 74 C4.34 74 3.68 74 3 74 C2.814375 75.1446875 2.814375 75.1446875 2.625 76.3125 C2 79 2 79 0 82 C-0.66 82 -1.32 82 -2 82 C-2.4021875 83.2065625 -2.4021875 83.2065625 -2.8125 84.4375 C-3.204375 85.283125 -3.59625 86.12875 -4 87 C-5.485 87.495 -5.485 87.495 -7 88 C-7.35412344 89.32796291 -7.68521554 90.66216607 -8 92 C-9.375 93.75 -9.375 93.75 -11 95 C-11.99 95 -12.98 95 -14 95 C-14.495 96.485 -14.495 96.485 -15 98 C-17.5625 99.1875 -17.5625 99.1875 -20 100 C-20 100.66 -20 101.32 -20 102 C-22.90548882 104.04169485 -24.40142046 105 -28 105 C-28.495 106.485 -28.495 106.485 -29 108 C-35.28084296 111.81336894 -44.56411922 115.71960137 -52 115 C-52 115.66 -52 116.32 -52 117 C-63.71516536 119.17956565 -75.19481629 119.88882939 -87 118 C-86.54625 117.278125 -86.0925 116.55625 -85.625 115.8125 C-84.14505642 113.25105919 -83.02782461 110.76722011 -82 108 C-82.763125 107.484375 -83.52625 106.96875 -84.3125 106.4375 C-87.50495211 103.54202018 -88.60290508 101.04422215 -90 97 C-90 96.01 -90 95.02 -90 94 C-90.66 94 -91.32 94 -92 94 C-92.39180108 92.42074025 -92.76280736 90.83631206 -93.125 89.25 C-93.33382812 88.36828125 -93.54265625 87.4865625 -93.7578125 86.578125 C-94.04084214 83.56522886 -93.69572254 82.47442293 -92 80 C-90.23046875 78.25390625 -90.23046875 78.25390625 -88.1875 76.5625 C-84.28998636 73.26406169 -80.67708926 69.79275059 -77.1875 66.0625 C-68.63636364 58 -68.63636364 58 -64 58 C-63.34 59.98 -62.68 61.96 -62 64 C-61.34 64 -60.68 64 -60 64 C-58.8395327 66.32699449 -57.69683396 68.66029746 -56.5625 71 C-56.23701172 71.64839844 -55.91152344 72.29679687 -55.57617188 72.96484375 C-53.30394256 77.69670273 -52.41487556 81.76438733 -52 87 C-46.1113307 88.7447909 -40.13641778 90.21460937 -34 89 C-30.23329035 86.37471752 -28.38568411 82.2830236 -27 78 C-26.34 78 -25.68 78 -25 78 C-24.34 71.73 -23.68 65.46 -23 59 C-25.31 59.66 -27.62 60.32 -30 61 C-30 50.11 -30 39.22 -30 28 C-30.66 28 -31.32 28 -32 28 C-32.66 26.68 -33.32 25.36 -34 24 C-37.96 24 -41.92 24 -46 24 C-45.79766165 21.76823823 -45.56197726 19.53948507 -45.3125 17.3125 C-45.18488281 16.07113281 -45.05726563 14.82976562 -44.92578125 13.55078125 C-43.57107251 8.35487303 -40.72147298 6.05635842 -36.25 3.3125 C-35.5075 2.879375 -34.765 2.44625 -34 2 C-33.67 1.34 -33.34 0.68 -33 0 C-22.90411443 -6.09619011 -10.73507138 -2.99583387 0 0 Z " fill="#EB1B24" transform="translate(198,96)"/>
<path d="M0 0 C3.48121831 3.81276291 4.57430144 8.15800488 6 13 C6.53367187 14.546875 6.53367187 14.546875 7.078125 16.125 C9.91324031 25.38903878 10.36831179 34.19776127 10.375 43.875 C10.37653076 45.11088867 10.37806152 46.34677734 10.37963867 47.62011719 C10.29502169 54.63339984 9.70880382 61.19034797 8 68 C7.34 68 6.68 68 6 68 C5.79503906 69.13179688 5.59007812 70.26359375 5.37890625 71.4296875 C5.10693028 72.91148761 4.83478613 74.39325685 4.5625 75.875 C4.42779297 76.62136719 4.29308594 77.36773437 4.15429688 78.13671875 C3.11328125 83.7734375 3.11328125 83.7734375 2 86 C-0.64420041 102.03890905 -1.8350859 118.31728613 3 134 C3.35235542 135.66274909 3.69147318 137.32856346 4 139 C-0.1018884 136.70776825 -3.56747142 134.19304984 -7 131 C-7 130.01 -7 129.02 -7 128 C-8.485 127.505 -8.485 127.505 -10 127 C-11.1875 124.4375 -11.1875 124.4375 -12 122 C-12.66 122 -13.32 122 -14 122 C-16.04169485 119.09451118 -17 117.59857954 -17 114 C-17.99 113.67 -18.98 113.34 -20 113 C-21.4477922 110.10441559 -22 108.25811062 -22 105 C-22.66 105 -23.32 105 -24 105 C-24.50636607 103.25183142 -25.00484619 101.50137737 -25.5 99.75 C-25.7784375 98.77546875 -26.056875 97.8009375 -26.34375 96.796875 C-27 94 -27 94 -27 90 C-27.66 90 -28.32 90 -29 90 C-30.9353514 75.1047062 -31.06760375 61.87936267 -29 47 C-28.34 47 -27.68 47 -27 47 C-26.95101562 46.41992188 -26.90203125 45.83984375 -26.8515625 45.2421875 C-26.40350595 40.56076908 -25.701979 36.42514541 -24 32 C-23.34 32 -22.68 32 -22 32 C-21.87625 31.2575 -21.7525 30.515 -21.625 29.75 C-21.04513299 27.19858515 -20.26291261 25.2732427 -19 23 C-18.34 23 -17.68 23 -17 23 C-16.87625 22.2575 -16.7525 21.515 -16.625 20.75 C-15.51489556 15.86554049 -13.55408946 13.45536476 -10 10 C-8.50456624 8.17492762 -7.02288505 6.34154163 -5.5625 4.48828125 C-3.74821755 2.76017722 -2.44317384 2.39490956 0 2 C0 1.34 0 0.68 0 0 Z " fill="#EB1C25" transform="translate(65,56)"/>
<path d="M0 0 C5.94 1.485 5.94 1.485 12 3 C12 3.66 12 4.32 12 5 C12.7425 5.12375 13.485 5.2475 14.25 5.375 C16.80141485 5.95486701 18.7267573 6.73708739 21 8 C21 8.66 21 9.32 21 10 C21.763125 10.12375 22.52625 10.2475 23.3125 10.375 C26 11 26 11 29 13 C29 13.66 29 14.32 29 15 C29.804375 15.268125 30.60875 15.53625 31.4375 15.8125 C32.283125 16.204375 33.12875 16.59625 34 17 C34.495 18.485 34.495 18.485 35 20 C35.59296875 20.12246094 36.1859375 20.24492188 36.796875 20.37109375 C40.07456864 21.30674743 41.22029864 23.39005988 43.25 26.0625 C43.95640625 26.98160156 44.6628125 27.90070313 45.390625 28.84765625 C45.92171875 29.55792969 46.4528125 30.26820312 47 31 C46.34 32.65 45.68 34.3 45 36 C43.35333797 35.8864371 41.70763918 35.75882619 40.0625 35.625 C39.14597656 35.55539063 38.22945312 35.48578125 37.28515625 35.4140625 C36.15400391 35.20910156 36.15400391 35.20910156 35 35 C34.67 34.34 34.34 33.68 34 33 C29.49407525 30.46541733 25.00748841 30.80362791 20 31 C19.98582031 30.13117188 19.97164062 29.26234375 19.95703125 28.3671875 C19.72438473 21.14388295 19.72438473 21.14388295 16.9375 14.625 C15.968125 13.75875 14.99875 12.8925 14 12 C13.37351563 11.41734375 12.74703125 10.8346875 12.1015625 10.234375 C8.27960388 6.74921733 4.32821004 3.81333653 0 1 C0 0.67 0 0.34 0 0 Z " fill="#E71E27" transform="translate(149,38)"/>
<path d="M0 0 C0.33 0 0.66 0 1 0 C1 3.3 1 6.6 1 10 C0.34 10 -0.32 10 -1 10 C-1.0248966 15.10457004 -1.04295235 20.20910397 -1.05493164 25.3137207 C-1.05993075 27.04679989 -1.06673224 28.77987493 -1.07543945 30.51293945 C-1.08770027 33.01775138 -1.09327266 35.52250708 -1.09765625 38.02734375 C-1.10281754 38.79022202 -1.10797882 39.55310028 -1.11329651 40.33909607 C-1.11383644 45.6296333 -0.65827807 50.74971989 0 56 C-5.08764906 50.91235094 -4.21725106 41.72471853 -4.25 34.9375 C-4.19364025 23.06907503 -3.04125308 11.48775848 0 0 Z " fill="#4B080B" transform="translate(68,134)"/>
<path d="M0 0 C0.93423645 3.01031744 1.04449911 3.86650268 0 7 C-0.66 7 -1.32 7 -2 7 C-2.33 8.65 -2.66 10.3 -3 12 C-5.375 11.75 -5.375 11.75 -8 11 C-9.1875 9 -9.1875 9 -10 7 C-10.66 6.67 -11.32 6.34 -12 6 C-11.34 6 -10.68 6 -10 6 C-10 5.34 -10 4.68 -10 4 C-6.38026598 2.68373308 -3.90432869 2 0 2 C0 1.34 0 0.68 0 0 Z " fill="#E02027" transform="translate(98,37)"/>
<path d="M0 0 C4.38889325 0.66498383 7.9811485 2.18757677 12 4 C12 4.99 12 5.98 12 7 C9.69 7.33 7.38 7.66 5 8 C4.67 7.01 4.34 6.02 4 5 C3.01 4.67 2.02 4.34 1 4 C0.3125 1.9375 0.3125 1.9375 0 0 Z " fill="#DD1921" transform="translate(114,91)"/>
<path d="M0 0 C7.74136601 -0.10920422 15.31395526 0.02840067 23 1 C23 1.66 23 2.32 23 3 C24.65 3 26.3 3 28 3 C28 3.33 28 3.66 28 4 C21.25 4.125 21.25 4.125 19 3 C17.4804236 2.84876169 15.95527498 2.75118307 14.4296875 2.68359375 C13.53378906 2.64169922 12.63789062 2.59980469 11.71484375 2.55664062 C10.77769531 2.51732422 9.84054688 2.47800781 8.875 2.4375 C7.93011719 2.39431641 6.98523438 2.35113281 6.01171875 2.30664062 C3.67462908 2.20040928 1.3374317 2.09836824 -1 2 C-0.67 1.34 -0.34 0.68 0 0 Z " fill="#BABABA" transform="translate(96,24)"/>
<path d="M0 0 C0 0.66 0 1.32 0 2 C-0.66 2 -1.32 2 -2 2 C-2.66 3.32 -3.32 4.64 -4 6 C-6.31 5.67 -8.62 5.34 -11 5 C-11.33 4.01 -11.66 3.02 -12 2 C-10.56342755 1.66269158 -9.12569907 1.33030409 -7.6875 1 C-6.88699219 0.814375 -6.08648437 0.62875 -5.26171875 0.4375 C-3 0 -3 0 0 0 Z " fill="#D51720" transform="translate(153,94)"/>
<path d="M0 0 C0 0.33 0 0.66 0 1 C-5.94 1 -11.88 1 -18 1 C-18 0.34 -18 -0.32 -18 -1 C-11.96066243 -2.71183038 -5.67573523 -2.92941173 0 0 Z " fill="#3D1214" transform="translate(216,97)"/>
<path d="M0 0 C-1.21065165 3.63195496 -2.53691126 4.42896192 -5.5625 6.6875 C-6.38878906 7.31011719 -7.21507813 7.93273437 -8.06640625 8.57421875 C-8.70449219 9.04472656 -9.34257813 9.51523438 -10 10 C-10.66 9.67 -11.32 9.34 -12 9 C-3.33333333 0 -3.33333333 0 0 0 Z " fill="#B5141B" transform="translate(131,155)"/>
<path d="M0 0 C0 0.33 0 0.66 0 1 C-1.8871875 1.12375 -1.8871875 1.12375 -3.8125 1.25 C-7.31302273 1.63700664 -7.31302273 1.63700664 -9.875 4.0625 C-10.24625 4.701875 -10.6175 5.34125 -11 6 C-11.66 6 -12.32 6 -13 6 C-12.67 4.68 -12.34 3.36 -12 2 C-12.99 1.67 -13.98 1.34 -15 1 C-9.94997778 -0.03590199 -5.12583611 -0.10251672 0 0 Z " fill="#616161" transform="translate(213,65)"/>
<path d="M0 0 C-0.66 1.32 -1.32 2.64 -2 4 C-2.66 4 -3.32 4 -4 4 C-4.28875 4.61875 -4.5775 5.2375 -4.875 5.875 C-6 8 -6 8 -8 10 C-7.61508669 5.50934475 -5.14531178 0 0 0 Z " fill="#343434" transform="translate(37,19)"/>
<path d="M0 0 C0 0.66 0 1.32 0 2 C-0.66 2 -1.32 2 -2 2 C-2.33 2.66 -2.66 3.32 -3 4 C-3 3.34 -3 2.68 -3 2 C-5.3431213 2.25561323 -7.67843403 2.59270772 -10 3 C-10.33 3.66 -10.66 4.32 -11 5 C-11.33 4.01 -11.66 3.02 -12 2 C-10.56342755 1.66269158 -9.12569907 1.33030409 -7.6875 1 C-6.88699219 0.814375 -6.08648437 0.62875 -5.26171875 0.4375 C-3 0 -3 0 0 0 Z " fill="#AE131A" transform="translate(153,94)"/>
<path d="M0 0 C-5.36439644 2.68219822 -9.01006953 3.3152595 -15 3 C-15 2.67 -15 2.34 -15 2 C-13.02 2 -11.04 2 -9 2 C-9 1.34 -9 0.68 -9 0 C-5.62182575 -0.84454356 -3.32534757 -1.10844919 0 0 Z " fill="#FAC7C9" transform="translate(155,211)"/>
<path d="M0 0 C0.33 0 0.66 0 1 0 C1.33 2.64 1.66 5.28 2 8 C0.02 8.99 0.02 8.99 -2 10 C-1.34 6.7 -0.68 3.4 0 0 Z " fill="#7C7C7C" transform="translate(98,225)"/>
<path d="M0 0 C2.4375 0.375 2.4375 0.375 5 1 C5.33 1.66 5.66 2.32 6 3 C4.02 3.99 4.02 3.99 2 5 C1.34 3.35 0.68 1.7 0 0 Z " fill="#BC151C" transform="translate(114,91)"/>
</svg>
