<svg fill="none" xmlns="http://www.w3.org/2000/svg" viewBox="0 0 251 184"><path d="M241.919 31.566c0-12.409-10.06-22.469-22.47-22.469-12.409 0-22.469 10.06-22.469 22.47v119.836c0 12.41 10.06 22.469 22.469 22.469 12.41 0 22.47-10.059 22.47-22.469V31.566Z" stroke="url(#a)" stroke-width="4" stroke-miterlimit="10"/><path d="M147.921 31.566c0-12.409-10.06-22.469-22.469-22.469-12.41 0-22.47 10.06-22.47 22.47v119.836c0 12.41 10.06 22.469 22.47 22.469 12.409 0 22.469-10.059 22.469-22.469V31.566Z" stroke="url(#b)" stroke-width="4" stroke-miterlimit="10"/><path d="M237.154 45.388c7.647-9.773 5.923-23.895-3.85-31.542-9.774-7.647-23.896-5.923-31.543 3.85L107.932 137.62c-7.646 9.774-5.923 23.896 3.851 31.543 9.773 7.646 23.895 5.923 31.542-3.851l93.829-119.923Z" stroke="url(#c)" stroke-width="4" stroke-miterlimit="10"/><path d="M143.068 45.392c7.646-9.774 5.922-23.896-3.851-31.543-9.774-7.646-23.896-5.922-31.542 3.851l-93.83 119.923c-7.646 9.773-5.922 23.895 3.851 31.542 9.774 7.647 23.896 5.923 31.543-3.85l93.829-119.923Z" stroke="url(#d)" stroke-width="4" stroke-miterlimit="10"/><defs><linearGradient id="a" x1="219.449" y1="9.097" x2="219.449" y2="173.872" gradientUnits="userSpaceOnUse"><stop stop-color="#4F46E5"/><stop offset="1" stop-color="#9C96FF"/></linearGradient><linearGradient id="b" x1="125.452" y1="9.097" x2="125.452" y2="173.872" gradientUnits="userSpaceOnUse"><stop stop-color="#4F46E5"/><stop offset="1" stop-color="#9C96FF"/></linearGradient><linearGradient id="c" x1="233.304" y1="13.846" x2="111.783" y2="169.162" gradientUnits="userSpaceOnUse"><stop stop-color="#4F46E5"/><stop offset="1" stop-color="#9C96FF"/></linearGradient><linearGradient id="d" x1="139.217" y1="13.85" x2="17.696" y2="169.165" gradientUnits="userSpaceOnUse"><stop stop-color="#4F46E5"/><stop offset="1" stop-color="#9C96FF"/></linearGradient></defs></svg>
