<svg fill="none" xmlns="http://www.w3.org/2000/svg" viewBox="0 0 280 205"><path d="M269.869 35.214c0-13.844-11.222-25.066-25.065-25.066-13.843 0-25.065 11.222-25.065 25.066v133.682c0 13.843 11.222 25.065 25.065 25.065 13.843 0 25.065-11.222 25.065-25.065V35.214ZM165.011 35.214c0-13.844-11.222-25.066-25.065-25.066-13.843 0-25.065 11.222-25.065 25.066v133.682c0 13.843 11.222 25.065 25.065 25.065 13.843 0 25.065-11.222 25.065-25.065V35.214Z" stroke="#4F46E5" stroke-width="4" stroke-miterlimit="10"/><path d="M264.554 50.632c8.531-10.902 6.608-26.656-4.295-35.186-10.903-8.53-26.656-6.608-35.187 4.295L120.403 153.519c-8.531 10.903-6.608 26.657 4.295 35.187 10.903 8.53 26.656 6.607 35.187-4.295L264.554 50.632ZM159.597 50.636c8.53-10.902 6.607-26.656-4.295-35.186-10.903-8.53-26.657-6.608-35.187 4.295L15.445 153.523c-8.53 10.903-6.607 26.657 4.296 35.187 10.902 8.53 26.656 6.607 35.186-4.295l104.67-133.779Z" stroke="#4F46E5" stroke-width="4" stroke-miterlimit="10"/></svg>
