<svg fill="none" xmlns="http://www.w3.org/2000/svg" viewBox="0 0 300 56"><path d="M139.953 33.498v16.628c0 1.848-1.616 3.465-3.464 3.465-1.847 0-3.233-1.386-3.233-3.465V33.267c0-3.695-3.002-6.697-6.929-6.697-3.695 0-6.928 3.002-6.928 6.697v16.86c0 1.847-1.386 3.463-3.233 3.463-1.848 0-3.464-1.385-3.464-3.464V33.267a6.703 6.703 0 0 0-6.698-6.697c-3.695 0-6.928 3.002-6.928 6.697v16.86c0 1.847-1.386 3.463-3.234 3.463-1.847 0-3.464-1.385-3.464-3.464V33.267c0-7.39 6.005-13.395 13.626-13.395 3.926 0 7.621 1.848 10.162 4.62 2.54-3.003 6.235-4.62 10.161-4.62 7.391 0 13.626 6.005 13.626 13.395v.231ZM177.598 36.731v13.164c0 1.848-1.386 3.465-3.465 3.465-1.385 0-3.233-1.386-3.233-3.465-3.002 2.31-6.235 3.465-9.931 3.465-9.468 0-17.09-7.16-17.09-16.629 0-9.468 7.622-17.09 17.09-17.09 9.469.231 16.629 7.622 16.629 17.09Zm-6.698 0c0-5.542-4.388-10.392-9.931-10.392-5.542 0-10.392 4.85-10.392 10.392 0 5.543 4.85 9.931 10.392 9.931 5.774.231 9.931-4.157 9.931-9.93ZM182.448 12.02c-.693-.693-.924-1.386-.924-2.31 0-.923.462-1.847.924-2.309.693-.693 1.385-.924 2.309-.924.924 0 1.848.462 2.31.924.693.693.923 1.386.923 2.31 0 .923-.23 1.847-.923 2.31-.693.692-1.386.923-2.31.923-.693 0-1.616-.231-2.309-.924Zm-.924 38.106v-27.02c0-1.848 1.386-3.234 3.464-3.234 1.848 0 3.233 1.386 3.233 3.233v27.021c0 1.848-1.385 3.465-3.233 3.465-2.078 0-3.464-1.617-3.464-3.465ZM219.861 50.126c0 1.848-1.385 3.465-3.233 3.465h-21.016c-1.386 0-2.541-.693-3.003-1.848-.692-1.155-.461-2.54.231-3.464l16.86-21.71h-14.088c-1.848 0-3.233-1.616-3.233-3.463 0-1.848 1.385-3.234 3.233-3.234h21.016c1.386 0 2.54.693 3.002 1.848.693 1.155.462 2.54-.231 3.464l-16.859 21.71h14.319c1.617 0 3.002 1.385 3.002 3.232ZM251.501 50.126c0 1.848-1.386 3.465-3.234 3.465h-21.016c-1.386 0-2.54-.693-3.002-1.848-.693-1.155-.462-2.54.231-3.464l16.859-21.71H227.02c-1.847 0-3.233-1.616-3.233-3.463 0-1.848 1.386-3.234 3.233-3.234h21.016c1.386 0 2.541.693 3.003 1.848.692 1.155.462 2.54-.231 3.464l-16.859 21.71h14.318c1.848 0 3.234 1.385 3.234 3.232ZM255.427 50.126V6.246c0-1.847 1.386-3.233 3.464-3.233 1.848 0 3.234 1.386 3.234 3.233v43.88c0 1.848-1.386 3.465-3.234 3.465-2.078 0-3.464-1.617-3.464-3.465ZM300 36.5c0 1.848-1.386 3.234-3.465 3.234H273.21c1.385 3.926 5.08 6.928 9.699 6.928 1.617 0 4.388-.23 7.622-2.31 1.616-.923 3.695 0 4.388 1.617.693 1.617 0 3.465-1.617 4.388-4.388 3.003-7.852 3.003-10.393 3.003-9.468 0-16.859-7.622-16.859-16.86 0-9.237 7.622-16.859 16.859-16.859 8.315 0 17.091 6.005 17.091 16.86Zm-26.559-3.233h19.399c-1.386-4.619-5.774-6.928-9.7-6.928-4.619 0-8.314 2.771-9.699 6.928Z" fill="#1E293B"/><path d="M74.596 9.734a6.928 6.928 0 0 0-13.857 0v36.951a6.928 6.928 0 1 0 13.857 0V9.734ZM45.611 9.734a6.928 6.928 0 0 0-13.856 0v36.951a6.928 6.928 0 0 0 13.857 0V9.734Z" stroke="#4F46E5" stroke-miterlimit="10"/><path d="M73.126 13.995a6.928 6.928 0 1 0-10.913-8.538L33.281 42.435a6.928 6.928 0 0 0 10.913 8.539l28.932-36.979ZM44.115 13.996a6.928 6.928 0 1 0-10.913-8.538L4.269 42.436a6.928 6.928 0 0 0 10.914 8.538l28.932-36.978Z" stroke="#4F46E5" stroke-miterlimit="10"/></svg>
