<svg width="60" height="60" fill="none" xmlns="http://www.w3.org/2000/svg"><mask id="a" style="mask-type:luminance" maskUnits="userSpaceOnUse" x="10" y="0" width="40" height="60"><path d="M49.6 0H10.4v60h39.2V0Z" fill="#fff"/></mask><g mask="url(#a)"><path fill-rule="evenodd" clip-rule="evenodd" d="M29.2 0c-8 .8-8.2 12.6-.4 13.9l.5.1v1.3a103.8 103.8 0 0 0-.2 4.9l-.3.1-.8.6c0 .2 0 .2-.6.2-.8 0-1.3.2-1.7.7l-.3.2a176.9 176.9 0 0 1-2.4-3.6l-.3-.5.2-.3C27 13 21.2 6 16.2 9.6c-5 3.7-.5 11.5 5.2 9.1l1 1.3a173.2 173.2 0 0 0 2 2.6c.1.1.1.1-.2.2-.9.3-1.7 1-1.9 1.7v.1a2.7 2.7 0 0 0-2.7 2.6c0 .5 0 .5-.2.6a12.3 12.3 0 0 0-4.6 6.8c0 .3 0 .2-.4.3-.8.1-1.3.5-1.8 1.1-.7 1-.8 1.7-.3 2.7.2.4.2.3 0 .7-3 4.1-2.4 9 1.6 12.9 2.5 2.5 6.2 4 10.2 4.4 1.6.1 1.7.2 2.1.7 2.7 3.4 5 3.4 7.5 0 .4-.5.6-.6 2.2-.7 6-.5 11.1-3.8 13-8.6 1.2-3 .8-5.9-1.2-8.7-.2-.4-.2-.3 0-.7.4-1 .4-1.8-.3-2.7-.5-.6-1-1-1.8-1-.4-.2-.4-.1-.4-.4a12.4 12.4 0 0 0-4.6-6.7c-.2-.2-.2-.2-.2-.7 0-1.4-1.2-2.5-2.7-2.6v-.1c-.2-.7-1-1.4-2-1.7-.3 0-.2 0-.2-.2a32.8 32.8 0 0 1 2-2.6l1-1.3c5.8 2.4 10.3-5.4 5.3-9-5-3.8-11 3.3-6.7 8l.2.2-.4.5a259.4 259.4 0 0 0-2.4 3.6l-.2-.2c-.5-.5-1-.7-1.7-.7L32 21c-.2-.4-.7-.7-1.1-.8-.2 0-.2 0-.2-2.2v-4l.4-.1c8.9-1.5 7-14.7-2-13.9ZM29 1.8c-3 .5-5 3.3-4.5 6l.1.7c1.6 4.7 9.2 4.7 10.8 0l.1-.6c.7-3.5-2.7-6.8-6.5-6.1Zm-10.3 8.6a3.8 3.8 0 0 0-3 4.6l.5 1c1.8 2.4 5 2.2 6.4-.4l.2-.7c.7-2.4-1.4-5-4-4.5Zm21.3 0a3.7 3.7 0 0 0-1.8 6.3c1.6 1.5 4.1 1.2 5.5-.6.3-.3.5-.7.6-1 .7-2.4-1.6-5.2-4.3-4.7ZM29.6 21.3c-1 .2-1.4 1.2-.9 2.5.2.4.2.4.5.4h.5c.3.2.3.2.6 0h.5c.3 0 .3 0 .4-.4.7-1.6 0-2.8-1.6-2.5Zm-2.8 1c-.9.2-1.2 1.3-.6 2.5.2.4.2.4.5.3h.4c.4.1.4.1.5-.1l.4-.4v-.3c-.3-.4-.4-.9-.4-1.6 0-.5-.2-.6-.8-.4Zm5.6.4c0 .7-.1 1.2-.4 1.6-.2.2-.2.2 0 .3l.3.4c.2.2.2.2.6.1h.4c.3.1.2.1.5-.3.6-1.4.2-2.5-1-2.6h-.4v.5Zm-8 1c-1.4.3-1.9 1.9-1 3 .2.3.2.3.4.1.4-.2.8-.2 1.2-.2h.2c0-.4.3-.7.5-1 .2-.2.2-.2 0-.3-.3-.4-.5-1.2-.5-1.7h-.9Zm10.4-.1c0 .5-.3 1.3-.6 1.7-.1.1-.1.1 0 .4.3.2.5.5.6.8 0 .2 0 .2.2.1.4 0 .8 0 1.1.2.3.2.2.2.5 0 .7-1 .5-2.5-.5-3-.4-.2-1.3-.3-1.3-.2Zm-6.2 1.6c-.9.5-1 1.5-.2 2.7.3.4.3.4.4.3.5-.8 1.9-.8 2.4 0 .1.2.7-.7.9-1.3.2-1.1-1-2.3-1.6-1.5l-.3.6c-.1.4-.3.4-.4 0l-.5-.8h-.7Zm-6.7.3c-1.7.2-2 2.6-.4 3.7l1.2.5v-.3c-.2-.6 0-1.4.4-1.9l-.2-.4c-.4-.4-.6-.9-.7-1.4 0-.3 0-.3-.3-.2Zm15.9 0v.3c-.2.5-.4.9-.8 1.3-.2.3-.2.3-.1.4.4.5.6 1.3.4 2v.2l1.2-.5c1.4-1 1.4-3 0-3.6l-.7-.1Zm-11.1.4c-1.1.2-1.3 2-.4 3.1l.2.2h.1c.5-.3 1-.4 1.8-.2l.2-.4a2.6 2.6 0 0 1-1.4-2.4V26a15.9 15.9 0 0 1-.5 0Zm6.3 0c-.2 0-.2 0-.1.3 0 1-.5 1.9-1.4 2.4l.2.4c.8-.2 1.3-.1 1.8.2h.1l.2-.2c.7-.8.7-2.3.1-2.8-.1-.2-.6-.4-.8-.3Zm-8.5 1.4c-1.4.4-1.5 2.2-.2 3.4.9.8 0 .6-1-.2-.2-.3-.2-.3-.4-.2-.9 0-2.2-.7-2.9-1.6-.1-.3-.1-.3-.2-.1a15.9 15.9 0 0 0-3.2 5.7c-.2.7-.2.6 0 .7 4.5.8 7.4 5.5 7.5 11.9 0 1.4 0 1.3.5 1.1.3 0 .4-.2.6-.8 1.1-3 2-4.2 3.7-4.6.3 0 .3 0 .3-.2 0-.3.4-1.2.6-1.3.3-.4.8.3 1 1.3 0 .2 0 .2.3.2 1.6.4 2.5 1.6 3.7 4.6.2.6.3.7.6.8.5.2.4.3.5-1.1 0-6.4 3-11.1 7.4-12 .3 0 .3 0 0-.6-.9-2.6-1.7-4.1-3.1-5.7-.1-.2-.1-.2-.3 0-.7 1-2 1.7-2.8 1.7l-.5.2c-1 .8-1.8 1-1 .2 1-.9 1.2-1.7.8-2.6-.4-.7-1.5-1.1-1.6-.6 0 .9-.4 1.5-1 1.9v.3c.3.5.2 1.2-.3 1.7s-.8.5-.4 0c.5-.5.5-1.2-.1-1.4l-1.4.1c0 .3-.4 1-.6 1.3-.2.2-.3.1-.1-.3.5-1.4 0-2.6-1-2.6s-1.4 1.2-.8 2.6c.1.4 0 .5-.2.3-.2-.3-.5-1-.5-1.3 0-.1-1-.2-1.4 0-.6.1-.6.8-.1 1.4.4.4 0 .4-.4 0-.5-.6-.7-1.3-.4-1.8.2-.2.2-.2 0-.3-.5-.4-.8-1-1-1.9v-.2h-.6Zm-9.6 8.5c-2 .3-1.7 2.6.6 4.4.8.6.8.6 2 1.2 4.4 2.3 5.5 3.7 5.5 6.7 0 .2.2.2.4.1V46c-.2-3.6-1.7-7-3.8-8.6a6.8 6.8 0 0 0-4.7-1.6Zm29.1 0c-3.8.4-6.7 4-7.3 9.1l-.1 3.3c.2.1.4 0 .4-.1 0-3 1.1-4.4 5.5-6.7 1.2-.6 1.2-.6 2-1.2 2.8-2.2 2.5-4.7-.5-4.4Zm-30.6 4.6c-1.6 1.7-2 5.3-1 7.8 1.4 3.6 6.2 6.9 10.4 7.2 1.8.2 2.3.2 2.1-.1a63.6 63.6 0 0 1-2.4-4.4c-.7-1-.7-1.7-.2-2.3.3-.3.1-1.8-.3-2.8-.3-.4-.3-.4-.5-.1-2.5 3.8-7.7.9-7.6-4.3 0-.7 0-.7-.2-1h-.3Zm32.8 0c-.2.3-.2.3-.2 1 .1 5.2-5 8-7.6 4.3-.2-.3-.2-.3-.4.1-.5 1-.7 2.5-.3 2.8.5.6.4 1.3-.2 2.3l-.5 1c-.6 1-1.6 3-2 3.4-.1.3-.2.3 1 .2 2.1-.1 3-.3 4.9-1 6.5-3 9.1-8.9 6-13.7-.4-.6-.4-.5-.7-.3Zm-31.4 1c-.3 1 .3 3 1.4 4.2.3.3.3.3.2 0-.5-1.3-.3-2.8.4-3.3.1 0-.1-.2-1-.7l-.7-.2c-.3-.2-.3-.2-.3 0Zm30.1 0-.6.2c-1 .5-1.3.6-1.1.7.7.5.9 2 .4 3.3-.1.3-.1.3.2 0 1-1.1 1.7-3.2 1.4-4.3h-.3Zm-15.3 2c-1.4.3-2.6 1.7-3.6 4-.4 1.3-.7 1.4-2.3 1.7-1 .1-1.1.4-.4 1.4.5.8 1.2 1.8 1.8 3l2.3 3.7c2.1 2.6 4 2.2 6.2-1.5l1.2-2.2 1.9-3c.7-1 .6-1.3-.4-1.4-1.6-.3-1.9-.4-2.4-1.6-1.1-2.9-2.7-4.4-4.3-4ZM26 49.1c-.4.2-.5.5-.3.8 0 .2.4.4.6.2l.3.1c.6.4.8.3.6-.2-.3-.7-.8-1.1-1.2-.9Zm7.2 0c-.3.2-.8 1-.7 1.2 0 .2.2.2.7 0l.3-.2c.2.2.5 0 .6-.2.3-.5-.3-1-.9-.8Z" fill="#22110C"/><path d="M33 25.9c-.2 0-.2 0-.1.3 0 1-.5 1.9-1.4 2.4l.2.4c.8-.2 1.3-.1 1.8.2h.1l.2-.2c.7-.8.7-2.3.1-2.8-.1-.2-.6-.4-.8-.3Zm4.8-.4v.3c-.2.5-.4.9-.8 1.3-.2.3-.2.3-.1.4.4.5.6 1.3.4 2v.2l1.2-.5c1.4-1 1.4-3 0-3.6l-.7-.1Zm-3-1.9c0 .5-.3 1.3-.6 1.7-.1.1-.1.1 0 .4.3.2.5.5.6.8 0 .2 0 .2.2.1.4 0 .8 0 1.1.2.3.2.2.2.5 0 .7-1 .5-2.5-.5-3-.4-.2-1.3-.3-1.3-.2Zm-2.4-.9c0 .7-.1 1.2-.4 1.6-.2.2-.2.2 0 .3l.3.4c.2.2.2.2.6.1h.4c.3.1.2.1.5-.3.6-1.4.2-2.5-1-2.6h-.4v.5Zm-2.8-1.4c-1 .2-1.4 1.2-.9 2.5.2.4.2.4.5.4h.5c.3.2.3.2.6 0h.5c.3 0 .3 0 .4-.4.7-1.6 0-2.8-1.6-2.5Zm-1 3.9c-.9.5-1 1.5-.2 2.7.3.4.3.4.4.3.5-.8 1.9-.8 2.4 0 .1.2.7-.7.9-1.3.2-1.1-1-2.3-1.6-1.5l-.3.6c-.1.4-.3.4-.4 0l-.5-.8h-.7Zm-1.9.8c-1.1 0-1.3 1.8-.4 3l.2.2h.1c.5-.3 1-.4 1.8-.2l.2-.4a2.6 2.6 0 0 1-1.4-2.4V26a13.7 13.7 0 0 1-.5 0Zm-2.4-2.4a2 2 0 0 0-.9 3.1c.2.3.2.3.4.1.4-.2.8-.2 1.2-.2h.2c0-.4.3-.7.5-1 .2-.2.2-.2 0-.3-.3-.4-.5-1.2-.5-1.7h-.9Zm2.5-1.3c-.9.2-1.2 1.3-.6 2.5.2.4.2.4.5.3h.4c.4.1.4.1.5-.1l.4-.4v-.3c-.3-.4-.4-.9-.4-1.6 0-.5-.2-.6-.8-.4ZM22 25.5c-1.8.2-2 2.6-.5 3.7l1.2.5v-.3c-.2-.6 0-1.4.4-1.9l-.2-.4c-.4-.4-.6-.9-.7-1.4 0-.3 0-.3-.3-.2Z" fill="#2430F0"/><path d="M44 35.8c-3.8.4-6.7 4-7.3 9.1l-.1 3.3c.2.1.4 0 .4-.1 0-3 1.1-4.4 5.5-6.7 1.2-.6 1.2-.6 2-1.2 2.8-2.2 2.5-4.7-.5-4.4Z" fill="#2BE1B7"/><path d="M46.2 40.5c-.2.2-.2.2-.2 1 .1 5-5 8-7.6 4.2-.2-.3-.2-.3-.4.1-.5 1-.6 2.5-.3 2.8.5.6.4 1.3-.2 2.3l-.5 1c-.6 1-1.6 3-2 3.4-.1.3-.2.3 1 .2 2.1-.1 3-.3 4.9-1 6.5-3 9.1-8.9 6-13.7-.4-.6-.4-.5-.7-.3Zm-32.8-.1c-1.6 1.7-2 5.3-1 7.8 1.4 3.6 6.2 6.9 10.4 7.2 1.8.2 2.3.2 2.1-.1a63.6 63.6 0 0 1-2.4-4.4c-.7-1-.7-1.7-.2-2.3.3-.3.1-1.8-.3-2.8-.3-.4-.3-.4-.5-.1-2.5 3.8-7.7.9-7.6-4.3 0-.7 0-.7-.2-1h-.3Z" fill="#2BE1B7"/><path d="M15 35.8c-2.1.3-1.8 2.6.5 4.4.8.6.8.6 2 1.2 4.4 2.3 5.5 3.7 5.5 6.7 0 .2.2.2.4.1V46c-.2-3.6-1.7-7-3.8-8.6a6.8 6.8 0 0 0-4.7-1.6Z" fill="#2BE1B7"/><path d="M24.5 27.3c-1.4.4-1.5 2.2-.2 3.4.9.8 0 .6-1-.2-.2-.3-.2-.3-.4-.2-.9 0-2.2-.7-2.9-1.6-.1-.3-.1-.3-.2-.1a15.9 15.9 0 0 0-3.2 5.7c-.2.7-.2.6 0 .7 4.5.8 7.4 5.5 7.5 11.9 0 1.4 0 1.3.5 1.1.3 0 .4-.2.6-.8 1.1-3 2-4.2 3.7-4.6.3 0 .3 0 .3-.2 0-.3.4-1.2.6-1.3.3-.4.8.3 1 1.3 0 .2 0 .2.3.2 1.6.4 2.5 1.6 3.7 4.6.2.6.3.7.6.8.5.2.4.3.5-1.1 0-6.4 3-11.1 7.4-12 .3 0 .3 0 0-.6-.9-2.6-1.7-4.1-3.1-5.7-.1-.2-.1-.2-.3 0-.7 1-2 1.7-2.8 1.7l-.5.2c-1 .8-1.8 1-1 .2 1-.9 1.2-1.7.8-2.6-.4-.7-1.5-1.1-1.6-.6 0 .9-.4 1.5-1 1.9v.3c.3.5.2 1.2-.3 1.7s-.8.5-.4 0c.5-.5.5-1.2-.1-1.4l-1.4.1c0 .3-.4 1-.6 1.3-.2.2-.3.1-.1-.3.5-1.4 0-2.6-1-2.6s-1.4 1.2-.8 2.6c.1.4 0 .5-.2.3-.2-.3-.5-1-.5-1.3 0-.1-1-.2-1.4 0-.6.1-.6.8-.1 1.4.4.4 0 .4-.4 0-.5-.6-.7-1.3-.4-1.8.2-.2.2-.2 0-.3-.5-.4-.8-1-1-1.9v-.2h-.6Z" fill="#2430F0"/><path fill-rule="evenodd" clip-rule="evenodd" d="M29.6 43.4c-1.3.3-2.6 1.7-3.6 4-.4 1.3-.7 1.4-2.3 1.7-1 .1-1.1.4-.4 1.4.5.8 1.2 1.8 1.8 3l2.3 3.7c2.1 2.6 4 2.2 6.2-1.5l1.2-2.2 1.9-3c.7-1 .6-1.3-.4-1.4-1.6-.3-1.9-.4-2.4-1.6-1.1-2.9-2.7-4.4-4.3-4ZM25.8 50c-.2-.3 0-.6.3-.8.4-.2 1 .2 1.2 1 .2.4 0 .5-.6.1h-.3c-.2 0-.5 0-.6-.3Zm6.8.4c-.1-.2.4-1 .7-1.2.6-.3 1.2.3 1 .8-.2.2-.5.4-.7.2l-.3.1c-.5.3-.6.3-.7.1Z" fill="#F2C79C"/><path fill-rule="evenodd" clip-rule="evenodd" d="M22.8 15c-.4-1.8-1.8-3.1-3.8-2.8-1.6.3-3 1.5-3.3 2.8l.5 1c1.8 2.4 5 2.2 6.4-.4l.2-.7Zm1.8-6.5-.1-.6a6 6 0 0 1 4.7-4.3 5.4 5.4 0 0 1 6.3 4.3l-.1.6c-1.6 4.7-9.2 4.7-10.8 0Z" fill="#2430F0"/><path d="M40 10.4a3.7 3.7 0 0 0-2.9 4.5 4.2 4.2 0 0 1 3.2-2.7c2-.3 3.5 1.1 4 2.8.7-2.3-1.6-5-4.3-4.6ZM24.5 7.9a6 6 0 0 1 4.7-4.3 5.4 5.4 0 0 1 6.3 4.3c.7-3.5-2.7-6.8-6.5-6.1-3 .5-5 3.3-4.5 6ZM19 12.2c2-.3 3.4 1 3.8 2.7.7-2.4-1.4-5-4-4.5a3.8 3.8 0 0 0-3 4.6c.3-1.3 1.6-2.5 3.2-2.8Z" fill="#2430F0"/><path d="M38.2 16.7c1.6 1.5 4.1 1.2 5.5-.6.3-.3.5-.7.6-1-.5-1.8-2-3.2-4-2.9a4.2 4.2 0 0 0-3.2 2.7c.2.7.5 1.3 1.1 1.8Z" fill="#2430F0"/><path fill-rule="evenodd" clip-rule="evenodd" d="M25.3 6a6.3 6.3 0 0 1 4-2.4c2.3-.4 4.4.7 5.5 2.5l.6-.7a5.7 5.7 0 0 0-10.7-.2l.6.8Z" fill="#F2C79C"/><path d="M25.3 6c.8 1 1.9 2 2 2l1.2-1.1L30 5.7c.1 0 .7.5 1.2 1.1l1 1.2c.2 0 1.6-1 2.6-2a5.4 5.4 0 0 0-5.6-2.4 7 7 0 0 0-4 2.4Zm-9.6 9a4.3 4.3 0 0 1 3.3-2.8 3 3 0 0 1 2.8 1l.2-1.6c-.8-1-2-1.4-3.3-1.2a3.8 3.8 0 0 0-3 4.5Z" fill="#2BE1B7"/><path d="M15.7 15c.9.5 2 .7 2.3.5.3-.1.4-.8.4-1.5 0-.6 0-1 .2-1.1l1.2.5c.7.4 1.4.7 1.6.6.1 0 .3-.4.4-.9a3 3 0 0 0-2.8-.9 4.3 4.3 0 0 0-3.3 2.7Z" fill="#2BE1B7"/><path fill-rule="evenodd" clip-rule="evenodd" d="M37.4 12.5c0 .4 1.1 2.4 1.4 2.5.2 0 .7-.4 1.2-.7.5-.3.8-.6 1-.6l.4.6c.3.4.6 1 .8 1a8 8 0 0 0 2.2-1c0-2.2-2-4.3-4.4-3.9-1.2.2-2.2 1-2.6 2Z" fill="#2BE1B7"/><path d="m45 41.3-.7.3c-1 .5-1.3.6-1.1.7.7.5.9 2 .4 3.3-.1.3-.1.3.2 0 1-1.1 1.7-3.2 1.4-4.3h-.3Zm-30.2 0c-.3 1.1.3 3.2 1.4 4.3.3.3.3.3.2 0-.5-1.3-.3-2.8.4-3.3.1 0-.1-.2-1-.7l-.7-.2c-.3-.2-.3-.2-.3 0Zm27.9 3.2c0-.2-.1-.3-.3-.3 0 0-.2.1-.2.3l.2.2c.2 0 .3-.1.3-.2Z" fill="#fff"/><path opacity=".2" fill-rule="evenodd" clip-rule="evenodd" d="M35.2 8.9c-2 2-5.8 3.3-10.1.5C27.2 13 33.5 13 35.2 9ZM22 16.4c-2 .9-4.8 0-6.1-.9l.3.6c1.6 2 4.3 2.1 5.8.3Zm22-.8c-1.1 1-3.5 1.9-6.3.6l.5.5c1.6 1.5 4.1 1.2 5.5-.6.1-.2.3-.3.3-.5Z" fill="#22110C"/><path d="M24.5 7.9a6 6 0 0 1 4.7-4.3 5.4 5.4 0 0 1 6.3 4.3c.7-3.5-2.7-6.8-6.5-6.1-3 .5-5 3.3-4.5 6Z" fill="#2430F0"/><path fill-rule="evenodd" clip-rule="evenodd" d="M25.3 6a6.3 6.3 0 0 1 4-2.4c2.3-.4 4.4.7 5.5 2.5l.6-.7a5.7 5.7 0 0 0-10.7-.2l.6.8Z" fill="#2BE1B7"/><path fill-rule="evenodd" clip-rule="evenodd" d="M31.4 22c-.3-.6-1-.9-1.8-.7a1 1 0 0 0-1 .8c.3-.3 1-.4 1.4-.4.4 0 1 0 1.4.3Zm-3.9.4c-.4 0-1.2.3-1.5.7 0-.4.4-.7.8-.8.4-.1.6-.1.7.1Zm-2.3 1.3v-.1h-.9c-.6.2-1.1.7-1.3 1.3.5-.6 1.3-1.2 2.2-1.2Zm-4.7 3.5c.2-.7 1-1.4 1.5-1.4h.3a2.6 2.6 0 0 1 0-.2l-.1-.1H22c-1 0-1.5.8-1.5 1.7Zm9.1-1.6c-.3-.3-.9-.4-1.6.2l.6-.6h.7l.3.4Zm2.3.2c-.3-.6-1-1-1.3-.4l-.2.2c.3-.2.8-.4 1.5.2Zm-4.7.3V26a14.1 14.1 0 0 1-.5 0c-.6 0-.9.6-1 1.2.2-.7 1-1 1.5-1Zm7.6 1.3c.2-.4 1.2 0 1.6.7l.2.5c-.3-.7-1.1-1-1.8-1.2Zm-3.2 2.7c0-.1 1-.2 1.4 0 .2 0 .3 0 .3.2-.3-.3-1-.2-1.7-.2ZM29 29c.2-.2.5-.4.9-.4s.6.2.8.4c-.2-.2-.5-.3-.8-.3l-.9.3Zm-2.5 1.4.4-.3 1.4.1c-.8 0-1.5 0-1.8.2ZM25 27.5c-.6.2-1.5.5-1.7 1.3 0-.7.4-1.2 1-1.4h.7v.1Zm9-4.3c-.2-.5-.6-.8-1.3-.9h-.4v.2c.4 0 1.3.3 1.6.7Zm2.8 1.8a1 1 0 0 0-.8-1c-.4-.3-1.3-.4-1.3-.3v.1c.8 0 1.7.6 2.1 1.2Zm2.6 2.3c-.2-.7-1-1.4-1.5-1.4h-.3v-.3l.8.1c.6.3 1 1 1 1.6Zm-5.3-.2c0-.4-.1-.7-.4-.8-.1-.2-.6-.4-.8-.3h.1c-.1 0-.2 0-.2.2.5 0 1.3.2 1.5.9Z" fill="#fff" style="mix-blend-mode:hard-light" opacity=".2"/><path fill-rule="evenodd" clip-rule="evenodd" d="M45.8 36.1c-1.3 0-3 .4-4 1a11 11 0 0 0-4.7 6.3c-.1.7-.2.9-.3.8.8-4.7 3.6-8 7.2-8.4.8 0 1.4 0 1.8.3Zm-31.8 0c1.5-.1 3.1.3 4.3 1a11.3 11.3 0 0 1 4.9 7c-.5-2.8-1.8-5.4-3.6-6.7a6.8 6.8 0 0 0-4.7-1.6 2 2 0 0 0-.8.3Zm12.6 10.2a4.6 4.6 0 0 1 3.3-1.4c.8 0 2.4.2 3.6 1.6-1.1-2.2-2.5-3.3-4-3-1 .1-2 1.1-3 2.8Z" fill="#fff" fill-opacity=".4" style="mix-blend-mode:hard-light"/><path opacity=".2" fill-rule="evenodd" clip-rule="evenodd" d="m45.2 42-1.7.6-.3-.3c-.2-.1 0-.2 1-.7.3 0 .6-.2.7-.3h.2l.1.7Zm-30.5 0 1.8.6.3-.3c.1 0-.1-.2-1-.7a19 19 0 0 1-.7-.3h-.3v.6Zm7.5 8.5c0 1.1.3 2.5.5 3v.3c.2.5-1.2 1.3-6.6-1.1 2 1.5 4.4 2.5 6.7 2.7 1.8.2 2.3.2 2.1-.1a63.5 63.5 0 0 1-2.7-4.8Zm21.7 2.2c-5.4 2.4-6.8 1.6-6.7 1.1v-.2c.3-.6.7-2 .6-3.1l-.3.4-.5 1c-.6 1-1.6 3-2 3.4v.2h1c2.1-.1 3-.3 4.9-1l3-1.8Zm-19.1.3c1.2 1.9 1.7 2.6 2.3 3.3 2.4 2.6 4.4 2.2 6.9-1.5a46 46 0 0 0-.4.9c-2.3 3.7-4 4.1-6.2 1.5a24.7 24.7 0 0 1-2.6-4.2Z" fill="#22110C"/><path d="M30 40.1c-.5 0-1 3-1.3 3l-.5.5 1.8-.4 2 .6a3 3 0 0 0-.8-.6c-.2 0-.8-3-1.2-3ZM27 32c-.2 0-1-.6-1-1.5.1-.2.4-.5.4-.1s.5 1 .6 1.2c.2.1.3.3 0 .3Zm-4.6-1.5c-1 0-2.2-1.3-2.9-2.1l.4-.4 1 1.3 2 .6.4-.6.4.7 1 1c.4.6-1 0-1.2-.1l-.6-.4h-.5Zm3.1-1.5c-.4-.5-.2-1.1-.3-1.6l1.1 2v.2c-.2 0-.4-.2-.8-.6Zm3.6 2.6c-.4 0-.7-.9-.7-1.5l.4-.2.2 1c0 .2.5.8.1.7Zm3.8.4c.2 0 1-.6 1-1.5-.1-.2-.3-.5-.3-.1s-.5 1-.7 1.2c-.1.1-.3.3 0 .3Zm4.6-1.5c1 0 2.3-1.3 3-2.1L40 28l-.9 1.3-2 .6-.4-.6-.5.7c-.1.3-.6.6-1 1-.3.6 1 0 1.2-.1.2 0 .5-.3.6-.4h.5ZM34.4 29c.4-.5.3-1.1.3-1.6l-1 2v.2c.1 0 .4-.2.7-.6Zm-3.6 2.6c.4 0 .7-.9.7-1.5l-.3-.2-.2 1c-.1.2-.5.8-.2.7Z" fill="#000" fill-opacity=".2"/><path opacity=".2" d="M25.9 50c-.2 0 .2-.2.1-.5.3-.1.7 0 1 .3.5.3.5 1.2.5 1.6 0 .4-1.5-1.4-1.6-1.4Zm8.1 0c.2 0-.2-.2 0-.5-.3-.1-.8 0-1.1.3-.4.4-.4 1.2-.4 1.6 0 .4 1.5-1.4 1.6-1.4Z" fill="#22110C"/><path opacity=".2" fill-rule="evenodd" clip-rule="evenodd" d="M18.3 41.3c2.2 1.3 4.2 2.5 4.2 4v.1c-.7-1.4-2.2-2.5-5-4a7.8 7.8 0 0 1-2-1.2c-1.8-1.4-2.4-3-1.6-4-.6 2.2 2 3.7 4.4 5.1Z" fill="#22110C"/><path opacity=".2" fill-rule="evenodd" clip-rule="evenodd" d="M14 36.2h-.1c-.3 1.1.2 2 1.1 2.8.9.8 2.1 1.6 3.4 2.3 1 .6 2 1.2 2.8 1.9.8.6 1.3 1.3 1.3 2v.2c-.7-1.4-2.2-2.5-5-4a17 17 0 0 1-2-1.2 5 5 0 0 1-1.8-2.2c-.3-.7-.2-1.3.2-1.7Zm-.3 1.8a8.2 8.2 0 0 0 3.7 3.4c2.9 1.5 4.4 2.6 5 4v-.1c0-.8-.4-1.4-1.2-2-.8-.7-1.8-1.4-2.9-2C17.1 40.6 16 40 15 39c-.9-.8-1.4-1.6-1.1-2.7-.4.5-.4 1-.2 1.7Zm28 3.3c-2.2 1.3-4.2 2.5-4.2 4 .7-1.3 2.2-2.4 5-3.9 1.2-.6 1.2-.6 2-1.2 1.8-1.4 2.3-3 1.6-3.8.5 2-2 3.5-4.4 5Z" fill="#22110C"/><path opacity=".2" fill-rule="evenodd" clip-rule="evenodd" d="M46.2 38c-.2.8-.8 1.5-1.7 2.2a8.3 8.3 0 0 1-2 1.3c-2.8 1.4-4.3 2.5-5 3.8 0-.8.5-1.5 1.3-2.1.7-.7 1.8-1.3 2.8-2a14 14 0 0 0 3.4-2.1c.8-.8 1.3-1.7 1.1-2.7.4.4.4 1 .1 1.7Zm0-1.5c.3.4.3 1 0 1.6a8.2 8.2 0 0 1-3.7 3.4c-2.8 1.3-4.3 2.4-5 3.8 0-.8.5-1.4 1.3-2 .8-.7 1.8-1.4 2.9-2 1.2-.7 2.4-1.4 3.3-2.2.8-.8 1.3-1.7 1.2-2.6Z" fill="#22110C"/><path fill-rule="evenodd" clip-rule="evenodd" d="M13.1 40.8c0 1.7 0 9 8.8 9 0-.5.1-.8.4-1.2.3-.3.1-1.8-.3-2.8l-.3-.3-.2.2c-2.5 3.8-7.7.9-7.6-4.3 0-.7 0-.7-.2-1h-.2l-.4.4Z" fill="#000" fill-opacity=".2" style="mix-blend-mode:multiply"/><path opacity=".2" fill-rule="evenodd" clip-rule="evenodd" d="M47 40.9c0 1.9-.3 9-8.9 9H38c0-.5 0-1-.3-1.3-.4-.3-.2-1.8.3-2.8l.2-.3.2.2c2.6 3.8 7.7.9 7.6-4.3v-.8l.2-.1.3-.2.4.5v.1ZM28.5 22.4c0 .4 0 .9.2 1.4.2.4.2.4.5.4h.5c.3.2.3.2.5 0h.6c.2 0 .2 0 .4-.4.3-.5.3-1 .3-1.4-.1.6-.4 1.5-1 1.5a2 2 0 0 1-.5 0h-.6c-.5 0-.8-.9-1-1.5Zm3.4 2c.3-.5.5-1 .5-1.7v-.3a3 3 0 0 1-.4 2.2c-.2-.1-.2-.1 0-.3Zm2.2-.7-.3 1v.2l-.3.3h-.2a1 1 0 0 0-.4 0h-.1l.3-.2.4-.2c.3-.3.5-.7.6-1Zm.7-.1c0 .5-.3 1.3-.6 1.7v.3c.4-.5.8-1.5.6-2Zm2.2 1.6c0 .3-.2 1-.5 1.2-.3.3-.4.3-.6.2h-.5l.7.2.2.1.2-.2c.4-.4.5-1 .5-1.5Zm2.5 1.9a3 3 0 0 1-1 1.9c-.5.5-1 .5-1.1-.2v-.2l-.1.8v.3l1.2-.5c.8-.5 1-1.4 1-2.1Zm-1.8-1.3c0 .5-.3.9-.7 1.3-.2.3-.2.3-.1.4.4-.3.7-1 .8-1.7Zm-3.5 1.6c0 .4-.1.8-.3 1-.3.3-.7.4-1 .4l-.7.1c.5 0 .8 0 1.2.3h.1l.2-.2c.3-.4.5-1 .5-1.6Zm-2.8 1.3c.5-.2 1.3-1 1.3-2 0 .8-.5 1.5-1.3 1.9v.1Zm.7-2c-.2.5-.5 1.2-1 1a3 3 0 0 0-2.2 0c-.5.2-.8-.4-1-.8l.5 1 .3.4v-.1c.6-.8 2-.8 2.5 0 .1.2.7-.6.8-1.3v-.2Zm-6.4.7c0 .5.2 1.1.6 1.6l.1.2h.2c.3-.2.7-.3 1.2-.3-.3 0-.5-.2-.7-.1-.3 0-.8 0-1-.5-.2-.1-.3-.5-.4-1Zm1.5-.8c0 1.1.8 1.9 1.3 2.1v-.1a2.6 2.6 0 0 1-1.3-2Zm-1.5-1c.2-.2.2-.2 0-.3-.3-.4-.5-1.2-.5-1.7-.2.5.2 1.5.5 2Zm-2.7-.4a2 2 0 0 0 .4 1.5l.2.2h.2c.3-.2.5-.3.8-.3H24c-.3.1-.4 0-.7-.2l-.4-1.2Zm3-1.3a2.8 2.8 0 0 0 .3 1l.1.3h.7c0-.1-.1-.2-.3-.2l-.4-.2a3 3 0 0 1-.5-1Zm1.5-1.5v.3c0 .7.2 1.2.5 1.6v.3a3 3 0 0 1-.5-2.2Zm-4.9 6.2v.2c-.1.7-.6.7-1.3.2-.6-.6-.8-1.3-.8-1.8 0 .7.2 1.5 1 2l1.2.5v-.3c-.1-.2-.1-.5 0-.8Zm.4-1c.2-.2.2-.2 0-.5a2.3 2.3 0 0 1-.8-1.5c0 .9.5 1.6.8 2Z" fill="#22110C"/><path d="M42.8 43.8c0-.4.3-.8.8-.8.4 0 .8.4.8.8s-.4.7-.8.7a.8.8 0 0 1-.8-.7Zm-27.2 0c0-.4.3-.8.8-.8.4 0 .7.4.7.8s-.3.7-.7.7a.8.8 0 0 1-.8-.7Zm2.1.7c0-.2-.1-.3-.3-.3 0 0-.2.1-.2.3l.2.2c.2 0 .3-.1.3-.2Z" fill="#fff"/></g></svg>
