<svg width="144" height="144" viewBox="0 0 144 144" fill="none" xmlns="http://www.w3.org/2000/svg">
<mask id="mask0_5468_24795" style="mask-type:luminance" maskUnits="userSpaceOnUse" x="24" y="0" width="96" height="144">
<path d="M119.021 0H24.9805V144H119.021V0Z" fill="white"/>
</mask>
<g mask="url(#mask0_5468_24795)">
<path fill-rule="evenodd" clip-rule="evenodd" d="M70.0131 0.101133C50.9626 1.97782 50.2917 30.1795 69.2226 33.3354C70.0802 33.4784 70.3521 33.5535 70.3718 33.6529C70.386 33.7247 70.317 35.1467 70.2187 36.8132C70.1202 38.4796 69.9962 41.7563 69.9431 44.0946C69.8901 46.4329 69.8279 48.3598 69.805 48.3765C69.7823 48.3931 69.4728 48.5495 69.1175 48.724C68.452 49.0511 67.5767 49.7692 67.2248 50.277C67.0274 50.5619 67.0274 50.5619 65.8156 50.6015C63.9022 50.664 62.736 51.1318 61.677 52.261C61.3834 52.5741 61.1146 52.7961 61.0789 52.7547C61.0432 52.7134 59.9391 51.0874 58.6252 49.1413C57.3114 47.1953 55.8195 45.0038 55.3101 44.2716L54.3838 42.9401L54.9273 42.3379C65.064 31.1071 50.8899 14.1921 38.837 23.1361C26.8398 32.0388 37.5925 50.7134 51.3867 44.9315C51.4434 44.9077 52.4682 46.189 53.8104 47.9621C55.0894 49.6516 56.6869 51.7346 57.3605 52.591C58.0341 53.4475 58.6419 54.2339 58.7114 54.3388C58.8543 54.5541 58.9003 54.5228 58.1287 54.7347C55.9893 55.3223 53.9722 57.0979 53.5724 58.7457C53.52 58.9621 53.4338 59.1402 53.3812 59.1417C49.766 59.2376 46.9992 61.9226 46.9602 65.3734C46.9469 66.5471 46.9469 66.5471 46.4545 66.8394C41.9735 69.4988 35.8941 78.4205 35.46 82.9744C35.3959 83.6475 35.4212 83.6254 34.5344 83.7767C32.5335 84.1182 31.3647 84.8407 30.1322 86.4971C28.5713 88.5954 28.4274 90.3991 29.6175 92.9458C30.0206 93.8089 30.0428 93.656 29.3783 94.5924C22.3512 104.491 23.8151 116.106 33.2691 125.464C39.4524 131.585 48.1319 135.316 57.8627 136.036C61.5782 136.311 62.0036 136.451 62.9606 137.712C69.2531 145.998 74.6846 145.998 80.9771 137.712C81.9341 136.451 82.3595 136.311 86.075 136.036C100.62 134.96 112.789 126.987 117.35 115.546C120.258 108.253 119.335 101.328 114.557 94.5858C113.895 93.6503 113.917 93.8073 114.32 92.9458C115.51 90.3991 115.366 88.5954 113.806 86.4971C112.573 84.8407 111.404 84.1182 109.403 83.7767C108.516 83.6254 108.542 83.6475 108.478 82.9744C108.336 81.4812 106.737 77.6491 105.212 75.1441C103.337 72.0655 99.696 68.1527 97.4831 66.8394C96.9908 66.5471 96.9908 66.5471 96.9774 65.3734C96.9384 61.9226 94.1717 59.2376 90.5565 59.1417C90.5039 59.1402 90.4177 58.9621 90.3653 58.7457C89.9655 57.0979 87.9484 55.3223 85.809 54.7347C85.0374 54.5228 85.0834 54.5541 85.2262 54.3388C85.2956 54.2339 85.9036 53.4475 86.5772 52.591C87.2508 51.7346 88.8483 49.6516 90.1272 47.9621C91.4695 46.189 92.4943 44.9077 92.551 44.9315C106.345 50.7134 117.098 32.0388 105.101 23.1361C93.0477 14.1921 78.8736 31.1071 89.0102 42.3379L89.5539 42.9401L88.6276 44.2716C88.1181 45.0038 86.6263 47.1953 85.3125 49.1413C83.9986 51.0874 82.8945 52.7134 82.8588 52.7547C82.8231 52.7961 82.5543 52.5741 82.2606 52.261C81.2017 51.1318 80.0355 50.664 78.1221 50.6015C76.9102 50.5619 76.9102 50.5619 76.7157 50.281C76.2058 49.5454 75.031 48.7099 74.0808 48.4069C73.6544 48.271 73.6544 48.271 73.6647 43.2754C73.6703 40.5276 73.6561 37.2095 73.6332 35.9016L73.5916 33.5233L74.7151 33.3357C96.0067 29.7796 91.5082 -2.01632 70.0131 0.101133ZM69.4897 4.21732C62.1852 5.5368 57.3847 12.2906 58.695 18.9004C58.7895 19.3771 58.9157 19.853 59.0751 20.3262C62.892 31.6534 81.0457 31.6534 84.8624 20.3262C85.0238 19.8479 85.1512 19.3692 85.2465 18.8918C86.919 10.5201 78.7274 2.54868 69.4897 4.21732ZM44.9633 24.9527C39.5688 25.9501 36.3762 31.4234 37.7064 36.0647C37.9622 36.9569 38.3851 37.8184 38.9917 38.6114C43.2833 44.222 51.011 43.656 54.1948 37.4979C54.4736 36.9589 54.6865 36.4098 54.8387 35.8575C56.4474 30.0152 51.2499 23.7904 44.9633 24.9527ZM96.0744 24.9574C90.6931 25.9187 87.9042 31.17 89.1059 35.8494C89.5075 37.4131 90.3549 38.9132 91.6999 40.1678C95.5693 43.7769 101.531 43.0764 104.946 38.6114C105.553 37.8175 105.974 36.968 106.23 36.0952C107.889 30.4351 102.6 23.7917 96.0744 24.9574ZM71.0634 51.08C68.43 51.5447 67.5795 53.9816 68.9806 57.0491C69.3977 57.9625 69.3977 57.9625 70.0381 57.9691C70.613 57.9751 70.744 58.0089 71.3235 58.3016C71.9688 58.6277 71.9688 58.6277 72.6142 58.3016C73.1937 58.0089 73.3246 57.9751 73.8996 57.9691C74.5398 57.9625 74.5398 57.9625 74.9567 57.0491C76.6754 53.2825 74.808 50.4195 71.0634 51.08ZM64.3083 53.4912C62.1507 54.0664 61.5283 56.6843 62.8968 59.427C63.4634 60.5626 63.3512 60.4734 64.0371 60.332C64.4814 60.2403 64.7268 60.2306 65.0314 60.2928C66.0315 60.4965 65.9089 60.5295 66.3329 59.9421C66.5436 59.6501 66.894 59.2628 67.1116 59.0811C67.5073 58.7508 67.5073 58.7508 67.2462 58.3484C66.534 57.2504 66.2343 56.196 66.1668 54.5516C66.1161 53.3135 65.7525 53.106 64.3083 53.4912ZM77.7712 54.5416C77.7034 56.1967 77.4053 57.2481 76.6915 58.3484C76.4303 58.7508 76.4303 58.7508 76.8261 59.0811C77.0437 59.2628 77.3941 59.6501 77.6048 59.9421C78.0287 60.5295 77.9062 60.4965 78.9063 60.2928C79.2109 60.2306 79.4563 60.2403 79.9006 60.332C80.5865 60.4734 80.4742 60.5626 81.0408 59.427C82.6404 56.2213 81.5945 53.5128 78.7117 53.3953L77.8197 53.3591L77.7712 54.5416ZM58.4036 56.7175C55.179 57.5518 54.0331 61.4114 56.2125 64.0968C56.7319 64.7368 56.6969 64.7258 57.2165 64.4153C58.0238 63.9331 58.9338 63.7779 59.995 63.9416C60.3795 64.0008 60.3795 64.0008 60.4769 63.6183C60.6406 62.9755 61.1221 62.1367 61.6448 61.5844C62.1417 61.0592 62.1417 61.0592 61.8032 60.6136C61.0644 59.6417 60.4074 57.784 60.4014 56.6499C60.4008 56.5425 58.881 56.5939 58.4036 56.7175ZM83.5363 56.6499C83.5301 57.784 82.8733 59.6417 82.1345 60.6136C81.796 61.0592 81.796 61.0592 82.2929 61.5844C82.8154 62.1367 83.2971 62.9755 83.4608 63.6183C83.5582 64.0008 83.5582 64.0008 83.9427 63.9416C85.0039 63.7779 85.9139 63.9331 86.7212 64.4153C87.2408 64.7258 87.2058 64.7368 87.7252 64.0968C89.5415 61.8589 89.0001 58.2927 86.6732 57.1665C85.674 56.683 83.5381 56.3312 83.5363 56.6499ZM68.7422 60.577C66.477 61.6195 66.2714 64.1618 68.2172 67.068C68.8155 67.9615 68.8155 67.9615 69.0487 67.598C70.2886 65.665 73.6491 65.665 74.889 67.598C75.2262 68.1238 76.5839 66.1195 76.9288 64.5865C77.5444 61.8504 74.8449 59.0675 73.3188 60.8651C72.9942 61.2476 72.5954 61.9498 72.4379 62.4164C72.1328 63.32 71.8049 63.32 71.4998 62.4164C71.2559 61.6939 70.7418 60.9148 70.2723 60.5566C69.9386 60.3019 69.322 60.3101 68.7422 60.577ZM52.6614 61.1323C48.5462 61.6668 47.7945 67.5153 51.5192 70.0163C52.3123 70.5487 54.5754 71.4876 54.5754 71.2841C54.5754 71.2716 54.5006 70.9719 54.4091 70.6179C54.0187 69.1088 54.4263 67.2095 55.3958 66.0202C55.6557 65.7013 55.6557 65.7013 55.003 65.0195C54.0359 64.0093 53.5123 62.9233 53.368 61.628C53.3 61.0171 53.3386 61.0441 52.6614 61.1323ZM90.6492 61.1475C90.633 61.1969 90.58 61.5055 90.5313 61.8333C90.3384 63.1324 89.8744 64.0494 88.8997 65.0582C88.2802 65.6991 88.2802 65.6991 88.541 66.0192C89.5114 67.2095 89.9192 69.1082 89.5286 70.6179C89.4371 70.9719 89.3623 71.2716 89.3623 71.2841C89.3623 71.4876 91.6254 70.5487 92.4185 70.0163C95.7184 67.8005 95.6611 62.9768 92.3166 61.4348C91.765 61.1806 90.6982 60.9968 90.6492 61.1475ZM64.0296 62.1932C61.412 62.5657 60.8783 66.8141 63.0907 69.6679C63.282 69.9148 63.4639 70.1531 63.4947 70.1976C63.5281 70.2456 63.6806 70.1902 63.8693 70.0614C64.9355 69.3342 66.2256 69.1763 68.1743 69.5344C68.239 69.5463 68.592 68.6768 68.5356 68.6445C66.4165 67.4337 65.2072 65.2846 65.3291 62.9458C65.3644 62.2678 65.3644 62.2678 65.0673 62.2186C64.9039 62.1914 64.7139 62.1589 64.6453 62.1463C64.5767 62.1336 64.2997 62.1548 64.0296 62.1932ZM79.2507 62.1479C79.205 62.1601 79.0338 62.1921 78.8704 62.219C78.5733 62.2678 78.5733 62.2678 78.6086 62.9458C78.7305 65.2846 77.5212 67.4337 75.4019 68.6445C75.3455 68.6768 75.6987 69.5463 75.7634 69.5344C77.7121 69.1763 79.0022 69.3342 80.0684 70.0614C80.2571 70.1902 80.4096 70.2456 80.443 70.1976C80.4738 70.1531 80.6556 69.9148 80.847 69.6679C82.4731 67.5704 82.671 64.0152 81.2314 62.7624C80.7861 62.3748 79.682 62.0323 79.2507 62.1479ZM58.7201 65.5902C55.5121 66.4441 55.2875 70.8274 58.3078 73.6335C60.4907 75.6617 58.3588 75.1862 55.981 73.1147C55.3364 72.5529 55.3364 72.5529 54.845 72.6038C52.8384 72.8111 49.7474 71.0567 48.0992 68.7748C47.719 68.2482 47.719 68.2482 47.4771 68.528C44.0503 72.4887 42.1 76.0352 39.879 82.3433C39.3294 83.9051 39.3239 83.7833 39.9491 83.901C50.6206 85.9038 57.662 97.1456 57.8814 112.531C57.9291 115.89 57.8444 115.689 59.0263 115.252C59.7481 114.984 59.8943 114.781 60.484 113.228C63.1822 106.121 65.4539 103.302 69.2596 102.34C70.0472 102.141 70.0241 102.156 70.0914 101.801C70.2435 101 71.0991 98.9017 71.4074 98.5742C72.1509 97.7851 73.3971 99.4341 73.8463 101.801C73.9136 102.156 73.8905 102.141 74.6781 102.34C78.4838 103.302 80.7553 106.121 83.4537 113.228C84.0434 114.781 84.1896 114.984 84.9114 115.252C86.0933 115.689 86.0084 115.89 86.0563 112.531C86.2757 97.1449 93.3164 85.9038 103.988 83.901C104.614 83.7833 104.608 83.9051 104.059 82.3433C101.838 76.0352 99.8874 72.4887 96.4606 68.528C96.2187 68.2482 96.2187 68.2482 95.8385 68.7748C94.1903 71.0567 91.0992 72.8111 89.0927 72.6038C88.6013 72.5529 88.6013 72.5529 87.9567 73.1147C85.5789 75.1862 83.447 75.6617 85.6299 73.6335C87.8091 71.6088 88.3593 69.5182 87.2721 67.3923C86.4107 65.7076 83.7535 64.698 83.5846 65.9912C83.3147 68.0598 82.4876 69.6512 81.2419 70.4987C80.8791 70.7456 80.8791 70.7456 81.1884 71.2988C81.9 72.5719 81.5484 74.2264 80.3013 75.4729C79.2461 76.5275 78.3984 76.5965 79.3666 75.549C80.6368 74.175 80.5485 72.5 79.1847 72.0996C78.3689 71.86 75.797 71.9617 75.797 72.2335C75.797 72.8517 74.9704 74.7522 74.4796 75.2623C73.8708 75.8951 73.7433 75.6207 74.1625 74.5802C75.4469 71.3931 74.3764 68.3552 71.9688 68.3552C69.5613 68.3552 68.4908 71.3931 69.7751 74.5802C70.1944 75.6207 70.0669 75.8951 69.4581 75.2623C68.9673 74.7522 68.1407 72.8517 68.1407 72.2335C68.1407 71.9617 65.5688 71.86 64.753 72.0996C63.3891 72.5 63.3008 74.175 64.5709 75.549C65.5392 76.5965 64.6916 76.5275 63.6364 75.4729C62.3892 74.2264 62.0377 72.5719 62.7493 71.2988C63.0586 70.7456 63.0586 70.7456 62.6957 70.4987C61.4513 69.6522 60.6228 68.0594 60.3536 65.9964C60.3094 65.6572 60.2624 65.562 60.1207 65.5244C59.8283 65.4468 59.1368 65.4793 58.7201 65.5902ZM35.7796 85.9607C30.8689 86.7316 31.6074 92.0802 37.2436 96.5614C39.0327 97.9842 39.0651 98.0039 41.9257 99.4612C52.4711 104.834 55.2412 108.135 55.2412 115.333C55.2412 115.827 55.5965 115.978 56.0943 115.695C56.1839 115.644 56.1697 112.202 56.0723 110.362C55.6144 101.722 52.1136 93.6453 47.0952 89.6528C43.7757 87.0114 39.004 85.4546 35.7796 85.9607ZM105.632 85.9335C96.5254 86.8921 89.6011 95.5081 88.0748 107.779C87.8321 109.733 87.6607 115.591 87.8434 115.695C88.3412 115.978 88.6965 115.827 88.6965 115.333C88.6965 108.134 91.4647 104.835 102.012 99.4612C104.873 98.0039 104.905 97.9842 106.694 96.5614C113.449 91.1915 112.847 85.1739 105.632 85.9335ZM32.2124 96.9285C28.3817 101.058 27.2528 109.586 29.7317 115.669C33.2111 124.209 44.5956 132.148 54.617 133.024C59.1584 133.421 60.1894 133.353 59.755 132.684C59.0426 131.589 56.601 127.146 55.1743 124.35C54.8048 123.626 54.2314 122.608 53.9001 122.087C52.4117 119.75 52.3026 118.05 53.5554 116.726C54.2971 115.942 53.8312 112.234 52.7094 109.99C52.1547 108.881 52.1929 108.893 51.6651 109.683C45.5935 118.77 33.2061 111.816 33.4572 99.462C33.4956 97.5769 33.4956 97.5769 32.97 97.1597C32.3566 96.6742 32.4284 96.6956 32.2124 96.9285ZM110.95 97.1655C110.442 97.5769 110.442 97.5769 110.48 99.462C110.732 111.816 98.3441 118.769 92.2726 109.683C91.7447 108.893 91.783 108.881 91.2283 109.99C90.1065 112.234 89.6406 115.942 90.3823 116.726C91.6351 118.05 91.526 119.75 90.0376 122.087C89.7063 122.608 89.1329 123.626 88.7634 124.35C87.3367 127.146 84.8951 131.589 84.1827 132.684C83.7455 133.357 83.6233 133.325 86.1808 133.207C91.5142 132.96 93.7328 132.473 98.0589 130.599C113.701 123.824 120.062 109.429 112.473 97.9817C111.535 96.5664 111.627 96.6167 110.95 97.1655ZM35.5638 99.1502C34.7572 101.797 36.3539 106.786 38.8265 109.345C39.5943 110.139 39.6403 110.144 39.3336 109.4C38.1008 106.405 38.5528 102.69 40.2937 101.511C40.6156 101.293 40.0277 100.927 37.7646 99.9376C37.2382 99.7072 36.5557 99.3945 36.2479 99.2423C35.5834 98.9132 35.634 98.9207 35.5638 99.1502ZM107.796 99.1881C107.567 99.3056 106.855 99.6357 106.215 99.9212C103.742 101.021 103.312 101.286 103.643 101.51C105.385 102.69 105.837 106.403 104.604 109.4C104.297 110.144 104.343 110.139 105.111 109.345C107.584 106.786 109.18 101.797 108.374 99.1502C108.305 98.9239 108.308 98.9239 107.796 99.1881ZM70.9838 104.236C67.7993 104.8 64.8188 108.212 62.5075 113.941C61.3487 116.814 60.746 117.229 56.9057 117.807C54.3785 118.187 54.2119 118.796 55.9487 121.301C57.2044 123.113 58.7382 125.616 60.3582 128.496C63.2533 133.645 64.3216 135.353 65.7939 137.187C70.8717 143.514 75.2116 142.476 80.5956 133.648C81.6558 131.911 81.7882 131.682 83.5795 128.496C85.1995 125.616 86.7333 123.113 87.989 121.301C89.7258 118.796 89.5592 118.187 87.032 117.807C83.1916 117.229 82.589 116.814 81.4302 113.941C78.6437 107.035 74.8873 103.545 70.9838 104.236ZM62.5233 117.856C61.7456 118.257 61.4651 119.026 61.8271 119.766C62.1143 120.352 62.9049 120.644 63.3914 120.344C63.5253 120.261 63.6264 120.292 64.0353 120.539C65.4974 121.423 66.0547 121.252 65.6002 120.058C64.9067 118.236 63.5998 117.302 62.5233 117.856ZM79.9838 117.893C79.0914 118.342 77.9503 120.258 78.2303 120.839C78.4328 121.259 78.8303 121.188 79.9024 120.539C80.3113 120.292 80.4124 120.261 80.5463 120.344C81.0328 120.644 81.8234 120.352 82.1106 119.766C82.7306 118.5 81.294 117.234 79.9838 117.893Z" fill="#22110C"/>
<path d="M79.2513 62.1483C79.2055 62.1605 79.0343 62.1925 78.8709 62.2194C78.5738 62.2682 78.5738 62.2682 78.6091 62.9462C78.731 65.285 77.5217 67.4341 75.4026 68.6449C75.3461 68.6772 75.6992 69.5467 75.7639 69.5348C77.7126 69.1767 79.0027 69.3346 80.0689 70.0618C80.2576 70.1905 80.4101 70.2459 80.4434 70.198C80.4743 70.1535 80.6561 69.9152 80.8475 69.6683C82.4736 67.5708 82.6715 64.0156 81.2319 62.7628C80.7867 62.3752 79.6824 62.0326 79.2513 62.1483Z" fill="#2430F0"/>
<path d="M90.65 61.1477C90.6338 61.1971 90.5808 61.5057 90.5321 61.8335C90.3392 63.1326 89.8752 64.0496 88.9005 65.0584C88.281 65.6993 88.281 65.6993 88.5418 66.0193C89.5121 67.2098 89.92 69.1086 89.5294 70.6181C89.4379 70.972 89.3631 71.2718 89.3631 71.2843C89.3631 71.4878 91.6261 70.5489 92.4191 70.0165C95.7192 67.8007 95.6619 62.977 92.3174 61.435C91.7658 61.1808 90.699 60.997 90.65 61.1477Z" fill="#2430F0"/>
<path d="M83.5372 56.65C83.5311 57.7841 82.8742 59.6418 82.1354 60.6137C81.7968 61.0593 81.7968 61.0593 82.2938 61.5845C82.8163 62.1368 83.298 62.9755 83.4616 63.6184C83.5591 64.0009 83.5591 64.0009 83.9436 63.9417C85.0048 63.778 85.9148 63.9331 86.7221 64.4154C87.2417 64.7259 87.2067 64.7369 87.7261 64.0968C89.5424 61.859 89.0009 58.2928 86.674 57.1666C85.6748 56.683 83.5389 56.3313 83.5372 56.65Z" fill="#2430F0"/>
<path d="M77.7711 54.5419C77.7033 56.1971 77.4052 57.2484 76.6914 58.3487C76.4303 58.7511 76.4303 58.7511 76.826 59.0815C77.0436 59.2631 77.394 59.6504 77.6048 59.9424C78.0287 60.5298 77.9061 60.4968 78.9062 60.2931C79.2108 60.231 79.4562 60.2407 79.9005 60.3322C80.5864 60.4737 80.4742 60.5629 81.0406 59.4274C82.6403 56.2216 81.5944 53.5131 78.7115 53.3955L77.8196 53.3594L77.7711 54.5419Z" fill="#2430F0"/>
<path d="M71.0641 51.08C68.4305 51.5446 67.5802 53.9816 68.9813 57.0491C69.3984 57.9625 69.3984 57.9625 70.0386 57.9691C70.6137 57.975 70.7445 58.0089 71.3242 58.3016C71.9695 58.6277 71.9695 58.6277 72.6149 58.3016C73.1944 58.0089 73.3253 57.975 73.9003 57.9691C74.5405 57.9625 74.5405 57.9625 74.9574 57.0491C76.6761 53.2825 74.8087 50.4195 71.0641 51.08Z" fill="#2430F0"/>
<path d="M68.7422 60.5769C66.477 61.6196 66.2714 64.1618 68.2172 67.0679C68.8155 67.9615 68.8155 67.9615 69.0487 67.598C70.2886 65.665 73.649 65.665 74.8889 67.598C75.2261 68.1237 76.5838 66.1195 76.9287 64.5864C77.5444 61.8503 74.8448 59.0674 73.3187 60.8651C72.9941 61.2476 72.5953 61.9498 72.4378 62.4163C72.1328 63.32 71.8048 63.32 71.4998 62.4163C71.2558 61.6938 70.7417 60.9147 70.2722 60.5565C69.9385 60.3019 69.3218 60.3101 68.7422 60.5769Z" fill="#2430F0"/>
<path d="M64.0295 62.1931C61.4119 62.5656 60.8783 66.814 63.0906 69.6679C63.2819 69.9147 63.4638 70.1531 63.4947 70.1976C63.528 70.2455 63.6805 70.1901 63.8692 70.0614C64.9354 69.3342 66.2255 69.1762 68.1742 69.5343C68.2389 69.5462 68.592 68.6768 68.5355 68.6445C66.4164 67.4337 65.2071 65.2846 65.3289 62.9457C65.3643 62.2678 65.3643 62.2678 65.0672 62.2185C64.9038 62.1914 64.7138 62.1589 64.6452 62.1462C64.5766 62.1336 64.2994 62.1548 64.0295 62.1931Z" fill="#2430F0"/>
<path d="M58.4047 56.7178C55.1801 57.5521 54.0341 61.4117 56.2135 64.0971C56.7329 64.7371 56.698 64.7261 57.2175 64.4156C58.0248 63.9334 58.9348 63.7782 59.996 63.9417C60.3805 64.0011 60.3805 64.0011 60.478 63.6186C60.6416 62.9758 61.1232 62.137 61.6458 61.5847C62.1426 61.0595 62.1426 61.0595 61.8041 60.6139C61.0654 59.642 60.4085 57.7843 60.4023 56.6502C60.4018 56.5428 58.8821 56.5942 58.4047 56.7178Z" fill="#2430F0"/>
<path d="M64.3086 53.4913C62.151 54.0666 61.5285 56.6844 62.8971 59.4272C63.4637 60.5627 63.3515 60.4735 64.0374 60.3322C64.4817 60.2405 64.7271 60.2308 65.0317 60.2929C66.0318 60.4966 65.9092 60.5297 66.3331 59.9422C66.5438 59.6502 66.8943 59.2629 67.1119 59.0813C67.5076 58.751 67.5076 58.751 67.2465 58.3485C66.5343 57.2506 66.2345 56.1961 66.1671 54.5517C66.1164 53.3136 65.7527 53.1062 64.3086 53.4913Z" fill="#2430F0"/>
<path d="M52.6611 61.1327C48.546 61.6674 47.7942 67.5157 51.519 70.0168C52.312 70.5491 54.5751 71.4881 54.5751 71.2846C54.5751 71.2721 54.5004 70.9723 54.4088 70.6183C54.0184 69.1093 54.426 67.21 55.3955 66.0206C55.6554 65.7018 55.6554 65.7018 55.0027 65.02C54.0357 64.0098 53.512 62.9238 53.3677 61.6285C53.2997 61.0175 53.3384 61.0446 52.6611 61.1327Z" fill="#2430F0"/>
<path d="M105.633 85.9334C96.5262 86.892 89.6017 95.5081 88.0756 107.779C87.8327 109.733 87.6614 115.591 87.8441 115.695C88.3419 115.978 88.6972 115.827 88.6972 115.332C88.6972 108.134 91.4655 104.834 102.013 99.4612C104.873 98.0038 104.906 97.9841 106.695 96.5613C113.449 91.1914 112.848 85.1738 105.633 85.9334Z" fill="#2BE1B7"/>
<path d="M110.95 97.1655C110.442 97.5769 110.442 97.5769 110.48 99.462C110.732 111.816 98.3443 118.769 92.2728 109.683C91.745 108.893 91.7832 108.881 91.2285 109.99C90.1068 112.234 89.6409 115.942 90.3826 116.726C91.6354 118.05 91.5262 119.75 90.0379 122.087C89.7065 122.608 89.1332 123.626 88.7636 124.35C87.337 127.146 84.8953 131.589 84.183 132.684C83.7458 133.357 83.6236 133.325 86.181 133.207C91.5145 132.961 93.7331 132.473 98.0591 130.599C113.701 123.824 120.062 109.429 112.473 97.9817C111.535 96.5664 111.627 96.6167 110.95 97.1655Z" fill="#2BE1B7"/>
<path d="M32.2115 96.9287C28.3808 101.058 27.2519 109.586 29.7309 115.669C33.2103 124.209 44.5948 132.148 54.6163 133.024C59.1576 133.421 60.1885 133.353 59.7541 132.684C59.0418 131.589 56.6001 127.146 55.1735 124.35C54.8039 123.626 54.2306 122.608 53.8992 122.088C52.4109 119.75 52.3017 118.051 53.5545 116.727C54.2962 115.942 53.8303 112.234 52.7086 109.991C52.1539 108.882 52.1921 108.893 51.6643 109.683C45.5928 118.77 33.2053 111.816 33.4564 99.4622C33.4947 97.5771 33.4947 97.5771 32.9692 97.1599C32.3558 96.6745 32.4276 96.6958 32.2115 96.9287Z" fill="#2BE1B7"/>
<path d="M35.7798 85.9607C30.869 86.7317 31.6076 92.0803 37.2437 96.5615C39.0328 97.9843 39.0653 98.004 41.9259 99.4613C52.4713 104.834 55.2414 108.135 55.2414 115.333C55.2414 115.827 55.5967 115.979 56.0945 115.695C56.1841 115.644 56.1699 112.202 56.0724 110.362C55.6147 101.722 52.1139 93.6453 47.0954 89.6528C43.7759 87.0115 39.0041 85.4547 35.7798 85.9607Z" fill="#2BE1B7"/>
<path d="M58.7196 65.5908C55.5117 66.4446 55.287 70.828 58.3073 73.6341C60.4902 75.6622 58.3582 75.1868 55.9805 73.1152C55.3359 72.5535 55.3359 72.5535 54.8446 72.6043C52.838 72.8116 49.747 71.0572 48.0987 68.7754C47.7185 68.2487 47.7185 68.2487 47.4766 68.5285C44.0498 72.4893 42.0995 76.0358 39.8786 82.3438C39.3289 83.9057 39.3234 83.7838 39.9486 83.9015C50.6201 85.9043 57.6615 97.1462 57.8809 112.531C57.9287 115.891 57.8439 115.689 59.0258 115.252C59.7475 114.985 59.8938 114.782 60.4835 113.229C63.1817 106.121 65.4532 103.303 69.2591 102.341C70.0467 102.142 70.0236 102.157 70.0909 101.802C70.243 101.001 71.0986 98.9022 71.4069 98.5747C72.1504 97.7856 73.3966 99.4346 73.8458 101.802C73.9131 102.157 73.89 102.142 74.6776 102.341C78.4833 103.303 80.7549 106.121 83.4532 113.229C84.0429 114.782 84.1891 114.985 84.9109 115.252C86.0929 115.689 86.0079 115.891 86.0558 112.531C86.2752 97.1454 93.3159 85.9043 103.988 83.9015C104.613 83.7838 104.608 83.9057 104.058 82.3438C101.837 76.0358 99.8869 72.4893 96.4601 68.5285C96.2182 68.2487 96.2182 68.2487 95.8378 68.7754C94.1898 71.0572 91.0988 72.8116 89.0922 72.6043C88.6008 72.5535 88.6008 72.5535 87.9562 73.1152C85.5784 75.1868 83.4463 75.6622 85.6294 73.6341C87.8087 71.6094 88.3588 69.5187 87.2716 67.3928C86.4102 65.7082 83.753 64.6986 83.5842 65.9918C83.3142 68.0604 82.4871 69.6517 81.2414 70.4993C80.8786 70.7461 80.8786 70.7461 81.1879 71.2993C81.8995 72.5724 81.5479 74.2271 80.3008 75.4734C79.2456 76.528 78.398 76.5971 79.3661 75.5495C80.6363 74.1755 80.548 72.5006 79.1842 72.1002C78.3684 71.8606 75.7966 71.9622 75.7966 72.234C75.7966 72.8522 74.9699 74.7527 74.4791 75.2629C73.8703 75.8956 73.7428 75.6213 74.162 74.5809C75.4464 71.3937 74.3758 68.3557 71.9684 68.3557C69.5608 68.3557 68.4903 71.3937 69.7746 74.5809C70.1939 75.6213 70.0662 75.8956 69.4576 75.2629C68.9668 74.7527 68.1402 72.8522 68.1402 72.234C68.1402 71.9622 65.5683 71.8606 64.7525 72.1002C63.3886 72.5006 63.3003 74.1755 64.5704 75.5495C65.5388 76.5971 64.6911 76.528 63.6359 75.4734C62.3887 74.2271 62.0372 72.5724 62.7488 71.2993C63.0581 70.7461 63.0581 70.7461 62.6952 70.4993C61.4508 69.6527 60.6223 68.0599 60.3531 65.9969C60.3089 65.6578 60.2619 65.5626 60.1202 65.5249C59.8278 65.4474 59.1363 65.4798 58.7196 65.5908Z" fill="#2430F0"/>
<path fill-rule="evenodd" clip-rule="evenodd" d="M70.9842 104.236C67.7998 104.8 64.8193 108.212 62.5079 113.941C61.349 116.813 60.7464 117.229 56.9062 117.807C54.379 118.187 54.2124 118.796 55.9492 121.301C57.2049 123.113 58.7387 125.616 60.3587 128.496C63.2536 133.645 64.322 135.352 65.7944 137.186C70.8721 143.513 75.2121 142.476 80.5961 133.648C81.6563 131.91 81.7887 131.682 83.58 128.496C85.2 125.616 86.7337 123.113 87.9895 121.301C89.7261 118.796 89.5597 118.187 87.0325 117.807C83.1921 117.229 82.5895 116.813 81.4307 113.941C78.6442 107.034 74.8878 103.545 70.9842 104.236ZM61.8276 119.766C61.4655 119.026 61.7461 118.257 62.5238 117.856C63.6003 117.301 64.9071 118.236 65.6007 120.058C66.0552 121.252 65.4978 121.423 64.0358 120.539C63.6269 120.292 63.5258 120.261 63.3919 120.343C62.9054 120.644 62.1147 120.352 61.8276 119.766ZM78.2308 120.839C77.9508 120.258 79.0919 118.341 79.9841 117.893C81.2945 117.234 82.7311 118.499 82.111 119.766C81.8239 120.352 81.0332 120.644 80.5467 120.343C80.4129 120.261 80.3118 120.292 79.9027 120.539C78.8306 121.188 78.4333 121.258 78.2308 120.839Z" fill="#F2C79C"/>
<path fill-rule="evenodd" clip-rule="evenodd" d="M54.8393 35.8574C53.732 31.7319 50.2826 28.4824 45.5958 29.3489C41.8771 30.0365 38.5726 32.8617 37.707 36.0645C37.9628 36.9568 38.3857 37.8183 38.9923 38.6113C43.2839 44.2218 51.0115 43.6558 54.1954 37.4978C54.4742 36.9588 54.6871 36.4097 54.8393 35.8574Z" fill="#2430F0"/>
<path fill-rule="evenodd" clip-rule="evenodd" d="M59.0754 20.3269C58.916 19.8537 58.7898 19.3778 58.6953 18.9011C59.6647 13.9415 64.456 9.63781 70.122 8.61426C77.7052 7.24453 83.9514 12.3812 85.2469 18.8924C85.1515 19.3698 85.0241 19.8486 84.8628 20.3269C81.046 31.6541 62.8923 31.6541 59.0754 20.3269Z" fill="#2430F0"/>
<path d="M96.075 24.9576C90.6937 25.9189 87.9048 31.1702 89.1064 35.8496C89.9014 32.7135 93.0077 30.0148 96.707 29.3539C101.556 28.4877 105.091 31.9447 106.231 36.0955C107.889 30.4354 102.6 23.792 96.075 24.9576Z" fill="#2430F0"/>
<path d="M58.6958 18.9008C59.6652 13.9412 64.4566 9.63747 70.1225 8.61393C77.7058 7.24419 83.952 12.3809 85.2474 18.8921C86.9198 10.5204 78.7283 2.54901 69.4906 4.21765C62.1861 5.53713 57.3856 12.2909 58.6958 18.9008Z" fill="#2430F0"/>
<path d="M45.5963 29.349C50.283 28.4825 53.7325 31.732 54.8398 35.8575C56.4485 30.0152 51.251 23.7904 44.9644 24.9527C39.5699 25.9501 36.3773 31.4235 37.7075 36.0647C38.5731 32.8618 41.8775 30.0367 45.5963 29.349Z" fill="#2430F0"/>
<path d="M91.6995 40.1679C95.5689 43.777 101.53 43.0766 104.946 38.6115C105.553 37.8176 105.974 36.9682 106.23 36.0955C105.09 31.9446 101.555 28.4876 96.706 29.3538C93.0067 30.0147 89.9004 32.7134 89.1055 35.8495C89.5071 37.4132 90.3544 38.9133 91.6995 40.1679Z" fill="#2430F0"/>
<path fill-rule="evenodd" clip-rule="evenodd" d="M60.706 14.4323C62.823 11.5254 66.2732 9.31039 70.1286 8.61393C75.8977 7.57184 80.8932 10.2958 83.5234 14.5258C84.0248 14.0269 84.4832 13.5199 84.862 13.0232C82.9055 7.23063 76.5018 2.95226 69.4966 4.21765C64.6568 5.09189 60.9163 8.35176 59.3242 12.3747C59.6686 13.0312 60.155 13.7356 60.706 14.4323Z" fill="#F2C79C"/>
<path d="M60.707 14.4326C62.5865 16.809 65.2178 19.0973 65.5349 19.0973C65.7748 19.0973 67.1015 17.8232 68.4795 16.5C69.9676 15.0707 71.5156 13.5842 71.8181 13.5842C72.1093 13.5842 73.3577 14.9624 74.606 16.3407C75.8544 17.719 77.1026 19.0973 77.394 19.0973C77.7654 19.0973 81.1336 16.9045 83.5244 14.5262C80.8942 10.2961 75.8987 7.57218 70.1296 8.61425C66.2742 9.31073 62.824 11.5257 60.707 14.4326Z" fill="#2BE1B7"/>
<path d="M37.7513 35.8325C38.71 32.7262 41.9441 30.0199 45.5729 29.349C48.3477 28.836 50.6888 29.7657 52.3668 31.4658C52.6786 30.3261 52.9043 28.965 52.8779 27.8224C50.9944 25.6545 48.1057 24.3676 44.941 24.9527C39.6738 25.9265 36.5058 31.1675 37.5974 35.7345C37.648 35.7676 37.6993 35.8002 37.7513 35.8325Z" fill="#2BE1B7"/>
<path d="M37.75 35.8324C39.7908 37.1068 42.573 37.6632 43.306 37.2405C43.8735 36.9132 44.1363 35.2625 44.198 33.5625C44.245 32.2704 44.287 31.1137 44.5386 30.9005C44.8166 30.6648 46.165 31.4315 47.594 32.2441C49.1601 33.1344 50.9291 33.911 51.3861 33.6528C51.7127 33.4683 52.0345 32.6761 52.3656 31.4656C50.6875 29.7656 48.3463 28.8359 45.5716 29.3488C41.9429 30.0198 38.7087 32.7261 37.75 35.8324Z" fill="#2BE1B7"/>
<path fill-rule="evenodd" clip-rule="evenodd" d="M89.7255 29.9586C89.8502 30.8637 92.4717 35.7186 93.1791 35.8832C93.5622 35.9724 94.8726 35.048 96.0731 34.2013C97.0893 33.4844 98.0268 32.8232 98.2557 32.8797C98.4645 32.9313 98.8624 33.5511 99.3276 34.2759C99.9753 35.2848 100.754 36.4972 101.335 36.6649C102.088 36.8819 105.085 35.323 106.552 34.2776C106.779 29.1178 101.932 23.9151 96.097 24.9577C93.05 25.5019 90.8341 27.4217 89.7031 29.8341C89.7118 29.8722 89.7191 29.9135 89.7255 29.9586Z" fill="#2BE1B7"/>
<path d="M107.796 99.1885C107.567 99.3061 106.855 99.6361 106.214 99.9216C103.741 101.021 103.312 101.287 103.642 101.511C105.385 102.69 105.837 106.403 104.604 109.4C104.297 110.145 104.343 110.14 105.111 109.346C107.583 106.787 109.18 101.798 108.373 99.1506C108.304 98.9243 108.308 98.9243 107.796 99.1885Z" fill="white"/>
<path d="M35.5644 99.1505C34.7578 101.798 36.3545 106.787 38.8271 109.346C39.5948 110.14 39.6409 110.145 39.3342 109.4C38.1014 106.405 38.5534 102.69 40.2943 101.511C40.6162 101.293 40.0283 100.927 37.7652 99.9379C37.2388 99.7075 36.5563 99.3948 36.2485 99.2426C35.584 98.9135 35.6346 98.921 35.5644 99.1505Z" fill="white"/>
<path d="M102.377 106.69C102.377 106.417 102.135 106.197 101.836 106.197C101.537 106.197 101.295 106.417 101.295 106.69C101.295 106.963 101.537 107.184 101.836 107.184C102.135 107.184 102.377 106.963 102.377 106.69Z" fill="white"/>
<path opacity="0.2" fill-rule="evenodd" clip-rule="evenodd" d="M84.5051 21.2603C79.8749 26.3592 70.6721 29.1651 60.1566 22.6717C65.3563 31.3179 80.3741 30.8474 84.5051 21.2603ZM52.8679 39.4707C47.9942 41.4864 41.3771 39.4228 38.1445 37.2252C38.3716 37.7043 38.6531 38.1685 38.9919 38.6115C42.769 43.5494 49.2078 43.7029 52.8679 39.4707ZM105.7 37.4231C102.897 40.0284 97.2237 41.8806 90.5967 38.9432C90.9181 39.3712 91.2854 39.7811 91.7001 40.1679C95.5696 43.777 101.531 43.0765 104.946 38.6115C105.24 38.2271 105.49 37.8298 105.7 37.4231Z" fill="#22110C"/>
<path d="M58.6958 18.9008C59.6652 13.9412 64.4566 9.63746 70.1225 8.61398C77.7058 7.24419 83.952 12.3809 85.2474 18.8921C86.9198 10.5205 78.7283 2.54901 69.4906 4.21765C62.1861 5.53713 57.3856 12.291 58.6958 18.9008Z" fill="#2430F0"/>
<path fill-rule="evenodd" clip-rule="evenodd" d="M60.706 14.4322C62.823 11.5253 66.2732 9.31037 70.1286 8.61398C75.8977 7.57185 80.8932 10.2957 83.5234 14.5258C84.0248 14.0269 84.4832 13.5199 84.862 13.0233C82.9055 7.23063 76.5018 2.95227 69.4966 4.21765C64.6568 5.09189 60.9163 8.35174 59.3242 12.3747C59.6686 13.0312 60.155 13.7355 60.706 14.4322Z" fill="#2BE1B7"/>
<g opacity="0.2">
<g style="mix-blend-mode:hard-light">
<path fill-rule="evenodd" clip-rule="evenodd" d="M75.3068 52.8646C74.6983 51.4592 73.1815 50.7066 71.0645 51.08C69.8144 51.3007 68.9661 51.9657 68.5696 52.9317C69.4038 52.2507 70.88 52.028 71.9813 52.005C73.0455 52.0273 74.4598 52.236 75.3068 52.8646ZM66.0388 53.754C65.0077 53.9105 63.1245 54.4064 62.3062 55.5477C62.5791 54.5281 63.2641 53.7699 64.3094 53.4911C65.3558 53.2121 65.835 53.2441 66.0388 53.754ZM60.4148 56.9205C60.4072 56.8266 60.4029 56.7361 60.4023 56.6499C60.4017 56.5424 58.8821 56.594 58.4047 56.7175C56.7706 57.1403 55.6702 58.3402 55.2661 59.7704C56.359 58.2425 58.394 56.9684 60.4148 56.9205ZM49.1152 65.2452C49.5982 63.6208 51.3979 61.9263 52.861 61.9263C53.0679 61.9263 53.2482 61.915 53.4048 61.8948C53.391 61.807 53.3793 61.7179 53.3691 61.628C53.3659 61.5979 53.3628 61.5692 53.3597 61.5422C53.3338 61.3022 53.3203 61.1787 53.2511 61.1231C53.1774 61.064 53.0404 61.0823 52.7577 61.1196C52.7276 61.1237 52.6958 61.128 52.6625 61.1322C50.4543 61.4191 49.2144 63.2362 49.1152 65.2452ZM71.057 61.4837C70.2083 60.832 68.9524 60.5744 67.189 62.0331C67.4867 61.4148 68.0058 60.9164 68.7432 60.577C69.323 60.3101 69.9397 60.3019 70.2734 60.5565C70.5393 60.7594 70.8197 61.0976 71.057 61.4837ZM76.5149 61.8284C75.7535 60.44 74.2964 59.7149 73.3199 60.8651C73.1775 61.0329 73.0207 61.2624 72.8764 61.5063C73.6838 60.871 74.8668 60.5861 76.5149 61.8284ZM65.3439 62.6522C65.3567 62.2665 65.3144 62.2594 65.0684 62.2185C64.905 62.1915 64.715 62.1589 64.6464 62.1463C64.5777 62.1336 64.3006 62.1548 64.0307 62.1931C62.745 62.3762 61.9621 63.4943 61.7603 64.9228C62.2693 63.2883 64.1881 62.5251 65.3439 62.6522ZM83.6335 65.8034C84.0333 64.8078 86.4578 65.7977 87.2732 67.3923C87.4999 67.8354 87.6554 68.2771 87.7397 68.7169C87.1149 66.9805 85.1474 66.1847 83.6335 65.8034ZM75.7961 72.2906C75.7974 72.2705 75.7981 72.2514 75.7981 72.2335C75.7981 71.9618 78.37 71.8601 79.1858 72.0996C79.5724 72.213 79.8564 72.4289 80.0361 72.7113C79.2556 72.0301 77.5574 72.1566 75.7961 72.2906ZM69.885 69.476C70.3582 68.7789 71.0708 68.3552 71.9699 68.3552C72.852 68.3552 73.5547 68.7631 74.0278 69.4368C73.4386 68.982 72.6313 68.7485 71.9813 68.6881C71.3127 68.7501 70.4781 68.9954 69.885 69.476ZM63.8749 72.7586C64.0526 72.453 64.3462 72.2193 64.7539 72.0996C65.5699 71.8601 68.1417 71.9618 68.1417 72.2335C68.1417 72.2509 68.1423 72.2695 68.1437 72.2889C66.3509 72.1525 64.6273 72.0274 63.8749 72.7586ZM60.3239 65.8047C58.7759 66.1953 56.7563 67.0192 56.1818 68.838C56.2745 67.3031 57.1316 66.0134 58.7212 65.5902C59.1379 65.4793 59.8294 65.4468 60.1218 65.5244C60.2322 65.5536 60.2851 65.6178 60.3239 65.8047ZM81.6556 55.5469C81.3038 54.2884 80.2796 53.4591 78.7127 53.3953L77.8206 53.359L77.8052 53.7369C78.8036 53.8721 80.8046 54.361 81.6556 55.5469ZM88.6484 59.7043C88.358 58.604 87.6845 57.6554 86.6743 57.1665C85.6751 56.6829 83.5392 56.3311 83.5374 56.6499C83.537 56.7361 83.5328 56.8263 83.5251 56.9201C85.5242 56.9584 87.5405 58.2004 88.6484 59.7043ZM94.8537 65.2672C94.3806 63.6362 92.5712 61.9263 91.1015 61.9263C90.8795 61.9263 90.6882 61.9132 90.5238 61.8903C90.5267 61.8715 90.5296 61.8524 90.5324 61.8333C90.5811 61.5055 90.6341 61.1969 90.6503 61.1475C90.6993 60.9968 91.7661 61.1806 92.3177 61.4348C93.9214 62.1742 94.7693 63.6681 94.8537 65.2672ZM82.1537 64.781C82.0441 63.9319 81.74 63.2041 81.2325 62.7624C80.7871 62.3747 79.6831 62.0322 79.2518 62.1479C79.2061 62.1601 79.0349 62.1921 78.8715 62.219C78.6251 62.2595 78.5831 62.2664 78.596 62.6547C79.7157 62.5192 81.5772 63.2339 82.1537 64.781Z" fill="white"/>
</g>
</g>
<g style="mix-blend-mode:hard-light">
<path fill-rule="evenodd" clip-rule="evenodd" d="M110.038 86.6689C106.759 86.4254 102.935 87.5 100.171 89.2042C96.3014 91.5904 90.3511 97.9264 89.1028 104.057C88.7575 105.752 88.4984 106.306 88.3066 106.185C90.2132 94.7658 96.9252 86.8499 105.632 85.9333C107.595 85.7267 109.069 86.0222 110.038 86.6689Z" fill="white" fill-opacity="0.4"/>
</g>
<g style="mix-blend-mode:hard-light">
<path fill-rule="evenodd" clip-rule="evenodd" d="M33.7305 86.7473C37.0946 86.3795 41.1209 87.4714 43.9976 89.2455C47.8674 91.6318 53.8177 97.9678 55.0661 104.098C55.262 105.059 55.4299 105.653 55.5736 105.966C54.3645 99.0613 51.2502 92.9582 47.0961 89.6528C43.7766 87.0115 39.0049 85.4547 35.7806 85.9607C34.9284 86.0947 34.2464 86.3663 33.7305 86.7473Z" fill="white" fill-opacity="0.4"/>
</g>
<g style="mix-blend-mode:hard-light">
<path fill-rule="evenodd" clip-rule="evenodd" d="M63.7637 111.182C66.485 108.223 69.9715 107.719 71.8352 107.719C73.7711 107.719 77.6087 108.337 80.3794 111.588C77.7342 106.253 74.4161 103.628 70.9845 104.237C68.3501 104.703 65.8553 107.118 63.7637 111.182Z" fill="white" fill-opacity="0.4"/>
</g>
<path opacity="0.2" fill-rule="evenodd" clip-rule="evenodd" d="M108.586 100.744C107.342 101.275 105.948 101.814 104.444 102.354C104.219 102.006 103.951 101.719 103.644 101.511C103.313 101.287 103.743 101.021 106.216 99.9216C106.857 99.6361 107.568 99.3062 107.797 99.1885L107.806 99.1835C108.123 99.0198 108.239 98.9597 108.299 98.9951C108.333 99.0148 108.349 99.0658 108.374 99.1474L108.375 99.1506C108.517 99.618 108.585 100.158 108.586 100.744ZM35.3555 100.61C36.613 101.172 38.0155 101.743 39.5238 102.312C39.7427 101.983 40.0003 101.711 40.2947 101.511C40.6168 101.293 40.0288 100.927 37.7658 99.9381C37.2394 99.7077 36.5569 99.395 36.249 99.2427C36.2062 99.2214 36.1664 99.2016 36.1293 99.1835C35.7943 99.0173 35.683 98.9614 35.6311 98.9959C35.6052 99.0123 35.5941 99.051 35.5773 99.1095C35.5735 99.1218 35.5695 99.1358 35.5649 99.1506C35.4336 99.5817 35.366 100.076 35.3555 100.61Z" fill="#22110C"/>
<path opacity="0.2" fill-rule="evenodd" clip-rule="evenodd" d="M53.3489 121.13C53.0834 123.953 54.0623 127.11 54.5143 128.568C54.5911 128.815 54.6528 129.014 54.6905 129.154C55.0128 130.35 51.5085 132.241 38.6543 126.448C43.4004 130.02 49.2071 132.551 54.6167 133.024C59.158 133.421 60.1889 133.353 59.7546 132.684C59.0422 131.589 56.6005 127.147 55.1739 124.35C54.8045 123.626 54.231 122.609 53.8998 122.088C53.6883 121.756 53.5048 121.437 53.3489 121.13Z" fill="#22110C"/>
<path opacity="0.2" fill-rule="evenodd" clip-rule="evenodd" d="M105.362 126.422C92.4618 132.246 88.9467 130.351 89.2697 129.154C89.3073 129.014 89.3689 128.816 89.4459 128.567C89.8998 127.104 90.8854 123.924 90.6076 121.092C90.4477 121.41 90.2579 121.742 90.0379 122.087C89.7065 122.608 89.1332 123.626 88.7636 124.35C87.337 127.146 84.8953 131.589 84.183 132.684C84.0244 132.929 83.9075 133.079 83.9443 133.167C84.0093 133.323 84.5506 133.282 86.181 133.207C91.5145 132.961 93.7331 132.474 98.0593 130.599C100.783 129.419 103.225 128.009 105.362 126.422Z" fill="#22110C"/>
<path opacity="0.2" fill-rule="evenodd" clip-rule="evenodd" d="M59.6309 127.218C62.4431 131.715 63.5828 133.333 65.1202 135.064C70.7444 141.396 75.5515 140.357 81.5149 131.522C82.6319 129.868 82.819 129.58 84.5421 126.813C84.2258 127.357 83.9046 127.92 83.58 128.496C81.7885 131.682 81.6562 131.911 80.5961 133.648C75.2121 142.476 70.872 143.514 65.7942 137.187C64.322 135.353 63.2536 133.645 60.3585 128.496C60.1137 128.061 59.871 127.635 59.6309 127.218Z" fill="#22110C"/>
<path d="M71.917 96.3223C70.8767 96.3223 69.5451 103.646 68.9627 103.646L67.7559 104.757L71.917 103.646L76.7022 105.045C76.189 104.578 75.0877 103.646 74.7882 103.646C74.4137 103.646 72.9572 96.3223 71.917 96.3223Z" fill="black" fill-opacity="0.2"/>
<path d="M65.011 76.6556C64.4284 76.6556 62.4727 75.2979 62.4727 73.2819C62.7501 72.7745 63.3049 71.9817 63.3049 72.8704C63.3049 73.9813 64.5533 75.4213 64.8861 75.7504C65.2191 76.0796 65.5935 76.6556 65.011 76.6556Z" fill="black" fill-opacity="0.2"/>
<path d="M53.8585 73.2818C51.4866 73.2818 48.4075 70.196 46.8262 68.0978L47.7833 67.2749L49.947 70.3606L54.8571 71.8006L55.8143 70.2372C56.05 70.5938 56.6048 71.455 56.9378 72.0475C57.3539 72.788 58.4357 73.364 59.3095 74.5983C60.1833 75.8326 56.8544 74.3103 56.4383 74.1046C56.1055 73.94 55.3842 73.4327 55.0652 73.1995C55.0652 73.2269 54.8239 73.2818 53.8585 73.2818Z" fill="black" fill-opacity="0.2"/>
<path d="M61.3081 69.5381C60.3511 68.3449 60.6839 66.9461 60.5176 65.7529L63.2223 70.6078L63.0142 70.9781L63.0086 70.9753C62.7414 70.8361 62.0685 70.4861 61.3081 69.5381Z" fill="black" fill-opacity="0.2"/>
<path d="M69.8363 75.9151C68.9624 75.7094 68.1719 73.6934 68.1719 72.1711L69.0041 71.8008L69.545 73.9402C69.7115 74.5986 70.7101 76.1208 69.8363 75.9151Z" fill="black" fill-opacity="0.2"/>
<path d="M78.8668 76.6556C79.4493 76.6556 81.4051 75.2979 81.4051 73.2819C81.1277 72.7745 80.5728 71.9817 80.5728 72.8704C80.5728 73.9813 79.3246 75.4213 78.9916 75.7504C78.6588 76.0796 78.2842 76.6556 78.8668 76.6556Z" fill="black" fill-opacity="0.2"/>
<path d="M90.0184 73.2818C92.3903 73.2818 95.4695 70.196 97.0508 68.0978L96.0937 67.2749L93.9299 70.3606L89.0198 71.8006L88.0628 70.2372C87.827 70.5938 87.2721 71.455 86.9393 72.0475C86.5232 72.788 85.4413 73.364 84.5674 74.5983C83.6936 75.8326 87.0225 74.3103 87.4386 74.1046C87.7714 73.94 88.4928 73.4327 88.8118 73.1995C88.8118 73.2269 89.0532 73.2818 90.0184 73.2818Z" fill="black" fill-opacity="0.2"/>
<path d="M82.5703 69.5381C83.5273 68.3449 83.1945 66.9461 83.3609 65.7529L80.6562 70.6078L80.8643 70.9781L80.8697 70.9753C81.137 70.8361 81.8099 70.4861 82.5703 69.5381Z" fill="black" fill-opacity="0.2"/>
<path d="M73.9976 75.9562C74.8715 75.7505 75.7038 73.6934 75.7038 72.1711L74.8715 71.8008L74.3305 73.9402C74.1641 74.5985 73.1238 76.1619 73.9976 75.9562Z" fill="black" fill-opacity="0.2"/>
<path opacity="0.2" d="M62.0717 120.021C61.7804 120.021 62.6957 119.568 62.4045 118.786C63.098 118.498 64.1855 118.794 64.9844 119.486C65.9832 120.35 65.9832 122.489 65.9414 123.394C65.8999 124.299 62.3629 120.021 62.0717 120.021Z" fill="#22110C"/>
<path opacity="0.2" d="M81.8085 120.047C82.0998 120.047 81.1845 119.595 81.4757 118.813C80.7822 118.525 79.6947 118.821 78.8958 119.513C77.897 120.377 77.897 122.516 77.9387 123.421C77.9803 124.326 81.5173 120.047 81.8085 120.047Z" fill="#22110C"/>
<path opacity="0.2" fill-rule="evenodd" clip-rule="evenodd" d="M44.036 99.1409C49.101 102.137 54.0249 105.05 54.0249 108.665C54.0249 108.781 54.023 108.896 54.0192 109.009C52.3726 105.6 48.8017 102.973 41.9082 99.4611C39.0477 98.0037 39.0152 97.984 37.2261 96.5612C32.8379 93.0723 31.4186 89.0577 33.3231 87.0869C32.0417 92.0462 38.1346 95.6504 44.036 99.1409Z" fill="#22110C"/>
<path opacity="0.2" fill-rule="evenodd" clip-rule="evenodd" d="M33.4033 86.9448L33.364 87.0971C32.7289 89.5549 33.9186 91.682 36.0151 93.6355C38.1119 95.5889 41.1061 97.3597 44.0579 99.1059L44.0601 99.1075C46.591 100.604 49.0906 102.083 50.9571 103.64C52.8233 105.196 54.0671 106.838 54.0671 108.665C54.0671 108.782 54.0652 108.897 54.0614 109.01L53.9822 109.026C52.3422 105.631 48.7835 103.009 41.8898 99.4975C40.4603 98.7693 39.735 98.399 39.1439 98.0328C38.5521 97.6666 38.0948 97.3046 37.2007 96.5937C35.0026 94.8459 33.5453 92.9649 32.8766 91.2698C32.2081 89.5755 32.3258 88.0598 33.2935 87.0584L33.4033 86.9448ZM32.9541 91.2401C33.6161 92.918 35.0625 94.7883 37.2528 96.5295C38.1477 97.2413 38.6012 97.6001 39.1881 97.9638C39.7755 98.3274 40.4969 98.6961 41.9279 99.4251C48.7185 102.884 52.2969 105.49 53.9823 108.839C53.9833 108.781 53.9839 108.723 53.9839 108.665C53.9839 106.877 52.7657 105.255 50.9035 103.702C49.0425 102.15 46.5485 100.675 44.0152 99.1766L44.0124 99.175C41.0637 97.4305 38.062 95.6556 35.958 93.6948C33.8974 91.775 32.6887 89.6694 33.2449 87.2344C32.4082 88.2038 32.3186 89.629 32.9541 91.2401Z" fill="#22110C"/>
<path opacity="0.2" fill-rule="evenodd" clip-rule="evenodd" d="M99.9655 99.1411C94.9005 102.137 89.9766 105.05 89.9766 108.665C89.9766 108.716 89.977 108.767 89.9777 108.817C91.6643 105.501 95.2292 102.907 101.994 99.4613C104.855 98.0039 104.887 97.9842 106.676 96.5614C111.063 93.0734 112.348 89.3129 110.732 87.3125C111.774 92.1568 105.777 95.704 99.9655 99.1411Z" fill="#22110C"/>
<path opacity="0.2" fill-rule="evenodd" clip-rule="evenodd" d="M110.994 91.3948C110.323 93.029 108.9 94.8467 106.703 96.5936C105.809 97.3045 105.352 97.6666 104.76 98.0336C104.169 98.3989 103.444 98.7692 102.014 99.4983C95.2484 102.944 91.6954 105.533 90.0155 108.836L89.9366 108.818C89.9358 108.767 89.9355 108.716 89.9355 108.665C89.9355 106.838 91.1794 105.196 93.0454 103.64C94.9122 102.083 97.4116 100.604 99.9425 99.1074L99.9447 99.1058C102.851 97.3868 105.799 95.6423 107.891 93.7243C109.983 91.8062 111.208 89.7219 110.692 87.3216L110.765 87.2871C111.586 88.3025 111.665 89.7605 110.994 91.3948ZM110.808 87.4812C111.502 88.4581 111.55 89.8222 110.918 91.3635C110.253 92.9813 108.841 94.7882 106.651 96.5294C105.756 97.2412 105.303 97.6 104.716 97.9637C104.128 98.3274 103.407 98.696 101.976 99.425C95.3126 102.819 91.7428 105.391 90.0187 108.649C90.0259 106.867 91.2424 105.251 93.0991 103.702C94.9601 102.15 97.4541 100.675 99.9875 99.1765L99.9901 99.1749C102.894 97.4576 105.849 95.7098 107.948 93.7843C109.996 91.9058 111.238 89.8494 110.808 87.4812Z" fill="#22110C"/>
<g style="mix-blend-mode:multiply">
<path fill-rule="evenodd" clip-rule="evenodd" d="M31.4646 97.8115C31.4145 101.889 31.5712 119.486 52.4851 119.486C52.5706 119.486 52.6557 119.486 52.74 119.485C52.5385 118.402 52.8054 117.5 53.5376 116.726C54.2793 115.942 53.8134 112.234 52.6917 109.991C52.3947 109.396 52.2677 109.124 52.1327 109.12C52.0157 109.117 51.8926 109.316 51.6474 109.683C45.5759 118.77 33.1884 111.816 33.4395 99.4621C33.4778 97.577 33.4778 97.577 32.9523 97.1598C32.5694 96.857 32.4535 96.7516 32.3679 96.7713C32.3164 96.7837 32.2758 96.8413 32.1946 96.9286C31.9392 97.2042 31.6958 97.4988 31.4646 97.8115Z" fill="black" fill-opacity="0.2"/>
</g>
<path opacity="0.2" fill-rule="evenodd" clip-rule="evenodd" d="M112.574 98.1611C112.605 102.685 112.035 119.568 91.5503 119.568C91.4144 119.568 91.28 119.567 91.147 119.566C91.3777 118.447 91.116 117.52 90.3654 116.726C89.6238 115.942 90.0896 112.233 91.2115 109.99C91.5085 109.396 91.6354 109.124 91.7703 109.12C91.8874 109.117 92.0105 109.316 92.2558 109.683C98.3273 118.769 110.715 111.816 110.464 99.462C110.437 98.1216 110.428 97.734 110.609 97.4748C110.682 97.3687 110.786 97.2848 110.933 97.1655C111.208 96.9424 111.356 96.8025 111.498 96.8083C111.705 96.8174 111.898 97.1408 112.455 97.9817C112.495 98.0418 112.535 98.1019 112.574 98.1611Z" fill="#22110C"/>
<path opacity="0.2" fill-rule="evenodd" clip-rule="evenodd" d="M68.3299 53.7734C68.2045 54.7095 68.4055 55.8296 68.9628 57.0495C69.38 57.963 69.38 57.963 70.0202 57.9696C70.5953 57.9755 70.7261 58.0093 71.3058 58.3022C71.951 58.6281 71.951 58.6281 72.5963 58.3022C73.176 58.0093 73.3068 57.9755 73.8819 57.9696C74.5221 57.963 74.5221 57.963 74.939 57.0495C75.4959 55.8289 75.6763 54.7032 75.5382 53.7615C75.2618 55.2849 74.6251 57.2761 73.1971 57.4423C72.579 57.5708 72.1489 57.5789 72.0003 57.5664L71.9905 57.5656H71.8754H71.8656C71.717 57.578 71.2869 57.5708 70.6688 57.4423C69.2446 57.2765 68.6075 55.2952 68.3299 53.7734ZM76.6736 58.3489C77.3874 57.2486 77.6855 56.1973 77.7533 54.5421L77.789 53.6729C78.0626 55.1634 77.9896 57.2507 76.7379 59.0227C76.4135 58.7497 76.4291 58.7259 76.6736 58.3489ZM81.7587 56.9471C81.7009 57.7078 81.4613 58.549 81.023 59.4276C80.9759 59.5218 80.9336 59.6076 80.8951 59.6854C80.6599 60.1623 80.5676 60.3492 80.4258 60.3991C80.3344 60.4314 80.2223 60.4066 80.0377 60.3659C79.9912 60.3555 79.9397 60.3442 79.8829 60.3324C79.4384 60.2409 79.1931 60.2312 78.8884 60.2933C78.8084 60.3095 78.7359 60.3248 78.6694 60.3386C78.6552 60.3415 78.6414 60.3443 78.6277 60.3473C78.6821 60.1842 79.1064 60.0512 79.5389 59.9155C79.9458 59.7882 80.3597 59.6584 80.4791 59.4993C81.072 58.7092 81.5248 57.9125 81.7587 56.9471ZM83.5186 56.6504C83.5124 57.7843 82.8554 59.6421 82.1168 60.6141C81.8012 61.0293 81.7798 61.0576 82.1808 61.485C83.031 60.2698 83.9165 57.8771 83.5816 56.5734C83.5409 56.5925 83.5187 56.6179 83.5186 56.6504ZM88.77 60.5009C88.6611 61.197 88.2723 62.6621 87.6778 63.2846C86.9705 64.0251 86.6792 64.1074 86.0966 63.8606C85.7501 63.7138 85.2444 63.7852 84.8764 63.8822C85.5446 63.9071 86.1483 64.0841 86.7033 64.4158L86.721 64.4263L86.7524 64.4452C86.9544 64.5662 87.0663 64.6333 87.1684 64.621C87.2955 64.6057 87.4073 64.4676 87.6581 64.158L87.6831 64.1273L87.7075 64.0973C88.55 63.059 88.8852 61.7348 88.77 60.5009ZM94.8083 64.9547C94.6612 66.1034 94.2423 68.146 92.6295 69.497C91.1119 70.7684 89.9664 70.8547 89.7167 69.0444C89.6926 68.8697 89.6587 68.777 89.6186 68.7498C89.6937 69.3885 89.6624 70.0327 89.5109 70.6184C89.4193 70.9723 89.3444 71.2722 89.3444 71.2846C89.3444 71.4882 91.6075 70.5492 92.4006 70.0167C94.222 68.7937 95.0206 66.7763 94.8083 64.9547ZM90.5065 61.8797C90.3095 63.1545 89.845 64.0617 88.8818 65.0585C88.2625 65.6996 88.2625 65.6996 88.5232 66.0197C88.5511 66.0539 88.5786 66.0887 88.6056 66.1242C89.4349 65.2909 90.359 63.6994 90.5065 61.8797ZM82.178 65.7383C82.0241 66.6089 81.7704 67.5617 81.3946 68.0158C80.6456 68.9211 79.6469 69.1678 78.8563 69.0444C78.4589 68.9826 77.7997 69.1553 77.2237 69.3571C78.3925 69.308 79.28 69.5362 80.0507 70.062C80.2393 70.1905 80.3919 70.2461 80.4251 70.1982C80.4559 70.1537 80.6378 69.9153 80.8293 69.6685C81.6757 68.5764 82.135 67.0897 82.178 65.7383ZM75.4606 68.9545C76.6586 68.3298 78.5789 66.6586 78.5554 63.9993C78.3231 65.9181 77.1805 67.6187 75.3842 68.645C75.3626 68.6574 75.4012 68.7929 75.4606 68.9545ZM76.9788 64.1782C76.6089 65.2565 75.7864 66.9524 74.4871 66.4936C73.322 66.0821 72.6147 65.9998 72.0321 65.9998C71.9947 65.9998 71.962 66.0034 71.933 66.01C71.9041 66.0034 71.8712 65.9998 71.8338 65.9998C71.2512 65.9998 70.5439 66.0821 69.3788 66.4936C68.2064 66.9076 67.4222 65.5667 67.0084 64.5087C67.2012 65.3047 67.5973 66.1691 68.1995 67.0685C68.5767 67.6319 68.7161 67.84 68.826 67.8258C68.8905 67.8175 68.9447 67.7328 69.031 67.5985C70.2707 65.6656 73.6314 65.6656 74.8711 67.5985C75.2083 68.1243 76.566 66.1199 76.9109 64.587C76.9416 64.4507 76.9639 64.3143 76.9788 64.1782ZM61.6896 65.7477C61.704 67.0419 62.1491 68.4768 63.0728 69.6685C63.2642 69.9153 63.4461 70.1537 63.477 70.1982C63.5102 70.2461 63.6627 70.1905 63.8514 70.062C64.6131 69.5424 65.489 69.3133 66.6378 69.3555C66.0627 69.1545 65.406 68.9827 65.0097 69.0444C64.219 69.1678 63.2204 68.9211 62.4714 68.0158C62.097 67.5633 61.8438 66.6158 61.6896 65.7477ZM65.3199 63.7254C65.1547 66.567 67.1998 68.3375 68.4356 68.9702C68.4983 68.8017 68.5402 68.6578 68.5179 68.645C66.6365 67.57 65.4721 65.7556 65.3199 63.7254ZM61.7005 61.5067C62.123 61.0584 62.1062 61.0364 61.7853 60.6141C61.0466 59.6421 60.3897 57.7843 60.3835 56.6504C60.3834 56.6331 60.3437 56.6199 60.2752 56.6104C59.9643 57.9298 60.8537 60.3101 61.7005 61.5067ZM55.1008 60.5306C54.9738 61.7258 55.3107 63.0082 56.1946 64.0973C56.2116 64.1181 56.2281 64.1384 56.2439 64.158C56.4948 64.4676 56.6066 64.6057 56.7337 64.621C56.8358 64.6333 56.9476 64.5662 57.1497 64.4452C57.1654 64.4358 57.1819 64.4258 57.1987 64.4158C57.7451 64.0893 58.3387 63.9127 58.9943 63.8833C58.6261 63.7858 58.1174 63.713 57.7695 63.8606C57.1868 64.1074 56.8956 64.0251 56.1882 63.2846C55.602 62.6708 55.2158 61.2377 55.1008 60.5306ZM62.1979 57.2777C62.2866 57.9604 62.5107 58.6893 62.8791 59.4276C62.9261 59.5218 62.9684 59.6074 63.0069 59.6854C63.2422 60.1621 63.3345 60.3492 63.4763 60.3991C63.5677 60.4314 63.6798 60.4066 63.8643 60.3659C63.9109 60.3555 63.9623 60.3442 64.0192 60.3324C64.4637 60.2409 64.7089 60.2312 65.0137 60.2933C65.0935 60.3095 65.1662 60.3248 65.2326 60.3386C65.2335 60.3387 65.2344 60.3389 65.2353 60.3392C65.1697 60.1796 64.7523 60.0488 64.327 59.9155C63.9203 59.7882 63.5064 59.6584 63.3869 59.4993C62.8631 58.8012 62.4486 58.0979 62.1979 57.2777ZM66.0489 53.8361C66.1071 54.0201 66.137 54.2566 66.1491 54.5521C66.2164 56.1965 66.5163 57.251 67.2285 58.3489C67.4786 58.7345 67.489 58.7506 67.1415 59.0417C65.9222 57.3293 65.8094 55.3187 66.0489 53.8361ZM54.2844 68.7427C54.2282 68.7292 54.1803 68.8183 54.1492 69.0444C53.8995 70.8547 52.754 70.7684 51.2364 69.497C49.7478 68.2499 49.2763 66.4135 49.0968 65.2349C49.0075 66.9724 49.772 68.8555 51.5015 70.0167C52.2945 70.5492 54.5577 71.4882 54.5577 71.2846C54.5577 71.2722 54.4827 70.9723 54.3912 70.6184C54.2391 70.0307 54.2082 69.3838 54.2844 68.7427ZM55.2809 66.1446C55.3126 66.1026 55.345 66.0611 55.3779 66.0207C55.638 65.7017 55.638 65.7017 54.9853 65.0201C54.0181 64.0098 53.4944 62.9237 53.3503 61.6286C53.347 61.6003 53.3442 61.5736 53.3415 61.548C53.3955 63.5198 54.3965 65.2675 55.2809 66.1446Z" fill="#22110C"/>
<path d="M102.711 105.045C102.711 104.045 103.549 103.234 104.583 103.234C105.618 103.234 106.456 104.045 106.456 105.045C106.456 106.044 105.618 106.855 104.583 106.855C103.549 106.855 102.711 106.044 102.711 105.045Z" fill="white"/>
<path d="M37.3809 105.045C37.3809 104.045 38.2192 103.234 39.2534 103.234C40.2874 103.234 41.1258 104.045 41.1258 105.045C41.1258 106.044 40.2874 106.855 39.2534 106.855C38.2192 106.855 37.3809 106.044 37.3809 105.045Z" fill="white"/>
<path d="M42.3729 106.69C42.3729 106.417 42.1308 106.197 41.8319 106.197C41.5332 106.197 41.291 106.417 41.291 106.69C41.291 106.963 41.5332 107.184 41.8319 107.184C42.1308 107.184 42.3729 106.963 42.3729 106.69Z" fill="white"/>
</g>
</svg>
