<svg width="207" height="60" viewBox="0 0 207 60" fill="none" xmlns="http://www.w3.org/2000/svg">
<g clip-path="url(#clip0_9205_88649)">
<path fill-rule="evenodd" clip-rule="evenodd" d="M3.77553 8.5585C3.25768 9.62185 3.69368 10.9067 4.74937 11.4283C6.26569 12.1775 7.58154 12.9163 8.88438 14.3958C9.66463 15.2819 11.0103 15.3631 11.89 14.5772C12.7697 13.7913 12.8503 12.4359 12.07 11.5498C10.2135 9.44143 8.30249 8.40658 6.62468 7.57758C5.56899 7.05597 4.29338 7.49514 3.77553 8.5585Z" fill="white"/>
<path fill-rule="evenodd" clip-rule="evenodd" d="M15.2829 2.31436C14.1422 2.60161 13.4486 3.76596 13.7338 4.915C13.933 5.71776 14.1188 6.40418 14.2889 7.03255C14.6145 8.23523 14.8825 9.22524 15.0769 10.4113C15.2684 11.5799 16.3642 12.3708 17.5243 12.1779C18.6845 11.985 19.4697 10.8813 19.2782 9.71271C19.0485 8.31087 18.6907 6.98449 18.3316 5.65319C18.1726 5.06367 18.0133 4.47318 17.8648 3.87474C17.5796 2.7257 16.4237 2.0271 15.2829 2.31436Z" fill="white"/>
<path fill-rule="evenodd" clip-rule="evenodd" d="M27.4536 3.63371C26.4484 3.01931 25.1389 3.3421 24.529 4.35467C23.3975 6.23301 22.8027 8.08251 22.2502 10.3084C21.965 11.4574 22.6586 12.6218 23.7994 12.909C24.9401 13.1963 26.0961 12.4977 26.3813 11.3486C26.8933 9.28543 27.3631 7.91811 28.1694 6.57962C28.7794 5.56705 28.4589 4.24812 27.4536 3.63371Z" fill="white"/>
<path fill-rule="evenodd" clip-rule="evenodd" d="M38.3081 56.6111C42.4367 53.9726 45.2914 39.8222 44.6634 35.6085C44.6634 35.6085 44.009 33.3464 42.4122 33.3463C41.1887 33.3462 40.5127 34.3409 40.2634 34.8062C40.0478 34.7264 39.8283 34.6541 39.6542 34.5979C39.5603 34.5676 39.4287 34.5258 39.3054 34.4865L39.0714 34.412C38.8803 34.3507 38.7005 34.2917 38.5311 34.2332L38.5316 34.1732C38.539 32.8056 38.3999 30.6713 36.9833 28.4475C36.7566 28.0917 36.5427 27.7735 36.3598 27.5037L36.2451 27.3346C36.109 27.1342 36.0022 26.9769 35.8995 26.82C35.6473 26.4349 35.5784 26.2865 35.5517 26.2181L35.5505 26.215C35.5401 26.1885 35.5188 26.1345 35.513 25.9699C35.5059 25.7676 35.5231 25.3847 35.6543 24.715L36.3362 21.9901L36.3387 21.976C36.3837 21.7259 36.4241 21.5011 36.4461 21.135C36.4664 20.798 36.4706 20.3083 36.385 19.7402C36.2228 18.6643 35.6007 16.6247 33.4082 15.4424C32.8724 15.1535 32.2306 14.9805 31.5979 14.8978C31.1726 14.8422 30.604 14.8041 29.9437 14.8551C28.5966 14.9591 26.8289 15.4442 25.2553 16.8869L24.8634 17.2991C23.9487 18.4039 22.9826 19.7718 22.2497 20.9824C20.0245 19.9349 17.4052 18.7324 15.5751 18.0859C13.5665 17.3763 11.3247 16.7825 9.21803 16.8589C6.88494 16.9436 4.26175 17.9217 2.88844 20.6901C2.32428 21.8273 2.08356 23.1555 2.37327 24.5398C2.65011 25.8625 3.33481 26.8743 3.98873 27.5802C5.20287 28.8908 6.82919 29.7027 7.97538 30.1948C8.85298 30.5717 9.75469 30.8852 10.553 31.1389C10.4687 31.2916 10.3842 31.4496 10.3028 31.6098C10.0614 32.0845 9.7726 32.7195 9.58247 33.4461C9.39287 34.1706 9.24339 35.2029 9.51365 36.3674C9.79106 37.5627 10.34 38.4961 10.9939 39.21C10.9691 39.5813 10.9598 39.9726 10.9736 40.3773C11.0656 43.0813 12.7167 44.8839 14.1689 45.9061C15.5526 46.88 17.1821 47.4777 18.4996 47.8796C19.7718 48.2677 21.1152 48.5757 22.2067 48.8259L22.4403 48.8795C23.6036 49.1467 24.7533 49.4559 25.9035 49.7651C27.208 50.1159 28.5131 50.4669 29.8391 50.7569C30.2728 50.8518 30.6942 50.9426 31.0819 51.0254L31.2231 51.3934C32.9433 55.7891 35.2401 58.5717 38.3081 56.6111ZM22.5906 38.6197C22.3551 38.524 22.22 38.4606 22.1001 38.4001C21.0582 37.858 19.7765 38.2667 19.2346 39.3151C18.6915 40.3657 19.098 41.6613 20.1409 42.2083C20.2264 42.2529 20.3131 42.295 20.4003 42.3361C20.5464 42.405 20.7499 42.4967 20.9977 42.5974C21.4864 42.7959 22.1812 43.0431 22.9688 43.2114C24.3667 43.5101 26.9506 43.7379 28.7024 41.7154C29.5434 40.7445 29.9477 39.4688 30.1013 38.276C30.2595 37.0471 30.1806 35.699 29.8718 34.3868C29.2636 31.8021 27.6535 28.9737 24.647 27.6323C22.0709 26.4829 19.5252 26.2127 17.3783 26.4552C15.945 26.617 14.5756 27.0233 13.4756 27.6425V27.5949C10.7855 26.8211 5.43209 25.2812 6.75042 22.6237C7.74981 20.609 10.4879 20.7756 14.2017 22.0876C15.7101 22.6205 17.8062 23.57 19.7834 24.496C20.3963 24.7831 20.9978 25.0679 21.5668 25.3373C22.3961 25.7299 23.7825 26.3767 23.7825 26.3767C25.3595 24.4704 25.9718 23.4204 26.5122 22.4935C26.8839 21.8561 27.2216 21.2769 27.8158 20.5176C28.6568 19.4428 30.0162 18.7786 31.4107 19.1675C32.3826 19.6916 32.1357 21.0154 32.1357 21.0154L31.4602 23.7145C30.8154 26.8909 31.5291 27.9421 32.7055 29.6745C32.9121 29.9788 33.1331 30.3042 33.3634 30.6658C34.3016 32.1385 34.2583 33.5547 34.2229 34.7105C34.2001 35.4539 34.1807 36.0896 34.4278 36.5633C34.9368 37.5391 36.8416 38.1442 38.0904 38.5409C38.3905 38.6362 38.6527 38.7196 38.8486 38.7931L38.9824 38.8461C38.8064 39.3959 38.6465 39.9651 38.4867 40.5336C37.7763 43.0623 37.0691 45.5795 34.9604 46.3338C32.2991 47.2857 29.6377 46.385 29.6377 46.385C29.158 46.2438 28.6695 46.1345 28.181 46.0252C27.5721 45.8889 26.963 45.7525 26.3702 45.5544C25.5441 45.2455 24.3869 44.98 23.1293 44.6914C20.1348 44.0044 16.5708 43.1867 15.5502 41.341C15.3783 41.0301 15.2785 40.69 15.2658 40.3165C15.2081 38.6191 15.7985 37.0994 15.7985 37.0994C15.7985 37.0994 14.8829 37.1032 14.2408 36.481C14.0014 36.2491 13.8001 35.9302 13.6983 35.4917C13.495 34.6157 13.6696 33.346 14.7341 32.2738L15.2676 31.7379C15.5371 31.4664 16.336 30.8888 17.8528 30.7176C19.2926 30.555 21.075 30.7296 22.9224 31.5539C24.3394 32.1861 25.3192 33.6366 25.7284 35.376C25.9284 36.2259 25.9651 37.0512 25.8784 37.7244C25.7871 38.4338 25.586 38.7892 25.4938 38.8956C25.3792 39.0279 24.9756 39.2557 23.8525 39.0157C23.3797 38.9147 22.9306 38.7578 22.5906 38.6197Z" fill="white"/>
<path d="M191.202 40.9312H189.924V33.4237H191.656C192.124 35.4037 192.797 36.8475 193.677 37.755C194.557 38.6625 195.699 39.1162 197.101 39.1162C198.119 39.1162 198.902 38.91 199.452 38.4975C200.03 38.0575 200.319 37.4662 200.319 36.7237C200.319 35.9537 199.975 35.2112 199.287 34.4962C198.6 33.7537 197.486 32.97 195.946 32.145C193.856 31.0175 192.357 29.9037 191.45 28.8037C190.542 27.6762 190.089 26.4112 190.089 25.0087C190.089 24.1012 190.254 23.2625 190.584 22.4925C190.941 21.695 191.409 21.0075 191.986 20.43C192.591 19.8525 193.306 19.4125 194.131 19.11C194.956 18.78 195.85 18.615 196.812 18.615C197.665 18.615 198.504 18.7387 199.329 18.9862C200.181 19.2337 200.924 19.5775 201.556 20.0175L202.299 19.0275H203.371V25.2562H201.762C201.13 23.6887 200.47 22.5612 199.782 21.8737C199.122 21.1862 198.311 20.8425 197.349 20.8425C196.579 20.8425 195.96 21.0487 195.492 21.4612C195.052 21.8737 194.832 22.4237 194.832 23.1112C194.832 23.8812 195.162 24.61 195.822 25.2975C196.51 25.985 197.637 26.7412 199.205 27.5662C200.305 28.1712 201.254 28.7625 202.051 29.34C202.849 29.9175 203.495 30.5087 203.99 31.1137C204.485 31.6912 204.842 32.31 205.062 32.97C205.31 33.6025 205.434 34.29 205.434 35.0325C205.434 35.995 205.255 36.8612 204.897 37.6312C204.54 38.4012 204.031 39.0612 203.371 39.6112C202.711 40.1612 201.914 40.5875 200.979 40.89C200.071 41.1925 199.054 41.3437 197.926 41.3437C196.744 41.3437 195.644 41.1925 194.626 40.89C193.609 40.56 192.77 40.0925 192.11 39.4875L191.202 40.9312Z" fill="white"/>
<path d="M178.044 25.8337C178.044 24.7337 178.017 23.8675 177.962 23.235C177.907 22.575 177.756 22.08 177.508 21.75C177.261 21.3925 176.889 21.1587 176.394 21.0487C175.927 20.9112 175.281 20.8012 174.456 20.7187V19.0687H183.778V31.5675C183.778 33.245 183.792 34.565 183.819 35.5275C183.874 36.4625 183.957 37.1637 184.067 37.6312C184.149 37.9887 184.246 38.2775 184.356 38.4975C184.466 38.69 184.644 38.855 184.892 38.9925C185.139 39.1025 185.469 39.185 185.882 39.24C186.322 39.2675 186.886 39.2812 187.573 39.2812V40.89L179.364 41.385L178.911 37.7137H178.746C178.031 38.8687 177.027 39.7625 175.734 40.395C174.442 41.0275 172.998 41.3437 171.403 41.3437C168.461 41.3437 166.219 40.2987 164.679 38.2087C163.497 36.6137 162.906 34.345 162.906 31.4025V25.8337C162.906 24.7062 162.878 23.8262 162.823 23.1937C162.768 22.5337 162.617 22.0387 162.369 21.7087C162.149 21.3787 161.806 21.1587 161.338 21.0487C160.871 20.9112 160.224 20.8012 159.399 20.7187V19.0687H168.639V30.7425C168.639 33.52 168.983 35.5412 169.671 36.8062C170.358 38.0437 171.458 38.6625 172.971 38.6625C174.593 38.6625 175.844 37.92 176.724 36.435C177.604 35.005 178.044 32.9012 178.044 30.1237V25.8337Z" fill="white"/>
<path d="M139.906 34.2075C139.906 35.335 139.934 36.2287 139.989 36.8887C140.071 37.5212 140.222 38.0162 140.442 38.3737C140.69 38.7037 141.047 38.9237 141.515 39.0337C142.01 39.1437 142.67 39.2262 143.495 39.2812V40.9312H130.501V39.2812C131.299 39.2262 131.931 39.1437 132.399 39.0337C132.894 38.9237 133.265 38.7037 133.512 38.3737C133.787 38.0437 133.966 37.5762 134.049 36.9712C134.131 36.3662 134.172 35.5412 134.172 34.4962V29.34C134.172 27.7175 134.145 26.4112 134.09 25.4212C134.035 24.4037 133.966 23.7162 133.884 23.3587C133.801 23.0012 133.691 22.7125 133.554 22.4925C133.416 22.245 133.21 22.0662 132.935 21.9562C132.66 21.8187 132.316 21.7362 131.904 21.7087C131.491 21.6537 130.969 21.6262 130.336 21.6262V20.2237L138.297 18.6562L138.834 22.2862H138.999C139.906 21.1312 140.979 20.2375 142.216 19.605C143.454 18.9725 144.815 18.6562 146.3 18.6562C148.06 18.6562 149.476 18.9037 150.549 19.3987C151.649 19.8662 152.625 20.6637 153.477 21.7912C153.945 22.4237 154.357 23.2487 154.715 24.2662C155.072 25.2562 155.251 26.6312 155.251 28.3912V34.2075C155.251 35.335 155.279 36.2287 155.334 36.8887C155.416 37.5212 155.567 38.0162 155.787 38.3737C156.035 38.7037 156.392 38.9237 156.86 39.0337C157.327 39.1437 157.96 39.2262 158.757 39.2812V40.9312H145.846V39.2812C146.671 39.2537 147.317 39.185 147.785 39.075C148.28 38.9375 148.651 38.7037 148.899 38.3737C149.146 38.0437 149.311 37.5762 149.394 36.9712C149.476 36.3387 149.517 35.5137 149.517 34.4962V28.8862C149.517 27.4837 149.435 26.3012 149.27 25.3387C149.105 24.3762 148.83 23.6062 148.445 23.0287C148.087 22.4237 147.606 21.9975 147.001 21.75C146.396 21.475 145.64 21.3375 144.732 21.3375C143.852 21.3375 143.096 21.585 142.464 22.08C141.831 22.575 141.281 23.2625 140.814 24.1425C140.566 24.6375 140.346 25.2837 140.154 26.0812C139.989 26.8512 139.906 27.6625 139.906 28.515V34.2075Z" fill="white"/>
<path d="M120.221 29.175C117.911 30.22 116.165 31.1962 114.982 32.1037C113.827 32.9837 113.25 33.905 113.25 34.8675C113.25 35.665 113.47 36.2975 113.91 36.765C114.35 37.2325 114.9 37.4662 115.56 37.4662C116.22 37.4662 116.838 37.3562 117.416 37.1362C117.993 36.8887 118.488 36.5725 118.901 36.1875C119.313 35.8025 119.63 35.3487 119.85 34.8262C120.097 34.2762 120.221 33.6987 120.221 33.0937V29.175ZM120.221 26.9887V25.2562C120.221 23.6612 119.932 22.5062 119.355 21.7912C118.805 21.0487 117.938 20.6775 116.756 20.6775C115.958 20.6775 115.353 20.8975 114.941 21.3375C114.528 21.75 114.143 22.4512 113.786 23.4412C113.538 24.1287 113.181 24.665 112.713 25.05C112.273 25.435 111.655 25.6275 110.857 25.6275C110.087 25.6275 109.496 25.3937 109.083 24.9262C108.671 24.4587 108.465 23.7987 108.465 22.9462C108.465 21.6262 109.18 20.5812 110.61 19.8112C112.067 19.0412 114.253 18.6562 117.168 18.6562C120.248 18.6562 122.448 19.22 123.768 20.3475C125.088 21.4475 125.748 23.3037 125.748 25.9162V34.95C125.748 37.2875 126.216 38.4562 127.151 38.4562C127.673 38.4562 128.155 38.2775 128.595 37.92L129.213 39.1162C128.828 39.8037 128.223 40.3537 127.398 40.7662C126.601 41.1512 125.693 41.3437 124.676 41.3437C123.411 41.3437 122.448 40.9587 121.788 40.1887C121.128 39.4187 120.798 38.3325 120.798 36.93H120.592C119.795 38.36 118.763 39.4462 117.498 40.1887C116.233 40.9312 114.79 41.3025 113.167 41.3025C111.435 41.3025 110.046 40.8212 109.001 39.8587C107.956 38.8687 107.433 37.59 107.433 36.0225C107.433 34.8125 107.97 33.685 109.042 32.64C110.115 31.5675 111.902 30.5225 114.405 29.505L120.221 26.9887Z" fill="white"/>
<path d="M71.445 34.125C71.445 35.28 71.4725 36.1875 71.5275 36.8475C71.5825 37.5075 71.7338 38.0162 71.9813 38.3737C72.2287 38.7037 72.5862 38.9237 73.0537 39.0337C73.5213 39.1437 74.1675 39.2262 74.9925 39.2812V40.9312H61.9575V39.2812C62.7825 39.2262 63.4425 39.1437 63.9375 39.0337C64.4325 38.9237 64.8038 38.7037 65.0513 38.3737C65.2988 38.0437 65.4637 37.5762 65.5462 36.9712C65.6287 36.3387 65.67 35.5 65.67 34.455V29.34C65.67 27.7725 65.6425 26.4662 65.5875 25.4212C65.56 24.3762 65.4912 23.6612 65.3813 23.2762C65.2987 22.9187 65.1888 22.6437 65.0513 22.4512C64.9413 22.2312 64.7488 22.0662 64.4737 21.9562C64.2262 21.8187 63.8963 21.7362 63.4837 21.7087C63.0712 21.6537 62.535 21.6262 61.875 21.6262V20.2237L69.8363 18.6562L70.3312 22.245H70.5787C71.7338 20.9525 72.8888 20.0312 74.0437 19.4812C75.2262 18.9312 76.5875 18.6562 78.1275 18.6562C79.9425 18.6562 81.4412 18.9725 82.6237 19.605C83.8062 20.2375 84.7 21.145 85.305 22.3275H85.47C86.46 21.1725 87.6425 20.2787 89.0175 19.6462C90.3925 18.9862 91.8637 18.6562 93.4312 18.6562C95.0812 18.6562 96.5112 18.8625 97.7212 19.275C98.9587 19.6875 99.9212 20.2787 100.609 21.0487C101.159 21.6812 101.557 22.5062 101.805 23.5237C102.08 24.5412 102.217 25.9575 102.217 27.7725V34.125C102.217 35.2525 102.245 36.1462 102.3 36.8062C102.382 37.4662 102.547 37.975 102.795 38.3325C103.042 38.69 103.4 38.9237 103.867 39.0337C104.335 39.1437 104.981 39.2262 105.806 39.2812V40.9312H92.7712V39.2812C93.5963 39.2537 94.2425 39.185 94.71 39.075C95.205 38.9375 95.5762 38.7037 95.8237 38.3737C96.0987 38.0162 96.2637 37.535 96.3187 36.93C96.4012 36.325 96.4425 35.5 96.4425 34.455V29.0512C96.4425 27.6212 96.36 26.4112 96.195 25.4212C96.03 24.4312 95.7687 23.6337 95.4112 23.0287C95.0537 22.4237 94.5725 21.9975 93.9675 21.75C93.39 21.475 92.675 21.3375 91.8225 21.3375C90.86 21.3375 90.0625 21.5712 89.43 22.0387C88.825 22.5062 88.3162 23.1112 87.9037 23.8537C87.1888 25.1462 86.8313 26.755 86.8313 28.68V34.125C86.8313 35.2525 86.8587 36.1462 86.9137 36.8062C86.9687 37.4662 87.12 37.975 87.3675 38.3325C87.615 38.69 87.9725 38.9237 88.44 39.0337C88.935 39.1437 89.6087 39.2262 90.4612 39.2812V40.9312H77.385V39.2812C78.21 39.2262 78.8562 39.1437 79.3237 39.0337C79.8187 38.9237 80.19 38.7037 80.4375 38.3737C80.7125 38.0437 80.8775 37.5762 80.9325 36.9712C81.015 36.3387 81.0563 35.5 81.0563 34.455V29.0512C81.0563 27.6212 80.9737 26.4112 80.8087 25.4212C80.6437 24.4312 80.3688 23.6337 79.9838 23.0287C79.6262 22.4237 79.145 21.9975 78.54 21.75C77.935 21.475 77.1788 21.3375 76.2713 21.3375C75.3638 21.3375 74.6075 21.5575 74.0025 21.9975C73.425 22.4375 72.9437 23.0287 72.5588 23.7712C72.2013 24.4312 71.9263 25.1875 71.7338 26.04C71.5412 26.8925 71.445 27.7725 71.445 28.68V34.125Z" fill="white"/>
</g>
<defs>
<clipPath id="clip0_9205_88649">
<rect width="206.25" height="60" fill="white"/>
</clipPath>
</defs>
</svg>
