<svg width="207" height="60" viewBox="0 0 207 60" fill="none" xmlns="http://www.w3.org/2000/svg">
<g clip-path="url(#clip0_9205_89410)">
<path fill-rule="evenodd" clip-rule="evenodd" d="M3.77553 8.55904C3.25768 9.6224 3.69368 10.9073 4.74937 11.4289C6.26569 12.1781 7.58154 12.9168 8.88438 14.3964C9.66463 15.2825 11.0103 15.3637 11.89 14.5777C12.7697 13.7918 12.8503 12.4364 12.07 11.5503C10.2135 9.44198 8.30249 8.40713 6.62468 7.57813C5.56899 7.05652 4.29338 7.49569 3.77553 8.55904Z" fill="#34322D"/>
<path fill-rule="evenodd" clip-rule="evenodd" d="M15.2829 2.3149C14.1422 2.60216 13.4486 3.76651 13.7338 4.91555C13.933 5.71831 14.1188 6.40473 14.2889 7.03309C14.6145 8.23577 14.8825 9.22579 15.0769 10.4119C15.2684 11.5804 16.3642 12.3714 17.5243 12.1785C18.6845 11.9856 19.4697 10.8818 19.2782 9.71326C19.0485 8.31142 18.6907 6.98504 18.3316 5.65374C18.1726 5.06422 18.0133 4.47373 17.8648 3.87529C17.5796 2.72625 16.4237 2.02764 15.2829 2.3149Z" fill="#34322D"/>
<path fill-rule="evenodd" clip-rule="evenodd" d="M27.4536 3.63426C26.4484 3.01986 25.1389 3.34265 24.529 4.35522C23.3975 6.23356 22.8027 8.08306 22.2502 10.3089C21.965 11.458 22.6586 12.6223 23.7994 12.9096C24.9401 13.1968 26.0961 12.4982 26.3813 11.3492C26.8933 9.28598 27.3631 7.91866 28.1694 6.58017C28.7794 5.5676 28.4589 4.24867 27.4536 3.63426Z" fill="#34322D"/>
<path fill-rule="evenodd" clip-rule="evenodd" d="M38.3081 56.6116C42.4367 53.9731 45.2914 39.8228 44.6634 35.6091C44.6634 35.6091 44.009 33.3469 42.4122 33.3468C41.1887 33.3468 40.5127 34.3415 40.2634 34.8067C40.0478 34.7269 39.8283 34.6547 39.6542 34.5985C39.5603 34.5681 39.4287 34.5263 39.3054 34.4871L39.0714 34.4125C38.8803 34.3512 38.7005 34.2922 38.5311 34.2338L38.5316 34.1738C38.539 32.8061 38.3999 30.6718 36.9833 28.4481C36.7566 28.0922 36.5427 27.7741 36.3598 27.5042L36.2451 27.3352C36.109 27.1348 36.0022 26.9775 35.8995 26.8205C35.6473 26.4354 35.5784 26.2871 35.5517 26.2187L35.5505 26.2156C35.5401 26.1891 35.5188 26.1351 35.513 25.9704C35.5059 25.7681 35.5231 25.3852 35.6543 24.7155L36.3362 21.9906L36.3387 21.9766C36.3837 21.7265 36.4241 21.5016 36.4461 21.1356C36.4664 20.7985 36.4706 20.3088 36.385 19.7408C36.2228 18.6648 35.6007 16.6253 33.4082 15.4429C32.8724 15.154 32.2306 14.9811 31.5979 14.8983C31.1726 14.8427 30.604 14.8047 29.9437 14.8557C28.5966 14.9597 26.8289 15.4447 25.2553 16.8875L24.8634 17.2997C23.9487 18.4044 22.9826 19.7723 22.2497 20.9829C20.0245 19.9355 17.4052 18.733 15.5751 18.0864C13.5665 17.3769 11.3247 16.7831 9.21803 16.8595C6.88494 16.9441 4.26175 17.9222 2.88844 20.6906C2.32428 21.8279 2.08356 23.1561 2.37327 24.5403C2.65011 25.8631 3.33481 26.8748 3.98873 27.5807C5.20287 28.8914 6.82919 29.7033 7.97538 30.1954C8.85298 30.5722 9.75469 30.8857 10.553 31.1395C10.4687 31.2921 10.3842 31.4501 10.3028 31.6103C10.0614 32.085 9.7726 32.7201 9.58247 33.4466C9.39287 34.1711 9.24339 35.2035 9.51365 36.368C9.79106 37.5632 10.34 38.4967 10.9939 39.2106C10.9691 39.5819 10.9598 39.9731 10.9736 40.3779C11.0656 43.0818 12.7167 44.8845 14.1689 45.9067C15.5526 46.8806 17.1821 47.4783 18.4996 47.8802C19.7718 48.2683 21.1152 48.5762 22.2067 48.8265L22.4403 48.88C23.6036 49.1473 24.7533 49.4564 25.9035 49.7657C27.208 50.1165 28.5131 50.4674 29.8391 50.7575C30.2728 50.8524 30.6942 50.9432 31.0819 51.0259L31.2231 51.3939C32.9433 55.7897 35.2401 58.5722 38.3081 56.6116ZM22.5906 38.6202C22.3551 38.5246 22.22 38.4612 22.1001 38.4007C21.0582 37.8585 19.7765 38.2672 19.2346 39.3157C18.6915 40.3662 19.098 41.6619 20.1409 42.2088C20.2264 42.2535 20.3131 42.2955 20.4003 42.3366C20.5464 42.4055 20.7499 42.4973 20.9977 42.5979C21.4864 42.7965 22.1812 43.0437 22.9688 43.212C24.3667 43.5107 26.9506 43.7384 28.7024 41.716C29.5434 40.7451 29.9477 39.4694 30.1013 38.2766C30.2595 37.0476 30.1806 35.6995 29.8718 34.3874C29.2636 31.8026 27.6535 28.9743 24.647 27.6329C22.0709 26.4835 19.5252 26.2133 17.3783 26.4557C15.945 26.6176 14.5756 27.0239 13.4756 27.6431V27.5954C10.7855 26.8216 5.43209 25.2818 6.75042 22.6242C7.74981 20.6096 10.4879 20.7761 14.2017 22.0881C15.7101 22.621 17.8062 23.5706 19.7834 24.4966C20.3963 24.7836 20.9978 25.0684 21.5668 25.3378C22.3961 25.7305 23.7826 26.3772 23.7826 26.3772C25.3595 24.471 25.9718 23.4209 26.5122 22.4941C26.8839 21.8566 27.2216 21.2775 27.8158 20.5182C28.6568 19.4434 30.0162 18.7792 31.4107 19.1681C32.3826 19.6922 32.1357 21.0159 32.1357 21.0159L31.4602 23.7151C30.8154 26.8915 31.5291 27.9426 32.7055 29.675C32.9121 29.9793 33.1331 30.3048 33.3634 30.6663C34.3016 32.139 34.2583 33.5552 34.2229 34.711C34.2001 35.4544 34.1807 36.0901 34.4278 36.5639C34.9368 37.5397 36.8416 38.1448 38.0904 38.5415C38.3905 38.6368 38.6527 38.7201 38.8486 38.7936L38.9824 38.8467C38.8064 39.3965 38.6465 39.9656 38.4867 40.5342C37.7763 43.0628 37.0691 45.5801 34.9604 46.3344C32.2991 47.2863 29.6377 46.3856 29.6377 46.3856C29.158 46.2444 28.6695 46.1351 28.181 46.0257C27.5721 45.8894 26.963 45.7531 26.3702 45.555C25.5441 45.246 24.3869 44.9805 23.1293 44.692C20.1348 44.0049 16.5708 43.1872 15.5502 41.3416C15.3783 41.0306 15.2785 40.6906 15.2658 40.317C15.2081 38.6196 15.7985 37.0999 15.7985 37.0999C15.7985 37.0999 14.8829 37.1038 14.2408 36.4816C14.0014 36.2496 13.8001 35.9307 13.6983 35.4922C13.495 34.6163 13.6696 33.3466 14.7341 32.2743L15.2676 31.7384C15.5371 31.4669 16.336 30.8894 17.8528 30.7181C19.2926 30.5555 21.075 30.7302 22.9224 31.5544C24.3394 32.1867 25.3192 33.6372 25.7284 35.3765C25.9284 36.2265 25.9651 37.0517 25.8784 37.725C25.7871 38.4344 25.586 38.7897 25.4938 38.8962C25.3792 39.0285 24.9756 39.2562 23.8525 39.0162C23.3797 38.9152 22.9306 38.7584 22.5906 38.6202Z" fill="#34322D"/>
<path d="M191.202 40.9308H189.924V33.4233H191.656C192.124 35.4033 192.797 36.847 193.677 37.7545C194.557 38.662 195.699 39.1158 197.101 39.1158C198.119 39.1158 198.902 38.9095 199.452 38.497C200.03 38.057 200.319 37.4658 200.319 36.7233C200.319 35.9533 199.975 35.2108 199.287 34.4958C198.6 33.7533 197.486 32.9695 195.946 32.1445C193.856 31.017 192.357 29.9033 191.45 28.8033C190.542 27.6758 190.089 26.4108 190.089 25.0083C190.089 24.1008 190.254 23.262 190.584 22.492C190.941 21.6945 191.409 21.007 191.986 20.4295C192.591 19.852 193.306 19.412 194.131 19.1095C194.956 18.7795 195.85 18.6145 196.812 18.6145C197.665 18.6145 198.504 18.7383 199.329 18.9858C200.181 19.2333 200.924 19.577 201.556 20.017L202.299 19.027H203.371V25.2558H201.762C201.13 23.6883 200.47 22.5608 199.782 21.8733C199.122 21.1858 198.311 20.842 197.349 20.842C196.579 20.842 195.96 21.0483 195.492 21.4608C195.052 21.8733 194.832 22.4233 194.832 23.1108C194.832 23.8808 195.162 24.6095 195.822 25.297C196.51 25.9845 197.637 26.7408 199.205 27.5658C200.305 28.1708 201.254 28.762 202.051 29.3395C202.849 29.917 203.495 30.5083 203.99 31.1133C204.485 31.6908 204.842 32.3095 205.062 32.9695C205.31 33.602 205.434 34.2895 205.434 35.032C205.434 35.9945 205.255 36.8608 204.897 37.6308C204.54 38.4008 204.031 39.0608 203.371 39.6108C202.711 40.1608 201.914 40.587 200.979 40.8895C200.071 41.192 199.054 41.3433 197.926 41.3433C196.744 41.3433 195.644 41.192 194.626 40.8895C193.609 40.5595 192.77 40.092 192.11 39.487L191.202 40.9308Z" fill="#34322D"/>
<path d="M178.044 25.8333C178.044 24.7333 178.017 23.867 177.962 23.2345C177.907 22.5745 177.756 22.0795 177.508 21.7495C177.261 21.392 176.889 21.1583 176.394 21.0483C175.927 20.9108 175.281 20.8008 174.456 20.7183V19.0683H183.778V31.567C183.778 33.2445 183.792 34.5645 183.819 35.527C183.874 36.462 183.957 37.1633 184.067 37.6308C184.149 37.9883 184.246 38.277 184.356 38.497C184.466 38.6895 184.644 38.8545 184.892 38.992C185.139 39.102 185.469 39.1845 185.882 39.2395C186.322 39.267 186.886 39.2808 187.573 39.2808V40.8895L179.364 41.3845L178.911 37.7133H178.746C178.031 38.8683 177.027 39.762 175.734 40.3945C174.442 41.027 172.998 41.3433 171.403 41.3433C168.461 41.3433 166.219 40.2983 164.679 38.2083C163.497 36.6133 162.906 34.3445 162.906 31.402V25.8333C162.906 24.7058 162.878 23.8258 162.823 23.1933C162.768 22.5333 162.617 22.0383 162.369 21.7083C162.149 21.3783 161.806 21.1583 161.338 21.0483C160.871 20.9108 160.224 20.8008 159.399 20.7183V19.0683H168.639V30.742C168.639 33.5195 168.983 35.5408 169.671 36.8058C170.358 38.0433 171.458 38.662 172.971 38.662C174.593 38.662 175.844 37.9195 176.724 36.4345C177.604 35.0045 178.044 32.9008 178.044 30.1233V25.8333Z" fill="#34322D"/>
<path d="M139.906 34.207C139.906 35.3345 139.934 36.2283 139.989 36.8883C140.071 37.5208 140.222 38.0158 140.442 38.3733C140.69 38.7033 141.047 38.9233 141.515 39.0333C142.01 39.1432 142.67 39.2258 143.495 39.2808V40.9308H130.501V39.2808C131.299 39.2258 131.931 39.1432 132.399 39.0333C132.894 38.9233 133.265 38.7033 133.512 38.3733C133.787 38.0433 133.966 37.5758 134.049 36.9708C134.131 36.3658 134.172 35.5408 134.172 34.4958V29.3395C134.172 27.717 134.145 26.4108 134.09 25.4208C134.035 24.4033 133.966 23.7158 133.884 23.3583C133.801 23.0008 133.691 22.712 133.554 22.492C133.416 22.2445 133.21 22.0658 132.935 21.9558C132.66 21.8183 132.316 21.7358 131.904 21.7083C131.491 21.6533 130.969 21.6258 130.336 21.6258V20.2233L138.297 18.6558L138.834 22.2858H138.999C139.906 21.1308 140.979 20.237 142.216 19.6045C143.454 18.972 144.815 18.6558 146.3 18.6558C148.06 18.6558 149.476 18.9033 150.549 19.3983C151.649 19.8658 152.625 20.6633 153.477 21.7908C153.945 22.4233 154.357 23.2483 154.715 24.2658C155.072 25.2558 155.251 26.6308 155.251 28.3908V34.207C155.251 35.3345 155.279 36.2283 155.334 36.8883C155.416 37.5208 155.567 38.0158 155.787 38.3733C156.035 38.7033 156.392 38.9233 156.86 39.0333C157.327 39.1432 157.96 39.2258 158.757 39.2808V40.9308H145.846V39.2808C146.671 39.2533 147.317 39.1845 147.785 39.0745C148.28 38.937 148.651 38.7033 148.899 38.3733C149.146 38.0433 149.311 37.5758 149.394 36.9708C149.476 36.3383 149.517 35.5133 149.517 34.4958V28.8858C149.517 27.4833 149.435 26.3008 149.27 25.3383C149.105 24.3758 148.83 23.6058 148.445 23.0283C148.087 22.4233 147.606 21.997 147.001 21.7495C146.396 21.4745 145.64 21.337 144.732 21.337C143.852 21.337 143.096 21.5845 142.464 22.0795C141.831 22.5745 141.281 23.262 140.814 24.142C140.566 24.637 140.346 25.2833 140.154 26.0808C139.989 26.8508 139.906 27.662 139.906 28.5145V34.207Z" fill="#34322D"/>
<path d="M120.221 29.1745C117.911 30.2195 116.165 31.1958 114.982 32.1033C113.827 32.9833 113.25 33.9045 113.25 34.867C113.25 35.6645 113.47 36.297 113.91 36.7645C114.35 37.232 114.9 37.4658 115.56 37.4658C116.22 37.4658 116.838 37.3558 117.416 37.1358C117.993 36.8883 118.488 36.572 118.901 36.187C119.313 35.802 119.63 35.3483 119.85 34.8258C120.097 34.2758 120.221 33.6983 120.221 33.0933V29.1745ZM120.221 26.9883V25.2558C120.221 23.6608 119.932 22.5058 119.355 21.7908C118.805 21.0483 117.938 20.677 116.756 20.677C115.958 20.677 115.353 20.897 114.941 21.337C114.528 21.7495 114.143 22.4508 113.786 23.4408C113.538 24.1283 113.181 24.6645 112.713 25.0495C112.273 25.4345 111.655 25.627 110.857 25.627C110.087 25.627 109.496 25.3933 109.083 24.9258C108.671 24.4583 108.465 23.7983 108.465 22.9458C108.465 21.6258 109.18 20.5808 110.61 19.8108C112.067 19.0408 114.253 18.6558 117.168 18.6558C120.248 18.6558 122.448 19.2195 123.768 20.347C125.088 21.447 125.748 23.3033 125.748 25.9158V34.9495C125.748 37.287 126.216 38.4558 127.151 38.4558C127.673 38.4558 128.155 38.277 128.595 37.9195L129.213 39.1158C128.828 39.8033 128.223 40.3533 127.398 40.7658C126.601 41.1508 125.693 41.3433 124.676 41.3433C123.411 41.3433 122.448 40.9583 121.788 40.1883C121.128 39.4183 120.798 38.332 120.798 36.9295H120.592C119.795 38.3595 118.763 39.4458 117.498 40.1883C116.233 40.9308 114.79 41.302 113.167 41.302C111.435 41.302 110.046 40.8208 109.001 39.8583C107.956 38.8683 107.433 37.5895 107.433 36.022C107.433 34.812 107.97 33.6845 109.042 32.6395C110.115 31.567 111.902 30.522 114.405 29.5045L120.221 26.9883Z" fill="#34322D"/>
<path d="M71.445 34.1245C71.445 35.2795 71.4725 36.187 71.5275 36.847C71.5825 37.507 71.7338 38.0158 71.9813 38.3733C72.2288 38.7033 72.5862 38.9233 73.0538 39.0333C73.5212 39.1432 74.1675 39.2258 74.9925 39.2808V40.9308H61.9575V39.2808C62.7825 39.2258 63.4425 39.1432 63.9375 39.0333C64.4325 38.9233 64.8038 38.7033 65.0513 38.3733C65.2988 38.0433 65.4637 37.5758 65.5462 36.9708C65.6287 36.3383 65.67 35.4995 65.67 34.4545V29.3395C65.67 27.772 65.6425 26.4657 65.5875 25.4208C65.56 24.3758 65.4912 23.6608 65.3812 23.2758C65.2987 22.9183 65.1888 22.6433 65.0513 22.4508C64.9413 22.2308 64.7487 22.0658 64.4737 21.9558C64.2262 21.8183 63.8963 21.7358 63.4837 21.7083C63.0712 21.6533 62.535 21.6258 61.875 21.6258V20.2233L69.8362 18.6558L70.3313 22.2445H70.5787C71.7338 20.952 72.8888 20.0308 74.0437 19.4808C75.2262 18.9308 76.5875 18.6558 78.1275 18.6558C79.9425 18.6558 81.4412 18.972 82.6237 19.6045C83.8062 20.237 84.7 21.1445 85.305 22.327H85.47C86.46 21.172 87.6425 20.2783 89.0175 19.6458C90.3925 18.9858 91.8637 18.6558 93.4312 18.6558C95.0812 18.6558 96.5112 18.862 97.7212 19.2745C98.9587 19.687 99.9212 20.2783 100.609 21.0483C101.159 21.6808 101.557 22.5058 101.805 23.5233C102.08 24.5408 102.217 25.957 102.217 27.772V34.1245C102.217 35.252 102.245 36.1458 102.3 36.8058C102.382 37.4658 102.547 37.9745 102.795 38.332C103.042 38.6895 103.4 38.9233 103.867 39.0333C104.335 39.1432 104.981 39.2258 105.806 39.2808V40.9308H92.7712V39.2808C93.5963 39.2533 94.2425 39.1845 94.71 39.0745C95.205 38.937 95.5762 38.7033 95.8237 38.3733C96.0987 38.0158 96.2637 37.5345 96.3187 36.9295C96.4012 36.3245 96.4425 35.4995 96.4425 34.4545V29.0508C96.4425 27.6208 96.36 26.4108 96.195 25.4208C96.03 24.4308 95.7687 23.6333 95.4112 23.0283C95.0537 22.4233 94.5725 21.997 93.9675 21.7495C93.39 21.4745 92.675 21.337 91.8225 21.337C90.86 21.337 90.0625 21.5708 89.43 22.0383C88.825 22.5058 88.3162 23.1108 87.9037 23.8533C87.1887 25.1458 86.8313 26.7545 86.8313 28.6795V34.1245C86.8313 35.252 86.8587 36.1458 86.9137 36.8058C86.9688 37.4658 87.12 37.9745 87.3675 38.332C87.615 38.6895 87.9725 38.9233 88.44 39.0333C88.935 39.1432 89.6087 39.2258 90.4612 39.2808V40.9308H77.385V39.2808C78.21 39.2258 78.8562 39.1432 79.3237 39.0333C79.8187 38.9233 80.19 38.7033 80.4375 38.3733C80.7125 38.0433 80.8775 37.5758 80.9325 36.9708C81.015 36.3383 81.0563 35.4995 81.0563 34.4545V29.0508C81.0563 27.6208 80.9737 26.4108 80.8087 25.4208C80.6437 24.4308 80.3688 23.6333 79.9838 23.0283C79.6262 22.4233 79.145 21.997 78.54 21.7495C77.935 21.4745 77.1788 21.337 76.2713 21.337C75.3638 21.337 74.6075 21.557 74.0025 21.997C73.425 22.437 72.9438 23.0283 72.5588 23.7708C72.2013 24.4308 71.9263 25.187 71.7338 26.0395C71.5412 26.892 71.445 27.772 71.445 28.6795V34.1245Z" fill="#34322D"/>
</g>
<defs>
<clipPath id="clip0_9205_89410">
<rect width="206.25" height="60" fill="white"/>
</clipPath>
</defs>
</svg>
