<svg xmlns="http://www.w3.org/2000/svg" width="256" height="256" fill="none" viewBox="0 0 256 256">
  <path fill="#202027" d="M0 0h256v256H0z"/>
  <path fill="#fff" d="M116.032 94.016q1.408.256 6.272 9.856 4.856 9.472 11.904 24.576l4.096 8.576a42.4 42.4 0 0 0 4.992-6.784q2.304-3.96 5.76-10.624 3.96-7.56 5.504-9.728 6.144-9.344 13.312-19.84.896-1.408 3.2-1.92a4.8 4.8 0 0 1 1.28-.128q3.072 0 6.784 2.56 3.84 2.56 4.992 5.248a4.8 4.8 0 0 1 .256 1.92q0 1.28-.128 1.92l-.64 2.944q-.256 1.664-.512 3.968a3200 3200 0 0 0-5.888 46.848 56 56 0 0 0-.512 8.064l-.256 4.096a32 32 0 0 0-.128 2.944q0 1.672-.384 2.304-.384.64-1.408.64-.768 0-2.304-.384-4.096-.896-6.272-3.2-2.176-2.432-2.432-6.656-.128-2.176-.128-6.784 0-4.736.256-14.464l.128-7.04.256-10.112q-1.152 1.024-5.888 8.064a328 328 0 0 0-9.088 14.464q-4.48 7.56-5.888 11.648-1.28 3.2-2.56 4.736-1.152 1.536-2.816 1.536-1.536 0-3.968-1.408-6.912-4.224-8.448-11.648a336 336 0 0 0-6.016-23.68 40 40 0 0 0-2.56-6.272q-1.792-3.968-2.304-4.992l-1.664-3.328q-18.68 24.832-25.344 45.568-1.28 4.352-2.432 6.272-1.152 1.792-2.688 1.792-2.432 0-6.912-4.352Q72 158.144 72 154.304q0-2.04.768-4.096a108 108 0 0 1 16-30.08l3.968-5.248a432 432 0 0 0 12.16-16.64q3.072-4.48 8.192-4.48.896 0 2.944.256"/>
</svg>