<svg xmlns="http://www.w3.org/2000/svg" width="256" height="274" preserveAspectRatio="xMidYMid"><path fill="#3088D4" d="M249.874 164.085c-3.753 19.307-33.613 40.438-67.908 44.533-17.883 2.134-35.49 4.095-54.266 3.234-30.705-1.407-54.933-7.33-54.933-7.33 0 2.99.184 5.836.553 8.498 3.992 30.302 30.047 32.118 54.728 32.964 24.912.852 47.094-6.142 47.094-6.142l1.023 22.521s-17.425 9.357-48.465 11.078c-17.116.94-38.369-.43-63.122-6.983-53.686-14.21-62.92-71.436-64.332-129.502-.43-17.24-.165-33.497-.165-47.094 0-59.375 38.903-76.779 38.903-76.779C58.6 4.074 92.259.286 127.25 0h.86c34.991.286 68.673 4.074 88.287 13.083 0 0 38.901 17.404 38.901 76.78 0 0 .488 43.807-5.425 74.222"/><path fill="#FFF" d="M209.413 94.469v71.894H180.93V96.582c0-14.71-6.19-22.176-18.57-22.176-13.687 0-20.547 8.857-20.547 26.37v38.195h-28.315v-38.195c0-17.513-6.862-26.37-20.55-26.37-12.379 0-18.568 7.466-18.568 22.176v69.78H45.897V94.47c0-14.694 3.741-26.37 11.256-35.009 7.75-8.638 17.898-13.066 30.496-13.066 14.575 0 25.613 5.602 32.911 16.808l7.095 11.893 7.096-11.893c7.296-11.206 18.334-16.808 32.911-16.808 12.597 0 22.745 4.428 30.496 13.066 7.513 8.639 11.255 20.315 11.255 35.009"/></svg>