<svg xmlns="http://www.w3.org/2000/svg" width="50" height="50" fill="#FFF" viewBox="0 0 50 50"><path d="M5 5a1 1 0 0 0-1 1v38a1 1 0 0 0 1 1h3a1 1 0 1 0 0-2H6V7h2a1 1 0 1 0 0-2H5zm37 0a1 1 0 1 0 0 2h2v36h-2a1 1 0 1 0 0 2h3a1 1 0 0 0 1-1V6a1 1 0 0 0-1-1h-3zM31.074 17.51c-1.098-.022-2.206.25-3.095.863-.571.394-1.063.9-1.63 1.385-.86-1.718-2.42-2.177-4.197-2.207-1.8-.031-3.231.79-4.482 2.29V18H14v14h3.664s-.006-5.234.004-7.834c.002-.462.021-.934.115-1.385.29-1.389 1.755-2.247 3.174-2.133 1.352.11 2.143.848 2.209 2.45.011.279 0 8.902 0 8.902h3.666v-7.771c.006-.6.07-1.212.215-1.791.326-1.3 1.544-1.94 2.973-1.782 1.26.14 2.219.819 2.312 2.194V32H36V22c0-1-.254-1.51-.557-2.12-.732-1.475-2.538-2.333-4.369-2.37z"/></svg>