<svg xmlns="http://www.w3.org/2000/svg" width="233.55" height="247.89"><path d="M432.88 388.06v.12c-4.29 2.32-8.39 5-12.59 7.49-8.18 4.89-16.32 9.83-24.49 14.73-.82.29-.52 1.24-.58 1.89v172.7c6.89-4 13.68-8.23 20.53-12.31v51.07a12.65 12.65 0 0 0 10.41 12c3 .43 6.11.11 9.16.21h193.42V426.85h-17.17v-26.66c-.13-6.12-5.37-11.73-11.52-12-55.72-.19-111.45-.01-167.17-.13Z" style="fill:#fff" transform="translate(-395.22 -388.06)"/><path d="M472.47 427h30.31q9.74 38.72 19.42 77.47c2.23-7.73 4.14-15.56 6.25-23.33q7.14-27.06 14.3-54.13H572v96.56c-7.62.06-15.24 0-22.86 0q-.05-30.41 0-60.82c0-.25-.1-.75-.13-1-5.39 20.62-10.62 41.25-16.01 61.87h-22.68q-6.69-25.22-13.32-50.46c-1.31-4.63-2.33-9.35-3.8-13.93-.12 21.46 0 42.93-.07 64.39h-20.64q.04-48.32-.02-96.62ZM475.72 616.05c3.53-12.19 7-24.4 10.47-36.59h12.18q5.54 18.31 11.05 36.62h-9.33c-.76-2.67-1.48-5.35-2.27-8h-10.9c-.77 2.65-1.38 5.35-2.08 8q-4.56.01-9.12-.03Zm16.57-30.54c-1.32 5.23-2.48 10.5-3.75 15.74h7.48c-1.13-5.25-2.55-10.46-3.73-15.73ZM506 579.45h9.62c2.24 5.13 4.45 10.27 6.69 15.4 2.26-5.11 4.41-10.27 6.65-15.39h9.27c-3.71 7.05-7.37 14.14-11.09 21.19a2.5 2.5 0 0 0-.42 1.38v14h-9.14v-14a4.5 4.5 0 0 0-.75-1.94q-5.45-10.31-10.83-20.64ZM535.05 616c3.53-12.19 7-24.4 10.49-36.6h12.2c3.62 12.22 7.37 24.4 11 36.62h-9.32c-.72-2.68-1.48-5.35-2.25-8h-11c-.61 2.67-1.36 5.31-2 8-3.04.06-6.08.07-9.12-.02Zm12.8-14.8h7.52c-1.18-5.24-2.55-10.45-3.74-15.7-1.38 5.27-2.45 10.5-3.78 15.75Z" style="fill:#fff" transform="translate(-395.22 -388.06)"/><path d="M432.88 388.06c55.72.13 111.45 0 167.17.06 6.16.27 11.39 5.87 11.52 12v162.13q-89.31.12-178.61 0c-.13-58 0-116.07-.09-174.11Zm39.59 39v96.57c6.88.05 13.76 0 20.64 0 .1-21.46 0-42.93.07-64.39 1.46 4.58 2.49 9.3 3.8 13.93q6.65 25.24 13.32 50.46h22.68c5.43-20.6 10.66-41.25 16.11-61.84 0 .25.1.75.13 1v60.82h22.86v-96.56h-29.32q-7.17 27.06-14.3 54.13c-2.11 7.77-4 15.6-6.25 23.33q-9.64-38.75-19.42-77.47c-10.11-.04-20.21-.04-30.32-.04Z" style="fill:#39a5cc" transform="translate(-395.22 -388.06)"/><path d="M420.3 395.67c4.2-2.48 8.3-5.17 12.59-7.49.13 58 0 116.07.09 174.11l-17.21 10.4c-6.86 4.08-13.64 8.29-20.53 12.31V412.3c.06-.65-.24-1.61.58-1.89 8.18-4.92 16.3-9.86 24.48-14.74Z" style="fill:#7fc5de" transform="translate(-395.22 -388.06)"/><path d="M611.6 426.78h17.17v209.11q-96.71.11-193.42 0c-3.05-.1-6.13.22-9.16-.21a12.65 12.65 0 0 1-10.41-12v-51.07L433 562.28h178.61q.04-67.77-.01-135.5ZM475.72 616.05h9.13c.7-2.68 1.31-5.37 2.08-8h10.9c.78 2.66 1.51 5.35 2.27 8h9.33q-5.55-18.3-11.05-36.62H486.2c-3.5 12.23-6.96 24.43-10.48 36.62Zm30.28-36.6q5.4 10.33 10.82 20.64a4.5 4.5 0 0 1 .75 1.94v14h9.14v-14a2.5 2.5 0 0 1 .42-1.38c3.72-7.05 7.38-14.14 11.09-21.19h-9.27c-2.24 5.12-4.39 10.28-6.65 15.39-2.23-5.13-4.44-10.27-6.69-15.4-3.2-.02-6.41 0-9.61 0ZM535.05 616h9.12c.64-2.67 1.39-5.3 2-8 3.66-.08 7.32 0 11 0 .77 2.67 1.53 5.33 2.25 8h9.32c-3.62-12.22-7.38-24.4-11-36.62h-12.2c-3.54 12.26-6.96 24.48-10.49 36.62Z" style="fill:#36687f" transform="translate(-395.22 -388.06)"/><path d="M492.29 585.52c1.18 5.27 2.6 10.48 3.73 15.76h-7.48c1.27-5.28 2.46-10.54 3.75-15.76ZM547.85 601.25c1.33-5.21 2.4-10.48 3.78-15.67 1.19 5.24 2.56 10.45 3.74 15.7-2.5-.05-5.01-.01-7.52-.03Z" style="fill:#36687f" transform="translate(-395.22 -388.06)"/></svg>