<svg xmlns="http://www.w3.org/2000/svg" xmlns:xlink="http://www.w3.org/1999/xlink" id="svg62" version="1.1" viewBox="0 0 50 50"><defs id="defs11"><linearGradient id="gradient" x1="0" x2="100" y1="100" y2="0" gradientUnits="userSpaceOnUse"><stop id="stop2" offset="0%" stop-color="#0a00b2"/><stop id="stop4" offset="50%" stop-color="red"/><stop id="stop6" offset="100%" stop-color="#fffc00"/></linearGradient><linearGradient xlink:href="#gradient" id="linearGradient873" x1="0" x2="100" y1="100" y2="0" gradientUnits="userSpaceOnUse"/><linearGradient xlink:href="#gradient" id="linearGradient875" x1="0" x2="100" y1="100" y2="0" gradientUnits="userSpaceOnUse"/><linearGradient xlink:href="#gradient" id="linearGradient877" x1="0" x2="100" y1="100" y2="0" gradientUnits="userSpaceOnUse"/><linearGradient xlink:href="#gradient" id="linearGradient879" x1="0" x2="100" y1="100" y2="0" gradientUnits="userSpaceOnUse"/><linearGradient xlink:href="#gradient" id="linearGradient881" x1="0" x2="100" y1="100" y2="0" gradientUnits="userSpaceOnUse"/><linearGradient xlink:href="#gradient" id="linearGradient883" x1="0" x2="100" y1="100" y2="0" gradientUnits="userSpaceOnUse"/><linearGradient xlink:href="#gradient" id="linearGradient885" x1="0" x2="100" y1="100" y2="0" gradientUnits="userSpaceOnUse"/><linearGradient xlink:href="#gradient" id="linearGradient887" x1="0" x2="100" y1="100" y2="0" gradientUnits="userSpaceOnUse"/><linearGradient xlink:href="#gradient" id="linearGradient889" x1="0" x2="100" y1="100" y2="0" gradientUnits="userSpaceOnUse"/><linearGradient xlink:href="#gradient" id="linearGradient891" x1="0" x2="100" y1="100" y2="0" gradientUnits="userSpaceOnUse"/><linearGradient xlink:href="#gradient" id="linearGradient893" x1="0" x2="100" y1="100" y2="0" gradientUnits="userSpaceOnUse"/><linearGradient xlink:href="#gradient" id="linearGradient895" x1="0" x2="100" y1="100" y2="0" gradientUnits="userSpaceOnUse"/><linearGradient xlink:href="#gradient" id="linearGradient897" x1="0" x2="100" y1="100" y2="0" gradientUnits="userSpaceOnUse"/><linearGradient xlink:href="#gradient" id="linearGradient899" x1="0" x2="100" y1="100" y2="0" gradientUnits="userSpaceOnUse"/><linearGradient xlink:href="#gradient" id="linearGradient901" x1="0" x2="100" y1="100" y2="0" gradientUnits="userSpaceOnUse"/><linearGradient xlink:href="#gradient" id="linearGradient903" x1="0" x2="100" y1="100" y2="0" gradientUnits="userSpaceOnUse"/><linearGradient xlink:href="#gradient" id="linearGradient905" x1="0" x2="100" y1="100" y2="0" gradientUnits="userSpaceOnUse"/><linearGradient xlink:href="#gradient" id="linearGradient907" x1="0" x2="100" y1="100" y2="0" gradientUnits="userSpaceOnUse"/><linearGradient xlink:href="#gradient" id="linearGradient909" x1="0" x2="100" y1="100" y2="0" gradientUnits="userSpaceOnUse"/><linearGradient xlink:href="#gradient" id="linearGradient911" x1="0" x2="100" y1="100" y2="0" gradientUnits="userSpaceOnUse"/><linearGradient xlink:href="#gradient" id="linearGradient913" x1="0" x2="100" y1="100" y2="0" gradientUnits="userSpaceOnUse"/><linearGradient xlink:href="#gradient" id="linearGradient915" x1="0" x2="100" y1="100" y2="0" gradientUnits="userSpaceOnUse"/><linearGradient xlink:href="#gradient" id="linearGradient917" x1="0" x2="100" y1="100" y2="0" gradientUnits="userSpaceOnUse"/><linearGradient xlink:href="#gradient" id="linearGradient919" x1="0" x2="100" y1="100" y2="0" gradientUnits="userSpaceOnUse"/><linearGradient xlink:href="#gradient" id="linearGradient921" x1="0" x2="100" y1="100" y2="0" gradientUnits="userSpaceOnUse"/><style id="style9">.petal{opacity:.65}</style></defs><g id="petals" fill="url(#linearGradient921)" transform="matrix(.5 0 0 .5 0 .026)"><path id="path13" fill="url(#linearGradient873)" d="M33.6 14.8a16.938 16.938 0 0 0 3.116 11.142 11.457 11.457 0 0 0 6.858 4.3 3.033 3.033 0 0 0 2.385-.713 11.924 11.924 0 0 0 3.634-10.837c-1.257-7.54-6.19-12.43-12.4-17A32.468 32.468 0 0 0 33.6 14.8z" class="petal" opacity=".65"/><path id="path15" fill="url(#linearGradient875)" d="M25.117 20.232a16.938 16.938 0 0 0 5.893 9.956 11.457 11.457 0 0 0 7.738 2.381 3.033 3.033 0 0 0 2.119-1.306 11.924 11.924 0 0 0 .705-11.409C38.406 12.9 32.376 9.449 25.2 6.642a32.468 32.468 0 0 0-.083 13.59z" class="petal" opacity=".65"/><path id="path17" fill="url(#linearGradient877)" d="M18.329 27.677a16.937 16.937 0 0 0 8.271 8.092 11.457 11.457 0 0 0 8.09.3 3.033 3.033 0 0 0 1.709-1.81 11.924 11.924 0 0 0-2.271-11.2c-4.859-5.9-11.576-7.67-19.237-8.523a32.466 32.466 0 0 0 3.438 13.141z" class="petal" opacity=".65"/><path id="path19" fill="url(#linearGradient879)" d="M13.7 36.626A16.938 16.938 0 0 0 23.781 42.3a11.457 11.457 0 0 0 7.891-1.807 3.033 3.033 0 0 0 1.182-2.193 11.924 11.924 0 0 0-5.093-10.233c-6.221-4.443-13.167-4.412-20.787-3.254A32.468 32.468 0 0 0 13.7 36.626z" class="petal" opacity=".65"/><path id="path21" fill="url(#linearGradient881)" d="M11.543 46.468a16.938 16.938 0 0 0 11.208 2.873 11.457 11.457 0 0 0 7.155-3.788 3.034 3.034 0 0 0 .575-2.422 11.924 11.924 0 0 0-7.568-8.566c-7.16-2.681-13.861-.854-20.923 2.235a32.468 32.468 0 0 0 9.553 9.668z" class="petal" opacity=".65"/><path id="path23" fill="url(#linearGradient883)" d="M12.008 56.532a16.938 16.938 0 0 0 11.569-.126 11.457 11.457 0 0 0 5.931-5.51 3.033 3.033 0 0 0-.072-2.488 11.924 11.924 0 0 0-9.527-6.315C12.3 41.356 6.3 44.855.279 49.669a32.467 32.467 0 0 0 11.729 6.863z" class="petal" opacity=".65"/><path id="path25" fill="url(#linearGradient885)" d="M15.062 66.134A16.938 16.938 0 0 0 26.2 63.018a11.457 11.457 0 0 0 4.3-6.858 3.033 3.033 0 0 0-.713-2.385 11.924 11.924 0 0 0-10.837-3.634c-7.54 1.257-12.43 6.19-17 12.4a32.468 32.468 0 0 0 13.112 3.593z" class="petal" opacity=".65"/><path id="path27" fill="url(#linearGradient887)" d="M20.5 74.618a16.938 16.938 0 0 0 9.956-5.893 11.457 11.457 0 0 0 2.381-7.738 3.033 3.033 0 0 0-1.306-2.119 11.925 11.925 0 0 0-11.409-.705c-6.958 3.166-10.4 9.2-13.212 16.376a32.466 32.466 0 0 0 13.59.079z" class="petal" opacity=".65"/><path id="path29" fill="url(#linearGradient889)" d="M27.943 81.406a16.938 16.938 0 0 0 8.092-8.269 11.457 11.457 0 0 0 .3-8.09 3.033 3.033 0 0 0-1.81-1.709 11.924 11.924 0 0 0-11.2 2.271c-5.9 4.859-7.67 11.576-8.523 19.237a32.467 32.467 0 0 0 13.141-3.44z" class="petal" opacity=".65"/><path id="path31" fill="url(#linearGradient891)" d="M36.891 86.035a16.938 16.938 0 0 0 5.676-10.082 11.457 11.457 0 0 0-1.807-7.891 3.033 3.033 0 0 0-2.191-1.182 11.924 11.924 0 0 0-10.233 5.094c-4.443 6.221-4.412 13.167-3.254 20.787a32.467 32.467 0 0 0 11.809-6.726z" class="petal" opacity=".65"/><path id="path33" fill="url(#linearGradient893)" d="M46.733 88.191a16.937 16.937 0 0 0 2.873-11.207 11.457 11.457 0 0 0-3.788-7.155 3.033 3.033 0 0 0-2.422-.575 11.924 11.924 0 0 0-8.566 7.568c-2.681 7.159-.854 13.86 2.237 20.921a32.465 32.465 0 0 0 9.666-9.552z" class="petal" opacity=".65"/><path id="path35" fill="url(#linearGradient895)" d="M56.8 87.726a16.937 16.937 0 0 0-.125-11.569 11.457 11.457 0 0 0-5.511-5.931 3.033 3.033 0 0 0-2.488.072 11.924 11.924 0 0 0-6.315 9.528c-.737 7.609 2.762 13.609 7.576 19.629A32.466 32.466 0 0 0 56.8 87.726z" class="petal" opacity=".65"/><path id="path37" fill="url(#linearGradient897)" d="M66.4 84.672a16.938 16.938 0 0 0-3.116-11.142 11.457 11.457 0 0 0-6.858-4.3 3.033 3.033 0 0 0-2.385.713 11.924 11.924 0 0 0-3.634 10.837c1.257 7.54 6.19 12.43 12.4 17A32.468 32.468 0 0 0 66.4 84.672z" class="petal" opacity=".65"/><path id="path39" fill="url(#linearGradient899)" d="M74.883 79.237a16.937 16.937 0 0 0-5.893-9.956 11.456 11.456 0 0 0-7.738-2.381 3.033 3.033 0 0 0-2.119 1.306 11.924 11.924 0 0 0-.705 11.409c3.166 6.958 9.2 10.4 16.375 13.212a32.468 32.468 0 0 0 .08-13.59z" class="petal" opacity=".65"/><path id="path41" fill="url(#linearGradient901)" d="M81.671 71.792A16.938 16.938 0 0 0 73.4 63.7a11.457 11.457 0 0 0-8.09-.3 3.033 3.033 0 0 0-1.708 1.81 11.924 11.924 0 0 0 2.271 11.2c4.859 5.9 11.576 7.67 19.237 8.523a32.466 32.466 0 0 0-3.439-13.141z" class="petal" opacity=".65"/><path id="path43" fill="url(#linearGradient903)" d="M86.3 62.843a16.938 16.938 0 0 0-10.082-5.676 11.457 11.457 0 0 0-7.891 1.807 3.033 3.033 0 0 0-1.182 2.191A11.924 11.924 0 0 0 72.239 71.4c6.221 4.443 13.167 4.412 20.787 3.254A32.467 32.467 0 0 0 86.3 62.843z" class="petal" opacity=".65"/><path id="path45" fill="url(#linearGradient905)" d="M88.457 53a16.938 16.938 0 0 0-11.207-2.873 11.457 11.457 0 0 0-7.155 3.788 3.033 3.033 0 0 0-.574 2.422 11.925 11.925 0 0 0 7.567 8.563c7.158 2.681 13.86.854 20.921-2.237A32.467 32.467 0 0 0 88.457 53z" class="petal" opacity=".65"/><path id="path47" fill="url(#linearGradient907)" d="M87.992 42.936a16.938 16.938 0 0 0-11.569.126 11.457 11.457 0 0 0-5.931 5.511 3.033 3.033 0 0 0 .072 2.488 11.924 11.924 0 0 0 9.527 6.315c7.609.737 13.609-2.762 19.63-7.576a32.468 32.468 0 0 0-11.729-6.864z" class="petal" opacity=".65"/><path id="path49" fill="url(#linearGradient909)" d="M84.938 33.335A16.938 16.938 0 0 0 73.8 36.451a11.457 11.457 0 0 0-4.3 6.858 3.033 3.033 0 0 0 .714 2.385 11.924 11.924 0 0 0 10.837 3.634c7.54-1.257 12.43-6.19 17-12.4a32.466 32.466 0 0 0-13.113-3.593z" class="petal" opacity=".65"/><path id="path51" fill="url(#linearGradient911)" d="M79.5 24.851a16.938 16.938 0 0 0-9.956 5.893 11.457 11.457 0 0 0-2.381 7.738 3.033 3.033 0 0 0 1.309 2.118 11.924 11.924 0 0 0 11.409.705c6.958-3.166 10.4-9.2 13.212-16.375a32.468 32.468 0 0 0-13.593-.079z" class="petal" opacity=".65"/><path id="path53" fill="url(#linearGradient913)" d="M72.057 18.063a16.938 16.938 0 0 0-8.092 8.269 11.457 11.457 0 0 0-.3 8.09 3.033 3.033 0 0 0 1.81 1.709 11.924 11.924 0 0 0 11.2-2.271c5.9-4.859 7.67-11.576 8.523-19.237a32.467 32.467 0 0 0-13.141 3.44z" class="petal" opacity=".65"/><path id="path55" fill="url(#linearGradient915)" d="M63.109 13.434a16.937 16.937 0 0 0-5.676 10.082 11.457 11.457 0 0 0 1.807 7.891 3.033 3.033 0 0 0 2.191 1.182A11.924 11.924 0 0 0 71.664 27.5c4.443-6.221 4.412-13.167 3.254-20.787a32.466 32.466 0 0 0-11.809 6.721z" class="petal" opacity=".65"/><path id="path57" fill="url(#linearGradient917)" d="M53.267 11.278a16.937 16.937 0 0 0-2.873 11.207 11.456 11.456 0 0 0 3.788 7.155 3.033 3.033 0 0 0 2.422.575 11.924 11.924 0 0 0 8.566-7.568c2.681-7.159.854-13.86-2.237-20.921a32.466 32.466 0 0 0-9.666 9.552z" class="petal" opacity=".65"/><path id="path59" fill="url(#linearGradient919)" d="M43.2 11.743a16.938 16.938 0 0 0 .126 11.569 11.457 11.457 0 0 0 5.511 5.931 3.033 3.033 0 0 0 2.488-.072 11.924 11.924 0 0 0 6.315-9.528c.739-7.609-2.76-13.609-7.574-19.629A32.468 32.468 0 0 0 43.2 11.743z" class="petal" opacity=".65"/></g></svg>