<svg width="32" height="32" viewBox="0 0 32 32" fill="none" xmlns="http://www.w3.org/2000/svg">
<g clip-path="url(#clip0_2_45)">
<path d="M26.3333 0H5.66667C2.53705 0 0 2.53705 0 5.66667V25.5333C0 28.6629 2.53705 31.2 5.66667 31.2H26.3333C29.4629 31.2 32 28.6629 32 25.5333V5.66667C32 2.53705 29.4629 0 26.3333 0Z" fill="#00005B"/>
<path d="M4.51205 8.1198C4.51391 8.10047 4.51966 8.08172 4.52896 8.06467C4.53826 8.04762 4.55091 8.03262 4.56615 8.02059C4.58139 8.00855 4.59891 7.99973 4.61766 7.99464C4.6364 7.98956 4.65597 7.98832 4.67521 7.99099H8.42758C8.47688 7.98435 8.5269 7.99596 8.56822 8.02365C8.60954 8.05133 8.63931 8.09317 8.65191 8.14129C8.74684 8.51358 8.8624 8.96081 8.99858 9.48295C9.13434 10.0055 9.28049 10.5815 9.43703 11.211C9.59319 11.8409 9.75295 12.4849 9.91629 13.143C10.0795 13.8014 10.2392 14.4419 10.3956 15.0643C10.5517 15.6868 10.6842 16.2592 10.7932 16.7816C10.9019 17.3042 10.9902 17.7371 11.0583 18.0803H11.0787C11.1329 17.7798 11.228 17.3791 11.3642 16.8782C11.4999 16.3774 11.6563 15.8157 11.8332 15.1931C12.0098 14.5706 12.19 13.9301 12.3737 13.2718C12.5572 12.6137 12.7374 11.9626 12.9141 11.3183C13.0906 10.6743 13.2572 10.0768 13.4137 9.52586C13.5699 8.97511 13.6957 8.51358 13.791 8.14129C13.7978 8.09806 13.8203 8.05884 13.8541 8.03112C13.888 8.0034 13.9309 7.98912 13.9746 7.99099H17.625C17.647 7.98801 17.6694 7.98959 17.6909 7.99565C17.7123 8.00171 17.7322 8.01211 17.7494 8.02621C17.7667 8.04031 17.7808 8.0578 17.791 8.0776C17.8011 8.0974 17.8071 8.11908 17.8085 8.14129L18.2979 21.8585C18.3055 21.8824 18.3067 21.9078 18.3013 21.9323C18.296 21.9568 18.2843 21.9795 18.2674 21.998C18.2503 22.0158 18.2297 22.0298 18.2068 22.039C18.184 22.0483 18.1594 22.0526 18.1348 22.0517H15.4837C15.447 22.053 15.411 22.0416 15.3817 22.0195C15.3664 22.0042 15.3548 21.9856 15.3477 21.9651C15.3406 21.9447 15.3383 21.9229 15.3409 21.9014C15.3409 21.1715 15.3375 20.4059 15.3307 19.6045C15.3237 18.8032 15.3135 17.9982 15.3001 17.1895C15.2864 16.3811 15.2864 15.6048 15.3001 14.8603C15.3135 14.1164 15.3203 13.4295 15.3205 12.7995C15.3205 12.17 15.3239 11.6226 15.3307 11.1573C15.3374 10.6925 15.3408 10.3454 15.3409 10.1162H15.3205C15.239 10.4741 15.1302 10.9428 14.9942 11.5223C14.8582 12.1019 14.6984 12.753 14.515 13.4757C14.3314 14.1985 14.1343 14.9463 13.9236 15.719C13.7126 16.4918 13.5087 17.2575 13.3118 18.0159C13.1146 18.7747 12.9242 19.4831 12.7408 20.1411C12.5572 20.7996 12.4043 21.3792 12.2819 21.8799C12.2697 21.9298 12.2407 21.974 12.2 22.0053C12.1592 22.0365 12.1089 22.0529 12.0576 22.0517H9.75313C9.69818 22.0593 9.64237 22.0459 9.59695 22.014C9.55154 21.9821 9.51989 21.9342 9.5084 21.8799C9.38606 21.3791 9.24671 20.7995 9.09036 20.1411C8.93388 19.4831 8.77412 18.7961 8.61109 18.0804C8.448 17.3649 8.27465 16.6314 8.09106 15.88C7.90756 15.1287 7.73422 14.4024 7.57104 13.7012C7.40794 13.0001 7.26179 12.3418 7.13259 11.7262C7.0032 11.1111 6.88425 10.5672 6.77572 10.0947H6.7349V11.7906C6.7349 12.449 6.72472 13.1753 6.70435 13.9695C6.68394 14.7638 6.66355 15.5938 6.64318 16.4596C6.62277 17.3257 6.59898 18.2201 6.57181 19.143C6.54441 20.066 6.51041 20.9783 6.46982 21.8799C6.46982 21.9946 6.41533 22.0517 6.30666 22.0517H3.94107C3.89473 22.0538 3.84875 22.0426 3.80853 22.0195C3.77439 21.998 3.76418 21.9443 3.77791 21.8585L4.51205 8.1198Z" fill="#9999FF"/>
<path d="M26.2233 17.3668H21.9944C22.0463 17.7678 22.1855 18.1525 22.4022 18.4938C22.6423 18.8517 22.9818 19.1315 23.3789 19.2988C23.8153 19.4994 24.3842 19.5996 25.0856 19.5994C25.5497 19.6013 26.013 19.5618 26.4701 19.4813C26.9016 19.4042 27.323 19.2781 27.7259 19.1056C27.7973 19.0486 27.8333 19.0842 27.8333 19.213V21.2523C27.8368 21.3079 27.8257 21.3634 27.8011 21.4133C27.7765 21.4523 27.7435 21.4853 27.7044 21.5099C27.2599 21.7201 26.7913 21.8752 26.3091 21.9714C25.6864 22.0884 25.0536 22.1423 24.4201 22.1324C23.4037 22.1324 22.5522 21.975 21.8655 21.6602C21.2163 21.3742 20.643 20.9405 20.1912 20.3936C19.7691 19.8784 19.4551 19.2833 19.268 18.6441C19.0828 18.0132 18.9888 17.3589 18.989 16.7014C18.987 15.9833 19.0994 15.2696 19.3218 14.5869C19.5359 13.921 19.8747 13.3018 20.3199 12.7622C20.7591 12.229 21.3083 11.797 21.93 11.4957C22.6291 11.1732 23.3928 11.0153 24.1624 11.0342C24.8745 11.0162 25.5819 11.1554 26.234 11.442C26.7851 11.6916 27.2675 12.0709 27.6401 12.5475C27.9917 13.0014 28.2606 13.5137 28.4343 14.061C28.6035 14.5883 28.6903 15.1386 28.6919 15.6924C28.6919 16.0074 28.6812 16.2936 28.6597 16.5511C28.6383 16.8087 28.6204 16.9947 28.6061 17.1092C28.6005 17.1566 28.5777 17.2002 28.5421 17.2319C28.5065 17.2635 28.4605 17.281 28.4128 17.281C28.327 17.281 28.1803 17.2917 27.9728 17.3132C27.7652 17.3346 27.5076 17.3489 27.2 17.3561C26.8921 17.3635 26.5665 17.367 26.2233 17.3668ZM21.9944 15.2846H24.8065C25.1499 15.2846 25.404 15.281 25.5685 15.2738C25.6731 15.2739 25.7775 15.2631 25.8798 15.2416V15.1128C25.8755 14.9449 25.8466 14.7786 25.794 14.6191C25.6781 14.2529 25.4453 13.9348 25.1312 13.7137C24.817 13.4927 24.439 13.3809 24.0552 13.3955C23.6939 13.3737 23.3341 13.4574 23.0196 13.6366C22.7051 13.8157 22.4496 14.0825 22.2841 14.4044C22.1377 14.679 22.0397 14.9767 21.9944 15.2846Z" fill="#9999FF"/>
</g>
<defs>
<clipPath id="clip0_2_45">
<rect width="32" height="31.2" fill="white"/>
</clipPath>
</defs>
</svg>
