<svg width="32" height="32" viewBox="0 0 32 32" fill="none" xmlns="http://www.w3.org/2000/svg">
<g clip-path="url(#clip0_2_74)">
<path d="M0 0V31.2H32V0H0Z" fill="#EAEAEA"/>
<path d="M9.61333 15.68L13.08 12.3467L16.4 15.68L13.0133 19.04L9.61333 15.68ZM19.2933 15.4934L14.48 10.7333L16.12 9.04002L22.6 15.56L16.0533 22.08L14.3733 20.4134L19.2933 15.4934ZM17.64 7.58668L19.16 6.08002L28.8 15.6933L19.2133 25.2667L17.5333 23.56L25.64 15.56L17.64 7.58668ZM16.0133 2.93335L17.76 4.66668L6.57333 15.6133L17.7067 26.76L15.9333 28.5334L3.2 15.68L16.0133 2.93335Z" fill="#EC1C24"/>
</g>
<defs>
<clipPath id="clip0_2_74">
<rect width="32" height="31.2" fill="white"/>
</clipPath>
</defs>
</svg>
