<svg xmlns="http://www.w3.org/2000/svg" width="150" height="39" fill="none" viewBox="0 0 150 39"><g clip-path="url(#a)"><path fill="#0A0080" d="M54.955 17.9C54.955 8.032 42.614 0 27.477 0 12.273 0 0 8.031 0 17.9v1.022C0 29.403 10.773 37.91 27.477 37.91c16.841 0 27.478-8.508 27.478-18.99v-1.02Z"/><path fill="#2ABCFF" d="M53.864 17.9c0 9.325-11.796 16.88-26.387 16.88-14.59 0-26.386-7.555-26.386-16.88 0-9.324 11.795-16.88 26.386-16.88 14.591.069 26.387 7.556 26.387 16.88Z"/><path fill="#fff" d="M18.682 12.592s-.273.272-.136.544c.409.545 1.704.817 3 .545.75-.205 1.772-.953 2.727-1.702 1.023-.817 2.045-1.633 3.136-1.974 1.091-.34 1.773-.204 2.25-.068.546.136 1.091.477 2.046 1.225 1.84 1.362 9.068 7.691 10.295 8.78 1.023-.476 5.523-2.382 11.59-3.743-.408-3.267-2.386-6.262-5.386-8.712-4.159 1.77-9.272 2.654-14.318.204 0 0-2.727-1.293-5.386-1.225-3.954.068-5.66 1.838-7.5 3.607l-2.318 2.519Z"/><path fill="#fff" d="M41.795 20.555c-.068-.068-8.522-7.487-10.431-8.916-1.091-.817-1.705-1.021-2.387-1.157-.34-.068-.818 0-1.159.136-.886.272-2.045 1.02-3.068 1.838-1.09.884-2.114 1.633-3 1.837-1.16.34-2.66 0-3.34-.408-.274-.204-.478-.409-.546-.613-.273-.544.204-1.02.272-1.089l2.319-2.518.818-.817c-.75.068-1.432.272-2.114.477-.818.204-1.636.476-2.454.476-.341 0-2.182-.272-2.523-.408-2.114-.545-3.955-1.157-6.75-2.45-3.341 2.45-5.523 5.513-6.137 8.916.478.136 1.228.34 1.569.408 7.5 1.634 9.818 3.403 10.295 3.744.477-.477 1.091-.817 1.841-.817.818 0 1.568.408 2.046 1.089a2.77 2.77 0 0 1 1.772-.613c.341 0 .682.068 1.091.204a2.502 2.502 0 0 1 1.5 1.362c.273-.137.614-.205 1.023-.205.409 0 .818.069 1.227.273 1.364.612 1.568 1.974 1.5 2.994h.273c1.636 0 3 1.362 3 2.995 0 .477-.136.953-.341 1.43.477.272 1.568.816 2.59.68.819-.068 1.092-.34 1.228-.544.068-.137.136-.205.068-.34l-2.113-2.383s-.341-.34-.205-.476c.137-.136.341.068.477.204 1.091.885 2.387 2.246 2.387 2.246s.136.204.613.272c.41.068 1.16 0 1.705-.408.136-.136.273-.272.34-.409.546-.68-.067-1.36-.067-1.36l-2.455-2.791s-.34-.34-.204-.477c.136-.136.34.068.477.204.75.681 1.909 1.77 2.932 2.79.204.137 1.159.75 2.386-.067.75-.477.886-1.09.886-1.566-.068-.612-.545-1.02-.545-1.02l-3.41-3.404s-.34-.272-.204-.476c.137-.136.341.068.478.204 1.09.885 4.022 3.54 4.022 3.54.069 0 1.023.748 2.319-.069.477-.272.75-.68.75-1.225-.137-.748-.75-1.293-.75-1.293Z"/><path fill="#fff" d="M25.432 24.843c-.546 0-1.091.272-1.16.272-.067 0 0-.204.069-.34.068-.136.75-2.178-.955-2.927-1.295-.544-2.045.068-2.318.34-.068.069-.136.069-.136 0 0-.34-.205-1.36-1.296-1.701-1.568-.476-2.59.613-2.863 1.02-.137-.884-.887-1.633-1.841-1.633-1.023 0-1.841.817-1.841 1.838a1.832 1.832 0 0 0 3.136 1.293v.068c-.068.477-.204 2.11 1.5 2.79.682.273 1.296.069 1.773-.271.136-.136.136-.068.136.068-.068.408 0 1.36 1.296 1.837.954.409 1.568 0 1.909-.34.136-.136.204-.136.204.136a2.316 2.316 0 0 0 2.319 2.178 2.297 2.297 0 0 0 2.318-2.314c.068-1.225-.955-2.246-2.25-2.314Z"/><path fill="#0A0080" d="M42.136 19.67c-2.59-2.246-8.659-7.487-10.227-8.712-.954-.68-1.568-1.089-2.114-1.225a4.133 4.133 0 0 0-1.022-.136c-.41 0-.887.068-1.296.204-1.023.34-2.113 1.157-3.136 1.974l-.068.068c-.955.749-1.91 1.497-2.66 1.701-.34.069-.681.137-.954.137-.818 0-1.568-.273-1.84-.613-.069-.068 0-.136.067-.272l2.25-2.587C22.91 8.44 24.614 6.74 28.5 6.67h.204c2.455 0 4.841 1.09 5.114 1.225 2.318 1.09 4.637 1.634 7.023 1.634 2.454 0 4.977-.613 7.704-1.838-.272-.272-.613-.476-.954-.749-2.318 1.021-4.568 1.498-6.75 1.498-2.182 0-4.432-.545-6.546-1.566-.136-.068-2.795-1.293-5.59-1.293H28.5c-3.273.068-5.114 1.225-6.34 2.246-1.228 0-2.25.34-3.206.613-.818.204-1.568.408-2.25.408h-.818c-.818 0-4.84-1.02-8.045-2.246-.341.204-.614.477-.955.749 3.341 1.361 7.432 2.45 8.728 2.518.34 0 .75.068 1.09.068.819 0 1.705-.204 2.523-.476.477-.136 1.023-.273 1.568-.409l-.477.477L18 12.047c-.205.204-.614.68-.34 1.293.135.273.34.477.613.68.545.341 1.568.614 2.454.614.341 0 .682 0 .955-.137.954-.204 1.977-1.02 3.068-1.905.886-.681 2.114-1.566 3-1.838.273-.068.614-.136.818-.136h.205c.613.068 1.227.272 2.318 1.089 1.909 1.43 10.364 8.848 10.432 8.916 0 0 .545.476.477 1.225 0 .409-.273.817-.682 1.09-.34.203-.75.34-1.09.34-.546 0-.955-.273-.955-.273s-2.932-2.654-4.023-3.539c-.136-.136-.34-.272-.477-.272-.069 0-.137.068-.205.136-.136.204 0 .476.273.68l3.409 3.404s.41.408.477.884c0 .545-.272 1.021-.818 1.43-.409.272-.818.408-1.227.408-.546 0-.887-.204-.955-.272l-.477-.477c-.886-.884-1.773-1.77-2.455-2.314-.136-.136-.34-.272-.477-.272-.068 0-.136 0-.204.068-.069.068-.137.272.068.477.068.136.136.204.136.204l2.455 2.79s.477.613.068 1.157l-.068.137-.205.204c-.409.34-.954.408-1.227.408H33c-.273-.068-.41-.136-.477-.204-.137-.136-1.364-1.43-2.387-2.246-.136-.136-.272-.272-.477-.272-.068 0-.136 0-.204.068-.205.204.136.544.204.68l2.114 2.314s0 .069-.069.137c-.068.136-.34.34-1.09.476h-.273c-.818 0-1.637-.408-2.046-.613.205-.408.273-.884.273-1.36 0-1.702-1.432-3.132-3.136-3.132h-.137c.069-.817-.068-2.314-1.568-2.927-.409-.204-.886-.272-1.295-.272-.341 0-.682.068-.955.204-.34-.612-.818-1.088-1.568-1.293a3.47 3.47 0 0 0-1.159-.204c-.614 0-1.227.204-1.773.545-.477-.613-1.295-1.021-2.045-1.021-.682 0-1.364.272-1.91.748-.681-.476-3.272-2.178-10.227-3.743-.34-.068-1.09-.272-1.568-.409-.068.409-.136.75-.204 1.158 0 0 1.295.34 1.568.34 7.09 1.565 9.477 3.199 9.886 3.54-.136.34-.204.68-.204 1.02 0 1.497 1.227 2.655 2.659 2.655.136 0 .34 0 .477-.069.205 1.09.955 1.906 1.977 2.315.341.136.614.204.955.204.204 0 .409 0 .613-.068.205.476.682 1.157 1.637 1.565.34.136.682.204 1.023.204.272 0 .545-.068.818-.136.477 1.157 1.636 1.974 2.932 1.974a3.21 3.21 0 0 0 2.25-.953c.477.273 1.568.817 2.659.817h.409c1.09-.136 1.568-.544 1.773-.885.068-.068.068-.136.136-.204.273.068.545.136.818.136.614 0 1.16-.204 1.705-.613.545-.408.954-.952 1.022-1.497.205.068.41.068.546.068.613 0 1.227-.204 1.773-.544 1.09-.749 1.295-1.634 1.295-2.246.205.068.41.068.614.068.545 0 1.09-.205 1.636-.477a2.377 2.377 0 0 0 1.16-1.838c.067-.544-.07-1.02-.342-1.497 1.841-.817 6-2.314 10.977-3.403 0-.408-.068-.749-.136-1.157-5.932 1.089-10.364 2.995-11.523 3.471Zm-16.704 9.665a2.17 2.17 0 0 1-2.182-2.042c0-.068 0-.34-.205-.34-.068 0-.136.068-.272.136-.273.204-.614.476-1.023.476-.205 0-.477-.068-.682-.136-1.227-.476-1.227-1.36-1.159-1.701 0-.068 0-.204-.068-.273l-.068-.068h-.069c-.068 0-.136 0-.204.069-.41.272-.75.408-1.09.408-.206 0-.41-.068-.615-.136-1.636-.613-1.5-2.178-1.431-2.587 0-.068 0-.136-.069-.204l-.136-.068-.136.136c-.341.273-.75.477-1.16.477a1.687 1.687 0 0 1-1.704-1.702c0-.953.75-1.702 1.705-1.702.818 0 1.568.613 1.636 1.43l.068.476.273-.408c0-.068.682-1.09 1.977-1.09.205 0 .477.069.75.137 1.023.272 1.16 1.225 1.16 1.566 0 .204.204.204.204.204.068 0 .136-.068.204-.068.205-.205.614-.545 1.228-.545.272 0 .613.068.954.204 1.568.68.886 2.655.886 2.723-.136.34-.136.476 0 .544h.137c.068 0 .136 0 .273-.068.204-.068.545-.204.818-.204 1.159 0 2.182.953 2.182 2.178a2.152 2.152 0 0 1-2.182 2.178ZM148.5 6.534c-1.023-1.225-2.523-1.838-4.5-1.838-2.045 0-3.545.613-4.5 1.838-1.023 1.225-1.5 2.723-1.5 4.424 0 1.702.477 3.2 1.5 4.424 1.023 1.225 2.523 1.838 4.5 1.838 2.045 0 3.545-.613 4.5-1.838 1.023-1.225 1.5-2.722 1.5-4.424 0-1.77-.477-3.199-1.5-4.424Zm-2.455 7.079c-.477.612-1.159.952-2.045.952-.886 0-1.568-.34-2.045-.952-.478-.613-.75-1.566-.75-2.723 0-1.157.272-2.11.75-2.722.477-.613 1.159-.953 2.045-.953.886 0 1.568.34 2.045.953.478.612.75 1.565.75 2.722s-.272 2.11-.75 2.723ZM123.205 5.445a8.152 8.152 0 0 0-3.478-.749c-1.977 0-3.409.545-4.227 1.566-.545.68-.818 1.497-.886 2.518h3c.068-.476.204-.817.409-1.089.272-.34.818-.544 1.568-.544.682 0 1.159.068 1.5.272.341.204.477.544.477 1.02 0 .41-.204.681-.682.886-.272.136-.681.204-1.227.272l-1.023.136c-1.227.136-2.113.408-2.727.749-1.159.68-1.704 1.701-1.704 3.13 0 1.09.34 1.974 1.022 2.587.682.612 1.568.885 2.659.885 6.75.272 6.682-3.54 6.682-4.356V8.304c.137-1.362-.409-2.314-1.363-2.859Zm-1.569 6.738c0 1.021-.341 1.77-.886 2.11a2.994 2.994 0 0 1-1.841.613c-.409 0-.818-.136-1.091-.34-.273-.205-.477-.613-.477-1.158 0-.612.273-1.02.75-1.293.273-.136.75-.272 1.432-.408l.682-.136c.34-.068.613-.136.818-.204.204-.069.409-.205.613-.273v1.09ZM107.864 7.35c.75 0 1.363.273 1.704.681.273.34.409.75.477 1.157h3.341c-.204-1.701-.75-2.858-1.772-3.47-1.023-.681-2.25-1.022-3.819-1.022-1.84 0-3.272.545-4.295 1.702-1.023 1.089-1.568 2.654-1.568 4.696 0 1.77.477 3.2 1.432 4.356.954 1.09 2.386 1.702 4.431 1.702 1.978 0 3.478-.68 4.5-2.042.614-.817 1.023-1.702 1.091-2.654h-3.272c-.069.612-.273 1.088-.614 1.497-.341.408-.886.612-1.636.612-1.091 0-1.773-.476-2.182-1.497-.205-.544-.341-1.225-.341-2.042 0-.885.136-1.633.341-2.178.341-1.02 1.091-1.497 2.182-1.497ZM100.977 4.764c-6.818 0-6.409 5.99-6.409 5.99v6.126h3.068v-5.718c0-.953.137-1.633.341-2.11.41-.816 1.227-1.225 2.523-1.225h.341c.136 0 .341 0 .545.068v-3.13H100.977ZM89.66 13.68c-.137.205-.274.34-.41.477-.41.34-1.023.476-1.705.476-.681 0-1.159-.068-1.636-.408-.75-.476-1.227-1.293-1.227-2.45h8.522c0-1.021 0-1.77-.136-2.314-.136-.885-.477-1.702-.954-2.45-.546-.817-1.228-1.362-2.046-1.77a7.218 7.218 0 0 0-2.727-.545c-1.705 0-3.136.545-4.227 1.634-1.091 1.089-1.637 2.654-1.637 4.696 0 2.178.614 3.744 1.773 4.697 1.227.952 2.59 1.429 4.16 1.429 1.908 0 3.34-.545 4.43-1.702.546-.612.956-1.225 1.092-1.77h-3.273ZM85.5 7.964c.41-.476 1.023-.68 1.84-.68.75 0 1.364.204 1.842.612.477.409.75 1.021.818 1.838h-5.318c.136-.749.409-1.361.818-1.77ZM80.25 16.88h-2.796V9.8c0-.68-.204-2.178-2.045-2.178-1.227 0-2.114.885-2.114 2.178v7.079H70.5V9.8c0-.68-.204-2.178-2.046-2.178-1.295 0-2.113.885-2.113 2.178v7.079h-2.932V9.87c0-2.928 1.977-5.174 4.977-5.174 1.5 0 2.728.613 3.546 1.634.818-1.021 2.045-1.634 3.477-1.634 3.068 0 4.91 2.11 4.91 5.173v7.01h-.069ZM137.045 1.02s-3.136-.34-3.136 2.179v3.335c-.341-.544-.818-.953-1.364-1.293-.545-.34-1.159-.477-1.909-.477-1.568 0-2.795.545-3.681 1.702-.955 1.157-1.364 2.79-1.364 4.832 0 1.77.477 3.131 1.432 4.288.954 1.09 2.795 1.566 4.432 1.566 5.727 0 5.659-4.9 5.659-4.9l-.069-11.231Zm-3.681 12.593c-.478.612-1.091.952-1.978.952-.886 0-1.5-.34-1.977-.952-.409-.681-.614-1.566-.614-2.655 0-1.02.205-1.838.614-2.518.409-.68 1.091-1.021 1.977-1.021.614 0 1.091.204 1.569.544.75.613 1.09 1.702 1.09 3.131 0 1.09-.204 1.906-.681 2.519ZM66.477 36.482c0 .408-.136.816-.477 1.089-.273.272-.682.408-1.09.408h-1.5V27.293c0-2.11.68-3.403 1.84-4.288.818-.612 2.114-1.225 4.704-1.157 1.296.068 2.591.613 3.41 1.634 1.022 1.225 1.431 2.654 1.431 4.492 0 1.906-.477 3.403-1.363 4.56-.887 1.157-2.046 1.702-3.478 1.702-.75 0-1.431-.136-1.977-.409-.613-.272-1.09-.748-1.431-1.361v4.016h-.069Zm5.182-8.372c0-1.157-.205-2.042-.682-2.654-.477-.613-1.09-.953-1.977-.953-.818 0-1.432.34-1.91.953-.408.544-.613 1.497-.613 2.654 0 1.157.205 1.974.682 2.586.477.613 1.091.953 1.977.953.819 0 1.432-.34 1.841-.953.41-.68.682-1.497.682-2.586ZM95.25 33.283v-.749c-.546.817-1.227 1.361-2.182 1.566a4.693 4.693 0 0 1-2.727-.205c-.886-.34-1.636-1.02-2.318-1.974-.614-.952-.955-2.246-.955-3.811 0-1.838.41-3.335 1.296-4.492.818-1.157 2.181-1.702 4.09-1.702 1.842-.068 2.932.34 3.955 1.157 1.16.885 1.841 2.178 1.841 4.288v6.33c0 2.042-1.432 5.717-5.796 5.445-2.727-.204-4.227-1.293-5.113-3.88h3.273c.204.409.613.75 1.09.953a2.79 2.79 0 0 0 1.5.205 2.782 2.782 0 0 0 1.364-.885c.41-.613.614-1.293.682-2.246Zm-5.046-5.173c0 2.042.614 3.199 1.773 3.403 1.16.204 2.046-.068 2.66-.817.272-.34.477-.816.613-1.565a5.488 5.488 0 0 0 0-2.11c-.136-.68-.34-1.293-.75-1.838-.41-.544-.954-.817-1.704-.817-1.023 0-1.705.409-2.046 1.09-.41.884-.546 1.701-.546 2.654ZM84.477 22.665A8.15 8.15 0 0 0 81 21.916c-1.977 0-3.41.545-4.227 1.566-.546.68-.819 1.497-.887 2.518h3c.069-.476.205-.817.41-1.089.34-.34.818-.545 1.568-.545.681 0 1.159.069 1.5.273.34.204.477.544.477 1.02 0 .41-.205.681-.682.886-.273.136-.682.204-1.227.272l-1.023.136c-1.227.136-2.114.408-2.727.749-1.16.68-1.705 1.701-1.705 3.13 0 1.09.341 1.974 1.023 2.587.682.612 1.568.885 2.66.885 6.75.272 6.613-3.54 6.68-4.356v-4.424c.137-1.362-.34-2.383-1.363-2.86Zm-1.568 6.67c0 1.021-.34 1.77-.886 2.11a2.995 2.995 0 0 1-1.841.613c-.41 0-.818-.136-1.091-.34-.273-.205-.477-.613-.477-1.158 0-.612.272-1.02.75-1.293.272-.136.75-.34 1.431-.408l.682-.137a7.09 7.09 0 0 0 .819-.204c.204-.068.408-.204.613-.272v1.09ZM109.977 23.618c-1.022-1.225-2.522-1.838-4.5-1.838-2.045 0-3.545.613-4.5 1.838-1.022 1.225-1.5 2.722-1.5 4.424 0 1.701.478 3.199 1.5 4.424 1.023 1.225 2.523 1.838 4.5 1.838 2.046 0 3.546-.613 4.5-1.838 1.023-1.225 1.5-2.723 1.5-4.424 0-1.702-.477-3.131-1.5-4.424Zm-2.454 7.146c-.478.613-1.159.953-2.046.953-.886 0-1.568-.34-2.045-.953-.477-.612-.75-1.565-.75-2.722s.273-2.11.75-2.723c.477-.612 1.159-.953 2.045-.953.887 0 1.568.34 2.046.953.477.613.75 1.566.75 2.723 0 1.157-.273 2.042-.75 2.722Z"/></g><defs><clipPath id="a"><path fill="#fff" d="M0 0h150v39H0z"/></clipPath></defs></svg>