<svg xmlns="http://www.w3.org/2000/svg" xmlns:xlink="http://www.w3.org/1999/xlink" width="630" height="630" viewBox="0 0 630 630"><title>PBI Logo</title><defs><linearGradient id="a" x1="50%" x2="50%" y1="0%" y2="100%"><stop offset="0%" stop-color="#ebbb14"/><stop offset="100%" stop-color="#b25400"/></linearGradient><linearGradient id="d" x1="50%" x2="50%" y1="0%" y2="100%"><stop offset="0%" stop-color="#f9e583"/><stop offset="100%" stop-color="#de9800"/></linearGradient><linearGradient id="e" x1="50%" x2="50%" y1="0%" y2="100%"><stop offset="0%" stop-color="#f9e68b"/><stop offset="100%" stop-color="#f3cd32"/></linearGradient><filter id="b" width="136.5%" height="116.9%" x="-9.1%" y="-6.3%" filterUnits="objectBoundingBox"><feOffset dx="20" dy="10" in="SourceAlpha" result="shadowOffsetOuter1"/><feGaussianBlur in="shadowOffsetOuter1" result="shadowBlurOuter1" stdDeviation="10"/><feColorMatrix in="shadowBlurOuter1" values="0 0 0 0 0 0 0 0 0 0 0 0 0 0 0 0 0 0 0.0530211976 0"/></filter><path id="c" d="M346 604v26H153c-14.36 0-26-11.64-26-26V183c0-14.36 11.64-26 26-26h167c14.36 0 26 11.64 26 26z"/></defs><g fill="none" fill-rule="evenodd" transform="translate(77.5)"><rect width="219" height="630" x="256" fill="url(#a)" rx="26"/><use xlink:href="#c" fill="#000" filter="url(#b)"/><use xlink:href="#c" fill="url(#d)"/><path fill="url(#e)" d="M219 604v26H26c-14.36 0-26-11.64-26-26V341c0-14.36 11.64-26 26-26h167c14.36 0 26 11.64 26 26z"/></g></svg>