<svg xmlns="http://www.w3.org/2000/svg" data-name="Слой 1" viewBox="0 0 486 500"><defs><radialGradient id="a" cx="-746.66" cy="781.44" r="13.89" data-name="Безымянный градиент" fx="-746.66" fy="781.44" gradientTransform="matrix(-28.32596 -29.80763 -23.11916 21.97986 -2596.39 -38900.31)" gradientUnits="userSpaceOnUse"><stop offset=".06" stop-color="#379539"/><stop offset=".42" stop-color="#297c2d"/><stop offset=".7" stop-color="#15561c"/></radialGradient><radialGradient id="b" cx="-773.19" cy="771.25" r="13.89" data-name="Безымянный градиент 2" fx="-773.19" fy="771.25" gradientTransform="matrix(-11.97612 -11.58137 -8.95853 9.26806 -2155.12 -15858.88)" gradientUnits="userSpaceOnUse"><stop offset="0" stop-color="#073b10"/><stop offset=".99" stop-color="#084a13" stop-opacity="0"/></radialGradient><radialGradient id="f" cx="-824.11" cy="810.99" r="13.89" data-name="Безымянный градиент 6" fx="-824.11" fy="810.99" gradientTransform="matrix(-9.02 0 0 19.09 -7120.4 -15378.69)" gradientUnits="userSpaceOnUse"><stop offset=".29" stop-color="#4eb43b"/><stop offset="1" stop-color="#72cc61" stop-opacity="0"/></radialGradient><radialGradient id="h" cx="-769.14" cy="808.9" r="13.89" data-name="Безымянный градиент 8" fx="-769.14" fy="808.9" gradientTransform="matrix(-16.9077 -13.68182 13.64112 -16.86345 -23523.37 3309.71)" gradientUnits="userSpaceOnUse"><stop offset=".44" stop-color="#79e96d"/><stop offset="1" stop-color="#d0eb76"/></radialGradient><radialGradient id="i" cx="-675.64" cy="793.28" r="13.89" data-name="Безымянный градиент 9" fx="-675.64" fy="793.28" gradientTransform="matrix(15.99196 15.99755 45.54153 -45.54797 -25315.85 47178.18)" gradientUnits="userSpaceOnUse"><stop offset="0" stop-color="#20a85e"/><stop offset=".94" stop-color="#09442a"/></radialGradient><radialGradient id="j" cx="-657.62" cy="853.99" r="13.89" data-name="Безымянный градиент 10" fx="-657.62" fy="853.99" gradientTransform="matrix(0 11.2 12.9 0 -10902.85 7734.8)" gradientUnits="userSpaceOnUse"><stop offset=".58" stop-color="#33a662" stop-opacity="0"/><stop offset=".97" stop-color="#98f0b0"/></radialGradient><linearGradient id="c" x1="69.43" x2="260.84" y1="210.33" y2="210.33" data-name="Безымянный градиент 3" gradientTransform="matrix(1 0 0 -1 0 502)" gradientUnits="userSpaceOnUse"><stop offset="0" stop-color="#52d17c"/><stop offset=".33" stop-color="#4aa647"/></linearGradient><linearGradient id="d" x1="194.4" x2="194.4" y1="335.33" y2="161.68" data-name="Безымянный градиент 4" gradientTransform="matrix(1 0 0 -1 0 502)" gradientUnits="userSpaceOnUse"><stop offset="0" stop-color="#29852f"/><stop offset=".5" stop-color="#4aa647" stop-opacity="0"/></linearGradient><linearGradient id="e" x1="80.49" x2="311.45" y1="297.22" y2="497.54" data-name="Безымянный градиент 5" gradientTransform="matrix(1 0 0 -1 0 502)" gradientUnits="userSpaceOnUse"><stop offset="0" stop-color="#66d052"/><stop offset="1" stop-color="#85e972"/></linearGradient><linearGradient id="g" x1="182.11" x2="69.43" y1="377" y2="377" data-name="Безымянный градиент 7" gradientTransform="matrix(1 0 0 -1 0 502)" gradientUnits="userSpaceOnUse"><stop offset=".18" stop-color="#c0e075" stop-opacity="0"/><stop offset="1" stop-color="#d1eb95"/></linearGradient></defs><path d="M69.43 159.72c0-34.52 27.98-62.5 62.49-62.5h354.09v361.11c0 23.01-18.65 41.67-41.66 41.67H152.74c-46.01 0-83.31-37.31-83.31-83.33V159.72Z" style="fill:url(#a)"/><path d="M69.43 159.72c0-34.52 27.98-62.5 62.49-62.5h354.09v361.11c0 23.01-18.65 41.67-41.66 41.67H152.74c-46.01 0-83.31-37.31-83.31-83.33V159.72Z" style="fill:url(#b);fill-opacity:.7"/><path d="M69.43 229.17c0-34.52 27.98-62.5 62.49-62.5h187.46c-23.01 0-41.66 18.66-41.66 41.67v83.33c0 23.01-18.65 41.67-41.66 41.67h-83.31c-46.01 0-83.31 37.31-83.31 83.33v-187.5Z" style="fill:url(#c)"/><path d="M69.43 229.17c0-34.52 27.98-62.5 62.49-62.5h187.46c-23.01 0-41.66 18.66-41.66 41.67v83.33c0 23.01-18.65 41.67-41.66 41.67h-83.31c-46.01 0-83.31 37.31-83.31 83.33v-187.5Z" style="fill:url(#d);fill-opacity:.3"/><path d="M69.43 83.33C69.43 37.31 106.73 0 152.74 0h166.63v166.67H152.74c-46.01 0-83.31 37.31-83.31 83.33V83.33Z" style="fill:url(#e)"/><path d="M69.43 83.33C69.43 37.31 106.73 0 152.74 0h166.63v166.67H152.74c-46.01 0-83.31 37.31-83.31 83.33V83.33Z" style="fill:url(#f)"/><path d="M69.43 83.33C69.43 37.31 106.73 0 152.74 0h166.63v166.67H152.74c-46.01 0-83.31 37.31-83.31 83.33V83.33Z" style="fill:url(#g)"/><rect width="208.29" height="166.67" x="277.71" rx="41.66" ry="41.66" style="fill:url(#h)"/><rect width="222.17" height="222.22" y="236.11" rx="45.13" ry="45.13" style="fill:url(#i)"/><rect width="222.17" height="222.22" y="236.11" rx="45.13" ry="45.13" style="fill-opacity:.3;fill:url(#j)"/><path d="M169.48 410.71h-34.25l-21.5-40.47c-.77-1.42-1.36-2.54-1.77-3.37-.35-.88-.74-1.89-1.15-3.01h-.35c-.53 1.42-1.03 2.57-1.5 3.45-.47.89-1.03 1.98-1.68 3.28l-22.3 40.11h-32.3l38.76-63.58-36.1-63.4h33.8l19.11 36.13c.77 1.48 1.42 2.78 1.95 3.9.59 1.06 1.18 2.33 1.77 3.81h.35l1.95-4.07c.53-1 1.24-2.33 2.12-3.98l19.82-35.77h32.21l-36.63 62.43 37.7 64.55Z" style="fill:#fff"/></svg>