<svg xmlns="http://www.w3.org/2000/svg" fill="none" viewBox="8.003 2.981 80.001 90.037"><g clip-path="url(#a)"><path fill="url(#b)" d="M88.002 48.774V20.185c-40.576 15.86-55.41 27.966-51.375 66.149.2 1.889 1.323 3.585 3.047 4.384 3.204 1.484 6.094 2.3 8.328 2.3 11.429 0 40-21.347 40-44.244Z"/><path fill="url(#c)" fill-opacity=".6" d="M88.002 48.774V20.185c-40.576 15.86-55.41 27.966-51.375 66.149.2 1.889 1.323 3.585 3.047 4.384 3.204 1.484 6.094 2.3 8.328 2.3 11.429 0 40-21.347 40-44.244Z"/><path fill="url(#d)" d="M48.003 2.98c7.692 0 23.148 3.89 32.434 6.433.867.238 1.681.468 2.43.685 3.088.895 5.136 3.75 5.136 6.966v4.728c-.918 21.064-7.667 27.191-26.507 42.36-2.475 2.19-5.018 4.273-7.6 6.388-3.699 3.03-7.478 6.125-11.248 9.692a7.477 7.477 0 0 0 2.536 12.439 21.996 21.996 0 0 1-2.18-.615c-6.891-2.31-16.192-8.601-23.475-16.956-5.741-35.774 5.512-53.308 28.474-72.12Z"/><path fill="url(#e)" fill-opacity=".7" d="M48.003 2.98c7.692 0 23.148 3.89 32.434 6.433.867.238 1.681.468 2.43.685 3.088.895 5.136 3.75 5.136 6.966v4.728c-.918 21.064-7.667 27.191-26.507 42.36-2.475 2.19-5.018 4.273-7.6 6.388-3.699 3.03-7.478 6.125-11.248 9.692a7.477 7.477 0 0 0 2.536 12.439 21.996 21.996 0 0 1-2.18-.615c-6.891-2.31-16.192-8.601-23.475-16.956-5.741-35.774 5.512-53.308 28.474-72.12Z"/><path fill="url(#f)" fill-opacity=".7" d="M48.003 2.98c7.692 0 23.148 3.89 32.434 6.433.867.238 1.681.468 2.43.685 3.088.895 5.136 3.75 5.136 6.966v4.728c-.918 21.064-7.667 27.191-26.507 42.36-2.475 2.19-5.018 4.273-7.6 6.388-3.699 3.03-7.478 6.125-11.248 9.692a7.477 7.477 0 0 0 2.536 12.439 21.996 21.996 0 0 1-2.18-.615c-6.891-2.31-16.192-8.601-23.475-16.956-5.741-35.774 5.512-53.308 28.474-72.12Z"/><path fill="url(#g)" fill-opacity=".5" d="M48.003 2.98c7.692 0 23.148 3.89 32.434 6.433.867.238 1.681.468 2.43.685 3.088.895 5.136 3.75 5.136 6.966v4.728c-.918 21.064-7.667 27.191-26.507 42.36-2.475 2.19-5.018 4.273-7.6 6.388-3.699 3.03-7.478 6.125-11.248 9.692a7.477 7.477 0 0 0 2.536 12.439 21.996 21.996 0 0 1-2.18-.615c-6.891-2.31-16.192-8.601-23.475-16.956-5.741-35.774 5.512-53.308 28.474-72.12Z"/><path fill="url(#h)" d="M13.355 10.026c8.831-2.47 26.306-7.045 34.648-7.045.6 0 1.249.024 1.937.07 7.626.736 13.587 7.162 13.587 14.98 0 2.84-.786 5.495-2.152 7.76-2.92 5.82-7.7 10.394-14.974 16.382-2.09 1.72-4.485 3.62-6.873 5.512a520.123 520.123 0 0 0-6.488 5.196c-4.808 3.942-7.747 6.352-9.363 9.376a14.98 14.98 0 0 0-2.433 8.208c0 4.433 1.916 8.419 4.966 11.173.097.109.195.215.294.318l.08.119a69.562 69.562 0 0 1-2.867-2.593c-8.571-8.199-15.714-19.26-15.714-30.708V17.14c0-3.312 2.162-6.222 5.352-7.115Z"/><path fill="url(#i)" fill-opacity=".8" d="M13.355 10.026c8.831-2.47 26.306-7.045 34.648-7.045.6 0 1.249.024 1.937.07 7.626.736 13.587 7.162 13.587 14.98 0 2.84-.786 5.495-2.152 7.76-2.92 5.82-7.7 10.394-14.974 16.382-2.09 1.72-4.485 3.62-6.873 5.512a520.123 520.123 0 0 0-6.488 5.196c-4.808 3.942-7.747 6.352-9.363 9.376a14.98 14.98 0 0 0-2.433 8.208c0 4.433 1.916 8.419 4.966 11.173.097.109.195.215.294.318l.08.119a69.562 69.562 0 0 1-2.867-2.593c-8.571-8.199-15.714-19.26-15.714-30.708V17.14c0-3.312 2.162-6.222 5.352-7.115Z"/><path fill="url(#j)" fill-opacity=".5" d="M13.355 10.026c8.831-2.47 26.306-7.045 34.648-7.045.6 0 1.249.024 1.937.07 7.626.736 13.587 7.162 13.587 14.98 0 2.84-.786 5.495-2.152 7.76-2.92 5.82-7.7 10.394-14.974 16.382-2.09 1.72-4.485 3.62-6.873 5.512a520.123 520.123 0 0 0-6.488 5.196c-4.808 3.942-7.747 6.352-9.363 9.376a14.98 14.98 0 0 0-2.433 8.208c0 4.433 1.916 8.419 4.966 11.173.097.109.195.215.294.318l.08.119a69.562 69.562 0 0 1-2.867-2.593c-8.571-8.199-15.714-19.26-15.714-30.708V17.14c0-3.312 2.162-6.222 5.352-7.115Z"/></g><defs><radialGradient id="c" cx="0" cy="0" r="1" gradientTransform="rotate(50.288 -33.238 85.948) scale(47.3395 141.525)" gradientUnits="userSpaceOnUse"><stop offset=".228" stop-color="#003375"/><stop offset=".434" stop-color="#003375" stop-opacity=".1"/></radialGradient><radialGradient id="d" cx="0" cy="0" r="1" gradientTransform="matrix(-74.68482 131.55458 -84.561 -48.00611 90.617 -21.486)" gradientUnits="userSpaceOnUse"><stop offset=".165" stop-color="#23C0FE"/><stop offset=".534" stop-color="#1C91FF"/></radialGradient><radialGradient id="e" cx="0" cy="0" r="1" gradientTransform="matrix(18.30716 17.30126 -30.78552 32.57538 39.202 32.728)" gradientUnits="userSpaceOnUse"><stop offset=".144" stop-color="#1B44B1"/><stop offset="1" stop-color="#045ED1" stop-opacity="0"/></radialGradient><radialGradient id="f" cx="0" cy="0" r="1" gradientTransform="rotate(28.894 -61.893 175.5) scale(56.7755 83.2193)" gradientUnits="userSpaceOnUse"><stop offset=".728" stop-color="#045ED1" stop-opacity="0"/><stop offset=".951" stop-color="#1B44B1"/></radialGradient><radialGradient id="g" cx="0" cy="0" r="1" gradientTransform="rotate(-111.097 37.844 -5.348) scale(91.9639 70.2953)" gradientUnits="userSpaceOnUse"><stop offset=".642" stop-color="#11A7FF" stop-opacity="0"/><stop offset=".796" stop-color="#6AB3FF"/></radialGradient><radialGradient id="h" cx="0" cy="0" r="1" gradientTransform="rotate(126.614 32.088 15.326) scale(110.394 123.275)" gradientUnits="userSpaceOnUse"><stop stop-color="#92EEFE"/><stop offset=".213" stop-color="#35DDFF"/><stop offset=".612" stop-color="#15BDFB"/><stop offset=".803" stop-color="#08B1F9"/></radialGradient><radialGradient id="j" cx="0" cy="0" r="1" gradientTransform="rotate(-87.723 29.193 -13.868) scale(86.6628 45.9894)" gradientUnits="userSpaceOnUse"><stop offset=".658" stop-color="#92DEFF" stop-opacity="0"/><stop offset=".852" stop-color="#92DEFF"/></radialGradient><linearGradient id="b" x1="83.893" x2="30.76" y1="46.36" y2="88.944" gradientUnits="userSpaceOnUse"><stop offset=".716" stop-color="#143DE0"/><stop offset=".978" stop-color="#003375"/></linearGradient><linearGradient id="i" x1="37.927" x2="8.003" y1="34.39" y2="34.39" gradientUnits="userSpaceOnUse"><stop offset=".111" stop-color="#22CBFD" stop-opacity="0"/><stop offset=".971" stop-color="#92DEFF"/></linearGradient><clipPath id="a"><path fill="#fff" d="M0 0h96v96H0z"/></clipPath></defs></svg>