<svg width="698" height="583" viewBox="0 0 698 583" fill="none" xmlns="http://www.w3.org/2000/svg">
<path d="M9 573.5C29 573.5 59 531.5 94 525.5C114 525.5 129 567.5 179 573.5C214 573.5 229 531.5 264 531.5C299 531.5 314 573.5 349 573.5C384 573.5 399 531.5 434 531.5C469 531.5 484 573.5 519 573.5C554 573.5 569 531.5 604 531.5C639 531.5 654 573.5 689 573.5" stroke="white" stroke-width="18" stroke-linecap="round" stroke-linejoin="round"/>
<path d="M77.4 531.7L54.5 487.9L644.5 449.9C598.1 492.1 538.5 526.3 478.2 554.3" stroke="white" stroke-width="18" stroke-linecap="round" stroke-linejoin="round"/>
<path d="M289.4 79.9004C389.8 110.6 530.2 258.9 578 418.3C551.8 408 532.2 397.5 495.4 406.9C459.8 277.4 396.1 153.7 289.4 79.9004Z" stroke="white" stroke-width="18" stroke-linecap="round" stroke-linejoin="round"/>
<path d="M102.7 9.00049C231.3 64.0005 407.7 217.1 440.1 421C291.8 361.2 178.9 393.1 100.3 441.6C220.2 289.2 166.4 115.9 102.7 9.00049Z" stroke="white" stroke-width="18" stroke-linecap="round" stroke-linejoin="round"/>
</svg>
