<svg xmlns="http://www.w3.org/2000/svg" width="308" height="112" viewBox="0 0 308 112">
  <path fill="#1A1A1A" fill-rule="evenodd" d="M56 20c19.882 0 36 16.118 36 36S75.882 92 56 92 20 75.882 20 56s16.118-36 36-36Zm16 22c0-1.782-2.154-2.674-3.414-1.414L56 53.172 43.414 40.586C42.154 39.326 40 40.218 40 42v28a2 2 0 0 0 2 2h28a2 2 0 0 0 2-2ZM56 58.828 65.172 68H46.828L56 58.828Zm12-12v18.344L58.828 56 68 46.828Zm-24 0L53.172 56 44 65.172V46.828Zm95.493 19.46-2.184-16.632L128.951 72h-2.016l-8.862-22.47-2.142 16.758c-.042.294-.084.882-.084 1.008 0 2.058 1.05 2.562 3.99 2.688V72h-10.332v-2.016c2.394-.084 3.234-.588 3.528-2.52l2.646-19.866c0-2.226-.756-2.982-3.57-3.066v-2.016h8.988c.084.966.252 1.512.63 2.436l7.56 19.362 7.098-19.362c.378-.924.63-1.47.714-2.436h8.736v2.016c-2.772.084-3.528.84-3.528 3.066l2.646 19.866c.252 1.974 1.134 2.436 3.486 2.52V72h-12.852v-2.016c2.94-.126 3.99-.63 3.99-2.688 0-.126-.042-.714-.084-1.008Zm18.914-17.22v18.648c0 1.932 1.134 2.142 3.024 2.394V72h-11.13v-1.89c1.848-.252 3.024-.462 3.024-2.394V53.94l-2.814-1.764v-1.008l6.72-2.1h1.176Zm-2.688-2.52c-1.89 0-3.234-1.428-3.234-3.15s1.344-3.15 3.234-3.15c1.848 0 3.192 1.428 3.192 3.15s-1.344 3.15-3.192 3.15Zm16.1-6.51v27.678c0 1.932 1.176 2.142 3.024 2.394V72h-11.13v-1.89c1.89-.252 3.066-.462 3.066-2.394V44.868l-2.856-1.806v-1.05l6.762-1.974h1.134Zm14.042 28.896c1.638 0 2.772-.462 4.2-1.47v-7.35l-4.914 1.89c-1.554.588-2.436 1.722-2.436 3.318 0 2.31 1.134 3.612 3.15 3.612Zm9.282-12.18c0 1.008-.126 8.442-.126 9.744 0 1.68.546 2.646 1.722 2.646.378 0 1.302-.084 1.932-.252l.252 1.344c-1.428 1.428-3.024 2.184-4.788 2.184-2.226 0-3.444-1.554-3.948-3.822-1.47 1.764-3.738 3.78-6.93 3.78-3.738 0-5.67-2.52-5.67-5.754 0-3.864 2.982-5.208 5.796-6.174l6.678-2.394V55.83c0-2.73-.84-4.578-3.612-4.578-2.058 0-3.066 1.008-3.066 2.94 0 .798.084 1.512.294 2.394l-3.696.546c-.798-.546-1.176-1.344-1.176-2.478 0-3.654 3.57-5.586 8.4-5.586 5.166 0 7.938 2.31 7.938 7.686Zm22.4 10.962v-11.34c0-2.604-1.05-3.654-3.528-3.654-1.974 0-4.074.798-5.502 1.806v13.188c0 1.932 1.05 2.142 2.94 2.394V72h-11.046v-1.89c1.848-.252 3.024-.462 3.024-2.394V54.024l-2.814-1.806v-1.05l6.72-2.184h1.176v4.284c1.932-2.016 4.536-4.2 8.064-4.2 3.78 0 6.048 2.058 6.048 6.888v11.76c0 1.932 1.134 2.142 3.024 2.394V72h-11.088v-1.89c1.89-.252 2.982-.462 2.982-2.394Zm21.644 2.268c3.444 0 5.208-3.486 5.208-8.61 0-5.46-2.184-9.912-5.964-9.912-3.486 0-5.208 3.528-5.208 8.652 0 5.46 2.142 9.87 5.964 9.87Zm-.588 2.436c-6.468 0-10.626-4.788-10.626-11.256 0-7.35 4.872-12.096 11.004-12.096 6.468 0 10.668 4.788 10.668 11.256 0 7.35-4.914 12.096-11.046 12.096Zm21.14-27.888v4.956h6.174v2.52h-6.174v14.154c0 2.226.966 3.024 3.108 3.024 1.176 0 2.562-.336 3.612-.882l.546 1.302c-1.596 1.722-3.906 2.814-6.804 2.814-3.36 0-5.502-1.596-5.502-5.46V52.008h-3.024v-1.596c2.352-1.218 4.62-3.192 6.552-5.88h1.512Zm19.25 4.536c5.712 0 8.694 4.032 8.694 9.45v1.386h-14.658c0 5.082 2.856 8.484 7.308 8.484 2.982 0 4.956-1.386 6.468-3.402l.924.546c-1.05 4.074-4.242 6.888-9.156 6.888-6.174 0-10.08-4.662-10.08-10.962 0-7.434 4.536-12.39 10.5-12.39Zm-.672 2.31c-3.024 0-4.83 2.982-5.166 6.384h9.786c0-3.864-1.554-6.384-4.62-6.384Z"/>
</svg>