<svg width="1000" height="1000" viewBox="0 0 1000 1000" fill="none" xmlns="http://www.w3.org/2000/svg">
<rect width="1000" height="1000" rx="64" fill="#041811"/>
<path d="M328.655 428.699C329.076 371.36 351.816 316.439 392.051 275.585H391.977L236.638 430.924H236.712C236.134 431.379 235.589 431.874 235.081 432.407C197.303 470.136 174.398 520.224 170.571 573.478C166.744 626.732 182.251 679.58 214.246 722.324L371.142 565.428L372.773 563.87C343.531 524.929 328.016 477.394 328.655 428.699V428.699Z" fill="#0C8C5E"/>
<path d="M705.844 589.451C676.112 618.588 638.793 638.785 598.139 647.739C557.485 656.693 515.133 654.044 475.912 640.094C455 632.671 435.347 622.094 417.632 608.73L416.001 610.361L259.104 767.183C301.865 799.098 354.685 814.556 407.905 810.73C461.126 806.904 511.191 784.05 548.947 746.347L550.504 744.79L705.844 589.451Z" fill="#0C8C5E"/>
<path d="M772.428 430.924V209H550.505C521.359 208.971 492.494 214.701 465.569 225.86C438.644 237.019 414.189 253.389 393.609 274.028L392.051 275.585C364.925 303.124 345.516 337.312 335.773 374.72C353.41 370.153 371.535 367.738 389.753 367.528C438.45 366.954 485.971 382.491 524.924 411.72C559.933 437.828 586.429 473.715 601.073 514.859C615.998 556.911 617.961 602.475 606.709 645.655C644.123 635.929 678.315 616.518 705.844 589.377L707.401 587.894C728.049 567.305 744.423 542.838 755.583 515.9C766.742 488.961 772.467 460.082 772.428 430.924V430.924Z" fill="#18E299"/>
</svg>
