<svg
  width="19"
  height="19"
  viewBox="0 0 19 19"
  fill="none"
  xmlns="http://www.w3.org/2000/svg"
>
  <path
    d="M18.367 7.28888V1.59755C18.367 0.986819 17.8715 0.5 17.2699 0.5H11.5812C10.6877 0.5 9.80295 0.677018 8.98017 1.01336C8.15738 1.35856 7.40539 1.85424 6.77724 2.49152L6.733 2.53578C5.90137 3.37664 5.30862 4.42108 5.00781 5.57174C5.54749 5.43012 6.10483 5.35931 6.6622 5.35046C8.14852 5.33276 9.60831 5.81073 10.7938 6.7047C11.8643 7.50131 12.6783 8.59885 13.1206 9.86458C13.5807 11.148 13.6337 12.5465 13.2887 13.8653C14.43 13.5644 15.4828 12.9714 16.3233 12.1393L16.3675 12.0951C16.9957 11.4667 17.4999 10.7143 17.845 9.89114C18.19 9.06797 18.3581 8.18285 18.3581 7.28888H18.367Z"
    fill="#18E299"
  />
  <path
    d="M4.83793 7.193C4.84674 5.44706 5.54303 3.77167 6.76814 2.51953L2.03511 7.25472C2.01749 7.27236 1.99985 7.28117 1.98222 7.29881C0.827615 8.44513 0.131342 9.97945 0.0167623 11.6019C-0.0890033 13.1186 0.307609 14.6176 1.15373 15.8698C1.23444 15.9892 1.45343 16.0285 1.57682 15.9139L4.47656 13.0216C5.38438 12.1134 5.66643 10.7642 5.23455 9.55618C4.96132 8.80666 4.82912 8.00424 4.83793 7.193Z"
    fill="#0C8C5E"
  />
  <path
    d="M16.341 12.0938C15.4332 12.9844 14.2962 13.6016 13.0623 13.875C11.8195 14.1483 10.5327 14.0689 9.33405 13.6457C9.33405 13.6457 9.32522 13.6457 9.31641 13.6457C8.10892 13.2136 6.76042 13.4958 5.8526 14.3952L2.95282 17.2875C2.82943 17.4109 2.84706 17.6137 2.99689 17.7107C4.24845 18.5484 5.74683 18.954 7.26281 18.8482C8.88455 18.7336 10.4093 18.037 11.5639 16.8818L11.608 16.8378L16.341 12.1026V12.0938Z"
    fill="#0C8C5E"
  />
</svg>