<svg xmlns="http://www.w3.org/2000/svg" preserveAspectRatio="xMidYMid" viewBox="0 0 512 164"><path d="M216.86596 28.29584h11.17355l4.60996 16.67157 1.5817 6.50523h.28975l1.56224-6.50523 4.63159-16.67157h11.17354v47.04411h-9.01019v-14.5633l.00564-.75943c.078-5.56738.94674-16.2405 1.42146-21.09363h-.21623l-3.611 12.62686-3.66288 11.3323h-5.16783l-3.72668-11.3323-3.36774-12.62686h-.24974l.11481 1.12505c.54159 5.4948 1.31229 15.79205 1.31229 20.728v14.56331h-8.86424v-47.0441Zm44.52704 38.1169h10.9919V37.22346H261.393v-8.92795h32.6341v8.92795h-10.98868v29.18928h10.98867v8.92795H261.393v-8.92795Zm41.62591 3.0002 6.11383-7.31245c3.55802 2.91223 7.94851 4.90918 12.51198 4.90918 4.52024 0 6.60791-1.7495 6.60791-4.04902 0-3.3877-2.79798-4.2068-7.25118-6.07084l-6.1322-2.61614c-5.21432-1.98075-9.97673-5.9779-9.97673-12.8257 0-7.79115 7.02198-14.01867 17.2506-14.01867 5.66084 0 11.38113 2.1223 15.63108 6.15944l-5.36676 6.71164c-3.31585-2.3795-6.24897-3.67514-10.84812-3.67514-3.50721 0-5.88895 1.4545-5.88895 4.2014 0 2.8301 3.15475 3.8664 7.66958 5.55754l5.75813 2.43892c6.16464 2.30925 10.05457 6.15188 10.05457 12.79112 0 7.82033-6.56358 14.5914-18.21499 14.5914-6.36032 0-12.92822-2.32547-17.91875-6.79268Zm56.03682-32.18947h-14.11099v-8.92795h38.87333v8.92795h-14.10882V75.3407h-10.65352V37.22347Zm42.6811-.47773h5.19378c5.59488 0 8.5972 1.56147 8.5972 6.20699 0 4.60553-3.00232 7.01312-8.5972 7.01312h-5.19378V36.74574Zm26.49325 38.59486L417.5852 56.5197c5.02512-2.27143 8.38745-6.65436 8.38745-13.56698 0-11.08097-8.04146-14.58726-17.8764-14.65628l-17.03348-.00104V75.3406h10.67405V58.41617h5.59164l8.9864 16.92443h11.9152Zm17.68188-19.48406 1.11357-4.3343 3.65208-15.17168h.28867c.80853 3.54592 1.77096 7.37027 2.6895 10.97802l2.17453 8.52796h-9.91835Zm14.88941 19.4833H472.096l-14.6602-47.0441h-12.76822l-14.66021 47.0441h10.90001l2.87367-11.1875h14.16612l2.8542 11.1875Zm19.61538-47.044h10.6319v38.11724h20.95134v8.92687h-31.58324v-47.0441ZM229.23751 131.32636l1.11357-4.3343 3.65208-15.17277h.28866c.80854 3.54593 1.77097 7.37083 2.68951 10.9789l2.17452 8.52817h-9.91834Zm14.88508 19.50167h11.29896l-14.66561-47.06356H227.9823l-14.66561 47.06356h10.90434l2.87582-11.19398h14.17045l2.85528 11.19398Zm17.2704-8.94546h10.99192v-29.19036H261.393v-8.92795h32.6341v8.92795h-10.98868v29.19036h10.98867v8.92796H261.393v-8.92796Zm42.10623 13.60999h34.86665v8.10852h-34.86665v-8.10852ZM122.92521 0h30.7313v30.7313h-30.7313z"/><path fill="#F7D046" d="M138.29087 0h30.7313v30.7313h-30.7313z"/><path d="M0 0h30.7313v30.7313H0zM0 30.7313h30.7313v30.7313H0zM0 61.46261h30.7313v30.7313H0zM0 92.19391h30.7313v30.7313H0zM0 122.92521h30.7313v30.7313H0z"/><path fill="#F7D046" d="M15.36565 0h30.7313v30.7313h-30.7313z"/><path fill="#F2A73B" d="M138.29087 30.7313h30.7313v30.7313h-30.7313zM15.36565 30.7313h30.7313v30.7313h-30.7313z"/><path d="M92.19391 30.7313h30.7313v30.7313h-30.7313z"/><path fill="#F2A73B" d="M107.55956 30.7313h30.7313v30.7313h-30.7313zM46.09696 30.7313h30.7313v30.7313h-30.7313z"/><path fill="#EE792F" d="M76.82826 61.46261h30.7313v30.7313h-30.7313zM107.55956 61.46261h30.7313v30.7313h-30.7313zM46.09696 61.46261h30.7313v30.7313h-30.7313z"/><path d="M61.46261 92.19391h30.7313v30.7313h-30.7313z"/><path fill="#EB5829" d="M76.82826 92.19391h30.7313v30.7313h-30.7313z"/><path fill="#EE792F" d="M138.29087 61.46261h30.7313v30.7313h-30.7313zM15.36565 61.46261h30.7313v30.7313h-30.7313z"/><path d="M122.92521 92.19391h30.7313v30.7313h-30.7313z"/><path fill="#EB5829" d="M138.29087 92.19391h30.7313v30.7313h-30.7313z"/><path d="M122.92521 122.92521h30.7313v30.7313h-30.7313z"/><path fill="#EB5829" d="M15.36565 92.19391h30.7313v30.7313h-30.7313z"/><path fill="#EA3326" d="M138.29087 122.92521h30.7313v30.7313h-30.7313zM15.36565 122.92521h30.7313v30.7313h-30.7313z"/></svg>