<svg width="1920" height="286" viewBox="0 0 1920 286" fill="none" xmlns="http://www.w3.org/2000/svg">
<g clip-path="url(#clip0_4242_332)">
<path d="M130.177 244.825V187.476C130.177 147.204 76.433 133.029 56.346 168.031L36.6764 202.282C31.1729 211.877 18.7551 215.095 9.1984 209.29C-0.0205259 203.704 -2.58354 191.444 2.76104 182.106L95.8641 19.9701C115.951 -15.0117 169.695 -0.857112 169.695 39.4353V97.0011C169.695 137.254 223.419 151.428 243.526 116.486L299.099 19.8517C319.204 -15.1104 372.928 -0.936071 372.928 39.3364V97.3171C372.928 137.57 426.612 151.744 446.741 116.822L466.885 81.8595C472.408 72.2849 484.826 69.067 494.365 74.8907C503.583 80.517 506.127 92.7567 500.761 102.094L407.221 264.468C387.095 299.391 333.41 285.216 333.41 244.963V187.18C333.41 146.927 279.686 132.753 259.579 167.695L204.008 264.329C183.901 299.291 130.177 285.116 130.177 244.845V244.825Z" fill="#0D0D0D"/>
<path d="M909.312 0H907.542C896.172 0 885.862 6.69 881.232 17.08L799.352 200.73C796.012 208.21 785.402 208.22 782.052 200.73L699.812 17.03C695.172 6.68 684.872 0 673.522 0H671.322C655.412 0 642.512 12.9 642.512 28.81V271.19C642.512 276.42 646.752 280.66 651.982 280.66H679.072C684.302 280.66 688.542 276.42 688.542 271.19V132.81C688.542 122.59 702.492 119.61 706.662 128.94L768.202 266.47C772.072 275.11 780.652 280.67 790.112 280.67H790.872C800.352 280.67 808.942 275.09 812.802 266.43L873.942 129.15C878.102 119.81 892.072 122.78 892.072 133V271.19C892.072 276.42 896.312 280.66 901.542 280.66H928.632C933.862 280.66 938.102 276.42 938.102 271.19V28.81C938.102 12.9 925.202 0 909.292 0H909.312Z" fill="#0D0D0D"/>
<path d="M1138.82 68.65C1121.59 59.23 1102.33 54.52 1081.07 54.52C1059.81 54.52 1040.55 59.23 1023.32 68.65C1006.09 78.08 992.491 91.54 982.531 109.03C972.571 126.53 967.591 146.59 967.591 169.2C967.591 191.81 972.441 212.21 982.131 229.57C991.821 246.94 1005.15 260.4 1022.11 269.95C1039.07 279.51 1058.05 284.29 1079.05 284.29C1100.05 284.29 1119.77 279.51 1137.4 269.95C1155.03 260.4 1168.96 246.87 1179.2 229.36C1189.43 211.86 1194.55 191.8 1194.55 169.19C1194.55 146.58 1189.56 126.52 1179.61 109.02C1169.65 91.52 1156.05 78.06 1138.82 68.64V68.65ZM1137.6 210.4C1131.14 221.71 1122.72 230.19 1112.36 235.84C1101.99 241.49 1090.89 244.32 1079.04 244.32C1060.46 244.32 1045.05 237.8 1032.8 224.73C1020.55 211.68 1014.43 193.17 1014.43 169.2C1014.43 153.05 1017.39 139.39 1023.31 128.21C1029.23 117.04 1037.24 108.62 1047.34 102.97C1057.44 97.32 1068.4 94.49 1080.25 94.49C1092.1 94.49 1103.13 97.32 1113.37 102.97C1123.6 108.62 1131.81 117.04 1138 128.21C1144.19 139.38 1147.29 153.05 1147.29 169.2C1147.29 185.35 1144.06 199.08 1137.6 210.39V210.4Z" fill="#0D0D0D"/>
<path d="M1325.78 93.29C1339.24 93.29 1350.41 96.39 1359.3 102.58C1366.7 107.74 1372.42 114.58 1376.46 123.11C1378.02 126.41 1381.44 128.43 1385.09 128.43H1415.34C1421.93 128.43 1426.64 121.84 1424.27 115.69C1417.49 98.1 1406.94 84.11 1392.62 73.71C1374.98 60.93 1352.71 54.53 1325.79 54.53C1304.52 54.53 1285.67 59.24 1269.25 68.66C1252.83 78.09 1239.97 91.48 1230.68 108.84C1221.39 126.21 1216.75 146.33 1216.75 169.21C1216.75 192.09 1221.39 212.22 1230.68 229.58C1239.97 246.95 1252.82 260.41 1269.25 269.96C1285.67 279.52 1304.52 284.3 1325.79 284.3C1352.17 284.3 1374.25 277.64 1392.02 264.31C1406.17 253.7 1416.73 240.15 1423.71 223.65C1426.37 217.37 1421.83 210.39 1415.01 210.39H1384.99C1381.26 210.39 1377.95 212.62 1376.36 216C1367.08 235.68 1350.23 245.52 1325.8 245.52C1306.95 245.52 1291.94 238.79 1280.77 225.33C1269.59 211.87 1264.01 193.16 1264.01 169.2C1264.01 145.24 1269.59 126.6 1280.77 113.27C1291.94 99.94 1306.95 93.28 1325.8 93.28H1325.78V93.29Z" fill="#0D0D0D"/>
<path d="M1618.76 65.42C1605.43 58.15 1590.29 54.52 1573.33 54.52C1559.06 54.52 1545.93 57.08 1533.96 62.19C1528.61 64.47 1523.68 67.18 1519.17 70.32C1512.88 74.7 1504.28 70.23 1504.28 62.56V9.47C1504.28 4.24 1500.04 0 1494.81 0H1467.72C1462.49 0 1458.25 4.24 1458.25 9.47V271.19C1458.25 276.42 1462.49 280.66 1467.72 280.66H1494.81C1500.04 280.66 1504.28 276.42 1504.28 271.19V156.28C1504.28 136.36 1509.33 121.08 1519.42 110.44C1529.52 99.81 1543.18 94.49 1560.41 94.49C1577.64 94.49 1591.23 99.81 1601.2 110.44C1611.16 121.08 1616.14 136.36 1616.14 156.28V271.19C1616.14 276.42 1620.38 280.66 1625.61 280.66H1652.29C1657.52 280.66 1661.76 276.42 1661.76 271.19V149.42C1661.76 129.23 1657.92 112 1650.25 97.73C1642.58 83.46 1632.08 72.69 1618.75 65.42H1618.76Z" fill="#0D0D0D"/>
<path d="M1910.74 58.15H1883.25C1878.02 58.15 1873.78 62.39 1873.78 67.62C1873.78 75.52 1864.7 79.94 1858.47 75.07C1853.67 71.31 1848.34 67.89 1842.48 64.81C1829.42 57.95 1814.14 54.51 1796.65 54.51C1777.27 54.51 1759.56 59.29 1743.55 68.85C1727.53 78.41 1714.88 91.81 1705.59 109.03C1696.3 126.26 1691.66 146.05 1691.66 168.39C1691.66 190.73 1696.31 210.73 1705.59 228.36C1714.88 246 1727.46 259.73 1743.35 269.55C1759.23 279.38 1776.73 284.29 1795.85 284.29C1813.07 284.29 1828.42 280.79 1841.89 273.79C1847.99 270.62 1853.51 267.09 1858.45 263.19C1864.67 258.29 1873.79 262.69 1873.79 270.61V271.18C1873.79 276.41 1878.03 280.65 1883.26 280.65H1910.75C1915.98 280.65 1920.22 276.41 1920.22 271.18V67.63C1920.22 62.4 1915.98 58.16 1910.75 58.16H1910.74V58.15ZM1864.29 209.39C1857.96 220.84 1849.68 229.52 1839.45 235.44C1829.22 241.37 1818.18 244.32 1806.34 244.32C1794.5 244.32 1783.79 241.29 1773.43 235.23C1763.06 229.17 1754.71 220.36 1748.39 208.78C1742.06 197.21 1738.9 183.74 1738.9 168.4C1738.9 153.06 1742.06 139.8 1748.39 128.62C1754.71 117.45 1762.99 108.97 1773.22 103.18C1783.45 97.39 1794.48 94.5 1806.34 94.5C1818.2 94.5 1829.22 97.46 1839.45 103.38C1849.68 109.3 1857.96 117.92 1864.29 129.22C1870.61 140.53 1873.78 153.85 1873.78 169.2C1873.78 184.55 1870.61 197.94 1864.29 209.38V209.39Z" fill="#0D0D0D"/>
</g>
<defs>
<clipPath id="clip0_4242_332">
<rect width="1920" height="285.29" fill="white" transform="translate(0.00146484)"/>
</clipPath>
</defs>
</svg>
