<svg width="1920" height="1084" viewBox="0 0 1920 1084" fill="none" xmlns="http://www.w3.org/2000/svg">
<path d="M496.36 933.523V714.851C496.36 561.292 291.434 507.245 214.842 640.706L139.842 771.307C118.857 807.89 71.5077 820.16 35.068 798.029C-0.0838509 776.726 -9.85666 729.981 10.5223 694.376L365.525 76.149C442.117 -57.2368 647.043 -3.26524 647.043 150.37V369.869C647.043 523.353 851.893 577.4 928.56 444.165L1140.46 75.6974C1217.12 -57.6133 1421.97 -3.56631 1421.97 149.993V371.074C1421.97 524.558 1626.67 578.605 1703.42 445.445L1780.23 312.134C1801.29 275.626 1848.64 263.356 1885.01 285.562C1920.16 307.015 1929.86 353.685 1909.4 389.29L1552.73 1008.42C1475.99 1141.58 1271.29 1087.53 1271.29 934.05V713.722C1271.29 560.238 1066.44 506.191 989.773 639.426L777.877 1007.89C701.21 1141.2 496.36 1087.15 496.36 933.598V933.523Z" fill="white"/>
</svg>
