<svg width="1920" height="286" viewBox="0 0 1920 286" fill="none" xmlns="http://www.w3.org/2000/svg">
<g clip-path="url(#clip0_4242_323)">
<path d="M130.177 245.535V188.186C130.177 147.914 76.433 133.739 56.346 168.741L36.6764 202.992C31.1729 212.587 18.7551 215.804 9.1984 210C-0.0205259 204.413 -2.58354 192.154 2.76104 182.816L95.8641 20.6801C115.951 -14.3018 169.695 -0.147151 169.695 40.1452V97.7111C169.695 137.964 223.419 152.138 243.526 117.196L299.099 20.5616C319.204 -14.4005 372.928 -0.22611 372.928 40.0464V98.0271C372.928 138.28 426.612 152.454 446.741 117.532L466.885 82.5695C472.408 72.9949 484.826 69.777 494.365 75.6007C503.583 81.227 506.127 93.4667 500.761 102.804L407.221 265.178C387.095 300.101 333.41 285.926 333.41 245.673V187.89C333.41 147.637 279.686 133.463 259.579 168.405L204.008 265.039C183.901 300.001 130.177 285.826 130.177 245.555V245.535Z" fill="white"/>
<path d="M909.312 0.709961H907.542C896.172 0.709961 885.862 7.39996 881.232 17.79L799.352 201.44C796.012 208.92 785.402 208.93 782.052 201.44L699.812 17.74C695.172 7.38996 684.872 0.709961 673.522 0.709961H671.322C655.412 0.709961 642.512 13.61 642.512 29.52V271.9C642.512 277.13 646.752 281.37 651.982 281.37H679.072C684.302 281.37 688.542 277.13 688.542 271.9V133.52C688.542 123.3 702.492 120.32 706.662 129.65L768.202 267.18C772.072 275.82 780.652 281.38 790.112 281.38H790.872C800.352 281.38 808.942 275.8 812.802 267.14L873.942 129.86C878.102 120.52 892.072 123.49 892.072 133.71V271.9C892.072 277.13 896.312 281.37 901.542 281.37H928.632C933.862 281.37 938.102 277.13 938.102 271.9V29.52C938.102 13.61 925.202 0.709961 909.292 0.709961H909.312Z" fill="white"/>
<path d="M1138.82 69.36C1121.59 59.94 1102.33 55.23 1081.07 55.23C1059.81 55.23 1040.55 59.94 1023.32 69.36C1006.09 78.79 992.491 92.25 982.531 109.74C972.571 127.24 967.591 147.3 967.591 169.91C967.591 192.52 972.441 212.92 982.131 230.28C991.821 247.65 1005.15 261.11 1022.11 270.66C1039.07 280.22 1058.05 285 1079.05 285C1100.05 285 1119.77 280.22 1137.4 270.66C1155.03 261.11 1168.96 247.58 1179.2 230.07C1189.43 212.57 1194.55 192.51 1194.55 169.9C1194.55 147.29 1189.56 127.23 1179.61 109.73C1169.65 92.23 1156.05 78.77 1138.82 69.35V69.36ZM1137.6 211.11C1131.14 222.42 1122.72 230.9 1112.36 236.55C1101.99 242.2 1090.89 245.03 1079.04 245.03C1060.46 245.03 1045.05 238.51 1032.8 225.44C1020.55 212.39 1014.43 193.88 1014.43 169.91C1014.43 153.76 1017.39 140.1 1023.31 128.92C1029.23 117.75 1037.24 109.33 1047.34 103.68C1057.44 98.03 1068.4 95.2 1080.25 95.2C1092.1 95.2 1103.13 98.03 1113.37 103.68C1123.6 109.33 1131.81 117.75 1138 128.92C1144.19 140.09 1147.29 153.76 1147.29 169.91C1147.29 186.06 1144.06 199.79 1137.6 211.1V211.11Z" fill="white"/>
<path d="M1325.78 94C1339.24 94 1350.41 97.1 1359.3 103.29C1366.7 108.45 1372.42 115.29 1376.46 123.82C1378.02 127.12 1381.44 129.14 1385.09 129.14H1415.34C1421.93 129.14 1426.64 122.55 1424.27 116.4C1417.49 98.81 1406.94 84.82 1392.62 74.42C1374.98 61.64 1352.71 55.24 1325.79 55.24C1304.52 55.24 1285.67 59.95 1269.25 69.37C1252.83 78.8 1239.97 92.19 1230.68 109.55C1221.39 126.92 1216.75 147.04 1216.75 169.92C1216.75 192.8 1221.39 212.93 1230.68 230.29C1239.97 247.66 1252.82 261.12 1269.25 270.67C1285.67 280.23 1304.52 285.01 1325.79 285.01C1352.17 285.01 1374.25 278.35 1392.02 265.02C1406.17 254.41 1416.73 240.86 1423.71 224.36C1426.37 218.08 1421.83 211.1 1415.01 211.1H1384.99C1381.26 211.1 1377.95 213.33 1376.36 216.71C1367.08 236.39 1350.23 246.23 1325.8 246.23C1306.95 246.23 1291.94 239.5 1280.77 226.04C1269.59 212.58 1264.01 193.87 1264.01 169.91C1264.01 145.95 1269.59 127.31 1280.77 113.98C1291.94 100.65 1306.95 93.99 1325.8 93.99H1325.78V94Z" fill="white"/>
<path d="M1618.76 66.13C1605.43 58.86 1590.29 55.23 1573.33 55.23C1559.06 55.23 1545.93 57.79 1533.96 62.9C1528.61 65.18 1523.68 67.89 1519.17 71.03C1512.88 75.41 1504.28 70.94 1504.28 63.27V10.18C1504.28 4.94996 1500.04 0.709961 1494.81 0.709961H1467.72C1462.49 0.709961 1458.25 4.94996 1458.25 10.18V271.9C1458.25 277.13 1462.49 281.37 1467.72 281.37H1494.81C1500.04 281.37 1504.28 277.13 1504.28 271.9V156.99C1504.28 137.07 1509.33 121.79 1519.42 111.15C1529.52 100.52 1543.18 95.2 1560.41 95.2C1577.64 95.2 1591.23 100.52 1601.2 111.15C1611.16 121.79 1616.14 137.07 1616.14 156.99V271.9C1616.14 277.13 1620.38 281.37 1625.61 281.37H1652.29C1657.52 281.37 1661.76 277.13 1661.76 271.9V150.13C1661.76 129.94 1657.92 112.71 1650.25 98.44C1642.58 84.17 1632.08 73.4 1618.75 66.13H1618.76Z" fill="white"/>
<path d="M1910.74 58.86H1883.25C1878.02 58.86 1873.78 63.1 1873.78 68.33C1873.78 76.23 1864.7 80.65 1858.47 75.78C1853.67 72.02 1848.34 68.6 1842.48 65.52C1829.42 58.66 1814.14 55.22 1796.65 55.22C1777.27 55.22 1759.56 60 1743.55 69.56C1727.53 79.12 1714.88 92.52 1705.59 109.74C1696.3 126.97 1691.66 146.76 1691.66 169.1C1691.66 191.44 1696.31 211.44 1705.59 229.07C1714.88 246.71 1727.46 260.44 1743.35 270.26C1759.23 280.09 1776.73 285 1795.85 285C1813.07 285 1828.42 281.5 1841.89 274.5C1847.99 271.33 1853.51 267.8 1858.45 263.9C1864.67 259 1873.79 263.4 1873.79 271.32V271.89C1873.79 277.12 1878.03 281.36 1883.26 281.36H1910.75C1915.98 281.36 1920.22 277.12 1920.22 271.89V68.34C1920.22 63.11 1915.98 58.87 1910.75 58.87H1910.74V58.86ZM1864.29 210.1C1857.96 221.55 1849.68 230.23 1839.45 236.15C1829.22 242.08 1818.18 245.03 1806.34 245.03C1794.5 245.03 1783.79 242 1773.43 235.94C1763.06 229.88 1754.71 221.07 1748.39 209.49C1742.06 197.92 1738.9 184.45 1738.9 169.11C1738.9 153.77 1742.06 140.51 1748.39 129.33C1754.71 118.16 1762.99 109.68 1773.22 103.89C1783.45 98.1 1794.48 95.21 1806.34 95.21C1818.2 95.21 1829.22 98.17 1839.45 104.09C1849.68 110.01 1857.96 118.63 1864.29 129.93C1870.61 141.24 1873.78 154.56 1873.78 169.91C1873.78 185.26 1870.61 198.65 1864.29 210.09V210.1Z" fill="white"/>
</g>
<defs>
<clipPath id="clip0_4242_323">
<rect width="1920" height="285.29" fill="white" transform="translate(0.00146484 0.709961)"/>
</clipPath>
</defs>
</svg>
