<svg fill="#ffffff" fill-rule="nonzero" height="1em" style="flex:none;line-height:1" viewBox="0 0 335 24" xmlns="http://www.w3.org/2000/svg"><title>ModelContextProtocol</title><path d="M2 .292h4.736l6.341 15.503h.25L19.67.292h4.736v21.394H20.69V6.99h-.198L14.59 21.624h-2.775L5.911 6.957h-.198v14.73H2V.291zM35.44 22c-1.565 0-2.92-.345-4.068-1.034-1.148-.69-2.038-1.654-2.67-2.894-.626-1.24-.939-2.688-.939-4.345 0-1.658.313-3.11.939-4.357.632-1.246 1.522-2.214 2.67-2.904 1.147-.69 2.503-1.034 4.068-1.034 1.564 0 2.92.345 4.068 1.034 1.147.69 2.033 1.658 2.66 2.904.632 1.247.949 2.7.949 4.357s-.317 3.105-.95 4.345c-.626 1.24-1.512 2.204-2.66 2.894C38.36 21.656 37.005 22 35.44 22zm.02-3.03c.849 0 1.558-.233 2.129-.7.57-.473.994-1.107 1.272-1.9.285-.795.427-1.68.427-2.654 0-.982-.142-1.87-.427-2.664-.278-.8-.703-1.438-1.272-1.911-.57-.474-1.28-.71-2.128-.71-.87 0-1.593.236-2.17.71-.57.473-.998 1.11-1.283 1.911-.278.794-.417 1.682-.417 2.664 0 .975.14 1.86.417 2.653.285.794.713 1.428 1.283 1.901.577.467 1.3.7 2.17.7zm16.806 2.998c-1.258 0-2.384-.323-3.379-.97-.994-.649-1.78-1.589-2.357-2.822-.577-1.232-.866-2.73-.866-4.491 0-1.783.292-3.287.876-4.513.591-1.233 1.387-2.163 2.389-2.79 1.001-.633 2.117-.95 3.348-.95.938 0 1.71.16 2.315.48.605.314 1.085.694 1.44 1.14.355.438.63.852.824 1.242h.156V.292h3.786v21.394h-3.713V19.16h-.23c-.194.39-.476.804-.844 1.243-.369.431-.855.8-1.46 1.107-.605.306-1.367.46-2.285.46zm1.054-3.102c.8 0 1.481-.216 2.044-.648.564-.438.991-1.048 1.283-1.828.292-.78.438-1.688.438-2.726s-.146-1.94-.438-2.706c-.285-.766-.71-1.361-1.272-1.786-.556-.425-1.242-.637-2.055-.637-.842 0-1.544.219-2.107.658-.563.438-.987 1.044-1.272 1.817-.286.774-.428 1.658-.428 2.654 0 1.003.142 1.897.428 2.685.291.78.72 1.396 1.282 1.849.57.445 1.27.668 2.097.668zM71.915 22c-1.607 0-2.994-.334-4.162-1.003-1.161-.676-2.055-1.63-2.68-2.862-.626-1.24-.94-2.699-.94-4.377 0-1.65.314-3.1.94-4.346.632-1.253 1.515-2.228 2.649-2.925 1.133-.703 2.465-1.055 3.994-1.055.988 0 1.92.16 2.796.48.883.314 1.662.801 2.336 1.463.682.662 1.217 1.504 1.606 2.528.39 1.017.585 2.229.585 3.635v1.16H65.907v-2.549h9.512c-.007-.724-.163-1.368-.47-1.932a3.416 3.416 0 00-1.282-1.348c-.543-.327-1.175-.491-1.899-.491-.771 0-1.45.188-2.033.564-.584.37-1.04.857-1.367 1.463a4.209 4.209 0 00-.49 1.974v2.225c0 .933.17 1.734.511 2.402.341.662.817 1.17 1.429 1.526.612.348 1.328.522 2.149.522a4.56 4.56 0 001.491-.23c.445-.16.831-.393 1.158-.7a2.92 2.92 0 00.74-1.138l3.526.397a5.505 5.505 0 01-1.273 2.444c-.618.69-1.41 1.226-2.377 1.609-.967.376-2.073.564-3.317.564zM86.009.292v21.394h-3.776V.293h3.776zm29.619 7.219h-3.901a4.862 4.862 0 00-.615-1.703 4.578 4.578 0 00-1.116-1.274 4.652 4.652 0 00-1.523-.784 5.934 5.934 0 00-1.826-.271c-1.161 0-2.19.292-3.087.877-.897.578-1.599 1.428-2.107 2.549-.507 1.114-.761 2.476-.761 4.084 0 1.637.254 3.016.761 4.137.515 1.114 1.217 1.957 2.107 2.528.897.564 1.923.846 3.077.846.64 0 1.238-.083 1.794-.25a4.914 4.914 0 001.513-.763 4.653 4.653 0 001.783-2.904l3.901.02a8.414 8.414 0 01-.949 2.863 8.436 8.436 0 01-1.888 2.361 8.709 8.709 0 01-2.733 1.588c-1.043.376-2.2.564-3.473.564-1.877 0-3.553-.435-5.027-1.306-1.475-.87-2.636-2.127-3.484-3.771-.849-1.643-1.272-3.614-1.272-5.913 0-2.305.427-4.276 1.282-5.912.855-1.644 2.02-2.9 3.494-3.771C103.052.436 104.721 0 106.585 0c1.189 0 2.295.167 3.317.501a8.499 8.499 0 012.733 1.473 7.85 7.85 0 011.971 2.361c.521.926.862 1.985 1.022 3.176zM125.993 22c-1.564 0-2.92-.345-4.068-1.034-1.147-.69-2.037-1.654-2.67-2.894-.626-1.24-.938-2.688-.938-4.345 0-1.658.312-3.11.938-4.357.633-1.246 1.523-2.214 2.67-2.904 1.148-.69 2.504-1.034 4.068-1.034 1.565 0 2.921.345 4.068 1.034 1.147.69 2.034 1.658 2.66 2.904.632 1.247.949 2.7.949 4.357s-.317 3.105-.949 4.345c-.626 1.24-1.513 2.204-2.66 2.894-1.147.69-2.503 1.034-4.068 1.034zm.021-3.03c.848 0 1.558-.233 2.128-.7.57-.473.994-1.107 1.272-1.9.285-.795.428-1.68.428-2.654 0-.982-.143-1.87-.428-2.664-.278-.8-.702-1.438-1.272-1.911-.57-.474-1.28-.71-2.128-.71-.869 0-1.592.236-2.169.71-.571.473-.998 1.11-1.283 1.911-.278.794-.418 1.682-.418 2.664 0 .975.14 1.86.418 2.653.285.794.712 1.428 1.283 1.901.577.467 1.3.7 2.169.7zm14.637-6.685v9.401h-3.776V5.641h3.608v2.726h.188a4.585 4.585 0 011.763-2.141c.813-.53 1.819-.794 3.015-.794 1.105 0 2.068.237 2.889.71.827.474 1.467 1.16 1.919 2.058.459.899.685 1.989.678 3.27v10.216h-3.776v-9.631c0-1.072-.278-1.912-.835-2.518-.549-.605-1.31-.908-2.284-.908-.66 0-1.248.146-1.762.438-.508.286-.908.7-1.2 1.243-.285.544-.427 1.202-.427 1.975zm22.122-6.644v2.925h-9.21V5.641h9.21zm-6.936-3.844h3.776V16.86c0 .509.076.899.229 1.17.16.265.369.446.626.544.257.097.542.146.855.146a3.7 3.7 0 00.647-.052c.202-.035.355-.067.459-.094l.636 2.956c-.201.07-.49.146-.865.23a7.124 7.124 0 01-1.356.146c-.946.028-1.798-.115-2.556-.428a3.973 3.973 0 01-1.804-1.484c-.438-.668-.654-1.504-.647-2.507V1.797zM172.851 22c-1.606 0-2.993-.334-4.161-1.003-1.162-.676-2.055-1.63-2.681-2.862-.626-1.24-.939-2.699-.939-4.377 0-1.65.313-3.1.939-4.346.633-1.253 1.516-2.228 2.649-2.925 1.134-.703 2.465-1.055 3.995-1.055.988 0 1.919.16 2.796.48a6.32 6.32 0 012.336 1.463c.681.662 1.217 1.504 1.606 2.528.39 1.017.584 2.229.584 3.635v1.16h-13.131v-2.549h9.512c-.007-.724-.163-1.368-.469-1.932a3.418 3.418 0 00-1.283-1.348c-.542-.327-1.175-.491-1.898-.491-.772 0-1.45.188-2.034.564a3.88 3.88 0 00-1.367 1.463 4.212 4.212 0 00-.49 1.974v2.225c0 .933.17 1.734.511 2.402.341.662.817 1.17 1.429 1.526.612.348 1.328.522 2.148.522.55 0 1.047-.077 1.492-.23.445-.16.831-.393 1.158-.7.327-.306.574-.686.74-1.138l3.526.397a5.52 5.52 0 01-1.272 2.444c-.619.69-1.412 1.226-2.379 1.609-.966.376-2.072.564-3.317.564zm13.062-16.359l3.233 5.923 3.286-5.923h3.995l-4.83 8.023 4.913 8.022h-3.974l-3.39-5.776-3.358 5.776h-4.006l4.882-8.022-4.757-8.023h4.006zm21.434 0v2.925h-9.21V5.641h9.21zm-6.936-3.844h3.776V16.86c0 .509.076.899.229 1.17.16.265.369.446.626.544a2.4 2.4 0 00.855.146 3.7 3.7 0 00.647-.052c.202-.035.355-.067.459-.094l.636 2.956c-.201.07-.49.146-.866.23-.368.083-.82.132-1.356.146-.945.028-1.797-.115-2.555-.428a3.973 3.973 0 01-1.804-1.484c-.438-.668-.654-1.504-.647-2.507V1.797zm17.546 19.89V.291h8.011c1.641 0 3.018.307 4.13.92 1.12.613 1.965 1.455 2.535 2.528.577 1.065.866 2.277.866 3.635 0 1.372-.289 2.59-.866 3.656-.577 1.066-1.429 1.905-2.555 2.518-1.127.606-2.514.909-4.162.909h-5.309v-3.186h4.787c.96 0 1.745-.168 2.357-.502.612-.334 1.064-.794 1.356-1.379.3-.585.449-1.257.449-2.016 0-.759-.149-1.428-.449-2.006-.292-.578-.747-1.027-1.366-1.347-.612-.327-1.401-.491-2.368-.491h-3.546v18.155h-3.87zm18.736 0V5.64h3.66v2.674h.169c.29-.926.792-1.64 1.502-2.141.716-.509 1.533-.763 2.451-.763.208 0 .44.01.697.032.266.013.484.038.658.073v3.478c-.159-.055-.413-.104-.762-.146a6.967 6.967 0 00-.991-.073c-.689 0-1.307.15-1.857.45-.542.292-.97.699-1.282 1.221-.312.523-.468 1.125-.468 1.808v9.432h-3.777zm17.973.313c-1.563 0-2.919-.345-4.066-1.034-1.147-.69-2.038-1.654-2.671-2.894-.627-1.24-.939-2.688-.939-4.345 0-1.658.312-3.11.939-4.357.633-1.246 1.524-2.214 2.671-2.904 1.147-.69 2.503-1.034 4.066-1.034 1.566 0 2.922.345 4.069 1.034 1.148.69 2.035 1.658 2.659 2.904.633 1.247.948 2.7.948 4.357s-.315 3.105-.948 4.345c-.624 1.24-1.511 2.204-2.659 2.894-1.147.69-2.503 1.034-4.069 1.034zm.021-3.03c.848 0 1.558-.233 2.13-.7.569-.473.994-1.107 1.27-1.9.287-.795.428-1.68.428-2.654 0-.982-.141-1.87-.428-2.664-.276-.8-.701-1.438-1.27-1.911-.572-.474-1.282-.71-2.13-.71-.868 0-1.591.236-2.169.71-.569.473-.997 1.11-1.282 1.911-.278.794-.419 1.682-.419 2.664 0 .975.141 1.86.419 2.653.285.794.713 1.428 1.282 1.901.578.467 1.301.7 2.169.7zM273.55 5.641v2.925h-9.213V5.641h9.213zm-6.936-3.844h3.775V16.86c0 .509.077.899.23 1.17.159.265.367.446.624.544.257.097.541.146.856.146.236 0 .45-.018.646-.052.202-.035.355-.067.459-.094l.636 2.956c-.202.07-.489.146-.866.23-.367.083-.82.132-1.355.146-.945.028-1.799-.115-2.555-.428a3.97 3.97 0 01-1.805-1.484c-.437-.668-.655-1.504-.645-2.507V1.797zM283.524 22c-1.567 0-2.922-.345-4.069-1.034-1.148-.69-2.038-1.654-2.671-2.894-.625-1.24-.94-2.688-.94-4.345 0-1.658.315-3.11.94-4.357.633-1.246 1.523-2.214 2.671-2.904 1.147-.69 2.502-1.034 4.069-1.034 1.563 0 2.919.345 4.066 1.034 1.147.69 2.035 1.658 2.659 2.904.633 1.247.951 2.7.951 4.357s-.318 3.105-.951 4.345c-.624 1.24-1.512 2.204-2.659 2.894-1.147.69-2.503 1.034-4.066 1.034zm.018-3.03c.851 0 1.557-.233 2.13-.7.569-.473.994-1.107 1.272-1.9.285-.795.429-1.68.429-2.654 0-.982-.144-1.87-.429-2.664-.278-.8-.703-1.438-1.272-1.911-.573-.474-1.279-.71-2.13-.71-.869 0-1.591.236-2.169.71-.569.473-.997 1.11-1.282 1.911-.278.794-.416 1.682-.416 2.664 0 .975.138 1.86.416 2.653.285.794.713 1.428 1.282 1.901.578.467 1.3.7 2.169.7zm17.85 3.03c-1.6 0-2.971-.352-4.119-1.055-1.141-.704-2.022-1.675-2.64-2.915-.612-1.246-.918-2.681-.918-4.304 0-1.629.312-3.067.94-4.314.624-1.253 1.508-2.228 2.649-2.925 1.147-.703 2.503-1.055 4.066-1.055 1.301 0 2.454.24 3.454.72 1.007.474 1.812 1.146 2.408 2.017.6.864.94 1.873 1.022 3.03h-3.607a3.477 3.477 0 00-1.043-1.933c-.542-.522-1.27-.784-2.182-.784-.771 0-1.447.21-2.031.627-.585.411-1.041 1.003-1.368 1.776-.318.773-.48 1.7-.48 2.779 0 1.093.162 2.034.48 2.82.321.78.768 1.383 1.346 1.807.585.418 1.27.627 2.053.627.557 0 1.056-.104 1.493-.313a3.018 3.018 0 001.117-.93c.297-.404.502-.895.615-1.473h3.607c-.088 1.135-.422 2.142-1 3.02-.578.87-1.362 1.552-2.356 2.047-.994.487-2.163.731-3.506.731zm16.953 0c-1.567 0-2.922-.345-4.07-1.034-1.147-.69-2.037-1.654-2.667-2.894-.628-1.24-.94-2.688-.94-4.345 0-1.658.312-3.11.94-4.357.63-1.246 1.52-2.214 2.667-2.904 1.148-.69 2.503-1.034 4.07-1.034 1.563 0 2.919.345 4.066 1.034 1.147.69 2.034 1.658 2.662 2.904.63 1.247.948 2.7.948 4.357s-.318 3.105-.948 4.345c-.628 1.24-1.515 2.204-2.662 2.894S319.908 22 318.345 22zm.021-3.03c.848 0 1.557-.233 2.126-.7.57-.473.995-1.107 1.273-1.9.285-.795.429-1.68.429-2.654 0-.982-.144-1.87-.429-2.664-.278-.8-.703-1.438-1.273-1.911-.569-.474-1.278-.71-2.126-.71-.869 0-1.594.236-2.169.71-.572.473-1.001 1.11-1.285 1.911-.279.794-.416 1.682-.416 2.664 0 .975.137 1.86.416 2.653.284.794.713 1.428 1.285 1.901.575.467 1.3.7 2.169.7zM333 .292v21.394h-3.776V.293H333z"></path></svg>