<svg viewBox="0 0 120 60" xmlns="http://www.w3.org/2000/svg" width="120" height="60">
    <path d="M16.147 5.154l1.09 2.05a6.15 6.15 0 0 0 .824 1.024c.913.913 1.782 1.87 2.56 2.895 1.848 2.427 3.095 5.122 3.986 8.04.534 1.782.824 3.608.846 5.456.09 5.523-1.804 10.266-5.634 14.208a16.3 16.3 0 0 1-2.004 1.715c-.38 0-.557-.3-.713-.557-.3-.5-.468-1.047-.557-1.603-.134-.668-.223-1.336-.178-2.027v-.312c-.022-.067-.356-30.732-.223-30.888z" fill="#599636"/>
    <path d="M16.147 5.088c-.045-.09-.09-.022-.134.022.022.445-.134.846-.38 1.225-.267.38-.624.668-.98.98-1.982 1.715-3.54 3.786-4.788 6.102-1.648 3.118-2.516 6.458-2.76 9.977-.11 1.27.4 5.746.802 7.037 1.09 3.43 3.05 6.302 5.6 8.796.624.6 1.292 1.158 1.982 1.692.2 0 .223-.178.267-.312a6.11 6.11 0 0 0 .2-.869c.2-1.113.312-2.227.445-3.34l-.245-31.31z" fill="#6cac48"/>
    <path d="M17.24 41.9c.045-.512.3-.935.557-1.358-.267-.11-.468-.334-.624-.58-.134-.223-.245-.5-.334-.735-.312-.935-.38-1.915-.468-2.873v-.58c-.11.09-.134.846-.134.958-.067 1.024-.2 2.027-.4 3.006-.067.4-.11.802-.356 1.158 0 .045 0 .09.022.156.4 1.18.512 2.383.58 3.608v.445c0 .534-.022.423.423.6.178.067.38.09.557.223.134 0 .156-.11.156-.2l-.067-.735v-2.05c-.022-.356.045-.713.09-1.047z" fill="#c2bfbf"/>
    <g transform="matrix(1.021124 0 0 1.021124 -4.376266 -1.845946)">
        <path d="M37.73 33.72v2.077a1.45 1.45 0 0 0 .014.246c.027.246.178.396.4.465a4.97 4.97 0 0 0 .63.123c.123.014.164.068.178.2.014.465-.027.52-.478.492-1.052-.055-2.105-.068-3.157 0h-.1c-.328.014-.355-.014-.355-.342 0-.055.014-.123.014-.178 0-.1.068-.15.164-.15.22-.027.424-.082.63-.123.287-.068.45-.246.478-.533.04-.314.04-.642.04-.957l.014-3.662a.56.56 0 0 0-.3-.52 3.89 3.89 0 0 0-.78-.328c-.082-.027-.164-.04-.232-.082-.2-.096-.205-.273-.014-.383.068-.04.15-.068.232-.082a12.42 12.42 0 0 0 2.432-.615c.164-.055.205-.04.22.123.014.1 0 .22-.014.314-.027.178-.027.355-.027.52 0 .068.014.137.082.178s.137 0 .2-.04c.287-.22.574-.424.888-.6.45-.246.93-.465 1.45-.533.63-.082 1.175.082 1.654.492a3.1 3.1 0 0 1 .519.601c.137.2.15.205.328.068.52-.383 1.066-.724 1.654-.97.615-.26 1.244-.3 1.872-.082.642.232 1.08.683 1.34 1.298.22.492.314 1 .314 1.53v3.662c0 .246.1.4.342.52.26.1.547.15.82.205.178.04.178.04.178.22-.027.45-.068.478-.506.45a29.42 29.42 0 0 0-3.293 0c-.22.014-.22.014-.232-.205v-.068c-.014-.37-.014-.37.342-.45l.355-.096a.55.55 0 0 0 .424-.533l.04-1.025-.027-2.678a2.13 2.13 0 0 0-.15-.697c-.342-.834-1.093-1.134-1.818-1.052-.547.055-1.025.273-1.476.588-.096.068-.164.15-.15.287.123.875.04 1.75.055 2.624v1.9c0 .342.137.506.465.588l.63.137c.096.014.15.055.15.164v.1c-.014.383-.04.4-.424.396-1.093-.055-2.187-.04-3.266 0-.37.014-.4-.027-.383-.4.014-.22.04-.232.246-.273l.45-.082c.4-.082.547-.232.574-.656l.04-.916-.027-2.747c-.027-.342-.1-.67-.287-.984-.273-.506-.7-.765-1.285-.793-.588-.04-1.107.178-1.6.45-.342.2-.492.437-.465.834v1.995zm25.747.083v1.927a4.13 4.13 0 0 0 .027.41.42.42 0 0 0 .328.383 3.19 3.19 0 0 0 .724.123c.137.014.164.068.178.178v.096c-.014.478-.068.533-.533.506-1.04-.068-2.077-.055-3.116 0l-.4.014c-.082 0-.1-.04-.123-.096a1.39 1.39 0 0 1 0-.574c.014-.082.068-.1.15-.123.2-.027.37-.068.56-.1.342-.082.465-.22.478-.574l.04-1.148v-3.362c0-.246-.096-.396-.314-.506-.246-.137-.506-.232-.78-.328-.082-.027-.164-.055-.232-.096-.178-.123-.2-.3-.027-.437a.49.49 0 0 1 .273-.11c.875-.137 1.722-.328 2.542-.656.096-.04.137-.014.178.068s.055.178.04.273l-.04.642c0 .082-.04.2.027.232.082.055.137-.068.205-.1a6.09 6.09 0 0 1 1.326-.847c.424-.2.86-.328 1.353-.3.916.055 1.572.52 1.995 1.326.22.424.314.888.355 1.367l.04 1 .014 3.02c.014.232.096.383.328.465a4.47 4.47 0 0 0 .738.178c.22.027.232.068.246.273v.068c-.027.465-.055.478-.52.45a28.59 28.59 0 0 0-3.061 0c-.137.014-.273 0-.4.014-.082 0-.137-.014-.15-.096-.027-.178-.055-.355-.014-.547.014-.082.055-.123.15-.137l.63-.1c.22-.055.342-.2.37-.4l.027-.383-.014-2.856c0-.328-.014-.656-.082-.984-.164-.7-.697-1.2-1.42-1.27-.63-.068-1.2.096-1.722.437-.26.164-.37.396-.37.683v2.064c0-.04 0-.04.014-.04z" fill="#47474a"/>
        <path d="M103.503 29.935c-.15-.998-.52-1.886-1.162-2.665a5.27 5.27 0 0 0-2.105-1.558c-.86-.355-1.777-.465-2.706-.492-.383-.014-5.603.068-5.986 0-.096-.014-.164.014-.22.096-.068.1-.137.205-.178.314-.164.37-.164.342.232.396.328.055.642.082.957.178.287.096.492.26.56.574.027.15.055 4.96.055 7.202l-.055 1.6c-.014.123-.027.246-.068.355-.055.164-.15.3-.314.37a1.62 1.62 0 0 1-.574.15c-.37.04-.424.055-.547.465l-.04.15c-.027.178-.014.205.164.205l4.086.04 1.6-.027 1.107-.137c1.257-.232 2.378-.752 3.334-1.585a5.55 5.55 0 0 0 1.312-1.722c.383-.765.547-1.6.588-2.446.068-.478.04-.97-.04-1.462zm-1.982 1.94c-.055.875-.232 1.722-.683 2.487-.574.998-1.394 1.695-2.528 1.94-.492.1-.984.15-1.5.082-.37-.04-.724-.082-1.066-.205-.615-.22-.834-.6-.847-1.2l-.014-8.24c0-.492.22-.6.574-.615.533-.04 1.08-.027 1.613.027a6.06 6.06 0 0 1 1.654.4 3.98 3.98 0 0 1 1.08.67c.738.63 1.23 1.42 1.5 2.35.22.752.26 1.517.22 2.282zm13.34 1.34c0-.082 0-.15-.014-.232-.123-.752-.52-1.326-1.134-1.763-.396-.287-.847-.478-1.312-.615-.082-.027-.15-.055-.232-.068.014-.068.055-.082.096-.096.273-.137.533-.287.765-.492.424-.355.7-.793.847-1.326.082-.287.082-.574.055-.875a2.35 2.35 0 0 0-.998-1.777c-.63-.465-1.367-.656-2.132-.67-1.476-.027-2.965 0-4.44 0-.424 0-.847.027-1.285-.04-.082-.014-.2-.04-.26.055-.1.178-.22.355-.26.56-.014.096.014.15.123.164l.943.137c.37.055.63.26.656.588a5.78 5.78 0 0 1 .04.683l-.027 2.555-.014 5.056c0 .3-.04.588-.096.888a.5.5 0 0 1-.355.41c-.273.082-.533.164-.82.164a.34.34 0 0 0-.355.232c-.055.123-.1.26-.123.383-.027.164.014.22.178.2.123-.014 4.633.096 5.48.014.506-.055 1-.123 1.503-.273.86-.273 1.654-.67 2.282-1.34.52-.547.82-1.203.847-1.968.04-.178.04-.355.04-.547zm-6.628-5.6l.04-1.093c0-.205.082-.3.287-.342.328-.068.656-.04.984-.027.328.027.642.068.97.164.6.178 1.066.52 1.34 1.093a1.96 1.96 0 0 1 .191.834c.014.383-.014.752-.164 1.12-.232.506-.6.834-1.134.93s-2.05.055-2.282.055c-.205 0-.22-.027-.22-.232V28.83a8.79 8.79 0 0 1-.014-1.203zm4.44 7.352c-.232.615-.656 1.04-1.257 1.27-.328.123-.656.2-1 .178-.424-.014-.847 0-1.27-.082-.574-.123-.834-.67-.875-1.066-.068-.697-.027-1.408-.04-1.927v-1.804c0-.22.027-.287.26-.287l1.285.014.875.1c.615.137 1.175.37 1.613.847.355.383.547.847.588 1.353.04.478.014.943-.164 1.394z" fill="#c2bfbf"/>
        <path d="M77.95 30.85l.355.055c.383.014.834-.123.97-.656a1.38 1.38 0 0 0 0-.78c-.082 0-.123.068-.164.096-.205.164-.437.26-.683.287-.492.055-.984.027-1.462-.15l-.67-.232a3.95 3.95 0 0 0-1.45-.19c-.697.055-1.353.287-1.968.615-.656.355-1.12.888-1.34 1.613-.123.424-.137.86-.082 1.298.137.998.656 1.695 1.585 2.064.055.014.096.04.15.055.123.068.137.137.027.232l-.342.232-.82.506c-.205.123-.232.22-.164.437a1.43 1.43 0 0 0 .437.656 2.28 2.28 0 0 0 .629.383c.15.068.15.1.014.22l-.78.56c-.26.2-.52.4-.738.656a1.35 1.35 0 0 0-.328 1.23 2.31 2.31 0 0 0 .71 1.23 2.9 2.9 0 0 0 1.257.683c.765.22 1.558.232 2.337.082 1.12-.205 2.1-.7 2.87-1.544.533-.56.847-1.216.875-2a1.92 1.92 0 0 0-1.476-1.995l-.738-.137-2.255-.2c-.246-.014-.492-.055-.697-.178-.26-.164-.328-.478-.164-.683.123-.15.273-.246.465-.26l.437-.04a3.96 3.96 0 0 0 2.309-1.052 2.42 2.42 0 0 0 .697-1.162c.164-.588.164-1.2.027-1.8-.04-.15-.027-.164.164-.137zm-3.35 6.807c.082.014.164 0 .246 0 .574.027 1.162.068 1.722.22a3.58 3.58 0 0 1 .533.205c.547.3.752.82.683 1.38-.082.615-.424 1.052-.957 1.34-.355.2-.752.287-1.162.328-.15.014-.287 0-.437 0-.478.014-.943-.04-1.394-.232-.314-.123-.574-.3-.806-.547-.478-.478-.7-1.353.014-2.064.437-.4.93-.683 1.558-.63zm1.558-4.264c-.287.724-.916.943-1.544.847-.574-.082-.998-.396-1.27-.916-.355-.697-.45-1.42-.246-2.173.15-.56.492-.984 1.093-1.08.765-.137 1.5.137 1.886.902.2.37.287.82.287 1.462-.014.26-.068.615-.205.957zm-17.218-.93c-.123-.738-.396-1.408-.902-1.968-.752-.834-1.708-1.2-2.788-1.203-.943-.014-1.83.26-2.624.752a3.56 3.56 0 0 0-1.599 2.091c-.232.793-.22 1.6-.04 2.405.478 2.16 2.146 3.088 4.14 2.952.588-.04 1.148-.232 1.68-.492.793-.37 1.367-.957 1.763-1.736.314-.642.45-1.326.437-2.105l-.068-.697zM57 35.497a1.66 1.66 0 0 1-1.408 1.148c-.6.082-1.162-.068-1.667-.424a2.84 2.84 0 0 1-.861-1.025c-.56-1.148-.656-2.35-.37-3.58a2.05 2.05 0 0 1 .574-.998c.506-.465 1.093-.574 1.75-.437.63.137 1.107.478 1.5.998s.574 1.12.683 1.75c.055.314.055.642.068.847 0 .656-.055 1.2-.26 1.722zm31.8-2.924c-.1-.793-.396-1.517-.957-2.118-.738-.806-1.695-1.148-2.76-1.162-.916-.014-1.763.246-2.542.697-.875.52-1.476 1.257-1.708 2.255a4.77 4.77 0 0 0 .328 3.252c.45.957 1.216 1.572 2.228 1.845 1.12.3 2.187.164 3.225-.342.902-.437 1.544-1.12 1.913-2.05.22-.547.3-1.134.314-1.818.014-.123-.014-.342-.04-.56zm-1.886 2.747c-.22.738-.683 1.216-1.462 1.326-.574.082-1.12-.055-1.613-.383-.424-.287-.724-.67-.943-1.12-.246-.478-.383-.984-.437-1.503-.082-.642-.082-1.27.068-1.913a1.95 1.95 0 0 1 .123-.369c.383-.957 1.23-1.394 2.228-1.175.67.15 1.175.52 1.558 1.08.37.547.547 1.148.63 1.8.04.26.055.533.04.765 0 .533-.04 1.025-.2 1.503z" fill="#47474a"/>
    </g>
</svg>
