<svg width="100" height="100" viewBox="0 0 100 100" fill="none" xmlns="http://www.w3.org/2000/svg">
<g clip-path="url(#clip0_820_2715)">
<path d="M50 99.9998C77.6142 99.9998 100 77.614 100 49.9998C100 22.3855 77.6142 -0.000244141 50 -0.000244141C22.3858 -0.000244141 0 22.3855 0 49.9998C0 77.614 22.3858 99.9998 50 99.9998Z" fill="url(#paint0_linear_820_2715)"/>
<path d="M50 85.156C72.4366 85.156 90.625 69.4151 90.625 49.9977C90.625 30.5803 72.4366 14.8394 50 14.8394C27.5634 14.8394 9.375 30.5803 9.375 49.9977C9.375 69.4151 27.5634 85.156 50 85.156Z" fill="white"/>
<path d="M67.529 42.4788C67.896 42.0886 68.3375 41.776 68.8275 41.5596C69.3176 41.3432 69.846 41.2275 70.3816 41.2192C70.9172 41.211 71.4491 41.3104 71.9455 41.5115C72.442 41.7127 72.893 42.0115 73.2717 42.3903C73.6505 42.7691 73.9493 43.2201 74.1505 43.7165C74.3517 44.213 74.4511 44.7448 74.4428 45.2804C74.4346 45.816 74.3188 46.3445 74.1024 46.8345C73.8861 47.3245 73.5735 47.7661 73.1832 48.133L68.5415 52.7747L74.679 56.3163C75.1484 56.5712 75.562 56.9176 75.8954 57.3349C76.2288 57.7522 76.4753 58.2321 76.6202 58.7462C76.7651 59.2604 76.8056 59.7983 76.7393 60.3283C76.6729 60.8583 76.5011 61.3697 76.2339 61.8322C75.9668 62.2948 75.6097 62.6991 75.1837 63.0214C74.7577 63.3437 74.2715 63.5774 73.7538 63.7087C73.236 63.8401 72.6972 63.8664 72.1691 63.7861C71.641 63.7058 71.1344 63.5206 70.679 63.2413L60.4957 57.3622C60.393 57.3026 60.2929 57.2386 60.1957 57.1705C59.6399 56.8792 59.1602 56.4615 58.7953 55.951C58.4304 55.4405 58.1905 54.8514 58.0948 54.2312C57.9992 53.611 58.0504 52.9771 58.2446 52.3803C58.4387 51.7836 58.7702 51.2407 59.2124 50.7955L67.529 42.4788ZM32.0332 41.4038C30.3756 41.4038 28.7859 42.0623 27.6138 43.2344C26.4417 44.4065 25.7832 45.9962 25.7832 47.6538V57.0288C25.7832 58.6864 26.4417 60.2762 27.6138 61.4483C28.7859 62.6204 30.3756 63.2788 32.0332 63.2788C33.6908 63.2788 35.2805 62.6204 36.4526 61.4483C37.6247 60.2762 38.2832 58.6864 38.2832 57.0288V47.6538C38.2832 45.9962 37.6247 44.4065 36.4526 43.2344C35.2805 42.0623 33.6908 41.4038 32.0332 41.4038Z" fill="#1E1E1E"/>
</g>
<defs>
<linearGradient id="paint0_linear_820_2715" x1="0" y1="51.1706" x2="100" y2="51.1706" gradientUnits="userSpaceOnUse">
<stop stop-color="#A83FE0"/>
<stop offset="0.477" stop-color="#515FFB"/>
<stop offset="1" stop-color="#2BB5DD"/>
</linearGradient>
<clipPath id="clip0_820_2715">
<rect width="100" height="100" fill="white"/>
</clipPath>
</defs>
</svg>
