<svg width="100%" height="100%" viewBox="0 0 1455 187" version="1.1" xmlns="http://www.w3.org/2000/svg" xmlns:xlink="http://www.w3.org/1999/xlink" xml:space="preserve" xmlns:serif="http://www.serif.com/" style="fill-rule:evenodd;clip-rule:evenodd;stroke-linejoin:round;stroke-miterlimit:2;">
    <g transform="matrix(1,0,0,1,0,1.52028)">
        <path d="M250,120C255.519,120 260,124.481 260,130C260,135.519 255.519,140 250,140C244.481,140 240,135.519 240,130C240,124.481 244.481,120 250,120Z" style="fill:rgb(226,183,20);fill-rule:nonzero;"/>
        <path d="M110,120L170,120C175.519,120 180,124.481 180,130C180,135.519 175.519,140 170,140L110,140C104.481,140 100,135.519 100,130C100,124.481 104.481,120 110,120Z" style="fill:rgb(226,183,20);fill-rule:nonzero;"/>
        <path d="M90,60C95.519,60 100,64.481 100,70L100,90C100,95.519 95.519,100 90,100C84.481,100 80,95.519 80,90L80,70C80,64.481 84.481,60 90,60Z" style="fill:rgb(226,183,20);fill-rule:nonzero;"/>
        <path d="M40.009,69.485C40.28,53.164 53.615,40 70,40C77.68,40 84.69,42.892 90,47.645C95.31,42.892 102.32,40 110,40C126.385,40 139.72,53.164 139.991,69.485C139.999,69.655 140,69.828 140,70L140,90C140,95.519 135.519,100 130,100C124.481,100 120,95.519 120,90L120,70C120,64.481 115.519,60 110,60C104.481,60 100,64.481 100,70L100,90C100,95.519 95.519,100 90,100C84.481,100 80,95.519 80,90L80,70C80,64.481 75.519,60 70,60C64.481,60 60,64.481 60,70L60,90C60,95.519 55.519,100 50,100C44.481,100 40,95.519 40,90L40,70C40,69.828 40.004,69.656 40.009,69.485Z" style="fill:rgb(226,183,20);fill-rule:nonzero;"/>
        <path d="M220,100L220,130C220,135.519 215.519,140 210,140C204.481,140 200,135.519 200,130L200,100L171.18,100C165.01,100 160,95.519 160,90C160,84.481 165.01,80 171.18,80L248.82,80C254.99,80 260,84.481 260,90C260,95.519 254.99,100 248.82,100L220,100Z" style="fill:rgb(226,183,20);fill-rule:nonzero;"/>
        <path d="M210,40L250,40C255.519,40 260,44.481 260,50C260,55.519 255.519,60 250,60L210,60C204.481,60 200,55.519 200,50C200,44.481 204.481,40 210,40Z" style="fill:rgb(226,183,20);fill-rule:nonzero;"/>
        <path d="M50,120L70,120C75.519,120 80,124.481 80,130C80,135.519 75.519,140 70,140L50,140C44.481,140 40,135.519 40,130C40,124.481 44.481,120 50,120Z" style="fill:rgb(226,183,20);fill-rule:nonzero;"/>
        <path d="M165,40L170,40C175.519,40 180,44.481 180,50C180,55.519 175.519,60 170,60L165,60C159.481,60 155,55.519 155,50C155,44.481 159.481,40 165,40Z" style="fill:rgb(226,183,20);fill-rule:nonzero;"/>
        <path d="M20,110L0,110L0,50C0,22.404 22.404,0 50,0L250,0C277.596,0 300,22.404 300,50L300,130C300,157.596 277.596,180 250,180L50,180C22.404,180 0,157.596 0,130L0,110L20,110L20,130C20,146.557 33.443,160 50,160L250,160C266.557,160 280,146.557 280,130L280,50C280,33.443 266.557,20 250,20L50,20C33.443,20 20,33.443 20,50L20,110Z" style="fill:rgb(226,183,20);fill-rule:nonzero;"/>
        <g transform="matrix(16.0821,0,0,16.0821,-20198.1,-5150.96)">
            <g transform="matrix(12,0,0,12,1277.51,329.077)">
                <path d="M0.07,-0L0.07,-0.527L0.191,-0.527L0.193,-0.421L0.173,-0.413C0.179,-0.43 0.188,-0.446 0.2,-0.461C0.212,-0.476 0.226,-0.489 0.243,-0.501C0.259,-0.512 0.277,-0.52 0.296,-0.527C0.315,-0.533 0.334,-0.536 0.353,-0.536C0.382,-0.536 0.407,-0.532 0.429,-0.523C0.452,-0.513 0.47,-0.499 0.485,-0.48C0.5,-0.461 0.512,-0.436 0.519,-0.406L0.5,-0.41L0.508,-0.426C0.515,-0.442 0.526,-0.456 0.539,-0.47C0.552,-0.483 0.567,-0.495 0.584,-0.505C0.601,-0.515 0.618,-0.523 0.637,-0.528C0.655,-0.534 0.673,-0.536 0.691,-0.536C0.731,-0.536 0.764,-0.528 0.791,-0.512C0.817,-0.496 0.837,-0.472 0.851,-0.439C0.864,-0.407 0.871,-0.366 0.871,-0.318L0.871,-0L0.747,-0L0.747,-0.31C0.747,-0.337 0.743,-0.359 0.736,-0.376C0.729,-0.393 0.719,-0.406 0.704,-0.414C0.69,-0.423 0.673,-0.427 0.651,-0.427C0.634,-0.427 0.618,-0.424 0.603,-0.419C0.589,-0.413 0.576,-0.405 0.565,-0.395C0.555,-0.385 0.546,-0.373 0.54,-0.359C0.534,-0.346 0.531,-0.331 0.531,-0.315L0.531,-0L0.407,-0L0.407,-0.311C0.407,-0.336 0.404,-0.357 0.396,-0.374C0.389,-0.391 0.378,-0.405 0.364,-0.414C0.35,-0.423 0.333,-0.427 0.313,-0.427C0.296,-0.427 0.28,-0.424 0.266,-0.419C0.251,-0.413 0.239,-0.405 0.228,-0.395C0.217,-0.385 0.209,-0.374 0.203,-0.36C0.197,-0.347 0.194,-0.332 0.194,-0.316L0.194,-0L0.07,-0Z" style="fill:rgb(50,52,55);fill-rule:nonzero;"/>
            </g>
            <g transform="matrix(12,0,0,12,1288.16,329.077)">
                <path d="M0.313,0.01C0.26,0.01 0.213,-0.002 0.172,-0.026C0.13,-0.049 0.098,-0.082 0.074,-0.123C0.05,-0.164 0.038,-0.211 0.038,-0.264C0.038,-0.317 0.05,-0.364 0.074,-0.405C0.098,-0.446 0.13,-0.479 0.172,-0.502C0.213,-0.526 0.26,-0.538 0.313,-0.538C0.365,-0.538 0.412,-0.526 0.453,-0.502C0.494,-0.479 0.527,-0.446 0.55,-0.405C0.574,-0.364 0.586,-0.317 0.586,-0.264C0.586,-0.211 0.574,-0.164 0.55,-0.123C0.527,-0.082 0.494,-0.049 0.453,-0.026C0.412,-0.002 0.365,0.01 0.313,0.01ZM0.313,-0.099C0.341,-0.099 0.367,-0.107 0.389,-0.121C0.412,-0.135 0.43,-0.155 0.442,-0.18C0.455,-0.205 0.461,-0.233 0.461,-0.264C0.461,-0.296 0.455,-0.324 0.442,-0.349C0.43,-0.374 0.412,-0.393 0.389,-0.408C0.367,-0.422 0.341,-0.429 0.313,-0.429C0.284,-0.429 0.258,-0.422 0.235,-0.407C0.212,-0.393 0.195,-0.373 0.182,-0.348C0.169,-0.324 0.163,-0.295 0.163,-0.264C0.163,-0.233 0.169,-0.205 0.182,-0.18C0.195,-0.155 0.212,-0.135 0.235,-0.121C0.258,-0.107 0.284,-0.099 0.313,-0.099Z" style="fill:rgb(50,52,55);fill-rule:nonzero;"/>
            </g>
            <g transform="matrix(12,0,0,12,1295.07,329.077)">
                <path d="M0.072,-0L0.072,-0.527L0.192,-0.527L0.194,-0.419L0.171,-0.407C0.178,-0.431 0.191,-0.452 0.21,-0.472C0.229,-0.492 0.252,-0.508 0.279,-0.52C0.306,-0.532 0.333,-0.538 0.361,-0.538C0.401,-0.538 0.435,-0.53 0.462,-0.514C0.489,-0.498 0.509,-0.474 0.523,-0.442C0.536,-0.41 0.543,-0.37 0.543,-0.322L0.543,-0L0.42,-0L0.42,-0.313C0.42,-0.34 0.416,-0.362 0.409,-0.38C0.401,-0.398 0.39,-0.411 0.375,-0.419C0.36,-0.427 0.341,-0.431 0.319,-0.43C0.301,-0.43 0.284,-0.427 0.269,-0.421C0.254,-0.415 0.241,-0.407 0.23,-0.397C0.219,-0.387 0.211,-0.375 0.204,-0.362C0.198,-0.348 0.195,-0.334 0.195,-0.318L0.195,-0L0.072,-0Z" style="fill:rgb(50,52,55);fill-rule:nonzero;"/>
            </g>
            <g transform="matrix(12,0,0,12,1301.81,329.077)">
                <path d="M0.187,-0.161L0.163,-0.276L0.413,-0.527L0.577,-0.527L0.187,-0.161ZM0.072,-0L0.072,-0.74L0.195,-0.74L0.195,-0L0.072,-0ZM0.428,-0L0.234,-0.235L0.321,-0.309L0.58,-0L0.428,-0Z" style="fill:rgb(50,52,55);fill-rule:nonzero;"/>
            </g>
            <g transform="matrix(12,0,0,12,1308.03,329.077)">
                <path d="M0.319,0.01C0.264,0.01 0.215,-0.002 0.173,-0.025C0.13,-0.048 0.097,-0.08 0.074,-0.12C0.05,-0.16 0.038,-0.207 0.038,-0.259C0.038,-0.3 0.045,-0.338 0.058,-0.372C0.071,-0.406 0.09,-0.435 0.114,-0.46C0.137,-0.485 0.166,-0.505 0.199,-0.518C0.232,-0.532 0.268,-0.539 0.307,-0.539C0.342,-0.539 0.374,-0.532 0.404,-0.519C0.434,-0.506 0.46,-0.488 0.482,-0.465C0.504,-0.442 0.521,-0.414 0.533,-0.383C0.545,-0.351 0.55,-0.317 0.549,-0.279L0.548,-0.236L0.121,-0.236L0.098,-0.32L0.445,-0.32L0.429,-0.303L0.429,-0.325C0.427,-0.345 0.421,-0.363 0.409,-0.379C0.398,-0.395 0.383,-0.407 0.366,-0.416C0.348,-0.425 0.329,-0.43 0.307,-0.43C0.275,-0.43 0.247,-0.424 0.225,-0.411C0.203,-0.399 0.186,-0.38 0.174,-0.357C0.163,-0.333 0.157,-0.303 0.157,-0.268C0.157,-0.234 0.164,-0.204 0.178,-0.179C0.193,-0.154 0.213,-0.135 0.239,-0.121C0.266,-0.107 0.297,-0.1 0.332,-0.1C0.357,-0.1 0.38,-0.104 0.4,-0.112C0.421,-0.12 0.443,-0.134 0.467,-0.155L0.528,-0.07C0.51,-0.053 0.489,-0.039 0.466,-0.027C0.443,-0.015 0.419,-0.006 0.394,0C0.369,0.007 0.344,0.01 0.319,0.01Z" style="fill:rgb(50,52,55);fill-rule:nonzero;"/>
            </g>
            <g transform="matrix(12,0,0,12,1314.37,329.077)">
                <path d="M0.152,0.23L0.264,-0.029L0.265,0.053L0.005,-0.527L0.147,-0.527L0.292,-0.183C0.297,-0.174 0.301,-0.163 0.306,-0.148C0.311,-0.134 0.315,-0.12 0.318,-0.107L0.293,-0.098C0.298,-0.111 0.303,-0.124 0.308,-0.139C0.313,-0.153 0.318,-0.168 0.323,-0.183L0.447,-0.527L0.59,-0.527L0.37,-0L0.28,0.23L0.152,0.23Z" style="fill:rgb(50,52,55);fill-rule:nonzero;"/>
            </g>
            <g transform="matrix(12,0,0,12,1321.5,329.077)">
                <path d="M0.129,-0L0.129,-0.661L0.252,-0.661L0.252,-0L0.129,-0ZM0.025,-0.413L0.025,-0.527L0.368,-0.527L0.368,-0.413L0.025,-0.413Z" style="fill:rgb(50,52,55);fill-rule:nonzero;"/>
            </g>
            <g transform="matrix(12,0,0,12,1326.15,329.077)">
                <path d="M0.152,0.23L0.264,-0.029L0.265,0.053L0.005,-0.527L0.147,-0.527L0.292,-0.183C0.297,-0.174 0.301,-0.163 0.306,-0.148C0.311,-0.134 0.315,-0.12 0.318,-0.107L0.293,-0.098C0.298,-0.111 0.303,-0.124 0.308,-0.139C0.313,-0.153 0.318,-0.168 0.323,-0.183L0.447,-0.527L0.59,-0.527L0.37,-0L0.28,0.23L0.152,0.23Z" style="fill:rgb(50,52,55);fill-rule:nonzero;"/>
            </g>
            <g transform="matrix(12,0,0,12,1332.71,329.077)">
                <path d="M0.072,0.22L0.072,-0.527L0.193,-0.527L0.195,-0.407L0.174,-0.416C0.178,-0.437 0.189,-0.457 0.208,-0.475C0.226,-0.493 0.249,-0.508 0.276,-0.519C0.303,-0.531 0.332,-0.536 0.361,-0.536C0.408,-0.536 0.449,-0.525 0.486,-0.501C0.522,-0.478 0.55,-0.446 0.571,-0.405C0.592,-0.364 0.603,-0.317 0.603,-0.264C0.603,-0.212 0.592,-0.165 0.572,-0.124C0.551,-0.083 0.522,-0.05 0.486,-0.027C0.45,-0.003 0.409,0.009 0.363,0.009C0.332,0.009 0.303,0.003 0.275,-0.009C0.246,-0.021 0.222,-0.037 0.203,-0.056C0.183,-0.075 0.171,-0.096 0.166,-0.117L0.196,-0.131L0.196,0.22L0.072,0.22ZM0.338,-0.1C0.366,-0.1 0.391,-0.107 0.413,-0.121C0.435,-0.135 0.452,-0.155 0.465,-0.179C0.477,-0.204 0.483,-0.232 0.483,-0.264C0.483,-0.296 0.477,-0.324 0.465,-0.349C0.453,-0.373 0.436,-0.392 0.414,-0.406C0.392,-0.42 0.367,-0.427 0.338,-0.427C0.309,-0.427 0.283,-0.42 0.262,-0.407C0.24,-0.393 0.222,-0.374 0.21,-0.349C0.197,-0.324 0.191,-0.296 0.191,-0.264C0.191,-0.232 0.197,-0.204 0.21,-0.179C0.222,-0.155 0.24,-0.135 0.262,-0.121C0.283,-0.107 0.309,-0.1 0.338,-0.1Z" style="fill:rgb(50,52,55);fill-rule:nonzero;"/>
            </g>
            <g transform="matrix(12,0,0,12,1339.83,329.077)">
                <path d="M0.319,0.01C0.264,0.01 0.215,-0.002 0.173,-0.025C0.13,-0.048 0.097,-0.08 0.074,-0.12C0.05,-0.16 0.038,-0.207 0.038,-0.259C0.038,-0.3 0.045,-0.338 0.058,-0.372C0.071,-0.406 0.09,-0.435 0.114,-0.46C0.137,-0.485 0.166,-0.505 0.199,-0.518C0.232,-0.532 0.268,-0.539 0.307,-0.539C0.342,-0.539 0.374,-0.532 0.404,-0.519C0.434,-0.506 0.46,-0.488 0.482,-0.465C0.504,-0.442 0.521,-0.414 0.533,-0.383C0.545,-0.351 0.55,-0.317 0.549,-0.279L0.548,-0.236L0.121,-0.236L0.098,-0.32L0.445,-0.32L0.429,-0.303L0.429,-0.325C0.427,-0.345 0.421,-0.363 0.409,-0.379C0.398,-0.395 0.383,-0.407 0.366,-0.416C0.348,-0.425 0.329,-0.43 0.307,-0.43C0.275,-0.43 0.247,-0.424 0.225,-0.411C0.203,-0.399 0.186,-0.38 0.174,-0.357C0.163,-0.333 0.157,-0.303 0.157,-0.268C0.157,-0.234 0.164,-0.204 0.178,-0.179C0.193,-0.154 0.213,-0.135 0.239,-0.121C0.266,-0.107 0.297,-0.1 0.332,-0.1C0.357,-0.1 0.38,-0.104 0.4,-0.112C0.421,-0.12 0.443,-0.134 0.467,-0.155L0.528,-0.07C0.51,-0.053 0.489,-0.039 0.466,-0.027C0.443,-0.015 0.419,-0.006 0.394,0C0.369,0.007 0.344,0.01 0.319,0.01Z" style="fill:rgb(50,52,55);fill-rule:nonzero;"/>
            </g>
            <g transform="matrix(12,0,0,12,1346.86,329.077)">
            </g>
        </g>
    </g>
</svg>
