<svg xmlns="http://www.w3.org/2000/svg" width="600" height="93" fill="none" viewBox="0 0 600 93"><path fill="#fff" d="M47.709 70.8 22.495 0H0v91.397h16.72V28.32l23.005 62.931h15.968l23.005-62.93v63.076h16.72V0H72.922zM154.556 25.551c-5.047-2.963-10.969-4.444-17.739-4.444s-12.716 1.481-17.812 4.444-9.051 7.117-11.842 12.485-4.174 11.682-4.174 18.993 1.383 13.504 4.174 18.92 6.722 9.594 11.842 12.558c5.096 2.963 11.042 4.444 17.812 4.444s12.692-1.481 17.739-4.444 8.979-7.141 11.77-12.557c2.79-5.417 4.173-11.707 4.173-18.921s-1.383-13.626-4.173-18.994c-2.791-5.367-6.722-9.52-11.77-12.484m-5.46 48.067c-2.863 3.935-6.965 5.926-12.279 5.926s-9.44-1.967-12.352-5.926q-4.368-5.902-4.368-16.613c0-7.141 1.456-12.557 4.368-16.54 2.912-3.984 7.038-5.976 12.352-5.976s9.416 1.992 12.279 5.975q4.296 5.976 4.295 16.54c0 7.044-1.431 12.655-4.295 16.614M225.488 24.458c-3.47-2.234-7.741-3.351-12.788-3.351-3.689 0-7.062.68-10.168 2.064-3.082 1.384-5.703 3.522-7.838 6.437-1.02 1.384-1.869 3.011-2.573 4.857l-.388-11.804h-14.924v68.736h16.453V52.536c0-5.83 1.31-10.299 3.931-13.383 2.621-3.085 6.115-4.64 10.483-4.64 2.912 0 5.242.705 7.014 2.114 1.747 1.408 3.033 3.449 3.785 6.12.777 2.672 1.165 5.927 1.165 9.789v38.861h16.453V47.241c0-5.15-.898-9.667-2.694-13.577s-4.44-6.971-7.911-9.206M293.581 25.551c-5.047-2.963-10.968-4.444-17.739-4.444-6.77 0-12.716 1.481-17.812 4.444s-9.051 7.117-11.842 12.485-4.174 11.682-4.174 18.993 1.383 13.504 4.174 18.92 6.722 9.594 11.842 12.558c5.096 2.963 11.042 4.444 17.812 4.444s12.692-1.481 17.739-4.444 8.979-7.141 11.77-12.557 4.174-11.707 4.174-18.921-1.383-13.626-4.174-18.994c-2.791-5.367-6.722-9.52-11.77-12.484m-5.484 48.067c-2.863 3.935-6.965 5.926-12.279 5.926s-9.44-1.967-12.352-5.926q-4.368-5.902-4.368-16.613c0-7.141 1.456-12.557 4.368-16.54 2.912-3.984 7.038-5.976 12.352-5.976s9.416 1.992 12.279 5.975c2.864 3.984 4.32 9.497 4.32 16.54 0 7.044-1.432 12.655-4.32 16.614M347.454 0h-30.358v91.373h31.11c14.318 0 25.335-3.935 33.052-11.853 7.717-7.894 11.575-19.14 11.575-33.712s-3.931-25.964-11.769-33.907C373.225 3.96 362.014 0 347.43 0zm21.209 69.125c-4.635 5.149-11.696 7.723-21.209 7.723h-13.638v-62.3h13.638c9.513 0 16.574 2.575 21.209 7.724 4.635 5.15 6.941 12.995 6.941 23.56 0 10.566-2.306 18.143-6.941 23.293M448.574 25.503c-4.926-2.915-10.653-4.372-17.156-4.372-6.504 0-12.546 1.506-17.545 4.493-5.024 3.012-8.906 7.19-11.624 12.557-2.742 5.368-4.126 11.659-4.126 18.848 0 7.19 1.359 13.504 4.126 18.92 2.742 5.417 6.649 9.594 11.696 12.558 5.048 2.963 11.018 4.444 17.885 4.444 7.887 0 14.585-1.918 20.117-5.78 5.533-3.862 9.246-9.133 11.115-15.836l-16.842-1.02c-.946 3.011-2.645 5.343-5.071 7.019-2.451 1.676-5.509 2.502-9.198 2.502-4.877 0-8.808-1.53-11.769-4.567-2.961-3.035-4.611-7.577-4.95-13.577h48.728v-3.74c0-7.724-1.335-14.33-3.98-19.82-2.67-5.488-6.455-9.69-11.381-12.605zm-33.367 25.09c.68-5.32 2.451-9.4 5.339-12.217 2.863-2.842 6.504-4.25 10.872-4.25s7.983 1.36 10.798 4.055c2.84 2.696 4.417 6.85 4.757 12.412zM516.231 55.936c-4.15-1.749-9.829-3.206-17.036-4.299-3.422-.607-6.164-1.263-8.226-1.992-2.063-.728-3.543-1.7-4.441-2.89s-1.359-2.696-1.359-4.493c0-2.575.995-4.64 2.96-6.17 1.966-1.554 4.878-2.307 8.737-2.307 2.572 0 4.804.462 6.697 1.36a10.7 10.7 0 0 1 4.49 3.935c1.116 1.724 1.892 3.74 2.305 6.048l16.599-.778c-.607-4.469-2.087-8.428-4.441-11.9q-3.531-5.211-9.828-8.235c-4.199-2.015-9.392-3.036-15.556-3.036-9.512 0-16.744 1.992-21.67 5.975-4.926 3.984-7.401 9.206-7.401 15.642 0 3.935.825 7.262 2.499 9.91 1.675 2.671 4.514 4.882 8.542 6.63q6.042 2.624 16.599 4.445c4.198.777 7.377 1.555 9.512 2.307q3.204 1.166 4.368 2.697 1.165 1.53 1.165 3.861c0 2.648-1.092 4.615-3.276 5.854s-5.217 1.87-9.076 1.87c-4.707 0-8.275-.996-10.677-2.963-2.403-1.968-3.907-4.76-4.514-8.355l-16.841.777c.34 4.469 1.747 8.452 4.247 11.974 2.475 3.522 6.018 6.267 10.604 8.234C485.8 92.004 491.478 93 498.249 93c5.921 0 11.09-.802 15.482-2.38 4.392-1.579 7.838-3.935 10.289-7.02s3.665-6.825 3.665-11.196c0-3.765-.874-7.02-2.646-9.716-1.747-2.696-4.707-4.93-8.881-6.68zM599.102 22.661h-20.311l-28.174 31.016V0h-16.453v91.397h16.453v-18.92l10.799-11.465 20.068 30.385H600l-27.786-40.173zM596.342 4.372h1.589l.272-1.468a.184.184 0 0 0-.188-.226h-1.359zM591.534 4.598a.184.184 0 0 0-.187-.226h-1.13a.286.286 0 0 0-.271.226l-.272 1.467h1.588zM594.712 4.598a.184.184 0 0 0-.188-.226h-1.129a.29.29 0 0 0-.272.226l-.272 1.467h1.589z"/><path fill="#fff" d="M599.29 4.372h-1.359l-1.256 6.775h1.359a.29.29 0 0 0 .272-.226l1.172-6.323a.184.184 0 0 0-.188-.226M586.81 4.372h1.589l.314-1.694h7.943l.272-1.468a.183.183 0 0 0-.187-.226h-7.484a.29.29 0 0 0-.272.226l-.272 1.468h-1.359a.29.29 0 0 0-.272.226zh-1.358a.29.29 0 0 0-.272.226l-1.172 6.323a.184.184 0 0 0 .188.226h1.358zM595.442 9.227l.231-1.242a.184.184 0 0 0-.188-.226h-1.359l-.314 1.694h1.359c.127 0 .248-.101.271-.226"/><path fill="#fff" d="M588.961 11.147h4.307a.29.29 0 0 0 .272-.226l.272-1.468h-4.766l.314-1.694h-1.359a.29.29 0 0 0-.272.226l-.23 1.242a.184.184 0 0 0 .188.226h1.359l-.273 1.468a.184.184 0 0 0 .188.226M587.143 11.147h-1.589l-.271 1.467a.183.183 0 0 0 .187.226h1.359z"/><path fill="#fff" d="M594.773 12.84h-7.944l-.272 1.468a.184.184 0 0 0 .188.226h7.484a.29.29 0 0 0 .272-.226zh1.359a.29.29 0 0 0 .271-.226l.272-1.467h-1.589z"/></svg>