<svg xmlns="http://www.w3.org/2000/svg" width="300" height="300" fill="none" viewBox="0 0 300 300"><path fill="#1c64f5" d="M248.62 0C276.996 0 300 23.004 300 51.38v197.24c0 28.376-23.004 51.38-51.38 51.38H51.38C23.004 300 0 276.996 0 248.62V51.38C0 23.004 23.004 0 51.38 0zM92.576 112.018c-8.074.154-12.034 0-15.48 1.697-2.932 1.491-5.76 3.858-7.766 6.738-2.263 3.086-3.035 7.252-4.526 15.378l-16.51 90.262h36.928l20.83-113.972zm144.574-.051-20.469.154-20.83 113.972h36.825l17.796-97.36c1.08-5.966 1.645-8.949 1.079-11.263h-.051a8.36 8.36 0 0 0-3.549-4.372c-2.109-1.08-4.937-1.183-10.801-1.131m-94.222.154-20.829 113.92h36.927l20.881-114.023zm-1.337-38.111h-16.973c-3.96 0-5.966 0-7.715.875-1.542.72-2.828 1.954-3.754 3.24-1.182 1.646-1.543 3.652-2.314 7.817l-4.783 26.127h36.825l5.451-29.675c.566-2.983.823-4.475.515-5.555-.309-1.029-.978-1.748-1.749-2.417-1.08-.463-2.52-.412-5.503-.412m73.855-.051h-16.972c-4.063.051-5.966 0-7.818.874-1.44.72-2.829 1.954-3.857 3.24-.977 1.595-1.337 3.6-2.109 7.766l-4.783 26.128h36.722l5.452-29.728c.514-2.88.823-4.372.515-5.452-.206-1.028-.875-1.8-1.749-2.417-.978-.514-2.521-.411-5.401-.411"/></svg>