<svg width="51" height="51" viewBox="0 0 51 51" fill="none" xmlns="http://www.w3.org/2000/svg">
<path d="M47.8477 21.3779L44.9064 24.3192L41.9652 21.3779L44.9064 18.4366L33.143 6.67323L30.2017 9.6145L27.2605 6.67323L30.2017 3.73195L27.2605 0.790673L0.79067 27.2605L3.73195 30.2017L6.67322 27.2605L9.6145 30.2017L6.67322 33.143L18.4383 44.9081L21.3796 41.9668L24.3209 44.9081L21.3796 47.8494L24.3209 50.7907L50.7907 24.3209L47.8477 21.3779ZM12.5625 27.2672L9.6145 24.3192L12.5558 21.3779L15.497 24.3192L12.5625 27.2672ZM18.4451 21.3847L15.497 18.4366L18.4366 15.4971L21.3779 18.4383L18.4451 21.3847ZM24.3276 15.5021L21.3796 12.5541L24.3192 9.6145L27.2605 12.5558L24.3276 15.5021ZM27.2605 41.9652L24.3192 39.0239L27.2605 36.0826L30.2017 39.0239L27.2605 41.9652ZM33.143 36.0826L30.2017 33.1413L33.1413 30.2017L36.0826 33.143L33.143 36.0826ZM39.0256 30.2001L36.0843 27.2588L39.0239 24.3192L41.9652 27.2605L39.0256 30.2001Z" fill="#945DCC"/>
</svg>
