<svg xmlns="http://www.w3.org/2000/svg" viewBox="0 0 1405.7 400"><path d="M224.4 144.7c0-.9.6-1.5 1.5-1.5h17.8c1.2 0 2 .4 2.4 1.5l25.8 58.2h.6l25.3-58.2q.6-1.5 2.4-1.5h17.5c.9 0 1.5.6 1.5 1.5v99c0 .9-.6 1.5-1.5 1.5h-17c-.9 0-1.5-.6-1.5-1.5v-57.4h-.6l-18.9 43c-.6 1.4-1.5 2-2.8 2h-10.3c-1.3 0-2.2-.6-2.8-2l-18.9-43h-.6v57.4c0 .9-.6 1.5-1.5 1.5h-16.9c-.9 0-1.5-.6-1.5-1.5zM341.4 207.7v-63c0-.9.6-1.5 1.5-1.5h19c.9 0 1.5.6 1.5 1.5v63.6c0 12.1 6.8 19 17.1 19 10.2 0 16.9-6.9 16.9-19v-63.6c0-.9.6-1.5 1.5-1.5h19c.9 0 1.5.6 1.5 1.5v63c0 25.3-16.2 39.1-39 39.1s-39-13.8-39-39.1M441.6 144.7c0-.9.6-1.5 1.5-1.5h19c.9 0 1.5.6 1.5 1.5v79.9q0 .9.9.9h45c.9 0 1.5.6 1.5 1.5v16.6c0 .9-.6 1.5-1.5 1.5h-66.4c-.9 0-1.5-.6-1.5-1.5zM527.1 144.7c0-.9.6-1.5 1.5-1.5h19c.9 0 1.5.6 1.5 1.5v79.9q0 .9.9.9h45c.9 0 1.5.6 1.5 1.5v16.6c0 .9-.6 1.5-1.5 1.5h-66.4c-.9 0-1.5-.6-1.5-1.5zM628 245.1c-1 0-1.6-.6-1.9-1.5l-32.4-98.8c-.3-1.1.3-1.6 1.3-1.6h19.5c1 0 1.7.4 2 1.5l20.4 66.9h.4l19.8-66.9c.3-1 .9-1.5 1.9-1.5h19.3c.9 0 1.5.6 1.2 1.6l-32.4 98.8c-.3.9-.9 1.5-1.8 1.5zM715.5 144.7c.3-.9.9-1.5 2-1.5h18.9c1 0 1.6.6 1.9 1.5l34.5 99c.3.9 0 1.5-1 1.5h-19.5c-1 0-1.7-.5-2-1.5l-5.8-17.8h-35.7l-5.7 17.8c-.3 1-.9 1.5-2 1.5h-19.6c-1 0-1.3-.6-1-1.5zm22.9 62.4-11.5-35.7h-.4L715 207.1zM787.6 144.7c0-.9.6-1.5 1.5-1.5H827c17.8 0 30.3 7.6 35.2 22.9 1.8 5.7 2.7 11.4 2.7 28s-.9 22.3-2.7 28c-4.9 15.3-17.4 22.9-35.2 22.9h-37.9c-.9 0-1.5-.6-1.5-1.5zm23 80.8h11.5c10.2 0 16.3-3 18.9-11.2 1-3 1.7-6.9 1.7-20.1s-.6-17.1-1.7-20.1c-2.5-8.2-8.7-11.2-18.9-11.2h-11.5q-.9 0-.9.9v60.9c0 .5.3.8.9.8M945.4 245.1c-1.1 0-1.7-.6-2-1.5L911 144.8c-.3-1.1.3-1.6 1.3-1.6h19.5c1 0 1.7.4 2 1.5l20.4 66.9h.4l19.8-66.9c.3-1 .9-1.5 1.9-1.5h19.3c.9 0 1.5.6 1.2 1.6l-32.4 98.8c-.3.9-.9 1.5-1.8 1.5zM1012.9 245.1c-.9 0-1.5-.6-1.5-1.5v-99c0-.9.6-1.5 1.5-1.5h39.6c22.2 0 35.5 13.3 35.5 32.8 0 19.2-13.5 32.7-35.5 32.7h-18.1q-.9 0-.9.9v34c0 .9-.6 1.5-1.5 1.5h-19.1zM1066 176c0-8.2-5.5-13.8-14.8-13.8h-16.8q-.9 0-.9.9v25.6q0 .9.9.9h16.8c9.3.1 14.8-5.3 14.8-13.6M1105.2 144.7c0-.9.6-1.5 1.5-1.5h18c1 0 2 .4 2.5 1.5l36 64.2h.8v-64.2c0-.9.6-1.5 1.5-1.5h16.9c.9 0 1.5.6 1.5 1.5v99c0 .9-.6 1.5-1.5 1.5h-17.8c-1.2 0-2-.5-2.5-1.5l-36.1-64h-.8v64c0 .9-.6 1.5-1.5 1.5h-16.9c-.9 0-1.5-.6-1.5-1.5v-99z"/></svg>