<svg xmlns="http://www.w3.org/2000/svg" xml:space="preserve" viewBox="0 0 512 512"><path d="M74 1418c0 742.4 602.7 1344 1344 1344s1344-601.6 1344-1344S2160.4 74 1418 74 74 675.6 74 1418" style="fill-rule:evenodd;clip-rule:evenodd;fill:#192e45" transform="translate(-14.095 -14.095)scale(.19048)"/><path d="M328.9 1104.4 253.2 1258l102.4-143c0 1.1-6.4 205.9-6.4 205.9l28.8-154.7c76.8 146.1 246.4 371.2 484.3 538.7 18.1 12.8 41.6 35.2 49.1 43.7 0 0 227.2 115.2 577.1-151.5 3.2-2.1 7.5-4.3 10.7-6.4l5.3 3.2 76.8 51.2c-26.7-7.5-77.9-20.3-77.9-20.3-168.5 194.1-442.7 226.1-589.9 128-6.4-4.3-42.7 10.7-49.1 32-4.3 11.7 0 24.5 5.3 34.1 29.9 55.5 74.7 50.1 53.3 115.2-14.9 35.2-36.3 69.3-59.7 101.3-49.1 66.1-125.9 124.8-118.4 160 347.7 428.8 1131.7 369.1 1430.4-13.9-4.3-55.5-91.7-82.1-152.5-217.6 17.1 5.3 42.7 12.8 42.7 11.7s-72.5-118.4-75.7-130.1l46.9 3.2s-61.9-76.8-64-84.3l62.9-8.5s-78.9-90.7-80-98.1l80 12.8-87.5-105.6h41.6l-49.1-71.5-397.9-156.8c-152.5-94.9-288-211.2-390.4-300.8L946.5 935.8c-197.3-14.9-381.9-9.6-494.9 12.8l72.5-123.7-105.6 125.9c-6.4-2.1-13.9-4.3-13.9-4.3l7.5-160-35.2 149.3z" style="fill-rule:evenodd;clip-rule:evenodd;fill:#d2943b" transform="translate(-14.095 -14.095)scale(.19048)"/><path d="M376.9 935.8c-52.3-24.5-113.1 10.7-123.7 58.7-12.8 45.9 19.2 102.4 75.7 109.9 53.4-33.1 99.2-118.4 48-168.6" style="fill-rule:evenodd;clip-rule:evenodd;fill:#ffcd86" transform="translate(-14.095 -14.095)scale(.19048)"/><path d="M1153.4 819.6c-16-43.7-11.7-100.3 10.7-153.6 32-73.6 92.8-122.7 150.4-122.7 11.7 0 22.4 2.1 33.1 6.4 33.1-29.9 71.5-54.4 114.1-71.5 234.7-93.9 579.2 73.6 667.7 304 42.7 112 29.9 233.6-6.4 345.6-29.9 91.7-138.7 224-98.1 323.2-16-4.3-349.9-117.3-445.9-168.5-150.4-93.9-284.8-209.1-386.1-297.6l-3.2-3.2-341.3-162.1c-4.3-2.1-8.5-4.3-11.7-6.4 46.9 2.1 233.5 24.5 316.7 6.4" style="fill-rule:evenodd;clip-rule:evenodd;fill:#ffd524" transform="translate(-14.095 -14.095)scale(.19048)"/><g transform="translate(-14.095 -14.095)scale(.19048)"><ellipse cx="1287.7" cy="718.2" rx="145.1" ry="86.4" style="fill:#fff" transform="rotate(-66.378 1287.702 718.258)"/><path d="M1355 565.7c-56.5-24.5-132.3 23.5-169.6 107.7-37.3 84.3-20.3 171.7 36.3 197.3 56.5 24.5 132.3-23.5 169.6-107.7s20.3-171.7-36.3-197.3m5.4 184.6c-29.9 67.2-86.4 107.7-125.9 90.7-40.5-18.1-49.1-86.4-19.2-154.7 29.9-67.2 86.4-107.7 126.9-90.7 39.5 18.1 48 87.5 18.2 154.7" style="fill:#192e45"/></g></svg>