<svg id="Layer_1" data-name="Layer 1" xmlns="http://www.w3.org/2000/svg" viewBox="0 0 122.88 83.67"><defs><style>.cls-1,.cls-4{fill:#00758f;}.cls-2,.cls-3{fill:#f29111;}.cls-3,.cls-4{fill-rule:evenodd;}</style></defs><title>mysql</title><path class="cls-1" d="M29.54,76.23H24.8q-.24-12-1.38-22.64h0L16.16,76.23H12.55L5.37,53.59h0q-.79,10.19-1,22.64H0Q.42,61.08,2.1,47.82H8l6.84,20.87h0l6.88-20.87h5.62q1.84,15.52,2.18,28.41Zm0,0Z"/><path class="cls-1" d="M50.11,55.27Q47.22,71,42.47,78.17q-3.69,5.51-8.1,5.5a7.89,7.89,0,0,1-2.89-.7V80.44a14.05,14.05,0,0,0,2,.12,4.74,4.74,0,0,0,3.31-1.14,4.13,4.13,0,0,0,1.51-3.11,20.77,20.77,0,0,0-1.17-4.84l-5.2-16.2h4.65l3.74,12.12q1.26,4.13,1.05,5.76a79.31,79.31,0,0,0,4.28-17.88Zm0,0Z"/><path class="cls-2" d="M70.88,68.35a7.56,7.56,0,0,1-2.64,5.94,10.42,10.42,0,0,1-7.09,2.31A14.22,14.22,0,0,1,53.09,74l1.22-2.44a13.76,13.76,0,0,0,6.08,1.68,6.39,6.39,0,0,0,4-1.13,3.9,3.9,0,0,0,1.54-3.16c0-1.68-1.17-3.12-3.33-4.33-2-1.1-6-3.38-6-3.38a6.79,6.79,0,0,1-3.24-6,7.09,7.09,0,0,1,2.42-5.58,9.06,9.06,0,0,1,6.23-2.13,12.87,12.87,0,0,1,7.17,2.11L68.15,52a13.74,13.74,0,0,0-5.45-1.18,4.87,4.87,0,0,0-3.36,1,3.55,3.55,0,0,0-1.27,2.7c0,1.68,1.2,3.14,3.41,4.37,2,1.09,6.08,3.42,6.08,3.42,2.22,1.57,3.32,3.25,3.32,6Zm0,0Z"/><path class="cls-3" d="M79.35,70.54c-1.14-1.85-1.72-4.82-1.72-8.91q0-10.74,6.51-10.73a5.45,5.45,0,0,1,5,2.56q1.73,2.77,1.72,8.84,0,10.82-6.5,10.81a5.47,5.47,0,0,1-5-2.56Zm16.87,6.37L91,74.34a9.72,9.72,0,0,0,1.3-1.27q3.32-3.91,3.32-11.57,0-14.1-11-14.1A10.44,10.44,0,0,0,76.16,51q-3.31,3.92-3.31,11.53t2.94,11c1.78,2.1,4.48,3.16,8.09,3.16a13.16,13.16,0,0,0,3.71-.5l6.78,3.95,1.85-3.19Zm0,0Z"/><polygon class="cls-2" points="113.22 76.23 99.75 76.23 99.75 47.82 104.28 47.82 104.28 72.73 113.22 72.73 113.22 76.23 113.22 76.23"/><path class="cls-2" d="M116.45,76.22h.75V73.33h1v-.59h-2.76v.59h1v2.89Zm5.72,0h.71V72.74h-1.07l-.87,2.38L120,72.74h-1v3.48h.67V73.58h0l1,2.64h.51l1-2.64v2.64Zm0,0Z"/><path class="cls-4" d="M118.91,38.31a15.86,15.86,0,0,0-6.64,1c-.51.21-1.33.21-1.4.86.27.27.3.72.55,1.1a7.87,7.87,0,0,0,1.77,2.09c.72.55,1.44,1.1,2.2,1.58,1.33.82,2.84,1.3,4.13,2.13.76.48,1.51,1.09,2.27,1.61.37.27.61.72,1.09.89v-.1c-.24-.31-.31-.76-.55-1.1l-1-1a16.49,16.49,0,0,0-3.56-3.47c-1.1-.76-3.5-1.79-3.94-3l-.07-.07a13.51,13.51,0,0,0,2.36-.56c1.17-.3,2.23-.23,3.42-.54.55-.14,1.1-.31,1.65-.48v-.31c-.62-.62-1.06-1.44-1.71-2a46.9,46.9,0,0,0-5.65-4.22c-1.06-.68-2.43-1.13-3.56-1.71-.41-.21-1.09-.31-1.33-.66a13.87,13.87,0,0,1-1.41-2.64c-1-1.88-2-4-2.8-6A37.42,37.42,0,0,0,103,17.72,34.56,34.56,0,0,0,89.71,4.88a16.08,16.08,0,0,0-4.38-1.4c-.85,0-1.71-.11-2.56-.14a13.4,13.4,0,0,1-1.58-1.2c-2-1.24-7-3.91-8.42-.38C71.85,4,74.14,6.19,74.93,7.32a16.35,16.35,0,0,1,1.74,2.57c.24.59.31,1.21.55,1.82A41.7,41.7,0,0,0,79,16.31a16.86,16.86,0,0,0,1.27,2.13c.27.38.75.55.85,1.17a9.9,9.9,0,0,0-.78,2.57c-1.24,3.88-.76,8.68,1,11.53.54.86,1.85,2.75,3.59,2,1.54-.61,1.2-2.57,1.65-4.28.1-.42,0-.69.23-1v.06c.48,1,1,1.89,1.41,2.85A19.65,19.65,0,0,0,92.66,38c.82.62,1.47,1.68,2.5,2.06V40h-.07a4,4,0,0,0-.79-.69,16.31,16.31,0,0,1-1.78-2.06A43.24,43.24,0,0,1,88.69,31c-.55-1.07-1-2.24-1.47-3.3-.21-.41-.21-1-.55-1.23A12,12,0,0,0,85,28.77a19,19,0,0,0-1,5.18c-.14,0-.07,0-.14.07-1.09-.28-1.47-1.41-1.88-2.37a14.85,14.85,0,0,1-.31-9.16c.24-.72,1.27-3,.85-3.67-.2-.66-.89-1-1.26-1.55a12.77,12.77,0,0,1-1.23-2.19c-.82-1.93-1.24-4.05-2.12-6a19.24,19.24,0,0,0-1.72-2.64,16.78,16.78,0,0,1-1.88-2.67c-.17-.38-.41-1-.14-1.41a.55.55,0,0,1,.48-.45c.45-.38,1.71.1,2.16.31A17.11,17.11,0,0,1,80.27,4c.48.34,1,1,1.6,1.16h.72c1.1.24,2.33.07,3.36.38a21.63,21.63,0,0,1,4.93,2.37,30.37,30.37,0,0,1,10.67,11.74c.42.78.59,1.51,1,2.33.72,1.68,1.61,3.4,2.33,5a22.85,22.85,0,0,0,2.43,4.6c.52.72,2.57,1.1,3.49,1.48a23.92,23.92,0,0,1,2.37,1c1.16.72,2.32,1.54,3.42,2.33.54.42,2.26,1.27,2.36,2Zm0,0Z"/><path class="cls-4" d="M84,8.48a5.2,5.2,0,0,0-1.41.18v.07h.07a12.56,12.56,0,0,0,1.1,1.4c.27.55.51,1.1.78,1.65l.07-.07A1.93,1.93,0,0,0,85.33,10c-.2-.24-.24-.48-.41-.72s-.65-.51-.92-.79Zm0,0Z"/></svg>