<svg width="87" height="24" viewBox="0 0 87 24" xmlns="http://www.w3.org/2000/svg"><path fill="#ea4b71" fill-rule="evenodd" clip-rule="evenodd" d="M47.9855 4.8C47.9855 7.45098 45.8365 9.6 43.1855 9.6C40.949 9.6 39.0696 8.0703 38.5368 6H31.8352C30.662 6 29.6607 6.84822 29.4678 8.00544L29.2706 9.18912C29.0832 10.313 28.5147 11.2911 27.7108 12C28.5147 12.7089 29.0832 13.687 29.2706 14.8109L29.4678 15.9946C29.6607 17.1518 30.662 18 31.8352 18H33.7368C34.2696 15.9297 36.149 14.4 38.3855 14.4C41.0365 14.4 43.1855 16.549 43.1855 19.2C43.1855 21.851 41.0365 24 38.3855 24C36.149 24 34.2696 22.4703 33.7368 20.4H31.8352C29.4888 20.4 27.4863 18.7036 27.1005 16.3891L26.9032 15.2054C26.7104 14.0482 25.7091 13.2 24.5359 13.2H22.5782C21.979 15.1681 20.1495 16.6 17.9855 16.6C15.8216 16.6 13.9921 15.1681 13.3929 13.2H10.5782C9.97901 15.1681 8.14949 16.6 5.98554 16.6C3.33458 16.6 1.18555 14.4509 1.18555 11.8C1.18555 9.14904 3.33458 7.00002 5.98554 7.00002C8.29361 7.00002 10.2212 8.62902 10.6812 10.8H13.2899C13.7499 8.62902 15.6775 7.00002 17.9855 7.00002C20.2936 7.00002 22.2212 8.62902 22.6812 10.8H24.5359C25.7091 10.8 26.7104 9.95178 26.9032 8.79456L27.1005 7.61088C27.4863 5.29638 29.4888 3.6 31.8352 3.6H38.5368C39.0696 1.52973 40.949 0 43.1855 0C45.8365 0 47.9855 2.14903 47.9855 4.8ZM45.5855 4.8C45.5855 6.12546 44.511 7.2 43.1855 7.2C41.8601 7.2 40.7855 6.12546 40.7855 4.8C40.7855 3.47452 41.8601 2.4 43.1855 2.4C44.511 2.4 45.5855 3.47452 45.5855 4.8ZM5.98554 14.2C7.31105 14.2 8.38553 13.1255 8.38553 11.8C8.38553 10.4745 7.31105 9.40002 5.98554 9.40002C4.66006 9.40002 3.58554 10.4745 3.58554 11.8C3.58554 13.1255 4.66006 14.2 5.98554 14.2ZM17.9855 14.2C19.311 14.2 20.3855 13.1255 20.3855 11.8C20.3855 10.4745 19.311 9.40002 17.9855 9.40002C16.6601 9.40002 15.5855 10.4745 15.5855 11.8C15.5855 13.1255 16.6601 14.2 17.9855 14.2ZM38.3855 21.6C39.711 21.6 40.7855 20.5255 40.7855 19.2C40.7855 17.8745 39.711 16.8 38.3855 16.8C37.0601 16.8 35.9855 17.8745 35.9855 19.2C35.9855 20.5255 37.0601 21.6 38.3855 21.6Z"></path><path fill="#fff" fill-rule="evenodd" clip-rule="evenodd" d="M71.7381 11.4027V11.2852C72.5997 10.8544 73.4613 10.1104 73.4613 8.64206C73.4613 6.52754 71.7183 5.25488 69.3105 5.25488C66.8433 5.25488 65.0811 6.60584 65.0811 8.68118C65.0811 10.0909 65.9037 10.8544 66.8043 11.2852V11.4027C65.8059 11.7551 64.6113 12.8124 64.6113 14.5744C64.6113 16.7086 66.3735 18.1966 69.2907 18.1966C72.2079 18.1966 73.9113 16.7086 73.9113 14.5744C73.9113 12.8124 72.7365 11.7747 71.7381 11.4027ZM69.2907 7.05614C70.2699 7.05614 70.9941 7.68266 70.9941 8.73992C70.9941 9.79718 70.2501 10.4238 69.2907 10.4238C68.3313 10.4238 67.5285 9.79718 67.5285 8.73992C67.5285 7.6631 68.2923 7.05614 69.2907 7.05614ZM69.2907 16.317C68.1549 16.317 67.2351 15.5926 67.2351 14.3591C67.2351 13.2431 67.9983 12.4012 69.2709 12.4012C70.5243 12.4012 71.2881 13.2235 71.2881 14.3983C71.2881 15.5926 70.4067 16.317 69.2907 16.317ZM52.7871 18.0004H55.2933V12.6945C55.2933 10.952 56.3505 10.1884 57.5448 10.1884C58.7195 10.1884 59.6398 10.9715 59.6398 12.577V18.0004H62.1456V12.068C62.1456 9.50314 60.6576 8.01514 58.328 8.01514C56.8596 8.01514 56.0372 8.60248 55.4498 9.36604H55.2933L55.0779 8.21092H52.7871V18.0004ZM78.9632 18.0004H76.457V8.21092H78.7478L78.9632 9.36604H79.1198C79.7072 8.60248 80.5298 8.01514 81.998 8.01514C84.3278 8.01514 85.8158 9.50314 85.8158 12.068V18.0004H83.3096V12.577C83.3096 10.9715 82.3898 10.1884 81.215 10.1884C80.0204 10.1884 78.9632 10.952 78.9632 12.6945V18.0004Z"></path></svg>