<svg xmlns="http://www.w3.org/2000/svg" data-name="Layer 1" viewBox="0 0 1080 1080">
  <circle cx="540" cy="540" r="540"/>
  <path fill="#fff" d="M714 281H531q-31 0-55 23L261 518a78 78 0 0 0 0 111l163 163c31 30 80 30 111 0l214-215q23-23 23-55V340c0-33-26-59-58-59M469 730c-7 7-20 7-27 0l-58-58c-8-8-8-20 0-28 8-7 20-7 27 0l58 58c8 8 8 20 0 28m52-53c-7 8-19 8-27 0L364 548c-7-8-7-20 0-28 8-7 20-7 28 0l129 130c8 8 8 20 0 27m52-51c-8 8-20 8-28 0l-96-96c-8-8-8-20 0-28 8-7 20-7 27 0l97 97c7 7 7 19 0 27m63-169a39 39 0 1 1 0-78 39 39 0 0 1 0 78"/>
</svg>
