<svg width="1650" height="301" viewBox="0 0 1650 301" fill="none" xmlns="http://www.w3.org/2000/svg">
<path d="M224.313 296.128H201.028L112.722 161.847L23.0955 296.128H0L100.495 143.993L8.94383 4.25195H32.6809L113.1 127.17L195.255 4.25195H217.52L124.988 143.587L224.313 296.128Z" fill="#209CE9"/>
<path d="M22.0762 135.104H202.991V151.704H22.0762V135.104ZM22.0762 184.905H203.028V201.506H22.0762V184.905Z" fill="#209CE9"/>
<path fill-rule="evenodd" clip-rule="evenodd" d="M338.073 225.674L338.073 84.7686L341.106 84.7686L341.106 225.674L338.073 225.674Z" fill="#20204C" fill-opacity="0.33"/>
<path d="M690.349 296.129H667.343L473.907 37.5733H472.12C473.907 68.9973 474.801 92.7008 474.801 108.684V296.129H452.911V4.25293H475.694L668.906 267.565H670.246C668.906 243.184 668.236 220.022 668.236 198.079V4.25293H690.349V296.129Z" fill="#20204C"/>
<path d="M940.304 197.673H807.624L762.057 296.129H736.817L868.156 4.25293H882.675L1011.33 296.129H985.647L940.304 197.673ZM815.889 178.982H932.71L888.26 71.9095C884.537 63.5116 880.069 51.863 874.857 36.9638C870.836 49.9668 866.444 61.7508 861.679 72.3158L815.889 178.982Z" fill="#20204C"/>
<path d="M1295.23 296.129H1269.35L1078.78 37.5733H1077C1078.78 68.9973 1079.68 92.7008 1079.68 108.684V296.129H1057.79V4.25293H1080.57L1273.78 267.565H1275.12C1273.78 243.184 1273.11 220.022 1273.11 198.079V4.25293H1295.23V296.129Z" fill="#20204C"/>
<path fill-rule="evenodd" clip-rule="evenodd" d="M1650 150.191C1650 233.109 1582.78 300.328 1499.86 300.328C1416.94 300.328 1349.72 233.109 1349.72 150.191C1349.72 67.2718 1416.94 0.0527344 1499.86 0.0527344C1582.78 0.0527344 1650 67.2718 1650 150.191ZM1499.86 279.33C1571.18 279.33 1629 221.512 1629 150.191C1629 78.8688 1571.18 21.051 1499.86 21.051C1428.54 21.051 1370.72 78.8688 1370.72 150.191C1370.72 221.512 1428.54 279.33 1499.86 279.33Z" fill="#20204C"/>
</svg>
