<svg width="191" height="26" viewBox="0 0 191 26" fill="none" xmlns="http://www.w3.org/2000/svg">
<g clip-path="url(#clip0_420_84)">
<path d="M7.375 25.1H0V0.800003H7.375V25.1Z" fill="#8696ED"/>
<path d="M24.1748 25.1H16.7998V0.800003H24.1748V25.1Z" fill="#3EDAD7"/>
<path d="M24.175 25.1H7.375V0.800003L24.175 25.1Z" fill="#272D48"/>
<path d="M25.6504 14.125C25.6504 12.575 25.9754 11.175 26.6754 9.95C27.3504 8.7 28.3504 7.75 29.6504 7.05C30.9504 6.35 32.5004 6 34.3004 6C34.5754 6 35.0004 6.025 35.6004 6.075C36.8254 6.175 37.8754 6.4 38.7254 6.775C39.5754 7.15 40.3254 7.625 41.0004 8.25V6.45H47.4504V25.125H41.0004V23.325C40.3754 23.975 39.6004 24.475 38.6504 24.85C37.7004 25.225 36.6754 25.45 35.6254 25.5C35.4004 25.525 35.0504 25.525 34.6004 25.525C32.8004 25.525 31.2504 25.175 29.9004 24.5C28.5504 23.825 27.5254 22.85 26.8004 21.625C26.0754 20.4 25.7254 19 25.7254 17.475V14.125H25.6504ZM32.1004 16.475C32.1004 18.775 33.5754 19.925 36.5254 19.925C39.4754 19.925 40.9504 18.775 40.9504 16.475V15.075C40.9504 12.75 39.4754 11.575 36.5254 11.575C33.5754 11.575 32.1004 12.75 32.1004 15.075V16.475ZM52.0754 25.1V12.25H48.8754V6.425L52.0754 6.375V0.8H58.5504L58.5754 6.4H63.1504V12.25H58.5504V25.1M71.8254 25.1H65.3504V6.4H71.8254V25.1ZM87.7504 25.1H81.2504L73.5004 6.4H80.0004L84.5004 17.5L89.0004 6.375H95.4754L87.7504 25.1ZM113.725 22.4C112.7 23.45 111.525 24.225 110.2 24.725C108.875 25.225 107.25 25.45 105.325 25.45C103.325 25.45 101.55 25.1 100 24.4C98.4504 23.7 97.2254 22.725 96.3254 21.5C95.4504 20.25 95.0004 18.85 95.0004 17.25V14.15C95.0004 12.525 95.4254 11.1 96.3004 9.875C97.1504 8.65 98.3504 7.7 99.8504 7.05C101.35 6.375 103.025 6.05 104.85 6.05C106.85 6.05 108.6 6.425 110.15 7.125C111.675 7.85 112.875 8.875 113.75 10.225C114.6 11.575 115.05 13.125 115.05 14.9C115.05 15.325 115 15.95 114.875 16.825L101.325 16.85V17.375C101.325 18.4 101.7 19.2 102.425 19.725C103.15 20.275 104.15 20.525 105.375 20.525C106.525 20.525 107.5 20.375 108.325 20.075C109.125 19.775 109.925 19.2 110.675 18.375L113.725 22.4ZM108.6 13.35C108.6 12.575 108.25 11.975 107.55 11.575C106.85 11.175 105.95 10.975 104.85 10.975C103.75 10.975 102.875 11.175 102.225 11.575C101.575 11.975 101.275 12.575 101.275 13.35H108.6ZM116.5 25.1V0.8H130.5C132.975 0.8 134.95 1.275 136.425 2.2C137.9 3.125 138.925 4.25 139.475 5.525C140.05 6.8 140.325 8.05 140.325 9.275C140.325 10.475 140.025 11.7 139.45 12.95C138.875 14.2 137.85 15.25 136.4 16.15C134.95 17.05 132.975 17.5 130.475 17.5H122.925V25.125H116.5V25.1ZM130.5 11.65C132.75 11.65 133.9 10.825 133.9 9.175C133.9 7.45 132.75 6.6 130.475 6.6H122.95V11.65H130.5ZM148.25 25.1H141.8V0.8H148.25V10.3H159.225V0.8H165.675V25.1H159.225V15.475H148.25V25.1ZM167.15 25.1V0.8H181.15C183.625 0.8 185.6 1.275 187.075 2.2C188.55 3.125 189.575 4.25 190.125 5.525C190.7 6.8 190.975 8.05 190.975 9.275C190.975 10.475 190.675 11.7 190.1 12.95C189.525 14.2 188.5 15.25 187.05 16.15C185.6 17.05 183.625 17.5 181.125 17.5H173.575V25.125H167.15V25.1ZM181.15 11.65C183.4 11.65 184.55 10.825 184.55 9.175C184.55 7.45 183.4 6.6 181.125 6.6H173.6V11.65H181.15ZM72.7754 5.55H64.4004V0.5H72.7754V5.55Z" fill="white"/>
</g>
<defs>
<clipPath id="clip0_420_84">
<rect width="191" height="25" fill="white" transform="translate(0 0.5)"/>
</clipPath>
</defs>
</svg>
