<?xml version="1.0" encoding="UTF-8" standalone="no"?><!DOCTYPE svg PUBLIC "-//W3C//DTD SVG 1.1//EN" "http://www.w3.org/Graphics/SVG/1.1/DTD/svg11.dtd"><svg width="100%" height="100%" viewBox="0 0 513 512" version="1.1" xmlns="http://www.w3.org/2000/svg" xmlns:xlink="http://www.w3.org/1999/xlink" xml:space="preserve" xmlns:serif="http://www.serif.com/" style="fill-rule:evenodd;clip-rule:evenodd;stroke-linejoin:round;stroke-miterlimit:2;"><rect id="nearsolid-dark" x="0.957" y="0" width="512" height="512" style="fill:none;"/><path d="M119.517,135.878l-0.026,0.015l-0.061,0.037c-2.404,1.426 -4.382,3.358 -5.826,5.607l-0.248,0.399c-1.458,2.406 -2.333,5.185 -2.436,8.153c-0,0 -0.011,0.504 -0.011,0.592l0,136.899c0,6.074 3.284,11.703 8.651,14.828l128.887,75.036c2.666,1.41 5.557,2.089 8.417,2.1l0.225,-0c2.799,-0.02 5.591,-0.679 8.137,-1.975c0,0 0.83,-0.446 1.052,-0.578l128.077,-74.583c5.367,-3.125 8.651,-8.754 8.651,-14.828l-0,-136.899c-0,-6.074 -3.284,-11.703 -8.651,-14.829l-128.23,-74.671c-5.643,-3.286 -12.692,-3.286 -18.335,-0l-128.23,74.671l-0.043,0.026Zm49.658,129.198l-0,-76.773l73.616,42.869l0,76.773l-73.616,-42.869Zm175.565,-76.351l0,76.351c-0,0 -73.616,42.869 -73.616,42.869l-0.001,-75.922l73.617,-43.298Zm-13.014,-24.498l-74.044,43.549l-75.14,-43.756c0,0 74.415,-43.333 74.415,-43.333l74.769,43.54Zm-75.456,240.95c0.425,-0.245 0.949,-0.245 1.375,0c4.663,2.693 31.709,18.308 39.437,22.771c0.426,0.245 0.688,0.699 0.688,1.19c-0,0.492 -0.262,0.945 -0.688,1.191c-7.728,4.462 -34.774,20.078 -39.437,22.771c-0.426,0.245 -0.95,0.245 -1.375,-0c-4.664,-2.693 -31.709,-18.309 -39.438,-22.771c-0.425,-0.246 -0.687,-0.699 -0.687,-1.191c0,-0.491 0.262,-0.945 0.687,-1.19c7.729,-4.463 34.774,-20.078 39.438,-22.771Z" style="fill:#fff;"/></svg>