<?xml version="1.0" encoding="UTF-8" standalone="no"?><!DOCTYPE svg PUBLIC "-//W3C//DTD SVG 1.1//EN" "http://www.w3.org/Graphics/SVG/1.1/DTD/svg11.dtd"><svg width="100%" height="100%" viewBox="0 0 512 150" version="1.1" xmlns="http://www.w3.org/2000/svg" xmlns:xlink="http://www.w3.org/1999/xlink" xml:space="preserve" xmlns:serif="http://www.serif.com/" style="fill-rule:evenodd;clip-rule:evenodd;stroke-linejoin:round;stroke-miterlimit:2;"><rect id="nearsolid-wordmark-dark" x="0" y="0" width="512" height="150" style="fill:none;"/><path d="M252.608,89.972l16.722,0c0.153,1.979 0.955,3.539 2.406,4.681c1.45,1.142 3.512,1.712 6.185,1.712c2.748,0 4.772,-0.456 6.07,-1.37c1.298,-0.913 1.947,-2.093 1.947,-3.539c0,-0.837 -0.324,-1.674 -0.973,-2.511c-0.65,-0.838 -2.043,-1.484 -4.181,-1.941l-10.537,-2.283c-5.269,-1.142 -9.201,-2.988 -11.797,-5.537c-2.597,-2.55 -3.895,-6.337 -3.895,-11.36c0,-3.958 1.05,-7.326 3.15,-10.104c2.1,-2.778 4.944,-4.909 8.533,-6.393c3.589,-1.484 7.674,-2.226 12.255,-2.226c4.429,-0 8.342,0.799 11.74,2.397c3.398,1.599 6.051,3.844 7.96,6.736c1.909,2.892 2.864,6.279 2.864,10.161l-16.722,-0c-0,-1.979 -0.573,-3.558 -1.718,-4.738c-1.146,-1.18 -2.787,-1.769 -4.925,-1.769c-1.986,-0 -3.57,0.475 -4.754,1.427c-1.183,0.951 -1.775,2.188 -1.775,3.71c0,2.435 2.062,4.11 6.185,5.023l10.652,2.284c4.734,0.989 8.342,2.682 10.823,5.08c2.482,2.397 3.723,5.879 3.723,10.446c-0,4.034 -1.069,7.535 -3.207,10.503c-2.138,2.969 -5.116,5.233 -8.934,6.793c-3.818,1.56 -8.208,2.34 -13.172,2.34c-7.559,0 -13.553,-1.807 -17.982,-5.422c-4.428,-3.616 -6.643,-8.315 -6.643,-14.1Zm56.217,-28.015l-0.006,0.003l-0.013,0.008c-0.502,0.297 -0.915,0.699 -1.217,1.168l-0.052,0.083c-0.305,0.501 -0.488,1.08 -0.509,1.698c-0,-0 -0.002,0.105 -0.002,0.123l-0,28.515c-0,1.266 0.686,2.438 1.807,3.089l26.935,15.629c0.557,0.294 1.162,0.436 1.759,0.438l0.047,-0c0.585,-0.004 1.169,-0.142 1.701,-0.412c-0,0 0.173,-0.093 0.22,-0.12l26.765,-15.535c1.122,-0.651 1.808,-1.823 1.808,-3.089l-0,-28.515c-0,-1.265 -0.686,-2.438 -1.808,-3.089l-26.797,-15.553c-1.18,-0.685 -2.653,-0.685 -3.832,-0l-26.798,15.553l-0.008,0.006Zm10.377,26.911l0,-15.991l15.384,8.929l0,15.991l-15.384,-8.929Zm36.69,-15.903l-0,15.903c-0,-0 -15.385,8.929 -15.385,8.929l0,-15.814l15.385,-9.018Zm-2.72,-5.103l-15.474,9.071l-15.702,-9.114c-0,-0 15.551,-9.026 15.551,-9.026l15.625,9.069Zm37.728,40.148l-17.638,0l-0,-86.08l17.638,-0l-0,86.08Zm7.559,0.595l-0,-57.083l17.638,0l0,57.083l-17.638,-0Zm8.704,-65.988c-2.825,0 -5.211,-0.97 -7.158,-2.911c-1.947,-1.941 -2.921,-4.319 -2.921,-7.135c0,-2.816 0.974,-5.176 2.921,-7.078c1.947,-1.903 4.333,-2.855 7.158,-2.855c2.749,0 5.097,0.952 7.044,2.855c1.947,1.902 2.921,4.262 2.921,7.078c-0,2.816 -0.974,5.194 -2.921,7.135c-1.947,1.941 -4.295,2.911 -7.044,2.911Zm-69.76,75.433c0.089,-0.051 0.199,-0.051 0.287,0c0.975,0.561 6.627,3.814 8.242,4.743c0.089,0.051 0.144,0.146 0.144,0.248c-0,0.102 -0.055,0.197 -0.144,0.248c-1.615,0.929 -7.267,4.182 -8.242,4.743c-0.088,0.051 -0.198,0.051 -0.287,-0c-0.974,-0.561 -6.626,-3.814 -8.242,-4.743c-0.088,-0.051 -0.143,-0.146 -0.143,-0.248c-0,-0.102 0.055,-0.197 0.143,-0.248c1.616,-0.929 7.268,-4.182 8.242,-4.743Zm110.306,-8.556c-5.497,0 -10.27,-1.217 -14.316,-3.653c-4.047,-2.435 -7.197,-5.879 -9.45,-10.332c-2.252,-4.452 -3.378,-9.685 -3.378,-15.698c-0,-6.088 1.145,-11.435 3.436,-16.04c2.29,-4.604 5.555,-8.201 9.792,-10.788c4.238,-2.588 9.259,-3.882 15.062,-3.882c3.589,-0 6.929,0.647 10.022,1.941c3.092,1.294 5.478,3.006 7.158,5.137l0,-34.249l17.638,-0l0,86.08l-16.607,0l-0.916,-7.306c-1.528,2.587 -3.952,4.7 -7.273,6.336c-3.322,1.636 -7.044,2.454 -11.168,2.454Zm4.238,-16.097c2.749,0 5.173,-0.59 7.273,-1.769c2.1,-1.18 3.742,-2.855 4.925,-5.024c1.184,-2.169 1.776,-4.661 1.776,-7.478c-0,-2.892 -0.592,-5.403 -1.776,-7.534c-1.183,-2.132 -2.825,-3.787 -4.925,-4.967c-2.1,-1.179 -4.524,-1.769 -7.273,-1.769c-2.749,-0 -5.154,0.609 -7.215,1.826c-2.062,1.218 -3.647,2.893 -4.754,5.024c-1.107,2.131 -1.66,4.604 -1.66,7.42c-0,2.817 0.553,5.29 1.66,7.421c1.107,2.131 2.692,3.806 4.754,5.023c2.061,1.218 4.466,1.827 7.215,1.827Zm-405.083,14.613l-17.638,0l0,-57.082l16.608,-0l1.145,5.936c1.756,-2.435 4.181,-4.338 7.273,-5.708c3.092,-1.37 6.509,-2.055 10.251,-2.055c6.796,-0 12.083,2.074 15.863,6.222c3.78,4.148 5.669,9.951 5.669,17.41l0,35.277l-17.638,0l0,-31.053c0,-3.577 -0.916,-6.45 -2.749,-8.619c-1.832,-2.169 -4.276,-3.254 -7.33,-3.254c-3.512,0 -6.299,1.047 -8.361,3.14c-2.062,2.093 -3.093,4.928 -3.093,8.505l0,31.281Zm59.869,-23.896c0.464,3.093 1.449,5.522 2.954,7.285c2.176,2.55 5.555,3.825 10.136,3.825c3.36,-0 6.147,-0.571 8.361,-1.713c2.215,-1.141 3.627,-2.74 4.238,-4.795l16.15,0c-0.993,6.317 -4.124,11.36 -9.392,15.127c-5.269,3.768 -11.836,5.651 -19.7,5.651c-5.727,0 -10.824,-1.293 -15.291,-3.881c-4.467,-2.588 -7.979,-6.146 -10.537,-10.675c-2.558,-4.528 -3.837,-9.723 -3.837,-15.583c0,-5.937 1.241,-11.169 3.723,-15.698c2.481,-4.528 5.936,-8.087 10.365,-10.674c4.429,-2.588 9.506,-3.882 15.233,-3.882c6.032,-0 11.225,1.237 15.577,3.71c4.352,2.474 7.712,5.975 10.079,10.504c2.367,4.528 3.551,9.913 3.551,16.154l-0,4.452l-41.61,0.193Zm12.24,-20.741c-2.851,0.035 -5.183,0.605 -6.995,1.711c-1.871,1.142 -3.265,2.911 -4.181,5.309c-0.336,0.88 -0.611,1.851 -0.824,2.911l23.846,0c-0,-3.044 -1.031,-5.461 -3.093,-7.249c-2.061,-1.789 -4.887,-2.683 -8.475,-2.683l-0.278,0.001Zm50.788,46.121c-6.033,0 -10.824,-1.655 -14.374,-4.966c-3.551,-3.311 -5.326,-7.744 -5.326,-13.3c-0,-5.252 1.813,-9.438 5.44,-12.558c3.627,-3.121 8.877,-4.947 15.749,-5.48l16.035,-1.256l-0,-0.913c-0,-1.903 -0.382,-3.482 -1.146,-4.738c-0.763,-1.256 -1.851,-2.207 -3.264,-2.854c-1.413,-0.647 -3.188,-0.971 -5.326,-0.971c-3.741,0 -6.586,0.685 -8.533,2.055c-1.947,1.37 -2.92,3.349 -2.92,5.937l-14.661,-0c0,-4.338 1.107,-8.106 3.322,-11.302c2.214,-3.197 5.364,-5.671 9.449,-7.421c4.085,-1.751 8.838,-2.626 14.259,-2.626c5.574,-0 10.289,0.989 14.145,2.968c3.856,1.979 6.796,4.871 8.82,8.677c2.023,3.805 3.035,8.448 3.035,13.928l-0,33.336l-15.577,0l-1.145,-7.535c-0.917,2.588 -3.074,4.738 -6.472,6.451c-3.397,1.712 -7.234,2.568 -11.51,2.568Zm6.185,-13.014c3.359,-0 6.108,-0.819 8.246,-2.455c2.138,-1.636 3.207,-4.091 3.207,-7.364l0,-3.082l-8.934,0.799c-3.817,0.305 -6.509,0.932 -8.074,1.884c-1.566,0.951 -2.348,2.34 -2.348,4.167c-0,2.055 0.649,3.577 1.947,4.566c1.298,0.99 3.283,1.485 5.956,1.485Zm52.946,-37.013c0.939,-2.154 2.284,-4.03 4.035,-5.628c2.71,-2.474 6.395,-3.711 11.052,-3.711c1.069,0 2.158,0.058 3.265,0.172c1.107,0.114 2.271,0.323 3.493,0.628l0,16.554l-5.612,-0c-5.04,-0 -8.991,1.217 -11.855,3.653c-2.863,2.435 -4.295,6.469 -4.295,12.101l0,24.774l-17.638,0l-0,-56.968l16.608,-0l0.947,8.425Z" style="fill:#fff;fill-rule:nonzero;"/></svg>