<svg xmlns="http://www.w3.org/2000/svg" viewBox="0 0 444 512"><g fill="none" fill-rule="evenodd" stroke-width="0"><path fill="#A1C535" d="M222 0v99L86 178 0 128 222 0Z"/><path fill="#ADD439" d="m444 128-86 50-136-79V0l222 128Z"/><path fill="#1B6AC6" d="m444 384-86-50V178l86-50v256Z"/><path fill="#2E90E8" d="M222 512v-99l136-79 86 50-222 128Z"/><path fill="#EA205E" d="m0 384 86-50 136 79v99L0 384Z"/><path fill="#A5073E" d="m0 128 86 50v156L0 384V128Z"/><path fill="#F1F6E2" d="m86 178 136-79 136 79-136 78-136-78Z"/><path fill="#CEDBE6" d="m222 256 136-78v156l-136 79V256Z"/><path fill="#FFF" d="m86 178 136 78v157L86 334V178Z"/></g></svg>