<svg xmlns="http://www.w3.org/2000/svg" viewBox="0 0 980.925 288"><g style="fill:none;fill-rule:evenodd;stroke:none;stroke-width:0"><path d="M130 288 0 217V72l50 28v88l80 44" style="fill:#a6043f;fill-opacity:1"/><path d="m0 72 50 28 80-46 80 46 50-28L130 0Z" style="fill:#95d921;fill-opacity:1"/><path d="m130 54 80 46-80 45-80-45z" style="fill:#dcdfe7"/><path d="m50 100 80 45v87l-80-44Z" style="fill:#fff"/><path d="m130 145 80-45v88l-80 44z" style="fill:#c9dae9"/><path d="m130 288 130-71V72l-50 28v88l-80 44" style="fill:#1d6ac6;fill-opacity:1"/><path d="M130 288 0 217l50-29 80 44" style="fill:#ea1f5e;fill-opacity:1"/><path d="m130 288 130-71-50-29-80 44" style="fill:#2e90e9;fill-opacity:1"/><g aria-label="NetBeans.IDE" style="font-style:normal;font-variant:normal;font-weight:400;font-stretch:normal;font-size:113.80524445px;line-height:125%;font-family:Montserrat;-inkscape-font-specification:Montserrat;letter-spacing:0;word-spacing:0;fill:#1e6abf;fill-opacity:1;stroke:none;stroke-width:4.13837242px;stroke-linecap:butt;stroke-linejoin:miter;stroke-opacity:1"><path d="M359.914 100.98h17.754v79.55h-17.754l-37.897-49.847v49.847h-17.754v-79.55h16.616l39.035 51.212zM448.5 171.653q-10.355 9.787-24.354 9.787-13.884 0-22.988-8.535-9.105-8.65-9.105-23.103 0-14.453 9.219-22.988 9.332-8.536 21.964-8.536 12.632 0 21.395 7.625 8.877 7.625 8.877 20.94v9.105h-44.611q.796 5.007 5.235 8.194 4.438 3.187 10.014 3.187 8.991 0 14.795-6.032zm-12.29-27.882q-.57-5.463-4.097-8.422-3.528-2.959-8.65-2.959-5.007 0-9.218 3.073-4.21 3.073-4.893 8.308zM485.411 131.594v27.427q0 3.528 1.82 5.576 1.822 1.935 4.326 1.935 4.78 0 8.08-4.325l6.373 11.95q-7.967 7.283-16.843 7.283-8.763 0-14.909-5.804-6.032-5.804-6.032-15.819v-28.223h-7.17v-12.291h7.17V100.98h17.185v18.323h14.795v12.29z" style="font-style:normal;font-variant:normal;font-weight:700;font-stretch:normal;font-family:Montserrat;-inkscape-font-specification:&quot;Montserrat Bold&quot;;fill:#1e6abf;fill-opacity:1;stroke-width:4.13837242px"/><path d="M552.608 100.866q12.063 0 18.891 5.35 6.942 5.234 6.942 14.566 0 6.942-3.983 11.722-3.87 4.78-10.811 6.26 8.649 1.251 13.429 6.6 4.78 5.349 4.78 13.543 0 10.129-7.625 15.933-7.625 5.69-21.168 5.69h-34.028v-79.664zm-.456 34.483q8.08 0 12.519-3.414 4.438-3.528 4.438-9.787 0-6.146-4.438-9.446-4.438-3.414-12.519-3.414H528.14v26.061zm0 36.76q9.788.113 15.137-3.642 5.348-3.756 5.348-10.698 0-6.715-5.462-10.356-5.35-3.756-15.023-3.642H528.14v28.337zM623.03 120.327q14.226 0 21.395 9.104 7.284 8.991 6.601 24.468H602.09q1.138 8.877 7.056 14.226t14.68 5.349q5.463 0 10.243-1.935 4.78-2.048 8.308-5.69l4.894 5.121q-4.325 4.78-10.584 7.398-6.146 2.503-13.543 2.503-8.763 0-15.591-3.755-6.715-3.87-10.47-10.698-3.756-6.942-3.756-15.819 0-8.763 3.755-15.591 3.756-6.942 10.47-10.812 6.829-3.87 15.478-3.87zm20.03 26.517q-.455-8.763-5.918-13.885-5.349-5.235-14.112-5.235-8.65 0-14.34 5.235-5.69 5.122-6.6 13.885zM703.478 180.53v-9.332q-7.17 9.673-21.965 9.673-6.031 0-10.697-2.39-4.666-2.39-7.17-6.486-2.504-4.097-2.504-9.219 0-7.852 5.918-12.404 5.918-4.666 16.502-4.78h19.688v-3.756q0-6.714-4.097-10.356-4.097-3.756-11.95-3.756-9.217 0-19.005 6.942l-3.755-6.259q6.373-4.21 11.722-6.145 5.462-1.935 12.746-1.935 11.039 0 16.957 5.463 6.031 5.462 6.145 15.136l.114 39.604zm-20.257-7.056q7.624 0 12.973-3.528 5.463-3.642 7.17-10.015v-7.283H684.7q-15.25 0-15.25 9.787 0 5.007 3.756 8.08 3.755 2.959 10.015 2.959zM763.928 120.327q10.698 0 16.73 6.26 6.031 6.145 6.031 17.07v36.873h-8.877v-34.597q0-7.966-4.552-12.518-4.438-4.553-12.405-4.553-8.763.114-14.112 5.463-5.235 5.235-6.031 14.112v32.093h-8.877v-59.862h8.877v13.202q6.145-13.315 23.216-13.543zM838.157 132.504q-3.527-2.276-7.852-3.528-4.325-1.252-8.422-1.252-5.349 0-8.649 2.049-3.186 1.934-3.186 6.031 0 2.846 1.82 4.666 1.821 1.821 4.553 2.96 2.731 1.024 7.51 2.503 6.26 1.935 10.13 3.756 3.983 1.82 6.714 5.235 2.731 3.414 2.731 8.99 0 8.308-6.373 12.633-6.26 4.324-15.591 4.324-6.487 0-12.632-2.162-6.146-2.276-10.357-6.26l3.414-6.486q3.756 3.528 9.105 5.576 5.462 2.049 10.811 2.049 5.69 0 9.219-2.276 3.641-2.276 3.641-6.715 0-4.324-3.528-6.487-3.528-2.162-10.697-4.21-6.032-1.821-9.788-3.528-3.755-1.821-6.486-5.122-2.618-3.3-2.618-8.649 0-8.08 5.918-12.177 5.918-4.21 14.908-4.21 5.235 0 10.243 1.479 5.007 1.48 8.877 3.983zM858.657 169.832q2.276 0 3.87 1.707 1.592 1.594 1.592 4.097 0 2.504-1.593 4.211-1.593 1.593-3.87 1.593-2.39 0-3.983-1.593-1.593-1.707-1.593-4.21 0-2.504 1.593-4.098 1.594-1.707 3.984-1.707z" style="font-style:normal;font-variant:normal;font-weight:300;font-stretch:normal;font-family:Montserrat;-inkscape-font-specification:&quot;Montserrat Light&quot;;fill:#1e6abf;fill-opacity:1;stroke-width:4.13837242px"/><path d="M876.967 134.18h5.297v46.35h-5.297zM915.104 134.18q6.688 0 12.117 3.046 5.43 3.046 8.542 8.343 3.178 5.297 3.178 11.786t-3.178 11.786q-3.112 5.297-8.608 8.343-5.496 3.046-12.25 3.046h-18.54v-46.35zm.066 41.45q5.099 0 9.27-2.384 4.238-2.383 6.688-6.555 2.45-4.171 2.45-9.27 0-5.164-2.516-9.336-2.45-4.171-6.688-6.555-4.238-2.45-9.402-2.45h-13.31v36.55zM948.613 134.18h31.451v4.9H953.91v15.56h23.373v4.834H953.91v16.156h27.015v4.9h-32.312z" style="font-size:66.21395874px;fill:#1e6abf;fill-opacity:1;stroke-width:4.13837242px"/></g></g></svg>