<svg viewBox="0 0 256 226" xmlns="http://www.w3.org/2000/svg" width="256" height="226" preserveAspectRatio="xMidYMid"><path fill="#05BDBA" d="M69.181 188.087h-2.417l-12.065-12.065v-2.417l18.444-18.444h12.778l1.704 1.704v12.778zM54.699 51.628v-2.417l12.065-12.065h2.417L87.625 55.59v12.778l-1.704 1.704H73.143z"/><path fill="#014847" d="M160.906 149.198h-17.552l-1.466-1.466v-41.089c0-7.31-2.873-12.976-11.689-13.174-4.537-.119-9.727 0-15.274.218l-.833.852v53.173l-1.466 1.466H95.074l-1.466-1.466v-70.19l1.466-1.467h39.503c15.354 0 27.795 12.441 27.795 27.795v43.882l-1.466 1.466Z"/><path fill="#05BDBA" d="M71.677 122.889H1.466L0 121.423V103.83l1.466-1.466h70.211l1.466 1.466v17.593zM254.534 122.889h-70.211l-1.466-1.466V103.83l1.466-1.466h70.211L256 103.83v17.593zM117.876 54.124V1.466L119.342 0h17.593l1.466 1.466v52.658l-1.466 1.466h-17.593zM117.876 223.787v-52.658l1.466-1.466h17.593l1.466 1.466v52.658l-1.466 1.465h-17.593z"/></svg>