<svg xmlns="http://www.w3.org/2000/svg" width="512" height="512" viewBox="0 0 512 512"><g transform="translate(0 -540.36)"><path fill="#8f0000" d="M0 540.36h512v392H0z" style="color:#000"/><rect width="500.23" height="108.23" x="5.886" y="938.25" fill="#fff" stroke="#fff" stroke-width="11.772" ry="0"/><path fill="#fff" d="M122.88 305.82c-2.385 0-4.379 2.038-4.379 4.422v.774c-2.23.11-4.039.546-5.328 1.431-1.595 1.095-2.468 2.582-3.182 3.877s-1.3 2.41-2.15 3.19c-.725.665-1.8 1.121-3.451 1.33-.214-2.192-2.062-3.951-4.305-3.951H82.918c-2.385 0-4.417 1.965-4.417 4.35v4.241c0 2.385 2.032 4.352 4.417 4.352h17.167c2.384 0 4.387-1.967 4.387-4.352v-1.613c9.725.153 12.467 2.603 15.594 5.338 3 2.624 6.666 5.379 15.436 5.495v.736c0 2.385 2.07 4.38 4.454 4.38h17.092c2.384 0 4.454-1.995 4.454-4.38v-4.242c0-2.385-2.07-4.378-4.454-4.378h-17.092c-2.385 0-4.454 1.993-4.454 4.378v.586c-8.099-.06-10.486-2.156-13.498-4.79-2.504-2.19-5.64-4.585-11.947-5.586 1.176-1.18 1.883-2.519 2.513-3.662.678-1.228 1.29-2.2 2.27-2.873.763-.524 1.976-.84 3.662-.94v.551c0 2.385 1.994 4.336 4.379 4.336h17.242c2.385 0 4.379-1.951 4.379-4.336v-4.242c0-2.384-1.994-4.422-4.379-4.422zm0 3h17.242c.805 0 1.379.617 1.379 1.422v4.242c0 .806-.574 1.336-1.379 1.336H122.88c-.805 0-1.379-.53-1.379-1.336v-4.242c0-.805.574-1.422 1.379-1.422zm-39.962 11.016h17.167c.805 0 1.417.601 1.417 1.406v4.242c0 .806-.612 1.409-1.417 1.409H82.918c-.805 0-1.417-.603-1.417-1.409v-4.242c0-.805.612-1.406 1.417-1.406zm57.038 9.984h17.092c.805 0 1.454.573 1.454 1.378v4.168c0 .805-.649 1.454-1.454 1.454h-17.092a1.451 1.451 0 0 1-1.454-1.454v-4.168c0-.805.649-1.378 1.454-1.378z" style="color-rendering:auto;text-decoration-color:#000;color:#000;isolation:auto;mix-blend-mode:normal;shape-rendering:auto;solid-color:#000;block-progression:tb;text-decoration-line:none;image-rendering:auto;white-space:normal;text-indent:0;text-transform:none;text-decoration-style:solid" transform="matrix(4 0 0 4 -162 -450.91)"/><g fill="#8f0000"><path d="M90.996 954.336v8.459l-7.999 1.442v60.078H69.033l-28.534-47.102-.5.048v37.2l8 1.442v8.41H19.001v-8.41l7.45-1.442v-50.225L19 962.794v-8.46h21.484l28.37 47.103.144-.048v-37.152l-7-1.442v-8.46h28.999zM94.997 997.83q0-11.63 6.488-19.033 6.537-7.45 18.024-7.45 11.534 0 18.023 7.402 6.536 7.402 6.536 19.081v1.01q0 11.726-6.536 19.128-6.489 7.354-17.927 7.354-11.583 0-18.12-7.354-6.488-7.402-6.488-19.129v-1.009zm14.035 1.01q0 7.113 2.499 11.438 2.5 4.277 8.074 4.277 5.431 0 7.93-4.325 2.548-4.326 2.548-11.392v-1.009q0-6.92-2.547-11.295-2.548-4.374-8.027-4.374t-7.978 4.374-2.5 11.295v1.01zM184.48 1017.958c-1.634 2.403-3.572 4.23-5.815 5.48-2.211 1.249-4.743 1.884-7.594 1.884-6.409 0-11.392-2.35-14.948-7.027-3.525-4.679-5.129-10.862-5.129-18.553v-1.01c0-8.202 1.62-14.819 5.177-19.849 3.557-5.03 8.555-7.546 14.996-7.546 2.595 0 4.934.577 7.017 1.73 2.083 1.122 4.24 2.724 5.81 4.807v-18.649l-8-1.441v-8.46h21.999v65.125l6 1.442v8.43h-18.455l-1.057-6.363zm-19.486-18.215c0 4.55.629 8.138 2.135 10.765 1.538 2.596 4.037 3.893 7.498 3.893 2.05 0 3.829-.416 5.335-1.25 1.505-.832 3.07-2.034 4.03-3.604v-22.06c-.96-1.667-2.524-2.949-4.03-3.846-1.474-.929-3.22-1.394-5.24-1.394-3.428 0-5.927 1.522-7.497 4.566s-2.231 7.017-2.231 11.92v1.01zM233.698 1025.276c-7.498 0-13.49-2.403-17.975-7.21-4.486-4.806-6.729-10.91-6.729-18.312v-1.922c0-7.722 2.115-14.082 6.344-19.08 4.262-5 9.965-7.46 17.11-7.428 7.018 0 12.465 2.092 16.342 6.322 3.877 4.23 6.469 9.954 6.202 17.158v7.518h-31.435l-.096.412c.256 3.429 1.394 6.248 3.412 8.46 2.051 2.21 4.823 3.316 8.315 3.316 3.108 0 5.688-.305 7.738-.914 2.051-.64 4.294-1.634 6.73-2.98l3.796 8.652c-2.147 1.698-4.934 3.124-8.363 4.277-3.396 1.154-7.193 1.73-11.391 1.73zm-1.25-43.16c-2.595 0-4.646.993-6.152 2.98s-2.435 4.597-2.787 7.833l.144.394h17.34v-1.403c0-2.98-.838-5.35-2.248-7.113-1.378-1.794-3.477-2.692-6.296-2.692zM291.988 1000.316h-27v-11h27zM331.883 954.336c7.946 0 14.18 1.826 18.697 5.479 4.518 3.62 6.407 8.636 6.407 15.044 0 3.525-.576 6.584-2.466 9.18-1.89 2.595-4.662 4.694-8.315 6.296 4.133 1.217 7.097 3.252 8.892 6.104 1.826 2.82 2.889 6.328 2.889 10.526v3.557c0 1.538.155 2.74.763 3.604.61.833 1.618 1.33 3.028 1.49l1.208.24v8.46h-6.735c-4.582 0-7.802-1.234-9.66-3.701s-2.604-5.656-2.604-9.565v-3.989c0-3.396-1.097-6.056-2.924-7.978-1.794-1.955-4.341-2.98-7.642-3.076h-11.433v18.456l7 1.442v8.41h-29v-8.41l8-1.442v-50.225l-8-1.442v-8.46h31.896zm-9.949 30.856h9.709c3.909 0 6.84-.833 8.795-2.5s2.932-4.069 2.932-7.209c0-3.14-.977-5.64-2.932-7.498-1.922-1.89-4.774-2.835-8.555-2.835h-9.895v20.042zM412.987 993.32h-22.999v19.998h22.216l.625-8h10.206v18.988h-55.046v-8.411l8-1.442v-50.225l-8-1.442v-8.465H422.939v19h-10.302l-.625-8h-22.024v17h22.999v10.998zM462.476 954.356c8.555 0 15.604 2.715 21.147 8.194 5.544 5.447 8.359 12.422 8.359 20.977v11.583c0 8.587-2.815 15.63-8.359 21.078-5.543 5.415-12.592 8.122-21.147 8.122h-31.492v-8.41l7-1.516v-50.225l-7-1.369v-8.435l7.46-.073 24.032.076zm-10.493 10.763v48.399l9.771.026c5.031.013 8.972-1.699 11.824-5.095 2.851-3.397 4.404-7.813 4.404-13.292v-11.679c0-5.415-1.553-9.842-4.404-13.239-2.852-3.396-6.793-5.094-11.824-5.094l-9.771-.026z"/></g></g></svg>