<svg xmlns="http://www.w3.org/2000/svg" width="128" height="23.498" fill="none" viewBox="0 0 128 23.498"><path fill="#3f3f46" d="M5.101 13.831q0-1.607.536-2.731.562-1.151 1.874-2.223l.589-.482q.803-.616 1.205-.991.402-.402.643-.91.268-.509.268-1.205.027-1.526-1.098-2.464-1.125-.964-2.946-.964-1.794 0-2.919 1.205-1.097 1.178-1.285 3.16L.013 6.092q.134-1.767.964-3.133T3.119.817Q4.459.04 6.092.04q1.767 0 3.133.669 1.392.669 2.169 1.874.777 1.178.777 2.705 0 .91-.375 1.714-.348.777-1.044 1.5-.696.696-1.821 1.526l-.027.027q-1.044.777-1.5 1.66-.455.857-.455 2.115zm2.115 3.106v2.544H4.753v-2.544z"/><path fill="#fff" d="m18.458 5.289.161 3.99-.455-.241q.321-2.115 1.553-3.079 1.259-.991 3.106-.991 2.303 0 3.562 1.473 1.285 1.446 1.285 3.91v9.13h-3.454v-8.033q0-1.259-.241-2.035-.241-.803-.777-1.205-.536-.428-1.419-.428-1.419 0-2.196.937t-.777 2.731v8.033h-3.481V5.289z"/><path fill="#3f3f46" d="M44.796 7.967v1.687H32.05V7.967zm0 5.516v1.687H32.05v-1.687z"/><path fill="#fff" d="m58.241 19.481-.107-3.91.428.241q-.321 2.062-1.553 3.026t-3.026.964q-2.276 0-3.535-1.473t-1.259-3.91v-9.13h3.481v8.007q0 1.285.214 2.089.241.777.75 1.205.536.402 1.419.402 1.366 0 2.115-.937.777-.937.777-2.758V5.289h3.481v14.192z"/><path fill="#3f3f46" d="M68.462.469a4.03 4.03 0 0 1 2.196-.455 4.16 4.16 0 0 1 2.223.803q.991.696 1.446 1.821.456 1.098.161 2.383-.267 1.178-1.205 2.276-.91 1.071-2.41 2.035l4.767 6.052q.456-.643.696-1.687.268-1.044.241-2.142l1.928.187a9.4 9.4 0 0 1-.536 2.812q-.455 1.339-1.178 2.249l2.196 2.678h-2.223l-1.125-1.419q-.856.83-2.115 1.285a7.7 7.7 0 0 1-2.678.455q-1.873 0-3.321-.616-1.446-.643-2.276-1.821-.803-1.178-.803-2.838 0-1.633.803-2.838c.803-1.205 1.401-1.625 2.597-2.464q.242-.16.455-.295l-.268-.348q-.91-1.232-1.365-2.249-.428-1.044-.428-2.089 0-1.312.589-2.276.616-.991 1.633-1.5m4.445 17.272q.938-.375 1.5-1.044l-5.008-6.346q-1.472.964-2.276 1.955-.776.964-.776 2.223 0 1.098.562 1.901.589.803 1.606 1.232t2.33.428q1.125 0 2.062-.348M68.489 5.932q.429.857 1.312 2.008 1.446-.804 2.196-1.687.777-.91.777-1.848 0-1.098-.616-1.821t-1.607-.75q-1.07-.027-1.767.669t-.696 1.794q0 .75.402 1.633"/><path fill="#fff" d="M94.447 5.289v18.209h-3.481v-6.989l.348.268q-.348.991-.991 1.66t-1.526 1.018q-.883.348-1.982.348-1.955 0-3.347-.991-1.365-.991-2.062-2.651-.669-1.687-.669-3.776c0-2.089.224-2.642.669-3.749q.697-1.687 2.062-2.678 1.394-.991 3.347-.991 1.661 0 2.812.777 1.179.75 1.714 2.196l-.295.321.107-2.972zm-3.588 9.399q.375-1.044.375-2.303c0-1.259-.125-1.607-.375-2.303q-.375-1.044-1.151-1.687t-1.928-.643q-1.687 0-2.571 1.339t-.884 3.294q0 1.982.884 3.321.884 1.312 2.571 1.312 1.152 0 1.928-.643.777-.643 1.151-1.687"/><path fill="#3f3f46" d="M111.559 7.967v1.687H98.813V7.967zm0 5.516v1.687H98.813v-1.687z"/><path fill="#fff" d="M124.308 9.814a2.54 2.54 0 0 0-1.018-1.633q-.83-.616-1.848-.616t-1.687.509q-.67.482-.643 1.312.026.803.803 1.232.776.429 2.035.669 2.089.348 3.374.857 1.285.482 1.955 1.339.696.857.696 2.196 0 1.366-.803 2.303-.803.91-2.169 1.366-1.366.455-3.079.455-1.928 0-3.428-.562-1.473-.589-2.33-1.66-.858-1.098-.964-2.597l3.508-.187q.134.75.536 1.285c.402.535.625.634 1.071.83q.67.268 1.553.268 1.017 0 1.767-.375.776-.401.777-1.205-.027-.562-.348-.91t-.803-.509q-.482-.188-1.312-.348-.215-.027-.562-.134-2.008-.402-3.24-.857-1.205-.482-1.928-1.285-.697-.83-.696-2.115 0-1.366.723-2.383.75-1.017 2.115-1.553 1.392-.562 3.267-.562 2.49 0 4.151 1.285 1.687 1.259 2.035 3.428z"/></svg>