<svg width="193" height="33" viewBox="0 0 193 33" fill="none" xmlns="http://www.w3.org/2000/svg">
<path d="M61.0602 33C61.4058 33 61.7002 32.7135 61.7002 32.36V17.48C61.7002 17.48 62.5002 18.92 63.9402 21.32L70.1802 32.04C70.4658 32.6384 71.0992 33 71.6202 33H75.9402V9H71.6202C71.3325 9 70.9802 9.23906 70.9802 9.64V24.68L68.1002 19.56L62.3402 9.8C62.0599 9.3026 61.4568 9 60.9002 9H56.7402V33H61.0602Z" fill="black"/>
<path d="M116.9 15.72H118.98C119.51 15.72 119.94 15.2902 119.94 14.76V10.6H124.42V15.72H128.74V19.56H124.42V26.44C124.42 28.12 125.229 28.84 126.66 28.84H128.74V33H126.02C122.332 33 119.94 30.6114 119.94 26.6V19.56H116.9V15.72Z" fill="black"/>
<path d="M95.3002 15.72V25.64C95.3002 27.8806 94.459 29.7695 93.2202 31.08C91.9815 32.3905 90.2708 33 87.9402 33C85.6097 33 83.739 32.3905 82.5002 31.08C81.2825 29.7695 80.4202 27.8806 80.4202 25.64V15.72H82.9802C83.5261 15.72 84.0633 15.8195 84.4202 16.2C84.7772 16.5593 84.9002 16.7704 84.9002 17.32V25.64C84.9002 26.9294 84.9733 27.7259 85.5402 28.36C86.1071 28.973 86.8064 29.16 87.9402 29.16C89.095 29.16 89.6133 28.973 90.1802 28.36C90.7471 27.7259 90.8202 26.9294 90.8202 25.64V17.32C90.8202 16.7704 90.9433 16.4205 91.3002 16.04C91.6138 15.7057 91.9447 15.7136 92.4202 15.72C92.4859 15.7209 92.674 15.72 92.7402 15.72H95.3002Z" fill="black"/>
<path d="M108.9 24.04L114.34 15.72H110.18C109.656 15.72 109.19 15.9081 108.9 16.36L106.34 20.2L103.94 16.52C103.65 16.0681 103.025 15.72 102.5 15.72H98.5002L103.94 23.88L98.0202 33H102.18C102.7 33 103.169 32.486 103.46 32.04L106.34 27.72L109.38 32.2C109.671 32.646 110.14 33 110.66 33H114.82L108.9 24.04Z" fill="black"/>
<path fill-rule="evenodd" clip-rule="evenodd" d="M17.1881 1.40628C17.753 1.08711 18.392 0.919922 19.0413 0.919922C19.6906 0.919922 20.3296 1.08711 20.8945 1.40628C21.4595 1.72552 21.9316 2.18634 22.2611 2.74474L25.18 7.6978L27.708 11.7901L28.7711 9.93003L29.0656 9.4121L30.1085 7.59002C30.4378 7.03153 30.9098 6.57063 31.4747 6.2513C32.0395 5.93205 32.6785 5.7648 33.3277 5.7648C33.9769 5.7648 34.6159 5.93205 35.1807 6.2513C35.7456 6.57063 36.2175 7.03155 36.5468 7.59005L39.4891 12.5789L39.4916 12.579L39.6512 12.8538L48.2352 27.4084C48.2351 27.4083 48.2353 27.4085 48.2352 27.4084C48.565 27.9669 48.7399 28.6027 48.7402 29.2512C48.7405 29.8998 48.5662 30.5356 48.2368 31.0944C47.9076 31.653 47.4355 32.1141 46.8705 32.4334C46.3056 32.7527 45.6665 32.92 45.0171 32.9199H26.596L30.1457 26.9107H40.884L33.3268 14.0986L25.6266 27.149C24.3946 29.1857 22.8541 30.6957 20.9935 31.6593C20.9754 31.6697 20.9571 31.6801 20.9386 31.6907C20.4278 31.9813 19.7361 32.3361 19.0722 32.5441C18.4174 32.7493 17.3724 32.8377 16.549 32.8796C16.518 32.8812 16.4873 32.8827 16.4567 32.8842C16.1181 32.908 15.7725 32.9199 15.4199 32.9199H15.0461L15.0331 32.9199L15.0086 32.9199L15.0002 32.9199H4.49461C4.49458 32.9199 4.49463 32.9199 4.49461 32.9199C3.84528 32.92 3.20608 32.7527 2.64121 32.4334C2.07619 32.114 1.60416 31.653 1.27487 31.0944C0.945467 30.5356 0.771196 29.8998 0.771485 29.2512C0.771773 28.6027 0.946537 27.9672 1.2763 27.4088M1.2763 27.4088L6.17758 19.0977L8.8281 14.4409L12.135 8.99581L15.8214 2.74488C16.1509 2.18648 16.6231 1.72552 17.1881 1.40628M7.26533 19.5262L13.006 9.79174L18.4155 8.04564L7.9688 25.7571L7.26533 19.5262ZM6.29463 21.1722L2.26113 28.0118C2.03761 28.3902 1.92063 28.818 1.92044 29.2517C1.92034 29.4725 1.95045 29.6917 2.00949 29.9036L6.97783 27.2235L6.29463 21.1722ZM7.41139 28.3143L2.5795 30.9208C2.75717 31.1127 2.96563 31.278 3.19856 31.4097C3.59115 31.6316 4.03818 31.7492 4.49447 31.7492H9.74517L7.41139 28.3143ZM15.004 31.7492L15.0456 31.7492L15.1192 31.7489C15.1947 31.7486 15.3044 31.7476 15.4399 31.7454C15.6892 31.7412 16.0246 31.7327 16.3938 31.7152C17.9038 31.6074 19.2523 31.2437 20.4509 30.627C20.6359 30.5203 20.7962 30.4223 20.9198 30.3447L20.7673 25.5273C20.1746 26.2872 19.525 26.8678 18.7788 27.2815C17.7512 27.8513 16.591 28.0764 15.2418 28.0764L8.64624 28.075L11.127 31.7262L15.004 31.7492ZM8.63265 26.9043L15.2418 26.9057C15.2417 26.9057 15.2418 26.9057 15.2418 26.9057C16.4657 26.9057 17.4207 26.7017 18.2297 26.2532C19.0369 25.8056 19.7492 25.0866 20.4417 23.9695L24.079 17.8006L19.0459 9.24953L8.63265 26.9043ZM24.6408 19.1211L21.8258 23.8953H25.3837L24.6408 19.1211ZM25.515 25.066H21.9023L22.0454 29.5879C23.0355 28.7899 23.8995 27.7723 24.6468 26.5375C24.6473 26.5366 24.6479 26.5356 24.6485 26.5347L25.515 25.066ZM26.4758 23.4377L32.6343 13.0001L29.4707 11.0349L28.116 13.4172L25.641 18.0728L26.4758 23.4377ZM27.0601 12.9389L24.1979 8.3058L22.6121 5.61454L19.4272 7.62126L24.8405 16.818L26.1977 14.4556L26.1989 14.4533L27.0601 12.9389ZM19.0523 6.481L22.0206 4.61078L21.2765 3.34802C21.053 2.96927 20.7299 2.65191 20.3373 2.43013C19.9447 2.20827 19.4976 2.09064 19.0413 2.09064C18.585 2.09064 18.1379 2.20827 17.7453 2.43013C17.4451 2.59974 17.1855 2.82524 16.98 3.09134L19.0523 6.481ZM16.3039 4.1996L13.9005 8.27495L17.9887 6.95534L16.3039 4.1996ZM34.3459 13.5538L41.7403 26.0898L42.9574 20.7747L40.9931 17.4618L38.8222 13.7249L34.3459 13.5538ZM43.8142 22.1852L42.6854 27.1148H46.7216L43.8142 22.1852ZM47.3901 28.2855H42.2521L37.6807 31.7492H45.0172C45.4735 31.7492 45.9206 31.6316 46.3132 31.4097C46.7056 31.1878 47.0286 30.8704 47.2519 30.4916C47.4751 30.113 47.5915 29.6854 47.5913 29.2517C47.5911 28.9196 47.5226 28.5911 47.3901 28.2855ZM36.4689 31.2084L40.596 28.0814H32.5307L36.4689 31.2084ZM30.7524 28.1537L35.2808 31.7492H28.6286L30.7524 28.1537ZM38.1177 12.5264L35.562 8.193C35.3387 7.81428 35.0157 7.49684 34.6233 7.27504C34.5515 7.23446 34.4779 7.19737 34.4028 7.16385L33.9822 12.3683L38.1177 12.5264ZM32.8769 11.7797L33.2684 6.93619C32.8328 6.94593 32.4075 7.0628 32.0321 7.27504C31.6408 7.49622 31.3186 7.81243 31.0953 8.18975L30.0479 10.0223L32.8769 11.7797Z" fill="#00DC82"/>
<path fill-rule="evenodd" clip-rule="evenodd" d="M182.044 32.5519C182.834 32.9146 183.663 32.9999 184.58 32.9999C186.137 32.9999 187.516 32.7546 188.668 32.0719C189.82 31.3892 190.695 30.4186 191.292 29.1599C191.911 27.9012 192.26 26.5039 192.26 24.8399C192.26 23.1759 191.911 21.6506 191.292 20.3919C190.695 19.1332 189.82 18.1626 188.668 17.4799C187.538 16.7972 186.204 16.4559 184.668 16.4559C183.687 16.4559 182.812 16.6372 182.044 16.9999C181.276 17.3412 180.569 17.8106 180.1 18.4079V10.5039H176.9C176.193 10.5039 175.62 11.077 175.62 11.7839V32.9999H180.1V31.0799C180.548 31.6986 181.255 32.1892 182.044 32.5519ZM181.02 28.0399C180.295 27.2079 179.94 26.1199 179.94 24.7759C179.94 23.4106 180.284 22.3226 180.988 21.5119C181.714 20.6799 182.674 20.2639 183.868 20.2639C185.063 20.2639 186.012 20.6799 186.716 21.5119C187.442 22.3226 187.804 23.4106 187.804 24.7759C187.804 26.1199 187.442 27.2079 186.716 28.0399C185.991 28.8506 185.042 29.2559 183.868 29.2559C182.695 29.2559 181.746 28.8506 181.02 28.0399ZM152.74 32.9999V10.5999H149.54C148.833 10.5999 148.26 11.173 148.26 11.8799V19.5599H139.62V10.5999H135.14V32.9999H138.331C139.042 32.9999 139.616 32.4215 139.611 31.7112L139.556 23.5599H148.26V32.9999H152.74ZM171.62 25.6418V15.7218H169.06C169.041 15.7218 169.013 15.7219 168.98 15.722C168.897 15.7222 168.787 15.7225 168.74 15.7218L168.726 15.7216C168.258 15.7153 167.931 15.7109 167.62 16.0418C167.263 16.4223 167.14 16.7723 167.14 17.3218V25.6418C167.14 26.9312 167.067 27.7277 166.5 28.3618C165.933 28.9748 165.415 29.1618 164.26 29.1618C163.126 29.1618 162.427 28.9748 161.86 28.3618C161.293 27.7277 161.22 26.9312 161.22 25.6418V17.3218C161.22 16.7723 161.097 16.5612 160.74 16.2018C160.383 15.8214 159.846 15.7218 159.3 15.7218H156.74V25.6418C156.74 27.8824 157.602 29.7713 158.82 31.0818C160.059 32.3924 161.93 33 164.26 33C166.591 33 168.301 32.3924 169.54 31.0818C170.779 29.7713 171.62 27.8824 171.62 25.6418Z" fill="#00DC82"/>
</svg>
