<svg width="165" height="32" viewBox="0 0 165 32" fill="none" xmlns="http://www.w3.org/2000/svg">
<path d="M61.2199 32C61.5655 32 61.8599 31.7134 61.8599 31.36V16.48C61.8599 16.48 62.6599 17.92 64.0999 20.32L70.3399 31.04C70.6254 31.6384 71.2589 32 71.7799 32H76.0999V8H71.7799C71.4922 8 71.1399 8.23906 71.1399 8.64V23.68L68.2599 18.56L62.4999 8.8C62.2196 8.3026 61.6165 8 61.0599 8H56.8999V32H61.2199Z" fill="black"/>
<path d="M117.06 14.72H119.14C119.67 14.72 120.1 14.2902 120.1 13.76V9.6H124.58V14.72H128.9V18.56H124.58V25.44C124.58 27.12 125.389 27.84 126.82 27.84H128.9V32H126.18C122.492 32 120.1 29.6114 120.1 25.6V18.56H117.06V14.72Z" fill="black"/>
<path d="M95.4599 14.72V24.64C95.4599 26.8806 94.6187 28.7695 93.3799 30.08C92.1411 31.3905 90.4305 32 88.0999 32C85.7693 32 83.8987 31.3905 82.6599 30.08C81.4421 28.7695 80.5799 26.8806 80.5799 24.64V14.72H83.1399C83.6858 14.72 84.223 14.8195 84.5799 15.2C84.9368 15.5593 85.0599 15.7704 85.0599 16.32V24.64C85.0599 25.9294 85.133 26.7259 85.6999 27.36C86.2668 27.973 86.9661 28.16 88.0999 28.16C89.2547 28.16 89.773 27.973 90.3399 27.36C90.9068 26.7259 90.9799 25.9294 90.9799 24.64V16.32C90.9799 15.7704 91.103 15.4205 91.4599 15.04C91.7735 14.7057 92.1043 14.7136 92.5799 14.72C92.6456 14.7209 92.8336 14.72 92.8999 14.72H95.4599Z" fill="black"/>
<path d="M109.06 23.04L114.5 14.72H110.34C109.816 14.72 109.35 14.9081 109.06 15.36L106.5 19.2L104.1 15.52C103.81 15.0681 103.184 14.72 102.66 14.72H98.6599L104.1 22.88L98.1799 32H102.34C102.86 32 103.329 31.4859 103.62 31.04L106.5 26.72L109.54 31.2C109.831 31.6459 110.3 32 110.82 32H114.98L109.06 23.04Z" fill="black"/>
<path d="M27.7799 32H45.5399C46.1066 32.0001 46.6491 31.8009 47.1399 31.52C47.6307 31.2391 48.1366 30.8865 48.4199 30.4C48.7031 29.9135 48.9001 29.3615 48.8999 28.7998C48.8996 28.2381 48.7036 27.6864 48.4199 27.2001L36.4199 6.56C36.1366 6.0736 35.7906 5.72083 35.2999 5.44C34.8092 5.15916 34.1065 4.96 33.5399 4.96C32.9732 4.96 32.4306 5.15916 31.9399 5.44C31.4492 5.72083 31.1031 6.0736 30.8199 6.56L27.7799 11.84L21.6999 1.59962C21.4164 1.11325 21.0707 0.600786 20.5799 0.32C20.0891 0.0392139 19.5466 0 18.9799 0C18.4132 0 17.8707 0.0392139 17.3799 0.32C16.8891 0.600786 16.3834 1.11325 16.0999 1.59962L1.2199 27.2001C0.936219 27.6864 0.900149 28.2381 0.899903 28.7998C0.899656 29.3615 0.936646 29.9134 1.2199 30.3999C1.50316 30.8864 2.00909 31.2391 2.4999 31.52C2.99071 31.8009 3.53315 32.0001 4.0999 32H15.2999C19.7378 32 22.9679 30.0092 25.2199 26.24L30.6599 16.8L33.5399 11.84L42.3399 26.88H30.6599L27.7799 32ZM15.1399 26.88H7.2999L18.9799 6.72L24.8999 16.8L20.9785 23.636C19.483 26.0816 17.7779 26.88 15.1399 26.88Z" fill="#00DC82"/>
<path d="M154.18 9.60011H150.98C150.264 9.60011 149.688 9.59041 149.22 10.0801C148.752 10.5426 148.9 10.8128 148.9 11.5201V22.5601C148.9 24.2196 148.683 25.104 147.94 25.9201C147.196 26.709 146.255 27.0401 144.74 27.0401C143.253 27.0401 142.123 26.709 141.38 25.9201C140.636 25.104 140.58 24.2196 140.58 22.5601V11.5201C140.58 10.8128 140.568 10.5426 140.1 10.0801C139.632 9.59043 139.056 9.60011 138.34 9.60011H135.3V22.5601C135.3 25.4438 136.102 27.7534 137.7 29.4401C139.325 31.1268 141.683 32.0001 144.74 32.0001C147.797 32.0001 150.155 31.1268 151.78 29.4401C153.405 27.7534 154.18 25.4438 154.18 22.5601V9.60011Z" fill="#00DC82"/>
<path fill-rule="evenodd" clip-rule="evenodd" d="M160.9 9.60382L164.1 9.6001V12.3201L164.1 20.4801V24.9613L164.1 28.9601L164.1 30.2407C164.1 30.8702 164.097 31.1087 163.62 31.5203C163.142 31.9561 162.43 32.0001 161.7 32.0001H158.66V28.9611L158.66 20.8019V11.2035C158.66 10.5853 158.662 10.328 159.14 9.92378C159.591 9.54183 160.17 9.60382 160.9 9.60382Z" fill="#00DC82"/>
</svg>
