<svg width="227" height="32" viewBox="0 0 227 32" fill="none" xmlns="http://www.w3.org/2000/svg">
<path d="M60.86 32C61.2056 32 61.5 31.7135 61.5 31.36V16.48C61.5 16.48 62.3 17.92 63.74 20.32L69.98 31.04C70.2656 31.6384 70.899 32 71.42 32H75.74V8H71.42C71.1323 8 70.78 8.23906 70.78 8.64V23.68L67.9 18.56L62.14 8.8C61.8597 8.3026 61.2566 8 60.7 8H56.54V32H60.86Z" fill="black"/>
<path d="M116.7 14.72H118.78C119.31 14.72 119.74 14.2902 119.74 13.76V9.6H124.22V14.72H128.54V18.56H124.22V25.44C124.22 27.12 125.029 27.84 126.46 27.84H128.54V32H125.82C122.132 32 119.74 29.6114 119.74 25.6V18.56H116.7V14.72Z" fill="black"/>
<path d="M95.1 14.72V24.64C95.1 26.8806 94.2588 28.7695 93.02 30.08C91.7813 31.3905 90.0706 32 87.74 32C85.4095 32 83.5388 31.3905 82.3 30.08C81.0823 28.7695 80.22 26.8806 80.22 24.64V14.72H82.78C83.3259 14.72 83.8631 14.8195 84.22 15.2C84.577 15.5593 84.7 15.7704 84.7 16.32V24.64C84.7 25.9294 84.7731 26.7259 85.34 27.36C85.9069 27.973 86.6062 28.16 87.74 28.16C88.8948 28.16 89.4131 27.973 89.98 27.36C90.5469 26.7259 90.62 25.9294 90.62 24.64V16.32C90.62 15.7704 90.7431 15.4205 91.1 15.04C91.4136 14.7057 91.7445 14.7136 92.22 14.72C92.2857 14.7209 92.4738 14.72 92.54 14.72H95.1Z" fill="black"/>
<path d="M108.7 23.04L114.14 14.72H109.98C109.456 14.72 108.99 14.9081 108.7 15.36L106.14 19.2L103.74 15.52C103.45 15.0681 102.824 14.72 102.3 14.72H98.3L103.74 22.88L97.82 32H101.98C102.5 32 102.969 31.486 103.26 31.04L106.14 26.72L109.18 31.2C109.471 31.646 109.94 32 110.46 32H114.62L108.7 23.04Z" fill="black"/>
<path d="M27.42 32H45.18C45.7468 32.0001 46.2892 31.8009 46.78 31.52C47.2708 31.2391 47.7768 30.8865 48.06 30.4C48.3433 29.9135 48.5403 29.3615 48.54 28.7998C48.5398 28.2381 48.3437 27.6864 48.06 27.2001L36.06 6.56C35.7768 6.0736 35.4307 5.72084 34.94 5.44C34.4493 5.15916 33.7467 4.96 33.18 4.96C32.6134 4.96 32.0707 5.15916 31.58 5.44C31.0893 5.72084 30.7433 6.0736 30.46 6.56L27.42 11.84L21.34 1.59962C21.0566 1.11326 20.7109 0.600786 20.22 0.32C19.7292 0.0392139 19.1868 0 18.62 0C18.0533 0 17.5109 0.0392139 17.02 0.32C16.5292 0.600786 16.0235 1.11326 15.74 1.59962L0.860039 27.2001C0.576356 27.6864 0.540286 28.2381 0.540039 28.7998C0.539793 29.3615 0.576783 29.9134 0.860039 30.3999C1.1433 30.8864 1.64923 31.2391 2.14004 31.52C2.63085 31.8009 3.17328 32.0001 3.74004 32H14.94C19.3779 32 22.6081 30.0092 24.86 26.24L30.3 16.8L33.18 11.84L41.98 26.88H30.3L27.42 32ZM14.78 26.88H6.94004L18.62 6.72L24.54 16.8L20.6186 23.636C19.1231 26.0816 17.4181 26.88 14.78 26.88Z" fill="#00DC82"/>
<path d="M143.26 32.0001C148.134 32.0001 151.42 29.3803 151.42 25.2801C151.42 16.6101 140.06 20.4098 140.06 15.8401C140.06 14.5568 141.268 13.4401 143.1 13.4401C144.94 13.4401 146.033 14.4724 146.368 15.9028C146.443 16.2253 146.714 16.4801 147.045 16.4801H150.94C150.816 12.3173 147.788 9.6001 143.1 9.6001C138.692 9.6001 135.58 12.0493 135.58 15.6801C135.58 24.2875 146.78 20.9921 146.78 25.2801C146.78 26.939 145.34 27.8401 143.26 27.8401C140.963 27.8401 139.446 26.5424 139.26 24.3201H135.606C135.243 24.3201 134.95 24.6239 134.988 24.9854C135.44 29.2686 138.563 32.0001 143.26 32.0001Z" fill="#00DC82"/>
<path d="M155.74 15.0401C155.74 15.5703 155.31 16.0001 154.78 16.0001H152.7V19.5201H155.74V26.0801C155.74 29.7421 158.059 32.0001 161.66 32.0001H164.22V28.3201H162.3C160.903 28.3201 160.06 27.6138 160.06 26.0801V19.5201H164.22V16.0001H160.06V11.2001H155.74V15.0401Z" fill="#00DC82"/>
<path d="M191.26 32.0001C193.061 32.0001 194.551 31.1408 195.42 29.9201V32.0001H199.74V9.6001H195.42V17.6001C194.551 16.442 193.056 16.0001 191.1 16.0001C186.567 16.0001 183.74 18.9261 183.74 23.8401C183.74 28.7541 186.665 32.0001 191.26 32.0001ZM191.9 28.1601C189.603 28.1601 188.06 26.4693 188.06 23.8401C188.06 21.1796 189.603 19.3601 191.9 19.3601C194.197 19.3601 195.74 21.1796 195.74 23.8401C195.74 26.4693 194.197 28.1601 191.9 28.1601Z" fill="#00DC82"/>
<path d="M203.1 13.4401C203.1 13.7936 203.386 14.0801 203.74 14.0801H207.58V10.2401C207.58 9.88664 207.293 9.6001 206.94 9.6001H203.1V13.4401ZM207.579 32.0001V16.0001H203.1V32.0001H207.579Z" fill="#00DC82"/>
<path d="M218.14 32.0001C222.952 32.0001 226.46 28.535 226.46 23.8401C226.46 19.1452 222.952 16.0001 218.14 16.0001C213.328 16.0001 209.98 19.1452 209.98 23.8401C209.98 28.535 213.328 32.0001 218.14 32.0001ZM218.14 28.1601C215.812 28.1601 214.3 26.438 214.3 23.8401C214.3 21.2109 215.812 19.6801 218.14 19.6801C220.468 19.6801 222.14 21.2109 222.14 23.8401C222.14 26.438 220.468 28.1601 218.14 28.1601Z" fill="#00DC82"/>
<path d="M181.66 16.0019V24.6409C181.66 26.8813 180.819 28.7699 179.58 30.0803C178.341 31.3907 176.631 32.0001 174.3 32.0001C171.969 32.0001 170.099 31.3907 168.86 30.0803C167.642 28.7699 166.78 26.8813 166.78 24.6409V16.0019L169.34 16.0019C169.886 16.0019 170.423 16.1014 170.78 16.4819C171.137 16.8412 171.26 17.0522 171.26 17.6017V24.6409C171.26 25.9302 171.333 26.7266 171.9 27.3606C172.467 27.9735 173.166 28.1605 174.3 28.1605C175.455 28.1605 175.973 27.9735 176.54 27.3606C177.107 26.7266 177.18 25.9302 177.18 24.6409V17.6017C177.18 17.0522 177.303 16.7023 177.66 16.3219C177.974 15.9876 178.304 15.9955 178.78 16.0019C178.846 16.0028 179.034 16.0019 179.1 16.0019H181.66Z" fill="#00DC82"/>
</svg>
