<svg width="257" height="32" viewBox="0 0 257 32" fill="none" xmlns="http://www.w3.org/2000/svg">
<path d="M60.7399 32C61.0855 32 61.3799 31.7135 61.3799 31.36V16.48C61.3799 16.48 62.1799 17.92 63.6199 20.32L69.8599 31.04C70.1455 31.6384 70.7789 32 71.2999 32H75.6199V8H71.2999C71.0122 8 70.6599 8.23906 70.6599 8.64V23.68L67.7799 18.56L62.0199 8.8C61.7396 8.3026 61.1365 8 60.5799 8H56.4199V32H60.7399Z" fill="black"/>
<path d="M116.58 14.72H118.66C119.19 14.72 119.62 14.2902 119.62 13.76V9.6H124.1V14.72H128.42V18.56H124.1V25.44C124.1 27.12 124.909 27.84 126.34 27.84H128.42V32H125.7C122.012 32 119.62 29.6114 119.62 25.6V18.56H116.58V14.72Z" fill="black"/>
<path d="M94.9799 14.72V24.64C94.9799 26.8806 94.1387 28.7695 92.8999 30.08C91.6611 31.3905 89.9505 32 87.6199 32C85.2893 32 83.4187 31.3905 82.1799 30.08C80.9621 28.7695 80.0999 26.8806 80.0999 24.64V14.72H82.6599C83.2058 14.72 83.743 14.8195 84.0999 15.2C84.4569 15.5593 84.5799 15.7704 84.5799 16.32V24.64C84.5799 25.9294 84.653 26.7259 85.2199 27.36C85.7868 27.973 86.4861 28.16 87.6199 28.16C88.7747 28.16 89.293 27.973 89.8599 27.36C90.4268 26.7259 90.4999 25.9294 90.4999 24.64V16.32C90.4999 15.7704 90.623 15.4205 90.9799 15.04C91.2935 14.7057 91.6244 14.7136 92.0999 14.72C92.1656 14.7209 92.3536 14.72 92.4199 14.72H94.9799Z" fill="black"/>
<path d="M108.58 23.04L114.02 14.72H109.86C109.336 14.72 108.87 14.9081 108.58 15.36L106.02 19.2L103.62 15.52C103.33 15.0681 102.704 14.72 102.18 14.72H98.1799L103.62 22.88L97.6999 32H101.86C102.38 32 102.849 31.486 103.14 31.04L106.02 26.72L109.06 31.2C109.351 31.646 109.82 32 110.34 32H114.5L108.58 23.04Z" fill="black"/>
<path d="M27.2999 32H45.0599C45.6267 32.0001 46.1691 31.8009 46.6599 31.52C47.1507 31.2391 47.6567 30.8865 47.9399 30.4C48.2232 29.9135 48.4202 29.3615 48.4199 28.7998C48.4197 28.2381 48.2236 27.6864 47.9399 27.2001L35.9399 6.56C35.6567 6.0736 35.3106 5.72084 34.8199 5.44C34.3292 5.15916 33.6266 4.96 33.0599 4.96C32.4933 4.96 31.9506 5.15916 31.4599 5.44C30.9692 5.72084 30.6232 6.0736 30.3399 6.56L27.2999 11.84L21.2199 1.59962C20.9364 1.11326 20.5908 0.600786 20.0999 0.32C19.6091 0.0392139 19.0667 0 18.4999 0C17.9332 0 17.3908 0.0392139 16.8999 0.32C16.4091 0.600786 15.9034 1.11326 15.6199 1.59962L0.739922 27.2001C0.456239 27.6864 0.420169 28.2381 0.419922 28.7998C0.419676 29.3615 0.456666 29.9134 0.739922 30.3999C1.02318 30.8864 1.52911 31.2391 2.01992 31.52C2.51073 31.8009 3.05317 32.0001 3.61992 32H14.8199C19.2578 32 22.4879 30.0092 24.7399 26.24L30.1799 16.8L33.0599 11.84L41.8599 26.88H30.1799L27.2999 32ZM14.6599 26.88H6.81992L18.4999 6.72L24.4199 16.8L20.4985 23.636C19.003 26.0816 17.2979 26.88 14.6599 26.88Z" fill="#00DC82"/>
<path d="M140.42 30.7201C142.147 31.5752 144.085 32.0001 146.18 32.0001C148.102 32.0001 149.788 31.6867 151.3 31.0401C152.833 30.3727 154.073 29.3489 154.98 28.1601C155.908 26.9713 156.45 25.7035 156.58 24.1601H152.858C152.235 24.1601 151.724 24.6244 151.441 25.1792C151.103 25.8402 150.561 26.4003 149.86 26.8801C148.845 27.5684 147.627 27.8401 146.18 27.8401C144.949 27.8401 143.813 27.5824 142.82 27.0401C141.848 26.4978 140.981 25.7038 140.42 24.6401C139.858 23.5556 139.62 22.3226 139.62 20.8001C139.62 19.2776 140.018 18.0238 140.58 16.9601C141.141 15.8756 141.881 15.0228 142.853 14.4805C143.846 13.9174 144.949 13.7601 146.18 13.7601C147.605 13.7601 148.845 14.011 149.86 14.7201C150.524 15.1842 150.939 15.7234 151.19 16.3564C151.425 16.9526 151.938 17.4401 152.58 17.4401H156.58C156.385 15.8759 155.93 14.4689 154.98 13.2801C154.051 12.0913 152.833 11.2067 151.3 10.5601C149.788 9.91354 148.058 9.6001 146.18 9.6001C144.107 9.6001 142.147 10.025 140.42 10.8801C138.692 11.7352 137.296 13.0307 136.26 14.7201C135.245 16.4095 134.82 18.4224 134.82 20.8001C134.82 23.1777 135.245 25.1907 136.26 26.8801C137.275 28.5695 138.692 29.865 140.42 30.7201Z" fill="#00DC82"/>
<path fill-rule="evenodd" clip-rule="evenodd" d="M162.5 30.8801C163.817 31.5684 165.179 32.0001 166.82 32.0001C168.461 32.0001 169.983 31.5684 171.3 30.8801C172.617 30.171 173.606 29.2306 174.34 28.0001C175.074 26.7487 175.46 25.3835 175.46 23.8401C175.46 22.2967 175.074 20.9106 174.34 19.6801C173.606 18.4287 172.617 17.4884 171.3 16.8001C169.983 16.091 168.461 15.6801 166.82 15.6801C165.179 15.6801 163.817 16.091 162.5 16.8001C161.183 17.4884 160.194 18.4287 159.46 19.6801C158.726 20.9106 158.34 22.2967 158.34 23.8401C158.34 25.3835 158.726 26.7487 159.46 28.0001C160.194 29.2306 161.183 30.171 162.5 30.8801ZM169.86 27.0401C169.104 27.8535 168.029 28.1601 166.82 28.1601C165.611 28.1601 164.696 27.8535 163.94 27.0401C163.184 26.2267 162.82 25.1332 162.82 23.8401C162.82 22.5261 163.184 21.4535 163.94 20.6401C164.696 19.8267 165.611 19.3601 166.82 19.3601C168.029 19.3601 169.104 19.8267 169.86 20.6401C170.616 21.4535 170.98 22.5261 170.98 23.8401C170.98 25.1332 170.616 26.2267 169.86 27.0401Z" fill="#00DC82"/>
<path d="M178.02 16.0001H182.5V18.0801C182.953 17.3084 183.556 16.7372 184.42 16.3201C185.284 15.8821 186.337 15.6801 187.46 15.6801C188.669 15.6801 189.753 15.9587 190.66 16.4801C191.588 17.0015 192.243 17.7816 192.74 18.7201C193.258 19.6586 193.54 20.7104 193.54 21.9201V32.0001H189.7C189.346 32.0001 189.06 31.7136 189.06 31.3601V22.8801C189.06 21.9207 188.683 21.0849 188.1 20.4801C187.517 19.8544 186.788 19.5201 185.86 19.5201C184.867 19.5201 184.086 19.9727 183.46 20.6401C182.834 21.2867 182.5 22.0181 182.5 23.0401V31.3601C182.5 31.7136 182.213 32.0001 181.86 32.0001H178.02V16.0001Z" fill="#00DC82"/>
<path d="M202.98 11.2001H198.5V15.0401C198.5 15.5703 198.07 16.0001 197.54 16.0001H195.3V19.5201H198.5V26.2401C198.5 28.0546 198.999 29.559 200.1 30.5601C201.223 31.5612 202.68 32.0001 204.58 32.0001H207.3V28.3201H205.22C203.687 28.3201 202.98 27.5818 202.98 26.0801V19.5201H207.3V16.0001H202.98V11.2001Z" fill="#00DC82"/>
<path d="M231.14 32.0001H227.14V16.0001H231.78V18.0801C232.233 17.3084 232.836 16.7372 233.7 16.3201C234.564 15.8821 235.617 15.6801 236.74 15.6801C237.949 15.6801 239.033 15.9587 239.94 16.4801C240.868 17.0015 241.523 17.7816 242.02 18.7201C242.538 19.6586 242.82 20.7104 242.82 21.9201V32.0001H238.98C238.626 32.0001 238.34 31.7136 238.34 31.3601V22.8801C238.34 21.9207 237.963 21.0849 237.38 20.4801C236.797 19.8544 236.068 19.5201 235.14 19.5201C234.147 19.5201 233.366 19.8127 232.74 20.4801C232.114 21.1267 231.78 22.0181 231.78 23.0401V31.3601C231.78 31.7136 231.493 32.0001 231.14 32.0001Z" fill="#00DC82"/>
<path d="M252.26 11.2001H247.78V15.0401C247.78 15.5703 247.35 16.0001 246.82 16.0001H244.58V19.5201H247.78L247.753 26.275C247.753 28.0895 248.304 29.4973 249.405 30.4984C250.528 31.4995 252.04 32.0001 253.94 32.0001H256.58V28.3201H254.5C252.967 28.3201 252.26 27.5818 252.26 26.0801V19.5201H256.58V16.0001H252.26V11.2001Z" fill="#00DC82"/>
<path fill-rule="evenodd" clip-rule="evenodd" d="M222.18 30.4001C223.584 29.3633 224.421 27.9539 224.74 26.2401H220.42C220.25 26.9172 219.874 27.4804 219.3 27.8401C218.725 28.1786 217.954 28.3201 217.06 28.3201C215.953 28.3201 215.042 27.9948 214.34 27.3601C213.659 26.7042 213.23 25.7826 213.06 24.6401H224.1C224.431 24.6401 224.744 24.331 224.74 24.0001C224.738 23.8139 224.738 23.6503 224.739 23.4785C224.739 23.3893 224.74 23.298 224.74 23.2001C224.74 21.8883 224.514 20.705 223.94 19.5201C223.387 18.3352 222.411 17.4018 221.22 16.6401C220.028 15.8784 218.527 15.5201 216.74 15.5201C215.016 15.5201 213.633 15.8572 212.42 16.6401C211.228 17.423 210.296 18.4318 209.7 19.6801C209.125 20.9284 208.9 22.2625 208.9 23.6801C208.9 25.0765 209.221 26.4106 209.86 27.6801C210.498 28.9496 211.346 29.9161 212.58 30.7201C213.835 31.503 215.315 32.0001 217.06 32.0001C219.039 32.0001 220.775 31.4368 222.18 30.4001ZM214.34 19.5201C214.936 18.9911 215.718 18.7201 216.74 18.7201C217.782 18.7201 218.683 18.9065 219.3 19.5201C219.917 20.1125 220.196 20.9891 220.26 21.9201H213.22C213.411 20.8199 213.744 20.0279 214.34 19.5201Z" fill="#00DC82"/>
</svg>
