<svg width="49" height="33" viewBox="0 0 49 33" fill="none" xmlns="http://www.w3.org/2000/svg">
<path fill-rule="evenodd" clip-rule="evenodd" d="M17.1881 1.40628C17.753 1.08711 18.392 0.919922 19.0413 0.919922C19.6906 0.919922 20.3296 1.08711 20.8945 1.40628C21.4595 1.72552 21.9316 2.18634 22.2611 2.74474L25.18 7.6978L27.708 11.7901L28.7711 9.93003L29.0656 9.4121L30.1085 7.59002C30.4378 7.03153 30.9098 6.57063 31.4747 6.2513C32.0395 5.93205 32.6785 5.7648 33.3277 5.7648C33.9769 5.7648 34.6159 5.93205 35.1807 6.2513C35.7456 6.57063 36.2175 7.03155 36.5468 7.59005L39.4891 12.5789L39.4916 12.579L39.6512 12.8538L48.2352 27.4084C48.2351 27.4083 48.2353 27.4085 48.2352 27.4084C48.565 27.9669 48.7399 28.6027 48.7402 29.2512C48.7405 29.8998 48.5662 30.5356 48.2368 31.0944C47.9076 31.653 47.4355 32.1141 46.8705 32.4334C46.3056 32.7527 45.6665 32.92 45.0171 32.9199H26.596L30.1457 26.9107H40.884L33.3268 14.0986L25.6266 27.149C24.3946 29.1857 22.8541 30.6957 20.9935 31.6593C20.9754 31.6697 20.9571 31.6801 20.9386 31.6907C20.4278 31.9813 19.7361 32.3361 19.0722 32.5441C18.4174 32.7493 17.3724 32.8377 16.549 32.8796C16.518 32.8812 16.4873 32.8827 16.4567 32.8842C16.1181 32.908 15.7725 32.9199 15.4199 32.9199H15.0461L15.0331 32.9199L15.0086 32.9199L15.0002 32.9199H4.49461C4.49458 32.9199 4.49463 32.9199 4.49461 32.9199C3.84528 32.92 3.20608 32.7527 2.64121 32.4334C2.07619 32.114 1.60416 31.653 1.27487 31.0944C0.945467 30.5356 0.771196 29.8998 0.771485 29.2512C0.771773 28.6027 0.946537 27.9672 1.2763 27.4088M1.2763 27.4088L6.17758 19.0977L8.8281 14.4409L12.135 8.99581L15.8214 2.74488C16.1509 2.18648 16.6231 1.72552 17.1881 1.40628M7.26533 19.5262L13.006 9.79174L18.4155 8.04564L7.9688 25.7571L7.26533 19.5262ZM6.29463 21.1722L2.26113 28.0118C2.03761 28.3902 1.92063 28.818 1.92044 29.2517C1.92034 29.4725 1.95045 29.6917 2.00949 29.9036L6.97783 27.2235L6.29463 21.1722ZM7.41139 28.3143L2.5795 30.9208C2.75717 31.1127 2.96563 31.278 3.19856 31.4097C3.59115 31.6316 4.03818 31.7492 4.49447 31.7492H9.74517L7.41139 28.3143ZM15.004 31.7492L15.0456 31.7492L15.1192 31.7489C15.1947 31.7486 15.3044 31.7476 15.4399 31.7454C15.6892 31.7412 16.0246 31.7327 16.3938 31.7152C17.9038 31.6074 19.2523 31.2437 20.4509 30.627C20.6359 30.5203 20.7962 30.4223 20.9198 30.3447L20.7673 25.5273C20.1746 26.2872 19.525 26.8678 18.7788 27.2815C17.7512 27.8513 16.591 28.0764 15.2418 28.0764L8.64624 28.075L11.127 31.7262L15.004 31.7492ZM8.63265 26.9043L15.2418 26.9057C15.2417 26.9057 15.2418 26.9057 15.2418 26.9057C16.4657 26.9057 17.4207 26.7017 18.2297 26.2532C19.0369 25.8056 19.7492 25.0866 20.4417 23.9695L24.079 17.8006L19.0459 9.24953L8.63265 26.9043ZM24.6408 19.1211L21.8258 23.8953H25.3837L24.6408 19.1211ZM25.515 25.066H21.9023L22.0454 29.5879C23.0355 28.7899 23.8995 27.7723 24.6468 26.5375C24.6473 26.5366 24.6479 26.5356 24.6485 26.5347L25.515 25.066ZM26.4758 23.4377L32.6343 13.0001L29.4707 11.0349L28.116 13.4172L25.641 18.0728L26.4758 23.4377ZM27.0601 12.9389L24.1979 8.3058L22.6121 5.61454L19.4272 7.62126L24.8405 16.818L26.1977 14.4556L26.1989 14.4533L27.0601 12.9389ZM19.0523 6.481L22.0206 4.61078L21.2765 3.34802C21.053 2.96927 20.7299 2.65191 20.3373 2.43013C19.9447 2.20827 19.4976 2.09064 19.0413 2.09064C18.585 2.09064 18.1379 2.20827 17.7453 2.43013C17.4451 2.59974 17.1855 2.82524 16.98 3.09134L19.0523 6.481ZM16.3039 4.1996L13.9005 8.27495L17.9887 6.95534L16.3039 4.1996ZM34.3459 13.5538L41.7403 26.0898L42.9574 20.7747L40.9931 17.4618L38.8222 13.7249L34.3459 13.5538ZM43.8142 22.1852L42.6854 27.1148H46.7216L43.8142 22.1852ZM47.3901 28.2855H42.2521L37.6807 31.7492H45.0172C45.4735 31.7492 45.9206 31.6316 46.3132 31.4097C46.7056 31.1878 47.0286 30.8704 47.2519 30.4916C47.4751 30.113 47.5915 29.6854 47.5913 29.2517C47.5911 28.9196 47.5226 28.5911 47.3901 28.2855ZM36.4689 31.2084L40.596 28.0814H32.5307L36.4689 31.2084ZM30.7524 28.1537L35.2808 31.7492H28.6286L30.7524 28.1537ZM38.1177 12.5264L35.562 8.193C35.3387 7.81428 35.0157 7.49684 34.6233 7.27504C34.5515 7.23446 34.4779 7.19737 34.4028 7.16385L33.9822 12.3683L38.1177 12.5264ZM32.8769 11.7797L33.2684 6.93619C32.8328 6.94593 32.4075 7.0628 32.0321 7.27504C31.6408 7.49622 31.3186 7.81243 31.0953 8.18975L30.0479 10.0223L32.8769 11.7797Z" fill="#00DC82"/>
</svg>
