<svg version="1.1" id="Layer_1" xmlns:x="ns_extend;" xmlns:i="ns_ai;" xmlns:graph="ns_graphs;" xmlns="http://www.w3.org/2000/svg" xmlns:xlink="http://www.w3.org/1999/xlink" x="0px" y="0px" viewBox="0 0 585.8 108" style="enable-background:new 0 0 585.8 108;" xml:space="preserve">
 <style type="text/css">
  .st0{fill:#76B900;}
 </style>
 <g>
  <path d="M578.2,86.6V85h1c0.5,0,1.3,0.1,1.3,0.7s-0.4,0.9-1.1,0.9H578.2 M578.2,87.7h0.7l1.6,2.8h1.7l-1.8-2.9
		c0.9,0.1,1.6-0.6,1.7-1.5v-0.2c0-1.6-1.1-2-2.9-2h-2.6v6.7h1.5V87.7 M585.8,87.2c0-4-3.1-6.3-6.5-6.3s-6.5,2.3-6.5,6.3
		s3.1,6.3,6.5,6.3S585.8,91.2,585.8,87.2 M583.9,87.2c0.1,2.5-1.9,4.7-4.4,4.8h-0.2c-2.6,0.1-4.9-2-5-4.6c-0.1-2.6,2-4.9,4.6-5
		c2.6-0.1,4.9,2,5,4.6C583.9,87.1,583.9,87.1,583.9,87.2z">
  </path>
  <path d="M347.5,20.4v70.9h20V20.4H347.5z M190,20.3v71h20.2V36.2l15.7,0.1c5.2,0,8.8,1.3,11.2,3.9c3.2,3.4,4.4,8.8,4.4,18.8v32.4
		h19.6V52.1c0-28-17.8-31.8-35.3-31.8C226,20.3,190,20.3,190,20.3z M379.8,20.4v70.9h32.5c17.3,0,23-2.9,29-9.3
		c4.3-4.5,7.1-14.5,7.1-25.4c0-10-2.3-18.9-6.5-24.4c-7.3-9.9-18-11.8-34-11.8C407.8,20.4,379.8,20.4,379.8,20.4z M399.6,35.8h8.6
		c12.5,0,20.6,5.6,20.6,20.1s-8.1,20.2-20.6,20.2h-8.6V35.8z M318.7,20.4l-16.7,56.2l-16-56.2h-21.6l22.8,70.9H316l23.1-70.9
		C339.1,20.4,318.7,20.4,318.7,20.4z M457.7,91.4h20V20.4h-20V91.4z M513.9,20.4l-27.9,70.9h19.7l4.4-12.6h33.1l4.2,12.5h21.5
		l-28.2-70.8H513.9z M526.8,33.4L539,66.5h-24.6C514.3,66.5,526.8,33.4,526.8,33.4z">
  </path>
  <path class="st0" d="M60.9,32.2v-9.7c1-0.1,1.9-0.1,2.9-0.1c26.7-0.8,44.2,23,44.2,23S89.1,71.5,68.8,71.5c-2.7,0-5.3-0.4-7.9-1.3
		V40.7c10.4,1.3,12.5,5.8,18.7,16.2l13.9-11.7c0,0-10.2-13.3-27.2-13.3C64.5,31.9,62.7,32,60.9,32.2 M60.9,0v14.5l2.9-0.2
		c37.1-1.3,61.3,30.4,61.3,30.4S97.3,78.6,68.4,78.6c-2.5,0-5-0.2-7.5-0.7v9c2,0.2,4.1,0.4,6.2,0.4c26.9,0,46.4-13.8,65.3-30
		c3.1,2.5,15.9,8.6,18.6,11.2c-17.9,15-59.7,27.1-83.4,27.1c-2.3,0-4.4-0.1-6.6-0.4V108h102.3V0C163.3,0,60.9,0,60.9,0z M60.9,70.3
		v7.7C36,73.5,29.1,47.6,29.1,47.6s12-13.2,31.8-15.4v8.4h-0.1c-10.4-1.3-18.6,8.5-18.6,8.5S46.9,65.5,60.9,70.3 M16.7,46.5
		c0,0,14.7-21.8,44.2-24v-7.9C28.2,17.2,0,44.8,0,44.8s16,46.3,60.9,50.5v-8.4C27.9,82.8,16.7,46.5,16.7,46.5z">
  </path>
 </g>
</svg>