<svg xmlns="http://www.w3.org/2000/svg" fill="none" viewBox="0 0 150 150">
  <path fill="#ffffff" d="M74.9188 88.3625 55.3437 119.131 22.8875 66.4625l-.075 55.1375H0V28.4h23.0687l32.7938 55.2063.0312-24.9875 19.0251 29.7437Zm3.7562-36.0062c.15-.3 0-23.65.05-23.9563H55.9125c.0125.3688-.0313 23.6-.0188 23.9563H78.675Zm35.213 25.8375c-2.663-.0512-5.276.7243-7.48 2.2197-2.204 1.4953-3.89 3.637-4.827 6.1303 1.551-2.3211 3.848-4.0437 6.51-4.8834 2.663-.8398 5.532-.7464 8.134.2646 2.475 1.0063 5.731 2.6375 8.313 1.7688-1.211-1.6966-2.809-3.0803-4.661-4.0368a13.12393 13.12393 0 0 0-5.989-1.4632Zm21.187 6.6312c-2.344-.8125-5-1.7312-6.931-4.2562-.375-.5-.725-1.0625-1.1-1.6563a13.40542 13.40542 0 0 0-3.331-4.0125c-1.838-1.35-4.25-2.0125-7.375-2.0125-3.072.0008-6.075.9136-8.627 2.6227-2.553 1.709-4.54 4.1374-5.711 6.9773 1.484-2.0663 3.485-3.7066 5.802-4.7571 2.317-1.0504 4.87-1.474 7.402-1.2285 2.532.2455 4.956 1.1516 7.028 2.6275 2.072 1.476 3.721 3.4702 4.781 5.7831.527.8666 1.322 1.5385 2.264 1.9149.942.3764 1.981.437 2.961.1726 3.081-.6562 2.875 2.25 7.518 3.2375v-.8312c-.018-2.7875-1.531-3.4375-4.681-4.5813Zm12.65 7.9125c.681-.4142 1.24-1.0013 1.621-1.7017.381-.7003.57-1.4889.548-2.2858-.063-18.4812-15.063-34.2937-33.563-34.2937-5.561-.0046-11.036 1.3743-15.931 4.0125a33.5221 33.5221 0 0 0-12.1125 11.1c-.0625-.1625-9.5125-14.9375-9.6125-15.1125H55.8937L77.5375 88.35 56.4188 121.6h22.125l9.625-14.787 9.8 14.787H120.1l-20.062-31.575a4.36915 4.36915 0 0 1-.5255-2 16.821 16.821 0 0 1 1.2775-6.4358c.845-2.0405 2.083-3.8946 3.645-5.4564 1.561-1.5619 3.414-2.8009 5.455-3.6462 2.04-.8453 4.227-1.2803 6.435-1.2803h.006c9.3 0 10.85 5.5625 12.857 8.175 3.962 5.1625 11.874 2.9 11.874 9.6312.015.7721.231 1.527.628 2.1894.397.6625.96 1.2094 1.634 1.5862.674.3769 1.435.5705 2.207.5616.772-.0089 1.529-.2199 2.194-.6122Zm2.188.8313c-1.082 2.325-3.5 2.1125-4.719 3.9937-1.1 1.6938.712 2.5755.712 2.5755s2.106.975 3.363-1.9442c.65-1.4438.875-3.05.644-4.625Z"/>
</svg>
