<svg xmlns="http://www.w3.org/2000/svg" xmlns:xlink="http://www.w3.org/1999/xlink" viewBox="0 0 213 35"><script/><defs><path id="a" d="M0 .355h212.75V35H0"/></defs><g fill="none" fill-rule="evenodd"><path fill="#586667" d="M26.657 17.665c0-1.676-.214-3.183-.64-4.526-.425-1.34-1.038-2.478-1.836-3.408a7.94 7.94 0 0 0-2.933-2.141c-1.157-.496-2.474-.744-3.949-.744-1.49 0-2.82.248-3.981.744a7.912 7.912 0 0 0-2.945 2.141c-.8.93-1.411 2.068-1.839 3.408-.425 1.343-.638 2.85-.638 4.526 0 1.69.213 3.207.638 4.547.428 1.343 1.04 2.48 1.84 3.411.799.93 1.779 1.64 2.944 2.127 1.162.49 2.49.734 3.981.734 1.475 0 2.792-.244 3.949-.734a7.817 7.817 0 0 0 2.933-2.127c.798-.932 1.411-2.068 1.836-3.41.426-1.34.64-2.857.64-4.548m7.897 0c0 2.452-.416 4.732-1.245 6.841-.83 2.11-1.995 3.944-3.502 5.502-1.506 1.558-3.32 2.78-5.444 3.664-2.123.884-4.476 1.327-7.064 1.327-2.587 0-4.944-.443-7.074-1.327-2.13-.884-3.952-2.106-5.466-3.664-1.516-1.558-2.686-3.393-3.516-5.502C.414 22.396 0 20.116 0 17.666s.414-4.731 1.243-6.843c.83-2.109 2-3.937 3.516-5.49 1.514-1.551 3.336-2.769 5.466-3.653C12.355.796 14.712.355 17.299.355c2.588 0 4.941.445 7.064 1.337 2.123.894 3.938 2.115 5.444 3.665 1.507 1.551 2.673 3.382 3.502 5.492.83 2.109 1.245 4.381 1.245 6.816"/><mask id="b" fill="#fff"><use xlink:href="#a"/></mask><path fill="#586667" d="M56.178 25.623a7.716 7.716 0 0 1-2.89 2.128c-1.139.49-2.437.733-3.89.733-1.47 0-2.778-.244-3.923-.733a7.682 7.682 0 0 1-2.9-2.128c-.79-.931-1.392-2.068-1.813-3.41-.419-1.34-.63-2.858-.63-4.548 0-1.676.211-3.183.63-4.526.421-1.34 1.023-2.478 1.812-3.408a7.8 7.8 0 0 1 2.901-2.14c1.145-.497 2.454-.746 3.923-.746 1.453 0 2.751.249 3.89.745a7.836 7.836 0 0 1 2.89 2.141c.38.45.719.946 1.011 1.493.565 1.055 1.984.929 1.984.929h6.434c-.132-.44-.268-.878-.434-1.304-.817-2.11-1.967-3.94-3.451-5.491-1.484-1.551-3.272-2.772-5.363-3.666C54.266.8 51.949.355 49.398.355c-2.549 0-4.871.441-6.97 1.325-2.099.885-3.894 2.102-5.386 3.653-1.493 1.553-2.646 3.381-3.464 5.49-.816 2.112-1.225 4.392-1.225 6.842 0 2.451.409 4.732 1.225 6.841.818 2.11 1.97 3.944 3.464 5.502 1.492 1.558 3.287 2.78 5.386 3.664 2.099.884 4.421 1.327 6.97 1.327 2.55 0 4.868-.443 6.96-1.327 2.092-.884 3.88-2.106 5.364-3.664 1.484-1.558 2.634-3.392 3.45-5.502.167-.427.304-.867.435-1.307h-6.434c-.59 0-1.538.059-2.128 1.07-.234.4-.434.842-.867 1.354" mask="url(#b)"/><path fill="#586667" d="M103.099 17.665c0-1.676-.213-3.183-.639-4.526-.425-1.34-1.038-2.478-1.837-3.408a7.948 7.948 0 0 0-2.932-2.141c-1.158-.496-2.474-.744-3.95-.744-1.49 0-2.818.248-3.98.744a7.902 7.902 0 0 0-2.945 2.141c-.8.93-1.412 2.068-1.84 3.408-.424 1.343-.638 2.85-.638 4.526 0 1.69.214 3.207.639 4.547.427 1.343 1.039 2.48 1.839 3.411a7.78 7.78 0 0 0 2.944 2.127c1.163.49 2.49.734 3.981.734 1.476 0 2.792-.244 3.95-.734a7.825 7.825 0 0 0 2.932-2.127c.8-.932 1.412-2.068 1.837-3.41.426-1.34.639-2.857.639-4.548m7.897 0c0 2.452-.417 4.732-1.243 6.841-.832 2.11-1.998 3.944-3.503 5.502-1.507 1.558-3.32 2.78-5.445 3.664-2.122.884-4.476 1.327-7.064 1.327-2.587 0-4.944-.443-7.074-1.327-2.13-.884-3.953-2.106-5.465-3.664-1.517-1.558-2.687-3.393-3.517-5.502-.828-2.11-1.243-4.39-1.243-6.84s.415-4.731 1.243-6.843c.83-2.109 2-3.937 3.517-5.49 1.512-1.551 3.334-2.769 5.465-3.653C88.797.796 91.154.355 93.741.355c2.588 0 4.942.445 7.064 1.337 2.124.894 3.938 2.115 5.445 3.665 1.505 1.551 2.671 3.382 3.503 5.492.826 2.109 1.243 4.381 1.243 6.816M119.624 20.247v8.447h5.46c1.026 0 1.865-.133 2.515-.395.65-.265 1.16-.607 1.526-1.025.368-.419.62-.891.757-1.42a6.336 6.336 0 0 0 .207-1.604c0-.621-.08-1.18-.24-1.676a2.782 2.782 0 0 0-.826-1.257c-.39-.34-.909-.604-1.552-.791-.642-.185-1.452-.279-2.431-.279h-5.416Zm0-5.258h4.039c.856 0 1.629-.062 2.319-.185.687-.125 1.273-.34 1.755-.651s.848-.738 1.102-1.28c.253-.544.377-1.226.377-2.05 0-.804-.098-1.476-.297-2.012A2.902 2.902 0 0 0 128 7.52c-.412-.326-.938-.557-1.571-.697-.637-.14-1.39-.21-2.26-.21h-4.545v8.376Zm-7.757 19.638V.727h12.301c2.31 0 4.277.217 5.898.65 1.622.436 2.946 1.047 3.97 1.84 1.026.79 1.772 1.752 2.24 2.885.465 1.132.7 2.397.7 3.793 0 .759-.109 1.491-.322 2.197a6.513 6.513 0 0 1-1.011 1.99c-.459.62-1.046 1.181-1.767 1.688-.718.503-1.584.94-2.594 1.314 2.205.543 3.833 1.424 4.89 2.641 1.056 1.218 1.583 2.78 1.583 4.688 0 1.44-.276 2.783-.827 4.023a9.226 9.226 0 0 1-2.42 3.248c-1.064.922-2.376 1.644-3.937 2.162-1.56.521-3.343.78-5.349.78h-13.355ZM160.406.726v6.05H146.68v7.91h10.512v5.818H146.68v8.072h13.726v6.05h-21.529V.726h21.529ZM169.65 16.665h3.122c1.054 0 1.954-.136 2.696-.407.743-.272 1.351-.648 1.826-1.129a4.31 4.31 0 0 0 1.032-1.686c.213-.644.322-1.34.322-2.083 0-1.489-.479-2.653-1.435-3.49-.956-.838-2.437-1.257-4.441-1.257h-3.122v10.052Zm0 5.42v12.542h-7.757V.726h10.879c2.416 0 4.478.254 6.185.757 1.706.504 3.1 1.206 4.177 2.106 1.08.9 1.862 1.961 2.354 3.187.488 1.225.733 2.56.733 4.003 0 1.101-.145 2.14-.437 3.116a9.46 9.46 0 0 1-1.295 2.712c-.574.829-1.279 1.57-2.111 2.221a11.176 11.176 0 0 1-2.883 1.605c.521.265 1.007.591 1.458.977.45.388.846.862 1.184 1.42l7.114 11.797h-7.022c-1.303 0-2.235-.497-2.801-1.489l-5.555-9.842c-.244-.436-.532-.744-.861-.932-.328-.185-.792-.278-1.387-.278h-1.975ZM67.634.726v13.592h-8.522c-.771 0-1.396.608-1.396 1.356v4.005c0 .749.625 1.356 1.396 1.356h8.522v13.591h7.757V.726h-7.757Z"/><path fill="#DB6A26" d="M212.725 16.95C212.182 8.1 202.542.44 198.57.357c-3.973-.086-11.398 9.288-11.699 18.813-.281 8.93 7.34 15.054 10.621 15.831.092-4.202.428-19.671.484-21.475.119-3.686.3-9.422.915-9.613.354-.109.835 3.115.776 5.021-.012.364-.016 1.541-.016 3.213.664-.676 1.358-1.378 1.78-1.792 1.156-1.137 1.667-1.001 1.113.012-.342.623-1.81 2.697-2.89 4.199.006 3.03.02 6.843.034 10.396 1.525-1.785 3.392-3.924 4.372-4.876 2.058-1.994 2.276-1.742 1.305.35-.597 1.283-3.514 4.705-5.667 7.403.014 3.153.024 5.804.026 7.07 5.776-1.27 13.531-9.267 13-17.957"/></g><script/></svg>