<svg xmlns="http://www.w3.org/2000/svg" viewBox="0 0 919 495"><path d="M695 346a75 75 0 1 1 75-75 75 75 0 0 1-75 75Zm0-31a44 44 0 1 0-44-44 44 44 0 0 0 44 44Zm-157 31a75 75 0 1 1 75-75 75 75 0 0 1-75 75Zm0-31a44 44 0 1 0-44-44 44 44 0 0 0 44 44Zm-82-45c0 41.93-33.59 76-75 76s-75-34-75-75.93S336.5 196 381 196c16.44 0 31.65 3.5 44 12.58v-43.49c0-8.33 7.27-15.09 15.5-15.09s15.5 6.76 15.5 15.09Zm-75 45a44 44 0 1 0-44-44 44 44 0 0 0 44 44Zm-157 31a75 75 0 1 1 75-75 75 75 0 0 1-75 75Zm0-31a44 44 0 1 0-44-44 44 44 0 0 0 44 44Z" style="fill:#fff"/></svg>