<svg xmlns="http://www.w3.org/2000/svg" fill="#FFFEFA" viewBox="174.21 175.34 673.33 673.31"><path d="m544.6 180.11-13.82 170.54.02.02c-6.54-.8-13.16-1.25-19.91-1.25-8.4 0-16.67.64-24.73 1.87l-7.85-82.7c-.24-2.58 1.8-4.84 4.41-4.8h14.13l-6.81-83.67c-.23-2.56 1.8-4.78 4.39-4.78h45.78c2.56 0 4.59 2.21 4.39 4.78Zm-115.54 8.47c-.68-2.48-3.34-3.86-5.76-2.97l-43.02 15.67c-2.42.88-3.57 3.65-2.5 5.99l35 76.29-13.29 4.8c-2.44.88-3.61 3.69-2.48 6.05l35.66 75.03a160.811 160.811 0 0 1 41.72-15.87l-45.33-164.98ZM323.4 236.07l99.01 139.51.02.02a163.594 163.594 0 0 0-33.75 29.22l-59.22-58.34c-1.87-1.82-1.72-4.86.27-6.52l10.83-9.06-58.97-59.72c-1.8-1.82-1.66-4.82.31-6.48l35.06-29.45a4.424 4.424 0 0 1 6.44.82Zm-83.06 80.76c-2.11-1.46-5.04-.8-6.34 1.41l-22.88 39.66a4.412 4.412 0 0 0 1.93 6.19l75.84 35.95-7.09 12.22a4.407 4.407 0 0 0 1.99 6.23l75.56 34.55c5.47-14.05 12.79-27.15 21.73-38.98l-140.74-97.24Zm-55.87 107.8a4.405 4.405 0 0 1 5.45-3.51l165.49 43.23c-4.29 13.98-6.68 28.77-7.01 44.09l-82.86-6.65a4.421 4.421 0 0 1-4-5.17l2.48-13.9-83.55-7.83c-2.56-.25-4.39-2.63-3.94-5.17l7.93-45.1Zm-6.25 111.76c-2.56.25-4.39 2.63-3.94 5.17l7.96 45.1c.45 2.54 2.97 4.16 5.45 3.51l81.2-21.22 2.42 13.9a4.416 4.416 0 0 0 5.52 3.49l80.09-22.11a161.462 161.462 0 0 1-8.41-43.84l-170.28 16.02Zm26.49 118.51a4.41 4.41 0 0 1 1.93-6.2l154.52-73.27c5.88 13.86 13.66 26.72 22.96 38.29l-67.72 48.17c-2.11 1.52-5.09.86-6.38-1.39l-7.03-12.24-69.04 47.72a4.411 4.411 0 0 1-6.34-1.41l-22.9-39.66Zm187.22-32.13L271.74 744.54c-1.8 1.82-1.66 4.82.31 6.48l35.08 29.43c1.97 1.66 4.94 1.27 6.44-.82l48.55-68.45 10.81 9.11c1.99 1.68 5 1.27 6.48-.86l47.14-68.39c-12.79-7.79-24.42-17.33-34.59-28.22l-.02-.04ZM368.19 818.3c-2.42-.88-3.57-3.65-2.5-5.99h.02L437 656.79a161.465 161.465 0 0 0 42.16 14.66l-20.91 80.41c-.66 2.52-3.34 3.94-5.78 3.04l-13.27-4.86-22.23 80.94c-.68 2.48-3.34 3.86-5.76 2.97l-43.02-15.65Zm122.77-144.98h-.02.02Zm0 0-13.82 170.55c-.2 2.56 1.82 4.78 4.39 4.78h45.78c2.59 0 4.61-2.22 4.39-4.78l-6.81-83.67h14.13c2.6.04 4.65-2.22 4.41-4.8l-7.85-82.7c-8.06 1.23-16.32 1.86-24.73 1.86-6.74 0-13.36-.45-19.89-1.25Zm165.1-461.68c1.07-2.34-.08-5.11-2.5-5.99L610.54 190c-2.42-.88-5.08.49-5.76 2.97l-22.23 80.94-13.27-4.86c-2.44-.9-5.13.51-5.78 3.03l-20.91 80.41c14.89 2.95 29.03 7.96 42.16 14.66l71.31-155.52Zm93.95 67.78L629.82 401.19l-.02-.04c-10.17-10.89-21.79-20.42-34.59-28.22l47.14-68.39c1.48-2.13 4.49-2.54 6.48-.86l10.81 9.1 48.55-68.45c1.5-2.09 4.47-2.48 6.44-.82l35.08 29.43c1.97 1.66 2.11 4.66.31 6.48Zm65.1 95.83a4.401 4.401 0 0 0 1.93-6.19l-22.9-39.66c-1.29-2.24-4.2-2.89-6.34-1.42l-69.04 47.72-7.03-12.24a4.398 4.398 0 0 0-6.38-1.39l-67.72 48.17c9.31 11.57 17.08 24.42 22.97 38.29l154.51-73.27Zm24.38 62.07 7.96 45.1.02.02c.45 2.54-1.37 4.92-3.94 5.17l-170.3 16c-.78-15.28-3.69-29.96-8.4-43.84l80.09-22.11c2.5-.7 5.06.92 5.52 3.49l2.42 13.9 81.2-21.22c2.48-.66 5 .96 5.45 3.51Zm-7.69 165.51c2.5.66 5-.96 5.45-3.51l7.94-45.09c.45-2.54-1.37-4.92-3.94-5.17l-83.55-7.83 2.48-13.9a4.415 4.415 0 0 0-4-5.17l-82.85-6.65c-.33 15.32-2.75 30.11-7.01 44.09l165.49 43.21v.02Zm-44.08 102.88c-1.29 2.22-4.22 2.87-6.33 1.41l.02-.02-140.76-97.22c8.94-11.83 16.26-24.93 21.73-38.98l75.56 34.56c2.38 1.09 3.3 3.98 1.99 6.23l-7.1 12.22 75.85 35.95c2.32 1.11 3.22 3.96 1.93 6.19l-22.88 39.66Zm-188.41-57.34 99.01 139.53a4.424 4.424 0 0 0 6.44.82l35.06-29.45c1.97-1.66 2.11-4.66.31-6.48l-58.97-59.71 10.83-9.06c1.99-1.66 2.13-4.7.27-6.52l-59.21-58.34a163.294 163.294 0 0 1-33.75 29.22h.02Zm-.86 189.98c-2.42.88-5.09-.49-5.76-2.97L547.36 670.4a161.24 161.24 0 0 0 41.73-15.87l35.65 75.03c1.13 2.36-.04 5.17-2.48 6.05l-13.29 4.8 35 76.29c1.07 2.34-.08 5.11-2.5 5.99l-43.02 15.67Z"></path></svg>