<svg xmlns="http://www.w3.org/2000/svg" width="2176" height="512" fill="none" viewBox="0 0 2176 512">
    <g clip-path="url(#a)">
        <path fill="#DA6F5D" d="M414.348 432H432V0h80v472c0 22.092-17.909 40-40 40H353.656L210.5 0h83.035l120.813 432Z" style="fill:#da6f5d;fill:color(display-p3 .8564 .4334 .3636);fill-opacity:1"/>
        <path fill="#000" d="M97.652 80H80v432H0V40C0 17.908 17.909 0 40 0h118.344L301.5 512h-83.035L97.652 80Z" style="fill:#000;fill-opacity:1"/>
    </g>
    <g clip-path="url(#b)">
        <path fill="#DA6F5D" d="m2021.55 406.569-105.63-286.536h50.47l79.16 235.566h1.1l79.43-235.566H2176l-105.35 286.536h-49.1ZM1668.3 406.57V120.033h47.99v40.776h1.1c7.73-13.408 18.94-24.429 33.65-33.062 14.71-8.816 32.91-13.224 54.61-13.224 31.44 0 55.8 9.551 73.08 28.653 17.47 18.919 26.21 44.726 26.21 77.42V406.57h-47.99V229.137c0-23.327-5.52-41.143-16.55-53.45-10.85-12.49-27.31-18.735-49.37-18.735-15.08 0-28.22 3.398-39.44 10.194-11.21 6.613-19.95 15.98-26.2 28.103-6.07 12.123-9.1 26.358-9.1 42.705V406.57h-47.99Z" style="fill:#da6f5d;fill:color(display-p3 .8549 .4353 .3647);fill-opacity:1"/>
        <path fill="#000" d="M1446.6 503c-4.59 0-9.28-.275-14.06-.826-4.6-.368-8.46-.827-11.58-1.378v-39.123c2.02.367 4.32.734 6.89 1.102 2.76.367 5.61.551 8.55.551 15.26 0 27.4-2.664 36.41-7.99 9.19-5.327 16.64-16.072 22.33-32.236l5.8-16.255-106.46-286.812h51.3l82.74 249.617-10.21-11.02h14.34l-10.2 11.02 83.01-249.617h50.47l-111.97 304.445c-6.8 18.184-14.43 33.062-22.89 44.634-8.46 11.571-18.66 20.112-30.61 25.623-11.95 5.51-26.57 8.265-43.86 8.265ZM1331.64 406.569V9h47.99v397.569h-47.99ZM1056.72 406.57V120.033h47.98v40.776h1.11c7.72-13.408 18.94-24.429 33.64-33.062 14.71-8.816 32.92-13.224 54.61-13.224 31.44 0 55.81 9.551 73.09 28.653 17.47 18.919 26.2 44.726 26.2 77.42V406.57h-47.99V229.137c0-23.327-5.52-41.143-16.55-53.45-10.84-12.49-27.3-18.735-49.36-18.735-15.08 0-28.23 3.398-39.44 10.194-11.22 6.613-19.95 15.98-26.2 28.103-6.07 12.123-9.11 26.358-9.11 42.705V406.57h-47.98ZM900.934 412.08c-26.476 0-49.735-6.061-69.776-18.184-19.858-12.123-35.394-29.297-46.61-51.522C773.516 319.966 768 293.608 768 263.301v-.551c0-30.49 5.516-56.756 16.548-78.797 11.216-22.225 26.752-39.307 46.61-51.246 20.041-12.123 43.208-18.184 69.5-18.184 26.477 0 49.644 6.061 69.501 18.184 20.042 11.939 35.581 29.021 46.611 51.246 11.21 22.041 16.82 48.307 16.82 78.797v.551c0 30.491-5.61 56.848-16.82 79.073-11.03 22.225-26.477 39.399-46.335 51.522-19.857 12.123-43.024 18.184-69.501 18.184Zm.276-42.43c16.916 0 31.533-4.132 43.852-12.398 12.503-8.449 22.156-20.572 28.959-36.368 6.986-15.98 10.48-35.174 10.48-57.583v-.551c0-22.408-3.494-41.511-10.48-57.307-6.803-15.796-16.548-27.827-29.235-36.093-12.503-8.265-27.212-12.398-44.128-12.398-16.547 0-31.165 4.225-43.851 12.674-12.503 8.265-22.248 20.296-29.235 36.092-6.987 15.613-10.48 34.624-10.48 57.032v.551c0 22.409 3.493 41.603 10.48 57.583 6.987 15.796 16.732 27.919 29.235 36.368 12.686 8.266 27.487 12.398 44.403 12.398Z" style="fill:#000;fill-opacity:1"/>
    </g>
    <defs>
        <clipPath id="a">
            <path fill="#fff" d="M0 0h512v512H0z" style="fill:#fff;fill-opacity:1"/>
        </clipPath>
        <clipPath id="b">
            <path fill="#fff" d="M0 0h1408v494H0z" style="fill:#fff;fill-opacity:1" transform="translate(768 9)"/>
        </clipPath>
    </defs>
</svg>