<?xml version="1.0" encoding="utf-8"?>
<!-- Generator: Adobe Illustrator 26.4.1, SVG Export Plug-In . SVG Version: 6.00 Build 0)  -->
<svg version="1.0" id="katman_1" xmlns="http://www.w3.org/2000/svg" xmlns:xlink="http://www.w3.org/1999/xlink" x="0px" y="0px"
	 viewBox="0 0 542 458.55" style="enable-background:new 0 0 542 458.55;" xml:space="preserve">
<style type="text/css">
	.st0{fill:none;}
	.st1{fill:#00AEEF;}
	.st2{fill:#008CCF;}
</style>
<rect x="71" y="29.28" class="st0" width="400" height="400"/>
<path class="st1" d="M208.5,104.28c-69.04,0-125,55.96-125,125s55.96,125,125,125s125-55.96,125-125S277.54,104.28,208.5,104.28z
	 M208.5,266.78c-20.71,0-37.5-16.79-37.5-37.5s16.79-37.5,37.5-37.5s37.5,16.79,37.5,37.5c0.03,20.68-16.72,37.47-37.4,37.5
	C208.57,266.78,208.53,266.78,208.5,266.78z"/>
<path class="st2" d="M349,198.03c31.76,9.14,69.25,0,69.25,0c-10.88,47.5-45.38,77.25-95.13,80.87
	c-19.72,45.77-64.79,75.41-114.62,75.38L246,235.09c38.55-122.51,58.31-130.81,149.73-130.81h62.77
	C448,150.53,411.81,185.86,349,198.03z"/>
</svg>
