<svg width="1360" height="611" viewBox="0 0 1360 611" fill="none" xmlns="http://www.w3.org/2000/svg">
<g clip-path="url(#clip0_160_75)">
<path d="M305.335 203.56C361.438 203.56 407.109 249.232 407.109 305.335C407.109 361.438 361.438 407.11 305.335 407.11C249.232 407.11 203.56 361.438 203.56 305.335C203.56 249.232 249.232 203.56 305.335 203.56ZM305.898 370.459C339.729 370.459 367.64 343.395 367.64 305.335C367.64 267.275 339.729 240.21 305.898 240.21H304.771C270.94 240.21 243.029 267.275 243.029 305.335C243.029 343.395 270.94 370.459 304.771 370.459H305.898Z" fill="black"/>
<path d="M427.223 460.393V263.046H463.873V277.706C472.049 268.121 486.991 259.945 506.726 259.945C546.195 259.945 576.643 292.366 576.643 333.527C576.643 374.688 546.195 407.11 506.726 407.11C486.991 407.11 472.049 398.934 463.873 389.348V460.393H427.223ZM501.933 374.688C522.513 374.688 539.993 358.619 539.993 333.809C539.993 309 522.513 292.366 501.933 292.366H500.805C480.225 292.366 462.745 309 462.745 333.809C462.745 358.619 480.225 374.688 500.805 374.688H501.933Z" fill="black"/>
<path d="M663.877 407.11C622.152 407.11 591.704 376.944 591.704 334.091C591.704 291.239 623.843 259.945 663.877 259.945C703.91 259.945 734.922 288.701 734.922 336.347C734.922 339.448 734.922 342.549 734.64 345.932H628.354C628.918 358.9 641.323 377.508 662.467 377.508H663.595C679.101 377.508 690.941 369.05 695.734 359.746H732.948C726.464 381.454 704.192 407.11 663.877 407.11ZM697.426 319.149C696.298 304.207 683.329 289.547 663.595 289.547H662.467C644.424 289.547 631.455 303.925 628.636 319.149H697.426Z" fill="black"/>
<path d="M755.125 404.008V263.046H791.776V277.706C799.67 268.403 814.33 259.945 832.655 259.945C865.64 259.945 887.63 281.935 887.63 318.585V404.008H850.98V323.096C850.98 303.643 839.985 292.648 822.787 292.648H821.66C803.898 292.648 791.776 308.436 791.776 329.016V404.008H755.125Z" fill="black"/>
<path d="M900.385 404.008L981.297 206.661H1025.84L1104.78 404.008H1063.62L1046.7 360.874H957.334L940.136 404.008H900.385ZM970.584 327.043H1033.45L1002.16 247.54L970.584 327.043Z" fill="black"/>
<path d="M1117.53 404.008V206.661H1156.44V404.008H1117.53Z" fill="black"/>
</g>
<defs>
<clipPath id="clip0_160_75">
<rect width="1359.4" height="610.41" fill="white" transform="scale(1.00044)"/>
</clipPath>
</defs>
</svg>
