<svg width="360" height="360" viewBox="0 0 360 360" fill="none" xmlns="http://www.w3.org/2000/svg">
<g clip-path="url(#clip0_2_57)">
<g clip-path="url(#clip1_2_57)">
<path d="M252.072 212.292C245.826 220.662 232.686 234.558 225.378 234.558H191.412V212.274H218.466C222.336 212.274 226.026 210.708 228.69 207.954C242.586 193.554 250.614 176.418 250.614 158.04C250.614 126.684 227.178 98.964 191.394 82.26V67.284C191.394 60.84 186.174 55.62 179.73 55.62C173.286 55.62 168.066 60.84 168.066 67.284V73.494C158.04 70.56 147.42 68.328 136.332 67.05C154.692 86.994 165.906 113.67 165.906 142.92C165.906 169.146 156.942 193.23 141.876 212.31H168.066V234.63H129.726C124.542 234.63 120.33 230.436 120.33 225.234V215.478C120.33 213.768 118.944 212.364 117.216 212.364H66.672C65.682 212.364 64.836 213.174 64.836 214.164C64.8 254.088 96.39 284.058 134.172 284.058H240.822C266.382 284.058 277.812 251.298 292.788 230.454C298.602 222.39 312.552 215.91 316.782 214.11C317.556 213.786 318.006 213.066 318.006 212.22V199.26C318.006 197.946 316.71 196.956 315.432 197.316C315.432 197.316 253.782 211.482 253.062 211.68C252.342 211.896 252.072 212.31 252.072 212.31V212.292Z" fill="white"/>
<path d="M146.16 142.83C146.16 122.724 139.266 104.22 127.746 89.586L69.732 189.972H132.138C141.012 176.436 146.178 160.236 146.178 142.848L146.16 142.83Z" fill="white"/>
<path d="M181.566 -5.19844e-06C80.91 -0.828005 -0.82799 80.91 1.00604e-05 181.566C0.84601 279.306 80.694 359.172 178.416 359.982C279.072 360.846 360.846 279.072 359.982 178.416C359.172 80.712 279.306 0.845995 181.566 -5.19844e-06ZM127.746 89.586C139.266 104.22 146.16 122.742 146.16 142.83C146.16 160.236 140.994 176.436 132.12 189.954H69.714L127.728 89.568L127.746 89.586ZM318.006 199.242V212.202C318.006 213.048 317.556 213.768 316.782 214.092C312.552 215.892 298.602 222.372 292.788 230.436C277.812 251.28 266.382 284.04 240.822 284.04H134.172C96.408 284.04 64.818 254.07 64.836 214.146C64.836 213.156 65.682 212.346 66.672 212.346H117.216C118.962 212.346 120.33 213.75 120.33 215.46V225.216C120.33 230.4 124.524 234.612 129.726 234.612H168.066V212.292H141.876C156.942 193.212 165.906 169.128 165.906 142.902C165.906 113.652 154.692 86.976 136.332 67.032C147.438 68.328 158.058 70.542 168.066 73.476V67.266C168.066 60.822 173.286 55.602 179.73 55.602C186.174 55.602 191.394 60.822 191.394 67.266V82.242C227.178 98.946 250.614 126.666 250.614 158.022C250.614 176.418 242.568 193.536 228.69 207.936C226.026 210.69 222.336 212.256 218.466 212.256H191.412V234.54H225.378C232.704 234.54 245.844 220.644 252.072 212.274C252.072 212.274 252.342 211.86 253.062 211.644C253.782 211.428 315.432 197.28 315.432 197.28C316.728 196.92 318.006 197.91 318.006 199.224V199.242Z" fill="#0086FF"/>
</g>
</g>
<defs>
<clipPath id="clip0_2_57">
<rect width="360" height="360" fill="white"/>
</clipPath>
<clipPath id="clip1_2_57">
<rect width="360" height="360" fill="white"/>
</clipPath>
</defs>
</svg>
