<svg width="1767" height="512" viewBox="0 0 1767 512" fill="none" xmlns="http://www.w3.org/2000/svg">
<rect width="512" height="512" rx="96" fill="#111111"/>
<path d="M310.914 113C318.143 113 324.684 114.954 330.442 118.889C336.131 122.538 340.843 127.7 344.614 134.264L344.965 134.86C348.562 141.059 351.29 148.367 353.19 156.735C355.153 165.377 356.127 174.602 356.127 184.4C356.127 191.763 355.518 199.822 354.311 208.57C353.1 217.341 351.286 226.223 348.87 235.218C346.694 243.966 343.918 252.707 340.543 261.441L340.542 261.44C338.013 268.286 335.086 274.608 331.758 280.4H332.736C339.213 280.4 345.055 279.818 350.279 278.681C355.458 277.315 360.158 275.282 364.396 272.588L364.426 272.569L364.455 272.552C368.957 269.833 373.273 266.301 377.396 261.925C381.529 257.297 385.585 251.706 389.553 245.13L391.303 242.229L393.971 244.317L406.849 254.397L409.091 256.152L407.456 258.482C395.85 275.028 383.718 286.829 370.994 293.607C358.403 300.315 345.04 303.68 330.947 303.68C326.658 303.68 322.727 303.34 319.172 302.639C309.141 319.28 298.411 333.607 286.968 345.592L286.958 345.603L286.947 345.613C275.123 357.755 263.018 367.753 250.626 375.577C238.257 383.387 225.949 389.037 213.706 392.487C201.578 396.144 190.211 398 179.622 398C168.767 398 158.6 396.014 149.153 392.018C139.925 388.253 131.928 382.721 125.189 375.438C118.464 368.168 113.258 359.544 109.555 349.607C105.833 339.62 104 328.458 104 316.16C104 303.838 105.96 291.302 109.855 278.562C113.729 265.893 118.931 253.359 125.452 240.963L125.463 240.943L125.474 240.923C132.232 228.535 140.074 216.637 148.997 205.231C157.907 193.602 167.542 182.816 177.902 172.875C188.253 162.943 198.973 153.973 210.062 145.968C221.172 137.947 232.311 131.365 243.479 126.234L245.668 125.228L247.123 127.149L258.57 142.27L260.424 144.717L257.935 146.513C245.485 155.495 232.753 166.874 219.744 180.677C206.993 194.459 195.297 209.553 184.659 225.965C174.27 242.36 165.656 259.464 158.812 277.276C152.249 294.735 148.994 311.651 148.994 328.04C148.994 342.747 152.244 353.753 158.352 361.442C164.303 368.7 173.457 372.56 186.419 372.56C196.489 372.56 206.469 370.49 216.378 366.315C226.378 362.103 236.178 356.356 245.776 349.053C255.39 341.738 264.674 333.109 273.624 323.154C281.926 313.699 289.825 303.733 297.323 293.257C291.202 289.218 285.762 284.141 281.003 278.046L280.987 278.026L280.972 278.006C275.561 270.829 271.027 262.805 267.359 253.947L267.354 253.935L267.349 253.921C263.693 244.847 260.897 235.177 258.955 224.918L258.948 224.884L258.943 224.851C257.246 214.603 256.398 204.119 256.398 193.4C256.398 182.59 257.742 172.355 260.445 162.71C263.137 153.106 266.829 144.657 271.552 137.403L271.559 137.394L271.565 137.383C276.523 129.9 282.283 123.95 288.873 119.614C295.561 115.213 302.932 113 310.914 113ZM310.556 137.72C306.684 137.72 303.044 139.021 299.569 141.797L299.191 142.104L299.148 142.138C295.508 144.939 292.311 148.888 289.608 154.101L289.596 154.125L289.582 154.149C286.877 159.139 284.698 165.106 283.076 172.09C281.695 178.822 281.001 185.924 281.001 193.4C281.001 200.191 281.584 207.605 282.759 215.646C283.925 223.627 285.79 231.367 288.353 238.87C290.904 246.339 294.145 253.33 298.074 259.849L298.437 260.42C301.548 265.258 305.212 269.264 309.426 272.467C312.973 265.201 315.978 257.852 318.44 250.417L318.448 250.394L318.456 250.371C321.526 241.58 323.999 233.162 325.88 225.117L325.889 225.077L325.899 225.037C328.014 216.998 329.413 209.592 330.109 202.813L330.114 202.77L330.12 202.726C331.063 195.612 331.524 189.51 331.524 184.4C331.524 177.363 330.941 170.962 329.793 165.185C328.639 159.379 327.043 154.484 325.041 150.455L324.997 150.368L324.96 150.278C323.201 146.074 320.975 143.063 318.379 141.053L318.276 140.973L318.181 140.885C315.82 138.707 313.31 137.72 310.556 137.72Z" fill="white" stroke="white" stroke-width="6"/>
<path d="M862.883 255.364C862.883 284.073 857.441 308.498 846.557 328.638C835.759 348.777 821.019 364.161 802.336 374.788C783.739 385.329 762.828 390.599 739.603 390.599C716.206 390.599 695.21 385.286 676.613 374.659C658.016 364.032 643.318 348.649 632.52 328.509C621.721 308.37 616.322 283.988 616.322 255.364C616.322 226.654 621.721 202.229 632.52 182.089C643.318 161.95 658.016 146.609 676.613 136.068C695.21 125.441 716.206 120.128 739.603 120.128C762.828 120.128 783.739 125.441 802.336 136.068C821.019 146.609 835.759 161.95 846.557 182.089C857.441 202.229 862.883 226.654 862.883 255.364ZM806.449 255.364C806.449 236.767 803.664 221.083 798.094 208.314C792.609 195.545 784.853 185.86 774.826 179.261C764.799 172.662 753.058 169.363 739.603 169.363C726.148 169.363 714.407 172.662 704.38 179.261C694.353 185.86 686.554 195.545 680.983 208.314C675.499 221.083 672.756 236.767 672.756 255.364C672.756 273.961 675.499 289.644 680.983 302.413C686.554 315.183 694.353 324.867 704.38 331.466C714.407 338.065 726.148 341.364 739.603 341.364C753.058 341.364 764.799 338.065 774.826 331.466C784.853 324.867 792.609 315.183 798.094 302.413C803.664 289.644 806.449 273.961 806.449 255.364ZM892.228 387V189.545H945.319V223.997H947.376C950.976 211.742 957.017 202.486 965.502 196.23C973.986 189.888 983.756 186.717 994.812 186.717C997.554 186.717 1000.51 186.889 1003.68 187.232C1006.85 187.574 1009.64 188.046 1012.04 188.646V237.238C1009.47 236.467 1005.91 235.781 1001.37 235.181C996.825 234.581 992.669 234.281 988.898 234.281C980.842 234.281 973.643 236.038 967.302 239.552C961.045 242.98 956.075 247.779 952.39 253.95C948.79 260.12 946.991 267.233 946.991 275.289V387H892.228ZM1193.78 245.851L1143.64 248.936C1142.79 244.651 1140.94 240.795 1138.12 237.366C1135.29 233.853 1131.56 231.067 1126.93 229.011C1122.39 226.868 1116.95 225.797 1110.61 225.797C1102.12 225.797 1094.97 227.597 1089.14 231.196C1083.31 234.71 1080.4 239.423 1080.4 245.337C1080.4 250.05 1082.28 254.035 1086.05 257.292C1089.82 260.549 1096.29 263.162 1105.46 265.134L1141.2 272.332C1160.4 276.275 1174.71 282.616 1184.14 291.358C1193.56 300.099 1198.28 311.583 1198.28 325.81C1198.28 338.75 1194.46 350.106 1186.84 359.876C1179.3 369.646 1168.93 377.273 1155.73 382.758C1142.62 388.157 1127.49 390.857 1110.35 390.857C1084.21 390.857 1063.39 385.415 1047.87 374.531C1032.45 363.561 1023.41 348.649 1020.75 329.795L1074.61 326.967C1076.24 334.937 1080.18 341.022 1086.44 345.221C1092.7 349.335 1100.71 351.391 1110.48 351.391C1120.08 351.391 1127.79 349.549 1133.62 345.864C1139.53 342.093 1142.53 337.251 1142.62 331.337C1142.53 326.367 1140.43 322.296 1136.32 319.125C1132.2 315.868 1125.86 313.383 1117.29 311.669L1083.1 304.856C1063.81 300.999 1049.46 294.315 1040.03 284.802C1030.69 275.289 1026.02 263.162 1026.02 248.422C1026.02 235.738 1029.45 224.811 1036.3 215.641C1043.25 206.471 1052.97 199.401 1065.49 194.43C1078.08 189.46 1092.82 186.974 1109.71 186.974C1134.65 186.974 1154.27 192.245 1168.58 202.786C1182.98 213.327 1191.38 227.682 1193.78 245.851ZM1276.67 272.847V387H1221.9V123.727H1275.12V224.383H1277.44C1281.89 212.728 1289.09 203.6 1299.03 197.001C1308.97 190.317 1321.44 186.974 1336.44 186.974C1350.15 186.974 1362.11 189.974 1372.31 195.973C1382.59 201.886 1390.56 210.414 1396.22 221.555C1401.96 232.61 1404.79 245.851 1404.7 261.277V387H1349.94V271.047C1350.02 258.877 1346.94 249.407 1340.68 242.637C1334.51 235.867 1325.86 232.482 1314.72 232.482C1307.26 232.482 1300.66 234.067 1294.92 237.238C1289.26 240.409 1284.81 245.037 1281.55 251.121C1278.38 257.121 1276.75 264.362 1276.67 272.847ZM1526.15 390.857C1506.18 390.857 1488.92 386.614 1474.35 378.13C1459.86 369.56 1448.68 357.647 1440.8 342.393C1432.91 327.052 1428.97 309.269 1428.97 289.044C1428.97 268.647 1432.91 250.821 1440.8 235.567C1448.68 220.226 1459.86 208.314 1474.35 199.83C1488.92 191.259 1506.18 186.974 1526.15 186.974C1546.12 186.974 1563.35 191.259 1577.83 199.83C1592.4 208.314 1603.63 220.226 1611.51 235.567C1619.4 250.821 1623.34 268.647 1623.34 289.044C1623.34 309.269 1619.4 327.052 1611.51 342.393C1603.63 357.647 1592.4 369.56 1577.83 378.13C1563.35 386.614 1546.12 390.857 1526.15 390.857ZM1526.41 348.435C1535.49 348.435 1543.08 345.864 1549.16 340.722C1555.25 335.494 1559.83 328.381 1562.92 319.382C1566.09 310.384 1567.68 300.142 1567.68 288.658C1567.68 277.174 1566.09 266.933 1562.92 257.935C1559.83 248.936 1555.25 241.823 1549.16 236.595C1543.08 231.367 1535.49 228.754 1526.41 228.754C1517.24 228.754 1509.53 231.367 1503.27 236.595C1497.1 241.823 1492.43 248.936 1489.26 257.935C1486.17 266.933 1484.63 277.174 1484.63 288.658C1484.63 300.142 1486.17 310.384 1489.26 319.382C1492.43 328.381 1497.1 335.494 1503.27 340.722C1509.53 345.864 1517.24 348.435 1526.41 348.435ZM1753.11 189.545V230.682H1634.2V189.545H1753.11ZM1661.2 142.239H1715.96V326.324C1715.96 331.38 1716.73 335.322 1718.28 338.151C1719.82 340.893 1721.96 342.821 1724.7 343.935C1727.53 345.049 1730.79 345.607 1734.47 345.607C1737.04 345.607 1739.61 345.392 1742.19 344.964C1744.76 344.45 1746.73 344.064 1748.1 343.807L1756.71 384.558C1753.97 385.415 1750.11 386.4 1745.14 387.514C1740.17 388.714 1734.13 389.442 1727.02 389.7C1713.82 390.214 1702.25 388.457 1692.31 384.429C1682.45 380.401 1674.78 374.145 1669.3 365.661C1663.81 357.176 1661.11 346.464 1661.2 333.523V142.239Z" fill="black"/>
</svg>
