<svg width="512" height="512" viewBox="0 0 512 512" fill="none" xmlns="http://www.w3.org/2000/svg">
<rect width="512" height="512" rx="96" fill="#111111"/>
<path d="M281.003 278.046C285.762 284.142 291.202 289.22 297.324 293.258C289.822 303.739 281.918 313.708 273.613 323.167C264.666 333.116 255.387 341.741 245.776 349.053C236.178 356.356 226.378 362.103 216.378 366.315C206.469 370.49 196.489 372.56 186.419 372.56C173.453 372.56 164.297 368.698 158.346 361.437C152.241 353.748 148.994 342.743 148.994 328.04C148.994 311.648 152.25 294.729 158.815 277.267C165.657 259.463 174.268 242.367 184.652 225.979C195.29 209.566 206.985 194.47 219.735 180.688C232.747 166.881 245.481 155.498 257.934 146.513L260.424 144.717L258.571 142.269L247.123 127.149L245.668 125.228L243.479 126.234C232.311 131.364 221.173 137.947 210.063 145.968C198.973 153.973 188.253 162.944 177.903 172.875C167.539 182.82 157.9 193.61 148.988 205.243C140.069 216.646 132.23 228.539 125.473 240.923L125.462 240.943L125.452 240.963C118.93 253.359 113.729 265.893 109.855 278.563C105.96 291.302 104 303.838 104 316.16C104 328.458 105.833 339.62 109.555 349.608C113.258 359.544 118.464 368.168 125.189 375.437C131.924 382.716 139.915 388.246 149.135 392.01C158.587 396.012 168.76 398 179.622 398C190.218 398 201.594 396.142 213.732 392.48C225.967 389.03 238.265 383.381 250.626 375.577C263.018 367.752 275.123 357.755 286.948 345.613L286.958 345.602L286.968 345.592C298.411 333.607 309.142 319.281 319.173 302.64C322.727 303.341 326.658 303.68 330.947 303.68C345.04 303.68 358.403 300.316 370.994 293.608C383.717 286.829 395.85 275.029 407.456 258.483L409.091 256.152L406.849 254.398L393.97 244.318L391.303 242.23L389.553 245.13C385.583 251.71 381.526 257.302 377.39 261.931C373.269 266.304 368.955 269.835 364.455 272.552L364.426 272.57L364.397 272.588C360.158 275.282 355.458 277.317 350.279 278.683C345.055 279.82 339.212 280.4 332.736 280.4H332.729H332.722H332.715H332.708H332.701H332.694H332.687H332.68H332.673H332.666H332.659H332.652H332.645H332.638H332.631H332.624H332.617H332.611H332.604H332.597H332.59H332.583H332.576H332.569H332.562H332.555H332.548H332.541H332.534H332.527H332.521H332.514H332.507H332.5H332.493H332.486H332.479H332.472H332.465H332.459H332.452H332.445H332.438H332.431H332.424H332.417H332.411H332.404H332.397H332.39H332.383H332.376H332.369H332.363H332.356H332.349H332.342H332.335H332.328H332.322H332.315H332.308H332.301H332.294H332.287H332.281H332.274H332.267H332.26H332.253H332.247H332.24H332.233H332.226H332.22H332.213H332.206H332.199H332.192H332.186H332.179H332.172H332.165H332.159H332.152H332.145H332.138H332.132H332.125H332.118H332.111H332.105H332.098H332.091H332.084H332.078H332.071H332.064H332.058H332.051H332.044H332.037H332.031H332.024H332.017H332.011H332.004H331.997H331.99H331.984H331.977H331.97H331.964H331.957H331.95H331.944H331.937H331.93H331.924H331.917H331.91H331.904H331.897H331.89H331.884H331.877H331.871H331.864H331.857H331.851H331.844H331.837H331.831H331.824H331.817H331.811H331.804H331.798H331.791H331.784H331.778H331.771H331.765H331.761C335.092 274.602 338.02 268.273 340.551 261.42C343.926 252.684 346.702 243.941 348.877 235.191C351.289 226.206 353.101 217.332 354.31 208.57C355.518 199.822 356.127 191.762 356.127 184.4C356.127 174.602 355.154 165.377 353.191 156.736C351.231 148.107 348.392 140.607 344.627 134.286C340.858 127.718 336.147 122.552 330.458 118.899C324.696 114.957 318.149 113 310.914 113C302.932 113 295.562 115.213 288.873 119.614C282.283 123.95 276.523 129.9 271.565 137.383L271.558 137.393L271.552 137.403C266.829 144.657 263.137 153.106 260.445 162.71C257.742 172.356 256.399 182.59 256.399 193.4C256.399 204.119 257.246 214.603 258.943 224.85L258.949 224.884L258.955 224.918C260.897 235.177 263.692 244.847 267.348 253.921L267.354 253.934L267.359 253.948C271.027 262.805 275.561 270.829 280.972 278.006L280.987 278.026L281.003 278.046ZM318.456 250.371L318.448 250.394L318.44 250.417C315.977 257.852 312.973 265.203 309.426 272.469C305.054 269.145 301.273 264.956 298.087 259.87C294.152 253.345 290.907 246.347 288.353 238.87C285.79 231.367 283.925 223.627 282.758 215.646C281.583 207.604 281.001 200.191 281.001 193.4C281.001 185.92 281.697 178.816 283.079 172.081C284.7 165.101 286.879 159.137 289.582 154.15L289.595 154.125L289.608 154.101C292.311 148.888 295.508 144.939 299.149 142.138L299.192 142.104L299.234 142.07C302.81 139.106 306.559 137.72 310.556 137.72C313.31 137.72 315.82 138.707 318.181 140.885L318.276 140.973L318.379 141.052C320.975 143.062 323.201 146.074 324.96 150.278L324.998 150.368L325.041 150.455C327.043 154.484 328.64 159.379 329.793 165.185C330.942 170.962 331.525 177.363 331.525 184.4C331.525 189.51 331.062 195.612 330.12 202.726L330.114 202.77L330.109 202.813C329.413 209.592 328.014 216.997 325.899 225.037L325.889 225.077L325.88 225.117C323.998 233.162 321.525 241.579 318.456 250.371Z" fill="white" stroke="white" stroke-width="6"/>
</svg>
