<svg xmlns="http://www.w3.org/2000/svg" fill="none" viewBox="0 0 240 240"><mask id="a" width="42" height="42" x="99" y="6" fill="#000" maskUnits="userSpaceOnUse"><path fill="#fff" d="M99 6h42v42H99z"/><path fill-rule="evenodd" d="M120 44c9.389 0 17-7.611 17-17s-7.611-17-17-17-17 7.611-17 17 7.611 17 17 17zm0-7c5.523 0 10-4.477 10-10s-4.477-10-10-10-10 4.477-10 10 4.477 10 10 10z" clip-rule="evenodd"/></mask><path fill="#FF915C" fill-rule="evenodd" d="M120 44c9.389 0 17-7.611 17-17s-7.611-17-17-17-17 7.611-17 17 7.611 17 17 17zm0-7c5.523 0 10-4.477 10-10s-4.477-10-10-10-10 4.477-10 10 4.477 10 10 10z" clip-rule="evenodd"/><path fill="#2B3C5A" d="M133 27c0 7.18-5.82 13-13 13v8c11.598 0 21-9.402 21-21h-8zm-13-13c7.18 0 13 5.82 13 13h8c0-11.598-9.402-21-21-21v8zm-13 13c0-7.18 5.82-13 13-13V6c-11.598 0-21 9.402-21 21h8zm13 13c-7.18 0-13-5.82-13-13h-8c0 11.598 9.402 21 21 21v-8zm6-13a6 6 0 0 1-6 6v8c7.732 0 14-6.268 14-14h-8zm-6-6a6 6 0 0 1 6 6h8c0-7.732-6.268-14-14-14v8zm-6 6a6 6 0 0 1 6-6v-8c-7.732 0-14 6.268-14 14h8zm6 6a6 6 0 0 1-6-6h-8c0 7.732 6.268 14 14 14v-8z" mask="url(#a)"/><g clip-path="url(#b)"><rect width="200" height="200" x="20" y="20" fill="#91EDE9" rx="100"/><path fill="#91EDE9" d="M20 20h200v200H20z"/><path fill="#fff" d="M228 220H12v-43.5s19.176-15.802 28.5-16.5c11.844-.886 14.777 3.594 26.5 5.5 12.326 2.004 20.245-10.898 32.5-8.5 12.493 2.444 28.672 11.859 39 11.5 21.843-.759 20.554-3.873 38.5 0 7.627 1.646 15.768-13.416 28.5-11 6.449 1.224 22.5 2.5 22.5 2.5v60z" opacity=".8"/><path fill="#91EDE9" d="M230 221H14v-43.5s19.176-15.802 28.5-16.5c11.844-.886 14.777 3.594 26.5 5.5 12.326 2.004 20.245-10.898 32.5-8.5 12.493 2.444 28.672 11.859 39 11.5 21.843-.759 20.554-3.873 38.5 0 7.627 1.646 15.768-13.416 28.5-11 6.449 1.224 22.5 2.5 22.5 2.5v60z" opacity=".6"/><path fill="#48ACBA" d="M229 223H13v-43.5s19.176-15.802 28.5-16.5c11.844-.886 14.777 3.594 26.5 5.5 12.326 2.004 20.245-10.898 32.5-8.5 12.493 2.444 28.672 11.859 39 11.5 21.843-.759 20.554-4.873 38.5-1 7.627 1.646 15.768-14.416 28.5-12 6.449 1.224 22.5 2.5 22.5 2.5v62z"/><g filter="url(#c)"><mask id="d" width="148" height="178" x="46" y="6" fill="#000" maskUnits="userSpaceOnUse"><path fill="#fff" d="M46 6h148v178H46z"/><path fill-rule="evenodd" d="M127.02 42.489c5.888-2.672 9.983-8.602 9.983-15.489 0-9.389-7.611-17-17-17s-17 7.611-17 17c0 6.887 4.095 12.817 9.983 15.489L112.555 55h-.052l-23.726 1.79a3 3 0 0 0-2.774 2.992v6.44a3 3 0 0 0 2.77 2.991L112.003 71l-1.104 41.769c-.333 12.612-2.388 28.067-14.711 30.774-1.364.3-2.767.457-4.186.457-7.386 0-15.909-9.093-21.37-18.417a62.702 62.702 0 0 1 6.636-2.443c1.297-.396 1.558-2.222.426-2.97-8.182-5.408-14.672-12.666-18.654-21.062-.547-1.154-2.2-1.238-2.751-.086a65.066 65.066 0 0 0-3.519 9.006c-2.76 9.002-3.465 18.391-2.073 27.631.03.2.061.398.093.597.194 1.203 1.684 1.63 2.56.782a55.43 55.43 0 0 1 5.235-4.466C68.63 164.192 102.22 180 120.002 180c17.786 0 51.39-15.817 61.424-47.452a55.379 55.379 0 0 1 5.231 4.478c.876.85 2.37.424 2.562-.78l.05-.317.041-.27c1.386-9.24.685-18.629-2.064-27.63a65.212 65.212 0 0 0-3.495-8.99c-.55-1.156-2.207-1.073-2.753.084-3.966 8.391-10.425 15.644-18.566 21.05-1.129.748-.868 2.57.427 2.967a61.983 61.983 0 0 1 6.533 2.411c-5.46 9.335-13.995 18.45-21.39 18.45-1.418 0-2.82-.158-4.184-.457-12.324-2.707-14.379-18.163-14.712-30.775L128.002 71l23.23-1.787a3 3 0 0 0 2.77-2.99v-6.44a3 3 0 0 0-2.774-2.992L127.502 55h-.052l-.43-12.512zM130.003 27c0 5.523-4.477 10-10 10s-10-4.477-10-10 4.477-10 10-10 10 4.477 10 10z" clip-rule="evenodd"/></mask><path fill="#FF915C" fill-rule="evenodd" d="M127.02 42.489c5.888-2.672 9.983-8.602 9.983-15.489 0-9.389-7.611-17-17-17s-17 7.611-17 17c0 6.887 4.095 12.817 9.983 15.489L112.555 55h-.052l-23.726 1.79a3 3 0 0 0-2.774 2.992v6.44a3 3 0 0 0 2.77 2.991L112.003 71l-1.104 41.769c-.333 12.612-2.388 28.067-14.711 30.774-1.364.3-2.767.457-4.186.457-7.386 0-15.909-9.093-21.37-18.417a62.702 62.702 0 0 1 6.636-2.443c1.297-.396 1.558-2.222.426-2.97-8.182-5.408-14.672-12.666-18.654-21.062-.547-1.154-2.2-1.238-2.751-.086a65.066 65.066 0 0 0-3.519 9.006c-2.76 9.002-3.465 18.391-2.073 27.631.03.2.061.398.093.597.194 1.203 1.684 1.63 2.56.782a55.43 55.43 0 0 1 5.235-4.466C68.63 164.192 102.22 180 120.002 180c17.786 0 51.39-15.817 61.424-47.452a55.379 55.379 0 0 1 5.231 4.478c.876.85 2.37.424 2.562-.78l.05-.317.041-.27c1.386-9.24.685-18.629-2.064-27.63a65.212 65.212 0 0 0-3.495-8.99c-.55-1.156-2.207-1.073-2.753.084-3.966 8.391-10.425 15.644-18.566 21.05-1.129.748-.868 2.57.427 2.967a61.983 61.983 0 0 1 6.533 2.411c-5.46 9.335-13.995 18.45-21.39 18.45-1.418 0-2.82-.158-4.184-.457-12.324-2.707-14.379-18.163-14.712-30.775L128.002 71l23.23-1.787a3 3 0 0 0 2.77-2.99v-6.44a3 3 0 0 0-2.774-2.992L127.502 55h-.052l-.43-12.512zM130.003 27c0 5.523-4.477 10-10 10s-10-4.477-10-10 4.477-10 10-10 10 4.477 10 10z" clip-rule="evenodd"/><path fill="#2B3C5A" d="m127.02 42.489-1.653-3.643-2.437 1.106.092 2.675 3.998-.138zm-14.034 0 3.998.138.092-2.675-2.437-1.106-1.653 3.643zM112.555 55v4h3.864l.133-3.862-3.997-.138zm-.052 0v-4h-.151l-.15.011.301 3.989zm-23.726 1.79-.301-3.988.301 3.989zm-.004 12.423-.307 3.988.307-3.988zM112.003 71l3.999.105.1-3.802-3.792-.292-.307 3.988zm-1.104 41.768 3.999.106-4-.106zm-14.711 30.774.858 3.907-.858-3.907zm-25.556-17.96-1.593-3.669-4.14 1.797 2.281 3.894 3.452-2.022zm6.636-2.443-1.168-3.825 1.168 3.825zm.427-2.97 2.205-3.337-2.205 3.337zM59.04 99.107l-3.614 1.715 3.614-1.715zm-2.752-.085 3.608 1.727-3.608-1.727zm-3.518 9.006-3.824-1.173 3.824 1.173zm-2.073 27.63-3.956.597 3.956-.596zm.093.598-3.95.635 3.95-.635zm2.559.782 2.78 2.875-2.78-2.875zm5.236-4.466 3.812-1.211-1.708-5.377-4.508 3.39 2.404 3.198zm122.84-.024 2.409-3.193-4.512-3.404-1.71 5.387 3.813 1.21zm5.23 4.478-2.785 2.869 2.786-2.87zm2.563-.781-3.95-.631 3.95.63zm.05-.316 3.953.61-3.953-.61zm.04-.27-3.955-.593 3.956.593zm-2.063-27.631-3.825 1.168 3.825-1.168zm-3.495-8.99-3.611 1.719 3.61-1.72zm-2.753.085-3.617-1.71 3.617 1.71zm-18.566 21.049-2.213-3.333 2.213 3.333zm.427 2.968-1.173 3.824 1.173-3.824zm6.533 2.41 3.452 2.02 2.277-3.891-4.135-1.797-1.594 3.669zm-25.574 17.994-.858 3.907.858-3.907zm-14.712-30.775-4 .105 4-.105zm-1.104-41.77-.307-3.987-3.792.291.1 3.802 3.999-.105zm23.23-1.786.307 3.988-.307-3.988zm-.004-12.422.3-3.989-.3 3.989zM127.502 55l.3-3.99-.15-.01h-.15v4zm-.052 0-3.997.137.133 3.862h3.864v-4zm1.222-8.87c7.264-3.296 12.33-10.617 12.33-19.13h-8c0 5.26-3.125 9.799-7.636 11.846l3.306 7.285zm12.33-19.13c0-11.598-9.402-21-21-21v8c7.18 0 13 5.82 13 13h8zm-21-21c-11.598 0-21 9.402-21 21h8c0-7.18 5.82-13 13-13V6zm-21 21c0 8.513 5.066 15.835 12.33 19.13l3.306-7.284c-4.511-2.047-7.636-6.586-7.636-11.846h-8zm9.986 15.35-.432 12.512 7.995.275.432-12.51-7.995-.276zm3.566 8.65h-.052v8h.052v-8zm-.353.011-23.726 1.79.602 7.978 23.726-1.79-.602-7.978zm-23.726 1.79a7 7 0 0 0-6.473 6.98h8a1 1 0 0 1-.925.998l-.602-7.977zm-6.473 6.98v6.44h8v-6.44h-8zm0 6.44a7 7 0 0 0 6.463 6.98l.613-7.976a1 1 0 0 1 .924.997h-8zm6.463 6.98 23.23 1.787.614-7.977-23.23-1.786-.614 7.976zm19.538-2.307-1.104 41.769 7.998.212L116 71.107l-7.998-.211zm-1.104 41.769c-.164 6.229-.756 12.703-2.621 17.844-1.83 5.046-4.618 8.178-8.95 9.13l1.717 7.813c7.992-1.755 12.392-7.705 14.753-14.216 2.327-6.416 2.93-13.975 3.098-20.359l-7.998-.212zm-11.57 26.974a15.512 15.512 0 0 1-3.327.363v8c1.714 0 3.404-.19 5.043-.55l-1.716-7.813zm-3.327.363c-2.163 0-5.19-1.426-8.699-4.655-3.38-3.11-6.64-7.378-9.22-11.784l-6.904 4.044c2.881 4.918 6.613 9.859 10.707 13.626 3.965 3.649 8.893 6.769 14.116 6.769v-8zm-19.778-10.748a58.4 58.4 0 0 1 6.212-2.286l-2.337-7.651a66.358 66.358 0 0 0-7.062 2.599l3.187 7.338zm6.212-2.286c4.55-1.39 5.402-7.53 1.463-10.133l-4.41 6.674a2.371 2.371 0 0 1-1.057-2.288c.1-.692.61-1.582 1.667-1.904l2.336 7.651zm1.463-10.134c-7.626-5.04-13.602-11.757-17.245-19.438l-7.228 3.428c4.32 9.11 11.325 16.91 20.063 22.685l4.41-6.675zM62.654 97.395c-1.793-3.782-7.774-4.694-9.974-.098l7.217 3.453a2.567 2.567 0 0 1-2.385 1.448 2.419 2.419 0 0 1-2.086-1.375l7.228-3.428zm-9.974-.098a69.057 69.057 0 0 0-3.734 9.56l7.648 2.345a61.062 61.062 0 0 1 3.303-8.452l-7.217-3.453zm-3.734 9.56c-2.935 9.57-3.687 19.562-2.204 29.4l7.91-1.193c-1.302-8.643-.645-17.428 1.942-25.862l-7.648-2.346zm-2.204 29.4.099.635 7.898-1.269c-.03-.186-.059-.373-.087-.559l-7.91 1.192zm.099.635c.763 4.753 6.353 5.861 9.289 3.022l-5.562-5.75a2.439 2.439 0 0 1 2.388-.58 2.57 2.57 0 0 1 1.783 2.04l-7.898 1.268zm9.289 3.022a51.551 51.551 0 0 1 4.86-4.145l-4.81-6.393a59.429 59.429 0 0 0-5.612 4.788l5.562 5.75zm-1.357-6.13c5.36 16.875 16.963 29.41 29.403 37.69 12.364 8.23 25.966 12.527 35.826 12.527v-8c-7.921 0-20.006-3.607-31.394-11.187-11.312-7.53-21.527-18.709-26.211-33.452l-7.625 2.422zm65.229 50.217c9.863 0 23.469-4.3 35.836-12.533 12.442-8.285 24.045-20.826 29.4-37.71l-7.624-2.419c-4.68 14.751-14.895 25.936-26.21 33.47-11.39 7.583-23.48 11.192-31.402 11.192v8zm59.015-48.259a51.59 51.59 0 0 1 4.854 4.154l5.573-5.739a59.298 59.298 0 0 0-5.61-4.8l-4.817 6.385zm4.854 4.155c2.934 2.848 8.538 1.743 9.298-3.02l-7.9-1.262a2.572 2.572 0 0 1 1.785-2.042 2.442 2.442 0 0 1 2.39.584l-5.573 5.74zm9.298-3.02.053-.336-7.906-1.22a30.12 30.12 0 0 1-.047.294l7.9 1.262zm.053-.336.044-.288-7.912-1.186-.038.253 7.906 1.221zm.044-.288c1.475-9.833.727-19.824-2.194-29.392l-7.651 2.336c2.576 8.437 3.23 17.224 1.933 25.87l7.912 1.186zm-2.194-29.392a69.195 69.195 0 0 0-3.71-9.541l-7.222 3.438a61.282 61.282 0 0 1 3.28 8.44l7.652-2.337zm-3.71-9.541c-2.194-4.61-8.19-3.695-9.981.095l7.233 3.418a2.418 2.418 0 0 1-2.088 1.378 2.567 2.567 0 0 1-2.386-1.453l7.223-3.438zm-9.981.095c-3.628 7.678-9.576 14.39-17.162 19.425l4.425 6.665c8.698-5.773 15.668-13.569 19.97-22.672l-7.233-3.418zm-17.162 19.425c-3.927 2.607-3.074 8.732 1.467 10.125l2.346-7.648a2.376 2.376 0 0 1 1.664 1.903 2.37 2.37 0 0 1-1.052 2.285l-4.425-6.665zm1.467 10.125a58.273 58.273 0 0 1 6.112 2.255l3.188-7.337a65.994 65.994 0 0 0-6.954-2.566l-2.346 7.648zm4.253-3.433c-2.58 4.411-5.843 8.687-9.227 11.803-3.513 3.236-6.544 4.666-8.71 4.666v8c5.229 0 10.162-3.127 14.13-6.782 4.098-3.774 7.832-8.723 10.712-13.647l-6.905-4.04zm-17.937 16.47c-1.123 0-2.238-.125-3.326-.364l-1.716 7.814c1.639.36 3.328.55 5.042.55v-8zm-3.326-.364c-4.331-.95-7.12-4.083-8.95-9.13-1.865-5.14-2.457-11.616-2.621-17.844l-7.998.211c.169 6.385.77 13.944 3.098 20.361 2.362 6.511 6.763 12.46 14.755 14.216l1.716-7.814zm-11.571-26.974L132 70.895l-7.998.212 1.104 41.768 7.998-.211zm-4.796-37.675 23.23-1.787-.614-7.976-23.23 1.787.614 7.976zm23.23-1.787a7 7 0 0 0 6.463-6.979h-8a1 1 0 0 1 .923-.997l.614 7.976zm6.463-6.979v-6.44h-8v6.44h8zm0-6.44a7 7 0 0 0-6.473-6.98l-.602 7.977a1 1 0 0 1-.925-.997h8zm-6.473-6.98-23.726-1.79-.602 7.977 23.726 1.79.602-7.977zm-24.027-1.802h-.052v8h.052v-8zm3.946 3.862-.432-12.51-7.995.275.432 12.511 7.995-.276zm-11.446-13.862c7.732 0 14-6.268 14-14h-8a6 6 0 0 1-6 6v8zm-14-14c0 7.732 6.268 14 14 14v-8a6 6 0 0 1-6-6h-8zm14-14c-7.732 0-14 6.268-14 14h8a6 6 0 0 1 6-6v-8zm14 14c0-7.732-6.268-14-14-14v8a6 6 0 0 1 6 6h8z" mask="url(#d)"/></g><path fill="#8A380F" d="M86 67.148a2 2 0 0 0 1.847 1.994L112 71l6.634-6.634a.8.8 0 0 0-.565-1.366H86v4.148Z"/><path fill="#8A380F" fill-rule="evenodd" d="M182.12 98.814c.39-.585 1.264-.532 1.567.102a65.259 65.259 0 0 1 3.553 9.112c2.749 9.002 3.45 18.391 2.064 27.631-.029.195-.059.391-.091.586-.192 1.205-1.686 1.631-2.562.781a56.686 56.686 0 0 0-11.091-8.36 1.553 1.553 0 0 1-.642-1.972c3.368-7.583 5.849-16.672 7.053-27.47a.942.942 0 0 1 .149-.41z" clip-rule="evenodd"/><path fill="#8A380F" d="m127 42 .5 13-5.818 5.43c-.639.596-1.682.143-1.682-.731v-17.7h7zM184 120c-4 40-44 60-64 60V64.5a1.5 1.5 0 0 1 1.5-1.5H154v3.285a3 3 0 0 1-2.701 2.985L128 71l1.104 41.769c.333 12.612 2.369 28.102 14.698 30.785 1.345.293 2.729.446 4.131.446-1.385.066-2.761.554-3.652 1.616-4.867 5.798-10.395 11.645-18.574 14.285 21.5 1 51.11-13.627 56.293-60.901l2 21z"/><path fill="#8A380F" fill-rule="evenodd" d="M122 39.898c-1.099.114-1.998.998-1.998 2.103s.898 2.012 1.995 1.882a17.007 17.007 0 0 0 10.026-4.862 17.003 17.003 0 0 0 4.979-11.94.08.08 0 0 0-.16-.012C135.789 33.8 129.676 39.105 122 39.9z" clip-rule="evenodd"/><path fill="#2B3C5A" d="M220 220H12v-40c-.127-2.132 20.042-10.782 29-11.5 10.646-.854 15.239 8.402 26 9.836 11.492 1.532 17.245-5.734 29.5-3.336 12.492 2.444 22.172 9.859 32.5 9.5 21.842-.759 23.054-11.373 41-7.5 7.627 1.646 10.5.664 28.5-3.5S224 178 224 178l-4 42z" opacity=".4"/><path fill="#2B3C5A" d="M222 221H14v-40s19.676-10.802 29-11.5c11.844-.886 10.277 1.594 22 3.5 12.326 2.004 11.245-2.898 23.5-.5 12.493 2.444 32.172 13.359 42.5 13 21.843-.759 23.054-11.373 41-7.5 7.627 1.646 9.5 5.5 27.5 1.336S222 179 222 179v42z" opacity=".6"/><path fill="#2B3C5A" d="M222 223H10v-40s19.676-10.802 29-11.5c11.844-.886 14.277 7.93 26 9.836 12.326 2.004 16.745-10.234 29-7.836 12.493 2.444 22.672 14.359 33 14 21.843-.759 23.054-11.373 41-7.5 7.627 1.646 9.5 5.5 27.5 1.336S222 183 222 183v40z"/><g filter="url(#e)"><circle cx="37" cy="54" r="3" fill="#fff" fill-opacity=".5"/></g><g filter="url(#f)"><circle cx="93.5" cy="90.5" r="2.5" fill="#fff" fill-opacity=".5"/></g><g filter="url(#g)"><circle cx="33.5" cy="72.5" r="1.5" fill="#fff" fill-opacity=".5"/></g><g filter="url(#h)"><circle cx="33" cy="90" r="1" fill="#fff" fill-opacity=".5"/></g><g filter="url(#i)" opacity=".5"><circle cx="66.5" cy="201.5" r="8.5" fill="#fff" fill-opacity=".5"/></g><g filter="url(#j)" opacity=".6"><circle cx="48.5" cy="186.5" r="1.5" fill="#91EDE9"/></g><g filter="url(#k)"><circle cx="180" cy="177" r="12" fill="#fff" fill-opacity=".5"/></g><g filter="url(#l)" opacity=".5"><circle cx="158" cy="207" r="7" fill="#fff" fill-opacity=".5"/></g><g filter="url(#m)" opacity=".5"><circle cx="213" cy="148" r="2" fill="#fff" fill-opacity=".5"/></g><g filter="url(#n)"><circle cx="204" cy="192" r="3" fill="#fff" fill-opacity=".5"/></g><g filter="url(#o)" opacity=".6"><circle cx="143" cy="198" r="3" fill="#fff" fill-opacity=".5"/></g><g filter="url(#p)" opacity=".8"><circle cx="55.5" cy="62.5" r="4.5" fill="#fff" fill-opacity=".5"/></g><g filter="url(#q)"><circle cx="157.5" cy="95.5" r="4.5" fill="#fff" fill-opacity=".5"/></g><g filter="url(#r)"><circle cx="150" cy="102" r="2" fill="#fff" fill-opacity=".5"/></g><g filter="url(#s)"><circle cx="165" cy="92" r="2" fill="#fff" fill-opacity=".5"/></g><g filter="url(#t)"><circle cx="208.5" cy="70.5" r="1.5" fill="#fff" fill-opacity=".5"/></g><g filter="url(#u)" opacity=".6"><circle cx="202" cy="87" r="3" fill="#fff" fill-opacity=".5"/></g><g filter="url(#v)"><circle cx="192" cy="44" r="2" fill="#fff" fill-opacity=".5"/></g></g><defs><filter id="c" width="150" height="181" x="44" y="3" color-interpolation-filters="sRGB" filterUnits="userSpaceOnUse"><feFlood flood-opacity="0" result="BackgroundImageFix"/><feColorMatrix in="SourceAlpha" result="hardAlpha" values="0 0 0 0 0 0 0 0 0 0 0 0 0 0 0 0 0 0 127 0"/><feOffset dx="-2" dy="-3"/><feComposite in2="hardAlpha" operator="out"/><feColorMatrix values="0 0 0 0 1 0 0 0 0 1 0 0 0 0 1 0 0 0 1 0"/><feBlend in2="BackgroundImageFix" result="effect1_dropShadow_103_1402"/><feBlend in="SourceGraphic" in2="effect1_dropShadow_103_1402" result="shape"/></filter><filter id="e" width="6" height="6" x="34" y="51" color-interpolation-filters="sRGB" filterUnits="userSpaceOnUse"><feFlood flood-opacity="0" result="BackgroundImageFix"/><feBlend in="SourceGraphic" in2="BackgroundImageFix" result="shape"/><feColorMatrix in="SourceAlpha" result="hardAlpha" values="0 0 0 0 0 0 0 0 0 0 0 0 0 0 0 0 0 0 127 0"/><feOffset dx="1" dy="1"/><feComposite in2="hardAlpha" k2="-1" k3="1" operator="arithmetic"/><feColorMatrix values="0 0 0 0 1 0 0 0 0 1 0 0 0 0 1 0 0 0 0.8 0"/><feBlend in2="shape" result="effect1_innerShadow_103_1402"/></filter><filter id="f" width="5" height="5" x="91" y="88" color-interpolation-filters="sRGB" filterUnits="userSpaceOnUse"><feFlood flood-opacity="0" result="BackgroundImageFix"/><feBlend in="SourceGraphic" in2="BackgroundImageFix" result="shape"/><feColorMatrix in="SourceAlpha" result="hardAlpha" values="0 0 0 0 0 0 0 0 0 0 0 0 0 0 0 0 0 0 127 0"/><feOffset dx="1" dy="1"/><feComposite in2="hardAlpha" k2="-1" k3="1" operator="arithmetic"/><feColorMatrix values="0 0 0 0 1 0 0 0 0 1 0 0 0 0 1 0 0 0 0.8 0"/><feBlend in2="shape" result="effect1_innerShadow_103_1402"/></filter><filter id="g" width="3" height="3" x="32" y="71" color-interpolation-filters="sRGB" filterUnits="userSpaceOnUse"><feFlood flood-opacity="0" result="BackgroundImageFix"/><feBlend in="SourceGraphic" in2="BackgroundImageFix" result="shape"/><feColorMatrix in="SourceAlpha" result="hardAlpha" values="0 0 0 0 0 0 0 0 0 0 0 0 0 0 0 0 0 0 127 0"/><feOffset dx="1" dy="1"/><feComposite in2="hardAlpha" k2="-1" k3="1" operator="arithmetic"/><feColorMatrix values="0 0 0 0 1 0 0 0 0 1 0 0 0 0 1 0 0 0 0.8 0"/><feBlend in2="shape" result="effect1_innerShadow_103_1402"/></filter><filter id="h" width="2" height="2" x="32" y="89" color-interpolation-filters="sRGB" filterUnits="userSpaceOnUse"><feFlood flood-opacity="0" result="BackgroundImageFix"/><feBlend in="SourceGraphic" in2="BackgroundImageFix" result="shape"/><feColorMatrix in="SourceAlpha" result="hardAlpha" values="0 0 0 0 0 0 0 0 0 0 0 0 0 0 0 0 0 0 127 0"/><feOffset dx="1" dy="1"/><feComposite in2="hardAlpha" k2="-1" k3="1" operator="arithmetic"/><feColorMatrix values="0 0 0 0 1 0 0 0 0 1 0 0 0 0 1 0 0 0 0.8 0"/><feBlend in2="shape" result="effect1_innerShadow_103_1402"/></filter><filter id="i" width="17" height="17" x="58" y="193" color-interpolation-filters="sRGB" filterUnits="userSpaceOnUse"><feFlood flood-opacity="0" result="BackgroundImageFix"/><feBlend in="SourceGraphic" in2="BackgroundImageFix" result="shape"/><feColorMatrix in="SourceAlpha" result="hardAlpha" values="0 0 0 0 0 0 0 0 0 0 0 0 0 0 0 0 0 0 127 0"/><feOffset dx="1" dy="1"/><feComposite in2="hardAlpha" k2="-1" k3="1" operator="arithmetic"/><feColorMatrix values="0 0 0 0 1 0 0 0 0 1 0 0 0 0 1 0 0 0 0.8 0"/><feBlend in2="shape" result="effect1_innerShadow_103_1402"/></filter><filter id="j" width="3" height="3" x="47" y="185" color-interpolation-filters="sRGB" filterUnits="userSpaceOnUse"><feFlood flood-opacity="0" result="BackgroundImageFix"/><feBlend in="SourceGraphic" in2="BackgroundImageFix" result="shape"/><feColorMatrix in="SourceAlpha" result="hardAlpha" values="0 0 0 0 0 0 0 0 0 0 0 0 0 0 0 0 0 0 127 0"/><feOffset dx="1" dy="1"/><feComposite in2="hardAlpha" k2="-1" k3="1" operator="arithmetic"/><feColorMatrix values="0 0 0 0 1 0 0 0 0 1 0 0 0 0 1 0 0 0 0.8 0"/><feBlend in2="shape" result="effect1_innerShadow_103_1402"/></filter><filter id="k" width="24" height="24" x="168" y="165" color-interpolation-filters="sRGB" filterUnits="userSpaceOnUse"><feFlood flood-opacity="0" result="BackgroundImageFix"/><feBlend in="SourceGraphic" in2="BackgroundImageFix" result="shape"/><feColorMatrix in="SourceAlpha" result="hardAlpha" values="0 0 0 0 0 0 0 0 0 0 0 0 0 0 0 0 0 0 127 0"/><feOffset dx="1" dy="1"/><feComposite in2="hardAlpha" k2="-1" k3="1" operator="arithmetic"/><feColorMatrix values="0 0 0 0 1 0 0 0 0 1 0 0 0 0 1 0 0 0 0.8 0"/><feBlend in2="shape" result="effect1_innerShadow_103_1402"/></filter><filter id="l" width="14" height="14" x="151" y="200" color-interpolation-filters="sRGB" filterUnits="userSpaceOnUse"><feFlood flood-opacity="0" result="BackgroundImageFix"/><feBlend in="SourceGraphic" in2="BackgroundImageFix" result="shape"/><feColorMatrix in="SourceAlpha" result="hardAlpha" values="0 0 0 0 0 0 0 0 0 0 0 0 0 0 0 0 0 0 127 0"/><feOffset dx="1" dy="1"/><feComposite in2="hardAlpha" k2="-1" k3="1" operator="arithmetic"/><feColorMatrix values="0 0 0 0 1 0 0 0 0 1 0 0 0 0 1 0 0 0 0.8 0"/><feBlend in2="shape" result="effect1_innerShadow_103_1402"/></filter><filter id="m" width="4" height="4" x="211" y="146" color-interpolation-filters="sRGB" filterUnits="userSpaceOnUse"><feFlood flood-opacity="0" result="BackgroundImageFix"/><feBlend in="SourceGraphic" in2="BackgroundImageFix" result="shape"/><feColorMatrix in="SourceAlpha" result="hardAlpha" values="0 0 0 0 0 0 0 0 0 0 0 0 0 0 0 0 0 0 127 0"/><feOffset dx="1" dy="1"/><feComposite in2="hardAlpha" k2="-1" k3="1" operator="arithmetic"/><feColorMatrix values="0 0 0 0 1 0 0 0 0 1 0 0 0 0 1 0 0 0 0.8 0"/><feBlend in2="shape" result="effect1_innerShadow_103_1402"/></filter><filter id="n" width="6" height="6" x="201" y="189" color-interpolation-filters="sRGB" filterUnits="userSpaceOnUse"><feFlood flood-opacity="0" result="BackgroundImageFix"/><feBlend in="SourceGraphic" in2="BackgroundImageFix" result="shape"/><feColorMatrix in="SourceAlpha" result="hardAlpha" values="0 0 0 0 0 0 0 0 0 0 0 0 0 0 0 0 0 0 127 0"/><feOffset dx="1" dy="1"/><feComposite in2="hardAlpha" k2="-1" k3="1" operator="arithmetic"/><feColorMatrix values="0 0 0 0 1 0 0 0 0 1 0 0 0 0 1 0 0 0 0.8 0"/><feBlend in2="shape" result="effect1_innerShadow_103_1402"/></filter><filter id="o" width="6" height="6" x="140" y="195" color-interpolation-filters="sRGB" filterUnits="userSpaceOnUse"><feFlood flood-opacity="0" result="BackgroundImageFix"/><feBlend in="SourceGraphic" in2="BackgroundImageFix" result="shape"/><feColorMatrix in="SourceAlpha" result="hardAlpha" values="0 0 0 0 0 0 0 0 0 0 0 0 0 0 0 0 0 0 127 0"/><feOffset dx="1" dy="1"/><feComposite in2="hardAlpha" k2="-1" k3="1" operator="arithmetic"/><feColorMatrix values="0 0 0 0 1 0 0 0 0 1 0 0 0 0 1 0 0 0 0.8 0"/><feBlend in2="shape" result="effect1_innerShadow_103_1402"/></filter><filter id="p" width="9" height="9" x="51" y="58" color-interpolation-filters="sRGB" filterUnits="userSpaceOnUse"><feFlood flood-opacity="0" result="BackgroundImageFix"/><feBlend in="SourceGraphic" in2="BackgroundImageFix" result="shape"/><feColorMatrix in="SourceAlpha" result="hardAlpha" values="0 0 0 0 0 0 0 0 0 0 0 0 0 0 0 0 0 0 127 0"/><feOffset dx="1" dy="1"/><feComposite in2="hardAlpha" k2="-1" k3="1" operator="arithmetic"/><feColorMatrix values="0 0 0 0 1 0 0 0 0 1 0 0 0 0 1 0 0 0 0.8 0"/><feBlend in2="shape" result="effect1_innerShadow_103_1402"/></filter><filter id="q" width="9" height="9" x="153" y="91" color-interpolation-filters="sRGB" filterUnits="userSpaceOnUse"><feFlood flood-opacity="0" result="BackgroundImageFix"/><feBlend in="SourceGraphic" in2="BackgroundImageFix" result="shape"/><feColorMatrix in="SourceAlpha" result="hardAlpha" values="0 0 0 0 0 0 0 0 0 0 0 0 0 0 0 0 0 0 127 0"/><feOffset dx="1" dy="1"/><feComposite in2="hardAlpha" k2="-1" k3="1" operator="arithmetic"/><feColorMatrix values="0 0 0 0 1 0 0 0 0 1 0 0 0 0 1 0 0 0 0.8 0"/><feBlend in2="shape" result="effect1_innerShadow_103_1402"/></filter><filter id="r" width="4" height="4" x="148" y="100" color-interpolation-filters="sRGB" filterUnits="userSpaceOnUse"><feFlood flood-opacity="0" result="BackgroundImageFix"/><feBlend in="SourceGraphic" in2="BackgroundImageFix" result="shape"/><feColorMatrix in="SourceAlpha" result="hardAlpha" values="0 0 0 0 0 0 0 0 0 0 0 0 0 0 0 0 0 0 127 0"/><feOffset dx="1" dy="1"/><feComposite in2="hardAlpha" k2="-1" k3="1" operator="arithmetic"/><feColorMatrix values="0 0 0 0 1 0 0 0 0 1 0 0 0 0 1 0 0 0 0.8 0"/><feBlend in2="shape" result="effect1_innerShadow_103_1402"/></filter><filter id="s" width="4" height="4" x="163" y="90" color-interpolation-filters="sRGB" filterUnits="userSpaceOnUse"><feFlood flood-opacity="0" result="BackgroundImageFix"/><feBlend in="SourceGraphic" in2="BackgroundImageFix" result="shape"/><feColorMatrix in="SourceAlpha" result="hardAlpha" values="0 0 0 0 0 0 0 0 0 0 0 0 0 0 0 0 0 0 127 0"/><feOffset dx="1" dy="1"/><feComposite in2="hardAlpha" k2="-1" k3="1" operator="arithmetic"/><feColorMatrix values="0 0 0 0 1 0 0 0 0 1 0 0 0 0 1 0 0 0 0.8 0"/><feBlend in2="shape" result="effect1_innerShadow_103_1402"/></filter><filter id="t" width="3" height="3" x="207" y="69" color-interpolation-filters="sRGB" filterUnits="userSpaceOnUse"><feFlood flood-opacity="0" result="BackgroundImageFix"/><feBlend in="SourceGraphic" in2="BackgroundImageFix" result="shape"/><feColorMatrix in="SourceAlpha" result="hardAlpha" values="0 0 0 0 0 0 0 0 0 0 0 0 0 0 0 0 0 0 127 0"/><feOffset dx="1" dy="1"/><feComposite in2="hardAlpha" k2="-1" k3="1" operator="arithmetic"/><feColorMatrix values="0 0 0 0 1 0 0 0 0 1 0 0 0 0 1 0 0 0 0.8 0"/><feBlend in2="shape" result="effect1_innerShadow_103_1402"/></filter><filter id="u" width="6" height="6" x="199" y="84" color-interpolation-filters="sRGB" filterUnits="userSpaceOnUse"><feFlood flood-opacity="0" result="BackgroundImageFix"/><feBlend in="SourceGraphic" in2="BackgroundImageFix" result="shape"/><feColorMatrix in="SourceAlpha" result="hardAlpha" values="0 0 0 0 0 0 0 0 0 0 0 0 0 0 0 0 0 0 127 0"/><feOffset dx="1" dy="1"/><feComposite in2="hardAlpha" k2="-1" k3="1" operator="arithmetic"/><feColorMatrix values="0 0 0 0 1 0 0 0 0 1 0 0 0 0 1 0 0 0 0.8 0"/><feBlend in2="shape" result="effect1_innerShadow_103_1402"/></filter><filter id="v" width="4" height="4" x="190" y="42" color-interpolation-filters="sRGB" filterUnits="userSpaceOnUse"><feFlood flood-opacity="0" result="BackgroundImageFix"/><feBlend in="SourceGraphic" in2="BackgroundImageFix" result="shape"/><feColorMatrix in="SourceAlpha" result="hardAlpha" values="0 0 0 0 0 0 0 0 0 0 0 0 0 0 0 0 0 0 127 0"/><feOffset dx="1" dy="1"/><feComposite in2="hardAlpha" k2="-1" k3="1" operator="arithmetic"/><feColorMatrix values="0 0 0 0 1 0 0 0 0 1 0 0 0 0 1 0 0 0 0.8 0"/><feBlend in2="shape" result="effect1_innerShadow_103_1402"/></filter><clipPath id="b"><rect width="200" height="200" x="20" y="20" fill="#fff" rx="100"/></clipPath></defs></svg>