<svg viewBox="0 0 256 256" xmlns="http://www.w3.org/2000/svg" width="256" height="256" fill="none"><path fill="#2F2F2F" d="m126.675 216.375-74.5-43a3.023 3.023 0 0 1-1.5-2.6v-66.4c0-1.15 1.25-1.875 2.25-1.3l86.5 49.95c1.2.7 2.725-.175 2.725-1.575v-32.4c0-1.3-.7-2.475-1.8-3.125L36.25 55.8a2.98 2.98 0 0 0-3.025 0L19.6 63.675a3.023 3.023 0 0 0-1.5 2.6V189.7c0 1.075.575 2.075 1.5 2.6L126.475 254a2.98 2.98 0 0 0 3.025 0l89.75-51.825c1.2-.7 1.2-2.425 0-3.125l-28-16.175a3.613 3.613 0 0 0-3.625 0l-57.95 33.45a2.98 2.98 0 0 1-3.025 0l.025.05ZM236.4 63.675l-106.9-61.7a2.98 2.98 0 0 0-3.025 0L69.975 34.6c-1.2.7-1.2 2.425 0 3.125l27.75 16.025c1.125.65 2.5.65 3.625 0l25.3-14.6a2.98 2.98 0 0 1 3.025 0l74.5 43c.925.55 1.5 1.525 1.5 2.6v66.75c0 1.3.7 2.475 1.8 3.125l27.7 16c1.2.7 2.725-.175 2.725-1.575V66.3a2.993 2.993 0 0 0-1.5-2.6v-.025Z"/></svg>