<svg viewBox="0 0 104 20" xmlns="http://www.w3.org/2000/svg" width="104" height="20" fill="none"><g fill="#fff" clip-path="url(#a)"><path d="M20.747 10.668c.108-.647.03-1.22-.043-1.793-.296-2.32-1.594-3.813-3.724-4.274-2.242-.485-4.615.423-5.705 2.287-1.196 2.048-1.26 4.184.073 6.17 1.32 1.966 3.364 2.416 5.6 2.134 1.368-.173 2.514-.785 3.354-1.974-.586-.466-1.13-.896-1.665-1.323-1.2 1.266-2.645 1.62-3.988 1.02-1.045-.467-1.616-1.276-1.527-2.244 2.534-.003 5.076-.003 7.625-.003Zm-7.705-1.836c.14-1.548 1.384-2.537 2.996-2.434 1.348.086 2.177 1.02 2.135 2.434h-5.131ZM27.973 4.663c-1.279-.164-2.356.37-3.505.899V4.533h-2.374v10.701h2.52c0-1.846-.015-3.656.005-5.466.015-1.375.734-2.406 1.866-2.732.478-.138.971-.09 1.485-.069V4.663h.003ZM28.96 13.686l1.594-1.57c.869.798 1.859 1.29 3.099 1.024.615-.132 1.122-.409 1.151-1.115.03-.694-.472-.961-1.046-1.11-.799-.207-1.61-.364-2.404-.59-1.102-.313-1.92-.936-2.073-2.162-.165-1.312.321-2.324 1.456-3.011 1.902-1.15 4.98-.81 6.194.598l-1.374 1.629c-.745-.639-1.48-1.076-2.423-1.001a2.74 2.74 0 0 0-.913.224c-.384.171-.623.443-.612.897.01.454.248.736.658.852.652.185 1.318.325 1.975.495.422.11.853.205 1.253.373 1.033.434 1.738 1.152 1.814 2.33.081 1.266-.385 2.276-1.496 2.942-1.936 1.16-5.132.796-6.853-.805ZM48.491 6.431c-1.527-2.125-3.855-2.507-7.49-1.205l-.041-.694h-2.418V20h2.489v-5.477c3.059 1.41 5.928.688 7.269-1.013 1.537-1.951 1.615-5.098.191-7.079Zm-4.487 6.656c-1.683.007-3.029-1.432-3.024-3.237.004-1.883 1.318-3.327 3.024-3.324 1.679.003 2.903 1.361 2.92 3.24.016 1.898-1.228 3.313-2.92 3.32ZM60.683 8.757c-.248-2.15-1.705-3.748-3.72-4.125-3.855-.719-6.768 1.927-6.512 5.918.14 2.19 1.554 3.92 3.699 4.527 2.391.676 4.847-.044 6.13-1.829l-1.627-1.307c-1.254 1.204-2.488 1.577-3.772 1.106-1.049-.386-1.754-1.088-1.894-2.311h7.718c.179-.734.05-1.36-.022-1.979Zm-7.65.1c.118-1.478 1.351-2.51 2.889-2.438 1.4.065 2.246.96 2.266 2.438h-5.154ZM71.113 6.175l-1.668 1.46c-.522-.495-1.11-.855-1.824-.942-1.47-.18-2.637.723-3.025 2.329-.467 1.928.515 3.781 2.209 4.133 1.047.218 1.952-.124 2.742-.801.52.51 1.023 1 1.522 1.488-.914 1.308-3.471 1.863-5.574 1.226-2.204-.666-3.586-2.506-3.661-4.877-.08-2.523 1.211-4.49 3.484-5.308 2.084-.749 4.607-.204 5.795 1.292ZM72.094 1.857h2.44v2.627h2.564V6.51h-2.505c0 1.872-.041 3.68.017 5.484.028.857.47 1.143 1.382 1.105.31-.014.617-.077.969-.125.12.635.087 1.274.09 1.935-.955.307-1.89.35-2.82.132-1.285-.304-2.098-1.226-2.118-2.608-.053-3.505-.019-7.01-.019-10.576ZM78.265 15.233h2.546V4.538h-2.546v10.695ZM79.536 3.046c.888 0 1.607-.651 1.607-1.455 0-.803-.72-1.455-1.607-1.455-.888 0-1.607.652-1.607 1.455 0 .804.72 1.455 1.607 1.455ZM81.762 4.522h2.84c.894 2.546 1.796 5.11 2.751 7.825l2.764-7.807h2.753l-4.122 10.65h-2.79L81.761 4.522ZM103.049 8.757c-.249-2.15-1.706-3.748-3.721-4.125-3.855-.719-6.767 1.927-6.512 5.918.14 2.19 1.554 3.92 3.699 4.527 2.391.676 4.847-.044 6.13-1.829l-1.627-1.307c-1.253 1.204-2.488 1.577-3.772 1.106-1.048-.386-1.754-1.088-1.894-2.311h7.719c.178-.734.05-1.36-.022-1.979Zm-7.65.1c.117-1.478 1.35-2.51 2.888-2.438 1.4.065 2.246.96 2.266 2.438h-5.154ZM0 0h4.904c.863 0 1.642.078 2.335.233.694.155 1.288.408 1.783.76.496.353.878.804 1.147 1.354s.403 1.212.403 1.987c0 .831-.156 1.53-.467 2.093A3.836 3.836 0 0 1 8.831 7.8c-.523.338-1.139.585-1.847.74-.707.155-1.457.233-2.25.233h-2.06v6.194H0V0Zm4.543 6.533c.439 0 .856-.029 1.253-.085.396-.07.75-.183 1.061-.338.311-.17.559-.395.743-.677.184-.282.276-.648.276-1.1 0-.436-.092-.788-.276-1.056a1.857 1.857 0 0 0-.743-.655 2.896 2.896 0 0 0-1.04-.296 8.138 8.138 0 0 0-1.19-.085H2.676v4.292h1.868Z" style="fill:#fff;fill-opacity:1"/></g><defs><clipPath id="a"><path fill="#fff" d="M0 0h104v20H0z" style="fill:#fff;fill-opacity:1"/></clipPath></defs></svg>