<svg width="32" height="32" viewBox="0 0 32 32" fill="none" xmlns="http://www.w3.org/2000/svg">
<g clip-path="url(#clip0_2_261)">
<path d="M5.66667 0H26.3333C29.4667 0 32 2.53333 32 5.66667V25.5333C32 28.6667 29.4667 31.2 26.3333 31.2H5.66667C2.53333 31.2 0 28.6667 0 25.5333V5.66667C0 2.53333 2.53333 0 5.66667 0Z" fill="#001E36"/>
<path d="M9.75995 20.2533V10.5467C9.75995 10.48 9.78662 10.44 9.85328 10.44C10.0133 10.44 10.1599 10.44 10.3866 10.4267C10.6133 10.4267 10.8533 10.4133 11.1066 10.4133C11.3599 10.4133 11.6399 10.4 11.9333 10.4C12.2266 10.4 12.5066 10.3867 12.7866 10.3867C13.4533 10.3733 14.1066 10.4667 14.7333 10.68C15.2133 10.84 15.6399 11.1067 15.9999 11.4533C16.3066 11.76 16.5466 12.12 16.6933 12.52C16.8399 12.9067 16.9066 13.32 16.9066 13.7467C16.9066 14.56 16.7199 15.2267 16.3466 15.76C15.9733 16.2933 15.4399 16.6933 14.8266 16.9067C14.1466 17.1333 13.4266 17.2533 12.6933 17.2267C12.4666 17.2267 12.3066 17.2267 12.2266 17.2133C12.1333 17.2133 11.9999 17.2 11.8133 17.2V20.2267C11.8266 20.2933 11.7733 20.36 11.7066 20.36C11.6933 20.36 11.6799 20.36 11.6666 20.36H9.86662C9.79995 20.3867 9.75995 20.3467 9.75995 20.2533ZM11.8133 12.2667V15.44C11.9466 15.4533 12.0666 15.4533 12.1733 15.4533H12.6799C13.0533 15.4533 13.4133 15.4 13.7733 15.28C14.0799 15.1867 14.3466 15.0133 14.5466 14.7733C14.7466 14.5467 14.8399 14.2133 14.8399 13.8C14.8533 13.5067 14.7733 13.2133 14.6133 12.96C14.4533 12.72 14.2266 12.5333 13.9466 12.4267C13.5866 12.2933 13.2133 12.2267 12.8399 12.24C12.5999 12.24 12.3866 12.24 12.1999 12.2533C12.0133 12.24 11.8933 12.2533 11.8133 12.2667Z" fill="#31A8FF"/>
<path d="M22.7866 14.8534C22.5066 14.7067 22.1999 14.6 21.8799 14.5334C21.5333 14.4534 21.1733 14.4134 20.8266 14.4134C20.6399 14.4134 20.4399 14.4267 20.2533 14.48C20.1333 14.5067 20.0266 14.5734 19.9599 14.6667C19.9066 14.7467 19.8799 14.84 19.8799 14.92C19.8799 15.0134 19.9199 15.0934 19.9733 15.16C20.0666 15.2667 20.1733 15.3467 20.2933 15.4134C20.5066 15.5334 20.7333 15.64 20.9599 15.72C21.4666 15.8934 21.9599 16.12 22.4133 16.4134C22.7199 16.6134 22.9733 16.88 23.1599 17.2C23.3066 17.5067 23.3866 17.84 23.3866 18.1734C23.3999 18.6134 23.2666 19.0534 23.0266 19.4267C22.7599 19.8 22.3999 20.0934 21.9733 20.2667C21.4266 20.48 20.8533 20.5867 20.2666 20.5734C19.8399 20.5734 19.3999 20.5334 18.9866 20.4534C18.6533 20.3867 18.3333 20.2934 18.0266 20.1467C17.9599 20.1067 17.9199 20.04 17.9199 19.96V18.32C17.9199 18.2934 17.9333 18.2534 17.9599 18.24C17.9866 18.2267 18.0266 18.2267 18.0399 18.2534C18.3999 18.4667 18.7999 18.6267 19.2133 18.72C19.5733 18.8134 19.9466 18.8534 20.3199 18.8667C20.5866 18.88 20.8533 18.84 21.1066 18.7334C21.2666 18.6667 21.3599 18.5067 21.3599 18.3334C21.3466 18.1734 21.2666 18.04 21.1333 17.9467C20.8399 17.76 20.5333 17.6134 20.1999 17.5067C19.7199 17.3467 19.2666 17.1067 18.8533 16.8267C18.5599 16.6134 18.3066 16.3467 18.1333 16.0267C17.9866 15.7334 17.9066 15.4 17.9066 15.0667C17.9066 14.6667 18.0133 14.2667 18.2266 13.92C18.4666 13.5467 18.8133 13.24 19.2133 13.0534C19.7333 12.8134 20.3066 12.6934 20.8799 12.72C21.2666 12.72 21.6666 12.7467 22.0533 12.8C22.3333 12.84 22.6133 12.9067 22.8666 13.0267C22.9066 13.04 22.9466 13.0667 22.9599 13.1067C22.9733 13.1467 22.9733 13.1867 22.9733 13.2267V14.76C22.9733 14.8 22.9599 14.8267 22.9333 14.8534C22.8799 14.88 22.8266 14.88 22.7866 14.8534Z" fill="#31A8FF"/>
<g opacity="0.6">
<path opacity="0.6" d="M16 28.5067C15.48 28.5067 14.9866 28.3067 14.6266 27.9333L3.66665 16.9733C2.90665 16.2133 2.90665 14.9867 3.66665 14.2267L14.6266 3.26666C15.3866 2.50666 16.6133 2.50666 17.3733 3.26666L28.3333 14.2267C29.0933 14.9867 29.0933 16.2133 28.3333 16.9733L17.3733 27.9333C17.0133 28.2933 16.52 28.5067 16 28.5067ZM15 27.56C15.5466 28.1067 16.44 28.1067 16.9867 27.56L27.9466 16.6C28.4933 16.0533 28.4933 15.16 27.9466 14.6133L16.9867 3.65332C16.44 3.10666 15.5466 3.10666 15 3.65332L4.03998 14.6133C3.49332 15.16 3.49332 16.0533 4.03998 16.6L15 27.56Z" fill="#31A8FF"/>
</g>
</g>
<defs>
<clipPath id="clip0_2_261">
<rect width="32" height="31.2" fill="white"/>
</clipPath>
</defs>
</svg>
