<svg width="32" height="32" viewBox="0 0 32 32" fill="none" xmlns="http://www.w3.org/2000/svg">
<g clip-path="url(#clip0_2_100)">
<path d="M32 0H0V31.2H32V0Z" fill="#061E26"/>
<path fill-rule="evenodd" clip-rule="evenodd" d="M14.5625 18.2375L16.1375 21.15C17.3625 20.7375 18.375 19.7875 18.85 18.5875L18.9875 18.2375H14.5625ZM14.775 15.275L13.3125 12.6125C12.1 13.025 11.1125 14.0625 10.6375 15.25L10.675 15.275H14.775ZM13.3125 17.5375L11.825 20.1375C12.6 20.8125 13.5875 21.275 14.6875 21.275C14.9125 21.275 15.2125 21.2375 15.425 21.2125L15.45 21.175L13.3125 17.5375ZM16.125 16.1125L17.6125 13.5375C16.8375 12.8625 15.825 12.45 14.725 12.45C14.5 12.45 14.3 12.475 14.0875 12.5L14.0625 12.55L16.125 16.1125ZM13.4 15.9875H10.4C10.35 16.2625 10.3125 16.525 10.3125 16.825C10.3125 17.85 10.675 18.8 11.2625 19.55L11.325 19.5875L13.4 15.9875ZM16 17.55H19.0375C19.0875 17.275 19.1 17.075 19.1 16.775C19.1 15.7375 18.7375 14.8375 18.1375 14.1L18.075 14.05L16 17.55Z" fill="#26C9FF"/>
<path fill-rule="evenodd" clip-rule="evenodd" d="M12.175 6.35C11.8125 6.35 11.4625 6.5375 11.3 6.8375L4.03749 19.075C3.89999 19.3 3.87499 19.55 3.94999 19.8C4.01249 20.05 4.17499 20.25 4.39999 20.3875L16.85 27.3375C17 27.4125 17.175 27.4625 17.325 27.4625C17.6875 27.4625 18.0125 27.275 18.2 26.975L25.4625 14.7375C25.6 14.5125 25.6375 14.2625 25.575 14C25.5125 13.75 25.35 13.55 25.125 13.4125L12.6625 6.475C12.5125 6.3875 12.35 6.35 12.175 6.35ZM17.325 27.9875C17.0625 27.9875 16.8 27.925 16.575 27.8L4.12499 20.85C3.76249 20.65 3.52499 20.325 3.41249 19.9375C3.29999 19.55 3.36249 19.15 3.57499 18.8L10.8375 6.5625C11.1125 6.1 11.625 5.8125 12.175 5.8125C12.4375 5.8125 12.7 5.875 12.925 6L25.375 12.95C25.7375 13.15 25.975 13.475 26.0875 13.8625C26.2 14.25 26.1375 14.65 25.925 15L18.675 27.2375C18.3875 27.6875 17.8625 27.9875 17.325 27.9875Z" fill="#D9F5FF"/>
</g>
<defs>
<clipPath id="clip0_2_100">
<rect width="32" height="31.2" fill="white"/>
</clipPath>
</defs>
</svg>
