<svg width="32" height="32" viewBox="0 0 32 32" fill="none" xmlns="http://www.w3.org/2000/svg">
<g clip-path="url(#clip0_2_287)">
<path d="M26.3333 0H5.66667C2.53705 0 0 2.53705 0 5.66667V25.5333C0 28.6629 2.53705 31.2 5.66667 31.2H26.3333C29.4629 31.2 32 28.6629 32 25.5333V5.66667C32 2.53705 29.4629 0 26.3333 0Z" fill="#001E36"/>
<path d="M11.1684 9.5124C10.7231 9.02755 10.1711 8.65293 9.55611 8.41817C8.88669 8.14662 8.06279 8.01074 7.08442 8.01056C6.72388 8.01056 6.36022 8.01414 5.99343 8.02131C5.62655 8.02862 5.27897 8.03574 4.95069 8.04268C4.62241 8.04998 4.31664 8.05715 4.03339 8.06418C3.75012 8.07149 3.52503 8.04019 3.31932 8.04019C3.24217 8.04019 3.20343 8.09064 3.20343 8.19044V21.845C3.20343 21.9595 3.24836 22.0504 3.33866 22.0504L5.67473 22.0511C5.79059 22.0511 5.84856 21.9868 5.84862 21.8581V17.687C6.08041 17.687 6.25419 17.6906 6.36996 17.6977C6.48582 17.705 6.68535 17.7086 6.96856 17.7083C7.89418 17.7208 8.81308 17.5495 9.672 17.2042C10.4693 16.8797 11.1446 16.3131 11.6029 15.5844C12.079 14.8409 12.3172 13.8968 12.3175 12.7522C12.3196 12.1658 12.2283 11.5827 12.047 11.025C11.8616 10.4656 11.5624 9.95061 11.1684 9.5124ZM9.31471 14.1897C9.06422 14.5185 8.7213 14.765 8.32986 14.8978C7.88519 15.0471 7.41835 15.1197 6.94933 15.1124H6.312C6.17022 15.1124 6.01576 15.1052 5.84862 15.0909V10.6495C6.01206 10.6302 6.17639 10.6195 6.34094 10.6174C6.57914 10.6103 6.85273 10.6068 7.16172 10.6066C7.64567 10.5903 8.12718 10.6819 8.5713 10.8749C8.92382 11.035 9.21748 11.3013 9.4112 11.6365C9.60598 11.9986 9.70256 12.4055 9.69133 12.8166C9.69134 13.4033 9.56579 13.8609 9.31471 14.1897Z" fill="#31A8FF"/>
<path d="M18.5446 16.4534C17.9746 16.0497 17.3547 15.7215 16.7004 15.4772C16.4084 15.3482 16.1246 15.2013 15.8507 15.0372C15.6931 14.9477 15.5552 14.8273 15.4453 14.6832C15.3727 14.5832 15.3323 14.4635 15.3294 14.34C15.3291 14.212 15.3624 14.0863 15.4259 13.9752C15.5144 13.8427 15.6484 13.7473 15.8026 13.707C16.0371 13.6359 16.2816 13.6033 16.5266 13.6105C16.9793 13.6125 17.43 13.6701 17.8687 13.7821C18.2604 13.8749 18.6356 14.0269 18.9815 14.2327C19.0012 14.2468 19.0249 14.2544 19.0491 14.2544C19.0733 14.2544 19.097 14.2468 19.1167 14.2327C19.1362 14.2177 19.1517 14.1981 19.1618 14.1756C19.1719 14.1532 19.1764 14.1286 19.1747 14.104V11.937C19.1749 11.8828 19.1684 11.8287 19.1553 11.776C19.1465 11.7487 19.1314 11.7239 19.1113 11.7034C19.0912 11.6829 19.0666 11.6674 19.0394 11.658C18.7362 11.5015 18.4091 11.3963 18.0714 11.3469C17.5802 11.264 17.0827 11.2245 16.5846 11.2289C15.7349 11.2289 15.0269 11.3862 14.4604 11.7009C13.9322 11.9781 13.4961 12.403 13.2053 12.9239C12.9367 13.4176 12.7972 13.9711 12.7997 14.5331C12.7931 15.0021 12.8887 15.467 13.0798 15.8954C13.292 16.3355 13.6025 16.7209 13.9873 17.0219C14.5078 17.4239 15.0834 17.749 15.6964 17.9874C16.2882 18.2308 16.6809 18.4382 16.8742 18.6096C16.9583 18.6728 17.0278 18.7535 17.0778 18.8461C17.1278 18.9386 17.1572 19.041 17.1639 19.146C17.1673 19.2593 17.1393 19.3714 17.0831 19.4698C17.0268 19.5682 16.9445 19.6492 16.8452 19.7039C16.6328 19.8326 16.3013 19.897 15.8507 19.897C15.374 19.8898 14.9002 19.8213 14.4411 19.6931C13.9271 19.564 13.4392 19.347 12.9991 19.0518C12.9782 19.0416 12.9549 19.0375 12.9318 19.0399C12.9086 19.0423 12.8867 19.0512 12.8684 19.0656C12.851 19.0795 12.8375 19.0977 12.8291 19.1183C12.8207 19.139 12.8176 19.1614 12.8203 19.1835V21.5008C12.8226 21.5506 12.8388 21.5988 12.867 21.6399C12.8951 21.6811 12.9343 21.7136 12.9799 21.7337C13.3523 21.927 13.7499 22.067 14.1612 22.1498C14.6966 22.2699 15.2442 22.3275 15.7929 22.3214C16.6551 22.3214 17.3792 22.1784 17.9652 21.8923C18.5191 21.6347 18.9856 21.2208 19.3073 20.7016C19.6237 20.1662 19.7842 19.5531 19.7708 18.9314C19.7794 18.4586 19.6838 17.9898 19.4907 17.5583C19.2705 17.1181 18.9456 16.7387 18.5446 16.4534Z" fill="#31A8FF"/>
<path d="M28.6333 9.41353C28.348 9.2983 28.0486 9.22182 27.7429 9.18612C27.292 9.12937 26.8378 9.10325 26.3834 9.10796C25.0756 9.10796 23.9316 9.38827 22.9832 9.94111C22.038 10.4905 21.2715 11.3012 20.7759 12.2758C20.2619 13.2688 20.0012 14.436 20.0012 15.7451C19.9911 16.536 20.0917 17.3244 20.3001 18.0874C20.4806 18.7373 20.7668 19.3531 21.1471 19.9102C21.5033 20.4243 21.9458 20.8727 22.4552 21.2357C22.9677 21.5982 23.5384 21.8705 24.1427 22.0408C24.7757 22.2187 25.4303 22.3076 26.0878 22.305C26.5482 22.3068 27.0081 22.2775 27.4645 22.2172C27.8324 22.174 28.1933 22.0844 28.5386 21.9504C28.6047 21.9199 28.6592 21.869 28.6943 21.8052C28.7294 21.7414 28.7432 21.6681 28.7336 21.596V19.607C28.7376 19.5715 28.7336 19.5354 28.7219 19.5016C28.7102 19.4677 28.6911 19.4369 28.666 19.4114C28.6326 19.3838 28.5619 19.3508 28.458 19.4305C28.1587 19.5427 27.8467 19.617 27.529 19.6518C27.1427 19.6924 26.7544 19.7115 26.366 19.7091C26.0129 19.7071 25.6615 19.6595 25.3206 19.5674C24.9655 19.4735 24.6253 19.3306 24.3097 19.1427C23.9818 18.9432 23.6956 18.6821 23.4667 18.374C23.2075 18.0266 23.0096 17.6375 22.8814 17.2234C22.7307 16.7189 22.6589 16.1942 22.6684 15.6678C22.6505 14.9326 22.8019 14.2031 23.1107 13.5357C23.3878 12.9597 23.8221 12.4738 24.3635 12.134C24.9526 11.7839 25.6289 11.6079 26.3139 11.6266C26.7337 11.6246 27.1528 11.6596 27.5664 11.7314C27.9008 11.7853 28.2242 11.8934 28.5238 12.0514C28.5496 12.0668 28.579 12.075 28.609 12.0753C28.639 12.0755 28.6685 12.0677 28.6945 12.0526C28.7233 12.0285 28.7457 11.9978 28.7599 11.9631C28.774 11.9283 28.7794 11.8907 28.7757 11.8534V9.72913C28.7822 9.66861 28.7724 9.60745 28.7474 9.55197C28.7224 9.49649 28.683 9.4487 28.6333 9.41353Z" fill="#31A8FF"/>
</g>
<defs>
<clipPath id="clip0_2_287">
<rect width="32" height="31.2" fill="white"/>
</clipPath>
</defs>
</svg>
