<svg xmlns="http://www.w3.org/2000/svg" fill="none" viewBox="0 0 105 105">
  <defs>
    <linearGradient id="a" x1="22.6999" x2="49.8075" y1="60.3539" y2="8.29501" gradientUnits="userSpaceOnUse">
      <stop stop-color="#AF1DF5"/>
      <stop offset=".2116" stop-color="#BC20E4"/>
      <stop offset=".62822" stop-color="#DD29B8"/>
      <stop offset="1" stop-color="#FF318C"/>
    </linearGradient>
    <linearGradient id="b" x1="14.9194" x2="47.7774" y1="76.2786" y2="32.8766" gradientUnits="userSpaceOnUse">
      <stop offset=".01613" stop-color="#6B57FF"/>
      <stop offset=".42357" stop-color="#B74AF7"/>
      <stop offset=".74587" stop-color="#FF318C"/>
    </linearGradient>
    <linearGradient id="c" x1="89.2615" x2="71.054" y1="64.5639" y2="21.3514" gradientUnits="userSpaceOnUse">
      <stop stop-color="#293896"/>
      <stop offset=".07538" stop-color="#3B3AA2"/>
      <stop offset=".2871" stop-color="#6740C0"/>
      <stop offset=".49127" stop-color="#8A44D8"/>
      <stop offset=".68315" stop-color="#A347E9"/>
      <stop offset=".85788" stop-color="#B249F3"/>
      <stop offset="1" stop-color="#B74AF7"/>
    </linearGradient>
    <linearGradient id="d" x1="74.3402" x2="44.0706" y1="90.0655" y2="45.6976" gradientUnits="userSpaceOnUse">
      <stop offset=".01613" stop-color="#6B57FF"/>
      <stop offset=".78291" stop-color="#B74AF7"/>
    </linearGradient>
    <linearGradient id="e" x1="65.1658" x2="55.1373" y1="66.2504" y2="13.2147" gradientUnits="userSpaceOnUse">
      <stop offset=".01613" stop-color="#6B57FF"/>
      <stop offset=".63699" stop-color="#B74AF7"/>
    </linearGradient>
    <linearGradient id="f" x1="15.9224" x2="31.5438" y1="43.2243" y2="14.8744" gradientUnits="userSpaceOnUse">
      <stop stop-color="#AF1DF5"/>
      <stop offset=".2116" stop-color="#BC20E4"/>
      <stop offset=".62822" stop-color="#DD29B8"/>
      <stop offset="1" stop-color="#FF318C"/>
    </linearGradient>
  </defs>
  <path fill="url(#a)" d="m57.9928 21.8765-3.2018-9.6773-14.8597 7.1828-19.671 1.7355 2.7 33.75 27.8985-4.6688 7.134-28.3222Z"/>
  <path fill="url(#b)" d="M31.4795 30.491 5 23.5325l9.1515 54.9577 49.3087-.48L31.4795 30.491Z"/>
  <path fill="url(#c)" d="m67.8957 53.903-11.379-19.4783 12.3435-11.1855 19.647-8.0407L101 46.2447 83.0082 64.1142 67.8957 53.903Z"/>
  <path fill="url(#d)" d="m83.0165 45.8315-6.2497-12.7568-49.0073 9.8468 5.034 46.7947L65.147 101 101 79.5395l-17.9835-33.708Z"/>
  <path fill="url(#e)" d="m57.674 48.1175-29.9145-5.196L64.274 10.6992l24.2333 4.4993L73.4885 30.182l3.471 3.0855-19.2855 14.85Z"/>
  <path fill="url(#f)" d="M54.791 12.1992 21.3762 5 5 23.5325l26.5267 7.0522L54.791 12.1992Z"/>
  <path fill="#000" d="M83 23H23v60h60V23Z"/>
  <path fill="#fff" d="M53 71.75H30.5v3.75H53v-3.75Zm-2.8562-21.7299 2.9351-3.513c2.0295 1.6744 4.1596 2.7394 6.7347 2.7394 2.0347 0 3.2585-.8054 3.2584-2.1301v-.0636c-.0001-1.2558-.7737-1.9022-4.5464-2.8666-4.5462-1.1604-7.4818-2.4214-7.4821-6.8988v-.0689c-.0003-4.0905 3.2899-6.8035 7.8997-6.8035 3.0435-.049 6.0086.9668 8.3826 2.8719l-2.5801 3.7409c-1.9976-1.3883-3.9635-2.2255-5.8657-2.2255-1.9023 0-2.9036.869-2.9035 1.9658v.0636c.0001 1.4836.9698 1.9711 4.8696 2.9672 4.578 1.1922 7.1586 2.8401 7.1589 6.7717v.0636c.0003 4.4827-3.417 6.9943-8.2865 6.9943-3.5263.0131-6.9342-1.2712-9.5747-3.6084m-19.576-19.2623h9.1816c5.3598 0 8.6022 3.1782 8.6022 7.7678v.0642c0 5.2001-4.0448 7.8969-9.0845 7.8969h-3.7559v6.7407h-4.9434V30.7578Zm8.8598 11.3311c2.4721 0 3.9164-1.4763 3.9164-3.4028v-.0642c0-2.2146-1.5405-3.402-4.0127-3.402h-3.8201v6.869h3.9164Z"/>
</svg>