<svg width="256" height="256" viewBox="0 0 256 256" fill="none" xmlns="http://www.w3.org/2000/svg">
<rect x="32.4751" y="43.2164" width="188.648" height="170.392" fill="white"/>
<path d="M168.443 99.2735C169.215 99.0416 169.991 99.6271 169.991 100.442L169.991 139.053C169.991 139.594 169.639 140.069 169.127 140.223L129.708 152.004C128.591 152.338 127.402 152.337 126.286 152.002L87.0486 140.223C86.5371 140.07 86.1863 139.594 86.1863 139.055V100.442C86.1863 99.6271 86.9619 99.0416 87.7345 99.2736L120.825 109.207C125.558 110.628 130.619 110.628 135.352 109.207L168.443 99.2735Z" fill="#2266F7"/>
<path fill-rule="evenodd" clip-rule="evenodd" d="M143.656 2.10414C133.457 -0.701382 122.72 -0.701379 112.521 2.10414L32.8226 24.0265C14.3702 29.1022 1.53589 46.2984 1.53589 65.9464V190.054C1.53589 209.702 14.3702 226.898 32.8226 231.973L112.521 253.896C122.72 256.701 133.457 256.701 143.656 253.896L223.355 231.973C241.807 226.898 254.641 209.702 254.641 190.054V65.9463C254.641 46.2984 241.807 29.1022 223.355 24.0265L143.656 2.10414ZM87.7345 165.322C86.9619 165.09 86.1863 165.676 86.1863 166.491V193.171C86.1863 195.773 83.7489 197.668 81.2629 197L64.7099 192.549C62.9937 192.088 61.7991 190.517 61.7991 188.72V88.0708C61.7991 77.3989 72.3837 69.7721 82.8385 72.9106L126.285 85.9529C127.402 86.2881 128.591 86.2888 129.708 85.9548L173.339 72.9106C183.793 69.7721 194.378 77.399 194.378 88.0708L194.378 145.822C194.378 152.785 189.723 158.934 182.901 160.982L135.352 175.256C130.619 176.677 125.558 176.677 120.825 175.256L87.7345 165.322Z" fill="#2266F7"/>
</svg>
