<svg width="2786" height="666" viewBox="0 0 2786 666" fill="none" xmlns="http://www.w3.org/2000/svg">
<path d="M679.842 169.232L635.861 67.961C627.891 49.6307 609.85 37.7906 589.889 37.7906C582.999 37.7906 576.279 39.1905 569.929 41.9506L525.257 61.4008C495.556 40.2605 462.225 23.8802 426.394 13.3801C429.224 17.8302 430.864 23.0903 430.864 28.7504C430.864 44.6407 418.004 57.5009 402.133 57.5009C386.263 57.5009 373.412 44.6307 373.412 28.7504C373.412 18.4803 378.793 9.47005 386.893 4.39997C369.262 1.49992 351.161 0 332.711 0C196.976 0 80.2226 81.3612 28.4809 198.013C31.241 196.993 34.2312 196.453 37.3413 196.453C51.6118 196.453 63.182 208.043 63.182 222.333C63.182 236.623 51.6118 248.204 37.3413 248.204C27.591 248.204 19.1006 242.803 14.7004 234.813C5.14012 265.854 0 298.835 0 333.015C0 356.435 2.4301 379.296 7.02025 401.366C72.1524 349.465 144.015 309.084 223.437 281.544L230.988 298.914L234.418 306.814L241.808 323.845C162.695 369.706 96.4831 427.136 41.9513 494.997C58.9619 525.538 80.6426 553.108 106.013 576.749L104.683 573.718C87.5728 534.808 101.063 489.247 136.565 465.967C160.075 450.556 189.526 447.487 215.647 457.637L225.267 461.377L228.997 451.757C239.148 425.606 261.309 405.956 288.529 399.006C329.671 388.516 372.352 409.316 389.473 448.236L390.883 451.457C401.043 474.557 401.203 500.877 391.233 524.088L332.031 662.31C331.471 663.59 330.811 664.84 330.041 666C330.921 666 331.821 666 332.691 666C516.447 666 665.402 516.908 665.402 332.995C665.402 299.395 660.441 266.944 651.181 236.373L653.831 235.233C666.112 229.883 675.582 220.073 680.492 207.613C685.392 195.153 685.152 181.512 679.812 169.232H679.842ZM84.7428 196.443C77.6025 196.443 71.8124 190.653 71.8124 183.503C71.8124 176.352 77.6025 170.573 84.7428 170.573C91.883 170.573 97.6731 176.362 97.6731 183.503C97.6731 190.643 91.883 196.443 84.7428 196.443ZM449.735 189.973L507.307 164.932L512.297 176.433L516.327 185.692L521.307 197.183L463.735 222.233L385.963 256.084L371.962 223.833L449.735 189.983V189.973ZM310.37 349.165C308.14 350.135 305.75 350.625 303.36 350.625C301.18 350.625 299 350.215 296.93 349.405C292.589 347.685 289.119 344.325 287.259 340.055L272.809 306.794L257.148 270.744L243.268 238.793C239.408 229.873 243.478 219.523 252.368 215.653L377.672 161.133L391.683 193.383L282.479 240.904L312.47 309.915L421.654 262.394L435.664 294.644L310.37 349.165ZM411.223 582.639C404.083 582.639 398.293 576.848 398.293 569.698C398.293 562.548 404.083 556.758 411.223 556.758C418.364 556.758 424.154 562.548 424.154 569.698C424.154 576.848 418.364 582.639 411.223 582.639ZM532.017 403.346C465.005 435.347 417.194 391.016 417.194 391.016C512.257 380.106 572.779 351.795 594.309 306.015C594.309 306.015 599.03 371.356 532.017 403.346ZM650.211 195.673C648.511 200.003 645.151 203.493 640.881 205.353L640.201 205.633L515.567 259.864L501.566 227.614L610.76 180.103L580.789 111.102H580.769L471.585 158.602L457.585 126.352L554.048 84.3811L582.889 71.8309C585.169 70.8409 587.539 70.3809 589.879 70.3809C596.66 70.3809 603.12 74.3211 606 80.9512L649.981 182.212C651.841 186.493 651.931 191.333 650.211 195.673Z" fill="white"/>
<path d="M532.027 403.336C465.015 435.337 417.203 391.006 417.203 391.006C512.266 380.096 572.788 351.786 594.319 306.005C594.319 306.005 599.039 371.346 532.027 403.336Z" fill="#454545"/>
<path d="M650.221 195.663C648.521 199.993 645.16 203.483 640.89 205.343L640.211 205.623L515.576 259.854L501.576 227.603L610.77 180.093L580.798 111.091H580.788L471.605 158.602L457.604 126.352L554.068 84.3811L582.908 71.8308C585.188 70.8408 587.559 70.3809 589.899 70.3809C596.679 70.3809 603.139 74.321 606.019 80.9511L650.001 182.212C651.861 186.492 651.951 191.333 650.231 195.673L650.221 195.663Z" fill="#454545"/>
<path d="M521.308 197.163L463.736 222.224L385.963 256.074L371.963 223.824L449.735 189.973L507.297 164.933L512.298 176.423L516.318 185.683L521.308 197.163Z" fill="#454545"/>
<path d="M435.674 294.634L310.38 349.155C308.15 350.125 305.76 350.615 303.37 350.615C301.19 350.615 299.01 350.205 296.94 349.395C292.599 347.675 289.129 344.315 287.269 340.045L272.819 306.784L257.158 270.734L243.278 238.783C239.418 229.863 243.488 219.513 252.378 215.643L377.682 161.122L391.693 193.373L282.489 240.893L312.48 309.905L421.664 262.384L435.674 294.634Z" fill="#454545"/>
<path d="M37.3513 196.433C34.2412 196.433 31.251 196.983 28.4909 197.993C23.2008 209.903 18.6006 222.193 14.7104 234.793C19.1106 242.773 27.611 248.184 37.3513 248.184C51.6218 248.184 63.192 236.593 63.192 222.313C63.192 208.033 51.6218 196.433 37.3513 196.433ZM84.7428 170.562C77.6025 170.562 71.8124 176.353 71.8124 183.493C71.8124 190.633 77.6025 196.433 84.7428 196.433C91.883 196.433 97.6731 190.643 97.6731 183.493C97.6731 176.343 91.883 170.562 84.7428 170.562ZM390.903 451.446L389.493 448.227C372.372 409.306 329.691 388.506 288.549 398.996C261.319 405.946 239.168 425.596 229.018 451.747L225.287 461.367L215.667 457.627C189.546 447.477 160.085 450.547 136.585 465.957C101.083 489.237 87.5928 534.808 104.703 573.708L106.034 576.738C164.845 631.569 243.538 665.31 330.071 665.99C330.841 664.83 331.501 663.58 332.061 662.3L391.263 524.078C401.233 500.868 401.073 474.547 390.913 451.446H390.903ZM411.233 556.748C404.093 556.748 398.303 562.538 398.303 569.688C398.303 576.839 404.093 582.629 411.233 582.629C418.374 582.629 424.164 576.839 424.164 569.688C424.164 562.538 418.374 556.748 411.233 556.748ZM426.394 13.36C413.534 9.59994 400.353 6.56992 386.893 4.37988C378.793 9.44996 373.412 18.4502 373.412 28.7303C373.412 44.6206 386.273 57.4808 402.133 57.4808C417.994 57.4808 430.864 44.6106 430.864 28.7303C430.864 23.0803 429.234 17.8101 426.404 13.36H426.394Z" fill="#A8A8A8"/>
<path d="M241.817 323.845C162.705 369.706 96.4926 427.136 41.9609 494.997C25.8803 466.157 13.97 434.666 7.02979 401.356C72.1619 349.455 144.024 309.085 223.447 281.534L230.997 298.905L241.817 323.835V323.845Z" fill="#454545"/>
<path d="M2678.02 334.455C2678.02 338.145 2681.82 341.206 2689.41 343.636C2697.01 346.066 2705.85 348.896 2715.93 352.116C2726.01 355.346 2736.51 358.696 2747.42 362.186C2758.33 365.676 2767.49 372.606 2774.89 382.986C2782.3 393.366 2786 406.417 2786 422.137C2786 447.007 2776.65 465.367 2757.97 477.217C2739.28 489.067 2717.09 494.998 2691.42 494.998C2642.63 494.998 2610.11 477.798 2593.85 443.387L2657.01 411.727C2662.52 427.637 2673.85 435.577 2690.99 435.577C2704.06 435.577 2710.59 431.717 2710.59 424.007C2710.59 420.006 2706.88 416.737 2699.47 414.207C2692.05 411.677 2683.33 408.707 2673.31 405.287C2663.29 401.866 2652.92 398.326 2642.21 394.666C2631.5 391.006 2622.51 384.336 2615.26 374.646C2608 364.966 2604.37 353.036 2604.37 338.866C2604.37 315.735 2612.98 297.815 2630.2 285.085C2647.42 272.364 2668.15 266.004 2692.39 266.004C2735.36 266.004 2765.27 282.774 2782.12 316.315L2721.14 343.636C2714.75 331.205 2705.74 324.985 2694.13 324.985C2683.38 324.985 2678.01 328.145 2678.01 334.455H2678.02Z" fill="white"/>
<path d="M982.59 184.893C1013.39 184.893 1039.27 194.873 1060.19 214.843C1081.12 234.814 1091.58 260.284 1091.58 291.245C1091.58 322.205 1081.12 347.675 1060.19 367.646C1039.26 387.616 1013.39 397.596 982.59 397.596H942.04V488.757H864V184.883H982.59V184.893ZM982.59 323.805C991.31 323.805 998.65 320.765 1004.61 314.685C1010.56 308.605 1013.55 300.795 1013.55 291.245C1013.55 281.694 1010.57 273.954 1004.61 268.024C998.65 262.094 991.31 259.124 982.59 259.124H942.04V323.805H982.59Z" fill="white"/>
<path d="M1119.05 488.767V171.863H1191.42V488.767H1119.05Z" fill="white"/>
<path d="M1371.48 271.714H1443.85V488.768H1371.48V467.057C1358.4 485.578 1338.2 494.838 1310.88 494.838C1287.34 494.838 1268.08 486.808 1253.11 470.747C1238.14 454.687 1230.66 431.607 1230.66 401.506V271.704H1303.03V392.386C1303.03 403.676 1306.01 412.216 1311.97 417.997C1317.92 423.787 1325.85 426.677 1335.73 426.677C1347.07 426.677 1355.85 423.277 1362.11 416.477C1368.36 409.676 1371.48 399.916 1371.48 387.176V271.704V271.714Z" fill="white"/>
<path d="M1620.86 340.735H1575.52V403.686C1575.52 413.236 1579.01 419.176 1585.98 421.486C1592.96 423.806 1604.58 424.526 1620.86 423.656V488.777C1577.55 493.987 1547.1 490.007 1529.52 476.837C1511.93 463.667 1503.14 439.867 1503.14 405.426V340.745H1470.44V271.724H1503.14V232.653L1575.51 210.943V271.714H1620.85V340.735H1620.86Z" fill="white"/>
<path d="M1756.45 494.847C1724.19 494.847 1696.72 483.777 1674.05 461.636C1651.38 439.496 1640.04 412.365 1640.04 380.235C1640.04 348.104 1651.38 320.974 1674.05 298.834C1696.72 276.693 1724.19 265.623 1756.45 265.623C1788.71 265.623 1816.54 276.693 1839.07 298.834C1861.59 320.974 1872.86 348.104 1872.86 380.235C1872.86 412.365 1861.59 439.496 1839.07 461.636C1816.54 483.777 1789 494.847 1756.45 494.847ZM1756.45 425.386C1769.24 425.386 1779.77 421.196 1788.06 412.795C1796.34 404.405 1800.49 393.555 1800.49 380.235C1800.49 366.915 1796.35 356.075 1788.06 347.675C1779.78 339.285 1769.24 335.084 1756.45 335.084C1743.66 335.084 1733.56 339.285 1725.28 347.675C1717 356.075 1712.85 366.925 1712.85 380.235C1712.85 393.545 1716.99 404.405 1725.28 412.795C1733.56 421.196 1743.95 425.386 1756.45 425.386Z" fill="white"/>
<path d="M1904.68 488.767V171.863H1977.05V488.767H1904.68Z" fill="white"/>
<path d="M2084.52 183.163C2076.24 175.052 2066.43 171.002 2055.1 171.002C2043.77 171.002 2033.95 175.052 2025.66 183.163C2017.39 191.263 2013.24 200.963 2013.24 212.233C2013.24 223.503 2017.39 233.293 2025.66 241.543C2033.95 249.783 2043.76 253.914 2055.1 253.914C2066.44 253.914 2076.24 249.783 2084.52 241.543C2092.81 233.283 2096.94 223.523 2096.94 212.233C2096.94 200.943 2092.81 191.253 2084.52 183.163Z" fill="white"/>
<path d="M2203.73 447.497V458.007L2203.71 457.997V488.768H2018.91V271.704H2091.28V417.166H2133.13V377.206L2203.73 447.497Z" fill="white"/>
<path d="M2323.88 289.734C2308.9 273.664 2289.66 265.634 2266.12 265.634C2238.79 265.634 2218.58 274.904 2205.51 293.424V271.714H2133.13V314.765L2205.51 386.826V373.295C2205.51 360.565 2208.63 350.795 2214.88 343.995C2221.13 337.205 2229.93 333.795 2241.26 333.795C2251.14 333.795 2259.06 336.695 2265.02 342.485C2270.98 348.275 2273.96 356.805 2273.96 368.096V488.777H2346.33V358.965C2346.33 328.875 2338.85 305.784 2323.88 289.734Z" fill="white"/>
<path d="M2600.94 488.768H2519.85L2457.94 396.306V488.768H2385.57V184.893H2457.94V362.445L2514.18 271.714H2597.89L2524.65 380.246L2600.95 488.777L2600.94 488.768Z" fill="white"/>
</svg>
