<svg width="2786" height="666" viewBox="0 0 2786 666" fill="none" xmlns="http://www.w3.org/2000/svg">
<path d="M426.389 13.3696C413.529 9.60963 400.349 6.57965 386.879 4.38965C378.789 9.45965 373.399 18.4597 373.399 28.7397C373.399 44.6297 386.259 57.4897 402.129 57.4897C417.999 57.4897 430.849 44.6197 430.849 28.7397C430.849 23.0897 429.229 17.8196 426.399 13.3696H426.389ZM411.219 556.75C404.089 556.75 398.299 562.539 398.299 569.689C398.299 576.839 404.089 582.63 411.219 582.63C418.349 582.63 424.149 576.839 424.149 569.689C424.149 562.539 418.359 556.75 411.219 556.75ZM390.889 451.45L389.479 448.229C372.359 409.31 329.679 388.51 288.539 399C261.309 405.95 239.159 425.6 229.019 451.75L225.279 461.37L215.659 457.63C189.549 447.48 160.079 450.549 136.589 465.959C101.09 489.239 87.5896 534.809 104.71 573.709L106.03 576.74C164.849 631.57 243.529 665.31 330.069 665.99C330.839 664.83 331.489 663.58 332.049 662.3L391.249 524.08C401.219 500.87 401.069 474.55 390.899 451.45H390.889ZM257.139 270.74C257.139 270.74 257.089 270.76 257.069 270.76L272.739 306.83C272.739 306.83 272.779 306.8 272.799 306.79L257.139 270.74ZM241.799 323.84C162.689 369.7 96.4896 427.129 41.9697 494.979C41.9697 494.979 41.9697 494.98 41.9697 495C96.4896 427.14 162.689 369.72 241.799 323.86V323.84ZM84.7296 170.57C77.5896 170.57 71.7996 176.36 71.7996 183.5C71.7996 190.64 77.5896 196.439 84.7296 196.439C91.8696 196.439 97.6595 190.65 97.6595 183.5C97.6595 176.35 91.8696 170.57 84.7296 170.57ZM37.3397 196.439C34.2297 196.439 31.2397 196.99 28.4897 198C23.1897 209.91 18.5897 222.2 14.6997 234.8C19.1097 242.78 27.5997 248.189 37.3397 248.189C51.6196 248.189 63.1896 236.6 63.1896 222.32C63.1896 208.04 51.6196 196.439 37.3397 196.439Z" fill="black"/>
<path d="M679.819 169.23L635.839 67.96C627.869 49.63 609.829 37.79 589.869 37.79C582.979 37.79 576.259 39.19 569.919 41.95L525.239 61.3999C495.549 40.2599 462.229 23.8799 426.389 13.3799C429.219 17.8299 430.839 23.09 430.839 28.75C430.839 44.64 417.979 57.5 402.119 57.5C386.259 57.5 373.389 44.63 373.389 28.75C373.389 18.48 378.779 9.4699 386.869 4.3999C369.239 1.4999 351.149 0 332.699 0C196.97 0 80.2198 81.36 28.4899 198.01C31.2399 196.99 34.2299 196.45 37.3399 196.45C51.6199 196.45 63.1899 208.04 63.1899 222.33C63.1899 236.62 51.6199 248.2 37.3399 248.2C27.5899 248.2 19.1 242.8 14.7 234.81C5.13999 265.85 0 298.83 0 333.01C0 356.43 2.42998 379.29 7.01998 401.36C72.1499 349.46 144.02 309.09 223.43 281.55L228.95 294.27L241.8 323.84C241.8 323.84 241.8 323.86 241.78 323.86V323.88C162.68 369.74 96.4798 427.16 41.9599 495.02C58.9699 525.55 80.6498 553.12 106.01 576.75L104.69 573.72C87.5698 534.81 101.07 489.25 136.57 465.97C160.07 450.56 189.53 447.49 215.64 457.64L225.26 461.38L229 451.76C239.14 425.61 261.3 405.96 288.52 399.01C329.659 388.52 372.339 409.32 389.459 448.24L390.869 451.46C401.039 474.56 401.189 500.88 391.219 524.09L332.019 662.31C331.459 663.59 330.809 664.84 330.039 666C330.919 666 331.809 666 332.689 666C516.429 666 665.389 516.91 665.389 333C665.389 299.4 660.429 266.95 651.179 236.38L653.829 235.24C666.119 229.89 675.579 220.08 680.489 207.62C685.389 195.16 685.159 181.52 679.809 169.24L679.819 169.23ZM84.7398 196.44C77.5999 196.44 71.8099 190.65 71.8099 183.5C71.8099 176.35 77.5999 170.57 84.7398 170.57C91.8798 170.57 97.6698 176.36 97.6698 183.5C97.6698 190.64 91.8798 196.44 84.7398 196.44ZM449.719 189.97L507.279 164.93L512.279 176.43L516.299 185.69L521.279 197.18L463.709 222.23L385.939 256.08L371.939 223.83L449.719 189.98V189.97ZM310.359 349.16C308.129 350.13 305.739 350.62 303.349 350.62C301.169 350.62 298.989 350.21 296.919 349.4C292.579 347.68 289.109 344.32 287.249 340.05L272.799 306.79C272.799 306.79 272.759 306.81 272.739 306.83L257.07 270.76C257.07 270.76 257.11 270.76 257.14 270.74L243.26 238.79C239.4 229.87 243.47 219.52 252.37 215.65L377.669 161.13L391.669 193.38L282.489 240.9L312.469 309.91L421.649 262.39L435.649 294.64L310.359 349.16ZM411.209 582.63C404.079 582.63 398.289 576.84 398.289 569.69C398.289 562.54 404.079 556.75 411.209 556.75C418.339 556.75 424.139 562.54 424.139 569.69C424.139 576.84 418.349 582.63 411.209 582.63ZM531.999 403.34C464.989 435.34 417.179 391.01 417.179 391.01C512.239 380.1 572.759 351.79 594.289 306.01C594.289 306.01 599.019 371.35 531.999 403.34ZM650.199 195.67C648.489 200 645.129 203.49 640.859 205.35L640.179 205.63L515.559 259.86L501.549 227.61L610.729 180.1L580.759 111.1H580.739L471.579 158.6L457.569 126.35L554.029 84.3799L582.869 71.8298C585.149 70.8398 587.519 70.3799 589.859 70.3799C596.649 70.3799 603.109 74.32 605.979 80.95L649.959 182.21C651.819 186.49 651.909 191.33 650.199 195.67Z" fill="black"/>
<path d="M531.999 403.33C464.99 435.33 417.18 391 417.18 391C512.24 380.09 572.759 351.78 594.289 306C594.289 306 599.019 371.34 531.999 403.33Z" fill="white"/>
<path d="M521.279 197.16L463.719 222.22L385.949 256.07L371.939 223.82L449.729 189.97L507.279 164.93L512.279 176.42L516.299 185.68L521.279 197.16Z" fill="white"/>
<path d="M435.659 294.63L310.369 349.15C308.139 350.12 305.749 350.61 303.359 350.61C301.179 350.61 298.999 350.2 296.929 349.39C292.589 347.67 289.119 344.31 287.259 340.04L272.809 306.78L257.149 270.73L243.269 238.78C239.409 229.86 243.479 219.51 252.379 215.64L377.679 161.12L391.679 193.37L282.499 240.89L312.479 309.9L421.659 262.38L435.659 294.63Z" fill="white"/>
<path d="M650.209 195.66C648.499 199.99 645.139 203.48 640.869 205.34L640.189 205.62L515.569 259.85L501.559 227.6L610.739 180.09L580.769 111.09L471.61 158.6L457.6 126.35L554.059 84.3799L582.899 71.8298C585.179 70.8398 587.549 70.3799 589.889 70.3799C596.679 70.3799 603.139 74.32 606.009 80.95L649.989 182.21C651.849 186.49 651.939 191.33 650.229 195.67L650.209 195.66Z" fill="white"/>
<path d="M228.97 294.25L223.44 281.53H223.45L228.97 294.25Z" fill="white"/>
<path d="M272.799 306.79C272.799 306.79 272.759 306.81 272.739 306.83L257.07 270.76C257.07 270.76 257.11 270.76 257.14 270.74L272.799 306.79Z" fill="white"/>
<path d="M391.239 524.07L332.039 662.29C331.479 663.57 330.829 664.82 330.059 665.98C243.519 665.3 164.84 631.56 106.02 576.73L104.7 573.7C87.5797 534.79 101.08 489.23 136.58 465.95C160.08 450.54 189.54 447.47 215.65 457.62L225.269 461.36L229.009 451.74C239.149 425.59 261.309 405.94 288.529 398.99C329.669 388.5 372.349 409.3 389.469 448.22L390.879 451.44C401.049 474.54 401.199 500.86 391.229 524.07H391.239Z" fill="#454545"/>
<path d="M63.1994 222.32C63.1994 236.6 51.6294 248.189 37.3494 248.189C27.5994 248.189 19.1095 242.79 14.7095 234.8C18.5995 222.2 23.1995 209.92 28.4995 198C31.2494 196.98 34.2394 196.439 37.3494 196.439C51.6294 196.439 63.1994 208.03 63.1994 222.32Z" fill="#454545"/>
<path d="M430.839 28.7397C430.839 44.6297 417.979 57.4897 402.119 57.4897C386.259 57.4897 373.389 44.6197 373.389 28.7397C373.389 18.4697 378.779 9.45965 386.869 4.38965C400.329 6.57965 413.519 9.60963 426.379 13.3696C429.209 17.8196 430.829 23.0797 430.829 28.7397H430.839Z" fill="#454545"/>
<path d="M424.139 569.69C424.139 576.84 418.349 582.63 411.209 582.63C404.069 582.63 398.29 576.84 398.29 569.69C398.29 562.54 404.079 556.75 411.209 556.75C418.339 556.75 424.139 562.54 424.139 569.69Z" fill="#454545"/>
<path d="M97.6694 183.5C97.6694 190.65 91.8796 196.44 84.7398 196.44C77.5999 196.44 71.8101 190.65 71.8101 183.5C71.8101 176.35 77.5999 170.57 84.7398 170.57C91.8796 170.57 97.6694 176.36 97.6694 183.5Z" fill="#454545"/>
<path d="M241.809 323.86C162.7 369.72 96.4996 427.14 41.9797 495C25.8998 466.17 13.9898 434.68 7.0498 401.37C72.1797 349.47 144.04 309.1 223.459 281.56L231.009 298.93L241.819 323.84V323.86H241.809Z" fill="white"/>
<path d="M2774.9 382.986C2767.5 372.606 2758.33 365.676 2747.42 362.186C2736.51 358.686 2726.01 355.346 2715.93 352.116C2705.85 348.886 2697 346.066 2689.41 343.636C2681.82 341.206 2678.02 338.135 2678.02 334.455C2678.02 328.145 2683.39 324.985 2694.14 324.985C2705.75 324.985 2714.76 331.215 2721.15 343.645L2782.13 316.315C2765.28 282.773 2735.37 266.003 2692.4 266.003C2668.16 266.003 2647.43 272.363 2630.21 285.084C2612.99 297.814 2604.38 315.745 2604.38 338.875C2604.38 353.036 2608.01 364.976 2615.26 374.657C2622.52 384.347 2631.51 391.007 2642.22 394.677C2652.92 398.337 2663.29 401.867 2673.31 405.297C2683.33 408.717 2692.06 411.687 2699.47 414.217C2706.88 416.747 2710.59 420.018 2710.59 424.018C2710.59 431.728 2704.06 435.588 2690.99 435.588C2673.85 435.588 2662.53 427.638 2657.01 411.737L2593.86 443.389C2610.12 477.8 2642.65 495 2691.42 495C2717.1 495 2739.29 489.07 2757.97 477.219C2776.66 465.369 2786 447.009 2786 422.138C2786 406.418 2782.3 393.367 2774.9 382.986Z" fill="black"/>
<path d="M1060.19 214.851C1039.26 194.881 1013.39 184.891 982.59 184.891H864V488.77H942.05V397.607H982.59C1013.39 397.607 1039.26 387.627 1060.19 367.656C1081.12 347.686 1091.58 322.225 1091.58 291.244C1091.58 260.263 1081.12 234.812 1060.19 214.842V214.851ZM1004.61 314.694C998.65 320.775 991.3 323.805 982.59 323.805H942.05V259.123H982.59C991.3 259.123 998.65 262.093 1004.61 268.023C1010.56 273.953 1013.54 281.694 1013.54 291.244C1013.54 300.794 1010.56 308.614 1004.61 314.694Z" fill="black"/>
<path d="M1119.05 171.87V488.77H1191.43V171.87H1119.05Z" fill="black"/>
<path d="M1371.48 271.712V387.186C1371.48 399.926 1368.35 409.697 1362.11 416.487C1355.86 423.287 1347.06 426.687 1335.73 426.687C1325.85 426.687 1317.92 423.797 1311.97 417.997C1306.01 412.207 1303.03 403.677 1303.03 392.386V271.703H1230.66V401.497C1230.66 431.598 1238.14 454.678 1253.11 470.738C1268.08 486.799 1287.33 494.829 1310.88 494.829C1338.2 494.829 1358.4 485.569 1371.48 467.039V488.739H1443.86V271.683H1371.48V271.712Z" fill="black"/>
<path d="M1620.86 340.745V271.712H1575.51V210.931L1503.14 232.641V271.703H1470.44V340.734H1503.14V405.407C1503.14 439.858 1511.92 463.658 1529.51 476.829C1547.1 489.999 1577.54 493.969 1620.85 488.759V423.647C1604.56 424.517 1592.95 423.797 1585.97 421.477C1579 419.167 1575.51 413.227 1575.51 403.677V340.734H1620.86V340.745Z" fill="black"/>
<path d="M1839.06 298.845C1816.53 276.704 1788.99 265.634 1756.45 265.634C1723.91 265.634 1696.72 276.704 1674.04 298.845C1651.37 320.985 1640.04 348.116 1640.04 380.247C1640.04 412.378 1651.37 439.499 1674.04 461.64C1696.72 483.78 1724.18 494.86 1756.45 494.86C1788.72 494.86 1816.53 483.78 1839.06 461.64C1861.59 439.509 1872.85 412.378 1872.85 380.247C1872.85 348.116 1861.59 320.995 1839.06 298.845ZM1788.05 412.798C1779.77 421.208 1769.23 425.389 1756.45 425.389C1743.67 425.389 1733.55 421.208 1725.27 412.798C1716.99 404.408 1712.85 393.558 1712.85 380.247C1712.85 366.937 1716.99 356.086 1725.27 347.686C1733.55 339.296 1743.95 335.096 1756.45 335.096C1768.95 335.096 1779.77 339.296 1788.05 347.686C1796.33 356.086 1800.47 366.937 1800.47 380.247C1800.47 393.558 1796.33 404.408 1788.05 412.798Z" fill="black"/>
<path d="M1904.68 171.87V488.77H1977.06V171.87H1904.68Z" fill="black"/>
<path d="M2084.52 183.161C2076.23 175.06 2066.42 171 2055.1 171C2043.78 171 2033.94 175.06 2025.66 183.161C2017.39 191.261 2013.24 200.961 2013.24 212.241C2013.24 223.522 2017.39 233.302 2025.66 241.542C2033.94 249.792 2043.75 253.923 2055.1 253.923C2066.45 253.923 2076.23 249.792 2084.52 241.542C2092.8 233.292 2096.94 223.532 2096.94 212.241C2096.94 200.951 2092.8 191.251 2084.52 183.161Z" fill="black"/>
<path d="M2203.72 447.488V458.009L2203.71 457.999V456.749H2203.7V488.779H2018.91V271.703H2091.28V417.158H2133.13V386.477L2133.14 386.486V377.206L2203.72 447.488Z" fill="black"/>
<path d="M2323.87 289.734C2308.89 273.674 2289.65 265.644 2266.1 265.644C2238.78 265.644 2218.57 274.904 2205.5 293.434V271.714H2133.12V314.775L2205.5 386.827V373.297C2205.5 360.566 2208.62 350.796 2214.87 344.006C2221.12 337.216 2229.92 333.796 2241.25 333.796C2251.13 333.796 2259.05 336.706 2265.01 342.486C2270.97 348.286 2273.94 356.806 2273.94 368.097V488.79H2346.32V358.986C2346.32 328.885 2338.83 305.805 2323.87 289.754V289.734Z" fill="black"/>
<path d="M2524.64 380.247L2597.89 271.713H2514.18L2457.94 362.446V184.891H2385.56V488.77H2457.94V396.307L2519.85 488.77H2600.94L2524.64 380.247Z" fill="black"/>
<path d="M2203.71 456.749H2203.7V488.779H2203.71V456.749Z" fill="black"/>
<path d="M2203.71 456.749H2203.7V458.009H2203.71V456.749Z" fill="black"/>
</svg>
