<svg width="1200" height="1168" viewBox="0 0 1200 1168" fill="none" xmlns="http://www.w3.org/2000/svg">
<path d="M748.005 23.4616C725.445 16.864 702.315 11.5559 678.696 7.71729C664.496 16.6041 655.036 32.3984 655.036 50.4119C655.036 78.2719 677.596 100.844 705.435 100.844C733.275 100.844 755.814 78.2719 755.814 50.4119C755.814 40.4955 752.974 31.2588 747.995 23.4616H748.005ZM721.385 976.409C708.875 976.409 698.726 986.565 698.726 999.101C698.726 1011.64 708.875 1021.79 721.385 1021.79C733.895 1021.79 744.065 1011.64 744.065 999.101C744.065 986.565 733.915 976.409 721.385 976.409ZM685.726 791.735L683.246 786.077C653.207 717.832 578.328 681.345 506.16 699.748C458.391 711.934 419.531 746.402 401.732 792.265L395.172 809.149L378.302 802.581C332.493 784.778 280.804 790.166 239.575 817.196C177.296 858.022 153.607 937.933 183.646 1006.17L185.966 1011.48C289.154 1107.64 427.181 1166.81 579.008 1168C580.348 1165.96 581.498 1163.77 582.478 1161.52L686.326 919.12C703.825 878.414 703.565 832.261 685.716 791.745L685.726 791.735ZM451.091 474.819C451.041 474.839 451.001 474.849 450.971 474.849L478.46 538.107C478.46 538.107 478.53 538.057 478.56 538.037L451.081 474.809L451.091 474.819ZM424.171 567.946C285.374 648.377 169.246 749.101 73.5883 868.088C73.5883 868.108 73.6083 868.108 73.6083 868.118C169.256 749.111 285.394 648.407 424.191 567.976L424.171 567.946ZM148.637 299.152C136.107 299.152 125.957 309.309 125.957 321.824C125.957 334.34 136.107 344.516 148.637 344.516C161.167 344.516 171.316 334.36 171.316 321.824C171.316 309.289 161.167 299.152 148.637 299.152ZM65.4884 344.516C60.0286 344.516 54.7986 345.476 49.9587 347.255C40.6589 368.148 32.5791 389.69 25.7593 411.782C33.4891 425.777 48.3888 435.264 65.4784 435.264C90.5279 435.264 110.838 414.941 110.838 389.9C110.838 364.859 90.5279 344.516 65.4784 344.516H65.4884Z" fill="black"/>
<path d="M1192.62 296.793L1115.46 119.187C1101.49 87.0387 1069.82 66.2762 1034.81 66.2762C1022.72 66.2762 1010.93 68.7353 999.81 73.5735L921.431 107.681C869.342 70.6046 810.884 41.8749 748.005 23.4616C752.975 31.2588 755.825 40.4954 755.825 50.4119C755.825 78.2719 733.265 100.844 705.446 100.844C677.626 100.844 655.047 78.2719 655.047 50.4119C655.047 32.3983 664.506 16.604 678.706 7.71722C647.767 2.63905 616.038 0 583.658 0C345.543 0 140.717 142.679 49.969 347.255C54.7989 345.476 60.0388 344.516 65.4987 344.516C90.5482 344.516 110.858 364.839 110.858 389.9C110.858 414.961 90.5482 435.263 65.4987 435.263C48.399 435.263 33.4993 425.787 25.7795 411.782C9.00985 466.222 0 524.052 0 584C0 625.075 4.25986 665.171 12.3197 703.867C126.587 612.86 252.665 542.035 391.982 493.742H392.002L401.682 516.054L424.221 567.916V567.936C424.221 567.936 424.201 567.956 424.191 567.956L424.211 567.986C285.414 648.417 169.287 749.121 73.6285 868.128C103.478 921.659 141.507 970.011 185.996 1011.47L183.676 1006.16C153.637 937.923 177.326 858.011 239.605 817.186C280.824 790.166 332.523 784.768 378.332 802.571L395.202 809.139L401.762 792.255C419.551 746.402 458.421 711.924 506.19 699.738C578.358 681.345 653.237 717.822 683.276 786.067L685.756 791.725C703.606 832.241 703.866 878.394 686.366 919.099L582.518 1161.5C581.538 1163.75 580.388 1165.94 579.048 1167.98C580.588 1168 582.158 1168 583.688 1168C906.042 1168 1167.36 906.534 1167.36 584C1167.36 525.071 1158.65 468.172 1142.43 414.541L1147.07 412.532C1168.63 403.145 1185.22 385.951 1193.84 364.089C1202.44 342.237 1202.04 318.326 1192.65 296.783L1192.62 296.793ZM148.637 344.516C136.107 344.516 125.957 334.36 125.957 321.824C125.957 309.289 136.107 299.152 148.637 299.152C161.167 299.152 171.316 309.309 171.316 321.824C171.316 334.34 161.167 344.516 148.637 344.516ZM788.944 333.17L889.912 289.256L898.692 309.419L905.742 325.653L914.481 345.796L813.493 389.73L677.056 449.099L652.497 392.539L788.954 333.17H788.944ZM544.449 612.35C540.539 614.039 536.339 614.919 532.149 614.919C528.329 614.919 524.509 614.199 520.859 612.77C513.25 609.751 507.17 603.863 503.9 596.376L478.55 538.036C478.55 538.036 478.48 538.066 478.45 538.107L450.961 474.849C450.961 474.849 451.031 474.829 451.081 474.819L426.731 418.789C419.961 403.145 427.101 384.992 442.711 378.204L662.537 282.588L687.096 339.148L495.55 422.478L548.149 543.515L739.695 460.185L764.254 516.744L544.449 612.36V612.35ZM721.375 1021.8C708.866 1021.8 698.716 1011.65 698.716 999.111C698.716 986.575 708.866 976.419 721.375 976.419C733.885 976.419 744.055 986.575 744.055 999.111C744.055 1011.65 733.905 1021.8 721.375 1021.8ZM933.281 707.366C815.713 763.485 731.845 685.743 731.845 685.743C898.622 666.61 1004.79 616.948 1042.56 536.677C1042.56 536.677 1050.86 651.276 933.281 707.376V707.366ZM1140.66 343.167C1137.66 350.764 1131.76 356.882 1124.28 360.15L1123.09 360.64L904.462 455.756L879.882 399.196L1071.43 315.886L1018.85 194.87H1018.83L1018.81 194.85L827.293 278.16L802.714 221.6L971.93 147.987L1022.52 125.975C1026.51 124.245 1030.68 123.426 1034.78 123.426C1046.7 123.426 1058.02 130.333 1063.06 141.959L1140.22 319.545C1143.48 327.052 1143.64 335.529 1140.64 343.147L1140.66 343.167Z" fill="black"/>
<path d="M933.291 707.356C815.724 763.475 731.855 685.733 731.855 685.733C898.632 666.6 1004.8 616.938 1042.57 536.667C1042.57 536.667 1050.87 651.266 933.291 707.366V707.356Z" fill="white"/>
<path d="M914.481 345.786L813.493 389.72L677.056 449.088L652.497 392.539L788.954 333.17L889.922 289.256L898.702 309.409L905.741 325.643L914.481 345.786Z" fill="white"/>
<path d="M764.264 516.724L544.459 612.34C540.549 614.029 536.349 614.909 532.159 614.909C528.339 614.909 524.519 614.189 520.869 612.76C513.259 609.741 507.179 603.853 503.91 596.366L478.56 538.026L451.081 474.799L426.731 418.769C419.961 403.125 427.101 384.972 442.711 378.184L662.536 282.568L687.096 339.128L495.55 422.458L548.149 543.495L739.695 460.164L764.254 516.724H764.264Z" fill="white"/>
<path d="M1018.83 194.84L1018.85 194.86V194.84H1018.83Z" fill="white"/>
<path d="M1018.83 194.84L1018.85 194.86V194.84H1018.83Z" fill="black"/>
<path d="M1140.67 343.157C1137.67 350.754 1131.77 356.872 1124.29 360.14L1123.1 360.63L904.472 455.746L879.892 399.186L1071.44 315.876L1018.86 194.86H1018.84V194.84H1018.82L827.304 278.15L802.724 221.59L971.941 147.977L1022.53 125.965C1026.52 124.235 1030.69 123.416 1034.79 123.416C1046.71 123.416 1058.03 130.323 1063.07 141.949L1140.23 319.535C1143.49 327.042 1143.65 335.519 1140.65 343.137L1140.67 343.157Z" fill="white"/>
<path d="M401.662 516.044L391.962 493.742H391.982L401.662 516.044Z" fill="white"/>
<path d="M478.561 538.037C478.561 538.037 478.491 538.067 478.461 538.107L450.971 474.849C450.971 474.849 451.041 474.829 451.091 474.819L478.571 538.047L478.561 538.037Z" fill="white"/>
<path d="M686.336 919.109L582.488 1161.51C581.508 1163.76 580.358 1165.95 579.019 1167.99C427.192 1166.8 289.164 1107.63 185.976 1011.47L183.657 1006.16C153.617 937.923 177.307 858.011 239.585 817.186C280.805 790.166 332.503 784.768 378.313 802.571L395.182 809.139L401.742 792.255C419.532 746.402 458.401 711.924 506.17 699.738C578.338 681.345 653.217 717.822 683.256 786.067L685.736 791.725C703.586 832.241 703.846 878.394 686.346 919.099L686.336 919.109Z" fill="#454545"/>
<path d="M110.858 389.9C110.858 414.951 90.5484 435.263 65.4989 435.263C48.3993 435.263 33.4996 425.787 25.7798 411.782C32.5996 389.68 40.6794 368.148 49.9792 347.255C54.8091 345.476 60.0491 344.516 65.509 344.516C90.5584 344.516 110.868 364.839 110.868 389.9H110.858Z" fill="#454545"/>
<path d="M755.825 50.4119C755.825 78.2719 733.265 100.844 705.446 100.844C677.626 100.844 655.047 78.2719 655.047 50.4119C655.047 32.3984 664.507 16.6041 678.706 7.71729C702.326 11.5559 725.456 16.864 748.015 23.4616C752.985 31.2588 755.835 40.4955 755.835 50.4119H755.825Z" fill="#454545"/>
<path d="M744.066 999.101C744.066 1011.64 733.916 1021.79 721.386 1021.79C708.856 1021.79 698.726 1011.64 698.726 999.101C698.726 986.565 708.876 976.409 721.386 976.409C733.896 976.409 744.066 986.565 744.066 999.101Z" fill="#454545"/>
<path d="M171.318 321.824C171.318 334.36 161.168 344.516 148.638 344.516C136.108 344.516 125.958 334.36 125.958 321.824C125.958 309.289 136.108 299.152 148.638 299.152C161.168 299.152 171.318 309.309 171.318 321.824Z" fill="#454545"/>
<path d="M424.191 567.976C285.394 648.407 169.266 749.111 73.608 868.118L73.588 868.138C45.3786 817.556 24.4791 762.346 12.2993 703.917C126.567 612.91 252.624 542.085 391.961 493.792L405.201 524.252L424.161 567.946L424.181 567.976H424.191Z" fill="white"/>
</svg>
