<svg width="1200" height="1168" viewBox="0 0 1200 1168" fill="none" xmlns="http://www.w3.org/2000/svg">
<path d="M1192.66 296.793L1115.5 119.187C1101.53 87.0387 1069.86 66.2762 1034.85 66.2762C1022.76 66.2762 1010.97 68.7353 999.84 73.5735L921.47 107.681C869.36 70.6046 810.9 41.8749 748.03 23.4616C753 31.2688 755.86 40.4954 755.86 50.4119C755.86 78.2719 733.3 100.844 705.46 100.844C677.62 100.844 655.08 78.2719 655.08 50.4119C655.08 32.3983 664.52 16.604 678.74 7.71722C647.79 2.63905 616.04 0 583.68 0C345.56 0 140.73 142.679 49.96 347.255C54.81 345.476 60.04 344.516 65.5 344.516C90.53 344.516 110.84 364.839 110.84 389.9C110.84 414.961 90.53 435.263 65.5 435.263C48.4 435.263 33.5 425.787 25.78 411.782C9.02 466.232 0 524.062 0 584C0 625.075 4.26 665.171 12.32 703.867C126.59 612.86 252.65 542.035 391.99 493.742L405.23 524.202L411.25 538.057L424.21 567.926C285.41 648.357 169.26 749.081 73.6 868.088C103.45 921.639 141.48 969.991 185.98 1011.47L183.64 1006.16C153.62 937.923 177.29 858.011 239.57 817.186C280.81 790.166 332.49 784.768 378.32 802.571L395.19 809.139L401.73 792.255C419.54 746.402 458.41 711.924 506.18 699.738C578.35 681.345 653.23 717.822 683.27 786.067L685.75 791.725C703.58 832.241 703.86 878.394 686.36 919.099L582.51 1161.5C581.53 1163.75 580.36 1165.94 579.02 1167.98C580.57 1168 582.14 1168 583.68 1168C906.04 1168 1167.36 906.534 1167.36 584C1167.36 525.071 1158.65 468.172 1142.41 414.541L1147.07 412.532C1168.61 403.145 1185.22 385.951 1193.84 364.089C1202.44 342.237 1202.02 318.326 1192.65 296.783L1192.66 296.793ZM148.65 344.516C136.12 344.516 125.97 334.36 125.97 321.824C125.97 309.289 136.12 299.152 148.65 299.152C161.18 299.152 171.33 309.309 171.33 321.824C171.33 334.34 161.18 344.516 148.65 344.516ZM788.96 333.17L889.95 289.256L898.71 309.419L905.78 325.653L914.52 345.796L813.53 389.73L677.09 449.099L652.53 392.539L788.97 333.17H788.96ZM544.48 612.35C540.57 614.039 536.37 614.919 532.18 614.919C528.36 614.919 524.54 614.199 520.89 612.77C513.28 609.751 507.2 603.863 503.93 596.376L478.58 538.036L451.1 474.809L426.75 418.779C419.98 403.135 427.12 384.982 442.71 378.194L662.54 282.578L687.12 339.138L495.55 422.468L548.17 543.505L739.71 460.175L764.29 516.734L544.47 612.35H544.48ZM721.41 1021.8C708.88 1021.8 698.73 1011.65 698.73 999.111C698.73 986.575 708.88 976.419 721.41 976.419C733.94 976.419 744.09 986.575 744.09 999.111C744.09 1011.65 733.94 1021.8 721.41 1021.8ZM933.32 707.366C815.75 763.485 731.87 685.733 731.87 685.733C898.65 666.6 1004.82 616.938 1042.6 536.667C1042.6 536.667 1050.89 651.256 933.32 707.366ZM1140.68 343.157C1137.7 350.754 1131.8 356.872 1124.32 360.14L1123.13 360.63L904.48 455.746L879.92 399.186L1071.47 315.876L1018.89 194.86H1018.87L1018.85 194.84L827.31 278.15L802.75 221.59L971.97 147.977L1022.56 125.965C1026.56 124.235 1030.72 123.416 1034.82 123.416C1046.72 123.416 1058.04 130.323 1063.1 141.949L1140.26 319.535C1143.52 327.042 1143.68 335.519 1140.66 343.137L1140.68 343.157Z" fill="white"/>
<path d="M933.33 707.356C815.76 763.476 731.88 685.724 731.88 685.724C898.66 666.59 1004.83 616.928 1042.61 536.657C1042.61 536.657 1050.9 651.246 933.33 707.356Z" fill="#454545"/>
<path d="M1140.68 343.157C1137.7 350.754 1131.8 356.872 1124.32 360.14L1123.13 360.63L904.48 455.746L879.92 399.186L1071.47 315.876L1018.89 194.86H1018.87V194.84H1018.85L827.31 278.15L802.75 221.59L971.97 147.977L1022.56 125.965C1026.56 124.235 1030.72 123.416 1034.82 123.416C1046.72 123.416 1058.04 130.323 1063.1 141.949L1140.26 319.535C1143.52 327.042 1143.68 335.519 1140.66 343.137L1140.68 343.157Z" fill="#454545"/>
<path d="M914.52 345.786L813.53 389.72L677.08 449.088L652.52 392.529L788.96 333.17L889.96 289.256L898.71 309.409L905.78 325.643L914.52 345.786Z" fill="#454545"/>
<path d="M764.29 516.724L544.47 612.34C540.56 614.029 536.36 614.909 532.17 614.909C528.35 614.909 524.53 614.189 520.88 612.76C513.27 609.741 507.19 603.853 503.92 596.366L478.57 538.026L451.09 474.799L426.74 418.769C419.97 403.125 427.11 384.972 442.7 378.184L662.53 282.568L687.11 339.128L495.54 422.458L548.16 543.495L739.7 460.164L764.28 516.724H764.29Z" fill="#454545"/>
<path d="M1018.86 194.84L1018.88 194.86V194.84H1018.86Z" fill="white"/>
<path d="M1018.86 194.84L1018.88 194.86V194.84H1018.86Z" fill="black"/>
<path d="M65.5198 344.506C60.0598 344.506 54.8298 345.466 49.9798 347.245C40.6998 368.138 32.6198 389.68 25.7998 411.782C33.5298 425.777 48.4298 435.263 65.5198 435.263C90.5498 435.263 110.86 414.941 110.86 389.9C110.86 364.859 90.5498 344.516 65.5198 344.516V344.506ZM148.67 299.142C136.14 299.142 125.99 309.299 125.99 321.814C125.99 334.33 136.14 344.506 148.67 344.506C161.2 344.506 171.35 334.35 171.35 321.814C171.35 309.279 161.2 299.142 148.67 299.142ZM685.77 791.725L683.29 786.067C653.25 717.822 578.37 681.335 506.2 699.738C458.43 711.924 419.57 746.391 401.75 792.255L395.21 809.139L378.34 802.571C332.51 784.768 280.84 790.156 239.6 817.186C177.32 858.011 153.65 937.923 183.67 1006.16L186.01 1011.47C289.18 1107.63 427.23 1166.8 579.04 1167.99C580.38 1165.95 581.55 1163.76 582.53 1161.51L686.38 919.109C703.88 878.404 703.6 832.251 685.77 791.735V791.725ZM721.43 976.399C708.9 976.399 698.75 986.555 698.75 999.091C698.75 1011.63 708.9 1021.78 721.43 1021.78C733.96 1021.78 744.11 1011.63 744.11 999.091C744.11 986.555 733.96 976.399 721.43 976.399ZM748.03 23.4515C725.47 16.8539 702.34 11.5458 678.74 7.70715C664.52 16.594 655.08 32.3883 655.08 50.4018C655.08 78.2618 677.64 100.834 705.46 100.834C733.28 100.834 755.86 78.2618 755.86 50.4018C755.86 40.4854 753 31.2487 748.03 23.4515Z" fill="#A8A8A8"/>
<path d="M424.21 567.946C285.41 648.377 169.26 749.1 73.6001 868.108C45.3901 817.526 24.4901 762.316 12.3101 703.887C126.58 612.88 252.64 542.055 391.98 493.762L405.22 524.221L424.2 567.946H424.21Z" fill="#454545"/>
</svg>
