<svg xmlns="http://www.w3.org/2000/svg" preserveAspectRatio="xMidYMid" viewBox="0 0 256 210">
  <defs>
    <linearGradient x1="67.1%" y1="64.7%" x2="46.2%" y2="45.8%" id="a">
      <stop stop-color="#520BF5" offset="0%"/>
      <stop stop-color="#9D1FE0" offset="100%"/>
      <stop stop-color="#9D1FE0" offset="100%"/>
    </linearGradient>
    <linearGradient x1="67.5%" y1="35%" x2="42.4%" y2="56.9%" id="b">
      <stop stop-color="#9E1FA7" offset="0%"/>
      <stop stop-color="#E540AE" offset="100%"/>
    </linearGradient>
    <linearGradient x1="100%" y1="50%" x2="30%" y2="50%" id="c">
      <stop stop-color="#4B6AF2" offset="0%"/>
      <stop stop-color="#4CA7EB" offset="100%"/>
    </linearGradient>
  </defs>
  <path d="m175.3 0-9.4 16a5.7 5.7 0 1 1-10-5.8L162 0h-16.7c0 1-.3 2-.8 2.9l-25.8 44.6C112.2 58.5 98.6 65 88 65h-8.3a5.7 5.7 0 0 1 0-11.5H88A28 28 0 0 0 108.4 42c2.9-4 11-18 24.4-42.1h-15.3C93.5 52 79 41.9 36 41.9l-8.5 13h30a5.7 5.7 0 0 1 0 11.4H20l-7.2 11.5L107 77H103c5.7.1 15-3.2 19.4-10.3l22.3-35.2a5.7 5.7 0 1 1 9.7 6.2L132 73a35.6 35.6 0 0 1-29.3 15.6l-96.9.7a37 37 0 0 0-5.7 15.8h128.4L194 4.5C190 2.1 184 .2 176.4 0h-1.1Z" fill="url(#a)"/>
  <path d="M128.5 105.1H0a30 30 0 0 0 5 18h86c13.4-1.5 25.3 4.1 35.6 16.7l21.6 34.9a5.7 5.7 0 1 1-9.7 6 329 329 0 0 0-24.3-36.5 29 29 0 0 0-23.2-9.6H12.3l7.7 12.2h30.7a5.7 5.7 0 0 1 0 11.5H27.2l7.3 11.5c51.7 0 59 5.8 76.7 40h15c-12.8-23-21-36.5-24.4-40.6-5-6.2-12-10.9-20.8-10.9h-8a5.7 5.7 0 0 1 0-11.5h8c12.2 0 25.9 7.8 30.8 17.4l27.3 44.6.5 1H160l-6.6-11.2a5.7 5.7 0 1 1 10-5.8l10 17h5c4 0 7-.4 12.6-4L128.5 105Z" fill="url(#b)"/>
  <path d="m194 4.5-8 12.2 10 14.8a5.7 5.7 0 0 1-9.6 6.4L179.2 27l-8 12 28.4 46.5a33.4 33.4 0 0 1-.4 35.5l-3.4 4.7a5.7 5.7 0 1 1-9.3-6.9l3.3-4.4a22 22 0 0 0 0-23l-25.5-41.7-36.4 55.3 28.6-43 14.1 21.7a33.7 33.7 0 0 1 0 36.8l-16.8 25.7-25.9-41.2 33.3 53 15.3-20.5a5.8 5.8 0 0 1 9.2 7l-18 23.9 8.8 13.9 42.3-67c4.8-7.5 4.9-17.4.2-25.1L198.5 57a5.7 5.7 0 0 1 9.8-6l20.4 33.1c7 11.4 7 26.1-.2 37.4l-44.7 70.7-.6.8 8 12.6c3.4-2.7 5.9-5 7.3-6.9 17-21.3 34.5-47 52.7-77a32 32 0 0 0 .3-33.2c-23.6-39-49.7-80.2-57.5-84Z" fill="url(#c)"/>
</svg>
