<?xml version="1.0" encoding="UTF-8" standalone="no"?>
<!DOCTYPE svg PUBLIC "-//W3C//DTD SVG 1.1//EN" "http://www.w3.org/Graphics/SVG/1.1/DTD/svg11.dtd">
<svg version="1.1" xmlns="http://www.w3.org/2000/svg" xmlns:xlink="http://www.w3.org/1999/xlink" preserveAspectRatio="xMidYMid meet" viewBox="76.58987244897958 44 164.00775510204068 164" width="160.01" height="160"><defs><path d="M237.6 95L187.6 95L187.6 45L237.6 45L237.6 95Z" id="b45vdTD8hs"></path><path d="M182.59 95L132.59 95L132.59 45L182.59 45L182.59 95Z" id="a40WtxIl8d"></path><path d="M127.59 95L77.59 95L77.59 45L127.59 45L127.59 95Z" id="h2CN9AEEpe"></path><path d="M237.6 150L187.6 150L187.6 100L237.6 100L237.6 150Z" id="dqv5133G8"></path><path d="M182.59 150L132.59 150L132.59 100L182.59 100L182.59 150Z" id="b1Lv79ypvm"></path><path d="M182.59 205L132.59 205L132.59 155L182.59 155L182.59 205Z" id="hy1IZWwLX"></path><path d="M237.6 205L187.6 205L187.6 155L237.6 155L237.6 205Z" id="akQfjxQes"></path><path d="M127.59 205L77.59 205L77.59 155L127.59 155L127.59 205Z" id="bdSrwE5pk"></path></defs><g><g><use xlink:href="#b45vdTD8hs" opacity="1" fill="#f9ad00" fill-opacity="1"></use></g><g><use xlink:href="#a40WtxIl8d" opacity="1" fill="#f9ad00" fill-opacity="1"></use></g><g><use xlink:href="#h2CN9AEEpe" opacity="1" fill="#f9ad00" fill-opacity="1"></use></g><g><use xlink:href="#dqv5133G8" opacity="1" fill="#f9ad00" fill-opacity="1"></use></g><g><use xlink:href="#b1Lv79ypvm" opacity="1" fill="#ffffff" fill-opacity="1"></use></g><g><use xlink:href="#hy1IZWwLX" opacity="1" fill="#ffffff" fill-opacity="1"></use></g><g><use xlink:href="#akQfjxQes" opacity="1" fill="#ffffff" fill-opacity="1"></use></g><g><use xlink:href="#bdSrwE5pk" opacity="1" fill="#ffffff" fill-opacity="1"></use></g></g></svg>