<svg viewBox="0 0 256 256" xmlns="http://www.w3.org/2000/svg" width="256" height="256" preserveAspectRatio="xMidYMid"><path fill="#FFF" d="M9.46 170.336a8.467 8.467 0 0 1-8.468-8.467V9.459A8.467 8.467 0 0 1 9.46.992h152.41a8.467 8.467 0 0 1 8.467 8.467v76.205h76.205a8.467 8.467 0 0 1 8.467 8.467v152.41a8.467 8.467 0 0 1-8.467 8.467H94.13a8.467 8.467 0 0 1-8.467-8.467v-76.205Z"/><path fill="#16161A" d="M161.869 0H9.459A9.46 9.46 0 0 0 0 9.46v152.409l.004.27a9.46 9.46 0 0 0 9.455 9.19l75.213-.001v75.213a9.46 9.46 0 0 0 9.46 9.459H246.54a9.459 9.459 0 0 0 9.459-9.46V94.132l-.004-.27a9.46 9.46 0 0 0-9.455-9.19h-75.213V9.46A9.46 9.46 0 0 0 161.868 0Zm0 1.984a7.475 7.475 0 0 1 7.475 7.475v76.205c0 .548.444.992.992.992h76.205a7.475 7.475 0 0 1 7.475 7.475v152.41a7.474 7.474 0 0 1-7.475 7.475H94.13a7.475 7.475 0 0 1-7.475-7.475v-76.205a.992.992 0 0 0-.992-.992H9.46a7.475 7.475 0 0 1-7.475-7.475V9.459A7.475 7.475 0 0 1 9.46 1.984h152.41Z"/><path fill="#16161A" d="M57.44 128a7.056 7.056 0 0 1-7.056-7.056V43.328a7.056 7.056 0 0 1 7.056-7.056h26.482c5.13 0 9.92.516 14.373 1.548 4.549.938 8.47 2.579 11.76 4.924 3.388 2.25 6.05 5.299 7.985 9.144 1.936 3.752 2.904 8.395 2.904 13.928 0 5.347-1.016 9.99-3.049 13.928-1.935 3.94-4.598 7.175-7.985 9.708-3.388 2.532-7.308 4.408-11.76 5.628-4.453 1.219-9.195 1.829-14.228 1.829h-5.14a7.056 7.056 0 0 0-7.056 7.055v16.98A7.056 7.056 0 0 1 64.67 128h-7.23Zm14.286-54.608a7.056 7.056 0 0 0 7.056 7.056h3.833c11.615 0 17.422-4.878 17.422-14.632 0-4.783-1.5-8.16-4.5-10.13-2.904-1.969-7.211-2.953-12.922-2.953h-3.833a7.056 7.056 0 0 0-7.056 7.055v13.604ZM142.112 219.728a7.056 7.056 0 0 1-7.056-7.056v-77.616a7.056 7.056 0 0 1 7.056-7.056h24.61c4.915 0 9.446.375 13.59 1.125 4.242.657 7.905 1.877 10.99 3.658 3.084 1.783 5.494 4.127 7.229 7.034 1.832 2.908 2.747 6.566 2.747 10.975 0 2.063-.337 4.126-1.012 6.19-.579 2.063-1.542 3.986-2.892 5.767-1.35 1.783-3.036 3.377-5.06 4.784-1.96 1.362-4.281 2.373-6.964 3.03a.35.35 0 0 0-.266.339c0 .167.121.31.285.341 6.607 1.234 11.62 3.56 15.042 6.982 3.47 3.47 5.205 8.3 5.205 14.491 0 4.69-.916 8.723-2.747 12.099-1.832 3.376-4.386 6.19-7.664 8.441-3.277 2.157-7.132 3.799-11.567 4.924-4.337 1.032-9.06 1.548-14.17 1.548h-27.356Zm14.199-61.924a7.056 7.056 0 0 0 7.056 7.056h2.342c5.206 0 8.965-.985 11.278-2.955 2.314-1.969 3.47-4.736 3.47-8.3 0-3.377-1.204-5.769-3.615-7.175-2.313-1.5-5.976-2.251-10.988-2.251h-2.487a7.056 7.056 0 0 0-7.056 7.056v6.569Zm0 38.69a7.056 7.056 0 0 0 7.056 7.055h4.366c11.375 0 17.062-4.127 17.062-12.38 0-4.033-1.398-6.941-4.193-8.723-2.7-1.782-6.989-2.673-12.869-2.673h-4.366a7.056 7.056 0 0 0-7.056 7.056v9.664Z"/></svg>