<svg xmlns="http://www.w3.org/2000/svg" width="181" height="91" fill="none" viewBox="0 0 181 91"><path fill="url(#a)" fill-rule="evenodd" d="M1.499 68.093h4.15c.557 0 1.011.453 1.011 1.015v15.415c0 .559-.45 1.014-1.011 1.014h-4.15a1.013 1.013 0 0 1-1.012-1.014V69.108c0-.56.451-1.015 1.012-1.015Zm9.591-20.258h3.248c.808 0 1.46.657 1.46 1.464v18.794c0 .81-.655 1.464-1.46 1.464H11.09c-.807 0-1.46-.657-1.46-1.464V49.3c0-.81.656-1.464 1.46-1.464Zm-.45 24.206h4.15c.557 0 1.01.452 1.01 1.014v16.323c0 .559-.45 1.014-1.01 1.014h-4.15a1.012 1.012 0 0 1-1.012-1.014V73.055c0-.559.45-1.014 1.011-1.014Zm9.143-44.653h4.15c.557 0 1.011.452 1.011 1.014v30.564c0 .56-.45 1.015-1.011 1.015h-4.15a1.012 1.012 0 0 1-1.012-1.015V28.402c0-.559.451-1.014 1.012-1.014Zm0 35.462h4.15c.557 0 1.011.452 1.011 1.014v9.479c0 .559-.45 1.014-1.011 1.014h-4.15a1.013 1.013 0 0 1-1.012-1.014v-9.479c0-.559.451-1.014 1.012-1.014Zm.45 19.231h3.249c.807 0 1.46.657 1.46 1.464v5.378c0 .81-.656 1.463-1.46 1.463h-3.248c-.808 0-1.46-.657-1.46-1.463v-5.378c0-.81.656-1.464 1.46-1.464Zm8.694-69.189h4.15c.557 0 1.01.453 1.01 1.015v21.618c0 .559-.45 1.014-1.01 1.014h-4.15a1.013 1.013 0 0 1-1.012-1.014V13.9c0-.56.451-1.015 1.012-1.015v.006Zm0 26.278h4.152c.558 0 1.009.452 1.009 1.011v29.303c0 .559-.45 1.011-1.009 1.011h-4.152a1.01 1.01 0 0 1-1.009-1.011V40.18c0-.56.451-1.011 1.009-1.011ZM38.07 8.43h4.15c.558 0 1.011.453 1.011 1.015v14.416c0 .559-.45 1.014-1.01 1.014h-4.15a1.012 1.012 0 0 1-1.012-1.014V9.442c0-.558.45-1.014 1.011-1.014v.003Zm0 18.978h4.15c.558 0 1.011.452 1.011 1.015v20.74c0 .56-.45 1.015-1.01 1.015h-4.15a1.012 1.012 0 0 1-1.012-1.015v-20.74c0-.56.45-1.015 1.011-1.015Zm0 25.755h4.15c.558 0 1.011.452 1.011 1.014v18.636c0 .56-.45 1.014-1.01 1.014h-4.15a1.012 1.012 0 0 1-1.012-1.014V54.178c0-.559.45-1.014 1.011-1.014Zm9.588-48.35h3.249c.807 0 1.46.657 1.46 1.463v27.066c0 .81-.656 1.463-1.46 1.463h-3.248c-.808 0-1.46-.656-1.46-1.463V6.277c0-.81.655-1.463 1.46-1.463Zm0 32.984h3.249c.807 0 1.46.657 1.46 1.463v6.283c0 .81-.656 1.463-1.46 1.463h-3.248c-.808 0-1.46-.657-1.46-1.463v-6.282c0-.81.655-1.464 1.46-1.464Zm0 11.3h3.246c.807 0 1.459.656 1.459 1.463v27.97c0 .81-.655 1.463-1.46 1.463h-3.245c-.807 0-1.459-.656-1.459-1.463v-27.97c0-.81.655-1.464 1.46-1.464Zm9.144-47.9h3.248c.808 0 1.46.658 1.46 1.465V8.04c0 .81-.655 1.464-1.46 1.464h-3.248c-.807 0-1.46-.657-1.46-1.464V2.666c0-.81.656-1.464 1.46-1.464v-.003Zm0 10.842h3.248c.808 0 1.46.657 1.46 1.464v41.524c0 .81-.655 1.464-1.46 1.464h-3.248c-.807 0-1.46-.657-1.46-1.464V13.507c0-.81.656-1.464 1.46-1.464v-.003Zm0 47.443h3.248c.808 0 1.46.657 1.46 1.463v11.25c0 .81-.655 1.464-1.46 1.464h-3.248c-.807 0-1.46-.657-1.46-1.463v-11.25c0-.81.656-1.464 1.46-1.464Zm0 17.172h3.248c.808 0 1.46.657 1.46 1.463v7.187c0 .81-.655 1.463-1.46 1.463h-3.248c-.807 0-1.46-.656-1.46-1.463v-7.187c0-.81.656-1.463 1.46-1.463Zm9.144-2.261h3.248c.807 0 1.46.657 1.46 1.463V88.92c0 .81-.656 1.463-1.46 1.463h-3.248c-.808 0-1.46-.657-1.46-1.463V75.856c0-.81.655-1.463 1.46-1.463Zm0-45.182h3.248c.807 0 1.46.657 1.46 1.463V62.71c0 .81-.656 1.464-1.46 1.464h-3.248c-.808 0-1.46-.657-1.46-1.464V30.675c0-.81.655-1.463 1.46-1.463Zm0-28.468h3.248c.807 0 1.46.657 1.46 1.463v22.547c0 .81-.656 1.463-1.46 1.463h-3.248c-.808 0-1.46-.656-1.46-1.463V2.21c0-.81.655-1.463 1.46-1.463V.744Zm9.143 80.427h3.248c.808 0 1.46.657 1.46 1.463v6.283c0 .81-.655 1.463-1.46 1.463H75.09c-.807 0-1.46-.657-1.46-1.463v-6.282c0-.81.656-1.464 1.46-1.464Zm0-79.975h3.248c.808 0 1.46.657 1.46 1.463v38.362c0 .81-.655 1.464-1.46 1.464H75.09c-.807 0-1.46-.657-1.46-1.463V2.662c0-.81.656-1.463 1.46-1.463v-.003Zm0 44.28h3.248c.808 0 1.46.657 1.46 1.464v15.77c0 .809-.655 1.463-1.46 1.463H75.09c-.807 0-1.46-.657-1.46-1.464V46.94c0-.809.656-1.463 1.46-1.463Zm9.138-42.471h3.248c.807 0 1.46.657 1.46 1.463v10.799c0 .81-.656 1.463-1.46 1.463h-3.248c-.808 0-1.46-.657-1.46-1.463V4.47c0-.81.656-1.463 1.46-1.463v-.003Zm0 16.716h3.248c.807 0 1.46.657 1.46 1.464v41.524c0 .81-.656 1.464-1.46 1.464h-3.248c-.808 0-1.46-.657-1.46-1.464V21.19c0-.81.656-1.465 1.46-1.465v-.003Zm9.14-15.812h3.248c.808 0 1.46.657 1.46 1.464v23.903c0 .81-.655 1.464-1.46 1.464h-3.248c-.807 0-1.459-.657-1.459-1.464v-23.9c0-.81.655-1.464 1.46-1.464V3.91Zm0 29.822h3.248c.808 0 1.46.657 1.46 1.464v19.84c0 .809-.655 1.463-1.46 1.463h-3.248c-.807 0-1.459-.657-1.459-1.464v-19.84c0-.81.655-1.463 1.46-1.463Zm0 25.752h3.248c.808 0 1.46.657 1.46 1.463v8.993c0 .81-.655 1.463-1.46 1.463h-3.248c-.807 0-1.459-.656-1.459-1.463v-8.993c0-.81.655-1.463 1.46-1.463Zm9.086-54.217h3.248c.807 0 1.459.657 1.459 1.463v37.006c0 .81-.655 1.463-1.459 1.463h-3.248a1.462 1.462 0 0 1-1.459-1.463V6.732c0-.81.655-1.463 1.459-1.463v-.003Zm0 42.924h3.248c.807 0 1.459.657 1.459 1.463v29.324c0 .81-.655 1.463-1.459 1.463h-3.248a1.462 1.462 0 0 1-1.459-1.463V49.653c0-.81.655-1.463 1.459-1.463Zm9.08-44.28h3.248c.807 0 1.459.656 1.459 1.463v15.77c0 .809-.655 1.463-1.459 1.463h-3.248c-.808 0-1.46-.657-1.46-1.464V5.376c0-.81.655-1.464 1.46-1.464V3.91Zm0 21.687h3.248c.807 0 1.459.657 1.459 1.464v46.046c0 .81-.655 1.464-1.459 1.464h-3.248c-.808 0-1.46-.657-1.46-1.464V27.064c0-.81.655-1.464 1.46-1.464v-.003Zm0 51.962h3.248c.807 0 1.459.657 1.459 1.464v8.54c0 .81-.655 1.464-1.459 1.464h-3.248c-.808 0-1.46-.657-1.46-1.464v-8.54c0-.81.655-1.464 1.46-1.464Zm9.14-2.71h3.248c.808 0 1.46.657 1.46 1.464v12.606c0 .81-.655 1.464-1.46 1.464h-3.248a1.462 1.462 0 0 1-1.459-1.463V76.313c0-.81.655-1.464 1.459-1.464Zm0-38.405h3.248c.808 0 1.46.657 1.46 1.464v8.543c0 .81-.655 1.464-1.46 1.464h-3.248a1.462 1.462 0 0 1-1.459-1.464v-8.543c0-.81.655-1.464 1.459-1.464Zm0-32.984h3.248c.808 0 1.46.657 1.46 1.464V31.99c0 .81-.655 1.463-1.46 1.463h-3.248a1.461 1.461 0 0 1-1.459-1.464V4.924c0-.81.655-1.464 1.459-1.464Zm9.266 2.261h3.248c.807 0 1.459.657 1.459 1.464V41.48c0 .81-.655 1.463-1.459 1.463h-3.248c-.808 0-1.46-.657-1.46-1.463V7.185c0-.81.655-1.464 1.46-1.464Zm0 76.36h3.248c.807 0 1.459.657 1.459 1.464v5.378c0 .81-.655 1.463-1.459 1.463h-3.248c-.808 0-1.46-.657-1.46-1.463v-5.378c0-.81.655-1.464 1.46-1.464Zm9.012-73.647h3.248c.808 0 1.46.657 1.46 1.464v8.543c0 .81-.655 1.464-1.46 1.464h-3.248a1.462 1.462 0 0 1-1.459-1.464V9.898c0-.81.655-1.464 1.459-1.464Zm0 14.456h3.248c.808 0 1.46.657 1.46 1.464v16.221c0 .81-.655 1.464-1.46 1.464h-3.248a1.461 1.461 0 0 1-1.459-1.464V24.354c0-.81.655-1.464 1.459-1.464Zm9.257-12.2h3.248c.807 0 1.459.656 1.459 1.463v5.378c0 .81-.655 1.463-1.459 1.463h-3.248c-.808 0-1.46-.657-1.46-1.463v-5.378c0-.81.655-1.464 1.46-1.464Zm0 10.843h3.248c.807 0 1.459.657 1.459 1.464v4.925c0 .81-.655 1.464-1.459 1.464h-3.248c-.808 0-1.46-.657-1.46-1.464v-4.925c0-.81.655-1.464 1.46-1.464Zm0 10.392h3.248c.807 0 1.459.657 1.459 1.464v8.088c0 .81-.655 1.463-1.459 1.463h-3.248c-.808 0-1.46-.657-1.46-1.463v-8.088c0-.81.655-1.464 1.46-1.464Zm9.14-18.522h3.248c.807 0 1.46.657 1.46 1.463v27.97c0 .81-.656 1.464-1.46 1.464h-3.248a1.462 1.462 0 0 1-1.459-1.464V14.863c0-.81.655-1.463 1.459-1.463v.003Zm9.083 8.13h3.248c.807 0 1.459.657 1.459 1.464v18.932c0 .81-.655 1.463-1.459 1.463h-3.248c-.808 0-1.46-.656-1.46-1.463V22.997c0-.81.655-1.464 1.46-1.464Zm9.012 10.392h3.248c.808 0 1.46.657 1.46 1.464v5.377c0 .81-.655 1.464-1.46 1.464h-3.248a1.462 1.462 0 0 1-1.459-1.464V33.39c0-.81.655-1.464 1.459-1.464Z" clip-rule="evenodd"/><path fill="url(#b)" fill-rule="evenodd" d="M1.499 68.093h4.15c.557 0 1.011.453 1.011 1.015v15.415c0 .559-.45 1.014-1.011 1.014h-4.15a1.013 1.013 0 0 1-1.012-1.014V69.108c0-.56.451-1.015 1.012-1.015Zm9.591-20.258h3.248c.808 0 1.46.657 1.46 1.464v18.794c0 .81-.655 1.464-1.46 1.464H11.09c-.807 0-1.46-.657-1.46-1.464V49.3c0-.81.656-1.464 1.46-1.464Zm-.45 24.206h4.15c.557 0 1.01.452 1.01 1.014v16.323c0 .559-.45 1.014-1.01 1.014h-4.15a1.012 1.012 0 0 1-1.012-1.014V73.055c0-.559.45-1.014 1.011-1.014Zm9.143-44.653h4.15c.557 0 1.011.452 1.011 1.014v30.564c0 .56-.45 1.015-1.011 1.015h-4.15a1.012 1.012 0 0 1-1.012-1.015V28.402c0-.559.451-1.014 1.012-1.014Zm0 35.462h4.15c.557 0 1.011.452 1.011 1.014v9.479c0 .559-.45 1.014-1.011 1.014h-4.15a1.013 1.013 0 0 1-1.012-1.014v-9.479c0-.559.451-1.014 1.012-1.014Zm.45 19.231h3.249c.807 0 1.46.657 1.46 1.464v5.378c0 .81-.656 1.463-1.46 1.463h-3.248c-.808 0-1.46-.657-1.46-1.463v-5.378c0-.81.656-1.464 1.46-1.464Zm8.694-69.189h4.15c.557 0 1.01.453 1.01 1.015v21.618c0 .559-.45 1.014-1.01 1.014h-4.15a1.013 1.013 0 0 1-1.012-1.014V13.9c0-.56.451-1.015 1.012-1.015v.006Zm0 26.278h4.152c.558 0 1.009.452 1.009 1.011v29.303c0 .559-.45 1.011-1.009 1.011h-4.152a1.01 1.01 0 0 1-1.009-1.011V40.18c0-.56.451-1.011 1.009-1.011ZM38.07 8.43h4.15c.558 0 1.011.453 1.011 1.015v14.416c0 .559-.45 1.014-1.01 1.014h-4.15a1.012 1.012 0 0 1-1.012-1.014V9.442c0-.558.45-1.014 1.011-1.014v.003Zm0 18.978h4.15c.558 0 1.011.452 1.011 1.015v20.74c0 .56-.45 1.015-1.01 1.015h-4.15a1.012 1.012 0 0 1-1.012-1.015v-20.74c0-.56.45-1.015 1.011-1.015Zm0 25.755h4.15c.558 0 1.011.452 1.011 1.014v18.636c0 .56-.45 1.014-1.01 1.014h-4.15a1.012 1.012 0 0 1-1.012-1.014V54.178c0-.559.45-1.014 1.011-1.014Zm9.588-48.35h3.249c.807 0 1.46.657 1.46 1.463v27.066c0 .81-.656 1.463-1.46 1.463h-3.248c-.808 0-1.46-.656-1.46-1.463V6.277c0-.81.655-1.463 1.46-1.463Zm0 32.984h3.249c.807 0 1.46.657 1.46 1.463v6.283c0 .81-.656 1.463-1.46 1.463h-3.248c-.808 0-1.46-.657-1.46-1.463v-6.282c0-.81.655-1.464 1.46-1.464Zm0 11.3h3.246c.807 0 1.459.656 1.459 1.463v27.97c0 .81-.655 1.463-1.46 1.463h-3.245c-.807 0-1.459-.656-1.459-1.463v-27.97c0-.81.655-1.464 1.46-1.464Zm9.144-47.9h3.248c.808 0 1.46.658 1.46 1.465V8.04c0 .81-.655 1.464-1.46 1.464h-3.248c-.807 0-1.46-.657-1.46-1.464V2.666c0-.81.656-1.464 1.46-1.464v-.003Zm0 10.842h3.248c.808 0 1.46.657 1.46 1.464v41.524c0 .81-.655 1.464-1.46 1.464h-3.248c-.807 0-1.46-.657-1.46-1.464V13.507c0-.81.656-1.464 1.46-1.464v-.003Zm0 47.443h3.248c.808 0 1.46.657 1.46 1.463v11.25c0 .81-.655 1.464-1.46 1.464h-3.248c-.807 0-1.46-.657-1.46-1.463v-11.25c0-.81.656-1.464 1.46-1.464Zm0 17.172h3.248c.808 0 1.46.657 1.46 1.463v7.187c0 .81-.655 1.463-1.46 1.463h-3.248c-.807 0-1.46-.656-1.46-1.463v-7.187c0-.81.656-1.463 1.46-1.463Zm9.144-2.261h3.248c.807 0 1.46.657 1.46 1.463V88.92c0 .81-.656 1.463-1.46 1.463h-3.248c-.808 0-1.46-.657-1.46-1.463V75.856c0-.81.655-1.463 1.46-1.463Zm0-45.182h3.248c.807 0 1.46.657 1.46 1.463V62.71c0 .81-.656 1.464-1.46 1.464h-3.248c-.808 0-1.46-.657-1.46-1.464V30.675c0-.81.655-1.463 1.46-1.463Zm0-28.468h3.248c.807 0 1.46.657 1.46 1.463v22.547c0 .81-.656 1.463-1.46 1.463h-3.248c-.808 0-1.46-.656-1.46-1.463V2.21c0-.81.655-1.463 1.46-1.463V.744Zm9.143 80.427h3.248c.808 0 1.46.657 1.46 1.463v6.283c0 .81-.655 1.463-1.46 1.463H75.09c-.807 0-1.46-.657-1.46-1.463v-6.282c0-.81.656-1.464 1.46-1.464Zm0-79.975h3.248c.808 0 1.46.657 1.46 1.463v38.362c0 .81-.655 1.464-1.46 1.464H75.09c-.807 0-1.46-.657-1.46-1.463V2.662c0-.81.656-1.463 1.46-1.463v-.003Zm0 44.28h3.248c.808 0 1.46.657 1.46 1.464v15.77c0 .809-.655 1.463-1.46 1.463H75.09c-.807 0-1.46-.657-1.46-1.464V46.94c0-.809.656-1.463 1.46-1.463Zm9.138-42.471h3.248c.807 0 1.46.657 1.46 1.463v10.799c0 .81-.656 1.463-1.46 1.463h-3.248c-.808 0-1.46-.657-1.46-1.463V4.47c0-.81.656-1.463 1.46-1.463v-.003Zm0 16.716h3.248c.807 0 1.46.657 1.46 1.464v41.524c0 .81-.656 1.464-1.46 1.464h-3.248c-.808 0-1.46-.657-1.46-1.464V21.19c0-.81.656-1.465 1.46-1.465v-.003Zm9.14-15.812h3.248c.808 0 1.46.657 1.46 1.464v23.903c0 .81-.655 1.464-1.46 1.464h-3.248c-.807 0-1.459-.657-1.459-1.464v-23.9c0-.81.655-1.464 1.46-1.464V3.91Zm0 29.822h3.248c.808 0 1.46.657 1.46 1.464v19.84c0 .809-.655 1.463-1.46 1.463h-3.248c-.807 0-1.459-.657-1.459-1.464v-19.84c0-.81.655-1.463 1.46-1.463Zm0 25.752h3.248c.808 0 1.46.657 1.46 1.463v8.993c0 .81-.655 1.463-1.46 1.463h-3.248c-.807 0-1.459-.656-1.459-1.463v-8.993c0-.81.655-1.463 1.46-1.463Zm9.086-54.217h3.248c.807 0 1.459.657 1.459 1.463v37.006c0 .81-.655 1.463-1.459 1.463h-3.248a1.462 1.462 0 0 1-1.459-1.463V6.732c0-.81.655-1.463 1.459-1.463v-.003Zm0 42.924h3.248c.807 0 1.459.657 1.459 1.463v29.324c0 .81-.655 1.463-1.459 1.463h-3.248a1.462 1.462 0 0 1-1.459-1.463V49.653c0-.81.655-1.463 1.459-1.463Zm9.08-44.28h3.248c.807 0 1.459.656 1.459 1.463v15.77c0 .809-.655 1.463-1.459 1.463h-3.248c-.808 0-1.46-.657-1.46-1.464V5.376c0-.81.655-1.464 1.46-1.464V3.91Zm0 21.687h3.248c.807 0 1.459.657 1.459 1.464v46.046c0 .81-.655 1.464-1.459 1.464h-3.248c-.808 0-1.46-.657-1.46-1.464V27.064c0-.81.655-1.464 1.46-1.464v-.003Zm0 51.962h3.248c.807 0 1.459.657 1.459 1.464v8.54c0 .81-.655 1.464-1.459 1.464h-3.248c-.808 0-1.46-.657-1.46-1.464v-8.54c0-.81.655-1.464 1.46-1.464Zm9.14-2.71h3.248c.808 0 1.46.657 1.46 1.464v12.606c0 .81-.655 1.464-1.46 1.464h-3.248a1.462 1.462 0 0 1-1.459-1.463V76.313c0-.81.655-1.464 1.459-1.464Zm0-38.405h3.248c.808 0 1.46.657 1.46 1.464v8.543c0 .81-.655 1.464-1.46 1.464h-3.248a1.462 1.462 0 0 1-1.459-1.464v-8.543c0-.81.655-1.464 1.459-1.464Zm0-32.984h3.248c.808 0 1.46.657 1.46 1.464V31.99c0 .81-.655 1.463-1.46 1.463h-3.248a1.461 1.461 0 0 1-1.459-1.464V4.924c0-.81.655-1.464 1.459-1.464Zm9.266 2.261h3.248c.807 0 1.459.657 1.459 1.464V41.48c0 .81-.655 1.463-1.459 1.463h-3.248c-.808 0-1.46-.657-1.46-1.463V7.185c0-.81.655-1.464 1.46-1.464Zm0 76.36h3.248c.807 0 1.459.657 1.459 1.464v5.378c0 .81-.655 1.463-1.459 1.463h-3.248c-.808 0-1.46-.657-1.46-1.463v-5.378c0-.81.655-1.464 1.46-1.464Zm9.012-73.647h3.248c.808 0 1.46.657 1.46 1.464v8.543c0 .81-.655 1.464-1.46 1.464h-3.248a1.462 1.462 0 0 1-1.459-1.464V9.898c0-.81.655-1.464 1.459-1.464Zm0 14.456h3.248c.808 0 1.46.657 1.46 1.464v16.221c0 .81-.655 1.464-1.46 1.464h-3.248a1.461 1.461 0 0 1-1.459-1.464V24.354c0-.81.655-1.464 1.459-1.464Zm9.257-12.2h3.248c.807 0 1.459.656 1.459 1.463v5.378c0 .81-.655 1.463-1.459 1.463h-3.248c-.808 0-1.46-.657-1.46-1.463v-5.378c0-.81.655-1.464 1.46-1.464Zm0 10.843h3.248c.807 0 1.459.657 1.459 1.464v4.925c0 .81-.655 1.464-1.459 1.464h-3.248c-.808 0-1.46-.657-1.46-1.464v-4.925c0-.81.655-1.464 1.46-1.464Zm0 10.392h3.248c.807 0 1.459.657 1.459 1.464v8.088c0 .81-.655 1.463-1.459 1.463h-3.248c-.808 0-1.46-.657-1.46-1.463v-8.088c0-.81.655-1.464 1.46-1.464Zm9.14-18.522h3.248c.807 0 1.46.657 1.46 1.463v27.97c0 .81-.656 1.464-1.46 1.464h-3.248a1.462 1.462 0 0 1-1.459-1.464V14.863c0-.81.655-1.463 1.459-1.463v.003Zm9.083 8.13h3.248c.807 0 1.459.657 1.459 1.464v18.932c0 .81-.655 1.463-1.459 1.463h-3.248c-.808 0-1.46-.656-1.46-1.463V22.997c0-.81.655-1.464 1.46-1.464Zm9.012 10.392h3.248c.808 0 1.46.657 1.46 1.464v5.377c0 .81-.655 1.464-1.46 1.464h-3.248a1.462 1.462 0 0 1-1.459-1.464V33.39c0-.81.655-1.464 1.459-1.464Z" clip-rule="evenodd"/><defs><radialGradient id="a" cx="0" cy="0" r="1" gradientTransform="matrix(-167.63677 71.00916 -144.91826 -342.11967 154.712 20.46)" gradientUnits="userSpaceOnUse"><stop stop-color="#0075FF"/><stop offset="1" stop-color="#0075FF" stop-opacity="0"/></radialGradient><radialGradient id="b" cx="0" cy="0" r="1" gradientTransform="matrix(-167.63677 71.00916 -144.91826 -342.11967 154.712 20.46)" gradientUnits="userSpaceOnUse"><stop stop-color="#0075FF"/><stop offset="1" stop-color="#0075FF" stop-opacity="0"/></radialGradient></defs></svg>