<svg xmlns="http://www.w3.org/2000/svg" width="1200" height="1200" fill="none" viewBox="0 0 1200 1200">
  <path fill="#F14A16" d="M635.473 1187.57s-24.685-29.53-24.685-85.37h-21.356c0 55.84-24.698 85.37-24.698 85.37"/>
  <mask id="poper-favicon__a" width="148" height="137" x="526" y="1063" maskUnits="userSpaceOnUse" style="mask-type:luminance">
    <path fill="#fff" d="M526.618 1063.72h147.118V1200H526.618v-136.28Z"/>
  </mask>
  <g mask="url(#poper-favicon__a)">
    <path stroke="currentColor" stroke-width="2.534" d="M635.473 1187.57s-24.685-29.53-24.685-85.37h-21.356c0 55.84-24.698 85.37-24.698 85.37"/>
  </g>
  <path fill="#F14A16" d="M1042.99 478.459c0 332.078-250.978 624.441-442.854 624.441-184.511 0-442.862-265.667-442.862-624.441-.013-262.34 180.315-475.027 442.862-475.027 262.521 0 442.854 212.674 442.854 475.027Z"/>
  <mask id="poper-favicon__b" width="893" height="1143" x="154" y="0" maskUnits="userSpaceOnUse" style="mask-type:luminance">
    <path fill="#fff" d="M154 0h892.97v1142.35H154V0Z"/>
  </mask>
  <g mask="url(#poper-favicon__b)">
    <path stroke="currentColor" stroke-width="2.534" d="M1042.99 478.459c0 332.077-250.978 624.441-442.853 624.441-184.512 0-442.863-265.667-442.863-624.441-.013-262.34 180.315-475.027 442.863-475.027 262.52 0 442.853 212.674 442.853 475.027Z"/>
  </g>
  <mask id="poper-favicon__c" width="73" height="24" x="564" y="1176" maskUnits="userSpaceOnUse" style="mask-type:luminance">
    <path fill="#fff" d="M564.253 1176.54h71.848V1200h-71.848v-23.46Z"/>
  </mask>
  <g mask="url(#poper-favicon__c)">
    <path fill="#F14A16" d="M635.486 1187.57c0 .64-.227 1.28-.682 1.92-.454.63-1.122 1.24-2.018 1.83-.882.6-1.978 1.16-3.261 1.71a38.343 38.343 0 0 1-4.397 1.48c-1.643.46-3.434.87-5.359 1.22-1.938.36-3.969.66-6.121.9-2.151.26-4.357.45-6.629.57-2.285.13-4.584.18-6.909.18s-4.624-.05-6.896-.18a98.094 98.094 0 0 1-6.642-.57 84.736 84.736 0 0 1-6.108-.9 58.324 58.324 0 0 1-5.359-1.22 37.505 37.505 0 0 1-4.397-1.48c-1.297-.55-2.379-1.11-3.274-1.71-.883-.59-1.564-1.2-2.019-1.83-.441-.64-.668-1.28-.668-1.92 0-.64.227-1.29.668-1.91.455-.64 1.136-1.26 2.019-1.85.895-.6 1.977-1.16 3.274-1.69 1.283-.55 2.753-1.04 4.397-1.5 1.644-.45 3.421-.85 5.359-1.21a84.6 84.6 0 0 1 6.108-.91c2.151-.25 4.356-.44 6.642-.56 2.272-.12 4.571-.19 6.896-.19s4.624.07 6.909.19c2.272.12 4.478.31 6.629.56 2.152.24 4.183.55 6.121.91 1.925.36 3.716.76 5.359 1.21 1.644.46 3.101.95 4.397 1.5 1.283.53 2.379 1.09 3.261 1.69.896.59 1.564 1.21 2.018 1.85.455.62.682 1.27.682 1.91Z"/>
  </g>
  <mask id="poper-favicon__d" width="148" height="62" x="526" y="1138" maskUnits="userSpaceOnUse" style="mask-type:luminance">
    <path fill="#fff" d="M526.618 1138.93h147.118V1200H526.618v-61.07Z"/>
  </mask>
  <g mask="url(#poper-favicon__d)">
    <path stroke="currentColor" stroke-width="2.534" d="M635.486 1187.57c0 .64-.227 1.28-.681 1.92-.455.63-1.123 1.24-2.018 1.83-.883.6-1.978 1.16-3.261 1.71a38.41 38.41 0 0 1-4.397 1.48c-1.644.45-3.435.87-5.36 1.22a85.04 85.04 0 0 1-6.121.9c-2.151.26-4.356.44-6.628.56-2.286.14-4.584.19-6.91.19-2.325 0-4.624-.05-6.896-.19-2.285-.12-4.491-.3-6.642-.56a84.736 84.736 0 0 1-6.108-.9 61.812 61.812 0 0 1-5.359-1.22 37.505 37.505 0 0 1-4.397-1.48c-1.296-.55-2.379-1.11-3.274-1.71-.882-.59-1.564-1.2-2.018-1.83-.441-.64-.669-1.28-.669-1.92 0-.64.228-1.29.669-1.91.454-.64 1.136-1.26 2.018-1.85.895-.6 1.978-1.16 3.274-1.69 1.283-.55 2.753-1.04 4.397-1.5 1.644-.45 3.421-.85 5.359-1.21a84.6 84.6 0 0 1 6.108-.91c2.151-.26 4.357-.44 6.642-.56 2.272-.12 4.571-.19 6.896-.19 2.326 0 4.624.07 6.91.19 2.272.12 4.477.3 6.628.56 2.152.24 4.184.55 6.121.91 1.925.36 3.716.76 5.36 1.21 1.644.46 3.1.95 4.397 1.5 1.283.53 2.378 1.09 3.261 1.69.895.59 1.563 1.21 2.018 1.85.454.62.681 1.27.681 1.91Z"/>
  </g>
  <path fill="#fff" d="M616.174 76.015s321.82 168.91 247.045 737.353c0 0 163.511-265.718 84.518-484.001C861.441 90.852 616.161 76.002 616.161 76.002l.013.013Z"/>
  <path fill="#fff" d="M640.161 253.895c59.045 0 106.997 19.738 143.856 59.188 36.887 39.423 55.33 90.745 55.33 153.953 0 62.714-18.056 113.408-54.153 152.083-36.072 38.649-83.903 57.96-143.483 57.96-66.93 0-116.085-25.08-147.438-75.267v224.145h-90.184v-568.91h90.184v72.115c31.353-50.173 79.987-75.267 145.888-75.267ZM529.93 562.282c23.802 25.32 54.26 37.981 91.36 37.981 37.127 0 67.585-12.661 91.361-37.981 23.802-25.347 35.71-58.133 35.71-98.344 0-39.169-11.908-71.421-35.71-96.742-23.776-25.347-54.234-38.034-91.361-38.034-37.1 0-67.558 12.687-91.36 38.034-23.776 25.321-35.657 57.573-35.657 96.742 0 40.211 11.881 72.997 35.657 98.344Z"/>
</svg>
