<svg width="32" height="32" viewBox="0 0 32 32" fill="none" xmlns="http://www.w3.org/2000/svg">
<g clip-path="url(#clip0_2_20)">
<path d="M5.66667 0H26.3333C29.4667 0 32 2.53333 32 5.66667V25.5333C32 28.6667 29.4667 31.2 26.3333 31.2H5.66667C2.53333 31.2 0 28.6667 0 25.5333V5.66667C0 2.53333 2.53333 0 5.66667 0Z" fill="#000B1D"/>
<path d="M7.60004 21.8V8.15999C7.60004 8.06665 7.64004 8.01332 7.73337 8.01332C7.96004 8.01332 8.24004 8.01332 8.5467 7.99999C8.8667 7.98665 9.20004 7.98665 9.56004 7.97332C9.92004 7.95999 10.3067 7.95999 10.72 7.94665C11.1334 7.93332 11.5334 7.93332 11.9334 7.93332C13.0267 7.93332 13.9334 8.06665 14.68 8.34665C15.3467 8.57332 15.96 8.94665 16.4667 9.43999C16.8934 9.86665 17.2267 10.3867 17.44 10.96C17.64 11.52 17.7467 12.0933 17.7467 12.6933C17.7467 13.84 17.48 14.7867 16.9467 15.5333C16.4134 16.28 15.6667 16.84 14.8 17.16C13.84 17.5067 12.8134 17.68 11.8 17.6667C11.48 17.6667 11.2667 17.6667 11.1334 17.6533C11 17.64 10.76 17.68 10.5067 17.68V21.84C10.52 21.9333 10.4534 22.0133 10.36 22.0267C10.3467 22.0267 10.3334 22.0267 10.3067 22.0267L7.7467 21.9867C7.65337 21.9733 7.60004 21.92 7.60004 21.8ZM10.5067 10.6267V15.0667C10.6934 15.08 10.92 15.0533 11.08 15.0533H11.7867C12.3067 15.0667 12.8267 14.9867 13.32 14.84C13.7467 14.72 14.12 14.4667 14.4134 14.1333C14.6934 13.8 14.8267 13.3467 14.8267 12.76C14.84 12.3467 14.7334 11.9333 14.52 11.5733C14.2934 11.2267 13.9734 10.96 13.5867 10.8133C13.0934 10.6133 12.56 10.5333 12.0134 10.5467C11.6667 10.5467 11.36 10.5467 11.1067 10.56C10.9067 10.56 10.7067 10.5867 10.5067 10.6267Z" fill="white"/>
<path d="M20.5334 13.8533H19.2134C19.1067 13.84 19.0667 13.7867 19.0667 13.7067V11.5067C19.0534 11.44 19.1067 11.3733 19.1734 11.36C19.1867 11.36 19.2 11.36 19.2134 11.36H20.5334V11.0533C20.5334 10.6 20.56 10.16 20.64 9.70668C20.7067 9.33335 20.8267 8.97334 20.9867 8.62668C21.2667 8.05334 21.68 7.56001 22.2134 7.18668C22.7467 6.81335 23.44 6.62668 24.32 6.62668C24.5334 6.62668 24.7334 6.64001 24.9467 6.65335C25.12 6.66668 25.28 6.70668 25.44 6.77334C25.5334 6.80001 25.5867 6.89335 25.5867 6.98668V9.10668C25.5867 9.21335 25.5334 9.24001 25.4134 9.21335C25.3067 9.20001 25.2 9.18668 25.0934 9.18668H24.7734C24.5334 9.18668 24.3067 9.22668 24.0934 9.33335C23.8934 9.44001 23.7334 9.62668 23.6667 9.84001C23.5334 10.1467 23.4667 10.4667 23.4534 10.8V11.3467H25.2667C25.3467 11.3467 25.4 11.36 25.4267 11.3867C25.4534 11.4267 25.4667 11.4667 25.4534 11.52V13.7067C25.4534 13.8133 25.3867 13.8533 25.2667 13.8533H23.4534V21.7867C23.4534 21.8267 23.44 21.88 23.4267 21.92C23.4 21.96 23.3467 21.9867 23.2667 21.9867H20.72C20.6 21.9867 20.5467 21.92 20.5467 21.8V13.8533H20.5334Z" fill="white"/>
</g>
<defs>
<clipPath id="clip0_2_20">
<rect width="32" height="31.2" fill="white"/>
</clipPath>
</defs>
</svg>
