    <svg
      width="24"
      height="24"
      viewBox="0 0 24 24"
      fill="none"
      xmlns="http://www.w3.org/2000/svg"
    >
      <path
        d="M12 22C17.5228 22 22 17.5228 22 12C22 6.47715 17.5228 2 12 2C6.47715 2 2 6.47715 2 12C2 17.5228 6.47715 22 12 22Z"
        fill="white"
        stroke="#6F3CFF"
        strokeWidth="1.5"
        strokeLinecap="round"
        strokeLinejoin="round"
      />
      <path
        d="M16.15 12.83L14.42 13.41C13.94 13.57 13.57 13.94 13.41 14.42L12.83 16.15C12.34 17.64 10.24 17.61 9.78 16.12L7.83 9.84C7.45 8.59 8.6 7.44001 9.83 7.82001L16.12 9.76999C17.61 10.24 17.63 12.34 16.15 12.83Z"
        stroke="#6F3CFF"
        strokeWidth="1.5"
        strokeLinecap="round"
        strokeLinejoin="round"
      />
    </svg>