<svg xmlns="http://www.w3.org/2000/svg" viewBox="0 0 246 78"><path fill="#3F526B" d="m226.2 53.4.4-7.7h3.2l.8 4.9c1.3.5 2.6.7 4 .7 2.6 0 4.4-.8 5.4-2.6.3-.5.5-1.3.5-2.2s-.3-1.8-.9-2.6a7.8 7.8 0 0 0-2.8-2A59.6 59.6 0 0 0 233 40a17.5 17.5 0 0 1-3.5-1.9 9.1 9.1 0 0 1-2.5-2.6 7 7 0 0 1-1-3.9c0-1.4.3-2.7.8-3.7a7.9 7.9 0 0 1 2.2-2.6c2-1.5 4.3-2.2 7-2.2 2.8 0 5.4.5 7.8 1.4l.7 8h-3.2l-2-5a11.3 11.3 0 0 0-3.5-.5c-1.4 0-2.6.3-3.5 1-1 .6-1.5 1.6-1.5 2.9 0 1.5.8 2.8 2.3 3.8a13 13 0 0 0 2.3 1.2l2.9 1.2 3 1.8a12 12 0 0 1 2.3 2.1 7.4 7.4 0 0 1 1.7 4.7 9.5 9.5 0 0 1-1 4.4A8 8 0 0 1 242 53a12.4 12.4 0 0 1-7.6 2 18.1 18.1 0 0 1-8.2-1.7zm-23.3 0 .3-7.7h3.3l.8 4.9c1.3.5 2.6.7 4 .7 2.6 0 4.4-.8 5.4-2.6.3-.5.5-1.3.5-2.2s-.3-1.8-.9-2.6a7.8 7.8 0 0 0-2.8-2l-3.9-1.8a17.5 17.5 0 0 1-3.4-1.9 9.1 9.1 0 0 1-2.5-2.6 7 7 0 0 1-1-3.9 8 8 0 0 1 .8-3.7 7.9 7.9 0 0 1 2.2-2.6 11.3 11.3 0 0 1 7-2.2c2.8 0 5.3.5 7.8 1.4l.7 8H218l-2-5c-1-.4-2.1-.5-3.5-.5s-2.6.3-3.5 1c-1 .6-1.5 1.6-1.5 2.9 0 1.5.8 2.8 2.3 3.8l2.3 1.2 2.8 1.2a15 15 0 0 1 3 1.8 11 11 0 0 1 2.4 2.1 7.4 7.4 0 0 1 1.7 4.7 9.5 9.5 0 0 1-1 4.4 8 8 0 0 1-2.4 2.9 12.4 12.4 0 0 1-7.5 2 18.1 18.1 0 0 1-8.2-1.7zm-3.7-.3c-2 1.4-4.6 2-8.1 2a15.7 15.7 0 0 1-10.9-4 15 15 0 0 1-4.9-11.7c0-5 1.6-9 4.7-12a15 15 0 0 1 10.8-4.2c2 0 4.3.3 6.9.9l.8 8.4h-3l-1.9-5a9.8 9.8 0 0 0-3-.3 10.3 10.3 0 0 0-7.6 3.5 12.3 12.3 0 0 0-2.9 8.3c0 3.5 1.1 6.4 3.2 8.7a11 11 0 0 0 8.6 3.5c1.3 0 2.5-.2 3.6-.6a10 10 0 0 0 2.4-1.1l1.3 3.6z"/><path fill="#DD390A" d="m101.7 51 6.6 1-.1 3H94.6l-.5-3.2 3-.7V27l-3-.2v-3.5h9.8c4.2 0 7.5 1 9.6 3a9 9 0 0 1 3 7.2c0 3.6-1.2 6.2-3.7 8a15.2 15.2 0 0 1-9 2.4h-2.1V51zm10-17.7c0-4-2.9-6.1-8.4-6.1h-1.6v12.6h1.9c2.8 0 4.9-.6 6.3-2a6 6 0 0 0 1.8-4.5zm13.2 16.5a4.6 4.6 0 0 0 3.9 2 5 5 0 0 0 4-2c1-1.2 1.4-3 1.4-5.6s-.5-4.5-1.4-6a4.5 4.5 0 0 0-4-2.1c-1.7 0-3 .7-4 2.2a11 11 0 0 0-1.3 6c0 2.4.5 4.2 1.4 5.5zm-5.8-6c0-1.9.3-3.4.8-4.8a10 10 0 0 1 2.1-3.5 9 9 0 0 1 6.8-2.9 9 9 0 0 1 7 3c1.9 2.1 2.8 4.8 2.8 8.2 0 3.6-1 6.4-3 8.4a8.9 8.9 0 0 1-6.7 3 8.8 8.8 0 0 1-7-3.1 12 12 0 0 1-2.8-8.4zm30.6-11.2a8.5 8.5 0 0 1 4.9 1.5 8.2 8.2 0 0 1 2.7 3.1l-4.7 1.8-1-2.4a4.4 4.4 0 0 0-2-.4c-.7 0-1.4.2-2 .6a2 2 0 0 0-.9 1.8c0 .8.4 1.5 1.2 2l3.2 1.6a17.4 17.4 0 0 1 3 1.5 6.6 6.6 0 0 1 1.8 1.6 5.5 5.5 0 0 1 1.1 3.4 6 6 0 0 1-.7 3 6.2 6.2 0 0 1-1.8 2 9.1 9.1 0 0 1-5.2 1.5 9.8 9.8 0 0 1-5-1.4 6.5 6.5 0 0 1-3-3.4l4.7-1.8 1.2 2.6a5 5 0 0 0 2 .5c.5 0 1 0 1.4-.2.3 0 .7-.2 1-.4a2.3 2.3 0 0 0 1-2c0-1.1-.7-2-2-2.6a79 79 0 0 1-3.7-1.6c-1-.5-1.8-1-2.5-1.6a5.7 5.7 0 0 1-2-4.6c0-1.9.7-3.4 2.2-4.5a8.3 8.3 0 0 1 5-1.6zm22.5 17.8 1 3a7.4 7.4 0 0 1-5.1 1.8c-1.3 0-2.4-.4-3.3-1.2-1-.8-1.4-2.1-1.4-4V36h-3.8l-.6-2.9.3-.5h4V25l3.8-1 .2.8v7.8h4.8c.1 0 .2.1.2.3v3.2h-5v13.2c0 1 .1 1.6.4 2 .3.2.7.3 1.1.3a4 4 0 0 0 2-.5 5.4 5.4 0 0 0 1.4-.7z"/><path fill="#DD3735" d="M15.4 32.6c.1.1.3.2.1.3 0 .2-.2.3-.4.6 0 .1-.1.2-.3 0l.6-.9zm53 27.6v.2-.2zm0 .3zM63 70.7l-4.6-25.4H58l.1.2h.3v-.2L63 70.8zm-4.8-31v.2-.3zm0 .5zm0 .2v-.2H58c.2 0 .3.1.3.2z"/><path fill="#DD3A0A" d="M78.7 34c0-1 0-2-.2-3.1-.2-1.4-.3-2.8-.7-4.2a23.7 23.7 0 0 0-1-3.3l-1.6-3.8c-1-2-2.4-3.7-3.6-5.5-.8-1.1-1.9-2-2.7-3.3A8 8 0 0 0 67.2 9a45.6 45.6 0 0 0-3.3-2.3A32.5 32.5 0 0 0 61.3 5l-2.2-1c-.8-.4-1.7-.9-2.6-1l-.7-.3-1.8-.6-2.7-.9a24.4 24.4 0 0 0-2.8-.5L45.2.4l-2-.2h-3c-.6-.1-1.1-.2-1.6-.1-.8 0-1.5 0-2.3.2l-2.2.3-2.6.3c-.8 0-1.7.2-2.5.4l-.8.2-2 .4A34.2 34.2 0 0 0 20 4.4l-3 1.9a31.6 31.6 0 0 0-5 4l-1 1.4L9 14l-1.5 2a32 32 0 0 0-3.2 5.4l-1.1 2.4a9.7 9.7 0 0 0-.7 1.8l-1 3.9A14.7 14.7 0 0 0 .8 33l.2 3.2c0 .2-.1.5.2.7-.1.3 0 .5.1.5-.2.3.1.5 0 .8l.1.2v.3l.2.7.2.6v.3c-.2.1-.2.3 0 .4.2.4.1.5 0 .7v.3c.3.5.4 1 .4 1.4v.9l.5-.2A10 10 0 0 0 3 45l.3 1.4V45l.8.2.1-.2-.5-.6c.1.3 0 .4 0 .4l-.3-.1c0-.2.2-.3.3-.5 0-.2 0-.4-.5-.4l.5-.2c.3-.1 0-.4 0-.8l-.3-1.3-.2-2.6c-.1-.2-.3.2-.3.2l.2 1.9-.4-1.7v.3c-.2.2 0 .3 0 .5h-.4v.7L2 40l-.2-.6v-.3a16 16 0 0 1 0-1h.4c-.3-.3 0-.6 0-.8 0 0 .3 0 .3-.2.2-.4.6-.7.6-1.2v-.8l.2-1.3.1-1.7A29.4 29.4 0 0 1 5 27.5l1.3-3a50.9 50.9 0 0 1 3.9-6.7l1.6-2.5a21.4 21.4 0 0 1 2.8-3c1-1 2-1.9 3.2-2.8a32 32 0 0 1 4.7-3 35.9 35.9 0 0 1 4.1-1.8l2.8-.8c1-.3 2.1-.5 3.2-.5.7 0 1.4 0 2.1-.2.6 0 1.3 0 2-.2l-.2.3-.9 1.2-.7 1-1.3 1.8-1.8 2.6-2 2.4-2.5 3.5-2.4 3.2-2 2.9-2.8 4.3-2.4 3.3-.2.2-.3.6-.6 1.2-.5.6c0-.3.4-.5.2-.9l-.4.6-.3.7c.1 0 .3.1.1.3l-.2.4a1 1 0 0 0 .3-.3c0 .3-.2.6-.3.8l-.6.5.3.1c.2 0 .3-.2.3 0 0-.2.2-.3.2-.3 0-.3.2-.5.5-.6l.3-.2 2.3-2.5 3.1-4.1 1.5-1.7v1.7l-.2 3v1.1l-.1.3v.8l-.2 3 .1.5c-.1 1.5.2 3 0 4.5l.2-.7V37a4.9 4.9 0 0 1 .1-1.5l.1-.8v.4c0 1.5 0 3-.2 4.5 0 .2.1.4-.2.4-.2.5 0 .8-.2 1l.1.5c-.1.3-.1.3 0 .4l.1 1.6c.5-1 .3-2 .4-3V44c-.1.3-.1.7-.3 1v4c.6 0 .3.3.5.5-.1.3 0 .3 0 .4l-.1.7v2.8l-.1.2-.1-3.3h-.4c0 1.6 0 3-.2 4.5h-3.3l-2.9.1h-6.3L8 55l-1.5.1-.6.2h-.4c-.3 0-.5.2-.8.3-.4 0-.5.2-.5.6v.2H5l-.1.2.4-.1 1.1.1a20.6 20.6 0 0 0 5.1.6l3 .1H23l5-.3h3l3-.1h3.4l2.6-.2 3-.1 1.5-.1 2-.2 2.8-.1 3.6-.2h3.3l3-.2h1.6l1.7-.2 2.8-.1h1.8l3-.2 1.2.1-.5.5h.3a.7.7 0 0 1-.4.2l-.1.5h.4c-.2 0-.3.2-.5.4-.2 0-.4 0-.5.2.2.1.2.2.1.3-.3.1-.5.2-.4.6l-.4.2c0 .2-.3.2-.3.5l.3.1-.4.2c-.4.3-.2.4-.1.6l-.3.1c0 .2.2.3.2.3l-.4.3c0 .2-.2.3-.3.5 0 .2-.2.4-.3.5-.5.6-1 1.4-1.6 1.8l-.8.7-1.4 1.4a29.6 29.6 0 0 1-2 1.5l-2.6 1.8-1.5.8-1.5.9c-.3.2-.6.5-1 .6l-2.6 1c-.9.4-1.5.8-2.2 1l-1.9.5H48l-1.3.3-3.5.4c-.7 0-1.3.2-2 .3h-2.4l-1.8-.3s-.3-.1-.4 0H36l-.4-.1h-.3l-1-.2-.9-.2-1.4-.3a2.4 2.4 0 0 1-.5-.3 4.3 4.3 0 0 1-1.6-.2c-.3 0-.7-.3-1-.2h-.4l-.2-.4c-.5 0-.8-.4-1.3-.5-.2 0-.4-.4-.6-.4-.6-.3-1-.8-1.7-.8-.3 0-.5-.2-.7-.3l.2.3-2.2-1.2-.2-.2-.7-.4c-.4 0-.6-.1-.7-.2l-2.2-1.3-.9-.7a4.2 4.2 0 0 0-1.3-1l-1.1-.7c-.2-.2-.4-.3-.4-.6 0-.2 0-.4-.3-.3l-.3-.4c-.3-.1-.6-.3-.8-.6-.2-.2-.4-.5-.7-.6-.5-.2-.8-.6-1.2-1l-2-2.7-.3-.2.4.7a.7.7 0 0 1-.6-.4l1.8 3 .4.7a.8.8 0 0 1-.7-.4c-.3-.4-.5-.7-1-.6a3 3 0 0 1-.2-.6h-.4l1 1.6-.2-.1c.5.5.8 1.1 1.4 1.4.1.6.8 1 1 1.5h-.4l-.7-.9c0 .2.2.4.3.5l1 1.1c0 .2.3.2.3.4l.3.2c0 .1 0 .4.3.3.2.4.4.4.7.3.4.3.6.4.8.1v.4l.1-.3.3.3.8 1 1.4 1.2c1 .8 2 1.4 3 2l3.8 2.2c1.5.8 3.2 1.3 5 1.7l1.8.4 1.6.6 2.6.5h1.1c.2.3.3.2.4.2H39c.2 0 .4 0 .6.2l.4-.2v.3l-.3.1c1 .2 1.9.2 2.7 0 1.3.1 2.5 0 3.7-.4 0 .1.1.3.3 0h.3c.2-.1.5-.3.7-.2.3.1.3-.1.5-.1h1l.4-.2-.6-.2 1-.4-.3.2h.4l-.3.4 2.6-.7c-.3-.5.3-.3.6-.7a7 7 0 0 1-.8.2l2.7-1.2-.5.4h.3c.4.2.3-.2.4-.5l1-.1.8-.3 1.2-.6h.3c.3-.2.4-.4.5-.3.4 0 .6-.1.7-.5.2 0 .4-.2.5-.3l1.7-1h.4l1-.5a2.3 2.3 0 0 1-.3-.1l.5-.1c.6-.8 1.5-1.3 2.1-1.9l.3-.1.4-.4 1.7-1.5 2.2-2.4 1.8-2.3 2-3.5L75 56l.2-.2 2.1-.2.5-.2-.2-.4c0-.2-.3-.3-.4-.5l-.2-.4-.3-.4a9.6 9.6 0 0 1-.4-.9v-.3l1-3.2c.5-1 .6-2.2.8-3.3l.4-3.3.3-2.2V34zm-66 32.4-.5-.7 1 1-.5-.3zm.4.2h.2l.2.4c-.3 0-.5-.2-.4-.4zm27.4 11v-.2l1.4-.1-1.4.2zm6.6-.8L46 77c-.2 0-.3.2-.4 0h-.1c.1.4.4 0 .7.2l-1.7.2.5-.1a7.7 7.7 0 0 0-.8-.1l-.3.1h-.3l-1.3.1h-.1l5.2-.8.1.2h-.4zm.4-.2 1.7-.2c-1.2.3-1.6.4-1.7.2zm-23-53.2 2.6-3.5.8-1.1.3-.3.2-.4.3-.6.1-.1c.4.1.4-.2.5-.4l.7-.8.5-.6-.1-.3c0-.1 0-.2.2-.2l.5-.7a4 4 0 0 1 1-1.2s0 .2-.2.3h.1l1-1.2h-.1l-.4.3.7-1 .2.3.3-.6-.2.2h-.1l.5-.8 1.5-2.1.5-.8c.5-1 1.3-1.8 2-2.7 0-.2.2-.3.4-.5.1-.2.2-.1.4 0l2 2.7 1.6 2 1.8 2.6 2 2.9 3 4.4 2.2 3.2h-5.1a76.5 76.5 0 0 1-11.5.6l-2.3.1-2.7.2h-5.2zm30.3 12v.3h-.1l-.4-1a8.8 8.8 0 0 0-1-2.3l-1.5-2.3-.5-.5c-.6-.6-1.1-1.2-1.8-1.6a21.5 21.5 0 0 0-3.3-1.7 8.9 8.9 0 0 1-1-.5h5.2l2.9-.2c.2 0 .3.1.5.3l.7 1.2.1.2v1.8l.1 1.8v4.6zm-28.3-8.7 3.6-.2 2.8-.2h1.2l-1.2.7-1.4 1.1-1.3 1.2-1.6 1.7-1 1.3c-.5.6-1 1.2-1.3 1.9 0-2.5.2-5 .1-7.5zm17 25.3c-.8.2-1.7.5-2.6.6h-4.2a6.8 6.8 0 0 1-2.3-.5l-2-1a5 5 0 0 1-1.7-1.2l-1.2-1.1c0 .3.3.6.6.8-.2.1-.4 0-.6-.4l-.2.1.2-.5-.3-.7-.6-1-.1-.3a5.9 5.9 0 0 1-.4-.4l-.7-1v.3l-.6-1.4.5 1.8h-.1l-.2-.3c0-.2-.2-.2-.4-.1v.3l.5 1.3.2.5.1.2.3.6.8 1 .6.9h.2c.1.5.5.8.9.6 0 .6.7.8 1 1.4l-.8-.4v.1l.9.5.7.5c.3.3.7.5 1.2.6a.3.3 0 0 0 0-.1l2 1-8.7.2v-2.1c0-1.2 0-2.4-.2-3.6a27.9 27.9 0 0 1-.2-3.8v-4.8l.1-.4.1.2.3.2.5-.4.1-1 .2-.6.2-.2-.4-.2c.1-.3.1-.7.5-.8V37l.2-.6.1.1v-.4c.4 0 .2-.4.4-.5v-.2c.4-.1.3-.5.6-.7l.2-.2c.2.3-.2.5-.2.8.4-.3.6-1 .3-1.1l.3-.3.9-1 .4-.7.5-.3a3.2 3.2 0 0 0 1.2-1l.2-.2h.3l-.1-.3.4-.3-.2.4h.2l.8-.5a.8.8 0 0 0-.1-.1l-.6.3v-.1a9.8 9.8 0 0 1 1.2-.7l2.7-1.2h.8a30.4 30.4 0 0 1 1.8-.5h2.4c.3 0 .7.1 1 .3a9.9 9.9 0 0 1 2.4 1.3l2.3 1.5a6 6 0 0 1 1.8 1.7c.5.8 1.2 1.5 1.5 2.5l.4 1.8c0 .3.2.6.1 1l-.3 2c0 .3-.1.5 0 .8 0 .8-.3 1.5-.7 2.2 0 .3-.2.5-.4.8h.3l.2-.4-.3 1.2a24.9 24.9 0 0 1-1 2.4c-.2.5-.6.8-.9 1.3l-.7 1-.8.9-2.2 1.4c-.5.3-1 .5-1.6.6zm-14-1.4h-.2l-.6-1v-.3l.8 1.3zM46 54.2c1.2-.5 2.1-1.2 3-2l.4-.4a9.2 9.2 0 0 0 2.7-2.7c.8-1.2 1.4-2.5 2-3.8l.2-.3c0 3 .3 6 .7 9l-9 .2zm26.7-.8-.1.2-.1-.2c-.2.4-.5.2-.7.2h-8.5l-1.3.2h-3.3l-.3-.2a.9.9 0 0 1-.1.3l-.1-.2-.1.2H58l-.2-1.1.1-2.4v-1l.3.2.2-.3h-.1V49l.2-.2-.1-.5.2.8h.1c0-.2.2-.3 0-.6v-.2l-.2-.5.2-.1-.3-.2c.3-.2.3-.3 0-.6h.1v-.7c0-.3 0-.6-.3-.8v.2h-.1c-.3-.2-.1-.6-.2-1.1l.4.1-.2-.6H58v-1.7h.3L58 42c-.2-.3 0-.7 0-.8v-1.8c.2.3-.2.6.2.8v-1.5H58v.1l.1-6.2.8 1 2.1 3 1.8 2.7 2 3.3a62.6 62.6 0 0 0 3.3 4.5l1.3 1.8L71 51l.9 1c.1.3.4.5.5.6l.1.2c.3.2.3.3.2.6zM74 47v-.2.1zm.9-11.7-.2-.1v.2l-.3-.1.2 1h.4a.2.2 0 0 0 .1 0c-.5.4-.4.8-.1 1.2 0 .1.2.3 0 .6v.3h.2l-.3.1-.3-.3v1.3c.2 0 .2.5.3.6a.8.8 0 0 0 .1-.2v.5l-.2.7v.1c-.2.7 0 1.4-.2 2v1.6c0 .5-.2 1-.3 1.4l-.2.2v-.8l-.4-.2.3 1.3-.4-.3-.1 1.1c0 .3-.3.5-.3.8 0 .2.2.3.1.5h.3l.2-1.5.1.1v1.4l-.1.6V49h-.4l.2.4h-.1l-.9-1.2-2-3a6.3 6.3 0 0 1-.5-.8 37 37 0 0 0-2.7-4c-.8-1-1.4-2-2-3l-2-3-.8-1-2-3.2-1.8-2.6-.6-1a.4.4 0 0 1 0-.1l-.2-1.8v-2.4l.1-.1h-2.3c-.5 0-.7-.2-1-.6-1-1.1-1.8-2.4-2.7-3.6a177.5 177.5 0 0 0-2.5-3.4l-2-2.8-2.3-3.1-3-3.8L41 3l1 .2h1.3l2.8.3 2.4.4c1.7.3 3.5.8 5.1 1.3l2.9 1.1a59.6 59.6 0 0 1 6.1 3c.7.4 1 1 1.5 1.5l2 2.1 2.2 2.7 2 2.4c.3.2.4.5.6.8.4.6 1 1.2 1.3 1.9l.6 1.6.8 2.4.4 2 .2 1.2c.2.6 0 1.2.2 1.7v.2c.2.1.3.2.1.4v.2l.1-.2v.4l.1.2.2-.2c.3 1 .3 1.8.3 2.8 0 .8.2 1.7-.2 2.5 0-.3-.1-.5 0-.8z"/><path fill="#DD3735" d="M58 45.5h.1zm4.2 26c-.3.2-.5.4-1 .5l1-.6v.1zM13 35.8l.9-1.1.3.1-1 1.3-.2-.3zm-7.5 13-.6-1.4a.9.9 0 0 1 .2-.1l.7 1.3-.3.1zM12.1 36l-.4.7s-.4.1-.4 0l.7-.8h.1zm47.3 36.5h.7c-.4.3-.6.2-.7 0zM12.2 37.2l.1-.3h.1l.3-.5h-.1c-.2 0-.3.2-.5.3v.2c-.2 0-.2 0-.3.3l-.3.2-.1.4h-.1l-.5.5-.1.3.7-.8.4-.4-.2.7h-.2l-.3.3-.4.3-.8.7-.6 1c.3-.2.4 0 .4.2.3 0 .4-.2.5-.4V40l.8-.6v-.2c.2-.4.5-.8.8-1l.2-.4c0-.3.2-.3.4-.4l-.1-.2z"/><path fill="#DD3735" d="m12.7 36.9-.3.5h-.2c0 .5-.4 1-.8 1.2h.3l.2-.2.7-1 .2-.4v-.1zM4 48.5h.5l.1-.2.1.4H4v-.2zm-.2-1.3-.2-.2.2-.4v.6zm.7-1.7.3.9a.8.8 0 0 0-.2 0l-.3-.7.2-.1zM63 70.9l.5-.2-.6.5v-.4zM30.6 15l.5-.3-.4.7-.1-.4zm7.7 13.3.8-.3v.3a1 1 0 0 0-.3 0l-.6.2.1-.2zm19.8 22.3c0 .3.5.4 0 .7l.3.1a.2.2 0 0 1 0 .1H58v-.9z"/></svg>