<svg xmlns="http://www.w3.org/2000/svg" viewBox="0 0 79 78"><g fill="none" fill-rule="evenodd"><path fill="#DD3735" d="M15.45 32.62c.1.08.29.14.1.3-.13.18-.29.33-.4.55-.1.18-.18.23-.33.1.2-.34.42-.66.63-.95zm52.9 27.62.02.21c.05-.1.05-.16.08-.21h-.1zm0 .24v-.03.03zm-5.38 10.27-4.58-25.4c-.07-.02-.18-.08-.36-.13.05.1.08.18.1.26.13-.02.19-.02.24-.05 0-.02 0-.05.02-.08l4.58 25.4zm-4.73-31.12c-.03.08-.03.16-.03.24 0-.08 0-.16.03-.24zm.02.53c-.02 0-.02 0-.05-.03v.03c.03.02.03.02.05 0zm-.05.2v-.18c-.08.03-.16.03-.26.06.13.05.26.07.26.13z"/><path fill="#DD3A0A" d="M78.71 33.97c-.05-1.03-.08-2.06-.18-3.09-.19-1.4-.37-2.82-.69-4.19a23.71 23.71 0 0 0-1.02-3.29c-.5-1.26-1-2.56-1.64-3.77-1.02-1.95-2.36-3.69-3.6-5.5-.82-1.17-1.87-2.11-2.66-3.3a8.08 8.08 0 0 0-1.76-1.79 45.64 45.64 0 0 0-3.27-2.35 32.53 32.53 0 0 0-2.58-1.63c-.7-.4-1.47-.71-2.2-1.06-.85-.4-1.67-.87-2.61-1.05-.24-.05-.45-.13-.69-.21-.6-.21-1.18-.45-1.79-.63-.92-.3-1.81-.64-2.76-.87a24.4 24.4 0 0 0-2.81-.53C47.39.56 46.32.5 45.26.4 44.58.32 43.9.24 43.24.2c-1-.05-2.03-.05-3.03-.07-.5-.03-1.03-.09-1.53-.06-.76.03-1.52.1-2.29.21-.73.08-1.47.21-2.18.32-.87.1-1.73.16-2.6.26-.82.1-1.66.27-2.48.4-.29.05-.58.16-.87.2-.63.14-1.28.2-1.92.4a34.19 34.19 0 0 0-6.36 2.56c-1 .55-1.95 1.21-2.9 1.85a31.55 31.55 0 0 0-5.05 4.06c-.42.41-.77.92-1.16 1.39-.66.77-1.32 1.5-1.95 2.3-.52.65-1 1.34-1.5 2.02-.9 1.21-1.65 2.5-2.36 3.8-.3.52-.56 1.05-.82 1.58-.4.79-.82 1.55-1.18 2.37a9.73 9.73 0 0 0-.64 1.76c-.36 1.3-.73 2.61-1.07 3.9a14.7 14.7 0 0 0-.42 3.56c-.03 1.06.07 2.08.18 3.14.03.26-.13.58.18.79-.1.29-.02.45.13.5-.18.29.08.47-.02.74-.03.05.08.16.13.24 0 .07-.03.18 0 .26.03.24.13.47.13.74 0 .18.16.4.21.58.03.07 0 .2-.05.26-.16.18-.13.34.1.45.14.34.08.5.06.66.05.23-.03.31 0 .37.2.42.29.9.31 1.37 0 .1.06.2.1.34.04 0 0 .5 0 .5.14-.08.25-.1.38-.16.08.34.16.66.26.95.13.21.13.32.08.34.1.48.16.92.34 1.37 0-.5-.05-1-.13-1.47.37.13.68.26.9.26L4.3 45c-.16-.15-.3-.4-.45-.55.05.21 0 .3 0 .37l-.37-.16c.1-.13.2-.26.37-.42 0-.24-.13-.45-.5-.42.16-.05.31-.13.5-.19.29-.15-.03-.44-.03-.81.03-.45-.24-.9-.31-1.37-.14-.74-.11-1.85-.19-2.58-.16-.14-.29.2-.31.23.08.64.15 1.27.2 1.9-.15-.53-.26-1.1-.39-1.74-.03.18-.05.26-.05.37-.13.13-.03.29.05.47-.18-.08-.4-.05-.4-.05v.74c-.26-.26-.33-.47-.47-.66l-.13-.63c.05-.13 0-.21 0-.29a15.97 15.97 0 0 1-.1-1.05c.2.02.34.05.47.05-.26-.34-.08-.56.03-.77.05-.1.24-.13.29-.24.2-.39.55-.7.55-1.2 0-.24.08-.5.1-.75.06-.44.11-.9.14-1.34.05-.58 0-1.16.13-1.71a29.39 29.39 0 0 1 1.47-4.72c.4-1.03.77-2.05 1.27-3.03.7-1.42 1.52-2.8 2.31-4.19.5-.87 1.03-1.69 1.58-2.53.53-.82 1.05-1.66 1.66-2.42a21.45 21.45 0 0 1 2.79-2.98c1.05-.95 2.05-1.92 3.18-2.8a31.98 31.98 0 0 1 4.69-3 35.9 35.9 0 0 1 4.13-1.8c.9-.34 1.87-.5 2.79-.78 1.05-.35 2.1-.5 3.2-.53.72-.03 1.4-.1 2.11-.19.64-.05 1.27-.1 1.95-.18-.08.1-.1.16-.13.21l-.9 1.27c-.23.34-.5.7-.73 1.05-.42.56-.87 1.1-1.27 1.69-.6.87-1.15 1.76-1.79 2.63-.63.85-1.31 1.64-1.97 2.45-.87 1.14-1.68 2.3-2.55 3.43-.8 1.08-1.63 2.11-2.4 3.19-.68.95-1.28 1.95-1.94 2.92l-2.92 4.33-2.32 3.29c-.05.08-.13.1-.2.16-.22.34-.22.52-.3.68-.2.4-.42.8-.66 1.16-.13.21-.31.4-.47.6-.03-.31.42-.47.2-.86l-.38.6-.32.63c.1.08.29.14.1.3l-.23.42a.95.95 0 0 0 .29-.27c0 .3-.16.53-.3.76-.1.21-.36.37-.54.53.02.03.2.1.23.13.24-.08.32-.2.35-.13.08-.1.15-.18.18-.26.1-.27.26-.48.52-.58.11-.05.19-.13.27-.21.79-.82 1.6-1.6 2.31-2.48 1.1-1.34 2.1-2.74 3.16-4.1.45-.59.98-1.17 1.45-1.72.08.6.03 1.18 0 1.74-.08.97-.13 1.95-.21 2.95-.03.4 0 .79-.03 1.18 0 .1-.08.19-.08.3 0 .26.08.55.08.81l-.26 2.9c-.03.2.07.42.13.6-.13 1.43.16 2.93-.08 4.43.18-.29.24-.47.24-.66.02-.15 0-.31 0-.5v-.26c.02-.48.13-.98.07-1.45a4.9 4.9 0 0 1 .06-1.53c.05-.2-.03-.47.1-.74v.4c-.02 1.5.03 3-.18 4.5-.03.14.08.37-.21.35-.24.47.05.81-.21 1.08-.05.05.05.29.08.44-.1.32-.1.32.05.35.02.58.08 1.1.1 1.66.42-1 .21-2.03.4-3.06.03.42.05.84.03 1.29 0 .69-.03 1.34-.06 2.03 0 .13-.02.26-.05.4-.08.37-.1.73-.24 1.08-.1.26-.05.66-.05.97v1c.1.45-.02.69.05.95-.08.27-.1.35-.08.42l.08.4c.53-.05.3.34.5.55-.15.22-.1.3-.1.4 0 .24-.03.45-.05.69 0 .6-.03 1.2-.03 1.79 0 .08.03.15.03.23l-.03.74c.05.08 0 .16-.08.24-.02 0-.1-3.35-.1-3.35h-.4c-.05 1.58.08 3-.2 4.48-.32.03-.43.08-.77.08-.82 0-1.63 0-2.45.03l-2.9.02c-.47 0-.97.06-1.44.06-.63 0-1.3-.08-1.92-.08-.98 0-1.92.08-2.9.1-.7.03-1.42.03-2.13.06-.47.02-.95.05-1.42.1-.2.03-.4.1-.66.18-.08 0-.26-.02-.42 0-.26.06-.5.21-.76.27-.4.08-.5.18-.45.58v.26c-.03.05.58-.08.58-.08-.05 0-.08.16-.16.29l.48-.18c.39.18.73.08 1.05.16 1.02.26 2.08.37 3.13.47.68.05 1.34.08 2.02.1.98.06 1.95.11 2.92.11.82 0 1.61-.08 2.42-.08 1.13 0 2.27.05 3.4.08.24 0 .5-.03.76-.03h1.92l5.14-.13c.97-.03 1.97-.08 2.94-.1l3-.08c1.16-.03 2.32-.03 3.45-.05.87 0 1.71-.03 2.58-.06.97-.03 1.97-.1 2.95-.16.52-.02 1.05-.08 1.58-.13.63-.05 1.29-.13 1.92-.16l2.87-.13c1.18-.08 2.36-.18 3.57-.2 1.11-.06 2.24-.03 3.35-.06.97-.03 1.95-.08 2.95-.1l1.66-.09s1.1-.02 1.65-.08c.95-.05 1.9-.15 2.85-.18.6-.03 1.2 0 1.81-.03.97-.02 1.97-.08 2.95-.08.36 0 .76.06 1.23.08-.2.19-.34.3-.5.43.1.02.21.08.32.13a.71.71 0 0 1-.42.13c-.05.13-.1.18-.16.45h.47c-.18 0-.34.23-.52.4-.21-.06-.4 0-.5.28.18.1.16.19.13.3-.32.1-.55.2-.42.54-.1.06-.24.1-.37.19-.13.2-.37.26-.32.55l.3.1c-.14.06-.27.14-.4.19-.47.29-.26.42-.16.55-.08.06-.16.1-.24.14.06.23.13.29.16.29l-.4.31c-.07.24-.18.34-.28.5-.1.16-.16.37-.3.53-.55.6-.94 1.32-1.65 1.8-.26.18-.5.41-.74.65-.47.45-.9.95-1.4 1.37a29.6 29.6 0 0 1-2.04 1.56l-2.6 1.79c-.48.31-1 .55-1.5.84l-1.48.84c-.32.21-.6.5-.95.66-.87.37-1.8.69-2.68 1.03-.87.37-1.5.69-2.16.92-.6.21-1.24.37-1.87.5-.21.06-.45 0-.69.03-.44.08-.9.19-1.34.24-1.16.16-2.31.26-3.47.42-.69.08-1.34.2-2.03.29-.47.03-.97-.03-1.45-.03-.34 0-.7.08-1.05.03-.55-.08-1.1-.21-1.66-.32-.13-.02-.31-.08-.42-.02-.2.1-.4-.05-.6 0-.13.03-.27-.08-.4-.08-.1-.03-.24.03-.37 0-.29-.08-.55-.18-.87-.16-.31.03-.63-.13-.97-.2l-1.4-.33a2.38 2.38 0 0 1-.52-.23 4.3 4.3 0 0 1-1.55-.19c-.37-.13-.71-.31-1.1-.26-.11.03-.2-.03-.3-.03-.08-.1-.15-.31-.23-.31-.53.02-.84-.42-1.3-.56-.23-.08-.41-.34-.65-.42-.58-.23-1.05-.73-1.71-.81-.21-.03-.42-.14-.66-.21.08.1.13.18.21.26-.76-.37-1.47-.8-2.18-1.19-.1-.02-.18-.13-.26-.18l-.71-.48c-.4.08-.56-.08-.66-.13-.71-.5-1.53-.81-2.21-1.37-.3-.24-.63-.4-.84-.68a4.16 4.16 0 0 0-1.32-1.03c-.4-.21-.76-.45-1.13-.69-.19-.13-.37-.29-.37-.58 0-.18-.08-.37-.32-.26-.1-.16-.2-.34-.34-.4-.31-.12-.52-.36-.76-.57-.24-.21-.42-.5-.71-.61-.53-.21-.84-.66-1.16-1.03-.74-.87-1.4-1.82-2.08-2.74-.05-.08-.16-.13-.24-.2.1.28.24.52.37.78-.26-.1-.44-.29-.6-.47-.03.02 1.81 3.05 1.81 3.05l.45.72a.81.81 0 0 1-.79-.43c-.23-.42-.5-.68-1.02-.63-.06-.18-.11-.4-.13-.58-.11 0-.19 0-.37-.02.37.58.68 1.08 1.02 1.66l-.26-.16c.47.5.81 1.13 1.42 1.45.13.6.81.9.97 1.47l-.37-.08c-.2-.26-.45-.52-.68-.81.05.18.13.34.23.47.32.4.61.8.98 1.14.13.13.31.18.31.42.21.1.3.13.37.13.06.16-.02.4.3.34.2.4.41.4.7.27.35.34.53.37.77.16l.02.37c.1-.06.08-.14.08-.27l.26.21c.27.37.5.71.87 1 .5.43.95.87 1.42 1.27.92.76 1.95 1.4 2.98 1.98 1.26.7 2.47 1.47 3.76 2.16 1.55.81 3.21 1.37 4.92 1.76.63.13 1.24.27 1.87.42.55.16 1.1.4 1.66.53.84.19 1.7.34 2.55.5l.58.08c.24.05.52-.05.58.03.13.2.23.1.4.08.18-.06.39-.06.6-.06.73.03 1.44.19 2.18.13.16 0 .4-.13.53.13.24-.1.37-.1.47-.13.03.24 0 .24-.05.27-.05.02-.13.05-.24.13.95.18 1.85.2 2.63 0 1.37.1 2.56-.05 3.69-.45.1.13.18.32.34.05.05-.08.19-.1.3-.13.23-.05.52-.16.73-.08.24.08.32-.13.5-.13.32 0 .6-.03.9-.08.15-.03.31-.1.5-.16-.22-.1-.43-.13-.59-.13.32-.16.61-.3.9-.42-.05.08-.1.18-.21.18h.37c-.08 0-.19.24-.32.4l2.66-.66c-.3-.55.31-.37.52-.69-.26.08-.52.16-.79.21.9-.44 1.82-.84 2.71-1.23-.13.15-.29.23-.52.37.16.02.26.02.34.05.42.13.32-.27.45-.5.5 0 .7-.08.95-.16.26-.08.52-.16.79-.26.42-.19.81-.42 1.23-.63.08-.03.21 0 .32 0 .29-.2.4-.35.47-.32.37.05.63-.08.74-.42.18-.14.31-.24.44-.32l1.71-.95c.21 0 .32 0 .37-.03.35-.16.66-.34.98-.52a2.26 2.26 0 0 1-.27-.13c.27-.06.34-.08.5-.14.63-.74 1.5-1.24 2.16-1.82.29-.02.29-.1.29-.15.1-.13.21-.3.34-.4.58-.53 1.21-.97 1.74-1.53.76-.76 1.5-1.55 2.18-2.37.63-.74 1.27-1.48 1.8-2.3.73-1.13 1.36-2.29 2.02-3.47.47-.84.9-1.69 1.37-2.53.05-.08.15-.19.23-.19.71-.08 1.43-.13 2.1-.2.17-.03.35-.14.5-.22-.07-.13-.12-.29-.2-.42-.1-.16-.26-.29-.37-.45-.1-.13-.18-.29-.26-.44l-.24-.37a9.57 9.57 0 0 1-.45-.9c-.03-.08-.08-.2-.05-.29.47-1.03.66-2.13 1.1-3.16.45-1.05.58-2.24.8-3.37.18-1.08.28-2.16.41-3.24.08-.77.19-1.5.21-2.27.16-1.21.1-2.35.08-3.48-.02-1-.08-2.03-.13-3.03zM12.69 66.4c-.19-.21-.35-.45-.53-.66l.08-.08c.29.31.58.63.87.97-.16-.08-.35-.13-.42-.23zm.42.23c.08-.02.16-.02.23-.05.08.13.14.29.21.45-.36-.03-.55-.19-.44-.4zm27.37 10.89v-.08l1.47-.16v.08c-.5.08-.98.13-1.48.15zm6.63-.69c-.37.08-.77.13-1.13.19-.14.02-.3.15-.35-.08-.05.02-.1.02-.15.05.13.4.44.08.7.24-.57.08-1.12.13-1.68.2v-.04l.5-.09v-.07a7.7 7.7 0 0 0-.79-.06c-.08 0-.18.11-.26.14-.1.02-.21.05-.34.05-.45.02-.9.02-1.32.05l-.1-.02v-.08l5.26-.71c.02.05.02.1.05.15-.16 0-.26.06-.4.08zm.4-.26 1.73-.21c-1.21.34-1.6.4-1.74.2zm-22.93-53.2c.84-1.17 1.71-2.33 2.55-3.51.26-.35.47-.72.74-1.06.08-.1.18-.16.31-.26l-.02-.05c.1-.13.2-.24.26-.35.13-.2.21-.44.32-.68.03-.05.1-.1.1-.1.37.18.37-.21.5-.35.24-.26.48-.55.69-.81.16-.21.31-.4.45-.64.02-.08-.06-.2-.08-.31h-.08c.08-.05.16-.13.24-.19l.05-.02c.16-.24.31-.48.47-.69.32-.42.66-.84 1.03-1.2-.06.12-.1.25-.16.36.03 0 .03.03.05.03.32-.43.66-.82.97-1.24-.02-.03-.05-.06-.08-.06l-.36.4c-.03-.03-.06-.05-.08-.05.26-.35.52-.69.79-1.08l.2.4c.11-.27.22-.45.3-.64l-.27.24-.08-.08.48-.71 1.5-2.16c.18-.27.42-.48.58-.74.5-1 1.29-1.8 1.9-2.72.12-.18.3-.34.47-.5.13-.16.23-.1.34.03l2.13 2.71c.53.66 1.05 1.3 1.55 1.98.6.84 1.19 1.69 1.8 2.53.68.98 1.36 1.95 2.02 2.95 1 1.48 1.95 2.95 2.95 4.43.73 1.08 1.47 2.13 2.18 3.21h-1.34c-1.24-.02-2.5-.13-3.74-.07-1.68.08-3.4.26-5.08.4-2.13.18-4.29.2-6.42.2-.76 0-1.53.1-2.29.16-.92.05-1.82.1-2.74.13-1.08.06-2.13.08-3.2.1-.61.03-1.24 0-1.9 0zm30.18 12.11v.24c-.02 0-.05.03-.1.03-.1-.37-.21-.77-.34-1.14a8.85 8.85 0 0 0-1.03-2.21c-.53-.74-1-1.5-1.53-2.27-.13-.18-.31-.34-.47-.5-.56-.6-1.1-1.24-1.82-1.68a21.49 21.49 0 0 0-3.29-1.69 8.9 8.9 0 0 1-.92-.47h.63l4.5-.08c.98-.03 1.92-.03 2.9-.08.23 0 .36.08.5.29.23.4.47.79.73 1.18.03.06.08.13.08.21 0 .58 0 1.19.03 1.77.02.6.08 1.19.1 1.8 0 .6-.05 1.23-.02 1.86.02.9.05 1.82.05 2.74zm-28.31-8.82c1.23-.05 2.42-.13 3.63-.18.94-.06 1.92-.08 2.87-.14.39-.02.76-.05 1.15 0-.42.22-.84.43-1.2.69-.48.32-.93.74-1.4 1.08-.48.34-.9.76-1.3 1.21-.5.6-1.04 1.13-1.57 1.71-.37.43-.8.82-1.1 1.27-.45.58-.85 1.2-1.27 1.87.13-2.5.29-4.98.18-7.51zm17.18 25.35c-.84.21-1.7.45-2.58.55-.73.1-1.5.08-2.26.08-.69 0-1.34-.02-2.03-.08a6.82 6.82 0 0 1-2.26-.5c-.63-.29-1.3-.55-1.92-.87a5.08 5.08 0 0 1-1.74-1.26c-.34-.42-.82-.77-1.24-1.13.08.31.27.57.56.76-.14.16-.32.08-.58-.34-.08.05-.16.08-.21.1.08-.18.15-.37.23-.52-.1-.22-.23-.45-.34-.67-.21-.34-.42-.7-.6-1.05-.06-.08-.06-.16-.11-.23a5.9 5.9 0 0 1-.37-.48c-.21-.32-.4-.66-.66-.97 0 .08.03.15.03.26-.03 0-.05.03-.05.03l-.56-1.35c-.02 0-.02 0-.05.03l.47 1.74-.08.02c-.07-.1-.15-.2-.2-.34-.06-.2-.22-.2-.35-.13-.08.05-.13.24-.1.32.18.44.4.9.6 1.34.06.16.1.29.19.45.03.05.1.1.1.18.11.21.19.42.32.6l.74.96c.23.31.44.66.65.97.03.05.1.05.13.08.14.4.58.69.9.53.08.6.74.81 1 1.4-.32-.14-.55-.24-.76-.35-.03.03-.03.05-.06.1.32.16.63.32.92.5.27.17.53.32.77.5.31.3.68.46 1.13.56a.28.28 0 0 0-.05-.1c.73.34 1.5.7 2.08 1l-8.69.15c0-.5-.03-.97-.03-1.47 0-.21.06-.4.03-.6-.08-1.22-.08-2.43-.24-3.62a27.9 27.9 0 0 1-.13-3.77c.03-.68-.02-1.4-.05-2.08 0-.92 0-1.82.03-2.74 0-.13.05-.24.1-.37h.08c.03.06 0 .13.05.16.08.08.21.21.27.19.15-.11.4-.22.44-.38.13-.31.19-.65.19-.97 0-.23.1-.4.2-.55.06-.08.09-.16.14-.26l-.34-.24c.1-.3.08-.63.47-.8.06-.02.06-.15.08-.23l.08-.66c.05.08.08.1.13.16a.42.42 0 0 1 .06-.08c0-.1-.03-.32 0-.32.31-.05.18-.4.34-.55.02-.03-.03-.1-.03-.16 0-.05 0-.13.03-.13.36-.08.31-.48.55-.66.08-.05.1-.13.2-.26.22.36-.15.55-.17.81.44-.26.57-.9.31-1.08.1-.08.21-.18.29-.29.29-.31.6-.6.87-.92.18-.24.29-.53.47-.76.1-.13.32-.24.48-.32a3.2 3.2 0 0 0 1.2-1l.22-.16c.08-.05.23-.05.26-.13.03-.05-.05-.18-.1-.26.1-.06.2-.16.42-.27l-.16.37.13.13c.24-.18.6-.4.84-.55a.8.8 0 0 0-.13-.13l-.63.32c.05-.08.05-.13.08-.16a9.8 9.8 0 0 1 1.13-.66c.92-.42 1.84-.84 2.76-1.24.16-.08.37-.02.55-.02.08 0 .13 0 .21-.03.42-.13.85-.26 1.27-.37.18-.05.39-.08.58-.08.78.03 1.57.03 2.36.08.35.03.66.1.98.21a9.88 9.88 0 0 1 2.47 1.3c.76.5 1.47 1.05 2.24 1.5a5.93 5.93 0 0 1 1.79 1.73c.58.82 1.23 1.56 1.5 2.56l.4 1.74c.07.32.25.63.18 1-.14.66-.24 1.34-.35 2-.05.27-.1.53-.08.8.05.81-.26 1.52-.58 2.26-.1.24-.26.48-.39.74.03.03.18.1.21.1l.24-.47c.02 0 .02 0 .05.03l-.37 1.13a24.9 24.9 0 0 1-1.03 2.45c-.2.45-.58.82-.84 1.24-.26.37-.47.76-.73 1.1-.24.3-.48.59-.8.8-.7.52-1.44 1.05-2.2 1.47-.48.3-1.03.45-1.56.58zm-14.03-1.4-.02.03c-.06-.03-.14-.05-.19-.1l-.63-.96c-.05-.08-.08-.15-.05-.26.29.45.58.87.9 1.29zm16.37 3.61c1.19-.5 2.16-1.21 3.05-2.03.14-.13.27-.26.43-.37a9.22 9.22 0 0 0 2.65-2.68c.85-1.22 1.4-2.59 2.08-3.88l.16-.29c-.05 3 .3 5.96.69 8.94l-9.06.31zm26.69-.79c-.03.05-.08.1-.1.16-.03-.05-.03-.13-.06-.24-.16.42-.5.21-.74.21-1.42.03-2.87.03-4.29.03-1.37 0-2.76 0-4.13.02-.45 0-.92.1-1.37.14-1.08.05-2.15.08-3.23.1-.08 0-.16-.13-.3-.24a.88.88 0 0 1-.15.24l-.13-.18-.08.2H58c-.05-.36-.16-.7-.16-1.07 0-.8.08-1.58.1-2.37.03-.37 0-.71 0-1.06l.3.21.15-.26-.1-.08c.05-.02.1-.08.1-.1.03-.08.08-.16.08-.21 0-.19-.05-.35-.08-.5.03 0 .05 0 .08-.03l.16.79h.08c-.1-.18.24-.34-.05-.55-.03-.03.02-.19.02-.27-.08-.15-.13-.31-.2-.52.02-.03.1-.06.18-.08-.1-.06-.19-.1-.27-.13.27-.24.27-.37.03-.64.05-.02.1-.02.1-.05 0-.23 0-.47-.05-.7-.05-.27.08-.59-.31-.75.02.08.05.14.1.21l-.16.08c-.34-.31-.13-.74-.2-1.21.18.05.31.1.44.16-.05-.19-.18-.4-.26-.63h-.1v-1.74c0 .02.18.02.28.05 0-.03.03-.05.03-.08l-.3-.34.06-.06c-.21-.26-.1-.63-.1-.7V39.4c.26.26-.14.6.26.76v-.26h-.03c-.02-.4-.02-.79-.05-1.18h-.05l-.06.13h-.05l.16-6.3c.26.34.55.66.74 1 .6 1.1 1.4 2.06 2.13 3.06.63.87 1.2 1.82 1.79 2.71l2.1 3.24a62.6 62.6 0 0 0 3.19 4.51c.44.6.92 1.21 1.36 1.82l1.58 2.19.84 1.1c.16.21.4.37.56.5l-.1-.02c.07.1.12.18.18.23.29.16.31.32.16.56zM74 46.85v-.18c0 .05.03.13 0 .18zm.9-11.62c-.03 0-.19-.16-.22-.18-.02.08 0 .16-.05.26-.02-.08-.2-.05-.2-.13-.03.37.15.74.12 1.1.08-.04.4-.07.48-.15a.2.2 0 0 0 .1.05c-.52.4-.4.8-.16 1.24.06.1.21.32.06.53-.06.05.02.2.05.34h.08v.05l-.24.08c-.05-.08-.37-.23-.37-.37v1.35c.27.08.27.45.37.63a.79.79 0 0 0 .1-.21l.03.02c-.02.16-.05.32-.1.48-.05.24-.1.45-.13.68 0 .03.05.08.05.1-.29.67-.13 1.4-.24 2.09-.08.5 0 1.03-.05 1.55-.05.45-.16.93-.26 1.37-.03.08-.08.1-.21.16.05-.31.02-.53-.03-.82-.03 0-.37-.18-.4-.18 0 .37.21.87.3 1.3-.09-.04-.4-.22-.43-.22-.05.32-.05.74-.08 1.08-.02.26-.26.5-.29.8 0 .15.19.25.16.52h.21c0-.53.24-1 .24-1.56h.08c.02.06.1.11.08.14-.06.29-.16.6-.14.9 0 .15.13.3.08.5-.05.15-.08.31-.1.55-.03-.14-.06-.19-.06-.27l-.29-.02c-.02.15.19.31.16.44-.02.03-.05.03-.1.06l-.87-1.27c-.69-1-1.37-2-2.05-3.03a6.31 6.31 0 0 1-.48-.79 36.95 36.95 0 0 0-2.71-4.03c-.76-.98-1.37-2.03-2.08-3.06l-1.97-2.9c-.24-.31-.53-.6-.74-.94-.68-1.08-1.29-2.2-1.97-3.27-.58-.9-1.21-1.77-1.82-2.64l-.63-.92a.37.37 0 0 1-.05-.18c-.05-.58-.1-1.16-.13-1.72 0-.52.05-1.05.05-1.6v-.48c0-.13.03-.23.03-.37l.07-.1c-.76 0-1.55-.03-2.31 0-.5.02-.77-.19-1.1-.56-1-1.13-1.74-2.42-2.61-3.63a177.5 177.5 0 0 0-2.5-3.43l-2.06-2.74c-.76-1.05-1.5-2.1-2.29-3.16-.94-1.27-1.92-2.53-2.9-3.8-.44-.58-.94-1.13-1.44-1.74.34.06.66.11.97.14l1.27.08c.95.07 1.9.13 2.84.26.79.1 1.58.26 2.4.4 1.73.28 3.44.76 5.1 1.31.97.32 1.92.74 2.87 1.13a59.6 59.6 0 0 1 6.16 3.03c.63.35 1 .9 1.47 1.4.68.71 1.37 1.42 2.03 2.16.76.87 1.47 1.77 2.2 2.66.66.8 1.35 1.58 2 2.38.22.23.38.52.56.79.42.63.9 1.24 1.26 1.92.26.5.42 1.08.6 1.63l.8 2.43c.18.6.34 1.24.47 1.87.1.42.08.87.2 1.29.17.55 0 1.16.17 1.71l.07.19c.11.1.19.2.03.37-.02.02-.02.13 0 .2.06-.05.08-.1.13-.18 0 .06.03.08.03.1 0 .11-.03.22 0 .32 0 .05.05.13.08.19.05-.06.1-.08.2-.16.24.9.27 1.79.27 2.71 0 .87.16 1.74-.2 2.58.07-.29-.12-.55-.04-.81z"/><path fill="#DD3735" d="M58.08 45.48c.03 0 .05.03.05.03l-.03-.03c0-.03 0-.03-.02 0zm4.16 26.04c-.3.2-.58.4-.95.47-.03-.02-.03-.05-.06-.08l.9-.55c.03.05.08.1.1.16zM12.89 35.8c.3-.37.58-.74.9-1.1.02.02.23.08.26.1l-.97 1.26c-.06-.05-.14-.23-.19-.26zM5.42 48.72l-.63-1.36a.86.86 0 0 1 .24-.11c.29.42.42.92.63 1.37 0 0-.21.1-.24.1zm6.71-12.64c-.16.23-.31.5-.47.74-.03-.03-.32.1-.34.07.15-.23.55-.66.7-.9l.11.09zm47.3 36.52c.02 0 .02-.03.04-.03.19.03.4.06.6.06-.34.23-.55.2-.65-.03zM12.17 37.18c.03-.08.08-.16.13-.24l.13-.02c.11-.19.11-.32.22-.48-.03-.02-.06-.02-.08-.05-.16.1-.32.24-.48.35.06.05.06.08.06.13-.21-.03-.3.08-.4.37-.02.08-.16.1-.29.2-.02.06-.05.2-.1.32l.02.03c-.05.05-.13.08-.13.08-.16.16-.34.3-.5.45-.02.08-.05.16-.05.23.18-.18.5-.52.74-.73l.02.02.3-.47.05.08-.24.66c-.06.02-.14.08-.14.05-.1.08-.18.18-.29.26l-.47.32c-.26.24-.52.45-.81.68l-.58.9c.31-.08.4.05.37.32.36.05.4-.24.5-.45.02-.05.05-.16.1-.19l.76-.6c.06-.05.06-.16.06-.24 0-.03-.14-.03-.22-.05.24-.27.58-.71.82-1 .13-.08.26-.19.26-.27-.02-.29.16-.37.37-.47-.1-.08-.13-.16-.13-.18z"/><path fill="#DD3735" d="m12.71 36.9-.32.52-.15-.08c-.1.6-.48 1.13-.84 1.24.1.05.2.1.29.08.07-.03.13-.16.18-.24l.7-1.03.25-.4-.1-.1zM3.95 48.45c.13 0 .26.03.42.03 0-.1.13-.08.13-.19h.08c0 .13.03.24.03.37h-.56c-.02-.02-.13-.18-.1-.21zm-.21-1.21c-.08-.08-.21-.16-.21-.24-.03-.1.05-.23.13-.37l.13.53c-.03.03-.05.05-.05.08zm.66-1.69c.1.27.2.56.31.82a.82.82 0 0 0-.2.1l-.35-.81c.03-.03.18-.1.24-.1zm58.58 25.2c.13-.06.28-.09.5-.14-.24.19-.43.32-.58.48-.03-.03-.06-.05-.08-.05l.16-.3zM30.63 15.06l.45-.29.05.06c-.16.2-.3.42-.48.68-.02-.18-.02-.29-.05-.42-.03 0 0 0 .03-.03zm7.71 13.34.76-.35c-.02.16-.02.27-.02.37a.93.93 0 0 0-.27-.05c-.16.03-.45.24-.58.26-.02 0 .1-.2.1-.23zm19.74 22.34c.05.27.55.4.05.66.08.06.16.08.24.14a.2.2 0 0 1-.05.1c-.06.03-.16.08-.21.05-.03 0-.08-.1-.08-.16 0-.23.02-.47.05-.79z"/></g></svg>