<svg xmlns="http://www.w3.org/2000/svg" viewBox="0 0 1416.8 445.5"><path stroke="#000" stroke-width="37.395" d="M323.175 324.211c2.833-23.601 1.984-27.062 19.563-23.239l4.463.392c13.517.615 31.199-2.174 41.587-7 22.362-10.376 35.622-27.7 13.572-23.148-50.297 10.376-53.755-6.655-53.755-6.655 53.111-78.803 75.313-178.836 56.149-203.322-52.27-66.789-142.748-35.206-144.262-34.386l-.482.089c-9.938-2.062-21.06-3.294-33.554-3.496-22.761-.374-40.032 5.967-53.133 15.904 0 0-161.408-66.498-153.899 83.628 1.597 31.936 45.777 241.655 98.47 178.31 19.259-23.163 37.871-42.748 37.871-42.748 9.242 6.14 20.307 9.272 31.912 8.147l.897-.765c-.281 2.876-.157 5.689.359 9.019-13.572 15.167-9.584 17.83-36.723 23.416-27.457 5.659-11.326 15.734-.797 18.367 12.768 3.193 42.305 7.716 62.268-20.224l-.795 3.188c5.325 4.26 4.965 30.619 5.72 49.452.756 18.834 2.017 36.409 5.856 46.771 3.839 10.36 8.369 37.05 44.036 29.406 29.809-6.388 52.6-15.582 54.677-101.107"/><path fill="#336791" d="M402.365 271.214c-50.302 10.376-53.76-6.655-53.76-6.655 53.111-78.808 75.313-178.843 56.153-203.326-52.27-66.785-142.752-35.2-144.262-34.38l-.486.087c-9.938-2.063-21.06-3.292-33.56-3.496-22.761-.373-40.026 5.967-53.127 15.902 0 0-161.411-66.495-153.904 83.63 1.597 31.938 45.776 241.657 98.471 178.312 19.26-23.163 37.869-42.748 37.869-42.748 9.243 6.14 20.308 9.272 31.908 8.147l.901-.765c-.28 2.876-.152 5.689.361 9.019-13.575 15.167-9.586 17.83-36.723 23.416-27.459 5.659-11.328 15.734-.796 18.367 12.768 3.193 42.307 7.716 62.266-20.224l-.796 3.188c5.319 4.26 9.054 27.711 8.428 48.969s-1.044 35.854 3.147 47.254 8.368 37.05 44.042 29.406c29.809-6.388 45.256-22.942 47.405-50.555 1.525-19.631 4.976-16.729 5.194-34.28l2.768-8.309c3.192-26.611.507-35.196 18.872-31.203l4.463.392c13.517.615 31.208-2.174 41.591-7 22.358-10.376 35.618-27.7 13.573-23.148z"/><path fill="none" stroke="#fff" stroke-linecap="round" stroke-linejoin="round" stroke-width="12.465" d="M215.836 286.468c-1.385 49.516.348 99.377 5.193 111.495 4.848 12.118 15.223 35.688 50.9 28.045 29.806-6.39 40.651-18.756 45.357-46.051 3.466-20.082 10.148-75.854 11.005-87.281M173.074 38.24S11.553-27.776 19.062 122.349c1.597 31.938 45.779 241.664 98.473 178.316 19.256-23.166 36.671-41.335 36.671-41.335M260.319 26.191c-5.591 1.753 89.848-34.889 144.087 34.417 19.159 24.484-3.043 124.519-56.153 203.329"/><path fill="none" stroke="#fff" stroke-linecap="round" stroke-linejoin="bevel" stroke-width="12.465" d="M348.252 263.937s3.461 17.036 53.764 6.653c22.04-4.552 8.776 12.774-13.577 23.155-18.345 8.514-59.474 10.696-60.146-1.069-1.729-30.355 21.647-21.133 19.96-28.739-1.525-6.85-11.979-13.573-18.894-30.338-6.037-14.633-82.796-126.849 21.287-110.183 3.813-.789-27.146-99.002-124.553-100.599-97.385-1.597-94.19 119.762-94.19 119.762"/><path fill="none" stroke="#fff" stroke-linecap="round" stroke-linejoin="round" stroke-width="12.465" d="M188.574 274.318c-13.577 15.166-9.584 17.829-36.723 23.417-27.459 5.66-11.326 15.733-.797 18.365 12.768 3.195 42.307 7.718 62.266-20.229 6.078-8.509-.036-22.086-8.385-25.547-4.034-1.671-9.428-3.765-16.361 3.994"/><path fill="none" stroke="#fff" stroke-linecap="round" stroke-linejoin="round" stroke-width="12.465" d="M187.685 274.053c-1.368-8.917 2.93-19.528 7.536-31.942 6.922-18.626 22.893-37.255 10.117-96.339-9.523-44.029-73.396-9.163-73.436-3.193-.039 5.968 2.889 30.26-1.067 58.548-5.162 36.913 23.488 68.132 56.479 64.938"/><path fill="#fff" stroke="#fff" stroke-width="4.155" d="M172.487 141.684c-.288 2.039 3.733 7.48 8.976 8.207 5.234.73 9.714-3.522 9.998-5.559.284-2.039-3.732-4.285-8.977-5.015-5.237-.731-9.719.333-9.996 2.367z"/><path fill="#fff" stroke="#fff" stroke-width="2.078" d="M331.911 137.527c.284 2.039-3.732 7.48-8.976 8.207-5.238.73-9.718-3.522-10.005-5.559-.277-2.039 3.74-4.285 8.979-5.015s9.718.333 10.002 2.368z"/><path fill="none" stroke="#fff" stroke-linecap="round" stroke-linejoin="round" stroke-width="12.465" d="M350.646 123.416c.863 15.994-3.445 26.888-3.988 43.914-.804 24.748 11.799 53.074-7.191 81.435"/><path fill="#fff" d="M503.964 133.681c8.155-1.357 18.819-2.523 32.409-2.523 16.677 0 28.907 3.882 36.669 10.867 7.178 6.206 11.447 15.714 11.447 27.362 0 11.836-3.499 21.148-10.097 27.939-8.925 9.506-23.475 14.357-39.968 14.357-5.043 0-9.701-.193-13.574-1.163v52.392h-16.886zm16.886 63.056c3.686.969 8.345 1.356 13.97 1.356 20.365 0 32.79-9.894 32.79-27.937 0-17.267-12.224-25.611-30.85-25.611-7.372 0-13 .583-15.91 1.359zm165.884 18.432c0 34.729-24.065 49.869-46.764 49.869-25.417 0-45.013-18.626-45.013-48.319 0-31.43 20.566-49.862 46.566-49.862 26.975-.007 45.211 19.596 45.211 48.312m-74.501.97c0 20.565 11.835 36.086 28.521 36.086 16.296 0 28.513-15.327 28.513-36.476 0-15.909-7.948-36.086-28.133-36.086-20.186 0-28.901 18.626-28.901 36.476m93.703 29.297c5.045 3.296 13.97 6.789 22.505 6.789 12.417 0 18.239-6.209 18.239-13.968 0-8.151-4.845-12.613-17.462-17.269-16.88-6.015-24.835-15.327-24.835-26.581 0-15.133 12.224-27.55 32.402-27.55 9.506 0 17.857 2.716 23.096 5.822l-4.269 12.417c-3.686-2.329-10.478-5.433-19.209-5.433-10.088 0-15.714 5.82-15.714 12.805 0 7.761 5.633 11.254 17.857 15.909 16.296 6.209 24.641 14.357 24.641 28.327 0 16.491-12.807 28.131-35.119 28.131-10.281 0-19.789-2.52-26.387-6.402zm99.732-103.421v26.971h24.438v12.997h-24.438v50.639c0 11.641 3.292 18.239 12.804 18.239 4.462 0 7.761-.583 9.897-1.166l.774 12.807c-3.29 1.357-8.536 2.326-15.124 2.326-7.955 0-14.366-2.522-18.439-7.178-4.843-5.043-6.598-13.387-6.598-24.445v-51.222h-14.551v-12.997h14.551v-22.508zm123.395 26.978c-.396 6.789-.776 14.356-.776 25.804v54.518c0 21.536-4.269 34.729-13.387 42.884-9.118 8.538-22.312 11.254-34.149 11.254-11.251 0-23.668-2.716-31.243-7.761l4.269-12.998c6.208 3.88 15.91 7.372 27.55 7.372 17.46 0 30.267-9.118 30.267-32.789v-10.478h-.389c-5.237 8.732-15.327 15.717-29.878 15.717-23.281 0-39.967-19.79-39.967-45.797 0-31.817 20.759-49.862 42.294-49.862 16.306 0 25.231 8.538 29.306 16.299h.387l.777-14.163zm-17.655 37.055c0-2.909-.194-5.432-.97-7.759-3.106-9.894-11.448-18.045-23.865-18.045-16.306 0-27.937 13.776-27.937 35.505 0 18.433 9.311 33.76 27.744 33.76 10.477 0 19.982-6.596 23.668-17.461.97-2.911 1.367-6.208 1.367-9.12v-16.88zm44.033-7.759c0-11.06-.193-20.565-.776-29.296h14.947l.576 18.429h.776c4.267-12.61 14.55-20.565 25.998-20.565 1.94 0 3.288.196 4.838.583v16.103c-1.73-.387-3.488-.583-5.808-.583-12.03 0-20.575 9.121-22.895 21.925-.387 2.329-.776 5.045-.776 7.955v50.056h-16.88zm71.019 20.759c.39 23.089 15.13 32.596 32.2 32.596 12.23 0 19.59-2.135 26-4.852l2.91 12.224c-6.02 2.716-16.3 5.819-31.24 5.819-28.91 0-46.18-19.012-46.18-47.339s16.69-50.646 44.05-50.646c30.65 0 38.8 26.968 38.8 44.237 0 3.492-.39 6.208-.58 7.954h-65.96zm50.06-12.223c.18-10.865-4.47-27.744-23.67-27.744-17.27 0-24.84 15.909-26.2 27.744z"/><path fill="#336791" d="M1112.4 242.33c7.57 4.656 18.63 8.538 30.27 8.538 17.27 0 27.35-9.118 27.35-22.312 0-12.224-6.98-19.209-24.64-26-21.34-7.566-34.53-18.624-34.53-37.056 0-20.372 16.88-35.505 42.29-35.505 13.39 0 23.08 3.103 28.91 6.402l-4.65 13.776c-4.28-2.329-13-6.208-24.84-6.208-17.85 0-24.64 10.671-24.64 19.595 0 12.222 7.95 18.237 26 25.222 22.12 8.544 33.37 19.208 33.37 38.415 0 20.178-14.95 37.638-45.79 37.638-12.61 0-26.38-3.686-33.38-8.341zm205.86 39.774c-17.68-4.656-34.93-9.894-50.09-15.133-2.69-.97-5.39-1.94-7.94-1.94-31.04-1.165-57.62-24.058-57.62-66.161 0-41.908 25.61-68.875 60.94-68.875 35.5 0 58.57 27.55 58.57 66.159 0 33.565-15.5 55.101-37.23 62.669v.776c12.99 3.297 27.17 6.402 38.21 8.342zm-13.98-85.174c0-26.191-13.57-53.168-41.32-53.168-28.52 0-42.5 26.387-42.3 54.721-.2 27.744 15.14 52.772 41.52 52.772 26.98 0 42.1-24.445 42.1-54.325m39.77-64.802h16.87v116.604h55.89v14.164h-72.76z"/></svg>