<svg xmlns="http://www.w3.org/2000/svg" viewBox="0 0 2048 2048"><path fill="#1f2223" d="M849.698 475.824c41.409.917 85.138.189 126.682.178l233.7-.026c48.94-.015 101.36-.92 149.75.896 67.96 2.549 146.05 21.421 192.18 74.314 56.76 65.078 62.63 151.287 60.97 233.357-.56 27.473.53 54.204-1.18 82.01-4.59 79.225-31.8 161.977-104.24 204.207-64.45 37.58-135.93 37.2-207.73 37.18l-113.55-.05-372.392.02c-30.744-.08-65.786-1.91-96.012 2.21-35.05 4.78-40.995 43.31-40.437 72.82.822 43.56-3.377 90.83 3.595 134.05 6.823 39.59 60.856 34.94 90.83 34.97l73.142.08c-1.165-68.36.42-138.53-.181-207.21 59.225-.7 123.24 1.66 181.945-.65-1.29 9.27-.74 33.98-.74 43.95l.06 86.01-.05 287.11c-.12 1.36.06.55-1.01 2.29-6.09.87-27.396.21-34.366.15q-32.917-.285-65.835-.18l-129.118-.02c-97.081.1-203.037 2.22-273.211-78.56-43.325-49.86-57.733-116.3-61.246-180.6-1.023-18.72.113-38.02-.338-56.79-2.926-101.53 6.468-227.2 100.622-288.212 62.291-40.362 139.745-40.346 210.998-40.449l114.293.054 371.861-.121c27.91-.072 55.92.322 83.8-.457 11.83-.331 26.86-4.339 35.97-11.98 17.86-14.983 17.65-43.315 18.2-64.748.45-18.754.68-37.514.68-56.274-.05-35.823 4.51-98.333-44.07-102.759-31.07-2.83-64.37-1.677-95.69-1.631q-97.785.445-195.57-.2l.02 202.087c-21.32-1.459-55.18-.633-76.949-.602l-135 .009c-1.304-135.189 1.217-271.169-.383-406.433"/></svg>