<svg width="32" height="32" viewBox="0 0 32 32" fill="none" xmlns="http://www.w3.org/2000/svg">
<g clip-path="url(#clip0_2_386)">
<path d="M25.6875 0.5H6.3125C3.37849 0.5 1 2.87849 1 5.8125V24.4375C1 27.3715 3.37849 29.75 6.3125 29.75H25.6875C28.6215 29.75 31 27.3715 31 24.4375V5.8125C31 2.87849 28.6215 0.5 25.6875 0.5Z" fill="#00005B"/>
<path d="M8.58375 21.1725H6.19C6.0825 21.1725 6.02875 21.1125 6.02875 20.9912V8.19248C6.02875 8.06748 6.06875 8.01123 6.15375 8.01123C6.62375 7.99707 7.02625 7.98707 7.36125 7.98123L8.3275 7.96123C8.63625 7.95373 8.9525 7.95123 9.28375 7.95123H10.375C11.5025 7.95123 12.4483 8.10873 13.2125 8.42373C13.9231 8.69702 14.5362 9.17569 14.9737 9.79873C15.3829 10.3912 15.5875 11.125 15.5875 12C15.5923 12.5175 15.4826 13.0298 15.2662 13.5C15.053 13.9539 14.7518 14.3609 14.38 14.6975C13.9963 15.0451 13.5535 15.3211 13.0725 15.5125C13.2067 15.6875 13.3946 15.9525 13.6362 16.3075C13.8779 16.6625 14.1429 17.0583 14.4312 17.495C14.7187 17.9317 15.0071 18.3712 15.2962 18.8137C15.5854 19.2562 15.8471 19.6654 16.0812 20.0412C16.315 20.4162 16.4937 20.7125 16.6137 20.9262C16.6326 20.9484 16.6468 20.974 16.6556 21.0017C16.6644 21.0294 16.6676 21.0585 16.665 21.0875C16.6647 21.0989 16.6621 21.1101 16.6572 21.1204C16.6524 21.1308 16.6455 21.14 16.6369 21.1475C16.6283 21.155 16.6183 21.1607 16.6074 21.1641C16.5966 21.1675 16.5851 21.1687 16.5737 21.1675H13.6562C13.5944 21.171 13.5325 21.1607 13.475 21.1375C13.4341 21.1167 13.3992 21.0857 13.3737 21.0475C13.2262 20.8325 13.0425 20.5475 12.82 20.2025C12.5975 19.8575 12.365 19.4637 12.1162 19.035C11.8675 18.6062 11.6162 18.1825 11.3662 17.7662C11.1162 17.35 10.9 16.975 10.7125 16.6412C10.6487 16.5432 10.5727 16.4538 10.4862 16.375C10.4129 16.3248 10.325 16.3003 10.2362 16.305H8.75V20.9937C8.75 21.1125 8.69125 21.1725 8.58375 21.1725ZM8.745 13.9225H10.315C10.7622 13.9325 11.2079 13.8679 11.6337 13.7312C11.9728 13.6254 12.2712 13.4182 12.4887 13.1375C12.6965 12.8464 12.8024 12.4949 12.79 12.1375C12.79 11.5208 12.5621 11.075 12.1062 10.8C11.6504 10.525 11.0467 10.3875 10.295 10.3875C9.9725 10.3875 9.67 10.3875 9.4 10.3975C9.13 10.4075 8.9 10.4137 8.745 10.4275V13.9225Z" fill="#9999FF"/>
<path d="M26.1937 11.3112V18.9362C26.1937 19.2724 26.1937 19.5699 26.2037 19.8324C26.2137 20.0949 26.2237 20.3224 26.2437 20.5162C26.2637 20.7099 26.2812 20.8749 26.2937 21.0099C26.3074 21.1174 26.2599 21.1699 26.1537 21.1699H23.9999C23.95 21.1754 23.8997 21.1648 23.8563 21.1396C23.8129 21.1144 23.7787 21.076 23.7587 21.0299C23.7312 20.9362 23.7087 20.8312 23.6874 20.7174C23.6685 20.6148 23.6584 20.5106 23.6574 20.4062C23.2533 20.7684 22.7719 21.0338 22.2499 21.1824C21.7969 21.3064 21.3296 21.3712 20.8599 21.3749C20.3979 21.3806 19.9382 21.3088 19.4999 21.1624C19.094 21.0243 18.7277 20.7897 18.4324 20.4787C18.1125 20.1324 17.8723 19.7202 17.7287 19.2712C17.5483 18.6952 17.4638 18.0934 17.4787 17.4899V11.3312C17.4755 11.3094 17.4775 11.2873 17.4845 11.2664C17.4914 11.2456 17.5031 11.2266 17.5186 11.2111C17.5341 11.1956 17.5531 11.1839 17.5739 11.177C17.5948 11.17 17.6169 11.168 17.6387 11.1712H20.1149C20.1367 11.168 20.1589 11.17 20.1797 11.177C20.2005 11.1839 20.2195 11.1956 20.235 11.2111C20.2506 11.2266 20.2622 11.2456 20.2692 11.2664C20.2761 11.2873 20.2781 11.3094 20.2749 11.3312V17.1674C20.2749 17.7183 20.3958 18.1512 20.6374 18.4662C20.8791 18.7812 21.2816 18.9387 21.8449 18.9387C22.1337 18.9425 22.4205 18.8912 22.6899 18.7874C22.945 18.6874 23.1828 18.5483 23.3949 18.3749V11.3112C23.3949 11.2174 23.4549 11.1712 23.5762 11.1712H26.0512C26.0703 11.1683 26.0899 11.1699 26.1083 11.1759C26.1268 11.1819 26.1436 11.1921 26.1574 11.2056C26.1712 11.2192 26.1817 11.2358 26.188 11.2541C26.1943 11.2725 26.1962 11.292 26.1937 11.3112Z" fill="#9999FF"/>
</g>
<defs>
<clipPath id="clip0_2_386">
<rect width="32" height="32" fill="white"/>
</clipPath>
</defs>
</svg>
