<svg width="83" height="80" viewBox="0 0 83 80" fill="none" xmlns="http://www.w3.org/2000/svg">
<g clip-path="url(#clip0_906_1820)">
<path d="M14.5299 0H67.5214C75.5556 0 82.0513 6.49573 82.0513 14.5299V65.4701C82.0513 73.5043 75.5556 80 67.5214 80H14.5299C6.49573 80 0 73.5043 0 65.4701V14.5299C0 6.49573 6.49573 0 14.5299 0Z" fill="#00005B"/>
<path d="M19.4872 56.1025V20.923C19.4872 20.6837 19.5897 20.5469 19.8291 20.5469C20.4103 20.5469 20.9573 20.5469 21.7436 20.5127C22.5641 20.4785 23.4188 20.4785 24.3419 20.4444C25.265 20.4102 26.2564 20.4102 27.3162 20.376C28.3761 20.3418 29.4017 20.3418 30.4274 20.3418C33.2308 20.3418 35.5556 20.6837 37.4701 21.4016C39.1795 21.9828 40.7521 22.9401 42.0513 24.205C43.1453 25.2991 44 26.6324 44.547 28.1025C45.0598 29.5384 45.3333 31.0085 45.3333 32.5469C45.3333 35.4871 44.6496 37.9144 43.2821 39.829C41.9145 41.7435 40 43.1794 37.7778 43.9999C35.453 44.8546 32.8889 45.1623 30.0855 45.1623C29.265 45.1623 28.718 45.1623 28.3761 45.1281C28.0342 45.0939 27.5556 45.0939 26.906 45.0939V56.0683C26.9402 56.3076 26.7692 56.5127 26.5299 56.5469C26.4957 56.5469 26.4615 56.5469 26.3932 56.5469H19.8974C19.6239 56.5469 19.4872 56.4102 19.4872 56.1025ZM26.9402 27.1452V38.6324C27.4188 38.6666 27.8633 38.7008 28.2735 38.7008H30.0855C31.4188 38.7008 32.7521 38.4956 34.0171 38.0854C35.1111 37.7777 36.0684 37.1281 36.8205 36.2734C37.5385 35.4187 37.8803 34.2563 37.8803 32.7521C37.9145 31.6922 37.641 30.6324 37.094 29.7093C36.5128 28.8204 35.6923 28.1367 34.7009 27.7606C33.4359 27.2478 32.0684 27.0427 30.6667 27.0768C29.7778 27.0768 28.9915 27.0768 28.3419 27.111C27.6581 27.0768 27.1795 27.111 26.9402 27.1452Z" fill="#9999FF"/>
<path d="M50.1197 29.128H56.1026C56.4445 29.128 56.718 29.3674 56.8205 29.675C56.9231 29.9485 56.9915 30.2221 57.0257 30.5297C57.094 30.8716 57.1624 31.2477 57.1966 31.5896C57.2308 31.9656 57.265 32.3759 57.265 32.8203C58.2906 31.6238 59.5214 30.6323 60.9231 29.8802C62.4957 28.9913 64.3077 28.5468 66.1197 28.5468C66.359 28.5126 66.5641 28.6836 66.5983 28.9229C66.5983 28.9571 66.5983 28.9913 66.5983 29.0597V35.7263C66.5983 35.9998 66.4274 36.1024 66.0513 36.1024C64.8205 36.0682 63.5556 36.1708 62.359 36.4443C61.3675 36.6494 60.4103 36.9571 59.4872 37.3673C58.8376 37.675 58.2222 38.0853 57.7436 38.6323V56.0682C57.7436 56.4101 57.6069 56.5468 57.2992 56.5468H50.5641C50.2906 56.581 50.0513 56.4101 50.0171 56.1366C50.0171 56.1024 50.0171 56.034 50.0171 55.9998V37.0597C50.0171 36.2391 50.0171 35.3844 49.9829 34.4956C49.9487 33.6067 49.9487 32.7178 49.9145 31.8289C49.9145 31.0426 49.8462 30.2904 49.7778 29.5041C49.7436 29.3332 49.8462 29.1622 50.0171 29.128C50.0171 29.0938 50.0855 29.0938 50.1197 29.128Z" fill="#9999FF"/>
</g>
<defs>
<clipPath id="clip0_906_1820">
<rect width="82.0513" height="80" fill="white"/>
</clipPath>
</defs>
</svg>
