<svg width="32" height="32" viewBox="0 0 32 32" fill="none" xmlns="http://www.w3.org/2000/svg">
<g clip-path="url(#clip0_2_123)">
<path d="M30.6667 1.33334H1.33334V29.8667H30.6667V1.33334Z" fill="#1A2600"/>
<path d="M0 0V31.2H32V0H0ZM1.33333 1.33333H30.6667V29.8667H1.33333V1.33333Z" fill="#8DD933"/>
<path d="M22.2 10.8H19.6V11.3334H22.2C22.9734 11.3334 23.6 11.96 23.6 12.7334V19.0134C23.6 19.7867 22.9734 20.4134 22.2 20.4134H18.2667H17.7334H13.8C13.0267 20.4134 12.4 19.7867 12.4 19.0134V17.4667H11.8667V19C11.8667 20.0667 12.7334 20.9334 13.8 20.9334H17.7334V23.0667H14.8V23.6H21.2V23.0667H18.2667V20.9334H22.2C23.2667 20.9334 24.1334 20.0667 24.1334 19V12.7334C24.1334 11.6667 23.2667 10.8 22.2 10.8Z" fill="#EAFFC4"/>
<path d="M12.4 10L17.5867 12.5067L12.4 15.0267V10ZM18.0933 17.7333C19.1333 17.7333 19.8667 16.88 19.8667 15.84V9.49334C19.8667 8.45334 19.0533 7.60001 18 7.60001H10.0267C8.98666 7.60001 8.13333 8.44001 8.13333 9.49334V15.84C8.13333 16.88 8.98666 17.7467 10.0267 17.7467H18.0933V17.7333Z" fill="#8DD933"/>
</g>
<defs>
<clipPath id="clip0_2_123">
<rect width="32" height="31.2" fill="white"/>
</clipPath>
</defs>
</svg>
