<svg width="4384" height="746" viewBox="0 0 4384 746" fill="none" xmlns="http://www.w3.org/2000/svg">
<g clip-path="url(#clip0_11862_387834)">
<path d="M1248.02 479.643V599.57H1331.76V484.882C1331.76 473.75 1336.13 462.992 1344.04 455.134C1351.86 447.276 1362.56 442.786 1373.63 442.786H1459.51C1499.52 442.786 1537.94 426.789 1566.23 398.258C1594.51 369.819 1610.42 331.184 1610.42 290.959C1610.42 250.734 1594.51 212.099 1566.23 183.568C1537.94 155.129 1499.52 139.133 1459.42 139.133H1248.02V288.995H1331.76V218.367H1453.83C1472.81 218.367 1490.96 225.944 1504.36 239.415C1517.75 252.886 1525.29 271.127 1525.29 290.211C1525.29 309.294 1517.75 327.536 1504.36 341.007C1490.96 354.478 1472.81 362.055 1453.83 362.055H1365.16C1349.81 362.055 1334.55 365.048 1320.41 371.035C1306.17 376.929 1293.34 385.629 1282.45 396.574C1271.56 407.519 1263 420.522 1257.05 434.741C1251.09 448.866 1248.02 464.208 1248.02 479.643Z" fill="#1B1340"/>
<path d="M1623.36 599.57V416.873C1623.36 342.316 1666.62 283.008 1753.24 283.008C1767.11 282.821 1780.97 284.317 1794.55 287.591V362.71C1784.69 362.055 1776.23 362.055 1772.22 362.055C1726.35 362.055 1706.63 383.196 1706.63 426.041V599.57H1623.36Z" fill="#1B1340"/>
<path d="M1819.49 444.658C1819.49 352.982 1888.34 283.102 1984.17 283.102C2080.01 283.102 2148.86 352.982 2148.86 444.658C2148.86 536.334 2080.01 606.868 1984.17 606.868C1888.34 606.868 1819.49 536.24 1819.49 444.658ZM2066.79 444.658C2066.79 392.552 2032 355.601 1984.17 355.601C1936.26 355.601 1901.55 392.459 1901.55 444.658C1901.55 497.418 1936.35 533.715 1984.17 533.715C2032.09 533.715 2066.79 497.325 2066.79 444.658Z" fill="#1B1340"/>
<path d="M2415.15 444.658C2415.15 352.982 2484 283.102 2579.83 283.102C2675.57 283.102 2744.42 352.982 2744.42 444.658C2744.42 536.334 2675.57 606.868 2579.83 606.868C2484 606.868 2415.15 536.24 2415.15 444.658ZM2662.36 444.658C2662.36 392.552 2627.56 355.601 2579.74 355.601C2531.91 355.601 2497.12 392.459 2497.12 444.658C2497.12 497.418 2531.91 533.715 2579.74 533.715C2627.56 533.715 2662.36 497.325 2662.36 444.658Z" fill="#1B1340"/>
<path d="M2787.69 599.572V423.516C2787.69 341.756 2839.51 283.009 2932 283.009C3023.83 283.009 3075.66 341.663 3075.66 423.516V599.572H2993.03V430.065C2993.03 384.601 2972.66 356.163 2932 356.163C2891.34 356.163 2870.96 384.507 2870.96 430.065V599.572H2787.69Z" fill="#1B1340"/>
<path d="M2390.21 356.252H2300.33V471.688C2300.33 511.914 2314.75 530.342 2356.06 530.342C2359.97 530.342 2369.84 530.342 2382.3 529.687V597.602C2365.28 602.186 2350.2 604.899 2333.73 604.899C2264.23 604.899 2216.97 562.71 2216.97 482.914V356.252H2161.14V289.646H2175.1C2180.59 289.646 2186.08 288.524 2191.1 286.466C2196.22 284.314 2200.78 281.227 2204.68 277.298C2208.59 273.369 2211.66 268.785 2213.8 263.64C2215.94 258.495 2216.97 253.069 2216.97 247.55V184.78H2300.24V289.646H2390.12V356.252H2390.21Z" fill="#1B1340"/>
<path d="M3240.23 151.014H3357.2L3466.85 420.091C3476.62 442.639 3484.98 465.655 3492.03 489.138H3493.16C3500.2 465.655 3508.57 442.545 3518.34 420.091L3627.98 151.014H3744.96V599.725H3660.21V299.119C3660.12 289.201 3660.59 279.284 3661.62 269.46H3660.21C3657.58 280.033 3654.1 290.418 3649.69 300.429L3528.2 594.486H3457.92L3336.06 300.429C3331.65 290.324 3327.89 280.033 3324.88 269.46H3323.57C3324.51 279.284 3324.97 289.201 3324.88 299.119V599.819H3240.23V151.014Z" fill="#6D4AFF"/>
<path d="M4034.81 303.704C4059.34 316.522 4079.63 336.169 4093.25 360.214C4107.82 386.317 4115.15 415.882 4114.58 445.727V599.726H4040.36L4035.1 553.508C4025.42 570.255 4011.23 583.915 3994.13 593.084C3975.81 602.533 3955.33 607.305 3934.66 606.837C3908.25 607.117 3882.32 600.101 3859.68 586.534C3836.75 572.688 3818.15 552.853 3805.75 529.276C3792.22 503.266 3785.45 474.357 3786.02 445.072C3785.64 416.256 3793.06 387.908 3807.44 362.834C3821.53 338.508 3841.92 318.487 3866.63 304.92C3892.19 290.793 3920.94 283.495 3950.16 283.87C3979.57 283.308 4008.69 290.138 4034.81 303.704ZM4007.66 510.845C4023.82 495.501 4031.81 473.889 4031.81 445.072C4032.84 421.495 4024.48 398.48 4008.69 380.984C4001.18 373.125 3992.16 366.95 3982.1 362.647C3972.05 358.343 3961.34 356.191 3950.44 356.191C3939.54 356.191 3928.74 358.343 3918.78 362.647C3908.72 366.95 3899.7 373.125 3892.19 380.984C3877.16 398.948 3868.89 421.589 3868.89 444.979C3868.89 468.369 3877.16 491.01 3892.19 508.974C3899.61 517.02 3908.63 523.288 3918.78 527.592C3928.83 531.802 3939.73 533.954 3950.63 533.673C3961.15 533.86 3971.68 531.896 3981.54 527.966C3991.22 524.13 4000.14 518.236 4007.66 510.845Z" fill="#6D4AFF"/>
<path d="M4160.34 226.424C4155.36 221.839 4151.41 216.319 4148.69 210.144C4145.96 203.97 4144.65 197.327 4144.74 190.591C4144.65 183.854 4146.06 177.118 4148.69 170.849C4151.41 164.581 4155.36 158.967 4160.34 154.383C4170.21 144.653 4183.55 139.133 4197.45 139.133C4211.36 139.133 4224.7 144.653 4234.57 154.383C4239.54 159.061 4243.49 164.675 4246.12 170.849C4248.75 177.118 4250.16 183.761 4250.07 190.591C4250.16 197.327 4248.85 203.97 4246.12 210.144C4243.49 216.319 4239.54 221.839 4234.57 226.424C4224.61 235.967 4211.26 241.3 4197.45 241.3C4183.55 241.3 4170.3 235.967 4160.34 226.424ZM4239.26 599.726H4155.83V290.512H4239.26V599.726Z" fill="#6D4AFF"/>
<path d="M4383.58 599.725H4300.05V151.014H4383.58V599.725Z" fill="#6D4AFF"/>
<path fill-rule="evenodd" clip-rule="evenodd" d="M723.649 140.477V745.457H823.935C876.376 745.457 918.874 702.373 918.874 649.324V21.9482C918.874 3.82252 898.047 -6.04696 884.257 5.5307L723.649 140.477Z" fill="url(#paint0_linear_11862_387834)"/>
<path fill-rule="evenodd" clip-rule="evenodd" d="M583.774 258.152L400.557 422.042C369.318 449.942 322.693 450.606 290.702 423.655L0.726562 179.575V22.0434C0.726562 3.91773 21.553 -6.04665 35.3435 5.53101L399.15 311.295C434.33 340.903 485.364 340.903 520.544 311.295L583.774 258.152Z" fill="url(#paint1_linear_11862_387834)"/>
<path d="M723.649 140.572L583.774 258.152L583.868 258.151L400.557 422.042C369.318 449.942 322.693 450.606 290.702 423.655L0.726562 179.575V649.324C0.726562 702.373 43.2238 745.457 95.6652 745.457L723.649 745.457V140.572Z" fill="url(#paint2_radial_11862_387834)"/>
</g>
<defs>
<linearGradient id="paint0_linear_11862_387834" x1="2304.54" y1="1228.39" x2="2116.79" y2="-635.264" gradientUnits="userSpaceOnUse">
<stop offset="0.271" stop-color="#E3D9FF"/>
<stop offset="1" stop-color="#7341FF"/>
</linearGradient>
<linearGradient id="paint1_linear_11862_387834" x1="543.253" y1="752.372" x2="161.429" y2="-755.453" gradientUnits="userSpaceOnUse">
<stop stop-color="#E3D9FF"/>
<stop offset="1" stop-color="#7341FF"/>
</linearGradient>
<radialGradient id="paint2_radial_11862_387834" cx="0" cy="0" r="1" gradientUnits="userSpaceOnUse" gradientTransform="translate(914.874 91.7294) scale(1070.72 1083.11)">
<stop offset="0.5561" stop-color="#6D4AFF"/>
<stop offset="0.9944" stop-color="#AA8EFF"/>
</radialGradient>
<clipPath id="clip0_11862_387834">
<rect width="4383" height="746" fill="white" transform="translate(0.726562)"/>
</clipPath>
</defs>
</svg>
