<svg xmlns="http://www.w3.org/2000/svg" fill="none" viewBox="0 0 37 36"><path fill="#e6e6e6" d="M21.307 16.7279c0 .9814-.5794 1.8241-1.4111 2.215v1.7438c0 .5711-.463 1.0341-1.0369 1.0341-.5738 0-1.034-.463-1.034-1.0341v-1.7438c-.8345-.3909-1.4111-1.2336-1.4111-2.215 0-1.3529 1.095-2.448 2.4451-2.448 1.3502 0 2.448 1.0951 2.448 2.448M24.4257 23.017c.1604-.177.3098-.3596.4509-.5505-.1383.1881-.2905.3735-.4509.5505M25.7563 20.9307c.2274-.5379.3909-1.0951.488-1.6606-.0943.5683-.2579 1.1227-.488 1.6606M26.3553 17.9975c0 .0832-.0028.1691-.0055.2523-.0056.2273-.025.4547-.0555.6792.0277-.2301.0471-.4574.0527-.6875.0055-.0804.0083-.1608.0083-.244"/><path fill="#fff" d="M22.1135 7.25494c0 .06099-.0028.11921-.0055.1802 0 .0305-.0028.06099-.0084.09149-.0027.06376-.011.12475-.0194.18851-.0083.06654-.0194.1303-.0332.19406 0 .02218-.0083.04159-.0139.05822-.0111.05545-.0249.11089-.0416.16634-.0194.0804-.0471.15802-.0748.23287-.0167.05268-.0388.10258-.0582.15248q-.01665.04158-.0333.07485c-.0277.06099-.0555.11921-.086.17466-.0304.05822-.0637.11643-.097.17188-.0554.08871-.1136.17466-.1746.25782-.0721.09704-.1525.19129-.2357.28001-.0499.05267-.0998.10534-.1525.15247-.0554.04991-.1081.09981-.1663.14416-.1691.13862-.3521.26064-.5461.36314h-.0028c-.8567-.54888-1.7577-.99245-2.6919-1.33621-.3105-.11367-.6238-.21624-.9398-.30773-.1608-.04713-.3188-.08871-.4796-.12753-2.2068-.55168-4.5217-.55723-6.73396-.02217-.1802.04435-.36317.09425-.54337.14416-.1802.05267-.3604.10812-.53783.16633.16634-.18851.341-.37426.5212-.55446.09426-.09148.18574-.1802.27723-.26891.16911-.16079.33822-.31604.51565-.46297.09148-.0804.18297-.15525.27448-.23288.1719-.14139.3493-.27723.5267-.40753.0111-.00831.0194-.01386.0277-.02217.0971-.06654.1913-.13862.2856-.20238.6487-.45189 1.3279-.84555 2.0293-1.17546.1996-.09426.402-.1802.6071-.26614.1054-.04436.2135-.08594.3216-.12753.1026-.04158.2079-.07762.3105-.11643.1054-.03604.2135-.07208.3188-.10812.1054-.03604.2135-.06931.3161-.10258.1053-.03049.2134-.06099.3188-.09148.4297-.11921.8622-.21901 1.2974-.29664.1082-.0194.2163-.03604.3272-.05267.6542-.10258 1.314-.15525 1.9766-.16357.0582 0 .1137-.00277.1691-.00277.0555 0 .1137.00277.1691.00277 1.7216.08594 3.0884 1.50813 3.0856 3.25191"/><path fill="url(#a)" fill-opacity=".73" d="M22.1135 7.25494c0 .06099-.0028.11921-.0055.1802 0 .0305-.0028.06099-.0084.09149-.0027.06376-.011.12475-.0194.18851-.0083.06654-.0194.1303-.0332.19406 0 .02218-.0083.04159-.0139.05822-.0111.05545-.0249.11089-.0416.16634-.0194.0804-.0471.15802-.0748.23287-.0167.05268-.0388.10258-.0582.15248q-.01665.04158-.0333.07485c-.0277.06099-.0555.11921-.086.17466-.0304.05822-.0637.11643-.097.17188-.0554.08871-.1136.17466-.1746.25782-.0721.09704-.1525.19129-.2357.28001-.0499.05267-.0998.10534-.1525.15247-.0554.04991-.1081.09981-.1663.14416-.1691.13862-.3521.26064-.5461.36314h-.0028c-.8567-.54888-1.7577-.99245-2.6919-1.33621-.3105-.11367-.6238-.21624-.9398-.30773-.1608-.04713-.3188-.08871-.4796-.12753-2.2068-.55168-4.5217-.55723-6.73396-.02217-.1802.04435-.36317.09425-.54337.14416-.1802.05267-.3604.10812-.53783.16633.16634-.18851.341-.37426.5212-.55446.09426-.09148.18574-.1802.27723-.26891.16911-.16079.33822-.31604.51565-.46297.09148-.0804.18297-.15525.27448-.23288.1719-.14139.3493-.27723.5267-.40753.0111-.00831.0194-.01386.0277-.02217.0971-.06654.1913-.13862.2856-.20238.6487-.45189 1.3279-.84555 2.0293-1.17546.1996-.09426.402-.1802.6071-.26614.1054-.04436.2135-.08594.3216-.12753.1026-.04158.2079-.07762.3105-.11643.1054-.03604.2135-.07208.3188-.10812.1054-.03604.2135-.06931.3161-.10258.1053-.03049.2134-.06099.3188-.09148.4297-.11921.8622-.21901 1.2974-.29664.1082-.0194.2163-.03604.3272-.05267.6542-.10258 1.314-.15525 1.9766-.16357.0582 0 .1137-.00277.1691-.00277.0555 0 .1137.00277.1691.00277 1.7216.08594 3.0884 1.50813 3.0856 3.25191"/><path fill="#fff" d="M32.859 18.0003v.1691c-.0083.6626-.061 1.3224-.1636 1.9767-.0138.1109-.0332.219-.0526.3271-.0777.4353-.1747.8677-.2967 1.2975-.0305.1053-.0582.2134-.0915.3188-.0332.1025-.0665.2107-.1025.316-.0333.1081-.0721.2135-.1081.3188-.0389.1026-.0749.2079-.1165.3105-.0416.1081-.0832.2163-.1275.3216-.0832.2052-.1719.4075-.2662.6071-.3299.7014-.7207 1.3807-1.1754 2.0294-.0638.0942-.1331.1885-.2024.2855-.0083.0083-.0138.0166-.0194.0277-.1331.1747-.2689.3549-.4103.5268-.0776.0915-.1525.1829-.2301.2744-.1497.1775-.3049.3466-.4657.5157-.0888.0915-.1775.183-.269.2772-1.5968 1.5969-3.4875 2.7307-5.4947 3.3933 3.2741-3.6428 4.3027-8.5886 3.0856-13.0437 0-.0027-.0028-.0055-.0028-.0083.0056-.0804.0084-.1608.0084-.2439 0-1.7965 1.4554-3.252 3.2519-3.252 1.741-.0027 3.1632 1.364 3.2491 3.0856z"/><path fill="url(#b)" fill-opacity=".5" d="M32.859 18.0003v.1691c-.0083.6626-.061 1.3224-.1636 1.9767-.0138.1109-.0332.219-.0526.3271-.0777.4353-.1747.8677-.2967 1.2975-.0305.1053-.0582.2134-.0915.3188-.0332.1025-.0665.2107-.1025.316-.0333.1081-.0721.2135-.1081.3188-.0389.1026-.0749.2079-.1165.3105-.0416.1081-.0832.2163-.1275.3216-.0832.2052-.1719.4075-.2662.6071-.3299.7014-.7207 1.3807-1.1754 2.0294-.0638.0942-.1331.1885-.2024.2855-.0083.0083-.0138.0166-.0194.0277-.1331.1747-.2689.3549-.4103.5268-.0776.0915-.1525.1829-.2301.2744-.1497.1775-.3049.3466-.4657.5157-.0888.0915-.1775.183-.269.2772-1.5968 1.5969-3.4875 2.7307-5.4947 3.3933 3.2741-3.6428 4.3027-8.5886 3.0856-13.0437 0-.0027-.0028-.0055-.0028-.0083.0056-.0804.0084-.1608.0084-.2439 0-1.7965 1.4554-3.252 3.2519-3.252 1.741-.0027 3.1632 1.364 3.2491 3.0856z"/><path fill="#6d4aff" d="M23.2641 31.2935c-4.8654 1.6052-10.4349.4741-14.30505-3.3933-5.28677-5.2867-5.46143-13.7506-.52119-19.24529.17743-.05821.35763-.11366.53783-.16633.1802-.04991.36317-.09981.54337-.14416 2.21234-.53783 4.52714-.53229 6.73394.02217.1608.03882.3188.0804.4796.12753.316.09149.6293.19406.9398.30773.9343.34376 1.8353.78733 2.6919 1.33625-.0554.0305-.1137.0582-.1719.0859-.0582.0222-.1164.0472-.1746.0693-.0583.0222-.1192.0444-.1802.0638-.0028 0-.0056 0-.0084.0028-.2439.0748-.499.122-.7651.1386-.0665.0028-.1331.0055-.2024.0055-1.9184 0-3.8368.7319-5.3006 2.1957-2.9248 2.9276-2.9276 7.671 0 10.5985 2.9275 2.9276 7.6737 2.9248 10.5985 0 .0915-.0915.1802-.183.2661-.28.1608-.1774.3105-.3604.4519-.5517.0693-.0942.1386-.194.2079-.2938.0666-.0971.1303-.1996.1913-.2994.061-.1026.1192-.2052.1747-.3078.0582-.1053.1109-.2107.1608-.316.0499-.1054.0998-.2107.1441-.3188.2274-.5379.3909-1.0951.488-1.6606.0194-.1137.036-.2274.0499-.341.0277-.2301.0471-.4575.0526-.6876 0 .0028.0028.0056.0028.0084 1.217 4.455.1885 9.4008-3.0856 13.0436"/><path fill="url(#c)" fill-opacity=".85" d="M23.2641 31.2935c-4.8654 1.6052-10.4349.4741-14.30505-3.3933-5.28677-5.2867-5.46143-13.7506-.52119-19.24529.17743-.05821.35763-.11366.53783-.16633.1802-.04991.36317-.09981.54337-.14416 2.21234-.53783 4.52714-.53229 6.73394.02217.1608.03882.3188.0804.4796.12753.316.09149.6293.19406.9398.30773.9343.34376 1.8353.78733 2.6919 1.33625-.0554.0305-.1137.0582-.1719.0859-.0582.0222-.1164.0472-.1746.0693-.0583.0222-.1192.0444-.1802.0638-.0028 0-.0056 0-.0084.0028-.2439.0748-.499.122-.7651.1386-.0665.0028-.1331.0055-.2024.0055-1.9184 0-3.8368.7319-5.3006 2.1957-2.9248 2.9276-2.9276 7.671 0 10.5985 2.9275 2.9276 7.6737 2.9248 10.5985 0 .0915-.0915.1802-.183.2661-.28.1608-.1774.3105-.3604.4519-.5517.0693-.0942.1386-.194.2079-.2938.0666-.0971.1303-.1996.1913-.2994.061-.1026.1192-.2052.1747-.3078.0582-.1053.1109-.2107.1608-.316.0499-.1054.0998-.2107.1441-.3188.2274-.5379.3909-1.0951.488-1.6606.0194-.1137.036-.2274.0499-.341.0277-.2301.0471-.4575.0526-.6876 0 .0028.0028.0056.0028.0084 1.217 4.455.1885 9.4008-3.0856 13.0436"/><path fill="#be3232" d="M21.307 16.7279c0 .9814-.5794 1.8241-1.4111 2.215v1.7438c0 .5711-.463 1.0341-1.0369 1.0341-.5738 0-1.034-.463-1.034-1.0341v-1.7438c-.8345-.3909-1.4111-1.2336-1.4111-2.215 0-1.3529 1.095-2.448 2.4451-2.448 1.3502 0 2.448 1.0951 2.448 2.448"/><path fill="#8f69ff" d="M21.307 16.7279c0 .9814-.5794 1.8241-1.4111 2.215v1.7438c0 .5711-.463 1.0341-1.0369 1.0341-.5738 0-1.034-.463-1.034-1.0341v-1.7438c-.8345-.3909-1.4111-1.2336-1.4111-2.215 0-1.3529 1.095-2.448 2.4451-2.448 1.3502 0 2.448 1.0951 2.448 2.448"/><defs><linearGradient id="a" x1="11.1592" x2="22.8893" y1="4.58275" y2="9.61737" gradientUnits="userSpaceOnUse"><stop stop-color="#6d4aff"/><stop offset="1" stop-color="#6d4aff" stop-opacity=".5"/></linearGradient><linearGradient id="b" x1="20.3791" x2="28.1571" y1="17.7596" y2="33.8781" gradientUnits="userSpaceOnUse"><stop offset=".475962" stop-color="#6d4aff"/><stop offset=".730769" stop-color="#e6ad32"/><stop offset=".903064" stop-color="#f2fb00"/></linearGradient><radialGradient id="c" cx="0" cy="0" r="1" gradientTransform="matrix(-9.5153 21.2735 -22.1562 -12.327 19.1131 12.3055)" gradientUnits="userSpaceOnUse"><stop offset=".475962" stop-color="#6d4aff"/><stop offset=".730769" stop-color="#e6ad32"/><stop offset=".903064" stop-color="#f2fb00"/></radialGradient></defs></svg>