<svg xmlns="http://www.w3.org/2000/svg" fill="none" viewBox="0 0 177 36"><g fill="#fff" clip-path="url(#a)"><path d="M.953369 21.1416v3.568H3.50253v-3.412c0-.3317.13331-.6514.37369-.8854.23835-.2339.56356-.3671.90089-.3671h2.6148c1.21802 0 2.38757-.4758 3.24909-1.3246.8615-.8458 1.3453-1.9957 1.3453-3.1929s-.4848-2.3461-1.3453-3.1949c-.86051-.8468-2.03107-1.3225-3.25212-1.3225H.953369v4.4592H3.50253v-2.1013h3.71668c.5777 0 1.13015.225 1.53818.6257.40803.4008.63729.9436.63729 1.5111s-.22926 1.1104-.63729 1.5111-.96048.6258-1.53818.6258H4.51956c-.46761 0-.9322.0888-1.36244.2674-.43328.1757-.82414.4343-1.1554.76-.33127.3257-.59185.7126-.77364 1.136-.18179.4205-.274711.8765-.274711 1.3364M35.6356 17.4483h-2.736v3.4347c0 1.1972.4393 1.745 1.6967 1.745.1192 0 .4191 0 .7989-.0197v2.0204c-.5181.1362-.9777.2171-1.4786.2171-2.1159 0-3.5551-1.2555-3.5551-3.6292v-3.7683h-1.6998v-1.9819h.4252c.1677 0 .3343-.0335.4868-.0947.1556-.0642.295-.156.4131-.2724.1192-.1165.2121-.2537.2778-.4067.0656-.153.0959-.3148.0959-.4787v-1.8674h2.535v3.1199h2.736v1.9819h.0041M127.502 17.4493h-2.736v3.4347c0 1.1972.439 1.745 1.697 1.745.119 0 .419 0 .799-.0197v2.0203c-.518.1363-.978.2172-1.479.2172-2.116 0-3.555-1.2555-3.555-3.6292v-3.7683h-1.7v-1.9819h.426c.167 0 .334-.0335.486-.0947.156-.0642.295-.156.413-.2724.12-.1165.212-.2537.278-.4067s.096-.3148.096-.4787v-1.8674h2.535v3.1199h2.736v1.9819h.004M89.7297 17.4493h-2.736v3.4347c0 1.1972.4393 1.745 1.6967 1.745.1192 0 .4192 0 .7989-.0197v2.0203c-.5181.1363-.9776.2172-1.4786.2172-2.1159 0-3.5551-1.2555-3.5551-3.6292v-3.7683h-1.6997v-1.9819h.4252c.1676 0 .3343-.0335.4868-.0947.1555-.0642.2949-.156.413-.2724.1192-.1165.2121-.2537.2778-.4067.0656-.153.0959-.3148.0959-.4787v-1.8674h2.535v3.1199h2.736v1.9819h.0041M159.009 17.4493h-2.736v3.4347c0 1.1972.44 1.745 1.697 1.745.119 0 .419 0 .799-.0197v2.0203c-.518.1363-.978.2172-1.479.2172-2.116 0-3.555-1.2555-3.555-3.6292v-3.7683h-1.7v-1.9819h.426c.167 0 .334-.0335.486-.0947.156-.0642.295-.156.413-.2724.12-.1165.213-.2537.278-.4067.066-.153.096-.3148.096-.4787v-1.8674h2.535v3.1199h2.736v1.9819h.004M149.552 15.9056c.747.381 1.364.9663 1.779 1.6809.444.7767.667 1.6562.65 2.5444v4.5817h-2.259l-.161-1.3749c-.295.4984-.727.905-1.247 1.1775-.558.2812-1.182.4234-1.811.4096-.804.0079-1.593-.2004-2.283-.6041-.698-.4116-1.264-1.0018-1.642-1.7035-.412-.7738-.618-1.6335-.601-2.505-.012-.8577.214-1.7006.653-2.4468.428-.7234 1.049-1.3196 1.8-1.7232.778-.4205 1.654-.6376 2.543-.6268.896-.0168 1.783.1866 2.578.5902zm-.827 6.1628c.492-.457.735-1.0995.735-1.9572.032-.7017-.223-1.3857-.703-1.9069-.229-.2339-.503-.4175-.81-.5458-.306-.1283-.631-.1924-.964-.1924-.332 0-.661.0641-.964.1924-.306.1283-.581.3119-.81.5458-.458.534-.709 1.2081-.709 1.9039 0 .6959.252 1.37.709 1.9039.226.2399.501.4254.81.5537.306.1254.637.1896.97.1807.321.0059.641-.0533.941-.1698.295-.1145.566-.2892.795-.5093zM65.3064 11.325h3.1531l4.96 13.3846h-2.731l-1.0443-2.885h-5.5427l-1.0443 2.885h-2.7108zm3.654 8.3016-1.8674-5.2005c-.1-.2941-.1606-.5102-.201-.7066h-.0404c-.0404.1964-.1.4125-.2009.7066l-1.8675 5.2005zM73.2581 20.7251v-5.2399h2.5502v5.0632c0 1.3344.6029 2.1586 1.8078 2.1783 1.2857.0198 1.8472-.8044 1.8472-2.1783v-5.0632h2.5502v5.2596c0 2.355-1.7876 4.1799-4.3984 4.1799-2.7916-.0197-4.358-1.7667-4.358-4.1996zM90.8708 12.3475h2.53v4.4533c.603-.9416 1.6867-1.511 2.9118-1.511 1.9078 0 3.554 1.2367 3.554 4.0229v5.3969h-2.5501v-5.0041c0-1.6482-.904-2.2177-1.8473-2.2177-1.2453 0-2.0684 1.0008-2.0684 2.4339v4.7889h-2.53zM100.871 20.0974c0-2.7675 2.008-4.8076 4.84-4.8076s4.74 2.0608 4.74 4.8076c0 .3533 0 .4905-.04.8439h-7.13c.301 1.2564 1.205 1.9236 2.43 1.9236 1.105 0 1.727-.2941 2.109-.9416h2.349c-.583 2.0411-2.49 3.0025-4.398 3.0025-2.932 0-4.901-2.0411-4.901-4.8274zm7.189-.8834c-.16-1.0797-1.125-1.8644-2.349-1.8644s-2.168.7462-2.45 1.8644zM115.692 15.2898c2.812 0 4.397 1.7469 4.397 4.1799v5.2399h-2.53v-5.0435c0-1.3542-.622-2.198-1.867-2.198-1.246 0-1.868.8438-1.868 2.198v5.0435h-2.55v-5.2399c0-2.4339 1.587-4.1799 4.418-4.1799M128.183 12.6219c0-.8438.723-1.5308 1.607-1.5308s1.587.687 1.587 1.5308c0 .8439-.724 1.5111-1.587 1.5111-.864 0-1.607-.6672-1.607-1.5111m.341 2.9837h2.53v9.2234h-2.53zM131.979 20.0974c0-2.7675 2.109-4.8076 4.981-4.8076 2.45 0 4.257 1.4321 4.638 3.5521h-2.47c-.362-.8833-1.085-1.3738-2.109-1.3738-1.465 0-2.53 1.0797-2.53 2.6293s1.065 2.6491 2.53 2.6491c1.024 0 1.727-.4906 2.109-1.3937h2.47c-.381 2.1191-2.188 3.572-4.638 3.572-2.872 0-4.981-2.0609-4.981-4.8274M159.287 20.0974c0-2.728 2.109-4.8076 5.041-4.8076s5.041 2.0805 5.041 4.8076-2.109 4.8274-5.041 4.8274-5.041-2.1003-5.041-4.8274m7.571 0c0-1.5506-1.065-2.6491-2.53-2.6491-1.466 0-2.53 1.0985-2.53 2.6491s1.064 2.6491 2.53 2.6491c1.465 0 2.53-1.0798 2.53-2.6491M174.168 15.2898c.482 0 .843.0394 1.265.1372v2.2375l-.682-.0198c-1.406 0-2.008.6278-2.008 1.9039v5.161h-2.55v-5.4363c0-2.2178 1.325-3.9835 3.976-3.9835zM16.2273 15.3312c.4797 0 .8392.0395 1.2594.1362v2.2277l-.6797-.0198c-1.3998 0-1.9998.6248-1.9998 1.895v5.1383h-2.539v-5.4117c0-2.2079 1.319-3.9657 3.9581-3.9657zM18.246 20.1181c0-2.7162 2.0997-4.7869 5.0185-4.7869s5.0185 2.0707 5.0185 4.7869-2.0997 4.8067-5.0185 4.8067-5.0185-2.0905-5.0185-4.8067m7.5364 0c0-1.5436-1.0595-2.6372-2.5189-2.6372s-2.5189 1.0936-2.5189 2.6372c0 1.5437 1.0595 2.6373 2.5189 2.6373s2.5189-1.0749 2.5189-2.6373M36.3983 20.1181c0-2.7162 2.0997-4.7869 5.0185-4.7869 2.9189 0 5.0186 2.0707 5.0186 4.7869s-2.0997 4.8067-5.0186 4.8067c-2.9188 0-5.0185-2.0905-5.0185-4.8067m7.5374 0c0-1.5436-1.0595-2.6372-2.5189-2.6372s-2.5188 1.0936-2.5188 2.6372c0 1.5437 1.0594 2.6373 2.5188 2.6373s2.5189-1.0749 2.5189-2.6373M52.1517 15.3312c2.7986 0 4.3782 1.7391 4.3782 4.1612v5.2162h-2.5188v-5.0208c0-1.3482-.6202-2.1882-1.8594-2.1882s-1.8593.84-1.8593 2.1882v5.0208h-2.5391v-5.2162c0-2.4231 1.5796-4.1612 4.3984-4.1612"/></g><defs><clipPath id="a"><path fill="#fff" d="M.953369 11.0102h174.48v13.9156h-174.48z"/></clipPath></defs></svg>