<svg xmlns="http://www.w3.org/2000/svg" width="162" height="30" viewBox="0 0 163 30"><defs><clipPath id="a"><path d="M116 6h47v18h-47Zm0 0"/></clipPath><clipPath id="b"><path d="M.03 0h33.1v30H.02Zm0 0"/></clipPath><clipPath id="d"><path d="M.03 5H25v22H.03Zm0 0"/></clipPath><linearGradient id="c" x1="831" x2="240.22" y1="782.55" y2="-236.27" gradientTransform="scale(.03605 .03606)" gradientUnits="userSpaceOnUse"><stop offset=".07" style="stop-color:#8effee;stop-opacity:1"/><stop offset=".45" style="stop-color:#c9c7ff;stop-opacity:1"/><stop offset="1" style="stop-color:#7341ff;stop-opacity:1"/></linearGradient><linearGradient id="e" x1="885.04" x2="57.74" y1="-909.44" y2="860.08" gradientTransform="scale(.03605 .03606)" gradientUnits="userSpaceOnUse"><stop offset=".48" style="stop-color:#6d4aff;stop-opacity:1"/><stop offset=".99" style="stop-color:#00f0c3;stop-opacity:1"/></linearGradient></defs><g clip-path="url(#a)"><path d="M141.52 6.62h-7.75v16.81h3.07v-4.18q0-.64.45-1.09c.29-.29.68-.45 1.09-.45h3.14a5.52 5.52 0 0 0 5.1-7.66 5.4 5.4 0 0 0-2.98-3 6 6 0 0 0-2.12-.43m2.42 5.51a2.6 2.6 0 0 1-.77 1.86 3 3 0 0 1-.85.56q-.48.2-1 .2h-4.5V9.52h4.5a2.6 2.6 0 0 1 2.61 2.63Zm-20.96 11.24-6.18-16.8h3.49l4.07 12.02q.24.65.35 1.33h.03q.08-.69.35-1.33l4.08-12.02h3.52l-6.22 16.8Zm25.22 0V6.57h2.69l7.92 10.42q.42.54.74 1.15h.05q-.09-.75-.08-1.52V6.57h3.18v16.8H160l-7.95-10.42a8 8 0 0 1-.73-1.16h-.03q.07.76.05 1.53v10.05zm0 0" style="stroke:none;fill-rule:nonzero;fill:#6d4aff;fill-opacity:1"/></g><path d="M44.98 18.84v4.33H48v-4.13c0-.4.16-.8.45-1.08q.44-.43 1.07-.44h3.09a5.5 5.5 0 0 0 0-10.95h-7.63v5.4H48V9.43h4.4a2.57 2.57 0 0 1 2.58 2.59 2.6 2.6 0 0 1-2.57 2.59h-3.2a4.2 4.2 0 0 0-3.9 2.62 4 4 0 0 0-.33 1.61m13.54 4.33v-6.59c0-2.69 1.55-4.83 4.68-4.83q.75 0 1.49.17v2.7l-.8-.01c-1.66 0-2.37.76-2.37 2.3v6.26Zm7.07-5.59c0-3.3 2.48-5.82 5.93-5.82a5.7 5.7 0 0 1 5.94 5.82c0 3.31-2.48 5.85-5.94 5.85a5.74 5.74 0 0 1-5.93-5.85m8.91 0c0-1.87-1.25-3.2-2.98-3.2s-2.98 1.32-2.98 3.2c0 1.9 1.26 3.22 2.98 3.22 1.73 0 2.98-1.32 2.98-3.22m12.55 0c0-3.3 2.49-5.82 5.94-5.82a5.7 5.7 0 0 1 5.94 5.82c0 3.31-2.48 5.85-5.94 5.85a5.74 5.74 0 0 1-5.94-5.85m8.92 0c0-1.87-1.26-3.2-2.98-3.2S90 15.7 90 17.57c0 1.9 1.26 3.22 2.98 3.22s2.98-1.32 2.98-3.22m4.51 5.59v-6.35c0-2.94 1.87-5.07 5.2-5.07 3.32 0 5.18 2.12 5.18 5.07v6.35h-2.97v-6.11c0-1.64-.74-2.67-2.2-2.67s-2.2 1.02-2.2 2.67v6.1Zm-14.32-8.78h-3.24v4.17c0 1.45.52 2.11 2 2.11.15 0 .5 0 .95-.02v2.45c-.61.17-1.16.26-1.75.26-2.5 0-4.2-1.52-4.2-4.4V14.4H77.9V12h.5a1.53 1.53 0 0 0 1.51-1.51V8.2h3V12h3.24zm0 0" style="stroke:none;fill-rule:nonzero;fill:#1b1340;fill-opacity:1"/><g clip-path="url(#b)"><path d="M13.32 28.22a3.47 3.47 0 0 0 5.91.22L32.55 8.3c1.41-2.14.06-5-2.5-5.29L3.88.03A3.43 3.43 0 0 0 .46 5.1Zm0 0" style="stroke:none;fill-rule:evenodd;fill:url(#c)"/></g><g clip-path="url(#d)"><path d="m14.07 26.1 1.18-1.76 8.98-13.56a1.9 1.9 0 0 0-1.39-2.94L.57 5.3 12.1 26.04c.42.74 1.48.78 1.96.07" style="stroke:none;fill-rule:nonzero;fill:url(#e)"/></g></svg>