<svg xmlns="http://www.w3.org/2000/svg" fill="none" viewBox="0 0 176 36"><g clip-path="url(#a)"><path fill="#1b1340" d="M.953369 21.1416v3.568H3.50253v-3.4121c0-.3316.13331-.6514.37369-.8853.23835-.2339.56356-.3672.90089-.3672h2.6148c1.21802 0 2.38757-.4757 3.24909-1.3245.8615-.8458 1.3453-1.9957 1.3453-3.1929s-.4848-2.3461-1.3453-3.1949c-.86051-.8468-2.03107-1.3226-3.25212-1.3226H.953369v4.4593H3.50253v-2.1013h3.71668c.5777 0 1.13015.225 1.53818.6257s.63729.9436.63729 1.5111-.22926 1.1104-.63729 1.5111-.96048.6257-1.53818.6257H4.51956c-.46761 0-.9322.0889-1.36244.2675-.43328.1757-.82414.4343-1.1554.76-.33127.3257-.59185.7126-.77364 1.136-.18179.4205-.274711.8765-.274711 1.3364M35.6356 17.4483h-2.736v3.4347c0 1.1972.4393 1.745 1.6967 1.745.1192 0 .4191 0 .7989-.0198v2.0204c-.5181.1362-.9777.2171-1.4786.2171-2.1159 0-3.5551-1.2554-3.5551-3.6291v-3.7683h-1.6998v-1.9819h.4252c.1677 0 .3343-.0336.4868-.0948.1556-.0641.295-.1559.4131-.2724.1192-.1165.2121-.2536.2778-.4066.0656-.153.0959-.3149.0959-.4787v-1.8674h2.535v3.1199h2.736v1.9819h.0041"/><path fill="#6d4aff" d="M127.502 17.4492h-2.736v3.4348c0 1.1972.439 1.745 1.697 1.745.119 0 .419 0 .799-.0198v2.0204c-.518.1362-.978.2171-1.479.2171-2.116 0-3.555-1.2554-3.555-3.6291v-3.7684h-1.7v-1.9818h.426c.167 0 .334-.0336.486-.0948.156-.0642.295-.1559.413-.2724.12-.1165.212-.2537.278-.4066.066-.153.096-.3149.096-.4787v-1.8674h2.535v3.1199h2.736v1.9818h.004M89.7297 17.4492h-2.736v3.4348c0 1.1972.4393 1.745 1.6967 1.745.1192 0 .4192 0 .7989-.0198v2.0204c-.5181.1362-.9776.2171-1.4786.2171-2.1159 0-3.5551-1.2554-3.5551-3.6291v-3.7684h-1.6997v-1.9818h.4252c.1676 0 .3343-.0336.4868-.0948.1555-.0642.2949-.1559.413-.2724.1192-.1165.2121-.2537.2778-.4066.0656-.153.0959-.3149.0959-.4787v-1.8674h2.535v3.1199h2.736v1.9818h.0041M159.009 17.4492h-2.736v3.4348c0 1.1972.44 1.745 1.697 1.745.119 0 .419 0 .799-.0198v2.0204c-.518.1362-.978.2171-1.479.2171-2.116 0-3.555-1.2554-3.555-3.6291v-3.7684h-1.7v-1.9818h.426c.167 0 .334-.0336.486-.0948.156-.0642.295-.1559.413-.2724.12-.1165.213-.2537.278-.4066.066-.153.096-.3149.096-.4787v-1.8674h2.535v3.1199h2.736v1.9818h.004M149.552 15.9056c.747.381 1.364.9662 1.779 1.6808.444.7768.667 1.6562.65 2.5445v4.5816h-2.259l-.161-1.3749c-.295.4984-.727.9051-1.247 1.1775-.558.2813-1.182.4234-1.811.4096-.804.0079-1.593-.2004-2.283-.604-.698-.4116-1.264-1.0018-1.642-1.7036-.412-.7738-.618-1.6335-.601-2.505-.012-.8577.214-1.7006.653-2.4467.428-.7235 1.049-1.3196 1.8-1.7233.778-.4205 1.654-.6376 2.543-.6267.896-.0168 1.783.1865 2.578.5902zm-.827 6.1627c.492-.4569.735-1.0995.735-1.9572.032-.7017-.223-1.3857-.703-1.9068-.229-.2339-.503-.4175-.81-.5458-.306-.1283-.631-.1925-.964-.1925-.332 0-.661.0642-.964.1925-.306.1283-.581.3119-.81.5458-.458.5339-.709 1.2081-.709 1.9039s.252 1.3699.709 1.9039c.226.2398.501.4254.81.5537.306.1253.637.1895.97.1806.321.0059.641-.0533.941-.1698.295-.1144.566-.2891.795-.5092zM65.3064 11.325h3.1531l4.96 13.3845h-2.731l-1.0443-2.8849h-5.5427l-1.0443 2.8849h-2.7108zm3.654 8.3015-1.8674-5.2004c-.1-.2941-.1606-.5103-.201-.7067h-.0404c-.0404.1964-.1.4126-.2009.7067l-1.8675 5.2004zM73.2581 20.725v-5.2399h2.5502v5.0633c0 1.3344.6029 2.1585 1.8078 2.1783 1.2857.0197 1.8472-.8044 1.8472-2.1783v-5.0633h2.5502v5.2597c0 2.3549-1.7876 4.1799-4.3984 4.1799-2.7916-.0198-4.358-1.7667-4.358-4.1997zM90.8708 12.3475h2.53v4.4533c.603-.9416 1.6867-1.5111 2.9118-1.5111 1.9078 0 3.554 1.2367 3.554 4.023v5.3968h-2.5501v-5.004c0-1.6483-.904-2.2178-1.8473-2.2178-1.2453 0-2.0684 1.0008-2.0684 2.4339v4.7889h-2.53zM100.871 20.0973c0-2.7675 2.008-4.8076 4.84-4.8076s4.74 2.0608 4.74 4.8076c0 .3533 0 .4905-.04.8439h-7.13c.301 1.2564 1.205 1.9236 2.43 1.9236 1.105 0 1.727-.2941 2.109-.9416h2.349c-.583 2.0411-2.49 3.0025-4.398 3.0025-2.932 0-4.901-2.0411-4.901-4.8274zm7.189-.8834c-.16-1.0797-1.125-1.8644-2.349-1.8644s-2.168.7462-2.45 1.8644zM115.692 15.2897c2.812 0 4.397 1.7469 4.397 4.1799v5.2399h-2.53V19.666c0-1.3542-.622-2.198-1.867-2.198-1.246 0-1.868.8438-1.868 2.198v5.0435h-2.55v-5.2399c0-2.4339 1.587-4.1799 4.418-4.1799M128.183 12.6219c0-.8439.723-1.5308 1.607-1.5308s1.587.6869 1.587 1.5308-.724 1.5111-1.587 1.5111c-.864 0-1.607-.6672-1.607-1.5111m.341 2.9837h2.53v9.2234h-2.53zM131.979 20.0973c0-2.7675 2.109-4.8076 4.981-4.8076 2.45 0 4.257 1.4321 4.638 3.5522h-2.47c-.362-.8834-1.085-1.3739-2.109-1.3739-1.465 0-2.53 1.0797-2.53 2.6293s1.065 2.6491 2.53 2.6491c1.024 0 1.727-.4905 2.109-1.3936h2.47c-.381 2.119-2.188 3.5719-4.638 3.5719-2.872 0-4.981-2.0609-4.981-4.8274M159.287 20.0973c0-2.728 2.109-4.8076 5.041-4.8076s5.041 2.0805 5.041 4.8076-2.109 4.8274-5.041 4.8274-5.041-2.1003-5.041-4.8274m7.571 0c0-1.5506-1.065-2.6491-2.53-2.6491-1.466 0-2.53 1.0985-2.53 2.6491s1.064 2.6491 2.53 2.6491c1.465 0 2.53-1.0798 2.53-2.6491M174.168 15.2897c.482 0 .843.0395 1.265.1372v2.2375l-.682-.0198c-1.406 0-2.008.6278-2.008 1.9039v5.161h-2.55v-5.4363c0-2.2178 1.325-3.9835 3.976-3.9835z"/><path fill="#1b1340" d="M16.2273 15.3312c.4797 0 .8392.0395 1.2594.1362v2.2276l-.6797-.0197c-1.3998 0-1.9998.6247-1.9998 1.895v5.1383h-2.539v-5.4117c0-2.2079 1.319-3.9657 3.9581-3.9657zM18.246 20.1181c0-2.7162 2.0997-4.7869 5.0185-4.7869s5.0185 2.0707 5.0185 4.7869-2.0997 4.8066-5.0185 4.8066-5.0185-2.0904-5.0185-4.8066m7.5364 0c0-1.5437-1.0595-2.6373-2.5189-2.6373s-2.5189 1.0936-2.5189 2.6373c0 1.5436 1.0595 2.6372 2.5189 2.6372s2.5189-1.0748 2.5189-2.6372M36.3983 20.1181c0-2.7162 2.0997-4.7869 5.0185-4.7869 2.9189 0 5.0186 2.0707 5.0186 4.7869s-2.0997 4.8066-5.0186 4.8066c-2.9188 0-5.0185-2.0904-5.0185-4.8066m7.5374 0c0-1.5437-1.0595-2.6373-2.5189-2.6373s-2.5188 1.0936-2.5188 2.6373c0 1.5436 1.0594 2.6372 2.5188 2.6372s2.5189-1.0748 2.5189-2.6372M52.1517 15.3312c2.7986 0 4.3782 1.7391 4.3782 4.1611v5.2163h-2.5188v-5.0208c0-1.3483-.6202-2.1882-1.8594-2.1882s-1.8593.8399-1.8593 2.1882v5.0208h-2.5391v-5.2163c0-2.423 1.5796-4.1611 4.3984-4.1611"/></g><defs><clipPath id="a"><path fill="#fff" d="M.953369 11.0101h174.48v13.9156h-174.48z"/></clipPath></defs></svg>