<svg xmlns="http://www.w3.org/2000/svg" width="399.111" height="248"><defs><clipPath id="a" clipPathUnits="userSpaceOnUse"><path d="M0 186h299.333V0H0Z"/></clipPath></defs><g clip-path="url(#a)" transform="matrix(1.33333 0 0 -1.33333 0 248)"><path d="M0 0h9.76c1.44 0 2.826-.107 4.16-.32 1.332-.214 2.506-.627 3.52-1.24 1.013-.614 1.826-1.48 2.44-2.6.612-1.12.92-2.588.92-4.4 0-1.814-.308-3.28-.92-4.4-.614-1.12-1.427-1.987-2.44-2.6-1.014-.614-2.188-1.027-3.52-1.24a26.232 26.232 0 0 0-4.16-.32H0Zm0-26.88h13.2c3.572 0 6.612.52 9.12 1.56 2.506 1.04 4.546 2.413 6.12 4.12a15.781 15.781 0 0 1 3.44 5.88 21.719 21.719 0 0 1 1.08 6.76c0 2.347-.36 4.613-1.08 6.8a15.853 15.853 0 0 1-3.44 5.84c-1.574 1.707-3.614 3.08-6.12 4.12-2.508 1.04-5.548 1.56-9.12 1.56h-25.76v-57.12H0Z" style="fill:#000;fill-opacity:1;fill-rule:nonzero;stroke:none" transform="translate(26.747 163.36)"/><path d="M0 0h13.76c2.88 0 5.04-.627 6.48-1.88 1.44-1.254 2.16-3.267 2.16-6.04 0-2.88-.72-4.96-2.16-6.24-1.44-1.28-3.6-1.92-6.48-1.92H0Zm0-25.04h12.56c3.146 0 5.413-.693 6.8-2.08 1.386-1.387 2.292-3.574 2.72-6.56.32-2.294.56-4.694.72-7.2.16-2.507.586-4.667 1.28-6.48h12.56c-.588.8-1.027 1.773-1.32 2.92a25.23 25.23 0 0 0-.641 3.64 62.41 62.41 0 0 0-.279 3.76 263.096 263.096 0 0 1-.16 3.2 34.637 34.637 0 0 1-.6 4.32c-.295 1.44-.76 2.76-1.4 3.96a10.877 10.877 0 0 1-2.481 3.12c-1.013.88-2.293 1.533-3.839 1.96v.16c3.201 1.28 5.505 3.146 6.919 5.6C34.251-12.268 34.96-9.36 34.96-6c0 2.187-.388 4.227-1.16 6.12a14.755 14.755 0 0 1-3.361 5c-1.467 1.44-3.227 2.573-5.279 3.4-2.054.826-4.36 1.24-6.92 1.24h-30.8v-57.12H0Z" style="fill:#000;fill-opacity:1;fill-rule:nonzero;stroke:none" transform="translate(79.946 163.36)"/><path d="M0 0c7.627 0 13.601 1.88 17.92 5.64 4.32 3.76 6.48 9.506 6.48 17.24V58.4H11.841V22.88c0-4.268-.855-7.4-2.561-9.4-1.707-2-4.8-3-9.28-3-2.56 0-4.6.36-6.119 1.08-1.521.72-2.708 1.652-3.561 2.8-.853 1.146-1.414 2.466-1.679 3.96a25.75 25.75 0 0 0-.401 4.56V58.4h-12.559V22.88c0-7.788 2.12-13.547 6.359-17.28C-13.72 1.866-7.733 0 0 0" style="fill:#000;fill-opacity:1;fill-rule:nonzero;stroke:none" transform="translate(149.065 114.72)"/><path d="M0 0a12.484 12.484 0 0 0-3.6-1.08c-1.28-.187-2.48-.28-3.6-.28-1.654 0-3.254.2-4.8.6-1.548.4-2.894 1.013-4.04 1.84-1.147.826-2.067 1.906-2.76 3.24-.694 1.333-1.04 2.96-1.04 4.88H-32c-.054-3.52.586-6.56 1.92-9.12 1.333-2.56 3.133-4.667 5.4-6.32 2.266-1.654 4.88-2.867 7.84-3.64a36.146 36.146 0 0 1 9.16-1.16c3.893 0 7.32.454 10.28 1.36 2.961.907 5.44 2.173 7.44 3.8 2 1.627 3.506 3.56 4.521 5.8 1.011 2.24 1.519 4.666 1.519 7.28 0 3.2-.68 5.826-2.04 7.88-1.36 2.053-2.974 3.693-4.84 4.92-1.867 1.227-3.748 2.12-5.639 2.68-1.895.56-3.374.946-4.441 1.16a866.652 866.652 0 0 0-8.68 2.24c-2.213.587-3.948 1.173-5.2 1.76-1.254.586-2.094 1.226-2.52 1.92-.427.693-.64 1.6-.64 2.72 0 1.227.267 2.24.8 3.04a6.936 6.936 0 0 0 2.04 2 8.141 8.141 0 0 0 2.76 1.12c1.012.213 2.026.32 3.04.32 1.547 0 2.972-.133 4.28-.4 1.307-.267 2.467-.72 3.48-1.36 1.012-.64 1.827-1.52 2.44-2.64.612-1.12.973-2.534 1.08-4.24h12.16c0 3.306-.628 6.12-1.88 8.44a16.406 16.406 0 0 1-5.08 5.72c-2.134 1.493-4.574 2.573-7.32 3.24-2.747.667-5.613 1-8.6 1-2.56 0-5.12-.347-7.68-1.04-2.56-.694-4.854-1.76-6.88-3.2a17.015 17.015 0 0 1-4.92-5.4c-1.254-2.16-1.88-4.707-1.88-7.64 0-2.613.492-4.84 1.48-6.68.987-1.84 2.28-3.373 3.88-4.6 1.6-1.227 3.412-2.227 5.44-3a54.613 54.613 0 0 1 6.24-1.96c2.08-.587 4.133-1.12 6.16-1.6 2.026-.48 3.84-1.04 5.441-1.68 1.599-.64 2.891-1.44 3.879-2.4.987-.96 1.48-2.213 1.48-3.76 0-1.44-.374-2.627-1.12-3.56A7.857 7.857 0 0 0 0 0" style="fill:#000;fill-opacity:1;fill-rule:nonzero;stroke:none" transform="translate(212.504 125.76)"/><path d="M0 0h.159l7.2-20.96H-7.44Zm-10.721-30.32H10.64l4.32-12.72H28L6.64 14.08H-6.24l-21.601-57.12H-15.2Z" style="fill:#000;fill-opacity:1;fill-rule:nonzero;stroke:none" transform="translate(257.704 159.04)"/><path d="M0 0c.81.72 1.215 1.89 1.215 3.51C1.215 5.07.81 6.203 0 6.908c-.811.704-2.025 1.057-3.646 1.057h-7.74V-1.08h7.74C-2.025-1.08-.811-.72 0 0" style="fill:#000;fill-opacity:1;fill-rule:nonzero;stroke:none" transform="translate(46.556 79.341)"/><path d="M0 0c.811.72 1.215 1.89 1.215 3.51C1.215 5.07.811 6.203 0 6.908c-.81.704-2.024 1.057-3.645 1.057h-7.74V-1.08h7.74C-2.024-1.08-.81-.72 0 0" style="fill:#000;fill-opacity:1;fill-rule:nonzero;stroke:none" transform="translate(196.944 79.341)"/><path d="M0 0h-.09l-4.185-11.79H4.05Z" style="fill:#000;fill-opacity:1;fill-rule:nonzero;stroke:none" transform="translate(160.134 84.876)"/><path d="M0 0h17.325c1.44 0 2.737-.232 3.892-.697 1.155-.466 2.144-1.103 2.97-1.913a8.31 8.31 0 0 0 1.89-2.812c.435-1.066.652-2.213.652-3.443 0-1.89-.397-3.525-1.192-4.905-.795-1.38-2.093-2.43-3.892-3.15v-.09c.87-.24 1.589-.607 2.16-1.102a6.13 6.13 0 0 0 1.395-1.755c.36-.675.622-1.418.787-2.228.164-.81.278-1.62.338-2.43.029-.51.06-1.11.09-1.8.029-.69.082-1.395.157-2.115.074-.72.195-1.403.361-2.047.164-.646.412-1.193.742-1.643h-7.066c-.389 1.02-.63 2.234-.719 3.645-.09 1.41-.225 2.76-.406 4.05-.24 1.68-.75 2.91-1.529 3.69-.781.78-2.056 1.17-3.825 1.17H7.064V-32.13H0zm32.399 0h24.03v-5.94H39.464v-6.885h15.57v-5.49h-15.57v-7.875h17.325v-5.94h-24.39zm46.417-21.285c-.555.54-1.282.99-2.182 1.35-.9.36-1.92.675-3.06.945-1.14.27-2.295.57-3.465.9-1.2.299-2.37.667-3.51 1.103-1.14.434-2.16.997-3.06 1.687a7.94 7.94 0 0 0-2.183 2.588c-.555 1.035-.832 2.287-.832 3.757 0 1.65.352 3.082 1.057 4.298a9.582 9.582 0 0 0 2.768 3.037c1.14.81 2.43 1.41 3.87 1.8 1.44.39 2.88.585 4.32.585 1.68 0 3.292-.188 4.838-.562 1.544-.376 2.917-.983 4.117-1.823a9.239 9.239 0 0 0 2.858-3.217c.704-1.306 1.057-2.888 1.057-4.748h-6.84c-.06.96-.263 1.755-.607 2.385a3.993 3.993 0 0 1-1.373 1.485 5.83 5.83 0 0 1-1.957.765c-.736.15-1.538.225-2.408.225-.571 0-1.14-.06-1.71-.18a4.563 4.563 0 0 1-1.552-.63 3.886 3.886 0 0 1-1.148-1.125c-.3-.45-.45-1.02-.45-1.71 0-.63.119-1.14.36-1.53.24-.39.713-.75 1.418-1.08.704-.331 1.679-.66 2.924-.99 1.246-.33 2.872-.75 4.883-1.26.6-.12 1.432-.337 2.497-.652s2.122-.818 3.173-1.508c1.05-.691 1.957-1.613 2.723-2.767.764-1.155 1.147-2.633 1.147-4.433 0-1.47-.286-2.835-.855-4.095-.571-1.26-1.417-2.348-2.542-3.262-1.125-.916-2.521-1.628-4.186-2.138s-3.593-.765-5.782-.765c-1.77 0-3.487.218-5.152.653-1.665.434-3.136 1.117-4.41 2.047a10.095 10.095 0 0 0-3.038 3.555c-.751 1.44-1.11 3.15-1.08 5.13h6.84c0-1.08.195-1.995.585-2.745.39-.75.907-1.357 1.553-1.822.644-.466 1.401-.81 2.272-1.035.869-.225 1.77-.338 2.7-.338.63 0 1.305.052 2.025.157.72.105 1.395.308 2.025.608.63.3 1.155.712 1.575 1.238.419.524.63 1.192.63 2.002 0 .87-.278 1.575-.833 2.115M90.583 0h24.03v-5.94H97.648v-6.885h15.571v-5.49H97.648v-7.875h17.326v-5.94H90.583Zm37.845 0h7.245l12.015-32.13h-7.334l-2.431 7.155h-12.015l-2.52-7.155h-7.11zm21.96 0h17.325c1.44 0 2.737-.232 3.892-.697 1.155-.466 2.145-1.103 2.971-1.913a8.339 8.339 0 0 0 1.89-2.812 9.04 9.04 0 0 0 .652-3.443c0-1.89-.397-3.525-1.192-4.905-.795-1.38-2.093-2.43-3.893-3.15v-.09c.87-.24 1.59-.607 2.16-1.102a6.096 6.096 0 0 0 1.395-1.755c.36-.675.623-1.418.788-2.228.164-.81.276-1.62.337-2.43.03-.51.06-1.11.09-1.8s.083-1.395.158-2.115c.074-.72.194-1.403.359-2.047.165-.646.412-1.193.743-1.643h-7.065c-.39 1.02-.63 2.234-.72 3.645-.09 1.41-.225 2.76-.405 4.05-.24 1.68-.75 2.91-1.53 3.69-.781.78-2.055 1.17-3.824 1.17h-7.066V-32.13h-7.065zm32.085-9.518c.719 2.055 1.755 3.848 3.104 5.378 1.351 1.53 3.008 2.73 4.973 3.6 1.965.87 4.178 1.305 6.637 1.305 1.77 0 3.443-.255 5.018-.765a13.611 13.611 0 0 0 4.231-2.228 12.048 12.048 0 0 0 3.082-3.622c.809-1.44 1.319-3.09 1.53-4.95h-6.84a5.795 5.795 0 0 1-.811 2.228 7.08 7.08 0 0 1-1.575 1.777 7.28 7.28 0 0 1-2.136 1.192 7.33 7.33 0 0 1-2.499.428c-1.59 0-2.94-.308-4.049-.922a7.65 7.65 0 0 1-2.701-2.475c-.69-1.035-1.192-2.213-1.507-3.533a17.582 17.582 0 0 1-.472-4.095c0-1.35.157-2.663.472-3.937a10.624 10.624 0 0 1 1.507-3.443 7.71 7.71 0 0 1 2.701-2.452c1.109-.615 2.459-.923 4.049-.923 2.161 0 3.848.66 5.063 1.98 1.215 1.32 1.958 3.06 2.228 5.22h6.839c-.179-2.01-.645-3.825-1.394-5.445-.75-1.62-1.74-3-2.971-4.14-1.23-1.14-2.67-2.01-4.319-2.61-1.651-.6-3.465-.9-5.446-.9-2.459 0-4.672.428-6.637 1.283-1.965.855-3.622 2.032-4.973 3.532-1.349 1.5-2.385 3.263-3.104 5.287-.72 2.026-1.08 4.208-1.08 6.548 0 2.4.36 4.627 1.08 6.682M216.043 0h7.064v-12.33h13.005V0h7.066v-32.13h-7.066v13.86h-13.005v-13.86h-7.064zM-14.105-48.13h271.333v64.667H-14.105Z" style="fill:#000;fill-opacity:1;fill-rule:nonzero;stroke:none" transform="translate(28.106 92.796)"/><path d="M0 0c-.44-.638-1.058-.956-1.852-.956-.918 0-1.6.329-2.047.988-.448.659-.672 1.489-.672 2.492 0 .852.109 1.547.325 2.084.419 1.01 1.188 1.515 2.307 1.515 1.105 0 1.863-.516 2.274-1.547.217-.544.326-1.232.326-2.062C.661 1.475.44.637 0 0m-1.079 8.798c-.858 0-1.565-.179-2.119-.537-.469-.287-.898-.702-1.287-1.246v5.629h-3.061V-3.169h3.018v1.472c.41-.574.792-.974 1.145-1.203.59-.387 1.371-.58 2.342-.58 1.548 0 2.754.597 3.618 1.793.863 1.196 1.296 2.704 1.296 4.523 0 1.754-.438 3.186-1.314 4.297C1.683 8.243.47 8.798-1.079 8.798" style="fill:#000;fill-opacity:1;fill-rule:nonzero;stroke:none" transform="translate(20.867 16.057)"/><path d="m0 0-2.557 8.637h-3.405L-1.66-3.588c.022-.086-.045-.322-.198-.709-.155-.387-.321-.64-.5-.763a1.554 1.554 0 0 0-.687-.247 4.944 4.944 0 0 0-.86-.032l-.387.022v-2.45c.33-.021.578-.033.743-.037.164-.004.383-.006.655-.006 1.355 0 2.259.268 2.71.801.452.533 1.066 1.91 1.842 4.13L5.672 8.637H2.417Z" style="fill:#000;fill-opacity:1;fill-rule:nonzero;stroke:none" transform="translate(31.62 15.96)"/><path d="M0 0c0-1.185-.109-2.025-.327-2.523-.364-.842-1.113-1.262-2.246-1.262-1.144 0-1.89.384-2.238 1.154-.348.769-.543 2.1-.585 3.992v.565h-4.831v-.565c0-2.878.531-5.149 1.591-6.815 1.06-1.666 3.144-2.498 6.25-2.498s5.254 1.029 6.444 3.088C4.762-3.647 5.113-1.998 5.113.083v17.033H0Z" style="fill:#000;fill-opacity:1;fill-rule:nonzero;stroke:none" transform="translate(54.76 20.242)"/><path d="M0 0c-1.19-1.494-2.797-2.241-4.823-2.241-2.025 0-3.641.747-4.847 2.241-1.207 1.494-1.81 3.619-1.81 6.375s.603 4.881 1.81 6.375c1.206 1.494 2.822 2.241 4.847 2.241 2.026 0 3.633-.75 4.823-2.249 1.189-1.5 1.785-3.622 1.785-6.367C1.785 3.619 1.189 1.494 0 0m-4.823 19.324c-3.497 0-6.17-.952-8.018-2.855-2.48-2.247-3.719-5.612-3.719-10.094 0-4.394 1.239-7.759 3.719-10.094 1.848-1.904 4.521-2.855 8.018-2.855 3.497 0 6.17.951 8.019 2.855 2.468 2.335 3.702 5.7 3.702 10.094 0 4.482-1.234 7.847-3.702 10.094-1.849 1.903-4.522 2.855-8.019 2.855" style="fill:#000;fill-opacity:1;fill-rule:nonzero;stroke:none" transform="translate(80.932 18.781)"/><path d="M0 0c-.939.741-2.35 1.333-4.232 1.776l-4.295 1.013c-1.657.387-2.74.725-3.251 1.013-.794.431-1.191 1.084-1.191 1.959 0 .951.402 1.693 1.208 2.224.806.532 1.884.797 3.234.797 1.214 0 2.229-.205 3.047-.614 1.225-.62 1.883-1.666 1.974-3.138h4.914c-.09 2.601-1.056 4.585-2.899 5.952s-4.071 2.05-6.681 2.05c-3.126 0-5.495-.725-7.109-2.175-1.613-1.45-2.42-3.27-2.42-5.461 0-2.402.825-4.167 2.474-5.296.974-.676 2.763-1.301 5.366-1.876l2.65-.581c1.55-.332 2.683-.714 3.397-1.146.714-.443 1.071-1.068 1.071-1.876 0-1.384-.729-2.33-2.186-2.839-.769-.265-1.769-.398-3.001-.398-2.056 0-3.508.503-4.356 1.511-.464.553-.774 1.388-.932 2.506h-4.881c0-2.546.923-4.546 2.768-6.001 1.846-1.456 4.38-2.183 7.602-2.183 3.154 0 5.596.739 7.324 2.216 1.729 1.478 2.593 3.334 2.593 5.57C2.188-2.817 1.458-1.151 0 0" style="fill:#000;fill-opacity:1;fill-rule:nonzero;stroke:none" transform="translate(108.635 25.04)"/><path d="M0 0h11.887v4.25H0v5.196h12.949v4.333H-4.997v-24.47h18.544v4.399H0Z" style="fill:#000;fill-opacity:1;fill-rule:nonzero;stroke:none" transform="translate(119.555 23.58)"/><path d="M0 0h5.08v10.26h10.841v4.25H5.08v5.628h12.368v4.299H0Z" style="fill:#000;fill-opacity:1;fill-rule:nonzero;stroke:none" transform="translate(137.087 12.888)"/><path d="M0 0c-.647-.587-1.555-.88-2.721-.88h-4.608v7.205h4.608c1.166 0 2.074-.271 2.721-.813.647-.543.972-1.45.972-2.723S.647.586 0 0m3.892 8.683C2.451 9.944.521 10.575-1.902 10.575h-10.507v-24.471h5.08v8.799h5.095c2.659 0 4.705.598 6.137 1.793C5.335-2.108 6.052-.066 6.052 2.822c0 2.645-.72 4.599-2.16 5.861" style="fill:#000;fill-opacity:1;fill-rule:nonzero;stroke:none" transform="translate(179.827 26.783)"/><path d="M0 0c-.547-.266-1.367-.398-2.46-.398h-5.503v6.574h5.645c1.051 0 1.839-.144 2.365-.432.935-.509 1.403-1.505 1.403-2.988C1.45 1.383.967.465 0 0m6.034-12.036c-.09.398-.135 1.156-.135 2.274v1.644c0 1.715-.235 2.991-.706 3.826-.469.836-1.269 1.48-2.398 1.935C4.146-1.893 5.113-1.099 5.7.025c.587 1.123.88 2.266.88 3.428 0 .963-.151 1.82-.453 2.573a7.636 7.636 0 0 1-1.231 2.059 6.042 6.042 0 0 1-2.291 1.71c-.901.387-2.188.598-3.86.631H-12.96v-24.471h4.997v9.596h4.994c1.424 0 2.395-.26 2.913-.78.519-.521.787-1.561.809-3.122l.033-2.274c.011-.72.083-1.422.216-2.108.066-.332.177-.77.332-1.312h5.645v.614c-.496.299-.81.764-.945 1.395" style="fill:#000;fill-opacity:1;fill-rule:nonzero;stroke:none" transform="translate(203.056 26.933)"/><path d="M0 0c0-1.681-.198-2.908-.596-3.682-.617-1.372-1.957-2.057-4.019-2.057-2.073 0-3.419.685-4.036 2.057-.398.774-.596 2.001-.596 3.682v15.029h-5.196V-.012c0-2.601.403-4.626 1.21-6.076 1.513-2.656 4.386-3.984 8.618-3.984 4.231 0 7.098 1.328 8.601 3.984.807 1.45 1.21 3.475 1.21 6.076v15.041H0Z" style="fill:#000;fill-opacity:1;fill-rule:nonzero;stroke:none" transform="translate(228.977 22.33)"/><path d="M0 0c-.939.741-2.35 1.333-4.231 1.776l-4.295 1.013c-1.658.387-2.741.725-3.251 1.013-.794.431-1.192 1.084-1.192 1.959 0 .951.403 1.693 1.208 2.224.806.532 1.884.797 3.235.797 1.214 0 2.229-.205 3.046-.614 1.225-.62 1.883-1.666 1.974-3.138h4.914c-.09 2.601-1.055 4.585-2.899 5.952-1.843 1.367-4.07 2.05-6.68 2.05-3.126 0-5.496-.725-7.109-2.175-1.614-1.45-2.42-3.27-2.42-5.461 0-2.402.824-4.167 2.473-5.296.974-.676 2.763-1.301 5.367-1.876l2.649-.581c1.551-.332 2.684-.714 3.398-1.146.713-.443 1.071-1.068 1.071-1.876 0-1.384-.729-2.33-2.187-2.839-.768-.265-1.768-.398-3-.398-2.057 0-3.509.503-4.356 1.511-.464.553-.775 1.388-.933 2.506h-4.881c0-2.546.923-4.546 2.769-6.001 1.846-1.456 4.38-2.183 7.601-2.183 3.155 0 5.596.739 7.325 2.216 1.728 1.478 2.592 3.334 2.592 5.57C2.188-2.817 1.459-1.151 0 0" style="fill:#000;fill-opacity:1;fill-rule:nonzero;stroke:none" transform="translate(255.99 25.04)"/><path d="m0 0 3.176 9.629L6.268 0Zm.338 15.224L-8.397-9.247h5.348l1.658 5.03h9.012l1.615-5.03h5.545L6.123 15.224Z" style="fill:#000;fill-opacity:1;fill-rule:nonzero;stroke:none" transform="translate(268.425 22.135)"/></g></svg>