<svg width="32" height="31" viewBox="0 0 32 31" fill="none" xmlns="http://www.w3.org/2000/svg">
<g clip-path="url(#clip0_2_243)">
<path d="M5.65714 0H26.3429C29.4857 0 32 2.51429 32 5.65714V25.2C32 28.3429 29.4857 30.8571 26.3429 30.8571H5.65714C2.51429 30.8571 0 28.3429 0 25.2V5.65714C0 2.51429 2.51429 0 5.65714 0Z" fill="#808080"/>
<path d="M6.62856 21.5429V8.05717C6.62856 7.94289 6.6857 7.88574 6.74284 7.88574C6.97141 7.88574 7.25713 7.88574 7.54284 7.88574C7.82855 7.88574 8.17141 7.88574 8.57141 7.88574C8.91427 7.88574 9.31427 7.88574 9.71427 7.88574C10.1143 7.88574 10.5143 7.88574 10.9143 7.88574C11.8286 7.88574 12.7428 8.00003 13.6 8.28574C14.2857 8.51431 14.8571 8.85717 15.3714 9.37146C15.7714 9.77146 16.1143 10.2857 16.3428 10.8572C16.5143 11.4286 16.6286 12 16.6286 12.5715C16.6857 13.5429 16.4 14.5143 15.8286 15.3715C15.3143 16.1143 14.5714 16.6857 13.7143 16.9715C12.7428 17.3143 11.7714 17.4857 10.7428 17.4857C10.4571 17.4857 10.2286 17.4857 10.1143 17.4857C9.99998 17.4857 9.77141 17.4857 9.54284 17.4857V21.6572C9.54284 21.7715 9.4857 21.8286 9.37141 21.8286H9.31427H6.74284C6.6857 21.7143 6.62856 21.6572 6.62856 21.5429ZM9.54284 10.4V14.8C9.71427 14.8 9.8857 14.8 10.0571 14.8H10.7428C11.2571 14.8 11.7714 14.7429 12.2286 14.5715C12.6286 14.4572 13.0286 14.2286 13.3143 13.8857C13.6 13.4857 13.7714 13.0286 13.7143 12.5143C13.7143 12.1143 13.6 11.7143 13.4286 11.3715C13.2 11.0286 12.8571 10.7429 12.5143 10.6286C12 10.4572 11.4857 10.3429 10.9714 10.3429C10.6286 10.3429 10.3428 10.3429 10.0571 10.3429C9.82856 10.4 9.65713 10.4 9.54284 10.4Z" fill="white"/>
<path d="M24.8571 13.9429C24.3428 13.7143 23.8286 13.6 23.3143 13.4857C22.8571 13.3714 22.3428 13.3143 21.8286 13.3143C21.5428 13.3143 21.3143 13.3143 21.0286 13.4286C20.8571 13.4857 20.7428 13.5429 20.6286 13.7143C20.5714 13.8286 20.5143 13.9429 20.5143 14.0572C20.5143 14.1714 20.5714 14.2857 20.6286 14.4C20.7428 14.5714 20.9143 14.6857 21.0857 14.7429C21.3714 14.9143 21.7143 15.0286 22 15.2C22.6857 15.4286 23.3714 15.7714 24 16.1714C24.4571 16.4572 24.8 16.8 25.0286 17.2572C25.2571 17.6572 25.3714 18.1143 25.3143 18.6286C25.3143 19.2572 25.1428 19.8286 24.8 20.4C24.4571 20.9143 23.9428 21.3143 23.3143 21.6C22.5714 21.8857 21.7714 22.0572 20.9143 22C20.3428 22 19.7143 21.9429 19.1428 21.8286C18.6286 21.7143 18.1714 21.6 17.7143 21.4286C17.6 21.3714 17.5428 21.2572 17.5428 21.2V18.9143C17.5428 18.8572 17.5428 18.8 17.6 18.8C17.6571 18.8 17.6571 18.8 17.7143 18.8C18.2286 19.0857 18.8 19.3143 19.4286 19.4286C19.9428 19.5429 20.4571 19.6 20.9714 19.6572C21.3714 19.6572 21.7143 19.6 22.0571 19.4857C22.2857 19.3714 22.4 19.2 22.4 18.9143C22.4 18.6857 22.2857 18.5143 22.0571 18.4C21.6571 18.1143 21.2 17.9429 20.7428 17.7714C20.0571 17.5429 19.4286 17.2 18.8571 16.8C18.4571 16.5143 18.1143 16.1143 17.8857 15.7143C17.6571 15.3143 17.6 14.8572 17.6 14.4C17.6 13.8286 17.7714 13.3143 18.0571 12.8C18.4 12.2857 18.8571 11.8286 19.4286 11.6C20.0571 11.2572 20.8 11.0857 21.5428 11.0857C22.1143 11.0286 22.7428 11.0857 23.3143 11.0857C23.7714 11.2 24.2857 11.3143 24.6857 11.5429C24.7428 11.5429 24.8 11.6 24.8 11.6572C24.8 11.7143 24.8 11.7714 24.8 11.8286V13.9429C24.8 14 24.8 14.0572 24.7428 14.0572C24.9714 14 24.9143 14 24.8571 13.9429Z" fill="white"/>
</g>
<defs>
<clipPath id="clip0_2_243">
<rect width="32" height="30.8571" fill="white"/>
</clipPath>
</defs>
</svg>
