<svg xmlns="http://www.w3.org/2000/svg" preserveAspectRatio="xMidYMid" viewBox="0 0 256 271"><path d="M43.705 150.707c10.013-5.781 10.03-24.497.038-41.804-9.993-17.306-26.21-26.65-36.223-20.868-10.012 5.78-10.029 24.497-.037 41.803 9.992 17.307 26.21 26.65 36.222 20.869Zm.06 37.058c9.993 17.306 9.976 36.022-.037 41.803-10.013 5.781-26.23-3.562-36.222-20.869-9.992-17.306-9.976-36.022.037-41.803 10.013-5.781 26.23 3.562 36.222 20.869ZM112 227.214c9.992 17.306 9.976 36.021-.037 41.804-10.013 5.78-26.23-3.563-36.222-20.87-9.992-17.306-9.976-36.022.037-41.803 10.013-5.781 26.23 3.562 36.222 20.869Zm-.022-78.86c9.992 17.306 9.975 36.022-.037 41.803-10.013 5.781-26.23-3.562-36.222-20.869-9.993-17.306-9.976-36.022.037-41.803 10.012-5.781 26.23 3.562 36.222 20.868Z" fill="#F26E7E"/><path d="M248.477 129.882c9.992-17.307 9.976-36.023-.037-41.804-10.012-5.78-26.23 3.562-36.222 20.869-9.992 17.306-9.975 36.022.037 41.804 10.013 5.78 26.23-3.563 36.222-20.87Zm.002 37.039c10.013 5.78 10.03 24.497.038 41.803-9.992 17.307-26.21 26.65-36.222 20.869-10.013-5.781-10.03-24.497-.038-41.804 9.993-17.306 26.21-26.65 36.222-20.868Zm-68.22 39.384c10.013 5.781 10.03 24.497.038 41.804-9.992 17.305-26.21 26.649-36.223 20.868-10.012-5.78-10.029-24.497-.037-41.803 9.993-17.307 26.21-26.65 36.222-20.869Zm-.038-78.843c10.013 5.781 10.03 24.497.037 41.804-9.992 17.306-26.21 26.65-36.222 20.869-10.013-5.781-10.03-24.498-.037-41.804 9.992-17.307 26.209-26.65 36.222-20.869Z" fill="#8A3391"/><path d="M164.153 20.935c0 11.562-16.2 20.935-36.185 20.935-19.984 0-36.185-9.373-36.185-20.935S107.983 0 127.968 0c19.985 0 36.185 9.373 36.185 20.935Zm-68.22 39.344c0 11.562-16.2 20.935-36.184 20.935-19.985 0-36.185-9.373-36.185-20.935s16.2-20.935 36.185-20.935c19.984 0 36.185 9.373 36.185 20.935Zm100.344 20.935c19.985 0 36.185-9.373 36.185-20.935s-16.2-20.935-36.185-20.935c-19.984 0-36.185 9.373-36.185 20.935s16.2 20.935 36.185 20.935ZM164.153 99.71c0 11.562-16.2 20.935-36.185 20.935-19.984 0-36.185-9.373-36.185-20.935s16.2-20.935 36.185-20.935c19.985 0 36.185 9.373 36.185 20.935Z" fill="#F7BF2A"/></svg>