<svg xmlns="http://www.w3.org/2000/svg" width="241" height="64" fill="none" viewBox="0 0 241 64">
  <g clip-path="url(#a)">
    <path fill="#dc244c" d="M28.214 0 .5 16v32l27.714 16 10.392-6V46l-10.392 6-17.32-10V22l17.32-10 17.32 10v40l10.393-6V16z"/>
    <path fill="#dc244c" d="M17.822 26v12l10.392 6 10.392-6V26l-10.392-6z"/>
    <path fill="#9e0d38" d="M38.606 46v12l-10.392 6V52zm17.321-30v40l-10.393 6V22z"/>
    <path fill="#ff516b" d="m55.927 16-10.393 6-17.32-10-17.32 10L.5 16 28.214 0z"/>
    <path fill="#dc244c" d="M28.214 52v12L.5 48V16l10.394 6v20z"/>
    <path fill="#ff516b" d="m38.606 26-10.392 6-10.392-6 10.392-6z"/>
    <path fill="#dc244c" d="M28.214 32v12l-10.392-6V26z"/>
    <path fill="#9e0d38" d="M38.606 26v12l-10.392 6V32z"/>
    <path fill="#0b0f19" d="M106.565 40.173q1.244-3.452 1.245-8.016V32q0-6.279-2.256-10.56c-1.504-2.854-3.626-5.008-6.355-6.46q-4.101-2.18-9.651-2.18-4.154 0-7.55 1.22-3.397 1.218-5.76 3.657-2.361 2.438-3.657 6.019T71.285 32v.157q0 6.072 2.205 10.195 2.204 4.127 6.304 6.227 4.099 2.103 9.757 2.103h22.489v-5.917h-7.987q1.578-1.987 2.522-4.592zm-21.481 3.891q-1.973-.7-3.373-2.051a8.55 8.55 0 0 1-2.103-3.245q-.7-1.895-.7-4.333V29.35q0-3.01 1.168-5.318 1.165-2.309 3.555-3.632 2.386-1.325 5.968-1.325 2.646.002 4.669.752 2.024.755 3.347 2.128a8.7 8.7 0 0 1 1.971 3.27c.432 1.265.65 2.637.65 4.125v5.085q0 3.219-1.245 5.527-1.247 2.308-3.632 3.555-2.385 1.244-5.76 1.245-2.543 0-4.515-.701zm47.472-16.682c-.66-1.488-1.738-2.672-3.245-3.555q-2.257-1.325-5.059-1.325-2.44.002-4.41.83a8.7 8.7 0 0 0-3.373 2.518q-1.402 1.686-2.128 4.307-.728 2.621-.726 6.15v.986q0 4.256 1.142 7.395 1.143 3.14 3.504 4.826c1.575 1.123 3.587 1.686 6.045 1.686q2.803 0 5.034-1.296 2.232-1.297 3.216-3.58h.361l.365 4.358h6.435v-37.83h-6.797v14.53zm.361 11.728q0 3.063-1.635 4.8-1.635 1.738-4.384 1.738-1.867.002-3.245-.726-1.377-.728-2.102-2.154-.729-1.426-.727-3.45v-4.93c0-1.351.244-2.49.727-3.425a5.04 5.04 0 0 1 2.102-2.153q1.373-.753 3.245-.752 1.871 0 3.19.777 1.325.78 2.077 2.23.753 1.455.752 3.476zm53.495-6.85q0-3.321-1.376-5.45-1.378-2.127-3.917-3.216-2.543-1.091-6.227-1.092-3.894 0-6.644 1.117-2.748 1.119-4.23 3.216-1.478 2.102-1.478 5.06h6.124q0-1.869 1.479-2.906 1.478-1.037 4.176-1.037 1.712.001 2.905.467 1.195.467 1.818 1.453.624.985.624 2.646v1.245l-8.045 1.037q-2.127.26-3.865.909-1.739.648-2.983 1.737a7.2 7.2 0 0 0-1.894 2.596q-.649 1.506-.65 3.475v.157q-.001 3.425 2.413 5.475t6.253 2.051q2.337.001 4.176-.598 1.843-.597 3.19-1.712a7.1 7.1 0 0 0 2.023-2.672h.518l.467 4.464h8.925v-4.826h-3.789V32.259zm-6.746 9.497a4.67 4.67 0 0 1-.934 2.361q-.78 1.014-2.077 1.584t-2.957.57q-2.232.001-3.424-.934-1.195-.935-1.194-2.49v-.778q0-1.712 1.271-2.518 1.272-.803 3.449-1.062l5.863-.83v4.1zm34.451-18.032q-2.154-1.22-5.11-1.22c-1.971 0-3.815.493-5.319 1.479q-2.256 1.479-3.139 3.917h-.467l-.467-4.877h-6.33v27.658h6.797V35.27q-.001-2.178.726-3.814.725-1.637 2.103-2.515 1.373-.883 3.347-.883 1.712 0 2.931.595t1.92 1.997q.7 1.4.701 3.89v16.138h6.746v-17.02q0-3.79-1.143-6.253-1.141-2.463-3.296-3.683zm26.378 4.797V23.02h-7.111v-8.77h-6.796v8.77h-6.176v5.502h6.176v16.656q0 2.439 1.296 3.97 1.295 1.532 4.256 1.53h8.044v-5.344h-6.796V28.522h7.11zm-82.301-5.812q-2.697 0-4.8 1.168-2.102 1.166-3.037 3.815h-.208l-.31-4.618h-5.863v27.607h6.487V35.58q.105-2.18.96-3.683.854-1.504 2.515-2.31 1.66-.805 4.15-.804.519.001.96.026.441.027.752.025V22.71h-1.609z"/>
  </g>
  <defs>
    <clipPath id="a">
      <path fill="#fff" d="M.5 0h240v64H.5z"/>
    </clipPath>
  </defs>
</svg>
