<svg xmlns="http://www.w3.org/2000/svg" viewBox="0 0 1280 195"><defs><style>.cls-1{fill:#091313}.cls-2{fill:#4695eb}.cls-3{fill:#ff004a}</style></defs><title>quarkus_logo_horizontal_rgb_1280px_default</title><path d="M404 89.39q0 25.9-10.49 43.07a52.3 52.3 0 0 1-29.61 23.24l32.3 33.39h-22.91l-26.45-30.44-5.11.19q-30 0-46.27-18.22T279.17 89.2q0-32.93 16.34-51.05T341.92 20q29.24 0 45.66 18.45T404 89.39m-108.14 0q0 27.39 11.74 41.55t34.11 14.15q22.56 0 34.07-14.11t11.51-41.59q0-27.21-11.47-41.27t-33.9-14.07q-22.56 0-34.3 14.16t-11.74 41.18ZM559.56 22.15v87.25q0 23.05-14 36.25T507 158.84q-24.51 0-37.92-13.29T455.7 109V22.15h15.78v88q0 16.88 9.28 25.91t27.29 9q17.16 0 26.45-9.08t9.28-25.98V22.15ZM703.6 157l-16.9-42.9h-54.39L615.6 157h-16l53.69-135.4h13.27L719.93 157Zm-21.82-57L666 58.21q-3.07-7.92-6.32-19.46a173 173 0 0 1-5.85 19.46l-16 41.78ZM777.19 100.92V157H761.4V22.15h37.23q25 0 36.89 9.5t11.93 28.59q0 26.74-27.29 36.16L857 157h-18.65l-32.86-56.07Zm0-13.47h21.62q16.71 0 24.51-6.6t7.79-19.78q0-13.37-7.93-19.27t-25.48-5.91h-20.51ZM999.75 157h-18.57l-49.47-65.4-14.2 12.54V157h-15.78V22.15h15.78V89l61.54-66.87h18.66l-54.58 58.59ZM1143.69 22.15v87.25q0 23.05-14 36.25t-38.52 13.19q-24.5 0-37.92-13.29T1039.82 109V22.15h15.78v88q0 16.88 9.28 25.91t27.29 9q17.17 0 26.46-9.08t9.28-26.06V22.15ZM1279 121.11q0 17.8-13 27.76t-35.28 10q-24.13 0-37.13-6.18v-15.16a98 98 0 0 0 18.2 5.53 95.7 95.7 0 0 0 19.49 2q15.78 0 23.76-6t8-16.55q0-7-2.83-11.48t-9.46-8.26q-6.65-3.78-20.19-8.58-18.94-6.72-27.06-16t-8.12-24.07q0-15.58 11.79-24.81t31.18-9.22a92.55 92.55 0 0 1 37.22 7.37l-4.91 13.65q-16.82-7-32.68-7-12.53 0-19.58 5.35t-7.06 14.85q0 7 2.6 11.48t8.77 8.21q6.18 3.73 18.89 8.26 21.36 7.56 29.38 16.23t8.02 22.62" class="cls-1"/><path d="M126.05 34.6 96.61 51.59l29.44 17z" class="cls-2"/><path d="M67.17 34.6v33.99l29.44-17z" class="cls-3"/><path d="m126.05 68.59-29.44-17-29.44 17 29.44 17z" class="cls-1"/><path d="m36.13 88.36 29.44 17V71.37z" class="cls-2"/><path d="m65.57 139.35 29.44-16.99-29.44-17z" class="cls-3"/><path d="M65.57 71.37v33.99l29.44 17v-34z" class="cls-1"/><path d="M127.65 139.35v-33.99l-29.44 17z" class="cls-2"/><path d="m157.09 88.36-29.44-16.99v33.99z" class="cls-3"/><path d="m98.21 122.36 29.44-17V71.37L98.21 88.36z" class="cls-1"/><path d="M160.5 1H32.72A31.81 31.81 0 0 0 1 32.72V160.5a31.81 31.81 0 0 0 31.72 31.72h87.51l-23.62-57.37-17.13 36.22H32.72a10.71 10.71 0 0 1-10.57-10.57V32.72a10.71 10.71 0 0 1 10.57-10.57H160.5a10.71 10.71 0 0 1 10.57 10.57V160.5a10.71 10.71 0 0 1-10.57 10.57h-27.73l8.71 21.15h19a31.81 31.81 0 0 0 31.72-31.72V32.72A31.81 31.81 0 0 0 160.5 1" class="cls-2"/></svg>