<svg xmlns="http://www.w3.org/2000/svg" fill="none" viewBox="0 0 93 24" class="only-dark-theme"><g clip-path="url(#logo-full_svg__a)"><path fill="#FF6363" fill-rule="evenodd" d="M6 15.491v2.504l-6-6 1.251-1.251L6 15.49Zm2.504 2.504H6l6 6 1.251-1.251-4.747-4.749Zm14.24-4.747 1.253-1.253-12-12-1.25 1.256 4.747 4.747h-2.868L9.312 2.691 8.061 3.942l2.06 2.061h-1.44v9.314h9.314v-1.44l2.061 2.06 1.251-1.25-3.312-3.314v-2.87l4.749 4.745ZM6.626 5.374 5.37 6.627 6.714 7.97l1.252-1.252-1.34-1.344ZM17.282 16.03l-1.252 1.253 1.343 1.344 1.253-1.253-1.344-1.344ZM3.939 8.06 2.686 9.315 6 12.627v-2.506l-2.06-2.06ZM13.88 18h-2.506l3.313 3.314 1.253-1.253L13.88 18Z" clip-rule="evenodd"></path><path fill="#E6E6E6" d="M90.987 17.98c-.808 0-1.44-.219-1.89-.659-.452-.44-.678-1.05-.678-1.825v-4.8h-1.45V8.899h1.458l.26-2.4h1.707v2.4h2.227v1.8h-2.227v4.538a.948.948 0 0 0 .256.667.883.883 0 0 0 .68.278h1.29v1.799h-1.633ZM82.268 18.15c-1.077 0-1.944-.257-2.6-.77a3.45 3.45 0 0 1-1.259-2.049h2.143c.093.312.301.577.582.742.344.199.737.296 1.134.28 1.143 0 1.717-.32 1.717-.937 0-.308-.18-.544-.539-.706a6.034 6.034 0 0 0-1.302-.389 15.466 15.466 0 0 1-1.538-.376 2.669 2.669 0 0 1-1.314-.875c-.356-.427-.537-.987-.537-1.681a2.376 2.376 0 0 1 .905-1.903c.606-.505 1.446-.758 2.52-.757 1.074 0 1.92.24 2.56.719a3.222 3.222 0 0 1 1.215 1.94h-2.146c-.228-.571-.77-.857-1.624-.857-.917 0-1.373.287-1.373.86a.736.736 0 0 0 .386.64c.293.18.62.296.96.345.426.072.847.17 1.26.291.43.123.85.273 1.26.451.399.181.737.475.971.845.272.435.407.942.389 1.455a2.4 2.4 0 0 1-.96 1.974c-.639.504-1.576.757-2.81.758ZM75.88 9.636c-.66-.593-1.586-.89-2.773-.89-.95 0-1.745.255-2.386.766a3.586 3.586 0 0 0-1.28 1.979h2.026c.103-.297.3-.553.56-.728a1.786 1.786 0 0 1 1.072-.303 1.92 1.92 0 0 1 1.317.427 1.514 1.514 0 0 1 .48 1.197v.436h-2.31c-1.071 0-1.91.266-2.514.8a2.59 2.59 0 0 0-.907 2.019 2.663 2.663 0 0 0 .844 2.033c.564.534 1.31.8 2.24.8a3.42 3.42 0 0 0 1.658-.385c.411-.2.759-.51 1.005-.896h.083l.16 1.12h1.715v-5.92c.001-1.04-.329-1.858-.99-2.455Zm-.975 4.852a1.834 1.834 0 0 1-.6 1.44c-.397.353-.939.53-1.627.53-.5 0-.885-.114-1.149-.34a1.081 1.081 0 0 1-.4-.866c0-.8.523-1.197 1.55-1.197h2.226v.433ZM64.021 18.17c-1.3 0-2.338-.418-3.117-1.252-.776-.834-1.168-1.987-1.168-3.462 0-1.476.39-2.624 1.164-3.46.774-.835 1.816-1.25 3.121-1.25 1.06 0 1.94.282 2.637.849a4.017 4.017 0 0 1 1.389 2.147h-1.965a2.205 2.205 0 0 0-2.06-1.197 2.081 2.081 0 0 0-1.683.76c-.426.509-.64 1.226-.64 2.15 0 .925.214 1.643.64 2.152a2.08 2.08 0 0 0 1.682.764 2.21 2.21 0 0 0 2.06-1.2h1.966a4.025 4.025 0 0 1-1.39 2.15c-.694.565-1.573.848-2.636.848ZM52.43 21.432l1.371-3.43-3.683-9.082h2.143l2.486 6.427h.082l2.49-6.427h2.142l-4.975 12.512H52.43ZM48.267 9.636c-.66-.594-1.585-.89-2.774-.89-.949 0-1.744.255-2.386.766a3.57 3.57 0 0 0-1.27 1.979h2.024c.103-.297.299-.553.56-.728a1.794 1.794 0 0 1 1.072-.303c.556 0 .996.143 1.316.427a1.508 1.508 0 0 1 .48 1.197v.436h-2.32c-1.066 0-1.904.266-2.513.8a2.586 2.586 0 0 0-.909 2.019 2.663 2.663 0 0 0 .845 2.025c.563.534 1.31.8 2.24.8a3.412 3.412 0 0 0 1.656-.385c.412-.2.76-.51 1.006-.896h.082l.17 1.12h1.712v-5.92c0-1.035-.33-1.85-.99-2.447Zm-.978 4.852a1.834 1.834 0 0 1-.6 1.44c-.396.353-.94.53-1.628.53-.5 0-.885-.114-1.15-.34a1.086 1.086 0 0 1-.4-.866c.007-.796.523-1.195 1.55-1.197h2.228v.433ZM37.152 13.456c.306-.081.601-.197.88-.346.326-.178.631-.393.909-.64.336-.31.595-.693.757-1.12.194-.502.29-1.036.283-1.574 0-1.143-.365-2.058-1.094-2.746-.73-.688-1.68-1.03-2.848-1.027h-4.972v12h2.143v-4.454h1.625L37.923 18h2.4l-3.17-4.545ZM33.21 11.65v-3.76h2.654c.608 0 1.088.16 1.44.494.352.335.531.792.531 1.386 0 .594-.177 1.058-.534 1.389-.392.34-.9.517-1.42.491H33.21Z"></path></g><defs><clipPath id="logo-full_svg__a"><path fill="#fff" d="M0 0h92.622v24H0z"></path></clipPath></defs></svg>