<svg viewBox="0 0 109 28" xmlns="http://www.w3.org/2000/svg" width="109" height="28" fill="none" class="only-light-theme"><g clip-path="url(#logo-full-dark_svg__a)"><path fill="#202123" d="M106.154 20.978c-.943 0-1.68-.256-2.207-.77-.526-.513-.789-1.226-.789-2.13v-5.6h-1.692v-2.095h1.701l.302-2.8h1.999v2.8h2.601v2.1h-2.61v5.293c-.005.29.103.569.301.779a1.026 1.026 0 0 0 .793.325h1.506v2.098h-1.905ZM95.982 21.175c-1.257 0-2.268-.3-3.033-.9a4.024 4.024 0 0 1-1.47-2.389h2.5c.11.364.352.674.68.867.4.231.86.345 1.323.326 1.333 0 2.003-.373 2.003-1.094 0-.36-.21-.634-.63-.823a6.916 6.916 0 0 0-1.52-.453 18.136 18.136 0 0 1-1.793-.44 3.106 3.106 0 0 1-1.532-1.02c-.418-.498-.627-1.152-.627-1.962a2.766 2.766 0 0 1 1.056-2.22c.706-.59 1.686-.884 2.94-.882 1.253 0 2.24.28 2.987.838a3.75 3.75 0 0 1 1.415 2.264h-2.503c-.265-.667-.896-1-1.893-1-1.07 0-1.605.334-1.604 1.004a.858.858 0 0 0 .452.746c.343.208.724.345 1.12.402.496.084.987.197 1.47.34.5.142.992.318 1.47.526.466.211.86.554 1.133.985.317.508.475 1.1.454 1.697a2.805 2.805 0 0 1-1.12 2.303c-.746.59-1.838.884-3.278.886ZM88.529 11.243c-.77-.693-1.848-1.04-3.237-1.04-1.105 0-2.035.299-2.781.894a4.184 4.184 0 0 0-1.494 2.31h2.364c.12-.347.349-.645.653-.85a2.081 2.081 0 0 1 1.249-.353c.65 0 1.163.168 1.536.499a1.767 1.767 0 0 1 .56 1.396v.508h-2.694c-1.244 0-2.222.31-2.932.933a3.025 3.025 0 0 0-1.06 2.356 3.106 3.106 0 0 0 .987 2.372c.657.622 1.528.933 2.613.933a3.989 3.989 0 0 0 1.934-.45c.48-.233.885-.595 1.172-1.045h.097l.187 1.307h2.001v-6.907c.002-1.219-.386-2.169-1.155-2.863Zm-1.137 5.66a2.14 2.14 0 0 1-.7 1.68c-.463.412-1.096.618-1.898.62-.585 0-1.035-.135-1.34-.398a1.261 1.261 0 0 1-.467-1.01c0-.934.61-1.396 1.807-1.396h2.598v.504ZM74.693 21.198c-1.516 0-2.728-.487-3.636-1.46-.906-.973-1.363-2.318-1.363-4.04 0-1.72.453-3.06 1.357-4.035.903-.975 2.119-1.46 3.642-1.46 1.237 0 2.262.33 3.076.991a4.687 4.687 0 0 1 1.62 2.505h-2.294a2.567 2.567 0 0 0-2.402-1.396 2.427 2.427 0 0 0-1.962.887c-.498.593-.747 1.43-.747 2.509s.25 1.915.747 2.51a2.427 2.427 0 0 0 1.962.89 2.575 2.575 0 0 0 2.402-1.4h2.294a4.697 4.697 0 0 1-1.62 2.51c-.814.659-1.84.989-3.076.989ZM61.169 25.004l1.6-4.002-4.297-10.595h2.5l2.9 7.498h.095l2.905-7.498h2.5l-5.804 14.597h-2.399ZM56.312 11.243c-.77-.693-1.85-1.04-3.235-1.04-1.107 0-2.034.298-2.783.894a4.178 4.178 0 0 0-1.484 2.31h2.363c.12-.347.349-.645.653-.85a2.087 2.087 0 0 1 1.25-.353c.65 0 1.164.166 1.537.499a1.76 1.76 0 0 1 .56 1.396v.508h-2.707c-1.244 0-2.222.31-2.932.933a3.019 3.019 0 0 0-1.06 2.356 3.107 3.107 0 0 0 .985 2.363c.657.622 1.528.933 2.613.933a3.982 3.982 0 0 0 1.932-.45c.48-.233.887-.595 1.175-1.045h.095l.198 1.307h1.997v-6.907c0-1.207-.386-2.159-1.157-2.854Zm-1.139 5.66a2.139 2.139 0 0 1-.7 1.68c-.465.412-1.099.618-1.9.62-.584 0-1.034-.135-1.34-.398a1.267 1.267 0 0 1-.467-1.01c.007-.93.61-1.395 1.807-1.396h2.6v.504ZM43.346 15.699c.357-.095.701-.23 1.027-.403.38-.208.736-.459 1.06-.747.392-.361.694-.808.883-1.307.227-.585.34-1.209.33-1.837 0-1.332-.425-2.4-1.276-3.203C44.518 7.4 43.41 7 42.047 7.004h-5.8v14h2.5v-5.197h1.896l3.603 5.195h2.8l-3.7-5.303Zm-4.6-2.106V9.207h3.097c.71 0 1.27.186 1.68.576.411.39.622.924.622 1.617 0 .692-.207 1.234-.623 1.62a2.349 2.349 0 0 1-1.658.573h-3.117Z"></path><path fill="#FF6363" fill-rule="evenodd" d="m28 14-1.46 1.46L21 9.92V7l7 7ZM14 0l-1.46 1.46 5.539 5.538H21L14 0Zm-3.134 3.14L9.406 4.6l2.404 2.404h2.922L10.866 3.14ZM21 13.274v2.921l2.406 2.404 1.46-1.46L21 13.275Zm-.836 5.432L21 17.87H10.136V7l-.836.838L7.732 6.27 6.266 7.732l1.568 1.566-.838.838v1.68L4.594 9.412l-1.462 1.461 3.864 3.866v3.334L1.462 12.54 0 14l14 14 1.462-1.46L9.923 21h3.347l3.866 3.866 1.462-1.462L16.193 21h1.68l.838-.836 1.567 1.568 1.461-1.462-1.575-1.564Z" clip-rule="evenodd"></path></g><defs><clipPath id="logo-full-dark_svg__a"><path fill="#fff" d="M0 0h108.059v28H0z"></path></clipPath></defs></svg>