<svg xmlns="http://www.w3.org/2000/svg" width="94" height="61" fill="none" viewBox="0 0 94 61">
  <path fill="#f44250" d="M72.732 20.936c-2.677-.842-4.06-.558-6.867-.865-4.34-.473-6.07-2.17-6.803-6.535-.41-2.437.074-6.006-.974-8.215C56.084 1.11 51.394-.78 46.683.298c-3.978.912-7.288 4.887-7.471 8.968-.21 4.66 2.445 8.635 7.004 10.007 2.165.653 4.466.982 6.728 1.148 4.148.303 4.467 2.609 5.59 4.507.707 1.196 1.392 2.375 1.392 5.943s-.69 4.747-1.393 5.944c-1.122 1.894-2.506 3.134-6.654 3.44-2.262.167-4.567.496-6.729 1.15-4.558 1.376-7.213 5.347-7.004 10.006.184 4.081 3.493 8.057 7.471 8.968 4.712 1.083 9.402-.81 11.406-5.023 1.052-2.209 1.628-4.712 2.039-7.149.738-4.366 2.467-6.062 6.803-6.535 2.808-.307 5.713 0 8.344-1.495 2.78-2.031 5.264-5.08 5.264-9.306s-2.676-8.655-6.742-9.935"/>
  <path fill="#121212" d="M28.2 40.774c-5.471 0-9.934-4.471-9.934-9.953s4.463-9.952 9.934-9.952 9.934 4.47 9.934 9.952c0 5.477-4.468 9.953-9.934 9.953M9.899 61C4.437 60.987-.013 56.498 0 51.012c.013-5.477 4.494-9.935 9.97-9.917 5.466.013 9.916 4.502 9.898 9.988-.013 5.472-4.493 9.93-9.969 9.917M83.714 61c-5.48.03-9.978-4.41-10.009-9.878-.03-5.49 4.402-9.996 9.86-10.027 5.48-.03 9.977 4.41 10.008 9.878.03 5.485-4.401 9.996-9.86 10.027" style="fill:#f0f0f0;fill-opacity:1"/>
</svg>
