<svg width="32" height="32" viewBox="0 0 32 32" fill="none" xmlns="http://www.w3.org/2000/svg">
<g clip-path="url(#clip0_2_253)">
<path d="M5.66065 0H26.3393C29.4585 0 32 2.54152 32 5.66065V25.5307C32 28.6498 29.4585 31.1913 26.3393 31.1913H5.66065C2.54152 31.1913 0 28.6498 0 25.5307V5.66065C0 2.54152 2.54152 0 5.66065 0Z" fill="#808080"/>
<path d="M25.6462 18.0794C24.1444 16.4621 19.9856 17.1552 19.0614 17.2707C17.6173 15.8845 16.6354 14.2094 16.2888 13.6318C16.8087 12.0722 17.1552 10.4549 17.213 8.83753C17.213 7.39349 16.6354 5.83392 15.0181 5.83392C14.4404 5.83392 13.9206 6.18049 13.6318 6.64259C12.9386 7.85558 13.2274 10.2816 14.3249 12.7653C13.6895 14.6137 12.7654 17.213 11.4946 19.3502C9.81951 19.9855 6.29604 21.6029 5.94947 23.4513C5.83395 23.9711 6.00723 24.491 6.41156 24.8953C6.8159 25.2419 7.33575 25.4152 7.85561 25.4152C9.99279 25.4152 12.0722 22.4693 13.5163 19.9278C14.7293 19.5235 16.6354 18.9458 18.5415 18.5993C20.7942 20.5632 22.7581 20.852 23.7978 20.852C25.1841 20.852 25.704 20.2744 25.8773 19.7545C26.1661 19.1769 26.0506 18.5415 25.6462 18.0794ZM24.1444 19.0614C24.0867 19.4657 23.5668 19.87 22.6426 19.639C21.5451 19.3502 20.5632 18.8303 19.6968 18.1372C20.4477 18.0216 22.1228 17.8484 23.3358 18.0794C23.7978 18.1949 24.2599 18.426 24.1444 19.0614ZM14.4982 7.16244C14.6137 6.98916 14.787 6.87363 14.9603 6.87363C15.4802 6.87363 15.5957 7.50901 15.5957 8.02887C15.5379 9.24187 15.2491 10.5126 14.9025 11.6101C14.0361 9.29963 14.1516 7.6823 14.4982 7.16244ZM14.3827 18.3682C14.8448 17.444 15.4802 15.8267 15.7112 15.1336C16.2311 16 17.0975 17.0397 17.5596 17.5596C17.5596 17.5596 15.769 17.9061 14.3827 18.3682ZM10.9747 20.6787C9.58846 22.8736 8.25994 24.2599 7.50904 24.2599C7.39351 24.2599 7.27799 24.2022 7.16247 24.1444C6.98918 24.0289 6.93142 23.8556 6.98918 23.6245C7.16247 22.8159 8.66427 21.7184 10.9747 20.6787Z" fill="white"/>
</g>
<defs>
<clipPath id="clip0_2_253">
<rect width="32" height="31.1913" fill="white"/>
</clipPath>
</defs>
</svg>
