<svg xmlns="http://www.w3.org/2000/svg" width="439.768" height="452.125" viewBox="0 0 439.768 452.125">
  <path d="M191.33.046c-4.18.161-7.95.745-11.172 1.832-66.7 22.508-60.812 175.74-55.226 225.168l-61.319-.052C44.362 301.74 19.627 376.727 0 451.44c59.815.193 124.046 1.187 183.715-.115l-.06-130.041c14.23 36.18 52.175 92.297 70.478 130.156 59.51.524 126.414 1.403 185.635-.385-22.215-39.427-48.993-84.781-69.858-124.627-7.265-1.502-36.762-1.046-46.058-1.04l-91.84.116-1.467-5.437c142.59-30.075 186.965-206.327 60.562-287.785C269.853 18.585 220.585-1.08 191.33.046m-10.797 30.09c47.71 3.772 47.129 227.287 7.442 265.932-47.721-.85-48.022-230.001-7.442-265.932" style="fill:#0b0b0b;fill-opacity:1"/>
</svg>
