<svg xmlns="http://www.w3.org/2000/svg" preserveAspectRatio="xMidYMid" viewBox="0 0 256 277">
  <path d="M112.4 4C102 9.1 80 19.3 68.2 27.4c-12 8.1-10.4 15.7-15.6 21a409.5 409.5 0 0 1-31.3 26.1C11 82.5 13.5 103.4 11 111.3c-2.6 7.8-7.8 26.2-10.4 34-2.6 7.9 5.2 18.4 10.4 28.8 5.2 10.5 18.2 39.3 23.4 49.8 5.2 10.4 20.9 5.2 33.9 15.7s31.2 23.6 44.2 31.4c13 7.9 18.2 7.9 31.2 0 13-7.8 31.2-21 44.2-31.4 13-10.5 28.7-5.3 33.9-15.7 5.2-10.5 18.2-39.3 23.4-49.8 5.2-10.4 13-21 10.4-28.8-2.6-7.8-7.8-26.2-10.4-34-2.6-7.9 0-28.8-10.4-36.7a385.3 385.3 0 0 1-31.3-26.2c-8.7-8.3-5.2-13-15.6-21C177.4 19.7 154 9.3 143.6 4a33 33 0 0 0-31.2 0Z" fill="#FFF"/>
  <path d="m75.6 49.3 48.7 33.3c1.1.7 2.4 1 3.7 1.1 1.4 0 2.6-.4 3.7-1.1l48.8-33.4a6.7 6.7 0 0 0-1-11.4l-48.7-24c-1.8-1-4-1-5.8 0l-48.5 24a6.6 6.6 0 0 0-.9 11.5Zm69 43.7c0 2.2 1 4.3 2.9 5.5l39 26.7a6.6 6.6 0 0 0 8.1-.5l32.7-29.3a6.7 6.7 0 0 0-.2-10.2l-31.3-25a6.6 6.6 0 0 0-7.9-.3l-40.4 27.7a6.7 6.7 0 0 0-3 5.4Zm-97.1 36.3a6.7 6.7 0 0 1 2.2 5.6c-.2 2.1-1.5 4-3.3 5L23 154a6.6 6.6 0 0 1-7.5-.5 6.7 6.7 0 0 1-2.2-7.2l8.6-27.1a6.6 6.6 0 0 1 10.7-3l14.8 13.2Zm126.4 2.8-42.1-28.8a6.6 6.6 0 0 0-7.4 0L82.2 132a6.8 6.8 0 0 0-2.9 5c0 2.1.8 4.1 2.3 5.5l42 37.7a6.6 6.6 0 0 0 8.9 0l42-37.7a6.7 6.7 0 0 0-.6-10.5Zm-112.4-7.4L28.8 95.4a6.8 6.8 0 0 1 .3-10.3l31.2-25.2c2.3-1.8 5.5-1.9 8-.3l40.3 27.7a6.7 6.7 0 0 1 0 11.2l-39 26.7a6.6 6.6 0 0 1-8-.5Zm168 42-33.3-19.9a6.5 6.5 0 0 0-7.8.7L147.7 184a6.7 6.7 0 0 0 2 11.2l56.4 22.8c.7.4 1.6.5 2.4.5 2.6 0 5-1.5 6-4l17.6-39.1c1.4-3.1.3-6.8-2.6-8.6Zm4.6-47.6 8.6 27.1c.6 2 .2 4.2-1 6a6.6 6.6 0 0 1-8.8 1.8l-23.3-14a6.6 6.6 0 0 1-1-10.7l14.8-13.2a6.6 6.6 0 0 1 10.7 3ZM110.6 190c.4-2.3-.4-4.6-2.1-6.1l-40.7-36.4a6.5 6.5 0 0 0-7.8-.7l-33.3 20a6.8 6.8 0 0 0-2.7 8.4l17.6 39.2A6.6 6.6 0 0 0 50 218l56.4-22.9a6.7 6.7 0 0 0 4-5Zm20 11.2 45.2 18.3c2.3 1 3.8 3 4 5.4.3 2.5-.8 4.9-2.8 6.3l-45.3 31.4c-1 .8-2.4 1.2-3.7 1.2-1.3 0-2.6-.4-3.7-1.2L79 231.2a6.7 6.7 0 0 1 1.3-11.7l45.3-18.3c1.6-.7 3.4-.7 5 0Z" fill="#BF4722"/>
</svg>
