<svg width="147" height="100" viewBox="0 0 147 100" fill="none" xmlns="http://www.w3.org/2000/svg">
<path d="M146.128 49.461C145.874 47.8495 144.323 46.626 142.547 46.626H53.0331C52.1527 46.626 51.8394 45.9396 51.7648 45.7307C51.6902 45.5218 51.4962 44.7906 52.1826 44.2385L99.021 6.17391C100.409 5.0548 100.826 3.14485 100.021 1.72731C99.5134 0.832025 98.6778 0.235167 97.6781 0.0561099C96.6932 -0.122948 95.6935 0.130717 94.9176 0.757418L48.2582 38.6728C47.5718 39.2398 46.8854 38.8967 46.7064 38.7773C46.5124 38.6579 45.9155 38.2103 46.1095 37.3299L51.9289 12.1574C52.3318 10.4265 51.4962 8.65087 49.9891 8.03909C49.0341 7.65113 48.0195 7.68097 47.0794 8.15846C46.1991 8.62102 45.5724 9.44171 45.3336 10.4116L38.619 39.4786C38.4399 40.2545 37.7983 40.4485 37.5894 40.4932C37.3805 40.538 36.7239 40.6275 36.2464 40.0008L26.5624 27.4071C25.4732 26.0045 23.5781 25.527 22.1457 26.3029C21.2355 26.7954 20.6237 27.616 20.4148 28.6009C20.2059 29.5857 20.4297 30.6003 21.0415 31.3762L31.1135 44.4624C31.4268 44.8802 31.4865 45.4024 31.2478 45.8799C31.0239 46.3425 30.5614 46.626 30.0391 46.626H3.62815C1.8525 46.626 0.300668 47.8346 0.0470037 49.4461C-0.117132 50.4608 0.151455 51.4456 0.807999 52.2215C1.44962 52.9825 2.40459 53.4302 3.40433 53.4302H26.3088C27.1891 53.4302 27.5025 54.1165 27.5771 54.3254C27.6517 54.5343 27.8457 55.2655 27.1593 55.8176L12.1781 67.9935C10.8352 69.0828 10.4025 70.9479 11.1635 72.3356C11.641 73.2309 12.5064 73.8576 13.536 74.0516C14.5507 74.2456 15.5653 74.0068 16.3114 73.3951L31.0985 61.3833C31.7849 60.8163 32.4713 61.1744 32.6504 61.2788C32.8444 61.3982 33.4412 61.8608 33.2472 62.7262L27.4279 87.9285C27.0548 89.555 27.7711 91.2411 29.1588 91.9275C30.0839 92.3901 31.1732 92.3901 32.143 91.9275C33.098 91.4799 33.7844 90.6442 34.0231 89.6445L40.7378 60.5924C40.9169 59.8165 41.5585 59.6225 41.7674 59.5778C41.9614 59.533 42.6328 59.4435 43.1103 60.0702L72.8338 98.7168C73.4158 99.4778 74.326 99.9403 75.3257 100C75.4003 100 75.4749 100 75.5346 100C76.4747 100 77.37 99.627 78.0116 98.9555C79.1456 97.7767 79.1755 95.822 78.1011 94.4045L48.2433 55.5788C47.9299 55.161 47.8703 54.6388 48.109 54.1613C48.3328 53.6987 48.7954 53.4152 49.3176 53.4152H142.771C143.77 53.4152 144.71 52.9825 145.367 52.2066C146.024 51.4307 146.292 50.4459 146.128 49.4312V49.461Z" fill="#4615C8"/>
</svg>
