<svg width="447" height="101" viewBox="0 0 447 101" fill="none" xmlns="http://www.w3.org/2000/svg">
<path d="M74.8023 27.5868H117.208C118.342 27.5868 119.059 28.512 118.79 29.646L116.671 38.8076C116.403 39.9416 115.269 40.8667 114.135 40.8667H89.6937C88.5895 40.8667 87.4853 41.762 87.2466 42.8662V42.9856C86.978 44.0897 87.6644 44.985 88.7686 44.985H110.733C111.867 44.985 112.583 45.9101 112.314 47.0441L110.762 53.8184C110.494 54.9524 109.36 55.8775 108.226 55.8775H86.2618C85.1576 55.8775 84.0535 56.7728 83.8147 57.8769C83.576 58.9811 84.2624 59.8764 85.3665 59.8764H109.808C110.942 59.8764 111.658 60.8015 111.389 61.9355L109.241 71.2165C108.972 72.3505 107.838 73.2757 106.704 73.2757H64.2978C63.1637 73.2757 62.4475 72.3505 62.7161 71.2165L72.2955 29.7057C72.5641 28.5716 73.6981 27.6465 74.8321 27.6465L74.8023 27.5868Z" fill="white"/>
<path d="M147.767 29.646L141.291 57.7874C141.023 58.9214 141.739 59.8465 142.873 59.8465H163.584C164.718 59.8465 165.434 60.7716 165.165 61.9057L163.017 71.1867C162.748 72.3207 161.614 73.2458 160.51 73.2458H121.774C120.64 73.2458 119.924 72.3207 120.193 71.1867L129.742 29.7057C130.011 28.5716 131.145 27.6465 132.279 27.6465H146.156C147.29 27.6465 148.006 28.5716 147.737 29.7057L147.767 29.646Z" fill="white"/>
<path d="M49.3467 27.5868H5.00083C3.86681 27.5868 2.7328 28.512 2.49406 29.646L0.345404 38.927C0.0768214 40.061 0.793037 40.9861 1.92705 40.9861H5.20972C6.25421 40.9861 7.00027 41.9411 6.79137 42.9557L0.285715 71.1867C0.0171328 72.3207 0.733353 73.2458 1.86737 73.2458H15.774C16.908 73.2458 18.042 72.3207 18.3106 71.1867L21.0262 59.3989C21.2948 58.2649 22.4288 57.3398 23.5628 57.3398H26.9649C27.7706 57.3398 28.3973 57.7874 28.6062 58.4738L32.9334 72.1715C33.1423 72.828 33.7391 73.2458 34.4852 73.2458H49.0483C50.63 73.2458 52.0027 71.5149 51.5252 70.172L47.5562 58.8319C47.1981 57.7874 47.9441 56.4743 49.1378 55.9372C54.1812 53.7288 58.1801 48.954 59.6722 42.4782C61.791 33.3166 57.3744 27.6167 49.3169 27.6167L49.3467 27.5868ZM43.6468 42.9259C43.3782 44.0599 42.2442 44.985 41.1102 44.985H26.368C25.234 44.985 24.5178 44.0599 24.7864 42.9259C25.055 41.7918 26.189 40.8667 27.323 40.8667H42.0652C43.1992 40.8667 43.9154 41.7918 43.6468 42.9259Z" fill="white"/>
<path d="M230.699 70.3213L221.329 28.8104C221.15 28.0942 220.553 27.6167 219.747 27.6167H186.025C184.891 27.6167 183.757 28.5418 183.519 29.6758L181.37 38.9568C181.101 40.0909 181.817 41.016 182.951 41.016H186.324C187.637 41.016 188.383 42.4782 187.637 43.5526L169.045 70.381C168.12 71.7239 168.746 73.2757 170.239 73.2757H185.399C186.294 73.2757 187.219 72.7385 187.726 71.9029L190.502 67.5459C191.009 66.7402 191.904 66.203 192.8 66.203H208.318C209.153 66.203 209.81 66.7103 209.989 67.4564L210.974 71.9328C211.153 72.7087 211.809 73.216 212.675 73.216H228.223C229.715 73.216 231.058 71.6642 230.759 70.3213H230.699ZM205.124 55.0419H200.738C199.335 55.0419 198.649 53.6393 199.425 52.3263L203.095 45.9997C204.169 44.1494 206.766 44.1793 206.975 45.9997L207.691 52.3263C207.84 53.6692 206.527 55.0419 205.124 55.0419Z" fill="white"/>
<path d="M292.115 27.5869H274.657C273.971 27.5869 273.225 27.945 272.747 28.5716L265.794 38.1212C264.869 39.2553 263.228 39.4343 262.571 38.4495L255.678 28.2434C255.409 27.8256 254.932 27.5869 254.365 27.5869H239.234C237.474 27.5869 236.101 29.7057 237.056 30.959L252.067 52.8037C252.544 53.4304 252.455 54.3854 251.888 55.1613L239.563 70.2317C238.488 71.5448 239.055 73.1861 240.577 73.1861H257.17C257.856 73.1861 258.602 72.828 259.08 72.2013L293.13 30.5114C294.204 29.1983 293.637 27.557 292.115 27.557V27.5869Z" fill="white"/>
<path d="M446.222 49.7001C445.953 48.0886 444.431 46.8651 442.641 46.8651H353.143C352.278 46.8651 351.949 46.1787 351.89 45.9698C351.83 45.7609 351.621 45.0447 352.308 44.4777L399.16 6.42854C400.533 5.32437 400.981 3.41444 400.145 1.982C399.638 1.08673 398.802 0.489889 397.787 0.310834C396.803 0.131779 395.788 0.370517 395.012 1.02705L348.368 38.927C347.682 39.494 346.996 39.1359 346.817 39.0165C346.637 38.8971 346.011 38.4495 346.22 37.5841L352.039 12.4269C352.427 10.696 351.591 8.9353 350.099 8.30861C349.144 7.92066 348.13 7.9505 347.204 8.42798C346.339 8.87562 345.682 9.71121 345.474 10.696L338.759 39.7626C338.58 40.5385 337.923 40.7175 337.744 40.7772C337.565 40.8369 336.879 40.8966 336.401 40.2699L326.733 27.6764C325.658 26.2738 323.748 25.7963 322.316 26.5722C321.421 27.0497 320.794 27.8853 320.585 28.8701C320.376 29.8549 320.585 30.8695 321.212 31.6454L331.269 44.7463C331.597 45.164 331.627 45.7012 331.418 46.1489C331.179 46.6263 330.731 46.8949 330.224 46.8949H303.814C302.023 46.8949 300.501 48.1185 300.232 49.73C300.053 50.7446 300.322 51.7294 301.008 52.5053C301.665 53.2812 302.59 53.699 303.605 53.699H326.494C327.359 53.699 327.687 54.3854 327.747 54.5943C327.807 54.8032 328.016 55.5194 327.329 56.0864L312.348 68.2621C311.006 69.3365 310.588 71.2165 311.334 72.5893C311.811 73.4846 312.677 74.1113 313.721 74.3201C314.736 74.529 315.751 74.2903 316.497 73.6636L331.269 61.6371C331.955 61.0701 332.641 61.4282 332.82 61.5476C332.999 61.6669 333.626 62.1146 333.417 62.98L327.598 88.167C327.21 89.8084 327.956 91.4796 329.329 92.1659C330.254 92.6136 331.358 92.6434 332.313 92.1659C333.268 91.7183 333.954 90.8827 334.193 89.8979L340.908 60.8314C341.087 60.0554 341.743 59.8764 341.922 59.8167C342.131 59.7869 342.788 59.6973 343.265 60.324L372.988 98.97C373.555 99.7459 374.48 100.194 375.465 100.253C375.525 100.253 375.615 100.253 375.674 100.253C376.629 100.253 377.524 99.8653 378.151 99.2088C379.285 98.0151 379.315 96.0753 378.241 94.6727L348.368 55.8477C348.04 55.4299 348.01 54.8927 348.219 54.4451C348.458 53.9676 348.906 53.699 349.413 53.699H442.879C443.894 53.699 444.819 53.2514 445.476 52.5053C446.132 51.7294 446.401 50.7446 446.252 49.73L446.222 49.7001Z" fill="white"/>
</svg>
