<svg width="447" height="101" viewBox="0 0 447 101" fill="none" xmlns="http://www.w3.org/2000/svg">
<path d="M74.6029 27.5869H117.009C118.143 27.5869 118.859 28.512 118.591 29.646L116.472 38.8076C116.203 39.9416 115.069 40.8668 113.935 40.8668H89.4943C88.3902 40.8668 87.286 41.762 87.0472 42.8662V42.9856C86.7787 44.0897 87.465 44.985 88.5692 44.985H110.533C111.667 44.985 112.384 45.9101 112.115 47.0441L110.563 53.8184C110.295 54.9524 109.161 55.8775 108.026 55.8775H86.0624C84.9583 55.8775 83.8541 56.7728 83.6154 57.877C83.3766 58.9811 84.063 59.8764 85.1672 59.8764H109.608C110.742 59.8764 111.458 60.8015 111.19 61.9355L109.041 71.2165C108.773 72.3506 107.639 73.2757 106.505 73.2757H64.0984C62.9644 73.2757 62.2482 72.3506 62.5167 71.2165L72.0962 29.7057C72.3648 28.5717 73.4988 27.6465 74.6328 27.6465L74.6029 27.5869Z" fill="#0D0C0D"/>
<path d="M147.568 29.646L141.092 57.7874C140.823 58.9215 141.54 59.8466 142.674 59.8466H163.384C164.518 59.8466 165.234 60.7717 164.966 61.9057L162.817 71.1867C162.549 72.3207 161.415 73.2458 160.31 73.2458H121.575C120.441 73.2458 119.725 72.3207 119.993 71.1867L129.543 29.7057C129.811 28.5717 130.945 27.6465 132.079 27.6465H145.956C147.09 27.6465 147.806 28.5717 147.538 29.7057L147.568 29.646Z" fill="#0D0C0D"/>
<path d="M49.1473 27.5869H4.80136C3.66735 27.5869 2.53334 28.512 2.2946 29.646L0.145941 38.927C-0.122642 40.061 0.593574 40.9861 1.72759 40.9861H5.01026C6.05475 40.9861 6.80081 41.9411 6.59191 42.9557L0.0862521 71.1867C-0.18233 72.3207 0.53389 73.2458 1.6679 73.2458H15.5745C16.7085 73.2458 17.8425 72.3207 18.1111 71.1867L20.8268 59.3989C21.0954 58.2649 22.2294 57.3398 23.3634 57.3398H26.7654C27.5712 57.3398 28.1979 57.7874 28.4068 58.4738L32.7339 72.1715C32.9428 72.828 33.5397 73.2458 34.2857 73.2458H48.8489C50.4305 73.2458 51.8033 71.515 51.3258 70.1721L47.3567 58.8319C46.9986 57.7874 47.7447 56.4744 48.9384 55.9372C53.9818 53.7288 57.9807 48.9541 59.4728 42.4782C61.5916 33.3166 57.1749 27.6167 49.1174 27.6167L49.1473 27.5869ZM43.4474 42.9259C43.1788 44.0599 42.0448 44.985 40.9108 44.985H26.1686C25.0346 44.985 24.3183 44.0599 24.5869 42.9259C24.8555 41.7919 25.9895 40.8668 27.1235 40.8668H41.8657C42.9997 40.8668 43.716 41.7919 43.4474 42.9259Z" fill="#0D0C0D"/>
<path d="M230.5 70.3213L221.129 28.8104C220.95 28.0942 220.354 27.6167 219.548 27.6167H185.826C184.692 27.6167 183.558 28.5418 183.319 29.6759L181.17 38.9569C180.902 40.0909 181.618 41.016 182.752 41.016H186.124C187.437 41.016 188.183 42.4783 187.437 43.5526L168.845 70.381C167.92 71.7239 168.547 73.2757 170.039 73.2757H185.199C186.094 73.2757 187.02 72.7385 187.527 71.903L190.302 67.546C190.809 66.7402 191.705 66.203 192.6 66.203H208.118C208.954 66.203 209.61 66.7104 209.789 67.4564L210.774 71.9328C210.953 72.7087 211.61 73.216 212.475 73.216H228.023C229.515 73.216 230.858 71.6642 230.56 70.3213H230.5ZM204.925 55.042H200.538C199.136 55.042 198.449 53.6394 199.225 52.3263L202.896 45.9997C203.97 44.1495 206.566 44.1793 206.775 45.9997L207.491 52.3263C207.641 53.6692 206.328 55.042 204.925 55.042Z" fill="#0D0C0D"/>
<path d="M291.916 27.5869H274.458C273.772 27.5869 273.026 27.945 272.548 28.5717L265.595 38.1213C264.67 39.2553 263.028 39.4343 262.372 38.4495L255.478 28.2434C255.21 27.8256 254.732 27.5869 254.165 27.5869H239.035C237.274 27.5869 235.902 29.7057 236.857 30.9591L251.867 52.8037C252.345 53.4304 252.255 54.3854 251.688 55.1613L239.363 70.2318C238.289 71.5448 238.856 73.1862 240.378 73.1862H256.97C257.657 73.1862 258.403 72.828 258.88 72.2014L292.931 30.5114C294.005 29.1984 293.438 27.557 291.916 27.557V27.5869Z" fill="#0D0C0D"/>
<path d="M446.022 49.7001C445.754 48.0887 444.232 46.8651 442.441 46.8651H352.944C352.078 46.8651 351.75 46.1787 351.69 45.9698C351.631 45.7609 351.422 45.0447 352.108 44.4777L398.961 6.42856C400.334 5.32439 400.781 3.41446 399.946 1.98202C399.438 1.08675 398.603 0.489904 397.588 0.310849C396.603 0.131795 395.589 0.370533 394.813 1.02707L348.169 38.927C347.483 39.494 346.796 39.1359 346.617 39.0165C346.438 38.8972 345.811 38.4495 346.02 37.5841L351.839 12.4269C352.227 10.696 351.392 8.93532 349.9 8.30863C348.945 7.92068 347.93 7.95052 347.005 8.428C346.14 8.87563 345.483 9.71123 345.274 10.696L338.56 39.7626C338.381 40.5385 337.724 40.7176 337.545 40.7772C337.366 40.8369 336.68 40.8966 336.202 40.2699L326.533 27.6764C325.459 26.2738 323.549 25.7963 322.116 26.5722C321.221 27.0497 320.594 27.8853 320.386 28.8701C320.177 29.8549 320.386 30.8695 321.012 31.6454L331.069 44.7463C331.397 45.1641 331.427 45.7012 331.218 46.1489C330.98 46.6264 330.532 46.8949 330.025 46.8949H303.614C301.824 46.8949 300.302 48.1185 300.033 49.73C299.854 50.7446 300.122 51.7294 300.809 52.5053C301.465 53.2812 302.391 53.699 303.405 53.699H326.294C327.16 53.699 327.488 54.3854 327.548 54.5943C327.607 54.8032 327.816 55.5194 327.13 56.0864L312.149 68.2622C310.806 69.3365 310.388 71.2166 311.134 72.5893C311.612 73.4846 312.477 74.1113 313.522 74.3202C314.536 74.5291 315.551 74.2903 316.297 73.6636L331.069 61.6371C331.756 61.0701 332.442 61.4282 332.621 61.5476C332.8 61.667 333.427 62.1146 333.218 62.98L327.398 88.1671C327.011 89.8084 327.757 91.4796 329.129 92.166C330.054 92.6136 331.159 92.6435 332.114 92.166C333.069 91.7184 333.755 90.8828 333.994 89.898L340.708 60.8314C340.887 60.0555 341.544 59.8764 341.723 59.8167C341.932 59.7869 342.588 59.6974 343.066 60.3241L372.789 98.9701C373.356 99.746 374.281 100.194 375.266 100.253C375.326 100.253 375.415 100.253 375.475 100.253C376.43 100.253 377.325 99.8653 377.952 99.2088C379.086 98.0151 379.116 96.0754 378.041 94.6728L348.169 55.8477C347.841 55.4299 347.811 54.8927 348.02 54.4451C348.258 53.9676 348.706 53.699 349.213 53.699H442.68C443.695 53.699 444.62 53.2514 445.276 52.5053C445.933 51.7294 446.201 50.7446 446.052 49.73L446.022 49.7001Z" fill="#4615C8"/>
</svg>
