<svg xmlns="http://www.w3.org/2000/svg" width="1959" height="512" fill="none" viewBox="0 0 1959 512">
<mask id="a" width="347" height="410" x="0" y="51" maskUnits="userSpaceOnUse" style="mask-type:luminance">
<path fill="#fff" d="M346.872 51.787H0v408.427h346.872V51.787Z"/>
</mask>
<g mask="url(#a)">
<path fill="#000" fill-rule="evenodd" d="M-.81 51.363h61.594v206.994c30.045-18.53 69.156-27.896 115.084-27.896 44.155 0 69.502-10.626 84.2-25.518 14.797-14.992 24.4-39.964 24.4-80.973V51.363h61.595v72.607c0 49.348-11.47 92.949-42.057 123.942-30.688 31.093-75.039 43.862-128.138 43.862-44.132 0-73.07 10.462-90.294 24.036-16.477 12.984-24.79 30.718-24.79 52.605v91.374H-.81V51.363Z" clip-rule="evenodd"/>
<mask id="b" width="274" height="204" x="72" y="256" maskUnits="userSpaceOnUse" style="mask-type:alpha">
<path fill="#000" d="M312.834 256.945c-34.892 34.356-83.501 47.598-138.587 47.598-42.113 0-67.685 9.996-81.743 21.074-12.978 10.228-19.563 23.901-19.563 41.854v92.318h272.312V256.611l-32.419.334Z"/>
</mask>
<g mask="url(#b)">
<path fill="#000" fill-rule="evenodd" d="M184.185 363.391c-14.753-12.734-31.047-35.791-31.82-62.743l61.594-.806c.037 1.284.56 8.58 10.577 17.225 8.042 6.942 17.973 13.348 30.437 21.388 3.579 2.309 7.367 4.75 11.378 7.379 31.277 20.5 78.899 53.76 78.899 113.955h-61.593c0-23.704-17.212-40.484-51.176-62.742-2.817-1.846-5.805-3.768-8.896-5.757-12.969-8.341-27.758-17.851-39.4-27.899Z" clip-rule="evenodd" opacity=".6"/>
</g>
</g>
<path fill="#000" d="M639.043 409.6V107.036h117.643c20.548 0 38.374 3.774 53.471 11.322 15.1 7.549 26.703 18.242 34.809 32.081 8.249 13.838 12.372 30.263 12.372 49.274v.419c0 20.549-5.239 38.511-15.725 53.888-10.346 15.376-24.604 26.139-42.777 32.29l67.729 123.29h-54.31l-61.651-115.951h-64.588V409.6h-46.973Zm46.973-154.742h66.055c18.034 0 32.014-4.682 41.942-14.048 9.923-9.505 14.885-22.925 14.885-40.258v-.42c0-16.634-5.242-29.704-15.725-39.209-10.346-9.645-24.535-14.468-42.569-14.468h-64.588v108.403Zm304.693 159.145c-21.529 0-40.125-4.611-55.781-13.837-15.516-9.368-27.472-22.577-35.859-39.632-8.246-17.193-12.372-37.391-12.372-60.595v-.21c0-22.924 4.195-42.984 12.583-60.177 8.388-17.334 20.201-30.753 35.437-40.258 15.239-9.645 33.135-14.468 53.683-14.468 20.69 0 38.45 4.613 53.26 13.839 14.96 9.086 26.5 22.016 34.6 38.79 8.11 16.634 12.17 35.995 12.17 58.081v15.306H909.134v-32.081h157.276l-22.44 29.984v-17.613c0-15.516-2.38-28.376-7.13-38.58-4.61-10.344-11.11-18.032-19.5-23.065-8.25-5.032-17.824-7.548-28.729-7.548-10.766 0-20.413 2.656-28.939 7.968-8.527 5.312-15.239 13.14-20.132 23.484-4.892 10.204-7.337 22.784-7.337 37.741v17.613c0 14.258 2.375 26.49 7.129 36.693 4.893 10.065 11.814 17.824 20.759 23.275 8.946 5.311 19.501 7.967 31.665 7.967 8.944 0 16.844-1.328 23.694-3.983 6.85-2.795 12.51-6.429 16.99-10.904 4.61-4.612 7.83-9.715 9.64-15.304l.63-1.678h43.2l-.42 2.305c-1.82 8.668-5.24 16.986-10.27 24.953-5.04 7.967-11.61 15.165-19.72 21.596-7.96 6.29-17.4 11.251-28.3 14.888-10.91 3.634-23.07 5.45-36.491 5.45Zm134.411-4.403V107.036h45.51V409.6h-45.51Zm157.07 3.984c-14.68 0-27.54-2.795-38.59-8.387-11.04-5.592-19.64-13.421-25.79-23.483-6.15-10.065-9.23-21.669-9.23-34.806v-.419c0-12.863 3.22-23.905 9.65-33.131 6.43-9.365 15.73-16.774 27.89-22.226 12.3-5.451 27.12-8.666 44.45-9.645l83.47-5.032v31.871l-77.38 4.823c-13.56.838-24.05 4.123-31.46 9.854-7.27 5.592-10.9 13.071-10.9 22.435v.42c0 9.645 3.63 17.262 10.9 22.855 7.41 5.592 17.19 8.387 29.36 8.387 10.62 0 20.13-2.167 28.52-6.501 8.52-4.331 15.24-10.273 20.13-17.821 4.89-7.69 7.34-16.285 7.34-25.791v-65.629c0-12.161-3.78-21.667-11.32-28.516-7.56-6.989-18.39-10.484-32.51-10.484-13 0-23.49 2.796-31.45 8.387-7.83 5.592-12.73 12.791-14.68 21.597l-.42 1.887h-42.78l.21-2.306c1.12-12.721 5.38-24.113 12.79-34.178 7.41-10.204 17.68-18.242 30.83-24.113 13.14-5.871 28.73-8.806 46.76-8.806 18.03 0 33.62 3.005 46.76 9.016s23.35 14.468 30.62 25.371c7.27 10.903 10.9 23.693 10.9 38.371V409.6h-45.71v-34.806h-.84a73.062 73.062 0 0 1-16.78 20.758c-6.85 5.731-14.61 10.203-23.27 13.421-8.53 3.075-17.69 4.611-27.47 4.611Zm293.57 1.047c-21.67 0-41.24-3.634-58.71-10.901-17.34-7.27-32.15-17.755-44.46-31.453-12.16-13.698-21.53-30.264-28.1-49.693-6.57-19.43-9.85-41.307-9.85-65.629v-.21c0-31.871 5.73-59.338 17.19-82.403 11.47-23.064 27.75-40.887 48.86-53.468 21.11-12.58 45.99-18.871 74.65-18.871 23.49 0 44.04 4.194 61.65 12.581 17.62 8.247 32.02 19.57 43.2 33.968 11.19 14.398 18.87 30.753 23.07 49.064l.84 3.565h-48.44l-.84-2.307c-6.29-17.473-16.22-31.032-29.78-40.677-13.42-9.645-29.98-14.468-49.7-14.468-19.15 0-35.71 4.473-49.7 13.419-13.83 8.947-24.46 21.877-31.87 38.791-7.41 16.774-11.11 36.973-11.11 60.597v.209c0 18.033 2.17 34.248 6.5 48.645 4.33 14.259 10.55 26.419 18.66 36.484 8.25 10.065 18.11 17.752 29.57 23.063 11.46 5.315 24.39 7.971 38.79 7.971 16.36 0 30.76-3.217 43.2-9.646 12.58-6.431 22.37-15.376 29.36-26.838 7.13-11.603 10.76-25.023 10.9-40.259v-5.033h-79.26v-38.371h125.82v31.033c0 20.408-2.94 38.72-8.81 54.935-5.87 16.216-14.47 29.984-25.79 41.307-11.19 11.324-24.89 19.919-41.1 25.789-16.08 5.873-34.32 8.806-54.74 8.806Zm172.58-5.031V189.02h45.72V409.6h-45.72Zm22.86-254.548c-7.27 0-13.49-2.516-18.66-7.549-5.18-5.172-7.76-11.322-7.76-18.451 0-7.409 2.58-13.629 7.76-18.662 5.17-5.032 11.39-7.548 18.66-7.548 7.41 0 13.63 2.516 18.67 7.548 5.17 5.033 7.75 11.253 7.75 18.662 0 7.129-2.58 13.279-7.75 18.451-5.04 5.033-11.26 7.549-18.67 7.549Zm147 258.951c-21.81 0-38.1-4.892-48.86-14.676-10.63-9.926-15.94-25.93-15.94-48.016V225.084h-31.66V189.02h31.66v-57.452h46.56v57.452h41.31v36.064h-41.31v123.71c0 11.182 2.44 18.872 7.34 23.063 4.89 4.054 12.16 6.082 21.8 6.082 2.38 0 4.55-.07 6.5-.208 2.1-.281 3.99-.493 5.67-.631v35.017c-2.66.42-6.02.839-10.07 1.259-4.05.419-8.39.627-13 .627Z"/>
</svg>
