<?xml version="1.0" encoding="UTF-8"?>
<svg id="Layer_1" xmlns="http://www.w3.org/2000/svg" version="1.1" viewBox="0 0 1920 1080">
  <!-- Generator: Adobe Illustrator 29.5.0, SVG Export Plug-In . SVG Version: 2.1.0 Build 137)  -->
  <defs>
    <style>
      .st0 {
        fill: #fff;
      }
    </style>
  </defs>
  <path class="st0" d="M1449.4,536.3c-1.7-10.8-12.1-19-24-19h-599.9c-5.9,0-8-4.6-8.5-6s-1.8-6.3,2.8-10l313.9-255.1c9.3-7.5,12.1-20.3,6.7-29.8-3.4-6-9-10-15.7-11.2-6.6-1.2-13.3.5-18.5,4.7l-312.7,254.1c-4.6,3.8-9.2,1.5-10.4.7-1.3-.8-5.3-3.8-4-9.7l39-168.7c2.7-11.6-2.9-23.5-13-27.6-6.4-2.6-13.2-2.4-19.5.8-5.9,3.1-10.1,8.6-11.7,15.1l-45,194.8c-1.2,5.2-5.5,6.5-6.9,6.8s-5.8.9-9-3.3l-64.9-84.4c-7.3-9.4-20-12.6-29.6-7.4-6.1,3.3-10.2,8.8-11.6,15.4-1.4,6.6.1,13.4,4.2,18.6l67.5,87.7c2.1,2.8,2.5,6.3.9,9.5-1.5,3.1-4.6,5-8.1,5h-177c-11.9,0-22.3,8.1-24,18.9-1.1,6.8.7,13.4,5.1,18.6,4.3,5.1,10.7,8.1,17.4,8.1h153.5c5.9,0,8,4.6,8.5,6,.5,1.4,1.8,6.3-2.8,10l-100.4,81.6c-9,7.3-11.9,19.8-6.8,29.1,3.2,6,9,10.2,15.9,11.5,6.8,1.3,13.6-.3,18.6-4.4l99.1-80.5c4.6-3.8,9.2-1.4,10.4-.7,1.3.8,5.3,3.9,4,9.7l-39,168.9c-2.5,10.9,2.3,22.2,11.6,26.8,6.2,3.1,13.5,3.1,20,0,6.4-3,11-8.6,12.6-15.3l45-194.7c1.2-5.2,5.5-6.5,6.9-6.8,1.3-.3,5.8-.9,9,3.3l199.2,259c3.9,5.1,10,8.2,16.7,8.6.5,0,1,0,1.4,0,6.3,0,12.3-2.5,16.6-7,7.6-7.9,7.8-21,.6-30.5l-200.1-260.2c-2.1-2.8-2.5-6.3-.9-9.5,1.5-3.1,4.6-5,8.1-5h626.3c6.7,0,13-2.9,17.4-8.1,4.4-5.2,6.2-11.8,5.1-18.6Z"/>
</svg>