<svg width="745" height="186" viewBox="0 0 745 186" fill="none" xmlns="http://www.w3.org/2000/svg">
<g clip-path="url(#clip0_3_140)">
<path fill-rule="evenodd" clip-rule="evenodd" d="M151.379 140.512C153.018 161.564 153.018 171.433 153.018 182.204H104.306C104.306 179.858 104.348 177.712 104.39 175.535C104.522 168.769 104.66 161.714 103.564 147.466C102.115 126.606 93.1311 121.971 76.6131 121.971H61.9787H0V84.0178H78.9314C99.7963 84.0178 110.229 77.6712 110.229 60.8676C110.229 46.0921 99.7963 37.138 78.9314 37.138H0V0H87.6251C134.861 0 158.334 22.3082 158.334 57.9433C158.334 84.5972 141.816 101.98 119.502 104.877C138.338 108.644 149.35 119.363 151.379 140.512Z" fill="url(#paint0_linear_3_140)"/>
<path fill-rule="evenodd" clip-rule="evenodd" d="M151.379 140.512C153.018 161.564 153.018 171.433 153.018 182.204H104.306C104.306 179.858 104.348 177.712 104.39 175.535C104.522 168.769 104.66 161.714 103.564 147.466C102.115 126.606 93.1311 121.971 76.6131 121.971H61.9787H0V84.0178H78.9314C99.7963 84.0178 110.229 77.6712 110.229 60.8676C110.229 46.0921 99.7963 37.138 78.9314 37.138H0V0H87.6251C134.861 0 158.334 22.3082 158.334 57.9433C158.334 84.5972 141.816 101.98 119.502 104.877C138.338 108.644 149.35 119.363 151.379 140.512Z" fill="white"/>
<path d="M0 182.204V153.912H51.5056C60.1087 153.912 61.9767 160.292 61.9767 164.097V182.204H0Z" fill="url(#paint1_linear_3_140)"/>
<path d="M0 182.204V153.912H51.5056C60.1087 153.912 61.9767 160.292 61.9767 164.097V182.204H0Z" fill="white"/>
<path d="M0 182.207V153.914H51.5062C60.1094 153.914 61.9774 160.294 61.9774 164.099V182.207H0Z" fill="white"/>
<path d="M740.943 53.3079H692.548L670.523 84.0182L649.079 53.3079H597.206L643.862 116.757L593.148 182.523H641.544L667.335 147.467L693.127 182.523H745L693.996 114.728L740.943 53.3079Z" fill="white"/>
<path d="M259.716 136.458C255.369 146.598 247.255 150.944 234.504 150.944C220.304 150.944 208.713 143.411 207.553 127.477H298.259V114.439C298.259 79.3831 275.365 49.8317 232.186 49.8317C191.905 49.8317 161.766 79.0934 161.766 119.944C161.766 161.084 191.325 186 232.765 186C266.961 186 290.724 169.486 297.389 139.935L259.716 136.458ZM208.133 104.878C209.872 92.7102 216.537 83.4392 231.606 83.4392C245.516 83.4392 253.051 93.2897 253.631 104.878H208.133Z" fill="white"/>
<path d="M436.111 75.327C430.604 60.2616 418.723 49.8317 395.829 49.8317C376.413 49.8317 362.503 58.5233 355.548 72.7196V53.3083H308.602V182.523H355.548V119.075C355.548 99.6635 361.054 86.9158 376.413 86.9158C390.613 86.9158 394.091 96.1869 394.091 113.86V182.523H441.037V119.075C441.037 99.6635 446.253 86.9158 461.902 86.9158C476.102 86.9158 479.29 96.1869 479.29 113.86V182.523H526.236V101.402C526.236 74.4579 515.804 49.8317 480.159 49.8317C458.425 49.8317 443.066 60.841 436.111 75.327Z" fill="white"/>
<path d="M541.591 53.3085V182.524H588.538V53.3085H541.591ZM541.301 41.1402H588.827V0H541.301V41.1402Z" fill="white"/>
</g>
<defs>
<linearGradient id="paint0_linear_3_140" x1="79.1669" y1="0" x2="79.1669" y2="182.204" gradientUnits="userSpaceOnUse">
<stop stop-color="white"/>
<stop offset="1" stop-color="white" stop-opacity="0"/>
</linearGradient>
<linearGradient id="paint1_linear_3_140" x1="30.9883" y1="153.912" x2="30.9883" y2="182.204" gradientUnits="userSpaceOnUse">
<stop stop-color="white"/>
<stop offset="1" stop-color="white" stop-opacity="0"/>
</linearGradient>
<clipPath id="clip0_3_140">
<rect width="745" height="186" fill="white"/>
</clipPath>
</defs>
</svg>
