<svg viewBox="0 0 256 297" width="256" height="297" xmlns="http://www.w3.org/2000/svg"><path d="M141.675 0C218.047 0 256 36.35 256 94.414c0 43.43-26.707 71.753-62.785 76.474 30.455 6.137 48.259 23.604 51.54 58.065l.474 6.337.415 5.924.358 5.542.249 4.179.267 4.93.138 2.814.198 4.47.159 4.222.079 2.427.107 3.888.092 4.446.033 2.148.06 6.226.02 6.496v3.885h-78.758l.004-1.62.028-3.147.047-3.065.136-7.424.035-2.489.027-3.902-.004-2.496-.023-2.617-.032-2.054-.064-2.876-.094-3.05-.125-3.242-.16-3.455-.096-1.813-.16-2.833-.186-2.976-.287-4.204-.247-3.342a116.56 116.56 0 0 0-.247-3.02l-.202-1.934c-2.6-22.827-11.655-32.157-27.163-35.269l-1.307-.245a60.184 60.184 0 0 0-2.704-.408l-1.397-.164c-.236-.025-.472-.05-.71-.073l-1.442-.127-1.471-.103-1.502-.081-1.514-.058-1.544-.039-1.574-.018L0 198.74V136.9h127.62c2.086 0 4.108-.04 6.066-.12l1.936-.095 1.893-.122 1.85-.15c.305-.028.608-.056.909-.086l1.785-.193a86.3 86.3 0 0 0 3.442-.475l1.657-.28c20.709-3.755 31.063-14.749 31.063-36.2 0-24.075-16.867-38.666-50.602-38.666H0V0h141.675ZM83.276 250.785c10.333 0 14.657 5.738 16.197 11.23l.203.79.167.782.109.617.046.306.078.603.058.59.023.29.031.569.01.278.008.54v29.507H0v-46.102h83.276Z" fill="#121212" fill-rule="nonzero"/></svg>