<svg width="745" height="186" viewBox="0 0 745 186" fill="none" xmlns="http://www.w3.org/2000/svg">
<g clip-path="url(#clip0_3_131)">
<path fill-rule="evenodd" clip-rule="evenodd" d="M151.744 141.947C153.387 163.214 153.387 173.183 153.387 184.065H104.558C104.558 181.694 104.6 179.526 104.642 177.327C104.774 170.492 104.912 163.365 103.813 148.971C102.361 127.899 93.3557 123.216 76.7978 123.216H62.1282H0V84.8755H79.1217C100.037 84.8755 110.494 78.4641 110.494 61.489C110.494 46.5626 100.037 37.5172 79.1217 37.5172H0V0H87.8364C135.186 0 158.716 22.5359 158.716 58.5348C158.716 85.4608 142.158 103.021 119.79 105.948C138.672 109.753 149.71 120.582 151.744 141.947Z" fill="#121212"/>
<path d="M0 184.065V155.483H51.6297C60.2536 155.483 62.1261 161.929 62.1261 165.772V184.065H0Z" fill="#121212"/>
<path d="M740.943 55.5244H692.548L670.523 86.4736L649.079 55.5244H597.206L643.862 119.467L593.148 185.745H641.544L667.336 150.416L693.127 185.745H745L693.996 117.423L740.943 55.5244Z" fill="#121212"/>
<path d="M436.111 77.1051C430.604 61.9225 418.723 51.4114 395.829 51.4114C376.413 51.4114 362.503 60.1706 355.548 74.4774V54.9151H308.602V185.135H355.548V121.193C355.548 101.631 361.054 88.7841 376.413 88.7841C390.613 88.7841 394.091 98.1272 394.091 115.938V185.135H441.037V121.193C441.037 101.631 446.253 88.7841 461.902 88.7841C476.102 88.7841 479.29 98.1272 479.29 115.938V185.135H526.236V103.383C526.236 76.2292 515.804 51.4114 480.159 51.4114C458.425 51.4114 443.066 62.5064 436.111 77.1051Z" fill="#121212"/>
<path d="M259.716 134.598C255.369 144.817 247.255 149.197 234.504 149.197C220.304 149.197 208.712 141.606 207.553 125.547H298.258V112.408C298.258 77.0796 275.365 47.2982 232.185 47.2982C191.904 47.2982 161.766 76.7876 161.766 117.956C161.766 159.416 191.325 184.526 232.765 184.526C266.961 184.526 290.724 167.883 297.389 138.102L259.716 134.598ZM208.133 102.773C209.871 90.5104 216.537 81.1672 231.606 81.1672C245.516 81.1672 253.05 91.0943 253.63 102.773H208.133Z" fill="#121212"/>
<path d="M541.592 55.7797V186H588.538V55.7797H541.592ZM541.302 43.5168H588.828V2.05647H541.302V43.5168Z" fill="#121212"/>
</g>
<defs>
<clipPath id="clip0_3_131">
<rect width="745" height="186" fill="white"/>
</clipPath>
</defs>
</svg>
