<svg width="250" height="250" viewBox="0 0 250 250" fill="none" xmlns="http://www.w3.org/2000/svg">
<path d="M81.0309 33.9631C77.1822 34.1706 74.0808 34.777 70.9553 35.9581C69.3966 36.5407 66.8415 37.8095 65.4355 38.6874C59.554 42.3503 55.0706 47.8566 52.7325 54.2647C52.2665 55.5335 51.0051 59.5795 50.1936 62.3646C44.7862 80.9823 41.7169 101.34 41.0581 122.886C40.9536 126.318 40.9536 134.489 41.0581 137.865C41.5 152.15 42.8739 165.046 45.3647 178.197C46.3771 183.52 48.0001 190.67 48.9401 193.918C50.8604 200.517 54.7814 206.135 60.3575 210.253C64.0937 213.014 68.336 214.866 73.0363 215.776C75.3021 216.214 78.291 216.414 80.4925 216.27C83.5377 216.071 89.5798 215.265 94.489 214.395C116.617 210.477 137.057 203.462 155.593 193.423C167.332 187.063 177.367 180.176 187.049 171.821C196.699 163.505 204.926 154.56 212.166 144.521C213.845 142.198 214.689 140.842 215.532 139.134C217.702 134.729 218.722 130.348 218.714 125.448C218.714 120.883 217.846 116.829 215.974 112.68C215.074 110.677 214.215 109.24 212.286 106.511C205.184 96.4639 197.301 87.7096 187.692 79.2027C172.796 66.0195 155.103 55.2063 135.346 47.2022C131.063 45.4705 126.845 43.9463 121.767 42.2944C111.016 38.8071 97.711 35.7826 86.4543 34.2743C84.6867 34.0349 82.2843 33.8992 81.0309 33.9631Z" fill="#0B84F3" fill-opacity="0.1"/>
<path d="M91.4565 53.3788C88.428 53.5421 85.9875 54.0193 83.528 54.9487C82.3015 55.4071 80.2909 56.4056 79.1844 57.0964C74.5563 59.9787 71.0284 64.3116 69.1885 69.3542C68.8218 70.3526 67.8291 73.5364 67.1906 75.728C62.9355 90.3783 60.5203 106.398 60.0018 123.353C59.9196 126.053 59.9196 132.483 60.0018 135.139C60.3496 146.38 61.4307 156.528 63.3907 166.877C64.1874 171.065 65.4645 176.692 66.2042 179.248C67.7153 184.441 70.8007 188.862 75.1886 192.102C78.1286 194.275 81.4669 195.732 85.1656 196.447C86.9485 196.793 89.3005 196.95 91.0329 196.837C93.4291 196.68 98.1837 196.046 102.047 195.361C119.459 192.278 135.544 186.758 150.13 178.858C159.367 173.853 167.264 168.434 174.882 161.859C182.476 155.316 188.95 148.276 194.647 140.377C195.968 138.549 196.632 137.482 197.296 136.138C199.003 132.672 199.806 129.224 199.8 125.368C199.8 121.776 199.117 118.586 197.644 115.321C196.936 113.745 196.259 112.614 194.742 110.467C189.152 102.561 182.95 95.6721 175.388 88.978C163.666 78.6041 149.744 70.0952 134.197 63.7967C130.827 62.434 127.508 61.2346 123.512 59.9347C115.052 57.1905 104.582 54.8106 95.7242 53.6237C94.3333 53.4353 92.4428 53.3286 91.4565 53.3788Z" fill="#0B84F3" fill-opacity="0.3"/>
<path d="M102.247 73.5165C100.069 73.6339 98.314 73.9771 96.5452 74.6455C95.6632 74.9751 94.2173 75.6932 93.4216 76.1899C90.0933 78.2628 87.5562 81.3787 86.2331 85.005C85.9694 85.7231 85.2555 88.0126 84.7963 89.5887C81.7363 100.124 79.9994 111.644 79.6266 123.838C79.5675 125.779 79.5675 130.404 79.6266 132.314C79.8767 140.397 80.6542 147.695 82.0637 155.137C82.6366 158.15 83.555 162.196 84.087 164.034C85.1737 167.768 87.3925 170.948 90.548 173.278C92.6623 174.84 95.063 175.888 97.7229 176.403C99.0051 176.651 100.696 176.764 101.942 176.683C103.666 176.57 107.085 176.114 109.863 175.622C122.385 173.404 133.952 169.435 144.441 163.754C151.084 160.155 156.763 156.257 162.242 151.529C167.703 146.824 172.359 141.761 176.455 136.08C177.406 134.766 177.883 133.998 178.36 133.032C179.588 130.539 180.165 128.06 180.161 125.287C180.161 122.704 179.67 120.41 178.61 118.062C178.101 116.928 177.615 116.115 176.523 114.571C172.504 108.885 168.044 103.931 162.606 99.1173C154.176 91.657 144.164 85.5379 132.983 81.0084C130.56 80.0285 128.173 79.1659 125.299 78.2311C119.216 76.2577 111.686 74.5461 105.316 73.6926C104.316 73.5571 102.956 73.4804 102.247 73.5165Z" fill="#0B84F3"/>
</svg>
