<svg xmlns="http://www.w3.org/2000/svg" width="2909" height="1200" fill="none" viewBox="0 0 2909 1200"><path fill="#000" d="M794.226 493.534c-.058-1.348-.176-2.666-.293-4.014-.029-.322-.029-.673-.088-.996-.088-.82-.205-1.611-.322-2.431-.117-.85-.205-1.67-.322-2.49a30 30 0 0 0-.323-1.728c-.176-1.025-.352-2.08-.557-3.105-.176-.821-.381-1.611-.557-2.432-.175-.791-.351-1.552-.527-2.343-.205-.82-.469-1.611-.703-2.431a68 68 0 0 0-.645-2.256c-.264-.82-.557-1.64-.85-2.461l-.703-2.109c-.381-1.025-.792-2.021-1.173-3.017-.205-.498-.381-.967-.586-1.465a104 104 0 0 0-1.436-3.193c-.176-.38-.351-.791-.527-1.171-.469-.996-.997-1.963-1.495-2.93-.234-.439-.439-.879-.674-1.318-.586-1.084-1.231-2.168-1.846-3.222-.176-.293-.323-.586-.498-.879a79 79 0 0 0-2.11-3.281l-.44-.703a114 114 0 0 0-2.725-3.837 102 102 0 0 0-2.726-3.486c-.059-.088-.117-.176-.205-.264-18.111-21.941-45.454-35.884-76.079-35.913V400l-.088.059h.03a99 99 0 0 0-24.647 3.105c-4.718 1.201-9.319 2.783-13.744 4.628a116 116 0 0 0-4.367 1.963c-29.101 14.002-50.201 41.889-54.861 75.049h-.059c-2.051 14.207-6.418 27.653-12.631 40.015h.205c-21.628 42.885-66.056 72.325-117.4 72.325-22.917 0-44.428-5.859-63.184-16.141-2.198-1.201-4.865.381-4.865 2.871v13.27H400V794.2h197.172v-98.543h.205v-49.271c0-27.214 22.067-49.271 49.293-49.271h49.293c8.44 0 16.616-1.084 24.441-3.105a104 104 0 0 0 13.745-4.629c1.465-.615 2.93-1.289 4.366-1.962 30.156-14.53 51.784-43.97 55.33-78.741.323-3.31.498-6.679.498-10.077 0-1.699-.029-3.398-.117-5.067m339.074-26.482c67.72 0 111.77 38.199 111.77 99.627 0 44.965-25.88 78.33-66.52 92.596l79.59 135.892h-59.02l-74.26-128.891h-82v128.891h-50.788V467.052h141.288zm-90.47 45.698v108.327h88.07c40.41 0 61.19-22.498 61.19-54.398s-20.81-53.929-61.19-53.929zm344.64 45.463c67.73 0 111.77 50.297 111.77 112.428 0 7.265-.49 14.764-1.93 22.233h-180.23c2.17 34.83 31.94 62.131 72.09 62.131 29.04 0 52.25-12.332 69.66-39.663l35.31 25.632c-21.54 38.696-63.85 58.997-104.97 58.997-70.16 0-121.68-51.732-121.68-120.659s49.59-121.128 119.98-121.128m63.13 98.894c-2.91-32.633-30.25-55.628-63.63-55.628-35.55 0-62.65 22.966-68.69 55.628zm93.1 138.089v-232.12h48.15v29.264c7.74-11.835 29.75-34.098 71.36-34.098 63.86 0 97.5 39.663 97.5 95.994v140.96h-47.88V664.343c0-38.433-21.04-60.696-57.09-60.696s-64.09 22.234-64.09 60.696v130.824zm373.07-236.954c39.42 0 65.56 14.5 82.73 36.5V454.72h47.89v340.447h-47.89v-31.666C1982.33 785.5 1956.19 800 1916.77 800c-66.03 0-116.61-50.765-116.61-122.094 0-71.33 50.55-119.693 116.61-119.693m-68.69 119.693c0 42.797 29.74 79.062 74.49 79.062s76.7-36.265 76.7-79.062c0-42.798-32.18-76.661-76.7-76.661-44.51 0-74.49 33.863-74.49 76.661m359.9-119.693c67.73 0 111.78 50.297 111.78 112.428 0 7.265-.5 14.764-1.94 22.233h-180.23c2.17 34.83 31.94 62.131 72.09 62.131 29.05 0 52.26-12.332 69.66-39.663l35.32 25.632c-21.54 38.696-63.86 58.997-104.98 58.997-70.16 0-121.68-51.732-121.68-120.659 0-69.162 49.59-121.128 119.98-121.128m63.13 98.894c-2.9-32.633-30.24-55.628-63.62-55.628-35.55 0-62.66 22.966-68.7 55.628zm94.92 138.089v-232.12h48.15v31.666c13.07-25.398 35.08-36.5 60.49-36.5 18.14 0 31.94 5.8 31.94 5.8l-5.07 43.999c-2.66-.967-13.07-5.332-28.31-5.332-25.64 0-59.02 13.534-59.02 66.027v126.46z"/></svg>