<svg xmlns="http://www.w3.org/2000/svg" width="800" height="800" fill="none" viewBox="0 0 800 800"><g clip-path="url(#clip0_682_42)"><path fill="#000" d="M605.28 288.733c-.059-1.365-.178-2.7-.296-4.065-.03-.326-.03-.682-.09-1.009-.089-.83-.207-1.632-.326-2.462-.119-.861-.208-1.691-.327-2.522a30 30 0 0 0-.326-1.751c-.178-1.038-.356-2.106-.564-3.144-.178-.831-.386-1.632-.564-2.463-.178-.801-.356-1.572-.534-2.373-.208-.831-.475-1.632-.713-2.463a63 63 0 0 0-.653-2.284c-.267-.831-.564-1.662-.86-2.493l-.713-2.136c-.386-1.038-.801-2.047-1.187-3.056-.208-.504-.386-.979-.594-1.483a106 106 0 0 0-1.454-3.234c-.178-.386-.356-.801-.534-1.187-.475-1.009-1.01-1.988-1.514-2.967-.238-.445-.445-.89-.683-1.335-.593-1.098-1.246-2.195-1.87-3.263-.178-.297-.326-.594-.504-.89a78 78 0 0 0-2.137-3.323l-.446-.712a114 114 0 0 0-2.76-3.887 103 103 0 0 0-2.76-3.531c-.06-.089-.119-.178-.208-.267-18.344-22.222-46.037-36.344-77.054-36.374V194l-.089.059h.029c-8.607 0-16.978 1.098-24.962 3.145-4.779 1.217-9.439 2.819-13.921 4.688a118 118 0 0 0-4.423 1.988c-29.474 14.181-50.845 42.426-55.564 76.011h-.059c-2.078 14.39-6.501 28.008-12.793 40.528h.208c-21.906 43.435-66.903 73.252-118.906 73.252-23.211 0-44.998-5.933-63.994-16.347-2.226-1.217-4.927.386-4.927 2.907v13.44H206v199.583h199.7v-99.806h.207v-49.903c0-27.563 22.351-49.903 49.925-49.903h49.925c8.548 0 16.83-1.098 24.755-3.145a105 105 0 0 0 13.921-4.688 117 117 0 0 0 4.422-1.988c30.543-14.715 52.448-44.533 56.039-79.75.327-3.352.505-6.764.505-10.206 0-1.72-.03-3.441-.119-5.132"/></g><defs><clipPath id="clip0_682_42"><path fill="#fff" d="M206 194h400v400H206z"/></clipPath></defs></svg>