<svg xmlns="http://www.w3.org/2000/svg" width="112" height="26" viewBox="0 0 112 26" fill="none"><path d="M10.701 8.40793H1.60592C0.710313 8.40793 0 7.69462 0 6.82955V1.57838C0 0.698131 0.725755 0 1.60592 0H9.09508C9.99069 0 10.701 0.713307 10.701 1.57838V8.40793Z" class="logo-dots" fill="#F5640C"></path><path d="M20.4557 17.5668H10.7109V8.39453H20.4557C21.3987 8.39453 22.1763 9.17128 22.1763 10.1133V15.8481C22.1763 16.8066 21.3987 17.5668 20.4557 17.5668Z" class="logo-dots" fill="#F5640C"></path><path d="M9.09508 26H1.60592C0.725755 26 0 25.288 0 24.4244V19.1676C0 18.3041 0.725755 17.592 1.60592 17.592H10.701V24.4244C10.701 25.288 9.97525 26 9.09508 26Z" class="logo-dots" fill="#F5640C"></path><path d="M40.3351 7.73268L39.5949 8.42401H38.8548L38.6245 7.54832C38.5751 7.33324 38.3613 7.19497 38.1146 7.19497H33.3775C33.0814 7.19497 32.8512 7.41005 32.8512 7.65586V9.1768C32.8512 9.43797 33.0814 9.63769 33.3775 9.63769H36.1737V16.7661H32.917C32.6209 16.7661 32.3906 16.9812 32.3906 17.227V18.748C32.3906 19.0091 32.6209 19.2088 32.917 19.2088H43.1642C43.4603 19.2088 43.6905 18.9938 43.6905 18.748V17.227C43.6905 16.9658 43.4603 16.7661 43.1642 16.7661H39.3976V11.7271C39.3976 10.3137 40.2858 9.57624 42.0293 9.57624H44.8584C45.1544 9.57624 45.3847 9.36116 45.3847 9.11535V7.44078C45.3847 7.17961 45.1544 6.97989 44.8584 6.97989H43.1806C41.947 6.96453 40.9766 7.17961 40.3351 7.73268Z" fill="#0D1525"></path><path d="M52.4942 6.97913C48.3595 6.97913 46.1445 9.12083 46.1445 13.4682C46.1445 17.8315 48.3431 19.9732 52.4122 19.9732C55.5624 19.9732 57.597 18.6946 58.1384 16.5049C58.2204 16.2012 57.9579 15.9136 57.6298 15.9136H55.6609C55.4476 15.9136 55.2507 16.0414 55.1687 16.2332C54.8241 17.1762 53.8396 17.6237 52.5106 17.6237C50.4433 17.6237 49.4588 16.5209 49.3276 13.9477H58.3025C58.7947 9.13682 56.7438 6.97913 52.4942 6.97913ZM49.426 11.9977C49.7378 10.1118 50.7058 9.23271 52.4778 9.23271C54.3647 9.23271 55.2507 10.2077 55.2999 11.9977H49.426Z" fill="#0D1525"></path><path d="M67.9398 6.97913C66.8718 6.97913 66.1022 7.20864 65.5054 7.75948L64.7672 8.44803H64.0918L63.8405 7.56057C63.7777 7.36165 63.5892 7.20864 63.3536 7.20864H61.9401C61.6574 7.20864 61.4375 7.42286 61.4375 7.66767V23.336C61.4375 23.5961 61.6574 23.795 61.9401 23.795H64.0133C64.296 23.795 64.5159 23.5808 64.5159 23.336V19.9391L64.2489 18.1183L64.9399 17.9653L65.6781 18.6538C66.2592 19.1741 66.966 19.4342 68.0183 19.4342C71.0653 19.4342 72.9029 17.3838 72.9029 13.2067C72.8872 9.02947 71.0653 6.97913 67.9398 6.97913ZM66.9189 16.9248C65.364 16.9248 64.5002 16.1445 64.5002 14.6603V11.7225C64.5002 10.2383 65.3483 9.4579 66.9189 9.4579C68.8193 9.4579 69.6831 10.6208 69.6831 13.1761C69.6674 15.7619 68.8193 16.9248 66.9189 16.9248Z" fill="#0D1525"></path><path d="M111.119 8.77679V7.19403C111.119 6.92224 110.895 6.7144 110.607 6.7144H105.054V3.64479C105.054 3.373 104.83 3.16516 104.542 3.16516H102.43C102.142 3.16516 101.918 3.38899 101.918 3.64479V6.7144H98.6371C98.349 6.7144 98.125 6.93822 98.125 7.19403V8.77679C98.125 9.04858 98.349 9.25642 98.6371 9.25642H101.918V13.9568C101.918 17.554 103.614 19.2167 107.262 19.2167H110.239C110.527 19.2167 110.751 18.9928 110.751 18.737V17.1543C110.751 16.8825 110.527 16.6746 110.239 16.6746H107.743C105.758 16.6746 105.054 15.8913 105.054 13.9408V9.27241H110.607C110.895 9.25642 111.119 9.03259 111.119 8.77679Z" fill="#0D1525"></path><path d="M85.3996 16.7506H82.1912V2.86663C82.1912 2.60291 81.971 2.40125 81.6879 2.40125H75.3969C75.1138 2.40125 74.8936 2.61842 74.8936 2.86663V4.40239C74.8936 4.66611 75.1138 4.86778 75.3969 4.86778H79.1086V16.7506H74.9408C74.6577 16.7506 74.4375 16.9677 74.4375 17.216V18.7517C74.4375 19.0154 74.6577 19.2171 74.9408 19.2171H85.3996C85.6827 19.2171 85.9029 18.9999 85.9029 18.7517V17.216C85.9029 16.9522 85.6827 16.7506 85.3996 16.7506Z" fill="#0D1525"></path><path d="M94.4697 2.20508H91.6232C91.3386 2.20508 91.1172 2.42647 91.1172 2.67948V4.6878C91.1172 4.95663 91.3386 5.16221 91.6232 5.16221H94.4697C94.7543 5.16221 94.9757 4.94082 94.9757 4.6878V2.67948C94.9599 2.41065 94.7385 2.20508 94.4697 2.20508Z" fill="#0D1525"></path><path d="M94.8537 16.8309V7.45353C94.8537 7.1847 94.6323 6.97913 94.3476 6.97913H87.9748C87.6901 6.97913 87.4688 7.20052 87.4688 7.45353V9.01907C87.4688 9.2879 87.6901 9.49347 87.9748 9.49347H91.7542V16.8309H87.9748C87.6901 16.8309 87.4688 17.0523 87.4688 17.3054V18.8709C87.4688 19.1397 87.6901 19.3453 87.9748 19.3453H98.728C99.0126 19.3453 99.234 19.1239 99.234 18.8709V17.3054C99.234 17.0365 99.0126 16.8309 98.728 16.8309H94.8537Z" fill="#0D1525"></path></svg>