<svg xmlns="http://www.w3.org/2000/svg" xml:space="preserve" viewBox="0 0 1005.6 468.5"><path fill="#0d1525" d="M405.5 198.5 401 203h-4.5l-1.4-5.7c-.3-1.4-1.6-2.3-3.1-2.3h-28.8c-1.8 0-3.2 1.4-3.2 3v9.9c0 1.7 1.4 3 3.2 3h17v46.4h-19.8c-1.8 0-3.2 1.4-3.2 3v9.9c0 1.7 1.4 3 3.2 3h62.3c1.8 0 3.2-1.4 3.2-3v-9.9c0-1.7-1.4-3-3.2-3h-22.9v-32.8c0-9.2 5.4-14 16-14H433c1.8 0 3.2-1.4 3.2-3v-10.9c0-1.7-1.4-3-3.2-3h-10.2c-7.5-.1-13.4 1.3-17.3 4.9m77.7-5c-25.2 0-38.7 13.4-38.7 40.6 0 27.3 13.4 40.7 38.2 40.7 19.2 0 31.6-8 34.9-21.7.5-1.9-1.1-3.7-3.1-3.7h-12c-1.3 0-2.5.8-3 2-2.1 5.9-8.1 8.7-16.2 8.7-12.6 0-18.6-6.9-19.4-23h54.7c3-30.1-9.5-43.6-35.4-43.6m-18.7 31.4c1.9-11.8 7.8-17.3 18.6-17.3 11.5 0 16.9 6.1 17.2 17.3h-35.8zm116-31.4c-6.8 0-11.7 1.5-15.5 5.1l-4.7 4.5H556l-1.6-5.8c-.4-1.3-1.6-2.3-3.1-2.3h-9c-1.8 0-3.2 1.4-3.2 3v102.4c0 1.7 1.4 3 3.2 3h13.2c1.8 0 3.2-1.4 3.2-3v-22.2l-1.7-11.9 4.4-1 4.7 4.5c3.7 3.4 8.2 5.1 14.9 5.1 19.4 0 31.1-13.4 31.1-40.7-.1-27.3-11.7-40.7-31.6-40.7m-6.5 65c-9.9 0-15.4-5.1-15.4-14.8v-19.2c0-9.7 5.4-14.8 15.4-14.8 12.1 0 17.6 7.6 17.6 24.3-.1 16.9-5.5 24.5-17.6 24.5m278.8-50.6V198c0-1.7-1.4-3-3.2-3h-34.7v-19.2c0-1.7-1.4-3-3.2-3h-13.2c-1.8 0-3.2 1.4-3.2 3V195h-20.5c-1.8 0-3.2 1.4-3.2 3v9.9c0 1.7 1.4 3 3.2 3h20.5v29.4c0 22.5 10.6 32.9 33.4 32.9h18.6c1.8 0 3.2-1.4 3.2-3v-9.9c0-1.7-1.4-3-3.2-3h-15.6c-12.4 0-16.8-4.9-16.8-17.1V211h34.7c1.8-.1 3.2-1.5 3.2-3.1zm-163.7 49.4h-20.4v-89.5c0-1.7-1.4-3-3.2-3h-40c-1.8 0-3.2 1.4-3.2 3v9.9c0 1.7 1.4 3 3.2 3h23.6v76.6h-26.5c-1.8 0-3.2 1.4-3.2 3v9.9c0 1.7 1.4 3 3.2 3h66.5c1.8 0 3.2-1.4 3.2-3v-9.9c0-1.7-1.4-3-3.2-3zm59.4-92.5h-18c-1.8 0-3.2 1.4-3.2 3v12.7c0 1.7 1.4 3 3.2 3h18c1.8 0 3.2-1.4 3.2-3v-12.7c-.1-1.7-1.5-3-3.2-3zm2.4 92.5V198c0-1.7-1.4-3-3.2-3h-40.3c-1.8 0-3.2 1.4-3.2 3v9.9c0 1.7 1.4 3 3.2 3h23.9v46.4h-23.9c-1.8 0-3.2 1.4-3.2 3v9.9c0 1.7 1.4 3 3.2 3h68c1.8 0 3.2-1.4 3.2-3v-9.9c0-1.7-1.4-3-3.2-3h-24.5z"/><path fill="#f5640c" d="M222.2 206.4h-58.9c-5.8 0-10.4-4.7-10.4-10.4v-34.6c0-5.8 4.7-10.4 10.4-10.4h48.5c5.8 0 10.4 4.7 10.4 10.4v45zm58.9 55.4h-58.9v-55.5h58.9c5.7 0 10.4 4.7 10.4 10.4v34.7c0 5.8-4.7 10.4-10.4 10.4zm-69.3 55.5h-48.5c-5.7 0-10.4-4.7-10.4-10.4v-34.7c0-5.7 4.7-10.4 10.4-10.4h58.9v45.1c0 5.7-4.7 10.4-10.4 10.4z"/></svg>