<svg xmlns="http://www.w3.org/2000/svg" width="816" height="193" fill="none" viewBox="0 0 816 193"><path fill="#E6484F" d="M385.734 121.222a20.629 20.629 0 0 0 7.584-6.722 2.532 2.532 0 0 1 2.214-1.366 2.487 2.487 0 0 1 1.533.518l8.173 6.47a3.342 3.342 0 0 1 1.193 2.215 3.048 3.048 0 0 1-.518 1.532 34.233 34.233 0 0 1-13.454 12.26 41.827 41.827 0 0 1-19.584 4.429 38.344 38.344 0 0 1-22.564-6.389 35.778 35.778 0 0 1-13.196-17.789 61.468 61.468 0 0 1-3.404-21.116 66.824 66.824 0 0 1 1.865-18.053 34.402 34.402 0 0 1 12.772-19.241 37.49 37.49 0 0 1 23.16-7.152c21.232 0 33.664 11.636 37.296 34.909a132.336 132.336 0 0 1 1.191 13.96 2.406 2.406 0 0 1-.682 2.041 2.406 2.406 0 0 1-2.042.684h-52.795a.904.904 0 0 0-.766.254.896.896 0 0 0-.252.768 22.975 22.975 0 0 0 1.018 7.494 16.826 16.826 0 0 0 7.155 9.532 23.653 23.653 0 0 0 13.11 3.408 24.657 24.657 0 0 0 10.993-2.646Zm-25.038-50.23a15.813 15.813 0 0 0-5.712 8.766 25.03 25.03 0 0 0-1.361 7.152c-.116.69.173 1.026.85 1.026h34.234a.909.909 0 0 0 1.024-1.026 51.17 51.17 0 0 0-1.024-6.125 16.876 16.876 0 0 0-6.038-9.454 17.978 17.978 0 0 0-11.326-3.488c-3.8-.16-7.545.948-10.647 3.148Zm73.8 66.069a29.112 29.112 0 0 1-12.514-8.689 19.262 19.262 0 0 1-4.428-12.347v-.849a2.418 2.418 0 0 1 .682-2.041 2.408 2.408 0 0 1 2.04-.684h13.616c1.817 0 2.726.397 2.726 1.193v1.193c0 2.84 1.56 5.311 4.68 7.41a20.748 20.748 0 0 0 11.839 3.15 19.784 19.784 0 0 0 11.066-2.81 8.27 8.27 0 0 0 4.258-7.067 6.331 6.331 0 0 0-3.492-5.875 56.216 56.216 0 0 0-11.323-4.178l-6.471-2.041a95.267 95.267 0 0 1-14.65-5.451 29.183 29.183 0 0 1-10.049-7.915 19.743 19.743 0 0 1-4.08-12.862 22.63 22.63 0 0 1 9.283-18.985c6.185-4.71 14.387-7.065 24.604-7.066a46.39 46.39 0 0 1 18.22 3.322 28.59 28.59 0 0 1 12.178 9.2 21.897 21.897 0 0 1 4.341 13.366 1.78 1.78 0 0 1-.767 1.444 3.074 3.074 0 0 1-1.959.6h-13.097c-1.819 0-2.725-.347-2.725-1.027V77.03a8.768 8.768 0 0 0-4.341-7.411 20.658 20.658 0 0 0-11.837-2.978 21.053 21.053 0 0 0-10.812 2.469 7.645 7.645 0 0 0-4.17 6.895 6.74 6.74 0 0 0 3.917 6.216 68.472 68.472 0 0 0 13.115 4.682l3.917 1.027a128.193 128.193 0 0 1 15.327 5.447 28.29 28.29 0 0 1 10.386 7.834 19.786 19.786 0 0 1 4.258 13.11 22.145 22.145 0 0 1-9.537 18.988c-6.358 4.596-14.815 6.894-25.369 6.895a51.728 51.728 0 0 1-18.832-3.143Zm78.234-3.238a34.888 34.888 0 0 1-13.281-18.135 76.702 76.702 0 0 1 0-40.53 33.054 33.054 0 0 1 13.196-17.789 39.37 39.37 0 0 1 22.736-6.55 40.498 40.498 0 0 1 23.159 6.642 31.627 31.627 0 0 1 13.11 16.685c.46 1.562.802 3.156 1.023 4.769v.69c0 1.248-.737 2.038-2.211 2.381l-14.135 2.215h-.688a2.324 2.324 0 0 1-2.383-2.043l-.516-2.212a14.671 14.671 0 0 0-5.963-8.604 18.778 18.778 0 0 0-11.406-3.489 18.017 18.017 0 0 0-10.987 3.321 16.015 16.015 0 0 0-6.038 9.112 53.064 53.064 0 0 0-1.702 15.153 61.049 61.049 0 0 0 1.532 15.158 17.895 17.895 0 0 0 6.132 9.449 17.322 17.322 0 0 0 11.07 3.492 18.797 18.797 0 0 0 11.154-3.322 14.894 14.894 0 0 0 6.039-8.769l.173-.849a3.244 3.244 0 0 1 1.103-1.705 2.518 2.518 0 0 1 2.131-.689l14.133 2.215c1.477.343 2.215 1.139 2.215 2.387a24.202 24.202 0 0 1-.689 4.08 30.34 30.34 0 0 1-13.11 17.283 41.707 41.707 0 0 1-23.159 6.389 38.251 38.251 0 0 1-22.638-6.735Zm135.62-96.046a11.95 11.95 0 0 1-3.575-8.94 11.694 11.694 0 0 1 3.575-8.857 12.817 12.817 0 0 1 9.197-3.402 12.515 12.515 0 0 1 9.114 3.402 11.831 11.831 0 0 1 3.488 8.857 12.114 12.114 0 0 1-3.488 8.94 12.347 12.347 0 0 1-9.114 3.493 12.629 12.629 0 0 1-9.197-3.493Zm-.679 98.683V54.89a2.418 2.418 0 0 1 2.06-2.722c.22-.03.443-.03.663 0H664.7a2.413 2.413 0 0 1 2.72 2.722v81.57a2.413 2.413 0 0 1-2.72 2.724h-14.306a2.415 2.415 0 0 1-2.723-2.724Zm111.774-40.525a65.93 65.93 0 0 1-2.897 20.773 35.219 35.219 0 0 1-12.09 17.539 33.486 33.486 0 0 1-20.775 6.301 24.871 24.871 0 0 1-19.413-8.346c-.23-.344-.489-.489-.77-.424s-.423.313-.423.762v32.092c0 1.816-1.015 2.214-2.725 2.722 0 0-12.729 3.61-14.304 4.011-1.575.402-2.726-.909-2.726-2.72V54.895a2.407 2.407 0 0 1 2.726-2.72h14.304a2.41 2.41 0 0 1 2.725 2.72v4.43c0 .454.141.742.423.85.283.107.539-.053.77-.506a23.927 23.927 0 0 1 19.413-8.857 33.09 33.09 0 0 1 20.432 6.378 35.33 35.33 0 0 1 12.265 17.462 68.313 68.313 0 0 1 3.065 21.283Zm-20.433-.345c0-8.173-1.36-14.646-4.08-19.42a15.075 15.075 0 0 0-14.306-8.173 14.77 14.77 0 0 0-13.281 8.006c-2.611 4.426-3.914 11.008-3.908 19.747 0 8.855 1.419 15.611 4.257 20.266a14.28 14.28 0 0 0 12.772 7.494 15.416 15.416 0 0 0 13.616-7.151c3.293-4.997 4.941-11.923 4.942-20.779l-.012.01Zm74.238-27.416h-16.513a.9.9 0 0 0-1.021 1.022v40.188c0 4.429.937 7.609 2.81 9.539 1.874 1.93 4.854 2.894 8.94 2.893h4.426a2.422 2.422 0 0 1 1.788.463 2.42 2.42 0 0 1 .936 2.263v11.403a2.589 2.589 0 0 1-1.294 2.565 2.583 2.583 0 0 1-1.43.328l-8.173.173c-8.97 0-15.669-1.562-20.095-4.685-4.426-3.124-6.696-8.945-6.81-17.463V69.196a.908.908 0 0 0-.434-.905.899.899 0 0 0-.589-.117h-8.855a2.414 2.414 0 0 1-2.723-2.725V54.89a2.418 2.418 0 0 1 2.06-2.723c.22-.03.443-.03.663 0h8.855a.904.904 0 0 0 1.023-.76 1.037 1.037 0 0 0 0-.261V36.083c0-1.816.774-2.113 2.724-2.722l13.452-4.013c2.612-.726 2.726.91 2.726 2.722v19.076a.904.904 0 0 0 .43.904.903.903 0 0 0 .591.118h16.518a2.414 2.414 0 0 1 2.722 2.722v10.552a2.403 2.403 0 0 1-.465 1.788 2.413 2.413 0 0 1-1.593.935 2.446 2.446 0 0 1-.669.01ZM328.03 54.732V69.42a2.537 2.537 0 0 1-2.531 2.534h-25.296a2.067 2.067 0 0 0-2.068 2.068v62.438c0 .36-.071.715-.21 1.047-.138.332-.34.633-.596.886a2.71 2.71 0 0 1-1.939.791h-14.306a2.72 2.72 0 0 1-2.717-2.717V56.191a4.018 4.018 0 0 1 4.019-4.02h13.009c.135-.002.27.005.405.02h29.676a2.548 2.548 0 0 1 1.804.74 2.535 2.535 0 0 1 .75 1.8Zm306.091-.007v14.701a2.538 2.538 0 0 1-1.561 2.341 2.531 2.531 0 0 1-.969.194h-25.307a2.068 2.068 0 0 0-2.068 2.067v62.432a2.724 2.724 0 0 1-2.725 2.724H587.19a2.733 2.733 0 0 1-1.924-.795 2.727 2.727 0 0 1-.797-1.922V56.191a4.026 4.026 0 0 1 4.025-4.02h13.005a3.48 3.48 0 0 1 .411.02h29.68a2.532 2.532 0 0 1 2.533 2.53l-.002.004Z"/><g filter="url(#a)"><path fill="url(#b)" d="M0 61.651C0 35.964 0 23.128 6.54 14.12a34.3 34.3 0 0 1 7.58-7.58C23.12 0 35.964 0 61.647 0H130.8c25.687 0 38.523 0 47.532 6.54a34.214 34.214 0 0 1 7.575 7.58c6.544 9.003 6.544 21.844 6.544 47.531v69.15c0 25.687 0 38.523-6.544 47.532a34.134 34.134 0 0 1-7.575 7.576c-9.004 6.543-21.845 6.543-47.532 6.543H61.647c-25.683 0-38.523 0-47.527-6.543a34.22 34.22 0 0 1-7.58-7.576C0 169.329 0 156.488 0 130.801v-69.15Z"/></g><g filter="url(#c)"><path fill="#fff" d="M130.414 93.16c12.619 0 22.849-10.231 22.849-22.85 0-12.62-10.23-22.85-22.849-22.85-12.62 0-22.85 10.23-22.85 22.85 0 12.619 10.23 22.85 22.85 22.85Z"/></g><path fill="#000" fill-opacity=".2" d="M51.897 69.042c0-7.253 0-10.882 1.418-13.657a12.934 12.934 0 0 1 5.66-5.669c2.772-1.41 6.4-1.41 13.658-1.41l16.552-1.61 1.587 1.61v84.217c0 6.036-.438 8.75-1.425 11.128a12.957 12.957 0 0 1-7.013 7.012c-2.38.987-4.961 1.293-10.996 1.293-6.036 0-9.056 0-11.434-.987a12.957 12.957 0 0 1-7.013-7.011c-.987-2.38-.987-5.4-.987-11.435l-.007-63.48Z"/><g filter="url(#d)"><path fill="#fff" d="M50.282 67.422c0-7.254 0-10.882 1.418-13.657a12.934 12.934 0 0 1 5.66-5.67c2.772-1.409 6.4-1.409 13.658-1.409h18.14v84.217c0 6.036 0 9.056-.988 11.434a12.956 12.956 0 0 1-7.012 7.012c-2.38.987-5.4.987-11.435.987-6.036 0-9.056 0-11.434-.987a12.96 12.96 0 0 1-7.013-7.012c-.987-2.379-.987-5.4-.987-11.434l-.007-63.481Z"/></g><defs><filter id="a" width="192.451" height="193.741" x="0" y="-1.288" color-interpolation-filters="sRGB" filterUnits="userSpaceOnUse"><feFlood flood-opacity="0" result="BackgroundImageFix"/><feBlend in="SourceGraphic" in2="BackgroundImageFix" result="shape"/><feColorMatrix in="SourceAlpha" result="hardAlpha" values="0 0 0 0 0 0 0 0 0 0 0 0 0 0 0 0 0 0 127 0"/><feOffset dy="-1.288"/><feGaussianBlur stdDeviation="1.288"/><feComposite in2="hardAlpha" k2="-1" k3="1" operator="arithmetic"/><feColorMatrix values="0 0 0 0 0 0 0 0 0 0 0 0 0 0 0 0 0 0 0.2 0"/><feBlend in2="shape" result="effect1_innerShadow"/></filter><filter id="c" width="49.908" height="51.197" x="104.987" y="43.594" color-interpolation-filters="sRGB" filterUnits="userSpaceOnUse"><feFlood flood-opacity="0" result="BackgroundImageFix"/><feColorMatrix in="SourceAlpha" values="0 0 0 0 0 0 0 0 0 0 0 0 0 0 0 0 0 0 127 0"/><feOffset dx="1.632" dy="1.632"/><feColorMatrix values="0 0 0 0 0 0 0 0 0 0 0 0 0 0 0 0 0 0 0.15 0"/><feBlend in2="BackgroundImageFix" result="effect1_dropShadow"/><feBlend in="SourceGraphic" in2="effect1_dropShadow" result="shape"/><feColorMatrix in="SourceAlpha" result="hardAlpha" values="0 0 0 0 0 0 0 0 0 0 0 0 0 0 0 0 0 0 127 0"/><feOffset dx="-2.577" dy="-3.865"/><feGaussianBlur stdDeviation="3.264"/><feComposite in2="hardAlpha" k2="-1" k3="1" operator="arithmetic"/><feColorMatrix values="0 0 0 0 0.909804 0 0 0 0 0.309804 0 0 0 0 0.309804 0 0 0 0.25 0"/><feBlend in2="shape" result="effect2_innerShadow"/></filter><filter id="d" width="41.453" height="107.515" x="47.704" y="42.821" color-interpolation-filters="sRGB" filterUnits="userSpaceOnUse"><feFlood flood-opacity="0" result="BackgroundImageFix"/><feBlend in="SourceGraphic" in2="BackgroundImageFix" result="shape"/><feColorMatrix in="SourceAlpha" result="hardAlpha" values="0 0 0 0 0 0 0 0 0 0 0 0 0 0 0 0 0 0 127 0"/><feOffset dx="-2.579" dy="-3.865"/><feGaussianBlur stdDeviation="3.264"/><feComposite in2="hardAlpha" k2="-1" k3="1" operator="arithmetic"/><feColorMatrix values="0 0 0 0 0.909804 0 0 0 0 0.309804 0 0 0 0 0.309804 0 0 0 0.25 0"/><feBlend in2="shape" result="effect1_innerShadow"/></filter><linearGradient id="b" x1="96.226" x2="165.56" y1="0" y2="186.175" gradientUnits="userSpaceOnUse"><stop stop-color="#E84F4F"/><stop offset=".409" stop-color="#DB4646"/><stop offset=".999" stop-color="#CB3939"/></linearGradient></defs></svg>