<svg width="32" height="32" viewBox="0 0 32 32" fill="none" xmlns="http://www.w3.org/2000/svg">
<g clip-path="url(#clip0_2_113)">
<path d="M30.6667 1.33334H1.33334V29.8667H30.6667V1.33334Z" fill="#002623"/>
<path fill-rule="evenodd" clip-rule="evenodd" d="M0 0V31.2H32V0H0ZM1.33333 1.33333H30.6667V29.8667H1.33333V1.33333Z" fill="#B4F8F2"/>
<path fill-rule="evenodd" clip-rule="evenodd" d="M8.66666 21.7067C8.66666 21.8133 8.62666 21.8 8.51999 21.8H6.57333C6.43999 21.8 6.39999 21.76 6.39999 21.6267V7.62665C6.39999 7.51999 6.43999 7.42665 6.53333 7.42665C7.58666 7.38665 8.53333 7.35999 10.12 7.35999C13.1867 7.35999 15.04 8.82665 15.04 11.48C15.04 13.6667 13.5733 14.8933 12.36 15.3467C12.9867 16.4267 15.0933 20.3067 15.7733 21.6C15.84 21.7067 15.84 21.8 15.6933 21.8H13.4533C13.3067 21.8 13.24 21.8267 13.2 21.76C12.7067 20.9067 11.16 17.8667 10.1733 16.0667H8.66666V21.7067ZM9.97333 13.9333C11.5467 13.9333 12.6667 13.3067 12.6667 11.7067C12.6667 10.1333 11.6533 9.43999 10.0667 9.43999C9.50666 9.43999 8.97333 9.46665 8.66666 9.47999V13.9333H9.97333ZM20 21.6533C20 21.76 19.96 21.8 19.8667 21.8H17.7467C17.64 21.8 17.6 21.7333 17.6 21.6533V7.53332C17.6 7.43999 17.6267 7.39999 17.7467 7.39999H19.8667C19.96 7.39999 20 7.43999 20 7.53332V11.8267C20.6667 11.3067 21.4933 10.9867 22.52 10.9867C23.92 10.9867 25.6 11.6933 25.6 14.8267V21.6267C25.6 21.76 25.56 21.8 25.4533 21.8H23.36C23.2533 21.8 23.2133 21.7333 23.2133 21.6267V15.0533C23.2133 13.76 22.7067 13.0533 21.68 13.0533C21.0133 13.0533 20.48 13.2667 20.0133 13.6933V21.6533H20Z" fill="#B4F8F2"/>
</g>
<defs>
<clipPath id="clip0_2_113">
<rect width="32" height="31.2" fill="white"/>
</clipPath>
</defs>
</svg>
