<svg xmlns="http://www.w3.org/2000/svg" width="43" height="45" fill="none" viewBox="0 0 43 45"><path fill="#f50" d="M39.287 0c.959 0 1.482 1.118.868 1.855L29.712 14.388c-1.228 1.473-.181 3.711 1.738 3.711h10.101c.959 0 1.482 1.118.868 1.855L22.211 44.206a1.132 1.132 0 0 1-1.738 0L.264 19.954c-.614-.737-.09-1.855.869-1.855H11.23c1.918 0 2.967-2.238 1.739-3.711L2.526 1.855C1.912 1.118 2.436 0 3.394 0z"/><mask id="mask0_2002_17217" width="43" height="45" x="0" y="0" maskUnits="userSpaceOnUse" style="mask-type:alpha"><path fill="#000" d="M39.287 0c.959 0 1.482 1.118.868 1.855L29.712 14.388c-1.228 1.473-.181 3.711 1.738 3.711h10.101c.959 0 1.482 1.118.868 1.855L22.211 44.206a1.132 1.132 0 0 1-1.738 0L.264 19.954c-.614-.737-.09-1.855.869-1.855H11.23c1.918 0 2.967-2.238 1.739-3.711L2.526 1.855C1.912 1.118 2.436 0 3.394 0z"/></mask><g mask="url(#mask0_2002_17217)"><g filter="url(#filter0_f_2002_17217)"><ellipse cx="5.397" cy="23.582" fill="#ffe7e5" rx="5.397" ry="23.582" transform="rotate(30.253 62.175 101.555)scale(-1 1)"/></g><g filter="url(#filter1_f_2002_17217)"><ellipse cx="5.397" cy="23.582" fill="#ffe7e5" rx="5.397" ry="23.582" transform="rotate(30.253 19.102 110.92)scale(-1 1)"/></g><g filter="url(#filter2_f_2002_17217)"><ellipse cx=".673" cy=".673" fill="#ff19af" rx="3.719" ry="21.831" transform="rotate(-36.093 .673 .673)"/></g><g filter="url(#filter3_f_2002_17217)"><ellipse cx="6.417" cy="33.331" fill="#ff19af" rx="3.719" ry="21.831" transform="rotate(-36.093 6.417 33.331)"/></g><g filter="url(#filter4_f_2002_17217)"><ellipse cx="3.719" cy="21.831" fill="#ff19af" rx="3.719" ry="21.831" transform="rotate(36.093 51.625 81.464)scale(-1 1)"/></g><g filter="url(#filter5_f_2002_17217)"><ellipse cx="3.719" cy="21.831" fill="#ff19af" rx="3.719" ry="21.831" transform="rotate(36.093 -1.94 87.215)scale(-1 1)"/></g><g filter="url(#filter6_f_2002_17217)"><ellipse cx="3.719" cy="21.831" fill="#ff19af" rx="3.719" ry="21.831" transform="rotate(36.093 49.902 76.175)scale(-1 1)"/></g><g filter="url(#filter7_f_2002_17217)"><ellipse cx="3.719" cy="21.831" fill="#ff19af" rx="3.719" ry="21.831" transform="rotate(36.093 -3.088 83.689)scale(-1 1)"/></g><g filter="url(#filter8_f_2002_17217)"><ellipse cx="2.796" cy="2.253" fill="#d14b2a" rx="5.397" ry="23.582" transform="rotate(-40.91 2.796 2.253)"/></g><g filter="url(#filter9_f_2002_17217)"><ellipse cx="6.468" cy="27.73" fill="#d14b2a" rx="5.397" ry="23.582" transform="rotate(-35.888 6.468 27.73)"/></g></g><defs><filter id="filter0_f_2002_17217" width="39.32" height="54.894" x="23.431" y="-27.29" color-interpolation-filters="sRGB" filterUnits="userSpaceOnUse"><feFlood flood-opacity="0" result="BackgroundImageFix"/><feBlend in="SourceGraphic" in2="BackgroundImageFix" result="shape"/><feGaussianBlur result="effect1_foregroundBlur_2002_17217" stdDeviation="3.447"/></filter><filter id="filter1_f_2002_17217" width="39.32" height="54.894" x="22.282" y="-4.313" color-interpolation-filters="sRGB" filterUnits="userSpaceOnUse"><feFlood flood-opacity="0" result="BackgroundImageFix"/><feBlend in="SourceGraphic" in2="BackgroundImageFix" result="shape"/><feGaussianBlur result="effect1_foregroundBlur_2002_17217" stdDeviation="3.447"/></filter><filter id="filter2_f_2002_17217" width="40.206" height="49.343" x="-19.43" y="-23.998" color-interpolation-filters="sRGB" filterUnits="userSpaceOnUse"><feFlood flood-opacity="0" result="BackgroundImageFix"/><feBlend in="SourceGraphic" in2="BackgroundImageFix" result="shape"/><feGaussianBlur result="effect1_foregroundBlur_2002_17217" stdDeviation="3.447"/></filter><filter id="filter3_f_2002_17217" width="40.206" height="49.343" x="-13.686" y="8.66" color-interpolation-filters="sRGB" filterUnits="userSpaceOnUse"><feFlood flood-opacity="0" result="BackgroundImageFix"/><feBlend in="SourceGraphic" in2="BackgroundImageFix" result="shape"/><feGaussianBlur result="effect1_foregroundBlur_2002_17217" stdDeviation="3.447"/></filter><filter id="filter4_f_2002_17217" width="40.206" height="49.343" x="21.93" y="-23.998" color-interpolation-filters="sRGB" filterUnits="userSpaceOnUse"><feFlood flood-opacity="0" result="BackgroundImageFix"/><feBlend in="SourceGraphic" in2="BackgroundImageFix" result="shape"/><feGaussianBlur result="effect1_foregroundBlur_2002_17217" stdDeviation="3.447"/></filter><filter id="filter5_f_2002_17217" width="40.206" height="49.343" x="15.037" y="8.66" color-interpolation-filters="sRGB" filterUnits="userSpaceOnUse"><feFlood flood-opacity="0" result="BackgroundImageFix"/><feBlend in="SourceGraphic" in2="BackgroundImageFix" result="shape"/><feGaussianBlur result="effect1_foregroundBlur_2002_17217" stdDeviation="3.447"/></filter><filter id="filter6_f_2002_17217" width="40.206" height="49.343" x="18.484" y="-23.998" color-interpolation-filters="sRGB" filterUnits="userSpaceOnUse"><feFlood flood-opacity="0" result="BackgroundImageFix"/><feBlend in="SourceGraphic" in2="BackgroundImageFix" result="shape"/><feGaussianBlur result="effect1_foregroundBlur_2002_17217" stdDeviation="3.447"/></filter><filter id="filter7_f_2002_17217" width="40.206" height="49.343" x="12.739" y="8.66" color-interpolation-filters="sRGB" filterUnits="userSpaceOnUse"><feFlood flood-opacity="0" result="BackgroundImageFix"/><feBlend in="SourceGraphic" in2="BackgroundImageFix" result="shape"/><feGaussianBlur result="effect1_foregroundBlur_2002_17217" stdDeviation="3.447"/></filter><filter id="filter8_f_2002_17217" width="45.741" height="50.132" x="-20.074" y="-22.813" color-interpolation-filters="sRGB" filterUnits="userSpaceOnUse"><feFlood flood-opacity="0" result="BackgroundImageFix"/><feBlend in="SourceGraphic" in2="BackgroundImageFix" result="shape"/><feGaussianBlur result="effect1_foregroundBlur_2002_17217" stdDeviation="3.447"/></filter><filter id="filter9_f_2002_17217" width="42.792" height="52.524" x="-14.928" y="1.468" color-interpolation-filters="sRGB" filterUnits="userSpaceOnUse"><feFlood flood-opacity="0" result="BackgroundImageFix"/><feBlend in="SourceGraphic" in2="BackgroundImageFix" result="shape"/><feGaussianBlur result="effect1_foregroundBlur_2002_17217" stdDeviation="3.447"/></filter></defs></svg>