<svg width="300" height="300" viewBox="0 0 300 300" fill="none" xmlns="http://www.w3.org/2000/svg">
<g clip-path="url(#clip0_1_2)">
<path d="M212.486 105.22C216.254 116.938 215.261 127.642 207.452 137.312C203.943 141.658 198.973 144.485 189.13 147.005C191.57 149.279 193.809 151.242 195.906 153.347C199.96 157.417 203.986 161.518 207.932 165.693C217.154 175.451 216.804 189.546 210.541 200.693C202.271 215.412 181.191 220.187 168.48 209.238C162.421 204.019 156.733 198.368 150.904 192.884C149.733 191.782 148.681 190.553 147.407 189.205C146.401 192.311 145.751 195.242 144.537 197.918C137.775 212.822 118.698 218.857 103.153 211.198C92.5986 205.997 87.6601 197.087 87.4939 185.832C87.1521 162.69 87.2602 139.539 87.4386 116.393C87.5585 100.838 100.245 87.4862 115.766 87.2205C139.448 86.8152 163.146 86.8725 186.831 87.2132C199.002 87.3883 207.628 93.6476 212.486 105.22ZM125.01 108.086C121.119 105.032 116.875 103.935 112.324 106.343C107.723 108.778 105.575 112.638 105.603 118.003C105.72 140.149 105.625 162.295 105.698 184.441C105.705 186.442 105.972 188.617 106.788 190.405C109.016 195.282 114.992 197.672 120.598 196.281C125.959 194.95 129.101 190.869 129.104 185.111C129.118 162.639 129.062 140.167 129.158 117.695C129.174 113.951 128.015 110.938 125.01 108.086ZM150.442 146.846C149.498 146.891 148.553 146.936 147.39 146.991C147.39 152.27 147.336 157.358 147.443 162.443C147.461 163.291 147.983 164.313 148.597 164.935C158.035 174.501 167.442 184.102 177.083 193.46C178.821 195.148 181.473 196.395 183.878 196.791C188.779 197.599 193.731 194.313 196.144 189.426C198.157 185.348 197.209 180.335 193.55 176.606C185.263 168.162 176.836 159.854 168.643 151.321C165.437 147.981 162.029 146.038 157.259 146.793C155.245 147.112 153.138 146.846 150.442 146.846ZM169.239 105.042C161.272 105.042 153.305 105.042 145.948 105.042C146.614 113.151 147.252 120.934 147.905 128.886C160.176 128.886 172.526 128.917 184.876 128.875C192.21 128.849 196.856 124.101 196.812 116.824C196.77 109.897 191.917 105.095 184.857 105.049C179.869 105.016 174.88 105.042 169.239 105.042Z" fill="#FEFEFE"/>
<path d="M125.184 108.249C128.015 110.938 129.174 113.951 129.158 117.695C129.062 140.167 129.118 162.639 129.104 185.111C129.101 190.869 125.959 194.95 120.598 196.281C114.992 197.672 109.016 195.282 106.788 190.405C105.972 188.617 105.705 186.442 105.698 184.441C105.625 162.295 105.72 140.149 105.603 118.003C105.575 112.638 107.723 108.778 112.324 106.343C116.875 103.935 121.119 105.032 125.184 108.249Z" fill="black"/>
<path d="M150.758 146.846C153.138 146.846 155.245 147.112 157.259 146.793C162.029 146.038 165.437 147.981 168.643 151.321C176.836 159.854 185.263 168.162 193.55 176.606C197.209 180.335 198.157 185.348 196.144 189.426C193.731 194.313 188.779 197.599 183.878 196.791C181.473 196.395 178.821 195.148 177.083 193.46C167.442 184.102 158.035 174.501 148.597 164.935C147.983 164.313 147.461 163.291 147.443 162.443C147.336 157.358 147.39 152.27 147.39 146.991C148.553 146.936 149.498 146.891 150.758 146.846Z" fill="black"/>
<path d="M169.565 105.042C174.88 105.042 179.869 105.016 184.857 105.049C191.917 105.095 196.77 109.897 196.812 116.824C196.857 124.101 192.21 128.849 184.876 128.875C172.526 128.917 160.176 128.886 147.905 128.886C147.252 120.934 146.614 113.151 145.948 105.042C153.305 105.042 161.272 105.042 169.565 105.042Z" fill="black"/>
<path d="M137.645 300C91.5518 300 45.7852 300 0 300C0 200.02 0 100.04 0 0C99.9541 0 199.927 0 300 0C300 99.9603 300 199.98 300 300C246.028 300 191.999 300 137.645 300ZM211.789 104.298C207.039 92.9544 198.41 86.6939 186.234 86.5187C162.54 86.178 138.833 86.1207 115.141 86.5261C99.6132 86.7918 86.9221 100.146 86.8022 115.705C86.6237 138.855 86.5156 162.011 86.8575 185.157C87.0238 196.414 91.9642 205.326 102.523 210.528C118.074 218.188 137.158 212.152 143.923 197.245C145.137 194.569 145.788 191.637 146.794 188.53C148.069 189.879 149.121 191.108 150.293 192.21C156.124 197.695 161.814 203.348 167.876 208.568C180.592 219.518 201.68 214.743 209.953 200.021C216.218 188.871 216.569 174.774 207.343 165.014C203.396 160.838 199.369 156.736 195.312 152.666C193.215 150.561 190.975 148.597 188.534 146.323C198.38 143.802 203.352 140.974 206.863 136.628C214.675 126.956 215.668 116.25 211.789 104.298Z" fill="black"/>
</g>
<defs>
<clipPath id="clip0_1_2">
<rect width="300" height="300" fill="white"/>
</clipPath>
</defs>
</svg>
