<svg xmlns="http://www.w3.org/2000/svg" xmlns:xlink="http://www.w3.org/1999/xlink" xml:space="preserve" width="2512" height="1579.2"><defs><path id="a" d="M1143.6 766.1h594.7v328.3l-614.7-10z"/></defs><defs><path id="b" d="M2075.2 521c-.9-.9-2.4-1.2-3.6-.6-1.6.8-2.2 2.7-1.5 4.3.8 1.6 2.7 2.2 4.3 1.5 1.3-.6 1.9-1.9 1.8-3.3l29.8-14.6 24.9 8.4 1-1.9-26-8.8-30.7 15z"/></defs><clipPath id="d"><use xlink:href="#b"/></clipPath><defs><filter id="c" width="82.4" height="80.4" x="2059.3" y="476.3"/></defs><mask id="e" width="82.4" height="80.4" x="2059.3" y="476.3" maskUnits="userSpaceOnUse"><g class="st104" filter="url(#c)"><path fill="url(#SVGID_289_)" d="m2109.9 476.3 31.8 43.3-50.6 37.1-31.8-43.4z" class="st105" clip-path="url(#d)"/></g></mask><path fill="url(#SVGID_290_)" d="m2109.9 476.3 31.8 43.3-50.6 37.1-31.8-43.4z" class="st106" clip-path="url(#d)" mask="url(#e)"/><defs><path id="f" d="M2098.4 525.3c-.9-.9-2.4-1.2-3.6-.6-1.6.8-2.2 2.7-1.5 4.3.8 1.6 2.7 2.2 4.3 1.5 1.3-.6 1.9-2 1.8-3.3l7.2-3.6 15.1 5.1 1.6-1.7-16.9-5.7-8 4z"/></defs><clipPath id="h"><use xlink:href="#f"/></clipPath><defs><filter id="g" width="40.2" height="39.2" x="2087.9" y="506.6"/></defs><mask id="i" width="40.2" height="39.2" x="2087.9" y="506.6" maskUnits="userSpaceOnUse"><g class="st110" filter="url(#g)"><path fill="url(#SVGID_299_)" d="m2112.6 506.6 15.4 21.1-24.7 18.2-15.4-21.1z" class="st111" clip-path="url(#h)"/></g></mask><path fill="url(#SVGID_300_)" d="m2112.6 506.6 15.4 21.1-24.7 18.2-15.4-21.1z" class="st112" clip-path="url(#h)" mask="url(#i)"/><defs><path id="j" d="M2123.9 447.4c-.6 1.7.3 3.5 2 4 1.3.5 2.7 0 3.5-1.1l27.7 9.4-.2-2.3-26.8-9.1c0-1.3-.8-2.5-2.2-3-.3-.1-.7-.2-1-.2-1.3.1-2.5.9-3 2.3"/></defs><clipPath id="l"><use xlink:href="#j"/></clipPath><defs><filter id="k" width="47.7" height="46.8" x="2116.4" y="429.1"/></defs><mask id="m" width="47.7" height="46.8" x="2116.4" y="429.1" maskUnits="userSpaceOnUse"><g class="st125" filter="url(#k)"><path fill="url(#SVGID_324_)" d="m2145.4 429.1 18.7 25.6-29 21.2-18.7-25.6z" class="st126" clip-path="url(#l)"/></g></mask><path fill="url(#SVGID_325_)" d="m2145.4 429.1 18.7 25.6-29 21.2-18.7-25.6z" class="st127" clip-path="url(#l)" mask="url(#m)"/><defs><path id="n" d="M2106.6 440.2c-.6 1.7.3 3.5 2 4 .5.2 1 .2 1.4.1l3.9 8 41.7 14.3 1 2.1.2-3.9-41.4-14.2-3.6-7.2c.3-.3.6-.7.8-1.2.6-1.7-.3-3.5-2-4-.3-.1-.7-.2-1-.2-1.3 0-2.5.8-3 2.2"/></defs><clipPath id="p"><use xlink:href="#n"/></clipPath><defs><filter id="o" width="80.2" height="79.2" x="2091.4" y="413.8"/></defs><mask id="q" width="80.2" height="79.2" x="2091.4" y="413.8" maskUnits="userSpaceOnUse"><g class="st128" filter="url(#o)"><path fill="url(#SVGID_329_)" d="m2139.2 413.8 32.4 44.3-47.8 34.9-32.4-44.2z" class="st129" clip-path="url(#p)"/></g></mask><path fill="url(#SVGID_330_)" d="m2139.2 413.8 32.4 44.3-47.8 34.9-32.4-44.2z" class="st130" clip-path="url(#p)" mask="url(#q)"/><defs><path id="r" d="M2137.4 466.8c-.6 1.7.3 3.5 2 4 1.3.5 2.7 0 3.6-1.1l7.6 2.6 3.8 7.6.8-3.1-3.1-6.3-8.5-2.9c0-1.3-.8-2.5-2.2-3-.3-.1-.7-.2-1-.2-1.3.3-2.6 1.1-3 2.4"/></defs><clipPath id="t"><use xlink:href="#r"/></clipPath><defs><filter id="s" width="32.9" height="32.8" x="2129.5" y="455.9"/></defs><mask id="u" width="32.9" height="32.8" x="2129.5" y="455.9" maskUnits="userSpaceOnUse"><g class="st131" filter="url(#s)"><path fill="url(#SVGID_334_)" d="m2148.7 455.9 13.7 18.7-19.2 14.1-13.7-18.7z" class="st132" clip-path="url(#t)"/></g></mask><path fill="url(#SVGID_335_)" d="m2148.7 455.9 13.7 18.7-19.2 14.1-13.7-18.7z" class="st133" clip-path="url(#t)" mask="url(#u)"/><defs><path id="v" d="M2088.1 407.9c-1.3.5-2.2 1.7-2.2 3l-17.8 6.5-2.4 5 1.1 2.5 2.8-5.8 17-6.2c.8 1 2.2 1.5 3.5 1 1.7-.6 2.6-2.4 2-4-.5-1.3-1.7-2.2-3-2.2-.3 0-.7.1-1 .2"/></defs><clipPath id="x"><use xlink:href="#v"/></clipPath><defs><filter id="w" width="43.3" height="42.9" x="2057.5" y="394.9"/></defs><mask id="y" width="43.3" height="42.9" x="2057.5" y="394.9" maskUnits="userSpaceOnUse"><g class="st155" filter="url(#w)"><path fill="url(#SVGID_374_)" d="m2083.3 394.9 17.6 24-25.8 18.8-17.6-24z" class="st156" clip-path="url(#x)"/></g></mask><path fill="url(#SVGID_375_)" d="m2083.3 394.9 17.6 24-25.8 18.8-17.6-24z" class="st157" clip-path="url(#x)" mask="url(#y)"/><defs><path id="z" d="m2110 410.4 1 1.9 5.3-1.8 6.4 3.2c-.2 1.3.5 2.7 1.8 3.3 1.6.8 3.5.1 4.3-1.5.8-1.6.1-3.5-1.5-4.3-1.2-.6-2.7-.3-3.6.6l-7.2-3.6-6.5 2.2z"/></defs><clipPath id="B"><use xlink:href="#z"/></clipPath><defs><filter id="A" width="28.6" height="28.1" x="2105.4" y="398.9"/></defs><mask id="C" width="28.6" height="28.1" x="2105.4" y="398.9" maskUnits="userSpaceOnUse"><g class="st161" filter="url(#A)"><path fill="url(#SVGID_384_)" d="m2122.7 398.9 11.3 15.5-17.2 12.7-11.4-15.5z" class="st162" clip-path="url(#B)"/></g></mask><path fill="url(#SVGID_385_)" d="m2122.7 398.9 11.3 15.5-17.2 12.7-11.4-15.5z" class="st163" clip-path="url(#B)" mask="url(#C)"/><defs><path id="D" d="M2065.7 1312.8c-15.3 11.4-20.5 23.4-11.6 27 9 3.5 28.7-2.8 44-14.2 15.3-11.4 20.5-23.4 11.6-27-1.7-.7-3.7-1-6-1-10.1.1-25.5 6-38 15.2"/></defs><clipPath id="E"><use xlink:href="#D"/></clipPath><path fill="url(#SVGID_404_)" d="m2136.3 1335.9-79.2 33.3-29.5-64.2 79.2-33.2z" class="st172" clip-path="url(#E)"/><defs><path id="F" d="m2131.9 1279.2 21.2 12.1c1.2.7 2.7.7 4 0l21.2-12.1-23.2-13.3-23.2 13.3z"/></defs><clipPath id="G"><use xlink:href="#F"/></clipPath><path fill="url(#SVGID_413_)" d="M2131.9 1265.9h46.4v26.1h-46.4z" class="st175" clip-path="url(#G)"/><defs><path id="H" d="M2155.1 1212v54.1s.4 0 .8.2 22.4 12.8 22.4 12.8l45.1-25.9c1.2-.7 1.2-2.4 0-3.1l-66.1-37.8c-.4-.3-.9-.4-1.5-.4h-.7v.1z"/></defs><clipPath id="I"><use xlink:href="#H"/></clipPath><path fill="url(#SVGID_419_)" d="m2246.4 1271.1-83 30.7-30.1-81.7 82.9-30.6z" class="st177" clip-path="url(#I)"/><defs><path id="J" d="m1976.7 1253.6-.7.3h-.2l.1-.1-5.7-1.2h-9.3l-11.8 2.9-9.6 6-4.9 5.4-1.3.3-8.1 1.9-3.8 1.7.9 2 9 8.7 8.9 6.3 9.9 4.7 4.2 2.2 5.1 2.6 9.2 3.6 10.8 3.6 10.4 1.8 4.7.7 7.6 1.1 13.7-.3 8.9-1.6 1-.2 4.4-1.7 8.1-1.9 8-3.6 5.4-4.7 1.1-2.2-5.8-7.9-9.6-9.6-10.1-7.4-10.6-5.4-10.5-3-2.9-.2-6.8-3.9-7.4-1.9-6.8-.1z"/></defs><clipPath id="K"><use xlink:href="#J"/></clipPath><path fill="url(#SVGID_425_)" d="M1921.4 1252.5h131.3v55.6h-131.3z" class="st179" clip-path="url(#K)"/><defs><path id="L" d="M2116.6 1204.9z"/></defs><clipPath id="M"><use xlink:href="#L"/></clipPath><defs><path id="N" d="M2009.7 1484.6c0 .8.6 1.7 1.6 1.8l103.6 10.1c1 .1 1.8-.6 1.9-1.5.1-.5 0-38.8 0-38.8l-107.2-10.3c.1 0 .1 38.1.1 38.7"/></defs><clipPath id="O"><use xlink:href="#N"/></clipPath><path fill="url(#SVGID_431_)" d="m2003 1446.8 112-15.1 8.7 64-112 15.1z" class="st181" clip-path="url(#O)"/><defs><path id="P" d="m2076.2 1411.6-65.5 32.6c-1.6.8-1.2 3.2.6 3.3l103.6 10.1c1.6.2 2.6-1.7 1.5-2.9l-36.2-42.4c-.6-.8-1.6-1.2-2.5-1.2-.5.2-1 .3-1.5.5"/></defs><clipPath id="Q"><use xlink:href="#P"/></clipPath><path fill="url(#SVGID_434_)" d="m1996.9 1414.7 112.5-31.9 20.3 71.6-112.5 31.9z" class="st182" clip-path="url(#Q)"/><defs><path id="R" d="m2203 973.5-45.4 15.9v34.8c0 .3 0 .6.1.9.1.5.3.9.6 1.4.5.8 1.3 1.5 2.4 2.2l40.9 23.6c4.2 2.4 10.9 2.4 15.1 0l42.3-24c1.1-.6 1.9-1.4 2.4-2.2.3-.4.5-.9.6-1.4.1-.2.1-.5.1-.7.1-1.6 0-35 0-35l-44-15.5c-2.1-1.2-4.8-1.8-7.5-1.8-2.8 0-5.6.6-7.6 1.8"/></defs><clipPath id="S"><use xlink:href="#R"/></clipPath><path fill="url(#SVGID_548_)" d="M2157.5 971.7H2262v82.9h-104.5z" class="st248" clip-path="url(#S)"/><defs><path id="T" d="m2203 961-42.3 24c-2.4 1.4-3.4 3.3-3 5.1.1.5.3.9.6 1.4.5.8 1.3 1.5 2.4 2.2l40.9 23.6c4.2 2.4 10.9 2.4 15.1 0l42.3-24c1.1-.6 1.9-1.4 2.4-2.2.3-.4.5-.9.6-1.4.4-1.8-.6-3.7-3-5.1l-41-23.6c-2.1-1.2-4.8-1.8-7.5-1.8s-5.5.6-7.5 1.8"/></defs><clipPath id="U"><use xlink:href="#T" x="-933.333" y="-146.667"/></clipPath><path fill="url(#SVGID_551_)" d="m2149.7 960.2 111-14 9.1 72.5-111 14z" class="st249" clip-path="url(#U)" transform="translate(-933.333 -146.667)"/><g stroke="null"><path d="m1948.686 779.79-56.691-35.125a769.848 769.848 0 0 0-1.614-16.53l48.814-45.456c4.959-4.624 7.18-11.468 5.837-18.08a19.373 19.373 0 0 0-12.307-14.463l-62.373-23.245c-1.563-5.398-3.203-10.757-4.882-16.142l38.87-53.98a19.464 19.464 0 0 0 2.196-18.853 19.572 19.572 0 0 0-14.85-11.804l-65.732-10.692c-2.557-4.985-5.217-9.892-7.903-14.722l27.635-60.694c2.828-6.173 2.247-13.302-1.523-18.984-3.758-5.63-10.125-8.923-16.917-8.665l-66.764 2.325a527.17 527.17 0 0 0-10.538-12.785l15.367-64.956c1.55-6.599-.4-13.56-5.204-18.337-4.765-4.779-11.687-6.754-18.337-5.205l-64.957 15.368a560.688 560.688 0 0 0-12.81-10.538l2.337-66.764a19.45 19.45 0 0 0-8.665-16.917c-5.643-3.77-12.784-4.34-18.983-1.537l-60.565 27.636c-4.895-2.686-9.802-5.347-14.722-7.916l-10.718-65.731c-1.085-6.664-5.553-12.32-11.804-14.851-6.237-2.596-13.43-1.757-18.854 2.195l-53.98 38.87a651.069 651.069 0 0 0-16.012-4.868l-23.245-62.373a19.49 19.49 0 0 0-14.463-12.333c-6.638-1.304-13.43.904-18.08 5.837l-45.456 48.814a586.608 586.608 0 0 0-16.53-1.614l-35.125-56.82c-3.551-5.747-9.84-9.247-16.659-9.247s-13.042 3.5-16.53 9.246l-35.125 56.82a577.364 577.364 0 0 0-16.53 1.615l-45.455-48.814a19.584 19.584 0 0 0-18.08-5.837c-6.65 1.33-12.126 5.98-14.463 12.333l-23.245 62.373a579.555 579.555 0 0 0-16.013 4.868l-53.98-38.87c-5.488-3.964-12.642-4.804-18.853-2.195-6.238 2.583-10.719 8.239-11.804 14.85l-10.718 65.732a572.54 572.54 0 0 0-14.722 7.916l-60.565-27.636c-6.16-2.815-13.301-2.234-18.983 1.537a19.45 19.45 0 0 0-8.665 16.917l2.324 66.764a623.167 623.167 0 0 0-12.81 10.538l-64.956-15.368c-6.6-1.536-13.56.426-18.338 5.205-4.804 4.79-6.754 11.7-5.204 18.337l15.238 64.956a627.964 627.964 0 0 0-10.512 12.785l-66.764-2.325c-6.728-.193-13.172 3.035-16.917 8.665-3.77 5.605-4.339 12.785-1.536 18.984l27.635 60.694c-2.686 4.869-5.346 9.776-7.916 14.722l-65.731 10.692c-6.677 1.085-12.307 5.553-14.851 11.804-2.583 6.263-1.743 13.43 2.195 18.854l38.87 53.979a558.944 558.944 0 0 0-4.88 16.142l-62.374 23.245a19.51 19.51 0 0 0-12.307 14.463c-1.317 6.638.891 13.43 5.837 18.08l48.814 45.456a639.026 639.026 0 0 0-1.614 16.53L616.26 779.79c-5.747 3.551-9.247 9.827-9.247 16.659s3.5 13.043 9.247 16.53l56.69 35.125a633.458 633.458 0 0 0 1.615 16.53l-48.814 45.456a19.52 19.52 0 0 0-5.837 18.079 19.445 19.445 0 0 0 12.307 14.463l62.373 23.245c1.55 5.398 3.19 10.757 4.882 16.142l-38.87 53.98c-3.952 5.5-4.792 12.642-2.196 18.854a19.496 19.496 0 0 0 14.98 11.803l65.73 10.692a469.21 469.21 0 0 0 7.917 14.722l-27.635 60.565c-2.816 6.16-2.234 13.302 1.536 18.984 3.771 5.643 10.19 8.936 16.917 8.665l66.635-2.338a638.518 638.518 0 0 0 10.538 12.81l-15.238 64.957c-1.55 6.586.4 13.43 5.204 18.208 4.765 4.817 11.7 6.741 18.337 5.192l64.957-15.239a516.757 516.757 0 0 0 12.81 10.512l-2.324 66.764a19.45 19.45 0 0 0 8.665 16.917c5.604 3.758 12.784 4.326 18.983 1.511l60.565-27.635a622.625 622.625 0 0 0 14.722 7.916l10.718 65.73c1.085 6.69 5.553 12.346 11.803 14.98 6.238 2.596 13.43 1.757 18.855-2.182l53.979-38.87c5.333 1.692 10.693 3.345 16.142 4.894l23.245 62.374c2.363 6.327 7.839 11.015 14.463 12.306 6.638 1.343 13.43-.878 18.08-5.837l45.456-48.814c5.488.633 11.015 1.163 16.53 1.653l35.125 56.692c3.538 5.72 9.827 9.246 16.53 9.246s13.042-3.513 16.658-9.246l35.126-56.692c5.527-.49 11.04-1.02 16.53-1.653l45.455 48.814c4.61 4.96 11.455 7.18 18.08 5.837a19.398 19.398 0 0 0 14.463-12.306l23.245-62.374c5.398-1.55 10.757-3.202 16.142-4.894l53.98 38.87c5.488 3.939 12.642 4.778 18.853 2.183 6.25-2.57 10.719-8.24 11.804-14.98l10.718-65.731c4.959-2.57 9.866-5.243 14.722-7.916l60.565 27.635c6.16 2.815 13.301 2.247 18.983-1.51a19.51 19.51 0 0 0 8.665-16.918l-2.324-66.764c4.313-3.448 8.588-6.922 12.798-10.512l64.956 15.239c6.599 1.55 13.56-.375 18.337-5.192 4.804-4.79 6.754-11.674 5.204-18.208l-15.238-64.956c3.564-4.223 7.077-8.472 10.512-12.81l66.764 2.337c6.728.27 13.172-3.022 16.917-8.665a19.498 19.498 0 0 0 1.524-18.984l-27.636-60.565a677.492 677.492 0 0 0 7.904-14.722l65.73-10.692c6.69-1.072 12.32-5.54 14.851-11.803 2.583-6.238 1.77-13.43-2.195-18.854l-38.87-53.98a654.27 654.27 0 0 0 4.881-16.142l62.373-23.245c6.341-2.376 11.016-7.838 12.307-14.463 1.343-6.638-.878-13.43-5.837-18.08l-48.814-45.456a778.023 778.023 0 0 0 1.614-16.53l56.692-35.125c5.746-3.538 9.246-9.827 9.246-16.53s-3.487-13.042-9.233-16.658h-.4zm-379.664 471.351c-21.695-4.674-35.383-26.085-30.734-47.78 4.636-21.696 25.956-35.513 47.651-30.864 21.695 4.636 35.513 26.085 30.864 47.78s-25.956 35.513-47.651 30.864h-.13zm-19.241-130.428c-19.758-4.236-39.258 8.342-43.39 28.152l-20.146 94.012c-62.115 28.152-131.72 43.906-204.037 43.906-74.383 0-144.634-16.4-207.911-45.843l-20.145-94.012c-4.236-19.758-23.633-32.414-43.39-28.152l-83.036 17.82a501.688 501.688 0 0 1-42.874-50.621h404.2c4.572 0 7.62-.827 7.62-4.985V937.647c0-4.158-3.048-4.984-7.62-4.984h-118.16v-90.526h127.717c11.66 0 62.373 3.332 78.515 68.185 5.075 19.887 16.272 84.714 23.89 105.505 7.594 23.245 38.484 69.734 71.414 69.734h201.454c2.286 0 4.726-.258 7.296-.723-13.947 18.984-29.314 36.934-45.714 53.721l-84.973-18.208-.71.362zm-559.165 128.491c-21.695 4.675-43.003-9.143-47.652-30.863-4.636-21.696 9.143-43.132 30.864-47.781 21.695-4.636 43.003 9.181 47.652 30.864 4.636 21.695-9.156 43.131-30.864 47.78zm-153.674-621.15c8.988 20.274-.154 44.035-20.403 53.075-20.275 9-43.907-.155-52.947-20.404s.155-44.036 20.404-53.075c20.275-8.988 43.907.155 52.946 20.403zm-47.135 111.574 86.522-38.483c18.467-8.2 26.861-29.83 18.596-48.297l-17.82-40.291h69.992v315.095h-140.76c-12.255-43.132-18.854-88.588-18.854-135.594 0-17.95.968-35.642 2.828-53.076l-.504.646zm379.664-30.605v-92.98h166.588c8.613 0 60.823 9.957 60.823 48.944 0 32.413-40.032 44.036-72.962 44.036h-154.965.516zm605.655 83.68c0 12.346-.452 24.537-1.356 36.676h-50.751c-5.075 0-7.116 3.331-7.116 8.303v23.245c0 54.754-30.864 66.764-57.982 69.734-25.828 2.906-54.367-10.796-57.854-26.602-15.238-85.618-40.55-103.827-80.582-135.594 49.718-31.51 101.373-78.129 101.373-140.76 0-67.28-46.102-109.638-77.482-130.429-44.165-29.056-92.98-34.867-106.151-34.867H912.927c71.155-79.29 167.879-135.594 276.354-156.256l61.857 64.827c13.947 14.592 37.062 15.238 51.784 1.188l69.218-66.119c144.633 26.99 267.314 117.128 338.34 241.487l-47.394 106.926c-8.174 18.467.168 40.162 18.596 48.297l91.17 40.55a505.53 505.53 0 0 1 2.403 49.072l-.13.323zm-524.298-541.085c16.013-15.367 41.453-14.722 56.691 1.304 15.238 16.013 14.722 41.453-1.33 56.82-16.013 15.368-41.453 14.722-56.691-1.317-15.238-16.013-14.722-41.453 1.33-56.82v.013zm470.06 378.373c8.975-20.275 32.672-29.444 52.946-20.404 20.275 8.988 29.444 32.8 20.404 53.075-8.975 20.275-32.672 29.444-52.946 20.404-20.275-8.988-29.444-32.8-20.404-53.075z"/></g></svg>