<svg width="275" height="91" viewBox="0 0 275 91" fill="none" xmlns="http://www.w3.org/2000/svg">
<g clip-path="url(#clip0_1060_884)">
<path d="M274.83 21.666C278.576 43.0619 220.132 71.0819 144.277 84.2489C68.432 97.4158 3.90981 90.7345 0.169649 69.3295C-3.56749 47.9306 54.8914 19.9196 130.737 6.75566C206.585 -6.41732 271.095 0.264015 274.83 21.666Z" fill="#034EA2"/>
<path d="M203.444 53.4287L203.054 31.1807H210.094V59.2218H199.973L192.949 36.209H192.798L193.187 59.2218H186.193V31.1807H196.752L203.287 53.4287H203.444Z" fill="white"/>
<path d="M75.4908 33.8062L71.5966 59.5169H63.9199L69.1918 31.1807H81.8382L87.0859 59.5169H79.4395L75.651 33.8062H75.4908Z" fill="white"/>
<path d="M104.964 59.5169L100.209 34.0411H100.055L99.8767 59.5169H92.7559L93.3843 31.1807H104.985L108.496 52.8415H108.647L112.161 31.1807H123.756L124.372 59.5169H117.266L117.079 34.0411H116.931L112.179 59.5169H104.964Z" fill="white"/>
<path d="M51.9465 51.5226C52.2244 52.2091 52.1398 53.0913 52.0099 53.6243C51.7713 54.5667 51.1308 55.5272 49.2396 55.5272C47.4571 55.5272 46.3755 54.5095 46.3755 52.9528V50.2099H38.7502L38.7441 52.4048C38.7441 58.7219 43.7351 60.6278 49.0824 60.6278C54.2244 60.6278 58.46 58.8754 59.1337 54.1542C59.4782 51.7063 59.2214 50.1045 59.1035 49.4993C57.9041 43.5677 47.1127 41.7972 46.309 38.4791C46.1731 37.9101 46.2124 37.3079 46.2788 36.9857C46.4752 36.0824 47.0976 35.0858 48.877 35.0858C50.5386 35.0858 51.5205 36.1095 51.5205 37.6571C51.5205 38.178 51.5205 39.4065 51.5205 39.4065H58.6111V37.4163C58.6111 31.2438 53.0522 30.2803 49.025 30.2803C43.9677 30.2803 39.8348 31.9453 39.0795 36.5581C38.8741 37.8318 38.8438 38.9669 39.1429 40.3881C40.3846 46.1782 50.4843 47.8553 51.9465 51.5226Z" fill="white"/>
<path d="M144.4 51.4716C144.681 52.1521 144.59 53.0102 144.463 53.5432C144.231 54.4826 143.596 55.428 141.717 55.428C139.959 55.428 138.886 54.4103 138.886 52.8898L138.88 50.1709H131.333L131.324 52.3358C131.324 58.5895 136.27 60.4774 141.563 60.4774C146.65 60.4774 150.847 58.7491 151.508 54.0701C151.853 51.6402 151.608 50.0595 151.484 49.4663C150.291 43.5889 139.608 41.8365 138.814 38.5516C138.678 37.9855 138.717 37.3893 138.786 37.0852C138.989 36.1759 139.599 35.2034 141.36 35.2034C143.007 35.2034 143.968 36.203 143.968 37.7386C143.968 38.2535 143.968 39.4699 143.968 39.4699H151.004V37.5007C151.004 31.3945 145.49 30.437 141.502 30.437C136.502 30.437 132.403 32.081 131.663 36.6607C131.457 37.9163 131.436 39.0303 131.729 40.4455C132.953 46.1753 142.953 47.8404 144.4 51.4716Z" fill="white"/>
<path d="M168.281 55.2773C170.254 55.2773 170.87 53.9163 171.006 53.2208C171.063 52.9137 171.078 52.5042 171.072 52.1368V31.1685H178.263V51.4955C178.278 52.0164 178.226 53.0883 178.202 53.3563C177.698 58.6465 173.501 60.3628 168.278 60.3628C163.048 60.3628 158.849 58.6465 158.35 53.3563C158.326 53.0883 158.275 52.0164 158.29 51.4955V31.1685H165.474V52.1368C165.474 52.5042 165.486 52.9167 165.541 53.2208C165.695 53.9163 166.293 55.2773 168.281 55.2773Z" fill="white"/>
<path d="M227.591 54.9793C229.652 54.9793 230.371 53.6816 230.503 52.9258C230.555 52.6006 230.57 52.2062 230.567 51.8479V47.7349H227.648V43.5979H237.73V51.2036C237.724 51.7335 237.712 52.1249 237.627 53.0704C237.153 58.2251 232.667 60.0648 227.627 60.0648C222.579 60.0648 218.099 58.2251 217.618 53.0704C217.537 52.1249 217.525 51.7335 217.516 51.2036L217.522 39.2711C217.522 38.7683 217.585 37.877 217.639 37.4043C218.271 32.108 222.579 30.4038 227.627 30.4038C232.67 30.4038 237.083 32.099 237.606 37.4043C237.7 38.3076 237.67 39.2711 237.67 39.2711V40.2165H230.5V38.6298C230.506 38.6328 230.491 37.9553 230.407 37.5518C230.286 36.9256 229.739 35.4863 227.573 35.4863C225.5 35.4863 224.893 36.8473 224.742 37.5518C224.655 37.9252 224.621 38.431 224.621 38.8887V51.8479C224.615 52.2062 224.636 52.6006 224.694 52.9258C224.818 53.6846 225.534 54.9793 227.591 54.9793Z" fill="white"/>
</g>
<defs>
<clipPath id="clip0_1060_884">
<rect width="275" height="91" fill="white"/>
</clipPath>
</defs>
</svg>
