<svg xmlns="http://www.w3.org/2000/svg" xml:space="preserve" version="1.0" viewBox="0 0 1190.55 841.89">
  <path d="M824.58 393.61v116.13h-38.17v-96.3l38.17-19.83zM313.77 512.66l89.19-46.64-11-28.48-58.72 27.38-19.47 47.74z" class="st0"/>
  <path d="m786.42 413.34 96.77-49.52-16.35-27.65-80.42 39.3v37.87z" class="st1"/>
  <path d="M513.89 384.42v125.32h-36.4V331.26l36.4 53.16z" class="st0"/>
  <path d="m368.93 377.49-55.15 135.17-28.37-24.42 65.71-156.98 17.81 46.23z" class="st1"/>
  <path d="M351.12 331.26h37.6l69.54 178.48h-38.49l-68.65-178.48zm168.4 0 80.16 121.94v56.54L477.49 331.26h42.03zm186.7 0h-37.88v178.51h37.88V331.26zm80.2 32.56H728.1v-32.56h135.82l19.26 32.56h-96.76z" class="st2"/>
  <path d="M995.03 442.01v67.72h-37.6v-67.72" class="st1"/>
  <path d="m957.43 442.01 63.62-110.75H1061l-65.97 110.75h-37.6z" class="st2"/>
  <path d="m957.43 442.01-65.4-110.75h41.14l44.3 75.9-20.04 34.85z" class="st0"/>
  <path d="M144.27 351.86c0 24.85 15.62 39.64 46.9 47.44l33.14 7.55c29.6 6.68 47.62 23.27 47.62 50.3.23 11.77-3.67 23.27-11.04 32.56 0-26.97-14.2-41.54-48.45-50.3l-32.54-7.27c-26.06-5.84-46.17-19.48-46.17-48.84-.12-11.34 3.58-22.4 10.54-31.44" class="st2"/>
  <path d="M599.68 444.03V331.26h36.4v178.48h-36.4v-65.71zm-359.14 6.5c14.13 8.88 20.33 21.31 20.33 39.14-11.7 14.72-32.26 22.99-56.42 22.99-40.67 0-69.13-19.67-75.45-53.84h39.05c5.03 15.69 18.34 22.96 36.11 22.96 21.69 0 36.11-11.37 36.4-31.32m-75.98-61.76c-6.45-3.77-11.75-9.18-15.33-15.67-3.57-6.49-5.29-13.8-4.98-21.17 11.29-14.6 30.93-23.52 54.87-23.52 41.43 0 65.4 21.5 71.31 51.76h-37.57c-4.14-11.93-14.52-21.22-33.43-21.22-20.21 0-33.99 11.56-34.79 29.82" class="st0"/>
</svg>
