<svg height="2500" viewBox="53.6 9 219.8 272.2" width="1579" xmlns="http://www.w3.org/2000/svg"><path d="m162.6 11.3c-62.7 0-107.3 39.6-107.3 95.7 0 26.9 28 158 28 158 1.8 7.8 9.4 13.1 17.4 11.8 1.8-.3 3.4-.9 4.9-1.7l1.2-.1c2.8 1.6 6 2.4 9.5 2 2.8-.3 5.3-1.4 7.4-3l3.4-.2c2.8 2.2 6.4 3.4 10.2 3.2 3.9-.2 7.3-1.9 9.9-4.4l6-.4c2.7 2.8 6.4 4.7 10.6 4.8 4.5.1 8.5-1.7 11.4-4.7l6.2.4c2.3 2.3 5.4 3.8 8.9 4.2 4.1.5 8-.7 11-3.1l3.8.2c1.8 1.3 3.9 2.3 6.2 2.7 3.3.6 6.5.1 9.3-1.3 1.2.6 2.6 1 4 1.2 8 1.3 15.6-3.9 17.4-11.8 0 0 28-131.2 28-158-.2-55.8-44.7-95.5-107.4-95.5z" fill="#57d1e5"/><circle cx="127.9" cy="97.3" fill="#fff" r="47.9"/><path d="m127.9 147.7c-27.8 0-50.5-22.6-50.5-50.5s22.6-50.5 50.5-50.5 50.5 22.6 50.5 50.5-22.7 50.5-50.5 50.5zm0-95.7c-25 0-45.3 20.3-45.3 45.3s20.3 45.3 45.3 45.3 45.3-20.3 45.3-45.3-20.4-45.3-45.3-45.3z" fill="#3a2d55"/><path d="m137.8 65.9c-8.3 1.7-9.9 19.8-5 24.8 3.3 3.3 9.9 4.3 9.9 6.6s-6.6 3.3-9.9 6.6c-5 5-3.3 23.1 5 24.8 9.8 2 24.8-9.9 24.8-31.4s-15-33.4-24.8-31.4z" fill="#3a2d55"/><path d="m104.4 162.5c1.7 5 7 14.4 13.6 12.7 3.2-.8 5-5 5-11.6m24.7-5.3c1.7 6.6 3.3 11.6 8.3 11.6s11.6-6.6 9.9-18.2" fill="#fff"/><g fill="#3a2d55"><path d="m189.3 135.5c-2.1-2.3-5-4-8.2-4.6h-.4c-1.4-.1-2.7 1-2.8 2.4s1 2.7 2.4 2.8 2.8.5 4 1.2a126 126 0 0 1 -41.8 18.3c-15.5 3.7-31.6 4.4-47.4 2.1-1.2-.2-2.3.6-2.5 1.8s.6 2.3 1.8 2.5c2.4.4 4.9.7 7.3.9 0 .1 0 .2.1.3 2.1 6.3 7.5 14.7 14.5 14.7.7 0 1.4-.1 2.2-.3 2.6-.6 6.9-3.3 6.9-14.1 0-.2-.1-.3-.1-.5 6.1-.5 12.2-1.5 18.2-2.8.6-.1 1.2-.3 1.7-.4 1.4 5.6 3.5 12.6 10.5 12.6 2.9 0 6-1.6 8.4-4.3 2-2.3 5.2-7.5 4.2-16.2 6.9-3.1 13.5-6.8 19.7-11 .6 1 1.1 2.1 1.3 3.3.2.9 1 1.5 1.9 1.4 1-.1 1.7-.9 1.6-1.9-.1-2.9-1.4-5.8-3.5-8.2zm-69 28.1c0 5-1.2 8.6-3 9-3.9 1-7.9-4.8-9.8-9.2 4.3.2 8.5.2 12.8 0 .1.1 0 .2 0 .2zm40.1 1.2c-1.3 1.5-3 2.5-4.4 2.5-2.4 0-3.8-2.1-5.5-8.7 4.4-1.3 8.8-2.8 13-4.5.2 4.3-.9 8.1-3.1 10.7z"/><path d="m242.4 36.5c-19.9-17.7-47.9-27.5-78.9-27.5s-59 9.8-78.9 27.5c-20 17.8-31 43-31 70.8s26.9 153.2 28 158.6c1.9 8.3 9.2 14 17.4 14 1 0 1.9-.1 2.9-.2 1.7-.3 3.3-.8 4.9-1.6 3.4 1.5 7.2 2.1 10.9 1.4 2.8-.5 5.4-1.7 7.6-3.5 1.9 1.5 4.2 2.7 6.6 3.3 3.9 1 8.1.7 11.8-1 2.6-1.2 4.8-3 6.5-5.1 1.3 1.6 2.8 3 4.6 4.1 1.4.9 2.9 1.5 4.5 2s3.2.7 4.8.7 3.3-.3 4.8-.7c1.6-.5 3.1-1.1 4.5-2s2.7-1.9 3.8-3.1c.3-.3.6-.6.8-.9 2.8 3.4 6.9 5.8 11.3 6.4 4.4.7 9-.4 12.6-2.9.4-.2.7-.5 1-.8 2.1 1.7 4.6 2.9 7.2 3.4 1.9.4 3.8.5 5.7.3 1.7-.2 3.3-.6 4.9-1.3 1.4.6 2.8 1 4.3 1.3 9.3 1.5 18.3-4.5 20.3-13.8 1.1-5.4 28-131.7 28-158.6.1-27.8-10.9-52.9-30.9-70.8zm-2.1 228.3c-1.4 6.3-7.4 10.5-13.8 9.8 1.2-1.2 2.3-2.6 3.1-4.1.9-1.7 1.6-3.5 1.9-5.3l.8-4.8 3.1-19.1c1-6.4 2-12.8 2.8-19.2.1-.9-.5-1.7-1.3-1.9-.9-.2-1.9.4-2.1 1.3-1.4 6.3-2.7 12.7-4 19l-3.7 19-.9 4.7c-.3 1.3-.8 2.6-1.4 3.7-.6 1.2-1.5 2.2-2.5 3.1s-2.1 1.7-3.3 2.2-2.5.9-3.8 1.1-2.7 0-4-.2c-1.7-.3-3.3-1.1-4.7-2 1.2-1.8 2.2-3.8 2.7-6 .2-.5.2-1.1.3-1.6 0-.3.1-.6.1-.8l.1-.7.3-2.8.6-5.6 1.1-11.2c.7-7.5 1.4-15 1.9-22.5.1-.9-.6-1.7-1.5-1.8s-1.8.5-2 1.5c-1.1 7.4-2.1 14.9-3.1 22.3l-1.4 11.2-.7 5.6c-.2 1.8-.4 3.9-.8 5.2-.7 3-2.7 5.7-5.3 7.4s-5.8 2.4-8.8 1.9c-3.1-.4-5.9-2.1-7.9-4.5-.5-.6-.9-1.2-1.3-1.9.3-.8.5-1.6.7-2.3.4-1.6.4-3.3.4-4.6l.1-8.3c.1-5.5.2-11.1.2-16.6.1-5.5.1-11.1 0-16.6 0-.9-.7-1.7-1.6-1.7-1-.1-1.8.7-1.8 1.6-.3 5.5-.7 11.1-.9 16.6-.3 5.5-.5 11.1-.8 16.6l-.4 8.3c0 .7 0 1.4-.1 2 0 .6-.1 1.1-.2 1.7-.3 1.1-.6 2.2-1.2 3.2-2.1 4.1-6.6 6.8-11.2 6.7-1.1 0-2.3-.1-3.4-.5-1.1-.3-2.1-.8-3.1-1.3-2-1.2-3.6-2.9-4.7-4.9-.6-1-.9-2.1-1.2-3.2s-.3-2.2-.4-3.7l-.4-8.3c-.2-5.5-.5-11.1-.8-16.6s-.6-11.1-.9-16.6c-.1-.9-.8-1.6-1.7-1.6-1 0-1.7.8-1.7 1.7v16.6c0 5.5.1 11.1.2 16.6l.1 8.3c0 1.3.1 3 .4 4.6.2.8.4 1.6.7 2.4-1.4 2.3-3.4 4.2-5.9 5.3-2.6 1.2-5.5 1.4-8.2.7s-5.2-2.3-6.9-4.6c-.9-1.1-1.6-2.4-2-3.7-.2-.7-.4-1.4-.5-2.1-.1-.3-.1-.8-.2-1.2l-.2-1.3-2.6-20.3c-.9-6.8-1.8-13.6-2.9-20.3-.1-.9-.9-1.5-1.8-1.5-1 .1-1.7.9-1.6 1.9.5 6.8 1.1 13.6 1.7 20.4l2 20.4.1 1.3c0 .4.1.8.2 1.4.1 1 .4 2 .7 2.9.5 1.7 1.4 3.3 2.4 4.8-1.5 1-3.2 1.8-5 2.1-2.6.5-5.3.1-7.7-1-2.4-1.2-4.4-3-5.7-5.4-.6-1.2-1.1-2.4-1.4-3.7l-.9-4.7-3.7-18.9c-1.3-6.3-2.6-12.6-4-18.9-.2-.9-1-1.5-1.9-1.3-.9.1-1.6 1-1.5 2 .9 6.4 1.8 12.7 2.8 19.1l3.1 19 .8 4.8c.3 1.9 1 3.7 1.8 5.3.8 1.5 1.8 2.9 3.1 4.1-.2 0-.3.1-.5.1-6.6 1.1-12.9-3.2-14.4-9.7-.3-1.3-27.9-131.2-27.9-157.5s10.4-50.1 29.2-67c18.9-16.9 45.7-26.2 75.4-26.2s56.5 9.3 75.4 26.2c18.9 16.8 29.2 40.6 29.2 67 .6 26.3-27 156.2-27.3 157.4z"/></g></svg>