<svg width="1080" height="774" viewBox="0 0 1080 774" fill="none" xmlns="http://www.w3.org/2000/svg"><path d="M386.708 0L0 387l386.708 387 386.708-387L386.708 0z" fill="url(#paint0_linear_0_42)"/><path d="M386.708 0L0 387l386.708 387 386.708-387L386.708 0z" fill="url(#paint1_linear_0_42)"/><path d="M386.708 0L0 387l386.708 387 386.708-387L386.708 0z" fill="url(#paint2_linear_0_42)"/><path d="M386.708 0L0 387l386.708 387 386.708-387L386.708 0z" fill="url(#paint3_linear_0_42)"/><path d="M773.416 387L386.708 774 0 387 386.708 0l386.708 387zM3.943 387l382.764 383.053L769.473 387 386.707 3.945 3.943 387z" fill="url(#paint4_linear_0_42)"/><path d="M694.303 774l-94.887-95.351L889.645 387l-57.5-57.782L599.418 95.349 694.303 0l385.117 387-385.117 387z" fill="url(#paint5_linear_0_42)"/><path d="M694.303 774l-94.887-95.351L889.645 387l-57.5-57.782L599.418 95.349 694.303 0l385.117 387-385.117 387z" fill="url(#paint6_linear_0_42)"/><path d="M694.303 774l-94.887-95.351L889.645 387l-57.5-57.782L599.418 95.349 694.303 0l385.117 387-385.117 387z" fill="url(#paint7_linear_0_42)"/><path d="M694.303 774l-94.887-95.351L889.645 387l-57.5-57.782L599.418 95.349 694.303 0l385.117 387-385.117 387z" fill="url(#paint8_linear_0_42)"/><path d="M694.303 774l-94.887-95.351L889.645 387l-57.5-57.782L599.418 95.349 694.303 0l385.117 387-385.117 387z" fill="url(#paint9_linear_0_42)"/><path d="M1079.42 387L694.303 774l-94.887-95.351L889.645 387 599.418 95.349 694.303 0l385.117 387zM603.352 95.349L893.581 387 603.35 678.647l90.953 91.398L1075.48 387 694.303 3.954l-90.951 91.395z" fill="url(#paint10_linear_0_42)"/><path d="M893.583 387.006L603.354 95.338 694.306 3.96l199.277 383.046z" fill="url(#paint11_radial_0_42)"/><path d="M603.399 678.678l290.187-291.673-199.217 383.086-90.97-91.413z" fill="url(#paint12_radial_0_42)"/><defs><linearGradient id="paint0_linear_0_42" x1="386.709" y1="774" x2="773.416" y2="387" gradientUnits="userSpaceOnUse"><stop stop-color="color(display-p3 0.0118 0.0235 0.1059)"/><stop offset=".65" stop-color="color(display-p3 0.1176 0.4549 0.7725)"/><stop offset=".917" stop-color="color(display-p3 0.6863 0.8510 1.0000)"/><stop offset="1" stop-color="white"/></linearGradient><linearGradient id="paint1_linear_0_42" x1="72.714" y1="311.898" x2="470.751" y2="706.122" gradientUnits="userSpaceOnUse"><stop stop-color="color(display-p3 0.0000 0.2039 0.3765)" stop-opacity="0.01"/><stop offset=".954" stop-color="color(display-p3 0.0000 0.2039 0.3765)" stop-opacity="0.01"/><stop offset="1" stop-color="color(display-p3 0.0000 0.2039 0.3765)"/></linearGradient><linearGradient id="paint2_linear_0_42" x1="421.161" y1="31.614" x2="47.078" y2="401.894" gradientUnits="userSpaceOnUse"><stop stop-color="white"/><stop offset=".024" stop-color="white" stop-opacity="0.342965"/><stop offset=".06" stop-color="white" stop-opacity="0.01"/><stop offset="1" stop-color="white" stop-opacity="0.01"/></linearGradient><linearGradient id="paint3_linear_0_42" x1="-25.482" y1="379.257" x2="394.23" y2="800.518" gradientUnits="userSpaceOnUse"><stop stop-color="white"/><stop offset=".024" stop-color="white" stop-opacity="0.342965"/><stop offset=".06" stop-color="white" stop-opacity="0.01"/><stop offset="1" stop-color="white" stop-opacity="0.01"/></linearGradient><linearGradient id="paint4_linear_0_42" x1="280.803" y1="-51.547" x2="29.196" y2="583.088" gradientUnits="userSpaceOnUse"><stop stop-color="white"/><stop offset="1" stop-color="color(display-p3 0.1176 0.4549 0.7725)"/></linearGradient><linearGradient id="paint5_linear_0_42" x1="700.568" y1="774" x2="1079.4" y2="386.983" gradientUnits="userSpaceOnUse"><stop stop-color="color(display-p3 0.0118 0.0235 0.1059)"/><stop offset=".65" stop-color="color(display-p3 0.1176 0.4549 0.7725)"/><stop offset=".917" stop-color="color(display-p3 0.6863 0.8510 1.0000)"/><stop offset="1" stop-color="white"/></linearGradient><linearGradient id="paint6_linear_0_42" x1="1079.42" y1="387" x2="694.299" y2="774" gradientUnits="userSpaceOnUse"><stop stop-color="color(display-p3 0.0000 0.2039 0.3765)" stop-opacity="0.01"/><stop offset=".945" stop-color="color(display-p3 0.0000 0.2039 0.3765)" stop-opacity="0.01"/><stop offset=".977" stop-color="color(display-p3 0.0000 0.2039 0.3765)" stop-opacity="0.402708"/><stop offset="1" stop-color="color(display-p3 0.0000 0.2039 0.3765)"/></linearGradient><linearGradient id="paint7_linear_0_42" x1="599.416" y1="678.645" x2="694.173" y2="774" gradientUnits="userSpaceOnUse"><stop stop-color="white" stop-opacity="0.01"/><stop offset=".87" stop-color="color(display-p3 0.0118 0.0235 0.1059)" stop-opacity="0.01"/><stop offset=".935" stop-color="color(display-p3 0.0118 0.0235 0.1059)" stop-opacity="0.287224"/><stop offset="1" stop-color="color(display-p3 0.0118 0.0235 0.1059)"/></linearGradient><linearGradient id="paint8_linear_0_42" x1="815.503" y1="121.625" x2="718.499" y2="215.463" gradientUnits="userSpaceOnUse"><stop stop-color="white"/><stop offset=".024" stop-color="white" stop-opacity="0.342965"/><stop offset=".06" stop-color="white" stop-opacity="0.01"/><stop offset="1" stop-color="white" stop-opacity="0.01"/></linearGradient><linearGradient id="paint9_linear_0_42" x1="599.416" y1="95.296" x2="889.7" y2="387" gradientUnits="userSpaceOnUse"><stop stop-color="white"/><stop offset=".024" stop-color="white" stop-opacity="0.342965"/><stop offset=".06" stop-color="white" stop-opacity="0.01"/><stop offset="1" stop-color="white" stop-opacity="0.01"/></linearGradient><linearGradient id="paint10_linear_0_42" x1="773.689" y1="-51.547" x2="440.516" y2="470.006" gradientUnits="userSpaceOnUse"><stop stop-color="white"/><stop offset="1" stop-color="color(display-p3 0.0000 0.2039 0.3765)"/></linearGradient><radialGradient id="paint11_radial_0_42" cx="0" cy="0" r="1" gradientUnits="userSpaceOnUse" gradientTransform="rotate(135 322.981 277.287) scale(12.0348 208.623)"><stop stop-color="color(display-p3 0.0000 0.2039 0.3765)"/><stop offset="1" stop-color="color(display-p3 0.0000 0.2039 0.3765)" stop-opacity="0.01"/></radialGradient><radialGradient id="paint12_radial_0_42" cx="0" cy="0" r="1" gradientTransform="matrix(-15.9995 -15.1025 133.144 -140.024 741.809 528.959)" gradientUnits="userSpaceOnUse"><stop stop-color="color(display-p3 0.0000 0.2039 0.3765)"/><stop offset="1" stop-color="color(display-p3 0.0000 0.2039 0.3765)" stop-opacity="0.01"/></radialGradient></defs></svg>