<svg xmlns="http://www.w3.org/2000/svg" xmlns:xlink="http://www.w3.org/1999/xlink" width="1600" height="1600"><defs><linearGradient id="d" x1="50%" x2="50%" y1="0%" y2="100%"><stop offset="0%" stop-color="#6267ED"/><stop offset="100%" stop-color="#6267ED"/></linearGradient><linearGradient id="f" x1="67.069%" x2="33.398%" y1="100%" y2="0%"><stop offset="0%" stop-color="#21D4FD"/><stop offset="100%" stop-color="#6267ED"/></linearGradient><linearGradient id="g" x1="51.907%" x2="48.145%" y1="100%" y2="0%"><stop offset="0%" stop-color="#21D4FD"/><stop offset="100%" stop-color="#B721FF"/></linearGradient><path id="c" d="M704 580.874c293.752-278.818 974.752-278.818 2043 0l-11 1663.886H733.769c-17.87 0-33.784-11.308-39.663-28.184C410.286 1401.76 413.584 856.527 704 580.874Z"/><path id="e" d="M240 226h1387l-456.543 1441-920.52-1087.908A42 42 0 0 1 240 551.963V226Z"/><circle id="a" cx="800" cy="800" r="800"/></defs><g fill="none" fill-rule="evenodd"><mask id="b" fill="#fff"><use xlink:href="#a"/></mask><use xlink:href="#a" fill="#D8D8D8"/><g mask="url(#b)"><g transform="translate(-868 -597)"><use xlink:href="#c" fill="url(#d)"/><use xlink:href="#e" fill="url(#f)" fill-opacity=".5" opacity=".575" transform="rotate(25 933.5 946.5)"/><path fill="url(#g)" d="m1612.993 619.096 758.069-.006 5.084 2372-761.188-84.137z" opacity=".11" transform="rotate(40 1994.57 1805.09)"/></g><text font-family="Museo-300, Museo" font-size="320" font-weight="300" transform="translate(-868 -597)">
                        <tspan x="1175.32" y="1415" fill="#FFF">Simple</tspan>
                        <tspan x="1027" y="1691.92" fill="#FFF" font-family="Museo-700, Museo" font-weight="500">Backups</tspan>
                    </text></g></g></svg>