<?xml version="1.0" encoding="UTF-8"?>
<svg width="1600px" height="1600px" viewBox="0 0 1600 1600" version="1.1" xmlns="http://www.w3.org/2000/svg" xmlns:xlink="http://www.w3.org/1999/xlink">
    <!-- Generator: Sketch 63.1 (92452) - https://sketch.com -->
    <title>logo-round-rast</title>
    <desc>Created with Sketch.</desc>
    <defs>
        <circle id="path-1" cx="800" cy="800" r="800"></circle>
        <linearGradient x1="50%" y1="0%" x2="50%" y2="100%" id="linearGradient-3">
            <stop stop-color="#6267ED" offset="0%"></stop>
            <stop stop-color="#6267ED" offset="100%"></stop>
        </linearGradient>
        <path d="M704,580.874466 C997.751795,302.055609 1678.75179,302.055609 2747,580.874466 L2736,2244.76032 L733.768903,2244.76032 C715.898228,2244.76033 699.98456,2233.45201 694.106171,2216.57583 C410.286087,1401.76086 413.58403,856.527076 704,580.874466 Z" id="path-4"></path>
        <linearGradient x1="67.0692152%" y1="100%" x2="33.397953%" y2="4.16333634e-15%" id="linearGradient-6">
            <stop stop-color="#21D4FD" offset="0%"></stop>
            <stop stop-color="#6267ED" offset="100%"></stop>
        </linearGradient>
        <path d="M240,226 L1627,226 L1170.45702,1667 L249.937517,579.092226 C243.520972,571.508889 240,561.89669 240,551.962958 L240,226 L240,226 Z" id="path-7"></path>
        <linearGradient x1="51.9071357%" y1="100%" x2="48.1450608%" y2="4.16333634e-15%" id="linearGradient-9">
            <stop stop-color="#21D4FD" offset="0%"></stop>
            <stop stop-color="#B721FF" offset="100%"></stop>
        </linearGradient>
    </defs>
    <g id="logo-round-rast" stroke="none" stroke-width="1" fill="none" fill-rule="evenodd">
        <g id="Group">
            <mask id="mask-2" fill="white">
                <use xlink:href="#path-1"></use>
            </mask>
            <use id="Mask" fill="#D8D8D8" xlink:href="#path-1"></use>
            <g mask="url(#mask-2)">
                <g transform="translate(-868.000000, -597.000000)">
                    <g id="hero-bg" stroke-width="1" fill="none" fill-rule="evenodd">
                        <mask id="mask-5" fill="white">
                            <use xlink:href="#path-4"></use>
                        </mask>
                        <use id="Mask-Copy" fill="url(#linearGradient-3)" xlink:href="#path-4"></use>
                        <mask id="mask-8" fill="white">
                            <use xlink:href="#path-7"></use>
                        </mask>
                        <use id="Mask-Copy-2" fill-opacity="0.5" fill="url(#linearGradient-6)" opacity="0.574590774" transform="translate(933.500000, 946.500000) rotate(25.000000) translate(-933.500000, -946.500000) " xlink:href="#path-7"></use>
                        <polygon id="Rectangle-Copy-4" fill="url(#linearGradient-9)" opacity="0.110165551" transform="translate(1994.569509, 1805.089599) rotate(40.000000) translate(-1994.569509, -1805.089599) " points="1612.99339 619.095909 2371.06211 619.089599 2376.14563 2991.0896 1614.95752 2906.95308"></polygon>
                    </g>
                    <path d="M1258.9,1367.84 C1301.14,1367.84 1327.06,1339.36 1327.06,1305.76 C1327.06,1231.52 1216.02,1244.32 1216.02,1192.16 C1216.02,1172.96 1232.98,1156 1262.1,1156 C1282.9,1156 1301.46,1165.92 1301.46,1179.36 L1301.46,1189.92 L1322.58,1189.92 L1322.58,1173.92 C1322.58,1144.48 1283.54,1135.2 1261.78,1135.2 C1220.18,1135.2 1192.98,1161.44 1192.98,1192.8 C1192.98,1262.56 1304.02,1251.36 1304.02,1307.04 C1304.02,1331.04 1284.18,1347.04 1259.54,1347.04 C1224.02,1347.04 1201.3,1319.52 1201.3,1319.52 L1187.54,1335.84 C1187.54,1335.84 1212.82,1367.84 1258.9,1367.84 Z M1391.38,1166.56 L1391.38,1139.04 L1370.26,1139.04 L1370.26,1166.56 L1391.38,1166.56 Z M1413.14,1364 L1413.14,1345.12 L1399.7,1345.12 C1395.22,1345.12 1392.66,1342.88 1392.66,1338.08 L1392.66,1222.56 C1392.66,1208.8 1386.9,1203.04 1373.14,1203.04 L1350.42,1203.04 L1350.42,1221.92 L1363.86,1221.92 C1368.34,1221.92 1370.9,1224.48 1370.9,1228.96 L1370.9,1344.48 C1370.9,1358.24 1376.66,1364 1390.42,1364 L1413.14,1364 Z M1471.38,1364 L1471.38,1287.84 C1471.38,1280.48 1472.02,1273.12 1473.94,1266.4 C1480.66,1241.76 1500.18,1219.04 1526.42,1219.04 C1556.82,1219.04 1560.34,1242.72 1560.34,1267.04 L1560.34,1364 L1582.1,1364 L1582.1,1287.84 C1582.1,1279.2 1582.74,1271.52 1584.98,1264.48 C1591.38,1240.8 1611.54,1219.04 1635.86,1219.04 C1665.3,1219.04 1670.74,1240.8 1670.74,1267.04 L1670.74,1344.48 C1670.74,1358.24 1676.5,1364 1690.26,1364 L1712.98,1364 L1712.98,1345.12 L1699.54,1345.12 C1695.06,1345.12 1692.5,1342.88 1692.5,1338.08 L1692.5,1261.6 C1692.5,1221.92 1678.1,1199.2 1639.06,1199.2 C1611.86,1199.2 1588.5,1217.76 1579.86,1239.52 L1579.22,1239.52 C1574.42,1212.96 1559.06,1199.2 1529.3,1199.2 C1504.34,1199.2 1479.06,1218.08 1471.06,1239.84 L1470.42,1239.84 C1470.42,1239.84 1471.03652,1234.90787 1471.05935,1228.67421 L1471.06,1220.96 C1471.06,1208.8 1464.98,1203.04 1451.54,1203.04 L1429.14,1203.04 L1429.14,1221.92 L1442.58,1221.92 C1447.06,1221.92 1449.62,1224.48 1449.62,1228.96 L1449.62,1364 L1471.38,1364 Z M1769.3,1428 L1769.3,1351.52 C1769.3,1343.2 1768.66,1337.44 1768.66,1337.44 L1769.3,1337.44 C1769.3,1337.44 1782.74,1367.84 1822.1,1367.84 C1863.7,1367.84 1894.1,1334.56 1894.1,1283.68 C1894.1,1233.76 1867.22,1199.2 1824.02,1199.2 C1781.46,1199.2 1768.66,1230.88 1768.66,1230.88 L1768.02,1230.88 C1768.02,1230.88 1768.34,1226.4 1768.34,1220 C1768.34,1208.8 1762.9,1203.04 1749.14,1203.04 L1727.06,1203.04 L1727.06,1221.92 L1740.5,1221.92 C1744.98,1221.92 1747.54,1224.48 1747.54,1228.96 L1747.54,1428 L1769.3,1428 Z M1819.86,1348.64 C1786.26,1348.64 1768.66,1316.32 1768.66,1284 C1768.66,1238.24 1793.94,1219.04 1820.82,1219.04 C1850.9,1219.04 1871.7,1244.32 1871.7,1283.68 C1871.7,1324.64 1848.34,1348.64 1819.86,1348.64 Z M1977.3,1364 L1977.3,1345.12 L1963.86,1345.12 C1959.38,1345.12 1956.82,1342.88 1956.82,1338.08 L1956.82,1158.56 C1956.82,1144.8 1951.06,1139.04 1937.3,1139.04 L1914.58,1139.04 L1914.58,1157.92 L1928.02,1157.92 C1932.5,1157.92 1935.06,1160.48 1935.06,1164.96 L1935.06,1344.48 C1935.06,1358.24 1940.82,1364 1954.58,1364 L1977.3,1364 Z M2082.9,1367.84 C2119.38,1367.84 2142.74,1344.8 2142.74,1344.8 L2132.18,1328.48 C2132.18,1328.48 2113.3,1348.32 2083.86,1348.32 C2050.58,1348.32 2022.1,1324.96 2021.46,1284.32 L2144.98,1284.32 C2144.98,1284.32 2145.62,1277.28 2145.62,1273.44 C2145.62,1233.44 2122.58,1199.2 2078.1,1199.2 C2034.9,1199.2 1998.74,1230.88 1998.74,1283.68 C1998.74,1333.28 2035.22,1367.84 2082.9,1367.84 Z M2123.22,1267.04 L2022.42,1267.04 C2027.86,1234.72 2051.22,1217.44 2077.78,1217.44 C2101.46,1217.44 2121.94,1233.76 2123.22,1267.04 Z M1137.14,1647 C1179.38,1647 1215.54,1626.52 1215.54,1581.08 C1215.54,1558.04 1203.7,1535 1179.06,1527.64 L1179.06,1527 C1192.82,1519.96 1206.58,1503.64 1206.58,1478.36 C1206.58,1440.92 1177.14,1419.8 1136.18,1419.8 L1037.94,1419.8 L1037.94,1455.32 L1058.74,1455.32 L1058.74,1625.24 C1058.74,1640.6 1065.46,1647 1080.5,1647 L1137.14,1647 Z M1136.5,1512.6 L1100.66,1512.6 L1100.66,1455.32 L1135.86,1455.32 C1154.42,1455.32 1164.02,1467.16 1164.02,1483.48 C1164.02,1499.8 1154.1,1512.6 1136.5,1512.6 Z M1140.34,1611.48 L1107.7,1611.48 C1103.22,1611.48 1100.66,1608.92 1100.66,1604.44 L1100.66,1545.88 L1140.34,1545.88 C1160.5,1545.88 1172.34,1559.64 1172.34,1578.52 C1172.34,1597.72 1160.82,1611.48 1140.34,1611.48 Z M1294.9,1650.84 C1331.7,1650.84 1344.18,1622.04 1344.18,1622.04 L1344.82,1622.04 C1344.82,1622.04 1344.5,1624.92 1344.5,1629.08 C1344.5,1638.68 1350.26,1647 1365.3,1647 L1401.78,1647 L1401.78,1612.76 L1388.98,1612.76 C1384.5,1612.76 1381.94,1610.2 1381.94,1605.72 L1381.94,1544.92 C1381.94,1508.44 1365.94,1479.96 1311.54,1479.96 C1294.58,1479.96 1251.7,1483.16 1251.7,1513.56 L1251.7,1530.84 L1289.46,1530.84 L1289.46,1522.2 C1289.46,1513.24 1303.86,1511.32 1311.22,1511.32 C1332.02,1511.32 1341.3,1519.96 1341.3,1543.32 L1341.3,1544.6 L1336.18,1544.6 C1309.62,1544.6 1239.22,1548.76 1239.22,1599.96 C1239.22,1632.6 1265.78,1650.84 1294.9,1650.84 Z M1304.82,1619.16 C1288.18,1619.16 1280.18,1608.92 1280.18,1598.04 C1280.18,1575.32 1313.78,1572.44 1334.9,1572.44 L1341.94,1572.44 L1341.94,1576.28 C1341.94,1596.12 1326.58,1619.16 1304.82,1619.16 Z M1506.42,1650.84 C1550.9,1650.84 1575.22,1621.4 1575.22,1621.4 L1558.26,1593.24 C1558.26,1593.24 1537.78,1615.32 1509.94,1615.32 C1483.7,1615.32 1459.06,1598.36 1459.06,1565.08 C1459.06,1535.64 1479.22,1514.2 1507.38,1514.2 C1517.3,1514.2 1530.74,1518.04 1530.74,1527 L1530.74,1535.96 L1566.58,1535.96 L1566.58,1516.76 C1566.58,1488.6 1528.5,1479.96 1507.38,1479.96 C1451.38,1479.96 1418.1,1519.32 1418.1,1565.4 C1418.1,1612.76 1452.66,1650.84 1506.42,1650.84 Z M1645.94,1647 L1645.94,1575.64 L1654.9,1575.64 C1660.02,1575.64 1666.74,1575.96 1669.94,1581.72 L1697.14,1632.92 C1703.47043,1644.6313 1708.86163,1646.95017 1722.29424,1647 L1752.82,1647 L1752.82,1612.76 L1741.94,1612.76 C1734.26,1612.76 1731.06,1611.48 1728.5,1606.68 L1709.94,1571.48 C1704.18,1560.92 1698.42,1558.68 1698.42,1558.68 L1698.42,1558.04 C1698.42,1558.04 1703.54,1555.48 1710.58,1545.24 L1751.86,1483.8 L1706.74,1483.8 L1673.46,1535.32 C1669.94,1540.44 1663.22,1541.4 1658.1,1541.4 L1645.94,1541.4 L1645.94,1438.36 C1645.94,1423.32 1639.22,1419.8 1624.18,1419.8 L1585.46,1419.8 L1585.46,1454.36 L1598.26,1454.36 C1602.74,1454.36 1605.3,1456.6 1605.3,1461.4 L1605.3,1647 L1645.94,1647 Z M1839.22,1650.84 C1867.38,1650.84 1887.86,1633.88 1895.54,1616.92 L1896.18,1616.92 C1896.18,1616.92 1895.8762,1620.2618 1895.86062,1623.9853 L1895.86,1628.76 C1895.86,1640.28 1903.22,1647 1917.3,1647 L1954.74,1647 L1954.74,1612.76 L1941.94,1612.76 C1937.46,1612.76 1934.9,1610.2 1934.9,1605.72 L1934.9,1483.8 L1894.26,1483.8 L1894.26,1558.68 C1894.26,1587.8 1877.94,1613.72 1848.5,1613.72 C1828.34,1613.72 1823.22,1600.28 1823.22,1580.44 L1823.22,1505.24 C1823.22,1490.52 1816.82,1483.8 1801.78,1483.8 L1763.06,1483.8 L1763.06,1518.36 L1775.86,1518.36 C1780.34,1518.36 1782.9,1520.6 1782.9,1525.4 L1782.9,1588.76 C1782.9,1633.24 1804.34,1650.84 1839.22,1650.84 Z M2028.02,1711 L2028.02,1643.48 C2028.02,1635.16 2027.38,1629.4 2027.38,1629.4 L2028.02,1629.4 C2028.02,1629.4 2042.42,1650.84 2074.74,1650.84 C2117.62,1650.84 2149.62,1617.24 2149.62,1565.4 C2149.62,1514.84 2121.14,1479.96 2076.98,1479.96 C2038.9,1479.96 2025.14,1505.88 2025.14,1505.88 L2024.5,1505.88 L2024.5,1499.48 L2024.5,1499.48 C2024.5,1490.52 2019.06,1483.8 2004.02,1483.8 L1967.86,1483.8 L1967.86,1518.36 L1980.66,1518.36 C1985.14,1518.36 1987.7,1520.6 1987.7,1525.4 L1987.7,1711 L2028.02,1711 Z M2067.38,1616.6 C2040.5,1616.6 2027.06,1591.64 2027.06,1566.36 C2027.06,1530.2 2046.9,1514.84 2068.02,1514.84 C2092.02,1514.84 2108.66,1535 2108.66,1566.04 C2108.66,1598.36 2089.78,1616.6 2067.38,1616.6 Z M2235.7,1650.84 C2271.22,1650.84 2298.42,1631.64 2298.42,1600.92 C2298.42,1546.52 2211.7,1551.64 2211.7,1526.04 C2211.7,1516.44 2221.62,1511.32 2236.02,1511.32 C2244.98,1511.32 2256.5,1515.16 2256.5,1522.84 L2256.5,1530.84 L2292.34,1530.84 L2292.34,1513.88 C2292.34,1487.32 2257.14,1479.96 2235.06,1479.96 C2201.14,1479.96 2171.7,1495 2171.7,1527.64 C2171.7,1580.44 2257.78,1580.12 2257.78,1603.16 C2257.78,1614.04 2248.18,1619.16 2235.7,1619.16 C2207.86,1619.16 2187.06,1595.16 2187.06,1595.16 L2167.86,1621.72 C2167.86,1621.72 2190.9,1650.84 2235.7,1650.84 Z" id="SimpleBackups" fill="#FFFFFF" fill-rule="nonzero"></path>
                </g>
            </g>
        </g>
    </g>
</svg>