<svg xmlns="http://www.w3.org/2000/svg" width="2386" height="312"><path fill="#FFF" fill-rule="nonzero" d="M76.61 248.08c44.88 0 72.42-30.26 72.42-65.96 0-78.88-117.98-65.28-117.98-120.7C31.05 41.02 49.07 23 80.01 23c22.1 0 41.82 10.54 41.82 24.82v11.22h22.44v-17C144.27 10.76 102.79.9 79.67.9c-44.2 0-73.1 27.88-73.1 61.2 0 74.12 117.98 62.22 117.98 121.38 0 25.5-21.08 42.5-47.26 42.5-37.74 0-61.88-29.24-61.88-29.24L.79 214.08s26.86 34 75.82 34ZM217.37 34.22V4.98h-22.44v29.24h22.44ZM240.49 244v-20.06h-14.28c-4.76 0-7.48-2.38-7.48-7.48V93.72c0-14.62-6.12-20.74-20.74-20.74h-24.14v20.06h14.28c4.76 0 7.48 2.72 7.48 7.48v122.74c0 14.62 6.12 20.74 20.74 20.74h24.14Zm61.88 0v-80.92c0-7.82.68-15.64 2.72-22.78 7.14-26.18 27.88-50.32 55.76-50.32 32.3 0 36.04 25.16 36.04 51V244h23.12v-80.92c0-9.18.68-17.34 3.06-24.82 6.8-25.16 28.22-48.28 54.06-48.28 31.28 0 37.06 23.12 37.06 51v82.28c0 14.62 6.12 20.74 20.74 20.74h24.14v-20.06h-14.28c-4.76 0-7.48-2.38-7.48-7.48V135.2c0-42.16-15.3-66.3-56.78-66.3-28.9 0-53.72 19.72-62.9 42.84h-.68c-5.1-28.22-21.42-42.84-53.04-42.84-26.52 0-53.38 20.06-61.88 43.18h-.68s.68-5.44.68-12.24v-7.82c0-12.92-6.46-19.04-20.74-19.04h-23.8v20.06h14.28c4.76 0 7.48 2.72 7.48 7.48V244h23.12Zm316.54 68v-81.26c0-8.84-.68-14.96-.68-14.96h.68s14.28 32.3 56.1 32.3c44.2 0 76.5-35.36 76.5-89.42 0-53.04-28.56-89.76-74.46-89.76-45.22 0-58.82 33.66-58.82 33.66h-.68s.34-4.76.34-11.56c0-11.9-5.78-18.02-20.4-18.02h-23.46v20.06h14.28c4.76 0 7.48 2.72 7.48 7.48V312h23.12Zm53.72-84.32c-35.7 0-54.4-34.34-54.4-68.68 0-48.62 26.86-69.02 55.42-69.02 31.96 0 54.06 26.86 54.06 68.68 0 43.52-24.82 69.02-55.08 69.02ZM839.91 244v-20.06h-14.28c-4.76 0-7.48-2.38-7.48-7.48V25.72c0-14.62-6.12-20.74-20.74-20.74h-24.14v20.06h14.28c4.76 0 7.48 2.72 7.48 7.48v190.74c0 14.62 6.12 20.74 20.74 20.74h24.14Zm112.2 4.08c38.76 0 63.58-24.48 63.58-24.48l-11.22-17.34-.024.025c-.783.81-20.662 21.055-51.316 21.055-35.36 0-65.62-24.82-66.3-68h131.24s.68-7.48.68-11.56c0-42.5-24.48-78.88-71.74-78.88-45.9 0-84.32 33.66-84.32 89.76 0 52.7 38.76 89.42 89.42 89.42Zm42.84-107.1h-107.1c5.78-34.34 30.6-52.7 58.82-52.7 25.16 0 46.92 17.34 48.28 52.7ZM1152.03 244c44.88 0 83.3-21.76 83.3-70.04 0-24.48-12.58-48.96-38.76-56.78v-.68c14.62-7.48 29.24-24.82 29.24-51.68 0-39.78-31.28-62.22-74.8-62.22h-104.38v37.74h22.1v180.54c0 16.32 7.14 23.12 23.12 23.12h60.18Zm-.68-142.8h-38.08V40.34h37.4c19.72 0 29.92 12.58 29.92 29.92 0 17.34-10.54 30.94-29.24 30.94Zm4.08 105.06h-34.68c-4.76 0-7.48-2.72-7.48-7.48v-62.22h42.16c21.42 0 34 14.62 34 34.68 0 20.4-12.24 35.02-34 35.02Zm164.22 41.82c39.1 0 52.36-30.6 52.36-30.6h.68s-.34 3.06-.34 7.48c0 10.2 6.12 19.04 22.1 19.04h38.76v-36.38h-13.6c-4.76 0-7.48-2.72-7.48-7.48v-64.6c0-38.76-17-69.02-74.8-69.02-18.02 0-63.58 3.4-63.58 35.7v18.36h40.12v-9.18c0-9.52 15.3-11.56 23.12-11.56 22.1 0 31.96 9.18 31.96 34v1.36h-5.44c-28.22 0-103.02 4.42-103.02 58.82 0 34.68 28.22 54.06 59.16 54.06Zm10.54-33.66c-17.68 0-26.18-10.88-26.18-22.44 0-24.14 35.7-27.2 58.14-27.2h7.48v4.08c0 21.08-16.32 45.56-39.44 45.56Zm214.2 33.66c47.26 0 73.1-31.28 73.1-31.28l-18.02-29.92s-21.76 23.46-51.34 23.46c-27.88 0-54.06-18.02-54.06-53.38 0-31.28 21.42-54.06 51.34-54.06 10.54 0 24.82 4.08 24.82 13.6v9.52h38.08v-20.4c0-29.92-40.46-39.1-62.9-39.1-59.5 0-94.86 41.82-94.86 90.78 0 50.32 36.72 90.78 93.84 90.78Zm148.24-4.08v-75.82h9.52c5.44 0 12.58.34 15.98 6.46l28.9 54.4c6.73 12.449 12.46 14.91 26.746 14.96h32.414v-36.38h-11.56c-8.16 0-11.56-1.36-14.28-6.46l-19.72-37.4c-6.12-11.22-12.24-13.6-12.24-13.6v-.68l.02-.01c.367-.192 5.684-3.094 12.9-13.59l43.86-65.28h-47.94l-35.36 54.74c-3.74 5.44-10.88 6.46-16.32 6.46h-12.92V22.32c0-15.98-7.14-19.72-23.12-19.72h-41.14v36.72h13.6c4.76 0 7.48 2.38 7.48 7.48V244h43.18Zm205.36 4.08c29.92 0 51.68-18.02 59.84-36.04h.68s-.324 3.564-.34 7.53v5.05c0 12.24 7.82 19.38 22.78 19.38h39.78v-36.38h-13.6c-4.76 0-7.48-2.72-7.48-7.48V70.6h-43.18v79.56c0 30.94-17.34 58.48-48.62 58.48-21.42 0-26.86-14.28-26.86-35.36v-79.9c0-15.64-6.8-22.78-22.78-22.78h-41.14v36.72h13.6c4.76 0 7.48 2.38 7.48 7.48v67.32c0 47.26 22.78 65.96 59.84 65.96Zm200.6 63.92v-71.74c0-8.84-.68-14.96-.68-14.96h.68s15.3 22.78 49.64 22.78c45.56 0 79.56-35.7 79.56-90.78 0-53.72-30.26-90.78-77.18-90.78-40.46 0-55.08 27.54-55.08 27.54h-.68v-6.8c0-9.52-5.78-16.66-21.76-16.66h-38.42v36.72h13.6c4.76 0 7.48 2.38 7.48 7.48V312h42.84Zm41.82-100.3c-28.56 0-42.84-26.52-42.84-53.38 0-38.42 21.08-54.74 43.52-54.74 25.5 0 43.18 21.42 43.18 54.4 0 34.34-20.06 53.72-43.86 53.72Zm178.84 36.38c37.74 0 66.64-20.4 66.64-53.04 0-57.8-92.14-52.36-92.14-79.56 0-10.2 10.54-15.64 25.84-15.64 9.52 0 21.76 4.08 21.76 12.24v8.5h38.08v-18.02c0-28.22-37.4-36.04-60.86-36.04-36.04 0-67.32 15.98-67.32 50.66 0 56.1 91.46 55.76 91.46 80.24 0 11.56-10.2 17-23.46 17-29.58 0-51.68-25.5-51.68-25.5l-20.4 28.22s24.48 30.94 72.08 30.94Z"/></svg>