<svg xmlns="http://www.w3.org/2000/svg" xml:space="preserve" version="1.0" viewBox="0 0 600 450">
  <linearGradient id="a" x1="426.5456" x2="602.6903" y1="212.7078" y2="111.0067" gradientTransform="matrix(1 0 0 -1 -120.9449 379.3622)" gradientUnits="userSpaceOnUse">
    <stop offset="0" stop-color="#e20720"/>
    <stop offset=".33" stop-color="#d20f81"/>
    <stop offset=".72" stop-color="#383088"/>
    <stop offset="1" stop-color="#1493d2"/>
  </linearGradient>
  <path fill="url(#a)" d="M407.4 362.9c-6.4.2-12.8-.8-18.9-3-2.4-.8-3-1.7-1.8-4.2 11.4-23.8 22.6-47.6 34-71.4 1.2-2 1.2-4.5 0-6.4-18.9-29.5-37.7-59-56.5-88.6-1.2-1.9-2.1-2.1-3.7-.5-10.9 11.7-21.9 23.3-32.9 34.8-1.5 1.6-.8 2.6 0 3.9l27.6 41.5 21.2 32.1c.9 1.4 1.7 2.6-.6 3.4-14 5.6-29.6 5.4-43.5-.5-6.2-3-11.3-7.8-14.9-13.7-14-21.9-27.8-43.8-41.9-65.6-1.7-1.7-1.6-4.4.1-6.1.1-.1.3-.2.4-.3 17.7-19 35.3-38.2 52.7-57.4 15.8-17.4 35.1-21.1 57.1-16.1 1.9.5 3.5 1.8 4.3 3.5l47.4 77.1c1.4 2.2 2.6 4.4 4.1 6.4.4.6.6 1.8 1.5 1.7.9-.1 1.2-1.3 1.5-2.1l13.7-32.1c4.3-10.7 8.8-21.4 13.6-32.1 8.9-20.6 25.3-26.7 45.9-21.9 1.6.4 3.1 1 4.7 1.4 3.9 1.2 4.1 1.3 2.2 5-16.6 33.9-31.1 68.8-46.8 102.9-12.9 28.7-25.7 57.9-38.6 86.3-2.6 6.9-7.2 12.9-13.2 17.2-5.5 3.8-12.1 5.4-18.7 4.8z"/>
  <linearGradient id="b" x1="193.9381" x2="336.911" y1="193.9399" y2="111.3962" gradientTransform="matrix(1 0 0 -1 -120.9449 379.3622)" gradientUnits="userSpaceOnUse">
    <stop offset="0" stop-color="#ef7d06"/>
    <stop offset=".54" stop-color="#e31113"/>
    <stop offset="1" stop-color="#e50766"/>
  </linearGradient>
  <path fill="url(#b)" d="M139.8 308c-19.8-.3-37.4-1.5-54.9-3.2-4.6-.5-5-.8-5.2-5.3-.6-5.4-.3-10.8.8-16.1 1.9-10.5 11.2-18 21.9-17.7 10.5 0 21 1 31.4 1.5 8.6.8 17.2.7 25.7-.3 2.3-.3 4.5-1.1 6.4-2.4 3.8-1.9 5.4-6.5 3.6-10.3-.8-1.6-2-2.8-3.6-3.6-4.1-2.2-8.6-3.6-13.2-4.2-11.6-2.4-23.4-4.4-35-6.8-13.4-2.1-25.4-9.3-33.7-20-14.7-20-10.5-48.2 9.5-62.9.6-.5 1.3-.9 2-1.4 10.3-6.8 22.1-10.7 34.4-11.4 23.8-1.7 47.7-1 71.3 2.3 2.4 0 3.2 1.3 3.6 3.6 1 5.9.8 12-.6 17.8-1.9 10.3-11.1 17.6-21.5 17-10.7 0-21.3-1.2-32.1-1.4-6.7-.4-13.4-.2-20.1.8-2.8.4-5.5 1.4-8 3-3.1 1.7-4.3 5.5-2.7 8.7.6 1.2 1.5 2.1 2.7 2.7 3.6 1.9 7.5 3.2 11.6 3.7 13.6 2.7 27.5 4.6 41 8 11.9 2.6 22.7 9.1 30.5 18.4 14.5 17.6 13.6 55-15.4 69.9-10.8 5.4-22.6 8.4-34.7 8.8-5.2.6-10.5.8-15.7.8z"/>
  <linearGradient id="c" x1="314.5984" x2="428.5139" y1="213.5096" y2="147.8089" gradientTransform="matrix(1 0 0 -1 -120.9449 379.3622)" gradientUnits="userSpaceOnUse">
    <stop offset="0" stop-color="#ef7d06"/>
    <stop offset=".54" stop-color="#e31113"/>
    <stop offset="1" stop-color="#e50766"/>
  </linearGradient>
  <path fill="url(#c)" d="M272 190.5v95.9c1.3 9.8-5.6 18.8-15.4 20.1-.1 0-.3 0-.4.1-8.4 1.9-17.1 2.3-25.7 1.3-1.5.1-2.8-1.1-2.9-2.7V117.7c0-3 .3-6.1.9-9.1 1.5-9.7 8.9-17.4 18.6-19.3 6.9-1.7 14.1-2.1 21.2-1.2 3 .4 3.5 1.9 3.5 4.5v98l.2-.1z"/>
</svg>
