<svg xmlns="http://www.w3.org/2000/svg" viewBox="0 0 2500 632.6">
  <path fill-rule="evenodd" d="m799.8 498.1 31.2-72.5c33.7 25.2 78.6 38.3 122.9 38.3 32.7 0 53.4-12.6 53.4-31.7-.5-53.4-195.9-11.6-197.4-145.5-.5-68 59.9-120.4 145.5-120.4 50.9 0 101.7 12.6 138 41.3l-29.2 74c-33.2-21.2-74.5-36.3-113.8-36.3-26.7 0-44.3 12.6-44.3 28.7.5 52.4 197.4 23.7 199.4 151.6 0 69.5-58.9 118.4-143.5 118.4-62-.1-118.9-14.7-162.2-45.9m1198.1-98.7c-15.6 27.2-44.8 45.8-78.6 45.8-49.9 0-90.1-40.3-90.1-90.1s40.3-90.1 90.1-90.1c33.7 0 63 18.6 78.6 45.8L2084 263c-32.2-57.4-94.2-96.7-164.7-96.7-104.3 0-188.9 84.6-188.9 188.9s84.6 188.9 188.9 188.9c71 0 132.5-38.8 164.7-96.7zM1148.8 9.6h107.8v527.3h-107.8zm977.5 0v527.3h107.8V378.7L2362 536.9h138L2337.3 349l150.6-175.3h-132L2234 319.2V9.6z" clip-rule="evenodd"/>
  <path d="M1576.9 400.4c-15.6 25.7-47.8 44.8-84.1 44.8-49.9 0-90.1-40.3-90.1-90.1s40.3-90.1 90.1-90.1c36.3 0 68.5 20.1 84.1 46.3zm0-226.6v42.8c-17.6-29.7-61.4-50.4-107.3-50.4-94.7 0-169.2 83.6-169.2 188.4S1374.9 544 1469.6 544c45.8 0 89.6-20.6 107.3-50.4v42.8h107.8V173.8z"/>
  <g fill-rule="evenodd" clip-rule="evenodd">
    <path fill="#e01e5a" d="M133.5 399.9c0 36.8-29.7 66.5-66.5 66.5S.5 436.6.5 399.9s29.7-66.5 66.5-66.5h66.5zm33.2 0c0-36.8 29.7-66.5 66.5-66.5s66.5 29.7 66.5 66.5v166.2c0 36.8-29.7 66.5-66.5 66.5s-66.5-29.7-66.5-66.5z"/>
    <path fill="#36c5f0" d="M233.2 133c-36.8 0-66.5-29.7-66.5-66.5S196.4 0 233.2 0s66.5 29.7 66.5 66.5V133zm0 33.7c36.8 0 66.5 29.7 66.5 66.5s-29.7 66.5-66.5 66.5H66.5C29.7 299.7 0 269.9 0 233.2s29.7-66.5 66.5-66.5z"/>
    <path fill="#2eb67d" d="M499.6 233.2c0-36.8 29.7-66.5 66.5-66.5s66.5 29.7 66.5 66.5-29.7 66.5-66.5 66.5h-66.5zm-33.2 0c0 36.8-29.7 66.5-66.5 66.5s-66.5-29.7-66.5-66.5V66.5c0-36.8 29.7-66.5 66.5-66.5s66.5 29.7 66.5 66.5z"/>
    <path fill="#ecb22e" d="M399.9 499.6c36.8 0 66.5 29.7 66.5 66.5s-29.7 66.5-66.5 66.5-66.5-29.7-66.5-66.5v-66.5zm0-33.2c-36.8 0-66.5-29.7-66.5-66.5s29.7-66.5 66.5-66.5h166.7c36.8 0 66.5 29.7 66.5 66.5s-29.7 66.5-66.5 66.5z"/>
  </g>
</svg>
