<svg xmlns="http://www.w3.org/2000/svg" style="max-height:500px" viewBox="6.104 10.544 107.759 38.999"><path fill="#FFF" d="M45.2 29.57c-.106-6.514-3.734-12.843-9.348-16.18-4.422-2.754-10-3.495-15.04-2.224-7.573 1.907-13.6 8.765-14.38 16.577-.953 7.388 2.78 15.067 9.162 18.854 6.25 3.92 14.75 3.76 20.867-.37 5.508-3.575 8.924-10.1 8.74-16.656zm-18.377 17c-8.844.874-17.398-6.62-17.636-15.5-.662-7.203 4.078-14.326 10.857-16.7 9.506-3.813 21.184 3.23 22.164 13.426 1.536 9.162-6.1 18.483-15.385 18.775zm-5.826-17.555 12.8-10.46-6.9 10.486c-1.96 0-3.92 0-5.88-.026zm3.6 1.933 5.88.026-12.8 10.486 6.9-10.513zM51.065 35.91c.648.367 1.62.627 2.7.627 2.356 0 3.61-1.167 3.61-2.766-.022-1.318-.756-2.14-2.356-2.7-1.124-.41-1.556-.67-1.556-1.232 0-.54.432-.93 1.232-.93a3.8 3.8 0 0 1 1.88.52l.432-1.578c-.52-.28-1.36-.52-2.356-.52-2.053 0-3.35 1.2-3.35 2.788-.022 1.037.713 1.988 2.442 2.593 1.102.39 1.448.692 1.448 1.297 0 .583-.432.972-1.426.972-.8 0-1.772-.324-2.27-.627zm11.39-8.623c-2.68 0-4.582 1.794-4.582 4.7 0 2.83 1.923 4.56 4.43 4.56 2.248 0 4.538-1.448 4.538-4.71.022-2.68-1.75-4.538-4.387-4.538zm-.043 1.642c1.534 0 2.14 1.578 2.14 2.96 0 1.794-.886 3.047-2.16 3.047-1.36 0-2.204-1.297-2.204-3.004 0-1.47.627-3.004 2.226-3.004zm11.735 5.49a4.49 4.49 0 0 1-1.772.346c-1.534 0-2.7-1.037-2.7-2.853-.022-1.62.994-2.874 2.7-2.874.8 0 1.318.173 1.686.346l.41-1.664c-.52-.238-1.34-.41-2.16-.41-3.112 0-4.927 2.075-4.927 4.733 0 2.745 1.794 4.517 4.56 4.517 1.102 0 2.03-.238 2.507-.454zm3.436-10.978h-2.248v12.923h2.248V33.34l.756-.886 2.55 3.912h2.745l-3.74-5.23 3.285-3.63h-2.7l-2.14 2.853c-.238.303-.497.692-.713 1.037h-.043zM91.24 32.54c.043-.194.065-.52.065-.95 0-1.945-.95-4.322-3.825-4.322-2.83 0-4.322 2.312-4.322 4.776 0 2.7 1.686 4.473 4.56 4.473 1.275 0 2.334-.238 3.1-.54l-.324-1.556c-.67.26-1.426.41-2.464.41-1.426 0-2.68-.692-2.723-2.29zm-5.92-1.556c.086-.908.67-2.16 2.053-2.16 1.49 0 1.86 1.34 1.837 2.16zm7.413-5.49v2H91.48v1.664h1.275v4.17c0 1.167.216 1.967.692 2.464.41.454 1.102.735 1.923.735.713 0 1.297-.086 1.62-.216l-.043-1.707c-.194.065-.497.108-.864.108-.864 0-1.145-.562-1.145-1.642v-3.912h2.14v-1.664h-2.14v-2.55zM99 36.56c.843 0 1.383-.627 1.383-1.448 0-.864-.562-1.448-1.383-1.448-.8 0-1.383.605-1.383 1.448 0 .82.562 1.448 1.383 1.448zm4.668-.216v-8.86h-2.248v8.86zm-1.124-12.556c-.756 0-1.253.52-1.253 1.2 0 .67.497 1.2 1.232 1.2.778 0 1.275-.52 1.275-1.2-.022-.67-.497-1.2-1.253-1.2zm6.786 3.5c-2.68 0-4.582 1.794-4.582 4.7 0 2.83 1.923 4.56 4.43 4.56 2.248 0 4.538-1.448 4.538-4.71.022-2.68-1.75-4.538-4.387-4.538zm-.043 1.642c1.534 0 2.14 1.578 2.14 2.96 0 1.794-.886 3.047-2.16 3.047-1.36 0-2.204-1.297-2.204-3.004 0-1.47.627-3.004 2.226-3.004z"/></svg>