<svg xmlns="http://www.w3.org/2000/svg" width="328" height="319" viewBox="0 0 328 319"><style>.s0{fill:#f7f7a1}</style><path d="M110.46 24.54c41.98 0 78.62 22.9 98.1 56.88l-37.49 21.65C157.68 84 135.53 71.54 110.46 71.54c-12.02 0-23.36 2.87-33.4 7.95L54.04 39.62c16.6-9.59 35.87-15.08 56.42-15.08m108.1 268.53c-41.98 0-78.61-22.89-98.1-56.88l37.5-21.65c13.39 19.07 35.54 31.53 60.6 31.53 12.02 0 23.37-2.87 33.41-7.95l23.02 39.87c-16.61 9.59-35.88 15.08-56.43 15.08" class="s0"/><path d="M21.21 138.48c20.99-36.35 59.14-56.63 98.31-56.51v43.29c-23.2 2.06-45.07 15.02-57.6 36.72-6.01 10.41-9.21 21.67-9.82 32.91H6.06c-.01-19.18 4.88-38.61 15.15-56.41m286.6 40.65c-20.99 36.36-59.13 56.63-98.3 56.52l-.01-43.3c23.21-2.06 45.08-15.02 57.61-36.72 6.01-10.41 9.2-21.67 9.82-32.9h46.04c0 19.17-4.88 38.6-15.16 56.4" class="s0"/><path d="M75.26 272.75c-20.99-36.36-19.48-79.53.21-113.4l37.5 21.65c-9.82 21.12-9.54 46.54 3 68.25 6.01 10.4 14.16 18.8 23.58 24.95l-23.02 39.87c-16.6-9.58-30.99-23.53-41.27-41.32m178.5-227.88c20.99 36.35 19.48 79.53-.2 113.39l-37.5-21.65c9.82-21.12 9.53-46.54-3-68.24-6.01-10.41-14.17-18.81-23.59-24.96L212.5 3.54c16.6 9.58 30.99 23.53 41.26 41.33" class="s0"/><path d="M479 287.5q-29.05 0-53.9-7.35-24.85-7.7-42-20.65l13.65-35.35q17.15 12.25 37.45 18.9 20.65 6.65 44.8 6.65 27.65 0 40.25-9.1 12.6-9.45 12.6-24.15 0-12.25-9.1-19.25-8.75-7-30.45-11.55l-38.5-8.05q-65.8-14-65.8-67.55 0-23.1 12.25-40.25t33.95-26.6 50.05-9.45q25.2 0 47.25 7.7 22.05 7.35 36.75 21l-13.65 33.6q-29.05-24.5-70.7-24.5-24.15 0-37.8 10.15t-13.65 26.6q0 12.6 8.4 20.3 8.4 7.35 28.7 11.55l38.15 8.05q34.65 7.35 51.45 23.1 17.15 15.75 17.15 42 0 22.05-11.9 38.85t-33.95 26.25q-21.7 9.1-51.45 9.1m202.6 0q-26.6 0-46.2-10.85t-30.45-30.8q-10.85-20.3-10.85-47.6T604.95 151t30.45-30.8 46.2-10.85 46.2 10.85 30.45 30.8 10.85 47.25-10.85 47.6q-10.85 19.95-30.45 30.8t-46.2 10.85m0-33.25q19.6 0 31.5-14 11.9-14.35 11.9-42 0-28-11.9-41.65-11.9-14-31.5-14t-31.5 14q-11.9 13.65-11.9 41.65 0 27.65 11.9 42 11.9 14 31.5 14m176.11 33.25q-30.45 0-45.15-16.45-14.35-16.8-14.35-49V37.25h43.75v182.7q0 31.5 26.6 31.5 3.85 0 7.7-.35.93-.08 1.86-.21t1.85-.3q.92-.18 1.83-.4t1.81-.49l-.7 34.65q-12.6 3.15-25.2 3.15m109.36 0q-22.4 0-39.55-10.85-16.8-10.85-26.25-30.8-9.45-20.3-9.45-47.6 0-27.65 9.45-47.25 9.45-19.95 26.25-30.8 17.15-10.85 39.55-10.85 18.2 0 32.9 8.05t22.05 21.35V37.25h43.75V284h-42.7v-28.35q-7 14.7-22.05 23.45-15.05 8.4-33.95 8.4m12.25-33.25q19.6 0 31.5-14 11.9-14.35 11.9-42 0-28-11.9-41.65-11.9-14-31.5-14t-31.5 14q-11.9 13.65-11.9 41.65 0 27.65 11.9 42 11.9 14 31.5 14m209.16 33.25q-29.04 0-50.05-10.85-21-10.85-32.55-30.8-11.19-19.95-11.2-47.25 0-26.6 10.85-46.55 11.21-19.95 30.45-31.15 19.61-11.55 44.45-11.55 36.4 0 57.4 23.1 21.36 23.1 21.35 63v12.95h-122.5q4.91 45.85 52.5 45.85 14.36 0 28.7-4.2 14.36-4.55 26.25-14l12.25 29.4q-12.24 10.15-30.8 16.1-18.54 5.95-37.1 5.95m-6.3-148.4q-19.24 0-31.15 11.9-11.89 11.9-14.35 32.2h86.1q-1.4-21.35-11.9-32.55-10.14-11.55-28.7-11.55M1286.83 284V112.85h42.7v30.1q12.6-30.45 53.9-33.6l13.3-1.05 2.8 37.1-25.2 2.45q-43.05 4.2-43.05 44.1V284zm184.7 3.5q-18.55 0-33.25-7-14.35-7.35-22.75-19.6-8.05-12.25-8.05-27.65 0-18.9 9.8-29.75 9.8-11.2 31.85-16.1t59.15-4.9h12.25v-7.35q0-17.5-7.7-25.2t-25.9-7.7q-14.36 0-29.4 4.55-15.05 4.2-30.45 13.3l-12.6-29.75q9.1-6.3 21.35-10.85 12.6-4.9 26.25-7.35 13.99-2.8 26.25-2.8 37.45 0 55.65 17.5 18.2 17.15 18.2 53.55V284h-40.95v-27.3q-5.96 14.35-18.9 22.75-12.95 8.05-30.8 8.05m9.1-30.1q17.14 0 28.35-11.9 11.55-11.9 11.55-30.1v-7.7h-11.9q-32.9 0-45.85 5.25-12.6 4.9-12.6 18.2 0 11.55 8.05 18.9t22.4 7.35" style="fill:#fff"/></svg>