<svg xmlns="http://www.w3.org/2000/svg" width="1591" height="326" fill="#10543c" viewBox="0 0 1591 326"><path d="M117.463 28.543c41.982 0 78.615 22.894 98.099 56.878l-37.495 21.648c-13.386-19.064-35.54-31.526-60.604-31.526-12.019 0-23.368 2.866-33.403 7.951L61.038 43.618c16.604-9.588 35.874-15.075 56.425-15.075M225.562 297.069c-41.981 0-78.614-22.894-98.098-56.878l37.495-21.648c13.386 19.065 35.539 31.526 60.604 31.526 12.018 0 23.368-2.866 33.403-7.951l23.022 39.876c-16.604 9.588-35.874 15.075-56.426 15.075"/><path d="M28.213 142.483c20.99-36.357 59.134-56.635 98.307-56.517v43.296c-23.203 2.06-45.072 15.015-57.604 36.721-6.01 10.409-9.202 21.671-9.816 32.904H13.056c-.002-19.174 4.881-38.606 15.157-56.404M314.813 183.129c-20.991 36.357-59.134 56.636-98.307 56.517l-.001-43.296c23.204-2.06 45.073-15.015 57.605-36.721 6.009-10.408 9.202-21.671 9.816-32.903h46.044c.002 19.173-4.881 38.605-15.157 56.403"/><path d="M82.263 276.746c-20.99-36.357-19.48-79.529.208-113.395l37.496 21.648c-9.818 21.125-9.533 46.541 2.999 68.247 6.009 10.409 14.167 18.805 23.587 24.953l-23.022 39.876c-16.605-9.586-30.993-23.531-41.268-41.329M260.764 48.867c20.99 36.357 19.48 79.529-.209 113.395l-37.495-21.648c9.817-21.125 9.532-46.541-3-68.247-6.009-10.41-14.166-18.805-23.587-24.953l23.022-39.876c16.606 9.586 30.993 23.53 41.269 41.329"/><path d="M486 291.5q-29.05 0-53.9-7.35-24.85-7.7-42-20.65l13.65-35.35q17.15 12.25 37.45 18.9 20.65 6.65 44.8 6.65 27.65 0 40.25-9.1 12.6-9.45 12.6-24.15 0-12.25-9.1-19.25-8.75-7-30.45-11.55l-38.5-8.05q-65.8-14-65.8-67.55 0-23.1 12.25-40.25t33.95-26.6 50.05-9.45q25.2 0 47.25 7.7 22.05 7.35 36.75 21l-13.65 33.6q-29.05-24.5-70.7-24.5-24.15 0-37.8 10.15t-13.65 26.6q0 12.6 8.4 20.3 8.4 7.35 28.7 11.55l38.15 8.05q34.65 7.35 51.45 23.1 17.15 15.75 17.15 42 0 22.05-11.9 38.85t-33.95 26.25q-21.7 9.1-51.45 9.1m202.601 0q-26.601 0-46.2-10.85t-30.45-30.8q-10.85-20.3-10.85-47.6t10.85-47.25 30.45-30.8 46.2-10.85 46.2 10.85 30.45 30.8 10.85 47.25-10.85 47.6q-10.851 19.95-30.45 30.8-19.6 10.85-46.2 10.85m0-33.25q19.599 0 31.5-14 11.9-14.35 11.9-42 0-28-11.9-41.65-11.901-14-31.5-14-19.6 0-31.5 14-11.9 13.65-11.9 41.65 0 27.65 11.9 42 11.9 14 31.5 14m176.11 33.25q-30.45 0-45.15-16.45-14.35-16.8-14.35-49V41.25h43.75v182.7q0 31.5 26.6 31.5 3.85 0 7.7-.35a37.2 37.2 0 0 0 7.35-1.4l-.7 34.65q-12.6 3.15-25.2 3.15m109.359 0q-22.4 0-39.55-10.85-16.8-10.85-26.25-30.8-9.45-20.3-9.45-47.6 0-27.65 9.45-47.25 9.45-19.95 26.25-30.8 17.15-10.85 39.55-10.85 18.2 0 32.9 8.05t22.05 21.35V41.25h43.75V288h-42.7v-28.35q-7.005 14.7-22.05 23.45-15.05 8.4-33.95 8.4m12.25-33.25c13.066 0 23.57-4.667 31.5-14 7.93-9.567 11.9-23.567 11.9-42 0-18.667-3.97-32.55-11.9-41.65-7.93-9.333-18.434-14-31.5-14q-19.6 0-31.5 14-11.9 13.65-11.9 41.65 0 27.65 11.9 42 11.9 14 31.5 14m209.16 33.25c-19.36 0-36.05-3.617-50.05-10.85q-21-10.85-32.55-30.8c-7.46-13.3-11.2-29.05-11.2-47.25 0-17.733 3.62-33.25 10.85-46.55q11.205-19.95 30.45-31.15c13.07-7.7 27.89-11.55 44.45-11.55 24.27 0 43.4 7.7 57.4 23.1 14.24 15.4 21.35 36.4 21.35 63v12.95h-122.5q4.905 45.85 52.5 45.85c9.57 0 19.14-1.4 28.7-4.2q14.355-4.55 26.25-14l12.25 29.4c-8.16 6.767-18.43 12.133-30.8 16.1-12.36 3.967-24.73 5.95-37.1 5.95m-6.3-148.4c-12.83 0-23.21 3.967-31.15 11.9-7.93 7.933-12.71 18.667-14.35 32.2h86.1c-.93-14.233-4.9-25.083-11.9-32.55-6.76-7.7-16.33-11.55-28.7-11.55M1293.83 288V116.85h42.7v30.1c8.4-20.3 26.37-31.5 53.9-33.6l13.3-1.05 2.8 37.1-25.2 2.45q-43.05 4.2-43.05 44.1V288zm184.7 3.5c-12.37 0-23.45-2.333-33.25-7-9.57-4.9-17.15-11.433-22.75-19.6-5.37-8.167-8.05-17.383-8.05-27.65 0-12.6 3.27-22.517 9.8-29.75 6.53-7.467 17.15-12.833 31.85-16.1s34.42-4.9 59.15-4.9h12.25v-7.35c0-11.667-2.57-20.067-7.7-25.2s-13.77-7.7-25.9-7.7q-14.355 0-29.4 4.55-15.045 4.2-30.45 13.3l-12.6-29.75c6.07-4.2 13.18-7.817 21.35-10.85q12.6-4.9 26.25-7.35 13.995-2.8 26.25-2.8 37.455 0 55.65 17.5c12.13 11.433 18.2 29.283 18.2 53.55V288h-40.95v-27.3q-5.955 14.35-18.9 22.75c-8.63 5.367-18.9 8.05-30.8 8.05m9.1-30.1q17.145 0 28.35-11.9 11.55-11.9 11.55-30.1v-7.7h-11.9c-21.93 0-37.22 1.75-45.85 5.25q-12.6 4.9-12.6 18.2c0 7.7 2.68 14 8.05 18.9s12.83 7.35 22.4 7.35"/></svg>