<svg width="101" height="32" viewBox="0 0 101 32" fill="none" xmlns="http://www.w3.org/2000/svg">
<g clip-path="url(#clip0_28758_8837)">
<path d="M27.0972 13.9165C27.0972 11.3172 26.6253 8.8218 25.6895 6.49438C25.5056 6.57436 25.3536 6.64635 25.2577 6.69433C24.8338 6.91028 24.5938 7.37417 24.6498 7.84605C24.7618 8.81381 24.8338 9.94152 24.8338 10.9573C24.8338 15.7081 23.2981 20.2669 20.5148 23.7941C17.8835 27.1292 14.3484 29.2647 10.5013 29.8805C10.5093 29.8805 10.5253 29.8965 10.5333 29.8965C12.7808 31.1762 15.5321 31.2562 17.8515 30.1205C23.2821 27.4491 27.1052 21.1867 27.1052 13.9085H27.0972V13.9165Z" fill="#D3121D"/>
<path d="M28.1609 6.01446C27.801 6.00646 27.4651 6.03045 27.1532 6.07844C28.1209 8.54182 28.6168 11.1812 28.6168 13.9165C28.6168 22.0744 24.066 29.3286 17.4276 31.968C17.7635 31.992 18.0994 32 18.4434 32H18.4913C21.6905 32 24.7298 30.5283 26.7373 28.0409C29.2806 24.8897 30.8403 20.6588 30.8403 16.004C30.8403 12.4049 29.9205 8.95772 28.1689 6.01446H28.1609Z" fill="#D3121D"/>
<path d="M34.4313 16.0041C34.4313 13.8286 33.9995 11.7571 33.2156 9.86961C32.8557 8.99783 32.3519 8.19803 31.68 7.53419C31.3041 7.16629 30.9042 6.85436 30.4723 6.63042C30.3604 6.57443 30.2484 6.51845 30.1364 6.47046C31.5841 9.35774 32.3519 12.6369 32.3519 16.0041C32.3519 20.7309 30.8162 25.2818 28.0809 28.7689C31.944 25.8496 34.4393 21.2188 34.4393 16.0041H34.4313Z" fill="#D3121D"/>
<path d="M29.9127 4.85479C27.0014 1.86353 22.9384 0 18.4355 0C9.58976 0 2.34357 7.32617 2.43954 16.164C2.46354 18.3234 2.91143 20.3869 3.71123 22.2584C3.44729 22.2264 3.18336 22.2104 2.91942 22.2264C2.1996 22.2584 1.19186 22.0025 0.727972 21.8745C0.280084 21.7466 -0.14381 22.1145 0.048142 22.5464V22.5624C1.63974 26.2014 5.15886 28.5689 8.51802 28.5609C8.74197 28.5609 8.96591 28.5449 9.18986 28.5289C17.0599 27.929 23.3063 20.2829 23.3063 10.9733C23.3063 10.3894 23.2823 9.80555 23.2343 9.22169C23.2104 8.90177 22.8025 8.7898 22.6105 9.04574C20.435 11.925 17.2119 16.9958 13.1729 14.3564C11.6292 13.3407 10.7895 11.1652 11.2613 8.94176C12.1011 4.95876 16.748 2.34341 18.7875 3.15921C18.9474 3.22319 19.5233 3.45514 19.7152 3.97501C20.0112 4.77481 19.1154 5.43864 18.6515 6.85429C18.1556 8.3899 18.4355 10.0215 18.7875 10.0855C19.1714 10.1655 19.8272 8.74181 21.4348 7.43814C22.6025 6.50237 23.4823 6.23044 24.0341 5.23869C24.57 4.27893 23.6183 3.23919 23.9382 3.15121C24.2661 3.05524 24.562 4.18295 25.5218 4.73482C26.3216 5.1987 27.0414 4.91077 28.0971 4.87078C28.0971 4.87078 28.545 4.85479 29.2728 4.95876C29.2728 4.95876 29.4808 4.99075 29.8087 5.05474C29.9207 5.07873 30.0007 4.93477 29.9207 4.85479H29.9127ZM17.9877 17.1877C18.1076 17.0517 18.3316 16.7878 18.7155 16.7478C18.7875 16.7478 19.1714 16.7078 19.4273 16.9478C19.8032 17.3077 19.6992 18.0035 19.3633 18.4034C19.0514 18.7713 18.4435 19.0192 18.0117 18.7393C17.6517 18.5074 17.6357 18.0115 17.6357 17.9715C17.6357 17.5876 17.8597 17.3237 17.9797 17.1877H17.9877Z" fill="#290042"/>
<path d="M43.5491 23.498C42.7653 23.1541 42.1494 22.6662 41.7015 22.0344C41.3016 21.4745 41.0857 20.8347 41.0377 20.1149C41.0297 19.9629 41.1577 19.827 41.3176 19.827H42.3494C42.9572 19.827 43.5571 20.1389 43.821 20.6907C43.949 20.9467 44.1169 21.1786 44.3409 21.3866C44.7808 21.7945 45.4046 21.9944 46.2044 21.9944C47.0042 21.9944 47.676 21.7945 48.1399 21.3946C48.6038 20.9947 48.8358 20.4828 48.8358 19.8509C48.8358 19.3631 48.6918 18.9632 48.4039 18.6512C48.1159 18.3393 47.756 18.1074 47.3321 17.9394C46.9082 17.7715 46.3164 17.5875 45.5566 17.3956C44.6048 17.1396 43.829 16.8837 43.2292 16.6278C42.6293 16.3718 42.1254 15.9639 41.7015 15.4201C41.2776 14.8762 41.0697 14.1484 41.0697 13.2366C41.0697 12.3968 41.2776 11.661 41.7015 11.0291C42.1254 10.3973 42.7093 9.91743 43.4691 9.58151C44.2289 9.24559 45.1007 9.07764 46.1004 9.07764C47.5161 9.07764 48.6758 9.42955 49.5796 10.1414C50.4114 10.7892 50.8992 11.661 51.0512 12.7487C51.0752 12.9087 50.9392 13.0526 50.7793 13.0526H48.6758C48.5398 13.0526 48.4359 12.9487 48.4039 12.8207C48.3159 12.3888 48.0759 12.0129 47.676 11.685C47.2122 11.3091 46.6043 11.1171 45.8445 11.1171C45.1567 11.1171 44.5968 11.2931 44.1649 11.645C43.733 11.9969 43.5091 12.5008 43.5091 13.1566C43.5091 13.6045 43.6451 13.9724 43.917 14.2603C44.1889 14.5483 44.5408 14.7722 44.9567 14.9402C45.3726 15.1081 45.9485 15.2921 46.6843 15.484C47.6521 15.748 48.4439 16.0199 49.0517 16.2838C49.6596 16.5478 50.1794 16.9637 50.6113 17.5155C51.0352 18.0674 51.2512 18.8112 51.2512 19.731C51.2512 20.4748 51.0512 21.1786 50.6513 21.8344C50.2514 22.4903 49.6676 23.0262 48.9077 23.4181C48.1479 23.818 47.2442 24.0179 46.2044 24.0179C45.2207 24.0179 44.3409 23.8419 43.5571 23.506H43.5491V23.498Z" fill="#290042"/>
<path d="M55.834 23.3062C54.9543 22.8103 54.2584 22.1065 53.7546 21.2027C53.2507 20.2989 52.9948 19.2512 52.9948 18.0595C52.9948 16.8678 53.2507 15.836 53.7706 14.9243C54.2904 14.0125 54.9942 13.3087 55.898 12.8208C56.7938 12.3329 57.8015 12.085 58.9053 12.085C60.009 12.085 61.0167 12.3329 61.9125 12.8208C62.8083 13.3087 63.5201 14.0125 64.04 14.9243C64.5599 15.836 64.8158 16.8838 64.8158 18.0595C64.8158 19.2352 64.5519 20.2829 64.016 21.1947C63.4801 22.1065 62.7603 22.8103 61.8405 23.3062C60.9208 23.802 59.913 24.05 58.8013 24.05C57.6896 24.05 56.7218 23.802 55.834 23.3062ZM60.5289 21.5306C61.0647 21.2347 61.5046 20.7948 61.8405 20.2029C62.1765 19.6111 62.3444 18.8993 62.3444 18.0595C62.3444 17.2197 62.1845 16.5079 61.8565 15.924C61.5366 15.3401 61.1047 14.9003 60.5769 14.6123C60.041 14.3164 59.4651 14.1724 58.8493 14.1724C58.2334 14.1724 57.6576 14.3164 57.1377 14.6123C56.6098 14.9083 56.194 15.3481 55.882 15.924C55.5701 16.5079 55.4181 17.2197 55.4181 18.0595C55.4181 19.3072 55.7381 20.2749 56.3779 20.9547C57.0177 21.6346 57.8175 21.9705 58.7853 21.9705C59.4011 21.9705 59.977 21.8265 60.5209 21.5306H60.5289Z" fill="#290042"/>
<path d="M80.3078 14.9243C80.7957 14.0285 81.4516 13.3327 82.2833 12.8288C83.1151 12.3249 84.0429 12.085 85.0507 12.085C85.9624 12.085 86.7542 12.2609 87.4341 12.6208C88.1139 12.9807 88.6578 13.4206 89.0657 13.9565V13.9165C89.0657 13.0127 89.8015 12.2769 90.7052 12.2769H91.2091C91.3611 12.2769 91.481 12.3969 91.481 12.5488V23.5861C91.481 23.738 91.3611 23.858 91.2091 23.858H89.3376C89.1856 23.858 89.0657 23.738 89.0657 23.5861V22.1384C88.6578 22.6823 88.1059 23.1382 87.4021 23.5061C86.6982 23.874 85.8984 24.05 85.0027 24.05C84.0029 24.05 83.0911 23.794 82.2674 23.2822C81.4436 22.7703 80.7877 22.0585 80.2998 21.1387C79.82 20.2189 79.572 19.1792 79.572 18.0195C79.572 16.8598 79.812 15.828 80.2998 14.9243H80.3078ZM88.5698 15.972C88.2419 15.3801 87.81 14.9323 87.2741 14.6283C86.7382 14.3164 86.1624 14.1644 85.5465 14.1644C84.9307 14.1644 84.3548 14.3164 83.819 14.6203C83.2831 14.9243 82.8512 15.3641 82.5233 15.948C82.1954 16.5319 82.0274 17.2197 82.0274 18.0195C82.0274 18.8193 82.1954 19.5231 82.5233 20.123C82.8512 20.7228 83.2831 21.1867 83.827 21.4986C84.3628 21.8105 84.9387 21.9705 85.5385 21.9705C86.1384 21.9705 86.7302 21.8185 87.2661 21.5066C87.802 21.1947 88.2259 20.7468 88.5618 20.1469C88.8897 19.5551 89.0577 18.8513 89.0577 18.0515C89.0577 17.2517 88.8897 16.5558 88.5618 15.972H88.5698Z" fill="#290042"/>
<path d="M98.5913 12.5807C99.1032 12.2927 99.6951 12.1328 100.375 12.0928C100.527 12.0928 100.663 12.2127 100.663 12.3727V14.5722H100.055C99.1192 14.5722 98.4074 14.8121 97.9195 15.284C97.4316 15.7639 97.1917 16.5876 97.1917 17.7634V23.5859C97.1917 23.7379 97.0717 23.8578 96.9198 23.8578H95.0722C94.9203 23.8578 94.8003 23.7379 94.8003 23.5859V12.5487C94.8003 12.3967 94.9203 12.2767 95.0722 12.2767H95.5601C96.4639 12.2767 97.1997 13.0125 97.1997 13.9163V13.9563C97.5516 13.3645 98.0155 12.9086 98.5993 12.5807H98.5913Z" fill="#290042"/>
<path d="M76.8368 14.3324C76.4289 13.5886 75.869 13.0287 75.1412 12.6528C74.4134 12.2769 73.6056 12.085 72.6938 12.085C72.6138 12.085 72.5339 12.093 72.4539 12.093H72.4299C72.3899 12.093 72.3579 12.101 72.3179 12.101C72.2219 12.101 72.134 12.117 72.046 12.1329C71.982 12.1409 71.91 12.1489 71.846 12.1649C71.7341 12.1889 71.6221 12.2049 71.5101 12.2369C71.4941 12.2369 71.4701 12.2449 71.4541 12.2529C71.1662 12.3329 70.8943 12.4449 70.6463 12.5808C70.0625 12.9088 69.5986 13.3726 69.2467 13.9565V13.9165C69.2467 13.0127 68.5109 12.2769 67.6071 12.2769H67.1192C66.9673 12.2769 66.8473 12.3969 66.8473 12.5488V23.5861C66.8473 23.738 66.9673 23.858 67.1192 23.858H68.9668C69.1187 23.858 69.2387 23.738 69.2387 23.5861V17.3876C69.2387 16.3479 69.5026 15.5561 70.0305 15.0042C70.5584 14.4524 71.2702 14.1724 72.166 14.1724C73.0617 14.1724 73.7736 14.4524 74.2934 15.0042C74.8133 15.5561 75.0692 16.3559 75.0692 17.3876V23.5941C75.0692 23.746 75.1892 23.866 75.3412 23.866H77.1727C77.3247 23.866 77.4446 23.746 77.4446 23.5941V17.0357C77.4446 15.988 77.2447 15.0842 76.8368 14.3404V14.3324Z" fill="#290042"/>
</g>
<defs>
<clipPath id="clip0_28758_8837">
<rect width="100.663" height="32" fill="white"/>
</clipPath>
</defs>
</svg>
