<svg width="99" height="91" viewBox="0 0 99 91" fill="none" xmlns="http://www.w3.org/2000/svg">
<mask id="mask0_217_156" style="mask-type:luminance" maskUnits="userSpaceOnUse" x="0" y="0" width="99" height="91">
<path d="M99 0H0V90.5143H99V0Z" fill="white"/>
</mask>
<g mask="url(#mask0_217_156)">
<path d="M76.6464 39.3638C76.6464 32.0115 75.3116 24.9531 72.6646 18.3698C72.1444 18.596 71.7145 18.7997 71.4432 18.9354C70.2442 19.5462 69.5653 20.8584 69.7237 22.1931C70.0405 24.9305 70.2442 28.1203 70.2442 30.9935C70.2442 44.4315 65.9003 57.3264 58.0276 67.3033C50.5848 76.7369 40.5855 82.7773 29.7037 84.5191C29.7263 84.5191 29.7716 84.5644 29.7942 84.5644C36.1514 88.1841 43.9337 88.4104 50.4942 85.198C65.8551 77.6417 76.669 59.9281 76.669 39.3412H76.6464V39.3638Z" fill="#D3121D"/>
<path d="M79.6552 17.0123C78.6372 16.9897 77.6871 17.0575 76.8048 17.1933C79.5421 24.1611 80.9447 31.6268 80.9447 39.3638C80.9447 62.439 68.0725 82.958 49.2953 90.4237C50.2454 90.4916 51.1955 90.5142 52.1685 90.5142H52.304C61.3532 90.5142 69.9501 86.3514 75.6284 79.3156C82.8223 70.4023 87.2341 58.4348 87.2341 45.2684C87.2341 35.0881 84.6323 25.3375 79.6778 17.0123H79.6552Z" fill="#D3121D"/>
<path d="M97.3914 45.2688C97.3914 39.1152 96.17 33.2558 93.9527 27.9169C92.9347 25.451 91.5097 23.1887 89.6091 21.311C88.5459 20.2704 87.4147 19.3881 86.1931 18.7546C85.8766 18.5963 85.5598 18.4379 85.243 18.3022C89.3379 26.4691 91.5097 35.7444 91.5097 45.2688C91.5097 58.6389 87.1658 71.5114 79.4288 81.3749C90.3559 73.1175 97.414 60.0189 97.414 45.2688H97.3914Z" fill="#D3121D"/>
<path d="M84.6101 13.7321C76.3753 5.27113 64.8828 0 52.1461 0C27.1253 0 6.6289 20.7226 6.90036 45.721C6.96824 51.829 8.23513 57.6658 10.4974 62.9595C9.75085 62.869 9.0043 62.8237 8.25773 62.869C6.22167 62.9595 3.3712 62.2356 2.05906 61.8736C0.79218 61.5118 -0.406834 62.5524 0.136116 63.7741V63.8194C4.63806 74.1125 14.5921 80.8092 24.0938 80.7865C24.7272 80.7865 25.3607 80.7413 25.9941 80.696C48.2551 78.9992 65.9235 57.3716 65.9235 31.0388C65.9235 29.3872 65.8556 27.7357 65.7198 26.0842C65.6522 25.1793 64.4984 24.8626 63.9554 25.5865C57.8018 33.7307 48.685 48.0738 37.2604 40.6081C32.894 37.7351 30.5188 31.5816 31.8533 25.2924C34.2288 14.0262 47.3729 6.6285 53.1417 8.93605C53.594 9.11702 55.223 9.77311 55.7658 11.2436C56.6031 13.5059 54.0692 15.3836 52.757 19.3878C51.3544 23.7314 52.1461 28.3465 53.1417 28.5276C54.2276 28.7538 56.0826 24.7268 60.6298 21.0393C63.9327 18.3924 66.4213 17.6232 67.9821 14.818C69.4979 12.1033 66.806 9.16228 67.7108 8.91342C68.6383 8.64197 69.4753 11.8318 72.1902 13.3928C74.4525 14.7049 76.4885 13.8905 79.4746 13.7773C79.4746 13.7773 80.7415 13.7321 82.8001 14.0262C82.8001 14.0262 83.3885 14.1167 84.316 14.2977C84.6328 14.3656 84.8591 13.9584 84.6328 13.7321H84.6101ZM50.8794 48.6166C51.2186 48.232 51.8522 47.4855 52.9381 47.3724C53.1417 47.3724 54.2276 47.2592 54.9514 47.9381C56.0147 48.9561 55.7205 50.9242 54.7704 52.0553C53.8882 53.096 52.1687 53.7972 50.9473 53.0055C49.929 52.3495 49.8838 50.9468 49.8838 50.8337C49.8838 49.7478 50.5174 49.0013 50.8568 48.6166H50.8794Z" fill="#290042"/>
</g>
</svg>
