<svg width="287" height="51" viewBox="0 0 287 51" fill="none" xmlns="http://www.w3.org/2000/svg">
<g clip-path="url(#clip0_1060_895)">
<path d="M218.299 2.84791V8.51467H223.781C226.174 8.51467 227.747 10.0394 228.643 11.0242C229.36 11.8353 245.145 29.906 245.523 30.3809C245.903 30.8566 245.903 30.8618 245.903 31.1638V40.1178C245.902 40.5284 245.861 40.9379 245.782 41.3405C245.67 41.6005 245.503 41.8326 245.293 42.0208C245.083 42.2091 244.835 42.3489 244.566 42.4306C244.048 42.4962 243.526 42.5291 243.004 42.529L237.517 42.5221V48.1898H268.294V42.5221H262.503C261.984 42.5249 261.466 42.4917 260.952 42.4229C260.683 42.3419 260.436 42.2024 260.227 42.0142C260.018 41.826 259.852 41.5937 259.742 41.3337C259.661 40.9312 259.619 40.5217 259.616 40.111V31.1621C259.582 30.868 259.655 30.5714 259.822 30.3279L276.898 10.6589C278.466 8.89629 279.281 8.51384 281.336 8.51384H287.001V2.84619H261.637V8.50185H265.464C265.67 8.48931 265.874 8.53654 266.054 8.63794C266.233 8.73935 266.38 8.89066 266.477 9.07387C266.573 9.25709 266.616 9.46453 266.599 9.67149C266.583 9.87844 266.508 10.0762 266.383 10.2413C266.302 10.3568 255.764 22.8694 255.632 22.9909C255.499 23.1124 255.415 23.0833 255.316 22.9507C255.219 22.8172 244.807 10.2413 244.807 10.2413C244.072 9.33094 244.646 8.50271 245.507 8.50271H249.238V2.84705L218.299 2.84791Z" fill="#0F0F0F"/>
<path d="M142.814 2.84766V8.51441H147.727C151.274 8.51441 151.516 10.5089 151.516 12.2475V38.7734C151.516 40.3606 151.607 42.5399 149.346 42.5399H143.284V48.2015H169.166V42.5399H162.853C160.333 42.5399 160.217 41.3762 160.189 38.9009V16.1765L195.737 48.2023H204.777L204.3 12.0327C204.347 9.38971 204.507 8.5093 207.216 8.5093H212.881V2.84766H186.478V8.5093H192.276C194.939 8.5093 195.386 9.54629 195.42 12.0327L195.737 30.9607L164.878 2.84766H142.814Z" fill="#0F0F0F"/>
<path d="M26.2642 -0.00390625C20.7025 -0.00390625 14.3832 1.05107 9.04438 3.47333C4.06148 5.7219 0.00394294 9.33263 0.00394294 15.3185C-0.00368139 18.4539 1.17735 21.4734 3.30471 23.7575C4.74535 25.1017 7.06984 27.3853 13.1434 28.7295C15.8577 29.3096 21.6609 30.2422 27.4413 30.8566C33.2208 31.4709 38.824 32.016 41.1189 32.6363C42.9451 33.1052 46.0153 33.7435 46.0153 37.2207C46.0153 40.6979 42.784 41.7401 42.2213 41.9668C41.6595 42.1927 37.7782 43.9895 30.8098 43.9895C26.193 43.86 21.6182 43.0657 17.2238 41.6306C14.6239 40.6911 11.8977 39.4573 9.35451 36.3214C8.32816 34.8451 7.7587 33.0945 7.71814 31.2913H1.40476V49.1412H8.41894V46.7249C8.41797 46.5457 8.46427 46.3695 8.55311 46.2144C8.64196 46.0593 8.77013 45.9308 8.92443 45.8423C9.07874 45.7538 9.25365 45.7083 9.43111 45.7107C9.60857 45.713 9.78221 45.7631 9.93417 45.8556C13.2386 47.3074 16.6758 48.4293 20.1966 49.2054C23.8821 49.9814 26.2642 50.5444 30.8446 50.5444C35.6778 50.637 40.4948 49.9501 45.1136 48.5097C48.1808 47.6608 51.0585 46.2266 53.5913 44.2847C55.0159 43.1798 56.1674 41.7566 56.9552 40.1266C57.743 38.4967 58.1458 36.7045 58.1319 34.8909C58.1564 31.4449 56.8396 28.1271 54.465 25.6519C53.1444 24.3582 51.6145 23.302 49.9414 22.5289C48.1429 21.7085 46.2757 21.0511 44.3619 20.5643C40.7231 19.6659 32.5496 18.5417 28.6413 18.1472C24.5422 17.7194 17.4297 17.1213 14.5891 16.2349C13.7281 15.962 11.9714 15.1226 11.9714 13.0648C11.9714 11.5992 12.7748 10.3585 14.3595 9.35571C16.8789 7.76255 21.9651 6.77089 27.2684 6.77089C32.4022 6.70806 37.494 7.71198 42.2273 9.72023C43.4988 10.2798 44.6945 11.0006 45.7856 11.8653C47.5644 13.3993 48.7961 15.4797 49.2923 17.7879H54.9583V2.25066H48.6449V4.05258C48.6449 4.63269 48.0703 5.39763 46.922 4.76618C44.0747 3.27056 36.074 0.0371635 26.2642 -0.00390625Z" fill="#0F0F0F"/>
<path d="M102.253 0.000488281C92.3056 0.000488281 81.7431 3.47772 75.7738 8.95368C73.498 11.0458 71.6813 13.5958 70.4406 16.4396C69.1998 19.2834 68.5626 22.358 68.5698 25.4654C68.5342 28.5856 69.1582 31.6776 70.4004 34.5349C71.6425 37.3921 73.4742 39.9489 75.773 42.0345C82.2025 47.8699 91.8462 50.9997 102.253 50.9997C112.676 50.9997 122.526 47.9049 128.8 42.0345C131.031 39.9 132.81 37.3315 134.032 34.4839C135.253 31.6362 135.89 28.5684 135.905 25.4654C135.936 22.3656 135.319 19.2941 134.095 16.4512C132.871 13.6083 131.067 11.0579 128.8 8.96653C122.067 2.80008 113.256 0.000488281 102.253 0.000488281ZM102.253 6.62984C107.694 6.62984 112.935 8.60632 116.464 12.1135C119.879 15.5095 121.664 20.3078 121.664 25.4424C121.664 30.8208 120.04 35.1793 116.465 38.772C112.889 42.3656 107.769 44.2891 102.253 44.2891C96.7766 44.2891 91.5471 42.3246 88.0176 38.772C86.3292 37.0034 85.0037 34.9153 84.1171 32.6277C83.2306 30.3401 82.8005 27.8983 82.8516 25.4424C82.8516 20.3309 84.6134 15.5155 88.0176 12.1135C91.5471 8.58921 96.8114 6.62984 102.253 6.62984Z" fill="#0F0F0F"/>
</g>
<defs>
<clipPath id="clip0_1060_895">
<rect width="287" height="51" fill="white"/>
</clipPath>
</defs>
</svg>
