<svg xmlns="http://www.w3.org/2000/svg" viewBox="0 0 75 33.51"><g data-name="Layer 2"><path d="M75 23.6a10.5 10.5 0 0 1-10.63 9.91H38.82a2.14 2.14 0 0 1-2.12-2.13V3.87a2.34 2.34 0 0 1 1.41-2.24S40.46 0 45.41 0A16.74 16.74 0 0 1 54 2.36a17 17 0 0 1 8 11.08 9.8 9.8 0 0 1 2.71-.37A10.23 10.23 0 0 1 75 23.6ZM33.51 5.61a.83.83 0 1 0-1.65 0c-.7 9.25-1.24 17.92 0 27.14a.83.83 0 0 0 1.65 0c1.33-9.3.77-17.81 0-27.14ZM28.35 8.81a.87.87 0 0 0-1.73 0 103.7 103.7 0 0 0 0 23.95.87.87 0 0 0 1.72 0 93.2 93.2 0 0 0 .01-23.95ZM23.16 8a.84.84 0 0 0-1.67 0c-.79 8.44-1.19 16.32 0 24.74a.83.83 0 0 0 1.66 0c1.23-8.53.85-16.19.01-24.74ZM18 10.41a.86.86 0 0 0-1.72 0 87.61 87.61 0 0 0 0 22.36.85.85 0 0 0 1.69 0A81.68 81.68 0 0 0 18 10.41ZM12.79 16a.85.85 0 0 0-1.7 0c-1.23 5.76-.65 11 .05 16.83a.81.81 0 0 0 1.6 0c.77-5.91 1.36-11.03.05-16.83ZM7.62 15.12a.88.88 0 0 0-1.75 0C4.78 21 5.14 26.18 5.9 32.05c.08.89 1.59.88 1.69 0 .84-5.96 1.23-10.99.03-16.93ZM2.4 18a.88.88 0 0 0-1.75 0c-1 3.95-.69 7.22.07 11.18a.82.82 0 0 0 1.63 0c.88-4.04 1.31-7.24.05-11.18Z"/></g></svg>