<svg xmlns="http://www.w3.org/2000/svg" viewBox="0 0 168 20.03"><g data-name="Layer 2"><path d="M57.7 16a5 5 0 0 1-4.29-2.12L55 12.41a3.51 3.51 0 0 0 2.83 1.33c1.31 0 1.93-.38 1.93-1.26s-.38-1.08-2.47-1.58-3.46-1.18-3.46-3.48c0-2.12 1.77-3.41 4-3.41a5.16 5.16 0 0 1 4 1.83l-1.6 1.63a3.28 3.28 0 0 0-2.51-1.2c-1.18 0-1.58.53-1.58 1.05 0 .73.48 1 2.23 1.4s3.7 1.06 3.7 3.59C62.05 14.53 60.72 16 57.7 16ZM68.94 16c-2.89 0-4.86-2.24-4.86-6s2-6 4.89-6 4.85 2.23 4.85 6-2.01 6-4.88 6Zm0-9.71c-1.54 0-2.57 1.31-2.57 3.68s1.07 3.71 2.62 3.71 2.56-1.28 2.56-3.68-1.08-3.68-2.63-3.68ZM81 16c-2.66 0-4.46-1.9-4.46-5.3V4.19h2.21v6.51c0 1.86.85 3 2.25 3s2.28-1.14 2.28-3V4.19h2.21v6.51c.03 3.38-1.64 5.3-4.49 5.3ZM95.92 15.84l-4.06-6.36c-.27-.43-.63-1-.78-1.31v7.67h-2.14V4.19h2.11L95 10.35c.27.43.63 1 .77 1.31V4.19h2.18v11.65ZM104.68 15.84h-3.3V4.19h3.46c3.16 0 5.49 1.56 5.49 5.83 0 4.09-2.81 5.82-5.65 5.82Zm.08-9.39h-1.17v7.13h1.09c2.32 0 3.38-1.43 3.38-3.56 0-2.39-.96-3.57-3.3-3.57ZM119.93 7.59a2.1 2.1 0 0 0-2-1.27c-1.66 0-2.61 1.53-2.61 3.7s1 3.69 2.62 3.69a2.32 2.32 0 0 0 2.17-1.48L122 13.4a4.23 4.23 0 0 1-4.14 2.6C115 16 113 13.69 113 10s2-6 4.91-6a4.15 4.15 0 0 1 4 2.58ZM125.15 15.84V4.19h2.22v9.35h5.54v2.3ZM138.92 16c-2.89 0-4.86-2.24-4.86-6s2-6 4.89-6 4.85 2.23 4.85 6-2 6-4.88 6Zm0-9.71c-1.55 0-2.58 1.31-2.58 3.68s1.08 3.71 2.62 3.71 2.58-1.31 2.58-3.68-1.08-3.68-2.63-3.68ZM151 16c-2.67 0-4.47-1.9-4.47-5.3V4.19h2.21v6.51c0 1.86.85 3 2.26 3s2.27-1.14 2.27-3V4.19h2.21v6.51c.02 3.38-1.65 5.3-4.48 5.3ZM162.35 15.91h-3.3V4.26h3.45c3.16 0 5.5 1.56 5.5 5.82 0 4.1-2.81 5.83-5.65 5.83Zm.08-9.39h-1.17v7.13h1.09c2.32 0 3.38-1.44 3.38-3.57 0-2.38-.97-3.56-3.3-3.56ZM44.83 14.1a6.27 6.27 0 0 1-6.35 5.9H23.2a1.27 1.27 0 0 1-1.26-1.27V2.32A1.39 1.39 0 0 1 22.78 1a8.08 8.08 0 0 1 4.36-1 10.06 10.06 0 0 1 5.17 1.41A10.2 10.2 0 0 1 37.11 8a5.47 5.47 0 0 1 1.62-.23 6.1 6.1 0 0 1 6.1 6.33ZM20 3.35a.5.5 0 1 0-1 0 76.38 76.38 0 0 0 0 16.21.5.5 0 0 0 1 0c.82-5.56.49-10.63 0-16.21ZM17 5.27a.52.52 0 0 0-1 0 62.26 62.26 0 0 0 0 14.31.51.51 0 0 0 1 0 55.73 55.73 0 0 0 0-14.31ZM13.85 4.78a.5.5 0 0 0-1 0 62 62 0 0 0 0 14.79.5.5 0 0 0 1 0 59.51 59.51 0 0 0 0-14.79ZM10.77 6.22a.52.52 0 0 0-1 0 52.48 52.48 0 0 0 0 13.37.51.51 0 0 0 1 0 49.07 49.07 0 0 0 0-13.37ZM7.65 9.55a.51.51 0 0 0-1 0c-.74 3.44-.39 6.6 0 10.06a.48.48 0 0 0 1 0c.42-3.52.78-6.61 0-10.06ZM4.56 9a.53.53 0 0 0-1 0 31 31 0 0 0 0 10.12.51.51 0 0 0 1 0A28.21 28.21 0 0 0 4.56 9ZM1.44 10.74a.53.53 0 0 0-1 0 14.1 14.1 0 0 0 0 6.68.49.49 0 0 0 1 0 11.86 11.86 0 0 0 0-6.68Z"/></g></svg>