<svg xmlns="http://www.w3.org/2000/svg" viewBox="5.155200004577637 11.322288513183594 109.68833923339844 37.35857009887695"><path fill="#68bd45" d="M39.17 13.265a17.24 17.24 0 0 1-1.998 3.544c-4.778-4.776-11.755-6.613-18.265-4.8S7.357 18.966 5.717 25.52 6.086 39 10.98 43.66l.693.612a18.75 18.75 0 0 0 30.781-13.005c.51-4.775-.89-10.817-3.284-18zM13.647 43.767a1.603 1.603 0 1 1-.238-2.253c.687.557.793 1.566.236 2.254zm25.444-5.616c-4.628 6.165-14.51 4.086-20.847 4.384 0 0-1.123.066-2.254.252 0 0 .426-.182.972-.387 4.45-1.55 6.553-1.847 9.256-3.238 5.09-2.587 10.123-8.253 11.17-14.143-1.936 5.666-7.815 10.538-13.167 12.517-3.668 1.352-10.294 2.668-10.294 2.668l-.267-.143C9.15 37.87 9.01 28.106 17.2 24.957c3.6-1.383 7.025-.624 10.902-1.55 4.14-.984 8.93-4.086 10.88-8.133 2.18 6.475 4.806 16.6.097 22.88z"></path><g fill="#68bd45" transform="translate(11.198 16.054) scale(.57047)"><path d="M61.807 35.152a2.11 2.11 0 0 1-1.019-1.906 2.197 2.197 0 0 1 2.227-2.222 2.401 2.401 0 0 1 1.177.316 12.656 12.656 0 0 0 6.902 2.314c2.36 0 3.72-1.02 3.72-2.6v-.087c0-1.86-2.55-2.498-5.357-3.36-3.537-1.02-7.488-2.452-7.488-7.034v-.092c0-4.542 3.767-7.3 8.533-7.3a16.505 16.505 0 0 1 7.493 1.957 2.335 2.335 0 0 1 1.315 2.09 2.212 2.212 0 0 1-2.268 2.227 2.131 2.131 0 0 1-1.086-.275c-1.952-1.02-3.95-1.636-5.607-1.636-2.13 0-3.36 1.02-3.36 2.36v.092c0 1.77 2.6 2.498 5.403 3.405 3.497 1.1 7.442 2.676 7.442 6.988v.092c0 5.036-3.904 7.53-8.895 7.53a16.377 16.377 0 0 1-9.134-2.86zm20.1-19.196a2.712 2.712 0 0 1 2.717-2.768 2.752 2.752 0 0 1 2.768 2.768v1.662c1.77-2.498 4.266-4.496 8.155-4.496 5.607 0 11.117 4.445 11.117 12.437v.092c0 7.94-5.45 12.432-11.117 12.432-4 0-6.5-1.998-8.155-4.22v8.46a2.747 2.747 0 0 1-5.495 0zm19.2 9.685v-.092c0-4.628-3.135-7.646-6.856-7.646s-6.988 3.1-6.988 7.646v.092c0 4.587 3.267 7.646 6.988 7.646s6.856-2.926 6.856-7.66zm7.66-9.68a2.712 2.712 0 0 1 2.722-2.768 2.747 2.747 0 0 1 2.768 2.768v1.32c.275-2.04 3.634-4.078 6.035-4.078a2.549 2.549 0 0 1 2.722 2.722 2.579 2.579 0 0 1-2.176 2.635c-3.904.678-6.58 4.078-6.58 8.823v7.9a2.737 2.737 0 0 1-2.768 2.722 2.702 2.702 0 0 1-2.722-2.722zm16.326.012a2.717 2.717 0 0 1 2.722-2.768 2.752 2.752 0 0 1 2.768 2.768V35.3a2.747 2.747 0 0 1-5.49 0zm8.263.01a2.712 2.712 0 0 1 2.722-2.768 2.752 2.752 0 0 1 2.768 2.768v1.126a8.492 8.492 0 0 1 7.488-3.904c5.398 0 8.533 3.63 8.533 9.175v12.906a2.676 2.676 0 0 1-2.722 2.722 2.717 2.717 0 0 1-2.788-2.722V24.07c0-3.72-1.86-5.857-5.128-5.857-3.176 0-5.398 2.227-5.398 5.948v11.122a2.747 2.747 0 0 1-5.49 0zm45.65-2.84a2.752 2.752 0 0 0-2.768 2.768v1.63c-1.77-2.498-4.266-4.5-8.156-4.5-5.607 0-11.122 4.445-11.122 12.432v.092c-.015 7.947 5.434 12.432 11.107 12.432 3.97 0 6.463-1.973 8.155-4.185-.275 4.317-2.916 6.596-7.55 6.596a14.67 14.67 0 0 1-7.371-1.901 2.187 2.187 0 0 0-.994-.224 2.319 2.319 0 0 0-2.319 2.263 2.253 2.253 0 0 0 1.529 2.182 20.679 20.679 0 0 0 9.256 2.136c4.312 0 7.67-1.02 9.853-3.22 1.993-1.998 3.058-5 3.058-9.032V15.9a2.717 2.717 0 0 0-2.681-2.768zm-9.623 20.108c-3.767 0-6.85-2.95-6.85-7.67v-.092c0-4.628 3.13-7.646 6.85-7.646s6.988 3.063 6.988 7.646v.092c0 4.582-3.262 7.67-6.988 7.67z"></path><circle cx="127.841" cy="6.588" r="2.768"></circle></g></svg>