<svg viewBox="0 0 256 256" xmlns="http://www.w3.org/2000/svg" width="256" height="256" preserveAspectRatio="xMidYMid"><path fill="#77E8B9" d="M256 143.19v45.183h-52.693a32.299 32.299 0 0 1-12.726-3.17l-1.312-.67-12.8-7.424a13.952 13.952 0 0 0-11.987-.387l-.813.387-16.384 9.6a4.267 4.267 0 0 0-.462 7.37l.462.268 34.475 20.224a32.085 32.085 0 0 0 12.53 3.748l1.465.092H256v30.122a7.553 7.553 0 0 1-6.865 7.436l-.644.031H7.509a7.553 7.553 0 0 1-7.465-6.703L0 248.66V218.54h60.075a32.085 32.085 0 0 0 12.687-3.171l1.307-.67 115.2-67.669a32.896 32.896 0 0 1 12.57-3.742l1.468-.098H256Zm0-75.435v45.184h-60.075a32.683 32.683 0 0 0-12.685 3.176l-1.31.664-115.2 67.712a32.896 32.896 0 0 1-12.568 3.742l-1.469.098H0v-45.184h60.075a32.683 32.683 0 0 0 12.685-3.177l1.31-.663 115.2-67.712a32.896 32.896 0 0 1 12.568-3.743l1.469-.097H256ZM248.49 0a7.51 7.51 0 0 1 7.472 6.742l.038.64v30.122h-60.075a32.085 32.085 0 0 0-12.687 3.171l-1.307.669-115.2 67.67a32.299 32.299 0 0 1-12.568 3.747l-1.47.092H0V67.67h52.693a32.896 32.896 0 0 1 12.724 3.177l1.314.663 12.8 7.467a13.952 13.952 0 0 0 11.987.387l.813-.387 16.384-9.643a4.267 4.267 0 0 0 .455-7.325L74.24 41.472a32.683 32.683 0 0 0-12.53-3.743l-1.465-.097H0V7.509A7.51 7.51 0 0 1 6.893.025L7.51 0h240.982Z"/></svg>