<svg xmlns="http://www.w3.org/2000/svg" xml:space="preserve" style="enable-background:new 0 0 512 512" viewBox="0 0 512 512"><defs><linearGradient id="a" x1="304.496" x2="316.036" y1="422.91" y2="326.263" gradientUnits="userSpaceOnUse"><stop offset="0" style="stop-color:#dcf1f3"/><stop offset="1" style="stop-color:#c2c2c9"/></linearGradient></defs><path d="M347.014 14.356 98.978 69.023c-25.153 5.524-43.036 27.77-43.036 53.503v315.061c0 22.39 16.72 41.146 38.82 43.763l130.124 17.01 114.6-114.095 116.28-119.11-2.035-180.285c-.291-21.954-20.646-38.238-42.018-33.585l-28.788 6.252.146-13.667c.29-19.191-17.447-33.585-36.057-29.514Z" style="stroke-width:1.45391;fill:#c02223"/><path d="M383.216 57.537v285.837l72.84-78.365-2.035-186.245c-.145-18.901-17.737-32.858-36.202-28.788Z" style="stroke-width:1.45391;fill:#882425"/><path d="m234.7 422.6 133.8-34.9 25-125.5z" style="fill:url(#a)" transform="matrix(1.45563 0 0 1.45483 -116.732 -116.452)"/><linearGradient id="b" x1="223.084" x2="241.417" y1="372.756" y2="114.557" gradientTransform="matrix(1.4539 0 0 1.4539 -116.2 -116.205)" gradientUnits="userSpaceOnUse"><stop offset="0" style="stop-color:#dcf1f3"/><stop offset="1" style="stop-color:#c2c2c9"/></linearGradient><path d="M282.897 214.85s-22.245-28.934-38.674-36.785c-10.468-4.943-26.025-6.833-38.238-.727-18.028 9.015-19.918 34.313-3.344 44.345 3.926 2.471 9.16 4.507 15.993 6.106 36.639 8.433 97.121 25.88 89.706 96.103 0 0-4.216 65.862-73.567 73.422-12.213 1.309-24.571.436-36.493-2.326-16.43-3.635-45.508-11.05-59.756-19.919l-2.617-75.166h6.979s13.812 33.44 53.067 49.578c7.27 2.907 15.266 4.07 22.972 2.907 9.741-1.453 21.227-6.687 25.88-22.535 0 0 7.85-23.117-32.859-35.766-32.567-10.177-63.244-20.646-75.893-54.958-5.961-16.283-6.98-34.312-2.908-51.613 5.38-22.536 20.79-54.23 64.408-67.898 0 0 57.284-15.556 96.539 5.525l-1.745 89.706z" style="fill:url(#b);stroke-width:1.45391"/></svg>