<svg width="32" height="32" viewBox="0 0 32 32" fill="none" xmlns="http://www.w3.org/2000/svg">
<g clip-path="url(#clip0_2_424)">
<path d="M5.66667 0H26.3333C29.4667 0 32 2.53333 32 5.66667V25.5333C32 28.6667 29.4667 31.2 26.3333 31.2H5.66667C2.53333 31.2 0 28.6667 0 25.5333V5.66667C0 2.53333 2.53333 0 5.66667 0Z" fill="#000B1D"/>
<path d="M11.8933 22.2667C11.16 22.28 10.4267 22.2 9.71999 22.0667C9.15999 21.96 8.59999 21.7867 8.07999 21.5467C7.95999 21.4934 7.90666 21.3734 7.90666 21.1867V18.6267C7.90666 18.5867 7.91999 18.5334 7.95999 18.5067C7.99999 18.48 8.05333 18.4934 8.09333 18.52C8.69333 18.8934 9.33333 19.1734 9.99999 19.36C10.64 19.5467 11.3067 19.64 11.9733 19.64C12.7867 19.64 13.3733 19.52 13.72 19.2667C14.04 19.0667 14.24 18.72 14.24 18.3334C14.24 18.1067 14.1867 17.88 14.0667 17.68C13.9067 17.4534 13.7067 17.2534 13.4667 17.1067C13.0933 16.88 12.6933 16.68 12.28 16.5334L11.2 16.08C10.3333 15.7067 9.63999 15.3067 9.14666 14.8934C8.69333 14.5334 8.34666 14.0667 8.13333 13.5334C7.94666 13.0267 7.85333 12.5067 7.85333 11.96C7.82666 10.4134 8.73333 8.98669 10.1467 8.36002C10.9067 8.00002 11.8533 7.81335 12.9867 7.81335C13.6267 7.81335 14.2667 7.85335 14.9067 7.94669C15.4 8.00002 15.88 8.14669 16.3333 8.36002C16.4267 8.41335 16.4933 8.52002 16.48 8.64002V11.0667C16.48 11.1067 16.4533 11.1334 16.4267 11.16C16.3867 11.2 16.3467 11.1867 16.2933 11.1467C15.8133 10.9067 15.3067 10.72 14.7867 10.6134C14.2 10.48 13.6 10.4134 13 10.4267C12.64 10.4267 12.2933 10.4534 11.9467 10.5334C11.7067 10.5867 11.4667 10.68 11.2533 10.8C11.08 10.8934 10.9467 11.04 10.8533 11.2134C10.7733 11.3734 10.72 11.5467 10.72 11.72C10.72 11.9334 10.7867 12.16 10.9067 12.3334C11.08 12.56 11.3067 12.7334 11.5467 12.8667C11.9467 13.0934 12.36 13.3067 12.7867 13.4934L13.5867 13.8C14.5333 14.1867 15.2667 14.6 15.8 15.04C16.28 15.4134 16.6667 15.9067 16.92 16.4534C17.1333 16.9734 17.24 17.5334 17.24 18.0934C17.2533 18.8934 17.0133 19.6667 16.56 20.32C16.08 20.9734 15.4267 21.48 14.68 21.7867C13.9333 22.0934 12.9867 22.2667 11.8933 22.2667Z" fill="white"/>
<path d="M24.52 19.92V21.68C24.52 21.84 24.4667 21.9333 24.3467 21.96C24.0667 22.0533 23.7733 22.12 23.4933 22.1733C23.1467 22.24 22.8133 22.2667 22.4667 22.2533C21.5333 22.2533 20.8 22.0133 20.28 21.52C19.76 21.0267 19.48 20.2533 19.48 19.1867V13.84H18.1867C18.0667 13.84 18.0133 13.7733 18.0133 13.6533L18.0267 11.5333C18.0267 11.4133 18.0933 11.36 18.2133 11.36H19.5067C19.52 11.12 19.52 10.8533 19.5467 10.5333C19.5733 10.2133 19.6 9.89332 19.6267 9.57332C19.6533 9.25332 19.6933 8.98665 19.72 8.78665C19.7333 8.74665 19.76 8.70665 19.7867 8.66665C19.8133 8.62665 19.8533 8.59999 19.8933 8.58665L22.4533 8.26665C22.4933 8.25332 22.52 8.25332 22.56 8.26665C22.5867 8.27999 22.6 8.31999 22.6 8.39999C22.5733 8.73332 22.5467 9.17332 22.5333 9.74665C22.52 10.3067 22.52 10.84 22.5067 11.3733H24.4C24.48 11.3733 24.5333 11.4267 24.5333 11.5467L24.52 13.7067C24.5333 13.7733 24.48 13.84 24.4133 13.8533H22.52V18.48C22.52 18.96 22.5733 19.32 22.7333 19.52C22.8933 19.72 23.2 19.8267 23.64 19.8267C23.7733 19.8267 23.8933 19.8267 24 19.8133C24.1067 19.8 24.2267 19.8 24.3467 19.7867C24.3867 19.7733 24.4267 19.7733 24.4667 19.8C24.5067 19.8133 24.52 19.8533 24.52 19.92Z" fill="white"/>
</g>
<defs>
<clipPath id="clip0_2_424">
<rect width="32" height="31.2" fill="white"/>
</clipPath>
</defs>
</svg>
