<svg viewBox="0 0 256 302" xmlns="http://www.w3.org/2000/svg" width="256" height="302" preserveAspectRatio="xMidYMid"><path fill="#0AB3AF" d="m244.495 0-.274.292c7.15 0 11.524 5.54 11.768 12.32l.011.6v230.552c0 7.12-4.156 11.473-10.852 11.73l-.635.013H89.558l-42.423 45.82v-46.112H12.966c-6.868 0-12.619-4.146-12.95-10.844L0 243.755V12.921C0 6.067 5.567.327 12.648.013l.61-.013h231.237Zm-78.93 46.989H47.135v164.47H151.43c7.954 0 15.615-1.47 22.682-3.233 6.605-1.364 12.43-4.278 17.729-7.519l1.127-.699a35.547 35.547 0 0 0 12.08-11.94l.585-.99h-.302c2.94-5.277 4.42-11.45 4.42-18.792 0-11.45-2.657-20.563-7.962-27.612-5.589-6.748-12.957-11.45-22.38-14.09a36.78 36.78 0 0 0 17.668-15.86c3.835-7.05 5.899-14.39 5.899-22.024a43.966 43.966 0 0 0-10.017-28.49c-3.242-3.825-7.369-7.049-11.78-9.404-4.405-2.463-9.058-3.654-14.447-3.801l-1.167-.016Zm-16.929 91.923c3.406 0 5.963 1.662 8.237 4.447a16.418 16.418 0 0 1 3.122 9.998c0 4.164-1.424 7.497-3.689 9.725-2.374 2.06-5.236 3.404-8.36 3.586l-.725.02H89.604v-27.776h59.032Zm-4.82-55.563c2.709.026 5.322 1.01 7.377 2.776 1.99 1.945 3.123 5.004 3.123 9.167 0 4.459-1.01 7.932-3.276 9.704l-.413.295c-2.099 1.542-4.68 2.844-7.291 3.035l-.653.024H89.595V83.349h54.22Z"/></svg>