<svg xmlns="http://www.w3.org/2000/svg" fill="none" viewBox="0 0 140 187">
  <path fill="#5755FF" d="M139.234 181.41c-.28-.74-.899-2.27-1.909-4.31-4.73-11.27-16.77-34.13-27.46-52.35-24.53-41.79-54.08-82.59-87.81-121.27-.73-.84-1.82-1.31-2.92-1.23-1.11.06-2.13.63-2.77 1.54-8.72 12.54-18.43 32.19-15.18 54.61 5.84 40.25 49.92 62.13 64.4 69.32 3.14 1.56 6.36 3.01 9.63 4.35-3.6.43-7.24.52-10.9.27-7.52-.53-14.77-2.5-21.54-5.87-1.56-.78-3.47-.32-4.5 1.08-1.04 1.41-.93 3.36.27 4.63 8.65 9.17 18.06 14.78 27.97 16.68 5.42 1.03 9.72.79 13.89.56 5.1-.29 9.8999-.56 17.0199 1.45 7.8901 2.23 13.2301 6.11 15.5101 7.77 10.75 7.82 16.52 18.6 18.64 23.24.54 1.24.84 1.96.91 2.14.37.94 1.14 1.76 2.08 2.12.42.17.86.25 1.31.25.55 0 1.09-.12 1.59-.37.91-.44 1.58-1.25 1.87-2.21.11-.38.249-1.28-.101-2.4Z"/>
  <path fill="#FF8F6B" d="M69.125 32.9897c20.47-6.63 25.85-12.0099 32.48-32.48 6.63 20.4701 12.01 25.85 32.48 32.48-20.47 6.63-25.85 12.0101-32.48 32.4801-6.63-20.47-12.01-25.8501-32.48-32.4801Z"/>
</svg>
