<svg xmlns="http://www.w3.org/2000/svg" fill="none" viewBox="0 0 1303 202">
  <path fill="#FF8F6B" d="M1264.62 188.46c-4.25-4.07-6.37-9.14-6.37-15.2 0-6.06 2.12-11.13 6.37-15.2 4.24-4.07 9.66-6.1 16.24-6.1 6.58 0 11.69 2.04 15.85 6.1 4.16 4.07 6.23 9.14 6.23 15.2 0 6.06-2.08 11.13-6.23 15.2-4.16 4.07-9.45 6.11-15.85 6.11s-12-2.03-16.24-6.11Z"/>
  <path fill="#5755FF" d="M194.68 188.27c-9.35-4.24-16.76-10-22.22-17.28-5.46-7.28-8.44-15.33-8.97-24.17h36.64c.69 5.55 3.42 10.13 8.18 13.77 4.76 3.64 10.7 5.46 17.8 5.46 7.1 0 12.34-1.39 16.24-4.16 3.9-2.77 5.85-6.32 5.85-10.65 0-4.68-2.39-8.19-7.15-10.52-4.76-2.34-12.34-4.89-22.74-7.67-10.74-2.6-19.53-5.28-26.37-8.06-6.85-2.77-12.73-7.02-17.67-12.73-4.94-5.71-7.4-13.4198-7.4-23.1298 0-7.97 2.29-15.24 6.89-21.83 4.59-6.58 11.17-11.78 19.75-15.59 8.57-3.81 18.67-5.72 30.27-5.72 17.15 0 30.84 4.2901 41.06 12.8601 10.22 8.5699 15.85 20.14 16.89 34.69h-34.82c-.52-5.72-2.9-10.2601-7.14-13.6401-4.25-3.38-9.92-5.07-17.02-5.07-6.58 0-11.65 1.21-15.2 3.64-3.55 2.43-5.33 5.8101-5.33 10.1301 0 4.8499 2.42 8.53 7.27 11.04 4.85 2.5097 12.38 5.0697 22.61 7.6697 10.39 2.6 18.97 5.29 25.72 8.06 6.76 2.77 12.6 7.06 17.54 12.86 4.94 5.81 7.49 13.47 7.67 23 0 8.32-2.3 15.76-6.89 22.35-4.59 6.59-11.17 11.74-19.75 15.46-8.58 3.72-18.58 5.59-30.01 5.59-11.43 0-22.35-2.12-31.7-6.37v.01ZM448.811 48.3496V192.31h-36.64v-18.19c-4.68 6.24-10.78 11.13-18.32 14.68-7.54 3.55-15.72 5.33-24.56 5.33-11.26 0-21.22-2.38-29.88-7.15-8.66-4.76-15.46-11.78-20.4-21.05-4.94-9.27-7.4-20.31-7.4-33.13V48.3496h36.38V127.6c0 11.43 2.86 20.23 8.57 26.37 5.72 6.15 13.51 9.23 23.38 9.23s17.93-3.07 23.65-9.23c5.72-6.15 8.57-14.94 8.57-26.37V48.3496h36.65ZM540.41 52.5c8.23-4.33 17.63-6.5 28.19-6.5 12.3 0 23.43 3.03 33.39 9.09 9.96 6.07 17.84 14.68 23.65 25.86 5.8 11.17 8.71 24.12 8.71 38.85s-2.9 27.76-8.71 39.11c-5.81 11.35-13.69 20.14-23.65 26.37-9.96 6.24-21.09 9.35-33.39 9.35-10.74 0-20.14-2.12-28.19-6.37-8.06-4.24-14.51-9.74-19.36-16.5v20.53h-36.38V0h36.38v69.38c4.68-6.93 11.13-12.56 19.36-16.89v.01Zm51.44 44.83c-3.55-6.32-8.23-11.13-14.03-14.42-5.81-3.29-12.09-4.94-18.84-4.94s-12.78 1.69-18.58 5.07c-5.8 3.38-10.49 8.27-14.03 14.68-3.55 6.41-5.33 13.95-5.33 22.61s1.78 16.2 5.33 22.61 8.23 11.3 14.03 14.68c5.8 3.38 11.99 5.07 18.58 5.07 6.59 0 13.03-1.73 18.84-5.2 5.8-3.46 10.48-8.4 14.03-14.81 3.55-6.41 5.33-14.03 5.33-22.87 0-8.84-1.78-16.15-5.33-22.48Zm190.34-34.8202c10.57 10.83 15.85 25.94 15.85 45.3402v84.45h-36.38v-79.51c0-11.43-2.86-20.2202-8.57-26.3702-5.72-6.15-13.51-9.23-23.39-9.23s-17.97 3.08-23.78 9.23c-5.8 6.15-8.71 14.9402-8.71 26.3702v79.51h-36.38V48.3398h36.38v17.9299c4.85-6.24 11.05-11.1299 18.58-14.6799 7.54-3.55 15.8-5.33 24.82-5.33 17.15 0 31.01 5.42 41.57 16.24l.01.01ZM859.1 185.42c-11.09-6.15-19.79-14.85-26.11-26.11-6.33-11.26-9.48-24.25-9.48-38.98 0-14.73 3.25-27.7102 9.74-38.9802 6.5-11.26 15.37-19.9601 26.63-26.1101 11.26-6.15 23.81-9.2299 37.68-9.2299 13.87 0 26.42 3.0799 37.68 9.2299 11.26 6.15 20.14 14.8601 26.63 26.1101 6.5 11.26 9.74 24.2502 9.74 38.9802 0 14.73-3.34 27.72-10.01 38.98-6.67 11.26-15.68 19.97-27.03 26.11-11.35 6.15-24.03 9.23-38.07 9.23s-26.33-3.07-37.42-9.23h.02Zm56-27.29c5.8-3.2 10.44-8.01 13.9-14.42 3.46-6.41 5.2-14.2 5.2-23.39 0-13.68-3.6-24.2102-10.78-31.5702-7.19-7.36-15.98-11.0401-26.37-11.0401s-19.1 3.6801-26.12 11.0401c-7.02 7.36-10.52 17.8902-10.52 31.5702s3.42 24.21 10.26 31.57c6.84 7.36 15.46 11.04 25.86 11.04 6.58 0 12.78-1.6 18.58-4.81l-.01.01Zm125.63-79.9v69.64c0 4.85 1.17 8.36 3.51 10.52 2.34 2.17 6.28 3.25 11.82 3.25h16.89v30.66h-22.87c-30.66 0-45.99-14.9-45.99-44.69V78.23h-17.149V48.35h17.149v-35.6h36.64v35.6h32.22v29.88h-32.22Zm84.97 107.19c-11.09-6.15-19.79-14.85-26.11-26.11-6.33-11.26-9.48-24.25-9.48-38.98 0-14.73 3.25-27.7102 9.74-38.9802 6.5-11.26 15.37-19.9601 26.63-26.1101 11.26-6.15 23.81-9.2299 37.68-9.2299 13.87 0 26.42 3.0799 37.68 9.2299 11.26 6.15 20.14 14.8601 26.63 26.1101 6.5 11.26 9.74 24.2502 9.74 38.9802 0 14.73-3.34 27.72-10.01 38.98-6.67 11.26-15.68 19.97-27.03 26.11-11.35 6.15-24.03 9.23-38.07 9.23s-26.33-3.07-37.42-9.23h.02Zm56-27.29c5.8-3.2 10.44-8.01 13.9-14.42 3.46-6.41 5.2-14.2 5.2-23.39 0-13.68-3.6-24.2102-10.78-31.5702-7.19-7.36-15.98-11.0401-26.37-11.0401s-19.1 3.6801-26.12 11.0401c-7.02 7.36-10.52 17.8902-10.52 31.5702s3.42 24.21 10.26 31.57c6.84 7.36 15.46 11.04 25.86 11.04 6.58 0 12.78-1.6 18.58-4.81l-.01.01ZM138.751 196.91c-.28-.74-.9-2.27-1.91-4.31-4.73-11.27-16.77-34.13-27.46-52.35C84.8506 98.46 55.3006 57.66 21.5706 18.98c-.73-.84-1.82-1.31-2.92-1.23-1.11.06-2.13.63-2.77 1.54-8.72 12.54-18.43 32.19-15.18 54.61 5.84 40.25 49.92 62.13 64.4 69.32 3.14 1.56 6.36 3.01 9.63 4.35-3.6.43-7.24.52-10.9.27-7.52-.53-14.77-2.5-21.54-5.87-1.56-.78-3.47-.32-4.5 1.08-1.04 1.41-.93 3.36.27 4.63 8.65 9.17 18.06 14.78 27.97 16.68 5.42 1.03 9.72.79 13.89.56 5.1-.29 9.9-.56 17.02 1.45 7.8904 2.23 13.2304 6.11 15.5104 7.77 10.75 7.82 16.52 18.6 18.64 23.24.54 1.24.84 1.96.91 2.14.37.94 1.14 1.76 2.08 2.12.42.17.86.25 1.31.25.55 0 1.09-.12 1.59-.37.91-.44 1.58-1.25 1.87-2.21.11-.38.25-1.28-.1-2.4Z"/>
  <path fill="#FF8F6B" d="M68.6406 48.4897c20.47-6.63 25.85-12.0099 32.4804-32.4799 6.63 20.47 12.01 25.8499 32.48 32.4799-20.47 6.63-25.85 12.0101-32.48 32.4801-6.6304-20.47-12.0104-25.8501-32.4804-32.4801Z"/>
</svg>
