<svg width="32" height="32" viewBox="0 0 32 32" fill="none" xmlns="http://www.w3.org/2000/svg">
<g clip-path="url(#clip0_2_312)">
<path d="M26.3333 0H5.66667C2.53705 0 0 2.53705 0 5.66667V25.5333C0 28.6629 2.53705 31.2 5.66667 31.2H26.3333C29.4629 31.2 32 28.6629 32 25.5333V5.66667C32 2.53705 29.4629 0 26.3333 0Z" fill="#1E3101"/>
<path d="M5.87891 21.8364V8.18361C5.87681 8.16233 5.87909 8.14085 5.88561 8.12048C5.89214 8.10012 5.90277 8.08131 5.91686 8.06521C5.93094 8.04912 5.94817 8.03609 5.96749 8.02692C5.98681 8.01775 6.0078 8.01264 6.02918 8.0119C6.24389 7.9978 6.55873 7.98707 6.97371 7.97971C7.38862 7.97264 7.87521 7.96548 8.43348 7.95822C8.99161 7.95119 9.58551 7.94761 10.2152 7.94748C11.9325 7.94748 13.3565 8.24086 14.4871 8.82762C15.5586 9.35848 16.4451 10.2001 17.0309 11.2426C17.596 12.266 17.8787 13.4431 17.8788 14.7739C17.8951 15.7051 17.7461 16.6317 17.4388 17.5109C17.1698 18.2634 16.7621 18.9588 16.2366 19.561C15.7392 20.1247 15.156 20.6065 14.5085 20.9885C13.8664 21.3671 13.172 21.6492 12.4477 21.8257C11.7385 22.0022 11.0105 22.0922 10.2796 22.094H8.68034C8.11478 22.094 7.58885 22.0904 7.10254 22.0833C6.61582 22.0759 6.25089 22.0652 6.00775 22.0511C5.92188 22.0511 5.87893 21.9795 5.87891 21.8364ZM8.84134 10.5879V19.4751C8.99864 19.4751 9.14174 19.4787 9.27064 19.4858C9.39948 19.4932 9.53158 19.5002 9.66778 19.5073C9.80365 19.5147 9.95749 19.5182 10.1293 19.518C10.7786 19.5264 11.4245 19.4248 12.0398 19.2175C12.591 19.0302 13.0934 18.7222 13.5103 18.3159C13.9297 17.8972 14.2522 17.3916 14.4549 16.8347C14.6857 16.1948 14.7984 15.5184 14.7876 14.8383C14.8008 14.1974 14.6915 13.5599 14.4656 12.9599C14.2642 12.4424 13.9444 11.9793 13.5318 11.6076C13.1104 11.2351 12.6119 10.9603 12.0721 10.8026C11.4692 10.6255 10.8435 10.5387 10.2152 10.545C9.92871 10.545 9.689 10.5485 9.49603 10.5557C9.30287 10.5631 9.08464 10.5738 8.84134 10.5879V10.5879Z" fill="#99E83F"/>
<path d="M26.3148 14.1728C25.9114 13.9655 25.4817 13.8139 25.0375 13.722C24.5481 13.6097 24.0477 13.5521 23.5456 13.5503C23.274 13.5429 23.0027 13.5755 22.7406 13.6469C22.5737 13.684 22.4254 13.7791 22.322 13.9152C22.252 14.0241 22.2148 14.1507 22.2147 14.2802C22.2186 14.4057 22.2638 14.5264 22.3434 14.6236C22.4688 14.7703 22.622 14.8907 22.7942 14.9778C23.1003 15.1426 23.4157 15.2896 23.7388 15.4179C24.4592 15.659 25.1476 15.987 25.7888 16.3946C26.2256 16.6703 26.5871 17.0502 26.8407 17.5001C27.054 17.9262 27.1608 18.3976 27.152 18.874C27.1648 19.5031 26.9851 20.121 26.6368 20.645C26.2639 21.1769 25.746 21.5905 25.1448 21.8364C24.4934 22.1225 23.6884 22.2657 22.7298 22.2658C22.1209 22.2719 21.5129 22.2144 20.9159 22.094C20.4659 22.0088 20.0292 21.8645 19.6171 21.6647C19.5702 21.6405 19.5311 21.6034 19.5045 21.5577C19.4779 21.5121 19.4649 21.4598 19.4669 21.4071V19.0887C19.4643 19.066 19.4679 19.043 19.4774 19.0222C19.4868 19.0014 19.5018 18.9836 19.5206 18.9706C19.539 18.9602 19.5602 18.9556 19.5813 18.9576C19.6024 18.9595 19.6224 18.9678 19.6386 18.9814C20.1294 19.2837 20.6658 19.5048 21.2272 19.6361C21.7398 19.7646 22.2657 19.833 22.7942 19.84C23.295 19.84 23.6635 19.7756 23.8997 19.6468C24.0064 19.598 24.0967 19.5193 24.1595 19.4202C24.2224 19.3212 24.2552 19.206 24.254 19.0887C24.254 18.9029 24.1466 18.724 23.932 18.552C23.7173 18.3803 23.2808 18.1728 22.6225 17.9295C21.9484 17.6949 21.3093 17.3699 20.7227 16.9635C20.3031 16.6717 19.9575 16.2857 19.7138 15.8365C19.5026 15.4135 19.3959 14.9461 19.4025 14.4733C19.4013 13.9054 19.5573 13.3481 19.8533 12.8633C20.1907 12.3295 20.6753 11.9046 21.2486 11.6397C21.8782 11.3251 22.6653 11.1677 23.61 11.1675C24.1632 11.163 24.7159 11.2025 25.2629 11.2855C25.648 11.335 26.024 11.4399 26.3792 11.5968C26.4083 11.6052 26.4351 11.6202 26.4575 11.6407C26.4798 11.6612 26.4971 11.6866 26.508 11.7149C26.5225 11.7673 26.5297 11.8215 26.5294 11.8759V14.044C26.5309 14.0692 26.5258 14.0944 26.5145 14.117C26.5032 14.1396 26.4861 14.1589 26.4651 14.1728C26.4426 14.187 26.4165 14.1946 26.3899 14.1946C26.3633 14.1946 26.3373 14.187 26.3148 14.1728Z" fill="#99E83F"/>
</g>
<defs>
<clipPath id="clip0_2_312">
<rect width="32" height="31.2" fill="white"/>
</clipPath>
</defs>
</svg>
