<svg width="32" height="32" viewBox="0 0 32 32" fill="none" xmlns="http://www.w3.org/2000/svg">
<g clip-path="url(#clip0_2_323)">
<path d="M5.66667 0H26.3333C29.4667 0 32 2.53333 32 5.66667V25.5333C32 28.6667 29.4667 31.2 26.3333 31.2H5.66667C2.53333 31.2 0 28.6667 0 25.5333V5.66667C0 2.53333 2.53333 0 5.66667 0Z" fill="#1E3101"/>
<path d="M10.0133 22.2667C9.28 22.28 8.54667 22.2 7.84001 22.0667C7.28001 21.96 6.72001 21.7867 6.20001 21.5467C6.08001 21.4933 6.02667 21.3733 6.02667 21.1867V18.6267C6.02667 18.5867 6.04 18.5333 6.08 18.5067C6.12 18.48 6.17334 18.4933 6.21334 18.52C6.81334 18.8933 7.45334 19.1733 8.12001 19.36C8.76001 19.5467 9.42667 19.64 10.0933 19.64C10.9067 19.64 11.4933 19.52 11.84 19.2667C12.16 19.0667 12.36 18.72 12.36 18.3333C12.36 18.1067 12.3067 17.88 12.1867 17.68C12.0267 17.4533 11.8267 17.2533 11.5867 17.1067C11.2133 16.88 10.8133 16.68 10.4 16.5333L9.33334 16.08C8.46667 15.7067 7.77334 15.3067 7.28 14.8933C6.82667 14.5333 6.48001 14.0667 6.26667 13.5333C6.08001 13.0267 5.98667 12.5067 5.98667 11.96C5.96001 10.4133 6.86667 8.98666 8.28 8.35999C9.04 7.99999 9.98667 7.81332 11.12 7.81332C11.76 7.81332 12.4 7.85332 13.04 7.94666C13.5333 7.99999 14.0133 8.14666 14.4667 8.35999C14.56 8.41332 14.6267 8.51999 14.6133 8.63999V11.0667C14.6133 11.1067 14.5867 11.1467 14.5467 11.1733C14.4933 11.2 14.44 11.16 14.4 11.1467C14.32 11.1067 14.24 11.0667 14.16 11.0267C14 10.96 13.84 10.8933 13.6667 10.8267C13.5067 10.7733 13.3333 10.72 13.16 10.6667C13.08 10.64 12.9867 10.6267 12.9067 10.6C12.32 10.4667 11.72 10.4 11.12 10.4133C10.76 10.4133 10.4133 10.44 10.0667 10.52C9.82667 10.5733 9.58667 10.6667 9.37334 10.7867C9.20001 10.88 9.06667 11.0267 8.97334 11.2C8.89334 11.36 8.84001 11.5333 8.84001 11.7067C8.84001 11.92 8.90667 12.1467 9.02667 12.32C9.2 12.5467 9.42667 12.72 9.66667 12.8533C10.0667 13.08 10.48 13.2933 10.9067 13.48L11.7067 13.7867C12.6533 14.1733 13.3867 14.5867 13.92 15.0267C14.4 15.4 14.7867 15.8933 15.04 16.44C15.2533 16.96 15.36 17.52 15.36 18.08C15.3733 18.88 15.1333 19.6533 14.68 20.3067C14.2 20.96 13.5467 21.4667 12.8 21.7733C12.0533 22.0933 11.1067 22.2667 10.0133 22.2667Z" fill="#99E83F"/>
<path d="M21.5067 11.1733C22.56 11.1733 23.4267 11.3599 24.0667 11.7466C24.6933 12.1066 25.2 12.6533 25.52 13.3199C25.84 14.0133 26 14.7733 25.9867 15.5333V19.6799C25.9867 19.9466 25.9867 20.2133 26 20.4533C26.0133 20.6933 26.0133 20.9466 26.0267 21.1999C26.0267 21.2533 26.0133 21.2933 25.9867 21.3066C25.3467 21.5466 24.7733 21.7466 24.2667 21.8799C23.7867 22.0133 23.3067 22.1199 22.8133 22.1866C22.32 22.2399 21.8133 22.2799 21.3067 22.2666C20.56 22.2799 19.8267 22.1466 19.1333 21.8799C18.5067 21.6399 17.96 21.2266 17.56 20.6933C17.16 20.1599 16.96 19.4933 16.96 18.6799C16.96 17.9066 17.1733 17.2666 17.5867 16.7466C18.04 16.2133 18.64 15.7999 19.32 15.5866C20.1333 15.3199 20.9733 15.1866 21.8267 15.1999H22.6133C22.7733 15.1999 22.9333 15.1999 23.0933 15.2266V15.0933C23.08 14.9599 23.0667 14.8399 23.0133 14.7199C22.96 14.5466 22.8533 14.3866 22.72 14.2533C22.5467 14.0933 22.3333 13.9733 22.1067 13.8933C21.76 13.7866 21.4 13.7466 21.04 13.7599C20.52 13.7599 20 13.7999 19.4933 13.9066C19.04 13.9999 18.6 14.1333 18.1867 14.3199C18.1467 14.3333 18.0933 14.3333 18.0533 14.3199C18.0133 14.3066 17.9867 14.2533 17.9867 14.2133V12.0533C17.9733 11.9466 18.04 11.8533 18.1333 11.8133C18.64 11.5866 19.1867 11.4266 19.7333 11.3333C20.3333 11.2266 20.92 11.1733 21.5067 11.1733ZM23.0933 19.7599V17.4799C22.92 17.4533 22.76 17.4266 22.6 17.4133C22.44 17.3999 22.2533 17.3866 22.0267 17.3866C21.2533 17.3866 20.7067 17.5066 20.3867 17.7333C20.08 17.9466 19.8933 18.3066 19.9067 18.6799C19.9067 18.9066 19.9733 19.1199 20.0933 19.3066C20.24 19.5199 20.4533 19.6799 20.6933 19.7733C21.0267 19.9066 21.3867 19.9733 21.76 19.9599C22 19.9599 22.2533 19.9466 22.4933 19.9066C22.68 19.8666 22.8933 19.8133 23.0933 19.7599Z" fill="#99E83F"/>
</g>
<defs>
<clipPath id="clip0_2_323">
<rect width="32" height="31.2" fill="white"/>
</clipPath>
</defs>
</svg>
