<svg width="32" height="31" viewBox="0 0 32 31" fill="none" xmlns="http://www.w3.org/2000/svg">
<g clip-path="url(#clip0_2_345)">
<path d="M5.688 0H26.312C29.4534 0 32 2.54657 32 5.688V25.1691C32 28.3106 29.4534 30.8571 26.312 30.8571H5.688C2.54657 30.8571 0 28.3106 0 25.1691V5.688C0 2.54657 2.54657 0 5.688 0Z" fill="#1E3101"/>
<path d="M9.89859 21.8426C9.15887 21.8494 8.4203 21.7803 7.69459 21.6363C7.12144 21.5266 6.56344 21.348 6.03344 21.1043C5.90687 21.0269 5.83859 20.8817 5.85973 20.7352V18.1512C5.8543 18.1043 5.87516 18.0586 5.91401 18.0317C5.95973 18.0103 6.01316 18.0146 6.05516 18.0426C6.65544 18.416 7.3063 18.7012 7.98773 18.8894C8.63773 19.0734 9.31001 19.1683 9.98544 19.1717C10.8106 19.1717 11.4006 19.0452 11.7552 18.7917C12.082 18.5883 12.2826 18.2323 12.2872 17.8472C12.2906 17.6146 12.2306 17.3857 12.1134 17.1849C11.9566 16.9497 11.7489 16.7532 11.5054 16.6094C11.1266 16.3772 10.7266 16.1809 10.3112 16.0232L9.22544 15.5672C8.47801 15.2709 7.77916 14.8649 7.15173 14.362C6.69744 13.9966 6.34259 13.5223 6.1203 12.9832C5.92944 12.4766 5.83373 11.9392 5.83801 11.398C5.80944 9.8283 6.72516 8.39487 8.16144 7.76087C9.06344 7.3643 10.0429 7.17515 11.0277 7.20715C11.6777 7.20401 12.3272 7.24772 12.9712 7.33744C13.4717 7.39487 13.9597 7.5343 14.4152 7.75001C14.516 7.80687 14.5752 7.91687 14.5672 8.0323C14.5672 8.05544 14.5672 8.07887 14.5672 8.10201C14.5672 8.16487 14.5672 8.22772 14.5672 8.29087C14.5672 8.38344 14.5672 8.47601 14.5672 8.56858C14.5672 8.68087 14.5672 8.79315 14.5672 8.90544C14.5672 9.02744 14.5672 9.14944 14.5672 9.27144C14.5672 9.39315 14.5672 9.51458 14.5672 9.6363C14.5672 9.74772 14.5672 9.85887 14.5672 9.9703C14.5672 10.0612 14.5672 10.1523 14.5672 10.2432C14.5672 10.3037 14.5672 10.3643 14.5672 10.4249C14.5672 10.4563 14.5694 10.4889 14.5617 10.5197C14.552 10.5589 14.5237 10.5894 14.484 10.5989C14.4317 10.6112 14.3914 10.5829 14.3472 10.5606C14.2974 10.5354 14.248 10.5109 14.1977 10.4869C14.0974 10.4392 13.996 10.394 13.8934 10.352C13.6883 10.2677 13.4783 10.1949 13.2652 10.1334C13.1286 10.0943 12.9906 10.0597 12.8514 10.0303C12.2597 9.89858 11.6552 9.83315 11.0492 9.83487C10.6914 9.8283 10.3343 9.86487 9.98516 9.94344C9.73801 9.99915 9.5003 10.0906 9.27944 10.2149C9.10944 10.312 8.9703 10.4549 8.87773 10.6274C8.79344 10.7843 8.74859 10.9594 8.74744 11.1377C8.7443 11.3597 8.81287 11.5766 8.94287 11.7566C9.12173 11.9792 9.34316 12.1637 9.5943 12.2994C10.0029 12.5343 10.4234 12.748 10.8537 12.94L11.6572 13.244C12.46 13.5483 13.2134 13.9689 13.8937 14.4926C14.3806 14.8717 14.768 15.3637 15.0229 15.9257C15.2426 16.4517 15.3534 17.0169 15.3489 17.5869C15.3646 18.3894 15.1252 19.1766 14.6646 19.8343C14.1834 20.4986 13.5249 21.014 12.7646 21.3217C11.8543 21.6877 10.8792 21.8649 9.89859 21.8426Z" fill="#99E83F"/>
<path d="M19.5177 18.9546L22.6011 19.1066C23.4568 19.1118 24.304 19.2775 25.0983 19.5952C25.6497 19.8181 26.1194 20.2046 26.4445 20.7026C26.7231 21.1721 26.866 21.7095 26.8571 22.2552C26.8565 22.9952 26.608 23.7138 26.1514 24.2963C25.6343 24.9541 24.9525 25.4635 24.1754 25.7729C23.2125 26.1563 22.1823 26.3409 21.1463 26.3158C20.1303 26.3492 19.1183 26.1755 18.1714 25.8055C17.4905 25.5429 16.8965 25.0955 16.456 24.5135C16.12 24.0681 15.9303 23.5295 15.9131 22.9718C15.9205 22.7103 15.9874 22.4543 16.1088 22.2226C16.2763 21.9006 16.4843 21.6015 16.7277 21.3323C17.0717 20.9458 17.4417 20.5829 17.8351 20.2466C18.3723 19.7861 18.934 19.3546 19.5177 18.9546ZM20.9077 17.9123C20.3631 17.9132 19.8203 17.8512 19.29 17.7278C18.7737 17.6101 18.2817 17.4043 17.8351 17.1198C17.3963 16.8406 17.0343 16.4563 16.7817 16.0015C16.5088 15.4875 16.374 14.9112 16.3908 14.3295C16.3848 13.6703 16.5657 13.0229 16.912 12.4621C17.2785 11.8803 17.8014 11.4138 18.4211 11.1158C19.1705 10.7632 19.9925 10.5921 20.8205 10.6163C21.2114 10.6163 21.5914 10.6343 21.9605 10.6706C22.3297 10.7069 22.6374 10.7469 22.8834 10.7901C22.9845 10.8046 23.0788 10.8155 23.1657 10.8226C23.2525 10.8301 23.332 10.8335 23.4045 10.8335H26.3794C26.4663 10.8335 26.5097 10.8843 26.5097 10.9855V13.0049C26.5271 13.0715 26.4868 13.1398 26.4203 13.1569C26.3997 13.1623 26.3783 13.1623 26.3577 13.1569C26.2128 13.1569 25.9848 13.1461 25.6737 13.1243C25.3623 13.1026 25.0908 13.0772 24.8594 13.0483C24.9557 13.2315 25.032 13.4243 25.0874 13.6238C25.1577 13.8895 25.1905 14.1635 25.1851 14.4381C25.212 15.1283 25.018 15.8092 24.6314 16.3815C24.246 16.9081 23.7134 17.3083 23.1005 17.5323C22.3997 17.7946 21.656 17.9235 20.9077 17.9123ZM20.6034 19.2369L18.3017 20.6701C18.0248 20.3863 17.8071 20.0506 17.6611 19.6821C17.5231 19.3261 17.4603 18.9452 17.4765 18.5638C17.4894 18.2529 17.548 17.9458 17.6503 17.6518C17.7485 17.3678 17.8954 17.1032 18.0848 16.8701L20.2343 17.7386C20.1865 17.8412 20.1571 17.9515 20.1474 18.0643C20.1328 18.1943 20.1328 18.3255 20.1474 18.4552C20.1465 18.5981 20.1883 18.7378 20.2668 18.8569C20.362 18.9978 20.4751 19.1255 20.6034 19.2369ZM24.0997 22.7112C24.1188 22.4638 24.0128 22.2235 23.8174 22.0706C23.582 21.9141 23.3151 21.8103 23.0357 21.7666C22.6703 21.6978 22.3 21.6581 21.9283 21.6472L19.5397 21.5386C19.2974 21.6938 19.0931 21.9015 18.9425 22.1466C18.8205 22.3129 18.7423 22.5069 18.7145 22.7112C18.7271 22.9575 18.8317 23.1901 19.0077 23.3626C19.2583 23.6132 19.5683 23.7963 19.9088 23.8946C20.3723 24.0409 20.8563 24.1106 21.342 24.1009C21.8771 24.1161 22.4117 24.0503 22.9271 23.9055C23.2631 23.8158 23.57 23.6401 23.8174 23.3952C23.9948 23.2115 24.0957 22.9669 24.0997 22.7112ZM22.3625 14.3295C22.3668 14.0601 22.3111 13.7929 22.1997 13.5478C22.0923 13.3175 21.9183 13.1246 21.7003 12.9941C21.4388 12.8472 21.142 12.7758 20.8425 12.7878C20.4325 12.7632 20.0297 12.9041 19.7243 13.1786C19.4397 13.4832 19.2943 13.8921 19.3225 14.3078C19.318 14.6866 19.4534 15.0538 19.7025 15.3392C19.9954 15.6526 20.4145 15.8163 20.8425 15.7843C21.2488 15.8049 21.6468 15.6646 21.95 15.3935C22.2325 15.1138 22.3825 14.7269 22.3625 14.3295Z" fill="#99E83F"/>
</g>
<defs>
<clipPath id="clip0_2_345">
<rect width="32" height="30.8571" fill="white"/>
</clipPath>
</defs>
</svg>
