<svg xmlns="http://www.w3.org/2000/svg" fill="none" viewBox="0 0 413 100"><path fill="#000" fill-rule="evenodd" d="M68.75 0C86.009 0 100 22.386 100 50H62.5c0 27.614-13.991 50-31.25 50S0 77.614 0 50h37.5c0-27.614 13.991-50 31.25-50Zm309.141 96.545c-6.615 0-12.534-1.48-17.757-4.44-5.222-2.96-9.313-7.007-12.273-12.142-2.959-5.136-4.439-10.924-4.439-17.365 0-6.442 1.48-12.23 4.439-17.366 2.96-5.135 7.051-9.183 12.273-12.142 5.223-2.96 11.142-4.44 17.757-4.44 6.528 0 12.404 1.48 17.627 4.44 5.222 2.96 9.313 7.007 12.273 12.142 2.959 5.136 4.439 10.924 4.439 17.366 0 6.44-1.48 12.23-4.439 17.365-2.96 5.135-7.051 9.183-12.273 12.142-5.223 2.96-11.099 4.44-17.627 4.44Zm0-13.84c3.569 0 6.703-.827 9.401-2.481 2.785-1.741 4.918-4.135 6.398-7.181 1.566-3.047 2.35-6.529 2.35-10.445 0-3.917-.784-7.4-2.35-10.446-1.48-3.046-3.613-5.396-6.398-7.05-2.785-1.741-5.919-2.611-9.401-2.611-3.569 0-6.746.87-9.531 2.61-2.785 1.655-4.962 4.005-6.528 7.051-1.48 3.047-2.22 6.529-2.22 10.446 0 3.916.74 7.398 2.22 10.445 1.566 3.046 3.743 5.44 6.528 7.18 2.785 1.655 5.962 2.482 9.531 2.482Zm-85.773-53.01h-16.059V95.5h16.059V59.595c0-3.221.653-6.093 1.958-8.618 1.306-2.524 3.091-4.482 5.354-5.875 2.35-1.48 4.961-2.22 7.834-2.22 4.091 0 7.398 1.437 9.923 4.309 2.611 2.785 3.917 6.441 3.917 10.967V95.5h15.928V54.764c0-5.136-1.001-9.662-3.003-13.58-2.002-4.003-4.874-7.093-8.617-9.27-3.743-2.175-8.008-3.263-12.795-3.263-4.701 0-8.879 1-12.534 3.003-3.569 1.915-6.224 4.656-7.965 8.225V29.695ZM264.969 95.5H249.04V85.316c-1.828 3.569-4.527 6.354-8.095 8.356-3.569 1.915-7.704 2.873-12.404 2.873-4.875 0-9.183-1.089-12.926-3.265-3.656-2.176-6.528-5.222-8.617-9.14-2.002-4.003-3.003-8.573-3.003-13.709V29.695h16.059v37.342c0 4.526 1.262 8.225 3.787 11.098 2.524 2.785 5.831 4.178 9.923 4.178 2.959 0 5.57-.697 7.833-2.09 2.351-1.479 4.179-3.48 5.484-6.005 1.306-2.524 1.959-5.397 1.959-8.618V29.695h15.929V95.5Zm-119.687-2.873c5.223 2.612 11.272 3.918 18.149 3.918 6.702 0 12.621-1.088 17.757-3.265 5.135-2.263 9.139-5.44 12.012-9.53 2.872-4.092 4.308-8.923 4.308-14.494 0-6.354-1.436-11.315-4.308-14.884-2.873-3.656-6.311-6.267-10.315-7.834-3.917-1.567-9.053-3.09-15.407-4.57-4.613-1.044-8.225-2.002-10.837-2.872-2.524-.958-4.657-2.263-6.397-3.917-1.654-1.741-2.481-3.96-2.481-6.659 0-3.22 1.306-5.788 3.917-7.703 2.611-1.915 6.18-2.873 10.706-2.873 4.788 0 8.661 1.219 11.621 3.656 3.046 2.437 4.743 5.658 5.092 9.662h16.451c-.261-5.658-1.828-10.62-4.701-14.884-2.785-4.266-6.658-7.53-11.62-9.793-4.874-2.35-10.489-3.525-16.843-3.525-6.093 0-11.533 1.088-16.32 3.264-4.788 2.089-8.531 5.092-11.229 9.009-2.611 3.83-3.917 8.225-3.917 13.187 0 6.18 1.393 11.098 4.178 14.754 2.872 3.656 6.267 6.31 10.184 7.964 4.004 1.654 9.14 3.264 15.407 4.831 4.439 1.132 7.921 2.176 10.445 3.134 2.611.957 4.744 2.263 6.398 3.917 1.654 1.567 2.48 3.7 2.48 6.398 0 3.916-1.523 6.92-4.569 9.008-2.96 2.09-6.964 3.134-12.012 3.134-5.484 0-9.88-1.523-13.187-4.57-3.221-3.046-5.049-7.137-5.484-12.273h-16.582c.261 6.354 1.872 11.925 4.831 16.713 3.047 4.787 7.138 8.486 12.273 11.097Z" clip-rule="evenodd"/></svg>