<svg width="512" height="512" viewBox="0 0 512 512" fill="none" xmlns="http://www.w3.org/2000/svg" xmlns:xlink="http://www.w3.org/1999/xlink" class=""><rect id="«r3b»" width="512" height="512" x="0" y="0" rx="128" fill="url(#«r3c»)" stroke="#FFFFFF" stroke-width="0" stroke-opacity="100%" paint-order="stroke"></rect><clipPath id="clip"><use xlink:href="#«r3b»"></use></clipPath><defs><radialGradient id="«r3c»" cx="50%" cy="50%" r="100%" fx="50%" fy="0%" gradientUnits="objectBoundingBox"><stop stop-color="#232323"></stop><stop offset="1" stop-color="#000000"></stop></radialGradient><radialGradient id="«r3d»" cx="0" cy="0" r="1" gradientUnits="userSpaceOnUse" gradientTransform="translate(256) rotate(90) scale(512)"><stop stop-color="white"></stop><stop offset="1" stop-color="white" stop-opacity="0"></stop></radialGradient></defs><svg xmlns="http://www.w3.org/2000/svg" width="360" height="360" fill="#fffafa" viewBox="0 0 256 256" x="76" y="76" alignment-baseline="middle" style="color: rgb(230, 230, 230);"><path d="M168,36H88A52.06,52.06,0,0,0,36,88v80a52.06,52.06,0,0,0,52,52h48a3.83,3.83,0,0,0,1.26-.21c25.46-8.48,74.05-57.07,82.53-82.53A3.83,3.83,0,0,0,220,136V88A52.06,52.06,0,0,0,168,36ZM44,168V88A44.05,44.05,0,0,1,88,44h80a44.05,44.05,0,0,1,44,44v44H184a52.06,52.06,0,0,0-52,52v28H88A44.05,44.05,0,0,1,44,168Zm96,42V184a44.05,44.05,0,0,1,44-44h26C198.9,162.23,162.23,198.9,140,210Z"></path></svg></svg>