<svg
  xmlns="http://www.w3.org/2000/svg"
  xmlns:xlink="http://www.w3.org/1999/xlink"
  enable-background="new 0 0 976.9 346.4"
  viewBox="0 0 976.9 346.4"
>
  <linearGradient
    id="a"
    gradientUnits="userSpaceOnUse"
    x1="2.9644"
    x2="973.6517"
    y1="172.8813"
    y2="172.8813"
  >
    <stop offset="0" stop-color="#ffa588" />
    <stop offset=".271" stop-color="#fcb371" />
    <stop offset=".8357" stop-color="#f4d837" />
    <stop offset="1" stop-color="#f1e425" />
  </linearGradient>
  <path
    d="m877.1 342.8c-26.1 0-50.7-10.2-69.2-28.7l-144.1-144.1c-14.5-14.5-24-32.6-27.4-52.3-2-11.5-1.9-23.3.3-34.8h-42.6c-10.4 0-14.8 6.9-16.5 11s-3.5 12.1 3.9 19.5l62.3 62.3c14.5 14.5 24 32.6 27.4 52.3 3.2 18.2 1 37-6.1 54.4-7.2 17.3-19 32.1-34.1 42.8-16.4 11.5-35.8 17.6-56.3 17.6h-2c-26.1 0-50.7-10.2-69.2-28.7l-13.8-13.8c-6.6 9.7-14.8 18.1-24.4 24.8-16.4 11.5-35.8 17.6-56.3 17.6-26.1 0-50.7-10.2-69.2-28.7l-226-226c-3.4-3.4-7.9-5.2-12.6-5.2-10.4 0-14.8 6.9-16.5 11s-3.5 12.1 3.9 19.5l62.3 62.3c14.5 14.5 24 32.6 27.4 52.3 3.2 18.2 1 37-6.1 54.4-7.2 17.3-19 32.1-34.1 42.8-16.4 11.5-35.8 17.6-56.3 17.6h-28.5c-22.1 0-40-17.9-40-40s17.9-40 40-40h28.1c10.4 0 14.8-6.9 16.5-11s3.5-12.1-3.9-19.5l-62.2-62.2c-14.5-14.5-24-32.6-27.4-52.3-3.2-18.2-1-37 6.1-54.4 7.2-17.3 19-32.1 34.1-42.8 16.4-11.5 35.9-17.6 56.4-17.6 26.1 0 50.7 10.2 69.2 28.7l226 226c3.4 3.4 7.9 5.2 12.6 5.2 10.4 0 14.8-6.9 16.5-11s3.5-12.1-3.8-19.4l-161.2-161.2c-15.6-15.6-15.6-40.9 0-56.6s40.9-15.6 56.6 0l161.1 161.1c.1.1.1.1.2.2l81.7 81.7c3.4 3.4 7.9 5.2 12.6 5.2h2c10.4 0 14.8-6.9 16.5-11s3.5-12.1-3.9-19.5l-62.2-62.3c-14.5-14.5-24-32.6-27.4-52.3-3.2-18.2-1-37 6.1-54.4 7.2-17.3 19-32.1 34.1-42.8 16.4-11.5 35.9-17.6 56.4-17.6h162.9c22.1 0 40 17.9 40 40s-17.9 40-40 40h-24c-10.4 0-14.8 6.9-16.5 11s-3.5 12.1 3.9 19.5l144.1 144.1c3.4 3.4 7.9 5.2 12.6 5.2 9.1 0 16.5-7.4 16.5-16.5 0-22.1 17.9-40 40-40s40 17.9 40 40c.1 53.3-43.3 96.6-96.5 96.6z"
    fill="url(#a)"
  />
  <path
    d="m877.1 307.8c-16.8 0-32.6-6.5-44.5-18.4l-144.1-144.1c-18.3-18.3-23.5-44.6-13.6-68.5 5.1-12.2 13.4-22.1 23.7-28.8h-104.5c-21.8 0-40.5 12.5-48.9 32.6s-3.9 42.2 11.5 57.6l62.3 62.3c18.3 18.3 23.5 44.6 13.6 68.5s-32.2 38.8-58.1 38.8h-2c-16.8 0-32.6-6.5-44.5-18.4l-57.5-57.5c2.6 12.1 1.4 24.9-3.6 37.1-9.9 23.9-32.2 38.8-58.1 38.8-16.8 0-32.6-6.5-44.5-18.4l-226-226c-10-10-23.3-15.5-37.4-15.5-21.8 0-40.5 12.5-48.9 32.6-8.3 20.1-3.9 42.2 11.5 57.6l62.3 62.3c18.3 18.3 23.5 44.6 13.6 68.5s-32.2 38.8-58.1 38.8h-28c-2.8 0-5-2.2-5-5s2.2-5 5-5h28.1c21.8 0 40.5-12.5 48.9-32.6s3.9-42.2-11.5-57.6l-62.3-62.3c-18.3-18.2-23.5-44.5-13.6-68.4 9.9-24 32.1-38.9 58.1-38.9 16.8 0 32.6 6.5 44.5 18.4l226 226c10 10 23.3 15.5 37.4 15.5 21.8 0 40.5-12.5 48.9-32.6 8.3-20.1 4-42.1-11.4-57.5l-161.3-161.2c-2-2-2-5.1 0-7.1s5.1-2 7.1 0l161.1 161.1s.1.1.1.1l81.7 81.7c10 10 23.3 15.5 37.4 15.5h2c21.8 0 40.5-12.5 48.9-32.6 8.3-20.1 3.9-42.2-11.5-57.6l-62.3-62.3c-18.3-18.3-23.5-44.6-13.6-68.5s32.2-38.8 58.1-38.8h162.9c2.8 0 5 2.2 5 5s-2.2 5-5 5h-24c-21.8 0-40.5 12.5-48.9 32.6-8.3 20.1-3.9 42.2 11.5 57.6l144.1 144.1c10 10 23.3 15.5 37.4 15.5 28.4 0 51.5-23.1 51.5-51.5 0-2.8 2.2-5 5-5s5 2.2 5 5c.1 33.9-27.5 61.5-61.5 61.5z"
    fill="#fff"
  />
</svg>
