<svg xmlns="http://www.w3.org/2000/svg" xmlns:xlink="http://www.w3.org/1999/xlink" xml:space="preserve" id="Circle" x="0" y="0" style="enable-background:new 0 0 1386.6 1389" version="1.1" viewBox="0 0 1386.6 1389"><style>.st7{fill:#858585}.st8{fill:#3c3131;stroke:#000;stroke-width:3;stroke-linejoin:round;stroke-miterlimit:10}.st12,.st14,.st9{stroke-linecap:round;stroke-miterlimit:10}.st9{fill:#858585;stroke:#858585;stroke-width:.507;stroke-linejoin:round}.st12,.st14{stroke-width:2}.st12{fill:none;stroke:#000}.st14{stroke:#fff;stroke-linejoin:round}.st14,.st15{fill:#fff}.st16{fill:none;stroke:#000;stroke-width:3;stroke-linejoin:round;stroke-miterlimit:10}.st17{fill:#3c3131}.st18,.st20{fill:none;stroke:#000;stroke-width:2.8381;stroke-miterlimit:10}.st20{fill:#858585;stroke-width:3;stroke-linejoin:round}.st23,.st25{fill:#858585;stroke:#858585}.st23{stroke-width:2;stroke-linejoin:round;stroke-miterlimit:10}.st25{stroke-width:1.1498}.st25,.st27,.st28{stroke-miterlimit:10}.st27{fill:none;stroke:#000;stroke-width:3.4494;stroke-linecap:round}.st28{fill:#3c3131;stroke:#3c3131;stroke-width:3}.st28,.st29,.st33{stroke-linejoin:round}.st29{fill:#3c3131;stroke:#3c3131;stroke-miterlimit:10}.st33{fill:none;stroke:#000;stroke-width:3}.st33,.st35,.st36{stroke-linecap:round;stroke-miterlimit:10}.st35{fill:#3c3131;stroke:#3c3131;stroke-linejoin:round}.st36{fill:#fff;stroke:#fff;stroke-width:.5073}.st37,.st39,.st40,.st41,.st42{stroke:#000;stroke-width:3;stroke-miterlimit:10}.st37{fill:none;stroke-linecap:round}.st39,.st40,.st41,.st42{fill:#858585}.st40,.st41,.st42{stroke-width:2.0279;stroke-linejoin:round}.st41,.st42{fill:#3c3131}.st42{fill:#858585;stroke:#858585}.st43,.st45,.st46{fill:none;stroke-width:3;stroke-miterlimit:10}.st43{stroke:#fff;stroke-linecap:round}.st45,.st46{stroke:#000}.st46{fill:#fff;stroke:#fff;stroke-width:.9836;stroke-linecap:round}.st47{fill:#e1aa87}.st50{fill:#3f8987}.st51{fill:#b2f9ed}.st52{fill:none;stroke:#b2f9ed;stroke-width:8;stroke-linecap:round;stroke-miterlimit:10}.st54{fill:#c6c6c6}.st56{fill:#f1cbb1}.st57{fill:none;stroke:#000;stroke-width:8;stroke-linecap:round;stroke-miterlimit:10}.st59{fill:#ffe5d4}</style><defs><circle id="SVGID_1_" cx="694.5" cy="694.5" r="690.3"/></defs><clipPath id="SVGID_2_"><use xlink:href="#SVGID_1_" style="overflow:visible"/></clipPath><g style="clip-path:url(#SVGID_2_)"><g id="BG_1_"><path d="M-20.2-20.2h1427v1429.5h-1427z" style="fill:#ff9"/><path d="M-20.2-20.2h1427v1429.5h-1427z" style="fill:#fff6d5"/><path id="shadow_1_" d="M-96.5 818.1c473.6 775.7 1483.1 816.9 1589.6-595.4l2.2 1185.7H-88.9s-6.5-658.6-7.6-590.3z" style="fill:#d3d17d"/><path id="shadow" d="M-96.5 818.1c473.6 775.7 1483.1 816.9 1589.6-595.4l2.2 1185.7H-88.9s-6.5-658.6-7.6-590.3z" style="fill:#e2d6b0"/><path id="_x31_2:30" d="M706.5 55.2c117.2 2.4 226.7 36.3 320.4 93.6" style="fill:none;stroke:#fff;stroke-width:18.2125;stroke-linecap:round;stroke-miterlimit:10"/></g><g id="_x38_th_note_DOWN_1_"><path d="M1145.8 1026.9c-1.9-.3-9.1-8.5-10.2-12-3.6-11.1-13.7-36.1-31.9-36.2-13.5-.1 14.8-5.7 14.8-5.7l15 6.6 20.6 38.8c-.1 0-2.3 9.4-8.3 8.5z" style="fill:#3c3131;stroke:#000;stroke-width:3;stroke-miterlimit:10"/><path d="M1149.7 1023.5c.9-3.2-5.3-9.3-5.3-9.3s-7.4-.9-6.8.8c1.1 3.2 6.6 9.1 9.1 10.1 1 0 2.8-.7 3-1.6z" class="st7"/><path d="M1102.3 942.1c-14.5-4.9-15.7-26.6-16.4-34.3-.2-2.2-8.4-11.3-10.8-10.2-4.8 2.2-6.2 2.3-6.5 4.9-.2 2.5 2.9 196.4 3 203.9-5.9-.1-12.2.9-18.4 3.1-23 7.9-36.7 28.5-30.7 46 6 17.5 29.5 25.4 52.5 17.5 23-7.9 36.7-28.5 30.7-46-.3-.8-.6-1.6-.9-2.3l-2.6-145.8s35.9-11.2 43.6 38c.3 2.2 5.7 12.5 8.8 0 4.9-19.7-19.1-63.5-52.3-74.8z" class="st8"/><path d="M1032.7 1143.8s13 15 29.6 7.2c30.6-14.4 24.5-21.2 24.4-32.7-.1-11.8 17.9 12.4 10.8 27.6-7.6 16.2-32.2 28.5-52.7 23.3-16.9-4.3-13.1-23.2-12.1-25.4z" class="st9"/><ellipse cx="1048.3" cy="1131.7" rx="12.5" ry="7.3" style="fill:#fff;stroke:#fff;stroke-width:1.3525;stroke-linecap:round;stroke-miterlimit:10" transform="rotate(-38.399 1048.197 1131.71)"/><ellipse cx="1097" cy="1135.1" rx="6" ry="2.7" style="fill:#fff;stroke:#fff;stroke-width:.5728;stroke-linecap:round;stroke-miterlimit:10" transform="rotate(-66.971 1097.074 1135.085)"/><path d="M1071.6 1106.4s1.3 3.4 7.4 5.4M1086.2 1111.2s11.4 4.2 18.7 14.5M1078.8 908.6l3.5 200.5" class="st12"/><path d="M1086.2 952.1c0-1.5 1.5-2.6 2.9-2.2 11.7 3 55.3 16.3 56.3 48.8.4 11.6-7.5-29.4-38.8-27-3.2.2-10.2 1.4-10.6 5.5-.6 6.3-2.6 15.6-2.3 23.1 1.7 51.2 1.3 108.8 1.3 108.8s3.4 1.3-5.9-2.7c-.8-3.1-1.9-57.2-1.7-95.5.1-32.3-1.5-49-1.2-58.8z" style="fill:#858585;stroke:#858585;stroke-width:.573;stroke-linecap:round;stroke-linejoin:round;stroke-miterlimit:10"/><path d="M1074.3 1097.1v8.2s.5-24.6.7-29.3c0-3.6.9-3.8-1-33.6-1.1-19.3.3 54.7.3 54.7zM1100.2 1047.9c.8 46.5 1 64.8 1 64.8s2.5-10.6 2.7-15.3c0-3.6-2.4-120.1-4.7-119.7-2.2.4.3 28.3 1 70.2z" class="st14"/><path d="m1074.8 900.1 7.9 6.5c.3.2.5.6.5.9v.2c-.5 3.4-.3 7 .2 10.5s1.5 6.9 2.7 10.1c1.3 3.2 2.9 6.3 5 8.9 2.1 2.6 4.8 4.6 7.7 5.4 1.5.4 2.4 2 1.9 3.5-.4 1.5-2 2.4-3.5 1.9-.2-.1-.5-.2-.7-.3l-.1-.1c-3.6-2.2-6.3-5.2-8.2-8.5-1-1.6-1.8-3.3-2.5-5-.7-1.7-1.3-3.4-1.8-5.2-1-3.5-1.6-7.1-2.2-10.6-.6-3.6-1-7.1-1.5-10.8l.5 1.1-7.3-7.2c-.4-.4-.4-1 0-1.4.4-.2 1-.2 1.4.1zM1140.4 979.3c1.6.8 2.6 2 3.4 3.3.8 1.3 1.6 2.6 2.2 3.9 1.4 2.7 2.4 5.5 3.2 8.4.8 2.9 1.5 5.9 1.9 8.9.4 3 .5 6.1.1 9.2-.1.9-.9 1.5-1.8 1.3-.7-.1-1.2-.7-1.3-1.3v-.1c-.4-2.8-1-5.5-1.6-8.3-.7-2.7-1.5-5.4-2.5-8.1-.9-2.7-2-5.3-2.8-8.1l-1.3-4.1c-.4-1.4-.7-2.8-.4-4.6 0-.3.4-.6.7-.5.1 0 .2.1.2.1z" class="st15"/><path d="M1102.3 942.1c-14.5-4.9-15.7-26.6-16.4-34.3-.2-2.2-8.4-11.3-10.8-10.2-4.8 2.2-6.2 2.3-6.5 4.9-.2 2.5 2.9 196.4 3 203.9-5.9-.1-12.2.9-18.4 3.1-23 7.9-36.7 28.5-30.7 46 6 17.5 29.5 25.4 52.5 17.5 23-7.9 36.7-28.5 30.7-46-.3-.8-.6-1.6-.9-2.3l-2.6-145.8s35.9-11.2 43.6 38c.3 2.2 5.7 12.5 8.8 0 4.9-19.7-19.1-63.5-52.3-74.8z" class="st16"/></g><g id="tin_tin_sound_FX_down_2_"><path d="M794.3 924.5c-16.8-5.7-25-12.1-23-18.1 2-5.9 12.6-7.2 29.4-1.5 16.8 5.7 28.5 16.3 27.3 20-1.2 4.3-16.9 5.3-33.7-.4zM830.6 891.5c-3.4-15.8-4.9-24.5 4.1-26.5 9.3-2 12.2 6.4 15.6 22.1 3.4 15.8 0 29.9-3.7 30.8-4.1 1-12.6-10.7-16-26.4zM789.9 962.5c-17 5.4-27.7 4.5-29.8-2.2-2.1-6.7 5.6-14.5 22.7-19.9s33.1-2.8 34.5 1.3c1.6 4.7-10.3 15.4-27.4 20.8zM824.5 987.3c-10.3 14.7-19.5 20.3-25.9 15.9-6.3-4.4-5.3-15.7 5-30.4s25.1-22.1 29.1-19.5c4.5 3.1 2.1 19.3-8.2 34zM875.2 984.3c3.9 15.7 3.6 24.4-5.1 27.2-10.6 3.4-14.6-5.5-18.5-21.2s.2-30.4 4.6-31.6c5-1.3 15 9.9 19 25.6zM904.2 950.6c16.3 7.1 23.9 12.6 21.5 19.7-2.9 8.6-13 5.7-29.3-1.5-16.3-7.1-27-18.5-25.6-22 1.6-3.9 17.2-3.3 33.4 3.8zM909 913.5c17.4-3.4 26.8-3 29.1 5.2 2.7 9.9-7.2 13.4-24.6 16.8-17.4 3.4-32.9-.7-33.8-4.8-1.1-4.6 11.9-13.7 29.3-17.2zM878.7 887.1c11.4-12.5 18.9-17.4 25.5-12.2 8 6.3 2.5 14.7-8.9 27.1s-25.7 17.9-28.9 15.2c-3.6-3.1.9-17.6 12.3-30.1z" class="st17"/><path d="M779.3 955.5c-7.4 1.5-10.3-.5-13.4 1-2 1-2.9 4.9 2 5.6 4.9.7 33.2-7.3 42-14.4 8.8-7.1-.9-4.5-2.3-3.4-1.3 1.2-18.5 9.3-28.3 11.2zM810.4 984.9c-4.8 5.8-6.7-.2-9.9 5.5-1.1 2-.5 9.5 6.4 8.4 5.1-.8 21.9-23.9 24.3-35 2.4-11.1-3.1-4.2-3.4-2.5s-11.1 15.9-17.4 23.6zM863.8 984.8c2.4 13.2-3.5 13.6-2.1 17.7.6 1.8 5.7 5.9 9 .9 2.4-3.7-2.3-27.9-7.9-35.9-5.6-8-4.5-.5-3.6.7.9 1.2 3 8.1 4.6 16.6zM791.3 916.4c-7.3-2-7.8-3.3-11.2-3.4-2.2 0-2.5 1-.2 2.6 3 2.1 30.9 11.2 42 9.4 5.5-.9 2.4-4.6-.7-4.1-4.6.7-20.3-1.8-29.9-4.5zM836.6 887.9c-1.4-6.4-.4-14.6-2-17.2-1-1.6-2.7-1.1-2.8 1.3-.1 3.1 0 26.7 10.5 38.9 3.1 3.7 4.7.4 2.9-1.6-2.6-2.9-6.4-11.7-8.6-21.4zM880.2 902.7c-5.4 5.2-6.9 5.4-8.7 8.4-1.2 1.9.1 3.1 2.6 2 3.3-1.5 26.1-19.3 30.3-29.8 2.1-5.2-3.4-7.3-4.5-4.4-1.7 4.2-12.5 16.9-19.7 23.8zM899.7 927c-7.3 1.7-8.1 1.8-11.5 2.2-2.2.3-3.3 2.7 1.1 3.6 3.6.7 34.2-1.2 43.1-10.7 3.8-4.1.6-6.4-1.9-4.7-3.8 2.6-21 7.4-30.8 9.6zM890 956c-7-2.8-8.9-3.9-11.8-5.5-2-1-2.6.6.5 3.9 2.5 2.6 28 18.6 40.8 17.1 5.6-.6 1.8-5.9-1.2-5.9-4.6-.1-19-5.9-28.3-9.6z" class="st7"/><path d="M877.7 948.8c3.1-.6 5.9.1 8.7.7 2.8.7 5.6 1.6 8.3 2.5 2.7 1 5.4 2 8.1 3.1 2.7 1 5.3 2.2 7.9 3.4.1 0 .1.1.1.2s-.1.1-.2.1c-2.7-.9-5.4-1.7-8.2-2.4l-2.1-.5-2.1-.5c-1.4-.3-2.8-.6-4.2-.8-2.8-.5-5.6-.9-8.4-1.3-2.8-.4-5.6-.6-8.2-1.7h-.1c-.7-.3-1.1-1.2-.8-1.9.3-.5.7-.8 1.2-.9zM915.8 960.9c.7-.1 1.2 0 1.7.2.5.1 1 .4 1.5.6.9.5 1.8 1.1 2.5 1.9.6.7.5 1.8-.2 2.4-.4.4-1 .5-1.6.4-1-.3-1.9-.8-2.8-1.5-.4-.3-.8-.6-1.2-1.1-.3-.4-.7-.9-.9-1.5-.2-.5.1-1.1.6-1.3.2 0 .3 0 .4-.1zM883.5 927.7c1.9-2.1 4-3.4 6.3-4.6 2.3-1.2 4.6-2.2 7.1-3 2.4-.8 4.9-1.4 7.4-1.7 2.5-.4 5-.4 7.5-.4.3 0 .6.3.6.6s-.2.5-.5.6c-1.2.3-2.4.4-3.6.7-1.2.3-2.3.6-3.5.9-2.3.7-4.5 1.6-6.6 2.6-2.1 1-4.2 2.2-6.1 3.5-1 .7-1.9 1.3-2.8 2l-2.7 2-.1.1c-1 .7-2.3.5-3-.5-.8-.9-.7-2.1 0-2.8zM923.3 916.5c.5-.4 1.1-.6 1.7-.8.6-.2 1.2-.3 1.7-.5 1.2-.2 2.3-.4 3.5-.3 1.2.1 2.1 1.1 2 2.2 0 .9-.7 1.6-1.5 1.9-1.1.4-2.3.5-3.5.6-.6 0-1.2.1-1.8 0-.6-.1-1.2-.1-1.8-.4-.8-.3-1.3-1.2-1-2.1.3-.1.5-.4.7-.6zM867.5 910.7c.4-1.1.9-1.9 1.3-2.8.5-.9.9-1.7 1.4-2.5.9-1.7 2.1-3.2 3-4.8 2-3.2 3.9-6.4 6.1-9.6 2.2-3.2 5.1-5.8 8.1-8.3 1.5-1.2 3.1-2.3 4.7-3.4 1.6-1 3.3-1.9 5-2.8 1.2-.6 2.6-.1 3.2 1 .6 1.1.2 2.4-.8 3.1l-.1.1c-1.5 1-3.1 1.9-4.7 2.8-1.5 1-3.1 1.9-4.6 2.9-1.5 1-3.1 2-4.5 3.1-.7.5-1.5 1-2.3 1.6-.7.6-1.5 1.1-2.2 1.6-3 2.2-5.8 4.7-7.9 7.8-1 1.6-1.7 3.3-2.3 5.1-.3.9-.5 1.8-.7 2.7-.1.5-.1.9-.2 1.4 0 .4-.1.9 0 1.3.1.8-.4 1.6-1.2 1.7-.8.1-1.6-.4-1.7-1.2 0-.3 0-.5.1-.8h.3zM893.5 896.8c.9-1.3 1.8-2.5 2.7-3.7l1.3-1.8c.4-.6.8-1.1 1.1-1.6l.1-.2c.4-.7 1.3-.8 2-.4.5.3.7 1 .6 1.5-.3 1-.8 1.8-1.3 2.4-.5.7-1.1 1.3-1.7 1.8-1.2 1.1-2.5 2-4 2.7-.3.2-.7 0-.8-.3-.2 0-.1-.2 0-.4zM844.6 910.6c-.3-.9-.5-1.8-.7-2.7-.2-.9-.3-1.9-.4-2.8v.1c-.6-2.7-.3-5.6-1.1-8.2-.3-1.3-.7-2.6-1.2-3.9l-1.5-3.9c-1-2.6-1.8-5.2-2.7-7.8-.4-1.3-.8-2.7-1.2-4-.2-.7-.4-1.4-.5-2.1-.1-.4-.2-.7-.2-1.1l-.1-1.3c-.2-1.5.9-2.8 2.4-2.9s2.8.9 2.9 2.4V873.3l-.1.7v2.8c.1 1.3.2 2.7.3 4 .2 2.7.6 5.4.8 8.2.1 1.4.2 2.7.4 4.1.2 1.4.4 2.7.8 4 .6 2.7 2.2 5.1 3 7.7v.1c.2.9.4 1.8.5 2.8.1.9.2 1.9.2 2.8 0 .5-.4.8-.8.8-.4-.2-.7-.4-.8-.7zM840.8 911.8c-.7-1.9-1.4-3.9-2-5.8-.3-1-.6-1.9-.9-2.9-.3-1-.6-1.9-.8-3.1 0-.3.2-.6.5-.7.3 0 .6.2.6.5v.1c.1.8.5 1.9.8 2.8.3 1 .7 1.9 1 2.9.7 1.9 1.4 3.8 2.2 5.7.2.4 0 .8-.4 1s-.8-.1-1-.5zM821.4 923.7c-2.2-1.5-4.5-2.9-6.8-4.3-2.3-1.3-4.7-2.6-7.1-3.6-.2-.1-.4-.4-.3-.6.1-.2.3-.3.5-.3 2.7.6 5.3 1.5 7.8 2.5 2.6 1 5.1 2.1 7.6 3.2.9.4 1.2 1.4.8 2.3s-1.4 1.2-2.3.8c0 .1-.1 0-.2 0zM780.3 904.5c2.1.2 3.9.5 5.8.8 1.9.4 3.7.8 5.6 1.3 3.7 1 7.2 2.4 10.6 4 .3.1.4.5.3.8-.1.3-.4.4-.7.3-3.6-.8-7.2-1.3-10.8-1.5-1.8-.1-3.6-.1-5.4-.1-1.8.1-3.6.2-5.2.4-1.7.3-3.2-.9-3.5-2.6-.3-1.7.9-3.2 2.6-3.5.3.1.5.1.7.1zM766.8 952.7c3.7-1.5 7.3-2.8 11-3.9 1.9-.6 3.7-1.1 5.6-1.6 1.9-.4 3.8-.8 5.7-1.1 1-.2 1.9-.4 2.8-.6l2.8-.7c1.9-.4 3.7-1.1 5.5-2 1.8-.9 3.7-1.6 5.6-1.9 1-.2 1.9-.4 2.9-.4s2-.1 3 0c.8.1 1.4.7 1.3 1.5 0 .7-.5 1.2-1.1 1.3h-.1c-.9.2-1.8.3-2.8.3-.9 0-1.9.2-2.8.2-.9 0-1.9.1-2.8.2h-2.9c-1 0-2 0-2.9.1-1 .1-1.9.4-2.8.6-1.8.5-3.6 1.2-5.4 2.1l-2.6 1.3c-.9.5-1.7.9-2.6 1.3l-5.2 2.5c-3.4 1.7-6.8 3.4-10.1 5.2-1.2.7-2.8.2-3.5-1s-.2-2.8 1-3.5c.2.2.3.2.4.1zM797.3 991.6c.1-.9.3-1.3.5-1.9l.6-1.5c.2-.5.5-.9.7-1.4l.7-1.3c1-1.7 2.1-3.2 3.3-4.7 2.3-2.9 4.8-5.6 7.5-8 .6-.6 1.3-1.3 2-1.9.7-.6 1.3-1.2 2-1.9.7-.6 1.3-1.2 2-1.8.7-.6 1.2-1.3 1.8-2 1.2-1.4 2.4-2.9 3.7-4.1 1.3-1.2 2.7-2.5 4.1-3.7.9-.7 2.2-.6 2.9.2s.6 2.2-.2 2.9c-.1.1-.2.1-.3.2h-.1c-1.5.9-3.1 1.8-4.7 2.6-.8.4-1.6.9-2.4 1.3l-2.4 1.2c-3.1 1.8-5.7 4.4-8.1 7.1-.6.7-1.1 1.4-1.7 2.1-.5.7-1 1.5-1.5 2.2-1 1.5-1.9 3-2.6 4.7-.7 1.6-1.3 3.3-1.7 4.9-.1.8-.3 1.7-.3 2.5v1.2l.1.5c0 .1 0 .1.1.2v.1c0 1.7-1.4 3.1-3.1 3.1s-2.9-1.1-2.9-2.8zM809.3 995.3c.4-.9.9-1.7 1.5-2.5l1.8-2.4c.6-.8 1.2-1.6 1.7-2.4.6-.8 1.1-1.7 1.6-2.6.1-.2.4-.3.6-.1.1.1.2.2.2.4 0 1.1-.2 2.2-.4 3.3-.3 1.1-.6 2.1-1.1 3.1-.5 1-.9 2-1.6 2.9-.6.9-1.4 1.7-2.3 2.4-.7.4-1.6.3-2-.4-.3-.4-.3-.9-.1-1.4l.1-.3zM773.6 960.2c.6-.1 1.5-.1 2.2-.1h2.3c.8 0 1.6-.1 2.4-.1.8-.1 1.6-.1 2.4-.1.3 0 .5.2.5.4s-.1.4-.3.4c-1.5.7-3.1 1.2-4.7 1.6-.8.2-1.7.3-2.5.4-.9.1-1.7 0-2.6-.2-.6-.1-1-.8-.8-1.4.1-.5.5-.8 1-.9h.1zM777.9 912l2.4 1.8 2.6 1.8c.2.1.3.4.1.6-.1.2-.3.2-.5.2-1-.4-2-.8-2.9-1.3-.5-.2-1-.5-1.4-.8-.5-.3-.9-.6-1.4-1-.3-.3-.4-.8-.1-1.2.3-.3.8-.4 1.1-.1h.1zM798.7 955.7c-.7.6-1.4 1.1-2.2 1.5-.8.4-1.6.7-2.4 1-1.6.5-3.3.9-5 1-.3 0-.5-.2-.5-.4s.1-.4.3-.4l2.2-1c.7-.3 1.4-.7 2.1-1.1.7-.4 1.4-.8 2-1.2.7-.4 1.4-.8 2-1.1h.1c.6-.3 1.3 0 1.5.5.4.3.3.8-.1 1.2zM858.4 963.3c.7 1.5 1 3 1.3 4.5.3 1.5.4 3.1.4 4.7 0 3.2.3 6.3.9 9.3.3 1.5.8 3 1.4 4.4l1 2.2c.3.7.6 1.5.8 2.2.8 3 1.5 6.1 1.9 9.1.2 1.3-.8 2.4-2 2.6-1.3.2-2.4-.8-2.6-2-.2-1.5-.3-3-.3-4.6-.1-1.5-.1-3.1-.2-4.6-.1-3.1.8-6.3.1-9.3-.5-3-1.5-6-2.9-8.8-.7-1.4-1.3-2.8-1.8-4.3-.5-1.4-.9-2.9-1.2-4.4-.1-.9.5-1.8 1.4-1.9.8-.2 1.5.2 1.8.9zM869.2 1004c.2-.3.3-.7.5-1 .2-.3.3-.7.5-1 .1-.3.3-.7.4-1 .1-.3.2-.7.2-.9v-.1c.1-.7.7-1.2 1.4-1.1.6.1 1.1.6 1.1 1.2s-.1 1-.1 1.5c-.1.5-.2.9-.3 1.3-.1.4-.3.8-.4 1.2-.1.4-.3.8-.5 1.2-.3.8-1.2 1.2-2 .8s-1.2-1.2-.8-2v-.1z" class="st15"/><path d="M794.3 924.5c-16.8-5.7-25-12.1-23-18.1 2-5.9 12.6-7.2 29.4-1.5 16.8 5.7 28.5 16.3 27.3 20-1.2 4.3-16.9 5.3-33.7-.4zM830.6 891.5c-3.4-15.8-4.9-24.5 4.1-26.5 9.3-2 12.2 6.4 15.6 22.1 3.4 15.8 0 29.9-3.7 30.8-4.1 1-12.6-10.7-16-26.4zM789.9 962.5c-17 5.4-27.7 4.5-29.8-2.2-2.1-6.7 5.6-14.5 22.7-19.9s33.1-2.8 34.5 1.3c1.6 4.7-10.3 15.4-27.4 20.8zM824.5 987.3c-10.3 14.7-19.5 20.3-25.9 15.9-6.3-4.4-5.3-15.7 5-30.4s25.1-22.1 29.1-19.5c4.5 3.1 2.1 19.3-8.2 34zM875.2 984.3c3.9 15.7 3.6 24.4-5.1 27.2-10.6 3.4-14.6-5.5-18.5-21.2s.2-30.4 4.6-31.6c5-1.3 15 9.9 19 25.6zM904.2 950.6c16.3 7.1 23.9 12.6 21.5 19.7-2.9 8.6-13 5.7-29.3-1.5-16.3-7.1-27-18.5-25.6-22 1.6-3.9 17.2-3.3 33.4 3.8zM909 913.5c17.4-3.4 26.8-3 29.1 5.2 2.7 9.9-7.2 13.4-24.6 16.8-17.4 3.4-32.9-.7-33.8-4.8-1.1-4.6 11.9-13.7 29.3-17.2zM878.7 887.1c11.4-12.5 18.9-17.4 25.5-12.2 8 6.3 2.5 14.7-8.9 27.1s-25.7 17.9-28.9 15.2c-3.6-3.1.9-17.6 12.3-30.1z" class="st18"/></g><g id="Star_DOWN_1_"><path d="m561.5 977.7-14.6-1.6v-38.9l15.2.3z" style="fill:#858585;stroke:#000;stroke-width:3;stroke-linecap:round;stroke-linejoin:round;stroke-miterlimit:10"/><path d="m523.7 919.4 12.6.4 25.8 17.5-15.2-.1z" class="st20"/><path d="m564.7 905.2-14.5-1.4-26.5 15.6 12.6.4z" class="st8"/><path d="m574.8 867.7-16.2.1-8.4 36 14.5 1.4z" style="fill:#3c3131;stroke:#000;stroke-width:3;stroke-linecap:round;stroke-linejoin:round;stroke-miterlimit:10"/><path d="m607.4 899.5-17.2 25.1 7.5 27.8-26 3.9-24.2 19.9-.6-39-21.5-17.2 26.4-16.1 7.5-34.8 18.2 25.3z" style="fill:none"/><path d="M561.4 977.7c-.2 0-.5-.1-.7-.2-.5-.3-.8-.8-.8-1.4l.7-38.1-22-17c-.4-.3-.6-.8-.6-1.3s.3-1 .8-1.2l25.4-13.3 9.7-36.5c.1-.6.6-1 1.2-1.1h.3c.5 0 .9.2 1.2.6l17.7 24.7 29.3 3.2c.5.1 1 .4 1.2.8.2.5.2 1-.1 1.5l-16.9 26.3 8.8 35.2c.1.5 0 1-.3 1.4-.3.3-.7.5-1.1.5h-.2l-26.8-4-25.8 19.5c-.3.3-.6.4-1 .4z" class="st15"/><path d="m575.3 869.1 18.1 25.3 29.9 3.3-17.2 26.9 9 35.8-27.4-4.1-26.3 19.9.7-38.9-22.6-17.4 26-13.6 9.8-37.2m0-3h-.5c-1.1.2-2.1 1.1-2.4 2.2l-9.5 35.9-24.8 12.9c-.9.5-1.5 1.4-1.6 2.4-.1 1 .3 2 1.2 2.6l21.4 16.5-.6 37.4c0 1.1.6 2.2 1.6 2.7.4.2.9.3 1.4.3.6 0 1.3-.2 1.8-.6l25.3-19.1 26.1 3.9h.4c.8 0 1.6-.4 2.2-1 .7-.7.9-1.8.7-2.7l-8.6-34.6 16.5-25.8c.6-.9.6-2 .2-2.9-.4-.9-1.3-1.6-2.4-1.7l-28.6-3.2-17.3-24.2c-.6-.5-1.5-1-2.5-1z"/><path d="m604.1 938.3-2.3-14.2 13-21.5h-5.4l-43 62.9zM567.6 945.8l24.1-44.7-10.3-13.8-21 42.5 7.3 6.3z" class="st23"/></g><g id="HASHTAG_1_"><path d="M466.7 1100.7c-1.1-5-16.1-6.3-38.6-4.3-1.6-9-3.4-18.4-5.6-28.1-2.2-9.5-4.5-18.7-6.9-27.4 22.5-9.6 36.1-18.8 34.6-24.5-1.6-5.8-18.4-6.8-43.4-3.6-9.2-26-18.6-42.3-24.6-40.9-5.9 1.3-7.4 19.4-4.7 45.8-11.2 2.3-23.2 5.1-35.6 8.4-2.9.8-5.8 1.6-8.6 2.4-10.1-25-21.1-40.4-29-38.6-8.3 1.9-11.5 22.1-9.3 51-32.4 12-53.5 24.2-51.6 31.2 1.8 6.7 24.1 7 55.8 1.8 1.2 7 2.7 14.3 4.3 21.7 2.1 9.3 4.4 18.2 6.9 26.7-24.7 8.6-40.1 17.2-38.9 22.7 1.3 5.7 20.2 6.6 47.7 3.4 10.6 27.2 22.1 44.2 30.5 42.3 8.1-1.8 11.3-21.1 9.5-48.8 4.5-.9 9-1.9 13.6-2.9 10.6-2.4 20.7-5 30.1-7.7 9.3 26.2 18.7 42.7 24.8 41.3 6.3-1.4 7.5-21.6 4.2-50.6 22.2-8.2 35.9-16.2 34.8-21.3zm-101.3 6.1c-3.5.8-6.9 1.6-10.2 2.4-1.3-7.8-2.9-15.9-4.8-24.2-1.6-7.2-3.4-14.2-5.3-20.9 2.1-.5 4.3-1.1 6.4-1.7 10.9-2.9 21.3-6 31-9.2 1.4 7.4 2.9 15.1 4.7 23 2 8.6 4.1 17 6.2 24.9-8.9 1.6-18.3 3.5-28 5.7z" style="fill:#3c3131;stroke:#000;stroke-width:3.4494;stroke-miterlimit:10"/><path d="M308.5 1001.3c-1.1-5.6 2.2-8.2 7.1 2.6 2.9 6.5 4.5 13.4 5.4 24.1.8 9.3-6.7 2.4-2.7 23.5 3.4 18 10.4 8.9 12.5 19.9 2.5 13.1 8.9 25.1 13.1 42.4 1.3 5.3-6.3 6.3-4.3 16.2 2 10.3 9.7 9.6 10.2 13.9.4 3.8 2.6 26.4 2.6 28.8.1 10-7.7 6.9-8.6 2-.9-5.2 0-10.6-1.4-16.4-.9-4-2.3-9-3.3-14.3-.7-4 .7-4.5-1-13.6-1.4-7.7-2.5-6.2-3.4-10.3-1.5-6.9-1.1-16.1-2.8-25.4-3.6-20.4-12.1-25.9-14.7-40.9-2.3-13.4-4.7-12.5-5.9-20-1.8-12.2-1.4-25.3-2.8-32.5zM253.1 1069.6s46.4-6.2 52.2-9.4c6.9-3.8 15.6.3 1.8 7.4-8.7 4.5-37.4 7.5-52.2 5.8-14.9-1.8-1.8-3.8-1.8-3.8zM342.2 1050c8.8 0 18.9-.3 34.1-8.6s14.4-1.4 14.4-1.4-4.2 9.2-19.9 13.1c-16.4 4.1-19.4 6.4-27.8 6.1-8.1-.2-7.4-9.2-.8-9.2zM390.7 1018.4s-3.2-.2-7.8-.5c-3-.2-3.9-36.5-.3-38s3 1.3 3.7 10.4 6.3 25.7 4.4 28.1zM396.3 1050.9s-2.9 2.4-7.3 4.7c-4.4 2.4 8.7 43.7 8.7 43.7s8.3.1 11.6 4.1c3 3.8-1.8-22.6-13-52.5zM430.5 1111.9l.9 4.7s20.1-6.4 24.5-10.1c3.2-2.7 2.5-4.4 1.5-4.9-1-.4-2 2.9-14.9 6.6s-12 3.7-12 3.7z" class="st25"/><path d="M345.1 1130.3c13.9 2.9 10.4-4.3 17-3.7 6.6.5 34.5-6.6 38.4-8.7 3.9-2 4.6-5.6 6.5-5.6 1.9 0 5.3 7.5 1.4 9.6-3.9 2.1-15.4 2.5-27 5.7-11.5 3.2-24.6 8.8-29.5 8.6-7.6-.4-10.7-6.6-6.8-5.9zM324.4 1131.4s-4.9 5.6-18.5 7.6-23.7 2.7-26.3 3.5c-2.4.7-2.4 2.8 2.9 3.2s21.6 0 27-1c5.4-1 13.6-3.4 16.5-6 2.8-2.8 3.5-8.4-1.6-7.3zM411.9 1028.5l2.2 7.2s15.8-6.2 22-9.4c6.3-3.2 8.7-6.8 8.1-7.8-.5-1-10.9 5.4-17.5 7.3-6.6 1.8-14.8 2.7-14.8 2.7zM416.5 1127.3c-3.5 2.3-3.6 3-5.6 4-4.3 2.1-1 5.6 4.7 20 3.1 7.8 8 8.9 9 8.4s-5-11.1-6.5-17.8c-1.6-6.7 1.5-16.7-1.6-14.6z" class="st25"/><path d="M293.4 1133.5c1.8-1 3.6-1.7 5.4-2.5 1.8-.7 3.7-1.5 5.5-2.2 1.9-.7 3.7-1.3 5.7-1.8s3.8-1 6.2-1.1c1.4-.1 2.6 1 2.6 2.4 0 1.2-.7 2.2-1.7 2.5l-.2.1c-1.5.5-3.4 1.1-5.2 1.6-1.8.5-3.7 1-5.6 1.5l-5.7 1.4c-1.9.4-3.8.9-5.8 1.2-1 .1-1.8-.5-2-1.5-.2-.5.2-1.2.8-1.6zM280.2 1143.8c.7-.3 1.5-.4 2.2-.6.8-.1 1.5-.2 2.3.1.8.4 1.1 1.3.8 2-.1.3-.3.5-.6.7-.7.5-1.5.5-2.3.5-.8-.1-1.5-.1-2.3-.3-.7-.1-1.1-.8-1-1.5.2-.4.5-.8.9-.9zM252 1069.9c.7-.3 1.5-.5 2.2-.8.7-.2 1.5-.3 2.3-.1.8.3 1.2 1.2.9 2-.1.3-.3.5-.5.7-.7.5-1.4.6-2.2.6-.8 0-1.5 0-2.3-.1-.7-.1-1.2-.7-1.1-1.4 0-.4.3-.7.7-.9zM340.7 1148.2c.8 1.8 1.4 3.7 2 5.6.5 1.9.9 3.9 1.3 5.8.4 2 .7 3.9 1 5.9.3 2 .5 4 .6 6 0 1-.7 1.8-1.7 1.8-.7 0-1.3-.3-1.6-.9-1-1.8-1.9-3.6-2.8-5.4-.8-1.8-1.6-3.7-2.4-5.5-.7-1.9-1.5-3.7-2-5.6-.6-1.9-1.1-3.8-1.4-5.8-.3-2 1.2-3.9 3.2-4.2 1.6 0 3.2.9 3.8 2.3zM359.5 1116.2c3-1.5 6-2.9 9.1-4.2 3.1-1.3 6.2-2.5 9.6-3.5l4.9-1.4c1.6-.4 3.2-.8 4.8-1.1 3.3-.5 6.5-.9 9.9-.8 1.1.1 2 1 1.9 2.1 0 .8-.5 1.4-1.1 1.7-3.1 1.5-6.3 2.4-9.5 3.1-1.6.4-3.2.7-4.9.9-1.6.2-3.3.4-4.8.6-3.1.6-6.3 1.4-9.4 2.2-3.1.9-6.3 1.8-9.4 2.8-.7.2-1.5-.2-1.7-.9-.3-.5 0-1.2.6-1.5zM318.1 1071.6c1.4 3.7 2.7 7.5 3.8 11.3 1.2 3.8 2.3 7.6 3.3 11.4l1.5 5.7c.5 1.9 1 3.8 1.4 5.7.8 3.9 1.5 7.8 1.5 11.8 0 1.7-1.3 3-3 3-1.2 0-2.3-.7-2.7-1.7-1.7-3.7-2.8-7.5-3.7-11.3-.4-1.9-.8-3.9-1.2-5.8-.4-1.9-.8-3.9-1.1-5.8-.7-3.9-1.3-7.8-1.9-11.7-.6-3.9-1.1-7.9-1.4-11.8-.1-1 .6-1.8 1.6-1.9.9-.1 1.7.4 1.9 1.1zM265.6 1057.7l9-4.1c3-1.4 6-2.7 9.1-4 1.5-.7 3-1.6 4.6-2.3 1.6-.7 3.3-.9 4.9-1.2 3.3-.5 6.7-.7 10.1-.3 1 .1 1.6 1 1.5 2-.1.7-.6 1.2-1.2 1.4h-.1c-3.1 1.1-6.2 1.8-9.3 2.5-1.6.3-3.1.8-4.7.9-1.6.1-3.2.1-4.8.4-3.2.7-6.3 1.7-9.3 2.8-3.1 1.1-6.1 2.3-9 3.7-.5.2-1.1 0-1.4-.5-.1-.5.1-1.1.6-1.3zM303.3 1004.7c1.7 2 2.4 4.1 3 6.3.5 2.2.9 4.5 1.2 6.7.3 2.2.6 4.5.8 6.8.2 2.3.4 4.6.4 6.9 0 1-.8 1.8-1.8 1.8-.7 0-1.3-.4-1.6-1.1-.9-2.1-1.7-4.3-2.3-6.5-.7-2.2-1.3-4.4-1.8-6.6l-1.5-6.6c-.4-2.2-.5-4.5.3-7 .3-1 1.4-1.6 2.5-1.3.3.1.6.3.8.6zM418.4 1129.2c.4 2 .8 3.9 1.2 5.8.5 1.9.9 3.9 1.4 5.8 1 3.9 2 7.7 3.2 11.5.3.9-.2 1.9-1.2 2.1-.9.3-1.9-.2-2.1-1.2-1.1-3.8-2.3-7.6-3.5-11.4-.6-1.9-1.2-3.8-1.9-5.7-.7-1.9-1.3-3.8-2.1-5.6-.5-1.3.1-2.8 1.4-3.3 1.3-.5 2.8.1 3.3 1.4.2.2.3.4.3.6zM405 1050.3c.4 3.6.9 7.1 1.4 10.7.5 3.5 1.1 7.1 1.7 10.6.6 3.5 1.2 7.1 1.9 10.6s1.5 7 2.7 10.4c.5 1.4-.3 2.8-1.6 3.3-1.4.5-2.8-.3-3.3-1.6-.1-.2-.1-.4-.1-.5-.4-3.6-1.2-7.1-2-10.5-.9-3.5-1.9-6.9-2.8-10.3-1-3.4-2-6.9-3-10.3-1-3.4-2.1-6.8-3.3-10.2-.8-2.3.5-4.8 2.8-5.6 2.3-.8 4.8.5 5.6 2.8-.1 0-.1.3 0 .6zM387.1 982.5c1.7 2.7 2.6 5.6 3.2 8.5.6 2.9 1.2 5.9 1.6 8.8.5 2.9 1 5.9 1.3 8.9.4 3 .7 6 .9 9 .1 1-.7 1.8-1.6 1.8-.8 0-1.5-.4-1.8-1.2-1-2.9-1.9-5.7-2.6-8.6-.8-2.9-1.5-5.8-2.2-8.7-.7-2.9-1.3-5.8-1.9-8.8-.5-2.9-.8-5.9-.3-9.1.2-1 1.1-1.7 2.1-1.5.6.1 1 .4 1.3.9zM332 1041.2c1.5-1.8 3.3-3.1 5.2-4.3 1.9-1.2 3.9-2.1 6-2.8l6.1-1.8c2-.6 4-1.2 6-1.7 4-1.1 8-2.1 12.1-3.1 4-1 8.1-1.8 12.2-2.6.9-.2 1.8.4 2 1.4.2.9-.3 1.7-1.1 1.9-3.9 1.4-7.9 2.6-11.9 3.8-4 1.2-8 2.3-12.1 3.3-2 .5-4 1-6.1 1.5l-6 1.4c-1.9.4-3.7 1.1-5.5 1.8-.9.4-1.8.8-2.6 1.3s-1.7 1-2.4 1.5l-.1.1c-.5.4-1.3.3-1.7-.3-.5-.4-.4-1-.1-1.4zM412.8 1019.7c1.7-1.3 3.6-2.2 5.6-2.9 1.9-.8 3.9-1.3 5.9-1.7 2-.3 4-.8 6.1-1.1 1-.2 2-.3 3.1-.4.5-.1 1-.1 1.6-.1H436.8c.9 0 1.7.8 1.7 1.8 0 .8-.6 1.5-1.4 1.6l-.3.1-1.3.2c-.5.1-.9.2-1.4.3l-2.9.7c-1.9.5-3.9 1-5.8 1.6-1.9.6-3.8 1.1-5.8 1.5-2 .4-3.9.8-6 .8-.7 0-1.3-.5-1.3-1.2 0-.5.2-.9.5-1.2zM434.5 1102.3c1.1-.8 2.3-1.3 3.5-1.8 1.2-.5 2.4-.9 3.6-1.2 1.2-.3 2.5-.6 3.7-.8 1.3-.2 2.5-.3 3.8-.3 1 0 1.8.8 1.8 1.8 0 .7-.4 1.3-.9 1.6-1.2.6-2.3 1.1-3.5 1.5-1.2.4-2.4.7-3.7 1-1.2.3-2.5.4-3.8.6-1.3.1-2.6.2-3.9 0-.7-.1-1.2-.7-1.2-1.4.1-.5.3-.8.6-1z" class="st15"/><path d="M376.8 1018.7c-2-23.8-.4-45.5 5.2-46.8 9.7-2.2 27.8 40.9 40.4 96.4 12.6 55.4 14.9 102.1 5.2 104.4-5.9 1.3-15-14.2-24-39.1" style="fill:none;stroke:#000;stroke-width:3.4494;stroke-miterlimit:10"/><path d="M310.2 1122.3c8.2-.7 14.6-.9 21.2.8M293.8 1041.4c8.1-.7 11.3-.9 17.2.6M336.2 1140.3c-5.3 4.1-10.8 5.5-17.5 8.1M367.7 1140c-7.3 1.4-16.7 1.8-22.2-2.2M341.6 1121c3.5-6.4 11.1-10.1 17.8-12.8M349 1063.1c-7.3 1.4-16.7 1.9-22.2-2.1M320.2 1040c3.5-6.4 10.2-9.9 16.9-12.6M372.3 1018.7c7.2-1.7 16.6-2.3 22.3 1.4M398.6 1040.8c-3.2 6.6-10 9.5-16.6 12.5M389.9 1101.7c7.5-1.2 15.6-1.7 21.3 2.1M415.9 1120.3c-3.2 6.6-9.2 9-15.9 11.7M316.4 1065c-7 6.1-8.8 6.6-16.8 8.9" class="st27"/></g><g id="Beamed_note_CENTER_1_"><path d="M746.2 508.7c-3-1.9-2.8 6.8-2.8 10.3v186.9s.2 16.8-14.9 22c-18.7 6.3-34 10.6-46 14.1-5.8 1.7-15.7 6.3-15.7-2.5V607.8c0-9.5-7.2-16.5-9.3-18.5-8.3-7.8-48.9-17.8-48.9-9.8 0 1.1 25.2 7.1 25.2 8.9.1 34.1 1 180.1 1 194.7 0 19.4 17 35 30.1 31.4 16.2-4.5 64-17.9 87.2-24.6 7.3-2.1 18.8-3.2 18.8-24V543c-.1-6.6-4.7-21.7-24.7-34.3zm-13 244.2c-.1 3.9-2.7 7.4-6.5 8.4l-58.4 16.9c-5.8 1.7-11.5-2.7-11.5-8.6V762c0-3.9 2.5-7.4 6.2-8.6l58.7-18.9c5.9-1.9 11.9 2.6 11.8 8.8l-.3 9.6z" class="st20"/><path d="M759.8 532.6v216.2c0 20.8-11.4 21.9-18.8 24-23.2 6.7-75.9 21.7-92.2 26-16 4.2-15.1-20.8-15.1-20.8V633l22-23.7v113c0 22.3 9.9 18.2 15.7 16.5 12-3.5 27.3-7.8 46-14.1 15.2-5.2 14.9-22 14.9-22V559.3l27.5-26.7z" class="st16"/><path d="m726.2 748.4-51 14.8c-7.1 2-8.5 1.7-8.5 18.6l-12.6 1.6c0-4.8-6.2-32.2-1.6-33.7l72.1-23.3c7.2-2.3 14.6 3.2 14.5 10.8l-1.3 19.1c-4.5-5.1-7-9.2-11.6-7.9z" class="st7"/><path d="M766 774.3c-2.4-4.2-3-5.3-5.7-7.9-1.1 1.7-5.9 6.5-8.5 7.8 1.3 4.2 3.3 7 6.3 9.5 3.5-1.2 7.4-5.9 7.9-9.4z" class="st28"/><path d="M645 583.3c-4.1-1-5 .8-8.7.8.4 2 17.2 18 18.7 25.9 4.1.5 9.8 1.8 12.1-.6.9-6.5-6-22-22.1-26.1zM749.3 514c-3.8-1.6-2.7.6-6 2.9.4 2 14.3 18.1 15.8 26.1 4.1.5 9.8 1.8 12.1-.6.8-6.5-6.9-22-21.9-28.4z" class="st29"/><path d="M666.4 809.2c-4.3-3.3-6.8-6-8.8-8.7-2.8 1-4.9 1.4-8.8 2 3.8 4.7 7.5 6.2 11.3 8 2.6.2 4.2-.1 6.3-1.3zM668.5 762.8l-8.1-11.4-5.7 5.7 10.1 12.1zM733.2 747.4l-.8-15.2-7.9 1.7 1.1 14z" class="st28"/><path d="M746.2 508.7c-3-1.9-2.8 6.8-2.8 10.3v186.9s.2 16.8-14.9 22c-18.7 6.3-34 10.6-46 14.1-5.8 1.7-15.7 6.3-15.7-2.5V607.8c0-9.5-7.2-16.5-9.3-18.5-8.3-7.8-48.9-17.8-48.9-9.8 0 1.1 25.2 7.1 25.2 8.9.1 34.1 1 180.1 1 194.7 0 18.2 17 35 30.1 31.4 16.2-4.5 64-17.9 87.2-24.6 7.3-2.1 18.8-3.2 18.8-24V543c-.1-6.6-4.7-21.7-24.7-34.3zm-13 244.2c-.1 3.9-2.7 7.4-6.5 8.4l-58.4 16.9c-5.8 1.7-11.5-2.7-11.5-8.6V762c0-3.9 2.5-7.4 6.2-8.6l58.7-18.9c5.9-1.9 11.9 2.6 11.8 8.8l-.3 9.6z" class="st16"/><path d="m726.2 748.4-51 14.8c-7.1 2-8.5 1.7-8.5 18.6l-12.6 1.6c0-4.8-6.2-32.2-1.6-33.7l72.1-23.3c7.2-2.3 14.6 3.2 14.5 10.8l-1.3 19.1c-4.5-5.1-7-9.2-11.6-7.9z" style="fill:none;stroke:#000;stroke-width:3.6869;stroke-linejoin:round;stroke-miterlimit:10"/><path d="M758.5 524.8c-7.3-21.2-35.7-30.7-63.4-21.2-27.7 9.5-44.3 34.4-37 55.7 7.3 21.2 35.7 30.7 63.4 21.2 3.9-1.3 7.5-3 10.9-4.8v127.2s.2 16.8-14.9 22c-18.7 6.3-34 10.6-46 14.1-5.8 1.7-15.7 5.8-15.7-16.5V620.1c0-6.3.3-14.9-.8-18.4-6.7-21.4-35.4-30.8-62.9-21.4-27.5 9.4-43.8 34.3-36.5 55.5 7.3 21.2 35.4 30.8 62.9 21.4 5.6-1.9 10.8-4.5 15.3-7.6v128.6s-.9 25 15.1 20.8c16.3-4.3 69-19.3 92.2-26 7.3-2.1 18.8-3.2 18.8-24V540.6c-.1-5.4.4-10.7-1.4-15.8zm-25.3 228.1c-.1 3.9-2.7 7.4-6.5 8.4l-58.4 16.9c-5.8 1.7-11.5-2.7-11.5-8.6V762c0-3.9 2.5-7.4 6.2-8.6l58.7-18.9c5.9-1.9 11.9 2.6 11.8 8.8l-.3 9.6z" class="st8"/><path d="M663.3 536s-12.1 36.6 30 41c12.8 1.3 22.4-.9 31.1-4.7 2.3-1 4.3-4.6 1.9-5.4-3.3-1.1-6.8-4.1-1-6.9 10.5-5.1 19.1-15.2 26.2-24.9 2.4-3.2 2.9-14.6-11.1-2.5s-30 24.3-45.2 24.1c-12.5-.2-33.2-2.2-31.9-20.7zM561.8 612s-12.6 38 30.2 41.6c12.3 1 20.9-.4 32.9-5.9 3.2-1.5 6.3-4.4 4.8-7.6-1.2-2.3-1.7-4.9.1-6.3 10.6-7.8 14.9-13.7 19.2-19.8 2.7-3.9 4.9-19.7-5.6-10.2-13.7 12.4-34.3 29.2-49.6 29-12.5-.2-33.3-2.2-32-20.8z" class="st7"/><ellipse cx="696.8" cy="523.2" class="st15" rx="17.3" ry="10.7" transform="rotate(-18.933 696.741 523.1)"/><ellipse cx="598.1" cy="597.9" class="st15" rx="17.3" ry="10.7" transform="rotate(-18.933 598.112 597.855)"/><path d="M648.8 625.4c-1.6 3-3.6 5.9-5.9 8.4-1.1 1.3-2.4 2.5-3.5 3.7l-.4.5-.2.2-.1.1c0 .1-.1.5-.2.8-.1.7-.2 1.5-.2 2.3-.4 6.7-.6 13.5-.9 20.3-.5 13.6-.9 27.1-1 40.7-.1 6.8-.1 13.6 0 20.4 0 6.8.2 13.6.5 20.4.6 13.5 1.7 27.1 3 40.5v.2c0 .8.3 1.8.5 2.8.2 1 .5 2 .9 3 .7 2 1.7 4 3 5.5v.1c.5.6.5 1.6-.2 2.1-.6.5-1.4.5-1.9 0-1-.9-1.9-1.8-2.6-2.9-.7-1-1.4-2.1-1.9-3.2s-1-2.3-1.4-3.5c-.4-1.2-.6-2.5-.6-4v.2c-.8-13.7-.9-27.3-1.1-40.9l-.2-20.4v-20.4c0-13.6.2-27.2.4-40.8.1-6.8.3-13.5.6-20.4.1-.9.3-1.8.5-2.7.2-.5.3-.9.7-1.6.1-.1.1-.2.2-.3l.1-.1.3-.2.5-.4c1.3-1.1 2.7-2.1 3.9-3.3 2.5-2.2 4.8-4.6 6.8-7.4.1-.1.2-.1.3-.1.1.2.1.3.1.4z" class="st15"/><path d="M654.3 631.8v101.3s.8 11.9 11.9 9" style="fill:none;stroke:#fff;stroke-width:2;stroke-linecap:round;stroke-linejoin:round;stroke-miterlimit:10"/><path d="M663.3 753.7c-1.6 1.4-3.3 2.7-4.6 4-.6.7-1 1.4-1.1 1.9v12.5c0 .3.1.8.2 1.2.1.4.2.9.4 1.3.7 1.7 1.9 2.9 3.4 3.3 1.6.5 3.4.2 5.4-.3 4.1-1.1 8.2-2.2 12.2-3.4l49-14h-.1s.1-.1.2-.1l.3-.2c.2-.2.4-.3.6-.5.4-.4.8-.8 1.1-1.3.7-1 1.2-2.1 1.5-3.3.7-2.4.9-5 .8-7.8-.1-2.7-.4-5.4-1.2-7.7-.4-1.2-1-2.2-1.7-2.9-.4-.4-.8-.6-1.2-.8-.2-.1-.4-.1-.7-.2h-.5c-.8.2-1.6-.3-1.8-1.1-.2-.8.3-1.6 1.1-1.8.4-.1.6-.1.8-.1h.7c.5 0 .9.1 1.4.3.9.3 1.7.8 2.3 1.4 1.3 1.2 2.1 2.7 2.6 4.1 1.1 2.9 1.4 5.8 1.5 8.7.1 2.8 0 5.9-.8 8.8-.4 1.5-1.1 2.9-2 4.3-.4.7-1 1.3-1.6 1.9-.3.3-.6.6-1 .8-.2.1-.4.2-.6.4-.2.1-.4.2-.7.4h-.1l-24.5 7c-8.2 2.3-16.3 4.7-24.5 6.9-4.1 1.1-8.2 2.3-12.3 3.3-2.1.6-4.7 1-7.2.2-1.3-.4-2.4-1.1-3.4-2-.9-.9-1.6-2.1-2.1-3.2-.2-.6-.4-1.2-.5-1.8-.1-.6-.2-1.2-.3-1.9V759c.1-.8.5-1.5.9-2.1.4-.6.9-1 1.3-1.4.9-.8 1.9-1.3 3-1.7 1-.4 2.1-.7 3.2-.9.2 0 .3.1.4.3.3.3.3.4.2.5z" class="st15"/><path d="M720 727s14.4-3.5 14.4-27.1V563.2s8-5.9 12-11.8" style="fill:none;stroke:#fff;stroke-width:3;stroke-linecap:round;stroke-linejoin:round;stroke-miterlimit:10"/><path d="M758.5 524.8c-7.3-21.2-35.7-30.7-63.4-21.2-27.7 9.5-44.3 34.4-37 55.7 7.3 21.2 35.7 30.7 63.4 21.2 3.9-1.3 7.5-3 10.9-4.8v127.2s.2 16.8-14.9 22c-18.7 6.3-34 10.6-46 14.1-5.8 1.7-15.7 5.8-15.7-16.5V620.1c0-6.3.3-14.9-.8-18.4-6.7-21.4-35.4-30.8-62.9-21.4-27.5 9.4-43.8 34.3-36.5 55.5 7.3 21.2 35.4 30.8 62.9 21.4 5.6-1.9 10.8-4.5 15.3-7.6v128.6s-.9 25 15.1 20.8c16.3-4.3 69-19.3 92.2-26 7.3-2.1 18.8-3.2 18.8-24V540.6c-.1-5.4.4-10.7-1.4-15.8zm-25.3 228.1c-.1 3.9-2.7 7.4-6.5 8.4l-58.4 16.9c-5.8 1.7-11.5-2.7-11.5-8.6V762c0-3.9 2.5-7.4 6.2-8.6l58.7-18.9c5.9-1.9 11.9 2.6 11.8 8.8l-.3 9.6z" class="st16"/><path d="M631.2 636.3s11.8-6.9 20.4-21.5M725.6 562.9s10.5-2.1 26.4-24.6" class="st33"/><path d="M721.9 728.2s11.1 3.2 12.1-10.7c1-14-1.2-27.1 7.5-28.5s10.1 16.8 11.3 26.5c1.2 9.7 4.2 30.8 2 37.4-2.2 6.7-12.5 13-17.4 4.5-4.9-8.5-7.5-24.9-9.3-25.7-1.7-.8-6.2-3.5-6.2-3.5z" style="fill:#c6c6c6;stroke:#c6c6c6;stroke-linecap:round;stroke-linejoin:round;stroke-miterlimit:10"/><path d="M734.7 732.8s3.9 5.8 0 7.5c0 0-.1 7.6 5 10.3 5.1 2.7 6.9-2.6 5.6-6.9-1.3-4.2-1.9-11-10.6-10.9zM741 697.5s-4.4 8.9-4.2 15.9c.2 7 4.6 7.6 7.1 3.3s4.7-3 4.7-3 1.7-9.6-.6-12.9c-2.1-3.3-2.3-7.2-7-3.3z" class="st35"/><path d="M741.3 754c.7.2 1.4.5 2 .6.6.1 1.1.1 1.3 0 .2-.1.4-.2.7-.6.3-.4.6-.9.9-1.6.6-1.3 1-2.9 1.4-4.5.4-1.6.7-3.3 1.2-5 .1-.3.4-.4.6-.4.2.1.3.2.4.3.5 1.7.8 3.5 1 5.3.1 1.8.1 3.7-.5 5.6-.3 1-.7 2-1.4 3-.4.5-.9 1-1.5 1.4-.6.4-1.3.7-2.1.8-1.5.2-2.8-.2-3.7-.8-1-.6-1.7-1.3-2.3-2.2-.4-.6-.2-1.5.4-2 .4-.2.8-.3 1.2-.2l.4.3zM736 726.9c-.4-1.3-.5-2.5-.6-3.7-.1-1.2.1-2.3.2-3.5.1-1.1.3-2.3.6-3.4s.6-2.2 1-3.3c.5-1.3 2-1.9 3.3-1.3 1 .4 1.6 1.4 1.5 2.4-.1 1.2-.3 2.3-.5 3.4-.3 1.1-.6 2.2-1 3.3-.4 1.1-.8 2.2-1.4 3.2-.6 1-1.2 2.1-2.2 3-.2.2-.6.2-.8 0 0 .1 0 0-.1-.1zM739.4 707.6c-.4-1.8-.6-3.6-.7-5.5 0-.9 0-1.9.1-2.8.1-1 .2-1.9.6-3 .2-.6.5-1.2 1.1-1.8.2-.2.4-.4.6-.5.3-.2.7-.4 1-.4.7-.2 1.4 0 1.9.1 1 .3 1.5.8 1.9 1.2.4.4.8.9 1.1 1.3 1.2 1.8 1.9 3.6 2.1 5.5.1.9-.5 1.8-1.5 1.9-.7.1-1.3-.2-1.6-.7v-.1c-1-1.4-1.8-2.8-2.7-3.9-.2-.3-.4-.5-.6-.7-.2-.2-.4-.3-.2-.3.1 0 .3.1.6 0 .1 0 .3-.1.4-.2l.1-.1c0-.1-.2.1-.3.4-.6 1.1-1.1 2.9-1.5 4.5-.4 1.7-.8 3.4-1.3 5.1-.1.3-.4.4-.6.4-.3-.1-.4-.2-.5-.4z" class="st15"/><path d="M638.2 625.9c1.3.8 5.2-4.5 6.6-6.7 1.6-2.6 3.9-10.2 2.3-10.8-1.4-.5-2.2 5-4.8 9-2.6 4.2-5.6 7.6-4.1 8.5z" class="st36"/><ellipse cx="750.4" cy="530.3" class="st36" rx="4.7" ry="2.7" transform="rotate(-86.564 750.41 530.288)"/></g><g id="Half_note_UP_1_"><path d="M1091.3 271.8s23.3.5 30.6 38.6c1.4 7.2 2.4 14.4 10.1 2.1 9.2-14.7-14.6-44.8-33.2-63.8-18.5-18.9-7.5 23.1-7.5 23.1z" class="st20"/><path d="m1084.2 388.4 11.1-125.6s23.5 2.2 31.9 40.7c0 0 4.5 17.4 8.8 0s-14.6-44.8-33.2-63.8c-18.5-19-13.7-29.6-14.4-37.3-.2-2.2-2.7-3-7.5 0-4.5 2.8-6.9 3.7-7.1 6.2-.2 2.6-14.6 159.6-14.6 159.6l25 20.2z" class="st17"/><path d="M1082.2 373.2c-2.8-5.9-9.5-12.2-12.6-13.6 5.1-14.6 15.6-147.2 15.6-147.2s3 37.6 3.1 43.5c.2 34.3-6.1 109.4-6.1 117.3z" class="st7"/><path d="m1079.1 370.1 6.2-57.8c.1-.6.6-1 1.1-.9.5.1.9.5.9 1.1l-3.9 58c-.1 1.2-1.1 2.1-2.3 2-1.2-.1-2.1-1.1-2-2.4 0 .1 0 0 0 0zM1088.6 271.2c0-1.9.2-3.6.5-5.4.3-1.8.8-3.6 1.6-5.3.4-.9 1-1.7 1.9-2.4.8-.7 2-1.1 3.1-1 1.1.1 2 .4 2.8.9.8.4 1.6 1 2.3 1.5.3.2.4.7.1 1-.2.3-.6.4-1 .2-.7-.5-1.4-.9-2.1-1.2-.7-.3-1.5-.5-2.1-.5-1.3 0-2.2 1.1-2.8 2.5-.6 1.4-.8 3.1-1 4.7-.1 1.6-.1 3.3 0 4.9.1.9-.6 1.7-1.5 1.8s-1.7-.6-1.8-1.5v-.2zM1124.4 274.3c1.5 1.8 2.7 3.8 3.8 5.8 1.1 2 2.1 4.1 2.9 6.3.4 1.1.7 2.2 1.1 3.3.3 1.1.6 2.3.8 3.4.4 2.3.6 4.8 0 7.2-.1.6-.7 1-1.3.8-.5-.1-.8-.5-.9-.9v-.1c-.3-2.1-.8-4.2-1.4-6.3-.6-2.1-1.3-4.2-2-6.3-1.4-4.2-3-8.4-4.3-12.7-.1-.4.1-.8.5-.9.3.1.6.2.8.4zM1086.9 205.3l-1.4 24.4c0 .4-.3.6-.7.6-.3 0-.6-.3-.6-.6l-1.4-24.4c-.1-1.1.8-2.1 1.9-2.1 1.1-.1 2.1.8 2.1 1.9.1.1.1.1.1.2z" class="st15"/><path d="m1082.2 203.3-14 158.3" class="st37"/><path d="m1077.4 209.1-14.2 151.5" style="fill:none;stroke:#fff;stroke-width:2;stroke-linecap:round;stroke-miterlimit:10"/><path d="m1084.2 388.4 11.1-125.6s23.5 2.2 31.9 40.7c0 0 4.5 17.4 8.8 0s-14.6-44.8-33.2-63.8c-18.5-19-13.7-29.6-14.4-37.3-.2-2.2-2.7-3-7.5 0-4.5 2.8-6.9 3.7-7.1 6.2-.2 2.6-14.6 159.6-14.6 159.6l25 20.2z" class="st16"/><path d="M1073.3 388.3c-.2 1.2-.5 2.4-.9 3.5-1-9.8-10.1-18.4-22.2-20.3-12.5-1.9-24.1 4-27.6 13.6-.2-1.5-.1-3 .1-4.5 1.8-11.6 14.5-19.2 28.5-17.1 13.9 2.1 23.8 13.2 22.1 24.8z" class="st39"/><path d="M1052.3 356.2c-20.1-3.1-38.6 8.7-41.3 26.3-2.7 17.6 11.5 34.4 31.6 37.4 20.1 3.1 38.6-8.7 41.3-26.3 2.6-17.5-11.5-34.3-31.6-37.4zm21 32.1c-1.8 11.6-14.5 19.2-28.5 17.1-14-2.1-23.9-13.3-22.1-24.8s14.5-19.2 28.5-17.1c13.9 2.1 23.8 13.2 22.1 24.8z" class="st17"/><path d="M1038.2 361.2c-2.9.8-5.7 2-8.3 3.5-2.6 1.5-4.9 3.3-6.8 5.5-1.8 2.2-3.1 4.7-3.6 7.4s-.3 5.5.4 8.2c.3 1.4-.5 2.8-1.9 3.1s-2.8-.5-3.1-1.9v-.2c-.5-3.3-.4-6.9.6-10.2 1-3.3 2.9-6.3 5.3-8.6s5.2-4.1 8.1-5.4c2.9-1.3 5.9-2.2 9.1-2.8.4-.1.7.2.8.6 0 .4-.2.7-.6.8z" class="st15"/><path d="M1076.1 405.2c-2 2.4-4.2 4.1-6.6 5.5-2.3 1.4-4.8 2.4-7.2 3.2-4.9 1.6-10.1 2.4-15.3 2.4-5.2 0-10.5-1-15.4-3.2s-9.4-5.7-12.6-10.2c-1.3-1.8-.9-4.4 1-5.7 1.8-1.3 4.4-.9 5.7 1 2.3 3.3 5.5 5.8 9.2 7.5 3.7 1.7 7.9 2.5 12.2 2.5 4.3.1 8.6-.6 12.7-1.9 2-.7 4-1.5 5.7-2.5 1.8-1 3.3-2.2 4.3-3.5l.1-.1c1.4-1.7 3.9-1.9 5.6-.5 1.7 1.4 2 3.9.6 5.5z" class="st7"/><path d="M1076 368.8c-5.7-6.4-14-11.1-23.7-12.5-20.1-3.1-38.6 8.7-41.3 26.3-2.7 17.6 11.5 34.4 31.6 37.4 20.1 3.1 38.6-8.7 41.3-26.3 0 0 1.5-8.4-2-15.7m-8.6 10.3c-1.8 11.6-14.5 19.2-28.5 17.1-14-2.1-23.9-13.3-22.1-24.8s14.5-19.2 28.5-17.1c13.9 2.1 23.8 13.2 22.1 24.8z" class="st37"/><path d="m1124.3 315.6 2-2.6c.7-.9 1.4-1.7 2.2-2.6.5-.6 1.4-.6 2-.1.5.5.6 1.3.2 1.9-.6.8-1.2 1.7-1.8 2.6l-1.7 2.7c-.5.8-1.5 1-2.3.5-.8-.5-1-1.5-.5-2.3-.2 0-.2-.1-.1-.1z" class="st15"/></g><g id="Star_UP_1_"><path d="m827.2 422.4 15.1 17.5 37.2-9.6-16.1-16.9zM925.8 389.8l9.7 15.9-29.6 16.4-12-16.9z" class="st40"/><path d="m889.6 450.4-28-37.6 32.3-7.6 12 16.9z" class="st41"/><path d="m889.6 450.4-12.9-21.1 17.2-24.1 12 16.9zM918.4 388.1l.9-20.8-13.9-14.7-3 31.5z" class="st41"/><path d="M878.9 432.1c-.3 0-.6-.1-.7-.3l-15.9-17.3-33.8 8.5h-.2c-.3 0-.7-.2-.9-.5-.2-.4-.2-.9.1-1.2l24.6-28.9-2.8-21.2c0-.3.1-.6.3-.8.2-.2.5-.3.7-.3l27.5 2 26.5-19.4c.2-.1.4-.2.6-.2.2 0 .3 0 .5.1.3.2.6.6.5.9l-1.4 26 20.8 9.7c.4.2.6.5.6.9s-.2.8-.6.9l-31 14.6-14.5 25.9c-.2.3-.4.5-.8.5 0 .1-.1.1-.1.1z" class="st15"/><path d="m904.8 353.4-1.4 26.7 21.4 10-31.3 14.8-14.6 26.1-16.3-17.7-34.4 8.7 24.9-29.2-2.8-21.7 27.8 2 26.7-19.7m0-2c-.4 0-.8.1-1.2.4L877.4 371l-27.1-2h-.1c-.6 0-1.1.2-1.5.6-.4.4-.6 1.1-.5 1.7l2.7 20.8-24.3 28.5c-.6.7-.6 1.6-.2 2.4.4.6 1 1 1.7 1 .2 0 .3 0 .5-.1l33.2-8.4 15.5 16.9c.4.4.9.7 1.5.7h.2c.6-.1 1.2-.5 1.5-1l14.3-25.6 30.7-14.5c.7-.3 1.2-1.1 1.2-1.8 0-.8-.5-1.5-1.2-1.8l-20.2-9.4 1.4-25.3c0-.8-.4-1.5-1.1-1.9-.2-.3-.5-.4-.8-.4zm0 4.1z"/><path d="m914 389.8-57.2 4.9-19.3 21.7zM867.5 413.4l10.3 5.6 10.7-13z" class="st42"/></g><g id="tin_tin_sound_FX_up_2_"><path d="M590.2 305.9c-5.5-17.4-5.4-28 .4-29.8 5.8-1.8 13 6.3 18.5 23.6s4.2 33.3.7 34.6c-4 1.4-14-11.1-19.6-28.4zM643.2 317.9c10.2-11.9 16-18.2 22.1-13 6.3 5.4 1.5 12.5-8.7 24.3-10.2 11.9-22.6 17.9-25.2 15.8-2.8-2.2 1.7-15.3 11.8-27.1zM556.3 329c-15.4-9.7-22.1-17.9-18.9-23 3.2-5.1 14-3.6 29.4 6.1 15.4 9.7 24.7 22.8 22.8 26-2.2 3.6-17.9.6-33.3-9.1zM556.1 371.1c-18.2.7-28.4-2.7-28.7-9.4s9.5-12 27.7-12.7c18.2-.7 33.3 5.6 33.5 9.7.4 4.8-14.3 11.7-32.5 12.4zM591.3 412.2c-11.7 14.6-19.7 20.7-27 15.6-9-6.1-3.3-15.8 8.4-30.4 11.7-14.6 27.1-21.9 30.6-19.2 4 3.1-.3 19.4-12 34zM642.7 415.6c4.4 18.2 4.4 28.2-4.1 31-10.3 3.4-14.5-7-19-25.3-4.4-18.2-.8-34.8 3.5-36 4.9-1.3 15.2 12 19.6 30.3zM675.1 395c13.3 11.8 18.6 19.7 13.1 26.8-6.6 8.6-15.6 2.9-28.9-9-13.3-11.8-19.2-27-16.3-30.4 3.4-3.9 18.8.7 32.1 12.6zM675.4 356.1c17.7 1.6 26.7 4.6 26.6 12.8-.1 10-10.7 10.6-28.5 9-17.7-1.6-31.6-9.6-31.3-13.7.3-4.7 15.4-9.7 33.2-8.1z" class="st17"/><path d="M687.5 413.5s.9 16.1-15.4 5.8c-14.1-8.9-21.2-19.3-25.7-27.6-1-1.8-3.4-7.2-1.7-8.2s3.8 6.6 6.1 10.4c4.3 7.1 17.2 21.7 24.7 23.4s8.9-6.1 7.8-8.2c-1-2.1 3.8 3.1 4.2 4.4zM698.9 370.3s-1.1 4.8-6.6 4.9c-5.5.1-31.1 2.1-45.7-9.1 0 0-2.4-2.7-.4-3 1.9-.2 12.6 4.8 22.9 5.5 10.3.8 24.2 1.3 26.4.6s3.4-.3 3.4 1.1zM654.7 316.9c2.3-2.7 4.7-5.9 6.4-8.8.9-1.6 2.2-1.8 2.7-1s-.1 6.2-1.1 8.1c-2.8 4.9-21.2 25.5-26.6 26.7-5.4 1 11.2-16 18.6-25zM593.3 285.1s-2.6-3.9-1.7-4.9c1-1 2.4-2.6 5.4 1.4 3 4 10.7 21.1 11.8 30.6s1.3 16.3.7 17.1-2.4 1-2.5-1.2c-.1-2.2-1.9-14.4-5.1-23.1-3.2-8.7-7.8-18.5-8.6-19.9zM583.5 333.6c.8.1 5.6 3.3 0 3.2-5.6-.1-24.8-5.8-39.3-22.2 0 0-3.7-5.6 1.9-4 5.6 1.6 6.8 7.7 20.6 15.9 4.8 2.7 12.3 6.8 16.8 7.1zM535.6 359.2c-1.5-.5-7.5-.3-3.2 5.1 3.2 4.1 27.5 4.3 41.8.6 3.5-.9 8.8-2.8 8.6-3.5-.2-.7.2-1.5-6.7-.6s-29.1 2-40.5-1.6zM564.6 418.9c-2.1 1.6 1.5 9.3 7 5.3 5.6-4 26.8-26.4 27.8-34.6.6-4.7-2.7-2.3-3.4-1.7-8.3 8.3-20.3 22.3-31.4 31zM624.9 391c-.5-1.6 1.3-2.6 3.3-.3s12.7 25.9 11.5 36.5c0 0-.6 4.7-.9 5.9-.3 1.2.4.9 1 1 .7.1 3 3.8 1.2 6s-6 4.6-10.1 1.6c-1.9-1.4-5.4-6.5-3.2-7.6 1.3-.6 2.8 2.3 4.2 2.4 1.3.1 4.2.4 4.6-.4.4-.8.3-1.8-.3-2.8-.6-1-.9-13.5-3.8-22.7-2.8-9.2-6.6-16.7-7.5-19.6z" class="st7"/><path d="m648.8 385.5 4.1 3.6" class="st43"/><path d="M662 399.1c1.5 1.7 3 3.2 4.6 4.8 1.6 1.5 3.2 3 4.8 4.4 1.7 1.4 3.4 2.7 5.1 3.8 1.8 1.1 3.6 2.1 5.3 2.7 1.7.6 2.6 2.4 2.1 4.2s-2.4 2.6-4.2 2.1c-.3-.1-.5-.2-.7-.4h-.1c-2.2-1.4-3.9-3.1-5.5-4.8-1.6-1.7-3-3.5-4.4-5.3-1.3-1.8-2.6-3.7-3.7-5.6-1.2-2-2.3-3.9-3.3-5.9zM625.1 389.3l1.5 4.1c.4 1.1-.2 2.4-1.3 2.8-1.1.4-2.4-.2-2.8-1.3-.1-.2-.1-.5-.1-.7l-.2-4.4c0-.8.6-1.5 1.5-1.6.5.1 1.1.5 1.4 1.1zM626.4 401.3c.9 3 1.6 5.9 2.2 8.9l1.9 8.8c.6 2.9 1.3 5.8 2 8.6s1.4 5.6 2.4 8.2v.1c.3.8-.1 1.7-.9 2-.6.2-1.3 0-1.7-.4-2.1-2.6-3.3-5.6-4.2-8.6-.9-3-1.5-6-1.9-9.1-.4-3.1-.6-6.1-.6-9.2.1-3.2.3-6.3.8-9.3z" class="st15"/><path d="M640.2 441.4c1.2-1.4 2-3.5 2.1-7.3" class="st43"/><path d="m565.2 418.5 1.2 1.7" style="fill:none;stroke:#fff;stroke-width:5;stroke-linecap:round;stroke-miterlimit:10"/><path d="M573.6 418.4c1.5-.7 2.8-1.6 3.9-2.7.5-.6.9-1.3 1.4-1.9.5-.6 1.2-1 1.9-1.4 1.4-.9 2.9-1.6 4.1-2.6.6-.5 1.1-1.1 1.6-1.8.5-.6.9-1.3 1.3-2 1.5-2.8 3.5-5.3 5.3-7.9 1.9-2.6 3.7-5.1 5.7-7.6.3-.4.9-.5 1.3-.2s.5.9.2 1.3c-1.9 2.5-3.9 5-5.9 7.4-2 2.4-4 4.9-6.3 7.2-1.1 1.2-2.1 2.4-2.9 3.8-.8 1.4-1.4 3-2.1 4.5-.4.7-.8 1.4-1.4 2-.6.6-1.3.9-1.9 1.5-1.1 1.2-2.1 2.4-2.9 3.9-.6 1.2-2.2 1.7-3.4 1.1s-1.7-2.2-1.1-3.4c.2-.6.7-.9 1.2-1.2zM599.5 382.7c-3.3 1.4-6.6 3.2-9.7 5.3-3.1 2.1-6.1 4.3-8.9 6.8-2.8 2.5-5.4 5.2-7.8 8.1-2.4 2.9-4.5 6-6.5 9.2-.1.1-.2.1-.3.1-.1-.1-.1-.2-.1-.3 1.8-3.3 3.8-6.6 6.1-9.7 2.2-3.1 4.8-6 7.4-8.7 2.7-2.7 5.6-5.2 8.7-7.5 3.1-2.3 6.3-4.4 9.9-6.1.7-.4 1.6 0 2 .7s0 1.6-.7 2c0 0 0 .1-.1.1zM532.5 357.7l2.1-1.1c.8-.4 1.7-.1 2.1.7.3.5.2 1.1-.1 1.6l-1.4 2c-.7 1-2 1.2-3 .5s-1.2-2-.5-3c.2-.3.5-.6.8-.7zM584.1 360.8c-.8-.1-1.8-.2-2.7-.2-.9-.1-1.8-.1-2.8-.2l-5.6-.3-5.6-.3-5.7-.3c1.9-.4 3.7-.7 5.6-1 1.9-.3 3.8-.5 5.7-.7 1.9-.2 3.8-.3 5.7-.3 1.9 0 3.8 0 5.8.3.8.1 1.4.9 1.3 1.7-.1.8-.8 1.3-1.6 1.3h-.1zM545.1 305.2l1.9.7c1.5.6 2.3 2.3 1.7 3.8s-2.3 2.3-3.8 1.7c-.3-.1-.5-.3-.8-.4l-1.6-1.3c-1.2-.9-1.4-2.6-.4-3.7.6-.9 1.9-1.2 3-.8zM552.3 313.8c4.8 3.2 9.7 6.3 14.6 9.2 2.5 1.5 5 2.9 7.5 4.3s5.1 2.7 7.7 3.8c.8.3 1.1 1.2.8 2-.3.8-1.2 1.1-2 .8h-.1c-2.7-1.3-5.1-2.9-7.6-4.4-2.5-1.6-4.9-3.2-7.2-4.8-4.8-3.3-9.4-6.7-14-10.3-.1-.1-.1-.3 0-.4.1-.3.2-.3.3-.2zM594.2 282.4c.3 3.7.8 7.4 1.4 11.1.6 3.7 1.4 7.3 2.3 11 .9 3.6 1.9 7.2 3.1 10.8 1.2 3.6 2.5 7 4.1 10.4.1.2 0 .4-.2.5-.2.1-.4 0-.5-.2-1.3-3.5-2.7-7-4-10.5-1.3-3.5-2.6-7.1-3.8-10.6l-7.4-21.5c-.5-1.4.3-2.8 1.6-3.3 1.4-.5 2.8.3 3.3 1.6 0 .3.1.5.1.7zM634.8 339.5l3.9-4.1 3.9-4.1c1.3-1.4 2.6-2.8 3.9-4.1 1.3-1.4 2.5-2.8 3.8-4.3.1-.1.3-.2.5 0 .1.1.2.3.1.4-.9 1.7-1.9 3.4-2.9 5s-2.2 3.2-3.3 4.7c-1.1 1.6-2.3 3-3.5 4.5-1.2 1.5-2.5 2.9-3.8 4.3-.7.7-1.8.7-2.5 0-.7-.5-.7-1.6-.1-2.3z" class="st15"/><path d="M633.1 341.7c-.1-3.5 1-6.8 2.4-9.9 1.4-3.1 3.2-6 5.1-8.8 2-2.8 4.1-5.4 6.4-7.9 1.1-1.2 2.3-2.4 3.5-3.6 1.2-1.1 2.5-2.3 3.8-3.3.3-.2.7-.2.9.1.2.2.2.6 0 .8-.6.6-1.1 1.2-1.7 1.8l-1.7 1.8c-1.1 1.2-2.2 2.4-3.3 3.7-2.1 2.5-4.2 5.1-6.2 7.7-1.9 2.7-3.7 5.4-5.3 8.3-.4.7-.8 1.5-1.1 2.2-.3.8-.7 1.5-.9 2.3-.6 1.5-1 3.1-1.1 4.7 0 .2-.2.3-.4.3-.2.1-.4 0-.4-.2zM648.2 361.6c1.4-.3 2.7-.5 4-.6 1.3-.1 2.6-.2 4-.2 1.3 0 2.7.1 4 .2 1.3.1 2.6.4 3.9.7.4.1.6.5.5.9-.1.4-.4.6-.8.5-1.2-.2-2.5-.3-3.7-.3-1.2 0-2.5 0-3.7.2-1.2.1-2.5.3-3.7.6-1.2.2-2.5.6-3.6.9-.8.3-1.6-.2-1.9-1-.3-.8.2-1.6 1-1.9-.1 0-.1 0 0 0zM670.8 365.7c4.6.1 9.2-.1 13.9-.2 2.3-.1 4.7-.1 7.1 0 2.4.2 4.9.4 7.5 1.8.9.5 1.2 1.6.7 2.5-.5.9-1.6 1.2-2.5.7-.1 0-.1-.1-.2-.1h-.1c-.7-.5-1.6-.9-2.6-1.2-1-.3-2.1-.5-3.2-.7-2.2-.3-4.5-.5-6.8-.7-4.6-.3-9.3-.5-13.9-1.1-.3 0-.5-.3-.5-.6 0-.1.3-.4.6-.4z" class="st15"/><path d="M590.2 305.9c-5.5-17.4-5.4-28 .4-29.8 5.8-1.8 13 6.3 18.5 23.6s4.2 33.3.7 34.6c-4 1.4-14-11.1-19.6-28.4zM643.2 317.9c10.2-11.9 16-18.2 22.1-13 6.3 5.4 1.5 12.5-8.7 24.3-10.2 11.9-22.6 17.9-25.2 15.8-2.8-2.2 1.7-15.3 11.8-27.1zM556.3 329c-15.4-9.7-22.1-17.9-18.9-23 3.2-5.1 14-3.6 29.4 6.1 15.4 9.7 24.7 22.8 22.8 26-2.2 3.6-17.9.6-33.3-9.1zM556.1 371.1c-18.2.7-28.4-2.7-28.7-9.4s9.5-12 27.7-12.7c18.2-.7 33.3 5.6 33.5 9.7.4 4.8-14.3 11.7-32.5 12.4zM591.3 412.2c-11.7 14.6-19.7 20.7-27 15.6-9-6.1-3.3-15.8 8.4-30.4 11.7-14.6 27.1-21.9 30.6-19.2 4 3.1-.3 19.4-12 34zM642.7 415.6c4.4 18.2 4.4 28.2-4.1 31-10.3 3.4-14.5-7-19-25.3-4.4-18.2-.8-34.8 3.5-36 4.9-1.3 15.2 12 19.6 30.3zM675.1 395c13.3 11.8 18.6 19.7 13.1 26.8-6.6 8.6-15.6 2.9-28.9-9-13.3-11.8-19.2-27-16.3-30.4 3.4-3.9 18.8.7 32.1 12.6zM675.4 356.1c17.7 1.6 26.7 4.6 26.6 12.8-.1 10-10.7 10.6-28.5 9-17.7-1.6-31.6-9.6-31.3-13.7.3-4.7 15.4-9.7 33.2-8.1z" class="st45"/></g><g id="_x38_th_notes_UP_1_"><path d="M366.5 250.9c-.7-3.4 3.5-2.7 7.9-2.6 1.6 0 2.3 1.3 3.9 3.4 4.8 6.4 7 25.3 17.6 28.3 15.3 4.2 28 10.8 35.1 17.6 6.4 6.1 9.4 14 10.1 22.8.3 4.9 1.4 15 .6 21.6 0 0-.9 2.3-3.4 1.1-1.7-.8-6.4-5.4-9.2-8.2-1.3-1.3-2.3-3-2.9-4.8l-8.3-25.8s-18.3.2-18.1 4.4c.2 4.1 11.4 94.5 11.4 94.5l-16.4-15.6-28.3-136.7zM237.6 214.3c-.7-3.4.1-6.2 5.3-6.6 1.6-.1 3.2.8 4.8 2.8 4.8 6.4 8.1 26.5 18.7 29.5 15.3 4.2 25.2 6.2 35.8 18.4 5.8 6.7 9.2 15.1 9.8 24 .3 4.9.4 11-.4 17.6 0 0-.9 2.3-3.4 1.1s-10.2-8.3-10.2-8.3l-9.2-26.5s-18.3.2-18.1 4.4c.2 4.1 13.8 111.7 13.8 111.7l-13.8-9.1-33.1-159z" class="st39"/><path d="m271.2 269.6-8.2-7.4M399.9 308.2l-10.1-9.4" class="st12"/><path d="M405.5 284c-11.1-7.1-24.9-5.1-34.4-26.4-.9-2-1.8-9.4-4.3-8.8-2.5.7-.7 8-.4 10.6.3 2.4 16.6 116.5 18.6 130.4-4.3.1-8.8.8-13.4 2.4-17.5 6-28.1 21.3-23.7 34.2 4.4 12.9 22.2 18.5 39.7 12.5 17.5-6 28.1-21.3 23.7-34.2-1.5-4.3-4.4-7.7-8.3-10.3l-13.2-95.7s29.6 6.4 36.9 31.9c.8 3 9.8 14.5 9.5-4.2-.3-17.8-8.3-28.2-30.7-42.4zM277.6 244.1c-15-7.1-18.7-.1-32.4-27.1-1-2-3.8-8.7-6.4-8-2.5.7-1.7 7.9-1.3 10.5.3 2.3 15.7 125.9 18.4 148.3-3.6.3-7.4 1-11.2 2.3-17.5 6-28.1 21.3-23.7 34.2 4.4 12.9 22.2 18.5 39.7 12.5 17.5-6 28.1-21.3 23.7-34.2-1.5-4.2-4.4-7.7-8.2-10.2l-14-110.5s25.8-5.5 32.9 24.4c2.5 10.3 8.7 11.7 8.7 3.1 0-22.1-2.2-34-26.2-45.3z" class="st8"/><path d="M353.5 415.1s9.9 14.3 23.5 8.9 20.6-12.5 18-23.6c-2.6-11.2 17.3 5.1 13.2 13.7-4.1 8.6-22.2 27.1-42.8 21.9-16.8-4.4-12.9-18.7-11.9-20.9zM227.7 393s9.8 12.8 23.4 7.4 19.9-10.1 19.4-21.6c-.3-7.3 13.7 1.2 10.8 13.1-2.5 10-21.1 27.1-41.7 21.8-16.9-4.3-12.9-18.5-11.9-20.7z" class="st9"/><path d="M377.9 284.1c.5 7.2 1.6 14.2 2.8 21.3 1.3 7 3 14 4.5 21 1.6 7 2.8 14 3.9 21.1 1 7.1 1.9 14.2 2.3 21.3.1.9-.7 1.7-1.6 1.8-.8 0-1.5-.5-1.7-1.2-1.8-6.9-3.2-14-4.4-21-1.2-7-2.2-14.1-2.8-21.3-.7-7.1-1.2-14.3-2.2-21.4-.9-7.1-2.1-14.1-3.9-21.1-.2-.8.3-1.6 1.1-1.8.8-.2 1.6.3 1.8 1.1.1 0 .2.1.2.2zM243.5 236.9c1.4 4 2.2 8.2 2.9 12.3.6 4.2.9 8.4 1.6 12.5.7 4.2 1.5 8.3 2.3 12.4l2.5 12.4c.4 2.1.9 4.1 1.2 6.2.4 2.1.6 4.2.9 6.3.5 4.2 1 8.4 1.4 12.6.7 8.4 1.4 16.9 1 25.4 0 .7-.6 1.2-1.3 1.2-.6 0-1.1-.5-1.2-1.1v-.1c-.2-2.1-.3-4.1-.5-6.2l-.7-6.2-.8-6.2c-.3-2.1-.6-4.1-.9-6.2-.6-4.2-1.1-8.3-1.8-12.5-.6-4.1-1.1-8.3-1.4-12.5-.4-4.2-.8-8.4-1.3-12.6-.2-2.1-.4-4.2-.7-6.3-.3-2.1-.6-4.2-.9-6.2-.6-4.2-1.8-8.2-2.5-12.4-.7-4.1-1.3-8.3-1.4-12.6 0-.5.3-.8.8-.8.4.1.7.3.8.6z" class="st15"/><ellipse cx="369.3" cy="406.3" class="st46" rx="9.1" ry="5.3" transform="rotate(-38.399 369.26 406.272)"/><ellipse cx="404.2" cy="409" class="st36" rx="4.7" ry="2.7" transform="rotate(-67.151 404.2 409.009)"/><ellipse cx="278.8" cy="384.4" class="st36" rx="4.7" ry="2.7" transform="rotate(-86.564 278.804 384.432)"/><ellipse cx="239.6" cy="385.9" class="st46" rx="9.1" ry="5.3" transform="rotate(-38.399 239.621 385.896)"/><path d="M395.7 286.2c3.6 1.2 7.1 2.7 10.5 4.4 3.4 1.7 6.6 3.7 9.7 6 3 2.3 5.9 5 8.2 8.2 1.1 1.6 2.1 3.3 2.9 5.2.7 1.9 1.3 3.8 1.5 5.8.1.9-.5 1.7-1.4 1.8-.8.1-1.6-.4-1.8-1.2v-.1c-.4-1.7-.9-3.3-1.6-4.9-.7-1.6-1.6-3.1-2.5-4.6-2-2.9-4.5-5.5-7.2-7.9-2.7-2.4-5.8-4.4-8.9-6.3-3.1-1.8-6.5-3.5-9.8-4.9-.4-.2-.7-.7-.5-1.1 0-.3.5-.5.9-.4zM260.4 242.6c3.5.7 6.7 1.8 10 3.1 3.2 1.3 6.4 2.8 9.4 4.7 3 1.8 5.8 4 8.1 6.6 2.3 2.6 4 5.9 4.3 9.4 0 .1-.1.2-.1.2-.1 0-.1 0-.2-.1-.6-3.4-2.6-6.2-4.9-8.6-2.4-2.3-5.3-4.1-8.2-5.7-3-1.6-6.1-2.8-9.3-3.9-3.2-1.1-6.4-2.1-9.6-2.9-.7-.2-1.2-.9-1-1.7.1-.8.8-1.2 1.5-1.1z" class="st15"/><path d="M242.3 370.9s15.4-5.7 27.1-.8M368.8 393.3s15.4-5.7 27.1-.8" class="st12"/></g><g id="R_HAND_1_"><path d="m1464.9 681.8-182.9 9.8-10.4 77.6 159.3 31.3z" class="st47"/><path d="m821.3 747.9 911.2-72.8-3.6-44.8-911.7 72.8c-2.6.2-5.1 1-7.3 2.4l-15 9.6-53.6 14c-1.7.4-1.5 2.9.2 3.1l56.4 7.1 15.4 7.1c2.6 1.3 5.3 1.7 8 1.5z" style="fill:#858585;stroke:#000;stroke-width:4.6442;stroke-linecap:round;stroke-linejoin:round;stroke-miterlimit:10"/><path d="M821.8 726.1c9.6-.1 19.1-.7 28.6-1.4l7.1-.6 7.1-.7c4.8-.4 9.5-1 14.2-1.6 9.5-1.2 18.9-2.7 28.4-4.1 9.5-1.4 19-2.5 28.5-3.2 19-1.5 38.1-2.8 57.2-3.9s38.2-1.9 57.3-2.2c2.8 0 5 2.2 5.1 4.9 0 2.5-1.8 4.7-4.3 5-18.9 2.7-37.9 4.8-57 6.6-19 1.9-38 3.5-57.1 4.9-9.5.7-19.1 1.1-28.6 1.2-9.6.1-19.2 0-28.7.3-4.8.1-9.6.3-14.3.6l-7.2.4-7.1.5c-9.5.8-19 1.6-28.5 3-2.7.4-5.3-1.5-5.7-4.2s1.5-5.3 4.2-5.7c.3.3.5.2.8.2zM759.4 728.7c3.3.3 6.5.1 9.8-.2 3.2-.3 6.5-.7 9.7-1.3 3.2-.5 6.5-1.6 9.7-2.4 1.6-.4 3.2-.7 4.9-.9.4 0 .8-.1 1.2-.1.4 0 .8-.1 1.2 0 .8.2 1.6.7 2.5 2.2 1.1 2 1.1 4.3.2 6.2-.8 1.6-1.6 2.1-2.4 2.4-.4.1-.8 0-1.2 0h-1.2c-1.6-.1-3.3-.3-4.9-.6-3.3-.6-6.6-1.5-9.8-1.8-3.3-.4-6.5-.6-9.8-.7-3.3-.1-6.5-.1-9.8.4-.9.1-1.7-.5-1.8-1.3-.1-.9.5-1.7 1.3-1.8.2-.1.3-.1.4-.1z" class="st17"/><path d="M1053.8 701.5c-20.3 1.2-40.6 2.3-60.9 3.6-20.3 1.2-40.6 2.5-60.9 3.9l-30.4 2c-10.1.7-20.3 1.3-30.4 2.2l-30.4 2.8c-2.5.2-5.1.4-7.6.6-2.5.2-5.1.4-7.6.5l-3.8.2-1.9.1h-.5c-.1 0-.1 0 0 0h.1s-.2 0-.4.1c-.8.2-1.9.7-3.1 1.1-1.2.4-2.4.8-3.8 1h-.1c-.6.1-1.3-.3-1.4-1 0-.2 0-.4.1-.6.6-1.4 1.3-2.6 2.2-3.6l1.5-1.5c.6-.5 1.2-.9 1.9-1.3.4-.2.8-.4 1.4-.6l.5-.1c.2 0 .4-.1.4-.1h.5l1.9-.2 3.8-.3c2.5-.2 5.1-.4 7.6-.6 2.5-.2 5.1-.4 7.6-.5 10.2-.6 20.3-1 30.5-1.5s20.3-1.2 30.4-1.9l30.4-2.1 60.9-4.1 60.8-4.3c1.7-.1 3.1 1.1 3.2 2.8.5 1.8-.8 3.3-2.5 3.4.1 0 0 0 0 0z" class="st15"/><path d="M1641 619.9 1288.8 648c-3.2.3-6.4-.5-9.1-2.2l-35.4-22.3c-2.7-1.7-5.9-2.5-9.1-2.2L1063.7 635l-33-8.5-47.4 3.8h-.4s-29.5 10.7-24.3 84.2c4.6 64.7 37.3 79.1 37.3 79.1l52.6-4.2 30.9-14.2 168-13.4c3.2-.3 6.3-1.6 8.7-3.7l30.6-27.4c2.4-2.2 5.5-3.5 8.7-3.7l352.1-28.1-6.5-79z" style="fill:#69c4b8;stroke:#000;stroke-width:8;stroke-miterlimit:10"/><path d="M1659.2 672.4s-443.7 36.4-582.1 54c-38.1 4.8-49.2 29-67 35.6-5 1.8-18.1 2.5-24.8 2.7-1.7.1-4.2 2.8-3.1 4.2 0 0 2.6 4.9 6.9 10.1 4.3 5.3 9.4 5.2 13.8 4.6l26.1-3.4c7.9-1 15.4-3.5 22.4-7.3l23.7-13.1 584.3-75.2v-12.2z" class="st50"/><path d="m1007.3 635.1-20.4 1.5c-1.8.1-3.4 1-4.5 2.5-4.1 5.5-14 19.5-13.2 24.7.7 4.6 13.6 4.4 21.2 3.9 2.9-.2 5.3-2.4 5.8-5.3.9-5 5.5-16.2 11.9-25.9.3-.6-.1-1.4-.8-1.4zM1011.8 657.1s2.8-.2 3 3c.2 3.1 8.4 4.7 9.4 5.2s3.5 7.9-1.2 11-8.9-2.1-8.9-2.1-1.9 1.3-2.3 3.1-7.6 2.4-7.2 1.1c.6-2.1 2.3-14.3 7.2-21.3zM1036.8 670.5c-2.2.1-3.5-3.5-5.8 8.3-1.9 9.8-.9 9.4 2.4 10.5 3.3 1.1 9.3 1.2 10.3-2.6s3.7-3.6 21.8-6.4 33.5-3.5 41-3.5 52.4-5.5 64.3-6.2c11.9-.7 256.8-11.9 256.8-11.9l-1.2-10.1c0-.1-292.1 19.4-389.6 21.9z" class="st51"/><path d="m1017.1 779.8-19.7 1.9M991.7 704l-23.5.9" class="st52"/><path d="M1002.4 688.2s11.7 6.1 19.4 0c0 0-.4 23.3 2.5 34.4 2.7 10.2-10.1 12.7-15 11.7-3.4-.6-10.9-24.1-6.9-46.1zM1035.2 658.1s5.5 18.5 32.6 20.7c27.1 2.2 71.1-7.3 76.3-10.4 5.2-3.1 35.6-17.6 39.5-17.6s36.2 6.5 42 6.9 78.6-3.6 80.7-4.7 118.9-8.7 118.9-8.7l7.3-14.2-288.4 2.2-108.9 25.8z" class="st50"/><path d="M1032.2 629.8c-3.2.5-6.4 2.3-9.2 4.7-2.8 2.4-5.3 5.4-7.4 8.6-4.4 6.4-7.5 13.8-10 21.3-2.5 7.6-4.4 15.4-5.4 23.4-.5 4-.8 8-.8 12.1 0 2 .1 4 .2 6.1.1 1 .1 2 .2 3l.3 3c1.9 16.1 7.6 31.6 15.8 45.3 4.1 6.8 8.7 13.3 14.1 18.8.7.7 1.3 1.4 2.1 2l1.1 1 1.1.9c.7.6 1.5 1.2 2.2 1.8.8.5 1.5 1.1 2.3 1.5 3.1 1.9 6.4 3.3 9.4 3.1h.1c1.7-.1 3.1 1.2 3.2 2.8.1 1.5-1 2.9-2.5 3.1-2.6.5-5.1.1-7.4-.5-2.3-.6-4.4-1.6-6.4-2.7-3.9-2.3-7.2-5.2-10.2-8.3-3-3.1-5.6-6.5-7.9-10-1.2-1.8-2.3-3.6-3.3-5.4-1-1.8-2-3.7-2.9-5.6-3.7-7.5-6.4-15.4-8.4-23.4-1-4-1.8-8.1-2.6-12.1l-.5-3-.4-3.1c-.2-1-.3-2-.4-3.1-.1-1-.3-2-.3-3.1-.4-4.1-.6-8.2-.8-12.3-.1-4.1-.1-8.2 0-12.3.3-8.2 1.2-16.5 3.3-24.6 1.1-4 2.4-8 4-11.9 1.6-3.9 3.5-7.7 5.8-11.3 2.3-3.6 5.1-7 8.4-10 1.7-1.5 3.5-2.8 5.6-3.8 2.1-1.1 4.4-1.9 6.8-2.1 1.6-.2 3.1 1 3.3 2.6.2 1.8-.9 3.2-2.5 3.5z"/><path d="M1079.9 779.1c-4.4.2-8.7-.4-12.8-1.6-4-1.3-7.8-3.2-11.2-5.5-3.4-2.3-6.4-5-9.1-8-2.7-3-5.1-6.1-7.3-9.5-4.3-6.7-7.6-13.8-10-21.3-2.5-7.4-4.1-15.1-5-22.9-.9-7.8-1-15.6-.2-23.4.7-7.8 2.4-15.5 5.1-23 1.4-3.7 3-7.3 5-10.8 2-3.5 4.3-6.8 7.1-9.8 2.8-3 6-5.7 9.6-7.9 3.7-2.1 7.8-3.7 12.1-4.4 2.2-.4 4.3 1.1 4.6 3.3.4 2.2-1.1 4.3-3.3 4.6-.2 0-.3 0-.5.1-3.3.2-6.7 1-9.8 2.4-3.1 1.5-6 3.6-8.6 6-5.2 4.9-9.2 11.4-12 18.2-2.9 6.9-4.6 14.3-5.5 21.7-.9 7.5-.8 15.1 0 22.6.9 7.5 2.5 14.9 5 22 2.6 7.1 5.8 13.9 10.2 20 4.3 6.1 9.6 11.4 15.8 15.1 3.1 1.8 6.4 3.2 9.8 3.9 3.4.7 6.8.8 10.1.2 2.2-.4 4.3 1.1 4.6 3.3.4 2.2-1.1 4.3-3.3 4.6-.1.1-.2.1-.4.1z"/><path d="M804.2 735.7s3.4-8.8-1.6-19" style="fill:none;stroke:#000;stroke-width:3.5228;stroke-linecap:round;stroke-linejoin:round;stroke-miterlimit:10"/><path d="m761.7 723.3-20.9 5.4s-3.8 2.2 0 4c3.8 1.8 38.3 4.4 38.3 4.4s2.7-7-1.6-7.9c-4.2-.7-11.4 1.3-15.8-5.9z" class="st54"/><path d="m744.6 729.3 14.7-3.7c.8-.2 1.6.3 1.8 1.1.2.8-.3 1.6-1.1 1.8h-.2l-15 2c-.3 0-.7-.2-.7-.5 0-.4.2-.7.5-.7z" class="st15"/><path d="M744.8 732.8s30.2 2.6 30.9 2.3c.6-.2 1.2-1.1 1.2-1.8 0-.6-1.6-2.4-2.1-2.3s-2.2 1.1-4.5 1.1-24.8-.5-24.8-.5-3.1-.6-.7 1.2z" class="st7"/><path d="M1244 914.1c4.5 7.2 11.7 23 21 26.8 9.3 3.8 35.1.3 45.7-15.5 10.8-16.2 18.3-29.1 5.9-65.2-12.4-36.2-57.1-61.6-57.1-61.6l-57.5 24.3c.1-.2 33.1 76.8 42 91.2z" style="fill:#e1aa87;stroke:#000;stroke-width:8;stroke-linecap:round;stroke-miterlimit:10"/><path d="M1244 914.1c4.5 7.2 8.2 22.1 17.5 25.8 9.3 3.8-4.7-11.3 5.9-27.1 10.8-16.2 13.7-10.2-4.6-43.8-1.7-3.2-13.5-15.8-13.5-15.8l-35.8-2s21.6 48.5 30.5 62.9z" class="st56"/><path d="M1244 914.1c4.5 7.2 11.7 23 21 26.8 9.3 3.8 35.1.3 45.7-15.5 10.8-16.2 18.3-29.1 5.9-65.2-12.4-36.2-57.1-61.6-57.1-61.6l-57.5 24.3c.1-.2 33.1 76.8 42 91.2z" class="st57"/><path d="M1260 866.7s15 24.5 15.6 27.7-1 6.4-1.8 9.4c-1.2 4.5-5.8 5.7-7.2 11.5-.9 3.8-5.3 17.4-1.5 25.6" style="fill:none;stroke:#000;stroke-width:4;stroke-linecap:round;stroke-miterlimit:10"/><path d="M1390.7 741.2s-107.5-24.7-187.5-20.5c0 0-87.4 3.4-115.6 20.6-28.2 17.2-28.9 30-28.8 37.2s4.8 32.7 24.8 38.4c20.1 5.7 86.8 17.2 91.1 17 4.3-.2 21.1 13 28.1 15.3 7 2.4 114.7 46.9 193.8 54.1 79.1 7.2 143 17.8 159.8 29.9 16.9 12.1 69.9 50.6 69.9 50.6l-63.5-266.4c0 .2-128.1 30.4-172.1 23.8z" class="st56"/><path d="M1081.2 746.8s14.3-6.7 37.3-5.5c23 1.2 35.4 8.3 34.2 19.6-1.2 11.3-7.6 37.5-7.5 50.6.2 13 2.4 18-4.4 17.1-6.8-1-62.8-13.7-62.8-13.7s-14.6-8.9-17-23.1c-2.3-14.2-4.2-33.7 20.2-45z" class="st59"/><defs><path id="SVGID_3_" d="M1390.7 741.2s-107.5-24.7-187.5-20.5c0 0-87.4 3.4-115.6 20.6-28.2 17.2-28.9 30-28.8 37.2s4.8 32.7 24.8 38.4c20.1 5.7 86.8 17.2 91.1 17 4.3-.2 21.1 13 28.1 15.3 7 2.4 114.7 46.9 193.8 54.1 79.1 7.2 143 17.8 159.8 29.9 16.9 12.1 69.9 50.6 69.9 50.6l-63.5-266.4c0 .2-128.1 30.4-172.1 23.8z"/></defs><clipPath id="SVGID_4_"><use xlink:href="#SVGID_3_" style="overflow:visible"/></clipPath><path d="M1091.1 816.5s29.9 3.1 36.6-2.5 14.3-48.7 18.6-49.9c17.5-4.8 10.3 39.6 19.9 46.5 9.6 6.9 24.5 13.5 29.5 11.4 10.1-4.1 15.8.6 15.8.6l2.6-3c2.2-2.6 6.1-3 8.9-1l4.9 3.5c2.3 1.7 5.6.8 6.8-1.8 3.4-7.7 9.8-21.4 13.2-23.1 5.3-2.7 17.3 3.6 39.3 23.9 22.1 20.3 111.1 24.1 111.1 24.1s114.8 7.7 132.2 0c17.4-7.7 87.3-52.3 87.3-52.3l32.9 215.4L1090.1 836l1-19.5z" style="clip-path:url(#SVGID_4_);fill:#e1aa87"/><path d="M1390.7 741.2s-107.5-24.7-187.5-20.5c0 0-87.4 3.4-115.6 20.6-28.2 17.2-28.9 30-28.8 37.2s4.8 32.7 24.8 38.4c20.1 5.7 86.8 17.2 91.1 17 4.3-.2 21.1 13 28.1 15.3 7 2.4 114.7 46.9 193.8 54.1 79.1 7.2 143 17.8 159.8 29.9 16.9 12.1 69.9 50.6 69.9 50.6l-63.5-266.4c0 .2-128.1 30.4-172.1 23.8z" class="st57"/><path d="M1181 640s-58.7 34.5-111.7 27.6c-54.2-7.1-56.9-32.3-55.1-53.8 1.7-20.5 40.1-12.9 68.2-26.7 28.1-13.9 71.7-35 84.8-36.3s69.3 2 84.4 0 59.1-9.4 64-8.6c4.9.8 7.7-5.7 13-5.7s13 4.9 17.5 3.7 53-13.4 81.1-6.9-8.3 104.5-8.3 104.5l-114.3 1.3s-18 7-43.2 7.8c-45.9 1.5-80.4-6.9-80.4-6.9z" class="st56"/><defs><path id="SVGID_5_" d="M1181 640s-58.7 34.5-111.7 27.6c-54.2-7.1-56.9-32.3-55.1-53.8 1.7-20.5 40.1-12.9 68.2-26.7 28.1-13.9 71.7-35 84.8-36.3s69.3 2 84.4 0 59.1-9.4 64-8.6c4.9.8 7.7-5.7 13-5.7s13 4.9 17.5 3.7 53-13.4 81.1-6.9-9.3 104.5-9.3 104.5l-113.3 1.3s-18 7-43.2 7.8c-45.9 1.5-80.4-6.9-80.4-6.9z"/></defs><clipPath id="SVGID_6_"><use xlink:href="#SVGID_5_" style="overflow:visible"/></clipPath><path d="M1016.1 630.4s14.2 18 57.8 14.2c43.6-3.9 83.7-27.7 88.1-32.5s6.3-10.8 8.9-10.8c2.6 0 7 7.7 26.5 10.1s66.9 6.4 75.6 5c8.7-1.4 33-7.9 41.6-19.3 8.7-11.3 7.7-9.6 8.9-8.4 1.2 1.2 3.9 12.5 3.9 16.6s6.5 9.6 16.1 10.1 102.3-5.5 102.3-5.5l-45.5 44.5-348.8 29.7-48.4-48 13-5.7z" style="clip-path:url(#SVGID_6_);fill:#e1aa87"/><path d="M1082 742.7c13.1-1.2 25.9-2.9 39.1-3.3 3.3-.1 6.6 0 10 .3 3.3.3 6.7.8 10.1 1.9 3.3 1.1 6.7 2.8 9.4 5.6 1.3 1.4 2.5 3 3.3 4.8.9 1.7 1.4 3.6 1.8 5.4.3 1.8.5 3.6.5 5.4 0 1.8 0 3.4-.2 5.2-.4 3.8-1.5 7-2.5 10.1-1 3.1-1.9 6-2.6 9-.7 3-1.2 6.1-1.5 9-.5 5.9.5 12.2.3 19.1-.1 1.7-.2 3.5-.4 5.2-.3 1.7-.6 3.6-1.6 5.6-.5 1-1.3 2-2.4 2.7-1 .7-2.2 1.1-3.2 1.3-2.1.3-3.9 0-5.6-.4-1.1-.2-1.8-1.3-1.5-2.4.2-1 1.1-1.6 2-1.6h.1c1.5.1 3 0 4-.3.5-.2.9-.4 1.2-.7.3-.3.4-.6.6-1 .4-.9.6-2.4.6-3.8.1-1.5.1-3 0-4.5-.1-3-.6-6.2-.9-9.5-.3-3.3-.6-6.7-.3-10.2.2-3.6.9-6.9 1.6-10.2.8-3.3 1.8-6.5 2.8-9.6 1-3.1 2-6 2.4-8.7.3-2.9.5-6 .1-8.7-.4-2.8-1.4-5.2-3.2-7.1-1.7-2-4.2-3.5-6.9-4.6-2.7-1.1-5.7-1.9-8.8-2.4-3.1-.6-6.2-.9-9.4-1.1-6.4-.4-12.8-.2-19.2.3-6.4.6-12.8 1.5-19.1 3-1.1.3-2.2-.4-2.4-1.5s.4-2.2 1.5-2.4c.1.1.2.1.3.1zM1214 757.8c0 6-.7 11.9-1.4 17.6l-.5 4.2c-.1.7-.2 1.4-.2 2v1.4c.2 3 .3 5.9.3 8.9l-.1 8.9c-.1 3 0 6-.3 9.1-.3 3.1-.7 6.1-1.3 9-.6 3-1.2 5.9-2.2 8.9-.4 1.1-1.6 1.7-2.7 1.4-1.1-.4-1.7-1.5-1.4-2.5v-.1c.6-2.6 1-5.5 1.3-8.4.3-2.9.5-5.7.5-8.5s-.2-5.6-.5-8.5c-.3-2.9-.7-5.8-1.1-8.7-.4-2.9-.7-5.8-.9-8.7v-2.2l.1-.7c.1-.9.2-1.6.3-2.4l.9-4.5c1.4-5.8 3.2-11.5 5.7-17 .4-.9 1.6-1.4 2.5-.9.6.3 1 1 1 1.7zM1233.8 767.5c1.6 5.9 2.6 11.8 3.4 17.9.3 3 .6 6.1.7 9.1.1 3.1.1 6.2-.3 9.4-.3 3.2-1.1 6.2-2 9.2-.9 3-1.8 5.6-2.2 8.3-.4 2.7-.5 5.5-.4 8.4.1 2.9.4 5.8.6 8.8v.1c.1 1.1-.8 2.1-1.9 2.2-1 .1-1.9-.6-2.2-1.6-1.3-5.9-2.4-12-1.8-18.5.3-3.3 1.2-6.4 1.8-9.2.7-2.8 1.2-5.6 1.5-8.4.3-2.7.5-5.6.5-8.5 0-2.9 0-5.8-.1-8.8-.2-5.9-.6-11.8-.9-17.7 0-.9.6-1.7 1.5-1.7.9-.3 1.6.2 1.8 1z"/><path d="M1048.9 595.9c22.4 1.4 57.1-20.7 40.5-2.5-3.8 4.1-42.3 15.6-58.8 17.4-2 .2-16.9-2.9-14.8-6.1 4.9-7.5 19.4-9.7 33.1-8.8z" class="st59"/><path d="M1181 640s-58.7 34.5-111.7 27.6c-54.2-7.1-56.9-32.3-55.1-53.8 1.7-20.5 40.1-12.9 68.2-26.7 28.1-13.9 71.7-35 84.8-36.3s69.3 2 84.4 0 59.1-9.4 64-8.6c4.9.8 7.7-5.7 13-5.7s13 4.9 17.5 3.7 53-13.4 81.1-6.9-9.3 104.5-9.3 104.5l-113.3 1.3s-18 7-43.2 7.8c-45.9 1.5-80.4-6.9-80.4-6.9z" class="st57"/><path d="M1018.6 605.1c1.3.4 2.8.8 4.2 1.1 1.4.3 2.9.6 4.3.8 2.9.4 5.8.7 8.6.5 1.3-.1 2.8-.4 4.2-.6 1.5-.3 3-.6 4.5-1 3-.7 6-1.5 9-2.2 6-1.6 12-3.3 17.9-5.1 3-.9 6-1.8 8.9-2.7 3-.9 5.9-1.9 8.8-3 .3-.1.7 0 .8.4.1.3 0 .6-.3.8-2.8 1.4-5.7 2.6-8.6 3.8l-8.7 3.6c-5.8 2.3-11.6 4.6-17.5 6.7-3 1.1-5.9 2.1-8.9 3.1-1.5.5-3 1-4.6 1.4-1.6.4-3.1.9-4.9 1.2-3.4.5-6.8.5-10.1.3-1.6-.1-3.3-.3-4.9-.5-1.7-.2-3.2-.5-5-.8-2.2-.5-3.5-2.6-3.1-4.8.5-2.2 2.6-3.5 4.8-3.1.4 0 .5 0 .6.1zM1184.9 642.9c-.2.1-.4.1-.5.2-.1 0-.2 0-.3.1h-1l-.3-.1c-.4-.1-.8-.2-.9-.3-.2-.1-.4-.2-.6-.4-.1-.1-.3-.2-.4-.3l-.4-.3-.3-.3-.5-.6-.7-1.1-.5-1c-.3-.7-.6-1.3-.9-2l-.7-2c-.9-2.6-1.6-5.3-2.2-7.9-.6-2.6-1.2-5.2-1.7-7.9-.5-2.6-1-5.3-1.4-7.9-.1-.5.3-1.1.8-1.1.5-.1 1 .2 1.1.7.8 2.5 1.5 5.1 2.4 7.6.8 2.5 1.7 5 2.6 7.5.9 2.5 1.9 4.9 3 7.2l.9 1.7c.3.5.6 1.1.9 1.5l.5.7.5.6.2.2.1.1c0-.1-.1-.1-.2-.1l-.4-.2h-1.1c-.2 0-.3.1-.5.2 1.5-.7 3.3 0 4 1.5s0 3.1-1.5 3.7zM1300.9 635.6c.2-.2.6-.5 1-.7.4-.3.7-.6 1-.9.7-.6 1.4-1.3 2-1.9.6-.7 1.3-1.4 1.9-2.1l.9-1.1.9-1.1c2.3-3.1 4.3-6.4 6-9.9.7-1.8 1.6-3.6 2.2-5.4.3-.9.7-1.8 1-2.8l.8-2.8c.1-.5.3-.9.4-1.4l.3-1.4.6-2.9c.3-2 .6-3.9.8-5.9v-.1c.1-.4.4-.7.8-.6.4.1.6.4.6.7-.1 2-.1 4-.3 6.1l-.3 3-.2 1.5-.3 1.5-.5 3c-.2 1-.5 2-.7 3-.4 2-1.2 3.9-1.8 5.9-1.4 3.9-3.2 7.7-5.4 11.2l-.8 1.3-.9 1.3c-.6.9-1.2 1.7-1.9 2.5l-2.1 2.4c-.4.4-.7.8-1.1 1.2-.4.4-.8.7-1.3 1.2-1.3 1.1-3.2.9-4.2-.4s-.9-3.2.4-4.2c0-.1.1-.2.2-.2z"/></g><g id="L_HAND_1_"><path d="M-90 627.4s72.7-63.1 87.7-71.8 34.3 4.9 61.9 2.5c65.7-5.7 195-8.5 223.4-7.5 11.6.4 36.8-1.4 46.3 1.7s92.8 53.2 123.4 73.1 86.1 46 95.3 56.3c1.7 2-.1 5.2-2.4 8.9-1.8 2.9-.5-.8-2.1 1.9-10 16.3-36.6 44.4-74.9 44.4 0 0-80.3 26.9-93 38.2-12.7 11.3-40.8 29.7-54.7 35.4-13.9 5.8-36.2 20.1-52.4 46.8s-66.3 97.6-111.2 124.6-69 42-76.8 43c-7.8 1-33.2 4.4-45.5 13.7s-41 20.6-41 20.6l-16.5-84.9L-90 627.4z" class="st56"/><path d="M475.5 723.9s-14.3 15.9-36.3 22.5c-28.3 8.4-35 8.3-36.9-5.4-1.5-11.3-8.4-31.4-15.1-42.6-6.6-11-12.7-9.9-4.2-16 23.1-16.3 62.5-20.3 62.5-20.3s15.3.3 24.5 11.4 21 28.4 5.5 50.4zM536.5 674.2c-9.3-4.1-38.3-26.1-18.1-4.4 3 3.3 18.9 17.5 26.4 19.3.9.2 4.6-2.1 3.4-5.2-1-2.3-6.8-7.5-11.7-9.7z" class="st59"/><defs><path id="SVGID_7_" d="M-90 627.4s72.7-63.1 87.7-71.8 34.3 4.9 61.9 2.5c65.7-5.7 195-8.5 223.4-7.5 11.6.4 36.8-1.4 46.3 1.7s92.8 53.2 123.4 73.1 86.1 46 95.3 56.3c1.7 2 .6 5.8-2.4 8.9-1.2 1.3-.5-.8-2.1 1.9-10 16.3-36.6 44.4-74.9 44.4 0 0-80.3 26.9-93 38.2-12.7 11.3-40.8 29.7-54.7 35.4-13.9 5.8-36.2 20.1-52.4 46.8s-66.3 97.6-111.2 124.6-69 42-76.8 43c-7.8 1-33.2 4.4-45.5 13.7s-41 20.6-41 20.6l-16.5-84.9L-90 627.4z"/></defs><clipPath id="SVGID_8_"><use xlink:href="#SVGID_7_" style="overflow:visible"/></clipPath><path d="M-46.8 904.4s50.7 6.5 78.4-2c27.7-8.5 79.3-16.1 98.5-11.8 19.2 4.2 58.1-13.3 75.6-35s80.4-55.1 80.4-55.1 12.4-6.4 15.1-15.8 4-10.1 5.9-10.7 6.1 5.7 9.8 5.7 12.4-4.8 13.4-6.7c1-1.9-1-10.1 0-11.9 1-1.7 3.5-3.4 4.9-1.9 1.4 1.5 3.3 5.9 6.2 6.3s43.5-14.1 43.5-14.1 5.9-4.8 7.5-12.3c1.5-7.5 5.3-9.4 8-8.4 2.7.9 6.2 7.3 10.4 7.8 4.2.6 24.9-2.9 38.3-11.1 13.4-8.2 27.6-21.3 30.3-33.7 0 0 12.4 3.5 14.9 2.8 2.5-.7 10.6-10.9 17.7-9.2 7 1.6 29.9-1.7 32.2-.2 2.2 1.5 2.5 42.6-16.9 52.9L181.1 995 1.8 1067.8l-50.3-55.6 1.7-107.8z" style="clip-path:url(#SVGID_8_);fill:#e1aa87"/><path d="m-90 627.4 56.1-44.3s17-8.3 23.2-8.3 15.6-2.3 16.6 2.6c.9 4.9-9.5 7.8-13.2 10.6s-27.4 7.6-29.3 16.1c-1.9 8.5-19.9 57.4 4.7 83.1s69.6 60.9 83.7 69.8 46.8 12.2 46.8 12.2-76.8 12.6-97.4 9.5c-23-3.5-26.8 112.5-29.7 126.2s-9 13-9 13L-90 627.4zM426.6 657.3s-42.8.3-42.8-15.8 6.3-13.3 2-16.2c-4.4-2.9-9.8 1.6-15.1 6.4s-6.9 13.2-21 12.2c-8.6-.6-57-2.9-100.2-4.4-10.8-.4 9.3-31.7 3.8-32.6-8.2-1.4-25.6 31.6-36.2 30.9-20.7-1.3-25.4-1-27.9-1.7-7.9-2.4-56.7-20.4-63-17.5-6.3 2.9-1.9 3.5.8 8.8 2.6 5.3 13.4 22.7 17.2 37.3 2 7.9 3.3 25.2-.3 32.6-2.7 5.4-15.9 11.7-15.9 11.7l-.3 44.7 3.4 14s78.4-50.7 92.2-55.9c13.7-5.2 91.4-42.8 107.4-45.9 16-2.9 95.9-8.6 95.9-8.6z" class="st47"/><path d="M130.1 767.9s-53.4-.2-63.8-9.2c-10.5-9-12-40.2-8.6-42.7 3.4-2.5 15.3 4.6 22.8 14.3 7.5 9.7 27.3 16.4 33.6 17.9 6.3 1.6 17 7.2 16 19.7zM127.5 735.6s-10.6-46.3-16.1-54.6c-5.6-8.2-22-16-28-17.2-4.3-.8-15.3-11.2-17.6-9.9s2.6 17.7 9.7 24.5 22.2 23.1 26.1 29.3 24.8 37.2 25.9 27.9zM138 662.3s-1.3 9.6-8.7 11.8c-7.4 2.2-19.6-14.8-19.6-14.8l12.1 30.7 4.2 22.4 16.2 7.3c0 .1 6.3-34.5-4.2-57.4z" class="st47"/><path d="M-90 627.4s72.7-63.1 87.7-71.8 34.3 4.9 61.9 2.5c65.7-5.7 195-8.5 223.4-7.5 11.6.4 36.8-1.4 46.3 1.7s92.8 53.2 123.4 73.1 86.1 46 95.3 56.3c1.7 2 .3 5.1-2 8.8-1.8 2.9-.9-.7-2.6 2.1-10 16.3-36.6 44.4-74.9 44.4 0 0-80.3 26.9-93 38.2-12.7 11.3-40.8 29.7-54.7 35.4-13.9 5.8-36.2 20.1-52.4 46.8S202.1 955 157.2 982s-69 42-76.8 43c-7.8 1-33.2 4.4-45.5 13.7s-41 20.6-41 20.6l-16.5-84.9-67.4-347z" class="st57"/><path d="M55.7 774.1c5.4-1.3 10.9-2.2 16.4-3.2 5.5-1 11-1.9 16.5-2.7 5.5-.8 11-1.6 16.6-2.3 1.4-.2 2.8-.3 4.2-.4 1.4-.1 2.8-.2 4.3-.3l2.2-.1h2.2c1.6.1 2.6 0 3.9.1 4.8-.2 9.8-1.7 14.6-3.7 4.8-2 9.5-4.6 14.1-7.5 4.6-2.9 9-6 13.2-9.4l3.2-2.5c1.1-.9 2-1.7 3.2-2.6l3.5-2.7 3.5-2.4c9.4-6.4 19-12 28.7-17.5s19.5-10.8 29.4-16c9.9-5.1 19.8-10.2 30.1-14.8 2.6-1.1 5.1-2.3 7.8-3.4 1.3-.5 2.6-1.1 4-1.6s2.8-1 4.1-1.4l15.9-5c21.3-6.5 43-12.2 65-16.3 5.5-1 11-1.9 16.6-2.7 5.6-.8 11.1-1.4 16.8-1.9 11.2-.9 22.6-1.3 34-.3 5.7.5 11.3 1.3 17 2.5 5.6 1.2 11.3 2.9 16.7 5.4 5.4 2.6 10.6 6.1 14.7 10.9 4.1 4.8 6.8 10.7 7.9 16.8 1.2 6 1.1 12.1.4 17.9-.1.7-.2 1.5-.3 2.2l-.4 2.2c-.2 1.4-.6 2.9-.9 4.3-.2.7-.3 1.4-.5 2.2-.2.8-.5 1.6-.8 2.4-.3.8-.6 1.5-1 2.2-.3.7-.7 1.4-1.1 2.1-3.1 5.4-7.3 9.8-12 13.6-2.3 1.9-4.9 3.5-7.5 5-2.6 1.5-5.4 2.6-8.2 3.7-2.1.8-4.4-.3-5.1-2.4-.7-2.1.3-4.3 2.4-5.1l.1-.1c2.4-.9 4.7-1.9 6.9-3.1 2.2-1.3 4.4-2.6 6.3-4.3 2-1.6 3.9-3.3 5.5-5.2 1.7-1.9 3.2-3.9 4.4-6 .3-.5.6-1.1.8-1.6.3-.5.5-1.1.7-1.6.2-.5.3-1.1.5-1.6s.3-1.3.4-1.9c.3-1.3.6-2.6.8-3.9l.3-1.9c.1-.6.2-1.3.2-1.9.6-5.2.7-10.4-.3-15.2-.9-4.9-3.1-9.3-6.2-13-3.1-3.7-7.3-6.5-11.9-8.7-4.6-2.1-9.7-3.6-14.9-4.7-2.6-.5-5.3-1-7.9-1.4-1.3-.2-2.7-.3-4-.5-1.3-.2-2.7-.3-4-.4-10.7-.9-21.6-.6-32.5.3-5.4.5-10.9 1.1-16.3 1.9-5.4.8-10.8 1.7-16.2 2.7-21.6 4-42.9 9.7-64.1 16.1l-15.9 4.9c-1.4.4-2.5.8-3.8 1.3-1.2.4-2.5.9-3.7 1.4-2.5 1-5 2.1-7.5 3.2-10 4.5-19.9 9.5-29.7 14.5-9.8 5.1-19.5 10.3-29.1 15.8-9.6 5.4-19.2 11-28.1 17.1l-3.3 2.3-3.1 2.4c-1 .8-2.2 1.8-3.2 2.7l-3.3 2.6c-4.5 3.5-9.1 6.8-13.9 9.8-4.8 3-9.9 5.8-15.3 8.1-5.4 2.2-11.2 4-17.5 4.3-1.6 0-3.3 0-4.5-.1-.6 0-1.3-.1-1.9-.1h-6c-1.4 0-2.7 0-4.1.1-5.5.1-11 .3-16.5.7-5.5.3-11 .7-16.6 1.1-5.5.4-11 .9-16.6 1.2-.6 0-1.1-.4-1.1-1-.1-1.1.3-1.5.8-1.6z"/><path d="M426.4 754.1c-3.8-.1-7.4-.2-11.1-.4-1.9-.1-3.7-.2-5.6-.5-1-.1-1.9-.3-3-.6-.5-.1-1-.3-1.6-.6-.5-.2-1.3-.6-1.8-1.3-1-1.1-1.4-2.1-1.7-3.1-.3-1-.6-1.9-.8-2.9-.4-1.9-.8-3.7-1.2-5.4-.8-3.5-1.6-6.9-2.8-10.2-.6-1.6-1.2-3.2-1.9-4.9l-2-5c-1.3-3.3-2.8-6.6-4.2-10-.7-1.7-1.4-3.3-2.1-4.9l-.5-1.2-.3-.6c-.1-.1-.1-.3-.2-.4-.3-.6-.7-1.2-1.2-1.8-.9-1.2-2.2-2.4-3.6-3.9-1.3-1.5-2.7-3.6-3.3-5.9-.2-.6-.2-1.2-.3-1.8 0-.3 0-.6-.1-.9v-.9c0-1 .4-1.8.7-2.5.3-.7.7-1.2 1-1.6 1.5-1.8 3-3.1 4.6-4.2 3.2-2.3 6.5-4.1 9.9-5.6 6.8-3.2 13.9-5.4 21-7.1 7.2-1.7 14.5-2.8 21.9-3.1 7.3-.3 14.7.1 21.9 1.6.3.1.5.4.5.7-.1.3-.4.5-.7.5-7.2-.9-14.4-.8-21.5-.1-7.1.8-14.2 2.2-21 4.3-6.8 2.1-13.5 4.7-19.8 7.9-3.1 1.6-6.1 3.4-8.8 5.4-1.3 1-2.6 2.1-3.3 3.2-.4.5-.5 1-.5.8v.9c0 .3.1.6.2.9.3 1.2 1 2.2 2.1 3.4 1.1 1.2 2.5 2.4 3.9 4 .7.8 1.4 1.7 1.9 2.7.1.2.3.5.4.8l.3.6.6 1.3c.8 1.7 1.5 3.3 2.3 5 1.5 3.3 2.9 6.7 4.2 10.1 1.3 3.4 2.6 6.8 3.6 10.6.9 3.7 1.4 7.4 1.9 11.1.2 1.8.4 3.6.7 5.3.1.8.3 1.7.6 2.4.2.7.5 1.4.8 1.7 0 .1.6.4 1.4.6.7.2 1.6.3 2.4.4 1.7.2 3.4.3 5.2.3 3.5 0 7.1-.3 10.6-.8 1.6-.2 3.1.8 3.3 2.4.2 1.6-.8 3.1-2.4 3.3h-.6zM325.7 699.3c3.9 4.7 7.2 9.8 10 15.2 1.5 2.7 2.7 5.5 3.8 8.4l.8 2.2.7 2.2c.3.7.4 1.5.6 2.3.2.8.4 1.5.6 2.2 1.3 5.8 2.5 11.6 3.5 17.5 1.1 5.8 2 11.7 2.6 17.6.1 1.3-.8 2.5-2.2 2.7-1.2.1-2.2-.6-2.6-1.7-1.9-5.7-3.4-11.4-4.8-17.1-1.5-5.7-2.7-11.5-3.9-17.3l-.5-2.1c-.2-.7-.3-1.3-.5-2l-.6-2-.7-2c-.8-2.7-1.9-5.4-2.9-8.1-2.1-5.4-4.6-10.7-7-16v-.1c-.4-.9 0-1.9.9-2.3.9-.4 1.8-.2 2.2.4z"/><path d="M304.2 712.5s5.2 11.4 7.6 21.3c2.1 8.3 3 32 8.6 42.6" class="st56"/><path d="M305.1 712.1c2.8 4.9 5.2 9.9 7.3 15.1.5 1.3 1 2.6 1.5 4l.7 2.1c.2.7.4 1.5.6 2.2.7 2.8 1.1 5.6 1.6 8.3l1.4 8.1c.4 2.7 1 5.4 1.5 8 1 5.3 2 10.5 3.3 15.2l.1.2c.4 1.5-.4 3.1-2 3.6-1.2.4-2.5-.1-3.2-1.1-1.8-2.6-2.9-5.4-3.8-8.1-.4-1.4-.8-2.8-1.1-4.2l-.9-4.2c-.5-2.8-.8-5.6-1.1-8.4-.3-2.8-.6-5.5-.8-8.3-.2-2.7-.5-5.5-.8-8.1-.3-2.5-1-5.2-1.6-7.8-1.3-5.2-2.9-10.5-4.6-15.8-.2-.6.1-1.2.7-1.3.5-.2 1 0 1.2.5zM77.6 683.4c4 1.8 7.7 4.1 11.1 6.9 3.4 2.7 6.4 5.9 9.3 9.1 2.9 3.2 5.7 6.4 8.2 9.7 1.3 1.6 2.6 3.3 4 4.9l2.1 2.4c.7.8 1.5 1.7 2.2 2.6 2.8 3.5 5.2 7.3 7.3 11.1 2.1 3.9 4 7.8 5.6 11.9.8 2 1.6 4.1 2.3 6.1.7 2.1 1.3 4.1 1.9 6.2.6 2.1 1.1 4.2 1.6 6.3.2 1.1.3 2.2.3 3.3-.1 1.1-.2 2.3-.8 3.5-.6 1.5-2.3 2.1-3.8 1.5-.3-.1-.6-.3-.8-.5l-.2-.2c-.9-.8-1.5-1.8-2-2.7-.5-1-.8-1.9-1.1-2.9l-1.5-6c-1-4-2.1-8-3.4-11.9-2.5-7.9-5.4-15.7-10.1-22.2l-1.8-2.4c-.7-.8-1.4-1.7-2.1-2.5l-4.2-4.9c-2.8-3.2-5.3-6.6-7.9-10-2.6-3.3-5.1-6.6-8-9.6-2.9-3-6-5.6-9.5-8-.4-.3-.5-.9-.3-1.3.7-.4 1.2-.6 1.6-.4z"/><path d="m126.1 751.9-1.5-16.3c-.5-5.4-1-10.9-1.6-16.3-.6-5.4-1.2-10.8-1.9-16.1-.2-1.3-.4-2.7-.6-4l-.3-2-.4-1.9c-.1-.6-.2-1.3-.4-1.9l-.5-1.8c-.1-.6-.3-1.2-.5-1.9l-.6-1.9c-3.4-10.3-7.5-20.4-11.6-30.5-2.1-5-4.2-10.1-6.5-15s-4.6-9.9-7.5-14.5c-.2-.3-.1-.7.2-.9.3-.2.7-.1.9.2 3.4 4.4 6.2 9.2 8.9 14 2.7 4.8 5.2 9.7 7.7 14.6 5 9.8 9.5 19.8 13.6 30.1l.8 2c.2.7.5 1.3.7 2l.7 2.1c.2.7.4 1.4.5 2.1l.5 2.1.4 2.1c.3 1.4.6 2.7.8 4.1 1.1 5.5 1.9 10.9 2.6 16.4 1.4 10.9 2.6 21.8 3.4 32.8.2 2.2-1.5 4.1-3.7 4.3-2-.1-3.9-1.7-4.1-3.9z"/><path d="m128.4 703.1.4.2.5.2c.3.2.7.3 1 .4.6.3 1.3.5 1.9.6.6.1 1.2.2 1.6.2.5 0 .8-.1 1-.2.3-.1.5-.3.8-.6.3-.3.5-.7.8-1.2.5-1.1.9-2.5 1.1-4.1.5-3.1.4-6.6.3-10.1-.2-3.5-.6-7-1.1-10.5-1.1-7-2.7-14-4.8-20.8-2.2-6.8-4.8-13.4-8.6-19.5-.4-.7-.2-1.6.5-2.1.6-.4 1.4-.3 1.9.3 4.9 5.7 8.6 12.4 11.5 19.3 1.5 3.4 2.8 7 3.9 10.5 1.1 3.6 2.1 7.2 2.9 10.9.8 3.7 1.4 7.4 1.8 11.2.4 3.8.5 7.7.1 11.8-.3 2.1-.7 4.2-1.7 6.5-.5 1.1-1.2 2.3-2.2 3.3-1 1.1-2.2 2-3.6 2.6-1.4.6-2.9.9-4.3.9s-2.6-.2-3.8-.5c-1.2-.3-2.2-.7-3.2-1.2-.5-.2-1-.5-1.5-.8l-.7-.4c-.3-.2-.4-.3-.8-.5-1.8-1.3-2.2-3.8-1-5.6 1.2-1.7 3.4-2.2 5.2-1.2l.1.4z"/><path d="M143.8 692s.3.1.6.1c.3.1.6.1.9.2.6.1 1.2.2 1.9.2.6.1 1.3.1 2 .1h2c2.7-.1 5.5-.6 8.2-1.3 5.5-1.4 10.8-3.6 15.9-6.4 5.1-2.7 10.1-6 15-9.5 4.9-3.4 9.6-7.1 14.2-10.9 9.2-7.7 17.7-16.1 25.6-25.1 7.7-9.1 14.6-18.8 19.8-29.5l.1-.1c.6-1.2 2-1.7 3.3-1.1 1.1.5 1.6 1.8 1.2 3l-1.5 4.5-.8 2.3c-.3.7-.6 1.4-1 2.2l-1.9 4.3c-.7 1.4-1.5 2.8-2.2 4.2-1.4 2.8-3.2 5.4-4.9 8.1-.8 1.4-1.8 2.6-2.7 3.9-.9 1.3-1.8 2.5-2.8 3.8-7.7 9.9-16.6 18.8-26.1 26.9-4.8 4-9.7 7.9-14.8 11.5-5.1 3.6-10.4 7-16.1 10-5.7 2.9-11.7 5.4-18.2 6.8-3.2.7-6.6 1.2-10 1.2-.9 0-1.7 0-2.6-.1-.9-.1-1.7-.1-2.6-.3-.9-.1-1.8-.3-2.6-.5-.5-.1-.9-.2-1.4-.4-.5-.2-.8-.3-1.6-.6-2-.9-2.9-3.3-2-5.3s3.1-3.1 5.1-2.2z"/><path d="M176.7 689.5s64.8 5.4 93.2-1" class="st57"/><path d="m329.8 665.7 3.4-1.3 3.5-1.4c2.3-1 4.6-2 6.9-3.1 4.5-2.2 8.9-4.7 13-7.4 2.1-1.4 4-2.9 5.9-4.4 1.9-1.5 3.8-3.2 5.5-4.9 3.6-3.4 6.8-7.2 9.9-11.2v-.1c.8-1 2.3-1.2 3.3-.4.8.6 1.1 1.6.8 2.5-1.5 5.4-4.3 10.5-7.7 14.9-3.5 4.5-7.8 8.2-12.3 11.5-4.5 3.3-9.4 6-14.5 8.2-2.5 1.1-5.1 2.1-7.8 2.9-1.3.4-2.6.8-4 1.1-1.4.3-2.7.6-4.2.9-2.2.4-4.2-1.1-4.6-3.3-.3-1.9.8-3.7 2.5-4.4l.4-.1z"/><path d="M138 765.2s11.6-16.2 16.8-18c5.1-1.8 25.7-13.7 33.4-22.1 7.7-8.4 21.7-22.7 25.3-33.7" class="st57"/><path d="M725.1 728.3s-73.6-4.2-100.9-10.2c-32.4-7.2-146.9-45.4-146.9-45.4l8.1 18.1s71.8 26.4 134.5 39.5c52.1 10.9 96.5 7 105.5 7" style="fill:#c6c6c6;stroke:#000;stroke-width:4.3808;stroke-linecap:round;stroke-miterlimit:10"/><path d="M543.5 692.7c-.3-.4-.8-.9-1.2-1.3-.5-.4-.9-.9-1.4-1.3l-1.5-1.2-.8-.6-.4-.3-.5-.3c-2.4-1.6-4.4-3.3-6.6-5.1-2.1-1.7-4.1-3.5-6.1-5.3-2-1.8-4-3.6-5.9-5.6-.2-.2-.2-.4 0-.6.2-.2.4-.2.6 0 2.1 1.7 4.2 3.3 6.4 4.9 2.2 1.6 4.4 3.1 6.6 4.6 2.2 1.5 4.5 3 6.7 4.2l.4.2.5.2 1 .4c.7.3 1.3.5 2 .8.7.3 1.3.6 1.9.9.7.4 1.2.7 2 1.2l.2.1c1.3.9 1.6 2.7.8 4-.9 1.3-2.7 1.6-4 .8-.3-.2-.5-.5-.7-.7z"/><path d="M714.7 729.8c-.2 0 0 0 0 0h1.5c.6 0 1.3-.1 2-.1 1.3-.1 2.7-.2 4-.4l2-.3.9-.1c.3 0 .6-.1.8-.2.6-.1 1.1-.3 1.6-.5.3-.1.5-.2.8-.3l.6-.3.4-.2c1.8-.8 4 0 4.8 1.9.8 1.7.1 3.7-1.5 4.7-.3.2-.5.3-.7.4l-.6.3c-.4.2-.8.4-1.2.5-.8.3-1.6.6-2.4.8l-1.2.3-.6.1-.5.1-2.2.3c-1.5.2-2.9.4-4.4.6-.8.1-1.5.1-2.3.2H713.8c-2.1-.2-3.7-2.2-3.4-4.3.2-2.2 2.1-3.7 4.3-3.5z" class="st54"/><path d="M720.6 730c.8-.1 1.6-.2 2.3-.3.8-.1 1.6-.3 2.3-.4.8-.2 1.5-.3 2.2-.6.3-.1.7-.2.9-.4.1-.1.2-.1.3-.2l-.1.1s0 .1-.1.1c0 .1-.1 0-.1.5 0-.9.8-1.5 1.6-1.5.9 0 1.5.8 1.5 1.6-.1.5-.1.5-.2.7 0 .1-.1.2-.1.3l-.3.3-.4.4c-.3.2-.5.3-.7.5-.5.2-.9.4-1.3.6-.9.3-1.7.5-2.5.7-.8.2-1.7.4-2.5.5-.8.1-1.6.3-2.5.4-.9.1-1.7-.5-1.8-1.4 0-1 .6-1.8 1.5-1.9z" class="st15"/><path d="M714.2 734.7c3.3 0 6.6-.1 9.8-.7 3.2-.6 6.3-1.7 9.1-3.3.2-.1.6-.1.7.2s.1.6-.2.7c-2.9 1.7-6.2 2.9-9.5 3.5-3.3.6-6.7.8-10 .7-.3 0-.5-.3-.5-.6.1-.3.3-.5.6-.5z" class="st7"/><path d="M486.4 680.6c18.5 5.6 36.9 11.4 55.3 17.2l27.6 8.7 13.8 4.2c4.6 1.3 9.3 2.7 13.9 3.9 18.6 5.1 37.4 9.1 56.6 11.4 19.1 2.4 38.4 3.6 57.6 4.6.6 0 1 .5 1 1.1 0 .6-.5 1-1.1 1-19.3-.9-38.6-2.1-57.8-4.5-19.2-2.3-38.2-6.4-56.9-11.4-4.7-1.3-9.3-2.6-13.9-4l-13.9-4.2L541 700c-18.4-5.8-36.8-11.5-55.3-17.2-.6-.2-.9-.8-.7-1.4.2-.6.8-.9 1.4-.8z" class="st15"/><path d="m488.8 686.6 51.7 15.9c17.2 5.3 34.4 10.7 51.8 15.4l3.3.9 3.3.8 6.5 1.7 6.6 1.5 6.6 1.5 6.6 1.3c2.2.5 4.4.8 6.6 1.2 4.4.8 8.9 1.4 13.3 2 17.8 2.4 35.8 3.5 53.8 4.5.6 0 1 .5 1 1.1 0 .6-.5 1-1.1 1-18-1-36-2.1-54-4.5-4.5-.6-9-1.2-13.4-2-2.2-.4-4.5-.7-6.7-1.2l-6.6-1.3c-2.2-.4-4.4-1-6.6-1.5l-6.6-1.5-6.6-1.7-3.3-.8-3.3-.9c-17.4-4.8-34.6-10.1-51.9-15.4l-51.7-15.8c-.6-.2-.9-.8-.7-1.4s.8-.9 1.4-.8z" class="st7"/></g></g></svg>
