<?xml version="1.0" encoding="UTF-8" standalone="no"?><svg xmlns:dc="http://purl.org/dc/elements/1.1/" xmlns:cc="http://web.resource.org/cc/" xmlns:rdf="http://www.w3.org/1999/02/22-rdf-syntax-ns#" xmlns:svg="http://www.w3.org/2000/svg" xmlns="http://www.w3.org/2000/svg" xmlns:sodipodi="http://sodipodi.sourceforge.net/DTD/sodipodi-0.dtd" xmlns:inkscape="http://www.inkscape.org/namespaces/inkscape" width="124.98526" height="264.6875" id="svg2309" sodipodi:version="0.32" inkscape:version="0.45" sodipodi:modified="true" version="1.0"><defs id="defs2311"/><sodipodi:namedview id="base" pagecolor="#ffffff" bordercolor="#666666" borderopacity="1.0" gridtolerance="10000" guidetolerance="10" objecttolerance="10" inkscape:pageopacity="0.0" inkscape:pageshadow="2" inkscape:zoom="0.35" inkscape:cx="375" inkscape:cy="520" inkscape:document-units="px" inkscape:current-layer="layer1" inkscape:window-width="910" inkscape:window-height="626" inkscape:window-x="5" inkscape:window-y="49"/><metadata id="metadata2314"><rdf:RDF><cc:Work rdf:about=""><dc:format>image/svg+xml</dc:format><dc:type rdf:resource="http://purl.org/dc/dcmitype/StillImage"/></cc:Work></rdf:RDF></metadata><g inkscape:label="Layer 1" inkscape:groupmode="layer" id="layer1" transform="translate(-311.79308,-365.73272)"><g style="opacity:1;display:inline" id="g2244" transform="translate(308.95998,366.42022)"><path id="path4426" d="M 445.52492,372.22514 C 445.90652,395.55723 445.21415,418.63757 425.02492,440.56889 L 424.27492,441.41264 L 425.39992,441.41264 L 433.64992,441.53764 C 420.24442,469.42405 411.52244,497.23134 392.24367,525.00639 L 391.55617,526.00639 L 392.74367,525.78764 L 402.93117,523.85014 C 395.71427,542.16045 383.37359,554.28293 369.99367,558.35014 C 366.31107,506.78151 392.04593,461.26308 413.89992,415.88139 C 413.92002,415.83965 413.94233,415.79813 413.96242,415.75639 L 413.14992,415.19389 C 377.36425,455.2074 361.23872,511.6427 355.14992,558.19389 C 343.02146,551.34666 338.97913,542.28079 334.86867,529.94389 L 343.33742,533.50639 L 344.21242,533.88139 L 344.02492,532.94389 C 337.58858,504.32416 347.5814,483.78143 357.27492,456.78764 L 364.24367,461.44389 L 365.05617,462.00639 L 365.02492,461.03764 C 364.47892,439.10645 379.24595,417.08983 398.83742,397.44389 L 401.55617,404.72514 L 401.93117,405.69389 L 402.46242,404.78764 L 408.43117,394.85014 L 408.46242,394.78764 C 418.31429,381.21812 428.72988,376.80082 445.52492,372.22514 z " style="fill:#c3b15f;fill-opacity:1;fill-rule:evenodd;stroke:none;stroke-width:1px;stroke-linecap:butt;stroke-linejoin:miter;stroke-opacity:1;display:inline" transform="translate(-324.02492,-364.63139)"/><path sodipodi:nodetypes="ccccccccccccccccccccccc" id="path7600" d="M 121.54988,7.5808058 C 104.81215,12.147023 94.270242,16.613077 84.4375,30.15625 L 84.40625,30.21875 L 78.4375,40.15625 L 77.90625,41.0625 L 77.53125,40.09375 L 74.8125,32.8125 C 55.22103,52.45844 40.454,74.47506 41,96.40625 L 41.03125,97.375 L 40.21875,96.8125 L 33.25,92.15625 C 23.55648,119.15004 13.56366,139.69277 20,168.3125 L 20.1875,169.25 L 19.3125,168.875 L 10.9375,165.34375 C 10.96447,165.51523 11.003113,165.67421 11.03125,165.84375 C 15.080346,177.9015 19.176955,186.81713 31.125,193.5625 C 31.596616,189.95681 32.122231,186.27456 32.71875,182.5625 C 18.12816,148.39836 30.79293,123.2814 36.5625,100.6875 L 45.4375,105.8125 C 44.211577,84.657017 56.63174,61.842112 72.78125,41.9375 L 77.46875,50.1875 C 89.477498,25.486664 98.97512,15.57175 121.54988,7.5808058 z " style="opacity:1;fill:#eff1cb;fill-opacity:1;fill-rule:evenodd;stroke:#eff1cb;stroke-width:1px;stroke-linecap:butt;stroke-linejoin:miter;stroke-opacity:1;display:inline"/><path style="fill:#000000;fill-opacity:1;fill-rule:evenodd;stroke:none;stroke-width:1px;stroke-linecap:butt;stroke-linejoin:miter;stroke-opacity:1;display:inline" d="M 126.9375,-0.6875 L 126.40625,-0.59375 C 106.72165,2.83976 87.4508,10.07244 79,27.375 L 75.4375,21.15625 L 75.125,20.59375 L 74.65625,21.0625 C 64.96254,30.33838 54.55574,42.35306 46.875,54.15625 C 39.66528,65.23562 34.88327,76.07934 35.40625,84.375 L 30.375,78.09375 L 29.875,77.46875 L 29.53125,78.1875 C 23.40732,91.41649 17.22694,107.69157 13.53125,122.625 C 10.02725,136.78385 8.77244,149.67206 12.03125,157.78125 L 3.75,152.96875 L 3.0625,152.5625 L 3,153.375 C 1.44089,176.99202 11.0382,188.26833 22.0625,199.15625 L 12.875,201.4375 L 11.03125,201.90625 L 12.875,202.40625 C 18.14953,203.83558 23.15023,205.44485 26.625,208.125 C 30.09977,210.80515 32.09598,214.49082 31.5,220.375 L 31.5,220.40625 L 31.5,245.90625 L 31.5,246.0625 L 31.59375,246.1875 L 43.09375,262.6875 L 44,264 L 44,262.40625 L 44,223.53125 C 45.52181,216.98735 47.30807,212.4833 49.875,209.5 C 52.44193,206.5167 55.78211,204.98483 60.5625,204.40625 L 62.28125,204.1875 L 60.71875,203.46875 L 54.65625,200.59375 C 69.11174,191.89001 85.3013,170.55445 89.5625,150.28125 L 89.75,149.46875 L 88.96875,149.6875 L 81.46875,151.71875 C 88.13174,145.46249 94.84392,133.06721 101.21875,118.625 C 107.9798,103.3078 114.29247,85.96032 119.46875,72.09375 L 119.75,71.34375 L 118.96875,71.40625 L 113.1875,71.8125 C 120.3346,64.22669 124.30703,51.6996 126.25,38.46875 C 128.27227,24.69793 128.13035,10.1977 127,-0.15625 L 126.9375,-0.6875 z M 121.5,7.59375 C 121.8816,30.92584 121.18923,54.00618 101,75.9375 L 100.25,76.78125 L 101.375,76.78125 L 109.625,76.90625 C 96.2195,104.79266 87.49752,132.59995 68.21875,160.375 L 67.53125,161.375 L 68.71875,161.15625 L 78.90625,159.21875 C 71.68935,177.52906 59.34867,189.65154 45.96875,193.71875 C 42.28615,142.15012 68.02101,96.63169 89.875,51.25 C 89.8951,51.20826 89.91741,51.16674 89.9375,51.125 L 89.125,50.5625 C 53.33933,90.57601 37.2138,147.01131 31.125,193.5625 C 18.99654,186.71527 14.95421,177.6494 10.84375,165.3125 L 19.3125,168.875 L 20.1875,169.25 L 20,168.3125 C 13.56366,139.69277 23.55648,119.15004 33.25,92.15625 L 40.21875,96.8125 L 41.03125,97.375 L 41,96.40625 C 40.454,74.47506 55.22103,52.45844 74.8125,32.8125 L 77.53125,40.09375 L 77.90625,41.0625 L 78.4375,40.15625 L 84.40625,30.21875 L 84.4375,30.15625 C 94.28937,16.58673 104.70496,12.16943 121.5,7.59375 z " id="path2177"/></g></g></svg>