<svg width="32" height="32" viewBox="0 0 32 32" fill="none" xmlns="http://www.w3.org/2000/svg">
<g clip-path="url(#clip0_2_176)">
<path d="M30.6562 1.32916H1.30829V29.929H30.6562V1.32916Z" fill="url(#paint0_radial_2_176)"/>
<path fill-rule="evenodd" clip-rule="evenodd" d="M0 0V31.2L31.9732 31.1956L32 0H0ZM1.3083 1.32917H30.6563L30.6399 29.929H1.30657L1.3083 1.32917Z" fill="#DCDCDC"/>
<path fill-rule="evenodd" clip-rule="evenodd" d="M17.4348 21.3378C17.356 21.2777 17.3162 21.199 17.3162 21.0792V19.1725C17.3162 19.1126 17.3961 19.0524 17.4748 19.1126C18.3694 19.7285 19.4149 20.0071 20.4081 20.0071C21.8589 20.0071 22.4548 19.2511 22.4548 18.3977C22.4548 17.6418 22.0775 17.0272 20.6867 16.2126L19.9708 15.8358C17.9254 14.6824 17.3295 13.5105 17.3295 12.0212C17.3295 9.99444 18.7401 8.36508 21.4016 8.36508C22.5735 8.36508 23.3668 8.54379 23.8641 8.82244C23.9628 8.86241 23.9828 8.92113 23.9828 9.04112V10.829C23.9828 10.9078 23.9029 10.9678 23.8242 10.9078C23.2081 10.5105 22.3748 10.3118 21.4414 10.3118C19.9123 10.3118 19.4149 11.1864 19.4149 11.8811C19.4149 12.6371 19.7922 13.1931 21.1628 13.9478L21.7988 14.285C24.0641 15.5371 24.6401 16.7485 24.6401 18.2379C24.6401 20.4431 23.0307 21.9738 20.4081 21.9738C19.2362 21.9738 18.1709 21.755 17.4348 21.3378ZM10.6495 10.5277H7.31215C7.21215 10.5277 7.17744 10.4704 7.19743 10.3518L7.43611 8.66645C7.45479 8.56775 7.49476 8.52777 7.59476 8.52777H15.9388C16.0574 8.52777 16.0974 8.56775 16.1175 8.68644L16.2761 10.3691C16.2961 10.4879 16.2361 10.5277 16.1375 10.5277H12.7828V21.7191C12.7828 21.8178 12.7427 21.8605 12.6241 21.8605H10.8081C10.6894 21.8605 10.6495 21.8204 10.6495 21.7019V10.5277Z" fill="#DCDCDC"/>
</g>
<defs>
<radialGradient id="paint0_radial_2_176" cx="0" cy="0" r="1" gradientUnits="userSpaceOnUse" gradientTransform="translate(13.0088 10.8561) scale(19.1526)">
<stop stop-color="#111111" stop-opacity="0.85"/>
<stop offset="0.7669" stop-color="#0A0A0A"/>
</radialGradient>
<clipPath id="clip0_2_176">
<rect width="32" height="31.2" fill="white"/>
</clipPath>
</defs>
</svg>
