<svg xmlns="http://www.w3.org/2000/svg" width="427" height="90" fill="none" viewBox="0 0 427 90"><g fill="#111" opacity=".9"><path d="M398.131 80.861c-16.34 0-28.011-11.671-28.011-27.587s11.671-27.588 28.011-27.588c16.234 0 27.906 11.672 27.906 27.588S414.365 80.86 398.131 80.86m0-11.247c8.807 0 14.749-6.685 14.749-16.34s-5.942-16.34-14.749-16.34c-8.912 0-14.854 6.684-14.854 16.34s5.942 16.34 14.854 16.34m-175.08 10.4V26.535h13.051v8.17c2.546-5.305 8.17-9.018 15.703-9.018 7.64 0 14.112 3.82 16.447 10.292 2.652-5.942 10.08-10.292 17.719-10.292 11.566 0 18.993 8.276 18.993 19.735v34.59h-13.051V49.349c0-7.533-3.82-12.52-10.186-12.52-7.003 0-11.247 6.154-11.247 13.687v29.498h-12.945V49.348c0-7.533-3.926-12.52-10.186-12.52-7.003 0-11.247 6.154-11.247 13.687v29.498zm-31.787.848c-17.507 0-27.163-13.794-27.163-27.8 0-14.112 9.656-27.374 27.163-27.374 17.826 0 25.89 13.05 25.89 25.783 0 1.804-.106 3.502-.213 4.563h-40.213c1.061 8.488 6.366 14.005 14.536 14.005 6.685 0 11.141-2.758 12.414-7.851h12.733c-1.91 11.353-11.884 18.674-25.147 18.674M177.046 47.12h27.163c-.531-6.79-5.199-11.566-12.945-11.566-7.215 0-12.733 4.032-14.218 11.566m164.1 33.737c-6.897 0-13.051-1.108-16.234-5.67v4.821h-13.051V9.138h13.051v22.685c3.289-4.456 9.337-6.14 16.021-6.14 15.492 0 24.829 11.353 24.829 27.587s-9.337 27.587-24.616 27.587m-2.653-11.247c8.595 0 14.597-6.472 14.597-16.34s-6.002-16.34-14.597-16.34c-8.701 0-14.43 6.472-14.43 16.34s5.729 16.34 14.43 16.34M129.66 9.139h12.838v19.246h14.957V40.27h-14.957s-.2 8.739 0 13.233c.2 4.495 1.567 8.306 5.421 11.354 3.408 2.697 10.728 2.96 10.728 2.96v13.014s-15.824-1.901-22.04-8.77c-4.9-5.414-6.86-12.056-6.947-17.362s0-14.43 0-14.43h-10.459l-.001-11.885h10.459z"/><path fill-rule="evenodd" d="M40.858 40.28C43.116 12.762 20.507-1.995.594.216v19.025c12.965-2.95 24.343 8.188 21.201 21.037zm9.87 0C48.47 12.762 71.08-1.995 90.992.216v19.025c-12.965-2.95-24.343 8.188-21.201 21.037zm-14.155 9.44c-2.258 27.517 20.351 42.274 40.264 40.063V70.758c-12.965 2.95-24.343-8.188-21.201-21.037z" clip-rule="evenodd"/></g></svg>