<svg id="Artwork" xmlns="http://www.w3.org/2000/svg" xmlns:xlink="http://www.w3.org/1999/xlink" viewBox="0 0 266.79 243.84"><defs><style>.cls-1{fill:#fff;}.cls-2{clip-path:url(#clip-path);}.cls-3{clip-path:url(#clip-path-2);}</style><clipPath id="clip-path"><polygon class="cls-1" points="200.76 83.27 136.29 46.43 136.29 197.41 162.05 182.45 162.05 139.98 181.5 151.23 181.39 122.18 162.05 111.13 162.05 94.26 200.85 116.68 200.76 83.27"/></clipPath><clipPath id="clip-path-2"><polygon class="cls-1" points="66.03 83.27 130.5 46.43 130.5 197.41 104.74 182.45 104.74 94.26 65.94 116.68 66.03 83.27"/></clipPath></defs><title>WhiteWhite Icon</title><polygon class="cls-1" points="200.76 83.27 136.29 46.43 136.29 197.41 162.05 182.45 162.05 139.98 181.5 151.23 181.39 122.18 162.05 111.13 162.05 94.26 200.85 116.68 200.76 83.27"/><g class="cls-2"><rect class="cls-1" x="60.08" y="45.88" width="158.31" height="151.72"/></g><polygon class="cls-1" points="66.03 83.27 130.5 46.43 130.5 197.41 104.74 182.45 104.74 94.26 65.94 116.68 66.03 83.27"/><g class="cls-3"><rect class="cls-1" x="59" y="45.88" width="158.31" height="151.72"/></g></svg>