<svg id="Artwork" xmlns="http://www.w3.org/2000/svg" viewBox="0 0 563.16 189.83"><defs><style>.cls-1{fill:#fff;}</style></defs><title>WhiteSlate Wordmark copy 5</title><path class="cls-1" d="M113.66,72.08H93.94v54.4H83V72.08H63.48V63.22h50.18Z"/><path class="cls-1" d="M126.75,127.35q-10,0-16.27-6.32t-6.24-16.84v-1.3A28.22,28.22,0,0,1,107,90.31a20.64,20.64,0,0,1,7.62-8.62,20.17,20.17,0,0,1,11-3.09q9.6,0,14.84,6.13t5.23,17.33v4.26H114.89a14.1,14.1,0,0,0,3.89,9.21,11.66,11.66,0,0,0,8.58,3.39,14.29,14.29,0,0,0,11.81-5.87l5.7,5.44a19.14,19.14,0,0,1-7.54,6.53A23.62,23.62,0,0,1,126.75,127.35Zm-1.26-40.28a8.91,8.91,0,0,0-7,3,15.79,15.79,0,0,0-3.41,8.48h20.12V97.8q-.36-5.3-2.83-8A8.82,8.82,0,0,0,125.49,87.07Z"/><path class="cls-1" d="M163.59,79.47l.3,5.43a16.91,16.91,0,0,1,13.69-6.3q14.68,0,14.95,16.81v31.07H182V96c0-3-.65-5.19-1.93-6.62s-3.4-2.15-6.33-2.15A10.16,10.16,0,0,0,164.2,93v33.45H153.64v-47Z"/><path class="cls-1" d="M226.78,113.71a4.79,4.79,0,0,0-2.32-4.31,24.8,24.8,0,0,0-7.71-2.6,39.44,39.44,0,0,1-9-2.87q-7.91-3.83-7.9-11.08A12.49,12.49,0,0,1,205,82.69q5.13-4.09,13-4.09c5.61,0,10.16,1.39,13.62,4.17a13.24,13.24,0,0,1,5.19,10.82H226.26A6.49,6.49,0,0,0,224,88.53a8.62,8.62,0,0,0-6-2,9.29,9.29,0,0,0-5.67,1.61,5,5,0,0,0-2.2,4.3,4.29,4.29,0,0,0,2,3.78q2.06,1.35,8.26,2.71a39,39,0,0,1,9.75,3.26,13.77,13.77,0,0,1,5.26,4.54,11.62,11.62,0,0,1,1.72,6.43,12.27,12.27,0,0,1-5.26,10.28q-5.26,3.93-13.77,3.93a24.3,24.3,0,0,1-10.3-2.09,17,17,0,0,1-7-5.73,13.61,13.61,0,0,1-2.52-7.87h10.25a7.45,7.45,0,0,0,2.83,5.76,11,11,0,0,0,6.91,2,10.72,10.72,0,0,0,6.34-1.58A4.91,4.91,0,0,0,226.78,113.71Z"/><path class="cls-1" d="M242.6,102.54a27.67,27.67,0,0,1,2.74-12.45A19.89,19.89,0,0,1,253,81.58a21.59,21.59,0,0,1,11.38-3q9.51,0,15.44,6.13T286.26,101l.05,2.47a27.85,27.85,0,0,1-2.68,12.43,19.77,19.77,0,0,1-7.64,8.47,21.83,21.83,0,0,1-11.49,3q-10,0-15.93-6.63t-6-17.66Zm10.56.91q0,7.26,3,11.36a9.75,9.75,0,0,0,8.35,4.11,9.65,9.65,0,0,0,8.32-4.17q3-4.17,3-12.21,0-7.12-3.06-11.3a9.78,9.78,0,0,0-8.32-4.17,9.67,9.67,0,0,0-8.21,4.11Q253.15,95.29,253.16,103.45Z"/><path class="cls-1" d="M318.07,89.12a25.29,25.29,0,0,0-4.3-.35q-7.26,0-9.78,5.56v32.15H293.43v-47h10.08l.26,5.26q3.83-6.14,10.6-6.13a9.78,9.78,0,0,1,3.74.61Z"/><path class="cls-1" d="M362.21,99.67H336.75v26.81h-11V63.22H366v8.86h-29.2V90.9h25.46Z"/><path class="cls-1" d="M383.07,126.48H372.51V63.08h10.56Z"/><path class="cls-1" d="M390.8,102.54a27.67,27.67,0,0,1,2.74-12.45,20,20,0,0,1,7.69-8.51,21.59,21.59,0,0,1,11.38-3q9.51,0,15.45,6.13t6.4,16.25l.05,2.47a28,28,0,0,1-2.67,12.43,19.79,19.79,0,0,1-7.65,8.47,21.83,21.83,0,0,1-11.49,3q-10,0-15.93-6.63t-6-17.66Zm10.56.91q0,7.26,3,11.36a10.45,10.45,0,0,0,16.66-.06q3-4.17,3-12.21,0-7.12-3.06-11.3a9.78,9.78,0,0,0-8.32-4.17,9.68,9.68,0,0,0-8.21,4.11Q401.36,95.29,401.36,103.45Z"/><path class="cls-1" d="M482.15,111.92l7.47-32.45h10.3l-12.82,47h-8.68L468.34,94.2l-9.91,32.28h-8.69l-12.86-47h10.3l7.6,32.11,9.65-32.11h7.95Z"/></svg>