<svg id="Artwork" xmlns="http://www.w3.org/2000/svg" xmlns:xlink="http://www.w3.org/1999/xlink" viewBox="0 0 685.02 229.75"><defs><style>.cls-1{fill:none;}.cls-2{clip-path:url(#clip-path);}.cls-3{fill:url(#linear-gradient);}.cls-4{clip-path:url(#clip-path-2);}.cls-5{fill:url(#linear-gradient-2);}.cls-6{fill:#425066;}</style><clipPath id="clip-path"><polygon class="cls-1" points="155.46 88.44 111.38 63.26 111.38 166.5 128.99 156.27 128.99 127.22 142.29 134.92 142.22 115.06 128.99 107.5 128.99 95.96 155.52 111.29 155.46 88.44"/></clipPath><linearGradient id="linear-gradient" x1="59.26" y1="114.75" x2="167.52" y2="114.75" gradientUnits="userSpaceOnUse"><stop offset="0" stop-color="#ff6f00"/><stop offset="1" stop-color="#ffa800"/></linearGradient><clipPath id="clip-path-2"><polygon class="cls-1" points="63.33 88.44 107.42 63.26 107.42 166.5 89.81 156.27 89.81 95.96 63.27 111.29 63.33 88.44"/></clipPath><linearGradient id="linear-gradient-2" x1="58.53" y1="114.75" x2="166.79" y2="114.75" xlink:href="#linear-gradient"/></defs><title>FullColorPrimary Horizontal</title><g class="cls-2"><rect class="cls-3" x="59.26" y="62.88" width="108.26" height="103.75"/></g><g class="cls-4"><rect class="cls-5" x="58.53" y="62.88" width="108.26" height="103.75"/></g><path class="cls-6" d="M235.43,95.25H215.71v54.39H204.8V95.25H185.25V86.39h50.18Z"/><path class="cls-6" d="M248.52,150.51q-10,0-16.27-6.32T226,127.36v-1.31a28.25,28.25,0,0,1,2.72-12.58,20.7,20.7,0,0,1,7.62-8.62,20.16,20.16,0,0,1,11-3.08q9.6,0,14.84,6.12t5.24,17.34v4.25H236.66a14.05,14.05,0,0,0,3.89,9.21,11.66,11.66,0,0,0,8.58,3.39A14.3,14.3,0,0,0,261,136.22l5.69,5.43a19.08,19.08,0,0,1-7.54,6.54A23.59,23.59,0,0,1,248.52,150.51Zm-1.26-40.27a8.88,8.88,0,0,0-7,3,15.76,15.76,0,0,0-3.41,8.47H257V121c-.23-3.53-1.17-6.21-2.83-8A8.8,8.8,0,0,0,247.26,110.24Z"/><path class="cls-6" d="M285.36,102.63l.31,5.44a16.88,16.88,0,0,1,13.68-6.3q14.68,0,14.95,16.81v31.06H303.74V119.19c0-3-.64-5.19-1.93-6.63s-3.4-2.15-6.32-2.15a10.19,10.19,0,0,0-9.52,5.78v33.45H275.41v-47Z"/><path class="cls-6" d="M348.55,136.87a4.78,4.78,0,0,0-2.32-4.3,24.76,24.76,0,0,0-7.71-2.61,39.6,39.6,0,0,1-9-2.87q-7.9-3.81-7.9-11.07a12.52,12.52,0,0,1,5.12-10.17q5.13-4.08,13-4.08,8.43,0,13.62,4.17a13.22,13.22,0,0,1,5.19,10.81H348a6.51,6.51,0,0,0-2.26-5.06,8.67,8.67,0,0,0-6-2,9.36,9.36,0,0,0-5.67,1.61,5.08,5.08,0,0,0-2.2,4.3,4.27,4.27,0,0,0,2,3.78c1.36.9,4.11,1.8,8.25,2.72a39,39,0,0,1,9.75,3.26,13.77,13.77,0,0,1,5.26,4.54,11.52,11.52,0,0,1,1.72,6.43,12.24,12.24,0,0,1-5.26,10.27c-3.5,2.62-8.1,3.93-13.77,3.93a24.33,24.33,0,0,1-10.3-2.08,16.92,16.92,0,0,1-7-5.74,13.56,13.56,0,0,1-2.52-7.86h10.26a7.39,7.39,0,0,0,2.82,5.75,11,11,0,0,0,6.91,2q4.17,0,6.34-1.59A4.91,4.91,0,0,0,348.55,136.87Z"/><path class="cls-6" d="M364.37,125.7a27.63,27.63,0,0,1,2.74-12.44,20,20,0,0,1,7.69-8.52,21.68,21.68,0,0,1,11.38-3q9.51,0,15.45,6.12t6.4,16.25l.05,2.48A28,28,0,0,1,405.41,139a19.73,19.73,0,0,1-7.65,8.47,21.83,21.83,0,0,1-11.49,3q-10,0-15.93-6.62t-6-17.66Zm10.56.92q0,7.24,3,11.36a10.46,10.46,0,0,0,16.66-.07q3-4.17,3-12.21,0-7.12-3.06-11.29a10.33,10.33,0,0,0-16.53-.07Q374.92,118.45,374.93,126.62Z"/><path class="cls-6" d="M439.84,112.28a26.27,26.27,0,0,0-4.3-.35q-7.26,0-9.78,5.56v32.15H415.2v-47h10.08l.27,5.26q3.81-6.12,10.6-6.12a10,10,0,0,1,3.73.6Z"/><path class="cls-6" d="M484,122.84H458.52v26.8h-11V86.39h40.19v8.86h-29.2v18.81H484Z"/><path class="cls-6" d="M504.84,149.64H494.28V86.25h10.56Z"/><path class="cls-6" d="M512.57,125.7a27.63,27.63,0,0,1,2.74-12.44,20,20,0,0,1,7.69-8.52,21.7,21.7,0,0,1,11.38-3q9.52,0,15.45,6.12t6.41,16.25l0,2.48A28,28,0,0,1,553.61,139a19.67,19.67,0,0,1-7.65,8.47,21.83,21.83,0,0,1-11.49,3q-9.94,0-15.92-6.62t-6-17.66Zm10.56.92q0,7.24,3,11.36a9.74,9.74,0,0,0,8.34,4.1,9.64,9.64,0,0,0,8.32-4.17q3-4.17,3-12.21,0-7.12-3.07-11.29a10.33,10.33,0,0,0-16.53-.07Q523.13,118.45,523.13,126.62Z"/><path class="cls-6" d="M603.92,135.09l7.48-32.46h10.29l-12.81,47h-8.69l-10.08-32.28-9.91,32.28h-8.69l-12.86-47H569l7.6,32.11,9.65-32.11h7.95Z"/></svg>