<svg viewBox="0 0 685.02 229.75" xmlns="http://www.w3.org/2000/svg" xmlns:xlink="http://www.w3.org/1999/xlink"><clipPath id="a"><path d="m155.46 88.44-44.08-25.18v103.24l17.61-10.23v-29.05l13.3 7.7-.07-19.86-13.23-7.56v-11.54l26.53 15.33z"/></clipPath><clipPath id="b"><path d="m63.33 88.44 44.09-25.18v103.24l-17.61-10.23v-60.31l-26.54 15.33z"/></clipPath><path d="m155.46 88.44-44.08-25.18v103.24l17.61-10.23v-29.05l13.3 7.7-.07-19.86-13.23-7.56v-11.54l26.53 15.33z" fill="#fff"/><g clip-path="url(#a)"><path d="m59.26 62.88h108.26v103.75h-108.26z" fill="#fff"/></g><path d="m63.33 88.44 44.09-25.18v103.24l-17.61-10.23v-60.31l-26.54 15.33z" fill="#fff"/><g clip-path="url(#b)"><path d="m58.53 62.88h108.26v103.75h-108.26z" fill="#fff"/></g><g fill="#fff"><path d="m235.46 95.27h-19.73v54.4h-10.9v-54.4h-19.55v-8.86h50.18z"/><path d="m248.55 150.54q-10 0-16.27-6.33t-6.28-16.83v-1.3a28.19 28.19 0 0 1 2.72-12.58 20.67 20.67 0 0 1 7.62-8.63 20.2 20.2 0 0 1 11-3.08q9.6 0 14.84 6.12t5.23 17.34v4.26h-30.72a14.09 14.09 0 0 0 3.88 9.21 11.69 11.69 0 0 0 8.58 3.39 14.3 14.3 0 0 0 11.85-5.87l5.69 5.43a19 19 0 0 1 -7.53 6.54 23.62 23.62 0 0 1 -10.61 2.33zm-1.26-40.28a8.91 8.91 0 0 0 -7 3 15.76 15.76 0 0 0 -3.41 8.47h20.12v-.73q-.35-5.3-2.82-8a8.82 8.82 0 0 0 -6.89-2.74z"/><path d="m285.39 102.66.3 5.43a16.91 16.91 0 0 1 13.69-6.3q14.69 0 14.94 16.81v31.07h-10.55v-30.46q0-4.47-1.94-6.62c-1.29-1.44-3.39-2.16-6.32-2.16a10.16 10.16 0 0 0 -9.51 5.78v33.46h-10.56v-47z"/><path d="m348.58 136.89a4.79 4.79 0 0 0 -2.32-4.3 24.78 24.78 0 0 0 -7.72-2.6 39.84 39.84 0 0 1 -9-2.87q-7.91-3.83-7.91-11.08a12.52 12.52 0 0 1 5.13-10.17q5.13-4.08 13-4.08 8.43 0 13.62 4.17a13.22 13.22 0 0 1 5.2 10.82h-10.52a6.48 6.48 0 0 0 -2.26-5.06 8.65 8.65 0 0 0 -6-2 9.4 9.4 0 0 0 -5.67 1.6 5.09 5.09 0 0 0 -2.19 4.3 4.26 4.26 0 0 0 2 3.78c1.36.9 4.12 1.81 8.26 2.72a39 39 0 0 1 9.75 3.26 13.84 13.84 0 0 1 5.26 4.54 11.62 11.62 0 0 1 1.71 6.43 12.24 12.24 0 0 1 -5.25 10.27q-5.26 3.94-13.78 3.94a24.28 24.28 0 0 1 -10.29-2.09 17 17 0 0 1 -7-5.73 13.61 13.61 0 0 1 -2.52-7.87h10.25a7.47 7.47 0 0 0 2.83 5.76 10.94 10.94 0 0 0 6.91 2q4.17 0 6.34-1.59a4.89 4.89 0 0 0 2.17-4.15z"/><path d="m364.4 125.73a27.77 27.77 0 0 1 2.73-12.45 20.1 20.1 0 0 1 7.69-8.52 21.74 21.74 0 0 1 11.39-3q9.51 0 15.44 6.12t6.41 16.25v2.48a28 28 0 0 1 -2.67 12.43 19.77 19.77 0 0 1 -7.64 8.47 21.84 21.84 0 0 1 -11.5 3q-9.94 0-15.92-6.63t-6-17.66zm10.55.91q0 7.26 3 11.36a9.74 9.74 0 0 0 8.34 4.11 9.63 9.63 0 0 0 8.32-4.17q3-4.17 3-12.21 0-7.12-3.06-11.3a9.78 9.78 0 0 0 -8.32-4.17 9.67 9.67 0 0 0 -8.21 4.11c-2.02 2.73-3.02 6.83-3.02 12.27z"/><path d="m439.87 112.3a26.4 26.4 0 0 0 -4.31-.34q-7.24 0-9.77 5.56v32.15h-10.56v-47h10.08l.26 5.25q3.82-6.12 10.6-6.12a9.82 9.82 0 0 1 3.74.61z"/><path d="m484 122.86h-25.45v26.81h-11v-63.26h40.18v8.86h-29.18v18.81h25.45z"/><path d="m504.86 149.67h-10.55v-63.4h10.55z"/><path d="m512.6 125.73a27.64 27.64 0 0 1 2.74-12.45 20 20 0 0 1 7.69-8.52 21.68 21.68 0 0 1 11.38-3q9.51 0 15.44 6.12t6.41 16.25v2.48a27.88 27.88 0 0 1 -2.68 12.43 19.77 19.77 0 0 1 -7.64 8.47 21.83 21.83 0 0 1 -11.49 3q-10 0-15.93-6.63t-6-17.66zm10.56.91q0 7.26 3 11.36a9.75 9.75 0 0 0 8.35 4.11 9.65 9.65 0 0 0 8.32-4.17q3-4.17 3-12.21 0-7.12-3.06-11.3a9.78 9.78 0 0 0 -8.32-4.17 9.67 9.67 0 0 0 -8.21 4.11c-2.07 2.73-3.08 6.83-3.08 12.27z"/><path d="m604 135.11 7.47-32.45h10.3l-12.82 47h-8.69l-10.08-32.28-9.9 32.28h-8.69l-12.86-47h10.27l7.6 32.1 9.64-32.1h7.95z"/></g></svg>