<svg width="1753" height="372" viewBox="0 0 1753 372" fill="none" xmlns="http://www.w3.org/2000/svg">
<g filter="url(#filter0_dddi_298_25)">
<path d="M1593.88 95.3208L1686 299.166H1642.88L1627.2 265.845H1480.2L1466.47 299.166H1421.39L1513.87 94.9893C1524.9 72.9303 1539 62 1554.68 62C1570.36 62 1584.08 73.7603 1593.88 95.3208ZM1607.6 224.684L1552.72 103.161L1499.8 224.684H1607.6Z" fill="#B4B4B4"/>
<path d="M1628.06 265.439L1627.8 264.892H1627.2H1480.2H1479.56L1479.31 265.482L1465.84 298.213H1422.87L1514.73 95.3989C1525.68 73.4969 1539.52 62.9529 1554.68 62.9529C1569.8 62.9529 1583.27 74.2927 1593.01 95.7151L1684.52 298.213H1643.48L1628.06 265.439ZM1607.6 225.637H1609.07L1608.47 224.292L1553.59 102.769L1552.7 100.811L1551.84 102.781L1498.92 224.304L1498.34 225.637H1499.8H1607.6Z" stroke="white" stroke-width="1.90581"/>
</g>
<g filter="url(#filter1_dddi_298_25)">
<path d="M177.717 169.039C237.221 183.009 283.154 234.86 283.61 298.212H177.717V169.039Z" fill="white" stroke="white" stroke-width="1.90581"/>
<path d="M294.366 155.129H212.996V62.9548C255.395 63.1197 281.277 74.3068 296.598 91.3037C311.848 108.222 316.804 131.08 316.931 155.129H294.366Z" fill="white" stroke="white" stroke-width="1.90581"/>
<path d="M92.4806 62.9529H173.85V155.128C130.466 154.966 104.093 143.775 88.5284 126.773C73.0407 109.856 68.082 87.0019 67.9554 62.9529H92.4806Z" fill="white" stroke="white" stroke-width="1.90581"/>
</g>
<g filter="url(#filter2_dddi_298_25)">
<path d="M1380.23 62V277.605C1380.23 283.485 1378.27 289.366 1374.35 293.286C1370.43 297.206 1364.55 299.166 1360.63 299.166C1348.87 299.166 1337.11 299.166 1327.31 299.166C1319.47 299.166 1313.59 295.246 1309.67 289.366L1209.71 114.921V299.166H1168.55V83.5605C1168.55 77.6804 1170.51 73.7603 1174.43 69.8402C1178.35 65.9201 1182.27 62 1188.15 62H1213.63C1217.55 62 1221.47 63.96 1223.43 65.9201C1235.12 75.9384 1325.35 234.484 1339.07 258.005V62H1380.23Z" fill="#B4B4B4"/>
<path d="M1208.76 114.921V298.213H1169.5V83.5605C1169.5 80.7317 1169.97 78.4168 1170.89 76.3524C1171.81 74.2837 1173.2 72.4178 1175.1 70.514C1179.08 66.5393 1182.72 62.9529 1188.15 62.9529H1213.63C1217.28 62.9529 1220.96 64.8005 1222.76 66.5939L1222.78 66.6198L1222.81 66.6437C1223.46 67.1973 1224.44 68.33 1225.75 70.0468C1227.04 71.7444 1228.6 73.9565 1230.4 76.6194C1234.01 81.9439 1238.54 89.0384 1243.69 97.3544C1254 113.984 1266.8 135.469 1279.67 157.382C1297.75 188.17 1315.94 219.771 1327.55 239.938C1332.47 248.485 1336.2 254.978 1338.25 258.485L1340.03 261.53V258.005V62.9529H1379.28V277.605C1379.28 283.296 1377.38 288.911 1373.68 292.612C1369.95 296.342 1364.32 298.213 1360.63 298.213H1360.56H1360.49H1360.43H1360.36H1360.29H1360.22H1360.15H1360.08H1360.01H1359.94H1359.87H1359.81H1359.74H1359.67H1359.6H1359.53H1359.46H1359.39H1359.32H1359.25H1359.19H1359.12H1359.05H1358.98H1358.91H1358.84H1358.77H1358.7H1358.63H1358.57H1358.5H1358.43H1358.36H1358.29H1358.22H1358.15H1358.08H1358.01H1357.95H1357.88H1357.81H1357.74H1357.67H1357.6H1357.53H1357.46H1357.4H1357.33H1357.26H1357.19H1357.12H1357.05H1356.98H1356.91H1356.85H1356.78H1356.71H1356.64H1356.57H1356.5H1356.43H1356.36H1356.3H1356.23H1356.16H1356.09H1356.02H1355.95H1355.88H1355.81H1355.75H1355.68H1355.61H1355.54H1355.47H1355.4H1355.33H1355.26H1355.2H1355.13H1355.06H1354.99H1354.92H1354.85H1354.78H1354.72H1354.65H1354.58H1354.51H1354.44H1354.37H1354.3H1354.24H1354.17H1354.1H1354.03H1353.96H1353.89H1353.82H1353.76H1353.69H1353.62H1353.55H1353.48H1353.41H1353.35H1353.28H1353.21H1353.14H1353.07H1353H1352.94H1352.87H1352.8H1352.73H1352.66H1352.59H1352.53H1352.46H1352.39H1352.32H1352.25H1352.18H1352.12H1352.05H1351.98H1351.91H1351.84H1351.77H1351.71H1351.64H1351.57H1351.5H1351.43H1351.37H1351.3H1351.23H1351.16H1351.09H1351.03H1350.96H1350.89H1350.82H1350.75H1350.69H1350.62H1350.55H1350.48H1350.41H1350.35H1350.28H1350.21H1350.14H1350.07H1350.01H1349.94H1349.87H1349.8H1349.73H1349.67H1349.6H1349.53H1349.46H1349.4H1349.33H1349.26H1349.19H1349.13H1349.06H1348.99H1348.92H1348.85H1348.79H1348.72H1348.65H1348.58H1348.52H1348.45H1348.38H1348.31H1348.25H1348.18H1348.11H1348.04H1347.98H1347.91H1347.84H1347.77H1347.71H1347.64H1347.57H1347.51H1347.44H1347.37H1347.3H1347.24H1347.17H1347.1H1347.04H1346.97H1346.9H1346.83H1346.77H1346.7H1346.63H1346.57H1346.5H1346.43H1346.36H1346.3H1346.23H1346.16H1346.1H1346.03H1345.96H1345.9H1345.83H1345.76H1345.7H1345.63H1345.56H1345.49H1345.43H1345.36H1345.29H1345.23H1345.16H1345.09H1345.03H1344.96H1344.89H1344.83H1344.76H1344.7H1344.63H1344.56H1344.5H1344.43H1344.36H1344.3H1344.23H1344.16H1344.1H1344.03H1343.96H1343.9H1343.83H1343.77H1343.7H1343.63H1343.57H1343.5H1343.44H1343.37H1343.3H1343.24H1343.17H1343.11H1343.04H1342.97H1342.91H1342.84H1342.78H1342.71H1342.64H1342.58H1342.51H1342.45H1342.38H1342.31H1342.25H1342.18H1342.12H1342.05H1341.99H1341.92H1341.86H1341.79H1341.72H1341.66H1341.59H1341.53H1341.46H1341.4H1341.33H1341.27H1341.2H1341.14H1341.07H1341.01H1340.94H1340.88H1340.81H1340.74H1340.68H1340.61H1340.55H1340.48H1340.42H1340.35H1340.29H1340.22H1340.16H1340.09H1340.03H1339.97H1339.9H1339.84H1339.77H1339.71H1339.64H1339.58H1339.51H1339.45H1339.38H1339.32H1339.25H1339.19H1339.13H1339.06H1339H1338.93H1338.87H1338.8H1338.74H1338.67H1338.61H1338.55H1338.48H1338.42H1338.35H1338.29H1338.23H1338.16H1338.1H1338.03H1337.97H1337.91H1337.84H1337.78H1337.71H1337.65H1337.59H1337.52H1337.46H1337.4H1337.33H1337.27H1337.2H1337.14H1337.08H1337.01H1336.95H1336.89H1336.82H1336.76H1336.7H1336.63H1336.57H1336.51H1336.44H1336.38H1336.32H1336.25H1336.19H1336.13H1336.07H1336H1335.94H1335.88H1335.81H1335.75H1335.69H1335.63H1335.56H1335.5H1335.44H1335.37H1335.31H1335.25H1335.19H1335.12H1335.06H1335H1334.94H1334.87H1334.81H1334.75H1334.69H1334.62H1334.56H1334.5H1334.44H1334.38H1334.31H1334.25H1334.19H1334.13H1334.07H1334H1333.94H1333.88H1333.82H1333.76H1333.7H1333.63H1333.57H1333.51H1333.45H1333.39H1333.33H1333.26H1333.2H1333.14H1333.08H1333.02H1332.96H1332.9H1332.83H1332.77H1332.71H1332.65H1332.59H1332.53H1332.47H1332.41H1332.35H1332.28H1332.22H1332.16H1332.1H1332.04H1331.98H1331.92H1331.86H1331.8H1331.74H1331.68H1331.62H1331.56H1331.5H1331.44H1331.38H1331.32H1331.26H1331.2H1331.14H1331.07H1331.01H1330.95H1330.89H1330.83H1330.77H1330.71H1330.66H1330.6H1330.54H1330.48H1330.42H1330.36H1330.3H1330.24H1330.18H1330.12H1330.06H1330H1329.94H1329.88H1329.82H1329.76H1329.7H1329.64H1329.58H1329.53H1329.47H1329.41H1329.35H1329.29H1329.23H1329.17H1329.11H1329.05H1329H1328.94H1328.88H1328.82H1328.76H1328.7H1328.64H1328.59H1328.53H1328.47H1328.41H1328.35H1328.29H1328.24H1328.18H1328.12H1328.06H1328H1327.95H1327.89H1327.83H1327.77H1327.71H1327.66H1327.6H1327.54H1327.48H1327.43H1327.37H1327.31C1319.85 298.213 1314.26 294.509 1310.48 288.864L1210.54 114.448L1208.76 111.342V114.921Z" stroke="white" stroke-width="1.90581"/>
</g>
<g filter="url(#filter3_dddi_298_25)">
<path d="M1101.9 62V103.161H958.821V156.082H1070.54V197.243H958.821V228.604C958.821 236.444 962.741 242.324 968.621 248.205C974.501 254.085 980.382 258.005 990.182 258.005H1101.9V299.166H990.182C970.581 299.166 952.941 291.326 939.221 277.605C925.5 263.885 919.62 246.245 919.62 228.604V93.3608C919.62 85.5206 921.58 77.6804 927.46 71.8002C933.34 65.9201 941.181 62 949.021 62H1101.9Z" fill="#B4B4B4"/>
<path d="M990.182 258.958H1100.95V298.213H990.182C970.851 298.213 953.448 290.485 939.894 276.932C926.379 263.416 920.573 246.031 920.573 228.604V93.3608C920.573 85.6675 922.496 78.1125 928.134 72.474C933.881 66.7276 941.491 62.9529 949.021 62.9529H1100.95V102.208H958.821H957.868V103.161V156.082V157.035H958.821H1069.59V196.29H958.821H957.868V197.243V228.604C957.868 236.819 961.999 242.93 967.948 248.878C973.932 254.862 980.04 258.958 990.182 258.958Z" stroke="white" stroke-width="1.90581"/>
</g>
<g filter="url(#filter4_dddi_298_25)">
<path d="M794.178 160.002V62H835.339V299.166H794.178V201.163H686.375V299.166H645.214V62H686.375V160.002H794.178Z" fill="#B4B4B4"/>
<path d="M794.178 160.955H795.13V160.002V62.9529H834.386V298.213H795.13V201.163V200.211H794.178H686.375H685.422V201.163V298.213H646.167V62.9529H685.422V160.002V160.955H686.375H794.178Z" stroke="white" stroke-width="1.90581"/>
</g>
<g filter="url(#filter5_dddi_298_25)">
<path d="M410.009 103.161V62H592.293V103.161H521.732V299.166H480.571V103.161H410.009Z" fill="#B4B4B4"/>
<path d="M480.571 102.208H410.962V62.9529H591.34V102.208H521.732H520.779V103.161V298.213H481.523V103.161V102.208H480.571Z" stroke="white" stroke-width="1.90581"/>
</g>
<defs>
<filter id="filter0_dddi_298_25" x="1354.63" y="0.579485" width="398.129" height="395.744" filterUnits="userSpaceOnUse" color-interpolation-filters="sRGB">
<feFlood flood-opacity="0" result="BackgroundImageFix"/>
<feColorMatrix in="SourceAlpha" type="matrix" values="0 0 0 0 0 0 0 0 0 0 0 0 0 0 0 0 0 0 127 0" result="hardAlpha"/>
<feOffset dy="14.5113"/>
<feComposite in2="hardAlpha" operator="out"/>
<feColorMatrix type="matrix" values="0 0 0 0 0.387263 0 0 0 0 0.387263 0 0 0 0 0.387263 0 0 0 1 0"/>
<feBlend mode="normal" in2="BackgroundImageFix" result="effect1_dropShadow_298_25"/>
<feColorMatrix in="SourceAlpha" type="matrix" values="0 0 0 0 0 0 0 0 0 0 0 0 0 0 0 0 0 0 127 0" result="hardAlpha"/>
<feOffset dy="21.9701"/>
<feGaussianBlur stdDeviation="3.81646"/>
<feComposite in2="hardAlpha" operator="out"/>
<feColorMatrix type="matrix" values="0 0 0 0 1 0 0 0 0 1 0 0 0 0 1 0 0 0 0.41 0"/>
<feBlend mode="normal" in2="effect1_dropShadow_298_25" result="effect2_dropShadow_298_25"/>
<feColorMatrix in="SourceAlpha" type="matrix" values="0 0 0 0 0 0 0 0 0 0 0 0 0 0 0 0 0 0 127 0" result="hardAlpha"/>
<feOffset dy="5.34091"/>
<feGaussianBlur stdDeviation="33.3807"/>
<feComposite in2="hardAlpha" operator="out"/>
<feColorMatrix type="matrix" values="0 0 0 0 1 0 0 0 0 1 0 0 0 0 1 0 0 0 1 0"/>
<feBlend mode="normal" in2="effect2_dropShadow_298_25" result="effect3_dropShadow_298_25"/>
<feBlend mode="normal" in="SourceGraphic" in2="effect3_dropShadow_298_25" result="shape"/>
<feColorMatrix in="SourceAlpha" type="matrix" values="0 0 0 0 0 0 0 0 0 0 0 0 0 0 0 0 0 0 127 0" result="hardAlpha"/>
<feOffset dy="97.1578"/>
<feGaussianBlur stdDeviation="77.8433"/>
<feComposite in2="hardAlpha" operator="arithmetic" k2="-1" k3="1"/>
<feColorMatrix type="matrix" values="0 0 0 0 0.415686 0 0 0 0 0 0 0 0 0 1 0 0 0 1 0"/>
<feBlend mode="normal" in2="shape" result="effect4_innerShadow_298_25"/>
</filter>
<filter id="filter1_dddi_298_25" x="0.238571" y="0.579485" width="384.409" height="395.743" filterUnits="userSpaceOnUse" color-interpolation-filters="sRGB">
<feFlood flood-opacity="0" result="BackgroundImageFix"/>
<feColorMatrix in="SourceAlpha" type="matrix" values="0 0 0 0 0 0 0 0 0 0 0 0 0 0 0 0 0 0 127 0" result="hardAlpha"/>
<feOffset dy="14.5113"/>
<feComposite in2="hardAlpha" operator="out"/>
<feColorMatrix type="matrix" values="0 0 0 0 0.387263 0 0 0 0 0.387263 0 0 0 0 0.387263 0 0 0 1 0"/>
<feBlend mode="normal" in2="BackgroundImageFix" result="effect1_dropShadow_298_25"/>
<feColorMatrix in="SourceAlpha" type="matrix" values="0 0 0 0 0 0 0 0 0 0 0 0 0 0 0 0 0 0 127 0" result="hardAlpha"/>
<feOffset dy="21.9701"/>
<feGaussianBlur stdDeviation="3.81646"/>
<feComposite in2="hardAlpha" operator="out"/>
<feColorMatrix type="matrix" values="0 0 0 0 1 0 0 0 0 1 0 0 0 0 1 0 0 0 0.41 0"/>
<feBlend mode="normal" in2="effect1_dropShadow_298_25" result="effect2_dropShadow_298_25"/>
<feColorMatrix in="SourceAlpha" type="matrix" values="0 0 0 0 0 0 0 0 0 0 0 0 0 0 0 0 0 0 127 0" result="hardAlpha"/>
<feOffset dy="5.34091"/>
<feGaussianBlur stdDeviation="33.3807"/>
<feComposite in2="hardAlpha" operator="out"/>
<feColorMatrix type="matrix" values="0 0 0 0 1 0 0 0 0 1 0 0 0 0 1 0 0 0 1 0"/>
<feBlend mode="normal" in2="effect2_dropShadow_298_25" result="effect3_dropShadow_298_25"/>
<feBlend mode="normal" in="SourceGraphic" in2="effect3_dropShadow_298_25" result="shape"/>
<feColorMatrix in="SourceAlpha" type="matrix" values="0 0 0 0 0 0 0 0 0 0 0 0 0 0 0 0 0 0 127 0" result="hardAlpha"/>
<feOffset dy="97.1578"/>
<feGaussianBlur stdDeviation="77.8433"/>
<feComposite in2="hardAlpha" operator="arithmetic" k2="-1" k3="1"/>
<feColorMatrix type="matrix" values="0 0 0 0 0.415686 0 0 0 0 0 0 0 0 0 1 0 0 0 1 0"/>
<feBlend mode="normal" in2="shape" result="effect4_innerShadow_298_25"/>
</filter>
<filter id="filter2_dddi_298_25" x="1101.79" y="0.579485" width="345.208" height="395.744" filterUnits="userSpaceOnUse" color-interpolation-filters="sRGB">
<feFlood flood-opacity="0" result="BackgroundImageFix"/>
<feColorMatrix in="SourceAlpha" type="matrix" values="0 0 0 0 0 0 0 0 0 0 0 0 0 0 0 0 0 0 127 0" result="hardAlpha"/>
<feOffset dy="14.5113"/>
<feComposite in2="hardAlpha" operator="out"/>
<feColorMatrix type="matrix" values="0 0 0 0 0.387263 0 0 0 0 0.387263 0 0 0 0 0.387263 0 0 0 1 0"/>
<feBlend mode="normal" in2="BackgroundImageFix" result="effect1_dropShadow_298_25"/>
<feColorMatrix in="SourceAlpha" type="matrix" values="0 0 0 0 0 0 0 0 0 0 0 0 0 0 0 0 0 0 127 0" result="hardAlpha"/>
<feOffset dy="21.9701"/>
<feGaussianBlur stdDeviation="3.81646"/>
<feComposite in2="hardAlpha" operator="out"/>
<feColorMatrix type="matrix" values="0 0 0 0 1 0 0 0 0 1 0 0 0 0 1 0 0 0 0.41 0"/>
<feBlend mode="normal" in2="effect1_dropShadow_298_25" result="effect2_dropShadow_298_25"/>
<feColorMatrix in="SourceAlpha" type="matrix" values="0 0 0 0 0 0 0 0 0 0 0 0 0 0 0 0 0 0 127 0" result="hardAlpha"/>
<feOffset dy="5.34091"/>
<feGaussianBlur stdDeviation="33.3807"/>
<feComposite in2="hardAlpha" operator="out"/>
<feColorMatrix type="matrix" values="0 0 0 0 1 0 0 0 0 1 0 0 0 0 1 0 0 0 1 0"/>
<feBlend mode="normal" in2="effect2_dropShadow_298_25" result="effect3_dropShadow_298_25"/>
<feBlend mode="normal" in="SourceGraphic" in2="effect3_dropShadow_298_25" result="shape"/>
<feColorMatrix in="SourceAlpha" type="matrix" values="0 0 0 0 0 0 0 0 0 0 0 0 0 0 0 0 0 0 127 0" result="hardAlpha"/>
<feOffset dy="97.1578"/>
<feGaussianBlur stdDeviation="77.8433"/>
<feComposite in2="hardAlpha" operator="arithmetic" k2="-1" k3="1"/>
<feColorMatrix type="matrix" values="0 0 0 0 0.415686 0 0 0 0 0 0 0 0 0 1 0 0 0 1 0"/>
<feBlend mode="normal" in2="shape" result="effect4_innerShadow_298_25"/>
</filter>
<filter id="filter3_dddi_298_25" x="852.859" y="0.579485" width="315.808" height="395.744" filterUnits="userSpaceOnUse" color-interpolation-filters="sRGB">
<feFlood flood-opacity="0" result="BackgroundImageFix"/>
<feColorMatrix in="SourceAlpha" type="matrix" values="0 0 0 0 0 0 0 0 0 0 0 0 0 0 0 0 0 0 127 0" result="hardAlpha"/>
<feOffset dy="14.5113"/>
<feComposite in2="hardAlpha" operator="out"/>
<feColorMatrix type="matrix" values="0 0 0 0 0.387263 0 0 0 0 0.387263 0 0 0 0 0.387263 0 0 0 1 0"/>
<feBlend mode="normal" in2="BackgroundImageFix" result="effect1_dropShadow_298_25"/>
<feColorMatrix in="SourceAlpha" type="matrix" values="0 0 0 0 0 0 0 0 0 0 0 0 0 0 0 0 0 0 127 0" result="hardAlpha"/>
<feOffset dy="21.9701"/>
<feGaussianBlur stdDeviation="3.81646"/>
<feComposite in2="hardAlpha" operator="out"/>
<feColorMatrix type="matrix" values="0 0 0 0 1 0 0 0 0 1 0 0 0 0 1 0 0 0 0.41 0"/>
<feBlend mode="normal" in2="effect1_dropShadow_298_25" result="effect2_dropShadow_298_25"/>
<feColorMatrix in="SourceAlpha" type="matrix" values="0 0 0 0 0 0 0 0 0 0 0 0 0 0 0 0 0 0 127 0" result="hardAlpha"/>
<feOffset dy="5.34091"/>
<feGaussianBlur stdDeviation="33.3807"/>
<feComposite in2="hardAlpha" operator="out"/>
<feColorMatrix type="matrix" values="0 0 0 0 1 0 0 0 0 1 0 0 0 0 1 0 0 0 1 0"/>
<feBlend mode="normal" in2="effect2_dropShadow_298_25" result="effect3_dropShadow_298_25"/>
<feBlend mode="normal" in="SourceGraphic" in2="effect3_dropShadow_298_25" result="shape"/>
<feColorMatrix in="SourceAlpha" type="matrix" values="0 0 0 0 0 0 0 0 0 0 0 0 0 0 0 0 0 0 127 0" result="hardAlpha"/>
<feOffset dy="97.1578"/>
<feGaussianBlur stdDeviation="77.8433"/>
<feComposite in2="hardAlpha" operator="arithmetic" k2="-1" k3="1"/>
<feColorMatrix type="matrix" values="0 0 0 0 0.415686 0 0 0 0 0 0 0 0 0 1 0 0 0 1 0"/>
<feBlend mode="normal" in2="shape" result="effect4_innerShadow_298_25"/>
</filter>
<filter id="filter4_dddi_298_25" x="578.452" y="0.579485" width="323.647" height="395.744" filterUnits="userSpaceOnUse" color-interpolation-filters="sRGB">
<feFlood flood-opacity="0" result="BackgroundImageFix"/>
<feColorMatrix in="SourceAlpha" type="matrix" values="0 0 0 0 0 0 0 0 0 0 0 0 0 0 0 0 0 0 127 0" result="hardAlpha"/>
<feOffset dy="14.5113"/>
<feComposite in2="hardAlpha" operator="out"/>
<feColorMatrix type="matrix" values="0 0 0 0 0.387263 0 0 0 0 0.387263 0 0 0 0 0.387263 0 0 0 1 0"/>
<feBlend mode="normal" in2="BackgroundImageFix" result="effect1_dropShadow_298_25"/>
<feColorMatrix in="SourceAlpha" type="matrix" values="0 0 0 0 0 0 0 0 0 0 0 0 0 0 0 0 0 0 127 0" result="hardAlpha"/>
<feOffset dy="21.9701"/>
<feGaussianBlur stdDeviation="3.81646"/>
<feComposite in2="hardAlpha" operator="out"/>
<feColorMatrix type="matrix" values="0 0 0 0 1 0 0 0 0 1 0 0 0 0 1 0 0 0 0.41 0"/>
<feBlend mode="normal" in2="effect1_dropShadow_298_25" result="effect2_dropShadow_298_25"/>
<feColorMatrix in="SourceAlpha" type="matrix" values="0 0 0 0 0 0 0 0 0 0 0 0 0 0 0 0 0 0 127 0" result="hardAlpha"/>
<feOffset dy="5.34091"/>
<feGaussianBlur stdDeviation="33.3807"/>
<feComposite in2="hardAlpha" operator="out"/>
<feColorMatrix type="matrix" values="0 0 0 0 1 0 0 0 0 1 0 0 0 0 1 0 0 0 1 0"/>
<feBlend mode="normal" in2="effect2_dropShadow_298_25" result="effect3_dropShadow_298_25"/>
<feBlend mode="normal" in="SourceGraphic" in2="effect3_dropShadow_298_25" result="shape"/>
<feColorMatrix in="SourceAlpha" type="matrix" values="0 0 0 0 0 0 0 0 0 0 0 0 0 0 0 0 0 0 127 0" result="hardAlpha"/>
<feOffset dy="97.1578"/>
<feGaussianBlur stdDeviation="77.8433"/>
<feComposite in2="hardAlpha" operator="arithmetic" k2="-1" k3="1"/>
<feColorMatrix type="matrix" values="0 0 0 0 0.415686 0 0 0 0 0 0 0 0 0 1 0 0 0 1 0"/>
<feBlend mode="normal" in2="shape" result="effect4_innerShadow_298_25"/>
</filter>
<filter id="filter5_dddi_298_25" x="343.247" y="0.579485" width="315.808" height="395.744" filterUnits="userSpaceOnUse" color-interpolation-filters="sRGB">
<feFlood flood-opacity="0" result="BackgroundImageFix"/>
<feColorMatrix in="SourceAlpha" type="matrix" values="0 0 0 0 0 0 0 0 0 0 0 0 0 0 0 0 0 0 127 0" result="hardAlpha"/>
<feOffset dy="14.5113"/>
<feComposite in2="hardAlpha" operator="out"/>
<feColorMatrix type="matrix" values="0 0 0 0 0.387263 0 0 0 0 0.387263 0 0 0 0 0.387263 0 0 0 1 0"/>
<feBlend mode="normal" in2="BackgroundImageFix" result="effect1_dropShadow_298_25"/>
<feColorMatrix in="SourceAlpha" type="matrix" values="0 0 0 0 0 0 0 0 0 0 0 0 0 0 0 0 0 0 127 0" result="hardAlpha"/>
<feOffset dy="21.9701"/>
<feGaussianBlur stdDeviation="3.81646"/>
<feComposite in2="hardAlpha" operator="out"/>
<feColorMatrix type="matrix" values="0 0 0 0 1 0 0 0 0 1 0 0 0 0 1 0 0 0 0.41 0"/>
<feBlend mode="normal" in2="effect1_dropShadow_298_25" result="effect2_dropShadow_298_25"/>
<feColorMatrix in="SourceAlpha" type="matrix" values="0 0 0 0 0 0 0 0 0 0 0 0 0 0 0 0 0 0 127 0" result="hardAlpha"/>
<feOffset dy="5.34091"/>
<feGaussianBlur stdDeviation="33.3807"/>
<feComposite in2="hardAlpha" operator="out"/>
<feColorMatrix type="matrix" values="0 0 0 0 1 0 0 0 0 1 0 0 0 0 1 0 0 0 1 0"/>
<feBlend mode="normal" in2="effect2_dropShadow_298_25" result="effect3_dropShadow_298_25"/>
<feBlend mode="normal" in="SourceGraphic" in2="effect3_dropShadow_298_25" result="shape"/>
<feColorMatrix in="SourceAlpha" type="matrix" values="0 0 0 0 0 0 0 0 0 0 0 0 0 0 0 0 0 0 127 0" result="hardAlpha"/>
<feOffset dy="97.1578"/>
<feGaussianBlur stdDeviation="77.8433"/>
<feComposite in2="hardAlpha" operator="arithmetic" k2="-1" k3="1"/>
<feColorMatrix type="matrix" values="0 0 0 0 0.415686 0 0 0 0 0 0 0 0 0 1 0 0 0 1 0"/>
<feBlend mode="normal" in2="shape" result="effect4_innerShadow_298_25"/>
</filter>
</defs>
</svg>

