<?xml version="1.0" standalone="no"?>
<!DOCTYPE svg PUBLIC "-//W3C//DTD SVG 20010904//EN"
 "http://www.w3.org/TR/2001/REC-SVG-20010904/DTD/svg10.dtd">
<svg version="1.0" xmlns="http://www.w3.org/2000/svg"
 width="753.000000pt" height="100.000000pt" viewBox="0 0 753.000000 100.000000"
 preserveAspectRatio="xMidYMid meet">

<g transform="translate(0.000000,100.000000) scale(0.100000,-0.100000)"
fill="#000000" stroke="none">
<path d="M120 875 l-125 -125 125 -125 125 -125 125 125 125 125 -125 125
-125 125 -125 -125z"/>
<path d="M620 875 l-125 -125 125 -125 125 -125 -125 -125 -125 -125 125 -125
125 -125 125 125 125 125 -125 125 -125 125 125 125 125 125 -125 125 -125
125 -125 -125z"/>
<path d="M1120 875 l-125 -125 125 -125 125 -125 125 125 125 125 -125 125
-125 125 -125 -125z"/>
<path d="M2300 795 l0 -85 125 0 125 0 0 -345 0 -345 95 0 95 0 0 345 0 345
125 0 125 0 0 85 0 85 -345 0 -345 0 0 -85z"/>
<path d="M3570 450 l0 -430 95 0 95 0 0 430 0 430 -95 0 -95 0 0 -430z"/>
<path d="M4410 451 l0 -431 190 0 c104 0 213 5 242 11 234 49 377 254 341 488
-27 175 -132 289 -310 337 -39 10 -126 17 -260 21 l-203 6 0 -432z m442 226
c31 -15 68 -43 83 -63 79 -103 70 -260 -19 -348 -56 -56 -115 -76 -228 -76
l-88 0 0 261 0 261 98 -4 c81 -3 107 -8 154 -31z"/>
<path d="M5912 833 c-55 -130 -332 -802 -332 -807 0 -3 46 -6 103 -6 l102 0
30 83 30 82 180 3 180 2 30 -82 30 -83 109 -3 c85 -2 107 0 103 10 -11 27
-290 707 -319 776 l-30 72 -98 0 -98 0 -20 -47z m182 -336 c31 -81 56 -150 56
-152 0 -3 -57 -5 -126 -5 -69 0 -124 4 -122 8 2 5 30 79 63 165 33 86 63 151
66 144 4 -7 32 -79 63 -160z"/>
<path d="M7000 450 l0 -430 265 0 265 0 0 85 0 85 -170 0 -170 0 0 345 0 345
-95 0 -95 0 0 -430z"/>
</g>
</svg>
