<?xml version="1.0" standalone="no"?>
<!DOCTYPE svg PUBLIC "-//W3C//DTD SVG 20010904//EN"
 "http://www.w3.org/TR/2001/REC-SVG-20010904/DTD/svg10.dtd">
<svg version="1.0" xmlns="http://www.w3.org/2000/svg"
 width="1001.000000pt" height="667.000000pt" viewBox="0 0 1001.000000 667.000000"
 preserveAspectRatio="xMidYMid meet">

<g transform="translate(0.000000,667.000000) scale(0.100000,-0.100000)"
fill="#000000" stroke="none">
<path d="M840 5835 l-835 -835 830 -830 c456 -456 834 -830 840 -830 5 0 383
374 840 830 l830 830 830 -830 830 -830 -835 -835 -835 -835 835 -835 835
-835 835 835 835 835 -833 833 -832 832 833 833 832 832 833 -832 832 -833
835 835 835 835 -835 835 -835 835 -835 -835 -835 -835 -833 833 -832 832
-833 -832 -832 -833 -833 833 -832 832 -835 -835z"/>
</g>
</svg>
