<svg xmlns="http://www.w3.org/2000/svg" preserveAspectRatio="xMidYMid" viewBox="0 0 256 290"><path fill="#FF004F" d="M189.72022 104.42148c18.67797 13.3448 41.55932 21.19661 66.27233 21.19661V78.08728c-4.67694.001-9.34196-.48645-13.91764-1.4554v37.41351c-24.71102 0-47.5894-7.85181-66.27232-21.19563v96.99656c0 48.5226-39.35537 87.85513-87.8998 87.85513-18.11308 0-34.94847-5.47314-48.93361-14.85978 15.96175 16.3122 38.22162 26.4315 62.84826 26.4315 48.54742 0 87.90477-39.33253 87.90477-87.85712v-96.99457h-.00199Zm17.16896-47.95275c-9.54548-10.4231-15.81283-23.89299-17.16896-38.78453v-6.11347h-13.18894c3.31982 18.92715 14.64335 35.09738 30.3579 44.898ZM69.67355 225.60685c-5.33316-6.9891-8.21517-15.53882-8.20226-24.3298 0-22.19236 18.0009-40.18631 40.20915-40.18631 4.13885-.001 8.2529.6324 12.19716 1.88328v-48.59308c-4.60943-.6314-9.26154-.89945-13.91167-.80117v37.82253c-3.94726-1.25089-8.06328-1.88626-12.20313-1.88229-22.20825 0-40.20815 17.99196-40.20815 40.1873 0 15.6937 8.99747 29.28075 22.1189 35.89954Z"/><path d="M175.80259 92.84876c18.68293 13.34382 41.5613 21.19563 66.27232 21.19563V76.63088c-13.79353-2.93661-26.0046-10.14114-35.18573-20.16215-15.71554-9.80162-27.03808-25.97185-30.3579-44.898H141.8876v189.84333c-.07843 22.1318-18.04855 40.05229-40.20915 40.05229-13.05889 0-24.66039-6.22169-32.00788-15.8595-13.12044-6.61879-22.1179-20.20683-22.1179-35.89854 0-22.19336 17.9999-40.1873 40.20815-40.1873 4.255 0 8.35614.66217 12.20312 1.88229v-37.82254c-47.69165.98483-86.0473 39.93316-86.0473 87.83429 0 23.91184 9.55144 45.58896 25.05353 61.4276 13.98514 9.38565 30.82053 14.85978 48.9336 14.85978 48.54544 0 87.89981-39.33452 87.89981-87.85612V92.84876h-.00099Z"/><path fill="#00F2EA" d="M242.07491 76.63088V66.51456c-12.4384.01886-24.6326-3.46278-35.18573-10.04683 9.34196 10.22255 21.64336 17.27121 35.18573 20.16315Zm-65.54363-65.06015a67.7881 67.7881 0 0 1-.72869-5.45726V0h-47.83362v189.84531c-.07644 22.12883-18.04557 40.04931-40.20815 40.04931-6.50661 0-12.64987-1.54375-18.09025-4.28677 7.34749 9.63681 18.949 15.8575 32.00788 15.8575 22.15862 0 40.13171-17.9185 40.20915-40.0503V11.57073h34.64368ZM99.96593 113.58077V102.8112c-3.9969-.54602-8.02655-.82003-12.06116-.81805C39.35537 101.99315 0 141.32669 0 189.84531c0 30.41846 15.46735 57.22621 38.97116 72.99536-15.5021-15.83765-25.05353-37.51576-25.05353-61.42661 0-47.90014 38.35466-86.84847 86.0483-87.8333Z"/></svg>