<svg xmlns="http://www.w3.org/2000/svg" xml:space="preserve" id="Layer_1" x="0" y="0" style="enable-background:new 0 0 1851.6 449.5" version="1.1" viewBox="0 0 1851.6 449.5"><style>.st0{fill:#25f4ee}.st1{fill:#fe2c55}</style><g id="LOGOS"><path d="M154.6 177v-17.5c-6.1-.9-12.2-1.3-18.4-1.3C61.1 158.1 0 219.2 0 294.4c0 44.5 21.7 86.1 58.2 111.6-23.5-25.2-36.6-58.3-36.6-92.8 0-74.1 59.4-134.5 133-136.2z" class="st0"/><path d="M157.9 375.4c33.4-.1 60.8-26.5 62.1-59.9l.1-296.7h54.2c-1.2-6.2-1.7-12.5-1.7-18.8h-74l-.2 296.7c-1.2 34.3-30 61.1-64.3 59.9-9.3-.3-18.5-2.8-26.7-7.1 11.6 16.2 30.4 25.9 50.5 25.9zM375.6 119.5V103c-19.9 0-39.4-5.8-56.1-16.7 14.6 16.9 34.3 28.5 56.1 33.2z" class="st0"/><path d="M319.5 86.3c-16.3-18.7-25.3-42.7-25.3-67.5h-19.8c5.1 27.7 21.4 52.1 45.1 67.5zM136.3 232.1c-34.4 0-62.2 27.8-62.2 62.2 0 23.2 12.8 44.4 33.4 55.1-20.2-27.7-14.1-66.4 13.5-86.6 15.9-11.6 36.5-15 55.3-9v-75.6c-6.1-.9-12.2-1.3-18.4-1.3-1.1 0-2.1.1-3.2.1v58c-6-1.9-12.2-2.9-18.4-2.9z" class="st1"/><path d="M375.6 119.5V177c-37 0-73-11.5-103-33.1v150.5c0 75.2-61.1 136.3-136.3 136.3-28 0-55.2-8.6-78.1-24.7 25.7 27.7 61.8 43.5 99.7 43.5 75.1 0 136.3-61.1 136.3-136.3V162.7c30 21.6 66 33.2 103 33.1v-74c-7.3 0-14.5-.8-21.6-2.3z" class="st1"/><path d="M272.6 294.4V143.9c30 21.6 66 33.2 103 33.1v-57.5c-21.8-4.7-41.5-16.3-56.1-33.2-23.7-15.4-40-39.8-45.2-67.5h-54.2l-.1 296.7c-1.2 34.3-30 61.1-64.3 59.9-19.2-.7-37.1-10.2-48.3-25.9-30.4-15.9-42.2-53.5-26.3-84 10.7-20.5 32-33.4 55.1-33.4 6.2 0 12.4 1 18.4 2.9v-58c-73.6 1.8-133 62.2-133 136.3 0 34.5 13.1 67.6 36.6 92.8 22.9 16.1 50.1 24.7 78.1 24.7 75.1-.1 136.3-61.3 136.3-136.4zM470.4 119.7h231.4l-21.2 66.2h-60v244.7h-74.8V185.9l-75.2.1-.2-66.3zM1080.7 119.7h236.7l-21.2 66.2H1231v244.7h-75V185.9l-75.2.1-.1-66.3zM715.9 218.6H790v212h-73.7zM819.5 118.9h74.1v144.8l73.4-72h88.4l-92.9 90 104 148.9h-81.6l-69.4-103.2-22 21.3v81.9h-74.1l.1-311.7zM1604.5 118.9h74.1v144.8l73.4-72h88.4l-92.9 90 104 148.9h-81.6l-69.4-103.2-22 21.3v81.9h-74.1l.1-311.7z"/><circle cx="752.9" cy="157.1" r="37.3" transform="rotate(-67.5 752.916 157.054)"/><path d="M1307.9 303.7c0-66.2 51-121.3 117-126.5-3.3-.2-7.8-.4-11.1-.4-70.1 0-126.9 56.9-126.9 126.9 0 70.1 56.8 126.8 126.9 126.9 3.3 0 7.8-.2 11.1-.4-66-5.2-116.9-60.3-117-126.5z" class="st0"/><path d="M1453.7 176.8c-3.4 0-7.9.2-11.2.4 69.8 5.5 122 66.6 116.5 136.4-4.9 62.2-54.3 111.6-116.5 116.5 3.3.3 7.8.4 11.2.4 70.1 0 126.9-56.9 126.9-126.9s-56.8-126.8-126.9-126.8z" class="st1"/><path d="M1433.7 365.4c-34.1 0-61.7-27.6-61.7-61.7s27.6-61.7 61.7-61.7 61.7 27.6 61.7 61.7-27.6 61.7-61.7 61.7zm0-188.6c-70.1 0-126.9 56.8-126.9 126.9s56.8 126.9 126.9 126.9 126.9-56.8 126.9-126.9c0-70.1-56.9-126.9-126.9-126.9z"/></g></svg>