<?xml version="1.0" encoding="utf-8"?>
<!-- Generator: Adobe Illustrator 19.2.1, SVG Export Plug-In . SVG Version: 6.00 Build 0)  -->
<svg version="1.1" id="layer" xmlns="http://www.w3.org/2000/svg" xmlns:xlink="http://www.w3.org/1999/xlink" x="0px" y="0px"
	 viewBox="0 0 652 652" style="enable-background:new 0 0 652 652;" xml:space="preserve">
<style type="text/css">
	.st0{fill:#E44332;}
	.st1{fill:#FFFFFF;}
</style>
<path class="st0" d="M285.5,341.5c0,2.4,0.4,4.8,1.2,7.1c1.6,4.5,5,8.2,9.3,10.2c2.2,1,4.8,1.6,7.6,1.6c2.8,0,5.4-0.5,7.6-1.6
	c2.2-1,4.1-2.4,5.7-4.2c1.6-1.7,2.8-3.8,3.6-6.1c0.8-2.3,1.2-4.6,1.2-7.1c0-2.4-0.4-4.8-1.2-7.1c-0.8-2.2-2-4.3-3.6-6
	c-1.6-1.8-3.6-3.2-5.7-4.2c-2.4-1.1-5-1.6-7.6-1.6c-2.8,0-5.4,0.5-7.6,1.6c-4.4,2-7.7,5.7-9.4,10.2
	C285.9,336.7,285.5,339.1,285.5,341.5 M270.3,342.3c0-5,0.9-9.6,2.7-13.7c1.7-4,4.1-7.5,7.2-10.5c3.1-3,6.8-5.2,10.8-6.7
	c4.3-1.6,8.8-2.4,13.3-2.4c4.7,0,9.1,0.8,13.3,2.4c4,1.5,7.7,3.8,10.8,6.7c3.1,3,5.6,6.6,7.2,10.5c1.8,4.1,2.7,8.7,2.7,13.7
	c0,5-0.9,9.6-2.7,13.7c-1.7,4-4.2,7.5-7.2,10.5c-3.1,3-6.8,5.2-10.8,6.7c-4.3,1.6-8.8,2.4-13.3,2.4c-4.6,0-9.1-0.8-13.3-2.4
	c-4-1.5-7.7-3.8-10.8-6.7c-3.1-3-5.6-6.5-7.2-10.5C271.2,351.9,270.3,347.3,270.3,342.3 M361.3,341.5c0,2.4,0.4,4.8,1.2,7.1
	c1.6,4.5,5,8.2,9.3,10.2c2.2,1,4.8,1.6,7.6,1.6c2.8,0,5.4-0.5,7.6-1.6c2.2-1,4.1-2.4,5.7-4.2c1.6-1.7,2.8-3.8,3.6-6.1
	c0.8-2.3,1.2-4.6,1.2-7.1c0-2.4-0.4-4.8-1.2-7.1c-0.8-2.2-2-4.3-3.6-6c-1.6-1.8-3.6-3.2-5.7-4.2c-2.4-1.1-5-1.6-7.6-1.6
	c-2.8,0-5.4,0.5-7.6,1.6c-4.4,2-7.7,5.7-9.3,10.2C361.7,336.7,361.3,339.1,361.3,341.5z M399.3,363.1H399c-2.3,3.8-5.3,6.6-9.2,8.3
	c-3.9,1.7-8.2,2.6-12.5,2.6c-4.9,0-9.3-0.8-13.1-2.5c-3.7-1.6-7.1-4-9.8-7c-2.8-3-4.9-6.5-6.2-10.4c-1.4-4.1-2.1-8.5-2.1-12.9
	c0-4.6,0.7-8.9,2.2-12.9c1.4-3.8,3.5-7.4,6.2-10.4c2.7-3,6-5.3,9.7-7c3.9-1.7,8.1-2.6,12.4-2.5c3,0,5.6,0.3,7.9,0.9
	c2.3,0.6,4.3,1.4,6.1,2.4c1.8,1,3.2,2,4.5,3.1c1.2,1.1,2.2,2.1,3,3.2h0.4v-34.4c0-1.6,1.2-3.4,3.4-3.4h8.9c2.1,0,3.4,1.7,3.4,3.4
	v85.5c0,2.2-1.9,3.4-3.4,3.4h-8.1c-1.9,0-3.4-1.5-3.5-3.4V363.1z M440.1,341.5c0,2.4,0.4,4.8,1.2,7.1c1.6,4.5,5,8.2,9.4,10.2
	c2.2,1,4.8,1.6,7.6,1.6s5.4-0.5,7.6-1.6c2.2-1,4.1-2.4,5.7-4.2c1.6-1.7,2.8-3.8,3.6-6.1c0.8-2.3,1.2-4.6,1.2-7.1
	c0-2.4-0.4-4.8-1.2-7.1c-0.8-2.2-2-4.3-3.6-6c-1.6-1.8-3.6-3.2-5.7-4.2c-2.4-1.1-5-1.6-7.6-1.6c-2.8,0-5.4,0.5-7.6,1.6
	c-4.4,2-7.7,5.7-9.4,10.2C440.5,336.7,440.1,339.1,440.1,341.5 M424.9,342.3c0-5,0.9-9.6,2.7-13.7c1.7-4,4.1-7.5,7.2-10.5
	c3.1-3,6.8-5.2,10.8-6.7c4.3-1.6,8.8-2.4,13.3-2.4c4.7,0,9.1,0.8,13.3,2.4c4,1.5,7.7,3.8,10.8,6.7c3.1,3,5.6,6.6,7.2,10.5
	c1.8,4.1,2.7,8.7,2.7,13.7c0,5-0.9,9.6-2.7,13.7c-1.7,4-4.2,7.5-7.2,10.5c-3.1,3-6.8,5.2-10.8,6.7c-4.3,1.6-8.8,2.4-13.3,2.4
	c-4.6,0-9.1-0.8-13.3-2.4c-4-1.5-7.7-3.8-10.8-6.7c-3.1-3-5.6-6.5-7.2-10.5C425.8,351.9,424.9,347.3,424.9,342.3 M500.7,287.8
	c0-2.4,0.9-4.6,2.7-6.4c1.8-1.8,4.2-2.7,7-2.7c2.8,0,5.2,0.9,7.1,2.6c1.9,1.7,2.9,3.9,2.9,6.5c0,2.6-1,4.8-2.9,6.5
	c-1.9,1.7-4.3,2.6-7.1,2.6c-2.8,0-5.1-0.9-7-2.7C501.6,292.3,500.7,290.2,500.7,287.8 M565.7,328.1c-1.6,0-2.7-1.2-2.9-1.7
	c-1.3-3.5-5.4-4.8-8.8-4.8c-5.3,0-9.4,2.5-9.4,6.7c0,4.1,4,5,6.5,5.7c2.7,0.8,7.9,2,10.7,2.7c2.8,0.7,5.6,1.7,8.1,3
	c8.3,4.4,9.5,11.2,9.5,15.4c0,15.3-14.9,20.3-25.2,20.3c-8,0-23-1.2-26.2-16.7c-0.3-1.5,1-3.8,3.4-3.8h8.6c1.7,0,2.8,1.3,3.2,2.2
	c1.1,3.1,4.6,5.4,10.6,5.4c6.4,0,10.1-2.6,10.1-6c0-2.2-1.2-4.2-2.8-5.3c-4.8-3.3-16.8-3.7-23.2-7.2c-2.5-1.3-8.7-4.4-8.7-14.9
	c0-14.4,12.9-20.5,24.2-20.5c16.7,0,22.8,10.7,23.5,14.7c0.4,2.2-0.8,4.5-3.3,4.5H565.7z M581,319.5V313c0-1.6,1.2-3.4,3.4-3.4h8.5
	v-16c0-1.7,1.2-2.7,2.1-3.1l9.1-3.9c2.7-1.1,4.8,1.1,4.8,3.2v19.9H623c2.2,0,3.5,1.9,3.5,3.4v6.5c0,1.9-1.7,3.4-3.5,3.4h-14.1v27.5
	c0,3.1-0.1,5.6,1.1,7.4c1.1,1.7,2.8,2.3,6,2.3c0.9,0,1.8-0.2,2.5-0.4c2.1-0.7,3.6,0.5,4.2,1.5c1,2,2.2,4.2,3.1,5.7
	c0.9,1.7,0.2,3.8-1.5,4.7c0,0,0,0,0,0c-2.7,1.3-6.4,2.3-11.6,2.3c-4.3,0-6.7-0.5-9.3-1.4c-2.6-1-5-2.6-6.8-4.7
	c-1.6-1.9-2.3-4.4-2.9-7.2c-0.6-2.8-0.7-6.2-0.7-9.9v-27.9h-8.5C582.2,322.9,581,321,581,319.5 M221.8,319.5V313
	c0-1.6,1.2-3.4,3.4-3.4h9.5v-16c0-1.7,1.1-2.7,2-3.1l8.8-3.9c2.6-1.1,4.7,1.1,4.7,3.2v19.9h13.7c2.1,0,3.4,1.9,3.4,3.4v6.5
	c0,1.9-1.5,3.4-3.4,3.4h-13.7v27.5c0,3.1-0.1,5.6,1.1,7.4c1.1,1.7,2.7,2.3,5.9,2.3c0.9,0,1.7-0.2,2.4-0.4c2-0.7,3.5,0.5,4.1,1.5
	c1,2,2.2,4.2,3,5.7c0.9,1.7,0.2,3.9-1.5,4.7c-2.6,1.3-6.3,2.3-11.3,2.3c-4.1,0-6.5-0.5-9.1-1.4c-2.6-1-4.9-2.6-6.6-4.7
	c-1.5-1.9-2.3-4.4-2.8-7.2c-0.6-2.8-0.7-6.2-0.7-9.9v-27.9h-9.4C223.1,322.9,221.8,321,221.8,319.5 M507,372.5h8.6
	c1.8,0,3.3-1.5,3.3-3.4v-55.3c0-1.8-1.5-3.3-3.3-3.4H507c-1.8,0-3.3,1.5-3.3,3.4v55.3C503.7,371,505.2,372.5,507,372.5"/>
<path class="st0" d="M45.4,250.3c-10.4,0-18.9,8.5-18.9,18.9v113.5c0,10.4,8.5,18.9,18.9,18.9H159c10.4,0,18.9-8.5,18.9-18.9V269.3
	c0-10.4-8.5-18.9-18.9-18.9H45.4z"/>
<path class="st1" d="M58.6,322l60.8-35.4c1.3-0.8,1.4-3.1-0.1-3.9c-1.5-0.8-4.2-2.4-5.3-3c-1.5-0.8-3.2-0.8-4.7,0.1
	c-0.7,0.4-49.3,28.7-51,29.6c-1.9,1.1-4.4,1.1-6.3,0l-25.7-15.1v12.8c6.2,3.7,21.8,12.8,25.6,15C54.2,323.3,56.4,323.3,58.6,322
	 M58.6,346.2l60.8-35.4c1.3-0.8,1.4-3.1-0.1-3.9c-1.5-0.8-4.2-2.4-5.3-3c-1.5-0.8-3.2-0.8-4.7,0.1c-0.7,0.4-49.3,28.7-51,29.6
	c-1.9,1.1-4.4,1.1-6.3,0l-25.7-15.1v12.8c6.2,3.7,21.8,12.8,25.6,15C54.2,347.5,56.4,347.5,58.6,346.2 M58.6,372l60.8-35.4
	c1.3-0.8,1.4-3.1-0.1-3.9c-1.5-0.8-4.2-2.4-5.3-3c-1.5-0.8-3.2-0.8-4.7,0.1c-0.7,0.4-49.3,28.7-51,29.6c-1.9,1.1-4.4,1.1-6.3,0
	l-25.7-15.1V357c6.2,3.7,21.8,12.8,25.6,15C54.2,373.2,56.4,373.2,58.6,372"/>
</svg>
