<?xml version="1.0" encoding="UTF-8" standalone="no" ?>
<!DOCTYPE svg PUBLIC "-//W3C//DTD SVG 1.1//EN" "http://www.w3.org/Graphics/SVG/1.1/DTD/svg11.dtd">
<svg xmlns="http://www.w3.org/2000/svg" xmlns:xlink="http://www.w3.org/1999/xlink" version="1.1" width="152" height="152" viewBox="0 0 152 152" xml:space="preserve">
<desc>Created with Fabric.js 3.6.6</desc>
<defs>
</defs>
<g transform="matrix(1 0 0 1 76.4 76.15)" id="layer"  >
<path style="stroke: none; stroke-width: 1; stroke-dasharray: none; stroke-linecap: butt; stroke-dashoffset: 0; stroke-linejoin: miter; stroke-miterlimit: 4; fill: rgb(228,67,50); fill-rule: nonzero; opacity: 1;"  transform=" translate(-102.2, -325.95)" d="M 45.4 250.3 c -10.4 0 -18.9 8.5 -18.9 18.9 v 113.5 c 0 10.4 8.5 18.9 18.9 18.9 H 159 c 10.4 0 18.9 -8.5 18.9 -18.9 V 269.3 c 0 -10.4 -8.5 -18.9 -18.9 -18.9 H 45.4 z" stroke-linecap="round" />
</g>
<g transform="matrix(1 0 0 1 47.55 76.21)" id="layer"  >
<path style="stroke: none; stroke-width: 1; stroke-dasharray: none; stroke-linecap: butt; stroke-dashoffset: 0; stroke-linejoin: miter; stroke-miterlimit: 4; fill: rgb(255,255,255); fill-rule: nonzero; opacity: 1;"  transform=" translate(-73.35, -326.01)" d="M 58.6 322 l 60.8 -35.4 c 1.3 -0.8 1.4 -3.1 -0.1 -3.9 c -1.5 -0.8 -4.2 -2.4 -5.3 -3 c -1.5 -0.8 -3.2 -0.8 -4.7 0.1 c -0.7 0.4 -49.3 28.7 -51 29.6 c -1.9 1.1 -4.4 1.1 -6.3 0 l -25.7 -15.1 v 12.8 c 6.2 3.7 21.8 12.8 25.6 15 C 54.2 323.3 56.4 323.3 58.6 322 M 58.6 346.2 l 60.8 -35.4 c 1.3 -0.8 1.4 -3.1 -0.1 -3.9 c -1.5 -0.8 -4.2 -2.4 -5.3 -3 c -1.5 -0.8 -3.2 -0.8 -4.7 0.1 c -0.7 0.4 -49.3 28.7 -51 29.6 c -1.9 1.1 -4.4 1.1 -6.3 0 l -25.7 -15.1 v 12.8 c 6.2 3.7 21.8 12.8 25.6 15 C 54.2 347.5 56.4 347.5 58.6 346.2 M 58.6 372 l 60.8 -35.4 c 1.3 -0.8 1.4 -3.1 -0.1 -3.9 c -1.5 -0.8 -4.2 -2.4 -5.3 -3 c -1.5 -0.8 -3.2 -0.8 -4.7 0.1 c -0.7 0.4 -49.3 28.7 -51 29.6 c -1.9 1.1 -4.4 1.1 -6.3 0 l -25.7 -15.1 V 357 c 6.2 3.7 21.8 12.8 25.6 15 C 54.2 373.2 56.4 373.2 58.6 372" stroke-linecap="round" />
</g>
</svg>