<svg xmlns="http://www.w3.org/2000/svg" viewBox="0 0 2159 500"><path fill="#13171B" d="M615.473 158.84c5.214 4.374 9.075 9.323 12.898 14.937 1.439 2.318 1.439 2.318 3.629 3.223l.148-2.938c.4-7.362.951-14.68 1.852-22l.251-2.095c.623-4.841.623-4.841 1.749-5.967 2.219-.088 4.44-.107 6.66-.098l2.014.005c2.13.005 4.259.018 6.389.03A3970.043 3970.043 0 0 1 666 144a82745 82745 0 0 1 .103 79.202c.01 12.26.024 24.52.047 36.78.02 10.692.033 21.385.037 32.079.003 5.655.009 11.31.023 16.965.014 5.338.018 10.675.015 16.013 0 1.944.005 3.89.012 5.834.11 29.078-2.49 59.37-23.863 81.315-17.988 17.689-44.26 24.8-68.984 25.05l-2.427.03c-33.444.324-33.444.324-47.964-4.268l-3.613-1.133c-19.789-7.022-36.24-18.861-46.2-37.617C468.906 385.208 466 376.062 466 366h35l5 13c9.123 14.307 22.304 21.295 38.469 25.254 4.537.959 8.899 1.58 13.531 1.746l2.973.121c19.026.393 38.732-3.004 53.27-16.148 11.47-11.97 15.922-28.186 15.855-44.438l-.005-2.055c-.005-2.14-.018-4.278-.03-6.418-.006-1.461-.01-2.923-.014-4.384-.011-3.56-.028-7.119-.049-10.678l-1.795 2.237-2.396 2.962-2.358 2.925C609.626 346.348 590.89 353.948 570 356c-25.036 1.745-53.63-2.994-73.285-19.71-3.005-2.666-5.858-5.468-8.715-8.29l-1.984-1.766c-17.071-15.504-24.97-41.86-26.239-64.145-.14-4.217-.164-8.432-.152-12.651l.002-2.26c.04-12.089.853-23.54 4.373-35.178l.633-2.126c4.991-16.11 13.6-28.961 25.367-40.874l1.762-1.98c29.833-32.84 89.826-33.393 123.71-8.18Zm-99.262 31.765c-17.097 17.898-21.903 39.863-21.461 63.903.412 11.893 2.987 22.763 8.25 33.492l1.152 2.387c8.107 15.64 20.942 26.21 37.536 31.87 17.938 5.348 37.3 4.013 54.125-4.32 17.137-10.038 28.25-25.977 33.335-45.039 5.407-24.75 2.876-50.486-10.96-72.148-9.673-13.8-23.455-23.984-40.204-27.128-22.91-3.879-44.403.756-61.773 16.983ZM1908.748 141.76c2.153-.01 4.305-.04 6.457-.072 23.198-.18 44.74 5.894 62.045 21.937 17.273 18.107 19.04 41.261 19.024 65.012 0 3.451.012 6.902.03 10.354.045 9.803.07 19.606.077 29.41.005 6.019.03 12.038.065 18.057.01 2.286.012 4.573.007 6.86-.007 3.19.01 6.379.033 9.568l-.025 2.848c.07 5.533.643 9.007 4.539 13.266 6.277 2.805 6.277 2.805 19 3v31l-14.688.25-4.545.11c-9.733.08-20.31-.541-28.33-6.735-6.035-6.5-8.088-13.202-10.437-21.625l-1.547 1.871c-15.02 17.496-34.586 27.16-57.453 29.129-22.73 1.136-48.9-1.392-66.798-16.939-13.133-11.959-18.983-24.608-20.386-42.39-.54-17.161 4.818-34.223 16.446-47.023 19.35-18.35 47.052-21.017 72.39-20.843l4.913.008c4.256.008 8.512.027 12.769.05 4.364.02 8.729.03 13.094.04 8.524.02 17.048.055 25.572.097-.12-3.7-.256-7.399-.395-11.098l-.101-3.16c-.502-12.857-4.28-22.059-13.692-30.93-12.222-9.902-29.04-11.7-44.198-10.418-14.008 1.487-27.172 6.139-36.712 16.993-4.247 5.744-6.118 10.654-8.902 17.613h-34c1.933-19.333 9.196-35.258 24.305-47.934 18.273-13.45 39.102-18.246 61.443-18.306Zm-50.81 129.115c-5.628 7.16-7.817 16.1-6.938 25.125 2.204 10.486 7.214 17.83 16 24 17.977 8.73 39.41 8.138 58.129 1.969 14.487-5.477 25.403-15.31 31.84-29.446L1958 290l.969-2.336c2.213-6.495 2.176-12.772 2.105-19.55l-.016-2.951c-.014-2.388-.033-4.775-.058-7.163-8.98-.07-17.962-.123-26.943-.155a2778.77 2778.77 0 0 1-12.515-.071c-4.04-.033-8.08-.05-12.119-.059a639.1 639.1 0 0 1-4.582-.032c-16.223-.167-35.044.616-46.904 13.192ZM857 153l2.754 1.398c21.417 11.895 34.879 31.84 41.727 54.96 2.453 8.725 3.66 17.116 4.207 26.142l.147 2.337c.309 6.27-.253 11.758-.835 18.163H743c3.687 26.282 3.687 26.282 17 48l1.867 2.203c9.89 10.752 24.546 16.986 39.066 17.922 18.305.685 35.11-2.134 49.505-14.438 8.2-7.958 12.076-15.922 16.562-26.687h35c-3.376 16.878-9.6 31.038-21 44l-1.984 2.273c-15.854 16.986-38.282 25.709-61.258 26.837-31.775.824-59.425-6.888-82.946-28.86-22.392-23.573-28.545-53.96-28.058-85.54.837-29.547 11.394-55.71 32.7-76.401C770.653 137.027 820.428 134.323 857 153Zm-98.504 40.82c-8.45 10.665-11.25 19.699-13.496 33.18h125c-3.426-18.271-7.937-31.554-22.629-43.059-28.015-18.962-66.117-15.755-88.875 9.88ZM1476 159c4.29 3.373 8.17 7.119 12 11l2.02 2.023c17.564 18.794 24.196 45.31 24.105 70.352l.012 3.309-.004 3.152-.004 2.86C1514 254 1514 254 1513 256h-161c2.372 21.35 6.097 40.73 23.344 54.93 15.372 11.334 33.984 15.447 52.824 12.76 15.18-2.745 28.878-9.13 38.125-21.842 4.057-6.333 6.266-11.524 8.707-18.848h35c-.704 6.335-1.39 11.133-3.625 16.875l-.805 2.093c-8.77 21.933-26.323 37.726-47.507 47.344-24.736 10.149-55.504 9.26-80.47.196-10.553-4.428-20.081-9.775-28.593-17.508l-2.703-2.422c-18.293-17.271-29.267-42.105-30.474-67.268-.56-36.098 3.723-67.598 29.654-94.92 33.748-31.879 92.742-35.217 130.523-8.39Zm-109 35c-7.319 9.591-13 20.764-13 33h124c-1.657-18.226-8.095-31.104-22-43-28.006-20.326-66.22-14.785-89 10ZM1090 67h34l1 108 7-9c12.857-14.07 30.177-22.973 49.259-24.211 26.024-1.005 50.682 2.357 70.928 20.274 16.24 15.137 23.115 37.286 24.813 58.937.135 4.38.127 8.757.114 13.139v3.905c0 3.508-.006 7.016-.013 10.523-.006 3.676-.006 7.351-.008 11.027-.003 6.948-.01 13.896-.021 20.845-.011 7.915-.017 15.83-.022 23.746-.01 16.272-.028 32.543-.05 48.815h-34l-.06-10.762a26637.34 26637.34 0 0 0-.228-35.347c-.05-7.138-.096-14.276-.134-21.414-.033-6.23-.073-12.459-.12-18.688a3150.44 3150.44 0 0 1-.061-9.874c-.033-37.39-.033-37.39-17.46-69.665-10.286-9.53-24.78-13.12-38.437-13.625-15.466.594-30.52 5.328-42 16-19.195 21.13-19.789 47.887-19.914 74.898a8637.209 8637.209 0 0 0-.175 25.704c-.039 6.852-.088 13.703-.138 20.555-.103 14.072-.191 28.145-.273 42.218h-34V67ZM389.688 164.313C410.145 181.708 421.704 205.577 425 232c.208 4.724.228 9.447.24 14.176.01 2.225.04 4.449.072 6.674.1 13.349-1.618 26.175-6.437 38.713l-.91 2.394C412.7 307.292 405.15 317.966 395 328l-2.395 2.426c-19.696 18.913-46.763 26.189-73.529 25.926-25.28-.757-49.016-8.343-68.076-25.352-.82-.726-1.64-1.451-2.484-2.2-18.422-17.305-29.596-43.574-30.639-68.76-.745-30.648 3.212-58.348 23.123-83.04l2.05-2.55c35.832-42.12 104.725-43.056 146.637-10.137Zm-114.825 25.699c-16.193 17.28-22.446 39.397-22.078 62.629.436 12.025 3.211 23.42 8.215 34.359l1.27 2.824C269.77 304.976 283.173 316.3 299 322c18.675 5.657 37.925 4.213 55.3-4.674 6.046-3.29 10.94-7.354 15.7-12.326l1.879-1.785c14.556-14.817 18.397-37.249 18.44-57.091-.22-18.014-5.1-34.84-16.319-49.124l-1.734-2.305c-10.268-12.68-26.11-20.14-42.079-22.132-20.062-2.038-40.37 3.485-55.324 17.449ZM101 86h34v58h53v32h-53c.063 16.664.138 33.328.236 49.992.045 7.738.084 15.476.11 23.214.023 6.748.057 13.495.103 20.242.024 3.57.042 7.14.049 10.71.007 3.993.037 7.986.07 11.978l-.005 3.558c.086 7.515.551 14.675 5.375 20.743 6.507 4.93 13.752 4.728 21.617 4.88l2.732.062c2.862.065 5.725.125 8.588.183l5.844.131c4.76.108 9.52.207 14.281.307v31c-7.256.092-14.51.172-21.765.22-2.461.02-4.923.047-7.384.082-37.527.518-37.527.518-51.835-12.044-10.755-11.077-12.327-26.282-12.243-40.948v-4.082c-.002-3.67.01-7.338.024-11.007.013-3.843.014-7.687.016-11.53.006-7.268.023-14.535.043-21.802.022-8.278.033-16.556.043-24.834.021-17.019.058-34.037.101-51.055H63v-32h38V86ZM961 86h34v58h53v32h-53c.086 16.403.18 32.807.288 49.21.05 7.617.096 15.234.134 22.85.033 6.643.073 13.284.12 19.926.026 3.514.048 7.028.061 10.543.016 3.93.046 7.86.078 11.791l.007 3.5c.053 12.362.053 12.362 5.312 23.18 7.132 3.698 13.604 4.166 21.457 4.316l2.736.063c2.873.066 5.746.125 8.62.183l5.857.131c4.777.108 9.553.207 14.33.307v31c-7.256.092-14.51.172-21.765.22-2.461.02-4.923.047-7.384.082-37.856.523-37.856.523-51.613-11.892-11.057-11.837-12.715-27.99-12.579-43.484V293.9c-.002-3.594.016-7.188.037-10.782.019-3.774.02-7.548.024-11.323.01-7.125.034-14.25.064-21.375.034-8.121.05-16.242.065-24.364.031-16.685.086-33.37.151-50.056h-38v-32h38V86ZM1555 144h31l4 28c4.656-4.446 4.656-4.446 6.96-7.531 10.525-12.742 26.635-18.625 42.58-20.286 4.34-.323 8.673-.287 13.023-.245L1662 144v34c-12.75.313-12.75.313-16.69.388-13.6.422-26.567 3.12-36.935 12.424-13.875 14.834-17.476 36.261-17.58 55.815l-.03 3.49a6415.62 6415.62 0 0 0-.081 11.38l-.063 7.906c-.05 6.219-.095 12.437-.138 18.656-.05 7.084-.105 14.167-.16 21.25-.114 14.564-.22 29.128-.323 43.691h-35V144ZM2057 144h34v209h-34V144Z"/><path fill="#0262F2" d="M1737 291c8.363 4.823 13.282 11.64 15.938 20.875 2.078 9.893.687 17.515-4.141 26.39-5.07 7.715-12.428 12.344-21.39 14.301-8.447 1.153-16.363-.36-23.844-4.441-6.967-5.777-12.966-11.977-14.563-21.125-.873-11.015.163-19.604 7.25-28.313 10.431-11.056 26.871-14.774 40.75-7.687Z"/><path fill="#13171B" d="M2085.5 65.5c5.049 3.03 8.656 7.969 10.5 13.5.146 2.268.221 4.54.25 6.813l.078 3.644c-.59 6.378-3.514 10.477-8.328 14.543-6.045 4.228-11.756 4.837-19 4-6.188-1.114-9.718-4.1-13.59-8.969-3.997-5.757-4.296-12.224-3.41-19.031 2.26-7.125 5.563-11.304 12-15 6.491-2.164 15.167-2.291 21.5.5Z"/></svg>