<svg width="238" height="54" viewBox="0 0 238 54" xmlns="http://www.w3.org/2000/svg"><g fill="none" fill-rule="evenodd"><path d="M52.518 20.13c.656 3.56.908 12.505.908 21.278C53.426 49.028 40.005 54 26.713 54 13.414 54 0 49.027 0 41.408c0-8.773.245-17.719.908-21.277.613-3.323 14.678-5.778 23.885-6.094V7.662A3.999 3.999 0 0122.419 4C22.419 1.792 24.192 0 26.376 0c2.189 0 3.962 1.792 3.962 4 0 1.642-.981 3.05-2.38 3.662v6.356c9.176.217 23.928 2.709 24.56 6.113zM33.552 50.287c.767-.415 1.048-1.388.638-2.163a1.571 1.571 0 00-2.147-.645c-.024.006-2.116 1.103-5.349 1.103-3.202 0-5.256-1.078-5.311-1.103a1.57 1.57 0 00-2.141.633 1.61 1.61 0 00.625 2.175c.11.062 2.742 1.494 6.827 1.494 4.08 0 6.742-1.432 6.858-1.494zM5.772 37.1c0 4.973 3.987 9.002 8.9 9.002 4.92 0 8.907-4.03 8.907-9.002 0-4.971-3.987-9.002-8.907-9.002-4.913 0-8.9 4.03-8.9 9.002zm32.975 9.002c4.92 0 8.907-4.03 8.907-9.002 0-4.971-3.987-9.002-8.907-9.002s-8.906 4.03-8.906 9.002c0 4.973 3.987 9.002 8.906 9.002z" fill="#FFFFFE" fill-rule="nonzero"/><path d="M16.653 41.099a1.994 1.994 0 01-1.98-1.997c0-1.104.89-2.003 1.98-2.003 1.093 0 1.982.899 1.982 2.003a1.993 1.993 0 01-1.982 1.997zm-1.98-10c-3.27 0-5.932 2.69-5.932 6 0 3.311 2.662 6.002 5.931 6.002 3.275 0 5.938-2.691 5.938-6.002 0-3.31-2.663-6-5.938-6zM40.724 41.099c-1.09 0-1.98-.9-1.98-1.997 0-1.104.89-2.003 1.98-2.003 1.092 0 1.98.899 1.98 2.003a1.993 1.993 0 01-1.98 1.997zm-1.98-10c-3.268 0-5.929 2.69-5.929 6 0 3.311 2.66 6.002 5.929 6.002 3.274 0 5.936-2.691 5.936-6.002 0-3.31-2.662-6-5.936-6z" fill="#FFFFFE" fill-rule="nonzero"/><g transform="translate(66.343 18.514)" fill="#FFF"><path fill-rule="nonzero" d="M18.037 4.755h-7.215v18.473H7.214V4.755H0V1.35h18.037v3.404M28.558 9.615h-4.81c-.811 0-1.203.487-1.203 1.46v12.153h-3.607V11.074c0-3.313 1.533-4.862 4.81-4.862h4.81v3.403M42.685 15.085l-7.215 1.823c-1.082.272-1.202.639-1.202 1.458 0 .973.39 1.459 1.202 1.459h6.013c.81 0 1.2-.486 1.2-1.459v-3.28h.002zm3.609-4.01v7.29c0 3.31-1.533 4.86-4.81 4.86h-6.013c-3.276 0-4.81-1.55-4.81-4.86 0-1.46.482-2.461 1.534-3.07 1.082-.638 1.714-.85 3.276-1.244l7.215-1.823v-1.153c0-.972-.392-1.46-1.2-1.46h-6.014c-.81 0-1.202.488-1.202 1.46v1.215h-3.607v-1.215c0-3.313 1.533-4.862 4.809-4.862h6.013c3.276 0 4.809 1.548 4.809 4.861zM61.775 11.074c0-.972-.391-1.46-1.2-1.46H54.56c-.813 0-1.204.488-1.204 1.46v12.154h-3.606V11.074c0-3.313 1.533-4.862 4.81-4.862h6.013c3.276 0 4.808 1.549 4.808 4.862v12.154h-3.607V11.074M79.511 23.228h-6.015c-3.276 0-4.808-1.55-4.808-4.862v-1.214h3.609v1.214c0 .973.39 1.459 1.2 1.459h6.014c.812 0 1.2-.486 1.2-1.459 0-.698 0-1.034-1.2-1.458l-6.015-1.52c-1.563-.396-2.193-.606-3.276-1.215-1.053-.638-1.532-1.64-1.532-3.099 0-3.313 1.532-4.862 4.808-4.862h6.015c3.276 0 4.807 1.549 4.807 4.862v1.215h-3.605v-1.215c0-.972-.391-1.46-1.2-1.46h-6.016c-.811 0-1.2.488-1.2 1.46 0 .696 0 1.033 1.2 1.459l6.015 1.518c1.563.398 2.193.608 3.248 1.247 1.081.606 1.561 1.61 1.561 3.068 0 3.312-1.533 4.862-4.81 4.862M91.836 19.824h3.005v3.401h-3.005c-3.008 0-4.209-1.214-4.209-4.254V1.351h3.608v17.621c0 .609.09.852.601.852M109.12 11.074c0-.972-.392-1.46-1.202-1.46h-6.012c-.815 0-1.202.488-1.202 1.46v7.291c0 .97.39 1.459 1.202 1.459h6.012c.812 0 1.2-.488 1.2-1.459l.002-7.29zm3.608 0v7.291c0 3.31-1.475 4.86-4.81 4.86h-6.012c-3.338 0-4.81-1.55-4.81-4.86v-7.29c0-3.314 1.474-4.863 4.81-4.863h6.012c3.337 0 4.81 1.549 4.81 4.862zM127.908 15.085l-7.214 1.823c-1.084.272-1.203.639-1.203 1.458 0 .973.391 1.459 1.203 1.459h6.012c.812 0 1.202-.486 1.202-1.459v-3.28zm3.607-4.01v7.29c0 3.31-1.53 4.86-4.807 4.86h-6.013c-3.277 0-4.81-1.55-4.81-4.86 0-1.46.481-2.461 1.533-3.07 1.081-.638 1.712-.85 3.277-1.244l7.215-1.823v-1.153c0-.972-.393-1.46-1.202-1.46h-6.013c-.814 0-1.203.488-1.203 1.46v1.215h-3.607v-1.215c0-3.313 1.533-4.862 4.81-4.862h6.013c3.275 0 4.807 1.548 4.807 4.861zM146.846 18.366v-8.75h-7.214c-.814 0-1.202.486-1.202 1.458v7.291c0 .973.39 1.459 1.202 1.459h6.012c.811 0 1.202-.485 1.202-1.458zm3.607-17.015v17.015c0 3.312-1.473 4.862-4.809 4.862h-6.012c-3.339 0-4.81-1.55-4.81-4.862v-7.29c0-3.313 1.473-4.862 4.81-4.862h7.214V1.352h3.607zM157.667 6.36v16.865h-3.606V6.36h3.606z"/><circle cx="155.733" cy="2.305" r="2.305"/><path d="M170.895 19.824v3.401h-5.41c-3.005 0-4.207-1.214-4.207-4.254V1.351h3.606v4.861h5.41v3.403h-5.41v9.355c0 .609.092.853.6.853h5.411" fill-rule="nonzero"/></g></g></svg>