<svg xmlns="http://www.w3.org/2000/svg" width="128" height="128" fill="none" viewBox="0 0 128 128"><path fill="#F5F5EB" d="M57.833 1.195A1.381 1.381 0 0 1 59.204 0h9.592c.685 0 1.27.51 1.363 1.195l5.585 40.948a1.382 1.382 0 0 1-1.594 1.549l-9.923-1.654a1.387 1.387 0 0 0-.455 0l-9.922 1.654a1.379 1.379 0 0 1-1.595-1.55l5.578-40.947Zm68.896 72.911A1.385 1.385 0 0 0 128 72.729v-9.471c0-.713-.547-1.309-1.256-1.376l-62.617-5.87a1.333 1.333 0 0 0-.254 0l-62.617 5.87A1.38 1.38 0 0 0 0 63.258v9.471c0 .718.555 1.317 1.263 1.377l46.232 3.852c.323.027.631.169.862.4l3.313 3.31c.216.215.347.496.393.798l5.778 44.331A1.386 1.386 0 0 0 59.212 128h9.576c.693 0 1.279-.515 1.364-1.203l5.785-44.331c.039-.302.177-.583.393-.798l3.313-3.31c.23-.231.531-.373.862-.4l46.224-3.852Z"/></svg>