<svg xmlns="http://www.w3.org/2000/svg" width="110" height="27" fill="none" viewBox="0 0 110 27"><g fill="#14140F" clip-path="url(#a)"><path d="M37.416 11.144a.12.12 0 0 0-.116.088l-2.454 8.869h-.643l-2.478-8.87a.12.12 0 0 0-.116-.087h-2.464a.12.12 0 0 0-.115.154l3.217 10.896a.12.12 0 0 0 .115.086h4.3a.12.12 0 0 0 .115-.086l3.218-10.896a.12.12 0 0 0-.115-.154h-2.464Zm8.296-.384h-.002c-3.383 0-5.67 2.42-5.67 5.963 0 3.544 2.36 5.916 5.767 5.916 2.639 0 4.82-1.656 5.265-3.908a.118.118 0 0 0-.117-.14H48.61a.124.124 0 0 0-.115.082c-.422 1.12-1.407 1.715-2.711 1.715-1.788 0-2.931-1.149-3.122-3.065h8.346a.12.12 0 0 0 .12-.113 7.6 7.6 0 0 0-.006-.941c-.119-3.473-2.168-5.508-5.408-5.508h-.001Zm-2.932 4.598c.358-1.652 1.358-2.515 2.907-2.515 1.55 0 2.55.91 2.764 2.515H42.78Zm12.27-8.767h-2.405a.12.12 0 0 0-.12.12v15.446c0 .067.054.12.12.12h2.405a.12.12 0 0 0 .12-.12V6.711a.12.12 0 0 0-.12-.12Zm20.326 4.169h-.002c-3.384 0-5.67 2.419-5.67 5.963s2.359 5.916 5.767 5.916c2.638 0 4.819-1.656 5.264-3.908a.118.118 0 0 0-.116-.14h-2.346a.123.123 0 0 0-.115.081c-.422 1.122-1.407 1.716-2.711 1.716-1.788 0-2.931-1.15-3.122-3.065h8.346a.12.12 0 0 0 .12-.113 7.39 7.39 0 0 0-.007-.941c-.118-3.473-2.168-5.508-5.408-5.508Zm-2.932 4.598c.357-1.652 1.357-2.515 2.907-2.515s2.55.91 2.764 2.515h-5.671Zm23.112.429 4.442-4.559a.053.053 0 0 0 .015-.035.052.052 0 0 0-.052-.052h-3.185a.122.122 0 0 0-.087.037l-4.35 4.513v-8.98a.12.12 0 0 0-.12-.12h-2.404a.12.12 0 0 0-.12.12v15.446c0 .067.054.12.12.12h2.405a.12.12 0 0 0 .12-.12V17.81h1.568l3.21 4.418a.12.12 0 0 0 .097.05h2.946a.09.09 0 0 0 .072-.143l-4.677-6.348ZM63.347 10.76c-1.78 0-3.05 1.3-3.264 1.872h-.516v-1.368a.12.12 0 0 0-.12-.12H57.13a.121.121 0 0 0-.121.126c.022.443.041 1.129.041 1.933v13.506c0 .066.054.12.12.12h2.381a.12.12 0 0 0 .12-.12v-5.287h.516c.492.776 1.704 1.24 3.035 1.24 3.36 0 5.504-2.659 5.504-5.963 0-3.305-1.95-5.94-5.38-5.94Zm-.554 9.58c-1.906 0-3.264-1.462-3.264-3.641 0-2.18 1.358-3.593 3.264-3.593 1.906 0 3.217 1.413 3.217 3.593 0 2.18-1.334 3.64-3.217 3.64Zm-34.938-9.071a.12.12 0 0 0-.12-.12h-2.38a.12.12 0 0 0-.121.12v.994h-.516c-.57-1.03-1.704-1.528-3.035-1.528-3.36 0-5.504 2.658-5.504 5.963s1.95 5.939 5.38 5.939c1.781 0 2.793-.905 3.264-1.584h.516v1.08c0 .066.054.12.12.12h2.317a.12.12 0 0 0 .12-.127 41.784 41.784 0 0 1-.041-1.932V11.27Zm-5.743 9.022c-1.858 0-3.217-1.413-3.217-3.592 0-2.18 1.334-3.64 3.217-3.64 1.884 0 3.265 1.46 3.265 3.64s-1.358 3.592-3.265 3.592ZM5.054 7.534a.12.12 0 0 0-.12-.12H2.528a.12.12 0 0 0-.12.12v3.604H.12a.12.12 0 0 0-.12.12v1.915c0 .066.054.12.12.12h2.29v6.788a2.27 2.27 0 0 0 2.263 2.274h2.823a.12.12 0 0 0 .12-.12V20.3a.12.12 0 0 0-.12-.12H5.053v-6.888h2.975a.12.12 0 0 0 .12-.12v-1.915a.12.12 0 0 0-.12-.12H5.054V7.534Zm7.568 4.758h-.516L12.1 11.26a.12.12 0 0 0-.12-.12h-2.4a.12.12 0 0 0-.12.126c.022.5.043 1.207.043 1.933v8.956c0 .067.053.12.12.12h2.404a.12.12 0 0 0 .12-.12v-5.412c0-2.13 1.192-3.304 3.194-3.304.194 0 .388.016.582.035a.12.12 0 0 0 .133-.12v-2.22c0-.053-.036-.1-.088-.112a3.917 3.917 0 0 0-.536-.068c-1.233.035-2.272.364-2.809 1.337v.001Zm72.575 0h-.516l-.006-1.033a.12.12 0 0 0-.12-.12h-2.4a.12.12 0 0 0-.12.127c.022.5.042 1.207.042 1.933v8.956c0 .066.054.12.12.12h2.405a.12.12 0 0 0 .12-.12v-5.412c0-2.131 1.192-3.304 3.194-3.304.194 0 .388.015.582.034a.12.12 0 0 0 .132-.12v-2.219c0-.053-.035-.1-.087-.112a3.917 3.917 0 0 0-.536-.068c-1.233.035-2.272.364-2.81 1.337v.001ZM103.355.104a.12.12 0 0 1 .119-.104h.836a.12.12 0 0 1 .118.104l.487 3.565c.01.08-.06.148-.139.135l-.864-.144a.123.123 0 0 0-.04 0l-.864.144a.12.12 0 0 1-.139-.135l.486-3.565Zm5.998 6.348a.12.12 0 0 0 .111-.12v-.825a.12.12 0 0 0-.109-.12l-5.452-.51h-.022l-5.452.51a.12.12 0 0 0-.11.12v.825a.12.12 0 0 0 .11.12l4.026.335a.12.12 0 0 1 .075.035l.288.288a.123.123 0 0 1 .035.07l.503 3.86a.12.12 0 0 0 .119.104h.834a.12.12 0 0 0 .119-.105l.503-3.86a.129.129 0 0 1 .034-.069l.289-.288a.118.118 0 0 1 .075-.035l4.024-.335Z"/></g><defs><clipPath id="a"><path fill="#fff" d="M0 0h110v26.829H0z"/></clipPath></defs></svg>