<svg xmlns="http://www.w3.org/2000/svg" width="429" height="128" fill="none" viewBox="0 0 429 128"><g clip-path="url(#a)"><path fill="#398CCB" d="M90.5 0h-53C16.79 0 0 16.79 0 37.5v53C0 111.211 16.79 128 37.5 128h53c20.711 0 37.5-16.789 37.5-37.5v-53C128 16.79 111.211 0 90.5 0Z"/><path fill="#fff" fill-rule="evenodd" d="m63.861 18.75 17.77 10.252v5.637l21.507 12.42v21.247l5.77 3.33v20.516L91.15 102.404l-7.884-4.56-19.168 11.068-19.053-11.004-7.774 4.496-17.758-10.27V71.636l5.545-3.2V47.059l21.046-12.15h.011v-5.907L63.861 18.75Zm17.77 21.22v9.536L63.873 59.758 46.115 49.506v-9.272h-.011l-16.431 9.491v16.046l7.598-4.386L55.03 71.636v20.498l-5.373 3.106 14.442 8.34 14.556-8.403-5.262-3.043V71.636L91.15 61.386l7.373 4.256V49.725L81.631 39.97Zm-3.623 49.522V76.98l10.834 6.254v12.513l-10.834-6.254Zm26.284-12.53-10.834 6.254v12.53l10.834-6.271V76.962ZM24.129 89.475V76.962l10.835 6.254v12.513l-10.835-6.254Zm26.284-12.513L39.58 83.216v12.513l10.834-6.254V76.962Zm29.903-3.981 10.834-6.254 10.834 6.254-10.834 6.26-10.835-6.26ZM37.27 66.71l-10.835 6.27 10.835 6.243 10.835-6.242L37.27 66.71Zm13.46-19.87V34.328l10.823 6.26v12.507L50.73 46.84Zm26.273-12.513-10.823 6.26v12.502l10.823-6.248V34.326Zm-23.966-3.992 10.824-6.254 10.834 6.253-10.834 6.255-10.824-6.255Z" clip-rule="evenodd"/><path fill="#000" d="M191.551 42.545v15.341h-41.292v-15.34h41.292Zm-32.642-15.681h20.838v60.554c0 1.278.199 2.315.597 3.11a3.724 3.724 0 0 0 1.832 1.662c.796.313 1.747.47 2.855.47.796 0 1.634-.072 2.514-.214.91-.17 1.591-.313 2.046-.426l3.153 15.042c-.994.285-2.4.64-4.218 1.066-1.79.426-3.935.696-6.435.81-4.886.227-9.077-.341-12.571-1.705-3.466-1.392-6.122-3.551-7.969-6.477-1.818-2.927-2.699-6.605-2.642-11.037V26.864ZM198.789 108V20.727h36.052c6.534 0 12.173 1.18 16.917 3.537 4.773 2.33 8.452 5.682 11.037 10.057 2.585 4.347 3.878 9.503 3.878 15.469 0 6.05-1.321 11.193-3.963 15.426-2.642 4.205-6.392 7.415-11.25 9.63-4.858 2.188-10.611 3.282-17.259 3.282h-22.798v-16.62h18.878c3.182 0 5.838-.411 7.969-1.235 2.159-.853 3.792-2.131 4.9-3.836 1.108-1.732 1.662-3.948 1.662-6.647 0-2.7-.554-4.93-1.662-6.69-1.108-1.79-2.741-3.126-4.9-4.006-2.159-.91-4.816-1.364-7.969-1.364h-10.398V108h-21.094Zm49.134-39.886L269.656 108h-23.011l-21.307-39.886h22.585ZM273.443 108V20.727h36.051c6.534 0 12.173 1.279 16.917 3.835 4.773 2.529 8.452 6.066 11.037 10.611 2.586 4.517 3.878 9.773 3.878 15.767 0 6.023-1.321 11.293-3.963 15.81-2.614 4.489-6.349 7.969-11.207 10.44-4.858 2.472-10.625 3.708-17.301 3.708H286.61v-16.62h18.324c3.182 0 5.838-.554 7.969-1.662 2.159-1.108 3.792-2.656 4.9-4.644 1.108-2.017 1.662-4.361 1.662-7.032 0-2.698-.554-5.028-1.662-6.988-1.108-1.989-2.741-3.523-4.9-4.603-2.159-1.08-4.815-1.619-7.969-1.619h-10.398V108h-21.093Zm152.7-55.653h-21.307c-.284-2.188-.867-4.162-1.747-5.924a14.408 14.408 0 0 0-3.495-4.517c-1.449-1.25-3.167-2.201-5.156-2.855-1.96-.682-4.133-1.023-6.52-1.023-4.233 0-7.883 1.037-10.952 3.111-3.039 2.074-5.383 5.071-7.031 8.992-1.619 3.92-2.429 8.664-2.429 14.233 0 5.795.824 10.653 2.472 14.573 1.676 3.892 4.02 6.833 7.031 8.822 3.04 1.96 6.634 2.94 10.781 2.94 2.33 0 4.446-.298 6.35-.895 1.932-.597 3.622-1.463 5.071-2.6a14.378 14.378 0 0 0 3.622-4.218c.966-1.676 1.633-3.566 2.003-5.668l21.307.128c-.37 3.864-1.492 7.67-3.367 11.42-1.846 3.75-4.389 7.174-7.628 10.27-3.238 3.069-7.187 5.512-11.846 7.33-4.631 1.818-9.943 2.727-15.938 2.727-7.898 0-14.971-1.733-21.221-5.199-6.222-3.494-11.137-8.58-14.745-15.255-3.608-6.677-5.412-14.802-5.412-24.375 0-9.603 1.833-17.742 5.498-24.418 3.664-6.676 8.622-11.747 14.872-15.213 6.25-3.466 13.253-5.199 21.008-5.199 5.284 0 10.171.739 14.659 2.216 4.489 1.449 8.438 3.58 11.847 6.392 3.409 2.784 6.179 6.207 8.31 10.27 2.13 4.062 3.451 8.707 3.963 13.935Z"/></g><defs><clipPath id="a"><path fill="#fff" d="M0 0h429v128H0z"/></clipPath></defs></svg>