<svg xmlns="http://www.w3.org/2000/svg" width="146.528" height="146" viewBox="0 0 146.528 146">
  <path d="M56.897 0c-5.37.004-10.732.047-16.074.16-12.224.73-21.887 4.02-30.285 13.487a39.1 39.1 0 0 0-8.934 17.248C-.686 40.815.074 62.744.32 73.733c.485 21.74-4.563 45.766 13.768 61.675 15.896 13.797 36.04 9.627 55.664 10.1 11.664.281 25.33.362 36.994-.22 11.669-.564 21.156-4.077 29.193-12.926a40.14 40.14 0 0 0 9.32-17.918c2.61-11.446.894-28.3 1.301-40.303.011-11.147.042-22.436-.13-33.557-.36-23.09-18.038-40.6-41.217-40.392C89.207.335 73.01-.01 56.897 0m-4.185 14.953c7.549-.067 16.128.223 22.943.12 6.719-.103 23.748-.353 29.539.687a31.3 31.3 0 0 1 13.074 5.52c5.921 4.383 10.962 12.686 11.537 20.095 1.167 15.04.21 30.447.551 45.563.125 5.555.22 13.001-.756 18.32a29.7 29.7 0 0 1-5.484 12.582c-5.79 7.768-12.977 10.622-22.235 11.975-10.966.33-23.066-.007-34.115.101-7.095.07-21.849.372-27.947-.88a29.25 29.25 0 0 1-12.82-6.09 30.2 30.2 0 0 1-10.74-20.526c-.624-6.432-.247-21.7-.22-28.715.03-7.508-.575-27.852.717-34.345a29.76 29.76 0 0 1 6.215-13.25c6.17-7.462 13.354-10.054 22.637-10.942 2.184-.13 4.587-.192 7.104-.215" style="fill:#dedede;fill-opacity:1"/>
  <path d="M89.604 65.819c-2.41 3.76-2.446 10.997-4.21 15.816-4.328 1.567-13.937 2.268-15.807 4.734-.34 1.476-.345.914.123 2.342 2.814 3.183 11.013 3.195 15.795 4.936 1.256 4.459 1.397 17.074 7.056 15.898 2.731-3.108 3.014-11.096 4.371-15.715 5.267-2.249 14.847-2.159 16.78-5.593-.346-5.221-14.248-4.385-16.541-7.032-3.707-4.278.742-15.836-7.567-15.386" style="fill:#dedede;fill-opacity:1"/>
</svg>
