<svg xmlns="http://www.w3.org/2000/svg" fill="none" viewBox="0 0 100 100"><path fill="#000" fill-rule="evenodd" d="M38.687 36.698c-1.131 0-2.048.917-2.048 2.048V61.52c0 1.131.917 2.048 2.048 2.048H61.46c1.13 0 2.048-.917 2.048-2.048V38.746c0-1.13-.917-2.048-2.048-2.048H38.687ZM22.259 20.443c-1.036 0-1.876.84-1.876 1.875v55.63c0 1.036.84 1.876 1.876 1.876h55.63c1.036 0 1.875-.84 1.875-1.876v-55.63c0-1.036-.84-1.875-1.875-1.875h-55.63Z" clip-rule="evenodd"/><path fill="url(#a)" d="M0 51.064v36.17c0 2.427.677 4.696 1.853 6.627l13.04-13.04V51.064H0Z"/><path fill="url(#b)" d="m5.946 98.028 12.93-12.93c.09.005.181.008.273.008H47.64V100H12.766c-2.508 0-4.847-.723-6.82-1.972Z"/><path fill="url(#c)" d="M53.481 100h33.753C94.284 100 100 94.284 100 87.234V12.766C100 5.716 94.284 0 87.234 0h-36.17v14.894H80.85a4.255 4.255 0 0 1 4.255 4.255V80.85a4.255 4.255 0 0 1-4.255 4.255h-27.37V100Z"/><defs><linearGradient id="a" x1="54.917" x2="5.699" y1="7.031" y2="55.915" gradientUnits="userSpaceOnUse"><stop stop-color="#0096FF"/><stop offset="1" stop-color="#FF1E56"/></linearGradient><linearGradient id="b" x1="54.917" x2="5.699" y1="7.031" y2="55.915" gradientUnits="userSpaceOnUse"><stop stop-color="#0096FF"/><stop offset="1" stop-color="#FF1E56"/></linearGradient><linearGradient id="c" x1="54.917" x2="5.699" y1="7.031" y2="55.915" gradientUnits="userSpaceOnUse"><stop stop-color="#0096FF"/><stop offset="1" stop-color="#FF1E56"/></linearGradient></defs></svg>