<svg xmlns="http://www.w3.org/2000/svg" fill="none" viewBox="0 0 486 72"><path fill="#000" d="M140.111 25.544v-8.438H99.448v8.438h15.35v28.058h9.963V25.544h15.35ZM163.087 54.16c12.504 0 19.366-6.353 19.366-16.824v-20.23h-9.962V36.37c0 5.846-3.05 9.15-9.404 9.15s-9.404-3.304-9.404-9.15V17.107h-9.962v20.23c0 10.471 6.862 16.825 19.366 16.825ZM197.704 41.504h9.912l7.827 12.098h11.437l-8.844-13.165c4.981-1.78 8.031-5.744 8.031-11.132 0-7.828-5.846-12.2-14.741-12.2h-23.585v36.497h9.963V41.504Zm0-7.878v-8.184h13.114c3.507 0 5.439 1.525 5.439 4.117 0 2.44-1.932 4.067-5.439 4.067h-13.114ZM230.702 53.602h26.076c8.133 0 12.809-3.863 12.809-10.319 0-4.32-2.745-7.268-5.998-8.59 2.237-1.067 4.982-3.609 4.982-7.624 0-6.456-4.575-9.963-12.657-9.963h-25.212v36.496Zm9.556-22.213v-6.201h14.639c2.745 0 4.27 1.067 4.27 3.1 0 2.034-1.525 3.101-4.27 3.101h-14.639Zm0 7.472h15.554c2.694 0 4.168 1.322 4.168 3.304 0 1.983-1.474 3.304-4.168 3.304h-15.554v-6.608ZM293.946 16.496c-12.758 0-21.959 7.98-21.959 18.858 0 10.877 9.201 18.858 21.959 18.858s21.908-7.98 21.908-18.858-9.15-18.858-21.908-18.858Zm0 8.641c6.709 0 11.742 3.965 11.742 10.217 0 6.252-5.033 10.217-11.742 10.217-6.71 0-11.742-3.965-11.742-10.217 0-6.252 5.032-10.217 11.742-10.217ZM330.211 41.962h13.267c8.895 0 14.74-4.27 14.74-12.403 0-8.183-5.845-12.453-14.74-12.453h-23.23v36.496h9.963v-11.64Zm0-8.286v-8.234h12.707c3.559 0 5.49 1.525 5.49 4.117 0 2.542-1.931 4.117-5.49 4.117h-12.707ZM371.553 17.106 353.61 53.602h10.572l3.304-6.862h19.163l3.304 6.862h10.929l-17.893-36.496h-11.436Zm5.591 9.76 5.693 11.894H371.4l5.744-11.895ZM398.786 35.354c0 10.877 9.099 18.858 21.806 18.858 10.166 0 17.231-4.575 20.027-11.945l-9.098-4.067c-1.424 4.27-5.134 7.37-10.929 7.37-6.506 0-11.64-3.964-11.64-10.216 0-6.252 5.134-10.217 11.64-10.217 5.795 0 9.505 3.1 10.929 7.37l9.098-4.066c-2.796-7.37-9.861-11.945-20.027-11.945-12.707 0-21.806 7.98-21.806 18.858ZM454.18 17.106h-9.962v36.496h9.962v-9.099l6.507-5.845 12.656 14.944H486l-18.146-21.349 16.875-15.147h-13.571L454.18 32.507V17.106Z"/><path fill="#000" fill-rule="evenodd" d="M27.723 26.298c-.81 0-1.467.657-1.467 1.467v16.32c0 .81.657 1.468 1.467 1.468h16.32c.81 0 1.467-.657 1.467-1.468v-16.32c0-.81-.657-1.467-1.467-1.467h-16.32ZM15.95 14.649c-.742 0-1.344.602-1.344 1.344v39.864c0 .743.602 1.344 1.344 1.344h39.864c.742 0 1.344-.601 1.344-1.344V15.993c0-.742-.602-1.344-1.344-1.344H15.951Z" clip-rule="evenodd"/><path fill="url(#a)" d="M0 36.592v25.92c0 1.739.485 3.365 1.328 4.749l9.345-9.345V36.592H0Z"/><path fill="url(#b)" d="m4.261 70.247 9.266-9.266c.064.004.13.006.195.006H34.14V71.66H9.149a9.105 9.105 0 0 1-4.888-1.413Z"/><path fill="url(#c)" d="M38.324 71.66h24.188a9.148 9.148 0 0 0 9.148-9.148V9.148A9.148 9.148 0 0 0 62.512 0h-25.92v10.673h21.346a3.05 3.05 0 0 1 3.05 3.05v44.215a3.05 3.05 0 0 1-3.05 3.05H38.324V71.66Z"/><defs><linearGradient id="a" x1="39.353" x2="4.084" y1="5.039" y2="40.069" gradientUnits="userSpaceOnUse"><stop stop-color="#0096FF"/><stop offset="1" stop-color="#FF1E56"/></linearGradient><linearGradient id="b" x1="39.353" x2="4.084" y1="5.039" y2="40.069" gradientUnits="userSpaceOnUse"><stop stop-color="#0096FF"/><stop offset="1" stop-color="#FF1E56"/></linearGradient><linearGradient id="c" x1="39.353" x2="4.084" y1="5.039" y2="40.069" gradientUnits="userSpaceOnUse"><stop stop-color="#0096FF"/><stop offset="1" stop-color="#FF1E56"/></linearGradient></defs></svg>