<svg xmlns="http://www.w3.org/2000/svg" fill="none" viewBox="0 0 466 63"><path fill="#000" d="M123.873 23.532v-8.28h-39.9v8.28h15.062v27.53h9.775v-27.53h15.063ZM146.417 51.611c12.269 0 19.002-6.234 19.002-16.508v-19.85h-9.776v18.902c0 5.736-2.992 8.977-9.226 8.977-6.235 0-9.227-3.241-9.227-8.977V15.252h-9.776v19.85c0 10.275 6.733 16.51 19.003 16.51ZM180.383 39.192h9.726l7.68 11.87h11.222l-8.678-12.917c4.888-1.746 7.88-5.636 7.88-10.923 0-7.68-5.735-11.97-14.464-11.97h-23.142v35.81h9.776v-11.87Zm0-7.73v-8.03h12.868c3.441 0 5.336 1.496 5.336 4.04 0 2.394-1.895 3.99-5.336 3.99h-12.868ZM212.762 51.063h25.585c7.98 0 12.569-3.791 12.569-10.125 0-4.24-2.693-7.132-5.885-8.429 2.194-1.047 4.887-3.541 4.887-7.481 0-6.334-4.488-9.776-12.418-9.776h-24.738v35.81Zm9.376-21.796v-6.085h14.364c2.693 0 4.19 1.048 4.19 3.043s-1.497 3.042-4.19 3.042h-14.364Zm0 7.332H237.4c2.643 0 4.09 1.297 4.09 3.242s-1.447 3.242-4.09 3.242h-15.262v-6.484ZM274.817 14.654c-12.519 0-21.546 7.83-21.546 18.503 0 10.674 9.027 18.504 21.546 18.504s21.496-7.83 21.496-18.504c0-10.673-8.977-18.503-21.496-18.503Zm0 8.479c6.584 0 11.521 3.89 11.521 10.024 0 6.135-4.937 10.025-11.521 10.025-6.583 0-11.521-3.89-11.521-10.025 0-6.134 4.938-10.024 11.521-10.024ZM310.401 39.192h9.725l7.681 11.87h11.222l-8.678-12.917c4.888-1.746 7.88-5.636 7.88-10.923 0-7.68-5.736-11.97-14.464-11.97h-23.142v35.81h9.776v-11.87Zm0-7.73v-8.03h12.868c3.441 0 5.336 1.496 5.336 4.04 0 2.394-1.895 3.99-5.336 3.99h-12.868ZM342.779 15.252v35.81h34.813v-8.279h-25.237v-5.835h22.394v-8.08h-22.394v-5.336h25.237v-8.28h-34.813ZM392.079 39.641h13.017c8.729 0 14.464-4.19 14.464-12.17 0-8.03-5.735-12.219-14.464-12.219h-22.793v35.81h9.776v-11.42Zm0-8.13v-8.08h12.469c3.491 0 5.386 1.497 5.386 4.04 0 2.494-1.895 4.04-5.386 4.04h-12.469ZM443.823 14.654c-12.518 0-21.546 7.83-21.546 18.503 0 10.674 9.028 18.504 21.546 18.504 12.519 0 21.496-7.83 21.496-18.504 0-10.673-8.977-18.503-21.496-18.503Zm0 8.479c6.584 0 11.521 3.89 11.521 10.024 0 6.135-4.937 10.025-11.521 10.025-6.583 0-11.521-3.89-11.521-10.025 0-6.134 4.938-10.024 11.521-10.024ZM31.377 10.97c-11.252 0-20.406 9.155-20.406 20.407 0 11.251 9.154 20.406 20.406 20.406 11.252 0 20.406-9.155 20.406-20.406 0-11.252-9.154-20.406-20.406-20.406Zm0 30.967c-5.833 0-10.56-4.727-10.56-10.56s4.727-10.56 10.56-10.56 10.56 4.727 10.56 10.56-4.727 10.56-10.56 10.56Z"/><path fill="url(#a)" fill-rule="evenodd" d="M33.087 7.619V0c16.56.885 29.715 14.596 29.715 31.377 0 16.78-13.155 30.487-29.715 31.376v-7.619c12.342-.881 22.115-11.195 22.115-23.757 0-12.563-9.773-22.876-22.115-23.758ZM13.38 46.956a23.727 23.727 0 0 1-5.757-13.87H0c.395 7.392 3.352 14.099 7.984 19.263l5.392-5.392h.004Zm16.287 15.797v-7.619a23.703 23.703 0 0 1-13.874-5.757L10.4 54.77c5.168 4.636 11.875 7.589 19.262 7.984h.004Z" clip-rule="evenodd"/><defs><linearGradient id="a" x1="34.318" x2="3.432" y1="4.412" y2="35.299" gradientUnits="userSpaceOnUse"><stop stop-color="#0096FF"/><stop offset="1" stop-color="#FF1E56"/></linearGradient></defs></svg>