<svg fill="none" height="170" viewBox="0 0 201 170" width="201" xmlns="http://www.w3.org/2000/svg"><path d="m100.055 170c-2.1901 0-18.2001-12.8-21.3001-16.45-2.44 3.73-6.44 7.96-6.44 7.96-11.05-5.57-25.17-20.06-27.83-25.13-2.62-5-12.13-62.58-12.39-79.3-.34-9.41 5.85-28.49 67.9601-28.49 62.11 0 68.29 19.08 67.96 28.49-.25 16.72-9.76 74.3-12.39 79.3-2.66 5.07-16.78 19.56-27.83 25.13 0 0-4-4.23-6.44-7.96-3.1 3.65-19.11 16.45-21.3 16.45z" fill="#1ebca1"/><path d="m100.055 132.92c-20.7301 0-33.9601-10.95-33.9601-10.95l1.91-26.67-21.75-1.94-3.91-31.55h115.4301l-3.91 31.55-21.75 1.94 1.91 26.67s-13.23 10.95-33.96 10.95z" fill="#183134"/><path d="m121.535 75.79 78.52-27.18c-4.67-27.94-29.16-48.61-29.16-48.61v30.78l-14.54 3.75-9.11-10.97-7.8 15.34-39.38 10.16-39.3801-10.16-7.8-15.34-9.11 10.97-14.54-3.75v-30.78s-24.50997 20.67-29.1799684 48.61l78.5199684 27.18-2.8 37.39c6.7 1.7 13.75 3.39 24.2801 3.39 10.53 0 17.57-1.69 24.27-3.39l-2.8-37.39z" fill="#4ff8d2"/></svg>
