<svg width="741" height="170" viewBox="0 0 741 170" fill="none" xmlns="http://www.w3.org/2000/svg">
<path d="M100.827 170C98.6375 170 82.6275 157.2 79.5275 153.55C77.0875 157.28 73.0875 161.51 73.0875 161.51C62.0375 155.94 47.9175 141.45 45.2575 136.38C42.6375 131.38 33.1275 73.8001 32.8675 57.0801C32.5275 47.6701 38.7175 28.5901 100.827 28.5901C162.938 28.5901 169.118 47.6701 168.788 57.0801C168.538 73.8001 159.027 131.38 156.397 136.38C153.737 141.45 139.617 155.94 128.567 161.51C128.567 161.51 124.567 157.28 122.127 153.55C119.027 157.2 103.017 170 100.827 170Z" fill="#1EBCA1"/>
<path d="M100.827 132.92C80.0975 132.92 66.8675 121.97 66.8675 121.97L68.7775 95.3001L47.0275 93.3601L43.1175 61.8101H158.547L154.637 93.3601L132.887 95.3001L134.797 121.97C134.797 121.97 121.567 132.92 100.837 132.92H100.827Z" fill="#183134"/>
<path d="M122.308 75.79L200.828 48.61C196.158 20.67 171.668 0 171.668 0V30.78L157.128 34.53L148.018 23.56L140.218 38.9L100.838 49.06L61.4575 38.9L53.6575 23.56L44.5475 34.53L30.0075 30.78V0C30.0075 0 5.49751 20.67 0.827515 48.61L79.3475 75.79L76.5475 113.18C83.2475 114.88 90.2975 116.57 100.828 116.57C111.358 116.57 118.398 114.88 125.098 113.18L122.298 75.79H122.308Z" fill="#4FF8D2"/>
<path d="M299.158 53.2399V142.82H271.198V53.2399L240.138 49.4199V27.1699H330.058V49.4199L299.158 53.2399Z" fill="#4FF7D1"/>
<path d="M338.928 96.6999V27.1699H366.888V96.6999C366.888 109.74 373.088 118.76 386.818 118.76C400.548 118.76 406.408 109.57 406.408 96.5299V27.1699H434.368V96.5299C434.368 124.44 418.298 145 386.478 145C354.658 145 338.918 125.61 338.918 96.6999H338.928Z" fill="#4FF7D1"/>
<path d="M509.718 90.0099L536.177 142.82H506.208L483.438 95.3499H475.898V142.82H448.098V27.1699H487.948C512.228 27.1699 524.448 39.7099 524.448 61.5999C524.448 74.4699 519.088 84.3299 509.708 90.0099H509.718ZM475.898 51.2399V72.6299H485.608C491.968 72.6299 495.648 68.2799 495.648 61.7699C495.648 55.2599 491.798 51.2399 485.608 51.2399H475.898Z" fill="#4FF7D1"/>
<path d="M574.017 68.79L588.587 74.47C603.658 80.65 612.538 90.68 612.538 107.9C612.538 131.3 595.957 145 572.687 145C539.527 145 533.507 123.44 534.507 106.56H560.968C560.638 113.91 563.477 121.1 572.687 121.1C579.047 121.1 583.737 117.59 583.737 110.9C583.737 104.21 579.047 101.21 571.517 98.37C565.657 96.03 559.797 93.86 553.437 90.68C541.717 84.66 535.517 73.3 535.517 59.26C535.517 39.04 550.248 25 572.858 25C600.158 25 610.038 40.54 608.858 61.1H583.077C583.247 53.91 579.557 48.9 573.028 48.9C566.498 48.9 563.478 52.74 563.478 57.59C563.478 62.44 566.158 65.78 574.028 68.79H574.017Z" fill="#4FF7D1"/>
<path d="M678.677 25C716.527 25 740.138 50.91 740.138 84.67C740.138 118.43 716.688 145 679.518 145C642.348 145 618.568 119.1 618.568 85.17C618.568 51.24 643.017 25 678.677 25ZM679.348 118.93C699.778 118.93 710.828 103.89 710.828 85C710.828 66.11 699.107 51.07 679.177 51.07C659.247 51.07 647.867 66.11 647.867 85C647.867 103.89 660.088 118.93 679.348 118.93Z" fill="#4FF7D1"/>
</svg>
