<svg fill="none" height="170" viewBox="0 0 201 170" width="201" xmlns="http://www.w3.org/2000/svg"><path d="m200.035 48.61c-4.67-27.94-29.16-48.61-29.16-48.61v30.78l-14.54 3.75-9.11-10.97-4.81 9.46c-9.92-2.7-23.58-4.44-42.37-4.44-18.7901 0-32.4501 1.75-42.3701 4.44l-4.81-9.46-9.11 10.97-14.54-3.75v-30.78s-24.48997 20.67-29.1599684 48.61l32.1399684 11.12c1.05 19.43 9.79 71.88 12.29 76.64 2.66 5.07 16.78 19.56 27.83 25.13 0 0 4-4.23 6.44-7.96 3.1 3.65 19.11 16.45 21.3001 16.45 2.19 0 18.2-12.79 21.3-16.45 2.44 3.73 6.44 7.96 6.44 7.96 11.05-5.57 25.17-20.06 27.83-25.13 2.5-4.76 11.24-57.21 12.29-76.64l32.14-11.12zm-46.19 44.74-21.75 1.94 1.91 26.67s-13.23 10.95-33.96 10.95c-20.7301 0-33.9601-10.95-33.9601-10.95l1.91-26.67-21.75-1.94-3.72-30.04 36.05 12.48-2.8 37.39c6.7 1.7 13.75 3.39 24.2801 3.39 10.53 0 17.57-1.69 24.27-3.39l-2.8-37.39 36.05-12.48-3.72 30.04z" fill="#183134"/></svg>
