<svg fill="none" height="170" viewBox="0 0 740 170" width="740" xmlns="http://www.w3.org/2000/svg"><g fill="#183134"><path d="m171.172 0v30.78l-14.54 3.75-9.11-10.97-4.809 9.46c-9.92-2.7-23.58-4.44-42.37-4.44-18.7905 0-32.4505 1.75-42.3705 4.44l-4.81-9.46-9.11 10.97-14.54-3.75v-30.78s-24.48996 20.67-29.159961 48.61l32.139861 11.12c1.05 19.43 9.7901 71.88 12.2901 76.64 2.66 5.07 16.7799 19.56 27.8299 25.13 0 0 4.0001-4.23 6.4401-7.96 3.1 3.65 19.11 16.45 21.3005 16.45 2.19 0 18.199-12.8 21.299-16.45 2.44 3.73 6.441 7.96 6.441 7.96 11.05-5.57 25.169-20.06 27.829-25.13 2.5-4.76 11.241-57.21 12.291-76.64l32.14-11.12c-4.69-27.94-29.181-48.61-29.181-48.61zm-17.04 93.36-21.75 1.94 1.91 26.67s-13.229 10.95-33.959 10.95c-20.7305 0-33.9606-10.95-33.9606-10.95l1.9101-26.67-21.75-1.94-3.72-30.04 36.0499 12.48-2.7999 37.39c6.7 1.7 13.75 3.39 24.2805 3.39 10.53 0 17.569-1.69 24.269-3.39l-2.8-37.39 36.05-12.48-3.72 30.04z"/><path d="m239.632 49.4199 31.07 3.82v89.5901h27.96v-89.5901l30.9-3.82v-22.25h-89.93z"/><path d="m405.913 96.5299c0 13.0401-6.36 22.2301-19.59 22.2301s-19.93-9.02-19.93-22.0601v-69.53h-27.96v69.53c0 28.9101 14.9 48.3001 47.56 48.3001s47.89-20.56 47.89-48.4701v-69.36h-27.96v69.36z"/><path d="m523.962 61.5999c0-21.89-12.23-34.43-36.5-34.43h-39.85v115.6501h27.8v-47.4701h7.54l22.77 47.4701h29.97l-26.46-52.8101c9.38-5.68 14.74-15.54 14.74-28.41zm-38.85 11.03h-9.71v-21.39h9.71c6.19 0 10.04 4.18 10.04 10.53s-3.68 10.86-10.04 10.86z"/><path d="m588.092 74.47-14.57-5.68c-7.87-3.01-10.55-6.35-10.55-11.2s3.18-8.69 9.55-8.69 10.21 5.01 10.05 12.2h25.78c1.18-20.56-8.7-36.1-36-36.1-22.6 0-37.34 14.04-37.34 34.26 0 14.04 6.19 25.4 17.92 31.42 6.36 3.18 12.22 5.35 18.08 7.69 7.53 2.84 12.22 6.02 12.22 12.53s-4.69 10.2-11.05 10.2c-9.21 0-12.06-7.19-11.72-14.54h-26.46c-1 16.88 5.02 38.44 38.18 38.44 23.27 0 39.85-13.7 39.85-37.1 0-17.21-8.88-27.24-23.95-33.43z"/><path d="m678.182 25c-35.66 0-60.109 26.57-60.109 60.17s23.109 59.83 60.949 59.83 60.621-26.57 60.621-60.33-23.611-59.67-61.461-59.67zm.671 93.93c-19.26 0-31.48-14.87-31.48-33.93s10.889-33.93 31.309-33.93 31.651 15.04 31.651 33.93-11.05 33.93-31.48 33.93z"/></g></svg>
