<svg width="60" height="100" viewBox="0 0 60 100" xmlns="http://www.w3.org/2000/svg"><g fill-rule="nonzero" fill="none"><path d="M47.727 57.64L36.818 76.033V49.445c0-2.836-3.79 2.81-3.954 3.06.077-.278 2.718-9.096 9.731-13.223l-5.777 3.182v-7.341h10.91V57.64zM29.545 9.09V100s29.546-19.655 29.546-50V35.123L29.545 9.09z" fill="#43AA91"/><path d="M22.273 64.136v11.896c-6.882 0-10.91-5.387-10.91-12.027V35.123h10.91v22.032c0 2.795 3.659-2.623 3.94-3.041-.231.531-4.058 9.145-10.963 13.209l7.023-3.187zM0 35.123V50c0 30.345 29.545 50 29.545 50V9.09L0 35.124z" fill="#1C967A"/><path fill="#43AA91" d="M59.09 26.032v4.545L29.546 4.545V0l29.546 26.032"/><path fill="#1C967A" d="M29.545 0v4.545L0 30.577v-4.545L29.545 0"/></g></svg>