<svg width="186" height="100" viewBox="0 0 186 100" xmlns="http://www.w3.org/2000/svg"><g fill-rule="nonzero" fill="none"><path d="M47.727 57.64L36.818 76.033V49.445c0-2.836-3.79 2.81-3.954 3.06.077-.278 2.718-9.096 9.731-13.223l-5.777 3.182v-7.341h10.91V57.64zM29.545 9.09V100s29.546-19.655 29.546-50V35.123L29.545 9.09z" fill="#43AA91"/><path d="M22.273 64.136v11.896c-6.882 0-10.91-5.387-10.91-12.027V35.123h10.91v22.032c0 2.795 3.659-2.623 3.94-3.041-.231.531-4.058 9.145-10.963 13.209l7.023-3.187zM0 35.123V50c0 30.345 29.545 50 29.545 50V9.09L0 35.124z" fill="#1C967A"/><path fill="#43AA91" d="M59.09 26.032v4.545L29.546 4.545V0l29.546 26.032"/><path fill="#1C967A" d="M29.545 0v4.545L0 30.577v-4.545L29.545 0"/><path d="M88.341 72.04c-6.3.833-11.038-2.707-11.038-8.747V35.125h4.114v9.944h5.519v4.166h-5.52v14.058c0 3.072 2.604 5.987 6.925 5.155v3.592M112.292 70.53c-5.051 1.77-8.227 1.979-10.518 1.979-5.103-.053-10.205-3.02-10.205-8.956V45.017h4.166v18.64c0 3.124 3.02 4.894 6.04 4.946 2.395 0 4.53-.26 6.351-.885v-22.7h4.166V70.53M119.424 64.803c1.823 2.707 4.947 3.853 7.706 3.748 2.447-.051 5.05-1.25 4.999-4.009 0-2.915-2.916-3.645-5.363-4.113h.052c-4.426-.781-9.476-2.134-9.476-7.914 0-5.675 5.363-7.81 9.788-7.81 2.812 0 5.884 1.04 8.123 3.228l-2.708 3.176c-1.666-1.718-3.54-2.343-5.415-2.343-2.343 0-5.675.729-5.675 3.749.052 2.76 3.749 3.489 6.092 3.905 4.218.78 8.643 2.655 8.695 8.122 0 5.363-4.477 7.706-9.112 7.81-4.217.104-8.226-1.458-10.83-5.623l3.124-1.926M143.947 66.209a3.044 3.044 0 013.072 3.071 3.044 3.044 0 01-3.072 3.072 3.045 3.045 0 01-3.072-3.072 3.045 3.045 0 013.072-3.071M153.32 72.04h4.165V44.913h-4.166V72.04zm1.978-36.707c1.666 0 2.915 1.25 2.915 2.916 0 1.613-1.25 2.915-2.915 2.915a2.91 2.91 0 01-2.916-2.915c0-1.667 1.301-2.916 2.916-2.916zM168.522 53.4v10.153c0 3.384 3.28 4.895 6.3 4.895 2.916 0 6.196-1.51 6.196-4.895V53.4c0-3.385-3.28-4.842-6.196-4.842-3.02 0-6.3 1.457-6.3 4.842zm6.3-9.008c5.155.052 10.362 3.02 10.362 9.008v10.153c0 6.04-5.207 8.956-10.362 9.007-5.207-.051-10.465-2.967-10.465-9.007V53.4c0-5.988 5.258-8.956 10.465-9.008z" fill="#111517"/></g></svg>