<svg viewBox="0 0 256 255" xmlns="http://www.w3.org/2000/svg" preserveAspectRatio="xMidYMid"><path d="M75.104 80.303c.551 2.751.826 5.41.826 7.979 0 2.384-.275 4.951-.826 7.702l-34.938-.275v92.437c0 7.703 3.576 11.554 10.729 11.554h20.908c1.284 3.118 1.926 6.236 1.926 9.354 0 3.118-.184 5.044-.55 5.777-8.437 1.1-17.149 1.65-26.135 1.65-17.79 0-26.686-7.61-26.686-22.833V95.709l-19.533.275C.275 93.234 0 90.666 0 88.282c0-2.568.275-5.228.825-7.979l19.533.275V51.692c0-4.952.734-8.437 2.2-10.454 1.468-2.201 4.31-3.302 8.53-3.302h7.427l1.65 1.651v41.267l34.94-.551Zm10.477 125.255c.178-4.02 1.275-8.405 3.286-13.156 2.194-4.934 4.661-8.771 7.401-11.512 14.436 7.857 27.134 11.786 38.1 11.786 6.026 0 10.87-1.188 14.524-3.563 3.837-2.376 5.759-5.573 5.759-9.594 0-6.395-4.935-11.511-14.803-15.349l-15.35-5.755c-23.022-8.406-34.534-21.836-34.534-40.292 0-6.578 1.186-12.425 3.564-17.541 2.557-5.3 6.026-9.776 10.415-13.43 4.567-3.838 9.958-6.761 16.173-8.771 6.21-2.01 13.154-3.016 20.829-3.016 3.47 0 7.307.275 11.511.823 4.384.548 8.772 1.37 13.155 2.467 4.388.913 8.588 2.01 12.609 3.289 4.02 1.279 7.49 2.65 10.415 4.111 0 4.568-.914 9.319-2.74 14.253-1.827 4.934-4.295 8.588-7.402 10.963-14.436-6.395-26.95-9.593-37.548-9.593-4.75 0-8.499 1.188-11.239 3.564-2.74 2.192-4.11 5.116-4.11 8.77 0 5.665 4.567 10.142 13.706 13.43l16.719 6.03c12.057 4.203 21.013 9.96 26.86 17.268 5.848 7.31 8.772 15.806 8.772 25.49 0 12.974-4.845 23.39-14.53 31.246-9.685 7.675-23.57 11.513-41.659 11.513-17.726 0-34.356-4.478-49.883-13.431Zm150.807 48.031V.83C239.15.276 242.282 0 245.784 0c3.682 0 7.09.276 10.216.829v252.76c-3.127.552-6.534.83-10.216.83-3.502 0-6.634-.278-9.396-.83Z" fill="#1035BC"/></svg>