<svg xmlns="http://www.w3.org/2000/svg" preserveAspectRatio="xMidYMid" viewBox="0 0 256 233">
  <path d="M138.63 32.23a5.67 5.67 0 0 1 5.66 5.52V102.74a5.67 5.67 0 0 1-5.52 5.67H85.75a5.67 5.67 0 0 1-5.66-5.52V37.9a5.67 5.67 0 0 1 5.52-5.67h53.02Zm0 2.52H85.75a3.15 3.15 0 0 0-3.14 3.03V102.74c0 1.7 1.35 3.09 3.03 3.15h52.99c1.7 0 3.09-1.35 3.15-3.03V37.9a3.15 3.15 0 0 0-3.15-3.15ZM93.31 92.67v3.77h-3.78v-3.77h3.78Zm42.18 0v3.77h-40.3v-3.77h40.3ZM93.3 76.3v3.78h-3.78V76.3h3.78Zm42.18 0v3.78h-40.3V76.3h40.3ZM93.3 60.56v3.78h-3.78v-3.78h3.78Zm42.18 0v3.78h-40.3v-3.78h40.3Zm0-14.48v3.78H89.53v-3.78h45.96ZM138.63 121.62v.04a5.67 5.67 0 0 1 5.66 5.48V192.13a5.67 5.67 0 0 1-5.52 5.66H85.75a5.67 5.67 0 0 1-5.66-5.49V127.3a5.67 5.67 0 0 1 5.52-5.67h53.02Zm0 2.52H85.75a3.15 3.15 0 0 0-3.14 3.03V192.13c0 1.7 1.35 3.09 3.03 3.15h52.99c1.7 0 3.07-1.34 3.15-3.02V127.31c0-1.7-1.35-3.09-3.04-3.15h-.11v-.02Zm-45.32 57.93v3.78h-3.78v-3.78h3.78Zm42.18.03v3.72h-40.3v-3.72h40.3ZM93.3 165.7v3.78h-3.78v-3.77h3.78Zm42.18.03v3.72h-40.3v-3.72h40.3ZM93.3 149.97v3.78h-3.78v-3.78h3.78Zm42.18.03v3.72h-40.3V150h40.3Zm0-14.5v3.77H89.53v-3.78h45.96ZM153.88 70.32v3.14h18.88v85.53h-18.88v3.15H175.91V70.32h-3.15z" fill="#8E8F8F"/>
  <path d="M19.33 14.8c3.73-6.11 9.86-9.67 16.05-11.74l.85-.28.84-.25 1.27-.35.83-.21.42-.1.83-.2.41-.08.82-.17.8-.15.8-.14.8-.13.77-.11.76-.1.74-.1.73-.08.7-.07 1.03-.09.97-.07.92-.05 1-.04.92-.03h.56l.52-.01H54.76l.35.01.63.03.28.01v15.11c-13.37-1.27-19.33 2.77-21.96 7.07l-.24.4c-.34.61-.62 1.22-.84 1.82l-.15.4a14 14 0 0 0-.06.2l-.12.38-.11.38-.1.38-.04.19-.08.36-.03.18-.06.35-.05.34-.04.33-.05.47-.03.44-.02.34v.87l.01.23.02.28.03.33v5.56l-.03 11.33-.04 8.17-.05 6.87-.05 5.81-.05 4.57-.06 4.46-.06 3.8-.07 4.01-.05 2.1-.05 1.98-.07 2.2-.02.7v2.05l-.02.53-.02.8-.03.77-.02.47-.04.47-.03.47-.07.72-.06.47-.06.48-.07.47-.04.24-.08.48-.05.24-.1.47-.1.48-.13.47-.13.47-.15.47-.16.46-.17.47c-1.94 5-6.32 9.45-16.25 11.52 9.66 2 14.07 6.27 16.09 11.1l.18.46c.18.46.34.93.47 1.4l.14.47.23.95.1.48.04.24.08.48.08.48.06.47.06.48.05.48.04.47.04.48.04.7.03.48.02.79.01.52.01.51v.77l.01 1.27.07 2.21.06 2.34.05 2.5.06 2.66.05 3.25.07 5.38.05 4.55.03 2.57.05 6.54.06 9.71.04 10.52.02-.01v9.32l-.02.13-.02.2v.18l-.02.33V202.9l.01.34.03.44.03.3.06.48.05.34.06.34.07.36.04.18.08.37.05.18.1.38.12.38.07.2.14.39.15.4.17.39c2.1 4.7 7.64 9.8 21.96 8.63l.79-.07v15.11l-.4.02-.75.02-.61.01H53l-.6-.01-.63-.02-.82-.04-.58-.02-.6-.04-.63-.04-.64-.05-.67-.06-.68-.07-.7-.08-.72-.08-.74-.1-.37-.05-.76-.12a60.7 60.7 0 0 1-.38-.06l-.77-.13-.39-.07-.79-.15-.4-.08-.8-.17-.8-.19-.8-.2-.82-.21c-7.5-2.05-15.36-6.08-19.41-14 .88-9.71 4.87-18 12.06-23.16.33-.24.68-.47 1.02-.7l.4-.24c-.5.3-.97.62-1.44.95-7.17 5.15-11.16 13.44-12.04 23.12a26.57 26.57 0 0 1-2.76-11.7l-.1-4.17-.1-5.05-.16-5.91-.2-7.54-.18-6.53-.25-8.56-.28-9.17-.48-14.42-.11-3.35c-.29-7.57-3.32-11.26-6.49-13.04l-.37-.2a11.7 11.7 0 0 0-.19-.1l-.37-.17-.37-.16-.37-.14c-.12-.05-.24-.1-.36-.13l-.37-.12-.35-.1-.29-.08-.27-.06-.28-.06-.27-.06-.39-.06-.25-.04-.24-.03-.36-.04h-.31l-.64-.01H0v-17.7c.83.02 1.57 0 2.3-.03l.35-.04.24-.03.25-.04.4-.07.26-.05.28-.06.27-.07.29-.07.35-.1.37-.12.36-.13c3.68-1.38 7.83-4.91 8.16-13.82l.43-12.8.33-10.47.18-5.94.27-9.53.19-6.62.13-5.05.16-6.76.1-4.2.07-3.33c.1-5.25 1.4-9.5 3.46-12.97l.13-.22v-.01Zm180.64.37V.05l.41-.02.57-.02h.36l.65-.01h1.03l.83.02 1.06.04.57.03.6.03.93.07.64.05.67.06.68.07.7.07.72.1.74.1.74.1.76.12.38.07.78.13.78.16.8.16.8.18.8.2 1.21.31.82.23c7.6 2.24 15.43 6.6 19.1 15.03 1.4 3.3 2.14 6.84 2.16 10.42l.1 4.17.1 5.05.1 3.38.12 5.06.18 6.66.14 4.89.25 8.55.28 9.17.48 14.42.11 3.35c.29 7.7 3.43 11.38 6.65 13.12l.37.2.18.09.37.17.37.15.19.07.36.13.18.06.36.11.18.05.53.14.34.08.33.06.33.06.25.03.24.04.36.04c.62.03 1.26.04 1.94.03l.35-.01v17.72a25.2 25.2 0 0 0-2.3.02l-.23.03-.24.03-.37.05-.4.07-.26.05-.28.06-.27.07-.29.07-.17.05-.36.11-.19.06-.36.13-.19.07-.37.16c-3.52 1.52-7.28 5.13-7.6 13.59l-.43 12.8-.33 10.47-.18 5.94-.27 9.52-.19 6.63-.13 5.05-.16 6.75-.1 4.2-.07 3.33a27.7 27.7 0 0 1-1.63 9.14l-.13.34v.03c-3.76 9.74-12.88 14.31-21.3 16.44l-.82.2-.41.1-.82.18-.4.08-.81.16-.4.08-.79.13-.39.07-.77.12-.76.1-.74.1-.73.09-.71.07-.7.07-1 .08-.63.05-.92.05-.86.04-1.05.03h-.6l-.54.01H201l-.47-.02-.4-.02h-.15V216.7c14 1.33 19.88-3.16 22.31-7.68l.21-.4.2-.4.17-.4.15-.4.15-.4.13-.4.05-.19.11-.38.1-.38.08-.37.07-.36.06-.35.05-.34.04-.33.05-.47.02-.3.03-.48v-.87l-.01-.23-.01-.2-.03-.28-.01-.13v-8.29l.02-7.72.04-7.96.04-6.71.06-6.85.07-6.15.05-3.57.04-2.88.06-3.3.05-2.1.04-1.98.05-1.88.07-2.16v-2.05l.02-.52v-.53l.04-.8.02-.53.03-.47.04-.48.04-.48.05-.48.05-.48.07-.48.03-.24.08-.48.09-.48.1-.48.1-.48c.13-.56.29-1.11.47-1.66l.16-.47c.23-.63.49-1.24.8-1.85l.23-.45c2.29-4.2 6.73-7.8 15.36-9.6-10.89-2.25-15.1-7.38-16.74-12.96l-.14-.47-.23-.95-.1-.47-.04-.24-.08-.48-.08-.48-.06-.48-.06-.47-.05-.48-.04-.48-.04-.47-.04-.71-.03-.47-.02-.79-.01-.52-.01-.52v-.76l-.01-1.27-.05-1.48-.05-1.88-.06-2.41-.05-2.58-.05-2.7-.06-3.8-.07-5.44-.05-5.09-.05-5.9-.06-10.48-.04-11.36c.86-.47 1.7-1 2.5-1.56 4-2.87 7.01-6.73 9.05-11.28l.14-.32a27.51 27.51 0 0 1-9.2 11.6c-.68.48-1.37.92-2.08 1.33l-.43.24V30.9l.02-.13.02-.2v-.17l.02-.34V29.2l-.01-.34-.02-.29-.04-.45-.06-.48-.05-.34-.06-.34-.07-.36-.04-.18-.08-.36-.05-.2-.1-.37-.12-.38-.07-.2-.14-.39-.15-.39-.17-.4c-2.1-4.7-7.64-9.79-21.96-8.62l-.79.07Z" fill="#FE0902"/>
  <path d="m31.17 36.1.46.3.47.3v-5.55l-.01-.13-.02-.2-.01-.18-.02-.33V29.44l.02-.34.02-.29.02-.3.04-.32.04-.33.05-.34.06-.35.07-.36.04-.18.09-.38.1-.38.06-.19.12-.39a14 14 0 0 1 .06-.2l.15-.39c.22-.6.5-1.2.84-1.81l.24-.4c2.63-4.31 8.6-8.35 21.96-7.08V.3l-.28-.01-.48-.02-.32-.01-.8-.01h-.99l-.85.02-.78.02-.85.04-.92.05-.97.07-.68.06-1.05.1-.73.08-.74.1-.76.1-.78.11-.78.13-.8.14-.81.15-.82.17-.41.09-.83.19-.42.1-.83.21-1.27.35-.84.25-.85.28c-6.2 2.07-12.32 5.63-16.05 11.74 1.2 8.91 5.14 16.51 11.84 21.3Zm24.86 195.95v-15.11c-14.63 1.39-20.4-3.57-22.62-8.28l-.19-.4-.24-.6-.14-.4-.07-.2-.12-.39-.1-.38-.1-.38-.08-.37-.08-.36-.06-.35-.05-.34-.04-.33-.05-.47-.03-.44-.01-.34v-1.1l.02-.2.02-.28.02-.14v-9.31c-.53.32-1.05.66-1.55 1.02-7.19 5.16-11.18 13.45-12.06 23.17 4.05 7.9 11.91 11.94 19.4 13.99l.82.21.81.2.8.19.8.17.8.15.4.08.77.14.38.06.76.12.38.06.74.1.37.05.71.08.7.08.7.07.66.06.64.05.63.04.6.04.86.04.54.02.64.02H53l.54.01H54.88l.49-.02.66-.03ZM238.1 17.33C234.2 8.36 225.6 4 217.55 1.9l-.8-.2-.8-.19-.4-.09-.79-.16-.39-.08-.77-.15-.77-.14-.76-.12-.74-.11-.73-.1-.72-.1-.7-.07-.68-.07-.67-.06-.97-.08-.91-.06-.87-.05-.82-.03-.5-.02-.62-.01h-.57l-.52-.01h-.88l-.5.02-.38.02-.32.01v15.12c14.63-1.4 20.4 3.56 22.62 8.28l.19.4.24.6.14.4.07.2.12.38.1.39.1.37.08.37.08.36.06.35.05.34.04.33.05.47.03.44.01.34v1.1l-.02.28-.04.34v8.43c.86-.48 1.7-1 2.5-1.56 6.5-4.65 10.39-11.91 11.72-20.45Zm-11.08 177.26c-1-.71-2.04-1.35-3.12-1.92v8.29l.01.13.02.2.01.18.02.33V202.66l-.03.5-.02.3-.05.46-.04.33-.05.34-.06.35-.07.36-.08.37-.1.38-.1.38-.06.2-.13.39-.15.4-.15.4-.18.4-.19.4-.2.4c-2.44 4.52-8.33 9.01-22.32 7.68v15.11l.22.01.65.03.79.01H202.95l.6-.01.66-.02.81-.03.87-.05.6-.04.95-.07.66-.06.68-.06.69-.08.71-.08.72-.1.74-.1.75-.12.38-.06.77-.13.78-.15.39-.08.79-.17.4-.08.8-.2c8.55-2.06 17.96-6.63 21.8-16.56-1.51-7.93-5.35-14.64-11.47-19.02Z" fill="#FFAB00"/>
</svg>
