<svg viewBox="0 0 91 34" fill="none" xmlns="http://www.w3.org/2000/svg"><path d="M14.05 8.11L7.02 4.06 0 8.1V4.06L7.03 0l7.02 4.06V8.1z" fill="#A435F0"/><path d="M0 11.52h3.68v8.94a3.27 3.27 0 003.35 3.44 3.3 3.3 0 003.34-3.47v-8.91h3.68v9.15c0 2.13-.67 3.77-2 4.9a7.55 7.55 0 01-5.06 1.67 7.4 7.4 0 01-5.01-1.67C.67 24.44 0 22.87 0 20.77v-9.25zm45.87 11.11a5.57 5.57 0 01-3.83 1.48c-2.64 0-4.41-1.5-4.61-3.83h11.89s.08-.76.08-1.46c0-2.2-.7-4.02-2.13-5.5a7.13 7.13 0 00-5.45-2.23 7.9 7.9 0 00-5.78 2.22 7.93 7.93 0 00-2.25 5.87v.12c0 2.4.76 4.32 2.25 5.75a8.17 8.17 0 005.87 2.16c2.8 0 5.02-1.1 6.69-3l-2.73-1.58zm-7-7.46a4.7 4.7 0 012.95-.98c1.07 0 1.95.34 2.7 1a3 3 0 011.16 2.23h-8.16c.12-.9.57-1.64 1.35-2.25zm44.04 14.1C81.41 32.8 79.86 34 77.46 34H75.8v-3.26h1.34c.83 0 1.6-.31 2.32-2l.73-1.68-6.3-15.54h3.75L82.1 22.7l4.6-11.2h3.73L82.9 29.27zM28.38 5.66v7.26a7.58 7.58 0 00-4.9-1.73c-2.16 0-3.98.76-5.47 2.31a7.87 7.87 0 00-2.2 5.69 8 8 0 002.2 5.72 7.37 7.37 0 005.47 2.28c2.5 0 4.06-.98 4.9-1.75v1.42h3.65V5.65h-3.65zm-1.1 16.88c-.88.88-2 1.34-3.31 1.34a4.4 4.4 0 01-3.26-1.34c-.85-.89-1.27-2.01-1.27-3.35 0-1.34.42-2.46 1.27-3.34.88-.89 1.95-1.34 3.26-1.34s2.43.45 3.31 1.34c.91.88 1.37 2 1.37 3.34 0 1.34-.46 2.47-1.37 3.35zM68.22 11.2a6.39 6.39 0 00-5.2 2.26c-.4-.75-1.5-2.26-4.1-2.26a5.17 5.17 0 00-4.14 1.9v-1.59h-3.62v15.33h3.62v-8.82c0-2.07 1.28-3.56 2.98-3.56 1.74 0 2.74 1.3 2.74 3.4v8.98h3.62v-8.82c0-2.1 1.24-3.56 3.04-3.56 1.73 0 2.73 1.3 2.73 3.4v8.97h3.65v-9.48c0-4-2.14-6.15-5.32-6.15z" fill="#000"/></svg>