<svg xmlns="http://www.w3.org/2000/svg" width="60" height="60" viewBox="0 0 60 60"><rect width="60" height="60" fill="#ecdc5a"/><path d="m49.531 39.264c0.6069 0.8036 0.8749 1.7208 0.9878 2.6858 0.0609 0.5205 0.0786 1.0482 0.0806 1.5728 0.0084 2.2087 2e-3 4.4175 0.0047 6.6262 7e-4 0.5087-0.165 0.9205-0.6318 1.1724-0.7337 0.396-1.6298-0.12-1.646-0.9536-0.0105-0.533-0.0016-1.0663-0.0022-1.5995-0.0021-1.9455 0.0036-3.8911-0.0112-5.8366-0.0053-0.7048-0.1396-1.3893-0.5318-1.9958-0.4179-0.6462-1.0272-0.9961-1.7812-1.0819-1.548-0.1764-2.8278 0.3344-3.8161 1.544-0.424 0.5192-0.5923 1.1289-0.5916 1.7939 0.0023 2.361 0.0029 4.7221-2e-4 7.0832-0.0011 0.823-0.7454 1.3641-1.5257 1.1184-0.4449-0.14-0.7377-0.5776-0.7511-1.1301-0.0051-0.2145-8e-4 -0.4292-8e-4 -0.6439 0-3.4412 0.0013-6.8825-0.0017-10.324-3e-4 -0.4594 0.1356-0.8502 0.5334-1.1044 0.3581-0.2287 0.746-0.2472 1.1254-0.0529 0.3872 0.1983 0.5917 0.5282 0.6199 0.9635 0.0057 0.0888 8e-4 0.1783 8e-4 0.3009 0.0755-0.0614 0.1327-0.1037 0.1851-0.1512 0.9699-0.8798 2.0921-1.4564 3.402-1.5747 1.5104-0.1365 2.9291 0.1023 4.0556 1.2479 0.1017 0.1034 0.1922 0.2177 0.2961 0.3393z" fill="#111827"/><path d="m35.178 38.02c0.6261 0.1088 1.0031 0.5342 1.0023 1.1753-0.0027 2.5549 0.0271 5.111-0.0459 7.664-0.0498 1.7414-0.8349 3.1359-2.3782 4.0327-0.6535 0.3798-1.3708 0.5846-2.1212 0.6729-0.9712 0.1143-1.9406 0.0977-2.8816-0.1753-1.4951-0.4338-2.6095-1.3251-3.2066-2.8016-0.3148-0.7784-0.4036-1.5938-0.4062-2.4207-0.0071-2.3127-0.0041-4.6255-0.0016-6.9382 8e-4 -0.7577 0.5132-1.2527 1.24-1.2101 0.5867 0.0343 1.0352 0.5646 1.0367 1.2397 0.0032 1.371-2e-4 2.7421 0.0014 4.1131 0.0012 1.0594-0.0052 2.119 0.0135 3.1781 0.0092 0.523 0.1332 1.0288 0.388 1.4925 0.3553 0.647 0.8995 1.0542 1.6092 1.2469 0.9356 0.2539 1.866 0.2416 2.7697-0.1149 0.9275-0.3657 1.4444-1.0879 1.6177-2.0518 0.0657-0.3653 0.0851-0.743 0.0864-1.1152 0.0076-2.2504 3e-3 -4.5008 0.0043-6.7512 4e-4 -0.6275 0.2999-1.0596 0.8434-1.2041 0.1304-0.0347 0.2731-0.0232 0.4287-0.0321z" fill="#111827"/></svg>
