<svg xmlns="http://www.w3.org/2000/svg" fill="none" viewBox="0 0 256 256"><path fill="#fff" fill-rule="evenodd" d="M201.2 145.8a75 75 0 01-41.7 50.7l-12-13.6-20.5 20.5A75.4 75.4 0 0167.4 173c2.2.6 4.4 1 6.7 1.2 3.3 0 7-1.1 7-6.8V112a9.1 9.1 0 00-11.5-9.1c-9.5 2.2-17 25.8-17 25.8a75 75 0 0164.2-75.2c-10.3 6-16 15.5-16 23.5 0 13 7.7 11.4 10 9.5v74.8a11.9 11.9 0 005.5 6 11 11 0 005 1.2c7.9 0 18-9 18-9V99a21 21 0 00-9.3-16.2s8.6-1.5 15.3 3.6a75 75 0 0146.2-26s-22.1 17.3-22.1 40.6c0 17.3.4 59.6.4 59.6 8.2 7.9 20.4-3.6 31.4-14.8z" clip-rule="evenodd"/><path fill="#fff" fill-rule="evenodd" d="M128 4.8a123.2 123.2 0 100 246.4 123.2 123.2 0 000-246.4zm0 241.5a118.3 118.3 0 110-236.6 118.3 118.3 0 010 236.6z" clip-rule="evenodd"/></svg>