<svg xmlns="http://www.w3.org/2000/svg" width="452" height="520" fill="none" viewBox="0 0 452 520"><path fill="#fff" d="M274.857 481.4a169.402 169.402 0 0 1-47.885 7.192h-2.302a167.852 167.852 0 0 1-48.23-7.307 14.403 14.403 0 0 0-16.743 20.684 14.403 14.403 0 0 0 8.57 6.932 199.887 199.887 0 0 0 56.403 8.458h2.302a197.496 197.496 0 0 0 56.058-8.4 14.392 14.392 0 0 0 8.969-6.832 14.366 14.366 0 0 0 1.288-11.198 14.384 14.384 0 0 0-12.722-10.256 14.4 14.4 0 0 0-5.708.727Zm125.64-354.012v-.863a183.712 183.712 0 0 0-66.922-91.657A183.81 183.81 0 0 0 225.555 0a183.812 183.812 0 0 0-107.906 35.224 183.713 183.713 0 0 0-66.62 91.876v.345c-16.23 47.697-10.36 111.56 15.828 171.052 35.799 81.354 100.777 138.083 158.331 138.083h1.611c57.554 0 122.533-56.557 158.331-138.083 25.842-59.376 31.713-123.355 15.367-171.109Zm-84.431-69.617c-29.123-1.093-60.777 11.507-90.245 36.132-29.813-24.625-61.468-37.226-90.59-36.132a155.952 155.952 0 0 1 180.835 0Zm-66.648 344.806a56.017 56.017 0 0 1-47.539 0c-49.094-22.611-58.993-113.516-21.698-198.323a258.174 258.174 0 0 1 45.64-70.652 256.242 256.242 0 0 1 45.525 70.652c37.065 84.807 27.166 175.712-21.928 198.323ZM92.871 287.105C69.39 233.827 64.094 177.788 78.138 136.421c7.482-21.691 20.086-37.11 36.374-44.647 25.496-11.795 58.532-3.452 90.187 22.151a285.733 285.733 0 0 0-50.82 78.707c-25.209 57.535-30.792 116.163-19.166 161.788a272.87 272.87 0 0 1-41.842-67.315Zm265.554 0a274.317 274.317 0 0 1-41.841 67.373c11.51-45.683 5.755-104.598-19.166-161.846a285.756 285.756 0 0 0-50.82-78.707c31.655-25.603 64.633-33.946 90.129-22.151 16.346 7.537 28.777 23.014 36.432 44.647 14.216 41.08 8.691 97.406-14.964 150.684h.23Z"/></svg>