<?xml version="1.0" encoding="UTF-8"?>
<svg id="Layer_1" data-name="Layer 1" xmlns="http://www.w3.org/2000/svg" viewBox="0 0 432 216">
  <rect width="432" height="216" style="fill: none;"/>
  <g>
    <g>
      <path d="M33.98,154.93h2.77l-2.57,10.75c-.38,1.59-.31,2.8.22,3.6.53.8,1.51,1.2,2.94,1.2s2.59-.4,3.5-1.2c.91-.8,1.56-2,1.94-3.6l2.57-10.75h2.81l-2.64,11.02c-.57,2.39-1.59,4.19-3.06,5.37-1.46,1.19-3.38,1.78-5.75,1.78s-4-.59-4.89-1.78c-.89-1.18-1.04-2.98-.47-5.38l2.64-11.02Z" style="fill: #71716f;"/>
      <path d="M47.77,172.64l4.41-18.41,8.37,10.82c.22.3.45.63.67.98.22.35.45.74.68,1.17l2.94-12.27h2.59l-4.4,18.39-8.55-11.02c-.23-.3-.44-.61-.64-.94-.2-.33-.38-.68-.55-1.04l-2.95,12.31h-2.58Z" style="fill: #71716f;"/>
      <path d="M67.21,172.64l4.24-17.7h2.8l-4.24,17.7h-2.8Z" style="fill: #71716f;"/>
      <path d="M74.05,172.64l4.24-17.7h9.63l-.58,2.44h-6.83l-1.06,4.41h6.83l-.6,2.53h-6.83l-1.99,8.32h-2.8Z" style="fill: #71716f;"/>
      <path d="M86.77,172.64l4.24-17.7h2.8l-4.24,17.7h-2.8Z" style="fill: #71716f;"/>
      <path d="M93.61,172.64l4.24-17.7h9.63l-.58,2.44h-6.83l-1.06,4.44h6.83l-.6,2.53h-6.83l-1.37,5.72h6.83l-.62,2.58h-9.63Z" style="fill: #71716f;"/>
      <path d="M106.45,172.64l4.24-17.7h3.78c2.46,0,4.16.13,5.1.38.94.25,1.72.68,2.33,1.28.81.78,1.33,1.79,1.55,3.01.22,1.23.14,2.62-.23,4.2-.38,1.57-.97,2.96-1.77,4.18-.8,1.21-1.8,2.21-2.99,3-.9.6-1.86,1.02-2.88,1.28-1.02.25-2.55.38-4.59.38h-4.54ZM109.88,170.04h2.36c1.3,0,2.29-.09,2.98-.27.69-.18,1.32-.48,1.91-.9.79-.57,1.45-1.28,1.98-2.13.53-.85.93-1.84,1.2-2.97.27-1.13.34-2.12.22-2.97-.12-.85-.44-1.56-.96-2.14-.39-.42-.9-.72-1.54-.9-.64-.18-1.68-.27-3.12-.27h-2.03l-3,12.53Z" style="fill: #71716f;"/>
      <path d="M136.14,164.69l-1.9,7.95h-2.63l4.24-17.7h4.24c1.26,0,2.17.07,2.73.21.56.14,1.02.37,1.38.7.44.41.73.97.87,1.66.14.7.11,1.47-.09,2.3-.2.84-.54,1.61-1.02,2.32-.48.71-1.03,1.27-1.67,1.67-.52.32-1.09.55-1.71.69-.63.14-1.57.21-2.82.21h-1.62ZM136.88,162.33h.72c1.56,0,2.63-.17,3.24-.52.6-.35,1.01-.96,1.22-1.84.23-.94.11-1.61-.35-1.99-.46-.39-1.43-.58-2.92-.58h-.72l-1.18,4.94Z" style="fill: #71716f;"/>
      <path d="M154.54,172.64l-.87-4.56h-6.84l-3.09,4.56h-2.95l12.76-18.41,3.94,18.41h-2.96ZM148.45,165.68h4.81l-.8-4.04c-.04-.26-.07-.55-.1-.89-.03-.33-.05-.71-.06-1.12-.19.39-.37.75-.56,1.08-.19.33-.37.64-.55.92l-2.73,4.04Z" style="fill: #71716f;"/>
      <path d="M161.52,172.64l1.94-8.1-3.51-9.6h2.95l2.18,6.01c.05.15.11.36.18.61.07.25.14.52.2.81.18-.28.36-.55.54-.8.18-.25.36-.48.55-.69l5.13-5.94h2.81l-8.24,9.6-1.94,8.1h-2.78Z" style="fill: #71716f;"/>
      <path d="M188.28,163.89c0-.14.04-.52.12-1.14.06-.52.11-.94.14-1.28-.17.4-.36.81-.59,1.21s-.49.81-.78,1.23l-6.77,9.43-2.21-9.63c-.09-.4-.17-.78-.21-1.15-.05-.37-.08-.74-.1-1.1-.1.37-.22.76-.37,1.17-.15.41-.33.83-.53,1.28l-3.94,8.72h-2.58l8.5-18.45,2.42,11.17c.04.18.09.47.15.88.06.41.13.92.22,1.52.29-.51.7-1.15,1.24-1.94.14-.21.25-.37.33-.48l7.65-11.16-.24,18.45h-2.61l.18-8.74Z" style="fill: #71716f;"/>
      <path d="M192.94,172.64l4.24-17.7h9.63l-.58,2.44h-6.83l-1.06,4.44h6.83l-.6,2.53h-6.83l-1.37,5.72h6.83l-.62,2.58h-9.63Z" style="fill: #71716f;"/>
      <path d="M205.79,172.64l4.41-18.41,8.37,10.82c.22.3.45.63.67.98.22.35.45.74.68,1.17l2.94-12.27h2.59l-4.4,18.39-8.55-11.02c-.23-.3-.44-.61-.64-.94-.2-.33-.38-.68-.55-1.04l-2.95,12.31h-2.58Z" style="fill: #71716f;"/>
      <path d="M234.41,157.38l-3.65,15.26h-2.8l3.65-15.26h-4.58l.58-2.44h11.95l-.58,2.44h-4.56Z" style="fill: #71716f;"/>
      <path d="M237.32,169.09l2.49-1.06c.02.79.27,1.39.73,1.81.47.42,1.14.62,2.02.62.83,0,1.55-.24,2.16-.71.6-.47,1-1.11,1.19-1.91.25-1.04-.37-1.97-1.86-2.78-.21-.12-.37-.21-.48-.27-1.67-.95-2.74-1.81-3.18-2.58-.45-.77-.54-1.71-.27-2.82.35-1.44,1.1-2.61,2.27-3.51,1.17-.9,2.53-1.34,4.08-1.34,1.27,0,2.28.25,3.01.76.74.5,1.16,1.23,1.26,2.17l-2.47,1.16c-.21-.56-.5-.96-.85-1.22-.35-.26-.79-.39-1.33-.39-.75,0-1.4.2-1.94.6-.54.4-.89.94-1.05,1.62-.25,1.07.48,2.06,2.21,2.98.13.07.24.13.31.17,1.51.8,2.5,1.59,2.95,2.36.45.77.54,1.73.27,2.88-.4,1.68-1.23,3.01-2.5,4-1.27.99-2.78,1.48-4.53,1.48-1.47,0-2.59-.35-3.36-1.04-.77-.69-1.15-1.68-1.13-2.97Z" style="fill: #71716f;"/>
      <path d="M258.05,172.64l4.24-17.7h2.8l-4.24,17.7h-2.8Z" style="fill: #71716f;"/>
      <path d="M264.88,172.64l4.41-18.41,8.37,10.82c.22.3.45.63.67.98.22.35.45.74.68,1.17l2.94-12.27h2.59l-4.4,18.39-8.55-11.02c-.23-.3-.44-.61-.64-.94-.2-.33-.38-.68-.55-1.04l-2.95,12.31h-2.58Z" style="fill: #71716f;"/>
      <path d="M293.5,157.38l-3.65,15.26h-2.8l3.65-15.26h-4.58l.58-2.44h11.95l-.58,2.44h-4.56Z" style="fill: #71716f;"/>
      <path d="M296.56,172.64l4.24-17.7h9.63l-.58,2.44h-6.83l-1.06,4.44h6.83l-.6,2.53h-6.83l-1.37,5.72h6.83l-.62,2.58h-9.63Z" style="fill: #71716f;"/>
      <path d="M313.93,164.72l-1.9,7.92h-2.63l4.24-17.7h3.91c1.15,0,2.02.08,2.61.23.6.15,1.08.41,1.44.76.43.43.71.98.84,1.66.13.68.1,1.42-.1,2.22-.34,1.42-.94,2.53-1.8,3.33-.86.8-1.96,1.28-3.3,1.44l4.01,8.05h-3.17l-3.84-7.92h-.32ZM314.64,162.48h.51c1.48,0,2.51-.18,3.09-.53.57-.35.97-.98,1.18-1.89.23-.97.14-1.66-.29-2.06-.43-.4-1.35-.6-2.76-.6h-.51l-1.22,5.08Z" style="fill: #71716f;"/>
      <path d="M322.93,172.64l4.24-17.7h9.63l-.58,2.44h-6.83l-1.06,4.41h6.83l-.6,2.53h-6.83l-1.99,8.32h-2.8Z" style="fill: #71716f;"/>
      <path d="M346.14,172.64l-.87-4.56h-6.84l-3.09,4.56h-2.95l12.76-18.41,3.94,18.41h-2.96ZM340.05,165.68h4.81l-.8-4.04c-.04-.26-.07-.55-.11-.89-.03-.33-.05-.71-.06-1.12-.19.39-.37.75-.56,1.08-.19.33-.37.64-.55.92l-2.73,4.04Z" style="fill: #71716f;"/>
      <path d="M367.36,159.24c-.63-.69-1.34-1.21-2.14-1.56-.8-.35-1.69-.52-2.66-.52-1.89,0-3.57.62-5.05,1.86-1.48,1.24-2.46,2.85-2.93,4.83-.46,1.91-.26,3.49.6,4.73.85,1.24,2.16,1.86,3.91,1.86,1.02,0,2.04-.19,3.05-.56,1.01-.37,2.03-.93,3.06-1.68l-.78,3.25c-.89.56-1.81.97-2.76,1.25-.95.27-1.95.41-2.99.41-1.32,0-2.49-.22-3.5-.67-1.01-.44-1.84-1.09-2.48-1.96-.64-.85-1.05-1.84-1.22-2.99-.18-1.15-.11-2.37.2-3.67.31-1.3.83-2.52,1.55-3.66.72-1.14,1.62-2.14,2.68-3,1.07-.87,2.21-1.53,3.42-1.98,1.21-.45,2.47-.67,3.76-.67,1.01,0,1.94.15,2.79.45.85.3,1.63.76,2.35,1.37l-.85,2.9Z" style="fill: #71716f;"/>
      <path d="M367.63,172.64l4.24-17.7h9.63l-.58,2.44h-6.83l-1.06,4.44h6.83l-.6,2.53h-6.83l-1.37,5.72h6.83l-.62,2.58h-9.63Z" style="fill: #71716f;"/>
    </g>
    <g>
      <g>
        <path d="M316.46,139.51h-19.28l26.82-96.86h19.28l-26.82,96.86Z" style="fill: #6e6f71;"/>
        <path d="M306.45,45.71c-1.34-1.84-3.4-2.77-6.2-2.77h-106.04l-5.25,18.97h19.29s77.17-.01,77.17-.01l-5.61,20.27h-77.17v-.04s-19.28,0-19.28,0l-16.01,57.79h19.3l10.74-38.79h86.75c2.71,0,5.26-.92,7.66-2.77,2.39-1.85,3.97-4.13,4.72-6.86l10.74-38.79c.78-2.82.51-5.15-.81-7Z" style="fill: #6e6f71;"/>
        <path d="M156.12,133.46c-1.07,3.83-4.56,6.49-8.54,6.49H48.09c-2.71,0-4.73-.92-6.05-2.77-1.32-1.85-1.61-4.13-.85-6.86l24.28-87.39h19.3l-21.68,78.05h77.21l21.68-78.05h19.3l-25.15,90.53Z" style="fill: #6e6f71;"/>
      </g>
      <g>
        <polygon points="376.59 42.83 401 91.38 349.68 139.92 376.59 42.83" style="fill: #0f8041;"/>
        <polygon points="359.47 42.83 383.87 91.38 332.52 139.92 359.47 42.83" style="fill: #e97726;"/>
      </g>
    </g>
  </g>
</svg>