<svg width="476" height="155" viewBox="0 0 476 155" xmlns="http://www.w3.org/2000/svg"><defs><linearGradient x1="0%" y1=".121%" x2="100%" y2="99.879%" id="a"><stop stop-color="#FF3367" offset="0%"/><stop stop-color="#FF3393" offset="26.795%"/><stop stop-color="#844FFF" offset="100%"/></linearGradient><linearGradient x1="0%" y1=".125%" x2="100%" y2="99.875%" id="b"><stop stop-color="#FF3367" offset="0%"/><stop stop-color="#FF3393" offset="26.795%"/><stop stop-color="#844FFF" offset="100%"/></linearGradient></defs><g fill="none" fill-rule="evenodd"><path d="M-41-47h557v249H-41z"/><g fill-rule="nonzero"><path fill="url(#a)" d="M9.545 145.455h130.169v9.09H.455V15.455h9.09z"/><path fill="url(#b)" d="M18.653 0h136.535v136.364H18.653z"/><path d="M82.005 49.09v43.82c0 .635-.273.908-.91.908h-9.102c-.637 0-.91-.273-.91-.909v-3.273c-3.732 3.091-7.92 5.091-13.745 5.091-9.921 0-15.929-5.909-15.929-15.363V49.09c0-.636.273-.91.91-.91h9.103c.637 0 .91.274.91.91v26.364c0 6.818 2.822 9.454 7.828 9.454 5.734 0 10.923-4.364 10.923-15.182V49.091c0-.636.273-.91.91-.91h9.102c.637 0 .91.274.91.91Zm5.644 61.82V49.09c0-.635.273-.908.91-.908h9.102c.638 0 .91.273.91.909v2.818c3.46-2.818 7.647-4.636 13.108-4.636 12.288 0 20.753 9.09 20.753 23.727 0 14.636-8.465 23.727-20.753 23.727-5.006 0-9.193-1.454-13.107-4.545v20.727c0 .636-.273.91-.91.91h-9.103c-.637 0-.91-.274-.91-.91ZM98.025 71c0 7.818 4.279 13.91 11.47 13.91 7.19 0 11.468-6.092 11.468-13.91 0-7.818-4.278-13.91-11.469-13.91-7.19 0-11.469 6.092-11.469 13.91Z" fill="#FFF"/><path d="M181.22 50.48V46.7c0-.49.21-.7.7-.7h13.51c.49 0 .7.21.7.7v43.12h10.22c.49 0 .7.21.7.7v3.78c0 .49-.21.7-.7.7h-25.83c-.49 0-.7-.21-.7-.7v-3.78c0-.49.21-.7.7-.7h10.15V51.18h-8.75c-.49 0-.7-.21-.7-.7Zm70.41 28.63h-26.32c.56 6.58 4.06 11.41 10.85 11.41 5.04 0 7.91-2.03 9.59-6.44.21-.56.49-.63.98-.63h4.55c.35 0 .49.21.49.49 0 .14 0 .28-.14.7-2.52 7.35-7.7 11.06-15.47 11.06-10.92 0-16.73-7.98-16.73-18.27s6.65-18.27 16.73-18.27c10.64 0 16.17 8.54 16.17 18.27v.98c0 .49-.21.7-.7.7Zm-15.47-14.77c-5.25 0-9.45 3.64-10.57 9.59h20.86c-1.12-5.74-5.25-9.59-10.29-9.59Zm59.91-3.36L283.82 94.3c-.21.49-.42.7-.84.7h-4.9c-.42 0-.63-.21-.84-.7l-12.25-33.32c-.07-.21-.07-.35-.07-.49 0-.42.28-.63.63-.63h4.76c.56 0 .84.21.98.7l9.24 27.02 9.24-27.02c.14-.49.42-.7.98-.7h4.76c.35 0 .63.21.63.63 0 .14 0 .28-.07.49Zm44.79 18.13h-26.32c.56 6.58 4.06 11.41 10.85 11.41 5.04 0 7.91-2.03 9.59-6.44.21-.56.49-.63.98-.63h4.55c.35 0 .49.21.49.49 0 .14 0 .28-.14.7-2.52 7.35-7.7 11.06-15.47 11.06-10.92 0-16.73-7.98-16.73-18.27s6.65-18.27 16.73-18.27c10.64 0 16.17 8.54 16.17 18.27v.98c0 .49-.21.7-.7.7Zm-15.47-14.77c-5.25 0-9.45 3.64-10.57 9.59h20.86c-1.12-5.74-5.25-9.59-10.29-9.59Zm31-13.86V46.7c0-.49.21-.7.7-.7h13.51c.49 0 .7.21.7.7v43.12h10.22c.49 0 .7.21.7.7v3.78c0 .49-.21.7-.7.7h-25.83c-.49 0-.7-.21-.7-.7v-3.78c0-.49.21-.7.7-.7h10.15V51.18h-8.75c-.49 0-.7-.21-.7-.7Zm70.41 28.63h-26.32c.56 6.58 4.06 11.41 10.85 11.41 5.04 0 7.91-2.03 9.59-6.44.21-.56.49-.63.98-.63h4.55c.35 0 .49.21.49.49 0 .14 0 .28-.14.7-2.52 7.35-7.7 11.06-15.47 11.06-10.92 0-16.73-7.98-16.73-18.27s6.65-18.27 16.73-18.27c10.64 0 16.17 8.54 16.17 18.27v.98c0 .49-.21.7-.7.7Zm-15.47-14.77c-5.25 0-9.45 3.64-10.57 9.59h20.86c-1.12-5.74-5.25-9.59-10.29-9.59Zm63.34-17.64v47.6c0 .49-.21.7-.7.7h-4.06c-.49 0-.7-.21-.7-.7v-3.29c-2.17 2.8-6.09 4.69-10.85 4.69-9.1 0-15.05-7.07-15.05-18.27s5.95-18.27 15.05-18.27c4.41 0 8.47 2.03 10.85 4.69V46.7c0-.49.21-.7.7-.7h4.06c.49 0 .7.21.7.7Zm-4.9 30.73c0-7.35-3.64-13.09-10.29-13.09-6.65 0-10.43 5.74-10.43 13.09s3.78 13.09 10.43 13.09 10.29-5.74 10.29-13.09Z" stroke="#000" stroke-width="1.2" fill="#000"/></g></g></svg>