<svg width="189" height="68" viewBox="0 0 189 68" xmlns="http://www.w3.org/2000/svg"><g fill-rule="nonzero" fill="none"><path fill="#F37" d="M21.433 40.928l-.968.12-1.555.19.363 2.962.471 3.845.457 3.72.248 2.026.31 2.535 1.393 11.372 28.85-3.551-2.878-23.497-.363-2.96z"/><path fill="#F37" d="M28.432 0L0 46.571l67.261-8.276z"/><path d="M53.34 34.136c-1.134.924-3.357 1.429-4.888 1.677-.36 4.372-.147 3.606 3.132 9.08.456.764.294 1.242-.457 1.68-.496.285-1.176.389-1.81.413.129 1.655-.048 5.021-3.545 7.31-3.512 2.3-5.493 1.959-7.514 1.432.131 1.374.795 2.8.68 3.865-.088.801-.14 2.75-6.112 4.407-5.67 1.574-12.285-.23-13.466-7.103.003 0 .007 0 .01-.002.81-.152 1.653-.537 2.226-1.496.974-1.625-.314-4.167-.562-6.218-.152-1.254-.099-3.336.002-4.392.198.856 1.199 4.015 7.545 3.378-6.006-.992-6.45-3.52-6.851-5.106-.4-1.583-.443-5.37-.618-7.206-.473 5.002-1.368 8.736-1.368 12.14 0 1.438.158 2.815.578 4.207.405 1.34.294 2.958-2.227 3.185a2.972 2.972 0 01-.775-.032c-2.586-.437-4.652-4.158-4.625-7.676.05-6.592.005-8.373-.374-13.481-.15-2.002.049-3.537.914-5.346.865-1.808 7.214-9.249 9.57-10.862 3.181-2.177 6.402-1.305 10.985-2.298 2.779-.601 5.735-1.77 7.657 1.794l.452.794c1.254-.127 2.579.48 5.024 3.817.9-.064 2.38-.308 3.515-.724 1.322-.486 2.503.538 2.32 2.616.634.115.977.49 1.46 1.564.524 1.17 1.133 3.162 1.204 4.098.073.937-.248 2.987-2.082 4.485" fill="#1D1D1B"/><path d="M45.878 22.636c-1.554.156-2.197.687-2.486 1.526-.189.55-.29 1.005-1.095.718-1.506-.544-2.36-.378-3.708-.038a.202.202 0 00-.042.01l-.21.06c-.912.266-1.672.876-2.199 1.668-1.638 2.463-4.78 3.372-9.157 3.704-2.425 1.625-4.423 3.405-5.786 4.86-.21-.997-2.684-4.057-2.684-4.057.482-.883 1.935-2.402 4.236-4.02.939-2.356 2.39-4.597 4.311-5.582 2.368-1.214 5.704-.586 7.575-.066.37.103.754.11 1.128.026a39.25 39.25 0 011.887-.372c.335-.057.653-.186.933-.378 1.225-.843 3.418-2.092 4.847-1.138a10.677 10.677 0 012.347 2.163c.202.219.57.868.104.916" fill="#F37"/><path d="M43.866 24.999c.318-1.164 1.2-1.77 3.391-1.95 2.192-.18 3.2-1.423 4.232-.651 1.03.772.622 4.452-1.245 5.568-2.13 1.272-6.873-1.16-6.378-2.967" fill="#FFF"/><path d="M27.73 27.012c0-.798.258-2.514 1.799-3.203 2.035-.91 3.729.429 4.022.698.322.297.107.467-.21.373-.849-.25-1.867-.318-2.833.119-1.125.507-1.69 1.155-2.1 2.004-.258.533-.678.592-.678.01m13.718-4.377c.027-.41.07-1.533 1.047-1.774.791-.194 1.403.337 1.745.959.159.286.087.34-.144.168a1.524 1.524 0 00-1.312-.254c-.42.13-.77.424-.97.816-.146.307-.383.34-.366.085" fill="#1D1D1B"/><path d="M50.233 30.914c0 2.182 2.643 1.091 2.643 2.182 0 0-.207 1.585-4.123 2.045-2.618.309-3.417 1.7-3.53 2.775-.08.785-.033 1.724.963 3.05-.698.077-1.495.381-2.043.717-.664-.509-1.816-.782-3.497-.449-1.888.377-3.13 1.188-3.832 1.965h.002-.002c-1.772-.688-2.596-3.364-3.184-4.717-.388-.9-.455-1.516-.423-1.942 3.04.288 4.695-1.332 6.667-1.332 2.025 0 10.36.82 10.36-4.294m-2.482 18.369c-.843 2.738-3.169 4.388-5.74 4.843-2.576.456-5.368-.442-5.414-2.153 0-1.358 2.09-1.922 3.042-3.316.955-1.394.613-2.93.379-3.704-.264-.87-.927-1.018-2.069-1.061.967-.886 3.28-1.698 4.962-1.383.73.798 1.444 2.202 1.444 4.123 0 2.009-.851 2.828-1.187 3.316-.338.488.09.469.56.106.44-.34 1.855-1.482 1.9-3.481.036-1.558-.196-2.872-.839-3.986.737-.417 1.5-.494 2.351-.308 1.13 1.507 1.297 4.77.61 7.004m-19.17-1.116c-6.346.637-7.347-2.522-7.545-3.378-.1 1.056-.154 3.138-.002 4.393.248 2.05 1.536 4.592.562 6.217-.212.363-.497.679-.838.927l-.31-2.536c.11-.506.03-1.067-.126-1.587a8.961 8.961 0 01-.121-.438c-.326-1.228-.455-2.45-.457-3.72v-.05c0-1.236.117-2.518.292-3.89.123-.968.272-1.983.429-3.057.227-1.583.468-3.297.647-5.193.117 1.23.175 3.34.321 5.073.072.851.166 1.611.297 2.133.064.25.128.523.215.81.464 1.535 1.575 3.46 6.636 4.296" fill="#FFF"/><g fill="#F37"><path d="M93.56 54.432c8.352 0 13.44-5.088 13.44-14.112V20.4h-5.76v19.92c0 5.904-2.88 8.736-7.68 8.736-4.752 0-7.68-2.928-7.68-8.736V20.4h-5.76v19.92c0 9.12 4.992 14.112 13.44 14.112zM125.816 54.432c5.472 0 9.504-4.032 9.504-11.664v-1.536c0-7.68-3.984-11.664-9.504-11.664-3.36 0-6 1.2-7.68 3.696L117.608 30h-4.368v33.6h5.568v-12c1.68 1.92 4.08 2.832 7.008 2.832zm-1.68-5.184c-3.072 0-5.328-2.256-5.328-6.48v-1.824c.096-4.032 2.304-6.192 5.328-6.192 3.264 0 5.328 2.064 5.328 6.48v1.536c0 4.512-1.968 6.48-5.328 6.48zM152.696 54.432c5.472 0 9.504-4.032 9.504-11.664v-1.536c0-7.68-3.984-11.664-9.504-11.664-3.36 0-6 1.2-7.68 3.696L144.488 30h-4.368v33.6h5.568v-12c1.68 1.92 4.08 2.832 7.008 2.832zm-1.68-5.184c-3.072 0-5.328-2.256-5.328-6.48v-1.824c.096-4.032 2.304-6.192 5.328-6.192 3.264 0 5.328 2.064 5.328 6.48v1.536c0 4.512-1.968 6.48-5.328 6.48zM170.12 63.6h5.76L188.6 30h-5.76l-6.144 17.184L170.168 30h-6.048l9.648 24z"/></g></g></svg>