<svg viewBox="0 0 256 341" xmlns="http://www.w3.org/2000/svg" width="256" height="341" preserveAspectRatio="xMidYMid"><path fill="#00C98D" d="M0 298.417c56.554 56.553 148.247 56.553 204.801 0 56.554-56.554 56.554-148.247 0-204.801l-25.6 25.6c42.415 42.416 42.415 111.185 0 153.6-42.416 42.416-111.185 42.416-153.601 0L0 298.416Z"/><path fill="#00C98D" d="M51.2 247.216c28.277 28.277 74.123 28.277 102.4 0 28.277-28.276 28.277-74.123 0-102.4l-25.6 25.6c14.14 14.138 14.14 37.061 0 51.2-14.138 14.139-37.061 14.139-51.2 0l-25.6 25.6ZM256 42.415c-56.554-56.553-148.247-56.553-204.8 0-56.555 56.555-56.555 148.247 0 204.801l25.599-25.6c-42.415-42.415-42.415-111.185 0-153.6 42.416-42.416 111.185-42.416 153.6 0L256 42.416Z"/><path fill="#00C98D" d="M204.8 93.616c-28.276-28.277-74.124-28.277-102.4 0-28.278 28.277-28.278 74.123 0 102.4l25.6-25.6c-14.14-14.138-14.14-37.061 0-51.2 14.138-14.139 37.06-14.139 51.2 0l25.6-25.6Z"/><path fill="#FFF" fill-opacity=".4" d="M256 42.415c-56.554-56.553-148.247-56.553-204.8 0-56.555 56.555-56.555 148.247 0 204.801l25.599-25.6c-42.415-42.415-42.415-111.185 0-153.6 42.416-42.416 111.185-42.416 153.6 0L256 42.416Z"/><path fill="#FFF" fill-opacity=".4" d="M204.8 93.616c-28.276-28.277-74.124-28.277-102.4 0-28.278 28.277-28.278 74.123 0 102.4l25.6-25.6c-14.14-14.138-14.14-37.061 0-51.2 14.138-14.139 37.06-14.139 51.2 0l25.6-25.6Z"/></svg>