<svg xmlns="http://www.w3.org/2000/svg" fill="none" viewBox="0 0 1491 970"><path fill="#fff" d="M350 340c-6-5-11-10-14-17-3-12-1-24 2-35 7-19 18-36 28-53 11-18 25-34 39-50 27-33 59-61 93-87 36-28 75-52 119-65 24-7 49-10 73-5 47 10 77 54 70 104-5 42-21 81-36 120l-53 127-1 1 2 1 51-16 13-3c19-5 38-5 53 11s15 36 10 56c-2 8-10 25-9 27l3-2c28-25 58-49 92-67l29-11c31-7 57 13 58 44 1 16-4 30-10 45-16 37-37 72-56 108l-12 25c-16 31-30 63-36 98l-4 26c-5 18-24 25-40 14-12-7-18-19-20-32-5-26-1-51 7-75 17-52 46-98 72-144l27-47c-15 5-27 14-38 24a863 863 0 0 0-178 233c-5 9-10 19-17 27-14 14-32 13-44-1-9-10-11-22-11-34 1-21 8-39 15-58 23-61 55-117 86-173l22-43c-30 6-59 12-87 22-5 2-7 6-9 10l-22 44c-38 77-76 153-117 228-2 5-2 8 2 12l32 31c68 64 147 94 241 89 69-5 135-19 201-38 71-20 139-49 205-81 7-4 9-7 3-13-10-10-14-22-15-35-1-19 2-38 7-56l7-23c-19 15-35 30-52 45-21 18-43 35-70 43-36 11-70-5-83-41-11-26-9-53-3-80l6-17c36-81 95-141 170-189l-46-16c-34-15-65-32-87-64-3-4-6-3-10-1-10 4-21 9-33 11l-14 1c-12 0-20-6-23-17-3-10 1-20 12-26l40-19c4-2 7-4 7-10-1-43 14-82 37-117 27-43 64-77 112-97 21-8 42-11 64-6 37 10 57 43 47 80-5 20-16 38-29 53-39 47-88 80-139 110-5 4-11 6-16 9-15 10-13 8-2 20 16 16 36 25 57 33 32 12 66 19 101 25l29 1c53 5 80 40 72 92-5 36-19 69-34 102-16 33-34 65-48 99-8 20-13 40-11 62 0 7 2 8 8 4 62-37 122-76 167-133 14-18 26-37 30-60 5-27-4-47-28-61-7-4-15-7-20-13-7-7-10-15-6-24 5-9 13-12 22-11 8 0 15 3 22 6 50 27 69 78 52 136-11 39-36 68-62 97-31 34-68 60-105 86l-3 3a1216 1216 0 0 1-413 168l-5 1c-7-1-13 3-20 4-32 5-65 8-98 10-105 6-196-27-274-97l-29-28c-6-6-9-5-13 1-28 40-60 76-93 110-33 33-69 59-113 74-15 5-31 6-46 7-14 1-28-1-41-4-9-3-18-9-26-15-27-18-38-45-43-76-7-36 1-71 15-104 6-15 12-30 20-43a915 915 0 0 1 142-168c3-2 6-4 2-8-26-29-51-60-86-80-22-12-45-20-70-21l-12-1c-13-2-21-10-22-21-1-10 5-20 16-25 16-6 32-5 48-3a774 774 0 0 1 53 16 433 433 0 0 1 57 41l5 5 7 6 25 26 9 8 9 12c3 5 5 2 7-1l8-8c4-1 7-4 9-7l28-24 86-69c68-54 132-111 189-177 25-30 47-63 55-103 6-32-6-46-39-44l-15 2c-24 5-45 16-66 29a522 522 0 0 0-190 210c-9 20-20 24-40 18Zm258 6c-5-3-7 2-9 4l-64 59c-1 2-4 3-4 6l38-6c7-1 12-5 14-11 8-18 16-36 25-52ZM204 912l16-2c36-7 64-28 90-51 43-40 79-86 110-136 3-4 2-6-1-10l-90-104c-4-5-7-5-11-1l-49 53c-35 40-67 82-90 130-12 27-21 55-16 85 3 24 16 36 41 36Zm828-288c0 22 4 25 21 18 18-8 33-21 47-34 41-38 79-80 116-121 21-24 42-46 58-73 11-18 4-30-18-30l-8 1c-19 2-36 10-52 20-58 38-105 87-138 148-13 23-24 47-26 71ZM553 461c-22 5-42 9-60 16-50 18-88 53-127 86-4 3-3 4 0 7l80 94c3 4 6 8 10 0l53-111 44-92Zm500-257c44-26 83-53 119-85 13-11 24-22 33-36 4-8 11-17 4-26-6-8-17-5-26-3a198 198 0 0 0-130 150Z"/><path fill="url(#a)" d="M1326 116c42 2 79 15 103 52 27 43 14 106-28 135-7 5-15 9-23 10-10 2-18-1-25-10-6-8-6-17-3-26 3-7 9-12 14-17 8-8 17-16 22-26 11-20 8-38-10-51a97 97 0 0 0-55-18l-20-1c-11-2-19-11-20-20-1-11 5-20 16-24l11-2c6-2 12-2 18-2Z"/><ellipse cx="29.1" cy="426.8" fill="url(#b)" rx="28.6" ry="27.8"/><defs><linearGradient id="a" x1="1281.2" x2="1481.8" y1="115.6" y2="168" gradientUnits="userSpaceOnUse"><stop stop-color="#FFC16F"/><stop offset="1" stop-color="#FA86CE"/></linearGradient><linearGradient id="b" x1="29.1" x2="29.1" y1="399" y2="454.5" gradientUnits="userSpaceOnUse"><stop stop-color="#2E58FF"/><stop offset="1" stop-color="#9452FF"/></linearGradient></defs></svg>