<svg xmlns="http://www.w3.org/2000/svg" fill="none" viewBox="0 0 1195 1206"><path fill="#000" d="M1163 706h-2c-8-1-14-9-13-17A541 541 0 0 0 611 80c-73 0-15-6-15-14s7-15 15-15a568 568 0 0 1 570 571c0 77-1 47-4 71-1 7-7 13-14 13ZM91 468c7 2 11 0 14-6 2-6 0-10-7-13l-76-27 15-40 78 28c13 5 22 13 26 24 3 11 2 25-4 41-12 33-31 44-58 35L1 481l15-41 75 28ZM215 325l-24 39-35-9-1 2 22 28-23 37-41-54-63-13 25-40 34 10 1-1-24-27 21-35 42 49 66 13v1ZM226 225c7 8 13 12 18 14s9 1 13-3l16-22 27 18c-6 13-14 23-23 31-13 13-26 19-40 17-13-2-27-10-42-25a76 76 0 0 1-24-44c-2-14 5-28 19-42 8-8 18-14 30-19l20 30c-12 6-20 11-24 15-3 3-4 7-3 12 2 5 6 11 13 18ZM265 185c-13-19-18-35-16-48s11-25 28-37c17-11 32-15 45-12 12 4 25 15 37 33 12 19 18 35 16 49-1 14-10 26-27 37s-32 15-45 11-26-15-38-33Zm43-58c-3-2-7-1-12 2s-7 7-6 10c0 4 3 10 10 20l4 7c7 9 11 15 15 17 3 1 7 1 12-3 5-3 7-6 7-10-1-3-4-10-10-19l-6-7c-6-10-10-15-14-17ZM459 57c3 7 4 14 4 19-1 6-3 11-7 16l37 42-41 17-27-35-3 1 16 40-38 15-47-115 49-20c14-6 26-7 35-4 10 3 17 11 22 24Zm-38 31c1-2 0-6-1-10l-6-8h-7l-4 2 9 23 4-2c3-1 5-3 5-5Z"/><path fill="#000" d="m541 85-8 2 7 38-41 8-24-121 47-10c17-3 29-2 38 3 8 5 14 15 17 30s2 27-4 34c-6 8-17 13-32 16Zm-3-29-1-10c-1-5-2-9-4-11-2-1-4-2-7-1h-5l6 28 5-1c3-1 5-2 6-5ZM611 1193A568 568 0 0 1 40 622c0-77 2-52 5-77a15 15 0 0 1 29 4 541 541 0 0 0 537 615c73 0 42-1 63-4a15 15 0 0 1 3 29c-21 2-44 4-66 4ZM795 1103c2 8 2 14 0 20-1 5-4 10-9 14l29 48-43 9-21-39-3 1 9 41-40 9-26-122 52-11c15-3 27-2 35 3 9 5 14 14 17 27Zm-42 24-1-10c0-4-2-7-3-9-2-1-4-2-7-1l-5 1 5 24 5-1c3-1 5-2 6-4ZM940 1128l-38 18-12-15-20 10 5 19-36 17-32-123 55-26 78 100Zm-64-19-25-34h-1l11 41 15-7ZM1044 1043l-31 27-51-21-1 1 32 37-29 24-81-94 33-27 50 23 1-1-33-39 30-24 80 94ZM1076 953l4-9-10-7-5 8-23-16 27-38 59 41-18 24-7-1v1c0 9-2 17-7 25-18 25-44 26-79 2a79 79 0 0 1-32-38c-5-13-1-28 10-45 9-12 19-22 30-31l27 27c-12 10-20 17-24 23-3 5-4 10-2 14 3 4 8 9 16 15 9 6 16 9 21 10 5 2 9 0 13-6v1ZM1173 826l-29 73-116-46 31-76 29 15-13 34 14 5 12-29 26 11-12 29 16 6 15-36 27 14ZM1194 724l-14 74-122-24 8-42 91 18 6-34 31 8Z"/><path fill="#fff" d="M997 664c-1 1-17 9-36 9-18 0-8 0-12-1l2-10 10-36h-38c-1 0-14 0-29 3l-4 1c-1-5-4-10-11-14a86 86 0 0 1-20-23l5-3c5-3 7-8 7-14 0-5-1-9-10-19l-3-4 4-8v-1c2-4 2-12 2-20 5-2 9-6 11-10 1-5 1-10-1-14 8-1 12-3 15-7s4-9 3-14v-1c5-2 9-4 12-7 11-10 9-19 8-23-2-4-5-6-7-8 6-6 12-14 15-21 3-6 9-18-1-29l-5-3 3-6c13-24 4-35-2-39-1 0-3-2-7-2 2-6 2-12 2-17a18 18 0 0 0-13-14c6-16 12-25 25-44 14-21 21-35 23-46 1-6 2-15-4-22s-14-7-19-7l-16 2h-1l-38 12c-21 7-38 12-63 18l-47 13c-11 3-21 8-30 13-2-4-5-7-10-9-8-3-16 1-22 5l-15 12v1l-7 8c-3-4-8-6-12-6-14 0-18 13-21 20-5 14-6 22-6 38h-57c0-17-2-28-9-41-4-8-9-17-19-19-5 0-9 1-13 3l-3-4c-1 0-18-19-32-19s-13 4-16 10l-2-1c-18-8-26-10-74-20a433 433 0 0 1-85-25l-16-2c-9 0-16 1-21 6-10 10-3 26 0 32 1 3 5 10 26 34 12 14 17 21 26 38-5 1-9 4-11 8-4 7-3 16 0 23-5 1-9 4-11 8-5 7-4 16 2 28l11 16-5 5v6c-29 4-46 11-55 23-6 8-6 13-6 27-1 17 0 21 13 33l4 4v2l4 22-6 2-24 9c-19 9-32 25-34 44 0 10 0 22 9 32-1 21 10 51 24 68 13 16 28 26 45 29-9 9-14 17-14 32s2 17 6 24c-2 9 0 18 4 26 10 17 33 30 64 36l18 1-2 2c-7 7-13 13-12 21 0 5 3 10 7 13l4 2a426 426 0 0 0-46 158c-4 38-2 78 4 119l10 68 42-55a225 225 0 0 1 43-38l2 15c5 26 10 30 14 33 3 2 13 7 24-3l13-15c11-14 18-21 34-32 1 4 3 7 7 10 3 2 8 6 32-1a299 299 0 0 0 54-24c3 6 9 12 23 10l17-4a182 182 0 0 0 78-44v1l7 2c5 3 11 2 18 0 23-8 41-23 58-49l8-13c2 4 6 8 13 9 17 3 26-15 31-25 5-9 8-18 11-29 2 3 5 5 8 6 5 2 9 1 14-1 8-3 12-12 14-18v-1a216 216 0 0 0 2-72c6 0 11-5 14-11 1-4 2-9-1-23a221 221 0 0 0-18-50c8 2 18 4 29 4s24-2 36-5a93 93 0 0 0 71-86l1-52-44 25Z"/><path fill="#EE2525" d="M928 694c-40-17-40 43-40 43s24 23 72 10c49-13 50-59 50-59s-42 23-82 6Z"/><path fill="#EE2525" d="M894 687c13 25 28-34 28-34s-46 1-57 16c-10 16 15-6 28 18h1Z"/><path fill="#EE2525" d="M865 682c-12 0-22 10-22 23 0 12 5 16 13 20-18 25-56 93-103 128-42 31-126 89-271 73-74-8-82-62-82-62s-65 92-41 261c0 0 37-48 102-71 66-22 134-27 236-87s132-126 132-126 25-48 36-114a23 23 0 1 0 0-45Z"/><path fill="#000" d="M539 433c-33 4-47 16-51 40-3 21 3 41 16 55a63 63 0 0 0 57 17c25-5 40-20 47-45 3-12 3-31-1-40-3-8-10-16-18-20-11-7-34-10-51-7h1Zm7 12-8 18-28 52c-1 1-4 0-5-3 0-3 6-18 23-49 10-19 10-19 14-19l4 1Zm19 1a2374 2374 0 0 0-28 56c-14 27-15 28-19 25-2-1-1-3 11-27 15-31 28-54 30-55 1-1 5 0 6 1Zm14 3 2 3-21 42c-21 41-21 42-25 38-1-1 11-26 28-59l9-17c4-8 4-8 7-7ZM616 442c-3 1-4 5-3 7 2 2 6 4 11 5 3 1 5 0 9-1 4-2 4-3 4-6s0-3-3-4c-4-2-15-2-18-1ZM303 444c-2 2-2 7 1 10s9 2 13 0c3-3 3-5 0-9-1-2-3-3-7-3s-6 1-7 2Z"/><path fill="#000" d="m406 835-15 21c0 1-17 26-31 72a515 515 0 0 0-12 200l5 30 18-25s9-12 26-25c10-10 26-21 46-31v10c0 16 1 23 2 30 2 12 5 21 7 22 3 2 5-1 16-14a307 307 0 0 1 105-74c1 3-15 22-32 38l-10 11 18-3a299 299 0 0 0 113-71l17-15c3 3-10 25-21 38-6 7-19 19-30 27-10 7-6 8 16 3 17-5 39-15 53-26a228 228 0 0 0 69-85c2 0 0 17-4 29-4 11-11 24-18 33l-5 9 7-2c19-6 34-19 49-42 16-23 23-44 27-72 1-9 4-5 7 10 2 9 3 35 2 46-1 4 0 5 2 5 3 1 7-5 13-16s10-23 13-37a183 183 0 0 0-1-57c1-1 5 4 12 15 5 9 11 25 13 39l2 9c2 0 5-4 7-10 4-10 4-20 4-40-1-28-5-45-17-64-3-4-5-8-4-9 2-2 23 18 28 26 3 5 4 6 5 3 1-2-3-23-7-34a226 226 0 0 0-27-53l3-14 4 4c2 2 19 18 53 18 33 0 21-2 32-5 30-8 44-27 51-41 7-15 8-29 8-30v-23l-19 11c-1 1-21 11-44 11-24 0-19-1-27-5l-6-2v-2c5-10 7-21 7-21l5-17h-17l-26 3c-21 3-34 10-41 19-1 2-4 6-5 11l-2 1-2-10c-1-12-3-19-5-29l-2-8 5 1c4 3 19 6 25 6 7 0 6-3 1-5s-15-13-20-19c-10-14-23-38-21-40l7 3 9 4c4 1 8-1 8-3s-2-4-6-8c-8-10-16-23-15-25h6c4 0 6-1 7-3 2-6 2-20 0-24l-1-4 7-1c6-1 8-3 6-5l-12-9-12-9h6c8 0 34-3 36-5 1-1-1-2-8-5l-8-5 9-4c11-2 19-6 24-10 6-5 4-6-7-5-14 2-28 0-36-4-3-2-2-3 2-3 10-2 25-7 33-12s16-14 20-22c3-7 4-9 2-11-1-1-3 0-8 4-7 6-17 11-26 13-6 2-21 2-24 1-2-1-1-2 1-2 3 0 23-10 29-16 9-6 19-18 23-27 8-15 6-25-2-15a75 75 0 0 1-39 27c-13 4-16 3-8-2s20-16 25-22c10-13 18-36 14-38-2-1-3 0-10 9-8 9-16 17-25 21-12 7-14 6-6-3 13-13 19-23 30-48 7-17 13-27 27-48 12-18 19-31 20-40 2-9 1-10-6-10l-14 2-36 11c-22 8-39 13-65 19l-46 13a129 129 0 0 0-59 37c-2 0 2-16 6-24l3-8c0-4-11 3-20 12-7 7-15 22-18 30-2 6-3 8-4 7-2-2-5-14-6-21s-2-8-3-8c-2 0-3 2-5 9-5 13-6 20-6 35 0 10-4 14-11 14l-45-1c-23 0-34-4-33-13 1-16-1-25-7-36-4-8-7-12-8-10v7c2 9 1 22-1 28-1 2-2 3-3 1l-2-8c-2-10-11-26-18-34-6-7-17-14-20-14-4 0-2 3 1 6 7 7 14 22 14 28s-1 2-8-4c-9-9-19-16-33-23-15-8-21-9-70-19a453 453 0 0 1-85-25c-7-2-21-2-22 0-1 1 0 8 3 14l24 30c14 16 19 24 29 44a247 247 0 0 0 30 47c-1 1-8-2-16-6-4-2-10-6-16-12l-10-9c-3 0 0 12 6 21 8 13 16 21 29 28 5 2 7 4 7 5-2 2-17-1-25-4-11-4-16-7-22-13l-7-5c-1 0 0 6 3 12 8 16 27 28 45 28s8 1-1 5c-6 2-8 2-21 2h-15c0 1 5 5 11 8l5 3-13 3c-35 3-54 8-61 18-3 4-3 5-4 18 0 9 3 16 8 21 6 6 9 11 9 16a152 152 0 0 0 8 33c0 1-7 4-20 8l-22 8c-15 7-24 18-25 30 0 11 1 16 5 21 4 4 4 5 4 10-1 17 8 44 20 59 18 21 40 28 64 20 6-2 12-2 19 0l11 4c3 1 0 2-14 7-19 7-28 11-35 18-8 8-10 12-10 22s1 13 6 18c2 2 2 2 1 6-2 6-2 12 1 17 8 13 27 24 52 28 9 2 34 2 41 1 3-1 4 0 4 1 0 4-11 21-20 29l-7 9c2 2 18 0 27-2m517-183-9 25c-5 0-12 2-18 7-7-10-17-16-30-16 11-15 57-16 57-16ZM696 333c5-23 22-46 42-58 14-9 33-15 63-22 22-5 52-14 76-22l26-8v1l-18 11c-12 5-29 12-48 17-46 12-59 16-81 27a98 98 0 0 0-49 48c-5 11-8 22-8 37 0 14 0 9-1 9-3 3-5-29-2-40Zm128-26-18 15a333 333 0 0 0-62 60c-10 14-13 17-15 16-2-2 13-32 21-42 13-17 33-31 64-47 14-8 18-8 10-2Zm-2 34-19 17c-17 15-22 19-33 32-7 8-12 11-16 11s-2-1 4-10c7-12 14-21 21-27 11-9 41-27 45-27 2 0 1 1-2 4Zm-78 76a435 435 0 0 0 86-28 127 127 0 0 1-61 32c-9 1-26 2-30 1-5-2-2-3 5-5Zm-18 51 24 10c16 6 65 30 72 35l8 8c4 6 2 13-3 9l-9-7c-12-10-39-22-101-45l-25-10-25-8c-3-1-3-1-3-7 1-7 2-8 4-7a1733 1733 0 0 0 58 22Zm-65-159c1-2 2-1 5 10 6 17 8 19 10 8 4-19 8-31 12-37 1-2 2 0 2 7 1 8 1 10-1 15a168 168 0 0 0-8 53c-2 0-12-19-15-28-3-7-6-24-5-28Zm-95 36c8-1 63 0 71 2 9 1 15 3 16 5v2l-10 1c-28 2-39 5-57 14-12 6-14 7-26 19l-16 17c-3 4-3 4-12 6-23 3-37 9-48 19-5 5-9 6-11 5l-7-2c-6 0-6-1-3-11 8-22 26-44 49-60 17-12 23-14 54-17Zm83 106-2 8-6 3c-6 2-12 6-14 10l-4 14c-3 20-6 29-15 41a70 70 0 0 1-67 28c-7-1-21-6-29-10-17-9-30-28-33-48-2-9-2-30 0-36 2-9 14-23 24-29 9-4 27-9 41-10h13c1-1 10 0 21 1 21 2 53 8 63 12 8 4 9 7 8 16ZM396 322c1-1 0-1 12 5 12 5 18 9 24 16 8 7 13 17 10 17-4 0-5-3-9-6-3-4-11-10-17-15-15-11-21-16-20-17Zm-4-28a123 123 0 0 1 61 44c3 4 5 9 3 9s-4-4-8-8a334 334 0 0 0-56-45Zm67 31-8-8a241 241 0 0 0-32-30c-1-2 3 0 14 6l15 11c7 7 14 20 11 20v1Zm-129-88c-13-7-12-9 2-4 15 6 37 13 57 17 36 9 48 13 57 20 3 3 4 7 1 6-10-5-35-13-56-18-33-10-51-16-62-22l1 1Zm-31 227c-4-3-6-8-6-14 0-15 0-14 47-22l21-3c8-1 24 0 32 2 15 3 24 9 31 20l7 8c1 1 3 0 5-3 3-4 5-5 9-6 15-3 28 2 28 10 0 9 0 5-9 2-7-3-15-2-23 0-5 2-5 2-6 0-2-2-2-1-2 16 0 11-1 14-7 15-6 2-6 2-6-5 4-24-5-40-26-47-8-2-32-3-42-1-28 7-39 33-30 71l2 9c-2 3-5 2-7-3-4-6-4-10-6-24-2-16-3-20-12-25Zm85 1a445 445 0 0 0-23 43c-3 2-7 2-7 1a277 277 0 0 1 22-44l8-14c2-3 2-4 4-3l4 2c1 0-2 7-8 15Zm-2 30c-2 4-4 6-5 6-2 0-2 0 0-2l4-8c4-7 5-4 1 4Zm-31-1c-8 17-9 19-13 19s-3-1 2-16a177 177 0 0 1 24-45c3-7 5-8 9-6 2 2 1 5-7 19l-15 29Zm-95 83c-1 7-5 4-5-5s7-18 15-20c5-2 14-2 29 1 16 3 22 6 29 12 4 4 7 13 5 18s-3 4-4-2c0-6-2-9-9-12-7-5-16-6-36-6-12 1-18 2-21 5l-3 9Zm43 21c7 13 27 13 38 0 6-6 7-5 4 1-4 9-14 15-26 15-7 0-8-1-13-3-5-4-10-11-11-18-1-6 1-14 5-18 3-3 5-3 5-2l-2 5c-4 6-4 14 0 20Zm-33 7c4 0 6-2 7-9s0-13-4-19c-3-5-4-5-2-5l5 2c8 8 9 28 2 35-2 3-9 3-12 0-2-2-1-4 4-4Zm47 60c-1 4-19-3-28-10-6-6-21-28-19-30 1-1 1-1 11 1 6 1 10 5 13 10 6 12 10 18 17 24 4 2 6 5 6 5Zm5 73c-6-10-2-20 13-28 9-5 30-13 33-12 3 0 3 0-11 12-9 8-16 21-12 23l11-8c12-10 31-23 41-28 13-6 24-7 29-4 3 2 6 3 15 3 19 1 20 2 10 6l-12 5-23 17c-3 2-5 1-7-2-10-14-21-11-26 7-3 10-5 13-14 16-15 6-41 2-47-7Zm208-38c10-4 12-4 12-3 1 1-1 3-3 5-7 6-25 14-57 25-30 11-64 20-66 19v-4c0-2 2-3 6-5 6-3 25-9 40-12 15-4 19-6 24-17 4-9 7-10 13-3 3 4 7 4 12 2l19-8v1Zm-1-11c4-1 9-5 12-12 3-5 7-7 21-10l14-5c4-2 5-2 5 0 0 4-15 15-33 25-7 4-8 4-16 4s-11-1-3-2Zm-128 62-8 1c-4 0-4 0-4-2l4-19c0-2 1-3 2-3 2-3 5-1 6 2l2 11c0 9 0 9-2 10Zm50 151-5-13c-2-13 0-33 5-46 2-5 2-7 1-8-4-4-17 16-20 31l-2 6c-2 0-3-9-3-18 1-12 4-22 9-32 7-12 5-14-8-6-9 5-15 8-16 6l3-5c3-3 7-9 9-14 3-6 8-9 17-11l16-4 72-23c23-6 46-9 70-8h1c13 0 27 2 40 5l3 1-8-6c-14-11-23-14-47-14-21 1-38 4-58 10-20 7-78 22-102 27-22 4-28 4-46 3-19 0-26-1-38-7-8-4-16-12-16-15 0-4 1-3 6-1 14 6 42 7 63 4 26-3 78-18 115-33 31-12 52-24 70-40 12-11 16-15 22-25 10-15 9-14 13-10 3 4 3 4 2 9l-1 7c-1 4 2 3 7-2 5-6 6-8 6-15 0-11-10-20-25-22a20 20 0 0 0-17 5 814 814 0 0 0-56 18c-27 8-48 13-69 16-13 2-17 3-42 2-30 0-35-1-53-6-24-6-44-16-53-24-6-4-11-14-10-16 0-2 1-2 5-1 13 1 31-5 39-14 10-10 14-29 11-45-2-7-8-15-14-19-7-3-19-6-33-8l-10-2 75-20c52-13 71-21 78-31 3-6 8-11 10-11l2 2v10a79 79 0 0 0 54 74l14 7c19 15 35 22 66 27 23 4 34 8 48 14 17 9 31 21 42 38 11 18 22 45 24 63 2 9 1 30 0 36-1 3-1 3 1 3 4-1 14-28 15-46 1-14-4-52-4-54-3-7 3-3 10 7 6 9 10 18 13 32 3 10 4 39 5 39 2 0 13-22 15-38 2-22-3-30-15-53l-5-11c4-3 22 23 29 40l9 36c1 12 8 1 11-18 2-18-4-37-16-57l-8-14c0-2 2-1 8 5 19 19 39 54 43 76 4 16 3 47-1 57l-2 3v-1l-2-9c-2-15-8-33-11-33s-4 4-4 17c1 14-1 28-7 51l-6 17-1 2c-2 0-2-7-1-19 0-19 0-29-2-32-1-1-2-1-3 1-3 3-3 3-4 16-3 22-10 46-17 57l-8 10-7 7 2-9 5-18c2-10 2-28 0-29-2-2-5 0-7 7a150 150 0 0 1-49 81 245 245 0 0 1-10 4l7-11c8-13 13-27 16-40 2-10 2-12 0-12s-5 7-14 24c-3 6-8 14-12 18-9 11-34 34-47 45a329 329 0 0 1-30 9c-3 0-4-1-1-4l4-4c9-7 22-26 26-38 3-7 5-20 4-22-1-3-4-2-5 1l-14 28c-8 11-24 26-37 35l-14 10a370 370 0 0 1-108-5v-38c0-7-2-7-6 0-4 6-7 18-7 27v6l-4-2 1 1m174 2h-1 1Zm-5 2Zm247-167-5 24-2 5-1 5-2 6-1 4v1-2s-48 79-131 119c-30 14 58-5 119-83l-1 2v1l-1 1v1l-1 2-2 4a10 10 0 0 1-1 2l-1 2v1l-1 2-1 2v1h-1v2l-1 1-3 5v1l-4 6-2 3a235 235 0 0 1-22 28l-4 4-3 4-4 4-2 2-4 4-3 3-7 6a401 401 0 0 1-101 69l-17 9-5 2-16 7-9 4a444 444 0 0 1-53 19l-48 13-3 1a465 465 0 0 1-19 5l-10 3-15 4-6 2-7 3-17 7-4 1-2 1-5 3-13 7-5 3-8 6-5 3-7 6-6 4-5 4-7 7-3 3-2 2-1 1-4 4-1 1-6 7v1-1l-2-7v-8l-1-3v-5l-1-3v-8l-1-4v-15l-1-3v-35l1-3v-16l1-3v-6l1-3v-6l1-3v-6l1-2v-4l1-2v-3l1-2v-4l1-2v-3l1-2v-3l1-2 1-4v-1l1-4 1-6 1-1 1-4v-1l2-5v-1l1-4v-1c13 30 33 48 56 58 69 30 161-8 128-4-64 9-105 0-131-15a83 83 0 0 1-42-67l1-4 1-2v-1l2-3 1-1v-1l2-4v-1l1-1 2-4 2-4 2-3v-1l2-2v-1h1v-2l1 5 2 4 1 4 1 1 1 2 1 2c0 2 1 3 3 5l1 3 2 2 1 1 2 2 2 3 3 3a58 58 0 0 0 7 6l3 2 3 2 4 2 2 2 8 3 4 2a325 325 0 0 0 23 6l7 1h6l2 1h11l3 1h54l4-1h8l3-1h5l2-1h5l3-1h2l5-1h1l4-1h2l3-1h2l2-1h3l2-1h2l3-1h2l2-1 2-1h3l2-1 4-1 1-1h3l2-1 2-1h2l2-1 2-1 2-1h2l3-1 1-1 3-1h1l3-1 2-1 3-1 1-1 2-1h2l2-1 2-1 2-1 1-1 2-1h2l1-1 2-1 2-1 1-1 3-1 2-1 2-1 1-1 2-1 1-1h2l2-1 1-1 2-1 1-1 2-1 1-1h1a35 35 0 0 0 4-2l2-2h1l1-1 2-1 1-1 1-1 2-1 1-1h1l1-1 2-1 1-1 1-1h1l2-2 1-1 2-1h1l1-1 1-1 1-1h1l1-1 1-1 1-1h1l1-1 1-1 2-1 3-3h1l3-3 4-3 4-4 3-3 4-4 3-3h1l3-4 3-4h1l3-4 3-3 1-1 3-3v-1l3-3v-1l3-3v-1l3-4a92 92 0 0 0 4-4l2-4h1l2-4h1l2-4h1l2-4 3-4 2-4h1l2-4 2-3 1-1 2-3 2-4h1l1-3 1-1 2-2v-2l2-2 4-7 2-2 14 4v1Zm3-13h-1v2-2l-8-2a23 23 0 0 1-12-13v-1l-1-1v-10l1-2v-2h1v-2h1v-1l1-1 1-1v-1l1-1h1l1-1v-1h1v-1h1l1-1h1a23 23 0 1 1 10 43v-1Zm95 20c-11 3-20 4-28 4-30 0-44-14-44-14v-5c7-6 12-15 13-25 9-1 15-7 20-15l7 2c10 5 21 6 31 6 28 0 51-12 51-12s-1 46-50 59Z"/></svg>