<svg xmlns="http://www.w3.org/2000/svg" width="2020" height="368"><path fill="#FEFEFE" d="M0 0h2020v368H0V0Z"/><path fill="#17204A" d="M1203 29h59v322h-59v-17l-6.25 4.125c-26.643 17.172-58.213 23.174-89.574 17.621-29.397-6.906-54.392-25.885-70.488-51.308-16.803-28.555-21.8-64.257-13.688-96.438l.55-2.957c3.922-19.5 15.95-36.932 29.45-51.043l1.816-2.008c15.952-17.019 39.708-29.517 63.149-30.898L1121 121l3.941-.156c16.236-.438 32.807 1.373 48.059 7.156l3.477 1.309c8.298 3.335 15.267 7.503 22.523 12.691l3 2 1-115ZM1824.375 142l2.625 2v-16h60v223h-59c-1.996-1.996-1.41-5.817-1.563-8.563l-.13-2.154c-.107-1.76-.207-3.522-.307-5.283l-1.59 1.25c-25.417 18.947-58.04 24.056-89.023 20.285-28.004-4.997-53.665-22.95-69.82-46.068-19.078-28.28-25.465-63.262-19.38-96.904 5.06-23.379 15.431-42.222 31.813-59.563l2.113-2.309c13.773-14.528 32.404-24.568 51.887-28.691l2.062-.529c30.3-7.542 65.325 1.943 90.313 19.529ZM1499.508 150.793c23.956 21.215 37.624 47.96 39.681 80.165 1.35 30.735-5.908 60.904-26.709 84.367-2.423 2.631-4.929 5.168-7.48 7.675l-2.234 2.23c-13.918 13.107-32.323 22.913-50.766 27.77l-3.32.902c-34 7.575-70.463 1.64-99.923-16.745-4.575-3.013-8.671-6.523-12.757-10.157l-2.508-2.074c-20.045-16.997-33.297-42.947-36.246-69.028-2.196-34.794 4.198-66.62 27.623-93.42 44.633-49.746 123.629-54.082 174.639-11.685ZM966.348 151.035C986.726 170.342 998.522 195.176 1002 223v32H833c3.997 12.99 7.719 24.04 17 34v2l1.777.824c2.18 1.153 3.882 2.43 5.785 3.988 9.606 7.354 18.804 9.368 30.563 9.375l3.016.038c16.444.032 31.536-5.177 43.609-16.6 3.373-3.515 5.833-7.418 8.25-11.625 8.667 1.54 17.304 3.218 25.938 4.938l3.88.763c7.79 1.552 15.499 3.288 23.182 5.299-3.375 19.04-21.229 37.884-36.188 48.688-27.933 18.479-62.998 25.502-96.062 19.062A156.56 156.56 0 0 1 857 354l-3.047-.809C841.441 349.468 829.24 343.065 819 335l-3.11-2.426c-23.253-18.624-37.303-44.878-41.14-74.449-3.644-33.178 1.547-65.272 22.031-92.375 19.854-24.607 45.597-40.713 77.282-44.438 35.179-2.431 65.978 5.553 92.285 29.723Z"/><path fill="#161F4A" d="M710.063 142.063C736.86 163.256 749.41 188.05 756 221v34H587c6.432 19.297 13.206 35.625 31.836 45.504 13.412 6.31 31.359 7.049 45.601 2.808A109.412 109.412 0 0 0 670 301l2.64-1.063C683.639 295.08 690.759 286.26 698 277c17.44 3.272 34.788 6.663 52 11-1.515 12.076-11.016 24.412-19 33l-1.323 1.463C714.074 339.613 693.657 350.32 671 355l-2.56.533c-8.392 1.589-16.68 1.825-25.19 1.78l-2.141-.006c-30.994-.135-58.217-11.287-80.359-32.995C549.6 313.034 542.133 300.536 536 286l-1.176-2.578C527.897 266.839 527.08 247.704 528 230l.117-2.385c1.72-29.668 15.349-58.197 37.513-78.077C582.328 135.194 601.466 126.302 623 122l2.805-.59c30.056-3.858 59.58 3.14 84.258 20.653Z"/><path fill="#5470EF" d="M100 96c6.843-.512 13.68-.86 20.538-1.099 2.325-.1 4.648-.235 6.968-.41 18.657-1.365 18.657-1.365 24.972 3.365 4.553 4.708 7.937 10.065 11.154 15.744 1.666 2.923 3.54 5.587 5.509 8.314a618.927 618.927 0 0 1 3.109 4.711l1.715 2.597c4.664 7.108 9.149 14.32 13.535 21.602l1.19 1.889C190 155 190 155 191.01 157.573c1.354 3.057 2.572 5.1 4.991 7.427 4.473 1.134 8.757 1.006 13.323.753 2.294-.122 4.58-.176 6.877-.21 6.518-.113 13.03-.348 19.543-.628 26.605-1.086 26.605-1.086 32.518 2.43 3.447 3.544 4.803 7.692 6.06 12.391 1.124 3.75 3.058 7.033 4.925 10.455.7 1.377 1.395 2.756 2.083 4.138l1.045 2.096c.35.706.702 1.41 1.063 2.137l1.11 2.22a589.896 589.896 0 0 1 16.259 35.455c1.254 2.903 2.59 5.758 3.94 8.618 3.432 7.42 6.49 14.972 9.508 22.567l1.764 4.415c1.542 3.86 3.08 7.72 4.616 11.581 1.217 3.057 2.438 6.113 3.658 9.168 3.609 9.033 7.204 18.072 10.794 27.113.937 2.359 1.875 4.718 2.814 7.076 1.546 3.884 3.087 7.77 4.626 11.656.58 1.464 1.162 2.927 1.745 4.39.8 2.012 1.597 4.025 2.393 6.04l1.372 3.458C349 355 349 355 349 357H217c-3.368-10.103-3.368-10.103-4.21-14.094l-.577-2.654-.588-2.752c-1.642-7.444-3.465-14.766-5.69-22.056-1.405-4.607-2.689-9.231-3.914-13.889-2.752-10.417-5.894-20.68-9.208-30.93l-.656-2.03c-2.238-6.92-4.486-13.827-7.157-20.595l-1.222-3.12c-19.929-50.527-44.512-98.231-78.369-140.987-1.908-2.563-3.652-5.226-5.409-7.893Z"/><path fill="#7352DF" d="M398 64c27.185-.075 54.361.118 81.544.464 4.93.062 9.86.12 14.79.18 9.555.116 19.11.235 28.666.356-1.11 2.23-2.221 4.46-3.333 6.688l-.944 1.897c-2.557 5.126-5.257 10.156-8.035 15.165-12.44 22.638-24.368 45.55-36.188 68.516C452.304 200.391 429.324 243.23 403 284l-1.251 1.959a779.245 779.245 0 0 1-3.374 5.228l-1.852 2.856L395 296h-2l-1.522-3.38c-13.942-30.944-28.043-61.78-42.97-92.264l-1.068-2.183c-.658-1.346-1.317-2.691-1.979-4.036A466.676 466.676 0 0 1 343 189c-.45-.86-.9-1.72-1.365-2.605-.899-3.389.094-4.775 1.775-7.805l1.73-3.204 1.923-3.448c1.327-2.453 2.638-4.914 3.949-7.375l1.02-1.909c3.352-6.296 6.377-12.73 9.343-19.216a740894327.515 740894327.515 0 0 1 4.874-10.642c1.86-4.047 3.76-8.075 5.665-12.1l1.015-2.144 2.046-4.324c7.195-15.204 14.161-30.499 20.972-45.878A113.64 113.64 0 0 1 398 64Z"/><path fill="#FDFDFE" d="M1179.078 186.29c12.942 11.097 22.224 26.541 23.922 43.71 1.16 20.723-3.202 39.415-17.063 55.375-7.541 7.973-16.646 13.825-26.937 17.625l-2.441.906c-15.022 4.836-31.711 2.53-45.809-4.031-6.503-3.459-11.63-7.616-16.75-12.875l-1.922-1.824c-12.813-13.069-15.605-32.212-15.5-49.735.561-19.114 8.223-35.699 21.922-49.066 3.816-3.182 8.034-5.436 12.438-7.688l1.988-1.023c21.406-10.444 47.643-5.14 66.152 8.625Z"/><path fill="#FEFEFE" d="M1805.5 187.813c12.77 11.35 20.426 26.028 21.72 43.078.81 20.187-1.432 37.711-15.408 53.297-12.174 13.013-26.478 20.65-44.328 22.097-16.248.42-31.541-3.878-43.921-14.723A221.47 221.47 0 0 1 1719 287l-1.957-1.93c-12.528-13.155-15.624-30.79-15.377-48.267.507-17.622 5.804-33.97 18.084-47.053 24.283-22.921 60.326-22.115 85.75-1.938ZM1454.588 184.233c3.664 3.068 7.054 6.37 10.412 9.767l1.84 1.809c12.834 13.651 14.926 30.398 14.512 48.246-.799 18.05-7.905 33.052-20.914 45.507-12.864 11.098-28.05 17.428-45.231 16.75-19.1-1.86-35.036-10.316-47.398-24.992-12.606-16.172-14.52-34.375-12.809-54.32 1.924-14.552 8.804-25.769 19-36l1.828-1.898c20.556-19.752 55.933-22.6 78.76-4.869Z"/><path fill="#17204B" d="M1943 128h59v223h-59V128ZM1992.125 31.125c7.207 4.873 13.988 12.22 15.875 20.875 1.371 11.246 1.042 21.636-6 31-5.386 6.206-11.237 9.52-19 12l-3 1c-12.635.854-23.138-.653-33-9-7.756-8.032-10.616-17.153-10.473-28.168.251-5.733 1.377-10.033 4.473-14.832l1.32-2.105c11.542-16.808 32.222-20.637 49.805-10.77Z"/><path fill="#8245D7" d="M1612.168 289.285c7.46 5.025 11.773 12.38 14.832 20.715 1.197 10.583.475 19.923-5.953 28.652-5.355 6.376-11.611 11.869-20.047 13.348-11.966.64-22.123.632-32-7-6.4-5.775-11.799-12.38-12.406-21.223-.378-11.655.69-20.276 8.68-29.363 13.1-12.77 31.26-14.397 46.894-5.129Z"/><path fill="#9D2ECA" d="M11 11c7.451-.281 14.902-.472 22.357-.604 2.531-.055 5.061-.13 7.591-.226 24.404-.9 24.404-.9 31.927 6.08 1.743 1.885 3.454 3.8 5.125 5.75 1.907 1.6 3.84 3.169 5.813 4.688 3.928 3.194 7.558 6.523 11.042 10.195 1.904 1.879 3.855 3.617 5.88 5.363 4.29 3.726 8.323 7.664 12.328 11.691l2.025 2.014C122.007 62.884 128.168 70.138 134 78c-6.825.436-13.647.73-20.483.934-2.318.085-4.634.2-6.948.348-20.245 1.265-20.245 1.265-27.571-4.944-3.517-3.507-6.556-7.292-9.472-11.306-2.12-2.822-4.497-5.198-7.026-7.657l-2.348-2.32c-2.613-2.495-5.3-4.88-8.047-7.227-2.462-2.138-4.84-4.359-7.23-6.578C38.53 33.465 31.795 28.242 25 23a2911.73 2911.73 0 0 1-7.875-6.125l-1.859-1.435A204.861 204.861 0 0 1 11 12v-1Z"/><path fill="#F9FAFB" d="M679 184c8.952 7.807 15.05 18.297 17 30H589c2.957-13.309 8.755-23.667 20.34-31.16C631.4 169.597 657.554 168.39 679 184Z"/><path fill="#7850DD" d="M160 81c6.862-.46 13.72-.773 20.593-.989 2.331-.09 4.661-.212 6.989-.369 18.747-1.23 18.747-1.23 24.819 3.05 4.208 4.146 7.317 8.87 10.24 13.978 1.761 3.02 3.757 5.834 5.793 8.673 1.813 2.542 3.543 5.136 5.278 7.732a885.021 885.021 0 0 0 3.874 5.73c4.34 6.406 8.53 12.889 12.539 19.507l1.184 1.942C254 144.757 254 144.757 254 147c-6.65.408-13.298.687-19.958.879-2.261.08-4.522.189-6.78.328-18.243 1.094-18.243 1.094-23.22-2.7-3.283-3.76-5.325-8.021-7.224-12.606-1.012-2.353-2.319-4.362-3.814-6.436l-1.234-1.798-1.208-1.73-1.367-1.972c-7.21-10.347-14.674-20.484-22.58-30.311A80.28 80.28 0 0 1 160 81Z"/><path fill="#FDFDFE" d="m923 183 1.926 1.332c7.582 5.834 13.187 15.613 16.074 24.668v4H835c3.845-15.381 11.603-25.31 25.164-33.496C879.96 169.006 904.686 170.132 923 183Z"/><path fill="#9535CE" d="M89 11c7.47-.28 14.938-.472 22.412-.604 2.538-.055 5.075-.13 7.611-.226 23.393-.86 23.393-.86 29.93 4.61 2.227 2.252 4.137 4.697 6.047 7.22a128.29 128.29 0 0 0 4.75 4.188c4.622 4.15 9.038 8.492 13.438 12.875l2.016 2.002C182.08 47.962 188.203 55.183 194 63c-7.06.306-14.12.515-21.185.66-2.4.06-4.798.14-7.196.245-21.023.892-21.023.892-26.44-3.355-2.888-2.87-4.988-6.132-7.179-9.55a94.525 94.525 0 0 0-4.074-4.207l-1.82-1.826c-.888-.88-.888-.88-1.793-1.78l-1.945-1.936c-3.721-3.684-7.486-7.273-11.49-10.653-2.301-1.958-4.522-3.997-6.753-6.035-4.283-3.878-8.724-7.492-13.29-11.032L89 12v-1Z"/></svg>