<?xml version="1.0" encoding="UTF-8"?>
<svg version="1.1" xmlns="http://www.w3.org/2000/svg" width="2020" height="368">
<path d="M0 0 C19.47 0 38.94 0 59 0 C59 106.26 59 212.52 59 322 C39.53 322 20.06 322 0 322 C-0.33 316.72 -0.66 311.44 -1 306 C-2.32 306.99 -3.64 307.98 -5 309 C-30.86092598 326.99337667 -62.98495835 332.2787552 -93.83740234 327.39794922 C-114.7294535 323.55350991 -132.7644086 312.42746331 -148 298 C-148.83660156 297.22785156 -149.67320313 296.45570313 -150.53515625 295.66015625 C-171.16798124 275.98403102 -182.58162763 247.45700588 -183.28515625 219.1796875 C-183.99439353 181.74652534 -175.40334446 150.54413616 -149.0078125 122.94921875 C-127.62064973 101.45561688 -100.78073243 91.76955797 -70.7946167 91.68157959 C-43.96485 91.70169367 -21.73534004 99.47475711 0 115 C0 77.05 0 39.1 0 0 Z M-111 165 C-124.12732351 181.58314542 -126.42361483 201.58180424 -125 222 C-123.10839141 237.03889456 -116.72609308 249.42109173 -106 260 C-105.36191406 260.64839844 -104.72382812 261.29679687 -104.06640625 261.96484375 C-92.19651129 273.24247784 -77.21569912 276.50337898 -61.36108398 276.34936523 C-43.2510814 275.84455084 -28.16681161 267.73163448 -15.75 254.625 C-3.74220338 240.43396764 0.78423045 223.42984029 -0.21484375 205.046875 C-1.90411683 186.28095831 -9.5131589 170.25353544 -24 158 C-51.56690154 136.87504808 -87.32504609 139.69929818 -111 165 Z " fill="#FFFFFF" transform="translate(1203,29)"/>
<path d="M0 0 C0.66140991 0.00215515 1.32281982 0.0043103 2.00427246 0.00653076 C27.25477133 0.13838516 51.38624632 6.24310979 71.375 22.3125 C71.705 17.0325 72.035 11.7525 72.375 6.3125 C92.175 6.3125 111.975 6.3125 132.375 6.3125 C132.375 80.2325 132.375 154.1525 132.375 230.3125 C112.575 230.3125 92.775 230.3125 72.375 230.3125 C72.045 225.3625 71.715 220.4125 71.375 215.3125 C69.35375 216.67375 67.3325 218.035 65.25 219.4375 C39.70225816 236.0955416 7.13604545 240.78896242 -22.625 235.3125 C-51.57330597 228.91224791 -76.0714447 210.09857973 -92.25 185.625 C-109.71104033 158.18353321 -114.57960584 121.84521845 -108 90.125 C-107.31524652 87.14956461 -106.52059907 84.23103518 -105.625 81.3125 C-105.30354004 80.2620752 -105.30354004 80.2620752 -104.97558594 79.19042969 C-100.41823159 64.89479851 -93.59194091 51.58193887 -83.625 40.3125 C-82.5421875 39.04986328 -82.5421875 39.04986328 -81.4375 37.76171875 C-60.12302122 13.37588278 -32.45140532 -0.14388133 0 0 Z M-37.625 73.3125 C-51.12748683 90.5917336 -53.02752503 110.12735949 -51.625 131.3125 C-49.54469214 147.82827747 -40.84264467 162.86600174 -27.875 173.125 C-12.56478686 184.05259223 4.58373736 186.12434732 22.8828125 183.8828125 C38.98817535 180.40405412 53.54691187 169.60757001 62.6953125 156.09375 C65.38331723 151.64291426 67.56072025 147.18494069 69.375 142.3125 C69.6946875 141.47074219 70.014375 140.62898438 70.34375 139.76171875 C75.41513308 123.53798862 73.76226513 103.39261303 66.6875 88.125 C57.88000928 71.67857999 43.95616003 59.74997963 26.234375 54.07421875 C2.20109001 47.67190922 -20.92081078 55.43734472 -37.625 73.3125 Z " fill="#FFFFFF" transform="translate(1754.625,120.6875)"/>
<path d="M0 0 C25.93486057 21.77422997 38.82508132 50.46069093 42.23046875 83.7578125 C42.23046875 92.3378125 42.23046875 100.9178125 42.23046875 109.7578125 C-13.53953125 109.7578125 -69.30953125 109.7578125 -126.76953125 109.7578125 C-120.91236584 129.67217488 -115.26193538 142.94968197 -97.76953125 153.7578125 C-82.313688 161.39149118 -65.74632784 161.86026719 -49.29296875 156.953125 C-36.28024077 152.53860752 -27.46516454 145.80266468 -20.3984375 134.0390625 C-17.76953125 131.7578125 -17.76953125 131.7578125 -15.68016052 131.68237305 C-9.60665767 132.44255151 -3.65453974 133.47938172 2.32421875 134.7890625 C3.23755981 134.98504028 4.15090088 135.18101807 5.09191895 135.38293457 C7.00161924 135.79386824 8.91075585 136.20742972 10.81933594 136.62353516 C13.74931027 137.26191769 16.68110514 137.89134747 19.61328125 138.51953125 C21.4753724 138.92135639 23.33735566 139.32368193 25.19921875 139.7265625 C26.51472717 140.00941101 26.51472717 140.00941101 27.85681152 140.29797363 C29.06947693 140.56329895 29.06947693 140.56329895 30.30664062 140.83398438 C31.01816284 140.98863159 31.72968506 141.14327881 32.46276855 141.3026123 C34.23046875 141.7578125 34.23046875 141.7578125 36.23046875 142.7578125 C32.73005733 156.05937588 24.31881597 167.6508064 15.23046875 177.7578125 C14.54597656 178.52480469 13.86148438 179.29179687 13.15625 180.08203125 C-8.16771828 202.66730634 -38.32261819 211.48925769 -68.55859375 212.88671875 C-99.17293761 213.51924652 -128.15042935 204.14643287 -150.5612793 182.91918945 C-151.97525126 181.54350408 -153.37259955 180.15079807 -154.76953125 178.7578125 C-156.04570313 177.51644531 -156.04570313 177.51644531 -157.34765625 176.25 C-181.06507991 151.8613285 -187.26986319 119.90576304 -186.984375 87.06640625 C-186.80537644 78.3933146 -185.86994971 70.16982303 -183.76953125 61.7578125 C-183.60324219 61.08540527 -183.43695312 60.41299805 -183.265625 59.72021484 C-178.27807453 40.38422056 -168.4628419 24.19190881 -154.76953125 9.7578125 C-153.96257813 8.89800781 -153.155625 8.03820312 -152.32421875 7.15234375 C-146.90942639 1.54234728 -141.35741909 -3.08037811 -134.76953125 -7.2421875 C-133.8671875 -7.82742187 -132.96484375 -8.41265625 -132.03515625 -9.015625 C-91.7277417 -33.96264644 -36.50006824 -29.60622913 0 0 Z M-114.76953125 46.7578125 C-120.51781562 53.59151473 -122.56132956 58.93525786 -125.76953125 67.7578125 C-90.78953125 67.7578125 -55.80953125 67.7578125 -19.76953125 67.7578125 C-21.83386465 55.37181207 -28.49339603 45.37391094 -38.40625 37.72265625 C-62.6843014 21.41029932 -94.9055151 25.11705072 -114.76953125 46.7578125 Z " fill="#FFFFFF" transform="translate(960.76953125,145.2421875)"/>
<path d="M0 0 C11.08447919 8.73469925 21.74351257 18.92196171 29.171875 30.98046875 C29.67847656 31.74230469 30.18507813 32.50414062 30.70703125 33.2890625 C46.35723549 57.66495606 47.171875 85.63504578 47.171875 113.98046875 C-8.598125 113.98046875 -64.368125 113.98046875 -121.828125 113.98046875 C-116.1284446 132.21944604 -109.69368623 147.76757882 -92.828125 157.98046875 C-75.887518 165.66260502 -58.39050263 166.48056714 -40.828125 159.98046875 C-28.17368912 154.87641228 -20.10911098 147.40529563 -12.828125 135.98046875 C-6.0005975 136.5293814 0.57794449 137.54674461 7.265625 139.01171875 C8.17896606 139.20769653 9.09230713 139.40367432 10.0333252 139.60559082 C11.94302549 140.01652449 13.8521621 140.43008597 15.76074219 140.84619141 C18.69071652 141.48457394 21.62251139 142.11400372 24.5546875 142.7421875 C26.41677865 143.14401264 28.27876191 143.54633818 30.140625 143.94921875 C31.45613342 144.23206726 31.45613342 144.23206726 32.79821777 144.52062988 C34.01088318 144.7859552 34.01088318 144.7859552 35.24804688 145.05664062 C35.95956909 145.21128784 36.67109131 145.36593506 37.4041748 145.52526855 C39.171875 145.98046875 39.171875 145.98046875 41.171875 146.98046875 C38.6778569 165.01939421 21.14624665 182.83815259 7.78515625 193.96875 C-12.31572095 208.8140498 -36.0415091 215.96747806 -60.828125 216.98046875 C-61.76527344 217.02171875 -62.70242188 217.06296875 -63.66796875 217.10546875 C-96.55884914 217.82735364 -126.3290549 205.76489304 -150.078125 183.16796875 C-173.80910401 158.50331187 -182.41198831 126.62625196 -182.04296875 93.05078125 C-181.25474305 62.15820896 -169.94020311 35.40969969 -148.828125 12.98046875 C-148.23902344 12.3153125 -147.64992188 11.65015625 -147.04296875 10.96484375 C-110.46558316 -28.58696661 -42.35238106 -30.24334393 0 0 Z M-110.44873047 51.25292969 C-114.74339628 56.63152355 -119.828125 65.02839096 -119.828125 71.98046875 C-85.178125 71.98046875 -50.528125 71.98046875 -14.828125 71.98046875 C-16.8495775 59.85175375 -22.95774664 49.3992967 -32.828125 41.98046875 C-40.72024377 37.01590366 -49.41828957 32.63039732 -58.828125 31.98046875 C-59.95476562 31.90054688 -61.08140625 31.820625 -62.2421875 31.73828125 C-80.80211209 31.08503339 -97.80778084 37.5166888 -110.44873047 51.25292969 Z " fill="#FFFFFF" transform="translate(709.828125,141.01953125)"/>
<path d="M0 0 C1.52739014 1.43053125 3.04892944 2.86735487 4.5625 4.3125 C5.16191406 4.84875 5.76132813 5.385 6.37890625 5.9375 C24.72399388 22.96310337 35.32004631 49.3635788 36.78369141 74.04199219 C36.90234591 78.13481507 36.94909681 82.21835619 36.9375 86.3125 C36.93695618 87.03661072 36.93641235 87.76072144 36.93585205 88.5067749 C36.87453426 106.31198829 34.15276426 122.14193702 26.5625 138.3125 C26.04945313 139.40820312 25.53640625 140.50390625 25.0078125 141.6328125 C11.6260102 168.20433382 -13.22644683 188.45152539 -41.21875 198.03125 C-74.03865428 208.45125763 -111.57450042 206.81183856 -142.55419922 191.31005859 C-170.27824444 176.62501209 -190.74691938 153.64476208 -200.75 123.9375 C-209.57776639 92.23601003 -207.33920892 57.2961392 -191.6484375 28.1171875 C-176.95089381 2.13193025 -150.61745689 -17.82339803 -122.0534668 -25.98413086 C-118.20415463 -26.99995919 -114.33423363 -27.87481706 -110.4375 -28.6875 C-109.30699219 -28.93242188 -108.17648437 -29.17734375 -107.01171875 -29.4296875 C-68.65165013 -36.26799033 -29.06523735 -25.73849332 0 0 Z M-131.9921875 42.48046875 C-135.446468 46.48103323 -138.05773524 50.60705605 -140.4375 55.3125 C-140.81390625 56.00472656 -141.1903125 56.69695312 -141.578125 57.41015625 C-149.41080775 73.04629531 -149.47491442 92.79135491 -144.4375 109.3125 C-138.02829076 127.02962397 -125.74617744 139.45394194 -108.875 147.625 C-95.74679294 153.72919819 -79.13624971 154.57521814 -65.265625 150.41015625 C-55.12721984 146.47522276 -47.05670821 141.02334818 -39.4375 133.3125 C-38.37402344 132.28189453 -38.37402344 132.28189453 -37.2890625 131.23046875 C-24.48821798 118.01273848 -20.90912502 101.37002698 -21.01757812 83.54907227 C-21.46531244 66.79778166 -27.30881864 51.79127987 -38.99609375 39.58984375 C-51.60657288 27.82678881 -66.25380586 20.83119752 -83.53515625 20.19921875 C-102.77014485 20.94997874 -118.76549803 28.70737758 -131.9921875 42.48046875 Z " fill="#FFFFFF" transform="translate(1502.4375,152.6875)"/>
<path d="M0 0 C7.00392663 -0.48615655 14.00346295 -0.81609285 21.02050781 -1.04370117 C23.4000891 -1.13863299 25.77857979 -1.26785797 28.15429688 -1.43334961 C47.25320711 -2.72934709 47.25320711 -2.72934709 53.38711548 1.7388916 C57.69425336 6.16890513 60.77415998 11.25141809 63.71044922 16.65817261 C65.38238604 19.69441398 67.31411311 22.41534945 69.33984375 25.2265625 C70.54547577 27.02175116 71.74479471 28.82119708 72.9375 30.625 C73.5871875 31.60355957 74.236875 32.58211914 74.90625 33.59033203 C79.94454303 41.24848889 84.76794525 49.02541618 89.5 56.875 C90.15347412 57.9573291 90.80694824 59.0396582 91.48022461 60.15478516 C92.07456299 61.15300293 92.66890137 62.1512207 93.28125 63.1796875 C93.80783203 64.06382324 94.33441406 64.94795898 94.87695312 65.85888672 C96 68 96 68 96 70 C119.43 70 142.86 70 167 70 C195.38542267 122.98612232 218.24984613 177.67166032 239.61373901 233.78067017 C242.28952759 240.7915905 245.06481124 247.7614849 247.92041016 254.70117188 C250 259.79646323 250 259.79646323 250 262 C206.11 262 162.22 262 117 262 C115.72900161 258.82250403 114.70975476 256.20328974 113.93774414 252.96459961 C113.75273346 252.19888641 113.56772278 251.43317322 113.37710571 250.64425659 C113.18176239 249.82192535 112.98641907 248.99959412 112.78515625 248.15234375 C112.34821471 246.34953556 111.91060441 244.54688935 111.47241211 242.74438477 C111.24311005 241.79798126 111.01380798 240.85157776 110.77755737 239.87649536 C105.61543665 218.65938827 99.76585741 197.75949321 93 177 C92.78772766 176.34704956 92.57545532 175.69409912 92.35675049 175.0213623 C73.08190097 115.87666944 45.45759961 60.0317817 7.20385742 10.8515625 C6.55521729 10.01496094 5.90657715 9.17835937 5.23828125 8.31640625 C4.66118408 7.57849854 4.08408691 6.84059082 3.48950195 6.08032227 C2.08063382 4.11261773 1.05311919 2.17146144 0 0 Z " fill="#5370EF" transform="translate(100,96)"/>
<path d="M0 0 C1.45923637 -0.00422974 1.45923637 -0.00422974 2.94795227 -0.00854492 C4.56240486 -0.00550858 4.56240486 -0.00550858 6.20947266 -0.00241089 C7.3363298 -0.00416321 8.46318695 -0.00591553 9.62419128 -0.00772095 C13.37398795 -0.01214519 17.12373795 -0.0091979 20.87353516 -0.00582886 C23.47371429 -0.00650211 26.07389335 -0.00747231 28.67407227 -0.00872803 C34.13851576 -0.01020608 39.6029416 -0.00814334 45.06738281 -0.00338745 C51.3684727 0.00203359 57.66953013 0.00030865 63.9706192 -0.00521386 C70.03984504 -0.01031891 76.1090566 -0.00975187 82.17828369 -0.00683212 C84.75539149 -0.00616622 87.33250011 -0.00697949 89.90960693 -0.00931168 C93.52390705 -0.01186259 97.13814583 -0.00796224 100.75244141 -0.00241089 C101.81254929 -0.00443512 102.87265717 -0.00645935 103.96488953 -0.00854492 C109.8910081 0.0082432 115.62104156 0.359242 121.49853516 1.12698364 C118.26363825 7.83347723 114.83393266 14.38889419 111.18603516 20.87698364 C99.3001497 42.08027307 88.15898381 63.70044829 77.03886414 85.31210327 C76.7187587 85.93421692 76.39865326 86.55633057 76.06884766 87.19729614 C75.59902214 88.11040558 75.59902214 88.11040558 75.1197052 89.04196167 C70.970591 97.1011885 66.75523442 105.12414518 62.49853516 113.12698364 C61.96470215 114.13164673 61.43086914 115.13630981 60.88085938 116.17141724 C46.33765182 143.51200232 31.47711607 170.59407652 15.49853516 197.12698364 C14.86608887 198.18272583 14.23364258 199.23846802 13.58203125 200.32620239 C-2.22191763 226.7002451 -2.22191763 226.7002451 -7.50146484 233.12698364 C-8.16146484 233.12698364 -8.82146484 233.12698364 -9.50146484 233.12698364 C-9.95078369 232.11559326 -9.95078369 232.11559326 -10.40917969 231.08377075 C-24.13539769 200.22935153 -38.19989863 169.53955021 -53.04174805 139.20419312 C-53.68498049 137.88861744 -54.3261775 136.57204412 -54.96508789 135.25436401 C-56.22668922 132.66308996 -57.5123056 130.10782918 -58.93212891 127.59915161 C-61.66329877 122.77119954 -61.66329877 122.77119954 -60.80493164 119.35427856 C-59.3845242 115.83744658 -57.77501491 112.45887421 -56.04443359 109.08792114 C-55.34380804 107.70410371 -54.64329184 106.32023092 -53.94287109 104.93630981 C-53.39203857 103.85330093 -53.39203857 103.85330093 -52.83007812 102.74841309 C-45.32592322 87.97551122 -38.16240793 73.08201122 -31.27783203 58.00930786 C-29.25185051 53.57579889 -27.20818608 49.15048315 -25.16552734 44.72463989 C-24.02566784 42.25257608 -22.88614304 39.78035838 -21.74682617 37.30804443 C-21.01482751 35.71968789 -20.2825792 34.13144636 -19.55004883 32.54333496 C-15.49036738 23.73678395 -11.48539474 14.91357043 -7.6645813 6.00021362 C-5.07589662 0.00225097 -5.07589662 0.00225097 0 0 Z " fill="#7252DF" transform="translate(402.50146484375,63.873016357421875)"/>
<path d="M0 0 C19.8 0 39.6 0 60 0 C60 73.92 60 147.84 60 224 C40.2 224 20.4 224 0 224 C0 150.08 0 76.16 0 0 Z " fill="#FFFFFF" transform="translate(1943,127)"/>
<path d="M0 0 C10.13425837 5.89975604 16.32632344 14.28279904 19.49609375 25.453125 C20.46006633 36.019266 19.64699523 45.45180994 13.37109375 54.203125 C7.72410421 60.91782265 0.2290855 65.96482641 -8.50390625 67.453125 C-21.2307216 68.4697641 -31.72465824 67.79459689 -41.87890625 59.265625 C-49.02573248 52.38012946 -52.54202725 45.45886134 -52.79711914 35.56469727 C-52.90330519 23.2511478 -50.5878113 15.76574408 -41.875 6.65234375 C-30.74826581 -3.66783969 -13.97557708 -6.04119314 0 0 Z " fill="#FFFFFF" transform="translate(1989.50390625,28.546875)"/>
<path d="M0 0 C7.62673729 7.1606589 11.49502744 15.98804154 11.921875 26.41796875 C11.61531456 36.31305841 8.52046559 44.0146898 1.609375 51.10546875 C-6.56564857 58.57744029 -15.80707504 61.42857385 -26.78125 61.25 C-37.20527889 60.67262115 -45.41528921 56.46148947 -52.765625 49.04296875 C-58.65763718 41.95824156 -61.17647706 32.65640387 -60.703125 23.5 C-59.42918337 13.73842229 -55.48613911 5.46729332 -47.921875 -1.0078125 C-33.04617101 -11.82854296 -14.51673812 -11.50427776 0 0 Z " fill="#8044D7" transform="translate(1616.390625,291.89453125)"/>
<path d="M0 0 C7.59391409 -0.2809772 15.18647033 -0.47238076 22.78442383 -0.60424805 C25.36370929 -0.65926377 27.94265647 -0.73410571 30.52075195 -0.82983398 C55.39113256 -1.72957497 55.39113256 -1.72957497 62.84375 5.18359375 C64.6691566 7.05709069 66.31972861 8.98780572 68 11 C69.22870113 12.08948503 70.4805743 13.15439081 71.76953125 14.171875 C87.73767792 27.7007284 103.43895436 42.02442673 117 58 C118.90241685 60.14679846 120.80733704 62.29131698 122.71484375 64.43359375 C124 66 124 66 124 67 C116.72306192 67.20328799 109.44685874 67.34312369 102.16772461 67.43945312 C99.69316242 67.4796188 97.21878931 67.53416419 94.74487305 67.60351562 C91.18230529 67.70086528 87.62225144 67.74599747 84.05859375 67.78125 C82.95728622 67.82254028 81.8559787 67.86383057 80.72129822 67.90637207 C73.17525696 67.91075406 73.17525696 67.91075406 69.89552307 65.36915588 C68.11241778 63.32741041 66.55789066 61.21648678 65 59 C64.06724312 57.97731705 63.11168265 56.97471543 62.12915039 55.99975586 C60.69289894 54.5617395 59.25667792 53.12369266 57.82090759 51.68519592 C56.76765476 50.63127038 55.71316955 49.57857501 54.6574707 48.52709961 C53.06541034 46.94040054 51.4787701 45.34842258 49.89257812 43.75585938 C44.43462228 38.29401546 38.90155769 32.98552495 33 28 C31.99022658 27.12315397 30.98107269 26.24559378 29.97265625 25.3671875 C20.37643472 17.14921523 10.52091463 9.01394309 0 2 C0 1.34 0 0.68 0 0 Z " fill="#9B2AC9" transform="translate(11,11)"/>
<path d="M0 0 C7.07874528 -0.33134479 14.15547677 -0.55794297 21.24023438 -0.71411133 C23.64626762 -0.77923971 26.05179113 -0.86777741 28.45605469 -0.98071289 C49.53399123 -1.94554801 49.53399123 -1.94554801 54.64233398 2.65063477 C57.35576963 5.80533754 59.14327206 9.29160695 61 13 C62.08627055 14.52668773 63.20340697 16.03235917 64.36328125 17.50390625 C96 60.80313649 96 60.80313649 96 67 C89.08327288 67.45926758 82.17049545 67.77262753 75.24194336 67.98876953 C72.89051561 68.07889225 70.54008606 68.20145686 68.19213867 68.35791016 C49.23331953 69.58884558 49.23331953 69.58884558 43.91836548 65.33328247 C40.3423699 61.0764549 38.08830343 56.26651142 35.95028687 51.16845703 C34.74143148 48.40997318 33.1831071 46.04512717 31.42578125 43.60546875 C30.91136475 42.86828613 30.39694824 42.13110352 29.86694336 41.37158203 C29.35397705 40.65083496 28.84101074 39.93008789 28.3125 39.1875 C27.74217041 38.37909668 27.17184082 37.57069336 26.58422852 36.73779297 C18.78366531 25.7684153 10.82068733 14.73056557 2.03515625 4.5234375 C0 2 0 2 0 0 Z " fill="#764EDC" transform="translate(160,81)"/>
<path d="M0 0 C7.61222886 -0.28071063 15.22310814 -0.47227149 22.83935547 -0.60424805 C25.42547469 -0.65930278 28.01125564 -0.73417462 30.59619141 -0.82983398 C54.43894574 -1.68957079 54.43894574 -1.68957079 60.92962646 3.72172546 C63.1665708 5.98982261 65.07289259 8.46704184 67 11 C68.91491224 12.87750642 70.91275123 14.61215989 72.9375 16.375 C81.50616468 24.19174113 89.93098146 32.29587661 97.43359375 41.15234375 C98.59116577 42.51775913 99.77503499 43.86097946 100.97265625 45.19140625 C101.62105469 45.91199219 102.26945312 46.63257813 102.9375 47.375 C103.52402344 48.02210937 104.11054688 48.66921875 104.71484375 49.3359375 C106 51 106 51 106 53 C60.09135259 57.62973797 60.09135259 57.62973797 46.12533569 47.11340332 C38.76017766 40.79206713 32.54113683 33.40363876 26.61979675 25.73852539 C22.03395736 19.81462533 17.00905194 15.49362887 11 11 C8.89077298 9.21151088 6.8565147 7.36409421 4.8125 5.5 C3.89082031 4.6646875 2.96914062 3.829375 2.01953125 2.96875 C1.35308594 2.3190625 0.68664062 1.669375 0 1 C0 0.67 0 0.34 0 0 Z " fill="#9332CD" transform="translate(89,11)"/>
</svg>
