<?xml version="1.0" encoding="UTF-8"?>
<svg version="1.1" xmlns="http://www.w3.org/2000/svg" width="1024" height="1024">
<path d="M0 0 C337.92 0 675.84 0 1024 0 C1024 337.92 1024 675.84 1024 1024 C686.08 1024 348.16 1024 0 1024 C0 686.08 0 348.16 0 0 Z " fill="#FEFEFE" transform="translate(0,0)"/>
<path d="M0 0 C7.31785416 -0.44390285 14.63273871 -0.77952487 21.96141243 -0.98443127 C25.36702428 -1.08290356 28.76332905 -1.2157529 32.16357422 -1.43334961 C54.08248671 -2.73335121 54.08248671 -2.73335121 60.56872559 1.79226685 C64.89999156 6.15861663 67.88612949 11.12755375 70.68525696 16.56832886 C72.76460798 20.4141738 75.38577129 23.82016664 78 27.3125 C82.48682927 33.65834038 86.75062884 40.14055444 90.9375 46.6875 C91.70610352 47.88596558 91.70610352 47.88596558 92.49023438 49.10864258 C93.01810547 49.94290771 93.54597656 50.77717285 94.08984375 51.63671875 C94.71012451 52.54969727 95.33040527 53.46267578 95.96948242 54.40332031 C97.79276211 57.32219051 98.8025767 60.28118593 99.8840332 63.54199219 C102.40885743 70.19124447 105.05399161 75.82064283 111 80 C122.77999301 84.24425015 137.1725373 82.45887048 149.44116211 81.97418213 C154.24027578 81.80841052 159.04033133 81.76920843 163.84179688 81.71875 C173.23296823 81.60169345 182.61465849 81.34579971 192 81 C198.6671809 92.8188556 205.0678522 104.73213894 211.125 116.875 C211.52775146 117.68038208 211.93050293 118.48576416 212.34545898 119.31555176 C220.82769941 136.31575605 228.63447402 153.58559814 236.15161133 171.03112793 C236.95275542 172.89035859 237.75656788 174.74843878 238.56054688 176.60644531 C245.55705226 192.81110308 252.1329208 209.18004787 258.64257812 225.58447266 C259.87582083 228.68754198 261.11537139 231.78795072 262.359375 234.88671875 C262.71491455 235.77246582 263.0704541 236.65821289 263.43676758 237.57080078 C264.06634551 239.13837149 264.69633178 240.70577833 265.3269043 242.27294922 C267.47841488 247.64038258 269.55746386 253.03427846 271.62817383 258.43334961 C273.07851149 262.20412428 274.54159949 265.96975521 276.0078125 269.734375 C276.78513369 271.73318119 277.56225202 273.73206618 278.33935547 275.73095703 C278.86600963 277.08441567 279.39336104 278.43760319 279.92138672 279.79052734 C280.70221956 281.79186197 281.48024539 283.79426967 282.2578125 285.796875 C282.7130127 286.96573242 283.16821289 288.13458984 283.63720703 289.33886719 C285.194435 293.52234814 286.58838844 297.76516533 288 302 C237.51 302 187.02 302 135 302 C131.04 286.16 127.08 270.32 123 254 C121.02 247.4 119.04 240.8 117 234 C116.01081364 230.54369401 115.02821392 227.08761968 114.0625 223.625 C111.93721685 216.10515329 109.67792384 208.63529543 107.3125 201.1875 C107.02705322 200.28660645 106.74160645 199.38571289 106.44750977 198.45751953 C105.03587322 194.05446941 103.55844852 189.6953644 101.9050293 185.37573242 C100.95574265 182.88382295 100.03161262 180.38307039 99.10835266 177.88142395 C85.45941697 140.98835396 69.41930318 104.68556954 49 71 C48.49500977 70.16162598 47.99001953 69.32325195 47.46972656 68.45947266 C33.68124515 45.62999004 18.72477747 23.22019156 1.4765625 2.8359375 C0 1 0 1 0 0 Z " fill="#5471EF" transform="translate(320,410)"/>
<path d="M0 0 C9.18748125 -0.03193291 18.37497177 -0.05141724 27.5625 -0.0625 C28.26689587 -0.06335602 28.97129173 -0.06421204 29.69703293 -0.06509399 C55.98856297 -0.09317099 82.27351457 0.14625077 108.5625 0.5 C109.89603956 0.51793673 109.89603956 0.51793673 111.25651932 0.53623581 C122.1711176 0.68369158 133.08560423 0.8382542 144 1 C143.20450247 4.45622072 141.9620755 7.17854891 140.26171875 10.3046875 C139.69525635 11.35116455 139.12879395 12.3976416 138.54516602 13.47583008 C137.93213623 14.59755615 137.31910645 15.71928223 136.6875 16.875 C136.04768291 18.05405669 135.40828394 19.23334036 134.76928711 20.4128418 C131.83975075 25.81449787 128.8900262 31.20500528 125.9296875 36.58984375 C118.59689022 49.93878611 111.5647643 63.42884947 104.5960083 76.96983337 C101.69159359 82.60870488 98.73808002 88.22080198 95.77246094 93.82763672 C92.7921347 99.47167537 89.8588221 105.13913603 86.93237305 110.8112793 C81.62757815 121.08766233 76.25298768 131.31383236 70.67578125 141.44506836 C67.8027597 146.67127177 64.97247006 151.917766 62.1875 157.19140625 C54.79831716 171.17493709 47.22038782 184.97981542 39.16796875 198.59765625 C36.32696116 203.41014836 33.61370456 208.2820345 30.9375 213.1875 C25.35308948 223.36846918 19.18199871 233.17458347 13 243 C11.89297016 244.76936923 10.78619667 246.53889887 9.6796875 248.30859375 C8.62026694 249.99769402 7.56038962 251.68650792 6.5 253.375 C5.77997803 254.52440063 5.77997803 254.52440063 5.04541016 255.69702148 C2.17434121 260.24683321 -0.83276751 264.65079307 -4 269 C-5.90342146 266.14486782 -7.28309719 263.39459409 -8.72265625 260.28515625 C-9.25632812 259.13466797 -9.79 257.98417969 -10.33984375 256.79882812 C-10.91418182 255.55344044 -11.48839772 254.3079964 -12.0625 253.0625 C-12.65615164 251.77925137 -13.24990247 250.49604862 -13.84375 249.21289062 C-17.10350733 242.1602646 -20.32723891 235.09223061 -23.5 228 C-31.81011632 209.44380103 -40.44064632 191.04333297 -49.3125 172.75 C-49.63880402 172.07683746 -49.96510803 171.40367493 -50.30130005 170.71011353 C-51.25797707 168.73830948 -52.21680697 166.7675626 -53.17578125 164.796875 C-53.48330826 164.16150314 -53.79083527 163.52613129 -54.10768127 162.87150574 C-55.78213716 159.42851056 -57.50534667 156.01976269 -59.29443359 152.63476562 C-59.85773628 151.55427948 -59.85773628 151.55427948 -60.43241882 150.45196533 C-61.15468255 149.07069216 -61.88819465 147.69522291 -62.63459778 146.32684326 C-64.71316564 142.32691529 -65.20611642 140.29780491 -64 136 C-63.32192284 134.40399807 -62.58324027 132.83288443 -61.79785156 131.28686523 C-61.33888992 130.37552826 -60.87992828 129.46419128 -60.40705872 128.52523804 C-59.65642403 127.05674911 -59.65642403 127.05674911 -58.890625 125.55859375 C-58.11310127 124.01832016 -58.11310127 124.01832016 -57.31987 122.44692993 C-56.21012926 120.24876357 -55.09796424 118.05181975 -53.98361206 115.85598755 C-51.08407678 110.13843085 -48.20706882 104.40959332 -45.33203125 98.6796875 C-44.77000504 97.55979935 -44.20797882 96.43991119 -43.62892151 95.28608704 C-38.04170575 84.1284887 -32.72771361 72.86962849 -27.58691406 61.49902344 C-25.74734949 57.44292506 -23.88622139 53.39703364 -22.0234375 49.3515625 C-20.96402739 47.04730151 -19.90510189 44.74281872 -18.84646606 42.4382019 C-18.17976551 40.98695098 -17.51269916 39.53586802 -16.84518433 38.08499146 C-11.04683593 25.46941436 -5.50445845 12.74620376 0 0 Z " fill="#7352DF" transform="translate(664,373)"/>
<path d="M0 0 C7.9718496 -0.28018216 15.94158742 -0.49229724 23.91716957 -0.62174606 C27.62235053 -0.68393451 31.32412431 -0.76799119 35.02734375 -0.90527344 C62.26150358 -1.88879079 62.26150358 -1.88879079 69.95394897 4.13580322 C72.5497787 6.59385588 74.74670341 9.22178773 77 12 C78.75504742 13.48198658 80.5416161 14.92860001 82.375 16.3125 C95.40250247 26.96285762 107.16311264 39.0666359 119.0625 50.9375 C119.6988739 51.57119507 120.3352478 52.20489014 120.99090576 52.85778809 C138.97870028 70.7881766 138.97870028 70.7881766 142 77 C134.55908468 77.18589511 127.11867494 77.32777113 119.67590237 77.41449738 C116.2192134 77.45613765 112.76412013 77.51254464 109.30834961 77.60351562 C105.32946321 77.70759391 101.35120793 77.74598235 97.37109375 77.78125 C95.52226845 77.84318542 95.52226845 77.84318542 93.63609314 77.90637207 C85.19746969 77.91076522 85.19746969 77.91076522 81.69561768 75.24734497 C79.93686765 73.24578646 78.46182303 71.22311268 77 69 C75.6438977 67.60635853 74.27320172 66.22639999 72.875 64.875 C70.58443439 62.6239269 68.5377343 60.43372452 66.5 57.9375 C63.94120282 54.93091332 61.22498992 52.52578731 58.2265625 49.9765625 C55.76553431 47.79186028 53.4849599 45.48080809 51.1875 43.125 C46.92485113 38.81012879 42.43267822 34.97987413 37.6953125 31.19921875 C35.16136671 29.13166588 32.76852195 26.97719246 30.375 24.75 C22.63834644 17.69526302 14.12552998 11.50391342 5.69628906 5.30615234 C4.9637793 4.76555176 4.23126953 4.22495117 3.4765625 3.66796875 C2.80963379 3.17965576 2.14270508 2.69134277 1.45556641 2.18823242 C0.97522949 1.79611572 0.49489258 1.40399902 0 1 C0 0.67 0 0.34 0 0 Z " fill="#9C2DCA" transform="translate(217,312)"/>
<path d="M0 0 C7.27556616 -0.25603583 14.5501467 -0.4508862 21.82932186 -0.56993389 C25.21051676 -0.62710713 28.58860902 -0.70447678 31.96801758 -0.82983398 C35.86361168 -0.96391757 39.75485652 -1.02578359 43.65234375 -1.07421875 C44.8526976 -1.13099289 46.05305145 -1.18776703 47.28977966 -1.2462616 C52.49589013 -1.25005418 55.69856581 -1.13620892 59.71531677 2.37059021 C62.0137865 5.15428937 64.0323186 7.97607074 66 11 C67.06836374 12.44250163 68.14332915 13.88018921 69.23046875 15.30859375 C70.22034894 16.68187593 71.20595849 18.05824549 72.1875 19.4375 C72.72938965 20.19482422 73.2712793 20.95214844 73.82958984 21.73242188 C74.97333114 23.33424908 76.11490979 24.93762252 77.25439453 26.54248047 C78.42426362 28.1894598 79.59715008 29.83429974 80.77294922 31.47705078 C90.09039745 44.49905731 98.88820248 57.74203334 106.65014648 71.75708008 C107.09253159 72.55527664 107.53491669 73.35347321 107.9907074 74.17585754 C108.32377396 74.77782455 108.65684052 75.37979156 109 76 C101.28461742 76.56216593 93.57454543 76.94461338 85.84326172 77.20849609 C83.22081446 77.3185311 80.59969931 77.46825226 77.98193359 77.65966797 C56.8442006 79.1654798 56.8442006 79.1654798 50.48834229 73.93179321 C46.11153214 68.75461664 43.19514574 62.99065365 40.40098572 56.85153198 C38.12358753 52.21617154 35.14480363 48.11218072 32.125 43.9375 C30.96737651 42.30213388 29.80981619 40.66672304 28.65234375 39.03125 C19.98298045 27.0074571 11.04101994 15.13380504 1.40625 3.86328125 C0 2 0 2 0 0 Z " fill="#774FDD" transform="translate(390,393)"/>
<path d="M0 0 C7.8584245 -0.28000231 15.71564844 -0.49221806 23.57783031 -0.62174606 C27.2303747 -0.68397105 30.87947039 -0.76809555 34.5300293 -0.90527344 C61.38972861 -1.88764664 61.38972861 -1.88764664 68.31277466 3.88957214 C70.789363 6.43691389 72.86881474 9.15429449 75 12 C76.66667476 13.56084661 78.36999693 15.08380336 80.11328125 16.55859375 C85.16351667 21.08839675 89.98363074 25.83174364 94.76928711 30.63891602 C96.19337492 32.06839717 97.62278044 33.49240511 99.05273438 34.91601562 C104.24513083 40.11564887 109.23742949 45.4052621 114 51 C114.73089844 51.82371094 115.46179688 52.64742188 116.21484375 53.49609375 C116.78332031 54.13675781 117.35179687 54.77742188 117.9375 55.4375 C118.52402344 56.09621094 119.11054688 56.75492187 119.71484375 57.43359375 C121 59 121 59 121 60 C113.46359454 60.23270445 105.92756547 60.4098795 98.38837528 60.51812172 C94.88644234 60.5701042 91.3869834 60.6404684 87.88647461 60.75439453 C83.85247501 60.88484685 79.82103149 60.93252788 75.78515625 60.9765625 C74.54105484 61.02817535 73.29695343 61.07978821 72.01515198 61.13296509 C66.93661127 61.13621433 63.42549758 61.12105971 59.34214783 57.90977478 C57.05505513 55.37102547 55.01867681 52.75473733 53 50 C52.02218632 48.93213973 51.02384175 47.88217474 49.99389648 46.86450195 C48.63582334 45.504659 47.27778257 44.14478362 45.92018127 42.7844696 C44.9259578 41.789577 43.93051675 40.7958996 42.93383789 39.8034668 C41.43193075 38.30695075 39.93548938 36.805117 38.43945312 35.30273438 C33.12882124 29.98843738 27.71298629 24.87868255 22 20 C20.39231627 18.54554483 18.78760285 17.08779105 17.1875 15.625 C12.6493379 11.51669486 7.94285874 7.65722427 3.15234375 3.84765625 C1 2 1 2 0 0 Z " fill="#9434CE" transform="translate(308,312)"/>
</svg>
