<svg xmlns="http://www.w3.org/2000/svg" width="1999" height="347"><path fill="#FEFEFE" d="M0 0h1999v347H0V0Z"/><path fill="#010101" d="M1193 18h59v322h-59v-17l-6.25 4.125c-26.643 17.172-58.213 23.174-89.574 17.621-28.963-6.804-54.302-25.612-70.176-50.746-16.755-27.193-22.072-62.403-14.902-93.559L1013 197l.809-3.473c4.97-19.593 15.307-36.015 29.191-50.527l1.816-2.008c15.952-17.019 39.708-29.517 63.149-30.898L1111 110l3.941-.156c29.225-.789 52.9 7.05 77.059 23.156l1-115ZM1814 131l3 2v-16h60v223h-59c-1.996-1.996-1.41-5.817-1.563-8.563l-.13-2.154c-.107-1.76-.207-3.522-.307-5.283l-1.59 1.25c-25.417 18.947-58.04 24.056-89.023 20.285-28.008-4.998-53.655-22.95-69.818-46.064-18.954-28.082-25.418-63.535-19.381-96.909 5.06-23.378 15.43-42.221 31.812-59.562l2.113-2.309C1682.893 127.21 1700.1 117.626 1718 113l2.785-.902c31.03-9.063 67.545.68 93.215 18.902ZM1482 134l2.535 1.86c23.648 18.138 39.154 43.833 43.638 73.394 4.033 31.176-1.308 62.779-20.486 88.246-20.968 26.13-49.053 43.6-82.687 47.5-5.15.266-10.282.28-15.438.25l-3.986.023c-8.376-.016-16.35-.707-24.576-2.273l-2.254-.426c-19.907-4.057-37.34-13.409-52.746-26.574l-2.453-2.012c-16.955-14.422-28.381-34.431-33.547-55.988l-.487-1.972c-7.395-31.11-1.549-62.942 14.358-90.239 16.37-25.934 43.373-44.36 73.01-51.524 36.269-8.12 74.897-2.548 105.119 19.735ZM907 113l3.297.809C929.075 118.96 945.13 129.63 959 143l1.96 1.77c13.11 12.154 22.513 30.092 27.04 47.23.18.642.36 1.284.547 1.945 4.642 17 3.453 31.807 3.453 50.055H823c4.374 13.996 7.622 23.505 17 34v2l1.766.82c2.223 1.174 4.021 2.49 5.984 4.055 13.833 10.523 29.425 10.626 46.25 9.125 5.783-1.09 10.814-3.279 16-6l2.902-1.453c8.95-4.898 15.115-11.749 20.098-20.547 8.667 1.54 17.304 3.218 25.938 4.938l3.88.763c7.79 1.552 15.499 3.288 23.182 5.299-3.375 19.04-21.229 37.884-36.188 48.688-27.837 18.415-62.888 25.535-95.875 19.062A174.145 174.145 0 0 1 847 343l-3.059-.809C831.434 338.454 819.24 332.066 809 324l-3.11-2.426c-23.806-19.067-37.987-46.192-41.372-76.53-1.456-15.794-1.613-31.656 2.482-47.044l.809-3.64c6.606-28.072 25.353-52.36 49.462-67.902C830.1 118.53 844.13 113.425 859 111l3.148-.555c14.917-1.724 30.307-1.212 44.852 2.555Z"/><path d="M699.938 131c12.841 10.086 24.014 21.751 32.062 36l1.092 1.89C746.344 192.386 746 217.039 746 244H577c6.832 20.496 13.854 36.059 33.457 46.281 12.686 5.89 30.662 5.997 43.98 2.031A109.412 109.412 0 0 0 660 290l2.64-1.063C673.639 284.08 680.759 275.26 688 266a1017.255 1017.255 0 0 1 52 11c-3.406 19.297-20.886 37.975-36.345 49.06-28 19.041-63.18 24.078-96.225 18.35-27.44-5.366-52.596-22.378-68.747-45.116-19.798-29.502-24.752-64.97-18.27-99.565 4.004-18.632 12-35.404 24.587-49.729l2.008-2.441c16.879-19.9 40.74-31.514 65.992-36.559l2.805-.59c30.097-3.863 59.446 3.1 84.133 20.59ZM90 85a659.624 659.624 0 0 1 20.703-.879 278.68 278.68 0 0 0 7.03-.328c18.824-1.09 18.824-1.09 24.437 2.655 3.757 3.658 6.315 7.92 8.745 12.535 1.478 2.747 3.276 5.21 5.116 7.724 1.161 1.699 2.318 3.4 3.469 5.106l1.893 2.79a796.554 796.554 0 0 1 14.826 22.842l1.306 2.022C179 142 179 142 180.252 145.04c1.594 3.528 3.082 6.138 5.748 8.959 4.523 1.36 8.773 1.255 13.429.965 2.29-.14 4.57-.198 6.864-.236 6.507-.125 13.005-.407 19.505-.704 26.63-1.157 26.63-1.157 32.466 2.326 3.447 3.56 4.82 7.713 6.076 12.425 1.064 3.586 2.899 6.697 4.695 9.958.679 1.33 1.351 2.664 2.018 4 1.302 2.605 2.614 5.203 3.937 7.797 14.097 27.935 25.87 57.004 37.374 86.076 1.59 4.012 3.189 8.02 4.786 12.03a9917.52 9917.52 0 0 1 9.134 23.027c1.417 3.582 2.838 7.164 4.261 10.744 1.049 2.642 2.095 5.285 3.14 7.928.715 1.806 1.433 3.611 2.152 5.416l1.273 3.228 1.113 2.81C339 344 339 344 339 346H207c-3.368-10.103-3.368-10.103-4.21-14.094l-.577-2.654-.588-2.752c-1.643-7.448-3.465-14.774-5.695-22.067-1.125-3.687-2.193-7.375-3.157-11.109C177.917 235.9 154.251 179.825 122 130l-1.322-2.054c-8.96-13.868-18.484-27.475-29.166-40.075C90 86 90 86 90 85Z"/><path fill="#010101" d="M388 53a21984.433 21984.433 0 0 1 38.147-.065c28.964-.025 57.9.23 86.853 1.065-8.333 16.84-8.333 16.84-12.75 24.563-5.503 9.77-10.653 19.716-15.813 29.67-2.129 4.098-4.282 8.183-6.437 12.267a5320.48 5320.48 0 0 0-10.875 20.75l-1.523 2.92c-2.543 4.874-5.08 9.75-7.61 14.63a1663.25 1663.25 0 0 1-19.325 36.16 2345.03 2345.03 0 0 0-5.382 9.884c-8.689 15.974-17.84 31.6-27.389 47.075a1272.02 1272.02 0 0 0-5.13 8.413c-4.025 6.651-8.08 13.282-12.329 19.793l-1.878 2.883L385 285h-2l-1.398-3.132c-14.023-31.386-28.454-62.543-43.552-93.426l-.982-2.015c-.874-1.79-1.75-3.58-2.626-5.37L333 178l-1.346-2.569c-.92-3.417.059-4.782 1.756-7.841l1.73-3.204 1.923-3.448c1.327-2.453 2.638-4.914 3.949-7.375l1.02-1.909c3.352-6.296 6.377-12.73 9.343-19.216a740894327.515 740894327.515 0 0 1 4.874-10.642c1.86-4.047 3.76-8.075 5.665-12.1l1.015-2.144 2.046-4.324c7.195-15.204 14.161-30.499 20.972-45.878A113.64 113.64 0 0 1 388 53Z"/><path fill="#FDFDFD" d="M1166.723 173.848c14.804 11.143 23.62 26.926 26.277 45.152 1.876 19.056-2.797 38.04-15 53-11.762 13.544-27.545 21.79-45.453 23.29-16.324.402-31.615-3.884-44.047-14.79a243.722 243.722 0 0 1-4.5-4.5l-1.664-1.566c-12.898-13.21-15.863-32.368-15.758-49.994.563-19.113 8.222-35.697 21.922-49.065 3.816-3.182 8.034-5.436 12.438-7.688l1.988-1.023c20.67-10.085 45.454-5.264 63.797 7.184Z"/><path fill="#FEFEFE" d="M1798.383 179.375c12.886 12.925 18.771 28.473 18.947 46.516-.112 19.725-4.154 36.102-18.435 50.418-13.898 12.922-29.25 19.503-48.395 18.968-16.457-1.304-29.992-7.418-41.5-19.277l-1.957-1.93c-12.453-13.077-15.66-31.043-15.448-48.462.61-19.13 7.132-35.778 20.905-49.296 25.363-21.728 61.714-18.42 85.883 3.063ZM1444 173c3.495 2.85 6.785 5.839 10 9l1.938 1.898c11.157 11.806 15.654 26.36 15.5 42.29l-.021 3.304c-.36 18.226-5.91 33.51-18.597 46.79-12.41 11.88-27.201 18.632-44.445 19.156-18.772-.741-34.257-8.256-47.434-21.508-13.353-14.646-17.133-31.541-16.394-50.977 1.087-17.312 7.192-30.65 19.453-42.953l1.828-1.898c20.528-19.725 55.34-22.5 78.172-5.102Z"/><path fill="#010101" d="M1933 117h59v223h-59V117ZM1982.125 20.125C1989.322 24.991 1996.13 32.347 1998 41c1.16 10.324 1.382 20.333-5 29l-1.316 1.938C1986.56 78.71 1978.338 83.61 1970 85c-12.898.868-22.164-.736-32.512-8.684-6.16-5.735-10.023-13.449-10.824-21.832-.124-11.853 2.148-20.69 10.336-29.484 12.8-11.918 29.947-13.392 45.125-4.875ZM1600 277l1.91 1.027c7.459 4.607 12.182 12.919 15.09 20.973 1.197 10.583.475 19.923-5.953 28.652-5.355 6.376-11.611 11.869-20.047 13.348-11.966.64-22.123.632-32-7-6.4-5.775-11.799-12.38-12.406-21.223-.378-11.655.69-20.276 8.68-29.363 11.944-11.643 29.861-14.928 44.726-6.414Z"/><path fill="#040404" d="M1 0c7.451-.281 14.902-.472 22.357-.604 2.531-.055 5.061-.13 7.591-.226 24.404-.9 24.404-.9 31.923 6.076A204.78 204.78 0 0 1 68 11c1.9 1.674 3.869 3.2 5.875 4.75 3.67 2.985 7.075 6.065 10.35 9.475 1.74 1.74 3.543 3.333 5.416 4.927 4.676 4.065 9.053 8.395 13.421 12.785l2.315 2.303C112.228 52.103 118.414 59.076 124 67c-6.825.436-13.647.73-20.483.934-2.318.085-4.634.2-6.948.348-20.245 1.265-20.245 1.265-27.571-4.944-3.517-3.507-6.556-7.292-9.472-11.306-2.12-2.822-4.497-5.198-7.026-7.657l-2.348-2.32c-2.613-2.495-5.3-4.88-8.047-7.227-2.462-2.138-4.84-4.359-7.23-6.578C28.53 22.465 21.795 17.242 15 12a2911.73 2911.73 0 0 1-7.875-6.125L5.266 4.44A204.861 204.861 0 0 1 1 1V0Z"/><path fill="#F9F9F9" d="M666.215 170.973A49.734 49.734 0 0 1 686 203H579c1.78-12.457 8.64-22.331 18.602-30.004 21.175-14.127 46.705-15.676 68.613-2.023Z"/><path fill="#020202" d="M150 70c6.862-.46 13.72-.773 20.593-.989 2.331-.09 4.661-.212 6.989-.369 18.747-1.23 18.747-1.23 24.819 3.05 4.208 4.146 7.317 8.87 10.24 13.978 1.761 3.02 3.757 5.834 5.793 8.673 1.813 2.542 3.543 5.136 5.278 7.732a885.021 885.021 0 0 0 3.874 5.73c4.34 6.406 8.53 12.889 12.539 19.507l1.184 1.942C244 133.757 244 133.757 244 136c-6.613.486-13.222.816-19.849 1.044-2.247.095-4.494.224-6.738.39-18.102 1.299-18.102 1.299-23.548-3.196-3.797-4.519-6.347-9.608-8.785-14.953-1.356-2.869-3.035-5.385-4.893-7.953l-1.61-2.301-1.577-2.219-1.752-2.483c-7.646-10.785-15.528-21.39-23.92-31.606C150 71 150 71 150 70Z"/><path fill="#FDFDFD" d="m913 172 1.926 1.332c7.582 5.834 13.187 15.613 16.074 24.668v4H825c3.845-15.381 11.603-25.31 25.164-33.496C869.96 158.006 894.686 159.132 913 172Z"/><path fill="#040404" d="M79 0c7.47-.28 14.938-.472 22.412-.604 2.538-.055 5.075-.13 7.611-.226 23.393-.86 23.393-.86 29.93 4.61C141.18 6.032 143.09 8.477 145 11a128.29 128.29 0 0 0 4.75 4.188c4.622 4.15 9.038 8.492 13.438 12.874l2.016 2.003C169.672 34.546 173.88 39.2 178 44l1.76 2.012C184 50.88 184 50.88 184 52c-7.06.306-14.12.515-21.185.66-2.4.06-4.798.14-7.196.245-21.023.892-21.023.892-26.44-3.355-2.888-2.87-4.988-6.132-7.179-9.55a94.525 94.525 0 0 0-4.074-4.207l-1.82-1.826c-.888-.88-.888-.88-1.793-1.78l-1.945-1.936c-3.721-3.684-7.486-7.273-11.49-10.653-2.301-1.958-4.522-3.997-6.753-6.035-4.283-3.878-8.724-7.492-13.29-11.032L79 1V0Z"/></svg>