<?xml version="1.0" encoding="UTF-8"?>
<svg id="Layer_1" data-name="Layer 1" xmlns="http://www.w3.org/2000/svg" viewBox="0 0 1918.26 777.38">
  <rect width="1918.26" height="777.38" style="fill: none;"/>
  <path d="M407.49,275.62c5.2,10.85,8.52,24.02,8.52,43.36,0,35.33-25.07,87.15-45.38,120.12l-21.74-174.33-89.77,8.49,41.12,244.99h102.52c44.89-58.89,100.19-142.75,100.19-207.31,0-20.24-4.26-36.26-13.71-51.82l-81.75,16.49ZM654.73,260.06c-93.56,0-138.94,81.05-138.94,157.37,0,58.89,27.9,106,105.85,106,30.73,0,62.39-6.6,82.7-16.49l10.86-73.48c-28.83,14.6-51.02,20.24-74.18,20.24-21.28,0-37.32-11.28-37.32-40.04,48.21-.47,131.35-20.24,131.35-84.8,0-40.04-28.8-68.8-80.31-68.8ZM605.59,367.01c2.37-28.26,24.08-48.04,40.62-48.04,9.46,0,17.48,5.64,17.48,16.95,0,23.55-41.59,31.08-58.11,31.08ZM934.06,260.06c-33.53,0-57.17,12.74-75.12,24.51l-.96-20.27h-76.08l-40.16,253.95h87.9l27.87-178.08c7.56-3.78,18.91-8.96,30.23-8.96,8.53,0,15.62,2.82,15.62,14.13,0,4.71-1.43,13.2-1.9,17.42l-24.57,155.49h87.41s26.94-169.62,26.94-169.62c1.43-8.93,2.86-22.6,2.86-32.02,0-33.94-15.62-56.56-60.04-56.55ZM1334.87,260.06c-32.59,0-56.23,9.91-81.27,27.8-9-16.02-26.94-27.8-54.35-27.79-31.66,0-55.27,12.74-72.76,25.44l-2.36-21.2h-75.15l-40.16,253.95h87.87l27.89-178.08c7.56-3.78,18.89-8.96,30.23-8.96,8.49,0,15.59,2.82,15.59,15.56,0,3.28-.94,8.46-1.4,12.71l-25.04,158.77h87.41l27.87-178.08c8.06-4.25,18.91-8.96,29.77-8.96,8.52,0,15.62,2.82,15.62,15.56,0,3.28-.97,8.46-1.43,12.71l-25.04,158.77h87.43l26.91-169.62c1.43-8.93,2.86-22.6,2.86-32.02,0-33.94-15.61-56.56-60.49-56.56ZM1558.47,260.06c-97.82,0-140.34,74.94-140.34,155.02,0,60.77,24.57,109.31,98.75,109.31,100.18,0,142.24-81.97,142.24-161.13,0-59.84-26.94-103.2-100.66-103.2ZM1529.16,457.01c-15.58,0-22.2-14.6-22.2-38.18,0-31.09,7.08-91.86,41.58-91.86,15.58,0,20.78,14.13,20.78,34.87,0,31.09-7.56,95.18-40.17,95.18Z" style="fill: #008cff;"/>
</svg>