<svg xmlns="http://www.w3.org/2000/svg" xml:space="preserve" id="svg1" x="0" y="0" version="1.1" viewBox="0 0 512 65.1">
  <style>
    .st0{fill:#f29111}.st1{fill:#00758a}
  </style>
  <path id="path19" d="m48.8 0-7.6 26h34.3V9.3c0-2.8-1.2-5.2-3.1-7-.8-.7-1.7-1.3-2.7-1.7-1-.4-2.2-.6-3.4-.6H48.8zm6.6 8.9h10.9c.2 0 .3.2.3.3v8H53l2.4-8.3z" class="st0"/>
  <path id="path17" d="m0 0 16.3 57.6c.4 1.4.8 2.2 1.3 3 .2.3.4.6.6.8.5.6 1.2 1.2 1.9 1.7.8.5 1.5.9 2.4 1.2 1 .3 1.9.4 3.1.4h13.6l6-20.9h21.4v11.7c0 .2-.2.3-.3.3H51l-2.6 8.9h17.8c2.4 0 4.5-.9 6.1-2.3 2-1.7 3.2-4.1 3.2-7V34.9H38.7l-6 20.9H25L11.7 8.9h9.2L25.8 26H35L27.6 0H0z" class="st1"/>
  <path id="path9" d="m469 19.4 15.1 21.7-15.9 23h10.3l11-16.6 10.7 16.6H512l-15.9-22.9 15.1-21.8h-10.5l-10.1 15.3-10-15.3H469z" class="st0"/>
  <path id="path8" d="M416.3 46.3c.1-1.9-.2-3.6-.6-5-.7-2.6-2-4.5-3.6-6-.9-.9-2-1.6-3.1-2.2-1.4-.7-2.6-1.3-4.2-1.7 1.4-.4 2.4-1 3.7-2 .8-.6 1.6-1.4 2.3-2.3 1.1-1.4 1.9-2.8 2.4-4.7.3-1.2.5-2.3.5-4 0-1.3-.1-2.8-.4-4-.4-1.8-1.1-3.5-1.9-4.8-1.2-1.9-2.9-3.4-4.8-4.4-1.6-.9-3.2-1.4-4.9-1.9-2.6-.7-7-1-9-1h-22v61.8h20.8c1.8 0 4.4-.1 6.2-.3 5.7-.6 10.5-2.2 13.7-5 1.1-1 2.7-2.7 3.8-5.5.6-1.8 1-4 1.1-7zm-13.2-27.2c0 2.1-.2 3.5-.8 4.8-.8 1.6-2.2 2.7-3.8 3.4-2 .8-5.8 1.3-8.2 1.3h-9.5v-18h10.5c2.2 0 4.4.3 6.1.8 3.6 1 5.7 3.2 5.7 7.7zm-9.9 36.7h-12.4V36.4h11.4c2.9 0 5.3.4 7.3 1.1 2.3.8 4.3 2.1 5.4 4.3 1.1 2.4 1.2 6.4-.3 9.2-.8 1.4-2 2.6-4.2 3.5-1.1.5-2.7.8-4.1 1.1-1.1.1-1.9.2-3.1.2z" class="st0"/>
  <path id="path6" d="M466.6 41.7c0-9.5-3.2-15.5-7.7-19-4.1-3.1-9.2-4.3-14-4.3-4.2 0-8.5.8-12.1 3-3.3 1.9-6.5 5.4-8.2 10.4-.9 2.8-1.5 6.1-1.5 9.9 0 6.4 1.4 11.2 3.7 14.8 2.3 3.6 5.8 6 9.5 7.3 2.8 1 5.5 1.2 8.5 1.2 5.8 0 11.9-1.1 16.8-6.9 1.2-1.4 2.3-3.1 3-5.1 1.5-3.5 2-6.8 2-11.3zm-10.3 0c0 13.4-6.6 15.3-11.4 15.3-5.1 0-11.4-2.1-11.4-15.3 0-11.8 5.4-15.3 11.4-15.3 5.7 0 11.4 3.2 11.4 15.3z" class="st0"/>
  <path id="path16" d="M156 19.4v4.2l4.5 3.3v37.2h10.3V19.4H156z" class="st1"/>
  <path id="path15" d="M159 1.9v8.4h11.8V1.9H159z" class="st1"/>
  <path id="path14" d="M343.3.3v4.1l4.5 3.3v56.4h10.3V.3h-14.8z" class="st1"/>
  <path id="path13" d="M336.2 64.1V34.4c0-7.3-2.6-11.7-7.2-13.9-2.8-1.4-6.2-2-10.3-2-3.6 0-6.8.5-9.4 1.1-4.2.9-6.8 2.1-6.8 2.1v8s8-3.2 14.9-3.2c3.9 0 6.2.5 7.4 2.4.7 1 1.2 3 1.2 4.7V36h-9.2c-1.5 0-4.4.2-7.4 1.1-1.5.4-3 1.1-4.4 1.9-2.4 1.5-4.6 3.9-5.6 6.7-.5 1.5-.9 3.2-.9 5.3 0 4.9 1.5 7.7 3.5 9.8 3.3 3.5 7.7 4.3 11.4 4.3 6.6 0 10.5-3.2 12.2-4.9.6-.6 2.3-2.7 2.3-2.7l1.4 6.7h6.9zm-10.1-12.8s-1.2 1.9-3.1 3.5c-1.3 1.1-3.5 2.1-5.6 2.5-2 .3-4.1.3-5.9-.7-1.7-1-3.2-3-3.2-5.8 0-1.2 0-2.1.3-3 .4-1.5 1.4-2.5 2.4-3.3 1.1-.8 2.4-1.3 4-1.6 1.4-.2 2.9-.2 4.4-.2h6.6v8.6z" class="st1"/>
  <path id="path12" d="M289.3 64.1V19.4H279v29s-1.2 2.9-3.5 5c-1.8 1.6-4.1 2.9-7.4 3.1-3.7.2-5.9-1.5-7.1-4.1-.7-1.5-1.1-4.4-1.1-5.2V19.4h-10.3v27.1c0 5 .8 8.7 2.2 11.2 3 5.6 8 7.4 13.5 7.2 6.1 0 10.2-2.8 12.3-4.7 1.1-1 3.1-3.4 3.1-3.4l1.6 7.2h7z" class="st1"/>
  <path id="path11" d="M240.8 64.1v-8s-.6.2-3.5.2c-1.1 0-3.4-.1-4.8-1.4-1.3-1.2-1.8-3.5-1.8-5.4V27.4h9.6v-8h-9.6V6.8h-6.6l-3.5 12.4-8 3.1v5.1h7.7v21.9c0 4.4.6 6.9 1.7 9 .8 1.7 1.9 2.9 3.2 3.8 2.6 1.8 5.8 2.4 8.6 2.4 6.7 0 7-.4 7-.4z" class="st1"/>
  <path id="path10" d="M207.2 28.8v-9.3c.1-.1-3.2-.5-5.9-.1-1.6.3-3.3.9-4.4 1.6-3.8 2.2-5.6 5.9-5.6 5.9l-1.7-7.5h-6.8v44.7h10.3V37.6c1.1-3.1 2.7-6 5.7-7.6 1.3-.7 2.6-1.1 4.2-1.2 1.3-.1 4.2 0 4.2 0z" class="st1"/>
  <path id="path1" d="M153.1 2.4h-11.4l-12 35.5c-1.9 5.7-4.5 13.2-4.5 13.2s-2.6-7.6-4.5-13.2l-12-35.5H96.8l22.9 61.8h10.4l23-61.8z" class="st1"/>
</svg>