<svg xmlns="http://www.w3.org/2000/svg" xml:space="preserve" style="enable-background:new 0 0 512 437.8" viewBox="0 0 512 437.8">
  <path d="m330.6 0-51.2 176.3H512v-113c0-18.7-8-35.6-20.8-47.1-5.4-4.9-11.5-8.8-18.1-11.5C465.7 1.6 457 0 449 0H330.6zm45 60h74.2c1.3 0 2.4 1.1 2.4 2.4v54h-92.9L375.6 60z" style="fill:#f29111"/>
  <path d="m0 0 110.6 389.9c2.8 9.7 5.3 14.8 9 20.2 1.3 2 2.8 3.8 4.3 5.6 3.7 4.4 7.9 8.1 12.6 11.2 5.2 3.5 10.4 6.1 16.3 8 6.9 2.2 13 2.9 21.2 2.9h92.3l40.9-141.4h145v79c0 1.3-1.1 2.4-2.4 2.4H345.7l-17.4 60h120.6c16.4 0 30.6-5.8 41.6-15.5 13.2-11.6 21.5-28 21.5-47.7V236.4H262l-40.9 141.4h-51.7L79.3 60h62.3l33 116.3h62.2L186.8 0H0z" style="fill:#00758a"/>
</svg>