<svg viewBox="0 0 256 234" width="256" height="234" xmlns="http://www.w3.org/2000/svg" preserveAspectRatio="xMidYMid"><path d="m192.115 70.808-61.2 88.488a5.27 5.27 0 0 1-2.673 2.002 5.285 5.285 0 0 1-3.343-.005 5.25 5.25 0 0 1-2.66-2.01 5.214 5.214 0 0 1-.903-3.203l2.45-48.854-39.543-8.386a5.256 5.256 0 0 1-2.292-1.118 5.222 5.222 0 0 1-1.83-4.581 5.226 5.226 0 0 1 .895-2.383L142.218 2.27a5.279 5.279 0 0 1 6.016-1.996 5.243 5.243 0 0 1 2.66 2.01c.643.942.96 2.066.903 3.203l-2.45 48.855 39.542 8.386a5.262 5.262 0 0 1 2.293 1.117 5.21 5.21 0 0 1 1.829 4.582 5.212 5.212 0 0 1-.896 2.382Z" fill="#FCC72B"/><path d="M128.025 233.537a12.356 12.356 0 0 1-8.763-3.63l-57.828-57.823a12.389 12.389 0 0 1 .023-17.5 12.394 12.394 0 0 1 17.5-.024l49.068 49.061L234.917 96.733a12.39 12.39 0 0 1 17.523 17.524l-115.655 115.65a12.343 12.343 0 0 1-8.76 3.63Z" fill="#729B1B"/><path d="M127.975 233.537a12.356 12.356 0 0 0 8.763-3.63l57.828-57.823a12.385 12.385 0 0 0 3.605-8.754 12.395 12.395 0 0 0-12.375-12.376 12.4 12.4 0 0 0-8.755 3.606l-49.066 49.061L21.082 96.733a12.392 12.392 0 0 0-17.524 17.524l115.656 115.65a12.347 12.347 0 0 0 8.76 3.63Z" fill-opacity=".5" fill="#729B1B"/></svg>