<svg width="987" height="303" viewBox="0 0 987 303" fill="none" xmlns="http://www.w3.org/2000/svg">
<path d="M866.196 122.727V131.534H824.548V122.727H866.196ZM837.56 101.818H847.73V187.216C847.73 190.852 848.355 193.712 849.605 195.795C850.855 197.841 852.484 199.299 854.492 200.17C856.499 201.004 858.639 201.42 860.912 201.42C862.238 201.42 863.374 201.345 864.321 201.193C865.268 201.004 866.101 200.814 866.821 200.625L868.98 209.773C867.995 210.151 866.783 210.492 865.344 210.795C863.904 211.136 862.124 211.307 860.003 211.307C856.291 211.307 852.711 210.492 849.264 208.864C845.855 207.235 843.052 204.811 840.855 201.591C838.658 198.371 837.56 194.375 837.56 189.602V101.818Z" fill="white"/>
<path d="M805.06 93.6365V210H794.946V93.6365H805.06Z" fill="white"/>
<path d="M734.335 211.818C726.797 211.818 720.131 209.905 714.335 206.079C708.578 202.254 704.07 196.97 700.813 190.227C697.555 183.447 695.926 175.625 695.926 166.761C695.926 157.822 697.555 149.962 700.813 143.182C704.07 136.364 708.578 131.061 714.335 127.273C720.131 123.447 726.797 121.534 734.335 121.534C741.873 121.534 748.521 123.447 754.279 127.273C760.036 131.098 764.544 136.401 767.801 143.182C771.097 149.962 772.744 157.822 772.744 166.761C772.744 175.625 771.116 183.447 767.858 190.227C764.601 196.97 760.074 202.254 754.279 206.079C748.521 209.905 741.873 211.818 734.335 211.818ZM734.335 202.557C740.396 202.557 745.529 200.928 749.733 197.67C753.938 194.413 757.119 190.076 759.279 184.659C761.476 179.242 762.574 173.276 762.574 166.761C762.574 160.246 761.476 154.261 759.279 148.807C757.119 143.352 753.938 138.977 749.733 135.682C745.529 132.386 740.396 130.739 734.335 130.739C728.313 130.739 723.18 132.386 718.938 135.682C714.733 138.977 711.532 143.352 709.335 148.807C707.176 154.261 706.097 160.246 706.097 166.761C706.097 173.276 707.176 179.242 709.335 184.659C711.532 190.076 714.733 194.413 718.938 197.67C723.142 200.928 728.275 202.557 734.335 202.557ZM758.085 96.1931V105H710.529V96.1931H758.085Z" fill="white"/>
<path d="M683.753 122.727L651.878 210H641.083L609.208 122.727H620.173L646.083 196.648H646.878L672.787 122.727H683.753Z" fill="white"/>
<path d="M595 101.87L565.723 210.5H556.234L585.511 101.87H595Z" fill="white"/>
<path d="M922.766 101.87L893.489 210.5H884L913.277 101.87H922.766Z" fill="white"/>
<path d="M496.423 122.727V140.909H443.866V122.727H496.423ZM455.798 101.818H480.003V183.182C480.003 185.417 480.344 187.159 481.026 188.409C481.707 189.621 482.654 190.473 483.866 190.966C485.116 191.458 486.556 191.704 488.185 191.704C489.321 191.704 490.457 191.61 491.594 191.42C492.73 191.193 493.601 191.023 494.207 190.909L498.014 208.92C496.802 209.299 495.098 209.735 492.901 210.227C490.704 210.758 488.033 211.079 484.889 211.193C479.056 211.42 473.942 210.644 469.548 208.864C465.192 207.083 461.802 204.318 459.378 200.568C456.954 196.818 455.76 192.083 455.798 186.364V101.818Z" fill="white"/>
<path d="M430.614 93.6365V210H406.409V93.6365H430.614Z" fill="white"/>
<path d="M394.023 122.727L363.511 210H336.239L305.727 122.727H331.295L349.42 185.17H350.33L368.398 122.727H394.023Z" fill="white"/>
<path d="M224 64C241.673 64 256 78.3269 256 96C256 113.673 241.673 128 224 128C218.905 128 213.674 129.926 211.129 134.339L190.143 170.736C185.588 178.637 187.682 188.522 190.472 197.204C191.464 200.291 192 203.583 192 207C192 224.673 177.673 239 160 239C142.327 239 128 224.673 128 207C128 203.583 128.536 200.291 129.528 197.204C132.317 188.522 134.411 178.637 129.856 170.737L108.87 134.338C106.325 129.925 101.094 128 96 128C78.3269 128 64 113.673 64 96C64 78.3269 78.3269 64 96 64C113.673 64 128 78.3269 128 96C128 99.4168 127.464 102.708 126.472 105.795C123.682 114.477 121.588 124.362 126.143 132.262L147.129 168.66C149.674 173.074 154.906 175 160 175C165.094 175 170.325 173.074 172.869 168.661L193.856 132.262C198.411 124.362 196.318 114.477 193.528 105.795C192.536 102.708 192 99.4167 192 96C192 78.3269 206.327 64 224 64Z" fill="white"/>
</svg>
