<?xml version="1.0" encoding="UTF-8"?>
<svg version="1.1" xmlns="http://www.w3.org/2000/svg" width="400" height="400">
<path d="M0 0 C132 0 264 0 400 0 C400 132 400 264 400 400 C268 400 136 400 0 400 C0 268 0 136 0 0 Z " fill="#000000" transform="translate(0,0)"/>
<path d="M0 0 C13.66518863 -0.09279907 27.33030193 -0.16381561 40.99574184 -0.20724869 C47.34159435 -0.22809745 53.6872308 -0.25636619 60.03295898 -0.30175781 C66.16026487 -0.34531131 72.28736331 -0.3691575 78.41481209 -0.37950897 C80.74912848 -0.38688321 83.0834339 -0.40128333 85.41766167 -0.42292023 C88.69462234 -0.45207969 91.97073259 -0.45595065 95.24780273 -0.45410156 C96.20662354 -0.46848267 97.16544434 -0.48286377 98.15332031 -0.49768066 C107.41564192 -0.44135877 114.44450295 2.72730812 121.20703125 9.00390625 C126.90915178 15.35201865 129.09840996 21.98661023 129.16062927 30.41786194 C129.1706749 31.49281921 129.18072052 32.56777649 129.19107056 33.67530823 C129.19690155 34.84472458 129.20273254 36.01414093 129.20874023 37.21899414 C129.21852402 38.45865936 129.2283078 39.69832458 129.23838806 40.97555542 C129.2683047 45.07874621 129.29003233 49.18190231 129.30859375 53.28515625 C129.31189107 53.98527352 129.31518839 54.68539079 129.31858563 55.40672374 C129.34936815 62.02027894 129.37605133 68.63383904 129.39300442 75.24744511 C129.41487627 83.67826892 129.45678841 92.10845324 129.52644199 100.53902155 C129.57386089 106.48235664 129.5979618 112.42552032 129.6052013 118.36903852 C129.61013164 121.91093282 129.62495812 125.45210499 129.6649456 128.99379158 C129.7090757 132.95445993 129.70487559 136.91432258 129.69702148 140.87524414 C129.71702209 142.03049088 129.73702271 143.18573761 129.75762939 144.37599182 C129.6751424 153.69166628 127.05022168 161.5010397 120.74100399 168.5092783 C113.31430295 175.71562754 105.94484309 177.45997366 95.91210938 177.34057617 C94.93558411 177.34101425 93.95905884 177.34145233 92.95294189 177.34190369 C89.74966912 177.33982638 86.54693048 177.31654514 83.34375 177.29296875 C81.11316209 177.28736904 78.88257047 177.28310071 76.65197754 177.28010559 C70.79937438 177.26868641 64.94699684 177.23924431 59.09448242 177.20599365 C53.11510265 177.17522968 47.13568621 177.16158674 41.15625 177.14648438 C29.43740122 177.11437189 17.71871942 177.06321091 6 177 C5.89453857 177.55872803 5.78907715 178.11745605 5.68041992 178.69311523 C5.18914632 181.27583359 4.6883751 183.85662721 4.1875 186.4375 C3.9390332 187.75524414 3.9390332 187.75524414 3.68554688 189.09960938 C2.54864605 194.91281925 1.01959066 200.43144473 -1 206 C-14.66518863 206.09279907 -28.33030193 206.16381561 -41.99574184 206.20724869 C-48.34159435 206.22809745 -54.6872308 206.25636619 -61.03295898 206.30175781 C-67.16026487 206.34531131 -73.28736331 206.3691575 -79.41481209 206.37950897 C-81.74912848 206.38688321 -84.0834339 206.40128333 -86.41766167 206.42292023 C-89.69462234 206.45207969 -92.97073259 206.45595065 -96.24780273 206.45410156 C-97.68603394 206.47567322 -97.68603394 206.47567322 -99.15332031 206.49768066 C-108.35277089 206.44174107 -115.473457 203.29878433 -122.20703125 197.0625 C-127.84775747 190.57382147 -130.09767308 183.0836403 -130.16062927 174.62010193 C-130.1706749 173.55355881 -130.18072052 172.48701569 -130.19107056 171.38815308 C-130.19690155 170.22808746 -130.20273254 169.06802185 -130.20874023 167.87280273 C-130.21852402 166.64289108 -130.2283078 165.41297943 -130.23838806 164.14579773 C-130.26830355 160.07507263 -130.29003223 156.0043825 -130.30859375 151.93359375 C-130.31189107 151.2389871 -130.31518839 150.54438044 -130.31858563 149.8287251 C-130.34936819 143.26707091 -130.37605102 136.70541178 -130.39300442 130.14370632 C-130.41487572 121.77944324 -130.45678685 113.41582479 -130.52644199 105.05181926 C-130.57386344 99.15519296 -130.59796214 93.25873941 -130.6052013 87.36192852 C-130.61013129 83.8479774 -130.62495417 80.33475421 -130.6649456 76.8210125 C-130.70908142 72.89147578 -130.70487505 68.96275097 -130.69702148 65.03295898 C-130.71702209 63.88706299 -130.73702271 62.74116699 -130.75762939 61.56054688 C-130.67480533 52.27870167 -128.04599156 44.43735577 -121.71170712 37.49036312 C-114.32174644 30.43167733 -107.89827928 28.54250911 -97.93383789 28.65942383 C-96.45463867 28.65876671 -96.45463867 28.65876671 -94.94555664 28.65809631 C-91.70438448 28.66017691 -88.46373742 28.6834739 -85.22265625 28.70703125 C-82.96821882 28.71262979 -80.71377772 28.71689867 -78.45933533 28.71989441 C-72.53931518 28.73132282 -66.6195175 28.76077297 -60.69958496 28.79400635 C-54.65326954 28.82475032 -48.60691801 28.838409 -42.56054688 28.85351562 C-30.70693377 28.88564442 -18.85348542 28.93681669 -7 29 C-6.89453857 28.44127197 -6.78907715 27.88254395 -6.68041992 27.30688477 C-6.18914632 24.72416641 -5.6883751 22.14337279 -5.1875 19.5625 C-5.02185547 18.68400391 -4.85621094 17.80550781 -4.68554688 16.90039062 C-3.54864605 11.08718075 -2.01959066 5.56855527 0 0 Z " fill="#00CBE4" transform="translate(200,97)"/>
<path d="M0 0 C1.47919922 -0.00065712 1.47919922 -0.00065712 2.98828125 -0.00132751 C6.22945341 0.00075308 9.47010047 0.02405007 12.71118164 0.04760742 C14.96561907 0.05320596 17.22006017 0.05747484 19.47450256 0.06047058 C25.39452271 0.07189899 31.31432039 0.10134914 37.23425293 0.13458252 C43.28056835 0.1653265 49.32691988 0.17898517 55.37329102 0.1940918 C67.22690412 0.22622059 79.08035247 0.27739286 90.93383789 0.34057617 C86.56237376 19.68197234 82.13692812 38.99749539 77.24633789 58.21557617 C76.34458681 61.77496541 75.4451035 65.33492235 74.54711914 68.89526367 C74.33044586 69.75413681 74.11377258 70.61300995 73.89053345 71.49790955 C70.54841801 84.79631664 67.3868739 98.13793292 64.43383789 111.52807617 C62.56203159 119.89676973 60.41602054 128.15444792 58.04711914 136.39526367 C56.92965362 140.35540464 55.93181955 144.34864954 54.93383789 148.34057617 C71.10383789 148.34057617 87.27383789 148.34057617 103.93383789 148.34057617 C99.93383789 168.34057617 99.93383789 168.34057617 96.93383789 177.34057617 C83.26864926 177.43337524 69.60353596 177.50439178 55.93809605 177.54782486 C49.59224354 177.56867362 43.24660709 177.59694236 36.90087891 177.64233398 C30.77357302 177.68588748 24.64647458 177.70973367 18.5190258 177.72008514 C16.18470941 177.72745938 13.85040399 177.7418595 11.51617622 177.7634964 C8.23921555 177.79265586 4.9631053 177.79652682 1.68603516 177.79467773 C0.24780396 177.81624939 0.24780396 177.81624939 -1.21948242 177.83825684 C-10.418933 177.78231724 -17.53961911 174.6393605 -24.27319336 168.40307617 C-29.91391958 161.91439765 -32.16383518 154.42421647 -32.22679138 145.9606781 C-32.23683701 144.89413498 -32.24688263 143.82759186 -32.25723267 142.72872925 C-32.26306366 141.56866364 -32.26889465 140.40859802 -32.27490234 139.21337891 C-32.28468613 137.98346725 -32.29446991 136.7535556 -32.30455017 135.4863739 C-32.33446566 131.41564881 -32.35619434 127.34495867 -32.37475586 123.27416992 C-32.37805318 122.57956327 -32.3813505 121.88495661 -32.38474774 121.16930127 C-32.4155303 114.60764708 -32.44221313 108.04598795 -32.45916653 101.48428249 C-32.48103783 93.12001941 -32.52294896 84.75640096 -32.5926041 76.39239544 C-32.64002555 70.49576913 -32.66412424 64.59931559 -32.67136341 58.70250469 C-32.67629339 55.18855357 -32.69111628 51.67533039 -32.73110771 48.16158867 C-32.77524353 44.23205195 -32.77103716 40.30332714 -32.76318359 36.37353516 C-32.7831842 35.22763916 -32.80318481 34.08174316 -32.8237915 32.90112305 C-32.74096744 23.61927784 -30.11215367 15.77793194 -23.77786922 8.83093929 C-16.38790855 1.7722535 -9.96444138 -0.11691471 0 0 Z " fill="#006CA7" transform="translate(102.066162109375,125.659423828125)"/>
</svg>
