<svg width="100" height="76" viewBox="0 0 100 76" fill="none" xmlns="http://www.w3.org/2000/svg">
<g clip-path="url(#clip0_203_44)">
<path fill-rule="evenodd" clip-rule="evenodd" d="M38.4583 -0.0413818C39.2361 -0.0413818 40.0139 -0.0413818 40.7917 -0.0413818C43.9332 0.421898 46.336 1.99488 48 4.67757C56.8187 24.1588 65.5687 43.6693 74.25 63.2092C75.3969 67.3513 74.383 70.8698 71.2083 73.7647C69.5366 75.0586 67.6478 75.79 65.5417 75.9586C65.2083 75.9586 64.875 75.9586 64.5417 75.9586C61.1612 75.6799 58.5362 74.1345 56.6667 71.3225C47.8203 51.7861 39.0425 32.2203 30.3333 12.6253C29.232 8.67974 30.1348 5.27158 33.0417 2.40088C34.612 1.06699 36.4175 0.2529 38.4583 -0.0413818Z" fill="#FABA00"/>
<path fill-rule="evenodd" clip-rule="evenodd" d="M-0.0416565 11.8802C-0.0416565 10.9971 -0.0416565 10.114 -0.0416565 9.23094C0.899185 4.19816 3.89918 1.17638 8.95834 0.165578C13.5138 -0.305569 17.0554 1.33641 19.5833 5.0915C27.9902 23.6718 36.3513 42.2717 44.6667 60.8911C46.3216 65.045 45.7383 68.8533 42.9167 72.3159C39.4453 75.7434 35.4037 76.6126 30.7917 74.9238C28.2827 73.8386 26.4633 72.0586 25.3333 69.5839C17.1618 51.2778 8.96734 32.9815 0.75001 14.695C0.389028 13.7726 0.125138 12.8343 -0.0416565 11.8802Z" fill="#0083F3"/>
<path fill-rule="evenodd" clip-rule="evenodd" d="M99.9583 8.48581C99.9583 9.34126 99.9583 10.1968 99.9583 11.0523C98.9883 15.8376 96.0717 18.611 91.2083 19.3725C86.4517 19.5564 83.1041 17.5005 81.1667 13.2048C79.7856 8.85364 80.7995 5.16958 84.2083 2.15248C87.4675 -0.148093 90.94 -0.506844 94.625 1.07622C97.6208 2.68544 99.3983 5.15529 99.9583 8.48581Z" fill="#FA3E2B"/>
<path fill-rule="evenodd" clip-rule="evenodd" d="M77.875 20.573C82.3062 20.4623 85.6533 22.2837 87.9167 26.037C89.8283 30.1127 89.4392 33.9487 86.75 37.5447C83.7125 40.8486 80.0045 41.9387 75.625 40.8148C72.2222 39.642 69.9306 37.3653 68.75 33.9848C67.6187 29.6339 68.716 25.9498 72.0417 22.9325C73.7594 21.5865 75.7038 20.8 77.875 20.573Z" fill="#00A74A"/>
</g>
<defs>
<clipPath id="clip0_203_44">
<rect width="100" height="76" fill="white"/>
</clipPath>
</defs>
</svg>
