<svg width="184" height="21" viewBox="0 0 184 21" fill="none" xmlns="http://www.w3.org/2000/svg">
<path fill-rule="evenodd" clip-rule="evenodd" d="M52.6691 3.16901L49.521 15.1023H47.9717L45.4334 7.23568H45.3675L42.8293 15.1023H41.2799L38 3.16901H39.5823L42.0711 12.5523H42.137L44.6918 4.76901H46.1092L48.6639 12.5523H48.7299L51.0868 3.16901H52.6691ZM56.3548 15.369C53.8824 15.369 52.2342 13.4857 52.2342 11.019C52.2342 8.70234 53.8165 6.66901 56.1899 6.66901C58.5963 6.66901 60.1457 8.38568 60.1457 11.019C60.1457 11.1357 60.1292 11.3023 60.1292 11.3023H53.7506C53.833 13.0357 55.0692 13.969 56.3218 13.969C57.2118 13.969 58.1019 13.6023 58.5304 12.569L59.8819 13.1357C59.404 14.3023 58.2173 15.369 56.3548 15.369ZM58.5304 10.0357C58.481 9.31901 57.8876 8.06901 56.157 8.06901C55.0362 8.06901 54.1462 8.83568 53.8495 10.0357H58.5304ZM63.9137 15.369C62.2655 15.369 60.8975 14.3357 60.8975 12.6357C60.8975 10.7857 62.5457 9.78568 64.4412 9.78568C65.529 9.78568 66.3201 10.1023 66.6333 10.2857V10.0523C66.6333 8.81901 65.6608 8.06901 64.5236 8.06901C63.683 8.06901 62.8754 8.48568 62.5952 9.25234L61.2107 8.65234C61.4909 7.90234 62.4633 6.66901 64.4906 6.66901C66.4685 6.66901 68.0837 7.86901 68.0837 10.169V15.1023H66.6333V13.969H66.5674C66.1223 14.6523 65.2982 15.369 63.9137 15.369ZM64.161 13.969C65.3642 13.969 66.6333 12.919 66.6333 11.5857C66.6333 11.5857 65.9905 11.0523 64.7049 11.0523C63.1061 11.0523 62.4798 11.919 62.4798 12.669C62.4798 13.5357 63.3698 13.969 64.161 13.969ZM71.0606 15.1023V10.6357C71.0606 9.13568 72.1155 8.25234 73.1539 8.25234C73.4835 8.25234 73.7472 8.28568 73.9615 8.36901L74.5384 6.93568C74.2252 6.80234 73.8956 6.73568 73.4011 6.73568C72.5605 6.73568 71.3903 7.33568 71.0606 8.26901H70.9947V6.93568H69.5443V15.1023H71.0606ZM86.0689 15.369C82.5911 15.369 80.0034 12.6023 80.0034 9.13568C80.0034 5.68568 82.5911 2.90234 86.0689 2.90234C89.5301 2.90234 92.1343 5.68568 92.1343 9.13568C92.1343 12.6023 89.5301 15.369 86.0689 15.369ZM86.0689 13.9023C88.5577 13.9023 90.585 11.969 90.585 9.13568C90.585 6.30234 88.5577 4.36901 86.0689 4.36901C83.5801 4.36901 81.5527 6.30234 81.5527 9.13568C81.5527 11.969 83.5801 13.9023 86.0689 13.9023ZM97.0067 15.369C98.8197 15.369 100.946 14.3357 100.946 11.919C100.946 9.50234 99.0669 8.66901 97.0891 8.03568C95.7375 7.58568 94.8475 7.03568 94.8475 6.08568C94.8475 5.08568 95.8199 4.36901 96.9572 4.36901C98.3088 4.36901 99.034 5.26901 99.1988 5.90234L100.583 5.31901C100.287 4.36901 99.1493 2.90234 96.9243 2.90234C94.6992 2.90234 93.2982 4.45234 93.2982 6.08568C93.2982 7.78568 94.4849 8.76901 96.4792 9.40234C98.3088 9.96901 99.3966 10.5357 99.3966 11.9523C99.3966 13.219 98.2428 13.9023 97.0067 13.9023C95.7046 13.9023 94.6003 12.8523 94.2706 11.569L92.8861 12.1357C93.43 14.3357 95.4738 15.369 97.0067 15.369ZM110.916 15.369C109.63 15.369 108.625 14.719 108.163 13.969H108.098V15.1023H106.647V3.16901H108.163V6.93568L108.098 8.06901H108.163C108.625 7.31901 109.63 6.66901 110.916 6.66901C112.96 6.66901 114.756 8.51901 114.756 11.019C114.756 13.519 112.96 15.369 110.916 15.369ZM110.669 13.969C112.02 13.969 113.24 12.8523 113.24 11.019C113.24 9.18568 112.02 8.06901 110.669 8.06901C109.317 8.06901 108.098 9.15234 108.098 11.019C108.098 12.8857 109.317 13.969 110.669 13.969ZM117.717 18.7023H116.151L118.03 14.5857L114.701 6.93568H116.349L118.755 12.8023H118.788L121.129 6.93568H122.777L117.717 18.7023Z" fill="#5F6368"/>
<path d="M135.427 15.1026C131.627 15.1026 128.434 11.9367 128.434 8.05128C128.434 4.16588 131.627 1 135.427 1C137.531 1 139.028 1.8407 140.154 2.94649L138.828 4.30221C138.02 3.52968 136.924 2.92377 135.427 2.92377C132.649 2.92377 130.478 5.21108 130.478 8.05128C130.478 10.8915 132.649 13.1788 135.427 13.1788C137.228 13.1788 138.25 12.4366 138.909 11.7701C139.45 11.2172 139.798 10.4295 139.932 9.34642H135.427V7.41508H141.769C141.836 7.7559 141.873 8.17246 141.873 8.61932C141.873 10.0659 141.488 11.8534 140.243 13.1258C139.028 14.4133 137.487 15.1026 135.427 15.1026ZM152.016 10.6154C152.016 13.1998 150.026 15.1026 147.578 15.1026C145.13 15.1026 143.141 13.1998 143.141 10.6154C143.141 8.01597 145.13 6.12821 147.578 6.12821C150.026 6.12821 152.016 8.01597 152.016 10.6154ZM150.071 10.6154C150.071 8.9973 148.915 7.89611 147.578 7.89611C146.242 7.89611 145.085 9.00479 145.085 10.6154C145.085 12.211 146.242 13.3347 147.578 13.3347C148.915 13.3347 150.071 12.2185 150.071 10.6154ZM161.651 10.6154C161.651 13.1998 159.662 15.1026 157.214 15.1026C154.774 15.1026 152.776 13.1998 152.776 10.6154C152.776 8.01597 154.766 6.12821 157.214 6.12821C159.662 6.12821 161.651 8.01597 161.651 10.6154ZM159.714 10.6154C159.714 8.9973 158.558 7.89611 157.221 7.89611C155.885 7.89611 154.729 9.00479 154.729 10.6154C154.729 12.211 155.885 13.3347 157.221 13.3347C158.558 13.3422 159.714 12.2185 159.714 10.6154ZM171.287 6.4013V14.3431C171.287 17.6128 169.329 18.9487 167.01 18.9487C164.827 18.9487 163.521 17.5095 163.026 16.3359L164.744 15.6347C165.052 16.358 165.802 17.2068 167.01 17.2068C168.496 17.2068 169.411 16.299 169.411 14.6088V13.974H169.344C168.901 14.5128 168.046 14.9778 166.973 14.9778C164.722 14.9778 162.666 13.0514 162.666 10.5715C162.666 8.07675 164.729 6.12821 166.973 6.12821C168.046 6.12821 168.901 6.60058 169.344 7.11724H169.411V6.4013H171.287ZM169.546 10.5788C169.546 9.02149 168.488 7.87746 167.145 7.87746C165.78 7.87746 164.639 9.01411 164.639 10.5788C164.639 12.1214 165.78 13.2433 167.145 13.2433C168.488 13.2433 169.546 12.1214 169.546 10.5788Z" fill="#5F6368"/>
<path d="M174.33 1.5127V14.5897H172.555V1.5127H174.33Z" fill="#5F6368"/>
<path d="M182.122 12.0909L183.631 13.1097C183.142 13.8438 181.966 15.1023 179.932 15.1023C177.41 15.1023 175.598 13.1321 175.598 10.6151C175.598 7.94827 177.432 6.12793 179.718 6.12793C182.018 6.12793 183.142 7.97824 183.512 8.98205L183.712 9.49144L177.787 11.9785C178.238 12.8774 178.948 13.3419 179.94 13.3419C180.931 13.3419 181.619 12.84 182.122 12.0909ZM177.469 10.4728L181.434 8.80975C181.212 8.24792 180.561 7.85838 179.784 7.85838C178.793 7.85838 177.417 8.74233 177.469 10.4728Z" fill="#5F6368"/>
<g clip-path="url(#clip0_35_13974)">
<path d="M21.186 11.0746C22.6748 11.0746 23.8818 9.85993 23.8818 8.36153C23.8818 6.86313 22.6748 5.64844 21.186 5.64844C19.6972 5.64844 18.4902 6.86313 18.4902 8.36153C18.4902 9.85993 19.6972 11.0746 21.186 11.0746Z" fill="#00A94B"/>
<path d="M24.1925 5.31964C25.5835 5.31964 26.7111 4.18476 26.7111 2.78482C26.7111 1.38488 25.5835 0.25 24.1925 0.25C22.8015 0.25 21.6738 1.38488 21.6738 2.78482C21.6738 4.18476 22.8015 5.31964 24.1925 5.31964Z" fill="#FF4131"/>
<path d="M17.6225 20.2054C16.6593 20.2054 15.7349 19.6427 15.3197 18.7012L8.71592 3.77644C8.1513 2.49511 8.72145 0.996498 9.9946 0.428253C11.2678 -0.139992 12.7568 0.433824 13.3214 1.71516L19.9252 16.64C20.4898 17.9213 19.9197 19.4199 18.6465 19.9881C18.3144 20.1386 17.9656 20.2054 17.6225 20.2054Z" fill="#FFBC00"/>
<path d="M9.827 20.166C8.77526 20.166 7.77335 19.5532 7.31944 18.5281L0.948142 4.12144C0.333707 2.72868 0.953677 1.09637 2.33754 0.477987C3.7214 -0.140398 5.34329 0.483558 5.95772 1.87632L12.329 16.283C12.9435 17.6758 12.3235 19.3081 10.9396 19.9265C10.5798 20.088 10.1979 20.166 9.827 20.166Z" fill="#0085F7"/>
</g>
<defs>
<clipPath id="clip0_35_13974">
<rect width="26" height="20" fill="white" transform="translate(0.710938 0.205078)"/>
</clipPath>
</defs>
</svg>
