<svg xmlns="http://www.w3.org/2000/svg" fill="none" viewBox="0 0 215 64"><path fill="#6CF" d="M1.075 45.08c0-2.88 2.35-5.213 5.248-5.213h27.989c2.898 0 5.248 2.334 5.248 5.212s-2.35 5.213-5.248 5.213H6.322c-2.897 0-5.247-2.334-5.247-5.213Z"/><path fill="#06F" fill-rule="evenodd" d="M2.612 13.594a5.273 5.273 0 0 1 7.422 0l13.994 13.9a5.187 5.187 0 0 1 0 7.371l-13.994 13.9a5.273 5.273 0 0 1-7.422 0 5.187 5.187 0 0 1 0-7.371l9.665-9.6a.865.865 0 0 0 0-1.229l-9.665-9.6a5.187 5.187 0 0 1 0-7.37Z" clip-rule="evenodd"/><path fill="#C6F" d="m18.993 39.867-8.96 8.898a5.273 5.273 0 0 1-7.42 0 5.187 5.187 0 0 1 0-7.371l1.536-1.527h14.844Z"/><path fill="#06F" d="M34.312 50.292c2.898 0 5.248-2.334 5.248-5.213s-2.35-5.212-5.248-5.212-5.248 2.334-5.248 5.212 2.35 5.213 5.248 5.213Z"/><path fill="#5F6368" fill-rule="evenodd" d="M200.552 45.338h-3.784l-8.256-20.33h4.128l6.02 15.717 6.02-15.717h4.128l-8.256 20.33Zm-28.896-12.471h11.696c-.172-2.734-2.408-4.954-5.848-4.954-2.924 0-5.16 1.879-5.848 4.954Zm6.192 13.154c-6.02 0-10.32-4.613-10.32-10.763 0-6.15 4.3-10.762 10.148-10.762 6.02 0 9.976 4.1 9.976 11.104v.342h-15.996c.172 3.929 3.096 6.662 6.536 6.662 2.408 0 4.472-1.196 5.676-3.587l3.44 1.708c-1.892 3.246-5.332 5.296-9.46 5.296Zm-24.08 0c-5.332 0-9.804-4.783-9.804-10.763s4.472-10.762 9.804-10.762c2.924 0 5.676 1.367 7.052 3.417h.172l-.172-2.734v-9.396h3.784v29.555h-3.612v-2.734h-.172c-1.548 2.05-4.128 3.417-7.052 3.417Zm.516-3.417c3.784 0 6.536-2.904 6.536-7.346 0-4.27-2.752-7.345-6.536-7.345-3.612 0-6.536 3.075-6.536 7.345 0 4.271 2.924 7.346 6.536 7.346Zm-11.696.171c0 1.538-1.204 2.733-2.924 2.733-1.548 0-2.924-1.366-2.924-2.733 0-1.537 1.376-2.733 2.924-2.733 1.72 0 2.924 1.196 2.924 2.733Zm-18.06-.17c3.612 0 6.536-3.076 6.536-7.347s-2.924-7.345-6.536-7.345c-3.784 0-6.536 3.075-6.536 7.345 0 4.271 2.752 7.346 6.536 7.346Zm.688 3.416c-2.924 0-5.676-1.367-7.052-3.417h-.172v2.734h-3.612V15.783h3.784v9.396l-.172 2.734h.172c1.376-2.05 3.956-3.417 7.052-3.417 5.332 0 9.804 4.783 9.804 10.762-.172 5.98-4.472 10.763-9.804 10.763ZM95.288 32.867h11.696c-.172-2.734-2.408-4.954-5.848-4.954-2.924 0-5.16 1.879-5.848 4.954Zm6.192 13.154c-6.02 0-10.32-4.613-10.32-10.763 0-6.15 4.3-10.762 10.148-10.762 6.02 0 9.976 4.1 9.976 11.104v.342H95.288c.172 3.929 3.096 6.662 6.536 6.662 2.408 0 4.3-1.196 5.676-3.587l3.44 1.708c-1.892 3.246-5.332 5.296-9.46 5.296ZM90.644 25.179l-6.536 20.33h-3.956l-5.16-15.546-4.988 15.545h-3.956L59.34 25.18h3.956l4.472 15.375 4.988-15.375h3.956L81.7 40.554l4.472-15.375h4.472Z" clip-rule="evenodd"/></svg>