<svg viewBox="0 0 1080 181" xmlns="http://www.w3.org/2000/svg" width="1080" height="181" fill="none"><path fill="#146EF5" fill-rule="evenodd" d="m288.606.684-92.091 180.027h-86.499l38.54-74.611h-1.729C115.032 147.374 67.5931 174.545 0 180.711v-73.578s43.2409-2.554 68.661-29.2799H0V.6855h77.1676v63.4692l1.732-.0071L110.433.6855h58.36v63.0668l1.732-.0028L203.241.6841h85.365Z" clip-rule="evenodd"/><path fill="#fff" d="M790.78 160.84h24.852V18.1868H790.78V160.84Z"/><path fill="#fff" fill-rule="evenodd" d="M653.772 159.383c5.402 2.246 10.894 3.368 16.478 3.368 9.225 0 17.478-2.245 24.761-6.736 7.283-4.491 12.927-10.682 16.933-18.571 4.006-7.951 6.008-16.963 6.008-27.038s-2.063-19.0872-6.19-27.0377c-4.127-7.9504-9.862-14.1105-17.206-18.4802-7.343-4.4304-15.688-6.6153-25.035-6.5546-5.947 0-11.652 1.1531-17.114 3.4594-5.463 2.3062-10.014 5.5835-13.656 9.8318-.281.3235-.554.6502-.819.9801v-54.327h-24.944V160.84h24.762l-.05-13.318c.641.785 1.325 1.552 2.053 2.302 3.945 4.067 8.618 7.253 14.019 9.559Zm25.49-23.032c-4.066 2.488-8.709 3.733-13.928 3.733-5.159 0-9.893-1.275-14.202-3.824-4.309-2.61-7.738-6.16-10.287-10.651-2.488-4.491-3.732-9.589-3.732-15.294-.061-5.705 1.153-10.803 3.641-15.2941 2.549-4.5518 5.978-8.0718 10.287-10.5601 4.309-2.549 9.073-3.7932 14.293-3.7325 5.219-.0607 9.862 1.1531 13.928 3.6414 4.127 2.4276 7.283 5.9173 9.468 10.4691 2.245 4.4911 3.368 9.6502 3.368 15.4762 0 5.826-1.123 10.985-3.368 15.476-2.185 4.491-5.341 8.011-9.468 10.56Z" clip-rule="evenodd"/><path fill="#fff" d="M324.611 26.8352h28.403l25.408 92.7898 27.029-92.7898h23.669l29.314 90.9278 24.397-90.9278h26.036L470.45 160.84h-24.489l-29.807-88.8293-27.363 88.8293h-24.762L324.611 26.8352Z"/><path fill="#fff" fill-rule="evenodd" d="M550.811 163.207c-9.893.06-18.814-2.125-26.765-6.555-7.889-4.491-14.11-10.712-18.662-18.662-4.491-7.951-6.737-17.024-6.737-27.22 0-9.892 2.307-18.8443 6.919-26.8555 4.612-8.0111 10.864-14.2622 18.753-18.7533 7.89-4.4911 16.69-6.7367 26.401-6.7367 10.924 0 20.483 2.4277 28.676 7.2829 8.254 4.8552 14.414 11.7436 18.48 20.6651 4.127 8.8608 5.614 19.0265 4.461 30.4965h-77.979c.218 4.57 1.358 8.728 3.421 12.472 2.306 4.127 5.523 7.344 9.649 9.65 4.127 2.306 8.74 3.459 13.838 3.459 3.884-.06 7.495-.728 10.833-2.002 3.338-1.335 6.16-3.126 8.467-5.371 2.366-2.246 4.035-4.795 5.006-7.647h26.037c-1.578 6.979-4.734 13.2-9.468 18.662-4.734 5.401-10.682 9.619-17.843 12.654-7.162 3.034-14.991 4.521-23.487 4.461ZM527.87 91.8346c-1.455 2.5363-2.462 5.2674-3.023 8.1934h51.69c-.375-3.6966-1.516-7.0649-3.423-10.1051-2.184-3.5807-5.158-6.3422-8.921-8.2842-3.763-2.0028-8.011-3.0042-12.745-3.0042-5.037 0-9.619 1.1531-13.746 3.4593-4.127 2.3063-7.405 5.5532-9.832 9.7408Z" clip-rule="evenodd"/><path fill="#fff" d="M736.25 60.5184c0-8.1326 1.852-15.3547 5.554-21.6665 3.702-6.3725 8.891-11.3188 15.567-14.8388 6.736-3.5808 14.596-5.4318 23.578-5.5532v22.1216c-4.188.0607-7.768.9408-10.742 2.6401-2.913 1.6386-5.159 4.0359-6.737 7.1918-1.453 2.9054-2.237 6.2737-2.352 10.105h19.285v21.0292h-19.3V160.84H736.25V81.5476h-16.022V60.5184h16.022Z"/><path fill="#fff" fill-rule="evenodd" d="M878.811 163.025c-10.135 0-19.208-2.216-27.22-6.646-7.95-4.491-14.201-10.682-18.753-18.571-4.491-7.951-6.737-16.963-6.737-27.038 0-10.135 2.246-19.1781 6.737-27.1286 4.552-8.0111 10.803-14.2319 18.753-18.6623 8.012-4.4304 17.085-6.6456 27.22-6.6456 10.196 0 19.3 2.2152 27.311 6.6456 8.072 4.4304 14.353 10.6208 18.844 18.5713 4.491 7.9504 6.767 17.0236 6.828 27.2196-.061 10.075-2.337 19.087-6.828 27.038-4.43 7.889-10.681 14.08-18.753 18.571-8.072 4.43-17.206 6.646-27.402 6.646Zm0-22.85c5.341 0 10.075-1.214 14.202-3.642 4.127-2.488 7.313-5.948 9.558-10.378 2.246-4.491 3.369-9.619 3.369-15.385 0-5.826-1.123-10.9849-3.369-15.476-2.245-4.4911-5.431-7.9504-9.558-10.3781-4.127-2.4883-8.861-3.7324-14.202-3.7324-5.28 0-9.983 1.2441-14.11 3.7324-4.067 2.4277-7.223 5.887-9.468 10.3781-2.246 4.4911-3.338 9.65-3.277 15.476 0 5.766 1.122 10.894 3.368 15.385 2.306 4.43 5.462 7.89 9.468 10.378 4.066 2.428 8.739 3.642 14.019 3.642Z" clip-rule="evenodd"/><path fill="#fff" d="M958.649 60.5184h-27.674l29.95 100.3216h24.216l19.699-64.0754 21.27 64.0754h23.85L1080 60.5184h-25.03l-17.04 62.4436-18.83-62.4436h-24.218l-18.741 63.8196-17.492-63.8196Z"/></svg>