<svg xmlns="http://www.w3.org/2000/svg" xml:space="preserve" version="1.0" viewBox="0 0 841.89 595.28">
  <path fill="#146ef5" fill-rule="evenodd" d="M255.81 238.27 195.3 356.55h-56.83l25.32-49.02h-1.14c-20.89 27.12-52.06 44.97-96.47 49.02v-48.34s28.41-1.68 45.11-19.24h-45.1v-50.7h50.7v41.7h1.14l20.72-41.7h38.34v41.44h1.14l21.5-41.44h56.08z" clip-rule="evenodd"/>
  <path d="M585.75 343.5h16.33v-93.73h-16.33v93.73z" class="st1"/>
  <path d="M495.74 342.54c3.55 1.48 7.16 2.21 10.83 2.21 6.06 0 11.48-1.48 16.27-4.43 4.78-2.95 8.49-7.02 11.13-12.2 2.63-5.22 3.95-11.15 3.95-17.76 0-6.62-1.36-12.54-4.07-17.76-2.71-5.22-6.48-9.27-11.31-12.14-4.82-2.91-10.31-4.35-16.45-4.31-3.91 0-7.66.76-11.24 2.27-3.59 1.52-6.58 3.67-8.97 6.46-.18.21-.36.43-.54.64v-35.69h-16.39v93.67h16.27l-.03-8.75c.42.52.87 1.02 1.35 1.51 2.58 2.67 5.65 4.76 9.2 6.28zm16.74-15.13c-2.67 1.63-5.72 2.45-9.15 2.45-3.39 0-6.5-.84-9.33-2.51-2.83-1.72-5.08-4.05-6.76-7-1.63-2.95-2.45-6.3-2.45-10.05-.04-3.75.76-7.1 2.39-10.05 1.67-2.99 3.93-5.3 6.76-6.94 2.83-1.67 5.96-2.49 9.39-2.45 3.43-.04 6.48.76 9.15 2.39 2.71 1.59 4.78 3.89 6.22 6.88 1.48 2.95 2.21 6.34 2.21 10.17s-.74 7.22-2.21 10.17c-1.43 2.95-3.5 5.26-6.22 6.94z" class="st2"/>
  <path d="M279.47 255.45h18.66l16.69 60.97 17.76-60.97h15.55l19.26 59.74 16.03-59.74h17.11l-25.24 88.04H359.2l-19.58-58.36-17.98 58.36h-16.27l-25.9-88.04z" class="st1"/>
  <path d="M428.09 345.05c-6.5.04-12.36-1.4-17.59-4.31-5.18-2.95-9.27-7.04-12.26-12.26-2.95-5.22-4.43-11.18-4.43-17.88 0-6.5 1.52-12.38 4.55-17.64s7.14-9.37 12.32-12.32c5.18-2.95 10.97-4.43 17.35-4.43 7.18 0 13.46 1.59 18.84 4.78 5.42 3.19 9.47 7.72 12.14 13.58 2.71 5.82 3.69 12.5 2.93 20.04h-51.23c.14 3 .89 5.73 2.25 8.19 1.52 2.71 3.63 4.82 6.34 6.34 2.71 1.52 5.74 2.27 9.09 2.27 2.55-.04 4.92-.48 7.12-1.32 2.19-.88 4.05-2.05 5.56-3.53 1.56-1.48 2.65-3.15 3.29-5.02h17.11c-1.04 4.59-3.11 8.67-6.22 12.26-3.11 3.55-7.02 6.32-11.72 8.31-4.71 2-9.86 2.98-15.44 2.94zm-15.07-46.89c-.96 1.67-1.62 3.46-1.99 5.38h33.96c-.25-2.43-1-4.64-2.25-6.64-1.44-2.35-3.39-4.17-5.86-5.44-2.47-1.32-5.26-1.97-8.37-1.97-3.31 0-6.32.76-9.03 2.27-2.72 1.51-4.87 3.65-6.46 6.4z" class="st2"/>
  <path d="M549.93 277.58c0-5.34 1.22-10.09 3.65-14.24 2.43-4.19 5.84-7.44 10.23-9.75 4.43-2.35 9.59-3.57 15.49-3.65v14.53c-2.75.04-5.1.62-7.06 1.73-1.91 1.08-3.39 2.65-4.43 4.73-.95 1.91-1.47 4.12-1.54 6.64h12.67v13.82h-12.68v52.1h-16.33v-52.1H539.4v-13.82h10.53z" class="st1"/>
  <path d="M643.59 344.93c-6.66 0-12.62-1.46-17.88-4.37-5.22-2.95-9.33-7.02-12.32-12.2-2.95-5.22-4.43-11.14-4.43-17.76 0-6.66 1.48-12.6 4.43-17.82 2.99-5.26 7.1-9.35 12.32-12.26 5.26-2.91 11.22-4.37 17.88-4.37 6.7 0 12.68 1.46 17.94 4.37 5.3 2.91 9.43 6.98 12.38 12.2 2.95 5.22 4.45 11.18 4.49 17.88-.04 6.62-1.54 12.54-4.49 17.76-2.91 5.18-7.02 9.25-12.32 12.2-5.3 2.92-11.3 4.37-18 4.37zm0-15.01c3.51 0 6.62-.8 9.33-2.39 2.71-1.63 4.8-3.91 6.28-6.82 1.48-2.95 2.21-6.32 2.21-10.11 0-3.83-.74-7.22-2.21-10.17-1.48-2.95-3.57-5.22-6.28-6.82-2.71-1.63-5.82-2.45-9.33-2.45-3.47 0-6.56.82-9.27 2.45-2.67 1.6-4.75 3.87-6.22 6.82-1.48 2.95-2.19 6.34-2.15 10.17 0 3.79.74 7.16 2.21 10.11 1.52 2.91 3.59 5.18 6.22 6.82 2.67 1.59 5.74 2.39 9.21 2.39z" class="st2"/>
  <path d="M696.05 277.58h-18.18l19.68 65.91h15.91l12.94-42.1 13.97 42.1h15.67l19.74-65.91h-16.45l-11.2 41.03-12.37-41.03h-15.91l-12.31 41.93-11.49-41.93z" class="st1"/>
</svg>
