<svg xmlns="http://www.w3.org/2000/svg" width="570" height="84" fill="none" viewBox="0 0 570 84"><path fill="#11181C" fill-rule="evenodd" d="M484.518 0h13.691v12.421h-13.691V0Zm0 21.614h13.691v60.632h-13.691V21.614ZM0 1.404h14.33l16.245 58.385L46.82 1.544l14.33-.14L77.395 59.79 93.711 1.403h14.33L84.205 82.175H70.727L54.056 24.772l-16.67 57.474h-13.48L0 1.404ZM105.984 52.56c0-19.86 12.414-32.631 30.433-32.631 19.012 0 30.149 13.895 28.518 35.72h-44.338c1.064 9.964 6.527 15.508 15.82 15.508 6.668 0 11.705-3.018 14.33-8.632l13.478 4.07c-4.682 11.018-15.252 17.264-27.028 17.264-18.586 0-31.284-12.913-31.284-31.299h.071Zm45.117-7.157c-1.206-9.474-5.675-13.685-14.117-13.685-9.151 0-14.471 4.702-16.032 13.684h30.149Zm36.322 36.771v-4.42c4.327 3.93 10.215 6.175 17.451 6.175 16.954 0 27.95-13.614 27.95-32s-11.067-32-28.447-32c-6.101 0-11.137 1.684-15.252 4.631V1.404h-13.762v80.771h12.06Zm31-30.315c0 11.075-4.955 19.84-15.572 19.86-10.969-.019-15.358-8.014-15.358-19.86 0-11.86 4.47-19.86 14.898-19.86 10.995 0 16.032 8.772 16.032 19.86Zm20.147 12.772 13.975-2.106c1.348 6.035 6.598 9.684 14.046 9.684 6.527 0 10.357-2.736 10.357-7.227 0-4.07-1.773-5.123-15.606-8.773-15.394-4-20.786-8.56-20.786-17.614 0-11.298 9.506-18.596 24.12-18.596 14.613 0 24.261 7.017 25.822 17.895l-13.975 2.456c-.71-5.193-4.966-8.28-11.634-8.632-6.385-.28-10.712 2.176-10.712 6.246 0 3.509 2.412 4.912 16.741 8.491 14.685 3.79 20.005 8.561 20.005 17.965 0 12.21-9.505 19.579-25.325 19.579-15.82 0-25.042-7.017-27.028-19.228v-.14Zm68.581-4.465c-.056 5.625-.1 10.071 2.359 14.57v.07c4.824 8.702 17.167 9.754 29.298 7.439V70.877c-7.662 1.123-14.046 1.193-16.742-3.298-1.32-2.051-1.303-5.204-1.282-9.262v-.025c.002-.515.005-1.046.005-1.59V32.21h17.948V21.614h-17.948V4.772h-13.62v16.842h-11.138v10.597h11.138v25.263c0 .928-.009 1.825-.018 2.693Zm40.311-4.728V21.614h13.834v29.193c0 7.439 1.276 20.421 14.258 20.421 6.953 0 14.33-3.79 14.33-18.456V21.614h13.692v60.632h-12.06v-6.737C387.047 80.702 380.307 84 371.511 84c-22.559 0-24.12-21.333-24.12-28.491l.071-.07Zm94.35-35.51c-17.298 0-28.433 13.598-28.447 31.966.014 18.158 11.007 31.965 27.95 31.965 7.236 0 13.053-2.246 17.452-6.176v4.491h12.059V1.404h-13.762V24.56c-4.043-2.947-9.151-4.631-15.252-4.631Zm17.026 32c0 11.707-4.389 19.842-15.358 19.86-10.617-.019-15.572-8.853-15.572-19.86 0-11.017 5.037-19.859 16.032-19.859 10.428 0 14.898 8.14 14.898 19.86Zm80.587-32c-18.09 0-30.433 12.983-30.433 32 0 18.738 12.131 32 30.433 32S570 70.668 570 51.93c0-18.736-12.485-32-30.575-32Zm16.103 32c0 11.37-5.249 19.3-16.103 19.3-10.499 0-15.961-7.86-15.961-19.3 0-11.438 5.249-19.297 15.961-19.297s16.103 7.93 16.103 19.298Z" clip-rule="evenodd"/></svg>