<svg xmlns="http://www.w3.org/2000/svg" xml:space="preserve" id="Calque_1" x="0" y="0" viewBox="0 0 256 256"><style>.st2{fill:#bcd4fc}.st3{fill:#3b82f6}</style><path d="m134.78 14.22-20.47 33.99-12.98 21.54h56.89l19.75-32.8 13.7-22.73z" class="st2"/><path d="M227.55 69.75H101.33l28.45 49.27H256zM136.93 132.47l-20.47 35.46-42.64 73.85h56.89l14.19-24.58 35.23-61.02 13.69-23.72zM121.7 131.95l-20.47-35.46-42.64-73.86-28.44 49.28 14.19 24.58 35.23 61.01 13.69 23.72z" class="st3"/><path d="m64.81 131.95-39.66-.74L0 130.74l28.44 49.27 38.29.71 26.53.49zM165.38 181.74l19.2 34.72 12.17 22.01 28.44-49.27-18.53-33.51-12.83-23.23z" class="st2"/></svg>