<svg xmlns="http://www.w3.org/2000/svg" width="166" height="263" fill="none" viewBox="0 0 166 263"><g filter="url(#a)"><path fill="#58E5BB" d="M42.086 128.474 28.427 90.089c-2.383-6.696 2.436-13.802 9.291-13.48 76.537 3.589 115.804 31.534 112.144 112.12-13.311-56.28-77.153-60.255-107.776-60.255Z"/></g><g filter="url(#b)"><path fill="#58E5BB" d="M21.453 57.833 7.236 20.639C4.662 13.908 9.478 6.6 16.44 6.683c78.163.938 132.738 6.243 132.738 110.722-13.311-56.28-97.101-59.572-127.725-59.572Z"/></g><g filter="url(#c)"><path fill="#58E5BB" d="m63.245 201.377-14.653-41.075c-2.376-6.661 2.376-13.751 9.196-13.388 62.444 3.327 93.677 30.587 90.06 110.239-13.311-56.28-53.76-55.776-84.604-55.776Z"/></g><defs><filter id="a" width="122.286" height="116.131" x="27.81" y="76.598" color-interpolation-filters="sRGB" filterUnits="userSpaceOnUse"><feFlood flood-opacity="0" result="BackgroundImageFix"/><feBlend in="SourceGraphic" in2="BackgroundImageFix" result="shape"/><feColorMatrix in="SourceAlpha" result="hardAlpha" values="0 0 0 0 0 0 0 0 0 0 0 0 0 0 0 0 0 0 127 0"/><feOffset dy="4"/><feGaussianBlur stdDeviation="2"/><feComposite in2="hardAlpha" k2="-1" k3="1" operator="arithmetic"/><feColorMatrix values="0 0 0 0 0 0 0 0 0 0 0 0 0 0 0 0 0 0 0.25 0"/><feBlend in2="shape" result="effect1_innerShadow_15473_4390"/></filter><filter id="b" width="142.645" height="114.724" x="6.533" y="6.682" color-interpolation-filters="sRGB" filterUnits="userSpaceOnUse"><feFlood flood-opacity="0" result="BackgroundImageFix"/><feBlend in="SourceGraphic" in2="BackgroundImageFix" result="shape"/><feColorMatrix in="SourceAlpha" result="hardAlpha" values="0 0 0 0 0 0 0 0 0 0 0 0 0 0 0 0 0 0 127 0"/><feOffset dy="4"/><feGaussianBlur stdDeviation="2"/><feComposite in2="hardAlpha" k2="-1" k3="1" operator="arithmetic"/><feColorMatrix values="0 0 0 0 0 0 0 0 0 0 0 0 0 0 0 0 0 0 0.25 0"/><feBlend in2="shape" result="effect1_innerShadow_15473_4390"/></filter><filter id="c" width="100.158" height="114.252" x="47.972" y="146.9" color-interpolation-filters="sRGB" filterUnits="userSpaceOnUse"><feFlood flood-opacity="0" result="BackgroundImageFix"/><feBlend in="SourceGraphic" in2="BackgroundImageFix" result="shape"/><feColorMatrix in="SourceAlpha" result="hardAlpha" values="0 0 0 0 0 0 0 0 0 0 0 0 0 0 0 0 0 0 127 0"/><feOffset dy="4"/><feGaussianBlur stdDeviation="2"/><feComposite in2="hardAlpha" k2="-1" k3="1" operator="arithmetic"/><feColorMatrix values="0 0 0 0 0 0 0 0 0 0 0 0 0 0 0 0 0 0 0.25 0"/><feBlend in2="shape" result="effect1_innerShadow_15473_4390"/></filter></defs></svg>