<svg width="746" height="236" viewBox="0 0 746 236" fill="none" xmlns="http://www.w3.org/2000/svg"><path fill-rule="evenodd" clip-rule="evenodd" d="M210.028 78.0208H208.758C202.075 78.0104 196.652 83.4233 196.652 90.1062V117.134C196.652 122.532 192.191 126.903 186.883 126.903C183.729 126.903 180.58 125.316 178.711 122.651L151.105 83.2255C148.815 79.9518 145.089 78 141.055 78C134.763 78 129.1 83.3504 129.1 89.9552V117.139C129.1 122.537 124.676 126.909 119.331 126.909C116.166 126.909 113.023 125.321 111.154 122.656L80.264 78.5413C79.5666 77.5472 78 78.0364 78 79.2543V102.826C78 104.018 78.3643 105.174 79.0462 106.152L109.442 149.565C111.237 152.131 113.887 154.036 116.942 154.728C124.587 156.466 131.624 150.58 131.624 143.08V115.911C131.624 110.514 135.996 106.142 141.393 106.142H141.409C144.662 106.142 147.712 107.729 149.58 110.394L177.186 149.815C179.481 153.094 183.016 155.04 187.231 155.04C193.664 155.04 199.176 149.685 199.176 143.085V115.906C199.176 110.509 203.548 106.137 208.945 106.137H210.023C210.699 106.137 211.246 105.59 211.246 104.914V79.2387C211.246 78.5621 210.699 78.0156 210.023 78.0156L210.028 78.0208ZM368.506 98.3608H361.75C361.063 98.3608 360.506 98.9177 360.506 99.6048V153.786C360.506 154.473 361.063 155.03 361.75 155.03H368.506C369.193 155.03 369.75 154.473 369.75 153.786V99.6048C369.75 98.9177 369.193 98.3608 368.506 98.3608ZM361.526 78.0052H368.725C369.412 78.0052 369.968 78.5621 369.968 79.2491V88.0972C369.968 88.7842 369.412 89.3411 368.725 89.3411H361.526C360.839 89.3411 360.282 88.7842 360.282 88.0972V79.2491C360.282 78.5621 360.839 78.0052 361.526 78.0052ZM408.942 96.8203C401.349 96.8203 395.847 99.459 392.324 103.316C391.194 104.461 389.242 103.659 389.242 102.051V99.6048C389.242 98.9177 388.685 98.3608 387.998 98.3608H381.357C380.67 98.3608 380.113 98.9177 380.113 99.6048V153.786C380.113 154.473 380.67 155.03 381.357 155.03H388.004C388.691 155.03 389.248 154.473 389.248 153.786V119.487C389.248 107.599 391.558 104.96 404.216 104.96C416.874 104.96 418.961 107.053 418.961 118.935V153.781C418.961 154.468 419.518 155.025 420.205 155.025H426.961C427.648 155.025 428.205 154.468 428.205 153.781V116.4C428.205 102.863 420.502 96.8098 408.947 96.8098V96.8203H408.942ZM477.957 104.086C479.086 105.231 481.038 104.43 481.038 102.821V79.2543C481.038 78.5673 481.595 78.0104 482.282 78.0104H488.928C489.615 78.0104 490.172 78.5673 490.172 79.2543V153.791C490.172 154.478 489.615 155.035 488.928 155.035H482.282C481.595 155.035 481.038 154.478 481.038 153.791V150.575C481.106 148.93 479.112 148.139 477.957 149.31C474.766 153.271 468.604 156.57 460.349 156.57C445.828 156.57 436.361 146.229 436.361 126.971C436.361 106.616 446.921 96.8203 460.677 96.8203C468.932 96.8203 474.876 100.125 477.957 104.086ZM446.369 126.747C446.369 145.344 448.68 148.097 463.758 148.097C478.727 148.097 481.038 145.344 481.038 126.747C481.038 108.151 478.836 105.288 463.758 105.288C448.68 105.288 446.369 108.151 446.369 126.747ZM528.802 123.234L517.914 121.366C509.878 119.934 508.446 117.514 508.446 113.33C508.556 107.604 510.757 104.747 521.432 104.747C531.43 104.747 534.631 107.703 535.318 114.084C535.386 114.714 535.917 115.198 536.552 115.198H543.157C543.864 115.198 544.442 114.605 544.4 113.892C543.76 102.936 533.731 96.815 521.765 96.815C508.337 96.815 499.427 103.966 499.427 114.204C499.427 123.557 506.692 127.632 515.384 129.282L527.381 131.484C533.986 132.696 536.187 134.898 536.187 139.077C536.187 145.791 533.876 148.654 522.541 148.654C511.205 148.654 508.072 145.385 507.343 138.76C507.275 138.13 506.744 137.651 506.109 137.651H499.463C498.765 137.651 498.198 138.229 498.214 138.926C498.531 150.731 509.232 156.581 521.984 156.581C535.849 156.581 545.421 149.429 545.421 138.64C545.421 129.178 538.155 124.884 528.802 123.234ZM576.903 148.435C589.228 148.435 591.539 145.797 591.539 133.909V99.6204C591.539 98.9334 592.096 98.3765 592.783 98.3765H599.539C600.226 98.3765 600.783 98.9334 600.783 99.6204V153.801C600.783 154.488 600.226 155.045 599.539 155.045H592.783C592.096 155.045 591.539 154.488 591.539 153.801V151.439C591.513 149.757 589.769 148.919 588.567 150.096C585.049 153.947 579.547 156.586 572.172 156.586C560.836 156.586 553.133 150.533 553.133 136.995V99.6152C553.133 98.9282 553.69 98.3713 554.377 98.3713H561.133C561.82 98.3713 562.377 98.9282 562.377 99.6152V134.461C562.377 146.343 564.579 148.435 576.903 148.435ZM654.839 98.3608V91.0951C654.839 88.2377 657.155 85.9216 660.012 85.9216H665.04C665.727 85.9216 666.284 85.3647 666.284 84.6777V79.2439C666.284 78.5569 665.727 78 665.04 78H661.553C651.648 78 645.595 83.5014 645.595 92.9688V98.3608H638.272C631.782 98.3712 626.687 99.2613 623.288 103.316C622.039 104.497 620.316 103.612 620.316 101.895V99.61C620.316 98.923 619.759 98.366 619.072 98.366H612.316C611.629 98.366 611.072 98.923 611.072 99.61V153.791C611.072 154.478 611.629 155.035 612.316 155.035H619.072C619.759 155.035 620.316 154.478 620.316 153.791V119.825C620.316 108.598 623.179 105.96 635.503 105.96H645.595V153.796C645.595 154.483 646.152 155.04 646.839 155.04H653.595C654.282 155.04 654.839 154.483 654.839 153.796V105.96H665.05C665.737 105.96 666.294 105.403 666.294 104.716V99.6152C666.294 98.9282 665.737 98.3713 665.05 98.3713H654.839V98.3608ZM322.892 140.899C323.132 141.893 324.022 142.596 325.042 142.596H325.047C326.062 142.596 326.947 141.903 327.191 140.92L342.686 78.9473C342.826 78.3904 343.326 78 343.898 78H351.633C352.46 78 353.064 78.7807 352.856 79.5822L333.364 154.129C333.224 154.655 332.75 155.025 332.203 155.025H318.406C317.849 155.025 317.365 154.645 317.224 154.109L301.032 91.7508C300.783 90.7776 299.903 90.0958 298.893 90.0958H298.753C297.748 90.0958 296.869 90.7776 296.614 91.7508L280.427 154.109C280.286 154.65 279.802 155.025 279.245 155.025H265.448C264.901 155.025 264.422 154.655 264.287 154.129L244.795 79.5822C244.587 78.7807 245.191 78 246.019 78H253.753C254.325 78 254.825 78.3904 254.965 78.9473L270.455 140.92C270.699 141.903 271.579 142.596 272.599 142.596C273.619 142.596 274.509 141.893 274.749 140.899L289.639 78.9577C289.775 78.3956 290.274 78 290.852 78H306.794C307.372 78 307.871 78.3956 308.007 78.9577L322.892 140.899Z" fill="#fff"/></svg>