<svg xmlns="http://www.w3.org/2000/svg" preserveAspectRatio="xMidYMid" viewBox="0 0 256 376"><path fill="#FFF" d="M242.8 269.47c-12.08 15.8-43.6 10.33-43.6 10.33l-.28-106.6-.07-21.54s17.96.47 31.6 6.14c6.55 2.7 12.15 6.62 14.25 12.3 7.29 19.5 8.03 86.41-1.9 99.37Z"/><path fill="#371A45" fill-opacity=".35" d="M250.16 214.52c.41 23.36-1.75 47.66-7.35 54.95-12.09 15.8-43.62 10.33-43.62 10.33l-.34-128.14.95.07.27 99.92s31.53 5.47 43.61-10.33c3.31-4.32 5.4-14.45 6.48-26.8Z"/><path fill="#371A45" d="m198.76 154.92.18-6.52.58.02.88.04.66.04 1.27.09 1.33.1 2.84.27c5.63.6 11.26 1.55 16.55 2.94 2.06.55 4.02 1.14 5.88 1.8l1 .36c9.06 3.36 15.35 8.15 17.82 14.83.17.44.33.9.5 1.4l.23.75c.23.77.46 1.59.68 2.45l.22.88.21.91.1.47.21.95.1.48.2 1 .2 1.02.18 1.04.18 1.08.09.54.17 1.1.09.57.16 1.14.16 1.17.16 1.18.15 1.21.14 1.23.14 1.24.13 1.27.12 1.28.12 1.3.12 1.32.1 1.33.1 1.35.1 1.36.1 1.37.07 1.39.08 1.4.1 2.12.1 2.14.07 2.16.04 1.45.03 1.46.03 1.46.02 1.47.01 1.48.01 2.22v2.22l-.03 2.12-.02 1.4-.05 2.07-.04 1.37-.04 1.35-.05 1.34-.06 1.32-.06 1.3-.07 1.3-.07 1.28-.08 1.26-.14 1.86-.1 1.23-.1 1.2-.1 1.19-.12 1.17-.12 1.15-.12 1.14-.13 1.11-.14 1.1-.15 1.08-.15 1.05-.07.53-.16 1.02-.17 1.01-.17 1-.18.96-.1.47-.18.94-.2.91c-.02.15-.06.3-.1.45l-.2.88-.2.86-.22.83-.22.81c-.1.4-.22.79-.34 1.17l-.23.75c-.16.5-.33.97-.5 1.43l-.25.68-.26.65a19.51 19.51 0 0 1-2.45 4.46c-4.74 6.2-12.2 9.86-21.5 11.51a78.37 78.37 0 0 1-21.52.54l-.67-.07-1.19-.14-.51-.07-.87-.12-.5-.08 1.11-6.43.67.1.53.08.8.1.41.05.9.1c6.43.66 13.31.65 19.69-.48 7.85-1.4 13.87-4.35 17.47-9.06 8.56-11.1 9.03-76.06 1.49-96.32-2.12-5.7-9.37-10.08-20.26-12.95a105.4 105.4 0 0 0-15.57-2.76l-.7-.07-1.34-.13-.65-.06-1.26-.1-1.2-.07-.9-.06-1-.04Z"/><path fill="#FFF" d="m247.87 224.3-21.47 1.63a4.25 4.25 0 0 0-3.85 3.44c-1.28 6.95-3.3 23.09 3.44 28.42a16.54 16.54 0 0 0 19.99-.6c5.94-5.07 6.55-20.87 6.41-28.7 0-2.43-2.09-4.32-4.52-4.18Z"/><path fill="#371A45" fill-opacity=".35" d="M222.55 229.37c-1.28 6.95-3.3 23.09 3.44 28.42a16.54 16.54 0 0 0 19.99-.6c3.64-3.11 5.27-10.27 6-17.15a18.23 18.23 0 0 1-4.38 8.1c-10.8 10.53-18.9-1.9-18.9-1.9s-1.42 3.05-2.5 3.18c-4.66.74-3.72-13.9-3.04-21.47-.27.4-.47.88-.6 1.42Z"/><path fill="#371A45" d="m247.69 221.05-21.54 1.62a7.52 7.52 0 0 0-6.8 6.09 88.58 88.58 0 0 0-.53 3.18l-.1.7-.14 1.08-.13 1.06-.12 1.05-.05.51-.1 1.03-.04.5-.08 1.01c0 .17-.02.34-.03.5l-.05.98c-.4 9.1 1.2 16.2 6 20l.12.1a19.8 19.8 0 0 0 23.93-.74c4.03-3.43 6.2-9.9 7.11-18.12l.1-1.01.05-.52.1-1.04c.05-.7.1-1.4.13-2.12l.05-1.09.05-1.1.01-.55.03-1.13.01-1.13v-2.3l-.01-1.17a7.5 7.5 0 0 0-7.97-7.4Zm.42 6.5a.97.97 0 0 1 1.02.94l.01 1.07v2.64l-.03 1.04-.03 1.03-.04 1.02-.05 1-.06.99-.08.97c-.03.48-.08.96-.12 1.43l-.1.93c-.05.46-.1.91-.17 1.36l-.12.88-.13.86-.15.84c-.86 4.83-2.26 8.5-4.2 10.15l-.26.2a13.26 13.26 0 0 1-15.44.43l-.2-.15.06.05c-2.72-2.14-3.8-7.75-3.47-15.05l.05-.9.03-.46.07-.92.08-.94.1-.96.1-.97.13-.98.07-.5.1-.68c.15-1 .3-1.98.48-2.9a.98.98 0 0 1 .89-.8l21.46-1.61Z"/><path fill="#371A45" d="M230.65 233.55c.27 2.7.27 5.27.4 7.84.12 2.48.48 4.95 1.09 7.36.6 2.36 1.62 4.52 3.04 6.14a10.2 10.2 0 0 0 5.53 3.17 2.25 2.25 0 0 1-1.01 4.4l-.13-.08a18.9 18.9 0 0 1-4.12-1.89 12.15 12.15 0 0 1-3.31-3.1 18.36 18.36 0 0 1-3.31-7.9c-.54-2.7-.67-5.4-.67-8.04 0-2.63.2-5.26.13-7.76 0-.68.47-1.22 1.15-1.22.67-.06 1.15.41 1.21 1.08Zm4.53-64.27c-4 .3-7.97.86-11.89 1.69-3.93.71-7.8 1.68-11.6 2.9h-.08a2.34 2.34 0 0 1-2.83-1.48 2.34 2.34 0 0 1 1.48-2.84l.2-.07c2.03-.4 4.06-.74 6.15-1l6.14-.68c2.03-.2 4.12-.27 6.15-.34l6.14-.07c.54 0 .95.47.95 1.01.13.48-.27.88-.81.88Z"/><path fill="#371A45" fill-opacity=".35" d="M230.52 157.74a90.6 90.6 0 0 1-31.6 15.39l-.07-21.54c0 .07 18.03.54 31.67 6.15Z"/><path fill="#FFF" d="M157 348.94c-9.19 21.26-48.48 17.75-58.4 8.98-10.2-9.05 8.23-20.33 8.23-20.33-8.17-13.9-8.44-40.5-7.56-57.59a238.2 238.2 0 0 1 1.28-15.86l57.93-31.4c-.07 11.82-2.02 21.88-3.78 29.98-3.78 17.15-3.51 30.38-2.03 41.18 2.84 20.12 10.06 31.8 4.33 45.04Z"/><path fill="#371A45" fill-opacity=".35" d="M157 348.94c-9.19 21.26-48.48 17.75-58.4 8.98-3.18-2.84-3.58-5.95-2.57-8.78 13.44 7.9 47.53 13.9 54.21-6.21 3.24-9.86-3.1-16.68-6.54-29.98a16.07 16.07 0 0 0-11.48-11.4c-11.88-3.05-26.54-9.53-32.54-20.8l-.34-.75a238.2 238.2 0 0 1 1.28-15.86l51.85-28.09 6.08-3.3c-.07 11.81-2.03 21.87-3.78 29.97l-.75 3.71-.6 3.58-.27 1.76-.68 5.06-.13 1.62-.27 3.04c-.2 3.1-.27 6.08-.27 8.84v.88l.06 1.82.14 2.44.13 1.68.07 1.08.07.95.07.88.47 3.71c2.7 20.25 9.92 31.93 4.19 45.17Zm-3.11-82.44-.6 3.58.6-3.58Z"/><path fill="#371A45" d="m155.08 232.86 6.53.04c-.05 9.33-1.1 17.34-3.23 27.68l-.41 1.97-.22 1c-4.45 20.33-3.77 34.51.51 52.68l1.9 7.78.25 1.08.24 1.01.21.97.1.46.19.9.17.87.16.84.07.41c.85 4.84 1.02 8.88.4 12.84a28.93 28.93 0 0 1-2.03 6.9c-4.75 11.02-16.67 16.88-31.73 17.73-12.7.7-25.98-2.42-31.84-7.6a11.83 11.83 0 0 1-3.9-6.36c-1.08-5.05 1.6-9.84 6.44-14.4.96-.9 1.96-1.74 2.98-2.53l.66-.5-.22-.46c-3.46-7.43-5.45-17.49-6.27-29.61l-.06-.78c-.68-10.75-.41-22.22.44-33.3l.12-1.52.13-1.46.13-1.38.12-1.32.18-1.73.15-1.26 6.47.8-.17 1.5-.07.72-.13 1.25-.12 1.32-.12 1.38-.12 1.45-.06.75c-.83 10.8-1.1 21.98-.43 32.39l.1 1.47c.12 1.7.27 3.36.44 4.97l.16 1.37c1.12 9.47 3.15 17.14 6.16 22.45l.22.38 1.62 2.76-2.81 1.72-.31.2-.44.3-.48.33a37.96 37.96 0 0 0-3.8 3.1c-3.34 3.14-5 6.1-4.54 8.29.2.92.78 1.85 1.87 2.83 4.34 3.84 16 6.59 27.13 5.96 12.86-.72 22.52-5.47 26.11-13.79a22.4 22.4 0 0 0 1.57-5.36c.5-3.15.36-6.49-.37-10.67l-.14-.77-.16-.79-.17-.82-.18-.87-.2-.91-.23-.97-.52-2.17-1.4-5.77c-4.61-19.18-5.48-34.28-.96-55.48l.42-1.94.4-1.9c1.99-9.65 2.98-17.1 3.09-25.6v-.83Z"/><path fill="#371A45" d="M100.94 309.47c5.56 3.12 12.97 5.22 21.78 6.4 9.76 1.31 20.2 1.4 29.87.76l1.03-.07.96-.07.9-.08 1.1-.1.48-.05.54 4.86-1 .1-1.15.1-.96.08-1.58.1c-9.96.67-20.7.58-30.84-.78-9.1-1.22-16.88-3.38-22.97-6.68l-.55-.3 2.4-4.27Z"/><path fill="#FFF" d="M220.26 233.49c-.2 8.64-1.29 16-3.24 21.67l-.2.54a54.55 54.55 0 0 1-29.85 32.2 88.65 88.65 0 0 1-42.06 7.43c-10.8-.74-36.73-6.95-45.3-23.02-5.74-10.8-4.39-41.8 2.63-88.78a1617.5 1617.5 0 0 1 10.94-63.26l83.92 4.52a409.61 409.61 0 0 1 14.51 45.64 241.1 241.1 0 0 1 8.65 63.06Z"/><path fill="#371A45" fill-opacity=".35" d="M216.81 255.7a54.48 54.48 0 0 1-29.84 32.2 89.33 89.33 0 0 1-42.06 7.43c-10.8-.74-36.73-6.95-45.3-23.02-2.7-5-3.78-14.31-3.58-27.62.2 7.9 1.35 13.58 3.58 16.95 8.57 13.17 34.57 18.3 45.3 18.9a106.18 106.18 0 0 0 42.06-6.07A50.1 50.1 0 0 0 216.81 248c2.16-5.06 3.38-11.74 3.45-19.78.13 11.28-1.02 20.6-3.45 27.48Z"/><path fill="#371A45" fill-opacity=".35" d="M98.33 212.9c-1.35 12.28-2.16 22.95-2.3 31.8-.2-8.24.6-18.98 2.3-31.8Z"/><path fill="#371A45" d="M200.21 123.56C221.4 179 228.77 231.63 219.9 256.7a58.07 58.07 0 0 1-31.04 33.94l-.55.24a89.57 89.57 0 0 1-42.75 7.76l-1.02-.06-10.4-1.65 1.02-6.44 10.1 1.6.7.04a83.28 83.28 0 0 0 39.11-6.95l.6-.27a51.57 51.57 0 0 0 28.07-30.37c8.16-23.05 1.2-73.5-19-127.03l-.62-1.62 6.1-2.33Zm-90.24-3.97 6.41 1.22-.96 5.09-1.4 7.48-.89 4.88c-.73 4.03-1.44 7.98-2.11 11.84l-.8 4.59-.77 4.5-.75 4.42-.71 4.34c-1.05 6.45-2.01 12.6-2.88 18.48l-.56 3.87c-6.3 44.04-7.07 71.21-2.13 80.48 1 1.87 2.37 3.72 4.13 5.6 6.1 6.33 16.12 11.1 27.25 13.8l.65.15-1.5 6.35c-12.5-2.93-23.85-8.26-31.14-15.8a33.08 33.08 0 0 1-5.15-7.04c-6.76-12.67-4.72-49.27 5.45-110.43l.76-4.51.78-4.61c.8-4.65 1.65-9.43 2.54-14.34l.9-4.96.93-5.05.97-5.13.98-5.22Z"/><path fill="#FFF" d="M153.82 280.27s-8.77 43.96 9.45 65.3c0 0-18.36 11.27-8.23 20.31 9.92 8.78 49.22 12.29 58.4-8.98 8.77-20.39-13.1-37.13-2.37-86.14 1.76-8.1 3.72-18.17 3.79-29.98l-61.04 39.5Z"/><path fill="#371A45" fill-opacity=".35" d="M211.14 270.82c-10.73 49.02 11.14 65.83 2.36 86.15-9.18 21.27-48.47 17.76-58.4 8.98-2.63-2.36-3.37-4.86-2.97-7.3 13.37 7.03 46.8 8.25 55.16-11.13 3.04-7.02-15.25-20.66-15.39-35.85a103.3 103.3 0 0 1 7.22-35.92 12.83 12.83 0 0 0-11.4-17.21h-.2c-4.94-.27-10.27-.95-15.94-2.17 0 0-9.25-11.74 1.08-18.3 0 0 31.4 4.33 47.66-4.52-.2 8.65-1.28 16-3.24 21.68l-3.17.87a224.4 224.4 0 0 1-2.77 14.72Z"/><path fill="#371A45" d="M154.57 280.54c.13 5.68-.14 11.28-.34 16.82-.14 5.53-.2 11.07.27 16.6a81.83 81.83 0 0 0 2.97 16.14 40.17 40.17 0 0 0 7.5 14.11c.8.95.67 2.36-.28 3.17l-.2.2c-.81.48-1.69 1.15-2.5 1.76-2.37 1.84-4.49 4-6.28 6.42a7.3 7.3 0 0 0-1.41 4.72c.3 1.6 1.2 3.02 2.5 3.98a18.28 18.28 0 0 0 5.06 2.84c1.89.74 3.84 1.35 5.87 1.82a59.61 59.61 0 0 0 24.91.34 27.28 27.28 0 0 0 15.73-8.44 20.93 20.93 0 0 0 3.1-4.93 24.78 24.78 0 0 0 1.83-11.74c-.27-4.12-1.28-8.24-2.3-12.43-1-4.18-2.09-8.5-2.96-12.82a109.24 109.24 0 0 1-.81-39.77c.67-4.39 1.62-8.78 2.5-12.96.87-4.26 1.34-8.51 1.95-12.7.61-4.25 1.15-8.44 2.43-12.76.14-.4.54-.67.95-.54.27.07.47.27.54.54a36.86 36.86 0 0 1 .8 13.3c-.4 4.46-1.41 8.78-2.29 13.03a136.1 136.1 0 0 0-3.78 25.46c-.37 8.53.3 17.08 2.03 25.45.8 4.19 1.89 8.37 2.9 12.63 1.01 4.25 2.1 8.57 2.36 13.23a30.6 30.6 0 0 1-2.16 13.84 23.5 23.5 0 0 1-9.11 10.73 45.23 45.23 0 0 1-19.51 6.21 64.68 64.68 0 0 1-26.74-3.37 24.58 24.58 0 0 1-6.28-3.58l-.74-.67-.68-.68c-.4-.54-.87-1.01-1.21-1.62a9.11 9.11 0 0 1-.95-8.1c.4-1.2.95-2.37 1.62-3.45a30.15 30.15 0 0 1 4.66-5.4l2.64-2.22 2.83-2.03-.54 3.38a44.7 44.7 0 0 1-8.37-15.6c-.95-2.77-1.55-5.67-2.16-8.5l-.74-4.33a94.38 94.38 0 0 1 .4-30.1c.55-2.84 1.34-5.62 2.36-8.31.14-.4.61-.61 1.02-.4.4.2.6.46.6.73Z"/><path fill="#371A45" d="M153.5 315.06a55.55 55.55 0 0 0 13.83 4.26c10.84 1.92 22.52 1.29 33.77-.93 2.02-.4 3.88-.82 5.54-1.25l.98-.26.69-.18.85-.25.3-.09 1.48 4.66-.26.08-.71.2-.7.2-.77.21c-1.91.5-4.08 1-6.46 1.48-11.8 2.32-24.04 2.98-35.56.94a60.9 60.9 0 0 1-14.27-4.29l-.77-.35 2.07-4.43Z"/><path fill="#371A45" fill-opacity=".35" d="M96.7 241.12a164.06 164.06 0 0 0 1.63-32.28 165.4 165.4 0 0 1-1.7 17.56 92.09 92.09 0 0 0-.73 22c.2-2.49.47-4.92.8-7.28Z"/><path fill="#FFF" d="m106.77 261.37 54.55 2.84a11.77 11.77 0 0 0 12.35-11.14l1.49-29.03c.27-6.5-4.73-12-11.21-12.36l-54.55-2.84a11.75 11.75 0 0 0-12.36 11.14l-1.21 23.03-.34 6a12.02 12.02 0 0 0 11.28 12.36Z"/><path fill="#371A45" fill-opacity=".35" d="m106.77 261.37 54.55 2.84a11.77 11.77 0 0 0 12.35-11.14l1.49-29.03a11.87 11.87 0 0 0-8.85-12.02l-5.26 3.1c-3.85 23.16-11.08 34.44-40.04 33.42-12.49-.47-20.32-2.76-25.11-5.6l-.34 6a11.95 11.95 0 0 0 11.2 12.43Z"/><path fill="#371A45" d="m93.92 219.75-1.49 29.03a15.03 15.03 0 0 0 14.23 15.78l54.55 2.84A15.07 15.07 0 0 0 177 253.17l1.48-29.04a15.03 15.03 0 0 0-14.23-15.78l-54.55-2.83a15.03 15.03 0 0 0-15.78 14.23Zm15.44-7.71 54.56 2.83a8.5 8.5 0 0 1 8.05 8.93l-1.49 29.03a8.55 8.55 0 0 1-8.92 8.05L107 258.04a8.5 8.5 0 0 1-8.05-8.92l1.49-29.04a8.5 8.5 0 0 1 8.92-8.04Z"/><path fill="#FFF" d="M104.6 261.03c.68.2 1.42.27 2.17.34l54.55 2.84c6.47.3 11.99-4.67 12.35-11.14l.68-12.9.2-4.25.6-11.88a11.77 11.77 0 0 0-11.13-12.36l-11.82-.6a11.76 11.76 0 0 1 8.98 12.01l-.8 15.66-.68 13.37a11.77 11.77 0 0 1-12.36 11.14l-42.74-2.23Z"/><path fill="#371A45" fill-opacity=".35" d="M104.6 261.03c.68.2 1.42.27 2.17.34l54.55 2.84a11.77 11.77 0 0 0 12.35-11.14l.88-17.15c-1.55 2.97-4.19 6.55-8.17 6.75-2.16.13-4.25-1.55-6-3.85l-.68 13.37a11.77 11.77 0 0 1-12.36 11.14l-42.74-2.3Z"/><path fill="#371A45" d="m164.32 208.35-11.82-.6-.92 6.43a8.5 8.5 0 0 1 6.48 8.69l-1.49 29.02a8.5 8.5 0 0 1-8.92 8.05l-69.9-3.64 25.98 7.8c.4.1.74.19 1.12.26l.4.06.46.05.83.08.3.02h-.18l54.55 2.83A15.03 15.03 0 0 0 177 253.17l1.55-29.03a15.04 15.04 0 0 0-14.23-15.79Zm-1.79 6.5-.03-.06 1.48.08a8.5 8.5 0 0 1 8.05 8.93l-1.55 29.02-.02.26a8.51 8.51 0 0 1-8.9 7.8l-1.71-.09.06-.08a14.96 14.96 0 0 0 3.18-8.49l1.48-29.03a15.1 15.1 0 0 0-2.04-8.34Z"/><path fill="#22A7F0" d="M138.97 236.66c-.07 1.08 1.08 9.79 1.08 9.79l6.14.27c4.19.2 7.83-3.98 8.1-9.38.28-5.4-2.97-9.93-7.15-10.13l-6.15-.27s-1.95 8.03-2.02 9.72Z"/><path fill="#371A45" fill-opacity=".35" d="M138.97 236.66c-.07 1.08 1.08 9.79 1.08 9.79l6.14.27c4.19.2 7.83-3.98 8.1-9.38.28-5.4-2.97-9.93-7.15-10.13l-6.15-.27s-1.95 8.03-2.02 9.72Z"/><path fill="#371A45" d="M142.75 224.63h-.22a4.7 4.7 0 0 0-4.32 3.4l-.07.25-.66 2.97-.26 1.25-.24 1.16-.19 1-.1.62-.07.37-.04.33-.03.3-.01.12-.02.3v.5l.03.4.07.84.27 2.43.44 3.88.02.13a4.68 4.68 0 0 0 4.4 4.15l4.26.2c5.69.27 10.33-5.08 10.66-11.7.33-6.62-3.78-12.42-9.48-12.7l-4.44-.2Zm.12 4.9 4.08.19c2.7.13 5.04 3.42 4.84 7.56l-.02.27c-.3 4.02-2.88 6.92-5.53 6.8l-4.05-.2-.14-1.3-.34-2.94-.18-1.57-.08-.8-.05-.6v-.06l.01-.08.04-.32.06-.43.1-.53.15-.84.26-1.27.48-2.2.37-1.69Z"/><path fill="#22A7F0" d="M132.83 236.46c.27-5.4 3.84-9.66 8.1-9.45 4.18.2 7.42 4.72 7.15 10.12-.27 5.4-3.84 9.59-8.1 9.46-4.18-.2-7.42-4.73-7.15-10.13Z"/><path fill="#371A45" d="M141.04 224.56c-5.74-.27-10.33 5.12-10.66 11.78-.33 6.62 3.78 12.42 9.48 12.7 5.77.18 10.34-5.16 10.67-11.78.33-6.63-3.78-12.42-9.49-12.7Zm-.23 4.9c2.7.12 5.03 3.41 4.83 7.55-.21 4.18-2.8 7.21-5.58 7.13-2.66-.13-5-3.42-4.79-7.56.21-4.2 2.82-7.26 5.54-7.13Zm-26.7-20.4 4.89.24-1.22 24.98 9.02 6.33-.58 21.5-4.89-.13.51-18.87-9.08-6.37z"/><path fill="#FFF" d="M222.62 223.5s5.06 4.05 5.27 10.19c.27 7.16-4.26 10.06-4.26 10.06s-19.64 10.06-51.1 3.38c0 0-9.26-11.75 1.07-18.3-.06 0 33.22 4.52 49.02-5.33Z"/><path fill="#371A45" fill-opacity=".35" d="M227.89 233.69c.27 7.16-4.26 10.06-4.26 10.06s-19.64 10.06-51.1 3.38c0 0-3.04-3.85-3.72-8.38l.27.34a89.12 89.12 0 0 0 46.99-1.69c5-1.63 8.37-6.29 8.37-11.54v-.54c1.42 1.75 3.31 4.66 3.45 8.37Z"/><path fill="#371A45" d="m222.85 219.5-1.96 1.23c-6.27 3.91-16.45 5.74-28.76 5.87h-1.32c-2.2 0-4.37-.05-6.5-.15l-.8-.04 1.33-.84H173.6l-.37 2.68-1.37-2.18c-4.95 3.14-6.91 7.69-6.3 12.78.4 3.3 1.78 6.41 3.58 9.14l.27.4.22.3.18.26.15.2.73.92 1.16.25c14.2 3.01 27.17 3 38.64.83l.42-.08.85-.18.85-.18.82-.18.82-.2.8-.2.79-.2.76-.2 1.12-.32.71-.2.7-.22.66-.21.64-.21.61-.21.59-.2.55-.21.52-.2.72-.29.22-.1.41-.17a20 20 0 0 0 .2-.09l.35-.17.32-.16.14-.08.25-.14.1-.07a9.3 9.3 0 0 0 1.22-.98c.7-.65 1.39-1.45 2-2.38a15.87 15.87 0 0 0 2.52-9.55 16.45 16.45 0 0 0-3.24-9.07 20.28 20.28 0 0 0-2.16-2.55l-.17-.17-.31-.3-.28-.25-.23-.2-1.9-1.53Zm-.81 8.06.28.35.28.38a10.08 10.08 0 0 1 2.02 5.5 9.4 9.4 0 0 1-1.42 5.72l-.13.19c-.37.53-.73.91-.99 1.14l-.11.09-.38.17-.17.08c-.68.3-1.5.62-2.45.97-2.76.99-6 1.89-9.7 2.59l-.71.13c-10 1.8-21.25 1.83-33.59-.58l-.51-.1-.05-.07c-2.95-4.58-3.6-8.8-.15-11.74l.2-.16.68.08.96.1 1.02.1 1.07.09a150.67 150.67 0 0 0 14 .53c11.96-.12 22.14-1.73 29.56-5.41l.29-.15Z"/><path fill="#FFF" d="M205.74 155.58s28.36 41.45 17.42 70.62c-6.95 18.5-37.6 17.35-46.86 3.64l-18.16-32 47.6-42.26Z"/><path fill="#371A45" fill-opacity=".35" d="M223.16 226.2c-6.95 18.5-37.54 17.35-46.86 3.64l-18.16-32 6.75-6 15.6 16.87c6.28 13.64 36.12 22.62 43 4.12a38.63 38.63 0 0 0 1.9-7.43c.84 7.01.08 14.12-2.23 20.8Z"/><path fill="#371A45" d="m203.05 157.42 5.38-3.69.41.62.5.77.27.41.55.89.58.94.6 1 .32.52c2.39 4.02 4.77 8.46 7 13.2 5.2 11.09 8.76 22.09 9.9 32.47.9 8.33.2 15.99-2.35 22.8-3.75 9.97-13.66 15.62-25.51 16-10.96.36-21.62-3.91-26.87-11.34l-.23-.34 5.4-3.65c3.77 5.58 12.43 9.1 21.49 8.81 9.43-.3 16.9-4.56 19.61-11.78 2.17-5.77 2.77-12.41 1.96-19.79-1.04-9.57-4.38-19.92-9.3-30.4a148.8 148.8 0 0 0-6.71-12.65l-.3-.5-.57-.95-.55-.89-.53-.83-.51-.8-.54-.82Z"/><path fill="#371A45" fill-opacity=".35" d="M211.68 170.36a90.4 90.4 0 0 1-109.5 13.1 1617.5 1617.5 0 0 1 10.93-63.26l83.92 4.52a402.11 402.11 0 0 1 14.65 45.64Z"/><path fill="#FFF" d="M71.12 134.92a87.1 87.1 0 0 0 39.56 36.18L115 173a89.8 89.8 0 0 0 39.57 6.14l5.13-.47a89.8 89.8 0 0 0 71.76-54.42A87.16 87.16 0 0 0 182.72 9.68a88.2 88.2 0 0 0-26.8-6.15l-3.18-.2a87.97 87.97 0 0 0-27.48 3.24 89.76 89.76 0 0 0-17.82 7.02l-5.33 2.98a89.12 89.12 0 0 0-35.92 41.92 87.1 87.1 0 0 0 4.93 76.43Z"/><path fill="#371A45" d="M125.17 6.26a90.08 90.08 0 0 0-17.88 7.04l-5.34 2.98a89.45 89.45 0 0 0-36.06 42.09 87.42 87.42 0 0 0 4.94 76.71 87.42 87.42 0 0 0 39.71 36.32l4.33 1.9a90.13 90.13 0 0 0 39.72 6.17l5.14-.48a90.13 90.13 0 0 0 72.04-54.61A87.49 87.49 0 0 0 183.49 9.63l-.65-.26a88.52 88.52 0 0 0-26.9-6.16l-3.18-.2a88.3 88.3 0 0 0-27.59 3.25Zm27.56-2.6 3.16.2c8.75.6 17.45 2.53 25.81 5.77l.9.35a86.83 86.83 0 0 1 48.56 114.14 89.46 89.46 0 0 1-71.5 54.22l-5.13.47a89.46 89.46 0 0 1-39.4-6.12l-4.32-1.89a86.76 86.76 0 0 1-39.4-36.05 86.77 86.77 0 0 1-4.92-76.13 88.79 88.79 0 0 1 35.79-41.77l5.32-2.97a89.44 89.44 0 0 1 16.73-6.7l1.02-.3a87.64 87.64 0 0 1 27.38-3.22Z"/><path fill="#371A45" fill-opacity=".35" d="M231.46 124.18a89.6 89.6 0 0 1-76.9 54.9 90.4 90.4 0 0 1-52.32-12.5 87.77 87.77 0 0 1-40.17-54.15 87.1 87.1 0 0 0 38.55 34.44l4.32 1.89a89.8 89.8 0 0 0 39.57 6.14l5.13-.47A89.8 89.8 0 0 0 221.4 100a86.66 86.66 0 0 0 4.19-54.08 86.8 86.8 0 0 1 5.87 78.25Z"/><path fill="#371A45" d="M124.6 4.14a92.29 92.29 0 0 0-18.33 7.22l-5.4 3-.08.05a91.65 91.65 0 0 0-36.94 43.11 89.62 89.62 0 0 0 5.07 78.65 89.62 89.62 0 0 0 40.71 37.23l4.36 1.91a92.4 92.4 0 0 0 40.75 6.35l5.19-.48a92.35 92.35 0 0 0 73.87-55.95A89.7 89.7 0 0 0 184.3 7.59l-.67-.27a90.7 90.7 0 0 0-27.55-6.3L152.9.8a90.58 90.58 0 0 0-27.37 3.07l-.94.26Zm28.04 1.72 3.11.2c8.5.57 16.98 2.45 25.13 5.61l.9.36a84.64 84.64 0 0 1 47.35 111.25 87.26 87.26 0 0 1-69.75 52.88l-5.05.46a87.22 87.22 0 0 1-38.4-5.97l-4.24-1.86a84.54 84.54 0 0 1-38.37-35.12 84.57 84.57 0 0 1-4.8-74.22l.3-.7a86.59 86.59 0 0 1 33.94-39.62l.63-.39 5.28-2.94a87.12 87.12 0 0 1 16.27-6.51l1.01-.28a85.44 85.44 0 0 1 26.69-3.15Z"/><path fill="#371A45" d="M124.38 3.43h.02a93.02 93.02 0 0 0-18.47 7.27l-5.41 3.01-.11.07a92.38 92.38 0 0 0-37.23 43.46 90.36 90.36 0 0 0 5.1 79.3 90.35 90.35 0 0 0 41.05 37.53l4.36 1.91.1.05a93.06 93.06 0 0 0 41 6.36l5.3-.49a93.06 93.06 0 0 0 74.38-56.39 90.43 90.43 0 0 0-49.89-118.6l-.67-.27A91.42 91.42 0 0 0 156.14.28l-3.19-.2c-9.7-.4-19.31.74-28.57 3.35ZM152.6 6.6l3.1.2a84.83 84.83 0 0 1 24.9 5.57l.9.35A83.91 83.91 0 0 1 228.45 123l-.36.85a86.53 86.53 0 0 1-67.87 51.46l-.89.11-5.06.47-.85.06a86.47 86.47 0 0 1-36.42-5.68l-.75-.29-4.26-1.86a83.8 83.8 0 0 1-38.04-34.82 83.83 83.83 0 0 1-4.74-73.57l.3-.71a85.85 85.85 0 0 1 33.63-39.26l.62-.38 5.27-2.94a86.35 86.35 0 0 1 16.05-6.43l1.07-.3a84.7 84.7 0 0 1 26.46-3.12Z"/><path fill="#371A45" d="M84.76 152.88c52.8 34.97 123.55 7.83 126.31-54.42 1.9-42.4-38.61-76.7-80-75.68-30.11.74-59.21 14.44-71.1 60.83 0 0-2.02 21.33 4 35.37 6.07 14.05 14.37 26.67 14.37 26.67l6.42 7.23Z"/><path fill="#220F2D" d="M211.07 98.46c-2.83 62.25-73.52 89.39-126.31 54.42l-1.29-1.49c57.66 8.98 114.44-26.2 118.49-89.12a65.49 65.49 0 0 1 9.11 36.19Z"/><path fill="#371A45" d="M130.45 10.54c-13.83.37-26.25 2.98-37.24 8.21l-.3.14-.27.2a92.38 92.38 0 0 0-29.4 38.08 90.22 90.22 0 0 0 5.05 79.37 90.35 90.35 0 0 0 41.04 37.53l4.36 1.91.1.05a93.06 93.06 0 0 0 14.07 4.33l.25.06.25.02c50.7 3.32 93.02-30.65 95.36-81.43 2.18-48.14-43.35-89.7-93.27-88.47Zm.16 6.52c46.3-1.14 88.6 37.47 86.59 81.66l-.08 1.4c-2.84 45.71-40.83 76.25-86.92 73.89l-1.16-.07-.87-.2c-3.7-.88-7.34-2-10.9-3.36l-1.02-.4-4.26-1.86a83.8 83.8 0 0 1-38.04-34.82 83.7 83.7 0 0 1-4.68-73.63l.31-.73a85.85 85.85 0 0 1 26.37-34.16l.37-.28-.3.14c10.1-4.8 21.64-7.23 34.6-7.58Z"/><path fill="#371A45" d="M130.99 19.51c-37.05.92-63.17 20.35-74.17 63.29l-.07.24-.06.78-.06.83-.07 1.14c-.39 6.98-.2 14.7.99 22.04a53.4 53.4 0 0 0 3.41 12.44c1.25 2.89 2.64 5.82 4.15 8.8 2.3 4.54 4.75 8.95 7.2 13.06l.64 1.05.6 1 .87 1.4.83 1.3.5.76 6.85 7.72.35.24c55.8 36.95 128.54 6.85 131.38-57 1.93-43.09-38.72-80.18-83.34-79.09Zm.16 6.53c41-1 78.41 33.14 76.66 72.27-1.25 28.33-17.41 50.47-42.38 60.8l-.75.3c-24.3 9.77-53.27 6.88-77.39-8.77l-.39-.26-5.96-6.72-.73-1.13-.8-1.3-.58-.94-.6-1a210.26 210.26 0 0 1-7.3-13.16 155.94 155.94 0 0 1-3.97-8.44 47.07 47.07 0 0 1-2.97-10.9 98.62 98.62 0 0 1-.92-20.64l.07-1.06.06-.93-.06.26c10.25-40.02 33.8-57.54 68.01-58.38Z"/><path fill="#FFF" d="M250.57 93.8c1.35 17.28-7.9 32.68-20.66 34.3-12.76 1.62-24.17-11.07-25.45-28.43v-.33c-1.22-17.15 8.03-32.34 20.66-33.96 9.85-1.29 18.9 6.07 23.09 17.42a37.97 37.97 0 0 1 2.36 11Z"/><path fill="#371A45" fill-opacity=".35" d="M250.57 93.8c1.35 17.28-7.9 32.68-20.66 34.3-12.76 1.62-24.17-11.07-25.45-28.43v-.33c1.55 1.62 3.85 3.04 6.75 2.09 5.06-1.69 13.5-13.98 13.5-13.98s10.2-2.09 23.5-4.65a37.97 37.97 0 0 1 2.36 11Z"/><path fill="#371A45" d="M226.96 61.98c-14.88.24-26.2 16.2-25.83 35.2.3 18.96 12.13 34.48 27 34.25 14.7-.31 25.91-15.93 25.78-34.63l-.01-.55c-.3-18.97-12.12-34.5-26.94-34.27Zm.1 6.52c10.6-.16 19.88 11.89 20.3 27.38l.02.48c.3 15.7-8.63 28.32-19.36 28.54-10.75.17-20.12-12.1-20.37-27.84-.3-15.75 8.65-28.39 19.4-28.56Z"/><path fill="#FFF" d="M216.27 98.4c.27-13.78 8.91-24.85 19.38-24.65 10.4.2 18.7 11.54 18.43 25.38-.27 13.78-8.98 24.78-19.38 24.58-10.46-.2-18.7-11.48-18.43-25.32Z"/><path fill="#371A45" d="M235.66 73.4c-10.66-.2-19.46 11.02-19.73 25-.27 14 8.08 25.46 18.77 25.66 10.62.2 19.45-10.98 19.72-24.9.28-13.99-8.13-25.54-18.76-25.74Zm-.02.7c10.21.2 18.36 11.4 18.1 25.03-.27 13.58-8.83 24.44-19.03 24.24-10.26-.2-18.36-11.32-18.1-24.97.27-13.5 8.63-24.29 18.73-24.31h.3Z"/><path fill="#371A45" fill-opacity=".35" d="M218.23 110.75a28.5 28.5 0 0 1-1.01-14.11c4.32 9.92 14.1 13.3 22.55 7.5a26.6 26.6 0 0 0 10.33-17.77l.74 1.96c3.85 11.41-.34 25.66-9.32 31.87-9.04 6.21-19.44 1.96-23.29-9.45Z"/><path fill="#371A45" d="M234.7 69.14c-11.78.24-20.5 13.56-20.2 29.31.3 15.78 9.5 28.77 21.29 28.52 11.78-.25 20.5-13.56 20.2-29.32-.3-15.74-9.55-28.76-21.29-28.51Zm.14 6.52c7.48-.16 14.39 9.57 14.63 22.12.24 12.57-6.28 22.5-13.82 22.67-7.52.16-14.39-9.53-14.63-22.12-.24-12.57 6.28-22.51 13.82-22.67Z"/><path fill="#FFF" fill-opacity=".7" d="M152.67 37.76S112.3 41.34 90.5 64.84l-.06.07a37.4 37.4 0 0 0-9.19 17.55 75.68 75.68 0 0 0-1.68 20.39c.6 16.67 4.05 24.37 4.05 24.37a42.2 42.2 0 0 1-16.34-32.07l-.07-4.25.07-1.01c.27-2.98.81-6.82 1.75-11.08 2.84-12.96 9.66-29.97 25.66-38.41 29.84-15.8 59.28-4.46 58-2.64Zm27.35 26.74c6.28-2.03 13.23 2.23 15.53 9.45 2.36 7.23-.88 14.72-7.16 16.68-6.28 2.02-13.23-2.16-15.53-9.39-2.36-7.22.88-14.71 7.16-16.67v-.07Zm9.38 31.66c2.5-1.08 5.54.4 6.75 3.31 1.22 2.84.2 6.08-2.3 7.16-2.49 1.01-5.53-.4-6.74-3.38-1.22-2.83-.2-6.07 2.3-7.09Z"/><path fill-opacity=".35" d="M157 242.53s0 .2-.2.48l.2-.48Z"/><path fill="#CE2E2E" d="M128.5 216.2s4.06 19.45 3.04 22.55c-1.01 3.1-9.45 19.45-12.15 14.25-2.7-5.2-11.2-14.52-8.17-23.97 3.04-9.45 3.78-13.5 6.28-12.83 2.57.68 11 0 11 0Z"/><path fill="#6B184E" d="m131.14 214.72 4.39 21.4-5.27 1.08-4.39-21.4 5.27-1.08Zm-17.68-1.24 5.11 1.66-6.34 19.58-5.12-1.66 6.35-19.58Z"/><path fill="#33AEF1" d="M140.05 241.45H26.29l-.54-1.75-.34-1.15-1.48-4.72-7.63-24.58-3.04-9.92-9.59-30.86a6.62 6.62 0 0 1 6.28-8.57h99.58a7.1 7.1 0 0 1 6.69 4.93l18.36 59.2 1.49 4.87 3.98 12.55Z"/><path fill="#FFF" fill-opacity=".35" d="M134.65 224.04a14.38 14.38 0 0 1-10.6-9.6l-11.34-35.7a13.7 13.7 0 0 0-13.03-9.53H30.95a16.72 16.72 0 0 1-15-9.25h98.78l19.92 64.08Z"/><path fill="#F92323" d="M141.6 241.45v11H32.7a6.48 6.48 0 0 1-6.48-6.4v-4.6H141.6Z"/><path fill="#848484" d="m142.62 241.45 54.07-26.4a2.96 2.96 0 0 1 4.26 2.64c0 1.15-.54 2.16-1.56 2.7l-57.79 32.14"/><path fill="#371A45" fill-opacity=".35" d="M141.6 246.72v4.66H32.7a6.46 6.46 0 0 1-6.2-4.66h115.1Z"/><path fill="#33AEF1" d="m195.61 215.6-18.36 14.11-37.88 11-7.49-25.99 4.05.07 44.16.6z"/><path fill="#FFF" fill-opacity=".6" d="m137.48 236.12 29.24-15.26h-31.6z"/><path fill="#371A45" d="M110.14 156.63H9.48A9.47 9.47 0 0 0 .42 168.9l23.46 75.83h120.6l-25.28-81.4a9.48 9.48 0 0 0-9.06-6.69Zm0 6.53h.18c1.22.08 2.28.9 2.64 2.09l22.66 72.94H28.69L6.65 166.97a2.95 2.95 0 0 1 2.83-3.81h100.66Z"/><path fill="#371A45" d="M141.6 238.2v6.52H29.55v1.33a3.15 3.15 0 0 0 2.97 3.14H141.6v6.53H32.7a9.68 9.68 0 0 1-9.67-9.4v-8.13H141.6Z"/><path fill="#F92323" d="m142.62 241.45 54.07-26.4a2.96 2.96 0 0 1 4.26 2.64c0 1.15-.54 2.16-1.56 2.7l-57.79 32.14"/><path fill="#371A45" fill-opacity=".35" d="M200.95 217.62v.07c0 1.08-.61 2.1-1.56 2.63l-57.79 32.14.47-5.54 56.38-29.1c.47-.27.88-.6 1.21-1.08.2-.33.34-.74.4-1.21.55.6.89 1.28.89 2.1Z"/><path fill="#371A45" d="M197.3 211.46v.07a6.22 6.22 0 0 1 6.91 6.16 6.2 6.2 0 0 1-3.02 5.43l-58 32.26-1.63-2.92h-3.83v-11h4.89l-1.44-2.94 42.08-20.54h-51.38v-6.52h65.42Zm-8.38 11.02-44.66 21.8v3.04l44.66-24.84Z"/><path fill="#FFF" d="M85.7 253.34s-11.14 13.03-28.96 12.15C26.09 264 32.9 240.78 39.32 236.46c16.81-11.28 34.43.88 36.39 5.87 3.58 9.25 10 11 10 11Z"/><path fill="#371A45" fill-opacity=".35" d="M85.7 253.34s-11.14 12.96-28.96 12.15c-18.43-.88-23.36-9.66-22.89-17.42 3.04 4.46 9.25 7.9 20.52 8.44 11.28.54 19.92-4.46 24.71-8.24 3.25 4.12 6.62 5.07 6.62 5.07Z"/><path fill="#371A45" d="M37.5 233.75c-4.8 3.24-8.03 11.75-6.57 18.94 1.9 9.36 10.58 15.33 25.65 16.06 7.17.35 13.84-1.3 19.9-4.44a43.15 43.15 0 0 0 10.46-7.54l.38-.4.4-.41.31-.33.15-.17 3.34-3.91-4.96-1.36-.17-.07a8.14 8.14 0 0 1-1-.49 12.97 12.97 0 0 1-3.38-2.86 18.85 18.85 0 0 1-3.07-5.13l-.2-.5c-1.54-3.94-7.7-8.63-14.62-10.94-8.85-2.95-18.2-2.1-26.62 3.55Zm35.17 9.76a25.68 25.68 0 0 0 4.38 7.5l.35.4c.8.9 1.65 1.69 2.51 2.37l.35.26-.23.2c-5.96 5-13.84 8.45-23.13 7.99-12.33-.6-18.33-4.72-19.57-10.84-.95-4.67 1.26-10.5 3.81-12.23 6.65-4.46 13.9-5.11 20.91-2.77a26.5 26.5 0 0 1 7.54 3.93c.9.69 1.67 1.39 2.25 2.03.41.47.68.86.8 1.1l.03.06Z"/><path fill="#371A45" fill-opacity=".35" d="M180.09 215.4c-5.74 17.48-41.12 16.74-44.02.13l-.14-.74 44.16.6Z"/><path fill="#FFF" d="M205.07 197.16s-15.67-14.92-33.36-14.92c-18.23 0-38.88 9.8-35.71 27.96 3.1 17.62 42.8 17.41 44.76-3.58"/><path fill="#371A45" fill-opacity=".35" d="M180.83 206.55c-1.9 21-41.66 21.2-44.76 3.58a18.9 18.9 0 0 1 .27-8.3c3.98 14.17 32.74 15.59 41.79 2.63.8-1.15 2.63-.61 2.63.8v1.29h.07Z"/><path fill="#371A45" d="M171.71 178.98c8.43 0 16.88 3 25 7.94 2.82 1.7 5.39 3.54 7.67 5.37l.27.22.76.61.65.56.56.48.45.41.25.23-4.5 4.73-.5-.46-.12-.1-.57-.5-.64-.53-.69-.56a66.45 66.45 0 0 0-6.97-4.89c-7.2-4.38-14.57-6.98-21.62-6.98-8.82 0-17.8 2.42-24.06 6.61-6.65 4.45-9.68 10.38-8.44 17.5 1.1 6.26 9.35 10.46 19.45 10 10.3-.45 17.93-5.46 18.82-13.01l.03-.3 6.5.61c-1.08 11.53-11.73 18.63-25.05 19.23-12.99.58-24.38-5.22-26.18-15.4-1.72-9.86 2.57-18.25 11.24-24.05 7.39-4.95 17.64-7.72 27.7-7.72Zm23.09 168.88a39.9 39.9 0 0 0-23.15-2.03c-1.29.2-2.5.6-3.72.88l-1.82.54-1.89.54-.2.07a2.26 2.26 0 0 1-2.7-1.62 2.16 2.16 0 0 1 1.28-2.57l2.02-.88c2.01-.84 4.12-1.4 6.28-1.69a35.38 35.38 0 0 1 17.08 2.03 28.63 28.63 0 0 1 7.36 4.25c.14.14.14.34.07.48h-.6Zm-58-7.97a48.4 48.4 0 0 0-14.84-2.77h-1.83l-1.82.14-1.82.2-.88.13-.88.2c-2.36.34-4.59 1.22-6.88 1.9l-.2.06a2.23 2.23 0 0 1-2.78-1.48 2.2 2.2 0 0 1 1.15-2.63l1.9-.95.94-.4 1.01-.34 2.03-.6 2.09-.35a34.23 34.23 0 0 1 23.22 6.42c.14.13.14.33.07.47h-.47Z"/><path fill="#371A45" d="M199.33 189.73c7.84 11.74 9.83 24.03 6.5 34.39-2.98 9.26-10.01 15.77-17.77 16.38l-.35.02-.27-4.88c5.7-.32 11.3-5.42 13.74-13.02 2.81-8.76 1.17-19.31-5.59-29.68l-.32-.5 4.06-2.7Z"/><path fill="#FFF" d="m73.55 214.38-.14.07a11.48 11.48 0 0 1-15.19-3.04 11.41 11.41 0 0 1 3.18-16.2l.06-.07c1.56-.95 3.38.67 2.7 2.36a9.62 9.62 0 0 0 .75 8.85 9.82 9.82 0 0 0 7.7 4.52c1.82.14 2.5 2.57.94 3.51Z"/></svg>