<svg xmlns="http://www.w3.org/2000/svg" width="3333" height="1038" fill="none" viewBox="0 0 3333 1038"><path fill="#7F54B3" fill-rule="evenodd" d="M374.269 287h760.701c47.96 0 87.02 39.061 87.02 87.022v290.239c0 47.961-39.06 87.022-87.02 87.022H862.039l37.33 91.72-164.897-91.72h-360.45c-47.961 0-87.022-39.061-87.022-87.022V374.022C287 326.061 326.061 287 374.269 287Z" clip-rule="evenodd"/><path fill="#fff" d="M334.219 365.864c5.934-7.169 14.587-11.619 23.981-11.867 19.283-1.236 30.408 7.911 33.375 27.442 11.867 79.606 24.722 147.344 38.319 202.969l83.809-159.211c7.664-14.339 17.058-22.002 28.678-22.744 16.811-1.236 27.194 9.394 31.397 32.139 7.911 44.5 20.025 88.258 36.094 130.533 10.136-96.911 26.947-167.122 50.434-210.386 4.697-9.889 14.338-16.317 25.216-16.811a32.677 32.677 0 0 1 23.981 7.664c6.922 5.191 11.125 13.35 11.619 22.003.495 6.427-.742 12.855-3.708 18.294-14.834 27.689-27.195 73.672-36.836 137.95-9.395 62.053-13.103 110.756-10.631 145.614.989 8.653-.742 17.305-4.45 24.969-3.708 7.911-11.619 13.35-20.272 13.845-10.136.741-20.025-3.956-30.161-14.092-35.6-36.342-63.783-90.483-84.55-162.425-24.475 48.95-43.017 85.786-55.131 110.014-22.497 43.264-41.78 65.267-57.602 66.503-10.384.741-19.284-7.911-26.453-26.206-19.531-49.939-40.545-146.603-63.042-289.991-1.978-9.395.247-18.789 5.933-26.206ZM915.936 425.939c-12.856-22.992-35.106-39.309-61.064-44.253-6.923-1.483-13.845-2.225-20.767-2.225-36.589 0-66.503 19.036-89.742 57.108-19.778 32.386-30.161 69.717-29.666 107.542 0 29.419 6.18 54.636 18.294 75.65 12.856 22.992 35.106 39.308 61.064 44.253 6.922 1.483 13.844 2.225 20.767 2.225 36.836 0 66.75-19.036 89.741-57.109 19.778-32.633 30.161-69.963 29.667-108.283 0-29.419-6.181-54.389-18.294-74.908Zm-48.209 106.058c-5.191 24.97-14.833 43.758-29.172 56.614-11.125 10.136-21.508 14.092-30.903 12.361-9.394-1.73-16.811-10.136-22.497-24.722-4.203-11.125-6.675-22.745-6.675-34.859 0-9.394.989-18.788 2.719-27.936 3.709-16.316 10.384-31.644 20.273-45.489 12.608-18.541 25.958-26.452 39.802-23.486 9.395 1.978 16.811 10.136 22.498 24.723 4.202 11.125 6.675 22.744 6.675 34.611 0 9.394-.742 18.789-2.72 28.183ZM1155.24 425.939c-12.85-22.992-35.1-39.309-61.06-44.253-6.92-1.483-13.84-2.225-20.77-2.225-36.58 0-66.5 19.036-89.738 57.108-19.777 32.386-30.161 69.717-29.666 107.542 0 29.419 6.18 54.636 18.294 75.65 12.856 22.992 35.11 39.308 61.06 44.253 6.93 1.483 13.85 2.225 20.77 2.225 36.84 0 66.75-19.036 89.74-57.109 19.78-32.633 30.16-69.963 29.67-108.283 0-29.419-6.18-54.389-18.3-74.908Zm-48.2 106.058c-5.2 24.97-14.84 43.758-29.18 56.614-11.12 10.136-21.5 14.092-30.9 12.361-9.39-1.73-16.81-10.136-22.5-24.722-4.2-11.125-6.67-22.745-6.67-34.859 0-9.394.99-18.788 2.72-27.936 3.71-16.316 10.38-31.644 20.27-45.489 12.61-18.541 25.96-26.452 39.8-23.486 9.4 1.978 16.81 10.136 22.5 24.723 4.2 11.125 6.68 22.744 6.68 34.611 0 9.394-.75 18.789-2.72 28.183ZM1318.41 422.478c-25.46 25.216-38.07 57.355-38.07 96.169 0 41.781 12.61 75.65 37.82 101.361 25.22 25.711 58.1 38.567 98.89 38.567 13.6-.247 26.95-2.472 39.81-6.181v-61.805c-11.38 3.461-23 5.439-34.86 5.933-20.28 0-36.34-6.675-48.46-20.272-12.11-13.597-18.29-32.139-18.29-55.378 0-21.755 5.93-39.555 18.04-53.647 11.13-13.597 27.94-21.261 45.49-21.014 12.86 0 25.71 1.978 38.08 5.439v-62.053c-13.6-3.461-27.69-5.192-41.79-4.944-38.81 0-71.19 12.608-96.66 37.825Zm265.02-37.825c-35.35 0-62.79 11.619-82.57 35.105-19.78 23.486-29.67 56.12-29.42 98.148 0 45.489 9.89 80.347 29.42 104.327 19.53 23.981 48.21 36.095 85.54 36.095 36.09 0 64.03-12.114 83.56-36.095 19.53-24.227 29.42-57.85 29.42-101.361s-9.89-77.133-29.91-100.619c-19.53-23.733-48.21-35.6-86.04-35.6Zm30.41 198.519c-6.43 10.384-18.05 16.564-30.16 16.07-11.62.247-22.5-5.934-27.94-16.07-6.42-10.63-9.64-32.139-9.64-64.525 0-50.186 12.61-75.403 38.08-75.403 26.94 0 40.54 25.464 40.54 76.145-.25 31.891-3.96 52.905-10.88 63.783Zm274.67-191.103-13.6 58.345c-3.46 15.081-6.92 30.408-9.89 45.983l-7.66 40.545c-7.42-40.297-17.31-88.753-29.92-144.625h-88.75l-33.38 260.077h66.51l18.04-179.236 45.49 179.236h47.47l43.26-179.236 18.79 178.742h69.47l-35.35-259.831h-90.48Zm318.42 0-13.6 58.345c-3.46 15.081-6.92 30.408-9.89 45.983l-7.66 40.545c-7.42-40.297-17.31-88.753-29.92-144.625h-88.75l-33.37 259.83h66.5l18.05-179.236 45.48 179.236h47.47l43.51-178.989 18.79 178.742h69.47l-35.35-259.831h-90.73Zm215.82 156.986h62.55v-54.141h-62.55V447.2h71.94v-55.131h-142.15v260.078h142.65v-55.625h-72.44v-47.467Zm270.22-41.038c19.77-31.397 11.86-72.684-17.8-94.686-19.04-14.092-45.24-21.262-78.37-21.262h-81.83v260.078h70.21V533.48h1.23l56.87 118.42h74.16l-56.12-117.184c13.11-5.438 24.23-14.832 31.65-26.699Zm-107.79-4.203v-61.806c16.56.495 28.68 3.214 35.85 8.406 7.16 5.192 10.87 13.844 10.87 25.711 0 18.047-15.57 27.194-46.72 27.689Zm160.45-81.336c-25.47 25.216-38.32 57.355-38.32 96.169 0 41.781 12.6 75.65 37.82 101.114 25.22 25.711 58.35 38.567 98.89 38.567a156.91 156.91 0 0 0 40.05-5.934v-61.805a139.092 139.092 0 0 1-34.86 5.933c-20.27 0-36.34-6.675-48.7-20.272-12.12-13.597-18.3-32.139-18.3-55.378 0-21.755 5.94-39.555 18.05-53.647 11.13-13.597 27.94-21.261 45.49-21.014 12.86 0 25.71 1.978 38.07 5.439v-62.053c-13.59-3.461-27.69-5.192-41.78-4.944-38.81 0-70.95 12.608-96.41 37.825Zm227.93 173.797v-47.22h62.55v-54.141h-62.55V447.2h71.95v-55.131h-142.16v260.078H3046v-55.625h-72.44v-.247Z"/></svg>