<svg xmlns="http://www.w3.org/2000/svg" fill="none" viewBox="287 287 934.99 556"><path fill="#7F54B3" fill-rule="evenodd" d="M374.269 287h760.701c47.96 0 87.02 39.061 87.02 87.022v290.239c0 47.961-39.06 87.022-87.02 87.022H862.039l37.33 91.72-164.897-91.72h-360.45c-47.961 0-87.022-39.061-87.022-87.022V374.022C287 326.061 326.061 287 374.269 287Z" clip-rule="evenodd"></path><path fill="#fff" d="M334.219 366.056c5.934-7.17 14.587-11.62 23.981-11.867 19.283-1.236 30.408 7.911 33.375 27.442 11.867 79.605 24.722 147.344 38.319 202.969l83.809-159.211c7.664-14.339 17.058-22.003 28.678-22.744 16.811-1.236 27.194 9.394 31.397 32.139 7.911 44.5 20.025 88.258 36.094 130.533 10.136-96.911 26.947-167.122 50.434-210.386 4.697-9.889 14.338-16.317 25.216-16.811a32.677 32.677 0 0 1 23.981 7.664c6.922 5.191 11.125 13.35 11.619 22.002.495 6.428-.742 12.856-3.708 18.295-14.834 27.689-27.195 73.672-36.836 137.95-9.395 62.053-13.103 110.755-10.631 145.614.989 8.653-.742 17.305-4.45 24.969-3.708 7.911-11.619 13.35-20.272 13.845-10.136.741-20.025-3.956-30.161-14.092-35.6-36.342-63.783-90.483-84.55-162.425-24.475 48.95-43.017 85.786-55.131 110.014-22.497 43.264-41.78 65.267-57.602 66.503-10.384.741-19.284-7.911-26.453-26.206-19.531-49.939-40.545-146.603-63.042-289.992-1.978-9.394.247-18.788 5.933-26.205ZM915.936 425.939c-12.856-22.992-35.106-39.309-61.064-44.253-6.923-1.483-13.845-2.225-20.767-2.225-36.589 0-66.503 19.036-89.742 57.108-19.778 32.386-30.161 69.717-29.666 107.542 0 29.419 6.18 54.636 18.294 75.65 12.856 22.992 35.106 39.308 61.064 44.253 6.922 1.483 13.844 2.225 20.767 2.225 36.836 0 66.75-19.036 89.741-57.109 19.778-32.633 30.161-69.963 29.667-108.283 0-29.419-6.181-54.389-18.294-74.908Zm-48.209 106.058c-5.191 24.97-14.833 43.758-29.172 56.614-11.125 10.136-21.508 14.092-30.903 12.361-9.394-1.731-16.811-10.136-22.497-24.722-4.203-11.125-6.675-22.745-6.675-34.859 0-9.394.989-18.788 2.719-27.936 3.709-16.316 10.384-31.644 20.273-45.489 12.608-18.541 25.958-26.452 39.802-23.486 9.395 1.978 16.811 10.136 22.498 24.723 4.202 11.125 6.675 22.744 6.675 34.611 0 9.394-.742 18.789-2.72 28.183ZM1155.24 425.939c-12.85-22.992-35.1-39.309-61.06-44.253-6.92-1.483-13.84-2.225-20.77-2.225-36.58 0-66.5 19.036-89.738 57.108-19.777 32.386-30.161 69.717-29.666 107.542 0 29.419 6.18 54.636 18.294 75.65 12.856 22.992 35.11 39.308 61.06 44.253 6.93 1.483 13.85 2.225 20.77 2.225 36.84 0 66.75-19.036 89.74-57.109 19.78-32.633 30.16-69.963 29.67-108.283 0-29.419-6.18-54.389-18.3-74.908Zm-48.2 106.058c-5.2 24.97-14.84 43.758-29.18 56.614-11.12 10.136-21.5 14.092-30.9 12.361-9.39-1.73-16.81-10.136-22.5-24.722-4.2-11.125-6.67-22.745-6.67-34.859 0-9.394.99-18.788 2.72-27.936 3.71-16.316 10.38-31.644 20.27-45.489 12.61-18.541 25.96-26.452 39.8-23.486 9.4 1.978 16.81 10.136 22.5 24.723 4.2 11.125 6.68 22.744 6.68 34.611 0 9.394-.75 18.789-2.72 28.183Z"></path></svg>