<svg xmlns="http://www.w3.org/2000/svg" width="134" height="135" fill="none" viewBox="0 0 134 135"><path fill="#8468f6" fill-rule="evenodd" d="M123.722 75.96c10.692 18.645 8.133 42.795-7.691 58.799l-.238.241-25.633-25.568zm-62.213 6.261a48.8 48.8 0 0 1-11.84 20.759l-.8.797-34.456-34.38C-4.72 50.315-4.805 19.424 14.163.238l.24-.237 35.406 35.312c12.269 12.9 16.168 30.819 11.7 46.91m-51.232-6.26C-.417 94.604 2.15 118.754 17.97 134.758l.242.241 25.632-25.568zm62.216 6.26c2.096 7.56 6.048 14.716 11.841 20.759l.8.797 34.452-34.38c19.136-19.083 19.217-49.974.251-69.16L119.598 0 84.19 35.312c-12.264 12.9-16.169 30.819-11.697 46.91" clip-rule="evenodd"/></svg>