<svg xmlns="http://www.w3.org/2000/svg" width="412" height="99" fill="none" viewBox="0 0 412 99"><path fill="#fff" fill-rule="evenodd" d="M328.162 33.965v-14.75h-16.768V0h-15.211c-.007 31.808-.091 26.055 0 60.2.061 24.066 12.572 36.33 31.979 37.107V82.56c-11.18-1.09-16.768-8.074-16.768-22.514v-26.08zM169.105 44.057l18.163-24.842h17.233L178.04 56.634a39930 39930 0 0 1 28.633 40.207h-17.39L169.258 69.05l-20.025 27.79h-17.542l28.873-40.363-26.545-37.261h17.231a12413 12413 0 0 1 17.855 24.91zM269.55 55.11v5.818c-1.357 12.724-11.532 22.406-24.532 22.406-13.974 0-24.993-11.178-24.993-25.307 0-14.125 10.865-25.304 24.993-25.304 13.139 0 23.189 9.67 24.532 22.387m127.23 0v5.818c-1.352 12.724-11.527 22.406-24.529 22.406-13.97 0-24.997-11.178-24.997-25.307 0-14.125 10.869-25.304 24.997-25.304 13.14 0 23.191 9.67 24.529 22.387m15.214 1.488V17.973H396.78v8.599c-6.891-5.503-15.538-8.795-24.683-8.599-21.58-.463-40.519 18.479-40.057 40.055-.462 21.58 18.477 40.519 40.057 40.055 10.712 0 20.959-5.9 24.683-13.506V96.84h15.214V58.028q.012-.717 0-1.429M204.81 58.028c-.465 21.58 18.472 40.519 40.056 40.055 10.712 0 20.955-5.9 24.684-13.506V96.84h15.21V58.028q.012-.717 0-1.429V17.973h-15.21v8.6c-6.892-5.502-15.537-8.796-24.684-8.6-21.584-.463-40.521 18.479-40.056 40.055" clip-rule="evenodd"/><path fill="#8468f6" fill-rule="evenodd" d="M89.658 55.193c7.748 13.547 5.893 31.095-5.573 42.724l-.173.174-18.576-18.578zm-45.084 4.55a35.5 35.5 0 0 1-8.58 15.083l-.58.579-24.97-24.98C-3.42 36.559-3.481 14.113 10.264.172L10.437 0l25.659 25.658c8.89 9.373 11.716 22.393 8.478 34.084m-37.127-4.55c-7.75 13.547-5.889 31.095 5.576 42.724l.175.174 18.574-18.578zm45.087 4.55a35.46 35.46 0 0 0 8.58 15.083l.581.579 24.966-24.98c13.867-13.866 13.926-36.312.181-50.252L86.67 0 61.01 25.658c-8.887 9.373-11.717 22.393-8.476 34.084" clip-rule="evenodd"/></svg>