<svg xmlns="http://www.w3.org/2000/svg" width="513" height="512" fill="none"><path fill="#fff" d="M375.927 1.386c-21.312 2.51-38.628 10.951-61.938 30.116-10.213 8.442-19.981 15.286-21.757 15.286-4.884 0-39.516 15.058-49.284 21.447-7.326 4.563-11.766 5.475-38.629 6.616-39.738 1.597-50.394 6.16-77.7 32.854-17.095 16.883-19.981 18.937-27.75 18.937-13.32 0-38.407 6.16-50.84 12.548-13.097 6.617-29.304 23.272-36.408 37.645-9.324 18.937-11.1 35.136-11.1 110.882 0 39.015 1.11 76.432 2.22 83.048 5.106 28.063 22.645 52.931 46.177 65.48 17.538 9.582 21.534 10.267 57.498 10.038 30.637-.228 31.969 0 53.059 7.986 14.43 5.247 27.306 8.441 38.85 9.354 16.428 1.369 18.205 2.053 32.413 12.777 20.646 15.514 25.086 17.111 56.388 19.621 15.096 1.369 45.067 5.019 66.379 7.985 54.613 7.757 67.933 8.67 84.583 6.16 39.516-5.704 70.597-38.558 74.593-78.941 1.554-15.286-3.108-32.169-21.757-81.45-21.09-55.897-25.086-72.553-23.754-99.931 1.332-25.325 4.884-36.048 22.866-68.446 21.535-39.242 26.863-63.198 20.203-91.945-5.328-23.728-13.765-39.927-29.083-55.441C454.738 6.634 419.884-4.09 375.927 1.386Zm46.177 38.558c15.318 6.844 33.522 26.922 40.182 44.49 22.2 59.547-32.412 122.746-87.691 101.299-17.982-6.844-36.408-25.553-42.846-43.805-12.654-34.451-1.554-73.921 25.752-93.314 22.644-15.971 41.958-18.709 64.603-8.67Zm-123.656 65.48c-.666 18.48 0 24.868 3.996 36.96 8.214 25.097 21.757 41.296 45.733 55.213l11.988 7.073v145.561h-88.801l-.444-81.678-.666-81.451-14.874-.684-15.096-.685v182.522l-6.66 10.723c-6.438 10.495-10.434 21.447-15.54 41.296-1.332 5.476-3.553 9.811-4.885 9.811-4.884 0-31.968-20.762-37.074-28.291-11.544-18.024-11.988-21.903-13.32-109.742l-1.332-82.135-8.88.457c-4.884.456-11.1 1.14-13.986 1.825l-5.106 1.369.888 84.873c.444 46.771 1.554 87.154 2.442 89.664 1.554 4.106-.444 6.16-11.988 14.145-7.549 5.247-17.095 10.039-21.535 10.951-20.868 4.107-51.282-19.393-55.056-42.436-.666-4.335-1.332-42.893-1.554-85.557-.444-74.834-.444-78.028 4.218-88.067 6.216-14.146 20.424-28.519 31.08-31.485 4.662-1.141 16.428-2.966 26.196-3.651 26.419-2.053 29.527-3.878 49.507-25.096 24.42-26.694 30.858-29.432 63.493-27.379l24.642 1.369 15.54-7.985c8.658-4.335 19.536-10.495 24.42-13.69 4.884-3.193 9.99-5.931 11.1-5.931 1.554 0 1.998 7.757 1.554 22.131Zm124.544 263.972c16.65 4.107 29.304 13.233 37.296 27.606 8.214 14.83 9.768 23.5 6.438 37.646-3.552 14.83-12.876 27.834-25.53 35.591-12.432 7.529-24.42 7.529-70.819.913-17.094-2.51-42.846-5.704-56.832-6.845-32.413-2.966-44.179-6.844-54.169-18.252-9.324-10.723-11.1-16.655-9.768-33.31 1.11-14.145 8.214-24.869 23.31-35.82 11.322-8.442 25.752-10.039 89.467-10.267 33.3-.228 51.505.457 60.607 2.738Z"/></svg>