<svg viewBox="0 0 756.77332 140.75999" xmlns="http://www.w3.org/2000/svg" xml:space="preserve" width="756.77332" height="140.75999"><path d="M4110.78 615.551c-21.72-110.336-38.23-244.992-46.92-300.594h-6.08c-6.95 57.34-23.46 191.133-46.05 299.723l-55.59 270.187h-169.42v-728.89h105.13v600.824l10.42-56.117 106.86-544.707h105.12l105.12 544.707 11.29 56.445V395.934l.01-239.957h105.12v728.89h-171.15l-53.86-269.316M4619.89 265.441c-9.56-19.988-30.41-33.882-51.26-33.882-24.33 0-33.89 19.113-33.89 66.027v390.941h-119.88v-397.89c0-98.168 32.14-143.348 103.38-143.348 48.65 0 87.74 21.719 114.67 73.844h2.61l10.42-65.156h93.83v532.55h-119.88V265.441M4971.73 478.281c-39.09 28.672-63.41 47.789-63.41 89.485 0 29.539 13.9 46.047 46.91 46.047 33.89 0 45.17-23.458 46.04-103.387l100.79 4.344c7.81 129.449-34.76 183.312-145.09 183.312-102.51 0-152.9-46.047-152.9-140.742 0-86.004 41.7-125.098 109.46-176.352 58.2-45.175 92.09-70.371 92.09-106.859 0-27.801-17.38-46.914-47.78-46.914-35.62 0-56.47 33.879-51.26 92.953l-101.64-1.734c-15.65-110.332 28.67-174.621 146.82-174.621 103.38 0 157.24 47.781 157.24 143.347 0 86.875-43.44 121.625-137.27 191.121M5175.04 155.977h114.67v532.55h-114.67v-532.55M5233.25 898.766c-44.31 0-65.16-16.508-65.16-73.844 0-59.078 20.85-73.848 65.16-73.848 45.17 0 65.15 14.77 65.15 73.848 0 54.73-19.98 73.844-65.15 73.844M5675.44 347.973l-105.12 5.211c0-93.829-10.42-124.235-46.04-124.235s-41.71 33.883-41.71 144.215v103.387c0 106.859 6.96 140.738 42.57 140.738 33.02 0 41.71-32.141 41.71-131.184l104.25 6.954c6.95 82.527-3.48 139.004-35.62 171.144-23.45 23.457-59.08 34.746-108.59 34.746-116.42 0-164.2-62.551-164.2-238.039v-74.707c0-180.711 40.83-238.914 159.85-238.914 50.39 0 85.14 10.422 108.6 33.012 33.87 31.277 46.91 85.14 44.3 167.672M1717.37 254.996c6.65 17.371 9.99 45.746 9.99 85.145v165.964c0 38.231-3.34 66.176-9.99 83.852-6.67 17.66-18.4 26.504-35.19 26.504-16.23 0-27.67-8.844-34.32-26.504-6.67-17.676-9.99-45.621-9.99-83.852V340.141c0-39.399 3.17-67.774 9.55-85.145 6.37-17.383 17.95-26.07 34.76-26.07 16.79 0 28.52 8.687 35.19 26.07zm-134.68-83.418c-24.05 16.207-41.14 41.41-51.26 75.59-10.15 34.176-15.21 79.645-15.21 136.422v77.336c0 57.347 5.78 103.402 17.37 138.152 11.59 34.758 29.68 60.086 54.31 76.031 24.61 15.922 56.91 23.891 96.89 23.891 39.38 0 70.95-8.117 94.7-24.324 23.75-16.227 41.13-41.574 52.14-76.031 11-34.469 16.51-80.372 16.51-137.719V383.59c0-56.777-5.36-102.399-16.08-136.856-10.72-34.468-28.1-59.668-52.13-75.589-24.05-15.926-56.63-23.899-97.75-23.899-42.29 0-75.46 8.121-99.49 24.332M3443.39 606.5c-6.07-7.531-10.13-19.844-12.15-36.926-2.06-17.094-3.05-43.011-3.05-77.765v-38.235h87.75v38.235c0 34.168-1.16 60.089-3.46 77.765-2.33 17.664-6.52 30.114-12.6 37.364-6.09 7.238-15.51 10.863-28.24 10.863-12.76 0-22.16-3.778-28.25-11.301zm-15.2-224.176v-26.937c0-34.184.99-59.821 3.05-76.899 2.02-17.097 6.21-29.547 12.59-37.363 6.37-7.824 16.2-11.734 29.54-11.734 17.94 0 30.27 6.957 36.93 20.855 6.65 13.899 10.27 37.07 10.86 69.516l103.41-6.078c.57-4.649.86-11.016.86-19.121 0-49.247-13.47-86.024-40.4-110.352-26.93-24.328-65.04-36.496-114.26-36.496-59.09 0-100.51 18.531-124.26 55.609-23.76 37.067-35.63 94.41-35.63 172.047v92.981c0 79.933 12.31 138.289 36.94 175.082 24.62 36.777 66.75 55.175 126.42 55.175 41.13 0 72.69-7.535 94.71-22.593 22.01-15.067 37.5-38.524 46.49-70.379 8.98-31.867 13.47-75.895 13.47-132.078v-91.235h-200.72M1290.7 392.297l-136.42 492.676h119.04l47.79-223.313c12.17-55.043 21.14-101.957 26.94-140.762h3.47c4.05 27.805 13.04 74.426 26.94 139.887l49.53 224.188h119.04l-138.16-492.676V155.938H1290.7v236.359M2235.3 688.578V155.941h-93.85l-10.42 65.168h-2.61c-25.5-49.242-63.73-73.851-114.69-73.851-35.35 0-61.41 11.578-78.21 34.75-16.8 23.164-25.19 59.371-25.19 108.613v397.957h119.9V297.57c0-23.757 2.61-40.699 7.82-50.828 5.22-10.144 13.91-15.207 26.07-15.207 10.43 0 20.42 3.18 29.98 9.559 9.56 6.375 16.65 14.472 21.29 24.332v423.152h119.91M2850.36 688.578V155.941h-93.85l-10.43 65.168h-2.6c-25.5-49.242-63.73-73.851-114.7-73.851-35.34 0-61.4 11.578-78.2 34.75-16.81 23.164-25.19 59.371-25.19 108.613v397.957h119.9V297.57c0-23.757 2.61-40.699 7.82-50.828 5.21-10.144 13.9-15.207 26.07-15.207 10.43 0 20.42 3.18 29.97 9.559 9.57 6.375 16.66 14.472 21.3 24.332v423.152h119.91" style="fill:#232325;fill-opacity:1;fill-rule:nonzero;stroke:none" transform="matrix(.13333 0 0 -.13333 0 140.76)"/><path d="M2561.13 788.508h-119.04V155.941h-117.3v632.567h-119.04v96.449h355.38v-96.449M3137.29 386.172c0-38.813-1.6-69.227-4.78-91.231-3.19-22.027-8.55-37.664-16.07-46.921-7.54-9.278-17.68-13.903-30.41-13.903-9.86 0-18.98 2.305-27.37 6.953-8.4 4.629-15.21 11.578-20.42 20.852v302.379c4.04 14.469 10.99 26.347 20.86 35.625 9.83 9.258 20.54 13.902 32.14 13.902 12.16 0 21.58-4.777 28.24-14.336 6.65-9.558 11.3-25.633 13.9-48.226 2.61-22.594 3.91-54.743 3.91-96.446zm109.92 217.266c-7.25 33.585-18.98 57.914-35.19 72.984-16.22 15.055-38.53 22.586-66.91 22.586-22.02 0-42.58-6.231-61.69-18.676-19.12-12.461-33.88-28.828-44.31-49.098h-.88l.01 280.661h-115.57V155.949h99.05l12.17 50.395h2.61c9.26-17.965 23.16-32.149 41.71-42.578 18.52-10.426 39.1-15.633 61.69-15.633 40.53 0 70.38 18.676 89.5 56.039 19.11 37.363 28.67 95.715 28.67 175.082v84.285c0 59.656-3.62 106.289-10.86 139.899" style="fill:#232325;fill-opacity:1;fill-rule:nonzero;stroke:none" transform="matrix(.13333 0 0 -.13333 0 140.76)"/><path d="M527.855 0c291.532 0 527.855 236.328 527.855 527.855 0 291.528-236.323 527.855-527.855 527.855C236.328 1055.71 0 819.383 0 527.855 0 236.328 236.328 0 527.855 0" style="fill:#e22224;fill-opacity:1;fill-rule:nonzero;stroke:none" transform="matrix(.13333 0 0 -.13333 0 140.76)"/><path d="M527.855 848.43c-177.031 0-320.574-143.547-320.574-320.575 0-177.031 143.543-320.574 320.574-320.574 177.028 0 320.575 143.543 320.575 320.574 0 177.028-143.547 320.575-320.575 320.575zm0-42.61c153.278 0 277.965-124.683 277.965-277.965 0-153.281-124.687-277.968-277.965-277.968-153.285 0-277.968 124.687-277.968 277.968 0 153.282 124.683 277.965 277.968 277.965" style="fill:#fff;fill-opacity:1;fill-rule:nonzero;stroke:none" transform="matrix(.13333 0 0 -.13333 0 140.76)"/><path d="m425.883 371.895 269.922 155.96-269.922 155.958Z" style="fill:#fff;fill-opacity:1;fill-rule:nonzero;stroke:none" transform="matrix(.13333 0 0 -.13333 0 140.76)"/></svg>