<svg viewBox="0 0 756.77332 140.75999" xmlns="http://www.w3.org/2000/svg" xml:space="preserve" width="756.77332" height="140.75999"><path d="M4110.78 615.551c-21.72-110.336-38.23-244.996-46.91-300.59h-6.09c-6.95 57.332-23.45 191.129-46.04 299.723l-55.6 270.183h-169.41v-728.89h105.12v600.828l10.42-56.117 106.86-544.711h105.13l105.11 544.711 11.28 56.441V395.938l.01-239.961h105.12v728.89h-171.14l-53.86-269.316M4619.88 265.438c-9.56-19.981-30.4-33.875-51.26-33.875-24.31 0-33.87 19.109-33.87 66.023v390.937h-119.9v-397.89c0-98.164 32.15-143.34 103.39-143.34 48.64 0 87.75 21.719 114.68 73.84h2.6l10.43-65.156h93.82v532.546h-119.89V265.438M4971.74 478.285c-39.1 28.668-63.42 47.781-63.42 89.485 0 29.535 13.9 46.043 46.91 46.043 33.88 0 45.18-23.458 46.05-103.383l100.77 4.343c7.81 129.446-34.76 183.313-145.08 183.313-102.52 0-152.91-46.051-152.91-140.742 0-86.008 41.71-125.106 109.47-176.36 58.21-45.175 92.09-70.371 92.09-106.855 0-27.801-17.38-46.914-47.79-46.914-35.61 0-56.46 33.879-51.25 92.949l-101.64-1.726c-15.64-110.333 28.66-174.622 146.82-174.622 103.38 0 157.24 47.774 157.24 143.34 0 86.875-43.43 121.625-137.26 191.129M5175.04 155.977h114.68v532.546h-114.68V155.977M5233.24 898.77c-44.31 0-65.14-16.508-65.14-73.848 0-59.078 20.83-73.844 65.14-73.844 45.18 0 65.16 14.766 65.16 73.844 0 54.734-19.98 73.848-65.16 73.848M5675.45 347.969l-105.13 5.215c0-93.829-10.42-124.231-46.04-124.231s-41.7 33.879-41.7 144.211v103.383c0 106.859 6.95 140.742 42.57 140.742 33.01 0 41.7-32.144 41.7-131.187l104.25 6.953c6.95 82.535-3.47 139.004-35.62 171.148-23.46 23.457-59.07 34.746-108.6 34.746-116.41 0-164.2-62.551-164.2-238.039v-74.711c0-180.711 40.84-238.906 159.86-238.906 50.39 0 85.14 10.422 108.59 33.008 33.89 31.281 46.92 85.137 44.32 167.668M1717.37 254.988c6.65 17.383 9.99 45.754 9.99 85.157v165.96c0 38.231-3.34 66.172-9.99 83.848-6.67 17.668-18.4 26.508-35.19 26.508-16.23 0-27.67-8.84-34.32-26.508-6.67-17.676-9.99-45.617-9.99-83.848v-165.96c0-39.403 3.17-67.774 9.55-85.157 6.37-17.371 17.95-26.062 34.76-26.062 16.79 0 28.52 8.691 35.19 26.062zm-134.68-83.406c-24.05 16.199-41.14 41.406-51.26 75.586-10.15 34.18-15.21 79.648-15.21 136.426v77.328c0 57.348 5.78 103.402 17.37 138.16 11.59 34.75 29.68 60.086 54.31 76.023 24.61 15.922 56.91 23.891 96.88 23.891 39.39 0 70.96-8.113 94.72-24.324 23.74-16.223 41.11-41.57 52.13-76.027 11-34.469 16.51-80.375 16.51-137.723v-77.328c0-56.778-5.36-102.403-16.08-136.856-10.72-34.472-28.1-59.668-52.13-75.597-24.05-15.926-56.63-23.895-97.75-23.895-42.29 0-75.46 8.113-99.49 24.336M3443.39 606.504c-6.08-7.535-10.14-19.844-12.16-36.93-2.04-17.094-3.04-43.008-3.04-77.769v-38.231h87.76v38.231c0 34.175-1.17 60.093-3.47 77.769-2.32 17.664-6.51 30.114-12.61 37.364-6.08 7.238-15.5 10.863-28.24 10.863-12.74 0-22.15-3.778-28.24-11.297zm-15.2-224.18v-26.933c0-34.192 1-59.825 3.04-76.907 2.02-17.089 6.21-29.539 12.61-37.363 6.36-7.82 16.2-11.726 29.53-11.726 17.95 0 30.26 6.953 36.93 20.847 6.65 13.906 10.28 37.071 10.86 69.524l103.4-6.086c.58-4.649.87-11.016.87-19.121 0-49.239-13.47-86.016-40.4-110.352-26.94-24.324-65.03-36.492-114.27-36.492-59.08 0-100.51 18.535-124.26 55.613-23.75 37.063-35.62 94.406-35.62 172.043v92.977c0 79.937 12.31 138.293 36.93 175.086 24.62 36.781 66.77 55.179 126.43 55.179 41.13 0 72.69-7.539 94.71-22.597 22.01-15.071 37.5-38.528 46.49-70.375 8.97-31.868 13.48-75.903 13.48-132.082v-91.235h-200.73M1290.7 392.301l-136.42 492.668h119.04l47.79-223.309c12.17-55.039 21.14-101.961 26.94-140.762h3.47c4.05 27.805 13.03 74.426 26.94 139.891l49.53 224.18h119.04l-138.16-492.668V155.938H1290.7v236.363M2235.3 688.578V155.945h-93.85l-10.43 65.168h-2.59c-25.51-49.25-63.74-73.859-114.71-73.859-35.33 0-61.41 11.582-78.19 34.758-16.81 23.164-25.21 59.363-25.21 108.613v397.953h119.91V297.566c0-23.75 2.61-40.691 7.83-50.828 5.21-10.136 13.89-15.207 26.06-15.207 10.43 0 20.42 3.184 29.98 9.563 9.56 6.367 16.64 14.472 21.29 24.336v423.148h119.91M2850.36 688.578V155.945h-93.85l-10.43 65.168h-2.59c-25.51-49.25-63.74-73.859-114.71-73.859-35.33 0-61.41 11.582-78.19 34.758-16.81 23.164-25.21 59.363-25.21 108.613v397.953h119.91V297.566c0-23.75 2.61-40.691 7.82-50.828 5.22-10.136 13.9-15.207 26.07-15.207 10.43 0 20.42 3.184 29.98 9.563 9.56 6.367 16.64 14.472 21.29 24.336v423.148h119.91" style="fill:#fff;fill-opacity:1;fill-rule:nonzero;stroke:none" transform="matrix(.13333 0 0 -.13333 0 140.76)"/><path d="M2561.13 788.504h-119.04V155.945h-117.3v632.559h-119.04v96.449h355.38v-96.449M3137.29 386.176c0-38.824-1.6-69.235-4.78-91.235-3.18-22.023-8.55-37.668-16.08-46.925-7.52-9.278-17.67-13.907-30.41-13.907-9.85 0-18.97 2.317-27.36 6.954-8.41 4.64-15.2 11.582-20.42 20.859v302.379c4.04 14.469 11 26.351 20.85 35.625 9.84 9.258 20.56 13.902 32.15 13.902 12.17 0 21.57-4.781 28.24-14.336 6.65-9.554 11.29-25.637 13.9-48.226 2.61-22.59 3.91-54.739 3.91-96.45zm109.93 217.262c-7.26 33.582-18.99 57.914-35.2 72.984-16.22 15.058-38.53 22.59-66.9 22.59-22.03 0-42.58-6.231-61.7-18.68-19.11-12.461-33.89-28.824-44.31-49.098h-.89l.02 280.664h-115.57V155.945h99.06l12.17 50.403h2.6c9.26-17.969 23.16-32.149 41.7-42.578 18.54-10.43 39.1-15.645 61.7-15.645 40.54 0 70.38 18.68 89.49 56.043 19.12 37.363 28.69 95.715 28.69 175.09v84.281c0 59.652-3.64 106.289-10.86 139.899" style="fill:#fff;fill-opacity:1;fill-rule:nonzero;stroke:none" transform="matrix(.13333 0 0 -.13333 0 140.76)"/><path d="M527.855 0c291.528 0 527.855 236.328 527.855 527.855 0 291.528-236.327 527.855-527.855 527.855C236.328 1055.71 0 819.383 0 527.855 0 236.328 236.328 0 527.855 0" style="fill:#ed1d24;fill-opacity:1;fill-rule:nonzero;stroke:none" transform="matrix(.13333 0 0 -.13333 0 140.76)"/><path d="M527.855 848.426c-177.031 0-320.578-143.539-320.578-320.571 0-177.027 143.547-320.57 320.578-320.57 177.028 0 320.571 143.543 320.571 320.57 0 177.032-143.543 320.571-320.571 320.571zm0-42.606c153.278 0 277.965-124.683 277.965-277.965 0-153.277-124.687-277.964-277.965-277.964-153.281 0-277.968 124.687-277.968 277.964 0 153.282 124.687 277.965 277.968 277.965" style="fill:#fff;fill-opacity:1;fill-rule:nonzero;stroke:none" transform="matrix(.13333 0 0 -.13333 0 140.76)"/><path d="m425.883 371.895 269.922 155.96-269.922 155.958Z" style="fill:#fff;fill-opacity:1;fill-rule:nonzero;stroke:none" transform="matrix(.13333 0 0 -.13333 0 140.76)"/></svg>