<svg xmlns="http://www.w3.org/2000/svg" fill="none" viewBox="0 0 512 512"><path fill="#00002D" d="M458.634 53.496C410.33 5.378 340.875 0 256 0 171.018 0 101.458 5.44 53.174 53.688 4.897 101.916 0 171.364 0 256.249c0 84.899 4.897 154.368 53.194 202.613 48.281 48.255 117.833 53.139 202.806 53.139 84.974 0 154.514-4.884 202.795-53.139C507.089 410.608 512 341.148 512 256.249c0-84.994-4.964-154.517-53.366-202.753Z"/><g filter="url(#a)"><path fill="url(#b)" d="M88 255.484c.284-92.783 75.395-167.768 167.764-167.483 13.252.04 26.143 1.63 38.504 4.596a4.093 4.093 0 0 1 3.131 3.946 4.095 4.095 0 0 1-3.054 4.006c-55.142 14.381-95.927 64.639-96.11 124.543-.218 71.285 57.135 129.251 128.102 129.47 24.722.076 47.824-6.862 67.452-18.948a4.067 4.067 0 0 1 4.991.571 4.111 4.111 0 0 1 .655 5.003c-29.168 49.707-83.092 83.001-144.698 82.811-92.37-.285-167.02-75.732-166.736-168.515Z"/><path fill="url(#c)" d="M372.255 264.183c2.497-9.398 3.745-16.676 3.745-21.833 0-1.376-1.685-2.98-5.056-4.814-3.246-1.834-5.431-2.751-6.555-2.751-.998 0-1.498.115-1.498.344-1.123 2.98-3.433 6.934-6.928 11.862-3.496 4.929-6.243 8.195-8.24 9.8-3.246 1.834-10.113 2.751-20.599 2.751-10.362 0-15.543-.402-15.543-1.204 0-2.521 8.052-14.269 24.157-35.243 16.23-20.975 28.215-35.473 35.955-43.496.999-.917 1.498-1.547 1.498-1.891 0-3.439-.687-6.533-2.06-9.284-1.248-2.751-2.372-4.527-3.371-5.329-2.247-.688-10.362-1.032-24.344-1.032-13.858 0-26.405.745-37.641 2.235-.249 0-2.184-.688-5.805-2.063-3.62-1.49-7.178-2.235-10.674-2.235-.499 0-1.561 2.178-3.184 6.533-1.498 4.355-2.933 9.284-4.307 14.785-1.248 5.501-1.872 9.628-1.872 12.378 0 .917 1.56 2.235 4.681 3.954 3.246 1.72 5.743 2.579 7.491 2.579l2.434-3.782c4.994-8.023 8.365-12.321 10.113-12.894 3.745-1.719 10.237-2.579 19.475-2.579 9.364 0 14.045.344 14.045 1.032 0 1.26-4.619 7.622-13.857 19.083a17141.507 17141.507 0 0 0-29.588 36.447c-10.362 12.951-16.542 21.375-18.54 25.272-.125.458-.187 1.662-.187 3.61 0 1.949.687 4.528 2.06 7.737 1.498 3.209 2.871 4.813 4.12 4.813l58.614-1.547c4.12 0 6.679.058 7.678.172l2.809.688c5.868 1.146 10.175 1.719 12.921 1.719 1.374 0 2.247-.172 2.622-.516 1.124-.917 2.934-6.017 5.431-15.301Z"/></g><defs><linearGradient id="b" x1="244" x2="244" y1="88" y2="424" gradientUnits="userSpaceOnUse"><stop stop-color="#3989FF"/><stop offset="1" stop-color="#0068FF"/></linearGradient><linearGradient id="c" x1="244" x2="244" y1="88" y2="424" gradientUnits="userSpaceOnUse"><stop stop-color="#3989FF"/><stop offset="1" stop-color="#0068FF"/></linearGradient><filter id="a" width="328" height="352" x="80" y="88" color-interpolation-filters="sRGB" filterUnits="userSpaceOnUse"><feFlood flood-opacity="0" result="BackgroundImageFix"/><feColorMatrix in="SourceAlpha" result="hardAlpha" values="0 0 0 0 0 0 0 0 0 0 0 0 0 0 0 0 0 0 127 0"/><feOffset dy="8"/><feGaussianBlur stdDeviation="4"/><feComposite in2="hardAlpha" operator="out"/><feColorMatrix values="0 0 0 0 0 0 0 0 0 0 0 0 0 0 0 0 0 0 1 0"/><feBlend in2="BackgroundImageFix" result="effect1_dropShadow_1020_1339"/><feBlend in="SourceGraphic" in2="effect1_dropShadow_1020_1339" result="shape"/></filter></defs></svg>