<?xml version="1.0" encoding="UTF-8"?><svg id="_圖層_2" xmlns="http://www.w3.org/2000/svg" viewBox="0 0 562.6 106.85"><g id="_圖層_1-2"><g><g><polygon points="50.21 69.76 129.24 69.76 129.24 106.85 0 106.85 0 69.76 36.33 69.76 86.35 42.96 0 42.96 0 5.87 129.24 5.87 129.24 42.96 50.21 69.76"/><rect y="5.87" width="85.92" height="37.09" style="fill:#6300ff;"/><rect x="50.61" y="69.76" width="78.62" height="37.09" style="fill:#f40;"/></g><g><path d="M168.15,96.72v-14.45l26.26-30.15c4.31-4.93,7.5-8.42,9.57-10.49-2.16,.13-4.99,.22-8.51,.26l-24.74,.13v-15.37h57.93v13.13l-26.79,30.88-9.43,10.23c5.15-.31,8.33-.46,9.57-.46h28.7v16.3h-62.54Z"/><path d="M275.64,74.42l18.47,3.1c-2.38,6.77-6.12,11.93-11.25,15.47-5.12,3.54-11.54,5.31-19.23,5.31-12.18,0-21.2-3.98-27.05-11.94-4.62-6.38-6.93-14.43-6.93-24.15,0-11.61,3.03-20.71,9.1-27.28,6.07-6.57,13.74-9.86,23.03-9.86,10.42,0,18.65,3.44,24.68,10.33,6.03,6.88,8.91,17.43,8.64,31.64h-46.45c.13,5.5,1.63,9.78,4.49,12.83,2.86,3.06,6.42,4.59,10.69,4.59,2.9,0,5.34-.79,7.32-2.38,1.98-1.58,3.47-4.13,4.49-7.65Zm1.06-18.74c-.13-5.37-1.52-9.45-4.16-12.24-2.64-2.79-5.85-4.19-9.63-4.19-4.05,0-7.39,1.47-10.03,4.42-2.64,2.95-3.94,6.95-3.89,12.01h27.71Z"/><path d="M315.96,48.03l-16.82-3.04c1.89-6.77,5.15-11.79,9.76-15.04,4.62-3.25,11.48-4.88,20.58-4.88,8.27,0,14.43,.98,18.47,2.94,4.05,1.96,6.89,4.44,8.54,7.46,1.65,3.01,2.47,8.54,2.47,16.59l-.2,21.64c0,6.16,.3,10.7,.89,13.62,.59,2.93,1.7,6.06,3.33,9.4h-18.34c-.48-1.23-1.08-3.06-1.78-5.48-.31-1.1-.53-1.82-.66-2.18-3.17,3.08-6.55,5.39-10.16,6.93-3.61,1.54-7.46,2.31-11.55,2.31-7.21,0-12.9-1.96-17.05-5.87-4.16-3.91-6.23-8.86-6.23-14.84,0-3.96,.95-7.49,2.84-10.59,1.89-3.1,4.54-5.48,7.95-7.12,3.41-1.65,8.32-3.09,14.75-4.32,8.66-1.63,14.67-3.14,18.01-4.55v-1.85c0-3.56-.88-6.1-2.64-7.62-1.76-1.52-5.08-2.28-9.96-2.28-3.3,0-5.87,.65-7.72,1.95-1.85,1.3-3.34,3.57-4.49,6.83Zm24.81,15.04c-2.38,.79-6.14,1.74-11.28,2.84s-8.51,2.18-10.09,3.23c-2.42,1.71-3.63,3.89-3.63,6.53s.97,4.84,2.9,6.73c1.94,1.89,4.4,2.84,7.39,2.84,3.34,0,6.53-1.1,9.57-3.3,2.24-1.67,3.72-3.72,4.42-6.14,.48-1.58,.73-4.59,.73-9.04v-3.7Z"/><path d="M368.35,96.72V0h18.54V34.83c5.72-6.51,12.49-9.76,20.32-9.76,8.53,0,15.59,3.09,21.18,9.27,5.59,6.18,8.38,15.05,8.38,26.62s-2.85,21.18-8.54,27.64c-5.7,6.46-12.61,9.7-20.75,9.7-4,0-7.95-1-11.84-3s-7.25-4.96-10.06-8.87v10.29h-17.22Zm18.41-36.55c0,7.26,1.14,12.62,3.43,16.1,3.21,4.93,7.48,7.39,12.8,7.39,4.09,0,7.58-1.75,10.46-5.25,2.88-3.5,4.32-9.01,4.32-16.53,0-8-1.45-13.78-4.35-17.32-2.9-3.54-6.62-5.31-11.15-5.31s-8.14,1.73-11.08,5.18c-2.95,3.45-4.42,8.7-4.42,15.74Z"/><path d="M489.69,96.72v-10.49c-2.55,3.74-5.9,6.69-10.06,8.84-4.16,2.16-8.54,3.23-13.16,3.23s-8.93-1.03-12.67-3.1c-3.74-2.07-6.44-4.97-8.12-8.71-1.67-3.74-2.51-8.91-2.51-15.5V26.65h18.54V58.85c0,9.85,.34,15.89,1.02,18.11,.68,2.22,1.92,3.98,3.73,5.28,1.8,1.3,4.09,1.95,6.86,1.95,3.17,0,6-.87,8.51-2.61,2.51-1.74,4.22-3.89,5.15-6.46,.92-2.57,1.39-8.87,1.39-18.9V26.65h18.54V96.72h-17.22Z"/><path d="M535.75,96.72h-18.54V26.65h17.22v9.96c2.95-4.71,5.6-7.81,7.95-9.3,2.35-1.5,5.02-2.24,8.02-2.24,4.22,0,8.29,1.17,12.21,3.5l-5.74,16.16c-3.12-2.02-6.03-3.04-8.71-3.04s-4.79,.72-6.6,2.14c-1.8,1.43-3.22,4.01-4.26,7.75-1.03,3.74-1.55,11.57-1.55,23.49v21.64Z"/></g></g></g></svg>