<svg width="563" height="107" viewBox="0 0 563 107" fill="none" xmlns="http://www.w3.org/2000/svg">
<path d="M50.21 69.76H129.24V106.85H0V69.76H36.33L86.35 42.96H0V5.87H129.24V42.96L50.21 69.76Z" fill="white"/>
<path d="M85.92 5.87H0V42.96H85.92V5.87Z" fill="#6300FF"/>
<path d="M129.23 69.76H50.61V106.85H129.23V69.76Z" fill="#FF4400"/>
<path d="M168.15 96.72V82.27L194.41 52.12C198.72 47.19 201.91 43.7 203.98 41.63C201.82 41.76 198.99 41.85 195.47 41.89L170.73 42.02V26.65H228.66V39.78L201.87 70.66L192.44 80.89C197.59 80.58 200.77 80.43 202.01 80.43H230.71V96.73H168.17L168.15 96.72Z" fill="white"/>
<path d="M275.64 74.42L294.11 77.52C291.73 84.29 287.99 89.45 282.86 92.99C277.74 96.53 271.32 98.3 263.63 98.3C251.45 98.3 242.43 94.32 236.58 86.36C231.96 79.98 229.65 71.93 229.65 62.21C229.65 50.6 232.68 41.5 238.75 34.93C244.82 28.36 252.49 25.07 261.78 25.07C272.2 25.07 280.43 28.51 286.46 35.4C292.49 42.28 295.37 52.83 295.1 67.04H248.65C248.78 72.54 250.28 76.82 253.14 79.87C256 82.93 259.56 84.46 263.83 84.46C266.73 84.46 269.17 83.67 271.15 82.08C273.13 80.5 274.62 77.95 275.64 74.43V74.42ZM276.7 55.68C276.57 50.31 275.18 46.23 272.54 43.44C269.9 40.65 266.69 39.25 262.91 39.25C258.86 39.25 255.52 40.72 252.88 43.67C250.24 46.62 248.94 50.62 248.99 55.68H276.7Z" fill="white"/>
<path d="M315.96 48.03L299.14 44.99C301.03 38.22 304.29 33.2 308.9 29.95C313.52 26.7 320.38 25.07 329.48 25.07C337.75 25.07 343.91 26.05 347.95 28.01C352 29.97 354.84 32.45 356.49 35.47C358.14 38.48 358.96 44.01 358.96 52.06L358.76 73.7C358.76 79.86 359.06 84.4 359.65 87.32C360.24 90.25 361.35 93.38 362.98 96.72H344.64C344.16 95.49 343.56 93.66 342.86 91.24C342.55 90.14 342.33 89.42 342.2 89.06C339.03 92.14 335.65 94.45 332.04 95.99C328.43 97.53 324.58 98.3 320.49 98.3C313.28 98.3 307.59 96.34 303.44 92.43C299.28 88.52 297.21 83.57 297.21 77.59C297.21 73.63 298.16 70.1 300.05 67C301.94 63.9 304.59 61.52 308 59.88C311.41 58.23 316.32 56.79 322.75 55.56C331.41 53.93 337.42 52.42 340.76 51.01V49.16C340.76 45.6 339.88 43.06 338.12 41.54C336.36 40.02 333.04 39.26 328.16 39.26C324.86 39.26 322.29 39.91 320.44 41.21C318.59 42.51 317.1 44.78 315.95 48.04L315.96 48.03ZM340.77 63.07C338.39 63.86 334.63 64.81 329.49 65.91C324.35 67.01 320.98 68.09 319.4 69.14C316.98 70.85 315.77 73.03 315.77 75.67C315.77 78.31 316.74 80.51 318.67 82.4C320.61 84.29 323.07 85.24 326.06 85.24C329.4 85.24 332.59 84.14 335.63 81.94C337.87 80.27 339.35 78.22 340.05 75.8C340.53 74.22 340.78 71.21 340.78 66.76V63.06L340.77 63.07Z" fill="white"/>
<path d="M368.35 96.72V0H386.89V34.83C392.61 28.32 399.38 25.07 407.21 25.07C415.74 25.07 422.8 28.16 428.39 34.34C433.98 40.52 436.77 49.39 436.77 60.96C436.77 72.53 433.92 82.14 428.23 88.6C422.53 95.06 415.62 98.3 407.48 98.3C403.48 98.3 399.53 97.3 395.64 95.3C391.75 93.3 388.39 90.34 385.58 86.43V96.72H368.36H368.35ZM386.76 60.17C386.76 67.43 387.9 72.79 390.19 76.27C393.4 81.2 397.67 83.66 402.99 83.66C407.08 83.66 410.57 81.91 413.45 78.41C416.33 74.91 417.77 69.4 417.77 61.88C417.77 53.88 416.32 48.1 413.42 44.56C410.52 41.02 406.8 39.25 402.27 39.25C397.74 39.25 394.13 40.98 391.19 44.43C388.24 47.88 386.77 53.13 386.77 60.17H386.76Z" fill="white"/>
<path d="M489.69 96.72V86.23C487.14 89.97 483.79 92.92 479.63 95.07C475.47 97.23 471.09 98.3 466.47 98.3C461.85 98.3 457.54 97.27 453.8 95.2C450.06 93.13 447.36 90.23 445.68 86.49C444.01 82.75 443.17 77.58 443.17 70.99V26.65H461.71V58.85C461.71 68.7 462.05 74.74 462.73 76.96C463.41 79.18 464.65 80.94 466.46 82.24C468.26 83.54 470.55 84.19 473.32 84.19C476.49 84.19 479.32 83.32 481.83 81.58C484.34 79.84 486.05 77.69 486.98 75.12C487.9 72.55 488.37 66.25 488.37 56.22V26.65H506.91V96.72H489.69V96.72Z" fill="white"/>
<path d="M535.75 96.72H517.21V26.65H534.43V36.61C537.38 31.9 540.03 28.8 542.38 27.31C544.73 25.81 547.4 25.07 550.4 25.07C554.62 25.07 558.69 26.24 562.61 28.57L556.87 44.73C553.75 42.71 550.84 41.69 548.16 41.69C545.48 41.69 543.37 42.41 541.56 43.83C539.76 45.26 538.34 47.84 537.3 51.58C536.27 55.32 535.75 63.15 535.75 75.07V96.71V96.72Z" fill="white"/>
</svg>
