<svg viewBox="0 0 281 64" xmlns="http://www.w3.org/2000/svg" width="281" height="64" fill="none"><path fill="#202020" fill-rule="evenodd" d="M32 44.308c6.797 0 12.308-5.51 12.308-12.308 0-6.797-5.51-12.308-12.308-12.308-6.797 0-12.308 5.51-12.308 12.308 0 6.797 5.51 12.308 12.308 12.308ZM41.846 32c0 5.438-4.408 9.846-9.846 9.846S22.154 37.438 22.154 32s4.408-9.846 9.846-9.846 9.846 4.408 9.846 9.846Z" clip-rule="evenodd"/><path fill="#202020" fill-rule="evenodd" d="M53.333 32c0 11.782-9.55 21.333-21.333 21.333-11.782 0-21.333-9.55-21.333-21.333 0-11.782 9.55-21.333 21.333-21.333 11.782 0 21.333 9.55 21.333 21.333ZM32 49.23c9.516 0 17.23-7.714 17.23-17.23S41.517 14.77 32 14.77 14.77 22.483 14.77 32 22.483 49.23 32 49.23Z" clip-rule="evenodd"/><path fill="#202020" fill-rule="evenodd" d="M64 32c0 17.673-14.327 32-32 32C14.327 64 0 49.673 0 32 0 14.327 14.327 0 32 0c17.673 0 32 14.327 32 32ZM32 58.256c14.501 0 26.256-11.755 26.256-26.256S46.501 5.744 32 5.744 5.744 17.499 5.744 32 17.499 58.256 32 58.256Z" clip-rule="evenodd"/><path fill="#202020" d="M267.981 44V25.208h3.924l-.18 7.02h.576c.168-1.728.48-3.144.936-4.248.456-1.104 1.068-1.92 1.836-2.448s1.704-.792 2.808-.792a4 4 0 0 1 .9.108c.336.048.684.132 1.044.252l-.216 4.896a4.302 4.302 0 0 0-1.224-.396 5.04 5.04 0 0 0-1.152-.144c-.912 0-1.692.264-2.34.792-.648.504-1.176 1.236-1.584 2.196-.384.96-.636 2.112-.756 3.456V44h-4.572ZM257.521 44.468c-1.56 0-2.928-.216-4.104-.648-1.176-.456-2.16-1.104-2.952-1.944-.792-.84-1.392-1.848-1.8-3.024-.408-1.176-.612-2.484-.612-3.924s.192-2.784.576-4.032c.408-1.248.996-2.328 1.764-3.24a7.673 7.673 0 0 1 2.844-2.16c1.152-.528 2.46-.792 3.924-.792 1.416 0 2.664.24 3.744.72a6.708 6.708 0 0 1 2.7 2.052c.72.912 1.236 2.028 1.548 3.348.336 1.296.444 2.772.324 4.428l-14.508.18v-2.664l11.556-.144-1.26 1.512c.12-1.296.012-2.364-.324-3.204-.312-.864-.792-1.512-1.44-1.944-.648-.432-1.416-.648-2.304-.648-1.008 0-1.872.264-2.592.792-.696.504-1.236 1.236-1.62 2.196-.36.96-.54 2.112-.54 3.456 0 2.112.444 3.684 1.332 4.716.888 1.032 2.148 1.548 3.78 1.548.72 0 1.32-.096 1.8-.288.504-.216.912-.48 1.224-.792.336-.336.588-.708.756-1.116.192-.408.312-.828.36-1.26l4.068.648a7.87 7.87 0 0 1-.756 2.484 6.558 6.558 0 0 1-1.584 1.98c-.672.552-1.5.984-2.484 1.296-.96.312-2.1.468-3.42.468ZM238.431 44.468c-1.272 0-2.424-.132-3.456-.396-1.008-.24-1.884-.6-2.628-1.08a5.356 5.356 0 0 1-1.728-1.872c-.408-.768-.636-1.644-.684-2.628l3.744-.972c.024.72.24 1.356.648 1.908.408.528.972.936 1.692 1.224.744.288 1.632.432 2.664.432 1.152 0 2.052-.18 2.7-.54.672-.384 1.008-.924 1.008-1.62 0-.528-.18-.936-.54-1.224-.336-.288-.84-.528-1.512-.72a22.656 22.656 0 0 0-2.448-.612 47.956 47.956 0 0 1-2.808-.72c-.912-.264-1.74-.6-2.484-1.008a4.873 4.873 0 0 1-1.728-1.62c-.432-.672-.648-1.512-.648-2.52 0-1.176.312-2.196.936-3.06.624-.864 1.512-1.536 2.664-2.016 1.176-.48 2.58-.72 4.212-.72 1.512 0 2.844.228 3.996.684 1.176.432 2.112 1.092 2.808 1.98.72.864 1.116 1.932 1.188 3.204l-3.816.936c-.024-.744-.216-1.356-.576-1.836-.36-.504-.864-.888-1.512-1.152-.624-.264-1.356-.396-2.196-.396-1.08 0-1.932.204-2.556.612-.6.384-.9.9-.9 1.548 0 .528.192.948.576 1.26.384.312.924.564 1.62.756.696.192 1.512.384 2.448.576.912.192 1.812.408 2.7.648.888.24 1.692.564 2.412.972a4.79 4.79 0 0 1 1.764 1.62c.432.672.648 1.536.648 2.592 0 1.2-.324 2.244-.972 3.132-.648.864-1.584 1.524-2.808 1.98-1.224.432-2.7.648-4.428.648ZM205.73 44l-4.824-18.792h4.788l2.988 15.048h.504l3.348-15.048h5.4l3.348 15.048h.468l3.06-15.048h4.608L224.63 44h-6.228l-3.06-14.652h-.432L211.886 44h-6.156ZM191.184 44.468c-1.824 0-3.444-.372-4.86-1.116-1.392-.744-2.496-1.848-3.312-3.312-.792-1.488-1.188-3.312-1.188-5.472 0-2.232.408-4.068 1.224-5.508.816-1.464 1.92-2.556 3.312-3.276 1.416-.72 3.012-1.08 4.788-1.08 1.824 0 3.432.372 4.824 1.116 1.416.744 2.52 1.848 3.312 3.312.816 1.464 1.224 3.3 1.224 5.508 0 2.232-.408 4.08-1.224 5.544-.816 1.44-1.932 2.52-3.348 3.24-1.416.696-3 1.044-4.752 1.044Zm.108-3.456c.624 0 1.212-.108 1.764-.324.576-.24 1.068-.6 1.476-1.08.432-.48.768-1.116 1.008-1.908.24-.792.36-1.74.36-2.844 0-1.152-.132-2.136-.396-2.952-.264-.84-.624-1.524-1.08-2.052a3.807 3.807 0 0 0-1.548-1.152c-.576-.24-1.2-.36-1.872-.36-.6 0-1.176.12-1.728.36a3.877 3.877 0 0 0-1.476 1.044c-.432.48-.768 1.116-1.008 1.908-.24.792-.36 1.74-.36 2.844 0 1.152.12 2.148.36 2.988.264.816.624 1.488 1.08 2.016.456.504.972.888 1.548 1.152.576.24 1.2.36 1.872.36ZM169.53 44V25.208h3.924l-.18 7.02h.576c.168-1.728.48-3.144.936-4.248.456-1.104 1.068-1.92 1.836-2.448s1.704-.792 2.808-.792a4 4 0 0 1 .9.108c.336.048.684.132 1.044.252l-.216 4.896a4.302 4.302 0 0 0-1.224-.396 5.04 5.04 0 0 0-1.152-.144c-.912 0-1.692.264-2.34.792-.648.504-1.176 1.236-1.584 2.196-.384.96-.636 2.112-.756 3.456V44h-4.572ZM159.575 44.468c-1.176 0-2.196-.24-3.06-.72-.864-.48-1.572-1.164-2.124-2.052-.528-.912-.912-2.016-1.152-3.312h-.54l.108 5.616h-3.924V18.692h4.572v5.76c0 .624-.036 1.296-.108 2.016a42.748 42.748 0 0 1-.288 2.196 51.173 51.173 0 0 1-.36 2.34h.576c.288-1.296.696-2.412 1.224-3.348.528-.936 1.224-1.656 2.088-2.16.864-.504 1.896-.756 3.096-.756 1.512 0 2.82.396 3.924 1.188 1.128.792 1.992 1.92 2.592 3.384.624 1.464.936 3.228.936 5.292 0 2.088-.312 3.864-.936 5.328-.624 1.464-1.5 2.592-2.628 3.384-1.128.768-2.46 1.152-3.996 1.152Zm-1.44-3.744c.888 0 1.644-.252 2.268-.756.648-.504 1.14-1.212 1.476-2.124.36-.912.54-1.968.54-3.168 0-1.2-.168-2.256-.504-3.168-.336-.936-.816-1.668-1.44-2.196-.624-.528-1.392-.792-2.304-.792-.624 0-1.188.12-1.692.36s-.948.564-1.332.972c-.36.408-.672.876-.936 1.404a7.462 7.462 0 0 0-.612 1.584 7.127 7.127 0 0 0-.18 1.584v.468c0 .672.096 1.356.288 2.052.216.672.516 1.296.9 1.872a5.13 5.13 0 0 0 1.476 1.404c.6.336 1.284.504 2.052.504ZM121.547 44V25.208h3.888l-.18 6.624h.54c.264-1.728.684-3.108 1.26-4.14.6-1.056 1.344-1.812 2.232-2.268.888-.48 1.92-.72 3.096-.72 1.08 0 1.992.192 2.736.576.744.36 1.356.864 1.836 1.512.48.624.852 1.332 1.116 2.124.288.792.48 1.62.576 2.484.096.864.144 1.704.144 2.52V44h-4.536v-9.54c0-.504-.036-1.08-.108-1.728a7.564 7.564 0 0 0-.396-1.944 3.624 3.624 0 0 0-1.008-1.548c-.456-.408-1.104-.612-1.944-.612-1.008 0-1.86.324-2.556.972-.672.624-1.2 1.524-1.584 2.7-.36 1.152-.54 2.508-.54 4.068V44h-4.572ZM111.086 44.468c-1.56 0-2.928-.216-4.104-.648-1.176-.456-2.16-1.104-2.952-1.944-.792-.84-1.392-1.848-1.8-3.024-.408-1.176-.612-2.484-.612-3.924s.192-2.784.576-4.032c.408-1.248.996-2.328 1.764-3.24a7.673 7.673 0 0 1 2.844-2.16c1.152-.528 2.46-.792 3.924-.792 1.416 0 2.664.24 3.744.72a6.708 6.708 0 0 1 2.7 2.052c.72.912 1.236 2.028 1.548 3.348.336 1.296.444 2.772.324 4.428l-14.508.18v-2.664l11.556-.144-1.26 1.512c.12-1.296.012-2.364-.324-3.204-.312-.864-.792-1.512-1.44-1.944-.648-.432-1.416-.648-2.304-.648-1.008 0-1.872.264-2.592.792-.696.504-1.236 1.236-1.62 2.196-.36.96-.54 2.112-.54 3.456 0 2.112.444 3.684 1.332 4.716.888 1.032 2.148 1.548 3.78 1.548.72 0 1.32-.096 1.8-.288.504-.216.912-.48 1.224-.792.336-.336.588-.708.756-1.116.192-.408.312-.828.36-1.26l4.068.648a7.87 7.87 0 0 1-.756 2.484 6.558 6.558 0 0 1-1.584 1.98c-.672.552-1.5.984-2.484 1.296-.96.312-2.1.468-3.42.468ZM85.08 44v-3.888l9.864-10.8v-.396H85.26v-3.708h15.372v3.816l-9.936 10.872v.36h10.044V44H85.08Z"/></svg>