<svg xmlns="http://www.w3.org/2000/svg" width="52" height="63" fill="none"><path fill="#3CBDB2" d="M24.266.32 3.124 8.402A4.92 4.92 0 0 0 0 12.99V33.33l9.716-5.584V16.31L26 10.061V.002a4.92 4.92 0 0 0-1.734.32ZM9.892 45.875l16.112-9.285V25.373L1.11 39.726a2.238 2.238 0 0 0-1.107 1.919v7.514a4.92 4.92 0 0 0 3.124 4.538l21.142 8.08a4.92 4.92 0 0 0 1.734.32v-10.06L9.892 45.875Z"/><path fill="#02B1A3" d="M50.967 22.175A2.055 2.055 0 0 0 52 20.367v-7.38A4.92 4.92 0 0 0 48.876 8.4L27.722.32A4.92 4.92 0 0 0 26 0v10.06l15.989 6.15L26 25.422v11.216l24.967-14.463ZM27.72 61.779l21.154-8.08a4.919 4.919 0 0 0 3.124-4.539V28.608l-9.716 5.609v11.598l-16.284 6.223v10.06a4.921 4.921 0 0 0 1.722-.32Z"/></svg>