<svg width="80" height="25" fill="none" xmlns="http://www.w3.org/2000/svg"><path fill-rule="evenodd" clip-rule="evenodd" d="M64.782 24.668c-2.095-1.566-3.722-3.42-4.83-5.51a14.124 14.124 0 0 1-1.674-6.67c0-2.342.556-4.591 1.657-6.678 1.096-2.076 2.729-3.921 4.847-5.493L65.224 0l.177.235 1.258 1.751-.197.172c-1.775 1.57-2.953 3.082-3.655 4.633-.705 1.547-1.061 3.455-1.061 5.674 0 2.295.368 4.24 1.099 5.784.734 1.555 1.899 3.052 3.462 4.443l.352.284-.152.239L65.224 25l-.442-.332Zm8.714 0-.442.332-1.283-1.785-.153-.239.353-.284c1.562-1.391 2.728-2.89 3.462-4.443.73-1.543 1.099-3.49 1.099-5.784 0-2.22-.356-4.127-1.06-5.674-.703-1.55-1.881-3.063-3.657-4.633l-.197-.172L72.876.235 73.054 0l.442.317c2.118 1.572 3.75 3.416 4.846 5.493A14.161 14.161 0 0 1 80 12.49c0 2.324-.562 4.57-1.674 6.67-1.108 2.088-2.734 3.943-4.83 5.51ZM4.28 12.506c0 1.713.464 3.107 1.395 4.184.955 1.09 2.159 1.632 3.61 1.632 1.55 0 2.805-.526 3.761-1.575.956-1.09 1.432-2.475 1.432-4.151 0-1.676-.476-3.057-1.432-4.147-.956-1.065-2.198-1.598-3.722-1.598-1.439 0-2.643.54-3.611 1.616-.956 1.09-1.433 2.434-1.433 4.039Zm9.938-8.884h4.205v17.877H14.22v-1.874c-1.725 1.59-3.58 2.387-5.565 2.387-2.505 0-4.576-.893-6.215-2.679C.813 17.511 0 15.233 0 12.506c0-2.679.813-4.912 2.439-6.701C4.065 4.02 6.098 3.127 8.544 3.127c2.108 0 4.001.855 5.675 2.568V3.622Zm9.49.152h4.186v1.598c.772-.796 1.442-1.375 2.075-1.582 1.962-.648 4.366-.2 6.32.877l-1.7 3.355c-.794-.56-2.036-.927-2.792-.927-2.283 0-3.903 1.886-3.903 5.288v9.268H23.71V3.774Zm28.707.618v3.95c-1.29-1.49-4.187-1.49-5.193-1.49-1.576 0-2.884.545-3.926 1.635-1.041 1.087-1.563 2.453-1.563 4.09 0 1.677.502 3.055 1.506 4.132 1.02 1.075 2.315 1.613 3.89 1.613 1.004 0 4.123-.312 5.286-1.343v3.73c-1.7.869-3.399 1.303-5.098 1.303-2.805 0-5.152-.892-7.035-2.678-1.887-1.8-2.83-4.035-2.83-6.7 0-2.669.956-4.918 2.865-6.753 1.911-1.836 4.256-2.754 7.035-2.754 1.788 0 3.475.42 5.062 1.265Z" fill="#000"/></svg>