<svg height="1611" preserveAspectRatio="xMidYMid" width="2500" xmlns="http://www.w3.org/2000/svg" viewBox="0 0 256 167.509"><path d="M247.942 23.314 256 2.444l-.35-1.293-79.717 21.003C184.433 9.86 181.513 0 181.513 0s-25.457 16.257-44.709 15.832c-19.251-.426-25.457-5.564-54.977 3.853-29.52 9.41-37.86 38.295-46.419 44.5S0 90.603 0 90.603l.058.359 24.207-7.707S17.625 89.51 3.52 108.52l-.659-.609.025.134s11.336 17.324 22.463 14.121c1.118-.325 2.377-.859 3.753-1.56 4.48 2.495 10.327 4.947 16.783 5.622 0 0-4.37-5.08-8.016-10.86.984-.634 1.994-1.293 3.02-1.96l-.476.334 9.217 3.386-1.017-8.666c.033-.017.058-.042.091-.059l9.059 3.328-1.126-7.882a76.868 76.868 0 0 1 3.436-1.693l9.443-35.717 39.045-26.634-3.103 7.808c-7.916 19.468-22.78 24.064-22.78 24.064l-6.206 2.352c-4.612 5.455-6.556 6.798-8.14 25.107 3.72-.934 7.273-1.16 10.492-.292 16.683 4.496 22.463 24.599 17.967 30.162-1.126 1.393-3.803 3.77-7.181 6.565h-6.773l-.092 5.488c-.234.184-.467.359-.693.542h-6.89l-.083 5.355c-.609.468-1.218.918-1.801 1.36-6.473.133-14.673-5.514-14.673-5.514 0 5.139 4.28 13.046 4.28 13.046s.283-.133.758-.367c-.417.309-.65.476-.65.476s17.324 11.552 28.235 7.273c9.7-3.804 34.816-23.606 56.495-32.981l65.603-17.283 8.65-22.413-49.997 13.17V83.597l58.664-15.457 8.65-22.413-67.297 17.734V43.324z"/></svg>