<svg xmlns="http://www.w3.org/2000/svg" preserveAspectRatio="xMidYMid" viewBox="0 0 256 216">
  <path d="M240 21c38 91 0 140-31 167 8 27-23 33-35 19-34 12-104 12-154-38-27-27-6-87 65-128 62-34 124-54 155-20Z" fill="#FFDB1E"/>
  <path d="M85 41C138 7 201-8 227 15c40 34-84 112-130 131-50 20-23 65-50 65-24 0-20-31-40-60-13-17 18-70 78-110Z" fill="#FFF"/>
  <path d="M83 38 54 60l-4 4C12 98-9 137 3 154a89 89 0 0 1 11 19l2 4 5 15c7 16 13 23 26 23 11 0 15-5 18-20l1-7 1-4 1-2v-2l1-1v-2l1-2c4-11 12-19 26-25l2-1c27-10 69-36 99-60l4-3 5-5 4-4c28-26 37-49 21-64l-1-1C203-12 139 1 83 38Zm142-21c13 12 5 31-20 55l-4 3-1 1-4 4-4 3c-28 23-68 47-94 58l-3 1c-17 7-27 17-32 30l-1 3-1 2v2l-1 1v3l-1 4-1 7-1 3c-2 8-4 10-10 10-9 0-13-4-18-16l-5-16-1-2a121 121 0 0 0-13-24c-7-9 2-30 20-53l3-4c14-16 33-33 54-47C141 9 201-3 225 17Z" fill="#FFDB1E"/>
  <path d="M197 20c36 10-2 44-33 66-29 21-51 33-61 38-3 1-12-18-12-8 0 3-6 17-8 18-10 4-32 10-45 10-27 0-15-37 24-71 6-6 11-5 17-5-4-6-4-7 3-12 33-21 73-36 90-38 3 0 6 2 6 4 3-1 16-3 19-2Z" fill="#FFE600"/>
  <path d="M88 80c7-6 12-8 16-20 4 1 6 0 10-5 2 4 13 5 19 5-6 4-9 7-12 17-11-5-24-3-33 3Z" fill="#FFF"/>
</svg>
