<svg xmlns="http://www.w3.org/2000/svg" preserveAspectRatio="xMidYMid" viewBox="0 0 256 222">
  <path d="M215.8 151.1a7.1 7.1 0 0 0 3.5-6.1l.2-41.2c0-2.5 1.3-4.9 3.5-6.1l22.3-12.8A7.1 7.1 0 0 1 256 91v74.8c0 2.6-1.4 5-3.6 6.2l-84.2 48.4a7.1 7.1 0 0 1-7 0L95 182.6a7.1 7.1 0 0 1-3.6-6.2v-37.7h.1v-.1l.1-.1 54.5-31.3v-.1h-.1V70a7.1 7.1 0 0 0-10.6-6.2L95.1 87.2a7.1 7.1 0 0 1-7.1 0L47.4 63.8A7.1 7.1 0 0 0 36.7 70v66.8a7.1 7.1 0 0 1-10.6 6.2L3.6 130A7.1 7.1 0 0 1 0 124L.2 7.1A7.1 7.1 0 0 1 10.9.9l77 44.3a7.1 7.1 0 0 0 7.2 0L172 1a7.1 7.1 0 0 1 10.7 6.2V124c0 2.5-1.3 4.9-3.6 6.1L139 153.4a7.1 7.1 0 0 0 0 12.3l22.3 12.7a7.1 7.1 0 0 0 7 0l47.6-27.3Zm4.6-104.8a7.1 7.1 0 0 0 10.8 6l21.3-12.7a7.1 7.1 0 0 0 3.5-6.1V7.4a7.1 7.1 0 0 0-10.8-6.1L224 14.1a7.1 7.1 0 0 0-3.5 6v26.2Z" fill="#007FFF"/>
</svg>
