<svg xmlns="http://www.w3.org/2000/svg" width="2500" height="2500" viewBox="0 0 192.756 192.756"><g fill-rule="evenodd" clip-rule="evenodd"><path fill="#fff" d="M0 0h192.756v192.756H0V0z"/><path d="M7.06 82.134c1.492.386 7.423 2.177 10.985 3.266s6.229 1.791 8.3 2.371c2.088.597 1.93 2.229.298 2.089-1.632-.158-3.562-1.036-5.492-1.791-1.931-.738-8.002-2.511-11.125-3.564-3.106-1.036-3.861-1.036-4.299-1.633-.439-.58-.158-1.124 1.333-.738z" fill="#89272a"/><path d="M29.328 88.666c1.333-.141 1.474 1.194 1.176 1.931s-1.772 1.036-2.07.298c-.457-1.036-.457-2.072.894-2.229zM46.823 77.972c-.878.755-3.562 2.388-5.475 3.723-1.93 1.334-5.492 3.705-6.545 4.302-1.035.597-2.368 1.334-3.264 2.072-.877.755-.579 2.089.755 1.633 1.333-.439 2.667-1.176 3.562-2.072.877-.896 1.772-1.493 2.667-2.072.895-.597 7.721-5.653 9.055-6.549 1.333-1.475.14-1.774-.755-1.037zM50.245 75.462c.737 0 1.035 1.632.298 2.072-.737.438-1.79.438-1.79-1.036 0-1.493.754-1.036 1.492-1.036zM49.806 78.569c.579 0 .877 1.194.737 2.089-.158.878.141 6.672.298 8.744.141 2.089.141 2.984-.158 3.722-.298.737 0 1.931 0 3.863s-.298 4.441-.438 5.496c-.158 1.035-.299 1.771-.895 1.633-.597-.158-.597-.896-.597-2.09 0-1.176 0-7.427.158-8.902.141-1.493.141-2.089.141-3.266v-9.359c-.001-1.192.157-1.93.754-1.93zM49.35 105.293c.895-.141 1.193 1.492.737 1.932-.438.457-1.474.299-1.772-.439-.299-.739.14-1.335 1.035-1.493zM3.902 80.799c.807-.123 1.07 1.334.403 1.861-.667.544-1.597.141-1.456-.667.123-.79.263-1.053 1.053-1.194zM5.779 79.605c1.86-.931 5.72-3.336 6.65-3.599.93-.264 2.649-1.335 3.316-1.861.667-.527 2.79-1.738 3.194-2.002.403-.263 2.263 0 .667 1.071-1.597 1.071-3.86 2.388-5.458 3.318-1.597.948-6.124 3.336-7.054 3.74s-3.192.264-1.315-.667zM21.607 70.809c.263-.123 1.07.544.667 1.071-.404.527-.93.93-1.474 0-.527-.931.544-.931.807-1.071zM24.274 70.949c1.719 0 5.983.667 7.317 1.071 1.316.387 3.983.79 4.51.931.544.123 2.404.123 2.808.264.386.123 1.597.667 3.983.931 2.404.263 3.86.526 4.527.79.667.281.263 1.879-.808 1.598-1.053-.263-5.439-.79-6.51-.931-1.07-.123-3.194-.931-4.387-1.053-1.21-.141-4.264-.808-6.791-1.071s-4.264-.79-4.931-.931c-.665-.141-1.455-1.599.282-1.599zM3.516 85.189c0-.931 1.457-1.334 1.597-.123.123 1.194.263 3.195.386 4.793.14 1.598.281 3.055.403 4.126.141 1.053.807 3.722.93 4.53.14.789.263 2.387.263 3.318 0 .93.281 2.266.141 2.932-.141.668-.808 2.389-1.193.404-.404-2.002-.141-4.529-.404-5.197s-.807-2.125-.807-3.195c0-1.071-.526-3.863-.649-4.53-.141-.667-.667-6.127-.667-7.058zM6.428 107.697c.141-.543 1.211-.93 1.597-.262.403.666.281 1.721-.649 1.861-.948.124-1.07-1.071-.948-1.599zM8.569 105.959c1.193-1.193 4.65-3.055 6.65-4.793 2-1.721 5.58-4.125 6.247-4.793.667-.667 2.404-.123.93 1.07-1.457 1.195-4.913 3.723-6.387 4.918-1.457 1.211-5.439 3.861-6.247 4.67-.789.789-2.386.123-1.193-1.072zM24.134 94.108c.526.14.526 1.211 0 1.475-.526.263-1.457.123-1.333-.667.139-.808.806-.931 1.333-.808zM10.429 109.033c1.86.525 5.984 3.195 7.317 3.721 1.333.527 3.86 1.861 5.054 2.529s4.124 2.002 4.931 2.389c.79.402 1.456.543 1.86.947.404.387-.14 1.861-1.193 1.316-1.07-.525-5.194-2.65-5.861-3.055-.667-.404-3.193-1.738-4-2.266-.79-.525-1.86-.666-2.913-1.193-1.071-.527-4.791-2.527-6.001-3.195-1.194-.667-1.054-1.738.806-1.193zM28.784 92.792c-.123 1.317.141 3.845.281 4.513.123.666.649 3.459.526 5.459-.14 2.002 0 4.531.263 5.865s.404 4.793.404 5.725c0 .93.263 2.123.403 2.387.123.281.93 1.475 1.053-.264.141-1.721 0-5.18.141-6.25.123-1.07-.141-3.6-.404-6.795s-.404-5.848-.404-6.654c0-.791.264-2.792-.263-3.6-.404-1.335-1.86-1.721-2-.386zM31.311 119.146c.403-.141 1.737.93 1.21 2.125-.544 1.193-1.333.666-1.86-.264-.544-.931.263-1.737.65-1.861zM34.118 117.811c1.72-2 2.124-1.457 3.053-2.264.93-.791 4.65-3.723 5.984-4.916 1.333-1.211 2.404-1.879 3.193-2.529.808-.666 2 .316.808 1.055-1.194.736-3.861 3.354-4.931 4.793-1.053 1.439-2 1.07-3.193 2.266-1.193 1.193-1.86 2.123-2.527 2.404-.667.264-1.193.65-1.719 1.053-.545.403-2.405.139-.668-1.862z" fill="#89272a"/><path d="M26.52 95.039c.808.281 4.141 1.475 6.388 2.545 2.263 1.055 7.721 3.318 8.791 3.986s5.317 2.266 5.861 2.668c.526.387.649 2.389-.544 1.861-1.193-.543-4.527-2.404-6.65-3.336-2.124-.93-5.458-2.527-7.054-2.932-1.597-.387-4.65-2.248-5.457-2.791-.79-.527-1.72-.527-2.123-1.194-.405-.667-.001-1.071.788-.807zM22.537 74.285c.264 1.598.527 3.318.527 4.653s.263 3.459.403 4.126c.141.667.404 2.932.264 3.336-.123.386 0 3.582 0 4.39 0 .79.263 1.861-.527 1.861-.807 0-.93-.667-.93-2.125 0-1.475-.544-4.67-.544-6.005 0-1.317-.264-4.126-.264-5.987 0-1.861-.386-3.863-.526-4.389-.14-.527 1.334-1.457 1.597.14z" fill="#89272a"/><path d="M189.922 105.451c0 1.984-.598 3.512-1.773 4.564-1.211 1.07-2.912 1.598-5.158 1.598-2.193 0-3.912-.527-5.141-1.598s-1.844-2.562-1.844-4.477v-4.951h5.932v5.004c0 .578.07 1 .246 1.246.158.264.438.387.807.387s.648-.123.807-.387c.158-.246.246-.668.246-1.246v-2.406c0-1.088-.965-2.404-2.93-3.969a35.974 35.974 0 0 1-.982-.789l-.053-.053c-2.703-2.248-4.072-4.495-4.072-6.743v-2.37c0-1.773.615-3.143 1.826-4.126 1.229-.983 2.93-1.457 5.123-1.457 2.211 0 3.914.509 5.141 1.527 1.211 1.036 1.826 2.476 1.826 4.337v4.073h-5.879v-4.161c0-.58-.088-1.001-.246-1.247-.158-.246-.438-.368-.807-.368s-.648.123-.807.368c-.176.246-.246.667-.246 1.247v1.422c0 1.211.93 2.528 2.807 3.986.439.316.791.58 1.02.79 1.859 1.493 3.018 2.651 3.473 3.476.457.844.686 1.932.686 3.285v3.038h-.002zM160.424 110.963V84.311h5.773v2.229h.105c.492-.931 1.088-1.615 1.771-2.072.686-.439 1.51-.649 2.422-.649 1.281 0 2.229.369 2.879 1.141.631.755.965 1.896.965 3.389v22.614h-5.932V90.298c0-.614-.07-1.036-.229-1.264-.158-.211-.438-.316-.824-.316-.369 0-.631.123-.807.386-.176.246-.246.65-.246 1.194v20.665h-5.877zM144.648 89.771c0-2.019.598-3.529 1.756-4.565 1.158-1.019 2.895-1.527 5.193-1.527 2.492 0 4.264.562 5.334 1.703 1.053 1.141 1.58 3.09 1.58 5.882v16.224c0 .701.035 1.334.105 1.879.07.561.176 1.088.334 1.596h-5.967c-.07-.314-.123-.631-.176-.947a5.657 5.657 0 0 1-.07-.895v-.422h-.088c-.42.877-.982 1.545-1.701 2.02-.721.473-1.562.701-2.51.701-1.246 0-2.176-.387-2.826-1.141-.631-.738-.965-1.861-.965-3.336v-5.654c0-1.387.264-2.527.756-3.424.508-.877 1.332-1.615 2.439-2.212.35-.21.877-.474 1.525-.79 2.211-1.141 3.316-2.212 3.316-3.231v-1.896c0-.58-.07-1-.246-1.247-.174-.264-.455-.386-.842-.386-.369 0-.631.123-.789.386-.158.246-.229.667-.229 1.247v3.88h-5.932v-3.845h.003z" fill="#475984"/><path d="M152.686 104.959v-7.076c-.088.07-.193.158-.352.281-1.174.896-1.754 1.703-1.754 2.389v4.406c0 .598.07 1 .229 1.229.158.211.438.334.824.334.352 0 .633-.123.807-.387.175-.244.246-.631.246-1.176z" fill="#fff"/><path d="M134.893 105.592c0 .578.088 1 .264 1.246.158.264.439.387.807.387.369 0 .65-.123.807-.387.158-.246.246-.668.246-1.246v-5.004h5.879v4.951c0 1.932-.613 3.424-1.824 4.477-1.211 1.07-2.914 1.598-5.107 1.598-2.492 0-4.264-.562-5.334-1.721-1.07-1.141-1.598-3.09-1.598-5.863V91.264c0-2.792.527-4.759 1.58-5.9 1.053-1.124 2.826-1.685 5.299-1.685 2.193 0 3.896.509 5.125 1.527 1.246 1.018 1.859 2.423 1.859 4.214v9.06h-8.002v7.112h-.001z" fill="#475984"/><path d="M134.893 89.456v5.039h2.123v-5.039c0-.58-.088-1.001-.246-1.247-.156-.246-.438-.368-.807-.368-.367 0-.648.123-.807.368-.176.246-.263.667-.263 1.247z" fill="#fff"/><path d="M111.836 110.963V77.639h7.756c2.613 0 4.545.474 5.809 1.422 1.281.931 1.912 2.37 1.912 4.284v3.916c0 1.791-.369 3.108-1.123 3.951-.754.86-2.088 1.457-4 1.843v.176c1.736.158 3.018.667 3.859 1.545s1.264 2.16 1.264 3.828v5.162c0 2.615-.613 4.477-1.842 5.566-1.229 1.088-3.352 1.631-6.336 1.631h-7.299z" fill="#475984"/><path d="M120.715 89.069v-5.303c0-.755-.141-1.247-.422-1.51-.279-.246-.877-.386-1.807-.386v9.147c.912 0 1.51-.141 1.789-.404.282-.244.44-.771.44-1.544zM120.715 104.396v-6.988c0-.684-.141-1.158-.422-1.439-.279-.281-.771-.403-1.438-.403h-.369v10.674h.369c.666 0 1.158-.141 1.438-.42.281-.263.422-.756.422-1.424z" fill="#fff"/><path d="M101.605 88.578v-4.267h1.492v-4.952h5.912v4.952h1.721v4.267h-1.721v16.188c0 .826.105 1.352.316 1.58.193.211.598.316 1.211.316h.193v4.301h-3.703c-1.439 0-2.439-.332-3.035-.982-.598-.666-.895-1.879-.895-3.705V88.578h-1.491zM92.709 105.592c0 .578.088 1 .246 1.246.176.264.438.387.807.387s.649-.123.825-.387c.158-.246.246-.668.246-1.246v-5.004h5.861v4.951c0 1.932-.598 3.424-1.809 4.477-1.209 1.07-2.912 1.598-5.123 1.598-2.474 0-4.247-.562-5.317-1.721-1.088-1.141-1.614-3.09-1.614-5.863V91.264c0-2.792.526-4.759 1.579-5.9 1.053-1.124 2.825-1.685 5.317-1.685 2.176 0 3.896.509 5.123 1.527 1.229 1.018 1.844 2.423 1.844 4.214v9.06H92.71v7.112h-.001z" fill="#475984"/><path d="M92.709 89.456v5.039h2.123v-5.039c0-.58-.087-1.001-.246-1.247-.175-.246-.456-.368-.825-.368s-.631.123-.807.368c-.157.246-.245.667-.245 1.247z" fill="#fff"/><path d="M67.371 110.963V77.639h9.125l2.334 14.117c.21 1.282.386 2.687.544 4.249.158 1.58.281 3.354.386 5.391h.263a420.844 420.844 0 0 1-.228-6.163c-.053-1.756-.088-3.02-.088-3.792l-.035-13.801h5.211v33.324h-7.809L73.67 92.862c-.14-.703-.298-1.773-.509-3.195-.193-1.44-.404-3.003-.614-4.706h-.193c.105 1.387.175 2.599.228 3.635.053 1.054.07 1.896.07 2.563v19.804h-5.281z" fill="#475984"/></g></svg>