<svg xmlns="http://www.w3.org/2000/svg" viewBox="0 0 473 146">
  <g fill="#FFF" fill-rule="evenodd">
    <path d="M114.8 92.4a2 2 0 0 1 2.1-1.8c.5 0 1.1.1 1.8.5a232 232 0 0 0 122 35c30 0 62.9-6.8 93.1-20.6 4.6-2 8.4 3.2 4 6.8-27 21.5-66.2 32.9-100 32.9-47.2 0-89.7-18.8-122-50.2-.5-.6-.9-1.3-1-1.9v-.7Z"/>
    <path d="M315.5 95.8c8-6 18.6-8 27.4-8 8.2 0 14.9 1.7 16.3 3.6 3 3.9-.8 31.2-15.3 44.2-2.2 2-4.3.9-3.3-1.7 3.3-8.8 10.5-28.3 7-33-3.4-4.8-22.7-2.4-31.4-1.2-1.4.1-2.2-.4-2.3-1.2V98c.1-.7.6-1.5 1.6-2.2Zm134.9-76c7 0 12.6 2.2 16.6 6.5 4 4.3 6 10.3 6 18 0 7.6-2 13.6-6 18-4 4.3-9.5 6.4-16.6 6.4-7.1 0-12.7-2.1-16.7-6.4s-6-10.4-6-18c0-7.7 2-13.7 6-18 4-4.3 9.6-6.4 16.7-6.4Zm0 10.2c-6.3 0-9.4 4.7-9.4 14.2 0 9.6 3 14.4 9.4 14.4 6.2 0 9.4-4.8 9.4-14.4 0-9.5-3.2-14.2-9.4-14.2Zm-47.2-9.7c5.4 0 9.7 1.3 12.7 4 3.1 2.6 4.6 6.2 4.6 10.6 0 4.4-1.6 7.8-5 10a25.7 25.7 0 0 1-14.5 3.5c-3.3 0-6.2-.4-8.7-1 .4 4 1.6 6.8 3.6 8.5 2 1.7 5 2.6 9.1 2.6a35.7 35.7 0 0 0 11.8-1.9h.4c1 0 1.5.7 1.5 2v4.1c0 1-.1 1.6-.4 2-.3.4-.8.7-1.5 1a37.3 37.3 0 0 1-13.6 2.5c-7.3 0-12.8-2-16.7-6-3.9-4-5.8-9.8-5.8-17.3 0-7.7 2-13.7 6-18 4-4.4 9.4-6.6 16.5-6.6Zm-1 9c-5.6 0-8.8 3.4-9.7 10.4 2.3.5 5 .7 7.8.7 3 0 5.1-.5 6.5-1.4 1.3-.9 2-2.3 2-4.2 0-3.7-2.2-5.6-6.6-5.6ZM369.1.4c.8 0 1.4.2 1.7.5.3.4.5 1 .5 1.8v62.3c0 .8-.2 1.4-.5 1.7-.3.4-.9.6-1.7.6h-7.2c-.7 0-1.3-.2-1.6-.5-.4-.3-.7-.8-.9-1.5l-.5-2.1c-3.7 3.4-8.1 5-13.2 5-3.9 0-7.2-1-10.1-3-2.9-2-5-4.8-6.6-8.4a31.5 31.5 0 0 1-2.3-12.4c0-7.5 1.8-13.4 5.3-18 3.5-4.4 8.2-6.6 14-6.6 4.7 0 8.8 1.3 12.2 4V2.8c0-.8.2-1.4.6-1.8.3-.3.9-.5 1.7-.5h8.6Zm-19.7 29.3c-3.2 0-5.5 1.2-7 3.6a20 20 0 0 0-2.4 10.8c0 4.8.8 8.3 2.4 10.7 1.7 2.3 4.2 3.5 7.6 3.5a15 15 0 0 0 8.2-2.5V32a17.2 17.2 0 0 0-8.8-2.3Zm-42 37.6c-.9 0-1.4-.2-1.8-.6-.3-.3-.5-1-.5-1.7V23.5c0-.9.2-1.5.5-1.8.4-.3 1-.5 1.7-.5h8.6c.8 0 1.4.2 1.8.5.3.3.5 1 .5 1.8V65c0 .8-.2 1.4-.5 1.7-.4.4-1 .6-1.8.6h-8.6Zm4.2-53.3c-2.2 0-4-.6-5.4-2-1.4-1.2-2.1-2.9-2.1-5 0-2.2.7-4 2-5.2a7.7 7.7 0 0 1 5.5-1.9c2.3 0 4.1.6 5.5 1.9 1.3 1.3 2 3 2 5.1 0 2.2-.7 4-2 5.2a7.7 7.7 0 0 1-5.5 1.9Zm-39.8 53.3c-.6 0-1-.1-1.5-.3a2.3 2.3 0 0 1-1-.7l-.7-1.4-15.3-40.2a36.7 36.7 0 0 1-.4-1.2 3.2 3.2 0 0 1-.2-1c0-1 .6-1.4 1.8-1.4h9c.9 0 1.6.2 2 .6.5.3.8 1 1 1.8l9.3 32 9.4-32c.2-.9.5-1.5 1-1.8.4-.4 1.1-.6 2-.6h8.8c1.2 0 1.8.5 1.8 1.4l-.2 1-.5 1.2L282.8 65l-.7 1.4a2.4 2.4 0 0 1-1 .7 4 4 0 0 1-1.5.3h-7.8Zm-57-47.5c5.5 0 9.9 1.3 13 4 3.1 2.7 4.7 6.4 4.7 10.9s-1.7 8-5 10.2a26.5 26.5 0 0 1-15 3.5c-3.4 0-6.4-.3-9-1 .4 4 1.7 7 3.7 8.7 2 1.7 5.2 2.6 9.4 2.6a36.9 36.9 0 0 0 11.5-1.7 3.3 3.3 0 0 1 .6-.1h.4c1 0 1.5.6 1.5 2V63c0 1-.1 1.7-.4 2-.2.5-.8.8-1.5 1.1-4.4 1.7-9 2.5-14 2.5-7.4 0-13.1-2-17.1-6.1-4-4.1-6-10-6-17.6 0-7.8 2-14 6.1-18.4 4.1-4.5 9.8-6.7 17-6.7Zm-1 9.1c-5.8 0-9.1 3.6-10 10.7 2.4.4 5 .7 8 .7s5.2-.5 6.6-1.4c1.4-1 2-2.4 2-4.3 0-3.8-2.2-5.7-6.7-5.7ZM126 25.7c3.2-2.2 6-3.6 8.6-4.5a24 24 0 0 1 7.9-1.3c5.4 0 9.2 1.9 11.4 5.8 3-2 6-3.6 8.6-4.5A26 26 0 0 1 171 20a13 13 0 0 1 9.7 3.5c2.3 2.3 3.5 5.6 3.5 9.8v32c0 .7-.2 1.3-.5 1.6-.3.4-1 .6-1.8.6h-8.6c-.8 0-1.3-.2-1.7-.6-.4-.3-.5-.9-.5-1.7v-29c0-4-1.9-6.1-5.5-6.1-3.3 0-6.5.8-9.8 2.3v32.8c0 .8-.2 1.4-.5 1.7-.3.4-1 .6-1.8.6h-8.6c-.8 0-1.3-.2-1.7-.6-.4-.3-.5-.9-.5-1.7v-29c0-4-1.9-6.1-5.5-6.1-3.4 0-6.7.8-10 2.4v32.7c0 .8 0 1.4-.4 1.7-.3.4-1 .6-1.8.6h-8.6c-.8 0-1.3-.2-1.7-.6-.3-.3-.5-.9-.5-1.7V23.5c0-.9.2-1.4.5-1.8.4-.3 1-.5 1.7-.5h6.5c1.4 0 2.2.7 2.5 2l.7 2.5Zm-36.2-2.2c0-.9.2-1.4.6-1.8.3-.3.9-.5 1.7-.5h8.6c.8 0 1.4.2 1.8.5.3.4.5 1 .5 1.8V65c0 .8-.2 1.4-.5 1.7-.4.4-1 .6-1.8.6h-8.6c-.8 0-1.4-.2-1.7-.6-.4-.3-.6-.9-.6-1.7V23.5Zm6.6-9.4c-2.3 0-4.1-.6-5.5-1.9-1.4-1.3-2-3-2-5.2 0-2.1.6-3.8 2-5.1A7.8 7.8 0 0 1 96.4 0c2.3 0 4 .6 5.5 1.9 1.3 1.3 2 3 2 5.1 0 2.2-.7 4-2 5.2a7.8 7.8 0 0 1-5.5 1.9Zm-30 14c2.3-2.7 4.6-4.5 6.7-5.7a14.4 14.4 0 0 1 6.8-1.6H81c.9 0 1.5.1 1.8.5.4.3.6.9.6 1.7v7.6c0 .8-.2 1.4-.5 1.7-.3.4-1 .6-1.8.6l-1.6-.1a28.3 28.3 0 0 0-2.5-.1 27 27 0 0 0-10 2v30.4c0 .8-.2 1.4-.6 1.7-.3.4-.9.6-1.7.6h-8.6c-.8 0-1.4-.2-1.7-.6-.4-.3-.6-.9-.6-1.7V23.5c0-.9.2-1.4.6-1.8.3-.3.9-.5 1.7-.5h6.4c1.4 0 2.2.7 2.5 2l1.2 4.9Zm-40.2-8.2c5.9 0 10.5 2.1 13.8 6.4 3.4 4.3 5.1 10 5.1 17.3 0 5-.8 9.4-2.5 13.1-1.7 3.8-4 6.6-6.8 8.6-2.9 2-6.2 3-10 3-2.4 0-4.7-.3-7-1-2.1-.9-4-2-5.6-3.3v19.7c0 .9-.2 1.5-.5 1.8-.3.3-.9.5-1.7.5H2.3c-.7 0-1.3-.2-1.7-.5-.3-.3-.5-1-.5-1.8V23.5c0-.9.2-1.4.5-1.8.4-.3 1-.5 1.7-.5h6.5c1.4 0 2.2.7 2.5 2l.7 2.4a20.8 20.8 0 0 1 14.3-5.7Zm-4.2 10c-3 0-6 .7-8.8 2.3V56c2.7 1.6 5.6 2.4 8.8 2.4 3.4 0 5.8-1.1 7.4-3.4 1.6-2.3 2.4-5.9 2.4-10.8 0-5-.8-8.7-2.3-11-1.6-2.2-4-3.4-7.5-3.4Z"/>
  </g>
</svg>
