<svg height="769" viewBox="0 -.1 800.3 246.4" width="2500" xmlns="http://www.w3.org/2000/svg"><path d="m396.5 246.3v-.4c.4-.5 1.1-.8 1.7-.7 2.9-.1 5.7-.1 8.6 0 .6 0 1.3.2 1.7.7v.4z" fill="#d1effa"/><path d="m408.5 245.9c-4-.1-8-.1-12 0-5.5-.3-11-.5-16.5-.9-14.6-1.1-29.1-3.3-43.3-6.6-49.1-11.4-92.2-34.3-129.8-67.6-3.5-3.1-6.8-6.3-10.2-9.5-.8-.7-1.5-1.7-1.9-2.7-.6-1.4-.3-2.9.7-4s2.6-1.5 4-.9c.9.4 1.8.8 2.6 1.3 35.9 22.2 75.1 38.4 116.2 48 13.8 3.2 27.7 5.7 41.7 7.5 20.1 2.5 40.4 3.4 60.6 2.7 10.9-.3 21.7-1.3 32.5-2.7 25.2-3.2 50.1-8.9 74.2-16.9 12.7-4.2 25.1-9 37.2-14.6 1.8-1 4-1.3 6-.8 3.3.8 5.3 4.2 4.5 7.5-.1.4-.3.9-.5 1.3-.8 1.5-1.9 2.8-3.3 3.8-11.5 9-23.9 16.9-37 23.5-24.7 12.5-51.1 21.4-78.3 26.5-15.7 2.8-31.5 4.5-47.4 5.1zm-148.1-202.7c2.5-1.5 5.1-3.1 7.8-4.5 7-3.6 14.8-5.4 22.7-5 5.7.3 10.9 1.9 14.9 6.1 3.8 3.9 5.2 8.7 5.6 13.9.1 1.1.1 2.2.1 3.4v51.8c0 4.5-.6 5.1-5.1 5.1h-12.2c-.8 0-1.6 0-2.4-.1-1.2-.1-2.2-1.1-2.4-2.3-.2-1.1-.2-2.2-.2-3.3v-46.3c.1-1.9-.1-3.7-.6-5.5-.8-3.1-3.6-5.3-6.8-5.5-5.9-.4-11.8.8-17.2 3.3-.8.2-1.3 1-1.2 1.8v52.6c0 1 0 1.9-.2 2.9 0 1.4-1.1 2.4-2.5 2.4-1.5.1-3 .1-4.6.1h-10.6c-3.7 0-4.5-.9-4.5-4.6v-47.3c0-1.7-.1-3.5-.5-5.2-.7-3.4-3.6-5.8-7-6-6-.4-12.1.8-17.5 3.4-.8.2-1.3 1.1-1.1 1.9v53.3c0 3.7-.8 4.5-4.5 4.5h-13.4c-3.5 0-4.4-1-4.4-4.4v-69.4c0-.8.1-1.6.3-2.4.4-1.2 1.6-1.9 2.8-1.9h12.5c1.8 0 2.9 1.1 3.5 2.8.5 1.4.8 2.7 1.3 4.2 1 0 1.6-.7 2.3-1.1 5.5-3.4 11.3-6.3 17.8-7.5 5-1 10-1 15 0 4.7 1 8.9 3.8 11.6 7.8.2.3.4.5.6.7-.1.1 0 .1.1.3z" fill="#00a8e1"/><path d="m467.7 93c.6-2 1.2-3.9 1.8-5.9 4.6-15.5 9.2-30.9 13.8-46.4l.6-1.8c.5-1.8 2.2-2.9 4-2.9h15.2c3.8 0 4.6 1.1 3.3 4.7l-6 15.9c-6.7 17.4-13.4 34.9-20.1 52.3-.2.6-.5 1.2-.7 1.8-.7 2.1-2.8 3.5-5 3.3-4.4-.1-8.8-.1-13.2 0-3.1.1-4.9-1.3-6-4.1-2.5-6.6-5.1-13.3-7.6-19.9-6-15.7-12.1-31.4-18.1-47.2-.6-1.2-1-2.6-1.3-3.9-.3-2 .4-3 2.4-3 5.7-.1 11.4 0 17 0 2.4 0 3.5 1.6 4.1 3.7 1.1 3.8 2.2 7.7 3.4 11.5 4.1 13.9 8.1 27.9 12.2 41.8-.1.1 0 .1.2.1z" fill="#232f3e"/><path d="m112.6 47c.7-.2 1.3-.6 1.7-1.2 1.8-1.8 3.7-3.5 5.7-5.1 5.2-4 11.7-6 18.2-5.5 2.6.1 3.5.9 3.7 3.4.2 3.4.1 6.9.1 10.3.1 1.4 0 2.7-.2 4.1-.4 1.8-1.1 2.5-2.9 2.7-1.4.1-2.7 0-4.1-.1-6.7-.6-13.2.7-19.5 2.8-1.4.5-1.4 1.5-1.4 2.6v48c0 .9 0 1.7-.1 2.6-.1 1.3-1.1 2.3-2.4 2.3-.7.1-1.5.1-2.2.1h-13c-.7 0-1.5 0-2.2-.1-1.3-.1-2.3-1.2-2.4-2.5-.1-.8-.1-1.6-.1-2.4v-68c0-4.6.5-5.1 5.1-5.1h9.6c2.6 0 3.8.9 4.5 3.4s1.3 5 1.9 7.7zm467.8 101.4c6.6.2 13.1.6 19.5 2.3 1.8.5 3.5 1.1 5.2 1.9 2.3.9 3.8 3.1 4.1 5.5.4 2.8.5 5.7.3 8.6-1.3 17.1-6.6 33.6-15.4 48.3-3.2 5.3-7.1 10.1-11.6 14.3-.9.9-2 1.6-3.2 2-1.9.5-3.1-.5-3.2-2.4.1-1 .3-2 .7-3 3.5-9.4 6.9-18.7 9.6-28.4 1.6-5.3 2.7-10.7 3.4-16.2.2-2 .3-4 .1-6-.1-3.4-2.3-6.3-5.6-7.3-3.1-1-6.3-1.6-9.6-1.8-9.2-.4-18.4 0-27.5 1.2l-12.1 1.5c-1.3.1-2.5 0-3.2-1.2s-.4-2.4.3-3.6c.8-1.1 1.8-2.1 3-2.8 7.4-5.3 15.7-8.5 24.5-10.6 6.8-1.4 13.7-2.1 20.7-2.3z" fill="#00a8e1"/><path d="m538.5 75v36c-.2 2-1.1 2.9-3.1 3-5.4.1-10.7.1-16.1 0-2 0-2.9-1-3.1-2.9-.1-.6-.1-1.3-.1-1.9v-69.2c.1-3.1.9-4 4-4h14.4c3.1 0 4 .9 4 4z" fill="#232f3e"/><path d="m151.6 74.8v-35.5c.1-2.4 1-3.3 3.4-3.4 5.2-.1 10.4-.1 15.6 0 2.3 0 3 .7 3.2 3 .1.9.1 1.7.1 2.6v66.6c0 1.1-.1 2.2-.2 3.3-.1 1.3-1.1 2.2-2.4 2.3-.6.1-1.1.1-1.7.1h-13.9c-.5 0-.9 0-1.4-.1-1.4-.1-2.6-1.2-2.7-2.6-.1-.8-.1-1.6-.1-2.4.1-11.1.1-22.5.1-33.9zm11.6-74.7c1.6-.1 3.2.2 4.7.7 5.4 1.8 8.2 6.5 7.7 12.6-.4 5.2-4.3 9.4-9.5 10.2-2.2.4-4.5.4-6.7 0-5.7-1.1-9.9-5.3-9.5-12.5.6-7.1 5.3-11 13.3-11z" fill="#00a8e1"/><path d="m527.4.1c2-.2 4 .2 5.9 1 3.9 1.5 6.6 5.1 6.8 9.3.8 9.1-5.3 13.7-13.4 13.5-1.1 0-2.2-.2-3.3-.4-6.2-1.5-9.4-6.3-8.8-13.2.5-5.5 4.8-9.6 10.7-10.1.7-.1 1.4-.2 2.1-.1z" fill="#232f3e"/><path d="m76.7 66.6c-.4-5.2-1.8-10.3-3.9-15-4.1-8.6-10.4-14.9-20-17.1-11-2.4-20.9 0-29.9 6.7-.6.6-1.3 1.1-2.1 1.5-.2-.1-.4-.2-.4-.3-.3-1-.5-2-.8-3-.8-2.5-1.8-3.4-4.5-3.4-3 0-6.1.1-9.1 0-2.3-.1-4.4.2-6 2 0 35 0 70.1.1 105 1.3 2.1 3.3 2.5 5.6 2.4 3.6-.1 7.2 0 10.8 0 6.3 0 6.3 0 6.3-6.2v-28.5c0-.7-.3-1.5.4-2.1 5 3.9 11.1 6.3 17.4 6.9 8.8.9 16.8-1.3 23.5-7.3 4.9-4.5 8.5-10.3 10.4-16.7 2.7-8.2 2.9-16.5 2.2-24.9zm-23.9 20.7c-.7 3.1-2.3 5.9-4.6 8-2.6 2.2-5.8 3.5-9.2 3.5-5.1.3-10.1-.8-14.6-3.2-1.1-.5-1.8-1.6-1.7-2.8v-18.1c0-6 .1-12 0-18-.1-1.4.7-2.6 2-3.1 5.5-2.6 11.2-3.8 17.2-2.6 4.2.6 7.8 3.3 9.5 7.2 1.5 3.2 2.4 6.7 2.6 10.2.6 6.4.6 12.8-1.2 18.9z" fill="#00a8e1"/><path d="m800.1 82.2c0-.1 0-.1 0 0zm.1-13.4v.4c-.4-.4-.6-1-.4-1.5v-.8s0-.1.1-.1h-.1v-1h.2c0-.1-.1-.1-.1-.2-.2-1.9-.6-3.8-1.1-5.6-3.7-13.2-12-21.9-25.5-25.3-6.3-1.5-12.7-1.7-19.1-.7-13.5 2-23.2 9.2-27.9 22-4.6 12.2-4.5 25.6.1 37.8 4 11.1 12 18.1 23.5 21 6.1 1.5 12.5 1.9 18.8 1 21-2.5 29.7-18.4 31.1-32.2h-.1v-1.4c-.1-.6-.2-1.1.4-1.5v.2c0-.1.1-.3.2-.4v-11.5c0-.1-.1-.1-.1-.2zm-24 19c-.6 2.1-1.5 4-2.8 5.8-2.2 3.1-5.7 5.1-9.5 5.4-1.9.2-3.8.2-5.7-.2-4.2-.8-7.7-3.6-9.4-7.5-1.5-3.1-2.4-6.5-2.7-9.9-.5-5.9-.6-11.8.8-17.6.5-2.3 1.5-4.6 2.7-6.6 2.2-3.6 6-5.9 10.2-6.2 1.9-.2 3.8-.2 5.7.2 4 .8 7.3 3.4 9.1 7.1 1.7 3.5 2.7 7.4 2.9 11.3.1 1.8.2 3.6.1 5.4.3 4.4-.2 8.7-1.4 12.8zm-151.3-87h-13.9c-3.8 0-4.5.7-4.5 4.5v32.4c0 .7.3 1.4-.2 2.1-.9-.1-1.4-.7-2.1-1.1-10.4-6.1-21.3-7.2-32.3-2.1-7.7 3.6-12.5 10.1-15.6 17.8-3 7.4-3.7 15.2-3.5 23.1 0 7.4 1.7 14.7 5 21.3 3.8 7.3 9.3 12.9 17.3 15.3 10.9 3.4 21.1 1.7 30.4-5.2.7-.4 1.1-1.1 2-1.3.5 1.1.9 2.3 1.1 3.5.4 1.6 1.8 2.7 3.5 2.7h2.4c3.6 0 7.1.1 10.6 0 2.8 0 3.6-.9 3.7-3.8v-105.4c-.1-3.1-.9-3.8-3.9-3.8zm-18.3 73.6v18.2c.2 1.2-.5 2.3-1.6 2.8-4.8 2.7-10.3 3.8-15.7 3-4.6-.5-8.6-3.3-10.7-7.4-1.6-3.2-2.5-6.6-2.8-10.1-.8-6.3-.3-12.7 1.2-18.8.5-1.7 1.1-3.3 2-4.9 2.1-3.9 6.1-6.4 10.5-6.7 5.3-.5 10.6.5 15.4 2.7 1.2.4 1.9 1.6 1.8 2.9-.2 6.2-.1 12.2-.1 18.3z" fill="#232f3e"/><path d="m348 81.3c7.5 1.4 15.2 1.5 22.7.3 4.4-.6 8.6-1.9 12.5-4 4.5-2.6 7.8-6.2 9.2-11.2 3.5-12.6-1.9-25.3-15-30-6.4-2.1-13.2-2.8-19.9-1.9-15.8 1.8-26.1 10.5-30.8 25.6-3.3 10.3-2.9 20.8-.2 31.2 3.5 13.3 12.3 21.2 25.6 24 7.6 1.7 15.3 1.4 22.9.2 4-.7 8-1.7 11.8-3.2 2.3-.9 3.5-2.3 3.4-4.9-.1-2.4 0-4.9 0-7.4 0-3-1.2-3.9-4.1-3.2s-5.7 1.3-8.6 1.9c-6.2 1.3-12.6 1.3-18.8.2-8.5-1.7-14-9-13.5-18 .9.1 1.9.2 2.8.4zm-2.5-15.3c.3-2.4 1-4.7 1.9-6.9 3-7.3 9.3-9.8 15.7-9.4 1.8.1 3.6.5 5.3 1.2 2.6 1.1 4.3 3.5 4.6 6.3.3 1.7.2 3.5-.3 5.2-1.2 3.6-4.1 5.1-7.6 5.8-2.1.5-4.3.7-6.5.5-3.9 0-7.9-.3-11.8-.9-1.5-.2-1.5-.2-1.3-1.8z" fill="#00a8e1"/><path d="m685.3 82.3c5.8-.4 11.6-1.5 16.8-4.3 5.3-2.6 9-7.5 10.1-13.3.7-3.6.7-7.4-.1-11-2.1-9-7.8-14.6-16.4-17.5-4.8-1.5-9.9-2.1-14.9-1.9-16.8.4-29.6 8.9-34.8 25.7-3.5 11.1-3 22.4.4 33.5 3.5 11.4 11.5 18.3 22.9 21.4 4.9 1.2 10 1.7 15 1.5 7.3-.1 14.6-1.5 21.5-4.1 2.9-1.1 3.6-2.1 3.6-5.2v-7.2c-.1-2.9-1.3-3.9-4.2-3.2-2.2.6-4.3 1.1-6.5 1.6-6.7 1.6-13.7 1.9-20.5.7-6.8-1.3-11.4-5.2-13.2-12-.5-2-.9-4-1.1-6.1.5 0 1 0 1.4.2 6.6 1.2 13.3 1.7 20 1.2zm-20.9-16c.7-3.9 1.6-7.7 4-10.9 3.7-4.9 8.8-6.3 14.6-5.7.5 0 .9.2 1.4.2 7 1.1 8.7 6.7 7.4 12.1-1 4-4.3 5.5-8 6.2-2 .4-4.1.6-6.2.5-4.1-.1-8.1-.4-12.1-1-.9-.1-1.3-.5-1.1-1.4z" fill="#232f3e"/></svg>