<svg fill="none" xmlns="http://www.w3.org/2000/svg" viewBox="0 0 90 28">
  <path fill-rule="evenodd" clip-rule="evenodd" d="M.21 19a1.35 1.35 0 0 1-.01-1.42L10.33 1.06a1.35 1.35 0 0 1 2.37.14l9.26 20.07c.34.75-.05 1.62-.84 1.86l-14.4 4.32c-.57.17-1.2-.06-1.52-.57L.2 19ZM11.5 5.9a.5.5 0 0 1 .96-.1l6.38 14.77a.5.5 0 0 1-.32.68l-9.95 2.97a.5.5 0 0 1-.64-.58L11.5 5.89Zm37 15.25h2.82V10.77H48.5v10.37Zm-.13-13.05c0-.92.52-1.38 1.54-1.38 1.03 0 1.54.46 1.54 1.38 0 .44-.13.78-.38 1.03-.26.24-.64.36-1.16.36-1.02 0-1.54-.46-1.54-1.39Zm38.8 8.25-1.1.03a3.5 3.5 0 0 0-1.83.45c-.4.27-.6.68-.6 1.24 0 .8.46 1.2 1.37 1.2.66 0 1.18-.2 1.57-.57.4-.38.6-.88.6-1.5v-.86Zm.84 4.8-.55-1.41h-.08c-.47.6-.96 1.01-1.47 1.25-.5.23-1.16.34-1.97.34-1 0-1.77-.28-2.35-.85-.57-.57-.85-1.38-.85-2.43 0-1.1.38-1.91 1.15-2.43.77-.52 1.93-.81 3.48-.87l1.8-.06v-.45c0-1.05-.54-1.58-1.61-1.58-.83 0-1.8.25-2.92.76l-.94-1.91a8.43 8.43 0 0 1 3.97-.94c1.39 0 2.46.3 3.2.9.74.61 1.11 1.53 1.11 2.77v6.9h-1.97Zm-15.53 0h-2.83v-6.06c0-.74-.12-1.3-.37-1.68-.25-.37-.65-.56-1.19-.56-.72 0-1.24.27-1.57.8-.33.53-.5 1.4-.5 2.62v4.88H63.2V10.77h2.16l.38 1.33h.16c.28-.48.68-.85 1.2-1.12.53-.27 1.13-.4 1.81-.4 1.55 0 2.6.5 3.15 1.52h.25a2.8 2.8 0 0 1 1.23-1.12 4.1 4.1 0 0 1 1.83-.4c1.18 0 2.07.3 2.67.9.6.6.9 1.57.9 2.9v6.76h-2.83v-6.06c0-.74-.13-1.3-.38-1.68-.25-.37-.64-.56-1.18-.56-.7 0-1.21.25-1.56.74-.34.5-.51 1.28-.51 2.36v5.2Zm-12.31-.65a2.85 2.85 0 0 0 1.1-2.43c0-.51-.08-.96-.26-1.33-.18-.37-.46-.7-.84-.98a8.21 8.21 0 0 0-1.78-.92 11 11 0 0 1-1.76-.82c-.27-.19-.4-.4-.4-.66 0-.45.41-.68 1.25-.68.47 0 .93.07 1.38.22.45.14.93.32 1.45.54l.86-2.04a8.62 8.62 0 0 0-3.65-.81c-1.3 0-2.32.25-3.03.75a2.46 2.46 0 0 0-1.07 2.14c0 .54.08 1 .25 1.36.17.37.44.7.82.98.37.28.96.59 1.75.92.56.24 1 .44 1.34.62.33.18.57.33.7.47.14.14.2.32.2.55 0 .59-.5.89-1.53.89a9.84 9.84 0 0 1-3.51-.87v2.33c.46.2.96.35 1.49.45.53.1 1.17.15 1.93.15 1.47 0 2.57-.28 3.31-.83Zm-13.18-9.83a4.56 4.56 0 0 0-.95-.08 3.2 3.2 0 0 0-1.78.53 3.9 3.9 0 0 0-1.3 1.4h-.15l-.41-1.74h-2.15v10.37h2.83v-5.28c0-.83.25-1.48.76-1.94a3 3 0 0 1 2.1-.7c.33 0 .61.03.84.1l.21-2.66Zm-15.06 3.3h.95c.88 0 1.54-.17 1.98-.52.44-.35.66-.86.66-1.53s-.18-1.17-.55-1.49c-.37-.32-.95-.48-1.73-.48h-1.3v4.02Zm6.5-2.15c0 1.46-.46 2.57-1.38 3.35-.9.77-2.2 1.16-3.89 1.16h-1.23v4.82h-2.87V7.58h4.33c1.64 0 2.9.36 3.75 1.06.85.71 1.28 1.77 1.28 3.17Z" fill="#2D3748"/>
</svg>
