<svg xmlns="http://www.w3.org/2000/svg" width="64" height="64" fill-rule="evenodd"><path d="M.38 32C.38 49.463 14.536 63.62 32 63.62S63.62 49.463 63.62 32 49.464.38 32 .38.38 14.537.38 32z" fill="#1d4371"/><path d="M32 .001A31.79 31.79 0 0 0 9.374 9.373 31.79 31.79 0 0 0 0 32a31.78 31.78 0 0 0 9.374 22.627 31.79 31.79 0 0 0 22.625 9.372 31.78 31.78 0 0 0 22.627-9.374A31.79 31.79 0 0 0 64 32a31.79 31.79 0 0 0-9.374-22.627A31.79 31.79 0 0 0 31.999.001m0 .38C49.463.38 63.62 14.537 63.62 32S49.464 63.62 32 63.62.38 49.463.38 32 14.536.38 32 .38m21.182 45.816-6.3.5a2.634 2.634 0 0 1-1.848-.704l-2.28-2.197-2.258-2.12a1.32 1.32 0 0 0-.977-.307 1.306 1.306 0 0 0-1.192 1.224c-.02.302.064.603.24.85l3.993 4.774 1.42 1.55a2.11 2.11 0 0 1 .626 2.043 2.113 2.113 0 0 1-1.483 1.54 2.1 2.1 0 0 1-2.065-.55l-1.613-1.35-6.308-5.378a1.29 1.29 0 0 0-1.77.034l-6.105 5.607-1.562 1.4a2.105 2.105 0 0 1-3.598-.856 2.11 2.11 0 0 1 .567-2.074L22.04 48.6l3.8-4.873a1.39 1.39 0 0 0 .232-.903 1.313 1.313 0 0 0-1.237-1.178 1.316 1.316 0 0 0-.964.342l-2.18 2.2-2.196 2.283a2.63 2.63 0 0 1-1.822.772l-6.3-.273-2.104-.108a2.105 2.105 0 0 1-.077-4.209l2.097-.17 4.693-.584a2.644 2.644 0 0 0 2.112-2.638l-.27-14.543c-.144-7.758 6.028-14.165 13.787-14.3s14.165 6.028 14.3 13.787l.27 14.54a2.643 2.643 0 0 0 2.2 2.558l4.712.4 2.1.1a2.08 2.08 0 0 1 1.9.993c.397.656.422 1.48.04 2.152a2.1 2.1 0 0 1-1.87 1.064z" fill="#fff"/><path d="m41.553 23.552-5.108-3.3c-.91-.547-1.972.192-1.956 1.256.008.57.3.937.76 1.23l2.793 1.818-2.98 1.795c-.683.436-.835 1.214-.44 1.875.37.62 1.148.882 1.805.507l5.05-3c.8-.51.856-1.643.076-2.18m-13.18 2.64-2.746-1.638 2.714-1.763c.892-.584 1.12-1.37.626-2.1-.474-.696-1.266-.787-2.133-.228l-4.36 2.822c-1.214.793-1.192 1.92.057 2.668l4.408 2.607c.87.5 1.683.376 2.114-.336.436-.72.175-1.516-.68-2.034" fill="#1d4371"/></svg>