<?xml version="1.0" encoding="UTF-8" standalone="no"?>
<!-- Created with Inkscape (http://www.inkscape.org/) -->

<svg
   width="29.736492mm"
   height="29.736481mm"
   viewBox="0 0 29.736492 29.736481"
   version="1.1"
   id="svg5"
   xml:space="preserve"
   xmlns:inkscape="http://www.inkscape.org/namespaces/inkscape"
   xmlns:sodipodi="http://sodipodi.sourceforge.net/DTD/sodipodi-0.dtd"
   xmlns="http://www.w3.org/2000/svg"
   xmlns:svg="http://www.w3.org/2000/svg"><sodipodi:namedview
     id="namedview7"
     pagecolor="#ffffff"
     bordercolor="#000000"
     borderopacity="0.25"
     inkscape:showpageshadow="2"
     inkscape:pageopacity="0.0"
     inkscape:pagecheckerboard="true"
     inkscape:deskcolor="#d1d1d1"
     inkscape:document-units="mm"
     showgrid="false"
     showguides="false" /><defs
     id="defs2"><inkscape:path-effect
       effect="bspline"
       id="path-effect1161"
       is_visible="true"
       lpeversion="1"
       weight="33.333333"
       steps="2"
       helper_size="0"
       apply_no_weight="true"
       apply_with_weight="true"
       only_selected="false" /></defs><g
     inkscape:label="Layer 1"
     inkscape:groupmode="layer"
     id="layer1"
     transform="translate(-37.648641,-135.14714)"><g
       id="g2846"
       inkscape:export-filename="reddit.svg"
       inkscape:export-xdpi="96"
       inkscape:export-ydpi="96"><circle
         style="fill:#ff4301;fill-opacity:1;stroke-width:0.272095"
         id="path1099"
         cx="52.516884"
         cy="150.01538"
         r="14.868243" /><ellipse
         style="fill:#ffffff;fill-opacity:1;stroke-width:0.268918"
         id="path1173"
         cx="51.986668"
         cy="152.88908"
         rx="9.1099958"
         ry="6.320961" /><g
         id="g295"
         transform="translate(0.09121622,1.0489865)"
         style="fill:#ff4301;fill-opacity:1"><circle
           style="fill:#ff4301;fill-opacity:1;stroke-width:0.322881"
           id="path289"
           cx="48.549831"
           cy="150.50676"
           r="1.641892" /><circle
           style="fill:#ff4301;fill-opacity:1;stroke-width:0.322881"
           id="circle291"
           cx="55.84713"
           cy="150.50676"
           r="1.641892" /></g><path
         style="fill:#ff4301;fill-opacity:1;stroke-width:0.264583"
         d="m 51.572946,156.66337 c 0.150637,0.003 0.451629,0.008 0.774114,-0.008 0.322485,-0.0161 0.666472,-0.0538 0.999706,-0.10484 0.333233,-0.0511 0.655729,-0.11557 0.970125,-0.2177 0.314397,-0.10213 0.620765,-0.24188 0.865282,-0.38967 0.244516,-0.1478 0.427259,-0.30367 0.542781,-0.42724 0.115523,-0.12356 0.163901,-0.21494 0.161366,-0.29277 -0.0025,-0.0778 -0.0563,-0.14236 -0.158443,-0.15864 -0.102141,-0.0163 -0.252643,0.016 -0.381713,0.0697 -0.129069,0.0538 -0.236576,0.12901 -0.397808,0.22576 -0.161232,0.0967 -0.376222,0.21499 -0.588495,0.30368 -0.212274,0.0887 -0.421892,0.14781 -0.620746,0.19351 -0.198854,0.0457 -0.386979,0.078 -0.618101,0.11292 -0.231122,0.0349 -0.505238,0.0726 -0.720217,0.0914 -0.21498,0.0188 -0.370851,0.0188 -0.591219,0.0108 -0.220368,-0.008 -0.505241,-0.0242 -0.690686,-0.0323 -0.185445,-0.008 -0.27144,-0.008 -0.448797,-0.0322 -0.177357,-0.0242 -0.446104,-0.0725 -0.706787,-0.16922 -0.260683,-0.0967 -0.513298,-0.24181 -0.698735,-0.34931 -0.185436,-0.1075 -0.303685,-0.17737 -0.411177,-0.23383 -0.107492,-0.0564 -0.204236,-0.0994 -0.290291,-0.11835 -0.08605,-0.0189 -0.161283,-0.0135 -0.215179,0.0107 -0.0539,0.0242 -0.08615,0.0672 -0.0753,0.14529 0.01085,0.0781 0.0646,0.19093 0.1641,0.31453 0.0995,0.12359 0.244621,0.25796 0.443519,0.38153 0.198898,0.12357 0.451519,0.23645 0.765955,0.34392 0.314435,0.10747 0.690675,0.20959 0.997033,0.2633 0.306359,0.0537 0.542846,0.0591 0.660959,0.0618 0.118114,0.003 0.118113,0.003 0.26875,0.005 z"
         id="path1159"
         inkscape:path-effect="#path-effect1161"
         inkscape:original-d="m 51.422309,156.66068 c 0.301263,0.006 0.602261,0.011 0.902994,0.0161 0.34427,-0.0374 0.68826,-0.075 1.031994,-0.11288 0.32277,-0.0642 0.64526,-0.12873 0.967494,-0.1935 0.306644,-0.13948 0.61301,-0.27923 0.91912,-0.41924 0.183018,-0.15562 0.365763,-0.31149 0.548246,-0.46763 0.04864,-0.0911 0.09702,-0.18248 0.145124,-0.27412 -0.05349,-0.0642 -0.107233,-0.12874 -0.161248,-0.1935 -0.150238,0.0325 -0.300733,0.0648 -0.451498,0.0968 -0.107236,0.0755 -0.214733,0.15077 -0.322498,0.22575 -0.214739,0.11852 -0.429731,0.23676 -0.644996,0.35475 -0.209362,0.0594 -0.418984,0.11851 -0.62887,0.17737 -0.187864,0.0325 -0.375983,0.0648 -0.564372,0.0968 -0.273865,0.0379 -0.547984,0.0755 -0.82237,0.11287 -0.155612,2.7e-4 -0.311483,2.7e-4 -0.467622,0 -0.284615,-0.0158 -0.569484,-0.032 -0.85462,-0.0484 -0.08574,2.6e-4 -0.171735,2.6e-4 -0.257998,0 -0.268491,-0.0481 -0.537233,-0.0965 -0.806246,-0.14512 -0.252365,-0.14487 -0.504981,-0.28999 -0.75787,-0.43538 -0.117988,-0.0696 -0.236233,-0.13948 -0.354748,-0.20962 -0.09649,-0.0427 -0.193233,-0.0857 -0.290248,-0.129 -0.07498,0.006 -0.150235,0.011 -0.225747,0.0161 -0.03199,0.0433 -0.06424,0.0863 -0.09675,0.129 0.05401,0.11314 0.107765,0.22601 0.161248,0.33862 0.145394,0.13464 0.290513,0.26901 0.435375,0.40312 0.252891,0.11314 0.50551,0.22602 0.757869,0.33863 0.376518,0.10239 0.752758,0.20451 1.128742,0.30637 0.236768,0.006 0.473263,0.011 0.709496,0.0161 z" /><circle
         style="fill:#ffffff;fill-opacity:1;stroke-width:0.264583"
         id="path1163"
         cx="58.841515"
         cy="141.91228"
         r="1.6769897" /><g
         id="g1171"
         transform="translate(-40.699251,0.52916667)"><circle
           style="fill:#ffffff;fill-opacity:1;stroke-width:0.366346"
           id="circle1165"
           cx="84.576859"
           cy="149.45874"
           r="2.3219857" /><circle
           style="fill:#ffffff;fill-opacity:1;stroke-width:0.366346"
           id="circle1167"
           cx="101.21776"
           cy="149.39424"
           r="2.3219857" /></g><g
         id="g2831"
         style="fill:#ffffff;stroke:#ffffff;stroke-opacity:1"
         transform="translate(-68.49622,-1.5875)"><path
           style="opacity:1;fill:#ffffff;fill-opacity:1;stroke:#ffffff;stroke-width:0.741665;stroke-dasharray:none;stroke-opacity:1"
           d="m 120.68589,148.41556 1.14673,-5.93792"
           id="path2099" /><path
           style="opacity:1;fill:#ffffff;fill-opacity:1;stroke:#ffffff;stroke-width:0.741665;stroke-dasharray:none;stroke-opacity:1"
           d="m 127.4155,143.70588 -5.96517,-0.99538"
           id="path2101" /></g></g></g></svg>
