<svg xmlns="http://www.w3.org/2000/svg" preserveAspectRatio="xMidYMid" viewBox="0 0 256 296">
  <path d="M219 94.4V201l-90.6 53.5-.8.8V295l.8.8L256 222.2V73.7l-1.2-.3-36 20 .2 1" fill="#2F406A"/>
  <path d="m37.6 201.8 90.8 52.7V296L0 221.9V74l1.3-.1 35.9 20.8.4 1.2v106" fill="#2379BD"/>
  <path d="M37.6 95.8 0 74 128.1 0 256 73.7l-37 20.7-90.9-51.9-90.5 53.3" fill="#03AFEF"/>
  <path d="m126.9 189.6-1-1v-40l1-.5.2-1 34.3-20 1 .2v41.3l-35.5 21" fill="#2F406A"/>
  <path d="M90.7 169.9V127h1l34.9 20.3.3.8v41.5L90.7 170" fill="#2379BD"/>
  <path d="m126.3 106-35.6 21 36.2 21.1 35.6-20.8-36.2-21.3" fill="#03AFEF"/>
  <path d="m82.6 215.7-1-1v-40l1-.5.2-1 34.3-20 1 .2v41.3l-35.5 21" fill="#2F406A"/>
  <path d="M46.4 196V153h1l34.9 20.3.3.8v41.5L46.4 196" fill="#2379BD"/>
  <path d="m82 132-35.6 21.1 36.2 21.1 35.6-20.8L82 132.1" fill="#03AFEF"/>
  <path d="m174.3 216.7-1-1v-40l1-.5.3-1 34.3-20 1 .2v41.3l-35.6 21" fill="#2F406A"/>
  <path d="M138.2 197V154h1l34.9 20.3.3.8v41.5L138.1 197" fill="#2379BD"/>
  <path d="m173.8 133-35.6 21.1 36.2 21.1 35.6-20.8-36.2-21.3" fill="#03AFEF"/>
  <path d="m130 242.8-1-1v-40l1-.5.3-1 34.3-20 1 .2v41.3l-35.6 21" fill="#2F406A"/>
  <path d="M93.8 223v-42.8h1l35 20.3.2.8v41.5l-36.2-19.7" fill="#2379BD"/>
  <path d="m129.4 159.2-35.6 21 36.2 21.1 35.6-20.8-36.2-21.3" fill="#03AFEF"/>
  <path d="m126.9 132.9-1-1v-40l1-.6.2-1 34.3-20 1 .3v41.2l-35.5 21" fill="#2F406A"/>
  <path d="M90.7 113V70.4h1l34.9 20.2.3.8V133L90.7 113" fill="#2379BD"/>
  <path d="m126.3 49.2-35.6 21 36.2 21.1 35.6-20.7-36.2-21.4" fill="#03AFEF"/>
  <path d="m82.6 159-1-1v-40l1-.6.2-1 34.3-20 1 .3v41.2l-35.5 21" fill="#2F406A"/>
  <path d="M46.4 139.2V96.4h1l34.9 20.2.3.8V159l-36.2-19.8" fill="#2379BD"/>
  <path d="m82 75.3-35.6 21 36.2 21.1 35.6-20.7L82 75.3" fill="#03AFEF"/>
  <path d="m174.3 160-1-1v-40l1-.6.3-1 34.3-20 1 .3v41.2l-35.6 21" fill="#2F406A"/>
  <path d="M138.2 140.2V97.4h1l34.9 20.2.3.8V160l-36.2-19.8" fill="#2379BD"/>
  <path d="m173.8 76.3-35.6 21 36.2 21.1L210 97.7l-36.2-21.4" fill="#03AFEF"/>
  <path d="m130 186-1-1v-40l1-.5.3-1 34.3-20 1 .3V165L130 186" fill="#2F406A"/>
  <path d="M93.8 166.3v-42.8h1l35 20.2.2.8v41.6l-36.2-19.8" fill="#2379BD"/>
  <path d="m129.4 102.4-35.6 21 36.2 21.1 35.6-20.7-36.2-21.4" fill="#03AFEF"/>
</svg>
