<svg xmlns="http://www.w3.org/2000/svg" preserveAspectRatio="xMidYMid" viewBox="0 0 256 297">
  <defs>
    <linearGradient x1="82.2%" y1="6%" x2="34.6%" y2="106.1%" id="a">
      <stop stop-color="#2B3990" offset="0%"/>
      <stop stop-color="#1E62A7" offset="16%"/>
      <stop stop-color="#1485BC" offset="32%"/>
      <stop stop-color="#0BA1CC" offset="49%"/>
      <stop stop-color="#05B4D7" offset="66%"/>
      <stop stop-color="#01C0DE" offset="83%"/>
      <stop stop-color="#00C4E0" offset="100%"/>
    </linearGradient>
    <linearGradient x1="-31668%" y1="78954%" x2="-19806%" y2="78954%" id="b">
      <stop stop-color="#2B3990" offset="0%"/>
      <stop stop-color="#1E62A7" offset="16%"/>
      <stop stop-color="#1485BC" offset="32%"/>
      <stop stop-color="#0BA1CC" offset="49%"/>
      <stop stop-color="#05B4D7" offset="66%"/>
      <stop stop-color="#01C0DE" offset="83%"/>
      <stop stop-color="#00C4E0" offset="100%"/>
    </linearGradient>
  </defs>
  <path d="M22 218.3c98.8 9.8 178.2-48.6 198-73.7C239.8 119.6 209.8 0 209.8 0 177.2 80 118 201.1 21.9 218.4Z" fill="url(#a)" style="mix-blend-mode:multiply"/>
  <path d="M67.7 186.4C126 188.6 170.4 152 181 136.7c10.7-15.2-5.7-83.7-5.7-83.7-16.2 47.5-61.3 116.6-107.7 133.4Z" fill="url(#b)" style="mix-blend-mode:multiply"/>
  <path d="M3.8 270a21 21 0 0 0 6.3 4.4c2.4 1.1 5 1.7 7.6 1.7a12 12 0 0 0 7.7-2.2 7.1 7.1 0 0 0 2.8-5.9 7 7 0 0 0-2.4-5.5c-.8-.6-1.7-1.2-2.7-1.6l-3.2-1.6-7.2-3c-1.3-.6-2.5-1.2-3.6-1.9-1.2-.7-2.3-1.6-3.3-2.6s-1.8-2.2-2.4-3.5A12.4 12.4 0 0 1 7 234c1.4-1.2 3.1-2.1 5-2.7a20.4 20.4 0 0 1 21.1 5.1l-3.5 4a15.4 15.4 0 0 0-11.4-4.7 11 11 0 0 0-6.8 2 6.3 6.3 0 0 0-2.6 5.4c0 1 .3 2 .8 3 .5.8 1.2 1.6 2 2.1a49.6 49.6 0 0 0 5.7 3l7 3 4.2 2.1c1.2.8 2.3 1.7 3.3 2.8a11.8 11.8 0 0 1 3 8.4 12.9 12.9 0 0 1-4.7 9.9 16.3 16.3 0 0 1-5.3 3A24.4 24.4 0 0 1 0 274.3l3.8-4.4Z" fill="#149CB5"/>
  <path d="M40.8 283.9v12.3h-6v-52h5l.4 4.1h.3a27 27 0 0 1 5.3-3.6 13.4 13.4 0 0 1 12.1-.1c1.7.8 3.2 2.1 4.4 3.7a18 18 0 0 1 2.6 6 30 30 0 0 1-.3 16c-.8 2.2-1.9 4.4-3.4 6.2a14.3 14.3 0 0 1-10.7 5.2c-1.8 0-3.4-.4-5-1-1.7-1-3.4-2-5-3.2l.3 6.4Zm0-11.3c1.3 1.3 3 2.3 4.6 3 1.3.5 2.7.8 4 .9 1.4 0 2.8-.4 4-1a9.8 9.8 0 0 0 3.3-3c1-1.3 1.7-2.8 2.1-4.5a27.4 27.4 0 0 0 .3-11.6c-.3-1.4-.9-2.9-1.7-4.2a8 8 0 0 0-7.2-3.7c-1.6 0-3.2.5-4.6 1.3-1.7 1-3.4 2.3-4.9 3.7v19.1ZM72.2 236.4c-1.2 0-2.3-.4-3.2-1.1a3.8 3.8 0 0 1-1.3-2.8c0-1.1.4-2.1 1.3-2.9a5.5 5.5 0 0 1 6.5 0c.8.8 1.3 1.8 1.3 2.9 0 1-.5 2-1.3 2.8-1 .7-2 1.1-3.3 1.1Zm-3.3 7.4h6.5v36H69v-36ZM80.5 244h5.1l.5 5.2h.3c1.6-1.6 3.4-3 5.4-4.3 2-1.2 4.4-1.8 6.8-1.7 3.8 0 6.6 1.2 8.4 3.5 1.8 2.4 2.7 5.9 2.7 10.5v22.6h-6.1V258c0-3.4-.6-5.8-1.7-7.3a6 6 0 0 0-5.2-2.3 9 9 0 0 0-5 1.4 32.3 32.3 0 0 0-5 4.1v25.9h-6l-.2-35.7ZM113.4 244h5l.6 5.2h.2c1.7-1.6 3.5-3 5.5-4.3 2-1.2 4.4-1.8 6.8-1.7 3.8 0 6.6 1.2 8.4 3.5 1.8 2.4 2.7 5.9 2.7 10.5v22.6h-6.2V258c0-3.4-.6-5.8-1.7-7.3a6 6 0 0 0-5.2-2.3c-1.8 0-3.6.5-5 1.4a32.4 32.4 0 0 0-5 4.1v25.9h-6.1V244ZM146.3 271.2c0-3.9 2-7.4 5.5-9.2a46 46 0 0 1 17.4-4.5c0-1.1 0-2.3-.3-3.4a8 8 0 0 0-1.2-3 6.6 6.6 0 0 0-2.4-2 7.8 7.8 0 0 0-3.7-.8c-2.1 0-4.2.4-6.1 1.2-1.8.8-3.5 1.7-5 2.7l-2.6-4.2a41 41 0 0 1 6.4-3.2c2.6-1.1 5.4-1.6 8.3-1.6 4.5 0 7.8 1.4 9.9 4 2.1 3.3 3.2 7.1 3 11v22.5h-5.2l-.5-4.4h-.2a31 31 0 0 1-5.7 3.7c-2 1-4.3 1.6-6.6 1.6-2.9 0-5.7-.9-7.8-2.7a9.7 9.7 0 0 1-3.2-7.7Zm6.2-.4c-.2 1.7.5 3.4 1.9 4.5 1.3 1 3 1.4 4.6 1.3a11 11 0 0 0 5.1-1.2c1.8-1 3.6-2.2 5.1-3.7v-10.1c-2.7.3-5.3.8-7.9 1.4a21 21 0 0 0-5.2 2c-1 .6-2 1.5-2.7 2.5-.6 1-.9 2.1-.9 3.3ZM177.4 226.7h6.2v36h.2l15.9-19.1h7l-12.5 14.5 14.3 21.7h-7l-10.9-17.5-6.9 7.9v9.5h-6.2z" fill="#149CB5"/>
  <path d="M203 262.6c0-2.8.4-5.6 1.3-8.2a19 19 0 0 1 3.7-6 16 16 0 0 1 11.4-5.2c2.1 0 4.3.4 6.2 1.2 1.8.8 3.4 2 4.6 3.5 1.3 1.6 2.3 3.4 2.9 5.4a23.8 23.8 0 0 1 .7 10.5h-24.7c0 3.4 1.4 6.8 3.7 9.4 2.2 2.3 5.3 3.5 8.6 3.4 1.6 0 3.3-.2 4.8-.8 1.5-.5 3-1.2 4.3-2l2.2 4c-1.7 1-3.5 2-5.4 2.7a18.7 18.7 0 0 1-19.2-4c-1.6-1.7-2.9-3.8-3.7-6-1-2.5-1.4-5.2-1.4-8Zm25.7-2.8c0-3.8-.8-6.7-2.4-8.6a8 8 0 0 0-6.7-3 9 9 0 0 0-3.7.8c-1.3.5-2.3 1.3-3.3 2.2a12 12 0 0 0-2.3 3.6c-.7 1.6-1.1 3.3-1.3 5h19.7ZM235.9 244h5.1l.5 6.5h.3c1-2 2.6-3.9 4.5-5.3a9.9 9.9 0 0 1 9.7-1.3l-1.2 5.3-1.7-.4a8.2 8.2 0 0 0-6.7 1.7c-2 1.7-3.5 4-4.4 6.4v22.9H236V244Z" fill="#149CB5"/>
</svg>
