<svg width="256" height="252" xmlns="http://www.w3.org/2000/svg" preserveAspectRatio="xMidYMid"><g fill="#8E75FF"><path d="M249.868 0H81.613v84.362h82.79a5.343 5.343 0 0 1 5.342 5.342v81.647h85.465V5.352A5.342 5.342 0 0 0 249.868 0Z"/><path d="M81.603 0v84.362H2.671a2.676 2.676 0 0 1-1.875-4.58L81.603 0Zm92.693 251.22a2.676 2.676 0 0 1-4.551-1.904v-77.965h85.465l-80.914 79.86v.01ZM81.603 84.362h85.476a2.67 2.67 0 0 1 2.666 2.666v84.323h-82.79a5.342 5.342 0 0 1-5.342-5.342V84.362h-.01Z" opacity=".405"/></g></svg>