<svg xmlns="http://www.w3.org/2000/svg" preserveAspectRatio="xMidYMid" viewBox="0 0 256 256">
  <path d="M128 250a122 122 0 1 1 0-244 122 122 0 0 1 0 244Z" fill="#85EA2D"/>
  <path d="M128 12a116 116 0 1 1 0 232 116 116 0 0 1 0-232m0-12a128 128 0 1 0 0 256 128 128 0 0 0 0-256Z" fill="#173647"/>
  <path d="m81 87-1 13-1 13c-2 6-5 11-11 15 11 7 12 17 13 28v17c1 5 2 6 7 6h6v14c-14 2-25-2-27-13l-2-13v-14c-1-12-3-17-15-17v-16h3c6-1 9-3 11-9l1-11 1-22c2-10 8-15 19-15h9v14h-4c-8 0-9 3-9 10Zm16 32a9 9 0 0 0-1 18c5 0 10-3 10-8v-1c0-5-4-9-9-9Zm31 0a9 9 0 0 0-9 9c0 6 4 9 9 9 6 0 9-4 9-9s-4-9-9-9Zm31 0a9 9 0 0 0 0 18c5 1 9-4 10-9 0-5-5-9-10-9Zm44 1c-6-1-9-2-10-8l-2-10-1-20c-1-16-12-21-28-19v14h6c4 0 6 1 7 5v11l3 21c1 6 5 11 10 14-9 6-11 14-12 24l-1 19c0 6-2 8-8 8h-5v14h10c10 0 16-5 18-15l1-16 1-15c1-7 4-10 12-11h2v-16h-3Z" fill="#173647"/>
</svg>
