<svg xmlns="http://www.w3.org/2000/svg" preserveAspectRatio="xMidYMid" viewBox="0 0 256 256">
  <defs>
    <radialGradient cx="50.28%" cy="49.85%" fx="50.28%" fy="49.85%" r="50.33%" gradientTransform="matrix(1 0 0 .99252 0 0)" id="a">
      <stop stop-color="#E33332" offset="0%"/>
      <stop stop-color="#E03330" offset="20%"/>
      <stop stop-color="#D52E2C" offset="38%"/>
      <stop stop-color="#C32827" offset="54%"/>
      <stop stop-color="#A91F23" offset="71%"/>
      <stop stop-color="#89181A" offset="86%"/>
      <stop stop-color="#640E0E" offset="100%"/>
    </radialGradient>
    <radialGradient cx="50.88%" cy="49.58%" fx="50.88%" fy="49.58%" r="91.64%" gradientTransform="matrix(1 0 0 .41938 0 .29)" id="d">
      <stop stop-color="#F7B3C5" offset="0%"/>
      <stop stop-color="#F7B0C2" offset="19%"/>
      <stop stop-color="#F6A4B6" offset="38%"/>
      <stop stop-color="#F390A5" offset="58%"/>
      <stop stop-color="#E7728B" offset="79%"/>
      <stop stop-color="#DC4D6C" offset="99%"/>
      <stop stop-color="#DA4B6A" offset="100%"/>
    </radialGradient>
    <radialGradient cx="50.54%" cy="49.74%" fx="50.54%" fy="49.74%" r="56.12%" gradientTransform="matrix(.81559 0 0 1 .1 0)" id="e">
      <stop stop-color="#F7B3C5" offset="0%"/>
      <stop stop-color="#F7B0C2" offset="19%"/>
      <stop stop-color="#F6A4B6" offset="38%"/>
      <stop stop-color="#F390A5" offset="58%"/>
      <stop stop-color="#E7728B" offset="79%"/>
      <stop stop-color="#DC4D6C" offset="99%"/>
      <stop stop-color="#DA4B6A" offset="100%"/>
    </radialGradient>
    <radialGradient cx="51.99%" cy="49.58%" fx="51.99%" fy="49.58%" r="91.66%" gradientTransform="matrix(1 0 0 .41925 0 .29)" id="h">
      <stop stop-color="#F7B3C5" offset="0%"/>
      <stop stop-color="#F7B0C2" offset="19%"/>
      <stop stop-color="#F6A4B6" offset="38%"/>
      <stop stop-color="#F390A5" offset="58%"/>
      <stop stop-color="#E7728B" offset="79%"/>
      <stop stop-color="#DC4D6C" offset="99%"/>
      <stop stop-color="#DA4B6A" offset="100%"/>
    </radialGradient>
    <linearGradient x1="0%" y1="49.97%" x2="100%" y2="49.97%" id="b">
      <stop stop-color="#F7B3C5" offset="0%"/>
      <stop stop-color="#F7B0C2" offset="19%"/>
      <stop stop-color="#F6A4B6" offset="38%"/>
      <stop stop-color="#F390A5" offset="58%"/>
      <stop stop-color="#E7728B" offset="79%"/>
      <stop stop-color="#DC4D6C" offset="99%"/>
      <stop stop-color="#DA4B6A" offset="100%"/>
    </linearGradient>
    <linearGradient x1=".03%" y1="26.46%" x2="100.02%" y2="26.46%" id="c">
      <stop stop-color="#F7B3C5" offset="0%"/>
      <stop stop-color="#F7B0C2" offset="19%"/>
      <stop stop-color="#F6A4B6" offset="38%"/>
      <stop stop-color="#F390A5" offset="58%"/>
      <stop stop-color="#E7728B" offset="79%"/>
      <stop stop-color="#DC4D6C" offset="99%"/>
      <stop stop-color="#DA4B6A" offset="100%"/>
    </linearGradient>
    <linearGradient x1="0%" y1="50%" x2="100%" y2="50%" id="f">
      <stop stop-color="#DA4B6A" offset="0%"/>
      <stop stop-color="#DC4D6C" offset="1%"/>
      <stop stop-color="#E7728B" offset="21%"/>
      <stop stop-color="#F390A5" offset="42%"/>
      <stop stop-color="#F6A4B6" offset="62%"/>
      <stop stop-color="#F7B0C2" offset="81%"/>
      <stop stop-color="#F7B3C5" offset="100%"/>
    </linearGradient>
    <linearGradient x1="0%" y1="26.48%" x2="99.97%" y2="26.48%" id="g">
      <stop stop-color="#DA4B6A" offset="0%"/>
      <stop stop-color="#DC4D6C" offset="1%"/>
      <stop stop-color="#E7728B" offset="21%"/>
      <stop stop-color="#F390A5" offset="42%"/>
      <stop stop-color="#F6A4B6" offset="62%"/>
      <stop stop-color="#F7B0C2" offset="81%"/>
      <stop stop-color="#F7B3C5" offset="100%"/>
    </linearGradient>
  </defs>
  <path d="M249.81 103.82c6.3 24.53-20.75 53.25-54.59 45.11 43.1-31.34 23.4-71.49.62-90.75-24.7-20.88-.79-27.58 7.18-20.01-.2-15.26-53.91-11.81-6.93 37.18 24.14 25.16-4.33 80.83-38.26 38.5-.28-.38-.53-.79-.76-1.2 5.48-2.28 9.98-8.47 9.98-18.66.05-3.6-.66-7.18-2.1-10.5 3.92-7.98 7.52-17.52 7.52-29.47C172.47 25.46 153.94 0 127.99 0c-25.95 0-44.48 25.46-44.48 54.02 0 11.95 3.61 21.5 7.53 29.49a25.28 25.28 0 0 0-2.1 10.51c0 10.2 4.49 16.38 9.98 18.66-.23.41-.49.82-.77 1.2-33.93 42.33-62.41-13.35-38.26-38.5 47-49-6.74-52.43-6.94-37.18 7.97-7.56 31.89-.86 7.18 20.01-22.77 19.21-42.46 59.37.62 90.75-33.83 8.14-60.87-20.58-54.59-45.1-10.98 20.21-2.84 58.45 40.74 65.83-46.4 10.64-32.43 74.7.23 64.45-28.01-1.65-24.9-33.89-13.57-43.6 12.54-10.74 28.39-3.17 57.3-8.01-.32 26.02 25.02 40 11.73 54.9-14.08 15.78-33.36-1.26-30.39-16.76-13.44 27.83 24.84 49.97 41.62 17.65 12.93-24.86-21.43-69.75 14.15-69.75s1.21 44.84 14.15 69.75c16.78 32.36 55.06 10.18 41.62-17.65 2.94 15.51-16.3 32.54-30.38 16.77-13.23-14.95 12.04-28.93 11.77-54.95 28.89 4.84 44.74-2.74 57.26 8.01 11.36 9.71 14.46 41.95-13.55 43.6 32.71 10.3 46.66-53.78.25-64.45 43.55-7.37 51.7-45.62 40.72-65.83Z" fill="url(#a)"/>
  <path d="M34.1 192.49c12.53-10.75 26.91-1.35 56.78-10 0 0 .42-7.99.8-13.91-9.1 6.85-25.74 5.96-39.63 8-45.7 6.7-35.56 61.6-4.92 57.56-22.67-3.72-24.37-31.94-13.03-41.65Z" fill="url(#b)"/>
  <path d="M93.44 153.14c5.05-7.82 5.68-20.41-4.54-8.96-34.53 38.7-94.45 7.08-82.71-40.35C-6.45 121-.38 165.85 46.93 169.66c11.88-3.95 36.33-.9 46.5-16.52Z" fill="url(#c)"/>
  <path d="M60.76 148.93s12.13-1.24 20-10.48c-31.98 11.89-58.21-39.68-18.2-74.54 31.11-27.08-.56-37.76-9.64-25.74 3.35-3.31 30.46-1.44 5.75 19.45-22.73 19.26-46.82 59.24 2.09 91.31Z" fill="url(#d)"/>
  <path d="M150.99 242.65c-13.32-14.9 0-28.36 2.44-51.84 1.62-15.84-4.3-33.37-25.43-33.37-21.14 0-27.06 17.56-25.43 33.37 2.41 23.48 15.75 36.94 2.44 51.84-14.07 15.76-40.38-.67-32.78-22.02-18.71 31.07 28.78 50.41 45.56 18.1 12.92-24.86-25.37-68.45 10.21-68.45s-2.7 43.59 10.21 68.46c16.78 32.3 64.26 12.96 45.55-18.1 7.6 21.34-18.7 37.76-32.77 22.01Z" fill="url(#e)"/>
  <path d="M203.95 176.58c-13.9-2.02-30.55-1.15-39.63-8 .4 5.92.8 13.92.8 13.92 29.86 8.64 44.24-.77 56.77 9.99 11.34 9.7 9.64 37.93-13.07 41.6 30.68 4.1 40.84-50.81-4.87-57.5Z" fill="url(#f)"/>
  <path d="M249.81 103.82c11.74 47.42-48.18 79.05-82.72 40.34-10.22-11.46-9.62 1.15-4.53 8.97 10.18 15.63 34.62 12.57 46.5 16.52 47.32-3.8 53.39-48.67 40.75-65.83Z" fill="url(#g)"/>
  <path d="M175.25 138.45c7.86 9.24 19.98 10.48 19.98 10.48 48.9-32.03 24.82-72.06 2.02-91.31-24.71-20.89 2.4-22.76 5.75-19.45-9.1-12.02-40.75-1.34-9.64 25.74 40.08 34.86 13.85 86.43-18.11 74.54Z" fill="url(#h)"/>
  <path d="M141.14 35.54c0 7.88-13.14 7.88-13.14 0 0-7.89 13.14-7.88 13.14 0Zm-20.7 7.22c0 5.42-9.02 5.42-9.02 0 0-5.43 9.03-5.43 9.03 0Zm5.77-24.98c0 5.44-9.04 5.44-9.04 0s9.04-5.39 9.04 0ZM107.4 56.31c0 2.72-4.52 2.72-4.52 0s4.52-2.72 4.52 0Zm.86-26.69c0 3.76-6.25 3.76-6.25 0s6.25-3.75 6.25 0ZM126.2 62.7c0 3.77-6.25 3.77-6.25 0s6.25-3.74 6.25 0Z" fill="#4B1313" opacity=".3"/>
  <path d="M111.95 94c0 14.33-16.26 14.33-16.26 0 0-14.34 16.26-14.34 16.26 0Z" fill="#302D3B"/>
  <path d="M103.62 90.34a2.5 2.5 0 1 1-5 0 2.5 2.5 0 1 1 5 0Z" fill="#6F828A"/>
  <path d="M160.35 94c0 14.33-16.26 14.33-16.26 0 0-14.34 16.26-14.34 16.26 0Z" fill="#302D3B"/>
  <path d="M151.97 90.34a2.5 2.5 0 1 1-5 0 2.5 2.5 0 1 1 5 0Z" fill="#6F828A"/>
  <path d="M120.45 122.52c0 8.17-.68 14.79-1.46 14.79-.78 0-1.4-6.62-1.4-14.78.02-8.15.69-14.78 1.47-14.78.8 0 1.4 6.6 1.39 14.77Z" fill="#9E1C20"/>
  <ellipse fill="#9E1C20" cx="128.26" cy="122.51" rx="1.07" ry="17.36"/>
  <path d="M138.4 122.33c0 7.97-.66 14.43-1.42 14.43-.77 0-1.35-6.44-1.34-14.42.01-7.97.67-14.42 1.42-14.42.75 0 1.36 6.45 1.33 14.41Z" fill="#9E1C20"/>
  <path d="M199.04 145.1c-1.67-2.22 8.1-9.56 9.79-7.33 1.7 2.23-8.12 9.56-9.79 7.33Z" fill="#F389A4"/>
  <path d="M201.47 143.72c-.76-1 4.59-5.05 5.36-4.04.77 1.01-4.6 5.07-5.36 4.04Z" fill="#E34E70"/>
  <path d="M204.83 135.32c-2.03-1.94 5.4-9.57 7.4-7.63 2 1.94-5.44 9.58-7.4 7.63Z" fill="#F389A4"/>
  <path d="M206.73 133.84c-.92-.9 3.14-5.06 4.04-4.18.9.88-3.13 5.07-4.04 4.18Z" fill="#E34E70"/>
  <path d="M215.35 121.16c-2.67-.82.43-11 3.1-10.18 2.67.82-.48 11-3.1 10.18Z" fill="#F7B3C5"/>
  <path d="M216.39 118.96c-1.22-.38.49-5.94 1.69-5.58 1.2.37-.49 5.95-1.69 5.58Z" fill="#E34E70"/>
  <path d="M188.05 144.73c-1.19-2.53 9.54-7.55 10.71-5 1.17 2.53-9.54 7.52-10.71 5Z" fill="#F389A4"/>
  <path d="M190.67 143.92c-.53-1.17 5.32-3.9 5.87-2.75.54 1.15-5.4 3.9-5.87 2.75Z" fill="#E34E70"/>
  <path d="M214.93 130.3c-2.33-1.5 3.45-10.44 5.78-8.92 2.32 1.53-3.42 10.45-5.78 8.93Z" fill="#F7B3C5"/>
  <path d="M216.56 128.48c-1.07-.7 2.1-5.58 3.16-4.9 1.06.7-2.1 5.59-3.16 4.9Z" fill="#E34E70"/>
  <path d="M171.78 159.11c1.08-2.76 11.12 1.2 10.1 3.97-1 2.77-11.2-1.2-10.1-3.97Z" fill="#F389A4"/>
  <path d="M173.92 160.34c.5-1.27 6 .9 5.52 2.16-.48 1.25-6.02-.87-5.52-2.16Z" fill="#E34E70"/>
  <path d="M185.92 162.36c.76-3.45 11.12-1.15 10.37 2.3-.74 3.44-11.14 1.15-10.37-2.3Z" fill="#F389A4"/>
  <path d="M188.18 163.37c.35-1.59 6.06-.32 5.68 1.24-.39 1.57-6.04.28-5.68-1.24Z" fill="#E34E70"/>
  <path d="M163 147.1c2.55-2.8 11.3 5.17 8.77 7.96-2.54 2.79-11.31-5.16-8.76-7.96Z" fill="#F389A4"/>
  <path d="M164.66 149.21c1.18-1.28 5.96 3.09 4.8 4.36-1.17 1.28-5.96-3.03-4.8-4.36Z" fill="#E34E70"/>
  <path d="M199.88 166.23c0-2.4 8.98-2.22 8.93.18-.05 2.4-8.99 2.24-8.93-.18Z" fill="#F7B3C5"/>
  <path d="M201.88 166.58c0-1.1 4.9-1 4.9.08-.01 1.1-4.92 1.02-4.9-.08Z" fill="#E34E70"/>
  <path d="M166.73 175.7c.75-3.44 11.12-1.15 10.38 2.3-.74 3.45-11.14 1.15-10.38-2.3Z" fill="#F389A4"/>
  <path d="M168.98 176.66c.35-1.58 6.07-.33 5.68 1.25-.38 1.57-6.03.31-5.68-1.25Z" fill="#E34E70"/>
  <path d="M121.7 164.45c0-3.53 12.55-3.7 12.6-.16.05 3.54-12.56 3.7-12.6.16Z" fill="#F389A4"/>
  <path d="M124.55 164.87c0-1.62 6.87-1.71 6.9-.1.03 1.6-6.88 1.7-6.9.1Z" fill="#E34E70"/>
  <path d="M137.96 168.68c2.45-2.54 10.1 4.89 7.6 7.42-2.49 2.52-10.06-4.89-7.6-7.42Z" fill="#F389A4"/>
  <path d="M139.36 170.68c1.14-1.16 5.3 2.9 4.19 4.04-1.11 1.14-5.3-2.9-4.19-4.04Z" fill="#E34E70"/>
  <path d="M150.12 178.72c3.52.19 2.93 10.81-.6 10.62-3.53-.19-2.93-10.8.6-10.62Z" fill="#F7B3C5"/>
  <path d="M149.53 181.1c1.62.08 1.3 5.9-.3 5.8-1.6-.09-1.3-5.9.3-5.8Z" fill="#E34E70"/>
  <path d="M144.06 189.44c3.46.71 1.34 11.12-2.12 10.45-3.46-.68-1.33-11.14 2.12-10.45Z" fill="#F7B3C5"/>
  <path d="M143.16 191.68c1.59.33.43 6.06-1.15 5.72-1.58-.34-.43-6 1.15-5.72Z" fill="#E34E70"/>
  <path d="M147.48 200.53c3.46.71 1.33 11.12-2.12 10.44-3.46-.69-1.34-11.13 2.12-10.44Z" fill="#F7B3C5"/>
  <path d="M146.56 202.8c1.59.32.43 6.06-1.15 5.71-1.59-.35-.42-6.04 1.15-5.71Z" fill="#E34E70"/>
  <path d="M139.56 212.1c3.45.7 1.34 11.12-2.12 10.42-3.46-.7-1.35-11.13 2.12-10.42Z" fill="#F7B3C5"/>
  <path d="M138.63 214.36c1.6.34.44 6.07-1.14 5.72-1.57-.36-.4-6.04 1.14-5.72Z" fill="#E34E70"/>
  <path d="M141.53 224.3c3.51.12 3.12 10.76-.4 10.63-3.54-.13-3.14-10.77.4-10.64Z" fill="#F7B3C5"/>
  <path d="M140.98 226.69c1.63.07 1.4 5.88-.2 5.82-1.61-.06-1.4-5.88.2-5.82Z" fill="#E34E70"/>
  <path d="M139.77 239.36c2.74-2.23 8.35 4.69 5.6 6.91-2.75 2.23-8.34-4.7-5.6-6.91Z" fill="#F7B3C5"/>
  <path d="M140.69 241.22c1.26-1.01 4.32 2.77 3.03 3.78-1.3 1-4.28-2.77-3.03-3.78Z" fill="#E34E70"/>
  <path d="M149 245.9c1.42-2.56 7.9 1.02 6.48 3.57-1.42 2.54-7.89-1-6.47-3.56Z" fill="#F389A4"/>
  <path d="M150.29 247.04c.65-1.18 4.18.77 3.55 1.93-.64 1.16-4.2-.76-3.55-1.93Z" fill="#E34E70"/>
  <path d="M157.17 253.73c.22-2.66 6.56-2.14 6.34.52-.22 2.66-6.56 2.13-6.34-.52Z" fill="#F389A4"/>
  <path d="M158.58 254.18c.1-1.22 3.57-.94 3.48.27-.1 1.21-3.58.92-3.48-.27Z" fill="#E34E70"/>
  <path d="M166.05 252.15c-.57-2.37 5.05-3.74 5.64-1.37.59 2.37-5.06 3.73-5.64 1.37Z" fill="#F389A4"/>
  <path d="M167.42 252.13c-.25-1.08 2.83-1.82 3.1-.76.26 1.06-2.86 1.84-3.1.76Z" fill="#E34E70"/>
  <path d="M174.56 252.34c-.93-2.26 4.44-4.48 5.36-2.23.92 2.26-4.4 4.43-5.36 2.23Z" fill="#F389A4"/>
  <path d="M175.88 252.06c-.41-1 2.52-2.23 2.95-1.22.42 1.01-2.52 2.26-2.95 1.22Z" fill="#E34E70"/>
  <path d="M179.35 246.33c-1.78-1.66 2.19-5.91 3.95-4.25 1.77 1.65-2.17 5.91-3.95 4.25Z" fill="#F389A4"/>
  <path d="M180.47 245.57c-.8-.76 1.35-3.09 2.16-2.33.8.76-1.35 3.1-2.16 2.33Z" fill="#E34E70"/>
  <path d="M185.9 238.73c-2.34-.67-.73-6.26 1.61-5.57 2.33.69.7 6.26-1.62 5.57Z" fill="#F389A4"/>
  <path d="M186.55 237.56c-1.01-.32-.18-3.37.88-3.04 1.06.34.21 3.36-.88 3.04Z" fill="#E34E70"/>
  <path d="M179.64 184.17c.3-3.51 10.9-2.6 10.58.93-.31 3.52-10.9 2.6-10.58-.93Z" fill="#F389A4"/>
  <path d="M181.99 184.82c.15-1.62 5.93-1.1 5.8.5-.15 1.6-5.94 1.1-5.8-.5Z" fill="#E34E70"/>
  <path d="M192.35 180.46c.07-3.46 10.7-3.25 10.62.23-.08 3.48-10.7 3.25-10.62-.23Z" fill="#F7B3C5"/>
  <path d="M194.72 180.96c0-1.6 5.84-1.47 5.81.11-.03 1.58-5.81 1.5-5.81-.11Z" fill="#E34E70"/>
  <path d="M204.4 184.86c.75-3.33 10-1.22 9.22 2.14-.79 3.35-10 1.22-9.23-2.14Z" fill="#F7B3C5"/>
  <path d="M206.38 185.77c.36-1.52 5.41-.36 5.06 1.16-.36 1.51-5.41.38-5.06-1.16Z" fill="#E34E70"/>
  <path d="M217.25 185.12c1.57-3.04 9.3.93 7.71 4.04-1.58 3.11-9.28-.98-7.71-4.04Z" fill="#FACFDA"/>
  <path d="M218.8 186.41c.72-1.4 4.93.79 4.23 2.16-.7 1.38-4.95-.77-4.23-2.16Z" fill="#E34E70"/>
  <path d="M225.4 193.87c2.55-1.15 5.49 5.34 2.92 6.5-2.57 1.14-5.5-5.34-2.92-6.5Z" fill="#FACFDA"/>
  <path d="M225.73 195.5c1.17-.54 2.77 3.03 1.62 3.54-1.15.5-2.8-3.03-1.62-3.54Z" fill="#E34E70"/>
  <path d="M232.56 201.7c2.8 0 2.78 7.13 0 7.08-2.78-.05-2.8-7.08 0-7.07Z" fill="#FACFDA"/>
  <path d="M232.19 203.32c1.3 0 1.28 3.9 0 3.9s-1.27-3.9 0-3.9Z" fill="#E34E70"/>
  <path d="M229.82 210.89c2.5.45 1.33 6.83-1.18 6.36-2.5-.48-1.33-6.8 1.18-6.36Z" fill="#FACFDA"/>
  <path d="M229.23 212.3c1.16.22.51 3.7-.63 3.49-1.14-.21-.52-3.7.63-3.49Z" fill="#E34E70"/>
  <path d="M230.1 220.12c2.02 1.12-.85 6.23-2.87 5.05-2.02-1.18.85-6.2 2.87-5.05Z" fill="#FACFDA"/>
  <path d="M229.23 221.12c.92.52-.65 3.31-1.57 2.79-.92-.53.64-3.3 1.57-2.8Z" fill="#E34E70"/>
  <path d="M224.1 226.91c1.4 1.37-2.08 4.94-3.48 3.56-1.4-1.39 2.07-4.94 3.47-3.56Z" fill="#FACFDA"/>
  <path d="M223.13 227.54c.65.63-1.26 2.58-1.9 1.95-.63-.63 1.26-2.58 1.9-1.95Z" fill="#E34E70"/>
  <path d="M210.6 164.77c-.8-3.36 9.54-5.82 10.35-2.43.8 3.38-9.54 5.83-10.35 2.43Z" fill="#F7B3C5"/>
  <path d="M213.05 164.66c-.36-1.55 5.28-2.89 5.66-1.35.37 1.53-5.3 2.89-5.66 1.35Z" fill="#E34E70"/>
  <path d="M223.85 165.68c-1.01-2.88 9.02-6.4 10.03-3.5 1 2.89-9.03 6.4-10.03 3.5Z" fill="#FACFDA"/>
  <path d="M226.25 165.26c-.47-1.34 5.05-3.25 5.49-1.93.43 1.31-5.03 3.25-5.5 1.93Z" fill="#E34E70"/>
  <path d="M232.9 158.12c-2.02-2.27 5.82-9.42 7.88-7.16 2.06 2.27-5.83 9.43-7.88 7.16Z" fill="#FACFDA"/>
  <path d="M234.94 156.79c-.94-1.01 3.38-4.95 4.3-3.93.94 1.03-3.36 4.96-4.3 3.93Z" fill="#E34E70"/>
  <path d="M245.77 150.8c-2.56-1.7 3.35-10.56 5.9-8.86 2.55 1.7-3.38 10.55-5.9 8.85Z" fill="#FACFDA"/>
  <path d="M247.41 149c-1.16-.79 2.08-5.6 3.23-4.85 1.15.76-2.06 5.62-3.23 4.85Z" fill="#E34E70"/>
  <path d="M249.4 138.16c-2.88-1.08.9-11.03 3.76-9.95 2.85 1.07-.91 11.05-3.76 9.95Z" fill="#FACFDA"/>
  <path d="M250.6 136.07c-1.3-.5.77-5.94 2.03-5.45 1.26.5-.72 5.93-2.02 5.45Z" fill="#E34E70"/>
  <path d="M254.68 124.42c-2.24.26-3.1-7.57-.86-7.82 2.25-.25 3.12 7.57.86 7.82Z" fill="#FACFDA"/>
  <path d="M254.77 122.63c-1 .1-1.48-4.18-.47-4.28 1-.1 1.5 4.15.47 4.28Z" fill="#E34E70"/>
  <path d="M222.28 113.04c-2.76-.33-1.46-10.9 1.3-10.55 2.76.35 1.46 10.9-1.3 10.55Z" fill="#F7B3C5"/>
  <path d="M222.93 110.7c-1.27-.16-.56-5.94.7-5.79 1.25.15.56 5.94-.7 5.79Z" fill="#E34E70"/>
  <path d="M218.15 104.58c-2.77.23-3.63-10.38-.84-10.6 2.79-.23 3.63 10.38.84 10.6Z" fill="#F7B3C5"/>
  <path d="M218.31 102.14c-1.27.1-1.73-5.69-.46-5.8 1.26-.11 1.73 5.71.46 5.8Z" fill="#E34E70"/>
  <path d="M221.13 91.37c-2.53 1.17-6.94-8.5-4.4-9.67 2.53-1.16 6.95 8.52 4.4 9.67Z" fill="#F7B3C5"/>
  <path d="M220.45 89.04c-1.15.53-3.56-4.75-2.42-5.29 1.14-.53 3.59 4.8 2.42 5.29Z" fill="#E34E70"/>
  <path d="M212.72 83.59c-2.27 1.27-7.08-7.38-4.8-8.64 2.3-1.27 7.1 7.37 4.8 8.64Z" fill="#F7B3C5"/>
  <path d="M211.9 81.48c-1 .58-3.66-4.14-2.62-4.72 1.05-.6 3.7 4.13 2.62 4.72Z" fill="#E34E70"/>
  <path d="M211.16 72.92c-1.94 1.52-7.52-5.64-5.56-7.16 1.97-1.53 7.54 5.6 5.56 7.16Z" fill="#F7B3C5"/>
  <path d="M210.15 71.1c-.89.7-3.94-3.21-3.03-3.9.91-.7 3.93 3.2 3.03 3.9Z" fill="#E34E70"/>
  <path d="M201.8 68.57c-1.88 1.62-7.8-5.25-5.92-6.87s7.76 5.25 5.91 6.87Z" fill="#F7B3C5"/>
  <path d="M200.65 66.8c-.85.76-4.04-3.03-3.23-3.74.8-.72 4.1 3 3.23 3.75Z" fill="#E34E70"/>
  <path d="M197.54 59.4c-1.7 1.46-6.53-4.16-4.83-5.61 1.7-1.46 6.53 4.15 4.83 5.62Z" fill="#F7B3C5"/>
  <path d="M196.66 57.94c-.78.67-3.43-2.4-2.65-3.03.78-.63 3.42 2.37 2.65 3.03Z" fill="#E34E70"/>
  <path d="M189.42 57.6c-1.9 1.15-5.75-5.19-3.83-6.35 1.92-1.16 5.76 5.17 3.83 6.35Z" fill="#F389A4"/>
  <path d="M188.8 56.01c-.87.53-2.98-2.93-2.1-3.47.86-.53 2.96 2.94 2.1 3.47Z" fill="#E34E70"/>
  <path d="M188.65 49.98c-2.13.63-3.78-4.87-1.63-5.5 2.16-.64 3.75 4.86 1.63 5.5Z" fill="#F389A4"/>
  <path d="M188.51 48.65c-1.01.3-1.87-2.72-.89-3.03.98-.32 1.87 2.74.9 3.03Z" fill="#E34E70"/>
  <path d="M182.74 43.86c-2.1-.74-.2-6.16 1.9-5.41 2.12.75.21 6.17-1.9 5.4Z" fill="#F389A4"/>
  <path d="M183.44 42.73c-1.01-.33.08-3.3 1-2.96.94.35-.04 3.29-1 2.96Z" fill="#E34E70"/>
  <path d="M188.09 37.59c-.36-2.2 5.3-3.1 5.66-.88.35 2.21-5.32 3.11-5.66.88Z" fill="#F389A4"/>
  <path d="M189.41 37.67c-.16-1.01 2.94-1.49 3.1-.49.15 1-2.94 1.5-3.1.49Z" fill="#E34E70"/>
  <path d="M56.97 145.1c1.66-2.22-8.1-9.56-9.8-7.33-1.7 2.23 8.12 9.56 9.8 7.33Z" fill="#F389A4"/>
  <path d="M54.53 143.72c.76-1-4.59-5.05-5.36-4.04-.77 1.01 4.6 5.07 5.36 4.04Z" fill="#E34E70"/>
  <path d="M51.17 135.32c2.03-1.94-5.4-9.57-7.4-7.63-2 1.94 5.44 9.58 7.4 7.63Z" fill="#F389A4"/>
  <path d="M49.27 133.84c.92-.9-3.14-5.06-4.04-4.18-.9.88 3.13 5.07 4.04 4.18Z" fill="#E34E70"/>
  <path d="M40.65 121.16c2.67-.82-.43-11-3.1-10.18-2.67.82.48 11 3.1 10.18Z" fill="#F7B3C5"/>
  <path d="M39.61 118.96c1.22-.38-.49-5.94-1.69-5.58-1.2.37.49 5.95 1.69 5.58Z" fill="#E34E70"/>
  <path d="M67.96 144.73c1.18-2.53-9.55-7.55-10.72-5-1.17 2.53 9.54 7.52 10.72 5Z" fill="#F389A4"/>
  <path d="M65.38 143.92c.53-1.17-5.32-3.9-5.87-2.75-.54 1.15 5.34 3.9 5.87 2.75Z" fill="#E34E70"/>
  <path d="M41.07 130.3c2.33-1.5-3.45-10.44-5.78-8.92-2.32 1.53 3.42 10.45 5.78 8.93Z" fill="#F7B3C5"/>
  <path d="M39.44 128.48c1.07-.7-2.1-5.58-3.16-4.9-1.06.7 2.1 5.59 3.16 4.9Z" fill="#E34E70"/>
  <path d="M84.7 158.8c-1.2-3.02-12.57 1.42-11.38 4.49 1.2 3.06 12.58-1.43 11.37-4.48Z" fill="#F389A4"/>
  <path d="M82.28 160.21c-.56-1.4-6.77 1.02-6.24 2.44.54 1.43 6.78-1.05 6.24-2.44Z" fill="#E34E70"/>
  <path d="M70.08 162.36c-.76-3.45-11.12-1.15-10.37 2.3.74 3.44 11.14 1.15 10.37-2.3Z" fill="#F389A4"/>
  <path d="M67.82 163.37c-.35-1.59-6.06-.32-5.68 1.24.39 1.57 6.04.28 5.68-1.24Z" fill="#E34E70"/>
  <path d="M93 147.1c-2.55-2.8-11.3 5.17-8.77 7.96 2.54 2.79 11.31-5.16 8.76-7.96Z" fill="#F389A4"/>
  <path d="M91.34 149.21c-1.18-1.28-5.96 3.09-4.8 4.36 1.17 1.28 5.96-3.03 4.8-4.36Z" fill="#E34E70"/>
  <path d="M57.61 165.96c-.07-2.6-9.24-2.46-9.16.14.09 2.6 9.23 2.47 9.16-.14Z" fill="#F7B3C5"/>
  <path d="M55.55 166.32c0-1.2-5.05-1.1-5.05.07 0 1.17 5.08 1.12 5.05-.07Z" fill="#E34E70"/>
  <path d="M89.27 175.7c-.75-3.44-11.12-1.15-10.38 2.3.74 3.45 11.14 1.15 10.38-2.3Z" fill="#F389A4"/>
  <path d="M87.02 176.66c-.35-1.58-6.07-.33-5.68 1.25.38 1.57 6.03.31 5.68-1.25Z" fill="#E34E70"/>
  <path d="M118.59 169.33c-2.02-2.89-10.74 3.2-8.71 6.07 2.02 2.86 10.73-3.16 8.7-6.07Z" fill="#F389A4"/>
  <path d="M116.88 171.08c-.94-1.32-5.7 2.02-4.78 3.33.9 1.3 5.69-2.01 4.78-3.33Z" fill="#E34E70"/>
  <path d="M105.88 178.72c-3.52.19-2.93 10.81.6 10.62 3.53-.19 2.93-10.8-.6-10.62Z" fill="#F7B3C5"/>
  <path d="M106.47 181.1c-1.62.08-1.3 5.9.3 5.8 1.6-.09 1.3-5.9-.3-5.8Z" fill="#E34E70"/>
  <path d="M111.94 189.44c-3.46.71-1.34 11.12 2.12 10.45 3.46-.68 1.33-11.14-2.12-10.45Z" fill="#F7B3C5"/>
  <path d="M112.84 191.68c-1.59.33-.43 6.06 1.15 5.72 1.58-.34.43-6-1.15-5.72Z" fill="#E34E70"/>
  <path d="M108.52 200.53c-3.46.71-1.33 11.12 2.12 10.44 3.46-.69 1.34-11.13-2.12-10.44Z" fill="#F7B3C5"/>
  <path d="M109.44 202.8c-1.59.32-.43 6.06 1.15 5.71 1.59-.35.42-6.04-1.15-5.71Z" fill="#E34E70"/>
  <path d="M116.44 212.1c-3.45.7-1.34 11.12 2.12 10.42 3.46-.7 1.35-11.13-2.12-10.42Z" fill="#F7B3C5"/>
  <path d="M117.37 214.36c-1.6.34-.44 6.07 1.14 5.72 1.57-.36.4-6.04-1.14-5.72Z" fill="#E34E70"/>
  <path d="M114.47 224.3c-3.5.12-3.12 10.76.4 10.63 3.54-.13 3.14-10.77-.4-10.64Z" fill="#F7B3C5"/>
  <path d="M115.02 226.69c-1.63.07-1.4 5.88.2 5.82 1.61-.06 1.4-5.88-.2-5.82Z" fill="#E34E70"/>
  <path d="M116.23 239.36c-2.74-2.23-8.35 4.69-5.6 6.91 2.75 2.23 8.34-4.7 5.6-6.91Z" fill="#F7B3C5"/>
  <path d="M115.31 241.22c-1.26-1.01-4.32 2.77-3.03 3.78 1.3 1 4.28-2.77 3.03-3.78Z" fill="#E34E70"/>
  <path d="M107 245.9c-1.42-2.56-7.9 1.02-6.48 3.57 1.42 2.54 7.89-1 6.47-3.56Z" fill="#F389A4"/>
  <path d="M105.76 247.04c-.65-1.18-4.18.77-3.55 1.93.64 1.16 4.15-.76 3.55-1.93Z" fill="#E34E70"/>
  <path d="M98.83 253.73c-.22-2.66-6.56-2.14-6.34.52.22 2.66 6.56 2.13 6.34-.52Z" fill="#F389A4"/>
  <path d="M97.42 254.18c-.1-1.22-3.57-.94-3.48.27.1 1.21 3.58.92 3.48-.27Z" fill="#E34E70"/>
  <path d="M89.95 252.15c.57-2.37-5.05-3.74-5.64-1.37-.59 2.37 5.06 3.73 5.64 1.37Z" fill="#F389A4"/>
  <path d="M88.58 252.13c.25-1.08-2.83-1.82-3.1-.76-.26 1.06 2.86 1.84 3.1.76Z" fill="#E34E70"/>
  <path d="M81.44 252.34c.93-2.26-4.44-4.48-5.36-2.23-.92 2.26 4.4 4.43 5.36 2.23Z" fill="#F389A4"/>
  <path d="M80.12 252.06c.41-1-2.52-2.23-2.95-1.22-.42 1.01 2.52 2.26 2.95 1.22Z" fill="#E34E70"/>
  <path d="M76.65 246.33c1.78-1.66-2.19-5.91-3.95-4.25-1.77 1.65 2.17 5.91 3.95 4.25Z" fill="#F389A4"/>
  <path d="M75.53 245.57c.8-.76-1.35-3.09-2.16-2.33-.8.76 1.35 3.1 2.16 2.33Z" fill="#E34E70"/>
  <path d="M70.1 238.73c2.34-.67.73-6.26-1.61-5.57-2.33.69-.7 6.26 1.62 5.57Z" fill="#F389A4"/>
  <path d="M69.45 237.56c1.01-.32.18-3.37-.88-3.04-1.06.34-.21 3.36.88 3.04Z" fill="#E34E70"/>
  <path d="M76.36 184.17c-.3-3.51-10.9-2.6-10.58.93.31 3.52 10.9 2.6 10.58-.93Z" fill="#F389A4"/>
  <path d="M74.01 184.82c-.15-1.62-5.93-1.1-5.8.5.15 1.6 5.94 1.1 5.8-.5Z" fill="#E34E70"/>
  <path d="M63.65 180.46c-.07-3.46-10.7-3.25-10.62.23.08 3.48 10.7 3.25 10.62-.23Z" fill="#F7B3C5"/>
  <path d="M61.28 180.96c0-1.6-5.84-1.47-5.81.11.03 1.58 5.81 1.5 5.81-.11Z" fill="#E34E70"/>
  <path d="M51.6 184.86c-.75-3.33-10-1.22-9.22 2.14.78 3.35 10 1.22 9.23-2.14Z" fill="#F7B3C5"/>
  <path d="M49.62 185.77c-.36-1.52-5.41-.36-5.06 1.16.36 1.51 5.41.38 5.06-1.16Z" fill="#E34E70"/>
  <path d="M38.75 185.12c-1.57-3.04-9.3.93-7.71 4.04 1.58 3.11 9.28-.98 7.71-4.04Z" fill="#FACFDA"/>
  <path d="M37.2 186.41c-.72-1.4-4.93.79-4.23 2.16.7 1.38 4.95-.77 4.23-2.16Z" fill="#E34E70"/>
  <path d="M30.6 193.87c-2.55-1.15-5.49 5.34-2.92 6.5 2.57 1.14 5.5-5.34 2.92-6.5Z" fill="#FACFDA"/>
  <path d="M30.27 195.5c-1.17-.54-2.77 3.03-1.62 3.54 1.15.5 2.8-3.03 1.62-3.54Z" fill="#E34E70"/>
  <path d="M23.44 201.7c-2.8 0-2.78 7.13 0 7.08 2.78-.05 2.8-7.08 0-7.07Z" fill="#FACFDA"/>
  <path d="M23.81 203.32c-1.3 0-1.28 3.9 0 3.9s1.28-3.9 0-3.9Z" fill="#E34E70"/>
  <path d="M26.18 210.89c-2.5.45-1.33 6.83 1.18 6.36 2.5-.48 1.33-6.8-1.18-6.36Z" fill="#FACFDA"/>
  <path d="M26.77 212.3c-1.16.22-.51 3.7.63 3.49 1.14-.21.52-3.7-.63-3.49Z" fill="#E34E70"/>
  <path d="M25.9 220.12c-2.02 1.12.85 6.23 2.87 5.05 2.02-1.18-.85-6.2-2.87-5.05Z" fill="#FACFDA"/>
  <path d="M26.77 221.12c-.92.52.65 3.31 1.57 2.79.92-.53-.64-3.3-1.57-2.8Z" fill="#E34E70"/>
  <path d="M31.9 226.91c-1.4 1.37 2.03 4.94 3.48 3.56 1.46-1.39-2.07-4.94-3.47-3.56Z" fill="#FACFDA"/>
  <path d="M32.87 227.54c-.65.63 1.26 2.58 1.9 1.95.63-.63-1.26-2.58-1.9-1.95Z" fill="#E34E70"/>
  <path d="M45.4 164.77c.8-3.36-9.54-5.82-10.35-2.43-.8 3.38 9.54 5.83 10.35 2.43Z" fill="#F7B3C5"/>
  <path d="M42.95 164.66c.36-1.55-5.28-2.89-5.66-1.35-.37 1.53 5.3 2.89 5.66 1.35Z" fill="#E34E70"/>
  <path d="M32.15 165.68c1.01-2.88-9.02-6.4-10.03-3.5-1 2.89 9.03 6.4 10.03 3.5Z" fill="#FACFDA"/>
  <path d="M29.75 165.26c.47-1.34-5.05-3.25-5.49-1.93-.43 1.31 5.03 3.25 5.5 1.93Z" fill="#E34E70"/>
  <path d="M23.1 158.12c2.02-2.27-5.82-9.42-7.88-7.16-2.06 2.27 5.83 9.43 7.88 7.16Z" fill="#FACFDA"/>
  <path d="M21.06 156.79c.94-1.01-3.38-4.95-4.3-3.93-.94 1.03 3.36 4.96 4.3 3.93Z" fill="#E34E70"/>
  <path d="M10.23 150.8c2.56-1.7-3.35-10.56-5.9-8.86-2.55 1.7 3.38 10.55 5.9 8.85Z" fill="#FACFDA"/>
  <path d="M8.59 149c1.16-.79-2.03-5.6-3.23-4.85-1.2.76 2.06 5.62 3.23 4.85Z" fill="#E34E70"/>
  <path d="M6.6 138.16c2.88-1.08-.9-11.03-3.76-9.95-2.85 1.07.91 11.05 3.76 9.95Z" fill="#FACFDA"/>
  <path d="M5.4 136.07c1.3-.5-.77-5.94-2.03-5.45-1.26.5.72 5.93 2.02 5.45Z" fill="#E34E70"/>
  <path d="M1.32 124.42c2.24.26 3.1-7.57.86-7.82-2.25-.25-3.12 7.57-.86 7.82Z" fill="#FACFDA"/>
  <path d="M1.23 122.63c1 .1 1.48-4.18.47-4.28-1-.1-1.5 4.15-.47 4.28Z" fill="#E34E70"/>
  <path d="M33.72 113.04c2.76-.33 1.46-10.9-1.3-10.55-2.76.35-1.46 10.9 1.3 10.55Z" fill="#F7B3C5"/>
  <path d="M33.07 110.7c1.27-.16.56-5.94-.7-5.79-1.25.15-.56 5.94.7 5.79Z" fill="#E34E70"/>
  <path d="M37.85 104.58c2.77.23 3.63-10.38.84-10.6-2.79-.23-3.63 10.38-.84 10.6Z" fill="#F7B3C5"/>
  <path d="M37.69 102.14c1.27.1 1.73-5.69.46-5.8-1.26-.11-1.73 5.71-.46 5.8Z" fill="#E34E70"/>
  <path d="M34.87 91.37c2.53 1.17 6.94-8.5 4.4-9.67-2.53-1.16-6.95 8.52-4.4 9.67Z" fill="#F7B3C5"/>
  <path d="M35.55 89.04c1.15.53 3.56-4.75 2.42-5.29-1.14-.53-3.59 4.8-2.42 5.29Z" fill="#E34E70"/>
  <path d="M43.28 83.59c2.27 1.27 7.08-7.38 4.8-8.64-2.3-1.27-7.1 7.37-4.8 8.64Z" fill="#F7B3C5"/>
  <path d="M44.1 81.48c1 .58 3.66-4.14 2.62-4.72-1.05-.6-3.7 4.13-2.62 4.72Z" fill="#E34E70"/>
  <path d="M44.84 72.92c1.94 1.52 7.52-5.64 5.56-7.16-1.97-1.53-7.54 5.6-5.56 7.16Z" fill="#F7B3C5"/>
  <path d="M45.85 71.1c.89.7 3.94-3.21 3.03-3.9-.91-.7-3.93 3.2-3.03 3.9Z" fill="#E34E70"/>
  <path d="M54.2 68.57c1.88 1.62 7.8-5.25 5.92-6.87s-7.76 5.25-5.91 6.87Z" fill="#F7B3C5"/>
  <path d="M55.35 66.8c.85.76 4.04-3.03 3.23-3.74-.8-.72-4.1 3-3.23 3.75Z" fill="#E34E70"/>
  <path d="M58.46 59.4c1.7 1.46 6.53-4.16 4.83-5.61-1.7-1.46-6.53 4.15-4.83 5.62Z" fill="#F7B3C5"/>
  <path d="M59.34 57.94c.78.67 3.43-2.4 2.65-3.03-.78-.63-3.42 2.37-2.65 3.03Z" fill="#E34E70"/>
  <path d="M66.58 57.6c1.9 1.15 5.75-5.19 3.83-6.35-1.92-1.16-5.76 5.17-3.83 6.35Z" fill="#F389A4"/>
  <path d="M67.2 56.01c.87.53 2.98-2.93 2.1-3.47-.86-.53-2.96 2.94-2.1 3.47Z" fill="#E34E70"/>
  <path d="M67.35 49.98c2.13.63 3.78-4.87 1.63-5.5-2.16-.64-3.75 4.86-1.63 5.5Z" fill="#F389A4"/>
  <path d="M67.49 48.65c1.01.3 1.87-2.72.89-3.03-.98-.32-1.87 2.74-.9 3.03Z" fill="#E34E70"/>
  <path d="M73.26 43.86c2.1-.74.21-6.16-1.9-5.41-2.13.75-.21 6.17 1.9 5.4Z" fill="#F389A4"/>
  <path d="M72.56 42.73c1.01-.33-.08-3.3-1-2.96-.94.35.04 3.29 1 2.96Z" fill="#E34E70"/>
  <path d="M67.91 37.59c.36-2.2-5.3-3.1-5.66-.88-.35 2.21 5.32 3.11 5.66.88Z" fill="#F389A4"/>
  <path d="M66.59 37.67c.16-1.01-2.94-1.49-3.1-.49-.15 1 2.94 1.5 3.1.49Z" fill="#E34E70"/>
</svg>
