<?xml version="1.0" encoding="UTF-8"?>
<!DOCTYPE svg PUBLIC "-//W3C//DTD SVG 1.1//EN" "http://www.w3.org/Graphics/SVG/1.1/DTD/svg11.dtd">
<svg xmlns="http://www.w3.org/2000/svg" version="1.1" width="192px" height="192px" style="shape-rendering:geometricPrecision; text-rendering:geometricPrecision; image-rendering:optimizeQuality; fill-rule:evenodd; clip-rule:evenodd" xmlns:xlink="http://www.w3.org/1999/xlink">
<g><path style="opacity:1" fill="#fdfdfd" d="M -0.5,-0.5 C 2.5,-0.5 5.5,-0.5 8.5,-0.5C 8.28818,1.38411 7.28818,2.71745 5.5,3.5C 4.54811,5.04533 4.21478,6.71199 4.5,8.5C 5.83333,8.5 7.16667,8.5 8.5,8.5C 8.83333,11.5 7.5,12.8333 4.5,12.5C 4.5,13.8333 4.5,15.1667 4.5,16.5C 7.5,16.8333 8.83333,15.5 8.5,12.5C 9.83333,12.5 11.1667,12.5 12.5,12.5C 12.8034,15.5876 11.4701,17.2542 8.5,17.5C 8.5,18.5 8.5,19.5 8.5,20.5C 7.16667,20.5 5.83333,20.5 4.5,20.5C 4.5,22.1667 4.5,23.8333 4.5,25.5C 7.5,25.8333 8.83333,24.5 8.5,21.5C 9.83333,21.5 11.1667,21.5 12.5,21.5C 12.5,22.8333 12.5,24.1667 12.5,25.5C 11.1667,25.5 9.83333,25.5 8.5,25.5C 8.83333,28.5 7.5,29.8333 4.5,29.5C 4.5,31.1667 4.5,32.8333 4.5,34.5C 5.83333,34.5 7.16667,34.5 8.5,34.5C 7.78574,36.8742 6.4524,38.8742 4.5,40.5C 4.71893,42.9153 6.05227,43.9153 8.5,43.5C 8.8948,46.5225 7.8948,47.5225 5.5,46.5C 4.54811,48.0453 4.21478,49.712 4.5,51.5C 5.83333,51.5 7.16667,51.5 8.5,51.5C 8.83333,54.5 7.5,55.8333 4.5,55.5C 4.23798,56.9778 4.57131,58.3112 5.5,59.5C 9.67295,62.1448 9.33961,63.8115 4.5,64.5C 5.71355,67.2535 7.21355,69.9201 9,72.5C 9.12039,84.6853 8.62039,96.852 7.5,109C 7.70649,110.366 8.03983,111.699 8.5,113C 6.91459,114.289 5.58126,115.789 4.5,117.5C 6.4524,119.126 7.78574,121.126 8.5,123.5C 5.08968,123.384 3.75635,125.05 4.5,128.5C 7.5,128.167 8.83333,129.5 8.5,132.5C 7.16667,132.5 5.83333,132.5 4.5,132.5C 4.5,134.167 4.5,135.833 4.5,137.5C 5.83333,137.5 7.16667,137.5 8.5,137.5C 8.65668,138.873 8.49001,140.207 8,141.5C 6.98873,140.663 5.82207,140.33 4.5,140.5C 4.5,142.167 4.5,143.833 4.5,145.5C 5.83333,145.5 7.16667,145.5 8.5,145.5C 8.83333,148.5 7.5,149.833 4.5,149.5C 4.5,151.167 4.5,152.833 4.5,154.5C 5.83333,154.5 7.16667,154.5 8.5,154.5C 8.83333,157.5 7.5,158.833 4.5,158.5C 4.5,160.167 4.5,161.833 4.5,163.5C 5.83333,163.5 7.16667,163.5 8.5,163.5C 8.5,164.833 8.5,166.167 8.5,167.5C 7.16667,167.5 5.83333,167.5 4.5,167.5C 4.5,168.833 4.5,170.167 4.5,171.5C 5.83333,171.5 7.16667,171.5 8.5,171.5C 8.5,172.833 8.5,174.167 8.5,175.5C 14.4686,175.625 14.9686,177.292 10,180.5C 8.97997,179.109 8.14664,177.609 7.5,176C 6.55198,175.517 5.55198,175.351 4.5,175.5C 4.5,177.167 4.5,178.833 4.5,180.5C 5.83333,180.5 7.16667,180.5 8.5,180.5C 8.83333,183.5 7.5,184.833 4.5,184.5C 4.5,186.167 4.5,187.833 4.5,189.5C 6.48324,189.157 7.81658,189.824 8.5,191.5C 5.5,191.5 2.5,191.5 -0.5,191.5C -0.5,127.5 -0.5,63.5 -0.5,-0.5 Z"/></g>
<g><path style="opacity:1" fill="#f5f4f4" d="M 8.5,-0.5 C 67.5,-0.5 126.5,-0.5 185.5,-0.5C 185.5,0.833333 185.5,2.16667 185.5,3.5C 184.167,3.5 182.833,3.5 181.5,3.5C 181.5,5.16667 181.5,6.83333 181.5,8.5C 182.833,8.5 184.167,8.5 185.5,8.5C 185.5,9.83333 185.5,11.1667 185.5,12.5C 184.167,12.5 182.833,12.5 181.5,12.5C 181.167,15.5 182.5,16.8333 185.5,16.5C 185.5,18.1667 185.5,19.8333 185.5,21.5C 184.167,21.5 182.833,21.5 181.5,21.5C 181.719,22.675 181.386,23.675 180.5,24.5C 176.237,25.5027 175.737,27.1693 179,29.5C 181.02,28.9681 181.853,27.6348 181.5,25.5C 182.833,25.5 184.167,25.5 185.5,25.5C 185.5,26.8333 185.5,28.1667 185.5,29.5C 184.167,29.5 182.833,29.5 181.5,29.5C 181.5,30.8333 181.5,32.1667 181.5,33.5C 182.833,33.5 184.167,33.5 185.5,33.5C 185.5,35.1667 185.5,36.8333 185.5,38.5C 184.167,38.5 182.833,38.5 181.5,38.5C 181.5,39.8333 181.5,41.1667 181.5,42.5C 180.167,42.5 178.833,42.5 177.5,42.5C 178.255,45.5116 179.588,48.1783 181.5,50.5C 182.833,50.5 184.167,50.5 185.5,50.5C 185.5,52.1667 185.5,53.8333 185.5,55.5C 184.167,55.5 182.833,55.5 181.5,55.5C 181.5,54.1667 181.5,52.8333 181.5,51.5C 180.127,51.3433 178.793,51.51 177.5,52C 176.359,52.7412 176.359,53.5745 177.5,54.5C 176.313,55.5195 175.313,56.6861 174.5,58C 177.125,60.0333 177.792,62.5333 176.5,65.5C 167.805,44.4703 153.472,28.4703 133.5,17.5C 129.735,15.8032 125.735,14.4699 121.5,13.5C 118.281,11.2817 114.614,10.115 110.5,10C 85.4105,5.70379 63.0772,11.2038 43.5,26.5C 23.8446,41.2549 12.6779,60.9215 10,85.5C 9.30168,93.5279 9.46835,101.528 10.5,109.5C 15.1144,134.093 27.4477,153.76 47.5,168.5C 47.5,169.5 47.5,170.5 47.5,171.5C 46.1667,171.5 44.8333,171.5 43.5,171.5C 43.5,172.833 43.5,174.167 43.5,175.5C 44.8333,175.5 46.1667,175.5 47.5,175.5C 47.5,177.167 47.5,178.833 47.5,180.5C 46.1667,180.5 44.8333,180.5 43.5,180.5C 43.6499,184.161 42.1499,185.161 39,183.5C 38.5172,182.552 38.3505,181.552 38.5,180.5C 37.1667,180.5 35.8333,180.5 34.5,180.5C 33.7564,177.05 35.0897,175.384 38.5,175.5C 38.5,174.167 38.5,172.833 38.5,171.5C 35.5,171.833 34.1667,170.5 34.5,167.5C 33.1667,167.5 31.8333,167.5 30.5,167.5C 30.7725,165.042 29.7725,163.375 27.5,162.5C 26.5481,164.045 26.2148,165.712 26.5,167.5C 29.1662,167.066 30.3329,168.066 30,170.5C 27.8697,171.141 26.3697,172.474 25.5,174.5C 24.3112,175.429 22.9778,175.762 21.5,175.5C 21.5,174.167 21.5,172.833 21.5,171.5C 20.1667,171.5 18.8333,171.5 17.5,171.5C 18.2436,168.05 16.9103,166.384 13.5,166.5C 13.5,165.5 13.5,164.5 13.5,163.5C 14.8333,163.5 16.1667,163.5 17.5,163.5C 17.5,164.5 17.5,165.5 17.5,166.5C 18.8333,166.5 20.1667,166.5 21.5,166.5C 21.5,165.167 21.5,163.833 21.5,162.5C 20.1667,162.5 18.8333,162.5 17.5,162.5C 17.5,161.5 17.5,160.5 17.5,159.5C 18.5,159.5 19.5,159.5 20.5,159.5C 20.5,157.833 20.5,156.167 20.5,154.5C 19.5,154.5 18.5,154.5 17.5,154.5C 17.5,153.167 17.5,151.833 17.5,150.5C 20.9103,150.616 22.2436,148.95 21.5,145.5C 20.1667,145.5 18.8333,145.5 17.5,145.5C 17.7163,143.319 16.883,141.653 15,140.5C 14.6667,140.833 14.3333,141.167 14,141.5C 13.059,139.939 11.8924,138.605 10.5,137.5C 9.57131,138.689 9.23798,140.022 9.5,141.5C 10.5,141.5 11.5,141.5 12.5,141.5C 12.5,142.833 12.5,144.167 12.5,145.5C 11.1667,145.5 9.83333,145.5 8.5,145.5C 7.16667,145.5 5.83333,145.5 4.5,145.5C 4.5,143.833 4.5,142.167 4.5,140.5C 5.82207,140.33 6.98873,140.663 8,141.5C 8.49001,140.207 8.65668,138.873 8.5,137.5C 7.16667,137.5 5.83333,137.5 4.5,137.5C 4.5,135.833 4.5,134.167 4.5,132.5C 5.83333,132.5 7.16667,132.5 8.5,132.5C 8.83333,129.5 7.5,128.167 4.5,128.5C 3.75635,125.05 5.08968,123.384 8.5,123.5C 7.78574,121.126 6.4524,119.126 4.5,117.5C 5.58126,115.789 6.91459,114.289 8.5,113C 8.03983,111.699 7.70649,110.366 7.5,109C 8.62039,96.852 9.12039,84.6853 9,72.5C 7.21355,69.9201 5.71355,67.2535 4.5,64.5C 9.33961,63.8115 9.67295,62.1448 5.5,59.5C 4.57131,58.3112 4.23798,56.9778 4.5,55.5C 7.5,55.8333 8.83333,54.5 8.5,51.5C 7.16667,51.5 5.83333,51.5 4.5,51.5C 4.21478,49.712 4.54811,48.0453 5.5,46.5C 7.8948,47.5225 8.8948,46.5225 8.5,43.5C 6.05227,43.9153 4.71893,42.9153 4.5,40.5C 6.4524,38.8742 7.78574,36.8742 8.5,34.5C 7.16667,34.5 5.83333,34.5 4.5,34.5C 4.5,32.8333 4.5,31.1667 4.5,29.5C 7.5,29.8333 8.83333,28.5 8.5,25.5C 9.83333,25.5 11.1667,25.5 12.5,25.5C 12.5,24.1667 12.5,22.8333 12.5,21.5C 11.1667,21.5 9.83333,21.5 8.5,21.5C 8.83333,24.5 7.5,25.8333 4.5,25.5C 4.5,23.8333 4.5,22.1667 4.5,20.5C 5.83333,20.5 7.16667,20.5 8.5,20.5C 8.5,19.5 8.5,18.5 8.5,17.5C 11.4701,17.2542 12.8034,15.5876 12.5,12.5C 11.1667,12.5 9.83333,12.5 8.5,12.5C 8.83333,15.5 7.5,16.8333 4.5,16.5C 4.5,15.1667 4.5,13.8333 4.5,12.5C 7.5,12.8333 8.83333,11.5 8.5,8.5C 7.16667,8.5 5.83333,8.5 4.5,8.5C 4.21478,6.71199 4.54811,5.04533 5.5,3.5C 7.28818,2.71745 8.28818,1.38411 8.5,-0.5 Z"/></g>
<g><path style="opacity:1" fill="#fcfcfc" d="M 185.5,-0.5 C 187.5,-0.5 189.5,-0.5 191.5,-0.5C 191.5,63.5 191.5,127.5 191.5,191.5C 189.5,191.5 187.5,191.5 185.5,191.5C 185.5,190.5 185.5,189.5 185.5,188.5C 184.167,188.5 182.833,188.5 181.5,188.5C 181.5,187.167 181.5,185.833 181.5,184.5C 182.833,184.5 184.167,184.5 185.5,184.5C 185.5,183.167 185.5,181.833 185.5,180.5C 184.167,180.5 182.833,180.5 181.5,180.5C 181.5,178.833 181.5,177.167 181.5,175.5C 182.833,175.5 184.167,175.5 185.5,175.5C 185.5,174.167 185.5,172.833 185.5,171.5C 184.167,171.5 182.833,171.5 181.5,171.5C 181.833,174.5 180.5,175.833 177.5,175.5C 177.5,174.167 177.5,172.833 177.5,171.5C 180.5,171.833 181.833,170.5 181.5,167.5C 182.833,167.5 184.167,167.5 185.5,167.5C 185.5,165.833 185.5,164.167 185.5,162.5C 184.167,162.5 182.833,162.5 181.5,162.5C 181.5,161.5 181.5,160.5 181.5,159.5C 184.91,159.616 186.244,157.95 185.5,154.5C 184.127,154.657 182.793,154.49 181.5,154C 182.641,153.259 182.641,152.425 181.5,151.5C 182.689,150.571 184.022,150.238 185.5,150.5C 185.5,148.833 185.5,147.167 185.5,145.5C 184.167,145.5 182.833,145.5 181.5,145.5C 181.45,143.41 182.45,142.077 184.5,141.5C 185.452,139.955 185.785,138.288 185.5,136.5C 184.127,136.657 182.793,136.49 181.5,136C 182.641,135.259 182.641,134.425 181.5,133.5C 182.689,132.571 184.022,132.238 185.5,132.5C 185.5,131.167 185.5,129.833 185.5,128.5C 184.167,128.5 182.833,128.5 181.5,128.5C 181.5,127.167 181.5,125.833 181.5,124.5C 182.833,124.5 184.167,124.5 185.5,124.5C 185.5,122.833 185.5,121.167 185.5,119.5C 184.167,119.5 182.833,119.5 181.5,119.5C 181.5,118.167 181.5,116.833 181.5,115.5C 182.833,115.5 184.167,115.5 185.5,115.5C 185.5,114.167 185.5,112.833 185.5,111.5C 184.167,111.5 182.833,111.5 181.5,111.5C 181.5,109.833 181.5,108.167 181.5,106.5C 182.833,106.5 184.167,106.5 185.5,106.5C 185.5,105.167 185.5,103.833 185.5,102.5C 184.167,102.5 182.833,102.5 181.5,102.5C 181.801,89.872 180.135,77.5386 176.5,65.5C 177.792,62.5333 177.125,60.0333 174.5,58C 175.313,56.6861 176.313,55.5195 177.5,54.5C 176.359,53.5745 176.359,52.7412 177.5,52C 178.793,51.51 180.127,51.3433 181.5,51.5C 181.5,52.8333 181.5,54.1667 181.5,55.5C 182.833,55.5 184.167,55.5 185.5,55.5C 185.5,53.8333 185.5,52.1667 185.5,50.5C 184.167,50.5 182.833,50.5 181.5,50.5C 179.588,48.1783 178.255,45.5116 177.5,42.5C 178.833,42.5 180.167,42.5 181.5,42.5C 181.5,41.1667 181.5,39.8333 181.5,38.5C 182.833,38.5 184.167,38.5 185.5,38.5C 185.5,36.8333 185.5,35.1667 185.5,33.5C 184.167,33.5 182.833,33.5 181.5,33.5C 181.5,32.1667 181.5,30.8333 181.5,29.5C 182.833,29.5 184.167,29.5 185.5,29.5C 185.5,28.1667 185.5,26.8333 185.5,25.5C 184.167,25.5 182.833,25.5 181.5,25.5C 181.853,27.6348 181.02,28.9681 179,29.5C 175.737,27.1693 176.237,25.5027 180.5,24.5C 181.386,23.675 181.719,22.675 181.5,21.5C 182.833,21.5 184.167,21.5 185.5,21.5C 185.5,19.8333 185.5,18.1667 185.5,16.5C 182.5,16.8333 181.167,15.5 181.5,12.5C 182.833,12.5 184.167,12.5 185.5,12.5C 185.5,11.1667 185.5,9.83333 185.5,8.5C 184.167,8.5 182.833,8.5 181.5,8.5C 181.5,6.83333 181.5,5.16667 181.5,3.5C 182.833,3.5 184.167,3.5 185.5,3.5C 185.5,2.16667 185.5,0.833333 185.5,-0.5 Z"/></g>
<g><path style="opacity:1" fill="#f4adaf" d="M 121.5,13.5 C 113.447,11.9726 105.28,10.9726 97,10.5C 92.8161,10.7233 88.6495,11.0566 84.5,11.5C 84.5,14.1667 84.5,16.8333 84.5,19.5C 80.1667,19.5 75.8333,19.5 71.5,19.5C 71.762,18.0222 71.4287,16.6888 70.5,15.5C 61.8279,16.7804 54.1613,20.2804 47.5,26C 46.2068,26.49 44.8734,26.6567 43.5,26.5C 63.0772,11.2038 85.4105,5.70379 110.5,10C 114.614,10.115 118.281,11.2817 121.5,13.5 Z"/></g>
<g><path style="opacity:1" fill="#fda9ae" d="M 121.5,13.5 C 125.735,14.4699 129.735,15.8032 133.5,17.5C 128.892,21.2777 124.725,25.611 121,30.5C 118.692,35.4466 116.859,40.4466 115.5,45.5C 113.502,50.1009 111.835,55.4342 110.5,61.5C 107.951,62.8312 106.284,61.9979 105.5,59C 101.5,58.3333 97.5,58.3333 93.5,59C 91.0807,60.5088 90.0807,62.6755 90.5,65.5C 89.1266,65.3433 87.7932,65.51 86.5,66C 86.8333,66.3333 87.1667,66.6667 87.5,67C 85.8626,69.3102 83.696,70.8102 81,71.5C 80.8142,73.9005 80.3142,76.2338 79.5,78.5C 77.4263,79.9938 75.2597,81.3271 73,82.5C 72.5065,84.1341 72.3398,85.8008 72.5,87.5C 69.8212,89.3272 66.9878,90.9939 64,92.5C 61.9011,91.7135 59.7345,91.3801 57.5,91.5C 56.8333,92.8333 56.1667,94.1667 55.5,95.5C 54.1266,95.3433 52.7932,95.51 51.5,96C 52.3802,97.3561 52.7135,98.8561 52.5,100.5C 48.8213,99.493 45.4879,99.493 42.5,100.5C 44.3018,96.0364 44.9684,91.3697 44.5,86.5C 42.2075,86.2436 40.0408,86.5769 38,87.5C 36.1042,92.7673 33.6042,97.7673 30.5,102.5C 28.706,100.318 27.3727,97.8183 26.5,95C 26.8333,94.6667 27.1667,94.3333 27.5,94C 26.1233,92.759 24.79,92.5923 23.5,93.5C 22.1871,100.629 22.1871,107.629 23.5,114.5C 23.5773,121.645 24.5773,128.645 26.5,135.5C 26.6633,137.857 26.4966,140.19 26,142.5C 25.2904,141.027 24.1238,140.36 22.5,140.5C 22.7852,138.712 22.4519,137.045 21.5,135.5C 19.3747,132.387 17.5414,129.054 16,125.5C 14.5397,120.531 13.2064,115.531 12,110.5C 11.6174,109.944 11.1174,109.611 10.5,109.5C 9.46835,101.528 9.30168,93.5279 10,85.5C 12.6779,60.9215 23.8446,41.2549 43.5,26.5C 44.8734,26.6567 46.2068,26.49 47.5,26C 54.1613,20.2804 61.8279,16.7804 70.5,15.5C 71.4287,16.6888 71.762,18.0222 71.5,19.5C 75.8333,19.5 80.1667,19.5 84.5,19.5C 84.5,16.8333 84.5,14.1667 84.5,11.5C 88.6495,11.0566 92.8161,10.7233 97,10.5C 105.28,10.9726 113.447,11.9726 121.5,13.5 Z"/></g>
<g><path style="opacity:1" fill="#493738" d="M 133.5,17.5 C 153.472,28.4703 167.805,44.4703 176.5,65.5C 180.135,77.5386 181.801,89.872 181.5,102.5C 178.849,122.143 171.183,139.476 158.5,154.5C 155.846,150.537 153.18,146.537 150.5,142.5C 149.076,140.285 146.909,139.285 144,139.5C 139.254,140.781 134.421,141.615 129.5,142C 122.703,146.256 115.37,147.256 107.5,145C 106,144.167 104.833,143 104,141.5C 103.388,136.561 103.888,131.727 105.5,127C 105.95,124.374 104.95,122.874 102.5,122.5C 98.8316,120.608 97.6649,117.608 99,113.5C 99.9025,112.299 101.069,111.465 102.5,111C 98.9489,109.323 97.6155,106.49 98.5,102.5C 101.588,102.633 103.588,101.3 104.5,98.5C 102.527,95.1965 100.193,92.1965 97.5,89.5C 97.5,88.5 97.5,87.5 97.5,86.5C 101.457,83.8782 105.124,80.8782 108.5,77.5C 111.511,76.1317 114.678,75.1317 118,74.5C 118.163,72.6133 117.329,71.1133 115.5,70C 116.097,68.1114 116.431,66.2781 116.5,64.5C 120.297,64.8038 122.463,66.8038 123,70.5C 125.155,68.1276 124.822,66.1276 122,64.5C 120.08,60.2825 120.58,56.6159 123.5,53.5C 124.657,50.2156 124.824,46.8823 124,43.5C 122.097,46.1706 121.264,49.1706 121.5,52.5C 120.167,52.5 118.833,52.5 117.5,52.5C 116.521,45.6515 118.521,39.9849 123.5,35.5C 122.992,28.8629 125.826,24.5296 132,22.5C 133.009,20.9751 133.509,19.3084 133.5,17.5 Z"/></g>
<g><path style="opacity:1" fill="#503535" d="M 133.5,17.5 C 133.509,19.3084 133.009,20.9751 132,22.5C 125.826,24.5296 122.992,28.8629 123.5,35.5C 118.521,39.9849 116.521,45.6515 117.5,52.5C 118.833,52.5 120.167,52.5 121.5,52.5C 121.264,49.1706 122.097,46.1706 124,43.5C 124.824,46.8823 124.657,50.2156 123.5,53.5C 120.58,56.6159 120.08,60.2825 122,64.5C 124.822,66.1276 125.155,68.1276 123,70.5C 122.463,66.8038 120.297,64.8038 116.5,64.5C 116.431,66.2781 116.097,68.1114 115.5,70C 117.329,71.1133 118.163,72.6133 118,74.5C 114.678,75.1317 111.511,76.1317 108.5,77.5C 110.371,74.9392 112.371,72.4392 114.5,70C 109.362,69.2672 105.362,66.7672 102.5,62.5C 103.574,61.9202 104.574,62.4202 105.5,64C 108.23,64.7284 110.897,64.5617 113.5,63.5C 114.299,57.499 114.966,51.499 115.5,45.5C 116.859,40.4466 118.692,35.4466 121,30.5C 124.725,25.611 128.892,21.2777 133.5,17.5 Z"/></g>
<g><path style="opacity:1" fill="#eba8a9" d="M 115.5,45.5 C 114.966,51.499 114.299,57.499 113.5,63.5C 110.897,64.5617 108.23,64.7284 105.5,64C 104.574,62.4202 103.574,61.9202 102.5,62.5C 105.362,66.7672 109.362,69.2672 114.5,70C 112.371,72.4392 110.371,74.9392 108.5,77.5C 105.124,80.8782 101.457,83.8782 97.5,86.5C 98.8011,84.3281 99.8011,81.9948 100.5,79.5C 101.833,79.5 103.167,79.5 104.5,79.5C 104.623,76.4121 103.623,73.7454 101.5,71.5C 103.297,70.3049 104.297,68.6382 104.5,66.5C 99.496,67.9963 95.8293,71.163 93.5,76C 91.8455,76.6077 90.1789,77.1077 88.5,77.5C 92.088,72.4067 96.2546,67.74 101,63.5C 101.309,61.6086 100.475,60.2752 98.5,59.5C 95.1743,63.6582 91.341,67.3249 87,70.5C 85.4412,72.2166 84.6079,74.2166 84.5,76.5C 80.5,80.1667 76.5,83.8333 72.5,87.5C 72.3398,85.8008 72.5065,84.1341 73,82.5C 75.2597,81.3271 77.4263,79.9938 79.5,78.5C 80.3142,76.2338 80.8142,73.9005 81,71.5C 83.696,70.8102 85.8626,69.3102 87.5,67C 87.1667,66.6667 86.8333,66.3333 86.5,66C 87.7932,65.51 89.1266,65.3433 90.5,65.5C 90.0807,62.6755 91.0807,60.5088 93.5,59C 97.5,58.3333 101.5,58.3333 105.5,59C 106.284,61.9979 107.951,62.8312 110.5,61.5C 111.835,55.4342 113.502,50.1009 115.5,45.5 Z"/></g>
<g><path style="opacity:1" fill="#573838" d="M 88.5,77.5 C 87.0413,77.4326 85.7079,77.7659 84.5,78.5C 84.5,77.8333 84.5,77.1667 84.5,76.5C 84.6079,74.2166 85.4412,72.2166 87,70.5C 91.341,67.3249 95.1743,63.6582 98.5,59.5C 100.475,60.2752 101.309,61.6086 101,63.5C 96.2546,67.74 92.088,72.4067 88.5,77.5 Z"/></g>
<g><path style="opacity:1" fill="#fda9ae" d="M 97.5,86.5 C 97.5,87.5 97.5,88.5 97.5,89.5C 98.1533,92.9618 99.4866,96.1285 101.5,99C 100.631,100.869 99.4646,101.369 98,100.5C 97.3333,107.167 97.3333,113.833 98,120.5C 100.181,124.222 101.681,128.222 102.5,132.5C 99.7297,140.459 102.396,145.626 110.5,148C 113.5,148.667 116.5,148.667 119.5,148C 126.036,145.599 132.703,143.599 139.5,142C 143.221,141.322 146.888,141.489 150.5,142.5C 153.18,146.537 155.846,150.537 158.5,154.5C 152.456,160.698 145.79,166.198 138.5,171C 134.168,173.665 129.501,175.499 124.5,176.5C 120.456,175.958 116.789,176.791 113.5,179C 106.548,179.345 99.7149,179.178 93,178.5C 88.8174,180.737 85.1507,180.404 82,177.5C 81.5022,175.473 81.6689,173.473 82.5,171.5C 82.5177,169.627 82.0177,169.294 81,170.5C 78.8371,160.346 76.1704,150.346 73,140.5C 71.6569,141.214 70.3236,140.88 69,139.5C 67.3366,135.627 67.5033,131.794 69.5,128C 69.2459,123.811 68.0792,119.645 66,115.5C 63.0974,117.64 62.9308,119.807 65.5,122C 65.5053,124.163 64.5053,125.663 62.5,126.5C 58.913,123.31 57.7463,119.31 59,114.5C 62.6667,110.833 66.3333,107.167 70,103.5C 70.7189,99.8546 71.2189,96.1879 71.5,92.5C 75.8333,87.8333 80.1667,83.1667 84.5,78.5C 85.7079,77.7659 87.0413,77.4326 88.5,77.5C 90.1789,77.1077 91.8455,76.6077 93.5,76C 95.8293,71.163 99.496,67.9963 104.5,66.5C 104.297,68.6382 103.297,70.3049 101.5,71.5C 103.623,73.7454 104.623,76.4121 104.5,79.5C 103.167,79.5 101.833,79.5 100.5,79.5C 99.8011,81.9948 98.8011,84.3281 97.5,86.5 Z"/></g>
<g><path style="opacity:1" fill="#e4a4a8" d="M 52.5,100.5 C 51.5423,101.962 50.3756,103.295 49,104.5C 48.5774,103.044 47.7441,102.544 46.5,103C 44.9586,104.371 43.6253,105.871 42.5,107.5C 39.8996,108.919 37.3996,110.585 35,112.5C 36.9831,107.523 39.3164,102.523 42,97.5C 43.4981,94.5352 43.6648,91.5352 42.5,88.5C 37.4458,94.7339 32.9458,101.401 29,108.5C 28.1588,105.372 27.3254,102.372 26.5,99.5C 26.3146,97.8042 25.4813,96.4709 24,95.5C 23.5005,101.825 23.3338,108.158 23.5,114.5C 22.1871,107.629 22.1871,100.629 23.5,93.5C 24.79,92.5923 26.1233,92.759 27.5,94C 27.1667,94.3333 26.8333,94.6667 26.5,95C 27.3727,97.8183 28.706,100.318 30.5,102.5C 33.6042,97.7673 36.1042,92.7673 38,87.5C 40.0408,86.5769 42.2075,86.2436 44.5,86.5C 44.9684,91.3697 44.3018,96.0364 42.5,100.5C 45.4879,99.493 48.8213,99.493 52.5,100.5 Z"/></g>
<g><path style="opacity:1" fill="#e5a5a7" d="M 72.5,87.5 C 70.1667,90.1667 67.8333,92.8333 65.5,95.5C 63.629,95.1412 62.129,94.1412 61,92.5C 58.2972,95.3714 55.4639,98.0381 52.5,100.5C 52.7135,98.8561 52.3802,97.3561 51.5,96C 52.7932,95.51 54.1266,95.3433 55.5,95.5C 56.1667,94.1667 56.8333,92.8333 57.5,91.5C 59.7345,91.3801 61.9011,91.7135 64,92.5C 66.9878,90.9939 69.8212,89.3272 72.5,87.5 Z"/></g>
<g><path style="opacity:1" fill="#60312d" d="M 84.5,76.5 C 84.5,77.1667 84.5,77.8333 84.5,78.5C 80.1667,83.1667 75.8333,87.8333 71.5,92.5C 69.5212,93.8121 67.8545,95.4788 66.5,97.5C 70.3171,100.042 70.3171,102.376 66.5,104.5C 66.5339,101.801 65.8672,99.3015 64.5,97C 65.056,96.6174 65.3893,96.1174 65.5,95.5C 67.8333,92.8333 70.1667,90.1667 72.5,87.5C 76.5,83.8333 80.5,80.1667 84.5,76.5 Z"/></g>
<g><path style="opacity:1" fill="#483636" d="M 65.5,95.5 C 65.3893,96.1174 65.056,96.6174 64.5,97C 65.8672,99.3015 66.5339,101.801 66.5,104.5C 66.5,105.167 66.1667,105.5 65.5,105.5C 63.8008,105.34 62.1341,105.506 60.5,106C 60.9574,106.414 61.2907,106.914 61.5,107.5C 60.3112,108.429 58.9778,108.762 57.5,108.5C 57.6495,107.448 57.4828,106.448 57,105.5C 56.6667,105.833 56.3333,106.167 56,106.5C 54.8456,104.043 53.5123,104.043 52,106.5C 51.5172,107.448 51.3505,108.448 51.5,109.5C 53.288,109.215 54.9547,109.548 56.5,110.5C 55.4706,110.296 54.4706,110.796 53.5,112C 53.7845,113.956 53.7845,116.123 53.5,118.5C 50.3775,118.318 47.7109,119.318 45.5,121.5C 43.7091,119.979 42.3758,118.146 41.5,116C 40.552,115.517 39.552,115.351 38.5,115.5C 38.3433,114.127 38.51,112.793 39,111.5C 40.6268,110.468 41.7934,109.134 42.5,107.5C 43.6253,105.871 44.9586,104.371 46.5,103C 47.7441,102.544 48.5774,103.044 49,104.5C 50.3756,103.295 51.5423,101.962 52.5,100.5C 55.4639,98.0381 58.2972,95.3714 61,92.5C 62.129,94.1412 63.629,95.1412 65.5,95.5 Z"/></g>
<g><path style="opacity:1" fill="#e5a7ab" d="M 97.5,89.5 C 100.193,92.1965 102.527,95.1965 104.5,98.5C 103.588,101.3 101.588,102.633 98.5,102.5C 97.6155,106.49 98.9489,109.323 102.5,111C 101.069,111.465 99.9025,112.299 99,113.5C 97.6649,117.608 98.8316,120.608 102.5,122.5C 105.031,125.841 105.031,129.174 102.5,132.5C 101.681,128.222 100.181,124.222 98,120.5C 97.3333,113.833 97.3333,107.167 98,100.5C 99.4646,101.369 100.631,100.869 101.5,99C 99.4866,96.1285 98.1533,92.9618 97.5,89.5 Z"/></g>
<g><path style="opacity:1" fill="#f1abad" d="M 71.5,92.5 C 71.2189,96.1879 70.7189,99.8546 70,103.5C 66.3333,107.167 62.6667,110.833 59,114.5C 57.7463,119.31 58.913,123.31 62.5,126.5C 64.5053,125.663 65.5053,124.163 65.5,122C 62.9308,119.807 63.0974,117.64 66,115.5C 68.0792,119.645 69.2459,123.811 69.5,128C 67.5033,131.794 67.3366,135.627 69,139.5C 70.3236,140.88 71.6569,141.214 73,140.5C 76.1704,150.346 78.8371,160.346 81,170.5C 82.0177,169.294 82.5177,169.627 82.5,171.5C 81.6689,173.473 81.5022,175.473 82,177.5C 85.1507,180.404 88.8174,180.737 93,178.5C 99.7149,179.178 106.548,179.345 113.5,179C 116.789,176.791 120.456,175.958 124.5,176.5C 109.659,182.733 94.3258,184.066 78.5,180.5C 78.9042,168.55 76.7376,156.884 72,145.5C 64.9541,136.745 59.4541,127.078 55.5,116.5C 58.8554,112.813 62.1887,109.147 65.5,105.5C 66.1667,105.5 66.5,105.167 66.5,104.5C 70.3171,102.376 70.3171,100.042 66.5,97.5C 67.8545,95.4788 69.5212,93.8121 71.5,92.5 Z"/></g>
<g><path style="opacity:1" fill="#513333" d="M 42.5,107.5 C 41.7934,109.134 40.6268,110.468 39,111.5C 38.51,112.793 38.3433,114.127 38.5,115.5C 39.552,115.351 40.552,115.517 41.5,116C 42.3758,118.146 43.7091,119.979 45.5,121.5C 47.7109,119.318 50.3775,118.318 53.5,118.5C 53.7845,116.123 53.7845,113.956 53.5,112C 54.4706,110.796 55.4706,110.296 56.5,110.5C 54.9547,109.548 53.288,109.215 51.5,109.5C 51.3505,108.448 51.5172,107.448 52,106.5C 53.5123,104.043 54.8456,104.043 56,106.5C 56.3333,106.167 56.6667,105.833 57,105.5C 57.4828,106.448 57.6495,107.448 57.5,108.5C 58.9778,108.762 60.3112,108.429 61.5,107.5C 61.2907,106.914 60.9574,106.414 60.5,106C 62.1341,105.506 63.8008,105.34 65.5,105.5C 62.1887,109.147 58.8554,112.813 55.5,116.5C 59.4541,127.078 64.9541,136.745 72,145.5C 76.7376,156.884 78.9042,168.55 78.5,180.5C 78.1667,180.5 77.8333,180.5 77.5,180.5C 77.2861,171.954 76.1194,163.62 74,155.5C 71.563,152.624 70.2297,149.29 70,145.5C 68.2493,144.191 66.7493,144.525 65.5,146.5C 65.2635,145.753 64.9302,144.92 64.5,144C 60.7741,142.957 61.1074,142.457 65.5,142.5C 63.3319,137.156 60.8319,131.823 58,126.5C 56.8777,128.42 56.0444,130.42 55.5,132.5C 53.338,128.86 51.838,124.86 51,120.5C 49.6487,122.019 48.1487,123.352 46.5,124.5C 44.3501,122.851 42.3501,121.018 40.5,119C 39.552,118.517 38.552,118.351 37.5,118.5C 37.3059,116.088 35.9726,115.088 33.5,115.5C 33.3367,113.143 33.5034,110.81 34,108.5C 36.5354,104.525 38.7021,100.358 40.5,96C 39.8333,95.3333 39.1667,95.3333 38.5,96C 33.5379,102.425 30.0379,109.591 28,117.5C 27.6154,112.951 26.4487,108.451 24.5,104C 25.7073,102.7 26.3739,101.2 26.5,99.5C 27.3254,102.372 28.1588,105.372 29,108.5C 32.9458,101.401 37.4458,94.7339 42.5,88.5C 43.6648,91.5352 43.4981,94.5352 42,97.5C 39.3164,102.523 36.9831,107.523 35,112.5C 37.3996,110.585 39.8996,108.919 42.5,107.5 Z"/></g>
<g><path style="opacity:1" fill="#efa8aa" d="M 37.5,118.5 C 38.552,118.351 39.552,118.517 40.5,119C 42.3501,121.018 44.3501,122.851 46.5,124.5C 48.1487,123.352 49.6487,122.019 51,120.5C 51.838,124.86 53.338,128.86 55.5,132.5C 55.6804,138.82 52.6804,141.32 46.5,140C 39.9671,134.125 36.9671,126.958 37.5,118.5 Z"/></g>
<g><path style="opacity:1" fill="#4a3636" d="M 26.5,99.5 C 26.3739,101.2 25.7073,102.7 24.5,104C 26.4487,108.451 27.6154,112.951 28,117.5C 30.0379,109.591 33.5379,102.425 38.5,96C 39.1667,95.3333 39.8333,95.3333 40.5,96C 38.7021,100.358 36.5354,104.525 34,108.5C 33.5034,110.81 33.3367,113.143 33.5,115.5C 35.9726,115.088 37.3059,116.088 37.5,118.5C 36.9671,126.958 39.9671,134.125 46.5,140C 52.6804,141.32 55.6804,138.82 55.5,132.5C 56.0444,130.42 56.8777,128.42 58,126.5C 60.8319,131.823 63.3319,137.156 65.5,142.5C 61.1074,142.457 60.7741,142.957 64.5,144C 64.9302,144.92 65.2635,145.753 65.5,146.5C 66.7493,144.525 68.2493,144.191 70,145.5C 70.2297,149.29 71.563,152.624 74,155.5C 76.1194,163.62 77.2861,171.954 77.5,180.5C 73.1214,180.152 69.1214,178.818 65.5,176.5C 65.631,175.761 65.4643,175.094 65,174.5C 54.6986,165.848 43.6986,158.181 32,151.5C 29.8303,146.154 27.997,140.821 26.5,135.5C 24.5773,128.645 23.5773,121.645 23.5,114.5C 23.3338,108.158 23.5005,101.825 24,95.5C 25.4813,96.4709 26.3146,97.8042 26.5,99.5 Z"/></g>
<g><path style="opacity:1" fill="#583635" d="M 102.5,122.5 C 104.95,122.874 105.95,124.374 105.5,127C 103.888,131.727 103.388,136.561 104,141.5C 104.833,143 106,144.167 107.5,145C 115.37,147.256 122.703,146.256 129.5,142C 134.421,141.615 139.254,140.781 144,139.5C 146.909,139.285 149.076,140.285 150.5,142.5C 146.888,141.489 143.221,141.322 139.5,142C 132.703,143.599 126.036,145.599 119.5,148C 116.5,148.667 113.5,148.667 110.5,148C 102.396,145.626 99.7297,140.459 102.5,132.5C 105.031,129.174 105.031,125.841 102.5,122.5 Z"/></g>
<g><path style="opacity:1" fill="#ecaeae" d="M 10.5,109.5 C 11.1174,109.611 11.6174,109.944 12,110.5C 13.2064,115.531 14.5397,120.531 16,125.5C 17.5414,129.054 19.3747,132.387 21.5,135.5C 22.4519,137.045 22.7852,138.712 22.5,140.5C 24.1238,140.36 25.2904,141.027 26,142.5C 26.4966,140.19 26.6633,137.857 26.5,135.5C 27.997,140.821 29.8303,146.154 32,151.5C 43.6986,158.181 54.6986,165.848 65,174.5C 65.4643,175.094 65.631,175.761 65.5,176.5C 59.4238,174.029 53.4238,171.362 47.5,168.5C 27.4477,153.76 15.1144,134.093 10.5,109.5 Z"/></g>
<g><path style="opacity:1" fill="#f4f4f3" d="M 181.5,102.5 C 182.833,102.5 184.167,102.5 185.5,102.5C 185.5,103.833 185.5,105.167 185.5,106.5C 184.167,106.5 182.833,106.5 181.5,106.5C 181.5,108.167 181.5,109.833 181.5,111.5C 182.833,111.5 184.167,111.5 185.5,111.5C 185.5,112.833 185.5,114.167 185.5,115.5C 184.167,115.5 182.833,115.5 181.5,115.5C 181.5,116.833 181.5,118.167 181.5,119.5C 182.833,119.5 184.167,119.5 185.5,119.5C 185.5,121.167 185.5,122.833 185.5,124.5C 184.167,124.5 182.833,124.5 181.5,124.5C 181.5,125.833 181.5,127.167 181.5,128.5C 182.833,128.5 184.167,128.5 185.5,128.5C 185.5,129.833 185.5,131.167 185.5,132.5C 184.022,132.238 182.689,132.571 181.5,133.5C 182.641,134.425 182.641,135.259 181.5,136C 182.793,136.49 184.127,136.657 185.5,136.5C 185.785,138.288 185.452,139.955 184.5,141.5C 182.45,142.077 181.45,143.41 181.5,145.5C 182.833,145.5 184.167,145.5 185.5,145.5C 185.5,147.167 185.5,148.833 185.5,150.5C 184.022,150.238 182.689,150.571 181.5,151.5C 182.641,152.425 182.641,153.259 181.5,154C 182.793,154.49 184.127,154.657 185.5,154.5C 186.244,157.95 184.91,159.616 181.5,159.5C 181.5,160.5 181.5,161.5 181.5,162.5C 182.833,162.5 184.167,162.5 185.5,162.5C 185.5,164.167 185.5,165.833 185.5,167.5C 184.167,167.5 182.833,167.5 181.5,167.5C 181.833,170.5 180.5,171.833 177.5,171.5C 177.5,172.833 177.5,174.167 177.5,175.5C 180.5,175.833 181.833,174.5 181.5,171.5C 182.833,171.5 184.167,171.5 185.5,171.5C 185.5,172.833 185.5,174.167 185.5,175.5C 184.167,175.5 182.833,175.5 181.5,175.5C 181.5,177.167 181.5,178.833 181.5,180.5C 182.833,180.5 184.167,180.5 185.5,180.5C 185.5,181.833 185.5,183.167 185.5,184.5C 184.167,184.5 182.833,184.5 181.5,184.5C 181.5,185.833 181.5,187.167 181.5,188.5C 182.833,188.5 184.167,188.5 185.5,188.5C 185.5,189.5 185.5,190.5 185.5,191.5C 126.5,191.5 67.5,191.5 8.5,191.5C 7.81658,189.824 6.48324,189.157 4.5,189.5C 4.5,187.833 4.5,186.167 4.5,184.5C 7.5,184.833 8.83333,183.5 8.5,180.5C 7.16667,180.5 5.83333,180.5 4.5,180.5C 4.5,178.833 4.5,177.167 4.5,175.5C 5.55198,175.351 6.55198,175.517 7.5,176C 8.14664,177.609 8.97997,179.109 10,180.5C 14.9686,177.292 14.4686,175.625 8.5,175.5C 8.5,174.167 8.5,172.833 8.5,171.5C 7.16667,171.5 5.83333,171.5 4.5,171.5C 4.5,170.167 4.5,168.833 4.5,167.5C 5.83333,167.5 7.16667,167.5 8.5,167.5C 8.5,166.167 8.5,164.833 8.5,163.5C 7.16667,163.5 5.83333,163.5 4.5,163.5C 4.5,161.833 4.5,160.167 4.5,158.5C 7.5,158.833 8.83333,157.5 8.5,154.5C 7.16667,154.5 5.83333,154.5 4.5,154.5C 4.5,152.833 4.5,151.167 4.5,149.5C 7.5,149.833 8.83333,148.5 8.5,145.5C 9.83333,145.5 11.1667,145.5 12.5,145.5C 12.5,144.167 12.5,142.833 12.5,141.5C 11.5,141.5 10.5,141.5 9.5,141.5C 9.23798,140.022 9.57131,138.689 10.5,137.5C 11.8924,138.605 13.059,139.939 14,141.5C 14.3333,141.167 14.6667,140.833 15,140.5C 16.883,141.653 17.7163,143.319 17.5,145.5C 18.8333,145.5 20.1667,145.5 21.5,145.5C 22.2436,148.95 20.9103,150.616 17.5,150.5C 17.5,151.833 17.5,153.167 17.5,154.5C 18.5,154.5 19.5,154.5 20.5,154.5C 20.5,156.167 20.5,157.833 20.5,159.5C 19.5,159.5 18.5,159.5 17.5,159.5C 17.5,160.5 17.5,161.5 17.5,162.5C 18.8333,162.5 20.1667,162.5 21.5,162.5C 21.5,163.833 21.5,165.167 21.5,166.5C 20.1667,166.5 18.8333,166.5 17.5,166.5C 17.5,165.5 17.5,164.5 17.5,163.5C 16.1667,163.5 14.8333,163.5 13.5,163.5C 13.5,164.5 13.5,165.5 13.5,166.5C 16.9103,166.384 18.2436,168.05 17.5,171.5C 18.8333,171.5 20.1667,171.5 21.5,171.5C 21.5,172.833 21.5,174.167 21.5,175.5C 22.9778,175.762 24.3112,175.429 25.5,174.5C 26.3697,172.474 27.8697,171.141 30,170.5C 30.3329,168.066 29.1662,167.066 26.5,167.5C 26.2148,165.712 26.5481,164.045 27.5,162.5C 29.7725,163.375 30.7725,165.042 30.5,167.5C 31.8333,167.5 33.1667,167.5 34.5,167.5C 34.1667,170.5 35.5,171.833 38.5,171.5C 38.5,172.833 38.5,174.167 38.5,175.5C 35.0897,175.384 33.7564,177.05 34.5,180.5C 35.8333,180.5 37.1667,180.5 38.5,180.5C 38.3505,181.552 38.5172,182.552 39,183.5C 42.1499,185.161 43.6499,184.161 43.5,180.5C 44.8333,180.5 46.1667,180.5 47.5,180.5C 47.5,178.833 47.5,177.167 47.5,175.5C 46.1667,175.5 44.8333,175.5 43.5,175.5C 43.5,174.167 43.5,172.833 43.5,171.5C 44.8333,171.5 46.1667,171.5 47.5,171.5C 47.5,170.5 47.5,169.5 47.5,168.5C 53.4238,171.362 59.4238,174.029 65.5,176.5C 69.1214,178.818 73.1214,180.152 77.5,180.5C 77.8333,180.5 78.1667,180.5 78.5,180.5C 94.3258,184.066 109.659,182.733 124.5,176.5C 129.501,175.499 134.168,173.665 138.5,171C 145.79,166.198 152.456,160.698 158.5,154.5C 171.183,139.476 178.849,122.143 181.5,102.5 Z"/></g>
</svg>
